<?xml version="1.0" encoding="utf-8"?>
<svg xmlns="http://www.w3.org/2000/svg" xmlns:xlink="http://www.w3.org/1999/xlink" width="850" height="400" viewBox="0 0 3400 1600">
<defs>
  <clipPath id="clip730">
    <rect x="0" y="0" width="3400" height="1600"/>
  </clipPath>
</defs>
<path clip-path="url(#clip730)" d="M0 1600 L3400 1600 L3400 0 L0 0  Z" fill="#ffffff" fill-rule="evenodd" fill-opacity="1"/>
<defs>
  <clipPath id="clip731">
    <rect x="680" y="0" width="2381" height="1600"/>
  </clipPath>
</defs>
<path clip-path="url(#clip730)" d="M234.461 1173.85 L3352.76 1173.85 L3352.76 47.2441 L234.461 47.2441  Z" fill="#ffffff" fill-rule="evenodd" fill-opacity="1"/>
<defs>
  <clipPath id="clip732">
    <rect x="234" y="47" width="3119" height="1128"/>
  </clipPath>
</defs>
<polyline clip-path="url(#clip732)" style="stroke:#000000; stroke-linecap:round; stroke-linejoin:round; stroke-width:2; stroke-opacity:0.1; fill:none" points="242.998,1173.85 242.998,47.2441 "/>
<polyline clip-path="url(#clip732)" style="stroke:#000000; stroke-linecap:round; stroke-linejoin:round; stroke-width:2; stroke-opacity:0.1; fill:none" points="1045.3,1173.85 1045.3,47.2441 "/>
<polyline clip-path="url(#clip732)" style="stroke:#000000; stroke-linecap:round; stroke-linejoin:round; stroke-width:2; stroke-opacity:0.1; fill:none" points="1847.61,1173.85 1847.61,47.2441 "/>
<polyline clip-path="url(#clip732)" style="stroke:#000000; stroke-linecap:round; stroke-linejoin:round; stroke-width:2; stroke-opacity:0.1; fill:none" points="2649.92,1173.85 2649.92,47.2441 "/>
<polyline clip-path="url(#clip730)" style="stroke:#000000; stroke-linecap:round; stroke-linejoin:round; stroke-width:4; stroke-opacity:1; fill:none" points="234.461,1173.85 3352.76,1173.85 "/>
<polyline clip-path="url(#clip730)" style="stroke:#000000; stroke-linecap:round; stroke-linejoin:round; stroke-width:4; stroke-opacity:1; fill:none" points="234.461,47.2441 3352.76,47.2441 "/>
<polyline clip-path="url(#clip730)" style="stroke:#000000; stroke-linecap:round; stroke-linejoin:round; stroke-width:4; stroke-opacity:1; fill:none" points="242.998,1173.85 242.998,1158.65 "/>
<polyline clip-path="url(#clip730)" style="stroke:#000000; stroke-linecap:round; stroke-linejoin:round; stroke-width:4; stroke-opacity:1; fill:none" points="1045.3,1173.85 1045.3,1158.65 "/>
<polyline clip-path="url(#clip730)" style="stroke:#000000; stroke-linecap:round; stroke-linejoin:round; stroke-width:4; stroke-opacity:1; fill:none" points="1847.61,1173.85 1847.61,1158.65 "/>
<polyline clip-path="url(#clip730)" style="stroke:#000000; stroke-linecap:round; stroke-linejoin:round; stroke-width:4; stroke-opacity:1; fill:none" points="2649.92,1173.85 2649.92,1158.65 "/>
<path clip-path="url(#clip730)" d="M114.226 1240.32 L130.545 1240.32 L130.545 1244.25 L108.601 1244.25 L108.601 1240.32 Q111.263 1237.56 115.846 1232.93 Q120.453 1228.28 121.633 1226.94 Q123.878 1224.41 124.758 1222.68 Q125.661 1220.92 125.661 1219.23 Q125.661 1216.47 123.716 1214.74 Q121.795 1213 118.693 1213 Q116.494 1213 114.041 1213.77 Q111.61 1214.53 108.832 1216.08 L108.832 1211.36 Q111.656 1210.22 114.11 1209.65 Q116.564 1209.07 118.601 1209.07 Q123.971 1209.07 127.166 1211.75 Q130.36 1214.44 130.36 1218.93 Q130.36 1221.06 129.55 1222.98 Q128.763 1224.88 126.656 1227.47 Q126.078 1228.14 122.976 1231.36 Q119.874 1234.55 114.226 1240.32 Z" fill="#000000" fill-rule="nonzero" fill-opacity="1" /><path clip-path="url(#clip730)" d="M150.36 1212.77 Q146.749 1212.77 144.92 1216.34 Q143.114 1219.88 143.114 1227.01 Q143.114 1234.11 144.92 1237.68 Q146.749 1241.22 150.36 1241.22 Q153.994 1241.22 155.8 1237.68 Q157.628 1234.11 157.628 1227.01 Q157.628 1219.88 155.8 1216.34 Q153.994 1212.77 150.36 1212.77 M150.36 1209.07 Q156.17 1209.07 159.226 1213.67 Q162.304 1218.26 162.304 1227.01 Q162.304 1235.73 159.226 1240.34 Q156.17 1244.92 150.36 1244.92 Q144.55 1244.92 141.471 1240.34 Q138.415 1235.73 138.415 1227.01 Q138.415 1218.26 141.471 1213.67 Q144.55 1209.07 150.36 1209.07 Z" fill="#000000" fill-rule="nonzero" fill-opacity="1" /><path clip-path="url(#clip730)" d="M171.332 1240.32 L178.971 1240.32 L178.971 1213.95 L170.661 1215.62 L170.661 1211.36 L178.924 1209.69 L183.6 1209.69 L183.6 1240.32 L191.239 1240.32 L191.239 1244.25 L171.332 1244.25 L171.332 1240.32 Z" fill="#000000" fill-rule="nonzero" fill-opacity="1" /><path clip-path="url(#clip730)" d="M213.531 1213.77 L201.725 1232.21 L213.531 1232.21 L213.531 1213.77 M212.304 1209.69 L218.184 1209.69 L218.184 1232.21 L223.114 1232.21 L223.114 1236.1 L218.184 1236.1 L218.184 1244.25 L213.531 1244.25 L213.531 1236.1 L197.929 1236.1 L197.929 1231.59 L212.304 1209.69 Z" fill="#000000" fill-rule="nonzero" fill-opacity="1" /><path clip-path="url(#clip730)" d="M228.091 1229.37 L240.568 1229.37 L240.568 1233.16 L228.091 1233.16 L228.091 1229.37 Z" fill="#000000" fill-rule="nonzero" fill-opacity="1" /><path clip-path="url(#clip730)" d="M257.952 1212.77 Q254.341 1212.77 252.512 1216.34 Q250.707 1219.88 250.707 1227.01 Q250.707 1234.11 252.512 1237.68 Q254.341 1241.22 257.952 1241.22 Q261.586 1241.22 263.392 1237.68 Q265.22 1234.11 265.22 1227.01 Q265.22 1219.88 263.392 1216.34 Q261.586 1212.77 257.952 1212.77 M257.952 1209.07 Q263.762 1209.07 266.818 1213.67 Q269.896 1218.26 269.896 1227.01 Q269.896 1235.73 266.818 1240.34 Q263.762 1244.92 257.952 1244.92 Q252.142 1244.92 249.063 1240.34 Q246.007 1235.73 246.007 1227.01 Q246.007 1218.26 249.063 1213.67 Q252.142 1209.07 257.952 1209.07 Z" fill="#000000" fill-rule="nonzero" fill-opacity="1" /><path clip-path="url(#clip730)" d="M278.924 1240.32 L286.563 1240.32 L286.563 1213.95 L278.253 1215.62 L278.253 1211.36 L286.517 1209.69 L291.192 1209.69 L291.192 1240.32 L298.831 1240.32 L298.831 1244.25 L278.924 1244.25 L278.924 1240.32 Z" fill="#000000" fill-rule="nonzero" fill-opacity="1" /><path clip-path="url(#clip730)" d="M305.521 1229.37 L317.998 1229.37 L317.998 1233.16 L305.521 1233.16 L305.521 1229.37 Z" fill="#000000" fill-rule="nonzero" fill-opacity="1" /><path clip-path="url(#clip730)" d="M335.382 1212.77 Q331.771 1212.77 329.942 1216.34 Q328.137 1219.88 328.137 1227.01 Q328.137 1234.11 329.942 1237.68 Q331.771 1241.22 335.382 1241.22 Q339.016 1241.22 340.822 1237.68 Q342.65 1234.11 342.65 1227.01 Q342.65 1219.88 340.822 1216.34 Q339.016 1212.77 335.382 1212.77 M335.382 1209.07 Q341.192 1209.07 344.248 1213.67 Q347.326 1218.26 347.326 1227.01 Q347.326 1235.73 344.248 1240.34 Q341.192 1244.92 335.382 1244.92 Q329.572 1244.92 326.493 1240.34 Q323.438 1235.73 323.438 1227.01 Q323.438 1218.26 326.493 1213.67 Q329.572 1209.07 335.382 1209.07 Z" fill="#000000" fill-rule="nonzero" fill-opacity="1" /><path clip-path="url(#clip730)" d="M365.544 1227.84 Q362.211 1227.84 360.289 1229.62 Q358.391 1231.4 358.391 1234.53 Q358.391 1237.65 360.289 1239.44 Q362.211 1241.22 365.544 1241.22 Q368.877 1241.22 370.798 1239.44 Q372.72 1237.63 372.72 1234.53 Q372.72 1231.4 370.798 1229.62 Q368.9 1227.84 365.544 1227.84 M360.868 1225.85 Q357.859 1225.11 356.169 1223.05 Q354.502 1220.99 354.502 1218.03 Q354.502 1213.88 357.442 1211.47 Q360.405 1209.07 365.544 1209.07 Q370.706 1209.07 373.646 1211.47 Q376.585 1213.88 376.585 1218.03 Q376.585 1220.99 374.896 1223.05 Q373.229 1225.11 370.243 1225.85 Q373.623 1226.64 375.498 1228.93 Q377.396 1231.22 377.396 1234.53 Q377.396 1239.55 374.317 1242.24 Q371.261 1244.92 365.544 1244.92 Q359.826 1244.92 356.748 1242.24 Q353.692 1239.55 353.692 1234.53 Q353.692 1231.22 355.59 1228.93 Q357.488 1226.64 360.868 1225.85 M359.155 1218.46 Q359.155 1221.15 360.822 1222.65 Q362.511 1224.16 365.544 1224.16 Q368.553 1224.16 370.243 1222.65 Q371.956 1221.15 371.956 1218.46 Q371.956 1215.78 370.243 1214.28 Q368.553 1212.77 365.544 1212.77 Q362.511 1212.77 360.822 1214.28 Q359.155 1215.78 359.155 1218.46 Z" fill="#000000" fill-rule="nonzero" fill-opacity="1" /><path clip-path="url(#clip730)" d="M917.099 1240.32 L933.418 1240.32 L933.418 1244.25 L911.474 1244.25 L911.474 1240.32 Q914.136 1237.56 918.719 1232.93 Q923.325 1228.28 924.506 1226.94 Q926.751 1224.41 927.631 1222.68 Q928.534 1220.92 928.534 1219.23 Q928.534 1216.47 926.589 1214.74 Q924.668 1213 921.566 1213 Q919.367 1213 916.913 1213.77 Q914.483 1214.53 911.705 1216.08 L911.705 1211.36 Q914.529 1210.22 916.983 1209.65 Q919.437 1209.07 921.474 1209.07 Q926.844 1209.07 930.038 1211.75 Q933.233 1214.44 933.233 1218.93 Q933.233 1221.06 932.423 1222.98 Q931.636 1224.88 929.529 1227.47 Q928.95 1228.14 925.849 1231.36 Q922.747 1234.55 917.099 1240.32 Z" fill="#000000" fill-rule="nonzero" fill-opacity="1" /><path clip-path="url(#clip730)" d="M953.233 1212.77 Q949.622 1212.77 947.793 1216.34 Q945.987 1219.88 945.987 1227.01 Q945.987 1234.11 947.793 1237.68 Q949.622 1241.22 953.233 1241.22 Q956.867 1241.22 958.672 1237.68 Q960.501 1234.11 960.501 1227.01 Q960.501 1219.88 958.672 1216.34 Q956.867 1212.77 953.233 1212.77 M953.233 1209.07 Q959.043 1209.07 962.098 1213.67 Q965.177 1218.26 965.177 1227.01 Q965.177 1235.73 962.098 1240.34 Q959.043 1244.92 953.233 1244.92 Q947.423 1244.92 944.344 1240.34 Q941.288 1235.73 941.288 1227.01 Q941.288 1218.26 944.344 1213.67 Q947.423 1209.07 953.233 1209.07 Z" fill="#000000" fill-rule="nonzero" fill-opacity="1" /><path clip-path="url(#clip730)" d="M974.205 1240.32 L981.844 1240.32 L981.844 1213.95 L973.534 1215.62 L973.534 1211.36 L981.797 1209.69 L986.473 1209.69 L986.473 1240.32 L994.112 1240.32 L994.112 1244.25 L974.205 1244.25 L974.205 1240.32 Z" fill="#000000" fill-rule="nonzero" fill-opacity="1" /><path clip-path="url(#clip730)" d="M1016.4 1213.77 L1004.6 1232.21 L1016.4 1232.21 L1016.4 1213.77 M1015.18 1209.69 L1021.06 1209.69 L1021.06 1232.21 L1025.99 1232.21 L1025.99 1236.1 L1021.06 1236.1 L1021.06 1244.25 L1016.4 1244.25 L1016.4 1236.1 L1000.8 1236.1 L1000.8 1231.59 L1015.18 1209.69 Z" fill="#000000" fill-rule="nonzero" fill-opacity="1" /><path clip-path="url(#clip730)" d="M1030.96 1229.37 L1043.44 1229.37 L1043.44 1233.16 L1030.96 1233.16 L1030.96 1229.37 Z" fill="#000000" fill-rule="nonzero" fill-opacity="1" /><path clip-path="url(#clip730)" d="M1060.82 1212.77 Q1057.21 1212.77 1055.38 1216.34 Q1053.58 1219.88 1053.58 1227.01 Q1053.58 1234.11 1055.38 1237.68 Q1057.21 1241.22 1060.82 1241.22 Q1064.46 1241.22 1066.26 1237.68 Q1068.09 1234.11 1068.09 1227.01 Q1068.09 1219.88 1066.26 1216.34 Q1064.46 1212.77 1060.82 1212.77 M1060.82 1209.07 Q1066.63 1209.07 1069.69 1213.67 Q1072.77 1218.26 1072.77 1227.01 Q1072.77 1235.73 1069.69 1240.34 Q1066.63 1244.92 1060.82 1244.92 Q1055.01 1244.92 1051.94 1240.34 Q1048.88 1235.73 1048.88 1227.01 Q1048.88 1218.26 1051.94 1213.67 Q1055.01 1209.07 1060.82 1209.07 Z" fill="#000000" fill-rule="nonzero" fill-opacity="1" /><path clip-path="url(#clip730)" d="M1081.8 1240.32 L1089.44 1240.32 L1089.44 1213.95 L1081.13 1215.62 L1081.13 1211.36 L1089.39 1209.69 L1094.07 1209.69 L1094.07 1240.32 L1101.7 1240.32 L1101.7 1244.25 L1081.8 1244.25 L1081.8 1240.32 Z" fill="#000000" fill-rule="nonzero" fill-opacity="1" /><path clip-path="url(#clip730)" d="M1108.39 1229.37 L1120.87 1229.37 L1120.87 1233.16 L1108.39 1233.16 L1108.39 1229.37 Z" fill="#000000" fill-rule="nonzero" fill-opacity="1" /><path clip-path="url(#clip730)" d="M1132.28 1240.32 L1148.6 1240.32 L1148.6 1244.25 L1126.66 1244.25 L1126.66 1240.32 Q1129.32 1237.56 1133.9 1232.93 Q1138.51 1228.28 1139.69 1226.94 Q1141.94 1224.41 1142.82 1222.68 Q1143.72 1220.92 1143.72 1219.23 Q1143.72 1216.47 1141.77 1214.74 Q1139.85 1213 1136.75 1213 Q1134.55 1213 1132.1 1213.77 Q1129.67 1214.53 1126.89 1216.08 L1126.89 1211.36 Q1129.71 1210.22 1132.17 1209.65 Q1134.62 1209.07 1136.66 1209.07 Q1142.03 1209.07 1145.22 1211.75 Q1148.42 1214.44 1148.42 1218.93 Q1148.42 1221.06 1147.61 1222.98 Q1146.82 1224.88 1144.71 1227.47 Q1144.13 1228.14 1141.03 1231.36 Q1137.93 1234.55 1132.28 1240.32 Z" fill="#000000" fill-rule="nonzero" fill-opacity="1" /><path clip-path="url(#clip730)" d="M1159.23 1240.32 L1166.87 1240.32 L1166.87 1213.95 L1158.56 1215.62 L1158.56 1211.36 L1166.82 1209.69 L1171.5 1209.69 L1171.5 1240.32 L1179.13 1240.32 L1179.13 1244.25 L1159.23 1244.25 L1159.23 1240.32 Z" fill="#000000" fill-rule="nonzero" fill-opacity="1" /><path clip-path="url(#clip730)" d="M1719.12 1240.32 L1735.43 1240.32 L1735.43 1244.25 L1713.49 1244.25 L1713.49 1240.32 Q1716.15 1237.56 1720.74 1232.93 Q1725.34 1228.28 1726.52 1226.94 Q1728.77 1224.41 1729.65 1222.68 Q1730.55 1220.92 1730.55 1219.23 Q1730.55 1216.47 1728.61 1214.74 Q1726.68 1213 1723.58 1213 Q1721.38 1213 1718.93 1213.77 Q1716.5 1214.53 1713.72 1216.08 L1713.72 1211.36 Q1716.55 1210.22 1719 1209.65 Q1721.45 1209.07 1723.49 1209.07 Q1728.86 1209.07 1732.05 1211.75 Q1735.25 1214.44 1735.25 1218.93 Q1735.25 1221.06 1734.44 1222.98 Q1733.65 1224.88 1731.55 1227.47 Q1730.97 1228.14 1727.87 1231.36 Q1724.76 1234.55 1719.12 1240.32 Z" fill="#000000" fill-rule="nonzero" fill-opacity="1" /><path clip-path="url(#clip730)" d="M1755.25 1212.77 Q1751.64 1212.77 1749.81 1216.34 Q1748 1219.88 1748 1227.01 Q1748 1234.11 1749.81 1237.68 Q1751.64 1241.22 1755.25 1241.22 Q1758.88 1241.22 1760.69 1237.68 Q1762.52 1234.11 1762.52 1227.01 Q1762.52 1219.88 1760.69 1216.34 Q1758.88 1212.77 1755.25 1212.77 M1755.25 1209.07 Q1761.06 1209.07 1764.11 1213.67 Q1767.19 1218.26 1767.19 1227.01 Q1767.19 1235.73 1764.11 1240.34 Q1761.06 1244.92 1755.25 1244.92 Q1749.44 1244.92 1746.36 1240.34 Q1743.3 1235.73 1743.3 1227.01 Q1743.3 1218.26 1746.36 1213.67 Q1749.44 1209.07 1755.25 1209.07 Z" fill="#000000" fill-rule="nonzero" fill-opacity="1" /><path clip-path="url(#clip730)" d="M1776.22 1240.32 L1783.86 1240.32 L1783.86 1213.95 L1775.55 1215.62 L1775.55 1211.36 L1783.81 1209.69 L1788.49 1209.69 L1788.49 1240.32 L1796.13 1240.32 L1796.13 1244.25 L1776.22 1244.25 L1776.22 1240.32 Z" fill="#000000" fill-rule="nonzero" fill-opacity="1" /><path clip-path="url(#clip730)" d="M1818.42 1213.77 L1806.61 1232.21 L1818.42 1232.21 L1818.42 1213.77 M1817.19 1209.69 L1823.07 1209.69 L1823.07 1232.21 L1828 1232.21 L1828 1236.1 L1823.07 1236.1 L1823.07 1244.25 L1818.42 1244.25 L1818.42 1236.1 L1802.82 1236.1 L1802.82 1231.59 L1817.19 1209.69 Z" fill="#000000" fill-rule="nonzero" fill-opacity="1" /><path clip-path="url(#clip730)" d="M1832.98 1229.37 L1845.46 1229.37 L1845.46 1233.16 L1832.98 1233.16 L1832.98 1229.37 Z" fill="#000000" fill-rule="nonzero" fill-opacity="1" /><path clip-path="url(#clip730)" d="M1862.84 1212.77 Q1859.23 1212.77 1857.4 1216.34 Q1855.6 1219.88 1855.6 1227.01 Q1855.6 1234.11 1857.4 1237.68 Q1859.23 1241.22 1862.84 1241.22 Q1866.48 1241.22 1868.28 1237.68 Q1870.11 1234.11 1870.11 1227.01 Q1870.11 1219.88 1868.28 1216.34 Q1866.48 1212.77 1862.84 1212.77 M1862.84 1209.07 Q1868.65 1209.07 1871.71 1213.67 Q1874.79 1218.26 1874.79 1227.01 Q1874.79 1235.73 1871.71 1240.34 Q1868.65 1244.92 1862.84 1244.92 Q1857.03 1244.92 1853.95 1240.34 Q1850.9 1235.73 1850.9 1227.01 Q1850.9 1218.26 1853.95 1213.67 Q1857.03 1209.07 1862.84 1209.07 Z" fill="#000000" fill-rule="nonzero" fill-opacity="1" /><path clip-path="url(#clip730)" d="M1887.03 1240.32 L1903.35 1240.32 L1903.35 1244.25 L1881.41 1244.25 L1881.41 1240.32 Q1884.07 1237.56 1888.65 1232.93 Q1893.26 1228.28 1894.44 1226.94 Q1896.68 1224.41 1897.56 1222.68 Q1898.47 1220.92 1898.47 1219.23 Q1898.47 1216.47 1896.52 1214.74 Q1894.6 1213 1891.5 1213 Q1889.3 1213 1886.85 1213.77 Q1884.42 1214.53 1881.64 1216.08 L1881.64 1211.36 Q1884.46 1210.22 1886.92 1209.65 Q1889.37 1209.07 1891.41 1209.07 Q1896.78 1209.07 1899.97 1211.75 Q1903.16 1214.44 1903.16 1218.93 Q1903.16 1221.06 1902.35 1222.98 Q1901.57 1224.88 1899.46 1227.47 Q1898.88 1228.14 1895.78 1231.36 Q1892.68 1234.55 1887.03 1240.32 Z" fill="#000000" fill-rule="nonzero" fill-opacity="1" /><path clip-path="url(#clip730)" d="M1910.41 1229.37 L1922.89 1229.37 L1922.89 1233.16 L1910.41 1233.16 L1910.41 1229.37 Z" fill="#000000" fill-rule="nonzero" fill-opacity="1" /><path clip-path="url(#clip730)" d="M1940.27 1212.77 Q1936.66 1212.77 1934.83 1216.34 Q1933.03 1219.88 1933.03 1227.01 Q1933.03 1234.11 1934.83 1237.68 Q1936.66 1241.22 1940.27 1241.22 Q1943.91 1241.22 1945.71 1237.68 Q1947.54 1234.11 1947.54 1227.01 Q1947.54 1219.88 1945.71 1216.34 Q1943.91 1212.77 1940.27 1212.77 M1940.27 1209.07 Q1946.08 1209.07 1949.14 1213.67 Q1952.22 1218.26 1952.22 1227.01 Q1952.22 1235.73 1949.14 1240.34 Q1946.08 1244.92 1940.27 1244.92 Q1934.46 1244.92 1931.38 1240.34 Q1928.33 1235.73 1928.33 1227.01 Q1928.33 1218.26 1931.38 1213.67 Q1934.46 1209.07 1940.27 1209.07 Z" fill="#000000" fill-rule="nonzero" fill-opacity="1" /><path clip-path="url(#clip730)" d="M1974.6 1225.62 Q1977.96 1226.34 1979.83 1228.6 Q1981.73 1230.87 1981.73 1234.21 Q1981.73 1239.32 1978.21 1242.12 Q1974.69 1244.92 1968.21 1244.92 Q1966.04 1244.92 1963.72 1244.48 Q1961.43 1244.07 1958.97 1243.21 L1958.97 1238.7 Q1960.92 1239.83 1963.23 1240.41 Q1965.55 1240.99 1968.07 1240.99 Q1972.47 1240.99 1974.76 1239.25 Q1977.08 1237.52 1977.08 1234.21 Q1977.08 1231.15 1974.92 1229.44 Q1972.79 1227.7 1968.97 1227.7 L1964.95 1227.7 L1964.95 1223.86 L1969.16 1223.86 Q1972.61 1223.86 1974.44 1222.49 Q1976.27 1221.1 1976.27 1218.51 Q1976.27 1215.85 1974.37 1214.44 Q1972.49 1213 1968.97 1213 Q1967.05 1213 1964.85 1213.42 Q1962.66 1213.84 1960.02 1214.71 L1960.02 1210.55 Q1962.68 1209.81 1964.99 1209.44 Q1967.33 1209.07 1969.39 1209.07 Q1974.72 1209.07 1977.82 1211.5 Q1980.92 1213.9 1980.92 1218.03 Q1980.92 1220.9 1979.28 1222.89 Q1977.63 1224.85 1974.6 1225.62 Z" fill="#000000" fill-rule="nonzero" fill-opacity="1" /><path clip-path="url(#clip730)" d="M2521.02 1240.32 L2537.34 1240.32 L2537.34 1244.25 L2515.39 1244.25 L2515.39 1240.32 Q2518.05 1237.56 2522.64 1232.93 Q2527.24 1228.28 2528.42 1226.94 Q2530.67 1224.41 2531.55 1222.68 Q2532.45 1220.92 2532.45 1219.23 Q2532.45 1216.47 2530.51 1214.74 Q2528.59 1213 2525.48 1213 Q2523.28 1213 2520.83 1213.77 Q2518.4 1214.53 2515.62 1216.08 L2515.62 1211.36 Q2518.45 1210.22 2520.9 1209.65 Q2523.35 1209.07 2525.39 1209.07 Q2530.76 1209.07 2533.96 1211.75 Q2537.15 1214.44 2537.15 1218.93 Q2537.15 1221.06 2536.34 1222.98 Q2535.55 1224.88 2533.45 1227.47 Q2532.87 1228.14 2529.77 1231.36 Q2526.66 1234.55 2521.02 1240.32 Z" fill="#000000" fill-rule="nonzero" fill-opacity="1" /><path clip-path="url(#clip730)" d="M2557.15 1212.77 Q2553.54 1212.77 2551.71 1216.34 Q2549.9 1219.88 2549.9 1227.01 Q2549.9 1234.11 2551.71 1237.68 Q2553.54 1241.22 2557.15 1241.22 Q2560.78 1241.22 2562.59 1237.68 Q2564.42 1234.11 2564.42 1227.01 Q2564.42 1219.88 2562.59 1216.34 Q2560.78 1212.77 2557.15 1212.77 M2557.15 1209.07 Q2562.96 1209.07 2566.02 1213.67 Q2569.09 1218.26 2569.09 1227.01 Q2569.09 1235.73 2566.02 1240.34 Q2562.96 1244.92 2557.15 1244.92 Q2551.34 1244.92 2548.26 1240.34 Q2545.21 1235.73 2545.21 1227.01 Q2545.21 1218.26 2548.26 1213.67 Q2551.34 1209.07 2557.15 1209.07 Z" fill="#000000" fill-rule="nonzero" fill-opacity="1" /><path clip-path="url(#clip730)" d="M2578.12 1240.32 L2585.76 1240.32 L2585.76 1213.95 L2577.45 1215.62 L2577.45 1211.36 L2585.71 1209.69 L2590.39 1209.69 L2590.39 1240.32 L2598.03 1240.32 L2598.03 1244.25 L2578.12 1244.25 L2578.12 1240.32 Z" fill="#000000" fill-rule="nonzero" fill-opacity="1" /><path clip-path="url(#clip730)" d="M2620.32 1213.77 L2608.52 1232.21 L2620.32 1232.21 L2620.32 1213.77 M2619.09 1209.69 L2624.97 1209.69 L2624.97 1232.21 L2629.9 1232.21 L2629.9 1236.1 L2624.97 1236.1 L2624.97 1244.25 L2620.32 1244.25 L2620.32 1236.1 L2604.72 1236.1 L2604.72 1231.59 L2619.09 1209.69 Z" fill="#000000" fill-rule="nonzero" fill-opacity="1" /><path clip-path="url(#clip730)" d="M2634.88 1229.37 L2647.36 1229.37 L2647.36 1233.16 L2634.88 1233.16 L2634.88 1229.37 Z" fill="#000000" fill-rule="nonzero" fill-opacity="1" /><path clip-path="url(#clip730)" d="M2664.74 1212.77 Q2661.13 1212.77 2659.3 1216.34 Q2657.5 1219.88 2657.5 1227.01 Q2657.5 1234.11 2659.3 1237.68 Q2661.13 1241.22 2664.74 1241.22 Q2668.38 1241.22 2670.18 1237.68 Q2672.01 1234.11 2672.01 1227.01 Q2672.01 1219.88 2670.18 1216.34 Q2668.38 1212.77 2664.74 1212.77 M2664.74 1209.07 Q2670.55 1209.07 2673.61 1213.67 Q2676.69 1218.26 2676.69 1227.01 Q2676.69 1235.73 2673.61 1240.34 Q2670.55 1244.92 2664.74 1244.92 Q2658.93 1244.92 2655.85 1240.34 Q2652.8 1235.73 2652.8 1227.01 Q2652.8 1218.26 2655.85 1213.67 Q2658.93 1209.07 2664.74 1209.07 Z" fill="#000000" fill-rule="nonzero" fill-opacity="1" /><path clip-path="url(#clip730)" d="M2688.93 1240.32 L2705.25 1240.32 L2705.25 1244.25 L2683.31 1244.25 L2683.31 1240.32 Q2685.97 1237.56 2690.55 1232.93 Q2695.16 1228.28 2696.34 1226.94 Q2698.58 1224.41 2699.46 1222.68 Q2700.37 1220.92 2700.37 1219.23 Q2700.37 1216.47 2698.42 1214.74 Q2696.5 1213 2693.4 1213 Q2691.2 1213 2688.75 1213.77 Q2686.32 1214.53 2683.54 1216.08 L2683.54 1211.36 Q2686.36 1210.22 2688.82 1209.65 Q2691.27 1209.07 2693.31 1209.07 Q2698.68 1209.07 2701.87 1211.75 Q2705.07 1214.44 2705.07 1218.93 Q2705.07 1221.06 2704.26 1222.98 Q2703.47 1224.88 2701.36 1227.47 Q2700.78 1228.14 2697.68 1231.36 Q2694.58 1234.55 2688.93 1240.32 Z" fill="#000000" fill-rule="nonzero" fill-opacity="1" /><path clip-path="url(#clip730)" d="M2712.31 1229.37 L2724.79 1229.37 L2724.79 1233.16 L2712.31 1233.16 L2712.31 1229.37 Z" fill="#000000" fill-rule="nonzero" fill-opacity="1" /><path clip-path="url(#clip730)" d="M2732.98 1240.32 L2740.62 1240.32 L2740.62 1213.95 L2732.31 1215.62 L2732.31 1211.36 L2740.57 1209.69 L2745.25 1209.69 L2745.25 1240.32 L2752.89 1240.32 L2752.89 1244.25 L2732.98 1244.25 L2732.98 1240.32 Z" fill="#000000" fill-rule="nonzero" fill-opacity="1" /><path clip-path="url(#clip730)" d="M2772.91 1225.11 Q2769.76 1225.11 2767.91 1227.26 Q2766.08 1229.41 2766.08 1233.16 Q2766.08 1236.89 2767.91 1239.07 Q2769.76 1241.22 2772.91 1241.22 Q2776.06 1241.22 2777.89 1239.07 Q2779.74 1236.89 2779.74 1233.16 Q2779.74 1229.41 2777.89 1227.26 Q2776.06 1225.11 2772.91 1225.11 M2782.19 1210.46 L2782.19 1214.71 Q2780.44 1213.88 2778.63 1213.44 Q2776.85 1213 2775.09 1213 Q2770.46 1213 2768.01 1216.13 Q2765.57 1219.25 2765.23 1225.57 Q2766.59 1223.56 2768.65 1222.49 Q2770.71 1221.4 2773.19 1221.4 Q2778.4 1221.4 2781.41 1224.58 Q2784.44 1227.72 2784.44 1233.16 Q2784.44 1238.49 2781.29 1241.71 Q2778.14 1244.92 2772.91 1244.92 Q2766.92 1244.92 2763.75 1240.34 Q2760.57 1235.73 2760.57 1227.01 Q2760.57 1218.81 2764.46 1213.95 Q2768.35 1209.07 2774.9 1209.07 Q2776.66 1209.07 2778.44 1209.41 Q2780.25 1209.76 2782.19 1210.46 Z" fill="#000000" fill-rule="nonzero" fill-opacity="1" /><path clip-path="url(#clip730)" d="M1727.07 1291.48 L1727.07 1328.43 L1734.84 1328.43 Q1744.67 1328.43 1749.22 1323.98 Q1753.81 1319.52 1753.81 1309.91 Q1753.81 1300.36 1749.22 1295.94 Q1744.67 1291.48 1734.84 1291.48 L1727.07 1291.48 M1720.64 1286.2 L1733.85 1286.2 Q1747.66 1286.2 1754.13 1291.96 Q1760.59 1297.69 1760.59 1309.91 Q1760.59 1322.19 1754.09 1327.95 Q1747.6 1333.72 1733.85 1333.72 L1720.64 1333.72 L1720.64 1286.2 Z" fill="#000000" fill-rule="nonzero" fill-opacity="1" /><path clip-path="url(#clip730)" d="M1786.78 1315.8 Q1779.68 1315.8 1776.95 1317.42 Q1774.21 1319.04 1774.21 1322.96 Q1774.21 1326.08 1776.25 1327.92 Q1778.31 1329.74 1781.85 1329.74 Q1786.72 1329.74 1789.65 1326.3 Q1792.61 1322.83 1792.61 1317.1 L1792.61 1315.8 L1786.78 1315.8 M1798.46 1313.38 L1798.46 1333.72 L1792.61 1333.72 L1792.61 1328.3 Q1790.6 1331.55 1787.61 1333.11 Q1784.62 1334.64 1780.29 1334.64 Q1774.81 1334.64 1771.57 1331.58 Q1768.35 1328.5 1768.35 1323.34 Q1768.35 1317.32 1772.36 1314.27 Q1776.41 1311.21 1784.39 1311.21 L1792.61 1311.21 L1792.61 1310.64 Q1792.61 1306.6 1789.93 1304.4 Q1787.29 1302.17 1782.48 1302.17 Q1779.43 1302.17 1776.53 1302.91 Q1773.64 1303.64 1770.96 1305.1 L1770.96 1299.69 Q1774.18 1298.45 1777.2 1297.85 Q1780.22 1297.21 1783.09 1297.21 Q1790.82 1297.21 1794.64 1301.22 Q1798.46 1305.23 1798.46 1313.38 Z" fill="#000000" fill-rule="nonzero" fill-opacity="1" /><path clip-path="url(#clip730)" d="M1816.32 1287.95 L1816.32 1298.07 L1828.38 1298.07 L1828.38 1302.62 L1816.32 1302.62 L1816.32 1321.97 Q1816.32 1326.33 1817.5 1327.57 Q1818.71 1328.81 1822.37 1328.81 L1828.38 1328.81 L1828.38 1333.72 L1822.37 1333.72 Q1815.59 1333.72 1813.01 1331.2 Q1810.43 1328.66 1810.43 1321.97 L1810.43 1302.62 L1806.13 1302.62 L1806.13 1298.07 L1810.43 1298.07 L1810.43 1287.95 L1816.32 1287.95 Z" fill="#000000" fill-rule="nonzero" fill-opacity="1" /><path clip-path="url(#clip730)" d="M1866.58 1314.43 L1866.58 1317.29 L1839.65 1317.29 Q1840.03 1323.34 1843.28 1326.52 Q1846.56 1329.67 1852.38 1329.67 Q1855.75 1329.67 1858.9 1328.85 Q1862.09 1328.02 1865.21 1326.36 L1865.21 1331.9 Q1862.06 1333.24 1858.75 1333.94 Q1855.44 1334.64 1852.03 1334.64 Q1843.5 1334.64 1838.5 1329.67 Q1833.54 1324.71 1833.54 1316.24 Q1833.54 1307.49 1838.25 1302.36 Q1842.99 1297.21 1851.01 1297.21 Q1858.2 1297.21 1862.37 1301.86 Q1866.58 1306.47 1866.58 1314.43 M1860.72 1312.71 Q1860.66 1307.9 1858.01 1305.04 Q1855.4 1302.17 1851.07 1302.17 Q1846.17 1302.17 1843.21 1304.94 Q1840.28 1307.71 1839.84 1312.74 L1860.72 1312.71 Z" fill="#000000" fill-rule="nonzero" fill-opacity="1" /><polyline clip-path="url(#clip732)" style="stroke:#000000; stroke-linecap:round; stroke-linejoin:round; stroke-width:2; stroke-opacity:0.1; fill:none" points="234.461,1020 3352.76,1020 "/>
<polyline clip-path="url(#clip732)" style="stroke:#000000; stroke-linecap:round; stroke-linejoin:round; stroke-width:2; stroke-opacity:0.1; fill:none" points="234.461,762.685 3352.76,762.685 "/>
<polyline clip-path="url(#clip732)" style="stroke:#000000; stroke-linecap:round; stroke-linejoin:round; stroke-width:2; stroke-opacity:0.1; fill:none" points="234.461,505.371 3352.76,505.371 "/>
<polyline clip-path="url(#clip732)" style="stroke:#000000; stroke-linecap:round; stroke-linejoin:round; stroke-width:2; stroke-opacity:0.1; fill:none" points="234.461,248.056 3352.76,248.056 "/>
<polyline clip-path="url(#clip730)" style="stroke:#000000; stroke-linecap:round; stroke-linejoin:round; stroke-width:4; stroke-opacity:1; fill:none" points="234.461,1173.85 234.461,47.2441 "/>
<polyline clip-path="url(#clip730)" style="stroke:#000000; stroke-linecap:round; stroke-linejoin:round; stroke-width:4; stroke-opacity:1; fill:none" points="3352.76,1173.85 3352.76,47.2441 "/>
<polyline clip-path="url(#clip730)" style="stroke:#000000; stroke-linecap:round; stroke-linejoin:round; stroke-width:4; stroke-opacity:1; fill:none" points="234.461,1020 253.359,1020 "/>
<polyline clip-path="url(#clip730)" style="stroke:#000000; stroke-linecap:round; stroke-linejoin:round; stroke-width:4; stroke-opacity:1; fill:none" points="234.461,762.685 253.359,762.685 "/>
<polyline clip-path="url(#clip730)" style="stroke:#000000; stroke-linecap:round; stroke-linejoin:round; stroke-width:4; stroke-opacity:1; fill:none" points="234.461,505.371 253.359,505.371 "/>
<polyline clip-path="url(#clip730)" style="stroke:#000000; stroke-linecap:round; stroke-linejoin:round; stroke-width:4; stroke-opacity:1; fill:none" points="234.461,248.056 253.359,248.056 "/>
<path clip-path="url(#clip730)" d="M167.142 1033.34 L183.461 1033.34 L183.461 1037.28 L161.517 1037.28 L161.517 1033.34 Q164.179 1030.59 168.762 1025.96 Q173.368 1021.31 174.549 1019.96 Q176.794 1017.44 177.674 1015.71 Q178.577 1013.95 178.577 1012.26 Q178.577 1009.5 176.632 1007.77 Q174.711 1006.03 171.609 1006.03 Q169.41 1006.03 166.956 1006.79 Q164.526 1007.56 161.748 1009.11 L161.748 1004.39 Q164.572 1003.25 167.026 1002.67 Q169.479 1002.09 171.516 1002.09 Q176.887 1002.09 180.081 1004.78 Q183.276 1007.46 183.276 1011.96 Q183.276 1014.09 182.465 1016.01 Q181.678 1017.9 179.572 1020.5 Q178.993 1021.17 175.891 1024.39 Q172.79 1027.58 167.142 1033.34 Z" fill="#000000" fill-rule="nonzero" fill-opacity="1" /><path clip-path="url(#clip730)" d="M173.878 749.479 L162.072 767.928 L173.878 767.928 L173.878 749.479 M172.651 745.405 L178.53 745.405 L178.53 767.928 L183.461 767.928 L183.461 771.817 L178.53 771.817 L178.53 779.965 L173.878 779.965 L173.878 771.817 L158.276 771.817 L158.276 767.303 L172.651 745.405 Z" fill="#000000" fill-rule="nonzero" fill-opacity="1" /><path clip-path="url(#clip730)" d="M171.933 503.507 Q168.785 503.507 166.933 505.66 Q165.104 507.813 165.104 511.563 Q165.104 515.29 166.933 517.465 Q168.785 519.618 171.933 519.618 Q175.081 519.618 176.91 517.465 Q178.762 515.29 178.762 511.563 Q178.762 507.813 176.91 505.66 Q175.081 503.507 171.933 503.507 M181.216 488.855 L181.216 493.114 Q179.456 492.28 177.651 491.841 Q175.868 491.401 174.109 491.401 Q169.479 491.401 167.026 494.526 Q164.595 497.651 164.248 503.97 Q165.614 501.956 167.674 500.892 Q169.734 499.804 172.211 499.804 Q177.419 499.804 180.428 502.975 Q183.461 506.123 183.461 511.563 Q183.461 516.887 180.313 520.104 Q177.165 523.322 171.933 523.322 Q165.938 523.322 162.767 518.739 Q159.595 514.132 159.595 505.405 Q159.595 497.211 163.484 492.35 Q167.373 487.466 173.924 487.466 Q175.683 487.466 177.466 487.813 Q179.271 488.16 181.216 488.855 Z" fill="#000000" fill-rule="nonzero" fill-opacity="1" /><path clip-path="url(#clip730)" d="M171.609 248.924 Q168.276 248.924 166.354 250.707 Q164.456 252.489 164.456 255.614 Q164.456 258.739 166.354 260.521 Q168.276 262.304 171.609 262.304 Q174.942 262.304 176.864 260.521 Q178.785 258.716 178.785 255.614 Q178.785 252.489 176.864 250.707 Q174.966 248.924 171.609 248.924 M166.933 246.933 Q163.924 246.193 162.234 244.133 Q160.567 242.072 160.567 239.109 Q160.567 234.966 163.507 232.559 Q166.47 230.151 171.609 230.151 Q176.771 230.151 179.711 232.559 Q182.651 234.966 182.651 239.109 Q182.651 242.072 180.961 244.133 Q179.294 246.193 176.308 246.933 Q179.688 247.721 181.563 250.012 Q183.461 252.304 183.461 255.614 Q183.461 260.637 180.382 263.322 Q177.327 266.007 171.609 266.007 Q165.892 266.007 162.813 263.322 Q159.757 260.637 159.757 255.614 Q159.757 252.304 161.655 250.012 Q163.554 247.721 166.933 246.933 M165.22 239.549 Q165.22 242.234 166.887 243.739 Q168.577 245.244 171.609 245.244 Q174.618 245.244 176.308 243.739 Q178.021 242.234 178.021 239.549 Q178.021 236.864 176.308 235.359 Q174.618 233.855 171.609 233.855 Q168.577 233.855 166.887 235.359 Q165.22 236.864 165.22 239.549 Z" fill="#000000" fill-rule="nonzero" fill-opacity="1" /><path clip-path="url(#clip730)" d="M45.4998 993.525 L45.4998 963.479 L50.9107 963.479 L50.9107 987.095 L64.9789 987.095 L64.9789 964.465 L70.3897 964.465 L70.3897 987.095 L87.609 987.095 L87.609 962.906 L93.0198 962.906 L93.0198 993.525 L45.4998 993.525 Z" fill="#000000" fill-rule="nonzero" fill-opacity="1" /><path clip-path="url(#clip730)" d="M43.4946 952.593 L43.4946 946.737 L93.0198 946.737 L93.0198 952.593 L43.4946 952.593 Z" fill="#000000" fill-rule="nonzero" fill-opacity="1" /><path clip-path="url(#clip730)" d="M73.7317 903.991 L76.5963 903.991 L76.5963 930.918 Q82.6437 930.536 85.8266 927.29 Q88.9776 924.011 88.9776 918.187 Q88.9776 914.813 88.15 911.662 Q87.3225 908.479 85.6674 905.36 L91.2056 905.36 Q92.5424 908.511 93.2426 911.821 Q93.9428 915.131 93.9428 918.537 Q93.9428 927.067 88.9776 932.064 Q84.0123 937.029 75.5459 937.029 Q66.7931 937.029 61.6687 932.318 Q56.5125 927.576 56.5125 919.555 Q56.5125 912.362 61.1595 908.192 Q65.7746 903.991 73.7317 903.991 M72.013 909.848 Q67.2069 909.911 64.3423 912.553 Q61.4777 915.163 61.4777 919.492 Q61.4777 924.393 64.2468 927.353 Q67.0159 930.281 72.0448 930.727 L72.013 909.848 Z" fill="#000000" fill-rule="nonzero" fill-opacity="1" /><path clip-path="url(#clip730)" d="M58.7405 868.725 L64.215 868.725 Q62.8464 871.208 62.178 873.722 Q61.4777 876.205 61.4777 878.751 Q61.4777 884.448 65.1062 887.599 Q68.7028 890.75 75.2277 890.75 Q81.7525 890.75 85.381 887.599 Q88.9776 884.448 88.9776 878.751 Q88.9776 876.205 88.3092 873.722 Q87.609 871.208 86.2403 868.725 L91.6512 868.725 Q92.797 871.176 93.3699 873.818 Q93.9428 876.428 93.9428 879.388 Q93.9428 887.44 88.8821 892.183 Q83.8214 896.925 75.2277 896.925 Q66.5066 896.925 61.5096 892.151 Q56.5125 887.345 56.5125 879.006 Q56.5125 876.3 57.0854 873.722 Q57.6265 871.144 58.7405 868.725 Z" fill="#000000" fill-rule="nonzero" fill-opacity="1" /><path clip-path="url(#clip730)" d="M47.2504 852.747 L57.3719 852.747 L57.3719 840.684 L61.9233 840.684 L61.9233 852.747 L81.2751 852.747 Q85.6356 852.747 86.8769 851.57 Q88.1182 850.36 88.1182 846.7 L88.1182 840.684 L93.0198 840.684 L93.0198 846.7 Q93.0198 853.479 90.5054 856.057 Q87.9591 858.635 81.2751 858.635 L61.9233 858.635 L61.9233 862.932 L57.3719 862.932 L57.3719 858.635 L47.2504 858.635 L47.2504 852.747 Z" fill="#000000" fill-rule="nonzero" fill-opacity="1" /><path clip-path="url(#clip730)" d="M62.8464 812.325 Q62.2734 813.312 62.0188 814.489 Q61.7324 815.635 61.7324 817.036 Q61.7324 822.001 64.9789 824.674 Q68.1936 827.316 74.241 827.316 L93.0198 827.316 L93.0198 833.204 L57.3719 833.204 L57.3719 827.316 L62.91 827.316 Q59.6635 825.47 58.1039 822.51 Q56.5125 819.55 56.5125 815.317 Q56.5125 814.712 56.608 813.98 Q56.6716 813.248 56.8308 812.357 L62.8464 812.325 Z" fill="#000000" fill-rule="nonzero" fill-opacity="1" /><path clip-path="url(#clip730)" d="M57.3719 806.182 L57.3719 800.326 L93.0198 800.326 L93.0198 806.182 L57.3719 806.182 M43.4946 806.182 L43.4946 800.326 L50.9107 800.326 L50.9107 806.182 L43.4946 806.182 Z" fill="#000000" fill-rule="nonzero" fill-opacity="1" /><path clip-path="url(#clip730)" d="M58.7405 762.418 L64.215 762.418 Q62.8464 764.9 62.178 767.415 Q61.4777 769.897 61.4777 772.444 Q61.4777 778.141 65.1062 781.292 Q68.7028 784.443 75.2277 784.443 Q81.7525 784.443 85.381 781.292 Q88.9776 778.141 88.9776 772.444 Q88.9776 769.897 88.3092 767.415 Q87.609 764.9 86.2403 762.418 L91.6512 762.418 Q92.797 764.869 93.3699 767.51 Q93.9428 770.12 93.9428 773.08 Q93.9428 781.133 88.8821 785.875 Q83.8214 790.618 75.2277 790.618 Q66.5066 790.618 61.5096 785.844 Q56.5125 781.037 56.5125 772.698 Q56.5125 769.993 57.0854 767.415 Q57.6265 764.837 58.7405 762.418 Z" fill="#000000" fill-rule="nonzero" fill-opacity="1" /><path clip-path="url(#clip730)" d="M57.3719 752.233 L57.3719 746.376 L93.0198 746.376 L93.0198 752.233 L57.3719 752.233 M43.4946 752.233 L43.4946 746.376 L50.9107 746.376 L50.9107 752.233 L43.4946 752.233 Z" fill="#000000" fill-rule="nonzero" fill-opacity="1" /><path clip-path="url(#clip730)" d="M47.2504 728.329 L57.3719 728.329 L57.3719 716.266 L61.9233 716.266 L61.9233 728.329 L81.2751 728.329 Q85.6356 728.329 86.8769 727.152 Q88.1182 725.942 88.1182 722.282 L88.1182 716.266 L93.0198 716.266 L93.0198 722.282 Q93.0198 729.061 90.5054 731.64 Q87.9591 734.218 81.2751 734.218 L61.9233 734.218 L61.9233 738.515 L57.3719 738.515 L57.3719 734.218 L47.2504 734.218 L47.2504 728.329 Z" fill="#000000" fill-rule="nonzero" fill-opacity="1" /><path clip-path="url(#clip730)" d="M96.33 693.732 Q102.696 696.214 104.637 698.57 Q106.579 700.925 106.579 704.872 L106.579 709.551 L101.677 709.551 L101.677 706.113 Q101.677 703.694 100.531 702.357 Q99.3855 701.021 95.1205 699.397 L92.4469 698.347 L57.3719 712.765 L57.3719 706.559 L85.2537 695.419 L57.3719 684.279 L57.3719 678.072 L96.33 693.732 Z" fill="#000000" fill-rule="nonzero" fill-opacity="1" /><path clip-path="url(#clip730)" d="M62.7827 625.81 L43.4946 625.81 L43.4946 619.953 L93.0198 619.953 L93.0198 625.81 L87.6726 625.81 Q90.8555 627.656 92.4151 630.489 Q93.9428 633.289 93.9428 637.236 Q93.9428 643.697 88.7866 647.771 Q83.6304 651.814 75.2277 651.814 Q66.8249 651.814 61.6687 647.771 Q56.5125 643.697 56.5125 637.236 Q56.5125 633.289 58.0721 630.489 Q59.5999 627.656 62.7827 625.81 M75.2277 645.766 Q81.6889 645.766 85.381 643.124 Q89.0412 640.451 89.0412 635.804 Q89.0412 631.157 85.381 628.483 Q81.6889 625.81 75.2277 625.81 Q68.7665 625.81 65.1062 628.483 Q61.4141 631.157 61.4141 635.804 Q61.4141 640.451 65.1062 643.124 Q68.7665 645.766 75.2277 645.766 Z" fill="#000000" fill-rule="nonzero" fill-opacity="1" /><path clip-path="url(#clip730)" d="M73.7317 577.399 L76.5963 577.399 L76.5963 604.325 Q82.6437 603.944 85.8266 600.697 Q88.9776 597.419 88.9776 591.594 Q88.9776 588.22 88.15 585.069 Q87.3225 581.886 85.6674 578.767 L91.2056 578.767 Q92.5424 581.918 93.2426 585.228 Q93.9428 588.539 93.9428 591.944 Q93.9428 600.474 88.9776 605.471 Q84.0123 610.437 75.5459 610.437 Q66.7931 610.437 61.6687 605.726 Q56.5125 600.983 56.5125 592.963 Q56.5125 585.769 61.1595 581.6 Q65.7746 577.399 73.7317 577.399 M72.013 583.255 Q67.2069 583.319 64.3423 585.96 Q61.4777 588.57 61.4777 592.899 Q61.4777 597.801 64.2468 600.761 Q67.0159 603.689 72.0448 604.134 L72.013 583.255 Z" fill="#000000" fill-rule="nonzero" fill-opacity="1" /><path clip-path="url(#clip730)" d="M64.215 540.032 Q60.2683 537.836 58.3904 534.78 Q56.5125 531.725 56.5125 527.587 Q56.5125 522.017 60.4274 518.993 Q64.3105 515.969 71.5037 515.969 L93.0198 515.969 L93.0198 521.858 L71.6947 521.858 Q66.5703 521.858 64.0877 523.672 Q61.6051 525.486 61.6051 529.21 Q61.6051 533.762 64.6288 536.403 Q67.6525 539.045 72.8724 539.045 L93.0198 539.045 L93.0198 544.933 L71.6947 544.933 Q66.5385 544.933 64.0877 546.748 Q61.6051 548.562 61.6051 552.349 Q61.6051 556.837 64.6606 559.479 Q67.6843 562.121 72.8724 562.121 L93.0198 562.121 L93.0198 568.009 L57.3719 568.009 L57.3719 562.121 L62.91 562.121 Q59.6317 560.116 58.0721 557.315 Q56.5125 554.514 56.5125 550.663 Q56.5125 546.779 58.4859 544.074 Q60.4592 541.337 64.215 540.032 Z" fill="#000000" fill-rule="nonzero" fill-opacity="1" /><path clip-path="url(#clip730)" d="M75.1003 488.088 Q75.1003 495.185 76.7236 497.923 Q78.3469 500.66 82.2618 500.66 Q85.381 500.66 87.227 498.623 Q89.0412 496.554 89.0412 493.021 Q89.0412 488.151 85.6038 485.223 Q82.1345 482.263 76.4053 482.263 L75.1003 482.263 L75.1003 488.088 M72.6814 476.407 L93.0198 476.407 L93.0198 482.263 L87.609 482.263 Q90.8555 484.268 92.4151 487.26 Q93.9428 490.252 93.9428 494.581 Q93.9428 500.055 90.8873 503.302 Q87.7999 506.516 82.6437 506.516 Q76.6281 506.516 73.5726 502.506 Q70.517 498.464 70.517 490.475 L70.517 482.263 L69.9441 482.263 Q65.9019 482.263 63.7057 484.937 Q61.4777 487.578 61.4777 492.385 Q61.4777 495.44 62.2098 498.336 Q62.9418 501.233 64.406 503.906 L58.9951 503.906 Q57.7538 500.692 57.1491 497.668 Q56.5125 494.644 56.5125 491.78 Q56.5125 484.045 60.5229 480.226 Q64.5333 476.407 72.6814 476.407 Z" fill="#000000" fill-rule="nonzero" fill-opacity="1" /><path clip-path="url(#clip730)" d="M71.5037 434.711 L93.0198 434.711 L93.0198 440.568 L71.6947 440.568 Q66.634 440.568 64.1195 442.541 Q61.6051 444.514 61.6051 448.461 Q61.6051 453.204 64.6288 455.941 Q67.6525 458.678 72.8724 458.678 L93.0198 458.678 L93.0198 464.566 L57.3719 464.566 L57.3719 458.678 L62.91 458.678 Q59.6953 456.577 58.1039 453.745 Q56.5125 450.88 56.5125 447.156 Q56.5125 441.013 60.3319 437.862 Q64.1195 434.711 71.5037 434.711 Z" fill="#000000" fill-rule="nonzero" fill-opacity="1" /><path clip-path="url(#clip730)" d="M62.7827 399.573 L43.4946 399.573 L43.4946 393.716 L93.0198 393.716 L93.0198 399.573 L87.6726 399.573 Q90.8555 401.419 92.4151 404.251 Q93.9428 407.052 93.9428 410.999 Q93.9428 417.46 88.7866 421.534 Q83.6304 425.576 75.2277 425.576 Q66.8249 425.576 61.6687 421.534 Q56.5125 417.46 56.5125 410.999 Q56.5125 407.052 58.0721 404.251 Q59.5999 401.419 62.7827 399.573 M75.2277 419.529 Q81.6889 419.529 85.381 416.887 Q89.0412 414.214 89.0412 409.567 Q89.0412 404.92 85.381 402.246 Q81.6889 399.573 75.2277 399.573 Q68.7665 399.573 65.1062 402.246 Q61.4141 404.92 61.4141 409.567 Q61.4141 414.214 65.1062 416.887 Q68.7665 419.529 75.2277 419.529 Z" fill="#000000" fill-rule="nonzero" fill-opacity="1" /><path clip-path="url(#clip730)" d="M43.5583 367.585 Q50.8788 371.85 58.0403 373.919 Q65.2017 375.988 72.5541 375.988 Q79.9065 375.988 87.1315 373.919 Q94.3248 371.818 101.614 367.585 L101.614 372.677 Q94.1338 377.452 86.9087 379.839 Q79.6837 382.194 72.5541 382.194 Q65.4563 382.194 58.2631 379.839 Q51.0698 377.484 43.5583 372.677 L43.5583 367.585 Z" fill="#000000" fill-rule="nonzero" fill-opacity="1" /><path clip-path="url(#clip730)" d="M86.2403 323.566 L73.4771 323.566 L73.4771 334.069 L68.1936 334.069 L68.1936 317.2 L88.5956 317.2 Q91.2374 320.924 92.606 325.412 Q93.9428 329.9 93.9428 334.992 Q93.9428 346.132 87.4498 352.434 Q80.925 358.705 69.3076 358.705 Q57.6583 358.705 51.1653 352.434 Q44.6404 346.132 44.6404 334.992 Q44.6404 330.345 45.7863 326.176 Q46.9321 321.975 49.1601 318.442 L56.0032 318.442 Q52.9795 322.006 51.4517 326.017 Q49.924 330.027 49.924 334.451 Q49.924 343.172 54.7937 347.565 Q59.6635 351.925 69.3076 351.925 Q78.9198 351.925 83.7895 347.565 Q88.6593 343.172 88.6593 334.451 Q88.6593 331.046 88.0864 328.372 Q87.4816 325.698 86.2403 323.566 Z" fill="#000000" fill-rule="nonzero" fill-opacity="1" /><path clip-path="url(#clip730)" d="M45.4998 309.689 L45.4998 303.196 L85.6674 293.202 L45.4998 283.239 L45.4998 276.014 L85.6674 266.02 L45.4998 256.058 L45.4998 249.533 L93.0198 261.469 L93.0198 269.553 L51.77 279.579 L93.0198 289.7 L93.0198 297.785 L45.4998 309.689 Z" fill="#000000" fill-rule="nonzero" fill-opacity="1" /><path clip-path="url(#clip730)" d="M43.5583 242.18 L43.5583 237.088 Q51.0698 232.314 58.2631 229.958 Q65.4563 227.571 72.5541 227.571 Q79.6837 227.571 86.9087 229.958 Q94.1338 232.314 101.614 237.088 L101.614 242.18 Q94.3248 237.947 87.1315 235.878 Q79.9065 233.778 72.5541 233.778 Q65.2017 233.778 58.0403 235.878 Q50.8788 237.947 43.5583 242.18 Z" fill="#000000" fill-rule="nonzero" fill-opacity="1" /><polyline clip-path="url(#clip732)" style="stroke:#008000; stroke-linecap:round; stroke-linejoin:round; stroke-width:4; stroke-opacity:1; fill:none" points="322.714,684.847 325.286,660.66 327.857,645.864 330.429,628.882 333,607.782 335.572,587.969 338.143,564.81 340.715,542.939 343.286,519.78 345.858,509.745 348.429,528.915 351.001,560.565 353.572,592.729 356.144,615.887 358.715,674.426 361.287,715.468 363.858,683.175 366.43,742.357 369.001,792.148 371.573,819.938 374.144,827.4 376.716,808.23 379.287,755.866 381.859,674.298 384.43,627.338 387.002,590.027 389.573,558.635 392.145,530.073 394.716,500.482 397.288,467.288 399.859,434.866 402.431,404.117 405.002,379.029 407.574,372.21 410.145,395.369 412.717,433.194 415.288,482.084 417.86,518.365 420.431,594.916 423.003,660.403 425.574,651.783 428.146,728.72 430.717,785.843 433.289,815.692 435.86,829.458 438.432,825.213 441.003,810.031 443.575,781.083 446.146,747.761 448.718,714.439 451.289,703.245 453.861,703.503 456.432,708.392 459.004,711.48 461.575,710.322 464.147,700.93 466.718,682.789 469.29,668.508 471.861,668.122 474.433,689.093 477.004,713.152 479.576,721.129 482.147,753.808 484.719,770.405 487.29,730.907 489.862,785.715 492.433,837.821 495.005,863.038 497.576,875.389 500.148,874.36 502.719,868.055 505.29,847.985 507.862,831.002 510.433,805.399 513.005,789.96 515.576,784.042 518.148,776.323 520.719,767.317 523.291,748.661 525.862,727.304 528.434,701.959 531.005,682.532 533.577,672.239 536.148,686.263 538.72,705.175 541.291,703.631 543.863,745.059 546.434,773.878 549.006,732.965 551.577,784.171 554.149,830.23 556.72,852.488 559.292,855.447 561.863,824.569 564.435,765.902 567.006,685.491 569.578,651.525 572.149,620.648 574.721,594.401 577.292,564.296 579.864,536.377 582.435,504.727 585.007,468.703 587.578,425.989 590.15,377.614 592.721,350.081 595.293,364.491 597.864,397.427 600.436,455.58 603.007,499.195 605.579,578.319 608.15,646.379 610.722,639.303 613.293,708.006 615.865,755.866 618.436,782.884 621.008,785.457 623.579,760.498 626.151,695.655 628.722,604.565 631.294,530.845 633.865,447.604 636.437,379.93 639.008,311.613 641.58,251.53 644.151,201.868 646.723,171.376 649.294,145.902 651.866,115.539 654.437,107.82 657.009,134.195 659.58,180.511 662.152,229.144 664.723,274.174 667.295,384.69 669.866,477.709 672.438,489.546 675.009,570.343 677.581,616.016 680.152,647.408 682.723,658.215 685.295,630.94 687.866,565.068 690.438,467.674 693.009,376.713 695.581,295.273 698.152,244.196 700.724,189.002 703.295,149.247 705.867,119.399 708.438,104.861 711.01,99.4571 713.581,97.1412 716.153,114.381 718.724,170.09 721.296,235.834 723.867,297.332 726.439,349.953 729.01,447.732 731.582,538.822 734.153,541.652 736.725,620.39 739.296,664.52 741.868,684.204 744.439,689.865 747.011,667.865 749.582,607.782 752.154,506.915 754.725,415.568 757.297,320.362 759.868,242.91 762.44,185.786 765.011,140.37 767.583,112.709 770.154,104.732 772.726,91.8663 775.297,79.9012 777.869,79.1292 780.44,118.627 783.012,176.523 785.583,212.675 788.155,259.507 790.726,366.807 793.298,460.598 795.869,482.856 798.441,575.489 801.012,628.753 803.584,665.034 806.155,674.812 808.727,645.864 811.298,581.15 813.87,479.768 816.441,386.62 819.013,300.42 821.584,236.477 824.156,184.114 826.727,139.598 829.299,111.937 831.87,98.9424 834.442,89.6791 837.013,86.8487 839.585,138.44 842.156,248.828 844.728,326.794 847.299,410.808 849.871,471.405 852.442,545.254 855.014,604.823 857.585,605.723 860.156,686.391 862.728,735.281 865.299,764.744 867.871,776.709 870.442,773.106 873.014,758.697 875.585,725.76 878.157,690.894 880.728,650.496 883.3,638.788 885.871,633.513 888.443,631.841 891.014,626.694 893.586,625.794 896.157,634.028 898.729,631.069 901.3,633.127 903.872,643.934 906.443,667.479 909.015,687.292 911.586,696.169 914.158,732.322 916.729,755.609 919.301,719.328 921.872,782.241 924.444,830.487 927.015,856.219 929.587,865.868 932.158,865.096 934.73,858.921 937.301,839.365 939.873,819.294 942.444,792.662 945.016,776.065 947.587,771.177 950.159,766.288 952.73,764.615 955.302,758.568 957.873,746.989 960.445,731.936 963.016,712.637 965.588,698.485 968.159,710.45 970.731,716.883 973.302,711.737 975.874,749.047 978.445,773.75 981.017,728.591 983.588,780.44 986.16,821.096 988.731,845.026 991.303,845.154 993.874,807.844 996.446,739.527 999.017,658.087 1001.59,622.963 1004.16,595.302 1006.73,584.624 1009.3,578.191 1011.87,573.559 1014.45,565.968 1017.02,559.149 1019.59,554.518 1022.16,552.202 1024.73,561.851 1027.3,596.589 1029.88,634.028 1032.45,654.613 1035.02,664.005 1037.59,715.854 1040.16,742.1 1042.73,704.532 1045.3,761.27 1047.88,804.756 1050.45,826.628 1053.02,829.201 1055.59,801.926 1058.16,735.281 1060.73,658.473 1063.3,630.425 1065.88,614.858 1068.45,610.612 1071.02,607.267 1073.59,610.998 1076.16,609.583 1078.73,605.723 1081.3,608.039 1083.88,606.238 1086.45,604.179 1089.02,631.583 1091.59,656.157 1094.16,674.426 1096.73,678.157 1099.31,723.573 1101.88,749.047 1104.45,712.637 1107.02,768.475 1109.59,808.616 1112.16,828.429 1114.73,829.716 1117.31,801.926 1119.88,738.626 1122.45,668.508 1125.02,647.151 1127.59,634.414 1130.16,633.899 1132.73,631.197 1135.31,627.338 1137.88,621.934 1140.45,615.63 1143.02,611.127 1145.59,601.864 1148.16,601.22 1150.74,624.379 1153.31,651.139 1155.88,673.783 1158.45,677.128 1161.02,717.398 1163.59,747.118 1166.16,712.38 1168.74,767.059 1171.31,812.218 1173.88,835.119 1176.45,836.02 1179.02,805.657 1181.59,743.515 1184.16,675.97 1186.74,653.198 1189.31,632.613 1191.88,620.519 1194.45,602.893 1197.02,585.395 1199.59,559.921 1202.17,532.389 1204.74,501.511 1207.31,472.692 1209.88,461.627 1212.45,472.82 1215.02,500.353 1217.59,539.336 1220.17,570.986 1222.74,642.262 1225.31,688.064 1227.88,667.221 1230.45,733.094 1233.02,776.194 1235.59,799.738 1238.17,801.282 1240.74,774.779 1243.31,715.854 1245.88,638.917 1248.45,600.448 1251.02,574.46 1253.59,570.343 1256.17,572.658 1258.74,583.337 1261.31,601.864 1263.88,613.571 1266.45,623.607 1269.02,623.349 1271.6,629.139 1274.17,652.426 1276.74,679.959 1279.31,695.011 1281.88,707.62 1284.45,744.544 1287.02,765.902 1289.6,725.375 1292.17,787.259 1294.74,836.92 1297.31,863.424 1299.88,874.36 1302.45,866.64 1305.02,847.213 1307.6,813.376 1310.17,788.031 1312.74,767.445 1315.31,762.942 1317.88,767.574 1320.45,776.323 1323.03,786.615 1325.6,791.504 1328.17,787.387 1330.74,773.75 1333.31,758.439 1335.88,752.521 1338.45,759.211 1341.03,766.03 1343.6,755.352 1346.17,780.826 1348.74,793.692 1351.31,745.702 1353.88,799.224 1356.45,849.529 1359.03,877.061 1361.6,887.483 1364.17,885.424 1366.74,878.991 1369.31,858.663 1371.88,841.166 1374.46,813.376 1377.03,798.966 1379.6,794.206 1382.17,792.534 1384.74,792.534 1387.31,784.042 1389.88,768.217 1392.46,737.082 1395.03,712.123 1397.6,694.239 1400.17,696.298 1402.74,713.795 1405.31,712.509 1407.88,744.416 1410.46,768.603 1413.03,732.708 1415.6,789.06 1418.17,836.663 1420.74,864.453 1423.31,875.389 1425.88,868.57 1428.46,854.289 1431.03,827.271 1433.6,799.352 1436.17,750.849 1438.74,713.409 1441.31,679.83 1443.89,645.736 1446.46,610.355 1449.03,567.383 1451.6,519.652 1454.17,468.317 1456.74,422.644 1459.31,411.58 1461.89,432.422 1464.46,482.341 1467.03,517.85 1469.6,598.261 1472.17,661.303 1474.74,648.823 1477.31,715.983 1479.89,761.27 1482.46,785.457 1485.03,793.306 1487.6,762.942 1490.17,685.748 1492.74,589.127 1495.32,518.494 1497.89,442.715 1500.46,384.304 1503.03,327.695 1505.6,274.302 1508.17,224.255 1510.74,180.897 1513.32,141.914 1515.89,106.147 1518.46,93.9248 1521.03,133.68 1523.6,225.67 1526.17,349.181 1528.74,443.487 1531.32,555.418 1533.89,630.683 1536.46,627.338 1539.03,700.415 1541.6,743.644 1544.17,768.475 1546.75,779.025 1549.32,754.966 1551.89,682.146 1554.46,599.033 1557.03,577.29 1559.6,565.196 1562.17,565.325 1564.75,555.547 1567.32,547.699 1569.89,540.88 1572.46,532.003 1575.03,526.213 1577.6,517.207 1580.17,522.353 1582.75,560.179 1585.32,598.518 1587.89,625.665 1590.46,637.116 1593.03,691.409 1595.6,726.404 1598.17,692.31 1600.75,755.866 1603.32,798.709 1605.89,822.382 1608.46,823.926 1611.03,789.446 1613.6,708.649 1616.18,624.379 1618.75,607.267 1621.32,589.77 1623.89,572.015 1626.46,543.839 1629.03,513.605 1631.6,478.353 1634.18,445.931 1636.75,417.498 1639.32,379.415 1641.89,369.123 1644.46,390.48 1647.03,436.539 1649.6,489.803 1652.18,531.488 1654.75,614.472 1657.32,671.982 1659.89,659.116 1662.46,727.69 1665.03,765.902 1667.61,787.773 1670.18,791.633 1672.75,763.2 1675.32,693.854 1677.89,598.647 1680.46,568.541 1683.03,540.108 1685.61,522.096 1688.18,500.996 1690.75,482.856 1693.32,461.627 1695.89,441.042 1698.46,427.79 1701.03,401.93 1703.61,404.117 1706.18,446.188 1708.75,499.838 1711.32,553.36 1713.89,586.811 1716.46,651.268 1719.04,688.707 1721.61,669.023 1724.18,742.486 1726.75,789.06 1729.32,813.247 1731.89,822.253 1734.46,814.663 1737.04,788.031 1739.61,746.603 1742.18,711.48 1744.75,677.771 1747.32,652.941 1749.89,619.232 1752.46,581.021 1755.04,547.956 1757.61,514.377 1760.18,477.581 1762.75,445.416 1765.32,422.901 1767.89,427.533 1770.46,464.715 1773.04,528.4 1775.61,567.126 1778.18,631.969 1780.75,678.157 1783.32,666.707 1785.89,737.34 1788.47,785.457 1791.04,812.475 1793.61,826.37 1796.18,828.558 1798.75,822.897 1801.32,799.224 1803.89,761.27 1806.47,708.52 1809.04,655.128 1811.61,595.945 1814.18,535.476 1816.75,475.394 1819.32,422.258 1821.89,375.298 1824.47,327.824 1827.04,291.8 1829.61,273.273 1832.18,287.811 1834.75,329.882 1837.32,374.269 1839.9,471.92 1842.47,563.91 1845.04,577.805 1847.61,658.987 1850.18,703.889 1852.75,732.451 1855.32,740.556 1857.9,711.737 1860.47,633.771 1863.04,528.915 1865.61,471.148 1868.18,411.194 1870.75,370.409 1873.32,353.04 1875.9,365.778 1878.47,402.702 1881.04,424.059 1883.61,452.878 1886.18,477.323 1888.75,509.488 1891.33,564.038 1893.9,606.109 1896.47,638.66 1899.04,665.163 1901.61,720.486 1904.18,753.164 1906.75,715.468 1909.33,777.738 1911.9,822.382 1914.47,839.365 1917.04,840.394 1919.61,811.06 1922.18,727.819 1924.75,644.835 1927.33,640.075 1929.9,631.969 1932.47,627.852 1935.04,620.39 1937.61,618.074 1940.18,608.296 1942.75,602.636 1945.33,602.893 1947.9,590.156 1950.47,586.682 1953.04,612.671 1955.61,645.607 1958.18,664.648 1960.76,672.625 1963.33,727.176 1965.9,758.182 1968.47,721.772 1971.04,780.954 1973.61,820.581 1976.18,840.008 1978.76,842.195 1981.33,815.435 1983.9,729.106 1986.47,642.133 1989.04,634.8 1991.61,621.934 1994.18,612.413 1996.76,595.045 1999.33,581.278 2001.9,560.565 2004.47,538.822 2007.04,518.236 2009.61,482.598 2012.19,470.119 2014.76,500.353 2017.33,543.968 2019.9,583.98 2022.47,609.326 2025.04,676.227 2027.61,716.497 2030.19,683.69 2032.76,747.504 2035.33,787.773 2037.9,810.674 2040.47,808.23 2043.04,777.867 2045.61,702.216 2048.19,620.39 2050.76,598.776 2053.33,568.799 2055.9,542.553 2058.47,511.804 2061.04,479.639 2063.62,437.568 2066.19,391.638 2068.76,351.497 2071.33,297.589 2073.9,267.998 2076.47,279.063 2079.04,320.49 2081.62,369.123 2084.19,430.235 2086.76,538.564 2089.33,617.946 2091.9,616.145 2094.47,690.122 2097.04,734.638 2099.62,759.469 2102.19,762.685 2104.76,731.164 2107.33,661.947 2109.9,569.185 2112.47,515.663 2115.04,470.505 2117.62,434.738 2120.19,390.351 2122.76,346.994 2125.33,307.882 2127.9,299.905 2130.47,304.408 2133.05,298.361 2135.62,308.01 2138.19,361.532 2140.76,447.732 2143.33,510.131 2145.9,561.337 2148.47,633.385 2151.05,676.999 2153.62,653.326 2156.19,723.831 2158.76,774.908 2161.33,804.113 2163.9,812.861 2166.47,804.885 2169.05,779.539 2171.62,736.439 2174.19,693.082 2176.76,641.233 2179.33,599.934 2181.9,550.272 2184.48,493.791 2187.05,434.995 2189.62,385.076 2192.19,335.8 2194.76,296.303 2197.33,274.688 2199.9,278.934 2202.48,311.098 2205.05,358.058 2207.62,401.802 2210.19,492.119 2212.76,567.126 2215.33,574.588 2217.9,656.672 2220.48,705.561 2223.05,732.193 2225.62,742.486 2228.19,741.585 2230.76,727.304 2233.33,692.567 2235.91,629.782 2238.48,557.605 2241.05,482.727 2243.62,417.755 2246.19,424.574 2248.76,474.75 2251.33,500.353 2253.91,518.622 2256.48,526.985 2259.05,543.839 2261.62,571.886 2264.19,640.589 2266.76,686.906 2269.33,710.322 2271.91,759.211 2274.48,785.843 2277.05,753.036 2279.62,807.715 2282.19,841.423 2284.76,856.476 2287.34,856.862 2289.91,827.271 2292.48,751.621 2295.05,659.759 2297.62,642.648 2300.19,620.905 2302.76,617.817 2305.34,609.068 2307.91,600.577 2310.48,592.986 2313.05,587.197 2315.62,580.121 2318.19,562.108 2320.76,560.951 2323.34,591.314 2325.91,630.554 2328.48,651.525 2331.05,667.736 2333.62,723.702 2336.19,750.72 2338.76,713.924 2341.34,768.861 2343.91,810.031 2346.48,832.031 2349.05,833.961 2351.62,797.165 2354.19,724.86 2356.77,645.478 2359.34,631.326 2361.91,616.273 2364.48,605.337 2367.05,589.255 2369.62,572.401 2372.19,548.985 2374.77,526.985 2377.34,509.745 2379.91,482.47 2382.48,478.095 2385.05,511.932 2387.62,551.687 2390.19,576.261 2392.77,606.624 2395.34,675.456 2397.91,714.31 2400.48,685.362 2403.05,743.773 2405.62,786.487 2408.2,812.861 2410.77,813.505 2413.34,778.253 2415.91,702.474 2418.48,622.449 2421.05,604.951 2423.62,581.793 2426.2,561.851 2428.77,538.822 2431.34,518.365 2433.91,493.148 2436.48,470.376 2439.05,453.65 2441.62,426.89 2444.2,430.106 2446.77,471.276 2449.34,515.02 2451.91,537.921 2454.48,570.085 2457.05,642.777 2459.63,688.064 2462.2,664.52 2464.77,724.345 2467.34,759.34 2469.91,779.282 2472.48,784.943 2475.05,754.322 2477.63,679.959 2480.2,593.244 2482.77,570.471 2485.34,545.898 2487.91,529.301 2490.48,516.692 2493.05,505.499 2495.63,492.891 2498.2,482.727 2500.77,487.873 2503.34,488.517 2505.91,499.066 2508.48,531.617 2511.05,565.582 2513.63,572.916 2516.2,601.349 2518.77,667.221 2521.34,704.403 2523.91,677.771 2526.48,740.041 2529.06,776.194 2531.63,797.937 2534.2,799.095 2536.77,774.264 2539.34,701.058 2541.91,616.659 2544.48,594.659 2547.06,567.126 2549.63,547.57 2552.2,539.208 2554.77,533.032 2557.34,527.371 2559.91,519.137 2562.48,519.266 2565.06,515.535 2567.63,528.915 2570.2,562.366 2572.77,594.916 2575.34,603.922 2577.91,624.507 2580.49,678.286 2583.06,711.737 2585.63,685.619 2588.2,754.451 2590.77,794.978 2593.34,819.294 2595.91,830.23 2598.49,820.324 2601.06,790.604 2603.63,756.896 2606.2,729.492 2608.77,693.339 2611.34,664.648 2613.91,642.005 2616.49,627.724 2619.06,629.268 2621.63,625.537 2624.2,614.601 2626.77,608.682 2629.34,608.168 2631.92,617.045 2634.49,645.864 2637.06,669.409 2639.63,689.608 2642.2,734.123 2644.77,770.533 2647.34,735.024 2649.92,796.007 2652.49,842.453 2655.06,868.956 2657.63,881.564 2660.2,882.208 2662.77,869.213 2665.34,849.143 2667.92,836.406 2670.49,813.762 2673.06,796.393 2675.63,792.92 2678.2,791.376 2680.77,800.639 2683.34,802.569 2685.92,795.879 2688.49,780.826 2691.06,758.568 2693.63,748.147 2696.2,758.568 2698.77,754.194 2701.35,761.27 2703.92,799.738 2706.49,823.154 2709.06,774.908 2711.63,819.809 2714.2,854.932 2716.77,873.845 2719.35,872.558 2721.92,839.879 2724.49,761.527 2727.06,670.438 2729.63,656.286 2732.2,645.736 2734.77,637.502 2737.35,629.396 2739.92,623.864 2742.49,613.443 2745.06,604.694 2747.63,603.021 2750.2,589.898 2752.78,588.998 2755.35,610.355 2757.92,641.619 2760.49,660.145 2763.06,683.561 2765.63,742.1 2768.2,775.036 2770.78,735.281 2773.35,787.13 2775.92,823.411 2778.49,843.868 2781.06,842.324 2783.63,812.99 2786.2,739.784 2788.78,651.911 2791.35,644.578 2793.92,633.256 2796.49,620.905 2799.06,603.279 2801.63,584.495 2804.21,566.097 2806.78,540.88 2809.35,525.313 2811.92,499.195 2814.49,492.891 2817.06,526.213 2819.63,568.799 2822.21,599.676 "/>
<polyline clip-path="url(#clip732)" style="stroke:#ffa500; stroke-linecap:round; stroke-linejoin:round; stroke-width:4; stroke-opacity:1; fill:none" points="2824.78,633.642 2827.35,703.245 2829.92,739.012 2832.49,707.234 2835.06,766.674 2837.63,806.429 2840.21,829.587 2842.78,830.873 2845.35,802.183 2847.92,722.415 2850.49,639.817 2853.06,623.349 2855.63,601.735 2858.21,599.548 2860.78,596.331 2863.35,597.361 2865.92,594.401 2868.49,589.127 2871.06,592.6 2873.64,591.828 2876.21,614.601 2878.78,637.244 2881.35,667.35 2883.92,675.456 2886.49,703.76 2889.06,755.48 2891.64,779.668 2894.21,733.609 2896.78,788.545 2899.35,836.277 2901.92,858.792 2904.49,862.009 2907.06,833.189 2909.64,757.539 2912.21,669.28 2914.78,671.467 2917.35,669.923 2919.92,667.35 2922.49,653.841 2925.07,651.525 2927.64,651.011 2930.21,655.128 2932.78,659.888 2935.35,648.18 2937.92,640.975 2940.49,659.759 2943.07,679.573 2945.64,673.526 2948.21,692.438 2950.78,747.632 2953.35,775.937 2955.92,729.363 2958.49,776.451 2961.07,826.37 2963.64,847.47 2966.21,848.371 2968.78,811.189 2971.35,731.807 2973.92,643.677 2976.5,635.829 2979.07,630.425 2981.64,635.7 2984.21,636.086 2986.78,637.244 2989.35,645.35 2991.92,655.514 2994.5,674.426 2997.07,671.338 2999.64,670.309 3002.21,688.45 3004.78,704.275 3007.35,694.239 3009.92,710.322 3012.5,754.451 3015.07,777.738 3017.64,734.252 3020.21,789.446 3022.78,834.09 3025.35,857.763 3027.92,862.909 3030.5,853.388 3033.07,824.312 3035.64,787.902 3038.21,757.796 3040.78,736.954 3043.35,733.609 3045.93,737.211 3048.5,739.27 3051.07,752.65 3053.64,760.369 3056.21,762.428 3058.78,754.194 3061.35,742.357 3063.93,742.872 3066.5,751.878 3069.07,749.305 3071.64,762.556 3074.21,791.89 3076.78,801.282 3079.35,752.65 3081.93,801.025 3084.5,846.441 3087.07,872.944 3089.64,884.652 3092.21,882.336 3094.78,868.055 3097.36,849.271 3099.93,834.733 3102.5,812.09 3105.07,804.113 3107.64,802.054 3110.21,799.996 3112.78,800.51 3115.36,793.048 3117.93,781.726 3120.5,761.527 3123.07,736.696 3125.64,721.129 3128.21,730.649 3130.78,727.304 3133.36,741.843 3135.93,782.241 3138.5,800.51 3141.07,754.966 3143.64,800.896 3146.21,839.751 3148.79,859.049 3151.36,860.593 3153.93,832.803 3156.5,757.41 3159.07,667.093 3161.64,657.829 3164.21,644.835 3166.79,642.905 3169.36,638.402 3171.93,625.922 3174.5,605.981 3177.07,585.009 3179.64,575.103 3182.21,563.266 3184.79,561.208 3187.36,585.653 3189.93,620.648 3192.5,631.197 3195.07,660.66 3197.64,719.585 3200.21,748.79 3202.79,709.936 3205.36,761.656 3207.93,805.657 3210.5,827.4 3213.07,831.645 3215.64,801.54 3218.22,719.842 3220.79,634.285 3223.36,621.934 3225.93,599.033 3228.5,574.974 3231.07,550.658 3233.64,524.283 3236.22,497.394 3238.79,472.177 3241.36,475.008 3243.93,476.294 3246.5,510.903 3249.07,575.489 3251.64,625.537 3254.22,638.145 3256.79,667.221 3259.36,723.573 3261.93,749.176 3264.5,709.936 "/>
<polyline clip-path="url(#clip732)" style="stroke:#ff0000; stroke-linecap:round; stroke-linejoin:round; stroke-width:4; stroke-opacity:1; fill:none" points="2824.78,633.642 2827.35,703.245 2829.92,739.012 2832.49,707.234 2835.06,766.674 2837.63,806.429 2840.21,829.587 2842.78,830.873 2845.35,802.183 2847.92,722.415 2850.49,639.817 2853.06,623.349 2855.63,601.735 2858.21,599.548 2860.78,596.331 2863.35,597.361 2865.92,594.401 2868.49,589.127 2871.06,592.6 2873.64,591.828 2876.21,614.601 2878.78,637.244 2881.35,667.35 2883.92,675.456 2886.49,703.76 2889.06,755.48 2891.64,779.668 2894.21,733.609 2896.78,788.545 2899.35,836.277 2901.92,858.792 2904.49,862.009 2907.06,833.189 2909.64,757.539 2912.21,669.28 2914.78,671.467 2917.35,669.923 2919.92,667.35 2922.49,653.841 2925.07,651.525 2927.64,651.011 2930.21,655.128 2932.78,659.888 2935.35,648.18 2937.92,640.975 2940.49,659.759 2943.07,679.573 2945.64,673.526 2948.21,692.438 2950.78,747.632 2953.35,775.937 2955.92,729.363 2958.49,776.451 2961.07,826.37 2963.64,847.47 2966.21,848.371 2968.78,811.189 2971.35,731.807 2973.92,643.677 2976.5,635.829 2979.07,630.425 2981.64,635.7 2984.21,636.086 2986.78,637.244 2989.35,645.35 2991.92,655.514 2994.5,674.426 2997.07,671.338 2999.64,670.309 3002.21,688.45 3004.78,704.275 3007.35,694.239 3009.92,710.322 3012.5,754.451 3015.07,777.738 3017.64,734.252 3020.21,1046.76 3022.78,1091.4 3025.35,1115.08 3027.92,1120.22 3030.5,1110.7 3033.07,1081.63 3035.64,1045.22 3038.21,1015.11 3040.78,994.268 3043.35,990.923 3045.93,994.525 3048.5,996.584 3051.07,1009.96 3053.64,1017.68 3056.21,1019.74 3058.78,1011.51 3061.35,999.672 3063.93,1000.19 3066.5,1009.19 3069.07,1006.62 3071.64,1019.87 3074.21,1049.2 3076.78,1058.6 3079.35,1009.96 3081.93,1058.34 3084.5,1103.76 3087.07,1130.26 3089.64,1141.97 3092.21,1139.65 3094.78,1125.37 3097.36,1106.59 3099.93,1092.05 3102.5,1069.4 3105.07,1061.43 3107.64,1059.37 3110.21,1057.31 3112.78,1057.82 3115.36,1050.36 3117.93,1039.04 3120.5,1018.84 3123.07,994.011 3125.64,978.443 3128.21,987.964 3130.78,984.619 3133.36,999.157 3135.93,1039.56 3138.5,1057.82 3141.07,1012.28 3143.64,1058.21 3146.21,1097.07 3148.79,1116.36 3151.36,1117.91 3153.93,1090.12 3156.5,1014.72 3159.07,924.407 3161.64,915.144 3164.21,902.15 3166.79,900.22 3169.36,895.717 3171.93,883.237 3174.5,863.295 3177.07,842.324 3179.64,832.417 3182.21,820.581 3184.79,818.522 3187.36,842.967 3189.93,877.962 3192.5,888.512 3195.07,917.974 3197.64,976.899 3200.21,1006.1 3202.79,967.25 3205.36,1018.97 3207.93,1062.97 3210.5,1084.71 3213.07,1088.96 3215.64,1058.85 3218.22,977.157 3220.79,891.6 3223.36,879.249 3225.93,856.348 3228.5,832.289 3231.07,807.972 3233.64,781.598 3236.22,754.708 3238.79,729.492 3241.36,732.322 3243.93,733.609 3246.5,768.217 3249.07,832.803 3251.64,882.851 3254.22,895.459 3256.79,924.536 3259.36,980.888 3261.93,1006.49 3264.5,967.25 "/>
<path clip-path="url(#clip730)" d="M735.376 1447.32 L2851.84 1447.32 L2851.84 1343.64 L735.376 1343.64  Z" fill="#ffffff" fill-rule="evenodd" fill-opacity="1"/>
<polyline clip-path="url(#clip730)" style="stroke:#000000; stroke-linecap:round; stroke-linejoin:round; stroke-width:4; stroke-opacity:1; fill:none" points="735.376,1447.32 2851.84,1447.32 2851.84,1343.64 735.376,1343.64 735.376,1447.32 "/>
<polyline clip-path="url(#clip730)" style="stroke:#008000; stroke-linecap:round; stroke-linejoin:round; stroke-width:4; stroke-opacity:1; fill:none" points="770.024,1395.48 977.91,1395.48 "/>
<path clip-path="url(#clip730)" d="M1019.97 1379.47 L1019.97 1386.84 L1028.74 1386.84 L1028.74 1390.15 L1019.97 1390.15 L1019.97 1404.22 Q1019.97 1407.39 1020.82 1408.29 Q1021.7 1409.2 1024.36 1409.2 L1028.74 1409.2 L1028.74 1412.76 L1024.36 1412.76 Q1019.43 1412.76 1017.56 1410.93 Q1015.68 1409.08 1015.68 1404.22 L1015.68 1390.15 L1012.56 1390.15 L1012.56 1386.84 L1015.68 1386.84 L1015.68 1379.47 L1019.97 1379.47 Z" fill="#000000" fill-rule="nonzero" fill-opacity="1" /><path clip-path="url(#clip730)" d="M1049.36 1390.82 Q1048.65 1390.4 1047.79 1390.21 Q1046.96 1390.01 1045.94 1390.01 Q1042.33 1390.01 1040.38 1392.37 Q1038.46 1394.71 1038.46 1399.1 L1038.46 1412.76 L1034.18 1412.76 L1034.18 1386.84 L1038.46 1386.84 L1038.46 1390.86 Q1039.8 1388.5 1041.96 1387.37 Q1044.11 1386.21 1047.19 1386.21 Q1047.63 1386.21 1048.16 1386.28 Q1048.69 1386.33 1049.34 1386.44 L1049.36 1390.82 Z" fill="#000000" fill-rule="nonzero" fill-opacity="1" /><path clip-path="url(#clip730)" d="M1065.61 1399.73 Q1060.45 1399.73 1058.46 1400.91 Q1056.47 1402.09 1056.47 1404.94 Q1056.47 1407.21 1057.95 1408.55 Q1059.46 1409.87 1062.03 1409.87 Q1065.57 1409.87 1067.7 1407.37 Q1069.85 1404.84 1069.85 1400.68 L1069.85 1399.73 L1065.61 1399.73 M1074.11 1397.97 L1074.11 1412.76 L1069.85 1412.76 L1069.85 1408.83 Q1068.39 1411.19 1066.22 1412.32 Q1064.04 1413.43 1060.89 1413.43 Q1056.91 1413.43 1054.55 1411.21 Q1052.21 1408.96 1052.21 1405.21 Q1052.21 1400.84 1055.13 1398.62 Q1058.07 1396.4 1063.88 1396.4 L1069.85 1396.4 L1069.85 1395.98 Q1069.85 1393.04 1067.91 1391.44 Q1065.98 1389.82 1062.49 1389.82 Q1060.27 1389.82 1058.16 1390.35 Q1056.05 1390.89 1054.11 1391.95 L1054.11 1388.02 Q1056.45 1387.11 1058.65 1386.67 Q1060.84 1386.21 1062.93 1386.21 Q1068.55 1386.21 1071.33 1389.13 Q1074.11 1392.04 1074.11 1397.97 Z" fill="#000000" fill-rule="nonzero" fill-opacity="1" /><path clip-path="url(#clip730)" d="M1082.88 1386.84 L1087.14 1386.84 L1087.14 1412.76 L1082.88 1412.76 L1082.88 1386.84 M1082.88 1376.74 L1087.14 1376.74 L1087.14 1382.14 L1082.88 1382.14 L1082.88 1376.74 Z" fill="#000000" fill-rule="nonzero" fill-opacity="1" /><path clip-path="url(#clip730)" d="M1117.6 1397.11 L1117.6 1412.76 L1113.34 1412.76 L1113.34 1397.25 Q1113.34 1393.57 1111.91 1391.74 Q1110.47 1389.91 1107.6 1389.91 Q1104.15 1389.91 1102.16 1392.11 Q1100.17 1394.31 1100.17 1398.11 L1100.17 1412.76 L1095.89 1412.76 L1095.89 1386.84 L1100.17 1386.84 L1100.17 1390.86 Q1101.7 1388.53 1103.76 1387.37 Q1105.84 1386.21 1108.55 1386.21 Q1113.02 1386.21 1115.31 1388.99 Q1117.6 1391.74 1117.6 1397.11 Z" fill="#000000" fill-rule="nonzero" fill-opacity="1" /><path clip-path="url(#clip730)" d="M1126.1 1386.84 L1130.36 1386.84 L1130.36 1412.76 L1126.1 1412.76 L1126.1 1386.84 M1126.1 1376.74 L1130.36 1376.74 L1130.36 1382.14 L1126.1 1382.14 L1126.1 1376.74 Z" fill="#000000" fill-rule="nonzero" fill-opacity="1" /><path clip-path="url(#clip730)" d="M1160.82 1397.11 L1160.82 1412.76 L1156.56 1412.76 L1156.56 1397.25 Q1156.56 1393.57 1155.13 1391.74 Q1153.69 1389.91 1150.82 1389.91 Q1147.37 1389.91 1145.38 1392.11 Q1143.39 1394.31 1143.39 1398.11 L1143.39 1412.76 L1139.11 1412.76 L1139.11 1386.84 L1143.39 1386.84 L1143.39 1390.86 Q1144.92 1388.53 1146.98 1387.37 Q1149.06 1386.21 1151.77 1386.21 Q1156.24 1386.21 1158.53 1388.99 Q1160.82 1391.74 1160.82 1397.11 Z" fill="#000000" fill-rule="nonzero" fill-opacity="1" /><path clip-path="url(#clip730)" d="M1186.38 1399.5 Q1186.38 1394.87 1184.46 1392.32 Q1182.56 1389.78 1179.11 1389.78 Q1175.68 1389.78 1173.76 1392.32 Q1171.86 1394.87 1171.86 1399.5 Q1171.86 1404.1 1173.76 1406.65 Q1175.68 1409.2 1179.11 1409.2 Q1182.56 1409.2 1184.46 1406.65 Q1186.38 1404.1 1186.38 1399.5 M1190.64 1409.54 Q1190.64 1416.16 1187.7 1419.38 Q1184.76 1422.62 1178.69 1422.62 Q1176.45 1422.62 1174.46 1422.27 Q1172.46 1421.95 1170.59 1421.26 L1170.59 1417.11 Q1172.46 1418.13 1174.29 1418.62 Q1176.12 1419.1 1178.02 1419.1 Q1182.21 1419.1 1184.29 1416.9 Q1186.38 1414.73 1186.38 1410.31 L1186.38 1408.2 Q1185.06 1410.49 1183 1411.63 Q1180.94 1412.76 1178.07 1412.76 Q1173.3 1412.76 1170.38 1409.13 Q1167.46 1405.49 1167.46 1399.5 Q1167.46 1393.48 1170.38 1389.84 Q1173.3 1386.21 1178.07 1386.21 Q1180.94 1386.21 1183 1387.34 Q1185.06 1388.48 1186.38 1390.77 L1186.38 1386.84 L1190.64 1386.84 L1190.64 1409.54 Z" fill="#000000" fill-rule="nonzero" fill-opacity="1" /><path clip-path="url(#clip730)" d="M1231.54 1390.77 L1231.54 1376.74 L1235.8 1376.74 L1235.8 1412.76 L1231.54 1412.76 L1231.54 1408.87 Q1230.2 1411.19 1228.14 1412.32 Q1226.1 1413.43 1223.23 1413.43 Q1218.53 1413.43 1215.57 1409.68 Q1212.63 1405.93 1212.63 1399.82 Q1212.63 1393.71 1215.57 1389.96 Q1218.53 1386.21 1223.23 1386.21 Q1226.1 1386.21 1228.14 1387.34 Q1230.2 1388.46 1231.54 1390.77 M1217.02 1399.82 Q1217.02 1404.52 1218.95 1407.21 Q1220.89 1409.87 1224.27 1409.87 Q1227.65 1409.87 1229.59 1407.21 Q1231.54 1404.52 1231.54 1399.82 Q1231.54 1395.12 1229.59 1392.46 Q1227.65 1389.78 1224.27 1389.78 Q1220.89 1389.78 1218.95 1392.46 Q1217.02 1395.12 1217.02 1399.82 Z" fill="#000000" fill-rule="nonzero" fill-opacity="1" /><path clip-path="url(#clip730)" d="M1256.35 1399.73 Q1251.19 1399.73 1249.2 1400.91 Q1247.21 1402.09 1247.21 1404.94 Q1247.21 1407.21 1248.69 1408.55 Q1250.2 1409.87 1252.77 1409.87 Q1256.31 1409.87 1258.44 1407.37 Q1260.59 1404.84 1260.59 1400.68 L1260.59 1399.73 L1256.35 1399.73 M1264.85 1397.97 L1264.85 1412.76 L1260.59 1412.76 L1260.59 1408.83 Q1259.13 1411.19 1256.95 1412.32 Q1254.78 1413.43 1251.63 1413.43 Q1247.65 1413.43 1245.29 1411.21 Q1242.95 1408.96 1242.95 1405.21 Q1242.95 1400.84 1245.87 1398.62 Q1248.81 1396.4 1254.62 1396.4 L1260.59 1396.4 L1260.59 1395.98 Q1260.59 1393.04 1258.64 1391.44 Q1256.72 1389.82 1253.23 1389.82 Q1251.01 1389.82 1248.9 1390.35 Q1246.79 1390.89 1244.85 1391.95 L1244.85 1388.02 Q1247.19 1387.11 1249.39 1386.67 Q1251.58 1386.21 1253.67 1386.21 Q1259.29 1386.21 1262.07 1389.13 Q1264.85 1392.04 1264.85 1397.97 Z" fill="#000000" fill-rule="nonzero" fill-opacity="1" /><path clip-path="url(#clip730)" d="M1277.83 1379.47 L1277.83 1386.84 L1286.61 1386.84 L1286.61 1390.15 L1277.83 1390.15 L1277.83 1404.22 Q1277.83 1407.39 1278.69 1408.29 Q1279.57 1409.2 1282.23 1409.2 L1286.61 1409.2 L1286.61 1412.76 L1282.23 1412.76 Q1277.3 1412.76 1275.43 1410.93 Q1273.55 1409.08 1273.55 1404.22 L1273.55 1390.15 L1270.43 1390.15 L1270.43 1386.84 L1273.55 1386.84 L1273.55 1379.47 L1277.83 1379.47 Z" fill="#000000" fill-rule="nonzero" fill-opacity="1" /><path clip-path="url(#clip730)" d="M1303.99 1399.73 Q1298.83 1399.73 1296.84 1400.91 Q1294.85 1402.09 1294.85 1404.94 Q1294.85 1407.21 1296.33 1408.55 Q1297.83 1409.87 1300.4 1409.87 Q1303.95 1409.87 1306.08 1407.37 Q1308.23 1404.84 1308.23 1400.68 L1308.23 1399.73 L1303.99 1399.73 M1312.49 1397.97 L1312.49 1412.76 L1308.23 1412.76 L1308.23 1408.83 Q1306.77 1411.19 1304.59 1412.32 Q1302.42 1413.43 1299.27 1413.43 Q1295.29 1413.43 1292.93 1411.21 Q1290.59 1408.96 1290.59 1405.21 Q1290.59 1400.84 1293.51 1398.62 Q1296.45 1396.4 1302.26 1396.4 L1308.23 1396.4 L1308.23 1395.98 Q1308.23 1393.04 1306.28 1391.44 Q1304.36 1389.82 1300.87 1389.82 Q1298.64 1389.82 1296.54 1390.35 Q1294.43 1390.89 1292.49 1391.95 L1292.49 1388.02 Q1294.83 1387.11 1297.02 1386.67 Q1299.22 1386.21 1301.31 1386.21 Q1306.93 1386.21 1309.71 1389.13 Q1312.49 1392.04 1312.49 1397.97 Z" fill="#000000" fill-rule="nonzero" fill-opacity="1" /><polyline clip-path="url(#clip730)" style="stroke:#ffa500; stroke-linecap:round; stroke-linejoin:round; stroke-width:4; stroke-opacity:1; fill:none" points="1463.96,1395.48 1671.85,1395.48 "/>
<path clip-path="url(#clip730)" d="M1713.9 1379.47 L1713.9 1386.84 L1722.68 1386.84 L1722.68 1390.15 L1713.9 1390.15 L1713.9 1404.22 Q1713.9 1407.39 1714.76 1408.29 Q1715.64 1409.2 1718.3 1409.2 L1722.68 1409.2 L1722.68 1412.76 L1718.3 1412.76 Q1713.37 1412.76 1711.5 1410.93 Q1709.62 1409.08 1709.62 1404.22 L1709.62 1390.15 L1706.5 1390.15 L1706.5 1386.84 L1709.62 1386.84 L1709.62 1379.47 L1713.9 1379.47 Z" fill="#000000" fill-rule="nonzero" fill-opacity="1" /><path clip-path="url(#clip730)" d="M1750.45 1398.73 L1750.45 1400.82 L1730.87 1400.82 Q1731.15 1405.21 1733.51 1407.53 Q1735.89 1409.82 1740.13 1409.82 Q1742.58 1409.82 1744.88 1409.22 Q1747.19 1408.62 1749.46 1407.41 L1749.46 1411.44 Q1747.17 1412.41 1744.76 1412.92 Q1742.35 1413.43 1739.88 1413.43 Q1733.67 1413.43 1730.04 1409.82 Q1726.43 1406.21 1726.43 1400.05 Q1726.43 1393.69 1729.85 1389.96 Q1733.3 1386.21 1739.14 1386.21 Q1744.37 1386.21 1747.4 1389.59 Q1750.45 1392.95 1750.45 1398.73 M1746.2 1397.48 Q1746.15 1393.99 1744.23 1391.9 Q1742.33 1389.82 1739.18 1389.82 Q1735.62 1389.82 1733.46 1391.84 Q1731.33 1393.85 1731.01 1397.51 L1746.2 1397.48 Z" fill="#000000" fill-rule="nonzero" fill-opacity="1" /><path clip-path="url(#clip730)" d="M1773.97 1387.6 L1773.97 1391.63 Q1772.17 1390.7 1770.22 1390.24 Q1768.28 1389.78 1766.2 1389.78 Q1763.02 1389.78 1761.43 1390.75 Q1759.85 1391.72 1759.85 1393.66 Q1759.85 1395.15 1760.99 1396 Q1762.12 1396.84 1765.55 1397.6 L1767.01 1397.92 Q1771.54 1398.9 1773.44 1400.68 Q1775.36 1402.44 1775.36 1405.61 Q1775.36 1409.22 1772.49 1411.33 Q1769.64 1413.43 1764.64 1413.43 Q1762.56 1413.43 1760.29 1413.02 Q1758.05 1412.62 1755.55 1411.81 L1755.55 1407.41 Q1757.91 1408.64 1760.2 1409.27 Q1762.49 1409.87 1764.74 1409.87 Q1767.75 1409.87 1769.37 1408.85 Q1770.99 1407.81 1770.99 1405.93 Q1770.99 1404.2 1769.81 1403.27 Q1768.65 1402.34 1764.69 1401.49 L1763.21 1401.14 Q1759.25 1400.31 1757.49 1398.59 Q1755.73 1396.86 1755.73 1393.85 Q1755.73 1390.19 1758.33 1388.2 Q1760.92 1386.21 1765.69 1386.21 Q1768.05 1386.21 1770.13 1386.56 Q1772.21 1386.9 1773.97 1387.6 Z" fill="#000000" fill-rule="nonzero" fill-opacity="1" /><path clip-path="url(#clip730)" d="M1786.36 1379.47 L1786.36 1386.84 L1795.13 1386.84 L1795.13 1390.15 L1786.36 1390.15 L1786.36 1404.22 Q1786.36 1407.39 1787.21 1408.29 Q1788.09 1409.2 1790.76 1409.2 L1795.13 1409.2 L1795.13 1412.76 L1790.76 1412.76 Q1785.83 1412.76 1783.95 1410.93 Q1782.08 1409.08 1782.08 1404.22 L1782.08 1390.15 L1778.95 1390.15 L1778.95 1386.84 L1782.08 1386.84 L1782.08 1379.47 L1786.36 1379.47 Z" fill="#000000" fill-rule="nonzero" fill-opacity="1" /><path clip-path="url(#clip730)" d="M1832.86 1390.77 L1832.86 1376.74 L1837.12 1376.74 L1837.12 1412.76 L1832.86 1412.76 L1832.86 1408.87 Q1831.52 1411.19 1829.46 1412.32 Q1827.42 1413.43 1824.55 1413.43 Q1819.85 1413.43 1816.89 1409.68 Q1813.95 1405.93 1813.95 1399.82 Q1813.95 1393.71 1816.89 1389.96 Q1819.85 1386.21 1824.55 1386.21 Q1827.42 1386.21 1829.46 1387.34 Q1831.52 1388.46 1832.86 1390.77 M1818.35 1399.82 Q1818.35 1404.52 1820.27 1407.21 Q1822.21 1409.87 1825.59 1409.87 Q1828.97 1409.87 1830.92 1407.21 Q1832.86 1404.52 1832.86 1399.82 Q1832.86 1395.12 1830.92 1392.46 Q1828.97 1389.78 1825.59 1389.78 Q1822.21 1389.78 1820.27 1392.46 Q1818.35 1395.12 1818.35 1399.82 Z" fill="#000000" fill-rule="nonzero" fill-opacity="1" /><path clip-path="url(#clip730)" d="M1857.68 1399.73 Q1852.51 1399.73 1850.52 1400.91 Q1848.53 1402.09 1848.53 1404.94 Q1848.53 1407.21 1850.01 1408.55 Q1851.52 1409.87 1854.09 1409.87 Q1857.63 1409.87 1859.76 1407.37 Q1861.91 1404.84 1861.91 1400.68 L1861.91 1399.73 L1857.68 1399.73 M1866.17 1397.97 L1866.17 1412.76 L1861.91 1412.76 L1861.91 1408.83 Q1860.45 1411.19 1858.28 1412.32 Q1856.1 1413.43 1852.95 1413.43 Q1848.97 1413.43 1846.61 1411.21 Q1844.27 1408.96 1844.27 1405.21 Q1844.27 1400.84 1847.19 1398.62 Q1850.13 1396.4 1855.94 1396.4 L1861.91 1396.4 L1861.91 1395.98 Q1861.91 1393.04 1859.97 1391.44 Q1858.05 1389.82 1854.55 1389.82 Q1852.33 1389.82 1850.22 1390.35 Q1848.12 1390.89 1846.17 1391.95 L1846.17 1388.02 Q1848.51 1387.11 1850.71 1386.67 Q1852.91 1386.21 1854.99 1386.21 Q1860.62 1386.21 1863.39 1389.13 Q1866.17 1392.04 1866.17 1397.97 Z" fill="#000000" fill-rule="nonzero" fill-opacity="1" /><path clip-path="url(#clip730)" d="M1879.16 1379.47 L1879.16 1386.84 L1887.93 1386.84 L1887.93 1390.15 L1879.16 1390.15 L1879.16 1404.22 Q1879.16 1407.39 1880.01 1408.29 Q1880.89 1409.2 1883.56 1409.2 L1887.93 1409.2 L1887.93 1412.76 L1883.56 1412.76 Q1878.63 1412.76 1876.75 1410.93 Q1874.88 1409.08 1874.88 1404.22 L1874.88 1390.15 L1871.75 1390.15 L1871.75 1386.84 L1874.88 1386.84 L1874.88 1379.47 L1879.16 1379.47 Z" fill="#000000" fill-rule="nonzero" fill-opacity="1" /><path clip-path="url(#clip730)" d="M1905.32 1399.73 Q1900.15 1399.73 1898.16 1400.91 Q1896.17 1402.09 1896.17 1404.94 Q1896.17 1407.21 1897.65 1408.55 Q1899.16 1409.87 1901.73 1409.87 Q1905.27 1409.87 1907.4 1407.37 Q1909.55 1404.84 1909.55 1400.68 L1909.55 1399.73 L1905.32 1399.73 M1913.81 1397.97 L1913.81 1412.76 L1909.55 1412.76 L1909.55 1408.83 Q1908.09 1411.19 1905.92 1412.32 Q1903.74 1413.43 1900.59 1413.43 Q1896.61 1413.43 1894.25 1411.21 Q1891.91 1408.96 1891.91 1405.21 Q1891.91 1400.84 1894.83 1398.62 Q1897.77 1396.4 1903.58 1396.4 L1909.55 1396.4 L1909.55 1395.98 Q1909.55 1393.04 1907.61 1391.44 Q1905.69 1389.82 1902.19 1389.82 Q1899.97 1389.82 1897.86 1390.35 Q1895.76 1390.89 1893.81 1391.95 L1893.81 1388.02 Q1896.15 1387.11 1898.35 1386.67 Q1900.55 1386.21 1902.63 1386.21 Q1908.26 1386.21 1911.03 1389.13 Q1913.81 1392.04 1913.81 1397.97 Z" fill="#000000" fill-rule="nonzero" fill-opacity="1" /><polyline clip-path="url(#clip730)" style="stroke:#ff0000; stroke-linecap:round; stroke-linejoin:round; stroke-width:4; stroke-opacity:1; fill:none" points="2157.9,1395.48 2365.79,1395.48 "/>
<path clip-path="url(#clip730)" d="M2400.44 1402.53 L2400.44 1386.84 L2404.69 1386.84 L2404.69 1402.37 Q2404.69 1406.05 2406.13 1407.9 Q2407.57 1409.73 2410.44 1409.73 Q2413.88 1409.73 2415.88 1407.53 Q2417.89 1405.33 2417.89 1401.53 L2417.89 1386.84 L2422.15 1386.84 L2422.15 1412.76 L2417.89 1412.76 L2417.89 1408.78 Q2416.34 1411.14 2414.28 1412.3 Q2412.24 1413.43 2409.53 1413.43 Q2405.07 1413.43 2402.75 1410.65 Q2400.44 1407.88 2400.44 1402.53 M2411.15 1386.21 L2411.15 1386.21 Z" fill="#000000" fill-rule="nonzero" fill-opacity="1" /><path clip-path="url(#clip730)" d="M2435.04 1408.87 L2435.04 1422.62 L2430.76 1422.62 L2430.76 1386.84 L2435.04 1386.84 L2435.04 1390.77 Q2436.38 1388.46 2438.42 1387.34 Q2440.48 1386.21 2443.33 1386.21 Q2448.05 1386.21 2450.99 1389.96 Q2453.95 1393.71 2453.95 1399.82 Q2453.95 1405.93 2450.99 1409.68 Q2448.05 1413.43 2443.33 1413.43 Q2440.48 1413.43 2438.42 1412.32 Q2436.38 1411.19 2435.04 1408.87 M2449.53 1399.82 Q2449.53 1395.12 2447.59 1392.46 Q2445.67 1389.78 2442.29 1389.78 Q2438.91 1389.78 2436.96 1392.46 Q2435.04 1395.12 2435.04 1399.82 Q2435.04 1404.52 2436.96 1407.21 Q2438.91 1409.87 2442.29 1409.87 Q2445.67 1409.87 2447.59 1407.21 Q2449.53 1404.52 2449.53 1399.82 Z" fill="#000000" fill-rule="nonzero" fill-opacity="1" /><path clip-path="url(#clip730)" d="M2478.07 1390.77 L2478.07 1376.74 L2482.33 1376.74 L2482.33 1412.76 L2478.07 1412.76 L2478.07 1408.87 Q2476.73 1411.19 2474.67 1412.32 Q2472.63 1413.43 2469.76 1413.43 Q2465.06 1413.43 2462.1 1409.68 Q2459.16 1405.93 2459.16 1399.82 Q2459.16 1393.71 2462.1 1389.96 Q2465.06 1386.21 2469.76 1386.21 Q2472.63 1386.21 2474.67 1387.34 Q2476.73 1388.46 2478.07 1390.77 M2463.56 1399.82 Q2463.56 1404.52 2465.48 1407.21 Q2467.43 1409.87 2470.81 1409.87 Q2474.19 1409.87 2476.13 1407.21 Q2478.07 1404.52 2478.07 1399.82 Q2478.07 1395.12 2476.13 1392.46 Q2474.19 1389.78 2470.81 1389.78 Q2467.43 1389.78 2465.48 1392.46 Q2463.56 1395.12 2463.56 1399.82 Z" fill="#000000" fill-rule="nonzero" fill-opacity="1" /><path clip-path="url(#clip730)" d="M2502.89 1399.73 Q2497.73 1399.73 2495.74 1400.91 Q2493.75 1402.09 2493.75 1404.94 Q2493.75 1407.21 2495.23 1408.55 Q2496.73 1409.87 2499.3 1409.87 Q2502.84 1409.87 2504.97 1407.37 Q2507.12 1404.84 2507.12 1400.68 L2507.12 1399.73 L2502.89 1399.73 M2511.38 1397.97 L2511.38 1412.76 L2507.12 1412.76 L2507.12 1408.83 Q2505.67 1411.19 2503.49 1412.32 Q2501.31 1413.43 2498.17 1413.43 Q2494.19 1413.43 2491.82 1411.21 Q2489.49 1408.96 2489.49 1405.21 Q2489.49 1400.84 2492.4 1398.62 Q2495.34 1396.4 2501.15 1396.4 L2507.12 1396.4 L2507.12 1395.98 Q2507.12 1393.04 2505.18 1391.44 Q2503.26 1389.82 2499.76 1389.82 Q2497.54 1389.82 2495.44 1390.35 Q2493.33 1390.89 2491.38 1391.95 L2491.38 1388.02 Q2493.72 1387.11 2495.92 1386.67 Q2498.12 1386.21 2500.2 1386.21 Q2505.83 1386.21 2508.61 1389.13 Q2511.38 1392.04 2511.38 1397.97 Z" fill="#000000" fill-rule="nonzero" fill-opacity="1" /><path clip-path="url(#clip730)" d="M2524.37 1379.47 L2524.37 1386.84 L2533.14 1386.84 L2533.14 1390.15 L2524.37 1390.15 L2524.37 1404.22 Q2524.37 1407.39 2525.23 1408.29 Q2526.11 1409.2 2528.77 1409.2 L2533.14 1409.2 L2533.14 1412.76 L2528.77 1412.76 Q2523.84 1412.76 2521.96 1410.93 Q2520.09 1409.08 2520.09 1404.22 L2520.09 1390.15 L2516.96 1390.15 L2516.96 1386.84 L2520.09 1386.84 L2520.09 1379.47 L2524.37 1379.47 Z" fill="#000000" fill-rule="nonzero" fill-opacity="1" /><path clip-path="url(#clip730)" d="M2560.92 1398.73 L2560.92 1400.82 L2541.34 1400.82 Q2541.62 1405.21 2543.98 1407.53 Q2546.36 1409.82 2550.6 1409.82 Q2553.05 1409.82 2555.34 1409.22 Q2557.66 1408.62 2559.93 1407.41 L2559.93 1411.44 Q2557.63 1412.41 2555.23 1412.92 Q2552.82 1413.43 2550.34 1413.43 Q2544.14 1413.43 2540.5 1409.82 Q2536.89 1406.21 2536.89 1400.05 Q2536.89 1393.69 2540.32 1389.96 Q2543.77 1386.21 2549.6 1386.21 Q2554.83 1386.21 2557.87 1389.59 Q2560.92 1392.95 2560.92 1398.73 M2556.66 1397.48 Q2556.62 1393.99 2554.69 1391.9 Q2552.8 1389.82 2549.65 1389.82 Q2546.08 1389.82 2543.93 1391.84 Q2541.8 1393.85 2541.48 1397.51 L2556.66 1397.48 Z" fill="#000000" fill-rule="nonzero" fill-opacity="1" /><path clip-path="url(#clip730)" d="M2584.97 1390.77 L2584.97 1376.74 L2589.23 1376.74 L2589.23 1412.76 L2584.97 1412.76 L2584.97 1408.87 Q2583.63 1411.19 2581.57 1412.32 Q2579.53 1413.43 2576.66 1413.43 Q2571.96 1413.43 2569 1409.68 Q2566.06 1405.93 2566.06 1399.82 Q2566.06 1393.71 2569 1389.96 Q2571.96 1386.21 2576.66 1386.21 Q2579.53 1386.21 2581.57 1387.34 Q2583.63 1388.46 2584.97 1390.77 M2570.46 1399.82 Q2570.46 1404.52 2572.38 1407.21 Q2574.32 1409.87 2577.7 1409.87 Q2581.08 1409.87 2583.03 1407.21 Q2584.97 1404.52 2584.97 1399.82 Q2584.97 1395.12 2583.03 1392.46 Q2581.08 1389.78 2577.7 1389.78 Q2574.32 1389.78 2572.38 1392.46 Q2570.46 1395.12 2570.46 1399.82 Z" fill="#000000" fill-rule="nonzero" fill-opacity="1" /><path clip-path="url(#clip730)" d="M2617.29 1379.47 L2617.29 1386.84 L2626.06 1386.84 L2626.06 1390.15 L2617.29 1390.15 L2617.29 1404.22 Q2617.29 1407.39 2618.14 1408.29 Q2619.02 1409.2 2621.68 1409.2 L2626.06 1409.2 L2626.06 1412.76 L2621.68 1412.76 Q2616.75 1412.76 2614.88 1410.93 Q2613 1409.08 2613 1404.22 L2613 1390.15 L2609.88 1390.15 L2609.88 1386.84 L2613 1386.84 L2613 1379.47 L2617.29 1379.47 Z" fill="#000000" fill-rule="nonzero" fill-opacity="1" /><path clip-path="url(#clip730)" d="M2653.84 1398.73 L2653.84 1400.82 L2634.25 1400.82 Q2634.53 1405.21 2636.89 1407.53 Q2639.28 1409.82 2643.51 1409.82 Q2645.97 1409.82 2648.26 1409.22 Q2650.57 1408.62 2652.84 1407.41 L2652.84 1411.44 Q2650.55 1412.41 2648.14 1412.92 Q2645.74 1413.43 2643.26 1413.43 Q2637.05 1413.43 2633.42 1409.82 Q2629.81 1406.21 2629.81 1400.05 Q2629.81 1393.69 2633.24 1389.96 Q2636.68 1386.21 2642.52 1386.21 Q2647.75 1386.21 2650.78 1389.59 Q2653.84 1392.95 2653.84 1398.73 M2649.58 1397.48 Q2649.53 1393.99 2647.61 1391.9 Q2645.71 1389.82 2642.56 1389.82 Q2639 1389.82 2636.85 1391.84 Q2634.72 1393.85 2634.39 1397.51 L2649.58 1397.48 Z" fill="#000000" fill-rule="nonzero" fill-opacity="1" /><path clip-path="url(#clip730)" d="M2677.36 1387.6 L2677.36 1391.63 Q2675.55 1390.7 2673.61 1390.24 Q2671.66 1389.78 2669.58 1389.78 Q2666.41 1389.78 2664.81 1390.75 Q2663.24 1391.72 2663.24 1393.66 Q2663.24 1395.15 2664.37 1396 Q2665.5 1396.84 2668.93 1397.6 L2670.39 1397.92 Q2674.92 1398.9 2676.82 1400.68 Q2678.74 1402.44 2678.74 1405.61 Q2678.74 1409.22 2675.87 1411.33 Q2673.03 1413.43 2668.03 1413.43 Q2665.94 1413.43 2663.68 1413.02 Q2661.43 1412.62 2658.93 1411.81 L2658.93 1407.41 Q2661.29 1408.64 2663.58 1409.27 Q2665.87 1409.87 2668.12 1409.87 Q2671.13 1409.87 2672.75 1408.85 Q2674.37 1407.81 2674.37 1405.93 Q2674.37 1404.2 2673.19 1403.27 Q2672.03 1402.34 2668.07 1401.49 L2666.59 1401.14 Q2662.63 1400.31 2660.87 1398.59 Q2659.11 1396.86 2659.11 1393.85 Q2659.11 1390.19 2661.71 1388.2 Q2664.3 1386.21 2669.07 1386.21 Q2671.43 1386.21 2673.51 1386.56 Q2675.6 1386.9 2677.36 1387.6 Z" fill="#000000" fill-rule="nonzero" fill-opacity="1" /><path clip-path="url(#clip730)" d="M2689.74 1379.47 L2689.74 1386.84 L2698.51 1386.84 L2698.51 1390.15 L2689.74 1390.15 L2689.74 1404.22 Q2689.74 1407.39 2690.6 1408.29 Q2691.48 1409.2 2694.14 1409.2 L2698.51 1409.2 L2698.51 1412.76 L2694.14 1412.76 Q2689.21 1412.76 2687.33 1410.93 Q2685.46 1409.08 2685.46 1404.22 L2685.46 1390.15 L2682.33 1390.15 L2682.33 1386.84 L2685.46 1386.84 L2685.46 1379.47 L2689.74 1379.47 Z" fill="#000000" fill-rule="nonzero" fill-opacity="1" /><path clip-path="url(#clip730)" d="M2736.24 1390.77 L2736.24 1376.74 L2740.5 1376.74 L2740.5 1412.76 L2736.24 1412.76 L2736.24 1408.87 Q2734.9 1411.19 2732.84 1412.32 Q2730.8 1413.43 2727.93 1413.43 Q2723.23 1413.43 2720.27 1409.68 Q2717.33 1405.93 2717.33 1399.82 Q2717.33 1393.71 2720.27 1389.96 Q2723.23 1386.21 2727.93 1386.21 Q2730.8 1386.21 2732.84 1387.34 Q2734.9 1388.46 2736.24 1390.77 M2721.73 1399.82 Q2721.73 1404.52 2723.65 1407.21 Q2725.6 1409.87 2728.98 1409.87 Q2732.36 1409.87 2734.3 1407.21 Q2736.24 1404.52 2736.24 1399.82 Q2736.24 1395.12 2734.3 1392.46 Q2732.36 1389.78 2728.98 1389.78 Q2725.6 1389.78 2723.65 1392.46 Q2721.73 1395.12 2721.73 1399.82 Z" fill="#000000" fill-rule="nonzero" fill-opacity="1" /><path clip-path="url(#clip730)" d="M2761.06 1399.73 Q2755.9 1399.73 2753.91 1400.91 Q2751.92 1402.09 2751.92 1404.94 Q2751.92 1407.21 2753.4 1408.55 Q2754.9 1409.87 2757.47 1409.87 Q2761.01 1409.87 2763.14 1407.37 Q2765.29 1404.84 2765.29 1400.68 L2765.29 1399.73 L2761.06 1399.73 M2769.55 1397.97 L2769.55 1412.76 L2765.29 1412.76 L2765.29 1408.83 Q2763.84 1411.19 2761.66 1412.32 Q2759.48 1413.43 2756.34 1413.43 Q2752.36 1413.43 2749.99 1411.21 Q2747.66 1408.96 2747.66 1405.21 Q2747.66 1400.84 2750.57 1398.62 Q2753.51 1396.4 2759.32 1396.4 L2765.29 1396.4 L2765.29 1395.98 Q2765.29 1393.04 2763.35 1391.44 Q2761.43 1389.82 2757.93 1389.82 Q2755.71 1389.82 2753.61 1390.35 Q2751.5 1390.89 2749.55 1391.95 L2749.55 1388.02 Q2751.89 1387.11 2754.09 1386.67 Q2756.29 1386.21 2758.37 1386.21 Q2764 1386.21 2766.78 1389.13 Q2769.55 1392.04 2769.55 1397.97 Z" fill="#000000" fill-rule="nonzero" fill-opacity="1" /><path clip-path="url(#clip730)" d="M2782.54 1379.47 L2782.54 1386.84 L2791.31 1386.84 L2791.31 1390.15 L2782.54 1390.15 L2782.54 1404.22 Q2782.54 1407.39 2783.4 1408.29 Q2784.28 1409.2 2786.94 1409.2 L2791.31 1409.2 L2791.31 1412.76 L2786.94 1412.76 Q2782.01 1412.76 2780.13 1410.93 Q2778.26 1409.08 2778.26 1404.22 L2778.26 1390.15 L2775.13 1390.15 L2775.13 1386.84 L2778.26 1386.84 L2778.26 1379.47 L2782.54 1379.47 Z" fill="#000000" fill-rule="nonzero" fill-opacity="1" /><path clip-path="url(#clip730)" d="M2808.7 1399.73 Q2803.54 1399.73 2801.54 1400.91 Q2799.55 1402.09 2799.55 1404.94 Q2799.55 1407.21 2801.04 1408.55 Q2802.54 1409.87 2805.11 1409.87 Q2808.65 1409.87 2810.78 1407.37 Q2812.93 1404.84 2812.93 1400.68 L2812.93 1399.73 L2808.7 1399.73 M2817.19 1397.97 L2817.19 1412.76 L2812.93 1412.76 L2812.93 1408.83 Q2811.48 1411.19 2809.3 1412.32 Q2807.12 1413.43 2803.98 1413.43 Q2799.99 1413.43 2797.63 1411.21 Q2795.29 1408.96 2795.29 1405.21 Q2795.29 1400.84 2798.21 1398.62 Q2801.15 1396.4 2806.96 1396.4 L2812.93 1396.4 L2812.93 1395.98 Q2812.93 1393.04 2810.99 1391.44 Q2809.07 1389.82 2805.57 1389.82 Q2803.35 1389.82 2801.24 1390.35 Q2799.14 1390.89 2797.19 1391.95 L2797.19 1388.02 Q2799.53 1387.11 2801.73 1386.67 Q2803.93 1386.21 2806.01 1386.21 Q2811.64 1386.21 2814.41 1389.13 Q2817.19 1392.04 2817.19 1397.97 Z" fill="#000000" fill-rule="nonzero" fill-opacity="1" /></svg>
