<?xml version="1.0" encoding="utf-8"?>
<svg xmlns="http://www.w3.org/2000/svg" xmlns:xlink="http://www.w3.org/1999/xlink" width="600" height="400" viewBox="0 0 2400 1600">
<defs>
  <clipPath id="clip390">
    <rect x="0" y="0" width="2400" height="1600"/>
  </clipPath>
</defs>
<path clip-path="url(#clip390)" d="M0 1600 L2400 1600 L2400 0 L0 0  Z" fill="#ffffff" fill-rule="evenodd" fill-opacity="1"/>
<defs>
  <clipPath id="clip391">
    <rect x="480" y="0" width="1681" height="1600"/>
  </clipPath>
</defs>
<path clip-path="url(#clip390)" d="M170.857 1495.09 L2352.76 1495.09 L2352.76 47.2441 L170.857 47.2441  Z" fill="#ffffff" fill-rule="evenodd" fill-opacity="1"/>
<defs>
  <clipPath id="clip392">
    <rect x="170" y="47" width="2183" height="1449"/>
  </clipPath>
</defs>
<polyline clip-path="url(#clip392)" style="stroke:#000000; stroke-linecap:round; stroke-linejoin:round; stroke-width:2; stroke-opacity:0.1; fill:none" points="452.689,1495.09 452.689,47.2441 "/>
<polyline clip-path="url(#clip392)" style="stroke:#000000; stroke-linecap:round; stroke-linejoin:round; stroke-width:2; stroke-opacity:0.1; fill:none" points="857.248,1495.09 857.248,47.2441 "/>
<polyline clip-path="url(#clip392)" style="stroke:#000000; stroke-linecap:round; stroke-linejoin:round; stroke-width:2; stroke-opacity:0.1; fill:none" points="1261.81,1495.09 1261.81,47.2441 "/>
<polyline clip-path="url(#clip392)" style="stroke:#000000; stroke-linecap:round; stroke-linejoin:round; stroke-width:2; stroke-opacity:0.1; fill:none" points="1666.37,1495.09 1666.37,47.2441 "/>
<polyline clip-path="url(#clip392)" style="stroke:#000000; stroke-linecap:round; stroke-linejoin:round; stroke-width:2; stroke-opacity:0.1; fill:none" points="2070.92,1495.09 2070.92,47.2441 "/>
<polyline clip-path="url(#clip390)" style="stroke:#000000; stroke-linecap:round; stroke-linejoin:round; stroke-width:4; stroke-opacity:1; fill:none" points="170.857,1495.09 2352.76,1495.09 "/>
<polyline clip-path="url(#clip390)" style="stroke:#000000; stroke-linecap:round; stroke-linejoin:round; stroke-width:4; stroke-opacity:1; fill:none" points="452.689,1495.09 452.689,1476.19 "/>
<polyline clip-path="url(#clip390)" style="stroke:#000000; stroke-linecap:round; stroke-linejoin:round; stroke-width:4; stroke-opacity:1; fill:none" points="857.248,1495.09 857.248,1476.19 "/>
<polyline clip-path="url(#clip390)" style="stroke:#000000; stroke-linecap:round; stroke-linejoin:round; stroke-width:4; stroke-opacity:1; fill:none" points="1261.81,1495.09 1261.81,1476.19 "/>
<polyline clip-path="url(#clip390)" style="stroke:#000000; stroke-linecap:round; stroke-linejoin:round; stroke-width:4; stroke-opacity:1; fill:none" points="1666.37,1495.09 1666.37,1476.19 "/>
<polyline clip-path="url(#clip390)" style="stroke:#000000; stroke-linecap:round; stroke-linejoin:round; stroke-width:4; stroke-opacity:1; fill:none" points="2070.92,1495.09 2070.92,1476.19 "/>
<path clip-path="url(#clip390)" d="M309.556 1519.52 L309.556 1555.07 L306.605 1555.07 L306.605 1519.52 L309.556 1519.52 Z" fill="#000000" fill-rule="nonzero" fill-opacity="1" /><path clip-path="url(#clip390)" d="M336.969 1522.76 L336.969 1526.46 Q335.199 1524.81 333.185 1524 Q331.188 1523.18 328.931 1523.18 Q324.487 1523.18 322.126 1525.91 Q319.765 1528.62 319.765 1533.75 Q319.765 1538.88 322.126 1541.6 Q324.487 1544.31 328.931 1544.31 Q331.188 1544.31 333.185 1543.49 Q335.199 1542.68 336.969 1541.03 L336.969 1544.69 Q335.129 1545.94 333.063 1546.57 Q331.015 1547.19 328.723 1547.19 Q322.837 1547.19 319.452 1543.6 Q316.067 1539.99 316.067 1533.75 Q316.067 1527.5 319.452 1523.91 Q322.837 1520.3 328.723 1520.3 Q331.049 1520.3 333.098 1520.92 Q335.164 1521.53 336.969 1522.76 Z" fill="#000000" fill-rule="nonzero" fill-opacity="1" /><path clip-path="url(#clip390)" d="M346.362 1519.52 L346.362 1555.07 L343.41 1555.07 L343.41 1519.52 L346.362 1519.52 Z" fill="#000000" fill-rule="nonzero" fill-opacity="1" /><path clip-path="url(#clip390)" d="M368.132 1535.8 Q368.254 1537.09 369.348 1539.17 Q370.632 1541.58 373.063 1542.94 Q375.441 1544.26 378.011 1544.27 L390.111 1544.27 L390.111 1547.04 L378.011 1547.04 Q374.677 1547.04 371.587 1545.32 Q368.514 1543.6 366.865 1540.54 Q365.216 1537.49 365.216 1534.24 Q365.216 1531.03 366.865 1527.97 Q368.514 1524.92 371.587 1523.18 Q374.677 1521.44 378.011 1521.44 L390.111 1521.44 L390.111 1524.21 L378.011 1524.21 Q375.441 1524.22 373.063 1525.56 Q370.65 1526.93 369.348 1529.33 Q368.237 1531.41 368.08 1533.02 L390.111 1533.02 L390.111 1535.8 L368.132 1535.8 Z" fill="#000000" fill-rule="nonzero" fill-opacity="1" /><path clip-path="url(#clip390)" d="M415.476 1519.71 Q413.149 1523.7 412.021 1527.61 Q410.893 1531.51 410.893 1535.52 Q410.893 1539.54 412.021 1543.48 Q413.167 1547.4 415.476 1551.38 L412.698 1551.38 Q410.094 1547.3 408.792 1543.35 Q407.507 1539.41 407.507 1535.52 Q407.507 1531.65 408.792 1527.73 Q410.077 1523.81 412.698 1519.71 L415.476 1519.71 Z" fill="#000000" fill-rule="nonzero" fill-opacity="1" /><path clip-path="url(#clip390)" d="M425.146 1543.74 L437.385 1543.74 L437.385 1546.69 L420.927 1546.69 L420.927 1543.74 Q422.924 1541.67 426.361 1538.2 Q429.816 1534.71 430.701 1533.7 Q432.385 1531.81 433.045 1530.51 Q433.722 1529.19 433.722 1527.92 Q433.722 1525.85 432.264 1524.55 Q430.823 1523.25 428.497 1523.25 Q426.847 1523.25 425.007 1523.82 Q423.184 1524.4 421.101 1525.56 L421.101 1522.02 Q423.219 1521.17 425.059 1520.73 Q426.899 1520.3 428.427 1520.3 Q432.455 1520.3 434.851 1522.31 Q437.247 1524.33 437.247 1527.69 Q437.247 1529.29 436.639 1530.73 Q436.049 1532.16 434.469 1534.1 Q434.035 1534.6 431.708 1537.02 Q429.382 1539.41 425.146 1543.74 Z" fill="#000000" fill-rule="nonzero" fill-opacity="1" /><path clip-path="url(#clip390)" d="M444.747 1542.28 L448.41 1542.28 L448.41 1546.69 L444.747 1546.69 L444.747 1542.28 Z" fill="#000000" fill-rule="nonzero" fill-opacity="1" /><path clip-path="url(#clip390)" d="M456.656 1543.74 L462.385 1543.74 L462.385 1523.96 L456.153 1525.21 L456.153 1522.02 L462.351 1520.77 L465.858 1520.77 L465.858 1543.74 L471.587 1543.74 L471.587 1546.69 L456.656 1546.69 L456.656 1543.74 Z" fill="#000000" fill-rule="nonzero" fill-opacity="1" /><path clip-path="url(#clip390)" d="M478.774 1546.15 L478.774 1542.96 Q480.094 1543.58 481.448 1543.91 Q482.802 1544.24 484.104 1544.24 Q487.576 1544.24 489.399 1541.91 Q491.239 1539.57 491.5 1534.81 Q490.493 1536.31 488.948 1537.1 Q487.403 1537.9 485.528 1537.9 Q481.639 1537.9 479.364 1535.56 Q477.107 1533.2 477.107 1529.12 Q477.107 1525.13 479.469 1522.71 Q481.83 1520.3 485.753 1520.3 Q490.25 1520.3 492.611 1523.75 Q494.989 1527.19 494.989 1533.75 Q494.989 1539.88 492.073 1543.55 Q489.173 1547.19 484.26 1547.19 Q482.941 1547.19 481.587 1546.93 Q480.232 1546.67 478.774 1546.15 M485.753 1535.16 Q488.114 1535.16 489.486 1533.55 Q490.875 1531.93 490.875 1529.12 Q490.875 1526.32 489.486 1524.71 Q488.114 1523.08 485.753 1523.08 Q483.392 1523.08 482.003 1524.71 Q480.632 1526.32 480.632 1529.12 Q480.632 1531.93 482.003 1533.55 Q483.392 1535.16 485.753 1535.16 Z" fill="#000000" fill-rule="nonzero" fill-opacity="1" /><path clip-path="url(#clip390)" d="M501.656 1542.28 L505.319 1542.28 L505.319 1545.26 L502.472 1550.82 L500.232 1550.82 L501.656 1545.26 L501.656 1542.28 Z" fill="#000000" fill-rule="nonzero" fill-opacity="1" /><path clip-path="url(#clip390)" d="M515.614 1543.74 L527.854 1543.74 L527.854 1546.69 L511.395 1546.69 L511.395 1543.74 Q513.392 1541.67 516.829 1538.2 Q520.284 1534.71 521.17 1533.7 Q522.854 1531.81 523.513 1530.51 Q524.191 1529.19 524.191 1527.92 Q524.191 1525.85 522.732 1524.55 Q521.291 1523.25 518.965 1523.25 Q517.316 1523.25 515.475 1523.82 Q513.652 1524.4 511.569 1525.56 L511.569 1522.02 Q513.687 1521.17 515.527 1520.73 Q517.368 1520.3 518.895 1520.3 Q522.923 1520.3 525.319 1522.31 Q527.715 1524.33 527.715 1527.69 Q527.715 1529.29 527.107 1530.73 Q526.517 1532.16 524.937 1534.1 Q524.503 1534.6 522.177 1537.02 Q519.85 1539.41 515.614 1543.74 Z" fill="#000000" fill-rule="nonzero" fill-opacity="1" /><path clip-path="url(#clip390)" d="M535.215 1542.28 L538.878 1542.28 L538.878 1546.69 L535.215 1546.69 L535.215 1542.28 Z" fill="#000000" fill-rule="nonzero" fill-opacity="1" /><path clip-path="url(#clip390)" d="M549.538 1543.74 L561.777 1543.74 L561.777 1546.69 L545.319 1546.69 L545.319 1543.74 Q547.315 1541.67 550.753 1538.2 Q554.208 1534.71 555.093 1533.7 Q556.777 1531.81 557.437 1530.51 Q558.114 1529.19 558.114 1527.92 Q558.114 1525.85 556.656 1524.55 Q555.215 1523.25 552.888 1523.25 Q551.239 1523.25 549.399 1523.82 Q547.576 1524.4 545.493 1525.56 L545.493 1522.02 Q547.611 1521.17 549.451 1520.73 Q551.291 1520.3 552.819 1520.3 Q556.847 1520.3 559.242 1522.31 Q561.638 1524.33 561.638 1527.69 Q561.638 1529.29 561.031 1530.73 Q560.44 1532.16 558.861 1534.1 Q558.426 1534.6 556.1 1537.02 Q553.774 1539.41 549.538 1543.74 Z" fill="#000000" fill-rule="nonzero" fill-opacity="1" /><path clip-path="url(#clip390)" d="M572.159 1543.74 L584.399 1543.74 L584.399 1546.69 L567.94 1546.69 L567.94 1543.74 Q569.937 1541.67 573.374 1538.2 Q576.829 1534.71 577.715 1533.7 Q579.399 1531.81 580.058 1530.51 Q580.735 1529.19 580.735 1527.92 Q580.735 1525.85 579.277 1524.55 Q577.836 1523.25 575.51 1523.25 Q573.86 1523.25 572.02 1523.82 Q570.197 1524.4 568.114 1525.56 L568.114 1522.02 Q570.232 1521.17 572.072 1520.73 Q573.913 1520.3 575.44 1520.3 Q579.468 1520.3 581.864 1522.31 Q584.26 1524.33 584.26 1527.69 Q584.26 1529.29 583.652 1530.73 Q583.062 1532.16 581.482 1534.1 Q581.048 1534.6 578.722 1537.02 Q576.395 1539.41 572.159 1543.74 Z" fill="#000000" fill-rule="nonzero" fill-opacity="1" /><path clip-path="url(#clip390)" d="M598.773 1519.67 L598.773 1551.38 L591.412 1551.38 L591.412 1548.89 L595.562 1548.89 L595.562 1522.16 L591.412 1522.16 L591.412 1519.67 L598.773 1519.67 Z" fill="#000000" fill-rule="nonzero" fill-opacity="1" /><path clip-path="url(#clip390)" d="M714.115 1519.52 L714.115 1555.07 L711.164 1555.07 L711.164 1519.52 L714.115 1519.52 Z" fill="#000000" fill-rule="nonzero" fill-opacity="1" /><path clip-path="url(#clip390)" d="M741.528 1522.76 L741.528 1526.46 Q739.757 1524.81 737.743 1524 Q735.747 1523.18 733.49 1523.18 Q729.045 1523.18 726.684 1525.91 Q724.323 1528.62 724.323 1533.75 Q724.323 1538.88 726.684 1541.6 Q729.045 1544.31 733.49 1544.31 Q735.747 1544.31 737.743 1543.49 Q739.757 1542.68 741.528 1541.03 L741.528 1544.69 Q739.688 1545.94 737.622 1546.57 Q735.573 1547.19 733.282 1547.19 Q727.396 1547.19 724.011 1543.6 Q720.625 1539.99 720.625 1533.75 Q720.625 1527.5 724.011 1523.91 Q727.396 1520.3 733.282 1520.3 Q735.608 1520.3 737.657 1520.92 Q739.723 1521.53 741.528 1522.76 Z" fill="#000000" fill-rule="nonzero" fill-opacity="1" /><path clip-path="url(#clip390)" d="M750.92 1519.52 L750.92 1555.07 L747.969 1555.07 L747.969 1519.52 L750.92 1519.52 Z" fill="#000000" fill-rule="nonzero" fill-opacity="1" /><path clip-path="url(#clip390)" d="M772.691 1535.8 Q772.813 1537.09 773.906 1539.17 Q775.191 1541.58 777.622 1542.94 Q780 1544.26 782.57 1544.27 L794.67 1544.27 L794.67 1547.04 L782.57 1547.04 Q779.236 1547.04 776.146 1545.32 Q773.073 1543.6 771.424 1540.54 Q769.774 1537.49 769.774 1534.24 Q769.774 1531.03 771.424 1527.97 Q773.073 1524.92 776.146 1523.18 Q779.236 1521.44 782.57 1521.44 L794.67 1521.44 L794.67 1524.21 L782.57 1524.21 Q780 1524.22 777.622 1525.56 Q775.208 1526.93 773.906 1529.33 Q772.795 1531.41 772.639 1533.02 L794.67 1533.02 L794.67 1535.8 L772.691 1535.8 Z" fill="#000000" fill-rule="nonzero" fill-opacity="1" /><path clip-path="url(#clip390)" d="M820.035 1519.71 Q817.708 1523.7 816.58 1527.61 Q815.451 1531.51 815.451 1535.52 Q815.451 1539.54 816.58 1543.48 Q817.726 1547.4 820.035 1551.38 L817.257 1551.38 Q814.653 1547.3 813.351 1543.35 Q812.066 1539.41 812.066 1535.52 Q812.066 1531.65 813.351 1527.73 Q814.635 1523.81 817.257 1519.71 L820.035 1519.71 Z" fill="#000000" fill-rule="nonzero" fill-opacity="1" /><path clip-path="url(#clip390)" d="M829.705 1543.74 L841.944 1543.74 L841.944 1546.69 L825.486 1546.69 L825.486 1543.74 Q827.482 1541.67 830.92 1538.2 Q834.375 1534.71 835.26 1533.7 Q836.944 1531.81 837.604 1530.51 Q838.281 1529.19 838.281 1527.92 Q838.281 1525.85 836.823 1524.55 Q835.382 1523.25 833.055 1523.25 Q831.406 1523.25 829.566 1523.82 Q827.743 1524.4 825.66 1525.56 L825.66 1522.02 Q827.778 1521.17 829.618 1520.73 Q831.458 1520.3 832.986 1520.3 Q837.014 1520.3 839.409 1522.31 Q841.805 1524.33 841.805 1527.69 Q841.805 1529.29 841.198 1530.73 Q840.607 1532.16 839.028 1534.1 Q838.594 1534.6 836.267 1537.02 Q833.941 1539.41 829.705 1543.74 Z" fill="#000000" fill-rule="nonzero" fill-opacity="1" /><path clip-path="url(#clip390)" d="M849.305 1542.28 L852.968 1542.28 L852.968 1546.69 L849.305 1546.69 L849.305 1542.28 Z" fill="#000000" fill-rule="nonzero" fill-opacity="1" /><path clip-path="url(#clip390)" d="M863.628 1543.74 L875.868 1543.74 L875.868 1546.69 L859.409 1546.69 L859.409 1543.74 Q861.406 1541.67 864.843 1538.2 Q868.298 1534.71 869.184 1533.7 Q870.868 1531.81 871.527 1530.51 Q872.204 1529.19 872.204 1527.92 Q872.204 1525.85 870.746 1524.55 Q869.305 1523.25 866.979 1523.25 Q865.329 1523.25 863.489 1523.82 Q861.666 1524.4 859.583 1525.56 L859.583 1522.02 Q861.701 1521.17 863.541 1520.73 Q865.382 1520.3 866.909 1520.3 Q870.937 1520.3 873.333 1522.31 Q875.729 1524.33 875.729 1527.69 Q875.729 1529.29 875.121 1530.73 Q874.531 1532.16 872.951 1534.1 Q872.517 1534.6 870.191 1537.02 Q867.864 1539.41 863.628 1543.74 Z" fill="#000000" fill-rule="nonzero" fill-opacity="1" /><path clip-path="url(#clip390)" d="M886.25 1543.74 L898.489 1543.74 L898.489 1546.69 L882.031 1546.69 L882.031 1543.74 Q884.027 1541.67 887.465 1538.2 Q890.92 1534.71 891.805 1533.7 Q893.489 1531.81 894.149 1530.51 Q894.826 1529.19 894.826 1527.92 Q894.826 1525.85 893.368 1524.55 Q891.927 1523.25 889.6 1523.25 Q887.951 1523.25 886.111 1523.82 Q884.288 1524.4 882.204 1525.56 L882.204 1522.02 Q884.322 1521.17 886.163 1520.73 Q888.003 1520.3 889.531 1520.3 Q893.559 1520.3 895.954 1522.31 Q898.35 1524.33 898.35 1527.69 Q898.35 1529.29 897.743 1530.73 Q897.152 1532.16 895.572 1534.1 Q895.138 1534.6 892.812 1537.02 Q890.486 1539.41 886.25 1543.74 Z" fill="#000000" fill-rule="nonzero" fill-opacity="1" /><path clip-path="url(#clip390)" d="M906.215 1542.28 L909.878 1542.28 L909.878 1545.26 L907.031 1550.82 L904.791 1550.82 L906.215 1545.26 L906.215 1542.28 Z" fill="#000000" fill-rule="nonzero" fill-opacity="1" /><path clip-path="url(#clip390)" d="M920.173 1543.74 L932.412 1543.74 L932.412 1546.69 L915.954 1546.69 L915.954 1543.74 Q917.951 1541.67 921.388 1538.2 Q924.843 1534.71 925.728 1533.7 Q927.412 1531.81 928.072 1530.51 Q928.749 1529.19 928.749 1527.92 Q928.749 1525.85 927.291 1524.55 Q925.85 1523.25 923.524 1523.25 Q921.874 1523.25 920.034 1523.82 Q918.211 1524.4 916.128 1525.56 L916.128 1522.02 Q918.246 1521.17 920.086 1520.73 Q921.926 1520.3 923.454 1520.3 Q927.482 1520.3 929.878 1522.31 Q932.274 1524.33 932.274 1527.69 Q932.274 1529.29 931.666 1530.73 Q931.076 1532.16 929.496 1534.1 Q929.062 1534.6 926.735 1537.02 Q924.409 1539.41 920.173 1543.74 Z" fill="#000000" fill-rule="nonzero" fill-opacity="1" /><path clip-path="url(#clip390)" d="M939.774 1542.28 L943.437 1542.28 L943.437 1546.69 L939.774 1546.69 L939.774 1542.28 Z" fill="#000000" fill-rule="nonzero" fill-opacity="1" /><path clip-path="url(#clip390)" d="M954.096 1543.74 L966.336 1543.74 L966.336 1546.69 L949.878 1546.69 L949.878 1543.74 Q951.874 1541.67 955.312 1538.2 Q958.766 1534.71 959.652 1533.7 Q961.336 1531.81 961.996 1530.51 Q962.673 1529.19 962.673 1527.92 Q962.673 1525.85 961.214 1524.55 Q959.773 1523.25 957.447 1523.25 Q955.798 1523.25 953.957 1523.82 Q952.135 1524.4 950.051 1525.56 L950.051 1522.02 Q952.169 1521.17 954.01 1520.73 Q955.85 1520.3 957.378 1520.3 Q961.405 1520.3 963.801 1522.31 Q966.197 1524.33 966.197 1527.69 Q966.197 1529.29 965.589 1530.73 Q964.999 1532.16 963.419 1534.1 Q962.985 1534.6 960.659 1537.02 Q958.332 1539.41 954.096 1543.74 Z" fill="#000000" fill-rule="nonzero" fill-opacity="1" /><path clip-path="url(#clip390)" d="M983.332 1523.82 L974.478 1537.66 L983.332 1537.66 L983.332 1523.82 M982.412 1520.77 L986.822 1520.77 L986.822 1537.66 L990.52 1537.66 L990.52 1540.58 L986.822 1540.58 L986.822 1546.69 L983.332 1546.69 L983.332 1540.58 L971.631 1540.58 L971.631 1537.19 L982.412 1520.77 Z" fill="#000000" fill-rule="nonzero" fill-opacity="1" /><path clip-path="url(#clip390)" d="M1003.33 1519.67 L1003.33 1551.38 L995.971 1551.38 L995.971 1548.89 L1000.12 1548.89 L1000.12 1522.16 L995.971 1522.16 L995.971 1519.67 L1003.33 1519.67 Z" fill="#000000" fill-rule="nonzero" fill-opacity="1" /><path clip-path="url(#clip390)" d="M1118.67 1519.52 L1118.67 1555.07 L1115.72 1555.07 L1115.72 1519.52 L1118.67 1519.52 Z" fill="#000000" fill-rule="nonzero" fill-opacity="1" /><path clip-path="url(#clip390)" d="M1146.09 1522.76 L1146.09 1526.46 Q1144.32 1524.81 1142.3 1524 Q1140.31 1523.18 1138.05 1523.18 Q1133.6 1523.18 1131.24 1525.91 Q1128.88 1528.62 1128.88 1533.75 Q1128.88 1538.88 1131.24 1541.6 Q1133.6 1544.31 1138.05 1544.31 Q1140.31 1544.31 1142.3 1543.49 Q1144.32 1542.68 1146.09 1541.03 L1146.09 1544.69 Q1144.25 1545.94 1142.18 1546.57 Q1140.13 1547.19 1137.84 1547.19 Q1131.95 1547.19 1128.57 1543.6 Q1125.18 1539.99 1125.18 1533.75 Q1125.18 1527.5 1128.57 1523.91 Q1131.95 1520.3 1137.84 1520.3 Q1140.17 1520.3 1142.22 1520.92 Q1144.28 1521.53 1146.09 1522.76 Z" fill="#000000" fill-rule="nonzero" fill-opacity="1" /><path clip-path="url(#clip390)" d="M1155.48 1519.52 L1155.48 1555.07 L1152.53 1555.07 L1152.53 1519.52 L1155.48 1519.52 Z" fill="#000000" fill-rule="nonzero" fill-opacity="1" /><path clip-path="url(#clip390)" d="M1177.25 1535.8 Q1177.37 1537.09 1178.47 1539.17 Q1179.75 1541.58 1182.18 1542.94 Q1184.56 1544.26 1187.13 1544.27 L1199.23 1544.27 L1199.23 1547.04 L1187.13 1547.04 Q1183.79 1547.04 1180.7 1545.32 Q1177.63 1543.6 1175.98 1540.54 Q1174.33 1537.49 1174.33 1534.24 Q1174.33 1531.03 1175.98 1527.97 Q1177.63 1524.92 1180.7 1523.18 Q1183.79 1521.44 1187.13 1521.44 L1199.23 1521.44 L1199.23 1524.21 L1187.13 1524.21 Q1184.56 1524.22 1182.18 1525.56 Q1179.77 1526.93 1178.47 1529.33 Q1177.35 1531.41 1177.2 1533.02 L1199.23 1533.02 L1199.23 1535.8 L1177.25 1535.8 Z" fill="#000000" fill-rule="nonzero" fill-opacity="1" /><path clip-path="url(#clip390)" d="M1224.59 1519.71 Q1222.27 1523.7 1221.14 1527.61 Q1220.01 1531.51 1220.01 1535.52 Q1220.01 1539.54 1221.14 1543.48 Q1222.28 1547.4 1224.59 1551.38 L1221.82 1551.38 Q1219.21 1547.3 1217.91 1543.35 Q1216.62 1539.41 1216.62 1535.52 Q1216.62 1531.65 1217.91 1527.73 Q1219.19 1523.81 1221.82 1519.71 L1224.59 1519.71 Z" fill="#000000" fill-rule="nonzero" fill-opacity="1" /><path clip-path="url(#clip390)" d="M1234.26 1543.74 L1246.5 1543.74 L1246.5 1546.69 L1230.04 1546.69 L1230.04 1543.74 Q1232.04 1541.67 1235.48 1538.2 Q1238.93 1534.71 1239.82 1533.7 Q1241.5 1531.81 1242.16 1530.51 Q1242.84 1529.19 1242.84 1527.92 Q1242.84 1525.85 1241.38 1524.55 Q1239.94 1523.25 1237.61 1523.25 Q1235.96 1523.25 1234.12 1523.82 Q1232.3 1524.4 1230.22 1525.56 L1230.22 1522.02 Q1232.34 1521.17 1234.18 1520.73 Q1236.02 1520.3 1237.54 1520.3 Q1241.57 1520.3 1243.97 1522.31 Q1246.36 1524.33 1246.36 1527.69 Q1246.36 1529.29 1245.76 1530.73 Q1245.17 1532.16 1243.59 1534.1 Q1243.15 1534.6 1240.83 1537.02 Q1238.5 1539.41 1234.26 1543.74 Z" fill="#000000" fill-rule="nonzero" fill-opacity="1" /><path clip-path="url(#clip390)" d="M1253.86 1542.28 L1257.53 1542.28 L1257.53 1546.69 L1253.86 1546.69 L1253.86 1542.28 Z" fill="#000000" fill-rule="nonzero" fill-opacity="1" /><path clip-path="url(#clip390)" d="M1268.19 1543.74 L1280.43 1543.74 L1280.43 1546.69 L1263.97 1546.69 L1263.97 1543.74 Q1265.96 1541.67 1269.4 1538.2 Q1272.86 1534.71 1273.74 1533.7 Q1275.43 1531.81 1276.09 1530.51 Q1276.76 1529.19 1276.76 1527.92 Q1276.76 1525.85 1275.3 1524.55 Q1273.86 1523.25 1271.54 1523.25 Q1269.89 1523.25 1268.05 1523.82 Q1266.23 1524.4 1264.14 1525.56 L1264.14 1522.02 Q1266.26 1521.17 1268.1 1520.73 Q1269.94 1520.3 1271.47 1520.3 Q1275.5 1520.3 1277.89 1522.31 Q1280.29 1524.33 1280.29 1527.69 Q1280.29 1529.29 1279.68 1530.73 Q1279.09 1532.16 1277.51 1534.1 Q1277.08 1534.6 1274.75 1537.02 Q1272.42 1539.41 1268.19 1543.74 Z" fill="#000000" fill-rule="nonzero" fill-opacity="1" /><path clip-path="url(#clip390)" d="M1297.42 1523.82 L1288.57 1537.66 L1297.42 1537.66 L1297.42 1523.82 M1296.5 1520.77 L1300.91 1520.77 L1300.91 1537.66 L1304.61 1537.66 L1304.61 1540.58 L1300.91 1540.58 L1300.91 1546.69 L1297.42 1546.69 L1297.42 1540.58 L1285.72 1540.58 L1285.72 1537.19 L1296.5 1520.77 Z" fill="#000000" fill-rule="nonzero" fill-opacity="1" /><path clip-path="url(#clip390)" d="M1310.77 1542.28 L1314.44 1542.28 L1314.44 1545.26 L1311.59 1550.82 L1309.35 1550.82 L1310.77 1545.26 L1310.77 1542.28 Z" fill="#000000" fill-rule="nonzero" fill-opacity="1" /><path clip-path="url(#clip390)" d="M1324.73 1543.74 L1336.97 1543.74 L1336.97 1546.69 L1320.51 1546.69 L1320.51 1543.74 Q1322.51 1541.67 1325.95 1538.2 Q1329.4 1534.71 1330.29 1533.7 Q1331.97 1531.81 1332.63 1530.51 Q1333.31 1529.19 1333.31 1527.92 Q1333.31 1525.85 1331.85 1524.55 Q1330.41 1523.25 1328.08 1523.25 Q1326.43 1523.25 1324.59 1523.82 Q1322.77 1524.4 1320.69 1525.56 L1320.69 1522.02 Q1322.8 1521.17 1324.64 1520.73 Q1326.49 1520.3 1328.01 1520.3 Q1332.04 1520.3 1334.44 1522.31 Q1336.83 1524.33 1336.83 1527.69 Q1336.83 1529.29 1336.22 1530.73 Q1335.63 1532.16 1334.05 1534.1 Q1333.62 1534.6 1331.29 1537.02 Q1328.97 1539.41 1324.73 1543.74 Z" fill="#000000" fill-rule="nonzero" fill-opacity="1" /><path clip-path="url(#clip390)" d="M1344.33 1542.28 L1348 1542.28 L1348 1546.69 L1344.33 1546.69 L1344.33 1542.28 Z" fill="#000000" fill-rule="nonzero" fill-opacity="1" /><path clip-path="url(#clip390)" d="M1358.66 1543.74 L1370.89 1543.74 L1370.89 1546.69 L1354.44 1546.69 L1354.44 1543.74 Q1356.43 1541.67 1359.87 1538.2 Q1363.33 1534.71 1364.21 1533.7 Q1365.89 1531.81 1366.55 1530.51 Q1367.23 1529.19 1367.23 1527.92 Q1367.23 1525.85 1365.77 1524.55 Q1364.33 1523.25 1362.01 1523.25 Q1360.36 1523.25 1358.52 1523.82 Q1356.69 1524.4 1354.61 1525.56 L1354.61 1522.02 Q1356.73 1521.17 1358.57 1520.73 Q1360.41 1520.3 1361.94 1520.3 Q1365.96 1520.3 1368.36 1522.31 Q1370.76 1524.33 1370.76 1527.69 Q1370.76 1529.29 1370.15 1530.73 Q1369.56 1532.16 1367.98 1534.1 Q1367.54 1534.6 1365.22 1537.02 Q1362.89 1539.41 1358.66 1543.74 Z" fill="#000000" fill-rule="nonzero" fill-opacity="1" /><path clip-path="url(#clip390)" d="M1386.19 1532.33 Q1383.83 1532.33 1382.44 1533.94 Q1381.07 1535.56 1381.07 1538.37 Q1381.07 1541.17 1382.44 1542.8 Q1383.83 1544.41 1386.19 1544.41 Q1388.55 1544.41 1389.92 1542.8 Q1391.31 1541.17 1391.31 1538.37 Q1391.31 1535.56 1389.92 1533.94 Q1388.55 1532.33 1386.19 1532.33 M1393.15 1521.34 L1393.15 1524.54 Q1391.83 1523.91 1390.48 1523.58 Q1389.14 1523.25 1387.82 1523.25 Q1384.35 1523.25 1382.51 1525.59 Q1380.69 1527.94 1380.43 1532.68 Q1381.45 1531.17 1383 1530.37 Q1384.54 1529.55 1386.4 1529.55 Q1390.3 1529.55 1392.56 1531.93 Q1394.84 1534.29 1394.84 1538.37 Q1394.84 1542.36 1392.47 1544.78 Q1390.11 1547.19 1386.19 1547.19 Q1381.69 1547.19 1379.31 1543.75 Q1376.94 1540.3 1376.94 1533.75 Q1376.94 1527.61 1379.85 1523.96 Q1382.77 1520.3 1387.68 1520.3 Q1389 1520.3 1390.34 1520.56 Q1391.69 1520.82 1393.15 1521.34 Z" fill="#000000" fill-rule="nonzero" fill-opacity="1" /><path clip-path="url(#clip390)" d="M1407.89 1519.67 L1407.89 1551.38 L1400.53 1551.38 L1400.53 1548.89 L1404.68 1548.89 L1404.68 1522.16 L1400.53 1522.16 L1400.53 1519.67 L1407.89 1519.67 Z" fill="#000000" fill-rule="nonzero" fill-opacity="1" /><path clip-path="url(#clip390)" d="M1523.23 1519.52 L1523.23 1555.07 L1520.28 1555.07 L1520.28 1519.52 L1523.23 1519.52 Z" fill="#000000" fill-rule="nonzero" fill-opacity="1" /><path clip-path="url(#clip390)" d="M1550.65 1522.76 L1550.65 1526.46 Q1548.87 1524.81 1546.86 1524 Q1544.86 1523.18 1542.61 1523.18 Q1538.16 1523.18 1535.8 1525.91 Q1533.44 1528.62 1533.44 1533.75 Q1533.44 1538.88 1535.8 1541.6 Q1538.16 1544.31 1542.61 1544.31 Q1544.86 1544.31 1546.86 1543.49 Q1548.87 1542.68 1550.65 1541.03 L1550.65 1544.69 Q1548.81 1545.94 1546.74 1546.57 Q1544.69 1547.19 1542.4 1547.19 Q1536.51 1547.19 1533.13 1543.6 Q1529.74 1539.99 1529.74 1533.75 Q1529.74 1527.5 1533.13 1523.91 Q1536.51 1520.3 1542.4 1520.3 Q1544.73 1520.3 1546.77 1520.92 Q1548.84 1521.53 1550.65 1522.76 Z" fill="#000000" fill-rule="nonzero" fill-opacity="1" /><path clip-path="url(#clip390)" d="M1560.04 1519.52 L1560.04 1555.07 L1557.09 1555.07 L1557.09 1519.52 L1560.04 1519.52 Z" fill="#000000" fill-rule="nonzero" fill-opacity="1" /><path clip-path="url(#clip390)" d="M1581.81 1535.8 Q1581.93 1537.09 1583.02 1539.17 Q1584.31 1541.58 1586.74 1542.94 Q1589.12 1544.26 1591.69 1544.27 L1603.79 1544.27 L1603.79 1547.04 L1591.69 1547.04 Q1588.35 1547.04 1585.26 1545.32 Q1582.19 1543.6 1580.54 1540.54 Q1578.89 1537.49 1578.89 1534.24 Q1578.89 1531.03 1580.54 1527.97 Q1582.19 1524.92 1585.26 1523.18 Q1588.35 1521.44 1591.69 1521.44 L1603.79 1521.44 L1603.79 1524.21 L1591.69 1524.21 Q1589.12 1524.22 1586.74 1525.56 Q1584.33 1526.93 1583.02 1529.33 Q1581.91 1531.41 1581.76 1533.02 L1603.79 1533.02 L1603.79 1535.8 L1581.81 1535.8 Z" fill="#000000" fill-rule="nonzero" fill-opacity="1" /><path clip-path="url(#clip390)" d="M1629.15 1519.71 Q1626.83 1523.7 1625.7 1527.61 Q1624.57 1531.51 1624.57 1535.52 Q1624.57 1539.54 1625.7 1543.48 Q1626.84 1547.4 1629.15 1551.38 L1626.37 1551.38 Q1623.77 1547.3 1622.47 1543.35 Q1621.18 1539.41 1621.18 1535.52 Q1621.18 1531.65 1622.47 1527.73 Q1623.75 1523.81 1626.37 1519.71 L1629.15 1519.71 Z" fill="#000000" fill-rule="nonzero" fill-opacity="1" /><path clip-path="url(#clip390)" d="M1638.82 1543.74 L1651.06 1543.74 L1651.06 1546.69 L1634.6 1546.69 L1634.6 1543.74 Q1636.6 1541.67 1640.04 1538.2 Q1643.49 1534.71 1644.38 1533.7 Q1646.06 1531.81 1646.72 1530.51 Q1647.4 1529.19 1647.4 1527.92 Q1647.4 1525.85 1645.94 1524.55 Q1644.5 1523.25 1642.17 1523.25 Q1640.52 1523.25 1638.68 1523.82 Q1636.86 1524.4 1634.78 1525.56 L1634.78 1522.02 Q1636.9 1521.17 1638.74 1520.73 Q1640.58 1520.3 1642.1 1520.3 Q1646.13 1520.3 1648.53 1522.31 Q1650.92 1524.33 1650.92 1527.69 Q1650.92 1529.29 1650.32 1530.73 Q1649.72 1532.16 1648.14 1534.1 Q1647.71 1534.6 1645.38 1537.02 Q1643.06 1539.41 1638.82 1543.74 Z" fill="#000000" fill-rule="nonzero" fill-opacity="1" /><path clip-path="url(#clip390)" d="M1658.42 1542.28 L1662.09 1542.28 L1662.09 1546.69 L1658.42 1546.69 L1658.42 1542.28 Z" fill="#000000" fill-rule="nonzero" fill-opacity="1" /><path clip-path="url(#clip390)" d="M1672.75 1543.74 L1684.99 1543.74 L1684.99 1546.69 L1668.53 1546.69 L1668.53 1543.74 Q1670.52 1541.67 1673.96 1538.2 Q1677.42 1534.71 1678.3 1533.7 Q1679.99 1531.81 1680.64 1530.51 Q1681.32 1529.19 1681.32 1527.92 Q1681.32 1525.85 1679.86 1524.55 Q1678.42 1523.25 1676.1 1523.25 Q1674.45 1523.25 1672.61 1523.82 Q1670.78 1524.4 1668.7 1525.56 L1668.7 1522.02 Q1670.82 1521.17 1672.66 1520.73 Q1674.5 1520.3 1676.03 1520.3 Q1680.05 1520.3 1682.45 1522.31 Q1684.85 1524.33 1684.85 1527.69 Q1684.85 1529.29 1684.24 1530.73 Q1683.65 1532.16 1682.07 1534.1 Q1681.63 1534.6 1679.31 1537.02 Q1676.98 1539.41 1672.75 1543.74 Z" fill="#000000" fill-rule="nonzero" fill-opacity="1" /><path clip-path="url(#clip390)" d="M1700.28 1532.33 Q1697.92 1532.33 1696.53 1533.94 Q1695.16 1535.56 1695.16 1538.37 Q1695.16 1541.17 1696.53 1542.8 Q1697.92 1544.41 1700.28 1544.41 Q1702.64 1544.41 1704.01 1542.8 Q1705.4 1541.17 1705.4 1538.37 Q1705.4 1535.56 1704.01 1533.94 Q1702.64 1532.33 1700.28 1532.33 M1707.24 1521.34 L1707.24 1524.54 Q1705.92 1523.91 1704.57 1523.58 Q1703.23 1523.25 1701.91 1523.25 Q1698.44 1523.25 1696.6 1525.59 Q1694.78 1527.94 1694.52 1532.68 Q1695.54 1531.17 1697.09 1530.37 Q1698.63 1529.55 1700.49 1529.55 Q1704.39 1529.55 1706.65 1531.93 Q1708.93 1534.29 1708.93 1538.37 Q1708.93 1542.36 1706.56 1544.78 Q1704.2 1547.19 1700.28 1547.19 Q1695.78 1547.19 1693.41 1543.75 Q1691.03 1540.3 1691.03 1533.75 Q1691.03 1527.61 1693.94 1523.96 Q1696.86 1520.3 1701.77 1520.3 Q1703.09 1520.3 1704.43 1520.56 Q1705.78 1520.82 1707.24 1521.34 Z" fill="#000000" fill-rule="nonzero" fill-opacity="1" /><path clip-path="url(#clip390)" d="M1715.33 1542.28 L1719 1542.28 L1719 1545.26 L1716.15 1550.82 L1713.91 1550.82 L1715.33 1545.26 L1715.33 1542.28 Z" fill="#000000" fill-rule="nonzero" fill-opacity="1" /><path clip-path="url(#clip390)" d="M1729.29 1543.74 L1741.53 1543.74 L1741.53 1546.69 L1725.07 1546.69 L1725.07 1543.74 Q1727.07 1541.67 1730.51 1538.2 Q1733.96 1534.71 1734.85 1533.7 Q1736.53 1531.81 1737.19 1530.51 Q1737.87 1529.19 1737.87 1527.92 Q1737.87 1525.85 1736.41 1524.55 Q1734.97 1523.25 1732.64 1523.25 Q1730.99 1523.25 1729.15 1523.82 Q1727.33 1524.4 1725.25 1525.56 L1725.25 1522.02 Q1727.36 1521.17 1729.2 1520.73 Q1731.04 1520.3 1732.57 1520.3 Q1736.6 1520.3 1739 1522.31 Q1741.39 1524.33 1741.39 1527.69 Q1741.39 1529.29 1740.78 1530.73 Q1740.19 1532.16 1738.61 1534.1 Q1738.18 1534.6 1735.85 1537.02 Q1733.53 1539.41 1729.29 1543.74 Z" fill="#000000" fill-rule="nonzero" fill-opacity="1" /><path clip-path="url(#clip390)" d="M1748.89 1542.28 L1752.55 1542.28 L1752.55 1546.69 L1748.89 1546.69 L1748.89 1542.28 Z" fill="#000000" fill-rule="nonzero" fill-opacity="1" /><path clip-path="url(#clip390)" d="M1763.21 1543.74 L1775.45 1543.74 L1775.45 1546.69 L1759 1546.69 L1759 1543.74 Q1760.99 1541.67 1764.43 1538.2 Q1767.88 1534.71 1768.77 1533.7 Q1770.45 1531.81 1771.11 1530.51 Q1771.79 1529.19 1771.79 1527.92 Q1771.79 1525.85 1770.33 1524.55 Q1768.89 1523.25 1766.56 1523.25 Q1764.92 1523.25 1763.07 1523.82 Q1761.25 1524.4 1759.17 1525.56 L1759.17 1522.02 Q1761.29 1521.17 1763.13 1520.73 Q1764.97 1520.3 1766.5 1520.3 Q1770.52 1520.3 1772.92 1522.31 Q1775.31 1524.33 1775.31 1527.69 Q1775.31 1529.29 1774.71 1530.73 Q1774.12 1532.16 1772.54 1534.1 Q1772.1 1534.6 1769.78 1537.02 Q1767.45 1539.41 1763.21 1543.74 Z" fill="#000000" fill-rule="nonzero" fill-opacity="1" /><path clip-path="url(#clip390)" d="M1790.31 1534.38 Q1787.81 1534.38 1786.37 1535.72 Q1784.95 1537.05 1784.95 1539.4 Q1784.95 1541.74 1786.37 1543.08 Q1787.81 1544.41 1790.31 1544.41 Q1792.81 1544.41 1794.26 1543.08 Q1795.7 1541.72 1795.7 1539.4 Q1795.7 1537.05 1794.26 1535.72 Q1792.83 1534.38 1790.31 1534.38 M1786.81 1532.89 Q1784.55 1532.33 1783.28 1530.79 Q1782.03 1529.24 1782.03 1527.02 Q1782.03 1523.91 1784.24 1522.1 Q1786.46 1520.3 1790.31 1520.3 Q1794.19 1520.3 1796.39 1522.1 Q1798.6 1523.91 1798.6 1527.02 Q1798.6 1529.24 1797.33 1530.79 Q1796.08 1532.33 1793.84 1532.89 Q1796.37 1533.48 1797.78 1535.19 Q1799.2 1536.91 1799.2 1539.4 Q1799.2 1543.16 1796.89 1545.18 Q1794.6 1547.19 1790.31 1547.19 Q1786.03 1547.19 1783.72 1545.18 Q1781.43 1543.16 1781.43 1539.4 Q1781.43 1536.91 1782.85 1535.19 Q1784.27 1533.48 1786.81 1532.89 M1785.52 1527.35 Q1785.52 1529.36 1786.77 1530.49 Q1788.04 1531.62 1790.31 1531.62 Q1792.57 1531.62 1793.84 1530.49 Q1795.12 1529.36 1795.12 1527.35 Q1795.12 1525.33 1793.84 1524.21 Q1792.57 1523.08 1790.31 1523.08 Q1788.04 1523.08 1786.77 1524.21 Q1785.52 1525.33 1785.52 1527.35 Z" fill="#000000" fill-rule="nonzero" fill-opacity="1" /><path clip-path="url(#clip390)" d="M1812.45 1519.67 L1812.45 1551.38 L1805.09 1551.38 L1805.09 1548.89 L1809.24 1548.89 L1809.24 1522.16 L1805.09 1522.16 L1805.09 1519.67 L1812.45 1519.67 Z" fill="#000000" fill-rule="nonzero" fill-opacity="1" /><path clip-path="url(#clip390)" d="M1939.1 1519.52 L1939.1 1555.07 L1936.15 1555.07 L1936.15 1519.52 L1939.1 1519.52 Z" fill="#000000" fill-rule="nonzero" fill-opacity="1" /><path clip-path="url(#clip390)" d="M1966.51 1522.76 L1966.51 1526.46 Q1964.74 1524.81 1962.73 1524 Q1960.73 1523.18 1958.48 1523.18 Q1954.03 1523.18 1951.67 1525.91 Q1949.31 1528.62 1949.31 1533.75 Q1949.31 1538.88 1951.67 1541.6 Q1954.03 1544.31 1958.48 1544.31 Q1960.73 1544.31 1962.73 1543.49 Q1964.74 1542.68 1966.51 1541.03 L1966.51 1544.69 Q1964.67 1545.94 1962.61 1546.57 Q1960.56 1547.19 1958.27 1547.19 Q1952.38 1547.19 1949 1543.6 Q1945.61 1539.99 1945.61 1533.75 Q1945.61 1527.5 1949 1523.91 Q1952.38 1520.3 1958.27 1520.3 Q1960.59 1520.3 1962.64 1520.92 Q1964.71 1521.53 1966.51 1522.76 Z" fill="#000000" fill-rule="nonzero" fill-opacity="1" /><path clip-path="url(#clip390)" d="M1975.91 1519.52 L1975.91 1555.07 L1972.96 1555.07 L1972.96 1519.52 L1975.91 1519.52 Z" fill="#000000" fill-rule="nonzero" fill-opacity="1" /><path clip-path="url(#clip390)" d="M1997.68 1535.8 Q1997.8 1537.09 1998.89 1539.17 Q2000.18 1541.58 2002.61 1542.94 Q2004.99 1544.26 2007.56 1544.27 L2019.66 1544.27 L2019.66 1547.04 L2007.56 1547.04 Q2004.22 1547.04 2001.13 1545.32 Q1998.06 1543.6 1996.41 1540.54 Q1994.76 1537.49 1994.76 1534.24 Q1994.76 1531.03 1996.41 1527.97 Q1998.06 1524.92 2001.13 1523.18 Q2004.22 1521.44 2007.56 1521.44 L2019.66 1521.44 L2019.66 1524.21 L2007.56 1524.21 Q2004.99 1524.22 2002.61 1525.56 Q2000.2 1526.93 1998.89 1529.33 Q1997.78 1531.41 1997.63 1533.02 L2019.66 1533.02 L2019.66 1535.8 L1997.68 1535.8 Z" fill="#000000" fill-rule="nonzero" fill-opacity="1" /><path clip-path="url(#clip390)" d="M2045.02 1519.71 Q2042.7 1523.7 2041.57 1527.61 Q2040.44 1531.51 2040.44 1535.52 Q2040.44 1539.54 2041.57 1543.48 Q2042.71 1547.4 2045.02 1551.38 L2042.24 1551.38 Q2039.64 1547.3 2038.34 1543.35 Q2037.05 1539.41 2037.05 1535.52 Q2037.05 1531.65 2038.34 1527.73 Q2039.62 1523.81 2042.24 1519.71 L2045.02 1519.71 Z" fill="#000000" fill-rule="nonzero" fill-opacity="1" /><path clip-path="url(#clip390)" d="M2054.69 1543.74 L2066.93 1543.74 L2066.93 1546.69 L2050.47 1546.69 L2050.47 1543.74 Q2052.47 1541.67 2055.91 1538.2 Q2059.36 1534.71 2060.25 1533.7 Q2061.93 1531.81 2062.59 1530.51 Q2063.27 1529.19 2063.27 1527.92 Q2063.27 1525.85 2061.81 1524.55 Q2060.37 1523.25 2058.04 1523.25 Q2056.39 1523.25 2054.55 1523.82 Q2052.73 1524.4 2050.65 1525.56 L2050.65 1522.02 Q2052.76 1521.17 2054.6 1520.73 Q2056.45 1520.3 2057.97 1520.3 Q2062 1520.3 2064.4 1522.31 Q2066.79 1524.33 2066.79 1527.69 Q2066.79 1529.29 2066.18 1530.73 Q2065.59 1532.16 2064.01 1534.1 Q2063.58 1534.6 2061.25 1537.02 Q2058.93 1539.41 2054.69 1543.74 Z" fill="#000000" fill-rule="nonzero" fill-opacity="1" /><path clip-path="url(#clip390)" d="M2074.29 1542.28 L2077.96 1542.28 L2077.96 1546.69 L2074.29 1546.69 L2074.29 1542.28 Z" fill="#000000" fill-rule="nonzero" fill-opacity="1" /><path clip-path="url(#clip390)" d="M2088.61 1543.74 L2100.85 1543.74 L2100.85 1546.69 L2084.4 1546.69 L2084.4 1543.74 Q2086.39 1541.67 2089.83 1538.2 Q2093.29 1534.71 2094.17 1533.7 Q2095.85 1531.81 2096.51 1530.51 Q2097.19 1529.19 2097.19 1527.92 Q2097.19 1525.85 2095.73 1524.55 Q2094.29 1523.25 2091.97 1523.25 Q2090.32 1523.25 2088.48 1523.82 Q2086.65 1524.4 2084.57 1525.56 L2084.57 1522.02 Q2086.69 1521.17 2088.53 1520.73 Q2090.37 1520.3 2091.9 1520.3 Q2095.92 1520.3 2098.32 1522.31 Q2100.72 1524.33 2100.72 1527.69 Q2100.72 1529.29 2100.11 1530.73 Q2099.52 1532.16 2097.94 1534.1 Q2097.5 1534.6 2095.18 1537.02 Q2092.85 1539.41 2088.61 1543.74 Z" fill="#000000" fill-rule="nonzero" fill-opacity="1" /><path clip-path="url(#clip390)" d="M2115.72 1534.38 Q2113.22 1534.38 2111.77 1535.72 Q2110.35 1537.05 2110.35 1539.4 Q2110.35 1541.74 2111.77 1543.08 Q2113.22 1544.41 2115.72 1544.41 Q2118.22 1544.41 2119.66 1543.08 Q2121.1 1541.72 2121.1 1539.4 Q2121.1 1537.05 2119.66 1535.72 Q2118.23 1534.38 2115.72 1534.38 M2112.21 1532.89 Q2109.95 1532.33 2108.68 1530.79 Q2107.43 1529.24 2107.43 1527.02 Q2107.43 1523.91 2109.64 1522.1 Q2111.86 1520.3 2115.72 1520.3 Q2119.59 1520.3 2121.79 1522.1 Q2124 1523.91 2124 1527.02 Q2124 1529.24 2122.73 1530.79 Q2121.48 1532.33 2119.24 1532.89 Q2121.77 1533.48 2123.18 1535.19 Q2124.6 1536.91 2124.6 1539.4 Q2124.6 1543.16 2122.3 1545.18 Q2120 1547.19 2115.72 1547.19 Q2111.43 1547.19 2109.12 1545.18 Q2106.83 1543.16 2106.83 1539.4 Q2106.83 1536.91 2108.25 1535.19 Q2109.67 1533.48 2112.21 1532.89 M2110.92 1527.35 Q2110.92 1529.36 2112.17 1530.49 Q2113.44 1531.62 2115.72 1531.62 Q2117.97 1531.62 2119.24 1530.49 Q2120.52 1529.36 2120.52 1527.35 Q2120.52 1525.33 2119.24 1524.21 Q2117.97 1523.08 2115.72 1523.08 Q2113.44 1523.08 2112.17 1524.21 Q2110.92 1525.33 2110.92 1527.35 Z" fill="#000000" fill-rule="nonzero" fill-opacity="1" /><path clip-path="url(#clip390)" d="M2131.2 1542.28 L2134.86 1542.28 L2134.86 1545.26 L2132.02 1550.82 L2129.78 1550.82 L2131.2 1545.26 L2131.2 1542.28 Z" fill="#000000" fill-rule="nonzero" fill-opacity="1" /><path clip-path="url(#clip390)" d="M2145.16 1543.74 L2157.4 1543.74 L2157.4 1546.69 L2140.94 1546.69 L2140.94 1543.74 Q2142.94 1541.67 2146.38 1538.2 Q2149.83 1534.71 2150.72 1533.7 Q2152.4 1531.81 2153.06 1530.51 Q2153.74 1529.19 2153.74 1527.92 Q2153.74 1525.85 2152.28 1524.55 Q2150.84 1523.25 2148.51 1523.25 Q2146.86 1523.25 2145.02 1523.82 Q2143.2 1524.4 2141.11 1525.56 L2141.11 1522.02 Q2143.23 1521.17 2145.07 1520.73 Q2146.91 1520.3 2148.44 1520.3 Q2152.47 1520.3 2154.86 1522.31 Q2157.26 1524.33 2157.26 1527.69 Q2157.26 1529.29 2156.65 1530.73 Q2156.06 1532.16 2154.48 1534.1 Q2154.05 1534.6 2151.72 1537.02 Q2149.4 1539.41 2145.16 1543.74 Z" fill="#000000" fill-rule="nonzero" fill-opacity="1" /><path clip-path="url(#clip390)" d="M2164.76 1542.28 L2168.42 1542.28 L2168.42 1546.69 L2164.76 1546.69 L2164.76 1542.28 Z" fill="#000000" fill-rule="nonzero" fill-opacity="1" /><path clip-path="url(#clip390)" d="M2186.69 1532.71 Q2189.2 1533.25 2190.61 1534.95 Q2192.03 1536.65 2192.03 1539.15 Q2192.03 1542.99 2189.4 1545.09 Q2186.76 1547.19 2181.9 1547.19 Q2180.26 1547.19 2178.53 1546.86 Q2176.81 1546.55 2174.97 1545.91 L2174.97 1542.52 Q2176.43 1543.37 2178.16 1543.81 Q2179.9 1544.24 2181.79 1544.24 Q2185.09 1544.24 2186.81 1542.94 Q2188.55 1541.64 2188.55 1539.15 Q2188.55 1536.86 2186.93 1535.58 Q2185.33 1534.27 2182.47 1534.27 L2179.45 1534.27 L2179.45 1531.39 L2182.61 1531.39 Q2185.19 1531.39 2186.57 1530.37 Q2187.94 1529.33 2187.94 1527.38 Q2187.94 1525.39 2186.51 1524.33 Q2185.11 1523.25 2182.47 1523.25 Q2181.03 1523.25 2179.38 1523.56 Q2177.73 1523.88 2175.75 1524.54 L2175.75 1521.41 Q2177.75 1520.85 2179.48 1520.58 Q2181.24 1520.3 2182.78 1520.3 Q2186.77 1520.3 2189.1 1522.12 Q2191.43 1523.93 2191.43 1527.02 Q2191.43 1529.17 2190.19 1530.66 Q2188.96 1532.14 2186.69 1532.71 Z" fill="#000000" fill-rule="nonzero" fill-opacity="1" /><path clip-path="url(#clip390)" d="M2205.7 1519.67 L2205.7 1551.38 L2198.34 1551.38 L2198.34 1548.89 L2202.49 1548.89 L2202.49 1522.16 L2198.34 1522.16 L2198.34 1519.67 L2205.7 1519.67 Z" fill="#000000" fill-rule="nonzero" fill-opacity="1" /><polyline clip-path="url(#clip392)" style="stroke:#000000; stroke-linecap:round; stroke-linejoin:round; stroke-width:2; stroke-opacity:0.1; fill:none" points="170.857,1454.11 2352.76,1454.11 "/>
<polyline clip-path="url(#clip392)" style="stroke:#000000; stroke-linecap:round; stroke-linejoin:round; stroke-width:2; stroke-opacity:0.1; fill:none" points="170.857,1203.03 2352.76,1203.03 "/>
<polyline clip-path="url(#clip392)" style="stroke:#000000; stroke-linecap:round; stroke-linejoin:round; stroke-width:2; stroke-opacity:0.1; fill:none" points="170.857,951.946 2352.76,951.946 "/>
<polyline clip-path="url(#clip392)" style="stroke:#000000; stroke-linecap:round; stroke-linejoin:round; stroke-width:2; stroke-opacity:0.1; fill:none" points="170.857,700.863 2352.76,700.863 "/>
<polyline clip-path="url(#clip392)" style="stroke:#000000; stroke-linecap:round; stroke-linejoin:round; stroke-width:2; stroke-opacity:0.1; fill:none" points="170.857,449.78 2352.76,449.78 "/>
<polyline clip-path="url(#clip392)" style="stroke:#000000; stroke-linecap:round; stroke-linejoin:round; stroke-width:2; stroke-opacity:0.1; fill:none" points="170.857,198.697 2352.76,198.697 "/>
<polyline clip-path="url(#clip390)" style="stroke:#000000; stroke-linecap:round; stroke-linejoin:round; stroke-width:4; stroke-opacity:1; fill:none" points="170.857,1495.09 170.857,47.2441 "/>
<polyline clip-path="url(#clip390)" style="stroke:#000000; stroke-linecap:round; stroke-linejoin:round; stroke-width:4; stroke-opacity:1; fill:none" points="170.857,1454.11 189.755,1454.11 "/>
<polyline clip-path="url(#clip390)" style="stroke:#000000; stroke-linecap:round; stroke-linejoin:round; stroke-width:4; stroke-opacity:1; fill:none" points="170.857,1203.03 189.755,1203.03 "/>
<polyline clip-path="url(#clip390)" style="stroke:#000000; stroke-linecap:round; stroke-linejoin:round; stroke-width:4; stroke-opacity:1; fill:none" points="170.857,951.946 189.755,951.946 "/>
<polyline clip-path="url(#clip390)" style="stroke:#000000; stroke-linecap:round; stroke-linejoin:round; stroke-width:4; stroke-opacity:1; fill:none" points="170.857,700.863 189.755,700.863 "/>
<polyline clip-path="url(#clip390)" style="stroke:#000000; stroke-linecap:round; stroke-linejoin:round; stroke-width:4; stroke-opacity:1; fill:none" points="170.857,449.78 189.755,449.78 "/>
<polyline clip-path="url(#clip390)" style="stroke:#000000; stroke-linecap:round; stroke-linejoin:round; stroke-width:4; stroke-opacity:1; fill:none" points="170.857,198.697 189.755,198.697 "/>
<path clip-path="url(#clip390)" d="M122.913 1439.91 Q119.302 1439.91 117.473 1443.47 Q115.668 1447.02 115.668 1454.15 Q115.668 1461.25 117.473 1464.82 Q119.302 1468.36 122.913 1468.36 Q126.547 1468.36 128.353 1464.82 Q130.182 1461.25 130.182 1454.15 Q130.182 1447.02 128.353 1443.47 Q126.547 1439.91 122.913 1439.91 M122.913 1436.21 Q128.723 1436.21 131.779 1440.81 Q134.857 1445.4 134.857 1454.15 Q134.857 1462.87 131.779 1467.48 Q128.723 1472.06 122.913 1472.06 Q117.103 1472.06 114.024 1467.48 Q110.969 1462.87 110.969 1454.15 Q110.969 1445.4 114.024 1440.81 Q117.103 1436.21 122.913 1436.21 Z" fill="#000000" fill-rule="nonzero" fill-opacity="1" /><path clip-path="url(#clip390)" d="M82.7975 1185.75 L101.154 1185.75 L101.154 1189.68 L87.0799 1189.68 L87.0799 1198.16 Q88.0984 1197.81 89.1169 1197.65 Q90.1354 1197.46 91.1539 1197.46 Q96.941 1197.46 100.321 1200.63 Q103.7 1203.8 103.7 1209.22 Q103.7 1214.8 100.228 1217.9 Q96.7558 1220.98 90.4364 1220.98 Q88.2604 1220.98 85.9919 1220.61 Q83.7466 1220.24 81.3392 1219.5 L81.3392 1214.8 Q83.4225 1215.93 85.6447 1216.49 Q87.8669 1217.04 90.3438 1217.04 Q94.3484 1217.04 96.6863 1214.94 Q99.0243 1212.83 99.0243 1209.22 Q99.0243 1205.61 96.6863 1203.5 Q94.3484 1201.4 90.3438 1201.4 Q88.4688 1201.4 86.5938 1201.81 Q84.7419 1202.23 82.7975 1203.11 L82.7975 1185.75 Z" fill="#000000" fill-rule="nonzero" fill-opacity="1" /><path clip-path="url(#clip390)" d="M122.913 1188.83 Q119.302 1188.83 117.473 1192.39 Q115.668 1195.93 115.668 1203.06 Q115.668 1210.17 117.473 1213.73 Q119.302 1217.28 122.913 1217.28 Q126.547 1217.28 128.353 1213.73 Q130.182 1210.17 130.182 1203.06 Q130.182 1195.93 128.353 1192.39 Q126.547 1188.83 122.913 1188.83 M122.913 1185.12 Q128.723 1185.12 131.779 1189.73 Q134.857 1194.31 134.857 1203.06 Q134.857 1211.79 131.779 1216.4 Q128.723 1220.98 122.913 1220.98 Q117.103 1220.98 114.024 1216.4 Q110.969 1211.79 110.969 1203.06 Q110.969 1194.31 114.024 1189.73 Q117.103 1185.12 122.913 1185.12 Z" fill="#000000" fill-rule="nonzero" fill-opacity="1" /><path clip-path="url(#clip390)" d="M53.3995 965.29 L61.0384 965.29 L61.0384 938.925 L52.7282 940.591 L52.7282 936.332 L60.9921 934.666 L65.668 934.666 L65.668 965.29 L73.3068 965.29 L73.3068 969.226 L53.3995 969.226 L53.3995 965.29 Z" fill="#000000" fill-rule="nonzero" fill-opacity="1" /><path clip-path="url(#clip390)" d="M92.7512 937.744 Q89.1401 937.744 87.3114 941.309 Q85.5058 944.851 85.5058 951.98 Q85.5058 959.087 87.3114 962.652 Q89.1401 966.193 92.7512 966.193 Q96.3854 966.193 98.1909 962.652 Q100.02 959.087 100.02 951.98 Q100.02 944.851 98.1909 941.309 Q96.3854 937.744 92.7512 937.744 M92.7512 934.041 Q98.5613 934.041 101.617 938.647 Q104.696 943.23 104.696 951.98 Q104.696 960.707 101.617 965.314 Q98.5613 969.897 92.7512 969.897 Q86.941 969.897 83.8623 965.314 Q80.8068 960.707 80.8068 951.98 Q80.8068 943.23 83.8623 938.647 Q86.941 934.041 92.7512 934.041 Z" fill="#000000" fill-rule="nonzero" fill-opacity="1" /><path clip-path="url(#clip390)" d="M122.913 937.744 Q119.302 937.744 117.473 941.309 Q115.668 944.851 115.668 951.98 Q115.668 959.087 117.473 962.652 Q119.302 966.193 122.913 966.193 Q126.547 966.193 128.353 962.652 Q130.182 959.087 130.182 951.98 Q130.182 944.851 128.353 941.309 Q126.547 937.744 122.913 937.744 M122.913 934.041 Q128.723 934.041 131.779 938.647 Q134.857 943.23 134.857 951.98 Q134.857 960.707 131.779 965.314 Q128.723 969.897 122.913 969.897 Q117.103 969.897 114.024 965.314 Q110.969 960.707 110.969 951.98 Q110.969 943.23 114.024 938.647 Q117.103 934.041 122.913 934.041 Z" fill="#000000" fill-rule="nonzero" fill-opacity="1" /><path clip-path="url(#clip390)" d="M53.3995 714.208 L61.0384 714.208 L61.0384 687.842 L52.7282 689.509 L52.7282 685.249 L60.9921 683.583 L65.668 683.583 L65.668 714.208 L73.3068 714.208 L73.3068 718.143 L53.3995 718.143 L53.3995 714.208 Z" fill="#000000" fill-rule="nonzero" fill-opacity="1" /><path clip-path="url(#clip390)" d="M82.7975 683.583 L101.154 683.583 L101.154 687.518 L87.0799 687.518 L87.0799 695.99 Q88.0984 695.643 89.1169 695.481 Q90.1354 695.296 91.1539 695.296 Q96.941 695.296 100.321 698.467 Q103.7 701.638 103.7 707.055 Q103.7 712.634 100.228 715.735 Q96.7558 718.814 90.4364 718.814 Q88.2604 718.814 85.9919 718.444 Q83.7466 718.073 81.3392 717.333 L81.3392 712.634 Q83.4225 713.768 85.6447 714.323 Q87.8669 714.879 90.3438 714.879 Q94.3484 714.879 96.6863 712.772 Q99.0243 710.666 99.0243 707.055 Q99.0243 703.444 96.6863 701.337 Q94.3484 699.231 90.3438 699.231 Q88.4688 699.231 86.5938 699.648 Q84.7419 700.064 82.7975 700.944 L82.7975 683.583 Z" fill="#000000" fill-rule="nonzero" fill-opacity="1" /><path clip-path="url(#clip390)" d="M122.913 686.661 Q119.302 686.661 117.473 690.226 Q115.668 693.768 115.668 700.898 Q115.668 708.004 117.473 711.569 Q119.302 715.11 122.913 715.11 Q126.547 715.11 128.353 711.569 Q130.182 708.004 130.182 700.898 Q130.182 693.768 128.353 690.226 Q126.547 686.661 122.913 686.661 M122.913 682.958 Q128.723 682.958 131.779 687.564 Q134.857 692.148 134.857 700.898 Q134.857 709.624 131.779 714.231 Q128.723 718.814 122.913 718.814 Q117.103 718.814 114.024 714.231 Q110.969 709.624 110.969 700.898 Q110.969 692.148 114.024 687.564 Q117.103 682.958 122.913 682.958 Z" fill="#000000" fill-rule="nonzero" fill-opacity="1" /><path clip-path="url(#clip390)" d="M56.6171 463.125 L72.9365 463.125 L72.9365 467.06 L50.9921 467.06 L50.9921 463.125 Q53.6541 460.37 58.2375 455.741 Q62.8439 451.088 64.0245 449.745 Q66.2698 447.222 67.1494 445.486 Q68.0522 443.727 68.0522 442.037 Q68.0522 439.282 66.1078 437.546 Q64.1865 435.81 61.0847 435.81 Q58.8856 435.81 56.4319 436.574 Q54.0014 437.338 51.2236 438.889 L51.2236 434.167 Q54.0477 433.032 56.5014 432.454 Q58.955 431.875 60.9921 431.875 Q66.3624 431.875 69.5568 434.56 Q72.7513 437.245 72.7513 441.736 Q72.7513 443.866 71.9411 445.787 Q71.1541 447.685 69.0476 450.278 Q68.4689 450.949 65.367 454.167 Q62.2652 457.361 56.6171 463.125 Z" fill="#000000" fill-rule="nonzero" fill-opacity="1" /><path clip-path="url(#clip390)" d="M92.7512 435.579 Q89.1401 435.579 87.3114 439.144 Q85.5058 442.685 85.5058 449.815 Q85.5058 456.921 87.3114 460.486 Q89.1401 464.028 92.7512 464.028 Q96.3854 464.028 98.1909 460.486 Q100.02 456.921 100.02 449.815 Q100.02 442.685 98.1909 439.144 Q96.3854 435.579 92.7512 435.579 M92.7512 431.875 Q98.5613 431.875 101.617 436.481 Q104.696 441.065 104.696 449.815 Q104.696 458.542 101.617 463.148 Q98.5613 467.731 92.7512 467.731 Q86.941 467.731 83.8623 463.148 Q80.8068 458.542 80.8068 449.815 Q80.8068 441.065 83.8623 436.481 Q86.941 431.875 92.7512 431.875 Z" fill="#000000" fill-rule="nonzero" fill-opacity="1" /><path clip-path="url(#clip390)" d="M122.913 435.579 Q119.302 435.579 117.473 439.144 Q115.668 442.685 115.668 449.815 Q115.668 456.921 117.473 460.486 Q119.302 464.028 122.913 464.028 Q126.547 464.028 128.353 460.486 Q130.182 456.921 130.182 449.815 Q130.182 442.685 128.353 439.144 Q126.547 435.579 122.913 435.579 M122.913 431.875 Q128.723 431.875 131.779 436.481 Q134.857 441.065 134.857 449.815 Q134.857 458.542 131.779 463.148 Q128.723 467.731 122.913 467.731 Q117.103 467.731 114.024 463.148 Q110.969 458.542 110.969 449.815 Q110.969 441.065 114.024 436.481 Q117.103 431.875 122.913 431.875 Z" fill="#000000" fill-rule="nonzero" fill-opacity="1" /><path clip-path="url(#clip390)" d="M56.6171 212.042 L72.9365 212.042 L72.9365 215.977 L50.9921 215.977 L50.9921 212.042 Q53.6541 209.287 58.2375 204.658 Q62.8439 200.005 64.0245 198.663 Q66.2698 196.139 67.1494 194.403 Q68.0522 192.644 68.0522 190.954 Q68.0522 188.2 66.1078 186.464 Q64.1865 184.727 61.0847 184.727 Q58.8856 184.727 56.4319 185.491 Q54.0014 186.255 51.2236 187.806 L51.2236 183.084 Q54.0477 181.95 56.5014 181.371 Q58.955 180.792 60.9921 180.792 Q66.3624 180.792 69.5568 183.477 Q72.7513 186.163 72.7513 190.653 Q72.7513 192.783 71.9411 194.704 Q71.1541 196.602 69.0476 199.195 Q68.4689 199.866 65.367 203.084 Q62.2652 206.278 56.6171 212.042 Z" fill="#000000" fill-rule="nonzero" fill-opacity="1" /><path clip-path="url(#clip390)" d="M82.7975 181.417 L101.154 181.417 L101.154 185.352 L87.0799 185.352 L87.0799 193.825 Q88.0984 193.477 89.1169 193.315 Q90.1354 193.13 91.1539 193.13 Q96.941 193.13 100.321 196.301 Q103.7 199.473 103.7 204.889 Q103.7 210.468 100.228 213.57 Q96.7558 216.649 90.4364 216.649 Q88.2604 216.649 85.9919 216.278 Q83.7466 215.908 81.3392 215.167 L81.3392 210.468 Q83.4225 211.602 85.6447 212.158 Q87.8669 212.713 90.3438 212.713 Q94.3484 212.713 96.6863 210.607 Q99.0243 208.5 99.0243 204.889 Q99.0243 201.278 96.6863 199.172 Q94.3484 197.065 90.3438 197.065 Q88.4688 197.065 86.5938 197.482 Q84.7419 197.899 82.7975 198.778 L82.7975 181.417 Z" fill="#000000" fill-rule="nonzero" fill-opacity="1" /><path clip-path="url(#clip390)" d="M122.913 184.496 Q119.302 184.496 117.473 188.061 Q115.668 191.602 115.668 198.732 Q115.668 205.838 117.473 209.403 Q119.302 212.945 122.913 212.945 Q126.547 212.945 128.353 209.403 Q130.182 205.838 130.182 198.732 Q130.182 191.602 128.353 188.061 Q126.547 184.496 122.913 184.496 M122.913 180.792 Q128.723 180.792 131.779 185.399 Q134.857 189.982 134.857 198.732 Q134.857 207.459 131.779 212.065 Q128.723 216.649 122.913 216.649 Q117.103 216.649 114.024 212.065 Q110.969 207.459 110.969 198.732 Q110.969 189.982 114.024 185.399 Q117.103 180.792 122.913 180.792 Z" fill="#000000" fill-rule="nonzero" fill-opacity="1" /><path clip-path="url(#clip392)" d="M290.866 1318.53 L290.866 1454.11 L614.513 1454.11 L614.513 1318.53 L290.866 1318.53 L290.866 1318.53  Z" fill="#e69f00" fill-rule="evenodd" fill-opacity="1"/>
<polyline clip-path="url(#clip392)" style="stroke:#000000; stroke-linecap:round; stroke-linejoin:round; stroke-width:4; stroke-opacity:1; fill:none" points="290.866,1318.53 290.866,1454.11 614.513,1454.11 614.513,1318.53 290.866,1318.53 "/>
<path clip-path="url(#clip392)" d="M695.424 88.2208 L695.424 1454.11 L1019.07 1454.11 L1019.07 88.2208 L695.424 88.2208 L695.424 88.2208  Z" fill="#e69f00" fill-rule="evenodd" fill-opacity="1"/>
<polyline clip-path="url(#clip392)" style="stroke:#000000; stroke-linecap:round; stroke-linejoin:round; stroke-width:4; stroke-opacity:1; fill:none" points="695.424,88.2208 695.424,1454.11 1019.07,1454.11 1019.07,88.2208 695.424,88.2208 "/>
<path clip-path="url(#clip392)" d="M1099.98 228.827 L1099.98 1454.11 L1423.63 1454.11 L1423.63 228.827 L1099.98 228.827 L1099.98 228.827  Z" fill="#e69f00" fill-rule="evenodd" fill-opacity="1"/>
<polyline clip-path="url(#clip392)" style="stroke:#000000; stroke-linecap:round; stroke-linejoin:round; stroke-width:4; stroke-opacity:1; fill:none" points="1099.98,228.827 1099.98,1454.11 1423.63,1454.11 1423.63,228.827 1099.98,228.827 "/>
<path clip-path="url(#clip392)" d="M1504.54 1303.46 L1504.54 1454.11 L1828.19 1454.11 L1828.19 1303.46 L1504.54 1303.46 L1504.54 1303.46  Z" fill="#e69f00" fill-rule="evenodd" fill-opacity="1"/>
<polyline clip-path="url(#clip392)" style="stroke:#000000; stroke-linecap:round; stroke-linejoin:round; stroke-width:4; stroke-opacity:1; fill:none" points="1504.54,1303.46 1504.54,1454.11 1828.19,1454.11 1828.19,1303.46 1504.54,1303.46 "/>
<path clip-path="url(#clip392)" d="M1909.1 1318.53 L1909.1 1454.11 L2232.75 1454.11 L2232.75 1318.53 L1909.1 1318.53 L1909.1 1318.53  Z" fill="#e69f00" fill-rule="evenodd" fill-opacity="1"/>
<polyline clip-path="url(#clip392)" style="stroke:#000000; stroke-linecap:round; stroke-linejoin:round; stroke-width:4; stroke-opacity:1; fill:none" points="1909.1,1318.53 1909.1,1454.11 2232.75,1454.11 2232.75,1318.53 1909.1,1318.53 "/>
<circle clip-path="url(#clip392)" style="fill:#e69f00; stroke:none; fill-opacity:0" cx="452.689" cy="1318.53" r="2"/>
<circle clip-path="url(#clip392)" style="fill:#e69f00; stroke:none; fill-opacity:0" cx="857.248" cy="88.2208" r="2"/>
<circle clip-path="url(#clip392)" style="fill:#e69f00; stroke:none; fill-opacity:0" cx="1261.81" cy="228.827" r="2"/>
<circle clip-path="url(#clip392)" style="fill:#e69f00; stroke:none; fill-opacity:0" cx="1666.37" cy="1303.46" r="2"/>
<circle clip-path="url(#clip392)" style="fill:#e69f00; stroke:none; fill-opacity:0" cx="2070.92" cy="1318.53" r="2"/>
</svg>
