<?xml version="1.0" encoding="utf-8"?>
<svg xmlns="http://www.w3.org/2000/svg" xmlns:xlink="http://www.w3.org/1999/xlink" width="600" height="400" viewBox="0 0 2400 1600">
<defs>
  <clipPath id="clip430">
    <rect x="0" y="0" width="2400" height="1600"/>
  </clipPath>
</defs>
<path clip-path="url(#clip430)" d="M0 1600 L2400 1600 L2400 0 L0 0  Z" fill="#ffffff" fill-rule="evenodd" fill-opacity="1"/>
<defs>
  <clipPath id="clip431">
    <rect x="480" y="0" width="1681" height="1600"/>
  </clipPath>
</defs>
<path clip-path="url(#clip430)" d="M147.478 1486.45 L2352.76 1486.45 L2352.76 47.2441 L147.478 47.2441  Z" fill="#ffffff" fill-rule="evenodd" fill-opacity="1"/>
<defs>
  <clipPath id="clip432">
    <rect x="147" y="47" width="2206" height="1440"/>
  </clipPath>
</defs>
<polyline clip-path="url(#clip432)" style="stroke:#000000; stroke-linecap:round; stroke-linejoin:round; stroke-width:2; stroke-opacity:0.1; fill:none" points="513.32,1486.45 513.32,47.2441 "/>
<polyline clip-path="url(#clip432)" style="stroke:#000000; stroke-linecap:round; stroke-linejoin:round; stroke-width:2; stroke-opacity:0.1; fill:none" points="881.33,1486.45 881.33,47.2441 "/>
<polyline clip-path="url(#clip432)" style="stroke:#000000; stroke-linecap:round; stroke-linejoin:round; stroke-width:2; stroke-opacity:0.1; fill:none" points="1249.34,1486.45 1249.34,47.2441 "/>
<polyline clip-path="url(#clip432)" style="stroke:#000000; stroke-linecap:round; stroke-linejoin:round; stroke-width:2; stroke-opacity:0.1; fill:none" points="1617.35,1486.45 1617.35,47.2441 "/>
<polyline clip-path="url(#clip432)" style="stroke:#000000; stroke-linecap:round; stroke-linejoin:round; stroke-width:2; stroke-opacity:0.1; fill:none" points="1985.36,1486.45 1985.36,47.2441 "/>
<polyline clip-path="url(#clip430)" style="stroke:#000000; stroke-linecap:round; stroke-linejoin:round; stroke-width:4; stroke-opacity:1; fill:none" points="147.478,1486.45 2352.76,1486.45 "/>
<polyline clip-path="url(#clip430)" style="stroke:#000000; stroke-linecap:round; stroke-linejoin:round; stroke-width:4; stroke-opacity:1; fill:none" points="513.32,1486.45 513.32,1467.55 "/>
<polyline clip-path="url(#clip430)" style="stroke:#000000; stroke-linecap:round; stroke-linejoin:round; stroke-width:4; stroke-opacity:1; fill:none" points="881.33,1486.45 881.33,1467.55 "/>
<polyline clip-path="url(#clip430)" style="stroke:#000000; stroke-linecap:round; stroke-linejoin:round; stroke-width:4; stroke-opacity:1; fill:none" points="1249.34,1486.45 1249.34,1467.55 "/>
<polyline clip-path="url(#clip430)" style="stroke:#000000; stroke-linecap:round; stroke-linejoin:round; stroke-width:4; stroke-opacity:1; fill:none" points="1617.35,1486.45 1617.35,1467.55 "/>
<polyline clip-path="url(#clip430)" style="stroke:#000000; stroke-linecap:round; stroke-linejoin:round; stroke-width:4; stroke-opacity:1; fill:none" points="1985.36,1486.45 1985.36,1467.55 "/>
<path clip-path="url(#clip430)" d="M483.262 1532.02 L512.938 1532.02 L512.938 1535.95 L483.262 1535.95 L483.262 1532.02 Z" fill="#000000" fill-rule="nonzero" fill-opacity="1" /><path clip-path="url(#clip430)" d="M527.058 1544.91 L543.378 1544.91 L543.378 1548.85 L521.433 1548.85 L521.433 1544.91 Q524.095 1542.16 528.679 1537.53 Q533.285 1532.88 534.466 1531.53 Q536.711 1529.01 537.591 1527.27 Q538.494 1525.51 538.494 1523.82 Q538.494 1521.07 536.549 1519.33 Q534.628 1517.6 531.526 1517.6 Q529.327 1517.6 526.873 1518.36 Q524.443 1519.13 521.665 1520.68 L521.665 1515.95 Q524.489 1514.82 526.943 1514.24 Q529.396 1513.66 531.433 1513.66 Q536.804 1513.66 539.998 1516.35 Q543.193 1519.03 543.193 1523.52 Q543.193 1525.65 542.382 1527.57 Q541.595 1529.47 539.489 1532.07 Q538.91 1532.74 535.808 1535.95 Q532.707 1539.15 527.058 1544.91 Z" fill="#000000" fill-rule="nonzero" fill-opacity="1" /><path clip-path="url(#clip430)" d="M851.087 1532.02 L880.763 1532.02 L880.763 1535.95 L851.087 1535.95 L851.087 1532.02 Z" fill="#000000" fill-rule="nonzero" fill-opacity="1" /><path clip-path="url(#clip430)" d="M891.666 1544.91 L899.305 1544.91 L899.305 1518.55 L890.995 1520.21 L890.995 1515.95 L899.258 1514.29 L903.934 1514.29 L903.934 1544.91 L911.573 1544.91 L911.573 1548.85 L891.666 1548.85 L891.666 1544.91 Z" fill="#000000" fill-rule="nonzero" fill-opacity="1" /><path clip-path="url(#clip430)" d="M1249.34 1517.37 Q1245.73 1517.37 1243.9 1520.93 Q1242.1 1524.47 1242.1 1531.6 Q1242.1 1538.71 1243.9 1542.27 Q1245.73 1545.82 1249.34 1545.82 Q1252.97 1545.82 1254.78 1542.27 Q1256.61 1538.71 1256.61 1531.6 Q1256.61 1524.47 1254.78 1520.93 Q1252.97 1517.37 1249.34 1517.37 M1249.34 1513.66 Q1255.15 1513.66 1258.21 1518.27 Q1261.29 1522.85 1261.29 1531.6 Q1261.29 1540.33 1258.21 1544.94 Q1255.15 1549.52 1249.34 1549.52 Q1243.53 1549.52 1240.45 1544.94 Q1237.4 1540.33 1237.4 1531.6 Q1237.4 1522.85 1240.45 1518.27 Q1243.53 1513.66 1249.34 1513.66 Z" fill="#000000" fill-rule="nonzero" fill-opacity="1" /><path clip-path="url(#clip430)" d="M1607.73 1544.91 L1615.37 1544.91 L1615.37 1518.55 L1607.06 1520.21 L1607.06 1515.95 L1615.33 1514.29 L1620 1514.29 L1620 1544.91 L1627.64 1544.91 L1627.64 1548.85 L1607.73 1548.85 L1607.73 1544.91 Z" fill="#000000" fill-rule="nonzero" fill-opacity="1" /><path clip-path="url(#clip430)" d="M1980.01 1544.91 L1996.33 1544.91 L1996.33 1548.85 L1974.39 1548.85 L1974.39 1544.91 Q1977.05 1542.16 1981.63 1537.53 Q1986.24 1532.88 1987.42 1531.53 Q1989.67 1529.01 1990.55 1527.27 Q1991.45 1525.51 1991.45 1523.82 Q1991.45 1521.07 1989.5 1519.33 Q1987.58 1517.6 1984.48 1517.6 Q1982.28 1517.6 1979.83 1518.36 Q1977.4 1519.13 1974.62 1520.68 L1974.62 1515.95 Q1977.44 1514.82 1979.9 1514.24 Q1982.35 1513.66 1984.39 1513.66 Q1989.76 1513.66 1992.95 1516.35 Q1996.15 1519.03 1996.15 1523.52 Q1996.15 1525.65 1995.34 1527.57 Q1994.55 1529.47 1992.44 1532.07 Q1991.87 1532.74 1988.76 1535.95 Q1985.66 1539.15 1980.01 1544.91 Z" fill="#000000" fill-rule="nonzero" fill-opacity="1" /><polyline clip-path="url(#clip432)" style="stroke:#000000; stroke-linecap:round; stroke-linejoin:round; stroke-width:2; stroke-opacity:0.1; fill:none" points="147.478,1168.73 2352.76,1168.73 "/>
<polyline clip-path="url(#clip432)" style="stroke:#000000; stroke-linecap:round; stroke-linejoin:round; stroke-width:2; stroke-opacity:0.1; fill:none" points="147.478,821.234 2352.76,821.234 "/>
<polyline clip-path="url(#clip432)" style="stroke:#000000; stroke-linecap:round; stroke-linejoin:round; stroke-width:2; stroke-opacity:0.1; fill:none" points="147.478,473.732 2352.76,473.732 "/>
<polyline clip-path="url(#clip432)" style="stroke:#000000; stroke-linecap:round; stroke-linejoin:round; stroke-width:2; stroke-opacity:0.1; fill:none" points="147.478,126.231 2352.76,126.231 "/>
<polyline clip-path="url(#clip430)" style="stroke:#000000; stroke-linecap:round; stroke-linejoin:round; stroke-width:4; stroke-opacity:1; fill:none" points="147.478,1486.45 147.478,47.2441 "/>
<polyline clip-path="url(#clip430)" style="stroke:#000000; stroke-linecap:round; stroke-linejoin:round; stroke-width:4; stroke-opacity:1; fill:none" points="147.478,1168.73 166.376,1168.73 "/>
<polyline clip-path="url(#clip430)" style="stroke:#000000; stroke-linecap:round; stroke-linejoin:round; stroke-width:4; stroke-opacity:1; fill:none" points="147.478,821.234 166.376,821.234 "/>
<polyline clip-path="url(#clip430)" style="stroke:#000000; stroke-linecap:round; stroke-linejoin:round; stroke-width:4; stroke-opacity:1; fill:none" points="147.478,473.732 166.376,473.732 "/>
<polyline clip-path="url(#clip430)" style="stroke:#000000; stroke-linecap:round; stroke-linejoin:round; stroke-width:4; stroke-opacity:1; fill:none" points="147.478,126.231 166.376,126.231 "/>
<path clip-path="url(#clip430)" d="M50.9921 1169.19 L80.6679 1169.19 L80.6679 1173.12 L50.9921 1173.12 L50.9921 1169.19 Z" fill="#000000" fill-rule="nonzero" fill-opacity="1" /><path clip-path="url(#clip430)" d="M91.5706 1182.08 L99.2095 1182.08 L99.2095 1155.71 L90.8993 1157.38 L90.8993 1153.12 L99.1632 1151.45 L103.839 1151.45 L103.839 1182.08 L111.478 1182.08 L111.478 1186.01 L91.5706 1186.01 L91.5706 1182.08 Z" fill="#000000" fill-rule="nonzero" fill-opacity="1" /><path clip-path="url(#clip430)" d="M99.5335 807.032 Q95.9224 807.032 94.0937 810.597 Q92.2882 814.139 92.2882 821.268 Q92.2882 828.375 94.0937 831.94 Q95.9224 835.481 99.5335 835.481 Q103.168 835.481 104.973 831.94 Q106.802 828.375 106.802 821.268 Q106.802 814.139 104.973 810.597 Q103.168 807.032 99.5335 807.032 M99.5335 803.329 Q105.344 803.329 108.399 807.935 Q111.478 812.518 111.478 821.268 Q111.478 829.995 108.399 834.602 Q105.344 839.185 99.5335 839.185 Q93.7234 839.185 90.6447 834.602 Q87.5892 829.995 87.5892 821.268 Q87.5892 812.518 90.6447 807.935 Q93.7234 803.329 99.5335 803.329 Z" fill="#000000" fill-rule="nonzero" fill-opacity="1" /><path clip-path="url(#clip430)" d="M91.5706 487.077 L99.2095 487.077 L99.2095 460.712 L90.8993 462.378 L90.8993 458.119 L99.1632 456.452 L103.839 456.452 L103.839 487.077 L111.478 487.077 L111.478 491.012 L91.5706 491.012 L91.5706 487.077 Z" fill="#000000" fill-rule="nonzero" fill-opacity="1" /><path clip-path="url(#clip430)" d="M95.1586 139.576 L111.478 139.576 L111.478 143.511 L89.5336 143.511 L89.5336 139.576 Q92.1956 136.821 96.7789 132.192 Q101.385 127.539 102.566 126.196 Q104.811 123.673 105.691 121.937 Q106.594 120.178 106.594 118.488 Q106.594 115.733 104.649 113.997 Q102.728 112.261 99.6261 112.261 Q97.4271 112.261 94.9734 113.025 Q92.5428 113.789 89.7651 115.34 L89.7651 110.618 Q92.5891 109.483 95.0428 108.905 Q97.4965 108.326 99.5335 108.326 Q104.904 108.326 108.098 111.011 Q111.293 113.696 111.293 118.187 Q111.293 120.317 110.483 122.238 Q109.696 124.136 107.589 126.729 Q107.01 127.4 103.909 130.618 Q100.807 133.812 95.1586 139.576 Z" fill="#000000" fill-rule="nonzero" fill-opacity="1" /><circle clip-path="url(#clip432)" cx="1983.54" cy="611.658" r="14.4" fill="#e69f00" fill-rule="evenodd" fill-opacity="1" stroke="#000000" stroke-opacity="1" stroke-width="3.2"/>
<circle clip-path="url(#clip432)" cx="1808.59" cy="595.881" r="14.4" fill="#e69f00" fill-rule="evenodd" fill-opacity="1" stroke="#000000" stroke-opacity="1" stroke-width="3.2"/>
<circle clip-path="url(#clip432)" cx="1539.74" cy="742.834" r="14.4" fill="#e69f00" fill-rule="evenodd" fill-opacity="1" stroke="#000000" stroke-opacity="1" stroke-width="3.2"/>
<circle clip-path="url(#clip432)" cx="1640.52" cy="340.169" r="14.4" fill="#e69f00" fill-rule="evenodd" fill-opacity="1" stroke="#000000" stroke-opacity="1" stroke-width="3.2"/>
<circle clip-path="url(#clip432)" cx="1966.39" cy="405.911" r="14.4" fill="#e69f00" fill-rule="evenodd" fill-opacity="1" stroke="#000000" stroke-opacity="1" stroke-width="3.2"/>
<circle clip-path="url(#clip432)" cx="383.096" cy="1077.72" r="14.4" fill="#e69f00" fill-rule="evenodd" fill-opacity="1" stroke="#000000" stroke-opacity="1" stroke-width="3.2"/>
<circle clip-path="url(#clip432)" cx="1715.33" cy="485.192" r="14.4" fill="#e69f00" fill-rule="evenodd" fill-opacity="1" stroke="#000000" stroke-opacity="1" stroke-width="3.2"/>
<circle clip-path="url(#clip432)" cx="2091" cy="342.248" r="14.4" fill="#e69f00" fill-rule="evenodd" fill-opacity="1" stroke="#000000" stroke-opacity="1" stroke-width="3.2"/>
<circle clip-path="url(#clip432)" cx="603.372" cy="1071.18" r="14.4" fill="#e69f00" fill-rule="evenodd" fill-opacity="1" stroke="#000000" stroke-opacity="1" stroke-width="3.2"/>
<circle clip-path="url(#clip432)" cx="1671.13" cy="440.814" r="14.4" fill="#e69f00" fill-rule="evenodd" fill-opacity="1" stroke="#000000" stroke-opacity="1" stroke-width="3.2"/>
<circle clip-path="url(#clip432)" cx="1124.57" cy="847.672" r="14.4" fill="#e69f00" fill-rule="evenodd" fill-opacity="1" stroke="#000000" stroke-opacity="1" stroke-width="3.2"/>
<circle clip-path="url(#clip432)" cx="1973.53" cy="607.593" r="14.4" fill="#e69f00" fill-rule="evenodd" fill-opacity="1" stroke="#000000" stroke-opacity="1" stroke-width="3.2"/>
<circle clip-path="url(#clip432)" cx="2281.58" cy="553.416" r="14.4" fill="#e69f00" fill-rule="evenodd" fill-opacity="1" stroke="#000000" stroke-opacity="1" stroke-width="3.2"/>
<circle clip-path="url(#clip432)" cx="1019.12" cy="799.32" r="14.4" fill="#e69f00" fill-rule="evenodd" fill-opacity="1" stroke="#000000" stroke-opacity="1" stroke-width="3.2"/>
<circle clip-path="url(#clip432)" cx="1508.66" cy="176.794" r="14.4" fill="#e69f00" fill-rule="evenodd" fill-opacity="1" stroke="#000000" stroke-opacity="1" stroke-width="3.2"/>
<circle clip-path="url(#clip432)" cx="1226.27" cy="871.397" r="14.4" fill="#e69f00" fill-rule="evenodd" fill-opacity="1" stroke="#000000" stroke-opacity="1" stroke-width="3.2"/>
<circle clip-path="url(#clip432)" cx="2177.2" cy="858.771" r="14.4" fill="#e69f00" fill-rule="evenodd" fill-opacity="1" stroke="#000000" stroke-opacity="1" stroke-width="3.2"/>
<circle clip-path="url(#clip432)" cx="951.882" cy="919.67" r="14.4" fill="#e69f00" fill-rule="evenodd" fill-opacity="1" stroke="#000000" stroke-opacity="1" stroke-width="3.2"/>
<circle clip-path="url(#clip432)" cx="181.292" cy="553.802" r="14.4" fill="#e69f00" fill-rule="evenodd" fill-opacity="1" stroke="#000000" stroke-opacity="1" stroke-width="3.2"/>
<circle clip-path="url(#clip432)" cx="1180.81" cy="1086.47" r="14.4" fill="#e69f00" fill-rule="evenodd" fill-opacity="1" stroke="#000000" stroke-opacity="1" stroke-width="3.2"/>
<circle clip-path="url(#clip432)" cx="485.029" cy="1026.35" r="14.4" fill="#e69f00" fill-rule="evenodd" fill-opacity="1" stroke="#000000" stroke-opacity="1" stroke-width="3.2"/>
<circle clip-path="url(#clip432)" cx="250.949" cy="739.97" r="14.4" fill="#e69f00" fill-rule="evenodd" fill-opacity="1" stroke="#000000" stroke-opacity="1" stroke-width="3.2"/>
<circle clip-path="url(#clip432)" cx="1963.99" cy="439.225" r="14.4" fill="#e69f00" fill-rule="evenodd" fill-opacity="1" stroke="#000000" stroke-opacity="1" stroke-width="3.2"/>
<circle clip-path="url(#clip432)" cx="2086.74" cy="690.261" r="14.4" fill="#e69f00" fill-rule="evenodd" fill-opacity="1" stroke="#000000" stroke-opacity="1" stroke-width="3.2"/>
<circle clip-path="url(#clip432)" cx="1734.28" cy="588.308" r="14.4" fill="#e69f00" fill-rule="evenodd" fill-opacity="1" stroke="#000000" stroke-opacity="1" stroke-width="3.2"/>
<circle clip-path="url(#clip432)" cx="635.832" cy="1094.8" r="14.4" fill="#e69f00" fill-rule="evenodd" fill-opacity="1" stroke="#000000" stroke-opacity="1" stroke-width="3.2"/>
<circle clip-path="url(#clip432)" cx="2288.27" cy="871.019" r="14.4" fill="#e69f00" fill-rule="evenodd" fill-opacity="1" stroke="#000000" stroke-opacity="1" stroke-width="3.2"/>
<circle clip-path="url(#clip432)" cx="1015.11" cy="610.246" r="14.4" fill="#e69f00" fill-rule="evenodd" fill-opacity="1" stroke="#000000" stroke-opacity="1" stroke-width="3.2"/>
<circle clip-path="url(#clip432)" cx="2350.29" cy="821.219" r="14.4" fill="#e69f00" fill-rule="evenodd" fill-opacity="1" stroke="#000000" stroke-opacity="1" stroke-width="3.2"/>
<circle clip-path="url(#clip432)" cx="212.388" cy="835.291" r="14.4" fill="#e69f00" fill-rule="evenodd" fill-opacity="1" stroke="#000000" stroke-opacity="1" stroke-width="3.2"/>
<circle clip-path="url(#clip432)" cx="1673.75" cy="445.438" r="14.4" fill="#e69f00" fill-rule="evenodd" fill-opacity="1" stroke="#000000" stroke-opacity="1" stroke-width="3.2"/>
<circle clip-path="url(#clip432)" cx="1071.29" cy="1107.63" r="14.4" fill="#e69f00" fill-rule="evenodd" fill-opacity="1" stroke="#000000" stroke-opacity="1" stroke-width="3.2"/>
<circle clip-path="url(#clip432)" cx="910.668" cy="1071.37" r="14.4" fill="#e69f00" fill-rule="evenodd" fill-opacity="1" stroke="#000000" stroke-opacity="1" stroke-width="3.2"/>
<circle clip-path="url(#clip432)" cx="2299.25" cy="930.309" r="14.4" fill="#e69f00" fill-rule="evenodd" fill-opacity="1" stroke="#000000" stroke-opacity="1" stroke-width="3.2"/>
<circle clip-path="url(#clip432)" cx="1193.24" cy="864.929" r="14.4" fill="#e69f00" fill-rule="evenodd" fill-opacity="1" stroke="#000000" stroke-opacity="1" stroke-width="3.2"/>
<circle clip-path="url(#clip432)" cx="1140.01" cy="1227.03" r="14.4" fill="#e69f00" fill-rule="evenodd" fill-opacity="1" stroke="#000000" stroke-opacity="1" stroke-width="3.2"/>
<circle clip-path="url(#clip432)" cx="814.614" cy="1291.46" r="14.4" fill="#e69f00" fill-rule="evenodd" fill-opacity="1" stroke="#000000" stroke-opacity="1" stroke-width="3.2"/>
<circle clip-path="url(#clip432)" cx="2093.63" cy="394.132" r="14.4" fill="#e69f00" fill-rule="evenodd" fill-opacity="1" stroke="#000000" stroke-opacity="1" stroke-width="3.2"/>
<circle clip-path="url(#clip432)" cx="370.185" cy="978.201" r="14.4" fill="#e69f00" fill-rule="evenodd" fill-opacity="1" stroke="#000000" stroke-opacity="1" stroke-width="3.2"/>
<circle clip-path="url(#clip432)" cx="951.037" cy="1151.55" r="14.4" fill="#e69f00" fill-rule="evenodd" fill-opacity="1" stroke="#000000" stroke-opacity="1" stroke-width="3.2"/>
<circle clip-path="url(#clip432)" cx="1735.72" cy="358.128" r="14.4" fill="#e69f00" fill-rule="evenodd" fill-opacity="1" stroke="#000000" stroke-opacity="1" stroke-width="3.2"/>
<circle clip-path="url(#clip432)" cx="295.872" cy="1026.55" r="14.4" fill="#e69f00" fill-rule="evenodd" fill-opacity="1" stroke="#000000" stroke-opacity="1" stroke-width="3.2"/>
<circle clip-path="url(#clip432)" cx="1576.09" cy="382.466" r="14.4" fill="#e69f00" fill-rule="evenodd" fill-opacity="1" stroke="#000000" stroke-opacity="1" stroke-width="3.2"/>
<circle clip-path="url(#clip432)" cx="2311.08" cy="678.712" r="14.4" fill="#e69f00" fill-rule="evenodd" fill-opacity="1" stroke="#000000" stroke-opacity="1" stroke-width="3.2"/>
<circle clip-path="url(#clip432)" cx="2178.25" cy="851.975" r="14.4" fill="#e69f00" fill-rule="evenodd" fill-opacity="1" stroke="#000000" stroke-opacity="1" stroke-width="3.2"/>
<circle clip-path="url(#clip432)" cx="344.833" cy="1152.49" r="14.4" fill="#e69f00" fill-rule="evenodd" fill-opacity="1" stroke="#000000" stroke-opacity="1" stroke-width="3.2"/>
<circle clip-path="url(#clip432)" cx="1481.9" cy="1103.1" r="14.4" fill="#e69f00" fill-rule="evenodd" fill-opacity="1" stroke="#000000" stroke-opacity="1" stroke-width="3.2"/>
<circle clip-path="url(#clip432)" cx="1081.76" cy="920.422" r="14.4" fill="#e69f00" fill-rule="evenodd" fill-opacity="1" stroke="#000000" stroke-opacity="1" stroke-width="3.2"/>
<circle clip-path="url(#clip432)" cx="324.999" cy="919.081" r="14.4" fill="#e69f00" fill-rule="evenodd" fill-opacity="1" stroke="#000000" stroke-opacity="1" stroke-width="3.2"/>
<circle clip-path="url(#clip432)" cx="1923.39" cy="661.046" r="14.4" fill="#e69f00" fill-rule="evenodd" fill-opacity="1" stroke="#000000" stroke-opacity="1" stroke-width="3.2"/>
<circle clip-path="url(#clip432)" cx="1497.81" cy="526.13" r="14.4" fill="#e69f00" fill-rule="evenodd" fill-opacity="1" stroke="#000000" stroke-opacity="1" stroke-width="3.2"/>
<circle clip-path="url(#clip432)" cx="316.498" cy="1077" r="14.4" fill="#e69f00" fill-rule="evenodd" fill-opacity="1" stroke="#000000" stroke-opacity="1" stroke-width="3.2"/>
<circle clip-path="url(#clip432)" cx="2198.52" cy="671.431" r="14.4" fill="#e69f00" fill-rule="evenodd" fill-opacity="1" stroke="#000000" stroke-opacity="1" stroke-width="3.2"/>
<circle clip-path="url(#clip432)" cx="1881.54" cy="228.661" r="14.4" fill="#e69f00" fill-rule="evenodd" fill-opacity="1" stroke="#000000" stroke-opacity="1" stroke-width="3.2"/>
<circle clip-path="url(#clip432)" cx="1733.45" cy="522.406" r="14.4" fill="#e69f00" fill-rule="evenodd" fill-opacity="1" stroke="#000000" stroke-opacity="1" stroke-width="3.2"/>
<circle clip-path="url(#clip432)" cx="635.087" cy="1090.78" r="14.4" fill="#e69f00" fill-rule="evenodd" fill-opacity="1" stroke="#000000" stroke-opacity="1" stroke-width="3.2"/>
<circle clip-path="url(#clip432)" cx="1442.83" cy="430.871" r="14.4" fill="#e69f00" fill-rule="evenodd" fill-opacity="1" stroke="#000000" stroke-opacity="1" stroke-width="3.2"/>
<circle clip-path="url(#clip432)" cx="1723.46" cy="274.605" r="14.4" fill="#e69f00" fill-rule="evenodd" fill-opacity="1" stroke="#000000" stroke-opacity="1" stroke-width="3.2"/>
<circle clip-path="url(#clip432)" cx="2293.3" cy="932.128" r="14.4" fill="#e69f00" fill-rule="evenodd" fill-opacity="1" stroke="#000000" stroke-opacity="1" stroke-width="3.2"/>
<circle clip-path="url(#clip432)" cx="915.274" cy="1005.75" r="14.4" fill="#e69f00" fill-rule="evenodd" fill-opacity="1" stroke="#000000" stroke-opacity="1" stroke-width="3.2"/>
<circle clip-path="url(#clip432)" cx="1508.12" cy="557.821" r="14.4" fill="#e69f00" fill-rule="evenodd" fill-opacity="1" stroke="#000000" stroke-opacity="1" stroke-width="3.2"/>
<circle clip-path="url(#clip432)" cx="1088.88" cy="1097.8" r="14.4" fill="#e69f00" fill-rule="evenodd" fill-opacity="1" stroke="#000000" stroke-opacity="1" stroke-width="3.2"/>
<circle clip-path="url(#clip432)" cx="1885.41" cy="238.168" r="14.4" fill="#e69f00" fill-rule="evenodd" fill-opacity="1" stroke="#000000" stroke-opacity="1" stroke-width="3.2"/>
<circle clip-path="url(#clip432)" cx="1986.94" cy="790.433" r="14.4" fill="#e69f00" fill-rule="evenodd" fill-opacity="1" stroke="#000000" stroke-opacity="1" stroke-width="3.2"/>
<circle clip-path="url(#clip432)" cx="1543.68" cy="418.822" r="14.4" fill="#e69f00" fill-rule="evenodd" fill-opacity="1" stroke="#000000" stroke-opacity="1" stroke-width="3.2"/>
<circle clip-path="url(#clip432)" cx="946.253" cy="1156.31" r="14.4" fill="#e69f00" fill-rule="evenodd" fill-opacity="1" stroke="#000000" stroke-opacity="1" stroke-width="3.2"/>
<circle clip-path="url(#clip432)" cx="246.45" cy="903.216" r="14.4" fill="#e69f00" fill-rule="evenodd" fill-opacity="1" stroke="#000000" stroke-opacity="1" stroke-width="3.2"/>
<circle clip-path="url(#clip432)" cx="1424.93" cy="815.096" r="14.4" fill="#e69f00" fill-rule="evenodd" fill-opacity="1" stroke="#000000" stroke-opacity="1" stroke-width="3.2"/>
<circle clip-path="url(#clip432)" cx="619.356" cy="1181.39" r="14.4" fill="#e69f00" fill-rule="evenodd" fill-opacity="1" stroke="#000000" stroke-opacity="1" stroke-width="3.2"/>
<circle clip-path="url(#clip432)" cx="2091.16" cy="523.04" r="14.4" fill="#e69f00" fill-rule="evenodd" fill-opacity="1" stroke="#000000" stroke-opacity="1" stroke-width="3.2"/>
<circle clip-path="url(#clip432)" cx="1244.79" cy="946.498" r="14.4" fill="#e69f00" fill-rule="evenodd" fill-opacity="1" stroke="#000000" stroke-opacity="1" stroke-width="3.2"/>
<circle clip-path="url(#clip432)" cx="2156.85" cy="510.823" r="14.4" fill="#e69f00" fill-rule="evenodd" fill-opacity="1" stroke="#000000" stroke-opacity="1" stroke-width="3.2"/>
<circle clip-path="url(#clip432)" cx="627.945" cy="904.143" r="14.4" fill="#e69f00" fill-rule="evenodd" fill-opacity="1" stroke="#000000" stroke-opacity="1" stroke-width="3.2"/>
<circle clip-path="url(#clip432)" cx="1791.8" cy="271.777" r="14.4" fill="#e69f00" fill-rule="evenodd" fill-opacity="1" stroke="#000000" stroke-opacity="1" stroke-width="3.2"/>
<circle clip-path="url(#clip432)" cx="1855.88" cy="724.198" r="14.4" fill="#e69f00" fill-rule="evenodd" fill-opacity="1" stroke="#000000" stroke-opacity="1" stroke-width="3.2"/>
<circle clip-path="url(#clip432)" cx="1838.6" cy="110.294" r="14.4" fill="#e69f00" fill-rule="evenodd" fill-opacity="1" stroke="#000000" stroke-opacity="1" stroke-width="3.2"/>
<circle clip-path="url(#clip432)" cx="1936.31" cy="389.406" r="14.4" fill="#e69f00" fill-rule="evenodd" fill-opacity="1" stroke="#000000" stroke-opacity="1" stroke-width="3.2"/>
<circle clip-path="url(#clip432)" cx="2002.99" cy="668.468" r="14.4" fill="#e69f00" fill-rule="evenodd" fill-opacity="1" stroke="#000000" stroke-opacity="1" stroke-width="3.2"/>
<circle clip-path="url(#clip432)" cx="1343.26" cy="673.497" r="14.4" fill="#e69f00" fill-rule="evenodd" fill-opacity="1" stroke="#000000" stroke-opacity="1" stroke-width="3.2"/>
<circle clip-path="url(#clip432)" cx="497.597" cy="1227.68" r="14.4" fill="#e69f00" fill-rule="evenodd" fill-opacity="1" stroke="#000000" stroke-opacity="1" stroke-width="3.2"/>
<circle clip-path="url(#clip432)" cx="1154.75" cy="1054.1" r="14.4" fill="#e69f00" fill-rule="evenodd" fill-opacity="1" stroke="#000000" stroke-opacity="1" stroke-width="3.2"/>
<circle clip-path="url(#clip432)" cx="2113.53" cy="677.696" r="14.4" fill="#e69f00" fill-rule="evenodd" fill-opacity="1" stroke="#000000" stroke-opacity="1" stroke-width="3.2"/>
<circle clip-path="url(#clip432)" cx="864.219" cy="1082.8" r="14.4" fill="#e69f00" fill-rule="evenodd" fill-opacity="1" stroke="#000000" stroke-opacity="1" stroke-width="3.2"/>
<circle clip-path="url(#clip432)" cx="446.824" cy="865.126" r="14.4" fill="#e69f00" fill-rule="evenodd" fill-opacity="1" stroke="#000000" stroke-opacity="1" stroke-width="3.2"/>
<circle clip-path="url(#clip432)" cx="1579.57" cy="467.073" r="14.4" fill="#e69f00" fill-rule="evenodd" fill-opacity="1" stroke="#000000" stroke-opacity="1" stroke-width="3.2"/>
<circle clip-path="url(#clip432)" cx="914.898" cy="1062.58" r="14.4" fill="#e69f00" fill-rule="evenodd" fill-opacity="1" stroke="#000000" stroke-opacity="1" stroke-width="3.2"/>
<circle clip-path="url(#clip432)" cx="984.051" cy="662.258" r="14.4" fill="#e69f00" fill-rule="evenodd" fill-opacity="1" stroke="#000000" stroke-opacity="1" stroke-width="3.2"/>
<circle clip-path="url(#clip432)" cx="1370.35" cy="418.99" r="14.4" fill="#e69f00" fill-rule="evenodd" fill-opacity="1" stroke="#000000" stroke-opacity="1" stroke-width="3.2"/>
<circle clip-path="url(#clip432)" cx="1041.81" cy="1049.68" r="14.4" fill="#e69f00" fill-rule="evenodd" fill-opacity="1" stroke="#000000" stroke-opacity="1" stroke-width="3.2"/>
<circle clip-path="url(#clip432)" cx="891.246" cy="1229.84" r="14.4" fill="#e69f00" fill-rule="evenodd" fill-opacity="1" stroke="#000000" stroke-opacity="1" stroke-width="3.2"/>
<circle clip-path="url(#clip432)" cx="1497.43" cy="490.036" r="14.4" fill="#e69f00" fill-rule="evenodd" fill-opacity="1" stroke="#000000" stroke-opacity="1" stroke-width="3.2"/>
<circle clip-path="url(#clip432)" cx="235.772" cy="1031.94" r="14.4" fill="#e69f00" fill-rule="evenodd" fill-opacity="1" stroke="#000000" stroke-opacity="1" stroke-width="3.2"/>
<circle clip-path="url(#clip432)" cx="371.076" cy="1096.86" r="14.4" fill="#e69f00" fill-rule="evenodd" fill-opacity="1" stroke="#000000" stroke-opacity="1" stroke-width="3.2"/>
<circle clip-path="url(#clip432)" cx="1445.73" cy="590.04" r="14.4" fill="#e69f00" fill-rule="evenodd" fill-opacity="1" stroke="#000000" stroke-opacity="1" stroke-width="3.2"/>
<circle clip-path="url(#clip432)" cx="1171.74" cy="705.684" r="14.4" fill="#e69f00" fill-rule="evenodd" fill-opacity="1" stroke="#000000" stroke-opacity="1" stroke-width="3.2"/>
<circle clip-path="url(#clip432)" cx="687.719" cy="1392.76" r="14.4" fill="#e69f00" fill-rule="evenodd" fill-opacity="1" stroke="#000000" stroke-opacity="1" stroke-width="3.2"/>
<circle clip-path="url(#clip432)" cx="1407.31" cy="793.879" r="14.4" fill="#e69f00" fill-rule="evenodd" fill-opacity="1" stroke="#000000" stroke-opacity="1" stroke-width="3.2"/>
<circle clip-path="url(#clip432)" cx="1522.54" cy="687.009" r="14.4" fill="#e69f00" fill-rule="evenodd" fill-opacity="1" stroke="#000000" stroke-opacity="1" stroke-width="3.2"/>
<circle clip-path="url(#clip432)" cx="491.285" cy="1173.06" r="14.4" fill="#e69f00" fill-rule="evenodd" fill-opacity="1" stroke="#000000" stroke-opacity="1" stroke-width="3.2"/>
<circle clip-path="url(#clip432)" cx="1074.37" cy="996.413" r="14.4" fill="#e69f00" fill-rule="evenodd" fill-opacity="1" stroke="#000000" stroke-opacity="1" stroke-width="3.2"/>
<circle clip-path="url(#clip432)" cx="1488.57" cy="712.198" r="14.4" fill="#e69f00" fill-rule="evenodd" fill-opacity="1" stroke="#000000" stroke-opacity="1" stroke-width="3.2"/>
<circle clip-path="url(#clip432)" cx="1270.75" cy="953.873" r="14.4" fill="#e69f00" fill-rule="evenodd" fill-opacity="1" stroke="#000000" stroke-opacity="1" stroke-width="3.2"/>
<circle clip-path="url(#clip432)" cx="964.531" cy="1102.02" r="14.4" fill="#e69f00" fill-rule="evenodd" fill-opacity="1" stroke="#000000" stroke-opacity="1" stroke-width="3.2"/>
<circle clip-path="url(#clip432)" cx="346.338" cy="861.742" r="14.4" fill="#e69f00" fill-rule="evenodd" fill-opacity="1" stroke="#000000" stroke-opacity="1" stroke-width="3.2"/>
<circle clip-path="url(#clip432)" cx="1493.43" cy="803.021" r="14.4" fill="#e69f00" fill-rule="evenodd" fill-opacity="1" stroke="#000000" stroke-opacity="1" stroke-width="3.2"/>
<circle clip-path="url(#clip432)" cx="1112.36" cy="798.828" r="14.4" fill="#e69f00" fill-rule="evenodd" fill-opacity="1" stroke="#000000" stroke-opacity="1" stroke-width="3.2"/>
<circle clip-path="url(#clip432)" cx="831.311" cy="1136.49" r="14.4" fill="#e69f00" fill-rule="evenodd" fill-opacity="1" stroke="#000000" stroke-opacity="1" stroke-width="3.2"/>
<circle clip-path="url(#clip432)" cx="734.069" cy="1153.65" r="14.4" fill="#e69f00" fill-rule="evenodd" fill-opacity="1" stroke="#000000" stroke-opacity="1" stroke-width="3.2"/>
<circle clip-path="url(#clip432)" cx="2191.06" cy="467.58" r="14.4" fill="#e69f00" fill-rule="evenodd" fill-opacity="1" stroke="#000000" stroke-opacity="1" stroke-width="3.2"/>
<circle clip-path="url(#clip432)" cx="1984.77" cy="674.493" r="14.4" fill="#e69f00" fill-rule="evenodd" fill-opacity="1" stroke="#000000" stroke-opacity="1" stroke-width="3.2"/>
<circle clip-path="url(#clip432)" cx="1740.97" cy="422.405" r="14.4" fill="#e69f00" fill-rule="evenodd" fill-opacity="1" stroke="#000000" stroke-opacity="1" stroke-width="3.2"/>
<circle clip-path="url(#clip432)" cx="1515.35" cy="742.413" r="14.4" fill="#e69f00" fill-rule="evenodd" fill-opacity="1" stroke="#000000" stroke-opacity="1" stroke-width="3.2"/>
<circle clip-path="url(#clip432)" cx="1456.31" cy="430.636" r="14.4" fill="#e69f00" fill-rule="evenodd" fill-opacity="1" stroke="#000000" stroke-opacity="1" stroke-width="3.2"/>
<circle clip-path="url(#clip432)" cx="1841.27" cy="433.088" r="14.4" fill="#e69f00" fill-rule="evenodd" fill-opacity="1" stroke="#000000" stroke-opacity="1" stroke-width="3.2"/>
<circle clip-path="url(#clip432)" cx="2172.26" cy="496.023" r="14.4" fill="#e69f00" fill-rule="evenodd" fill-opacity="1" stroke="#000000" stroke-opacity="1" stroke-width="3.2"/>
<circle clip-path="url(#clip432)" cx="358.782" cy="1061.57" r="14.4" fill="#e69f00" fill-rule="evenodd" fill-opacity="1" stroke="#000000" stroke-opacity="1" stroke-width="3.2"/>
<circle clip-path="url(#clip432)" cx="1888.6" cy="435.035" r="14.4" fill="#e69f00" fill-rule="evenodd" fill-opacity="1" stroke="#000000" stroke-opacity="1" stroke-width="3.2"/>
<circle clip-path="url(#clip432)" cx="764.272" cy="1090.12" r="14.4" fill="#e69f00" fill-rule="evenodd" fill-opacity="1" stroke="#000000" stroke-opacity="1" stroke-width="3.2"/>
<circle clip-path="url(#clip432)" cx="503.856" cy="713.764" r="14.4" fill="#e69f00" fill-rule="evenodd" fill-opacity="1" stroke="#000000" stroke-opacity="1" stroke-width="3.2"/>
<circle clip-path="url(#clip432)" cx="1410.89" cy="355.82" r="14.4" fill="#e69f00" fill-rule="evenodd" fill-opacity="1" stroke="#000000" stroke-opacity="1" stroke-width="3.2"/>
<circle clip-path="url(#clip432)" cx="2223.39" cy="477.346" r="14.4" fill="#e69f00" fill-rule="evenodd" fill-opacity="1" stroke="#000000" stroke-opacity="1" stroke-width="3.2"/>
<circle clip-path="url(#clip432)" cx="1510.35" cy="909.23" r="14.4" fill="#e69f00" fill-rule="evenodd" fill-opacity="1" stroke="#000000" stroke-opacity="1" stroke-width="3.2"/>
<circle clip-path="url(#clip432)" cx="2067.39" cy="641.101" r="14.4" fill="#e69f00" fill-rule="evenodd" fill-opacity="1" stroke="#000000" stroke-opacity="1" stroke-width="3.2"/>
<circle clip-path="url(#clip432)" cx="762.569" cy="858.926" r="14.4" fill="#e69f00" fill-rule="evenodd" fill-opacity="1" stroke="#000000" stroke-opacity="1" stroke-width="3.2"/>
<circle clip-path="url(#clip432)" cx="408.61" cy="1092.55" r="14.4" fill="#e69f00" fill-rule="evenodd" fill-opacity="1" stroke="#000000" stroke-opacity="1" stroke-width="3.2"/>
<circle clip-path="url(#clip432)" cx="2282.42" cy="332.359" r="14.4" fill="#e69f00" fill-rule="evenodd" fill-opacity="1" stroke="#000000" stroke-opacity="1" stroke-width="3.2"/>
<circle clip-path="url(#clip432)" cx="2243.75" cy="554.593" r="14.4" fill="#e69f00" fill-rule="evenodd" fill-opacity="1" stroke="#000000" stroke-opacity="1" stroke-width="3.2"/>
<circle clip-path="url(#clip432)" cx="415.564" cy="1183.83" r="14.4" fill="#e69f00" fill-rule="evenodd" fill-opacity="1" stroke="#000000" stroke-opacity="1" stroke-width="3.2"/>
<circle clip-path="url(#clip432)" cx="788.37" cy="988.43" r="14.4" fill="#e69f00" fill-rule="evenodd" fill-opacity="1" stroke="#000000" stroke-opacity="1" stroke-width="3.2"/>
<circle clip-path="url(#clip432)" cx="423.835" cy="1021.69" r="14.4" fill="#e69f00" fill-rule="evenodd" fill-opacity="1" stroke="#000000" stroke-opacity="1" stroke-width="3.2"/>
<circle clip-path="url(#clip432)" cx="916.917" cy="1133.03" r="14.4" fill="#e69f00" fill-rule="evenodd" fill-opacity="1" stroke="#000000" stroke-opacity="1" stroke-width="3.2"/>
<circle clip-path="url(#clip432)" cx="1411.2" cy="639.619" r="14.4" fill="#e69f00" fill-rule="evenodd" fill-opacity="1" stroke="#000000" stroke-opacity="1" stroke-width="3.2"/>
<circle clip-path="url(#clip432)" cx="350.399" cy="1103.82" r="14.4" fill="#e69f00" fill-rule="evenodd" fill-opacity="1" stroke="#000000" stroke-opacity="1" stroke-width="3.2"/>
<circle clip-path="url(#clip432)" cx="378.181" cy="986.635" r="14.4" fill="#e69f00" fill-rule="evenodd" fill-opacity="1" stroke="#000000" stroke-opacity="1" stroke-width="3.2"/>
<circle clip-path="url(#clip432)" cx="2207.67" cy="335.135" r="14.4" fill="#e69f00" fill-rule="evenodd" fill-opacity="1" stroke="#000000" stroke-opacity="1" stroke-width="3.2"/>
<circle clip-path="url(#clip432)" cx="2223.45" cy="853.493" r="14.4" fill="#e69f00" fill-rule="evenodd" fill-opacity="1" stroke="#000000" stroke-opacity="1" stroke-width="3.2"/>
<circle clip-path="url(#clip432)" cx="1415.89" cy="596.434" r="14.4" fill="#e69f00" fill-rule="evenodd" fill-opacity="1" stroke="#000000" stroke-opacity="1" stroke-width="3.2"/>
<circle clip-path="url(#clip432)" cx="601.593" cy="1409.9" r="14.4" fill="#e69f00" fill-rule="evenodd" fill-opacity="1" stroke="#000000" stroke-opacity="1" stroke-width="3.2"/>
<circle clip-path="url(#clip432)" cx="614.883" cy="1185.67" r="14.4" fill="#e69f00" fill-rule="evenodd" fill-opacity="1" stroke="#000000" stroke-opacity="1" stroke-width="3.2"/>
<circle clip-path="url(#clip432)" cx="1967.58" cy="661.5" r="14.4" fill="#e69f00" fill-rule="evenodd" fill-opacity="1" stroke="#000000" stroke-opacity="1" stroke-width="3.2"/>
<circle clip-path="url(#clip432)" cx="2236.66" cy="703.647" r="14.4" fill="#e69f00" fill-rule="evenodd" fill-opacity="1" stroke="#000000" stroke-opacity="1" stroke-width="3.2"/>
<circle clip-path="url(#clip432)" cx="1119.86" cy="774.207" r="14.4" fill="#e69f00" fill-rule="evenodd" fill-opacity="1" stroke="#000000" stroke-opacity="1" stroke-width="3.2"/>
<circle clip-path="url(#clip432)" cx="911.707" cy="1292.95" r="14.4" fill="#e69f00" fill-rule="evenodd" fill-opacity="1" stroke="#000000" stroke-opacity="1" stroke-width="3.2"/>
<circle clip-path="url(#clip432)" cx="473.228" cy="988.156" r="14.4" fill="#e69f00" fill-rule="evenodd" fill-opacity="1" stroke="#000000" stroke-opacity="1" stroke-width="3.2"/>
<circle clip-path="url(#clip432)" cx="2055.02" cy="151.961" r="14.4" fill="#e69f00" fill-rule="evenodd" fill-opacity="1" stroke="#000000" stroke-opacity="1" stroke-width="3.2"/>
<circle clip-path="url(#clip432)" cx="1219.09" cy="872.945" r="14.4" fill="#e69f00" fill-rule="evenodd" fill-opacity="1" stroke="#000000" stroke-opacity="1" stroke-width="3.2"/>
<circle clip-path="url(#clip432)" cx="325.639" cy="1000.27" r="14.4" fill="#e69f00" fill-rule="evenodd" fill-opacity="1" stroke="#000000" stroke-opacity="1" stroke-width="3.2"/>
<circle clip-path="url(#clip432)" cx="485.41" cy="1252.31" r="14.4" fill="#e69f00" fill-rule="evenodd" fill-opacity="1" stroke="#000000" stroke-opacity="1" stroke-width="3.2"/>
<circle clip-path="url(#clip432)" cx="260.511" cy="1125.41" r="14.4" fill="#e69f00" fill-rule="evenodd" fill-opacity="1" stroke="#000000" stroke-opacity="1" stroke-width="3.2"/>
<circle clip-path="url(#clip432)" cx="1836.19" cy="404.854" r="14.4" fill="#e69f00" fill-rule="evenodd" fill-opacity="1" stroke="#000000" stroke-opacity="1" stroke-width="3.2"/>
<circle clip-path="url(#clip432)" cx="1577.93" cy="532.92" r="14.4" fill="#e69f00" fill-rule="evenodd" fill-opacity="1" stroke="#000000" stroke-opacity="1" stroke-width="3.2"/>
<circle clip-path="url(#clip432)" cx="870.716" cy="868.237" r="14.4" fill="#e69f00" fill-rule="evenodd" fill-opacity="1" stroke="#000000" stroke-opacity="1" stroke-width="3.2"/>
<circle clip-path="url(#clip432)" cx="696.2" cy="1128.6" r="14.4" fill="#e69f00" fill-rule="evenodd" fill-opacity="1" stroke="#000000" stroke-opacity="1" stroke-width="3.2"/>
<circle clip-path="url(#clip432)" cx="2352.76" cy="696.184" r="14.4" fill="#e69f00" fill-rule="evenodd" fill-opacity="1" stroke="#000000" stroke-opacity="1" stroke-width="3.2"/>
<circle clip-path="url(#clip432)" cx="2103.68" cy="826.841" r="14.4" fill="#e69f00" fill-rule="evenodd" fill-opacity="1" stroke="#000000" stroke-opacity="1" stroke-width="3.2"/>
<circle clip-path="url(#clip432)" cx="266.446" cy="936.69" r="14.4" fill="#e69f00" fill-rule="evenodd" fill-opacity="1" stroke="#000000" stroke-opacity="1" stroke-width="3.2"/>
<circle clip-path="url(#clip432)" cx="1443.07" cy="627.222" r="14.4" fill="#e69f00" fill-rule="evenodd" fill-opacity="1" stroke="#000000" stroke-opacity="1" stroke-width="3.2"/>
<circle clip-path="url(#clip432)" cx="2073.06" cy="633.308" r="14.4" fill="#e69f00" fill-rule="evenodd" fill-opacity="1" stroke="#000000" stroke-opacity="1" stroke-width="3.2"/>
<circle clip-path="url(#clip432)" cx="2300.76" cy="505.331" r="14.4" fill="#e69f00" fill-rule="evenodd" fill-opacity="1" stroke="#000000" stroke-opacity="1" stroke-width="3.2"/>
<circle clip-path="url(#clip432)" cx="509.011" cy="1187.39" r="14.4" fill="#e69f00" fill-rule="evenodd" fill-opacity="1" stroke="#000000" stroke-opacity="1" stroke-width="3.2"/>
<circle clip-path="url(#clip432)" cx="839.616" cy="1002.51" r="14.4" fill="#e69f00" fill-rule="evenodd" fill-opacity="1" stroke="#000000" stroke-opacity="1" stroke-width="3.2"/>
<circle clip-path="url(#clip432)" cx="455.224" cy="1061.84" r="14.4" fill="#e69f00" fill-rule="evenodd" fill-opacity="1" stroke="#000000" stroke-opacity="1" stroke-width="3.2"/>
<circle clip-path="url(#clip432)" cx="928.879" cy="1039.1" r="14.4" fill="#e69f00" fill-rule="evenodd" fill-opacity="1" stroke="#000000" stroke-opacity="1" stroke-width="3.2"/>
<circle clip-path="url(#clip432)" cx="1490.77" cy="425.191" r="14.4" fill="#e69f00" fill-rule="evenodd" fill-opacity="1" stroke="#000000" stroke-opacity="1" stroke-width="3.2"/>
<circle clip-path="url(#clip432)" cx="962.935" cy="1010.72" r="14.4" fill="#e69f00" fill-rule="evenodd" fill-opacity="1" stroke="#000000" stroke-opacity="1" stroke-width="3.2"/>
<circle clip-path="url(#clip432)" cx="2263.8" cy="774.509" r="14.4" fill="#e69f00" fill-rule="evenodd" fill-opacity="1" stroke="#000000" stroke-opacity="1" stroke-width="3.2"/>
<circle clip-path="url(#clip432)" cx="1537.63" cy="935.033" r="14.4" fill="#e69f00" fill-rule="evenodd" fill-opacity="1" stroke="#000000" stroke-opacity="1" stroke-width="3.2"/>
<circle clip-path="url(#clip432)" cx="421.952" cy="881.772" r="14.4" fill="#e69f00" fill-rule="evenodd" fill-opacity="1" stroke="#000000" stroke-opacity="1" stroke-width="3.2"/>
<circle clip-path="url(#clip432)" cx="1217.74" cy="925.294" r="14.4" fill="#e69f00" fill-rule="evenodd" fill-opacity="1" stroke="#000000" stroke-opacity="1" stroke-width="3.2"/>
<circle clip-path="url(#clip432)" cx="2351.87" cy="850.767" r="14.4" fill="#e69f00" fill-rule="evenodd" fill-opacity="1" stroke="#000000" stroke-opacity="1" stroke-width="3.2"/>
<circle clip-path="url(#clip432)" cx="1671.44" cy="631.838" r="14.4" fill="#e69f00" fill-rule="evenodd" fill-opacity="1" stroke="#000000" stroke-opacity="1" stroke-width="3.2"/>
<circle clip-path="url(#clip432)" cx="775.394" cy="1138.88" r="14.4" fill="#e69f00" fill-rule="evenodd" fill-opacity="1" stroke="#000000" stroke-opacity="1" stroke-width="3.2"/>
<circle clip-path="url(#clip432)" cx="392.057" cy="1052.42" r="14.4" fill="#e69f00" fill-rule="evenodd" fill-opacity="1" stroke="#000000" stroke-opacity="1" stroke-width="3.2"/>
<circle clip-path="url(#clip432)" cx="1214.65" cy="1105.83" r="14.4" fill="#e69f00" fill-rule="evenodd" fill-opacity="1" stroke="#000000" stroke-opacity="1" stroke-width="3.2"/>
<circle clip-path="url(#clip432)" cx="978.573" cy="1003.06" r="14.4" fill="#e69f00" fill-rule="evenodd" fill-opacity="1" stroke="#000000" stroke-opacity="1" stroke-width="3.2"/>
<circle clip-path="url(#clip432)" cx="1422.13" cy="412.839" r="14.4" fill="#e69f00" fill-rule="evenodd" fill-opacity="1" stroke="#000000" stroke-opacity="1" stroke-width="3.2"/>
<circle clip-path="url(#clip432)" cx="535.901" cy="1109.96" r="14.4" fill="#e69f00" fill-rule="evenodd" fill-opacity="1" stroke="#000000" stroke-opacity="1" stroke-width="3.2"/>
<circle clip-path="url(#clip432)" cx="1335.27" cy="1127.63" r="14.4" fill="#e69f00" fill-rule="evenodd" fill-opacity="1" stroke="#000000" stroke-opacity="1" stroke-width="3.2"/>
<circle clip-path="url(#clip432)" cx="2116.83" cy="310.683" r="14.4" fill="#e69f00" fill-rule="evenodd" fill-opacity="1" stroke="#000000" stroke-opacity="1" stroke-width="3.2"/>
<circle clip-path="url(#clip432)" cx="1438.81" cy="760.022" r="14.4" fill="#e69f00" fill-rule="evenodd" fill-opacity="1" stroke="#000000" stroke-opacity="1" stroke-width="3.2"/>
<circle clip-path="url(#clip432)" cx="996.931" cy="1105.43" r="14.4" fill="#e69f00" fill-rule="evenodd" fill-opacity="1" stroke="#000000" stroke-opacity="1" stroke-width="3.2"/>
<circle clip-path="url(#clip432)" cx="2269.81" cy="590.749" r="14.4" fill="#e69f00" fill-rule="evenodd" fill-opacity="1" stroke="#000000" stroke-opacity="1" stroke-width="3.2"/>
<circle clip-path="url(#clip432)" cx="1583.53" cy="628.579" r="14.4" fill="#e69f00" fill-rule="evenodd" fill-opacity="1" stroke="#000000" stroke-opacity="1" stroke-width="3.2"/>
<circle clip-path="url(#clip432)" cx="564.619" cy="754.621" r="14.4" fill="#e69f00" fill-rule="evenodd" fill-opacity="1" stroke="#000000" stroke-opacity="1" stroke-width="3.2"/>
<circle clip-path="url(#clip432)" cx="2199.54" cy="712.41" r="14.4" fill="#e69f00" fill-rule="evenodd" fill-opacity="1" stroke="#000000" stroke-opacity="1" stroke-width="3.2"/>
<circle clip-path="url(#clip432)" cx="1904.13" cy="558.753" r="14.4" fill="#e69f00" fill-rule="evenodd" fill-opacity="1" stroke="#000000" stroke-opacity="1" stroke-width="3.2"/>
<circle clip-path="url(#clip432)" cx="994.916" cy="954.886" r="14.4" fill="#e69f00" fill-rule="evenodd" fill-opacity="1" stroke="#000000" stroke-opacity="1" stroke-width="3.2"/>
<circle clip-path="url(#clip432)" cx="1974.55" cy="538.165" r="14.4" fill="#e69f00" fill-rule="evenodd" fill-opacity="1" stroke="#000000" stroke-opacity="1" stroke-width="3.2"/>
<circle clip-path="url(#clip432)" cx="1517.73" cy="750.222" r="14.4" fill="#e69f00" fill-rule="evenodd" fill-opacity="1" stroke="#000000" stroke-opacity="1" stroke-width="3.2"/>
<circle clip-path="url(#clip432)" cx="195.895" cy="931.862" r="14.4" fill="#e69f00" fill-rule="evenodd" fill-opacity="1" stroke="#000000" stroke-opacity="1" stroke-width="3.2"/>
<circle clip-path="url(#clip432)" cx="688.788" cy="1423.37" r="14.4" fill="#e69f00" fill-rule="evenodd" fill-opacity="1" stroke="#000000" stroke-opacity="1" stroke-width="3.2"/>
<circle clip-path="url(#clip432)" cx="261.001" cy="1204.12" r="14.4" fill="#e69f00" fill-rule="evenodd" fill-opacity="1" stroke="#000000" stroke-opacity="1" stroke-width="3.2"/>
<circle clip-path="url(#clip432)" cx="1395.71" cy="616.255" r="14.4" fill="#e69f00" fill-rule="evenodd" fill-opacity="1" stroke="#000000" stroke-opacity="1" stroke-width="3.2"/>
<circle clip-path="url(#clip432)" cx="1196.99" cy="798.387" r="14.4" fill="#e69f00" fill-rule="evenodd" fill-opacity="1" stroke="#000000" stroke-opacity="1" stroke-width="3.2"/>
<circle clip-path="url(#clip432)" cx="1888.84" cy="347.988" r="14.4" fill="#e69f00" fill-rule="evenodd" fill-opacity="1" stroke="#000000" stroke-opacity="1" stroke-width="3.2"/>
<circle clip-path="url(#clip432)" cx="1044.89" cy="1031.03" r="14.4" fill="#e69f00" fill-rule="evenodd" fill-opacity="1" stroke="#000000" stroke-opacity="1" stroke-width="3.2"/>
<circle clip-path="url(#clip432)" cx="1589.94" cy="323.063" r="14.4" fill="#e69f00" fill-rule="evenodd" fill-opacity="1" stroke="#000000" stroke-opacity="1" stroke-width="3.2"/>
<circle clip-path="url(#clip432)" cx="1958.75" cy="452.639" r="14.4" fill="#e69f00" fill-rule="evenodd" fill-opacity="1" stroke="#000000" stroke-opacity="1" stroke-width="3.2"/>
<circle clip-path="url(#clip432)" cx="1868.71" cy="408.818" r="14.4" fill="#e69f00" fill-rule="evenodd" fill-opacity="1" stroke="#000000" stroke-opacity="1" stroke-width="3.2"/>
<circle clip-path="url(#clip432)" cx="1733.57" cy="316.355" r="14.4" fill="#e69f00" fill-rule="evenodd" fill-opacity="1" stroke="#000000" stroke-opacity="1" stroke-width="3.2"/>
<circle clip-path="url(#clip432)" cx="273.169" cy="1067.61" r="14.4" fill="#e69f00" fill-rule="evenodd" fill-opacity="1" stroke="#000000" stroke-opacity="1" stroke-width="3.2"/>
<circle clip-path="url(#clip432)" cx="1085.02" cy="763.79" r="14.4" fill="#e69f00" fill-rule="evenodd" fill-opacity="1" stroke="#000000" stroke-opacity="1" stroke-width="3.2"/>
<circle clip-path="url(#clip432)" cx="591.856" cy="1000.28" r="14.4" fill="#e69f00" fill-rule="evenodd" fill-opacity="1" stroke="#000000" stroke-opacity="1" stroke-width="3.2"/>
<circle clip-path="url(#clip432)" cx="407.629" cy="1018.09" r="14.4" fill="#e69f00" fill-rule="evenodd" fill-opacity="1" stroke="#000000" stroke-opacity="1" stroke-width="3.2"/>
<circle clip-path="url(#clip432)" cx="285.802" cy="980.712" r="14.4" fill="#e69f00" fill-rule="evenodd" fill-opacity="1" stroke="#000000" stroke-opacity="1" stroke-width="3.2"/>
<circle clip-path="url(#clip432)" cx="1347.07" cy="932.863" r="14.4" fill="#e69f00" fill-rule="evenodd" fill-opacity="1" stroke="#000000" stroke-opacity="1" stroke-width="3.2"/>
<circle clip-path="url(#clip432)" cx="295.932" cy="905.021" r="14.4" fill="#e69f00" fill-rule="evenodd" fill-opacity="1" stroke="#000000" stroke-opacity="1" stroke-width="3.2"/>
<circle clip-path="url(#clip432)" cx="2146.48" cy="919.883" r="14.4" fill="#e69f00" fill-rule="evenodd" fill-opacity="1" stroke="#000000" stroke-opacity="1" stroke-width="3.2"/>
<circle clip-path="url(#clip432)" cx="2196.74" cy="884.878" r="14.4" fill="#e69f00" fill-rule="evenodd" fill-opacity="1" stroke="#000000" stroke-opacity="1" stroke-width="3.2"/>
<circle clip-path="url(#clip432)" cx="705.394" cy="1270.84" r="14.4" fill="#e69f00" fill-rule="evenodd" fill-opacity="1" stroke="#000000" stroke-opacity="1" stroke-width="3.2"/>
<circle clip-path="url(#clip432)" cx="965.505" cy="861.638" r="14.4" fill="#e69f00" fill-rule="evenodd" fill-opacity="1" stroke="#000000" stroke-opacity="1" stroke-width="3.2"/>
<circle clip-path="url(#clip432)" cx="1797.86" cy="613.002" r="14.4" fill="#e69f00" fill-rule="evenodd" fill-opacity="1" stroke="#000000" stroke-opacity="1" stroke-width="3.2"/>
<circle clip-path="url(#clip432)" cx="1071.55" cy="1195.87" r="14.4" fill="#e69f00" fill-rule="evenodd" fill-opacity="1" stroke="#000000" stroke-opacity="1" stroke-width="3.2"/>
<circle clip-path="url(#clip432)" cx="2122.97" cy="321.693" r="14.4" fill="#e69f00" fill-rule="evenodd" fill-opacity="1" stroke="#000000" stroke-opacity="1" stroke-width="3.2"/>
<circle clip-path="url(#clip432)" cx="953.121" cy="969.625" r="14.4" fill="#e69f00" fill-rule="evenodd" fill-opacity="1" stroke="#000000" stroke-opacity="1" stroke-width="3.2"/>
<circle clip-path="url(#clip432)" cx="772.136" cy="967.314" r="14.4" fill="#e69f00" fill-rule="evenodd" fill-opacity="1" stroke="#000000" stroke-opacity="1" stroke-width="3.2"/>
<circle clip-path="url(#clip432)" cx="1668.62" cy="331.709" r="14.4" fill="#e69f00" fill-rule="evenodd" fill-opacity="1" stroke="#000000" stroke-opacity="1" stroke-width="3.2"/>
<circle clip-path="url(#clip432)" cx="801.155" cy="1313.08" r="14.4" fill="#e69f00" fill-rule="evenodd" fill-opacity="1" stroke="#000000" stroke-opacity="1" stroke-width="3.2"/>
<circle clip-path="url(#clip432)" cx="1330.74" cy="542.868" r="14.4" fill="#e69f00" fill-rule="evenodd" fill-opacity="1" stroke="#000000" stroke-opacity="1" stroke-width="3.2"/>
<circle clip-path="url(#clip432)" cx="319.015" cy="1102.1" r="14.4" fill="#e69f00" fill-rule="evenodd" fill-opacity="1" stroke="#000000" stroke-opacity="1" stroke-width="3.2"/>
<circle clip-path="url(#clip432)" cx="610.863" cy="1010.51" r="14.4" fill="#e69f00" fill-rule="evenodd" fill-opacity="1" stroke="#000000" stroke-opacity="1" stroke-width="3.2"/>
<circle clip-path="url(#clip432)" cx="1664.67" cy="767.768" r="14.4" fill="#e69f00" fill-rule="evenodd" fill-opacity="1" stroke="#000000" stroke-opacity="1" stroke-width="3.2"/>
<circle clip-path="url(#clip432)" cx="1471.5" cy="785.039" r="14.4" fill="#e69f00" fill-rule="evenodd" fill-opacity="1" stroke="#000000" stroke-opacity="1" stroke-width="3.2"/>
<circle clip-path="url(#clip432)" cx="222.672" cy="980.998" r="14.4" fill="#e69f00" fill-rule="evenodd" fill-opacity="1" stroke="#000000" stroke-opacity="1" stroke-width="3.2"/>
<circle clip-path="url(#clip432)" cx="929.96" cy="768.772" r="14.4" fill="#e69f00" fill-rule="evenodd" fill-opacity="1" stroke="#000000" stroke-opacity="1" stroke-width="3.2"/>
<circle clip-path="url(#clip432)" cx="206.466" cy="912.742" r="14.4" fill="#e69f00" fill-rule="evenodd" fill-opacity="1" stroke="#000000" stroke-opacity="1" stroke-width="3.2"/>
<circle clip-path="url(#clip432)" cx="216.181" cy="942.416" r="14.4" fill="#e69f00" fill-rule="evenodd" fill-opacity="1" stroke="#000000" stroke-opacity="1" stroke-width="3.2"/>
<circle clip-path="url(#clip432)" cx="2054.97" cy="671.046" r="14.4" fill="#e69f00" fill-rule="evenodd" fill-opacity="1" stroke="#000000" stroke-opacity="1" stroke-width="3.2"/>
<circle clip-path="url(#clip432)" cx="921.644" cy="1266.36" r="14.4" fill="#e69f00" fill-rule="evenodd" fill-opacity="1" stroke="#000000" stroke-opacity="1" stroke-width="3.2"/>
<circle clip-path="url(#clip432)" cx="1264.01" cy="867.914" r="14.4" fill="#e69f00" fill-rule="evenodd" fill-opacity="1" stroke="#000000" stroke-opacity="1" stroke-width="3.2"/>
<circle clip-path="url(#clip432)" cx="1334.77" cy="734.466" r="14.4" fill="#e69f00" fill-rule="evenodd" fill-opacity="1" stroke="#000000" stroke-opacity="1" stroke-width="3.2"/>
<circle clip-path="url(#clip432)" cx="1110.29" cy="1040.55" r="14.4" fill="#e69f00" fill-rule="evenodd" fill-opacity="1" stroke="#000000" stroke-opacity="1" stroke-width="3.2"/>
<circle clip-path="url(#clip432)" cx="2216.55" cy="678.123" r="14.4" fill="#e69f00" fill-rule="evenodd" fill-opacity="1" stroke="#000000" stroke-opacity="1" stroke-width="3.2"/>
<circle clip-path="url(#clip432)" cx="1574.24" cy="686.079" r="14.4" fill="#e69f00" fill-rule="evenodd" fill-opacity="1" stroke="#000000" stroke-opacity="1" stroke-width="3.2"/>
<circle clip-path="url(#clip432)" cx="630.007" cy="1126.21" r="14.4" fill="#e69f00" fill-rule="evenodd" fill-opacity="1" stroke="#000000" stroke-opacity="1" stroke-width="3.2"/>
<circle clip-path="url(#clip432)" cx="1299.88" cy="665.205" r="14.4" fill="#e69f00" fill-rule="evenodd" fill-opacity="1" stroke="#000000" stroke-opacity="1" stroke-width="3.2"/>
<circle clip-path="url(#clip432)" cx="1469.49" cy="626.427" r="14.4" fill="#e69f00" fill-rule="evenodd" fill-opacity="1" stroke="#000000" stroke-opacity="1" stroke-width="3.2"/>
<path clip-path="url(#clip432)" d="M147.478 1203.2 L181.292 1234.52 L195.895 1247.85 L206.466 1257.4 L212.388 1262.72 L216.181 1266.11 L222.672 1271.88 L235.772 1283.41 L246.45 1292.69 L250.949 1296.57 L260.511 1304.73 L261.001 1305.14 L266.446 1309.74 L273.169 1315.37 L285.802 1325.81 L295.872 1333.98 L295.932 1334.03 L316.498 1350.28 L319.015 1352.23 L324.999 1356.82 L325.639 1357.31 L344.833 1371.65 L346.338 1372.75 L350.399 1375.7 L358.782 1381.7 L370.185 1389.67 L371.076 1390.29 L378.181 1395.13 L383.096 1398.42 L392.057 1404.32 L407.629 1414.21 L408.61 1414.81 L415.564 1419.07 L421.952 1422.89 L423.835 1424 L446.824 1436.98 L455.224 1441.45 L473.228 1450.52 L485.029 1456.07 L485.41 1456.25 L491.285 1458.89 L497.597 1461.65 L503.856 1464.29 L509.011 1466.4 L535.901 1476.39 L564.619 1485.14 L591.856 1491.57 L601.593 1493.42 L603.372 1493.73 L610.863 1494.96 L614.883 1495.56 L619.356 1496.18 L627.945 1497.23 L630.007 1497.45 L635.087 1497.95 L635.832 1498.02 L656.406 1499.35 L687.719 1499.28 L688.788 1499.24 L696.2 1498.84 L705.394 1498.14 L734.069 1494.58 L762.569 1488.99 L764.272 1488.59 L772.136 1486.66 L775.394 1485.82 L788.37 1482.19 L801.155 1478.21 L814.614 1473.6 L831.311 1467.29 L839.616 1463.9 L864.219 1452.95 L870.716 1449.84 L891.246 1439.38 L910.668 1428.66 L911.707 1428.07 L914.898 1426.22 L915.274 1426.01 L916.917 1425.05 L921.644 1422.26 L928.879 1417.91 L929.96 1417.26 L946.253 1407.05 L951.037 1403.96 L951.882 1403.41 L953.121 1402.6 L962.935 1396.09 L964.531 1395.01 L965.505 1394.36 L978.573 1385.36 L984.051 1381.5 L994.916 1373.69 L996.931 1372.22 L1015.11 1358.67 L1019.12 1355.62 L1041.81 1337.87 L1044.89 1335.41 L1071.29 1313.78 L1071.55 1313.56 L1074.37 1311.2 L1081.76 1304.96 L1085.02 1302.19 L1088.88 1298.9 L1110.29 1280.33 L1112.36 1278.51 L1119.86 1271.89 L1124.57 1267.7 L1140.01 1253.86 L1154.75 1240.47 L1171.74 1224.86 L1180.81 1216.47 L1193.24 1204.9 L1196.99 1201.4 L1214.65 1184.84 L1217.74 1181.94 L1219.09 1180.66 L1226.27 1173.9 L1244.79 1156.43 L1264.01 1138.28 L1270.75 1131.92 L1299.88 1104.56 L1330.74 1075.89 L1334.77 1072.18 L1335.27 1071.72 L1343.26 1064.41 L1347.07 1060.93 L1370.35 1039.91 L1395.71 1017.53 L1407.31 1007.5 L1410.89 1004.43 L1411.2 1004.17 L1415.89 1000.18 L1422.13 994.903 L1424.93 992.545 L1438.81 981.022 L1442.83 977.724 L1443.07 977.533 L1445.73 975.366 L1456.31 966.835 L1469.49 956.43 L1471.5 954.866 L1481.9 946.856 L1488.57 941.811 L1490.77 940.161 L1493.43 938.179 L1497.43 935.215 L1497.81 934.929 L1508.12 927.42 L1508.66 927.032 L1510.35 925.818 L1515.35 922.258 L1517.73 920.571 L1522.54 917.205 L1537.63 906.911 L1539.74 905.498 L1543.68 902.893 L1574.24 883.667 L1576.09 882.564 L1577.93 881.469 L1579.57 880.497 L1583.53 878.186 L1589.94 874.499 L1640.52 848.484 L1664.67 838.056 L1668.62 836.478 L1671.13 835.497 L1671.44 835.376 L1673.75 834.484 L1715.33 820.622 L1723.46 818.4 L1733.45 815.894 L1733.57 815.867 L1734.28 815.698 L1735.72 815.36 L1740.97 814.171 L1791.8 806.255 L1797.86 805.749 L1808.59 805.084 L1836.19 804.728 L1838.6 804.79 L1841.27 804.876 L1855.88 805.669 L1868.71 806.816 L1881.54 808.381 L1885.41 808.936 L1888.6 809.422 L1888.84 809.46 L1904.13 812.153 L1923.39 816.381 L1936.31 819.733 L1958.75 826.528 L1963.99 828.289 L1966.39 829.117 L1967.58 829.533 L1973.53 831.662 L1974.55 832.037 L1982.73 835.124 L1983.54 835.437 L1984.77 835.916 L1986.94 836.772 L2002.99 843.436 L2054.97 868.973 L2055.02 869.005 L2067.39 875.936 L2073.06 879.215 L2086.74 887.401 L2091 890.021 L2091.16 890.121 L2093.63 891.66 L2103.68 898.04 L2113.53 904.469 L2116.83 906.67 L2122.97 910.803 L2146.48 927.257 L2156.85 934.815 L2172.26 946.358 L2177.2 950.131 L2178.25 950.94 L2191.06 960.922 L2196.74 965.422 L2198.52 966.847 L2199.54 967.661 L2207.67 974.214 L2216.55 981.468 L2223.39 987.12 L2223.45 987.169 L2236.66 998.255 L2243.75 1004.28 L2263.8 1021.63 L2269.81 1026.9 L2281.58 1037.33 L2282.42 1038.08 L2288.27 1043.32 L2293.3 1047.84 L2299.25 1053.21 L2300.76 1054.57 L2311.08 1063.96 L2350.29 1100.21 L2351.87 1101.69 L2352.76 1102.52 L2352.76 440.722 L2351.87 439.897 L2350.29 438.421 L2311.08 402.17 L2300.76 392.779 L2299.25 391.413 L2293.3 386.041 L2288.27 381.524 L2282.42 376.285 L2281.58 375.54 L2269.81 365.106 L2263.8 359.832 L2243.75 342.486 L2236.66 336.461 L2223.45 325.374 L2223.39 325.325 L2216.55 319.673 L2207.67 312.419 L2199.54 305.867 L2198.52 305.052 L2196.74 303.628 L2191.06 299.127 L2178.25 289.145 L2177.2 288.336 L2172.26 284.563 L2156.85 273.021 L2146.48 265.463 L2122.97 249.008 L2116.83 244.876 L2113.53 242.674 L2103.68 236.246 L2093.63 229.866 L2091.16 228.327 L2091 228.227 L2086.74 225.606 L2073.06 217.421 L2067.39 214.142 L2055.02 207.21 L2054.97 207.178 L2002.99 181.641 L1986.94 174.977 L1984.77 174.121 L1983.54 173.643 L1982.73 173.329 L1974.55 170.243 L1973.53 169.868 L1967.58 167.739 L1966.39 167.323 L1963.99 166.495 L1958.75 164.734 L1936.31 157.939 L1923.39 154.587 L1904.13 150.359 L1888.84 147.666 L1888.6 147.628 L1885.41 147.142 L1881.54 146.587 L1868.71 145.022 L1855.88 143.875 L1841.27 143.082 L1838.6 142.996 L1836.19 142.934 L1808.59 143.289 L1797.86 143.955 L1791.8 144.46 L1740.97 152.377 L1735.72 153.566 L1734.28 153.904 L1733.57 154.072 L1733.45 154.1 L1723.46 156.606 L1715.33 158.828 L1673.75 172.69 L1671.44 173.581 L1671.13 173.703 L1668.62 174.684 L1664.67 176.262 L1640.52 186.69 L1589.94 212.704 L1583.53 216.391 L1579.57 218.703 L1577.93 219.674 L1576.09 220.77 L1574.24 221.872 L1543.68 241.099 L1539.74 243.704 L1537.63 245.117 L1522.54 255.41 L1517.73 258.777 L1515.35 260.464 L1510.35 264.024 L1508.66 265.237 L1508.12 265.626 L1497.81 273.134 L1497.43 273.421 L1493.43 276.385 L1490.77 278.367 L1488.57 280.017 L1481.9 285.061 L1471.5 293.071 L1469.49 294.636 L1456.31 305.041 L1445.73 313.572 L1443.07 315.739 L1442.83 315.93 L1438.81 319.228 L1424.93 330.75 L1422.13 333.109 L1415.89 338.383 L1411.2 342.38 L1410.89 342.64 L1407.31 345.708 L1395.71 355.739 L1370.35 378.12 L1347.07 399.135 L1343.26 402.611 L1335.27 409.93 L1334.77 410.39 L1330.74 414.097 L1299.88 442.768 L1270.75 470.131 L1264.01 476.485 L1244.79 494.638 L1226.27 512.107 L1219.09 518.866 L1217.74 520.143 L1214.65 523.045 L1196.99 539.602 L1193.24 543.102 L1180.81 554.679 L1171.74 563.069 L1154.75 578.672 L1140.01 592.066 L1124.57 605.908 L1119.86 610.092 L1112.36 616.714 L1110.29 618.538 L1088.88 637.102 L1085.02 640.391 L1081.76 643.167 L1074.37 649.405 L1071.55 651.762 L1071.29 651.985 L1044.89 673.612 L1041.81 676.078 L1019.12 693.825 L1015.11 696.878 L996.931 710.427 L994.916 711.896 L984.051 719.702 L978.573 723.562 L965.505 732.561 L964.531 733.22 L962.935 734.295 L953.121 740.807 L951.882 741.616 L951.037 742.167 L946.253 745.259 L929.96 755.461 L928.879 756.12 L921.644 760.469 L916.917 763.255 L915.274 764.212 L914.898 764.431 L911.707 766.273 L910.668 766.868 L891.246 777.584 L870.716 788.042 L864.219 791.16 L839.616 802.109 L831.311 805.493 L814.614 811.809 L801.155 816.419 L788.37 820.394 L775.394 824.021 L772.136 824.867 L764.272 826.8 L762.569 827.199 L734.069 832.791 L705.394 836.345 L696.2 837.041 L688.788 837.444 L687.719 837.491 L656.406 837.554 L635.832 836.228 L635.087 836.159 L630.007 835.655 L627.945 835.432 L619.356 834.386 L614.883 833.766 L610.863 833.166 L603.372 831.94 L601.593 831.628 L591.856 829.778 L564.619 823.346 L535.901 814.592 L509.011 804.604 L503.856 802.495 L497.597 799.853 L491.285 797.099 L485.41 794.453 L485.029 794.279 L473.228 788.722 L455.224 779.655 L446.824 775.186 L423.835 762.205 L421.952 761.094 L415.564 757.272 L408.61 753.021 L407.629 752.413 L392.057 742.525 L383.096 736.63 L378.181 733.334 L371.076 728.493 L370.185 727.879 L358.782 719.908 L350.399 713.906 L346.338 710.957 L344.833 709.858 L325.639 695.515 L324.999 695.027 L319.015 690.434 L316.498 688.486 L295.932 672.232 L295.872 672.184 L285.802 664.013 L273.169 653.581 L266.446 647.95 L261.001 643.351 L260.511 642.935 L250.949 634.772 L246.45 630.898 L235.772 621.618 L222.672 610.085 L216.181 604.313 L212.388 600.923 L206.466 595.608 L195.895 586.053 L181.292 572.725 L147.478 541.402  Z" fill="#56b4e9" fill-rule="evenodd" fill-opacity="0.5"/>
<polyline clip-path="url(#clip432)" style="stroke:#56b4e9; stroke-linecap:round; stroke-linejoin:round; stroke-width:20; stroke-opacity:1; fill:none" points="147.478,872.299 181.292,903.622 195.895,916.95 206.466,926.505 212.388,931.82 216.181,935.21 222.672,940.982 235.772,952.516 246.45,961.795 250.949,965.669 260.511,973.832 261.001,974.248 266.446,978.847 273.169,984.478 285.802,994.91 295.872,1003.08 295.932,1003.13 316.498,1019.38 319.015,1021.33 324.999,1025.92 325.639,1026.41 344.833,1040.75 346.338,1041.85 350.399,1044.8 358.782,1050.81 370.185,1058.78 371.076,1059.39 378.181,1064.23 383.096,1067.53 392.057,1073.42 407.629,1083.31 408.61,1083.92 415.564,1088.17 421.952,1091.99 423.835,1093.1 446.824,1106.08 455.224,1110.55 473.228,1119.62 485.029,1125.18 485.41,1125.35 491.285,1128 497.597,1130.75 503.856,1133.39 509.011,1135.5 535.901,1145.49 564.619,1154.24 591.856,1160.67 601.593,1162.52 603.372,1162.84 610.863,1164.06 614.883,1164.66 619.356,1165.28 627.945,1166.33 630.007,1166.55 635.087,1167.06 635.832,1167.12 656.406,1168.45 687.719,1168.39 688.788,1168.34 696.2,1167.94 705.394,1167.24 734.069,1163.69 762.569,1158.1 764.272,1157.7 772.136,1155.76 775.394,1154.92 788.37,1151.29 801.155,1147.32 814.614,1142.71 831.311,1136.39 839.616,1133.01 864.219,1122.06 870.716,1118.94 891.246,1108.48 910.668,1097.77 911.707,1097.17 914.898,1095.33 915.274,1095.11 916.917,1094.15 921.644,1091.37 928.879,1087.02 929.96,1086.36 946.253,1076.16 951.037,1073.06 951.882,1072.51 953.121,1071.7 962.935,1065.19 964.531,1064.12 965.505,1063.46 978.573,1054.46 984.051,1050.6 994.916,1042.79 996.931,1041.32 1015.11,1027.78 1019.12,1024.72 1041.81,1006.97 1044.89,1004.51 1071.29,982.883 1071.55,982.659 1074.37,980.302 1081.76,974.064 1085.02,971.288 1088.88,968 1110.29,949.435 1112.36,947.612 1119.86,940.989 1124.57,936.805 1140.01,922.963 1154.75,909.569 1171.74,893.966 1180.81,885.576 1193.24,873.999 1196.99,870.499 1214.65,853.942 1217.74,851.04 1219.09,849.763 1226.27,843.004 1244.79,825.535 1264.01,807.382 1270.75,801.028 1299.88,773.665 1330.74,744.994 1334.77,741.287 1335.27,740.827 1343.26,733.508 1347.07,730.033 1370.35,709.017 1395.71,686.636 1407.31,676.606 1410.89,673.537 1411.2,673.278 1415.89,669.28 1422.13,664.006 1424.93,661.647 1438.81,650.125 1442.83,646.827 1443.07,646.636 1445.73,644.469 1456.31,635.938 1469.49,625.533 1471.5,623.969 1481.9,615.959 1488.57,610.914 1490.77,609.264 1493.43,607.282 1497.43,604.318 1497.81,604.032 1508.12,596.523 1508.66,596.135 1510.35,594.921 1515.35,591.361 1517.73,589.674 1522.54,586.307 1537.63,576.014 1539.74,574.601 1543.68,571.996 1574.24,552.769 1576.09,551.667 1577.93,550.571 1579.57,549.6 1583.53,547.289 1589.94,543.602 1640.52,517.587 1664.67,507.159 1668.62,505.581 1671.13,504.6 1671.44,504.478 1673.75,503.587 1715.33,489.725 1723.46,487.503 1733.45,484.997 1733.57,484.97 1734.28,484.801 1735.72,484.463 1740.97,483.274 1791.8,475.358 1797.86,474.852 1808.59,474.186 1836.19,473.831 1838.6,473.893 1841.27,473.979 1855.88,474.772 1868.71,475.919 1881.54,477.484 1885.41,478.039 1888.6,478.525 1888.84,478.563 1904.13,481.256 1923.39,485.484 1936.31,488.836 1958.75,495.631 1963.99,497.392 1966.39,498.22 1967.58,498.636 1973.53,500.765 1974.55,501.14 1982.73,504.226 1983.54,504.54 1984.77,505.019 1986.94,505.875 2002.99,512.539 2054.97,538.075 2055.02,538.108 2067.39,545.039 2073.06,548.318 2086.74,556.504 2091,559.124 2091.16,559.224 2093.63,560.763 2103.68,567.143 2113.53,573.572 2116.83,575.773 2122.97,579.905 2146.48,596.36 2156.85,603.918 2172.26,615.461 2177.2,619.234 2178.25,620.042 2191.06,630.025 2196.74,634.525 2198.52,635.949 2199.54,636.764 2207.67,643.317 2216.55,650.571 2223.39,656.222 2223.45,656.272 2236.66,667.358 2243.75,673.383 2263.8,690.729 2269.81,696.003 2281.58,706.437 2282.42,707.182 2288.27,712.421 2293.3,716.938 2299.25,722.31 2300.76,723.676 2311.08,733.067 2350.29,769.318 2351.87,770.794 2352.76,771.619 "/>
<polyline clip-path="url(#clip432)" style="stroke:#ff8c00; stroke-linecap:round; stroke-linejoin:round; stroke-width:8; stroke-opacity:1; fill:none" stroke-dasharray="32, 20" points="145.31,870.273 148.996,873.716 152.682,877.155 156.368,880.587 160.055,884.014 163.741,887.434 167.427,890.848 171.113,894.255 174.8,897.654 178.486,901.046 182.172,904.429 185.858,907.805 189.545,911.171 193.231,914.529 196.917,917.877 200.603,921.216 204.29,924.544 207.976,927.863 211.662,931.17 215.348,934.467 219.035,937.752 222.721,941.025 226.407,944.286 230.093,947.536 233.78,950.772 237.466,953.995 241.152,957.205 244.838,960.402 248.525,963.584 252.211,966.752 255.897,969.906 259.583,973.045 263.27,976.168 266.956,979.276 270.642,982.368 274.328,985.444 278.015,988.503 281.701,991.546 285.387,994.571 289.073,997.579 292.76,1000.57 296.446,1003.54 300.132,1006.5 303.818,1009.43 307.505,1012.35 311.191,1015.25 314.877,1018.12 318.563,1020.98 322.25,1023.82 325.936,1026.64 329.622,1029.44 333.308,1032.21 336.995,1034.97 340.681,1037.7 344.367,1040.41 348.053,1043.1 351.74,1045.77 355.426,1048.42 359.112,1051.04 362.798,1053.64 366.485,1056.21 370.171,1058.77 373.857,1061.3 377.543,1063.8 381.23,1066.28 384.916,1068.74 388.602,1071.17 392.288,1073.57 395.975,1075.95 399.661,1078.31 403.347,1080.64 407.033,1082.94 410.72,1085.22 414.406,1087.47 418.092,1089.69 421.778,1091.89 425.464,1094.06 429.151,1096.2 432.837,1098.31 436.523,1100.4 440.209,1102.46 443.896,1104.49 447.582,1106.49 451.268,1108.47 454.954,1110.41 458.641,1112.33 462.327,1114.21 466.013,1116.07 469.699,1117.9 473.386,1119.7 477.072,1121.46 480.758,1123.2 484.444,1124.91 488.131,1126.59 491.817,1128.23 495.503,1129.85 499.189,1131.43 502.876,1132.98 506.562,1134.51 510.248,1136 513.934,1137.46 517.621,1138.88 521.307,1140.28 524.993,1141.64 528.679,1142.97 532.366,1144.27 536.052,1145.54 539.738,1146.77 543.424,1147.98 547.111,1149.14 550.797,1150.28 554.483,1151.38 558.169,1152.45 561.856,1153.49 565.542,1154.49 569.228,1155.46 572.914,1156.4 576.601,1157.3 580.287,1158.17 583.973,1159 587.659,1159.8 591.346,1160.57 595.032,1161.3 598.718,1162 602.404,1162.67 606.091,1163.3 609.777,1163.89 613.463,1164.46 617.149,1164.98 620.836,1165.48 624.522,1165.93 628.208,1166.36 631.894,1166.75 635.581,1167.1 639.267,1167.42 642.953,1167.71 646.639,1167.96 650.326,1168.17 654.012,1168.35 657.698,1168.5 661.384,1168.61 665.071,1168.69 668.757,1168.73 672.443,1168.73 676.129,1168.7 679.816,1168.64 683.502,1168.54 687.188,1168.41 690.874,1168.24 694.561,1168.04 698.247,1167.8 701.933,1167.53 705.619,1167.22 709.305,1166.88 712.992,1166.5 716.678,1166.09 720.364,1165.65 724.05,1165.17 727.737,1164.65 731.423,1164.1 735.109,1163.52 738.795,1162.9 742.482,1162.25 746.168,1161.56 749.854,1160.84 753.54,1160.09 757.227,1159.3 760.913,1158.48 764.599,1157.62 768.285,1156.73 771.972,1155.81 775.658,1154.85 779.344,1153.86 783.03,1152.83 786.717,1151.78 790.403,1150.69 794.089,1149.56 797.775,1148.4 801.462,1147.22 805.148,1145.99 808.834,1144.74 812.52,1143.45 816.207,1142.13 819.893,1140.78 823.579,1139.4 827.265,1137.98 830.952,1136.53 834.638,1135.05 838.324,1133.54 842.01,1132 845.697,1130.43 849.383,1128.82 853.069,1127.19 856.755,1125.52 860.442,1123.83 864.128,1122.1 867.814,1120.34 871.5,1118.56 875.187,1116.74 878.873,1114.89 882.559,1113.02 886.245,1111.11 889.932,1109.18 893.618,1107.22 897.304,1105.22 900.99,1103.2 904.677,1101.15 908.363,1099.08 912.049,1096.97 915.735,1094.84 919.422,1092.68 923.108,1090.49 926.794,1088.28 930.48,1086.04 934.167,1083.77 937.853,1081.48 941.539,1079.16 945.225,1076.81 948.912,1074.44 952.598,1072.05 956.284,1069.62 959.97,1067.18 963.657,1064.71 967.343,1062.21 971.029,1059.69 974.715,1057.15 978.402,1054.58 982.088,1051.99 985.774,1049.37 989.46,1046.74 993.146,1044.08 996.833,1041.4 1000.52,1038.69 1004.21,1035.97 1007.89,1033.22 1011.58,1030.45 1015.26,1027.66 1018.95,1024.85 1022.64,1022.02 1026.32,1019.17 1030.01,1016.3 1033.7,1013.41 1037.38,1010.5 1041.07,1007.57 1044.75,1004.62 1048.44,1001.65 1052.13,998.671 1055.81,995.669 1059.5,992.65 1063.19,989.614 1066.87,986.56 1070.56,983.49 1074.24,980.404 1077.93,977.302 1081.62,974.184 1085.3,971.051 1088.99,967.903 1092.68,964.74 1096.36,961.563 1100.05,958.371 1103.73,955.166 1107.42,951.948 1111.11,948.716 1114.79,945.472 1118.48,942.215 1122.17,938.946 1125.85,935.665 1129.54,932.372 1133.22,929.069 1136.91,925.755 1140.6,922.43 1144.28,919.095 1147.97,915.75 1151.66,912.396 1155.34,909.032 1159.03,905.66 1162.71,902.279 1166.4,898.891 1170.09,895.494 1173.77,892.09 1177.46,888.679 1181.15,885.261 1184.83,881.836 1188.52,878.406 1192.2,874.97 1195.89,871.528 1199.58,868.081 1203.26,864.63 1206.95,861.174 1210.64,857.715 1214.32,854.251 1218.01,850.785 1221.69,847.315 1225.38,843.843 1229.07,840.368 1232.75,836.892 1236.44,833.414 1240.13,829.935 1243.81,826.455 1247.5,822.974 1251.18,819.493 1254.87,816.013 1258.56,812.532 1262.24,809.053 1265.93,805.575 1269.61,802.099 1273.3,798.624 1276.99,795.152 1280.67,791.682 1284.36,788.216 1288.05,784.752 1291.73,781.293 1295.42,777.837 1299.1,774.386 1302.79,770.939 1306.48,767.497 1310.16,764.061 1313.85,760.631 1317.54,757.206 1321.22,753.788 1324.91,750.377 1328.59,746.973 1332.28,743.577 1335.97,740.188 1339.65,736.807 1343.34,733.435 1347.03,730.071 1350.71,726.717 1354.4,723.372 1358.08,720.037 1361.77,716.713 1365.46,713.398 1369.14,710.095 1372.83,706.802 1376.52,703.521 1380.2,700.252 1383.89,696.995 1387.57,693.751 1391.26,690.519 1394.95,687.301 1398.63,684.096 1402.32,680.904 1406.01,677.727 1409.69,674.564 1413.38,671.416 1417.06,668.283 1420.75,665.165 1424.44,662.063 1428.12,658.977 1431.81,655.907 1435.5,652.854 1439.18,649.817 1442.87,646.798 1446.55,643.796 1450.24,640.812 1453.93,637.847 1457.61,634.899 1461.3,631.97 1464.99,629.061 1468.67,626.17 1472.36,623.299 1476.04,620.448 1479.73,617.618 1483.42,614.807 1487.1,612.017 1490.79,609.249 1494.48,606.501 1498.16,603.775 1501.85,601.071 1505.53,598.389 1509.22,595.73 1512.91,593.093 1516.59,590.479 1520.28,587.888 1523.97,585.32 1527.65,582.776 1531.34,580.256 1535.02,577.76 1538.71,575.289 1542.4,572.842 1546.08,570.421 1549.77,568.024 1553.46,565.653 1557.14,563.307 1560.83,560.988 1564.51,558.694 1568.2,556.427 1571.89,554.186 1575.57,551.972 1579.26,549.785 1582.95,547.626 1586.63,545.494 1590.32,543.389 1594,541.313 1597.69,539.264 1601.38,537.244 1605.06,535.252 1608.75,533.289 1612.44,531.355 1616.12,529.45 1619.81,527.574 1623.49,525.728 1627.18,523.911 1630.87,522.124 1634.55,520.367 1638.24,518.641 1641.93,516.944 1645.61,515.279 1649.3,513.644 1652.98,512.039 1656.67,510.466 1660.36,508.924 1664.04,507.414 1667.73,505.934 1671.42,504.487 1675.1,503.071 1678.79,501.687 1682.47,500.335 1686.16,499.016 1689.85,497.729 1693.53,496.474 1697.22,495.252 1700.91,494.062 1704.59,492.905 1708.28,491.782 1711.96,490.691 1715.65,489.634 1719.34,488.609 1723.02,487.618 1726.71,486.661 1730.4,485.737 1734.08,484.847 1737.77,483.991 1741.45,483.168 1745.14,482.379 1748.83,481.625 1752.51,480.904 1756.2,480.218 1759.89,479.565 1763.57,478.948 1767.26,478.364 1770.94,477.815 1774.63,477.3 1778.32,476.82 1782,476.374 1785.69,475.963 1789.38,475.587 1793.06,475.245 1796.75,474.938 1800.43,474.665 1804.12,474.428 1807.81,474.225 1811.49,474.057 1815.18,473.924 1818.87,473.826 1822.55,473.763 1826.24,473.734 1829.92,473.74 1833.61,473.782 1837.3,473.858 1840.98,473.969 1844.67,474.114 1848.36,474.295 1852.04,474.51 1855.73,474.761 1859.41,475.046 1863.1,475.365 1866.79,475.72 1870.47,476.109 1874.16,476.532 1877.85,476.991 1881.53,477.484 1885.22,478.011 1888.9,478.573 1892.59,479.169 1896.28,479.799 1899.96,480.464 1903.65,481.163 1907.34,481.896 1911.02,482.663 1914.71,483.464 1918.39,484.299 1922.08,485.167 1925.77,486.07 1929.45,487.006 1933.14,487.976 1936.83,488.979 1940.51,490.015 1944.2,491.085 1947.88,492.187 1951.57,493.323 1955.26,494.492 1958.94,495.693 1962.63,496.927 1966.32,498.194 1970,499.493 1973.69,500.824 1977.37,502.188 1981.06,503.583 1984.75,505.011 1988.43,506.47 1992.12,507.96 1995.81,509.482 1999.49,511.036 2003.18,512.62 2006.86,514.236 2010.55,515.882 2014.24,517.559 2017.92,519.266 2021.61,521.004 2025.3,522.772 2028.98,524.569 2032.67,526.397 2036.35,528.254 2040.04,530.141 2043.73,532.056 2047.41,534.001 2051.1,535.974 2054.79,537.977 2058.47,540.007 2062.16,542.066 2065.84,544.153 2069.53,546.267 2073.22,548.409 2076.9,550.579 2080.59,552.776 2084.28,554.999 2087.96,557.25 2091.65,559.527 2095.33,561.83 2099.02,564.159 2102.71,566.514 2106.39,568.894 2110.08,571.3 2113.77,573.731 2117.45,576.187 2121.14,578.667 2124.82,581.171 2128.51,583.7 2132.2,586.253 2135.88,588.829 2139.57,591.428 2143.26,594.051 2146.94,596.696 2150.63,599.364 2154.31,602.054 2158,604.766 2161.69,607.5 2165.37,610.255 2169.06,613.031 2172.75,615.829 2176.43,618.647 2180.12,621.485 2183.8,624.343 2187.49,627.221 2191.18,630.119 2194.86,633.035 2198.55,635.971 2202.24,638.925 2205.92,641.897 2209.61,644.888 2213.29,647.896 2216.98,650.921 2220.67,653.964 2224.35,657.023 2228.04,660.099 2231.73,663.191 2235.41,666.299 2239.1,669.423 2242.78,672.561 2246.47,675.715 2250.16,678.883 2253.84,682.065 2257.53,685.262 2261.22,688.472 2264.9,691.695 2268.59,694.932 2272.27,698.181 2275.96,701.442 2279.65,704.715 2283.33,708.001 2287.02,711.297 2290.71,714.604 2294.39,717.923 2298.08,721.251 2301.76,724.59 2305.45,727.938 2309.14,731.296 2312.82,734.662 2316.51,738.038 2320.2,741.421 2323.88,744.813 2327.57,748.213 2331.25,751.619 2334.94,755.033 2338.63,758.453 2342.31,761.88 2346,765.313 2349.69,768.751 2353.37,772.194 "/>
<path clip-path="url(#clip430)" d="M220.987 302.578 L741.027 302.578 L741.027 95.2176 L220.987 95.2176  Z" fill="#ffffff" fill-rule="evenodd" fill-opacity="1"/>
<polyline clip-path="url(#clip430)" style="stroke:#000000; stroke-linecap:round; stroke-linejoin:round; stroke-width:4; stroke-opacity:1; fill:none" points="220.987,302.578 741.027,302.578 741.027,95.2176 220.987,95.2176 220.987,302.578 "/>
<circle clip-path="url(#clip430)" cx="319" cy="147.058" r="20.48" fill="#e69f00" fill-rule="evenodd" fill-opacity="1" stroke="#000000" stroke-opacity="1" stroke-width="4.55111"/>
<path clip-path="url(#clip430)" d="M433.03 132.949 Q427.938 132.949 424.929 136.745 Q421.942 140.541 421.942 147.092 Q421.942 153.62 424.929 157.416 Q427.938 161.213 433.03 161.213 Q438.123 161.213 441.086 157.416 Q444.072 153.62 444.072 147.092 Q444.072 140.541 441.086 136.745 Q438.123 132.949 433.03 132.949 M433.03 129.153 Q440.299 129.153 444.651 134.037 Q449.002 138.898 449.002 147.092 Q449.002 155.264 444.651 160.148 Q440.299 165.009 433.03 165.009 Q425.739 165.009 421.364 160.148 Q417.012 155.287 417.012 147.092 Q417.012 138.898 421.364 134.037 Q425.739 129.153 433.03 129.153 Z" fill="#000000" fill-rule="nonzero" fill-opacity="1" /><path clip-path="url(#clip430)" d="M474.743 151.398 Q474.743 146.699 472.799 144.037 Q470.877 141.352 467.498 141.352 Q464.118 141.352 462.174 144.037 Q460.252 146.699 460.252 151.398 Q460.252 156.097 462.174 158.782 Q464.118 161.444 467.498 161.444 Q470.877 161.444 472.799 158.782 Q474.743 156.097 474.743 151.398 M460.252 142.347 Q461.595 140.032 463.632 138.921 Q465.692 137.787 468.539 137.787 Q473.262 137.787 476.201 141.537 Q479.164 145.287 479.164 151.398 Q479.164 157.509 476.201 161.259 Q473.262 165.009 468.539 165.009 Q465.692 165.009 463.632 163.898 Q461.595 162.763 460.252 160.449 L460.252 164.338 L455.97 164.338 L455.97 128.319 L460.252 128.319 L460.252 142.347 Z" fill="#000000" fill-rule="nonzero" fill-opacity="1" /><path clip-path="url(#clip430)" d="M502.752 139.176 L502.752 143.203 Q500.947 142.277 499.002 141.815 Q497.058 141.352 494.974 141.352 Q491.803 141.352 490.206 142.324 Q488.632 143.296 488.632 145.24 Q488.632 146.722 489.766 147.578 Q490.9 148.412 494.326 149.176 L495.785 149.5 Q500.322 150.472 502.22 152.254 Q504.141 154.014 504.141 157.185 Q504.141 160.796 501.271 162.902 Q498.423 165.009 493.424 165.009 Q491.34 165.009 489.072 164.592 Q486.826 164.199 484.326 163.388 L484.326 158.99 Q486.687 160.217 488.979 160.842 Q491.271 161.444 493.516 161.444 Q496.525 161.444 498.146 160.426 Q499.766 159.384 499.766 157.509 Q499.766 155.773 498.586 154.847 Q497.428 153.921 493.47 153.064 L491.988 152.717 Q488.03 151.884 486.271 150.171 Q484.512 148.435 484.512 145.426 Q484.512 141.768 487.104 139.778 Q489.697 137.787 494.465 137.787 Q496.826 137.787 498.91 138.134 Q500.993 138.481 502.752 139.176 Z" fill="#000000" fill-rule="nonzero" fill-opacity="1" /><path clip-path="url(#clip430)" d="M533.099 150.31 L533.099 152.393 L513.516 152.393 Q513.794 156.791 516.155 159.106 Q518.539 161.398 522.775 161.398 Q525.229 161.398 527.521 160.796 Q529.835 160.194 532.104 158.99 L532.104 163.018 Q529.812 163.99 527.405 164.5 Q524.997 165.009 522.521 165.009 Q516.317 165.009 512.683 161.398 Q509.072 157.787 509.072 151.629 Q509.072 145.264 512.497 141.537 Q515.947 137.787 521.78 137.787 Q527.011 137.787 530.044 141.166 Q533.099 144.523 533.099 150.31 M528.84 149.06 Q528.794 145.565 526.872 143.481 Q524.974 141.398 521.826 141.398 Q518.261 141.398 516.109 143.412 Q513.979 145.426 513.655 149.083 L528.84 149.06 Z" fill="#000000" fill-rule="nonzero" fill-opacity="1" /><path clip-path="url(#clip430)" d="M555.113 142.393 Q554.395 141.977 553.539 141.791 Q552.706 141.583 551.687 141.583 Q548.076 141.583 546.132 143.944 Q544.21 146.282 544.21 150.68 L544.21 164.338 L539.928 164.338 L539.928 138.412 L544.21 138.412 L544.21 142.44 Q545.553 140.078 547.706 138.944 Q549.858 137.787 552.937 137.787 Q553.377 137.787 553.909 137.856 Q554.442 137.903 555.09 138.018 L555.113 142.393 Z" fill="#000000" fill-rule="nonzero" fill-opacity="1" /><path clip-path="url(#clip430)" d="M556.525 138.412 L561.039 138.412 L569.141 160.171 L577.243 138.412 L581.756 138.412 L572.034 164.338 L566.247 164.338 L556.525 138.412 Z" fill="#000000" fill-rule="nonzero" fill-opacity="1" /><path clip-path="url(#clip430)" d="M609.812 150.31 L609.812 152.393 L590.229 152.393 Q590.506 156.791 592.867 159.106 Q595.252 161.398 599.488 161.398 Q601.941 161.398 604.233 160.796 Q606.548 160.194 608.816 158.99 L608.816 163.018 Q606.525 163.99 604.117 164.5 Q601.71 165.009 599.233 165.009 Q593.029 165.009 589.395 161.398 Q585.784 157.787 585.784 151.629 Q585.784 145.264 589.21 141.537 Q592.659 137.787 598.492 137.787 Q603.724 137.787 606.756 141.166 Q609.812 144.523 609.812 150.31 M605.553 149.06 Q605.506 145.565 603.585 143.481 Q601.687 141.398 598.539 141.398 Q594.974 141.398 592.821 143.412 Q590.692 145.426 590.367 149.083 L605.553 149.06 Z" fill="#000000" fill-rule="nonzero" fill-opacity="1" /><path clip-path="url(#clip430)" d="M633.863 142.347 L633.863 128.319 L638.122 128.319 L638.122 164.338 L633.863 164.338 L633.863 160.449 Q632.52 162.763 630.46 163.898 Q628.423 165.009 625.552 165.009 Q620.853 165.009 617.89 161.259 Q614.951 157.509 614.951 151.398 Q614.951 145.287 617.89 141.537 Q620.853 137.787 625.552 137.787 Q628.423 137.787 630.46 138.921 Q632.52 140.032 633.863 142.347 M619.349 151.398 Q619.349 156.097 621.27 158.782 Q623.214 161.444 626.594 161.444 Q629.974 161.444 631.918 158.782 Q633.863 156.097 633.863 151.398 Q633.863 146.699 631.918 144.037 Q629.974 141.352 626.594 141.352 Q623.214 141.352 621.27 144.037 Q619.349 146.699 619.349 151.398 Z" fill="#000000" fill-rule="nonzero" fill-opacity="1" /><polyline clip-path="url(#clip430)" style="stroke:#56b4e9; stroke-linecap:round; stroke-linejoin:round; stroke-width:20; stroke-opacity:1; fill:none" points="245.49,198.898 392.509,198.898 "/>
<path clip-path="url(#clip430)" d="M421.688 185.46 L421.688 198.446 L427.567 198.446 Q430.831 198.446 432.614 196.756 Q434.396 195.067 434.396 191.942 Q434.396 188.84 432.614 187.15 Q430.831 185.46 427.567 185.46 L421.688 185.46 M417.012 181.618 L427.567 181.618 Q433.378 181.618 436.34 184.256 Q439.327 186.872 439.327 191.942 Q439.327 197.057 436.34 199.673 Q433.378 202.289 427.567 202.289 L421.688 202.289 L421.688 216.178 L417.012 216.178 L417.012 181.618 Z" fill="#000000" fill-rule="nonzero" fill-opacity="1" /><path clip-path="url(#clip430)" d="M459.604 194.233 Q458.887 193.817 458.03 193.631 Q457.197 193.423 456.178 193.423 Q452.567 193.423 450.623 195.784 Q448.702 198.122 448.702 202.52 L448.702 216.178 L444.419 216.178 L444.419 190.252 L448.702 190.252 L448.702 194.28 Q450.044 191.918 452.197 190.784 Q454.35 189.627 457.428 189.627 Q457.868 189.627 458.401 189.696 Q458.933 189.743 459.581 189.858 L459.604 194.233 Z" fill="#000000" fill-rule="nonzero" fill-opacity="1" /><path clip-path="url(#clip430)" d="M485.206 202.15 L485.206 204.233 L465.623 204.233 Q465.901 208.631 468.262 210.946 Q470.646 213.238 474.882 213.238 Q477.336 213.238 479.627 212.636 Q481.942 212.034 484.211 210.83 L484.211 214.858 Q481.919 215.83 479.512 216.34 Q477.104 216.849 474.627 216.849 Q468.424 216.849 464.789 213.238 Q461.178 209.627 461.178 203.469 Q461.178 197.104 464.604 193.377 Q468.053 189.627 473.887 189.627 Q479.118 189.627 482.15 193.006 Q485.206 196.363 485.206 202.15 M480.947 200.9 Q480.9 197.405 478.979 195.321 Q477.081 193.238 473.933 193.238 Q470.368 193.238 468.215 195.252 Q466.086 197.266 465.762 200.923 L480.947 200.9 Z" fill="#000000" fill-rule="nonzero" fill-opacity="1" /><path clip-path="url(#clip430)" d="M509.257 194.187 L509.257 180.159 L513.516 180.159 L513.516 216.178 L509.257 216.178 L509.257 212.289 Q507.914 214.603 505.854 215.738 Q503.817 216.849 500.947 216.849 Q496.248 216.849 493.285 213.099 Q490.345 209.349 490.345 203.238 Q490.345 197.127 493.285 193.377 Q496.248 189.627 500.947 189.627 Q503.817 189.627 505.854 190.761 Q507.914 191.872 509.257 194.187 M494.743 203.238 Q494.743 207.937 496.664 210.622 Q498.609 213.284 501.988 213.284 Q505.368 213.284 507.312 210.622 Q509.257 207.937 509.257 203.238 Q509.257 198.539 507.312 195.877 Q505.368 193.192 501.988 193.192 Q498.609 193.192 496.664 195.877 Q494.743 198.539 494.743 203.238 Z" fill="#000000" fill-rule="nonzero" fill-opacity="1" /><path clip-path="url(#clip430)" d="M522.289 190.252 L526.548 190.252 L526.548 216.178 L522.289 216.178 L522.289 190.252 M522.289 180.159 L526.548 180.159 L526.548 185.553 L522.289 185.553 L522.289 180.159 Z" fill="#000000" fill-rule="nonzero" fill-opacity="1" /><path clip-path="url(#clip430)" d="M554.118 191.247 L554.118 195.229 Q552.312 194.233 550.483 193.747 Q548.678 193.238 546.826 193.238 Q542.683 193.238 540.391 195.877 Q538.099 198.492 538.099 203.238 Q538.099 207.983 540.391 210.622 Q542.683 213.238 546.826 213.238 Q548.678 213.238 550.483 212.752 Q552.312 212.242 554.118 211.247 L554.118 215.182 Q552.335 216.016 550.414 216.432 Q548.516 216.849 546.363 216.849 Q540.507 216.849 537.058 213.168 Q533.608 209.488 533.608 203.238 Q533.608 196.895 537.081 193.261 Q540.576 189.627 546.641 189.627 Q548.608 189.627 550.483 190.043 Q552.358 190.437 554.118 191.247 Z" fill="#000000" fill-rule="nonzero" fill-opacity="1" /><path clip-path="url(#clip430)" d="M565.738 182.891 L565.738 190.252 L574.511 190.252 L574.511 193.562 L565.738 193.562 L565.738 207.636 Q565.738 210.807 566.594 211.71 Q567.474 212.613 570.136 212.613 L574.511 212.613 L574.511 216.178 L570.136 216.178 Q565.206 216.178 563.331 214.349 Q561.456 212.497 561.456 207.636 L561.456 193.562 L558.331 193.562 L558.331 190.252 L561.456 190.252 L561.456 182.891 L565.738 182.891 Z" fill="#000000" fill-rule="nonzero" fill-opacity="1" /><path clip-path="url(#clip430)" d="M602.289 202.15 L602.289 204.233 L582.705 204.233 Q582.983 208.631 585.344 210.946 Q587.729 213.238 591.965 213.238 Q594.418 213.238 596.71 212.636 Q599.025 212.034 601.293 210.83 L601.293 214.858 Q599.002 215.83 596.594 216.34 Q594.187 216.849 591.71 216.849 Q585.506 216.849 581.872 213.238 Q578.261 209.627 578.261 203.469 Q578.261 197.104 581.687 193.377 Q585.136 189.627 590.969 189.627 Q596.201 189.627 599.233 193.006 Q602.289 196.363 602.289 202.15 M598.029 200.9 Q597.983 197.405 596.062 195.321 Q594.164 193.238 591.016 193.238 Q587.451 193.238 585.298 195.252 Q583.168 197.266 582.844 200.923 L598.029 200.9 Z" fill="#000000" fill-rule="nonzero" fill-opacity="1" /><path clip-path="url(#clip430)" d="M626.339 194.187 L626.339 180.159 L630.599 180.159 L630.599 216.178 L626.339 216.178 L626.339 212.289 Q624.997 214.603 622.937 215.738 Q620.9 216.849 618.029 216.849 Q613.33 216.849 610.367 213.099 Q607.428 209.349 607.428 203.238 Q607.428 197.127 610.367 193.377 Q613.33 189.627 618.029 189.627 Q620.9 189.627 622.937 190.761 Q624.997 191.872 626.339 194.187 M611.826 203.238 Q611.826 207.937 613.747 210.622 Q615.691 213.284 619.071 213.284 Q622.451 213.284 624.395 210.622 Q626.339 207.937 626.339 203.238 Q626.339 198.539 624.395 195.877 Q622.451 193.192 619.071 193.192 Q615.691 193.192 613.747 195.877 Q611.826 198.539 611.826 203.238 Z" fill="#000000" fill-rule="nonzero" fill-opacity="1" /><polyline clip-path="url(#clip430)" style="stroke:#ff8c00; stroke-linecap:round; stroke-linejoin:round; stroke-width:8; stroke-opacity:1; fill:none" stroke-dasharray="32, 20" points="245.49,250.738 392.509,250.738 "/>
<path clip-path="url(#clip430)" d="M442.567 263.087 L442.567 253.805 L434.928 253.805 L434.928 249.962 L447.197 249.962 L447.197 264.8 Q444.489 266.721 441.225 267.717 Q437.961 268.689 434.257 268.689 Q426.155 268.689 421.572 263.967 Q417.012 259.221 417.012 250.772 Q417.012 242.3 421.572 237.578 Q426.155 232.833 434.257 232.833 Q437.637 232.833 440.669 233.666 Q443.725 234.499 446.294 236.12 L446.294 241.096 Q443.702 238.897 440.785 237.786 Q437.868 236.675 434.651 236.675 Q428.308 236.675 425.114 240.217 Q421.942 243.758 421.942 250.772 Q421.942 257.763 425.114 261.305 Q428.308 264.846 434.651 264.846 Q437.128 264.846 439.072 264.43 Q441.016 263.99 442.567 263.087 Z" fill="#000000" fill-rule="nonzero" fill-opacity="1" /><path clip-path="url(#clip430)" d="M470.576 246.073 Q469.859 245.657 469.002 245.471 Q468.169 245.263 467.151 245.263 Q463.539 245.263 461.595 247.624 Q459.674 249.962 459.674 254.36 L459.674 268.018 L455.391 268.018 L455.391 242.092 L459.674 242.092 L459.674 246.12 Q461.016 243.758 463.169 242.624 Q465.322 241.467 468.401 241.467 Q468.84 241.467 469.373 241.536 Q469.905 241.583 470.553 241.698 L470.576 246.073 Z" fill="#000000" fill-rule="nonzero" fill-opacity="1" /><path clip-path="url(#clip430)" d="M484.049 245.078 Q480.623 245.078 478.632 247.763 Q476.641 250.425 476.641 255.078 Q476.641 259.731 478.609 262.416 Q480.6 265.078 484.049 265.078 Q487.451 265.078 489.442 262.393 Q491.433 259.707 491.433 255.078 Q491.433 250.471 489.442 247.786 Q487.451 245.078 484.049 245.078 M484.049 241.467 Q489.604 241.467 492.775 245.078 Q495.947 248.689 495.947 255.078 Q495.947 261.444 492.775 265.078 Q489.604 268.689 484.049 268.689 Q478.47 268.689 475.299 265.078 Q472.15 261.444 472.15 255.078 Q472.15 248.689 475.299 245.078 Q478.47 241.467 484.049 241.467 Z" fill="#000000" fill-rule="nonzero" fill-opacity="1" /><path clip-path="url(#clip430)" d="M502.567 257.786 L502.567 242.092 L506.826 242.092 L506.826 257.624 Q506.826 261.305 508.261 263.156 Q509.697 264.985 512.567 264.985 Q516.016 264.985 518.007 262.786 Q520.021 260.587 520.021 256.791 L520.021 242.092 L524.28 242.092 L524.28 268.018 L520.021 268.018 L520.021 264.036 Q518.47 266.397 516.41 267.555 Q514.372 268.689 511.664 268.689 Q507.197 268.689 504.882 265.911 Q502.567 263.133 502.567 257.786 M513.285 241.467 L513.285 241.467 Z" fill="#000000" fill-rule="nonzero" fill-opacity="1" /><path clip-path="url(#clip430)" d="M554.604 252.369 L554.604 268.018 L550.345 268.018 L550.345 252.508 Q550.345 248.828 548.909 246.999 Q547.474 245.17 544.604 245.17 Q541.155 245.17 539.164 247.37 Q537.173 249.569 537.173 253.365 L537.173 268.018 L532.891 268.018 L532.891 242.092 L537.173 242.092 L537.173 246.12 Q538.701 243.782 540.761 242.624 Q542.845 241.467 545.553 241.467 Q550.02 241.467 552.312 244.245 Q554.604 246.999 554.604 252.369 Z" fill="#000000" fill-rule="nonzero" fill-opacity="1" /><path clip-path="url(#clip430)" d="M580.159 246.027 L580.159 231.999 L584.418 231.999 L584.418 268.018 L580.159 268.018 L580.159 264.129 Q578.817 266.443 576.756 267.578 Q574.719 268.689 571.849 268.689 Q567.15 268.689 564.187 264.939 Q561.247 261.189 561.247 255.078 Q561.247 248.967 564.187 245.217 Q567.15 241.467 571.849 241.467 Q574.719 241.467 576.756 242.601 Q578.817 243.712 580.159 246.027 M565.645 255.078 Q565.645 259.777 567.567 262.462 Q569.511 265.124 572.891 265.124 Q576.27 265.124 578.215 262.462 Q580.159 259.777 580.159 255.078 Q580.159 250.379 578.215 247.717 Q576.27 245.032 572.891 245.032 Q569.511 245.032 567.567 247.717 Q565.645 250.379 565.645 255.078 Z" fill="#000000" fill-rule="nonzero" fill-opacity="1" /><path clip-path="url(#clip430)" d="M612.474 234.731 L612.474 242.092 L621.247 242.092 L621.247 245.402 L612.474 245.402 L612.474 259.476 Q612.474 262.647 613.33 263.55 Q614.21 264.453 616.872 264.453 L621.247 264.453 L621.247 268.018 L616.872 268.018 Q611.941 268.018 610.066 266.189 Q608.191 264.337 608.191 259.476 L608.191 245.402 L605.066 245.402 L605.066 242.092 L608.191 242.092 L608.191 234.731 L612.474 234.731 Z" fill="#000000" fill-rule="nonzero" fill-opacity="1" /><path clip-path="url(#clip430)" d="M641.872 246.073 Q641.154 245.657 640.298 245.471 Q639.464 245.263 638.446 245.263 Q634.835 245.263 632.89 247.624 Q630.969 249.962 630.969 254.36 L630.969 268.018 L626.687 268.018 L626.687 242.092 L630.969 242.092 L630.969 246.12 Q632.312 243.758 634.464 242.624 Q636.617 241.467 639.696 241.467 Q640.136 241.467 640.668 241.536 Q641.201 241.583 641.849 241.698 L641.872 246.073 Z" fill="#000000" fill-rule="nonzero" fill-opacity="1" /><path clip-path="url(#clip430)" d="M645.9 257.786 L645.9 242.092 L650.159 242.092 L650.159 257.624 Q650.159 261.305 651.594 263.156 Q653.029 264.985 655.899 264.985 Q659.349 264.985 661.339 262.786 Q663.353 260.587 663.353 256.791 L663.353 242.092 L667.612 242.092 L667.612 268.018 L663.353 268.018 L663.353 264.036 Q661.802 266.397 659.742 267.555 Q657.705 268.689 654.997 268.689 Q650.529 268.689 648.214 265.911 Q645.9 263.133 645.9 257.786 M656.617 241.467 L656.617 241.467 Z" fill="#000000" fill-rule="nonzero" fill-opacity="1" /><path clip-path="url(#clip430)" d="M680.598 234.731 L680.598 242.092 L689.372 242.092 L689.372 245.402 L680.598 245.402 L680.598 259.476 Q680.598 262.647 681.455 263.55 Q682.335 264.453 684.997 264.453 L689.372 264.453 L689.372 268.018 L684.997 268.018 Q680.066 268.018 678.191 266.189 Q676.316 264.337 676.316 259.476 L676.316 245.402 L673.191 245.402 L673.191 242.092 L676.316 242.092 L676.316 234.731 L680.598 234.731 Z" fill="#000000" fill-rule="nonzero" fill-opacity="1" /><path clip-path="url(#clip430)" d="M716.524 252.369 L716.524 268.018 L712.265 268.018 L712.265 252.508 Q712.265 248.828 710.83 246.999 Q709.395 245.17 706.524 245.17 Q703.075 245.17 701.084 247.37 Q699.094 249.569 699.094 253.365 L699.094 268.018 L694.811 268.018 L694.811 231.999 L699.094 231.999 L699.094 246.12 Q700.621 243.782 702.682 242.624 Q704.765 241.467 707.473 241.467 Q711.941 241.467 714.233 244.245 Q716.524 246.999 716.524 252.369 Z" fill="#000000" fill-rule="nonzero" fill-opacity="1" /></svg>
