<?xml version="1.0" encoding="utf-8"?>
<svg xmlns="http://www.w3.org/2000/svg" xmlns:xlink="http://www.w3.org/1999/xlink" width="600" height="400" viewBox="0 0 2400 1600">
<defs>
  <clipPath id="clip380">
    <rect x="0" y="0" width="2400" height="1600"/>
  </clipPath>
</defs>
<path clip-path="url(#clip380)" d="
M0 1600 L2400 1600 L2400 0 L0 0  Z
  " fill="#ffffff" fill-rule="evenodd" fill-opacity="1"/>
<defs>
  <clipPath id="clip381">
    <rect x="480" y="0" width="1681" height="1600"/>
  </clipPath>
</defs>
<path clip-path="url(#clip380)" d="
M192.941 1486.45 L2352.76 1486.45 L2352.76 47.2441 L192.941 47.2441  Z
  " fill="#ffffff" fill-rule="evenodd" fill-opacity="1"/>
<defs>
  <clipPath id="clip382">
    <rect x="192" y="47" width="2161" height="1440"/>
  </clipPath>
</defs>
<polyline clip-path="url(#clip382)" style="stroke:#000000; stroke-linecap:round; stroke-linejoin:round; stroke-width:2; stroke-opacity:0.1; fill:none" points="
  307.703,1486.45 307.703,47.2441 
  "/>
<polyline clip-path="url(#clip382)" style="stroke:#000000; stroke-linecap:round; stroke-linejoin:round; stroke-width:2; stroke-opacity:0.1; fill:none" points="
  626.753,1486.45 626.753,47.2441 
  "/>
<polyline clip-path="url(#clip382)" style="stroke:#000000; stroke-linecap:round; stroke-linejoin:round; stroke-width:2; stroke-opacity:0.1; fill:none" points="
  945.802,1486.45 945.802,47.2441 
  "/>
<polyline clip-path="url(#clip382)" style="stroke:#000000; stroke-linecap:round; stroke-linejoin:round; stroke-width:2; stroke-opacity:0.1; fill:none" points="
  1264.85,1486.45 1264.85,47.2441 
  "/>
<polyline clip-path="url(#clip382)" style="stroke:#000000; stroke-linecap:round; stroke-linejoin:round; stroke-width:2; stroke-opacity:0.1; fill:none" points="
  1583.9,1486.45 1583.9,47.2441 
  "/>
<polyline clip-path="url(#clip382)" style="stroke:#000000; stroke-linecap:round; stroke-linejoin:round; stroke-width:2; stroke-opacity:0.1; fill:none" points="
  1902.95,1486.45 1902.95,47.2441 
  "/>
<polyline clip-path="url(#clip382)" style="stroke:#000000; stroke-linecap:round; stroke-linejoin:round; stroke-width:2; stroke-opacity:0.1; fill:none" points="
  2222,1486.45 2222,47.2441 
  "/>
<polyline clip-path="url(#clip380)" style="stroke:#000000; stroke-linecap:round; stroke-linejoin:round; stroke-width:4; stroke-opacity:1; fill:none" points="
  192.941,1486.45 2352.76,1486.45 
  "/>
<polyline clip-path="url(#clip380)" style="stroke:#000000; stroke-linecap:round; stroke-linejoin:round; stroke-width:4; stroke-opacity:1; fill:none" points="
  307.703,1486.45 307.703,1467.55 
  "/>
<polyline clip-path="url(#clip380)" style="stroke:#000000; stroke-linecap:round; stroke-linejoin:round; stroke-width:4; stroke-opacity:1; fill:none" points="
  626.753,1486.45 626.753,1467.55 
  "/>
<polyline clip-path="url(#clip380)" style="stroke:#000000; stroke-linecap:round; stroke-linejoin:round; stroke-width:4; stroke-opacity:1; fill:none" points="
  945.802,1486.45 945.802,1467.55 
  "/>
<polyline clip-path="url(#clip380)" style="stroke:#000000; stroke-linecap:round; stroke-linejoin:round; stroke-width:4; stroke-opacity:1; fill:none" points="
  1264.85,1486.45 1264.85,1467.55 
  "/>
<polyline clip-path="url(#clip380)" style="stroke:#000000; stroke-linecap:round; stroke-linejoin:round; stroke-width:4; stroke-opacity:1; fill:none" points="
  1583.9,1486.45 1583.9,1467.55 
  "/>
<polyline clip-path="url(#clip380)" style="stroke:#000000; stroke-linecap:round; stroke-linejoin:round; stroke-width:4; stroke-opacity:1; fill:none" points="
  1902.95,1486.45 1902.95,1467.55 
  "/>
<polyline clip-path="url(#clip380)" style="stroke:#000000; stroke-linecap:round; stroke-linejoin:round; stroke-width:4; stroke-opacity:1; fill:none" points="
  2222,1486.45 2222,1467.55 
  "/>
<path clip-path="url(#clip380)" d="M277.171 1532.02 L306.846 1532.02 L306.846 1535.95 L277.171 1535.95 L277.171 1532.02 Z" fill="#000000" fill-rule="evenodd" fill-opacity="1" /><path clip-path="url(#clip380)" d="M331.106 1530.21 Q334.462 1530.93 336.337 1533.2 Q338.235 1535.47 338.235 1538.8 Q338.235 1543.92 334.717 1546.72 Q331.198 1549.52 324.717 1549.52 Q322.541 1549.52 320.226 1549.08 Q317.934 1548.66 315.481 1547.81 L315.481 1543.29 Q317.425 1544.43 319.74 1545.01 Q322.055 1545.58 324.578 1545.58 Q328.976 1545.58 331.268 1543.85 Q333.582 1542.11 333.582 1538.8 Q333.582 1535.75 331.43 1534.03 Q329.3 1532.3 325.481 1532.3 L321.453 1532.3 L321.453 1528.45 L325.666 1528.45 Q329.115 1528.45 330.943 1527.09 Q332.772 1525.7 332.772 1523.11 Q332.772 1520.45 330.874 1519.03 Q328.999 1517.6 325.481 1517.6 Q323.559 1517.6 321.36 1518.01 Q319.161 1518.43 316.522 1519.31 L316.522 1515.14 Q319.184 1514.4 321.499 1514.03 Q323.837 1513.66 325.897 1513.66 Q331.221 1513.66 334.323 1516.09 Q337.425 1518.5 337.425 1522.62 Q337.425 1525.49 335.781 1527.48 Q334.138 1529.45 331.106 1530.21 Z" fill="#000000" fill-rule="evenodd" fill-opacity="1" /><path clip-path="url(#clip380)" d="M596.695 1532.02 L626.371 1532.02 L626.371 1535.95 L596.695 1535.95 L596.695 1532.02 Z" fill="#000000" fill-rule="evenodd" fill-opacity="1" /><path clip-path="url(#clip380)" d="M640.491 1544.91 L656.81 1544.91 L656.81 1548.85 L634.866 1548.85 L634.866 1544.91 Q637.528 1542.16 642.111 1537.53 Q646.718 1532.88 647.898 1531.53 Q650.144 1529.01 651.023 1527.27 Q651.926 1525.51 651.926 1523.82 Q651.926 1521.07 649.982 1519.33 Q648.06 1517.6 644.958 1517.6 Q642.759 1517.6 640.306 1518.36 Q637.875 1519.13 635.097 1520.68 L635.097 1515.95 Q637.921 1514.82 640.375 1514.24 Q642.829 1513.66 644.866 1513.66 Q650.236 1513.66 653.431 1516.35 Q656.625 1519.03 656.625 1523.52 Q656.625 1525.65 655.815 1527.57 Q655.028 1529.47 652.921 1532.07 Q652.343 1532.74 649.241 1535.95 Q646.139 1539.15 640.491 1544.91 Z" fill="#000000" fill-rule="evenodd" fill-opacity="1" /><path clip-path="url(#clip380)" d="M915.559 1532.02 L945.235 1532.02 L945.235 1535.95 L915.559 1535.95 L915.559 1532.02 Z" fill="#000000" fill-rule="evenodd" fill-opacity="1" /><path clip-path="url(#clip380)" d="M956.138 1544.91 L963.777 1544.91 L963.777 1518.55 L955.466 1520.21 L955.466 1515.95 L963.73 1514.29 L968.406 1514.29 L968.406 1544.91 L976.045 1544.91 L976.045 1548.85 L956.138 1548.85 L956.138 1544.91 Z" fill="#000000" fill-rule="evenodd" fill-opacity="1" /><path clip-path="url(#clip380)" d="M1264.85 1517.37 Q1261.24 1517.37 1259.41 1520.93 Q1257.61 1524.47 1257.61 1531.6 Q1257.61 1538.71 1259.41 1542.27 Q1261.24 1545.82 1264.85 1545.82 Q1268.49 1545.82 1270.29 1542.27 Q1272.12 1538.71 1272.12 1531.6 Q1272.12 1524.47 1270.29 1520.93 Q1268.49 1517.37 1264.85 1517.37 M1264.85 1513.66 Q1270.66 1513.66 1273.72 1518.27 Q1276.8 1522.85 1276.8 1531.6 Q1276.8 1540.33 1273.72 1544.94 Q1270.66 1549.52 1264.85 1549.52 Q1259.04 1549.52 1255.96 1544.94 Q1252.91 1540.33 1252.91 1531.6 Q1252.91 1522.85 1255.96 1518.27 Q1259.04 1513.66 1264.85 1513.66 Z" fill="#000000" fill-rule="evenodd" fill-opacity="1" /><path clip-path="url(#clip380)" d="M1574.28 1544.91 L1581.92 1544.91 L1581.92 1518.55 L1573.61 1520.21 L1573.61 1515.95 L1581.88 1514.29 L1586.55 1514.29 L1586.55 1544.91 L1594.19 1544.91 L1594.19 1548.85 L1574.28 1548.85 L1574.28 1544.91 Z" fill="#000000" fill-rule="evenodd" fill-opacity="1" /><path clip-path="url(#clip380)" d="M1897.6 1544.91 L1913.92 1544.91 L1913.92 1548.85 L1891.98 1548.85 L1891.98 1544.91 Q1894.64 1542.16 1899.22 1537.53 Q1903.83 1532.88 1905.01 1531.53 Q1907.26 1529.01 1908.14 1527.27 Q1909.04 1525.51 1909.04 1523.82 Q1909.04 1521.07 1907.09 1519.33 Q1905.17 1517.6 1902.07 1517.6 Q1899.87 1517.6 1897.42 1518.36 Q1894.99 1519.13 1892.21 1520.68 L1892.21 1515.95 Q1895.03 1514.82 1897.49 1514.24 Q1899.94 1513.66 1901.98 1513.66 Q1907.35 1513.66 1910.54 1516.35 Q1913.74 1519.03 1913.74 1523.52 Q1913.74 1525.65 1912.93 1527.57 Q1912.14 1529.47 1910.03 1532.07 Q1909.46 1532.74 1906.35 1535.95 Q1903.25 1539.15 1897.6 1544.91 Z" fill="#000000" fill-rule="evenodd" fill-opacity="1" /><path clip-path="url(#clip380)" d="M2226.25 1530.21 Q2229.6 1530.93 2231.48 1533.2 Q2233.38 1535.47 2233.38 1538.8 Q2233.38 1543.92 2229.86 1546.72 Q2226.34 1549.52 2219.86 1549.52 Q2217.68 1549.52 2215.37 1549.08 Q2213.08 1548.66 2210.62 1547.81 L2210.62 1543.29 Q2212.57 1544.43 2214.88 1545.01 Q2217.2 1545.58 2219.72 1545.58 Q2224.12 1545.58 2226.41 1543.85 Q2228.73 1542.11 2228.73 1538.8 Q2228.73 1535.75 2226.57 1534.03 Q2224.44 1532.3 2220.62 1532.3 L2216.6 1532.3 L2216.6 1528.45 L2220.81 1528.45 Q2224.26 1528.45 2226.09 1527.09 Q2227.92 1525.7 2227.92 1523.11 Q2227.92 1520.45 2226.02 1519.03 Q2224.14 1517.6 2220.62 1517.6 Q2218.7 1517.6 2216.5 1518.01 Q2214.3 1518.43 2211.67 1519.31 L2211.67 1515.14 Q2214.33 1514.4 2216.64 1514.03 Q2218.98 1513.66 2221.04 1513.66 Q2226.36 1513.66 2229.47 1516.09 Q2232.57 1518.5 2232.57 1522.62 Q2232.57 1525.49 2230.92 1527.48 Q2229.28 1529.45 2226.25 1530.21 Z" fill="#000000" fill-rule="evenodd" fill-opacity="1" /><polyline clip-path="url(#clip382)" style="stroke:#000000; stroke-linecap:round; stroke-linejoin:round; stroke-width:2; stroke-opacity:0.1; fill:none" points="
  192.941,1329.86 2352.76,1329.86 
  "/>
<polyline clip-path="url(#clip382)" style="stroke:#000000; stroke-linecap:round; stroke-linejoin:round; stroke-width:2; stroke-opacity:0.1; fill:none" points="
  192.941,1146.17 2352.76,1146.17 
  "/>
<polyline clip-path="url(#clip382)" style="stroke:#000000; stroke-linecap:round; stroke-linejoin:round; stroke-width:2; stroke-opacity:0.1; fill:none" points="
  192.941,962.475 2352.76,962.475 
  "/>
<polyline clip-path="url(#clip382)" style="stroke:#000000; stroke-linecap:round; stroke-linejoin:round; stroke-width:2; stroke-opacity:0.1; fill:none" points="
  192.941,778.783 2352.76,778.783 
  "/>
<polyline clip-path="url(#clip382)" style="stroke:#000000; stroke-linecap:round; stroke-linejoin:round; stroke-width:2; stroke-opacity:0.1; fill:none" points="
  192.941,595.09 2352.76,595.09 
  "/>
<polyline clip-path="url(#clip382)" style="stroke:#000000; stroke-linecap:round; stroke-linejoin:round; stroke-width:2; stroke-opacity:0.1; fill:none" points="
  192.941,411.398 2352.76,411.398 
  "/>
<polyline clip-path="url(#clip382)" style="stroke:#000000; stroke-linecap:round; stroke-linejoin:round; stroke-width:2; stroke-opacity:0.1; fill:none" points="
  192.941,227.705 2352.76,227.705 
  "/>
<polyline clip-path="url(#clip380)" style="stroke:#000000; stroke-linecap:round; stroke-linejoin:round; stroke-width:4; stroke-opacity:1; fill:none" points="
  192.941,1486.45 192.941,47.2441 
  "/>
<polyline clip-path="url(#clip380)" style="stroke:#000000; stroke-linecap:round; stroke-linejoin:round; stroke-width:4; stroke-opacity:1; fill:none" points="
  192.941,1329.86 211.838,1329.86 
  "/>
<polyline clip-path="url(#clip380)" style="stroke:#000000; stroke-linecap:round; stroke-linejoin:round; stroke-width:4; stroke-opacity:1; fill:none" points="
  192.941,1146.17 211.838,1146.17 
  "/>
<polyline clip-path="url(#clip380)" style="stroke:#000000; stroke-linecap:round; stroke-linejoin:round; stroke-width:4; stroke-opacity:1; fill:none" points="
  192.941,962.475 211.838,962.475 
  "/>
<polyline clip-path="url(#clip380)" style="stroke:#000000; stroke-linecap:round; stroke-linejoin:round; stroke-width:4; stroke-opacity:1; fill:none" points="
  192.941,778.783 211.838,778.783 
  "/>
<polyline clip-path="url(#clip380)" style="stroke:#000000; stroke-linecap:round; stroke-linejoin:round; stroke-width:4; stroke-opacity:1; fill:none" points="
  192.941,595.09 211.838,595.09 
  "/>
<polyline clip-path="url(#clip380)" style="stroke:#000000; stroke-linecap:round; stroke-linejoin:round; stroke-width:4; stroke-opacity:1; fill:none" points="
  192.941,411.398 211.838,411.398 
  "/>
<polyline clip-path="url(#clip380)" style="stroke:#000000; stroke-linecap:round; stroke-linejoin:round; stroke-width:4; stroke-opacity:1; fill:none" points="
  192.941,227.705 211.838,227.705 
  "/>
<path clip-path="url(#clip380)" d="M50.9921 1330.31 L80.6679 1330.31 L80.6679 1334.25 L50.9921 1334.25 L50.9921 1330.31 Z" fill="#000000" fill-rule="evenodd" fill-opacity="1" /><path clip-path="url(#clip380)" d="M100.76 1315.66 Q97.1493 1315.66 95.3206 1319.22 Q93.515 1322.77 93.515 1329.89 Q93.515 1337 95.3206 1340.57 Q97.1493 1344.11 100.76 1344.11 Q104.395 1344.11 106.2 1340.57 Q108.029 1337 108.029 1329.89 Q108.029 1322.77 106.2 1319.22 Q104.395 1315.66 100.76 1315.66 M100.76 1311.96 Q106.571 1311.96 109.626 1316.56 Q112.705 1321.14 112.705 1329.89 Q112.705 1338.62 109.626 1343.23 Q106.571 1347.81 100.76 1347.81 Q94.9502 1347.81 91.8715 1343.23 Q88.816 1338.62 88.816 1329.89 Q88.816 1321.14 91.8715 1316.56 Q94.9502 1311.96 100.76 1311.96 Z" fill="#000000" fill-rule="evenodd" fill-opacity="1" /><path clip-path="url(#clip380)" d="M120.922 1341.26 L125.807 1341.26 L125.807 1347.14 L120.922 1347.14 L120.922 1341.26 Z" fill="#000000" fill-rule="evenodd" fill-opacity="1" /><path clip-path="url(#clip380)" d="M136.038 1312.58 L154.394 1312.58 L154.394 1316.52 L140.32 1316.52 L140.32 1324.99 Q141.339 1324.64 142.357 1324.48 Q143.376 1324.29 144.394 1324.29 Q150.181 1324.29 153.561 1327.46 Q156.941 1330.64 156.941 1336.05 Q156.941 1341.63 153.468 1344.73 Q149.996 1347.81 143.677 1347.81 Q141.501 1347.81 139.232 1347.44 Q136.987 1347.07 134.58 1346.33 L134.58 1341.63 Q136.663 1342.77 138.885 1343.32 Q141.107 1343.88 143.584 1343.88 Q147.589 1343.88 149.927 1341.77 Q152.265 1339.66 152.265 1336.05 Q152.265 1332.44 149.927 1330.33 Q147.589 1328.23 143.584 1328.23 Q141.709 1328.23 139.834 1328.64 Q137.982 1329.06 136.038 1329.94 L136.038 1312.58 Z" fill="#000000" fill-rule="evenodd" fill-opacity="1" /><path clip-path="url(#clip380)" d="M99.765 1131.97 Q96.1539 1131.97 94.3252 1135.53 Q92.5197 1139.07 92.5197 1146.2 Q92.5197 1153.31 94.3252 1156.87 Q96.1539 1160.42 99.765 1160.42 Q103.399 1160.42 105.205 1156.87 Q107.033 1153.31 107.033 1146.2 Q107.033 1139.07 105.205 1135.53 Q103.399 1131.97 99.765 1131.97 M99.765 1128.26 Q105.575 1128.26 108.631 1132.87 Q111.709 1137.45 111.709 1146.2 Q111.709 1154.93 108.631 1159.54 Q105.575 1164.12 99.765 1164.12 Q93.9549 1164.12 90.8762 1159.54 Q87.8206 1154.93 87.8206 1146.2 Q87.8206 1137.45 90.8762 1132.87 Q93.9549 1128.26 99.765 1128.26 Z" fill="#000000" fill-rule="evenodd" fill-opacity="1" /><path clip-path="url(#clip380)" d="M119.927 1157.57 L124.811 1157.57 L124.811 1163.45 L119.927 1163.45 L119.927 1157.57 Z" fill="#000000" fill-rule="evenodd" fill-opacity="1" /><path clip-path="url(#clip380)" d="M144.996 1131.97 Q141.385 1131.97 139.556 1135.53 Q137.751 1139.07 137.751 1146.2 Q137.751 1153.31 139.556 1156.87 Q141.385 1160.42 144.996 1160.42 Q148.63 1160.42 150.436 1156.87 Q152.265 1153.31 152.265 1146.2 Q152.265 1139.07 150.436 1135.53 Q148.63 1131.97 144.996 1131.97 M144.996 1128.26 Q150.806 1128.26 153.862 1132.87 Q156.941 1137.45 156.941 1146.2 Q156.941 1154.93 153.862 1159.54 Q150.806 1164.12 144.996 1164.12 Q139.186 1164.12 136.107 1159.54 Q133.052 1154.93 133.052 1146.2 Q133.052 1137.45 136.107 1132.87 Q139.186 1128.26 144.996 1128.26 Z" fill="#000000" fill-rule="evenodd" fill-opacity="1" /><path clip-path="url(#clip380)" d="M100.76 948.274 Q97.1493 948.274 95.3206 951.839 Q93.515 955.38 93.515 962.51 Q93.515 969.616 95.3206 973.181 Q97.1493 976.723 100.76 976.723 Q104.395 976.723 106.2 973.181 Q108.029 969.616 108.029 962.51 Q108.029 955.38 106.2 951.839 Q104.395 948.274 100.76 948.274 M100.76 944.57 Q106.571 944.57 109.626 949.177 Q112.705 953.76 112.705 962.51 Q112.705 971.237 109.626 975.843 Q106.571 980.427 100.76 980.427 Q94.9502 980.427 91.8715 975.843 Q88.816 971.237 88.816 962.51 Q88.816 953.76 91.8715 949.177 Q94.9502 944.57 100.76 944.57 Z" fill="#000000" fill-rule="evenodd" fill-opacity="1" /><path clip-path="url(#clip380)" d="M120.922 973.876 L125.807 973.876 L125.807 979.755 L120.922 979.755 L120.922 973.876 Z" fill="#000000" fill-rule="evenodd" fill-opacity="1" /><path clip-path="url(#clip380)" d="M136.038 945.195 L154.394 945.195 L154.394 949.13 L140.32 949.13 L140.32 957.603 Q141.339 957.255 142.357 957.093 Q143.376 956.908 144.394 956.908 Q150.181 956.908 153.561 960.079 Q156.941 963.251 156.941 968.667 Q156.941 974.246 153.468 977.348 Q149.996 980.427 143.677 980.427 Q141.501 980.427 139.232 980.056 Q136.987 979.686 134.58 978.945 L134.58 974.246 Q136.663 975.38 138.885 975.936 Q141.107 976.491 143.584 976.491 Q147.589 976.491 149.927 974.385 Q152.265 972.278 152.265 968.667 Q152.265 965.056 149.927 962.95 Q147.589 960.843 143.584 960.843 Q141.709 960.843 139.834 961.26 Q137.982 961.677 136.038 962.556 L136.038 945.195 Z" fill="#000000" fill-rule="evenodd" fill-opacity="1" /><path clip-path="url(#clip380)" d="M90.5752 792.128 L98.2141 792.128 L98.2141 765.762 L89.904 767.429 L89.904 763.169 L98.1678 761.503 L102.844 761.503 L102.844 792.128 L110.483 792.128 L110.483 796.063 L90.5752 796.063 L90.5752 792.128 Z" fill="#000000" fill-rule="evenodd" fill-opacity="1" /><path clip-path="url(#clip380)" d="M119.927 790.183 L124.811 790.183 L124.811 796.063 L119.927 796.063 L119.927 790.183 Z" fill="#000000" fill-rule="evenodd" fill-opacity="1" /><path clip-path="url(#clip380)" d="M144.996 764.581 Q141.385 764.581 139.556 768.146 Q137.751 771.688 137.751 778.818 Q137.751 785.924 139.556 789.489 Q141.385 793.03 144.996 793.03 Q148.63 793.03 150.436 789.489 Q152.265 785.924 152.265 778.818 Q152.265 771.688 150.436 768.146 Q148.63 764.581 144.996 764.581 M144.996 760.878 Q150.806 760.878 153.862 765.484 Q156.941 770.068 156.941 778.818 Q156.941 787.544 153.862 792.151 Q150.806 796.734 144.996 796.734 Q139.186 796.734 136.107 792.151 Q133.052 787.544 133.052 778.818 Q133.052 770.068 136.107 765.484 Q139.186 760.878 144.996 760.878 Z" fill="#000000" fill-rule="evenodd" fill-opacity="1" /><path clip-path="url(#clip380)" d="M91.5706 608.435 L99.2095 608.435 L99.2095 582.07 L90.8993 583.736 L90.8993 579.477 L99.1632 577.81 L103.839 577.81 L103.839 608.435 L111.478 608.435 L111.478 612.37 L91.5706 612.37 L91.5706 608.435 Z" fill="#000000" fill-rule="evenodd" fill-opacity="1" /><path clip-path="url(#clip380)" d="M120.922 606.491 L125.807 606.491 L125.807 612.37 L120.922 612.37 L120.922 606.491 Z" fill="#000000" fill-rule="evenodd" fill-opacity="1" /><path clip-path="url(#clip380)" d="M136.038 577.81 L154.394 577.81 L154.394 581.746 L140.32 581.746 L140.32 590.218 Q141.339 589.87 142.357 589.708 Q143.376 589.523 144.394 589.523 Q150.181 589.523 153.561 592.695 Q156.941 595.866 156.941 601.282 Q156.941 606.861 153.468 609.963 Q149.996 613.042 143.677 613.042 Q141.501 613.042 139.232 612.671 Q136.987 612.301 134.58 611.56 L134.58 606.861 Q136.663 607.995 138.885 608.551 Q141.107 609.106 143.584 609.106 Q147.589 609.106 149.927 607 Q152.265 604.894 152.265 601.282 Q152.265 597.671 149.927 595.565 Q147.589 593.458 143.584 593.458 Q141.709 593.458 139.834 593.875 Q137.982 594.292 136.038 595.171 L136.038 577.81 Z" fill="#000000" fill-rule="evenodd" fill-opacity="1" /><path clip-path="url(#clip380)" d="M93.7928 424.743 L110.112 424.743 L110.112 428.678 L88.1679 428.678 L88.1679 424.743 Q90.8299 421.988 95.4132 417.359 Q100.02 412.706 101.2 411.363 Q103.446 408.84 104.325 407.104 Q105.228 405.345 105.228 403.655 Q105.228 400.9 103.284 399.164 Q101.362 397.428 98.2604 397.428 Q96.0613 397.428 93.6076 398.192 Q91.1771 398.956 88.3993 400.507 L88.3993 395.785 Q91.2234 394.65 93.6771 394.072 Q96.1308 393.493 98.1678 393.493 Q103.538 393.493 106.733 396.178 Q109.927 398.863 109.927 403.354 Q109.927 405.484 109.117 407.405 Q108.33 409.303 106.223 411.896 Q105.645 412.567 102.543 415.784 Q99.4409 418.979 93.7928 424.743 Z" fill="#000000" fill-rule="evenodd" fill-opacity="1" /><path clip-path="url(#clip380)" d="M119.927 422.798 L124.811 422.798 L124.811 428.678 L119.927 428.678 L119.927 422.798 Z" fill="#000000" fill-rule="evenodd" fill-opacity="1" /><path clip-path="url(#clip380)" d="M144.996 397.197 Q141.385 397.197 139.556 400.761 Q137.751 404.303 137.751 411.433 Q137.751 418.539 139.556 422.104 Q141.385 425.646 144.996 425.646 Q148.63 425.646 150.436 422.104 Q152.265 418.539 152.265 411.433 Q152.265 404.303 150.436 400.761 Q148.63 397.197 144.996 397.197 M144.996 393.493 Q150.806 393.493 153.862 398.099 Q156.941 402.683 156.941 411.433 Q156.941 420.159 153.862 424.766 Q150.806 429.349 144.996 429.349 Q139.186 429.349 136.107 424.766 Q133.052 420.159 133.052 411.433 Q133.052 402.683 136.107 398.099 Q139.186 393.493 144.996 393.493 Z" fill="#000000" fill-rule="evenodd" fill-opacity="1" /><path clip-path="url(#clip380)" d="M94.7882 241.05 L111.108 241.05 L111.108 244.985 L89.1632 244.985 L89.1632 241.05 Q91.8252 238.296 96.4085 233.666 Q101.015 229.013 102.196 227.671 Q104.441 225.148 105.321 223.412 Q106.223 221.652 106.223 219.962 Q106.223 217.208 104.279 215.472 Q102.358 213.736 99.2558 213.736 Q97.0567 213.736 94.603 214.5 Q92.1725 215.263 89.3947 216.814 L89.3947 212.092 Q92.2188 210.958 94.6724 210.379 Q97.1261 209.8 99.1632 209.8 Q104.534 209.8 107.728 212.486 Q110.922 215.171 110.922 219.662 Q110.922 221.791 110.112 223.712 Q109.325 225.611 107.219 228.203 Q106.64 228.874 103.538 232.092 Q100.436 235.286 94.7882 241.05 Z" fill="#000000" fill-rule="evenodd" fill-opacity="1" /><path clip-path="url(#clip380)" d="M120.922 239.106 L125.807 239.106 L125.807 244.985 L120.922 244.985 L120.922 239.106 Z" fill="#000000" fill-rule="evenodd" fill-opacity="1" /><path clip-path="url(#clip380)" d="M136.038 210.425 L154.394 210.425 L154.394 214.361 L140.32 214.361 L140.32 222.833 Q141.339 222.486 142.357 222.324 Q143.376 222.138 144.394 222.138 Q150.181 222.138 153.561 225.31 Q156.941 228.481 156.941 233.898 Q156.941 239.476 153.468 242.578 Q149.996 245.657 143.677 245.657 Q141.501 245.657 139.232 245.286 Q136.987 244.916 134.58 244.175 L134.58 239.476 Q136.663 240.61 138.885 241.166 Q141.107 241.722 143.584 241.722 Q147.589 241.722 149.927 239.615 Q152.265 237.509 152.265 233.898 Q152.265 230.286 149.927 228.18 Q147.589 226.074 143.584 226.074 Q141.709 226.074 139.834 226.49 Q137.982 226.907 136.038 227.786 L136.038 210.425 Z" fill="#000000" fill-rule="evenodd" fill-opacity="1" /><circle clip-path="url(#clip382)" cx="2193.23" cy="788.406" r="14.4" fill="#e69f00" fill-rule="evenodd" fill-opacity="1" stroke="#000000" stroke-opacity="1" stroke-width="3.2"/>
<circle clip-path="url(#clip382)" cx="1106.73" cy="1090.74" r="14.4" fill="#e69f00" fill-rule="evenodd" fill-opacity="1" stroke="#000000" stroke-opacity="1" stroke-width="3.2"/>
<circle clip-path="url(#clip382)" cx="445.272" cy="756.955" r="14.4" fill="#e69f00" fill-rule="evenodd" fill-opacity="1" stroke="#000000" stroke-opacity="1" stroke-width="3.2"/>
<circle clip-path="url(#clip382)" cx="1499" cy="1039.45" r="14.4" fill="#e69f00" fill-rule="evenodd" fill-opacity="1" stroke="#000000" stroke-opacity="1" stroke-width="3.2"/>
<circle clip-path="url(#clip382)" cx="1412.74" cy="1243.97" r="14.4" fill="#e69f00" fill-rule="evenodd" fill-opacity="1" stroke="#000000" stroke-opacity="1" stroke-width="3.2"/>
<circle clip-path="url(#clip382)" cx="957.239" cy="884.478" r="14.4" fill="#e69f00" fill-rule="evenodd" fill-opacity="1" stroke="#000000" stroke-opacity="1" stroke-width="3.2"/>
<circle clip-path="url(#clip382)" cx="669.225" cy="552.956" r="14.4" fill="#e69f00" fill-rule="evenodd" fill-opacity="1" stroke="#000000" stroke-opacity="1" stroke-width="3.2"/>
<circle clip-path="url(#clip382)" cx="560.997" cy="710.335" r="14.4" fill="#e69f00" fill-rule="evenodd" fill-opacity="1" stroke="#000000" stroke-opacity="1" stroke-width="3.2"/>
<circle clip-path="url(#clip382)" cx="1384.66" cy="880.797" r="14.4" fill="#e69f00" fill-rule="evenodd" fill-opacity="1" stroke="#000000" stroke-opacity="1" stroke-width="3.2"/>
<circle clip-path="url(#clip382)" cx="1053.5" cy="1047.42" r="14.4" fill="#e69f00" fill-rule="evenodd" fill-opacity="1" stroke="#000000" stroke-opacity="1" stroke-width="3.2"/>
<circle clip-path="url(#clip382)" cx="1655.06" cy="1302.76" r="14.4" fill="#e69f00" fill-rule="evenodd" fill-opacity="1" stroke="#000000" stroke-opacity="1" stroke-width="3.2"/>
<circle clip-path="url(#clip382)" cx="1947.3" cy="315.082" r="14.4" fill="#e69f00" fill-rule="evenodd" fill-opacity="1" stroke="#000000" stroke-opacity="1" stroke-width="3.2"/>
<circle clip-path="url(#clip382)" cx="393.241" cy="408.275" r="14.4" fill="#e69f00" fill-rule="evenodd" fill-opacity="1" stroke="#000000" stroke-opacity="1" stroke-width="3.2"/>
<circle clip-path="url(#clip382)" cx="1139.37" cy="1053.98" r="14.4" fill="#e69f00" fill-rule="evenodd" fill-opacity="1" stroke="#000000" stroke-opacity="1" stroke-width="3.2"/>
<circle clip-path="url(#clip382)" cx="973.902" cy="935.123" r="14.4" fill="#e69f00" fill-rule="evenodd" fill-opacity="1" stroke="#000000" stroke-opacity="1" stroke-width="3.2"/>
<circle clip-path="url(#clip382)" cx="581.461" cy="376.291" r="14.4" fill="#e69f00" fill-rule="evenodd" fill-opacity="1" stroke="#000000" stroke-opacity="1" stroke-width="3.2"/>
<circle clip-path="url(#clip382)" cx="1066.03" cy="1215.17" r="14.4" fill="#e69f00" fill-rule="evenodd" fill-opacity="1" stroke="#000000" stroke-opacity="1" stroke-width="3.2"/>
<circle clip-path="url(#clip382)" cx="1660.85" cy="974.17" r="14.4" fill="#e69f00" fill-rule="evenodd" fill-opacity="1" stroke="#000000" stroke-opacity="1" stroke-width="3.2"/>
<circle clip-path="url(#clip382)" cx="1721.55" cy="602.593" r="14.4" fill="#e69f00" fill-rule="evenodd" fill-opacity="1" stroke="#000000" stroke-opacity="1" stroke-width="3.2"/>
<circle clip-path="url(#clip382)" cx="658.931" cy="244.269" r="14.4" fill="#e69f00" fill-rule="evenodd" fill-opacity="1" stroke="#000000" stroke-opacity="1" stroke-width="3.2"/>
<circle clip-path="url(#clip382)" cx="576.205" cy="565.973" r="14.4" fill="#e69f00" fill-rule="evenodd" fill-opacity="1" stroke="#000000" stroke-opacity="1" stroke-width="3.2"/>
<circle clip-path="url(#clip382)" cx="916.989" cy="610.912" r="14.4" fill="#e69f00" fill-rule="evenodd" fill-opacity="1" stroke="#000000" stroke-opacity="1" stroke-width="3.2"/>
<circle clip-path="url(#clip382)" cx="635.719" cy="351.487" r="14.4" fill="#e69f00" fill-rule="evenodd" fill-opacity="1" stroke="#000000" stroke-opacity="1" stroke-width="3.2"/>
<circle clip-path="url(#clip382)" cx="1473.2" cy="858.961" r="14.4" fill="#e69f00" fill-rule="evenodd" fill-opacity="1" stroke="#000000" stroke-opacity="1" stroke-width="3.2"/>
<circle clip-path="url(#clip382)" cx="1834.61" cy="580.989" r="14.4" fill="#e69f00" fill-rule="evenodd" fill-opacity="1" stroke="#000000" stroke-opacity="1" stroke-width="3.2"/>
<circle clip-path="url(#clip382)" cx="2064.91" cy="447.854" r="14.4" fill="#e69f00" fill-rule="evenodd" fill-opacity="1" stroke="#000000" stroke-opacity="1" stroke-width="3.2"/>
<circle clip-path="url(#clip382)" cx="2051.24" cy="643.679" r="14.4" fill="#e69f00" fill-rule="evenodd" fill-opacity="1" stroke="#000000" stroke-opacity="1" stroke-width="3.2"/>
<circle clip-path="url(#clip382)" cx="1653" cy="644.761" r="14.4" fill="#e69f00" fill-rule="evenodd" fill-opacity="1" stroke="#000000" stroke-opacity="1" stroke-width="3.2"/>
<circle clip-path="url(#clip382)" cx="352.465" cy="860.3" r="14.4" fill="#e69f00" fill-rule="evenodd" fill-opacity="1" stroke="#000000" stroke-opacity="1" stroke-width="3.2"/>
<circle clip-path="url(#clip382)" cx="1839.69" cy="575.763" r="14.4" fill="#e69f00" fill-rule="evenodd" fill-opacity="1" stroke="#000000" stroke-opacity="1" stroke-width="3.2"/>
<circle clip-path="url(#clip382)" cx="1437.65" cy="852.347" r="14.4" fill="#e69f00" fill-rule="evenodd" fill-opacity="1" stroke="#000000" stroke-opacity="1" stroke-width="3.2"/>
<circle clip-path="url(#clip382)" cx="1835.05" cy="589.221" r="14.4" fill="#e69f00" fill-rule="evenodd" fill-opacity="1" stroke="#000000" stroke-opacity="1" stroke-width="3.2"/>
<circle clip-path="url(#clip382)" cx="1290.03" cy="1219.87" r="14.4" fill="#e69f00" fill-rule="evenodd" fill-opacity="1" stroke="#000000" stroke-opacity="1" stroke-width="3.2"/>
<circle clip-path="url(#clip382)" cx="1799.61" cy="451.185" r="14.4" fill="#e69f00" fill-rule="evenodd" fill-opacity="1" stroke="#000000" stroke-opacity="1" stroke-width="3.2"/>
<circle clip-path="url(#clip382)" cx="1723.99" cy="675.161" r="14.4" fill="#e69f00" fill-rule="evenodd" fill-opacity="1" stroke="#000000" stroke-opacity="1" stroke-width="3.2"/>
<circle clip-path="url(#clip382)" cx="426.478" cy="1018.9" r="14.4" fill="#e69f00" fill-rule="evenodd" fill-opacity="1" stroke="#000000" stroke-opacity="1" stroke-width="3.2"/>
<circle clip-path="url(#clip382)" cx="1635.62" cy="1048.84" r="14.4" fill="#e69f00" fill-rule="evenodd" fill-opacity="1" stroke="#000000" stroke-opacity="1" stroke-width="3.2"/>
<circle clip-path="url(#clip382)" cx="640.021" cy="230.937" r="14.4" fill="#e69f00" fill-rule="evenodd" fill-opacity="1" stroke="#000000" stroke-opacity="1" stroke-width="3.2"/>
<circle clip-path="url(#clip382)" cx="774.174" cy="640.568" r="14.4" fill="#e69f00" fill-rule="evenodd" fill-opacity="1" stroke="#000000" stroke-opacity="1" stroke-width="3.2"/>
<circle clip-path="url(#clip382)" cx="2030.92" cy="882.027" r="14.4" fill="#e69f00" fill-rule="evenodd" fill-opacity="1" stroke="#000000" stroke-opacity="1" stroke-width="3.2"/>
<circle clip-path="url(#clip382)" cx="984.572" cy="833.808" r="14.4" fill="#e69f00" fill-rule="evenodd" fill-opacity="1" stroke="#000000" stroke-opacity="1" stroke-width="3.2"/>
<circle clip-path="url(#clip382)" cx="2088.98" cy="824.669" r="14.4" fill="#e69f00" fill-rule="evenodd" fill-opacity="1" stroke="#000000" stroke-opacity="1" stroke-width="3.2"/>
<circle clip-path="url(#clip382)" cx="980.499" cy="792.687" r="14.4" fill="#e69f00" fill-rule="evenodd" fill-opacity="1" stroke="#000000" stroke-opacity="1" stroke-width="3.2"/>
<circle clip-path="url(#clip382)" cx="1030.33" cy="1281.58" r="14.4" fill="#e69f00" fill-rule="evenodd" fill-opacity="1" stroke="#000000" stroke-opacity="1" stroke-width="3.2"/>
<circle clip-path="url(#clip382)" cx="1408.76" cy="1081.23" r="14.4" fill="#e69f00" fill-rule="evenodd" fill-opacity="1" stroke="#000000" stroke-opacity="1" stroke-width="3.2"/>
<circle clip-path="url(#clip382)" cx="1221.49" cy="1159.18" r="14.4" fill="#e69f00" fill-rule="evenodd" fill-opacity="1" stroke="#000000" stroke-opacity="1" stroke-width="3.2"/>
<circle clip-path="url(#clip382)" cx="1738.11" cy="675.538" r="14.4" fill="#e69f00" fill-rule="evenodd" fill-opacity="1" stroke="#000000" stroke-opacity="1" stroke-width="3.2"/>
<circle clip-path="url(#clip382)" cx="508.351" cy="514.663" r="14.4" fill="#e69f00" fill-rule="evenodd" fill-opacity="1" stroke="#000000" stroke-opacity="1" stroke-width="3.2"/>
<circle clip-path="url(#clip382)" cx="603.053" cy="770.472" r="14.4" fill="#e69f00" fill-rule="evenodd" fill-opacity="1" stroke="#000000" stroke-opacity="1" stroke-width="3.2"/>
<circle clip-path="url(#clip382)" cx="1006.07" cy="1090.97" r="14.4" fill="#e69f00" fill-rule="evenodd" fill-opacity="1" stroke="#000000" stroke-opacity="1" stroke-width="3.2"/>
<path clip-path="url(#clip382)" d="
M192.941 1320.82 L237.018 1320.82 L281.096 1320.82 L325.174 1320.82 L369.252 1259.03 L413.33 1244.12 L457.408 1108.86 L501.486 1055.22 L545.564 1048.07 L589.641 1048.07 
  L633.719 1055.22 L677.797 1085.87 L721.875 1094.84 L765.953 1098.01 L810.031 1120.18 L854.109 1151.61 L898.186 1154.6 L942.264 1273.26 L986.342 1324.46 L1030.42 1365.21 
  L1074.5 1377.85 L1118.58 1420.25 L1162.65 1420.25 L1206.73 1420.25 L1250.81 1420.25 L1294.89 1420.25 L1338.97 1420.25 L1383.04 1420.25 L1427.12 1412.41 L1471.2 1326.78 
  L1515.28 1284.5 L1559.35 1254.07 L1603.43 1207.94 L1647.51 1171.38 L1691.59 1118.23 L1735.67 1077.92 L1779.74 1077.92 L1823.82 1086.66 L1867.9 1077.92 L1911.98 1066.34 
  L1956.06 984.877 L2000.13 995.639 L2044.21 1014.83 L2088.29 1125.6 L2132.37 1213.3 L2176.44 1304.48 L2220.52 1312.56 L2264.6 1312.56 L2308.68 1312.56 L2352.76 1312.56 
  L2352.76 479.423 L2308.68 479.423 L2264.6 479.423 L2220.52 479.423 L2176.44 456.461 L2132.37 379.809 L2088.29 273.369 L2044.21 194.518 L2000.13 158.427 L1956.06 158.427 
  L1911.98 205.051 L1867.9 244.4 L1823.82 250.649 L1779.74 250.878 L1735.67 250.878 L1691.59 265.924 L1647.51 340.492 L1603.43 358.278 L1559.35 436.704 L1515.28 457.517 
  L1471.2 481.894 L1427.12 564.619 L1383.04 590.066 L1338.97 590.066 L1294.89 590.066 L1250.81 590.066 L1206.73 590.066 L1162.65 590.066 L1118.58 590.066 L1074.5 540.433 
  L1030.42 540.344 L986.342 482.38 L942.264 419.632 L898.186 326.974 L854.109 311.196 L810.031 272.153 L765.953 258.298 L721.875 250.624 L677.797 249.657 L633.719 222.998 
  L589.641 217.723 L545.564 217.723 L501.486 217.723 L457.408 241.194 L413.33 330.563 L369.252 382.099 L325.174 492.124 L281.096 492.124 L237.018 492.124 L192.941 492.124 
   Z
  " fill="#56b4e9" fill-rule="evenodd" fill-opacity="0.5"/>
<polyline clip-path="url(#clip382)" style="stroke:#56b4e9; stroke-linecap:round; stroke-linejoin:round; stroke-width:16; stroke-opacity:1; fill:none" points="
  192.941,906.472 237.018,906.472 281.096,906.472 325.174,906.472 369.252,820.563 413.33,787.342 457.408,675.025 501.486,636.472 545.564,632.895 589.641,632.895 
  633.719,639.11 677.797,667.764 721.875,672.731 765.953,678.153 810.031,696.167 854.109,731.405 898.186,740.788 942.264,846.448 986.342,903.419 1030.42,952.778 
  1074.5,959.14 1118.58,1005.16 1162.65,1005.16 1206.73,1005.16 1250.81,1005.16 1294.89,1005.16 1338.97,1005.16 1383.04,1005.16 1427.12,988.513 1471.2,904.336 
  1515.28,871.01 1559.35,845.389 1603.43,783.109 1647.51,755.938 1691.59,692.077 1735.67,664.4 1779.74,664.4 1823.82,668.654 1867.9,661.161 1911.98,635.693 
  1956.06,571.652 2000.13,577.033 2044.21,604.676 2088.29,699.484 2132.37,796.554 2176.44,880.469 2220.52,895.993 2264.6,895.993 2308.68,895.993 2352.76,895.993 
  
  "/>
<polyline clip-path="url(#clip382)" style="stroke:#000000; stroke-linecap:round; stroke-linejoin:round; stroke-width:4; stroke-opacity:1; fill:none" stroke-dasharray="16, 10" points="
  148.178,1597.22 151.907,1581.66 155.635,1566.13 159.363,1550.64 163.092,1535.2 166.82,1519.79 170.549,1504.43 174.277,1489.11 178.006,1473.85 181.734,1458.64 
  185.463,1443.48 189.191,1428.38 192.92,1413.33 196.648,1398.35 200.376,1383.44 204.105,1368.59 207.833,1353.8 211.562,1339.09 215.29,1324.45 219.019,1309.89 
  222.747,1295.4 226.476,1280.99 230.204,1266.66 233.933,1252.42 237.661,1238.26 241.39,1224.19 245.118,1210.21 248.846,1196.32 252.575,1182.52 256.303,1168.82 
  260.032,1155.22 263.76,1141.71 267.489,1128.31 271.217,1115.01 274.946,1101.81 278.674,1088.72 282.403,1075.74 286.131,1062.87 289.86,1050.11 293.588,1037.46 
  297.316,1024.93 301.045,1012.51 304.773,1000.21 308.502,988.032 312.23,975.973 315.959,964.037 319.687,952.225 323.416,940.537 327.144,928.977 330.873,917.544 
  334.601,906.241 338.33,895.068 342.058,884.027 345.786,873.119 349.515,862.345 353.243,851.707 356.972,841.205 360.7,830.841 364.429,820.615 368.157,810.53 
  371.886,800.585 375.614,790.781 379.343,781.121 383.071,771.604 386.799,762.231 390.528,753.003 394.256,743.922 397.985,734.987 401.713,726.2 405.442,717.562 
  409.17,709.072 412.899,700.732 416.627,692.542 420.356,684.503 424.084,676.615 427.813,668.88 431.541,661.296 435.269,653.865 438.998,646.588 442.726,639.464 
  446.455,632.494 450.183,625.679 453.912,619.018 457.64,612.512 461.369,606.16 465.097,599.964 468.826,593.924 472.554,588.039 476.283,582.309 480.011,576.735 
  483.739,571.317 487.468,566.055 491.196,560.948 494.925,555.997 498.653,551.201 502.382,546.561 506.11,542.075 509.839,537.745 513.567,533.57 517.296,529.549 
  521.024,525.682 524.753,521.969 528.481,518.41 532.209,515.004 535.938,511.75 539.666,508.649 543.395,505.7 547.123,502.903 550.852,500.256 554.58,497.759 
  558.309,495.412 562.037,493.214 565.766,491.165 569.494,489.263 573.223,487.509 576.951,485.901 580.679,484.438 584.408,483.121 588.136,481.947 591.865,480.916 
  595.593,480.028 599.322,479.281 603.05,478.675 606.779,478.208 610.507,477.88 614.236,477.69 617.964,477.636 621.692,477.718 625.421,477.934 629.149,478.283 
  632.878,478.765 636.606,479.378 640.335,480.121 644.063,480.993 647.792,481.992 651.52,483.118 655.249,484.369 658.977,485.743 662.706,487.24 666.434,488.859 
  670.162,490.597 673.891,492.454 677.619,494.428 681.348,496.517 685.076,498.721 688.805,501.038 692.533,503.467 696.262,506.005 699.99,508.652 703.719,511.405 
  707.447,514.265 711.176,517.228 714.904,520.293 718.632,523.459 722.361,526.724 726.089,530.087 729.818,533.546 733.546,537.099 737.275,540.745 741.003,544.482 
  744.732,548.308 748.46,552.221 752.189,556.221 755.917,560.304 759.646,564.471 763.374,568.717 767.102,573.043 770.831,577.446 774.559,581.925 778.288,586.477 
  782.016,591.101 785.745,595.795 789.473,600.557 793.202,605.385 796.93,610.279 800.659,615.235 804.387,620.251 808.115,625.327 811.844,630.46 815.572,635.649 
  819.301,640.891 823.029,646.184 826.758,651.527 830.486,656.918 834.215,662.356 837.943,667.837 841.672,673.36 845.4,678.924 849.129,684.525 852.857,690.164 
  856.585,695.837 860.314,701.543 864.042,707.279 867.771,713.045 871.499,718.837 875.228,724.655 878.956,730.495 882.685,736.357 886.413,742.239 890.142,748.138 
  893.87,754.052 897.599,759.981 901.327,765.921 905.055,771.871 908.784,777.829 912.512,783.793 916.241,789.762 919.969,795.733 923.698,801.705 927.426,807.676 
  931.155,813.644 934.883,819.607 938.612,825.563 942.34,831.51 946.069,837.448 949.797,843.373 953.525,849.284 957.254,855.18 960.982,861.058 964.711,866.917 
  968.439,872.754 972.168,878.57 975.896,884.36 979.625,890.125 983.353,895.861 987.082,901.568 990.81,907.244 994.538,912.887 998.267,918.495 1002,924.067 
  1005.72,929.602 1009.45,935.096 1013.18,940.55 1016.91,945.961 1020.64,951.328 1024.37,956.649 1028.09,961.923 1031.82,967.148 1035.55,972.323 1039.28,977.446 
  1043.01,982.516 1046.74,987.531 1050.47,992.49 1054.19,997.391 1057.92,1002.23 1061.65,1007.02 1065.38,1011.74 1069.11,1016.39 1072.84,1020.99 1076.56,1025.51 
  1080.29,1029.98 1084.02,1034.37 1087.75,1038.69 1091.48,1042.94 1095.21,1047.12 1098.94,1051.23 1102.66,1055.27 1106.39,1059.22 1110.12,1063.11 1113.85,1066.91 
  1117.58,1070.64 1121.31,1074.28 1125.03,1077.85 1128.76,1081.33 1132.49,1084.74 1136.22,1088.05 1139.95,1091.29 1143.68,1094.44 1147.41,1097.5 1151.13,1100.48 
  1154.86,1103.36 1158.59,1106.16 1162.32,1108.87 1166.05,1111.49 1169.78,1114.02 1173.5,1116.46 1177.23,1118.81 1180.96,1121.06 1184.69,1123.22 1188.42,1125.28 
  1192.15,1127.25 1195.88,1129.13 1199.6,1130.91 1203.33,1132.59 1207.06,1134.18 1210.79,1135.67 1214.52,1137.06 1218.25,1138.36 1221.97,1139.55 1225.7,1140.65 
  1229.43,1141.65 1233.16,1142.55 1236.89,1143.35 1240.62,1144.05 1244.35,1144.65 1248.07,1145.15 1251.8,1145.55 1255.53,1145.85 1259.26,1146.05 1262.99,1146.16 
  1266.72,1146.16 1270.44,1146.05 1274.17,1145.85 1277.9,1145.55 1281.63,1145.15 1285.36,1144.65 1289.09,1144.05 1292.82,1143.35 1296.54,1142.55 1300.27,1141.65 
  1304,1140.65 1307.73,1139.55 1311.46,1138.36 1315.19,1137.06 1318.91,1135.67 1322.64,1134.18 1326.37,1132.59 1330.1,1130.91 1333.83,1129.13 1337.56,1127.25 
  1341.29,1125.28 1345.01,1123.22 1348.74,1121.06 1352.47,1118.81 1356.2,1116.46 1359.93,1114.02 1363.66,1111.49 1367.38,1108.87 1371.11,1106.16 1374.84,1103.36 
  1378.57,1100.48 1382.3,1097.5 1386.03,1094.44 1389.76,1091.29 1393.48,1088.05 1397.21,1084.74 1400.94,1081.33 1404.67,1077.85 1408.4,1074.28 1412.13,1070.64 
  1415.85,1066.91 1419.58,1063.11 1423.31,1059.22 1427.04,1055.27 1430.77,1051.23 1434.5,1047.12 1438.23,1042.94 1441.95,1038.69 1445.68,1034.37 1449.41,1029.98 
  1453.14,1025.51 1456.87,1020.99 1460.6,1016.39 1464.32,1011.74 1468.05,1007.02 1471.78,1002.23 1475.51,997.391 1479.24,992.49 1482.97,987.531 1486.7,982.516 
  1490.42,977.446 1494.15,972.323 1497.88,967.148 1501.61,961.923 1505.34,956.649 1509.07,951.328 1512.79,945.961 1516.52,940.55 1520.25,935.096 1523.98,929.602 
  1527.71,924.067 1531.44,918.495 1535.17,912.887 1538.89,907.244 1542.62,901.568 1546.35,895.861 1550.08,890.125 1553.81,884.36 1557.54,878.57 1561.26,872.754 
  1564.99,866.917 1568.72,861.058 1572.45,855.18 1576.18,849.284 1579.91,843.373 1583.64,837.448 1587.36,831.51 1591.09,825.563 1594.82,819.607 1598.55,813.644 
  1602.28,807.676 1606.01,801.705 1609.73,795.733 1613.46,789.762 1617.19,783.793 1620.92,777.829 1624.65,771.871 1628.38,765.921 1632.11,759.981 1635.83,754.052 
  1639.56,748.138 1643.29,742.239 1647.02,736.357 1650.75,730.495 1654.48,724.655 1658.2,718.837 1661.93,713.045 1665.66,707.279 1669.39,701.543 1673.12,695.837 
  1676.85,690.164 1680.58,684.525 1684.3,678.924 1688.03,673.36 1691.76,667.837 1695.49,662.356 1699.22,656.918 1702.95,651.527 1706.67,646.184 1710.4,640.891 
  1714.13,635.649 1717.86,630.46 1721.59,625.327 1725.32,620.251 1729.05,615.235 1732.77,610.279 1736.5,605.385 1740.23,600.557 1743.96,595.795 1747.69,591.101 
  1751.42,586.477 1755.14,581.925 1758.87,577.446 1762.6,573.043 1766.33,568.717 1770.06,564.471 1773.79,560.304 1777.52,556.221 1781.24,552.221 1784.97,548.308 
  1788.7,544.482 1792.43,540.745 1796.16,537.099 1799.89,533.546 1803.61,530.087 1807.34,526.724 1811.07,523.459 1814.8,520.293 1818.53,517.228 1822.26,514.265 
  1825.99,511.405 1829.71,508.652 1833.44,506.005 1837.17,503.467 1840.9,501.038 1844.63,498.721 1848.36,496.517 1852.08,494.428 1855.81,492.454 1859.54,490.597 
  1863.27,488.859 1867,487.24 1870.73,485.743 1874.46,484.369 1878.18,483.118 1881.91,481.992 1885.64,480.993 1889.37,480.121 1893.1,479.378 1896.83,478.765 
  1900.55,478.283 1904.28,477.934 1908.01,477.718 1911.74,477.636 1915.47,477.69 1919.2,477.88 1922.93,478.208 1926.65,478.675 1930.38,479.281 1934.11,480.028 
  1937.84,480.916 1941.57,481.947 1945.3,483.121 1949.02,484.438 1952.75,485.901 1956.48,487.509 1960.21,489.263 1963.94,491.165 1967.67,493.214 1971.4,495.412 
  1975.12,497.759 1978.85,500.256 1982.58,502.903 1986.31,505.7 1990.04,508.649 1993.77,511.75 1997.49,515.004 2001.22,518.41 2004.95,521.969 2008.68,525.682 
  2012.41,529.549 2016.14,533.57 2019.87,537.745 2023.59,542.075 2027.32,546.561 2031.05,551.201 2034.78,555.997 2038.51,560.948 2042.24,566.055 2045.96,571.317 
  2049.69,576.735 2053.42,582.309 2057.15,588.039 2060.88,593.924 2064.61,599.964 2068.33,606.16 2072.06,612.512 2075.79,619.018 2079.52,625.679 2083.25,632.494 
  2086.98,639.464 2090.71,646.588 2094.43,653.865 2098.16,661.296 2101.89,668.88 2105.62,676.615 2109.35,684.503 2113.08,692.542 2116.8,700.732 2120.53,709.072 
  2124.26,717.562 2127.99,726.2 2131.72,734.987 2135.45,743.922 2139.18,753.003 2142.9,762.231 2146.63,771.604 2150.36,781.121 2154.09,790.781 2157.82,800.585 
  2161.55,810.53 2165.27,820.615 2169,830.841 2172.73,841.205 2176.46,851.707 2180.19,862.345 2183.92,873.119 2187.65,884.027 2191.37,895.068 2195.1,906.241 
  2198.83,917.544 2202.56,928.977 2206.29,940.537 2210.02,952.225 2213.74,964.037 2217.47,975.973 2221.2,988.032 2224.93,1000.21 2228.66,1012.51 2232.39,1024.93 
  2236.12,1037.46 2239.84,1050.11 2243.57,1062.87 2247.3,1075.74 2251.03,1088.72 2254.76,1101.81 2258.49,1115.01 2262.21,1128.31 2265.94,1141.71 2269.67,1155.22 
  2273.4,1168.82 2277.13,1182.52 2280.86,1196.32 2284.59,1210.21 2288.31,1224.19 2292.04,1238.26 2295.77,1252.42 2299.5,1266.66 2303.23,1280.99 2306.96,1295.4 
  2310.68,1309.89 2314.41,1324.45 2318.14,1339.09 2321.87,1353.8 2325.6,1368.59 2329.33,1383.44 2333.06,1398.35 2336.78,1413.33 2340.51,1428.38 2344.24,1443.48 
  2347.97,1458.64 2351.7,1473.85 2355.43,1489.11 2359.15,1504.43 2362.88,1519.79 2366.61,1535.2 2370.34,1550.64 2374.07,1566.13 2377.8,1581.66 2381.53,1597.22 
  
  "/>
<path clip-path="url(#clip380)" d="
M1765.27 302.578 L2280.76 302.578 L2280.76 95.2176 L1765.27 95.2176  Z
  " fill="#ffffff" fill-rule="evenodd" fill-opacity="1"/>
<polyline clip-path="url(#clip380)" style="stroke:#000000; stroke-linecap:round; stroke-linejoin:round; stroke-width:4; stroke-opacity:1; fill:none" points="
  1765.27,302.578 2280.76,302.578 2280.76,95.2176 1765.27,95.2176 1765.27,302.578 
  "/>
<circle clip-path="url(#clip380)" cx="1861.26" cy="147.058" r="23.04" fill="#e69f00" fill-rule="evenodd" fill-opacity="1" stroke="#000000" stroke-opacity="1" stroke-width="5.12"/>
<path clip-path="url(#clip380)" d="M1957.25 129.778 L1986.49 129.778 L1986.49 133.713 L1974.22 133.713 L1974.22 164.338 L1969.52 164.338 L1969.52 133.713 L1957.25 133.713 L1957.25 129.778 Z" fill="#000000" fill-rule="evenodd" fill-opacity="1" /><path clip-path="url(#clip380)" d="M2004.94 150.31 L2004.94 152.393 L1985.35 152.393 Q1985.63 156.791 1987.99 159.106 Q1990.38 161.398 1994.61 161.398 Q1997.07 161.398 1999.36 160.796 Q2001.67 160.194 2003.94 158.99 L2003.94 163.018 Q2001.65 163.99 1999.24 164.5 Q1996.83 165.009 1994.36 165.009 Q1988.15 165.009 1984.52 161.398 Q1980.91 157.787 1980.91 151.629 Q1980.91 145.264 1984.34 141.537 Q1987.78 137.787 1993.62 137.787 Q1998.85 137.787 2001.88 141.166 Q2004.94 144.523 2004.94 150.31 M2000.68 149.06 Q2000.63 145.565 1998.71 143.481 Q1996.81 141.398 1993.66 141.398 Q1990.1 141.398 1987.95 143.412 Q1985.82 145.426 1985.49 149.083 L2000.68 149.06 Z" fill="#000000" fill-rule="evenodd" fill-opacity="1" /><path clip-path="url(#clip380)" d="M2028.46 139.176 L2028.46 143.203 Q2026.65 142.277 2024.71 141.815 Q2022.76 141.352 2020.68 141.352 Q2017.51 141.352 2015.91 142.324 Q2014.33 143.296 2014.33 145.24 Q2014.33 146.722 2015.47 147.578 Q2016.6 148.412 2020.03 149.176 L2021.49 149.5 Q2026.02 150.472 2027.92 152.254 Q2029.84 154.014 2029.84 157.185 Q2029.84 160.796 2026.97 162.902 Q2024.13 165.009 2019.13 165.009 Q2017.04 165.009 2014.77 164.592 Q2012.53 164.199 2010.03 163.388 L2010.03 158.99 Q2012.39 160.217 2014.68 160.842 Q2016.97 161.444 2019.22 161.444 Q2022.23 161.444 2023.85 160.426 Q2025.47 159.384 2025.47 157.509 Q2025.47 155.773 2024.29 154.847 Q2023.13 153.921 2019.17 153.064 L2017.69 152.717 Q2013.73 151.884 2011.97 150.171 Q2010.21 148.435 2010.21 145.426 Q2010.21 141.768 2012.81 139.778 Q2015.4 137.787 2020.17 137.787 Q2022.53 137.787 2024.61 138.134 Q2026.7 138.481 2028.46 139.176 Z" fill="#000000" fill-rule="evenodd" fill-opacity="1" /><path clip-path="url(#clip380)" d="M2040.84 131.051 L2040.84 138.412 L2049.61 138.412 L2049.61 141.722 L2040.84 141.722 L2040.84 155.796 Q2040.84 158.967 2041.7 159.87 Q2042.58 160.773 2045.24 160.773 L2049.61 160.773 L2049.61 164.338 L2045.24 164.338 Q2040.31 164.338 2038.43 162.509 Q2036.56 160.657 2036.56 155.796 L2036.56 141.722 L2033.43 141.722 L2033.43 138.412 L2036.56 138.412 L2036.56 131.051 L2040.84 131.051 Z" fill="#000000" fill-rule="evenodd" fill-opacity="1" /><path clip-path="url(#clip380)" d="M2074.4 160.449 L2074.4 174.199 L2070.12 174.199 L2070.12 138.412 L2074.4 138.412 L2074.4 142.347 Q2075.75 140.032 2077.78 138.921 Q2079.84 137.787 2082.69 137.787 Q2087.41 137.787 2090.35 141.537 Q2093.32 145.287 2093.32 151.398 Q2093.32 157.509 2090.35 161.259 Q2087.41 165.009 2082.69 165.009 Q2079.84 165.009 2077.78 163.898 Q2075.75 162.763 2074.4 160.449 M2088.89 151.398 Q2088.89 146.699 2086.95 144.037 Q2085.03 141.352 2081.65 141.352 Q2078.27 141.352 2076.33 144.037 Q2074.4 146.699 2074.4 151.398 Q2074.4 156.097 2076.33 158.782 Q2078.27 161.444 2081.65 161.444 Q2085.03 161.444 2086.95 158.782 Q2088.89 156.097 2088.89 151.398 Z" fill="#000000" fill-rule="evenodd" fill-opacity="1" /><path clip-path="url(#clip380)" d="M2110.42 141.398 Q2107 141.398 2105.01 144.083 Q2103.01 146.745 2103.01 151.398 Q2103.01 156.051 2104.98 158.736 Q2106.97 161.398 2110.42 161.398 Q2113.83 161.398 2115.82 158.713 Q2117.81 156.027 2117.81 151.398 Q2117.81 146.791 2115.82 144.106 Q2113.83 141.398 2110.42 141.398 M2110.42 137.787 Q2115.98 137.787 2119.15 141.398 Q2122.32 145.009 2122.32 151.398 Q2122.32 157.764 2119.15 161.398 Q2115.98 165.009 2110.42 165.009 Q2104.84 165.009 2101.67 161.398 Q2098.52 157.764 2098.52 151.398 Q2098.52 145.009 2101.67 141.398 Q2104.84 137.787 2110.42 137.787 Z" fill="#000000" fill-rule="evenodd" fill-opacity="1" /><path clip-path="url(#clip380)" d="M2129.38 138.412 L2133.64 138.412 L2133.64 164.338 L2129.38 164.338 L2129.38 138.412 M2129.38 128.319 L2133.64 128.319 L2133.64 133.713 L2129.38 133.713 L2129.38 128.319 Z" fill="#000000" fill-rule="evenodd" fill-opacity="1" /><path clip-path="url(#clip380)" d="M2164.1 148.689 L2164.1 164.338 L2159.84 164.338 L2159.84 148.828 Q2159.84 145.148 2158.41 143.319 Q2156.97 141.49 2154.1 141.49 Q2150.65 141.49 2148.66 143.69 Q2146.67 145.889 2146.67 149.685 L2146.67 164.338 L2142.39 164.338 L2142.39 138.412 L2146.67 138.412 L2146.67 142.44 Q2148.2 140.102 2150.26 138.944 Q2152.34 137.787 2155.05 137.787 Q2159.52 137.787 2161.81 140.565 Q2164.1 143.319 2164.1 148.689 Z" fill="#000000" fill-rule="evenodd" fill-opacity="1" /><path clip-path="url(#clip380)" d="M2176.81 131.051 L2176.81 138.412 L2185.58 138.412 L2185.58 141.722 L2176.81 141.722 L2176.81 155.796 Q2176.81 158.967 2177.67 159.87 Q2178.55 160.773 2181.21 160.773 L2185.58 160.773 L2185.58 164.338 L2181.21 164.338 Q2176.28 164.338 2174.4 162.509 Q2172.53 160.657 2172.53 155.796 L2172.53 141.722 L2169.4 141.722 L2169.4 138.412 L2172.53 138.412 L2172.53 131.051 L2176.81 131.051 Z" fill="#000000" fill-rule="evenodd" fill-opacity="1" /><path clip-path="url(#clip380)" d="M2207.71 139.176 L2207.71 143.203 Q2205.91 142.277 2203.96 141.815 Q2202.02 141.352 2199.94 141.352 Q2196.76 141.352 2195.17 142.324 Q2193.59 143.296 2193.59 145.24 Q2193.59 146.722 2194.73 147.578 Q2195.86 148.412 2199.29 149.176 L2200.75 149.5 Q2205.28 150.472 2207.18 152.254 Q2209.1 154.014 2209.1 157.185 Q2209.1 160.796 2206.23 162.902 Q2203.38 165.009 2198.38 165.009 Q2196.3 165.009 2194.03 164.592 Q2191.79 164.199 2189.29 163.388 L2189.29 158.99 Q2191.65 160.217 2193.94 160.842 Q2196.23 161.444 2198.48 161.444 Q2201.49 161.444 2203.11 160.426 Q2204.73 159.384 2204.73 157.509 Q2204.73 155.773 2203.55 154.847 Q2202.39 153.921 2198.43 153.064 L2196.95 152.717 Q2192.99 151.884 2191.23 150.171 Q2189.47 148.435 2189.47 145.426 Q2189.47 141.768 2192.07 139.778 Q2194.66 137.787 2199.43 137.787 Q2201.79 137.787 2203.87 138.134 Q2205.95 138.481 2207.71 139.176 Z" fill="#000000" fill-rule="evenodd" fill-opacity="1" /><polyline clip-path="url(#clip380)" style="stroke:#56b4e9; stroke-linecap:round; stroke-linejoin:round; stroke-width:16; stroke-opacity:1; fill:none" points="
  1789.27,198.898 1933.25,198.898 
  "/>
<path clip-path="url(#clip380)" d="M1961.93 185.46 L1961.93 198.446 L1967.81 198.446 Q1971.07 198.446 1972.85 196.756 Q1974.64 195.067 1974.64 191.942 Q1974.64 188.84 1972.85 187.15 Q1971.07 185.46 1967.81 185.46 L1961.93 185.46 M1957.25 181.618 L1967.81 181.618 Q1973.62 181.618 1976.58 184.256 Q1979.57 186.872 1979.57 191.942 Q1979.57 197.057 1976.58 199.673 Q1973.62 202.289 1967.81 202.289 L1961.93 202.289 L1961.93 216.178 L1957.25 216.178 L1957.25 181.618 Z" fill="#000000" fill-rule="evenodd" fill-opacity="1" /><path clip-path="url(#clip380)" d="M1999.84 194.233 Q1999.13 193.817 1998.27 193.631 Q1997.44 193.423 1996.42 193.423 Q1992.81 193.423 1990.86 195.784 Q1988.94 198.122 1988.94 202.52 L1988.94 216.178 L1984.66 216.178 L1984.66 190.252 L1988.94 190.252 L1988.94 194.28 Q1990.28 191.918 1992.44 190.784 Q1994.59 189.627 1997.67 189.627 Q1998.11 189.627 1998.64 189.696 Q1999.17 189.743 1999.82 189.858 L1999.84 194.233 Z" fill="#000000" fill-rule="evenodd" fill-opacity="1" /><path clip-path="url(#clip380)" d="M2025.45 202.15 L2025.45 204.233 L2005.86 204.233 Q2006.14 208.631 2008.5 210.946 Q2010.89 213.238 2015.12 213.238 Q2017.58 213.238 2019.87 212.636 Q2022.18 212.034 2024.45 210.83 L2024.45 214.858 Q2022.16 215.83 2019.75 216.34 Q2017.34 216.849 2014.87 216.849 Q2008.66 216.849 2005.03 213.238 Q2001.42 209.627 2001.42 203.469 Q2001.42 197.104 2004.84 193.377 Q2008.29 189.627 2014.13 189.627 Q2019.36 189.627 2022.39 193.006 Q2025.45 196.363 2025.45 202.15 M2021.19 200.9 Q2021.14 197.405 2019.22 195.321 Q2017.32 193.238 2014.17 193.238 Q2010.61 193.238 2008.46 195.252 Q2006.33 197.266 2006 200.923 L2021.19 200.9 Z" fill="#000000" fill-rule="evenodd" fill-opacity="1" /><path clip-path="url(#clip380)" d="M2049.5 194.187 L2049.5 180.159 L2053.76 180.159 L2053.76 216.178 L2049.5 216.178 L2049.5 212.289 Q2048.15 214.603 2046.09 215.738 Q2044.06 216.849 2041.19 216.849 Q2036.49 216.849 2033.52 213.099 Q2030.58 209.349 2030.58 203.238 Q2030.58 197.127 2033.52 193.377 Q2036.49 189.627 2041.19 189.627 Q2044.06 189.627 2046.09 190.761 Q2048.15 191.872 2049.5 194.187 M2034.98 203.238 Q2034.98 207.937 2036.9 210.622 Q2038.85 213.284 2042.23 213.284 Q2045.61 213.284 2047.55 210.622 Q2049.5 207.937 2049.5 203.238 Q2049.5 198.539 2047.55 195.877 Q2045.61 193.192 2042.23 193.192 Q2038.85 193.192 2036.9 195.877 Q2034.98 198.539 2034.98 203.238 Z" fill="#000000" fill-rule="evenodd" fill-opacity="1" /><path clip-path="url(#clip380)" d="M2062.53 190.252 L2066.79 190.252 L2066.79 216.178 L2062.53 216.178 L2062.53 190.252 M2062.53 180.159 L2066.79 180.159 L2066.79 185.553 L2062.53 185.553 L2062.53 180.159 Z" fill="#000000" fill-rule="evenodd" fill-opacity="1" /><path clip-path="url(#clip380)" d="M2094.36 191.247 L2094.36 195.229 Q2092.55 194.233 2090.72 193.747 Q2088.92 193.238 2087.07 193.238 Q2082.92 193.238 2080.63 195.877 Q2078.34 198.492 2078.34 203.238 Q2078.34 207.983 2080.63 210.622 Q2082.92 213.238 2087.07 213.238 Q2088.92 213.238 2090.72 212.752 Q2092.55 212.242 2094.36 211.247 L2094.36 215.182 Q2092.58 216.016 2090.65 216.432 Q2088.76 216.849 2086.6 216.849 Q2080.75 216.849 2077.3 213.168 Q2073.85 209.488 2073.85 203.238 Q2073.85 196.895 2077.32 193.261 Q2080.82 189.627 2086.88 189.627 Q2088.85 189.627 2090.72 190.043 Q2092.6 190.437 2094.36 191.247 Z" fill="#000000" fill-rule="evenodd" fill-opacity="1" /><path clip-path="url(#clip380)" d="M2105.98 182.891 L2105.98 190.252 L2114.75 190.252 L2114.75 193.562 L2105.98 193.562 L2105.98 207.636 Q2105.98 210.807 2106.83 211.71 Q2107.71 212.613 2110.38 212.613 L2114.75 212.613 L2114.75 216.178 L2110.38 216.178 Q2105.45 216.178 2103.57 214.349 Q2101.7 212.497 2101.7 207.636 L2101.7 193.562 L2098.57 193.562 L2098.57 190.252 L2101.7 190.252 L2101.7 182.891 L2105.98 182.891 Z" fill="#000000" fill-rule="evenodd" fill-opacity="1" /><path clip-path="url(#clip380)" d="M2142.53 202.15 L2142.53 204.233 L2122.95 204.233 Q2123.22 208.631 2125.58 210.946 Q2127.97 213.238 2132.2 213.238 Q2134.66 213.238 2136.95 212.636 Q2139.26 212.034 2141.53 210.83 L2141.53 214.858 Q2139.24 215.83 2136.83 216.34 Q2134.43 216.849 2131.95 216.849 Q2125.75 216.849 2122.11 213.238 Q2118.5 209.627 2118.5 203.469 Q2118.5 197.104 2121.93 193.377 Q2125.38 189.627 2131.21 189.627 Q2136.44 189.627 2139.47 193.006 Q2142.53 196.363 2142.53 202.15 M2138.27 200.9 Q2138.22 197.405 2136.3 195.321 Q2134.4 193.238 2131.26 193.238 Q2127.69 193.238 2125.54 195.252 Q2123.41 197.266 2123.08 200.923 L2138.27 200.9 Z" fill="#000000" fill-rule="evenodd" fill-opacity="1" /><path clip-path="url(#clip380)" d="M2166.58 194.187 L2166.58 180.159 L2170.84 180.159 L2170.84 216.178 L2166.58 216.178 L2166.58 212.289 Q2165.24 214.603 2163.18 215.738 Q2161.14 216.849 2158.27 216.849 Q2153.57 216.849 2150.61 213.099 Q2147.67 209.349 2147.67 203.238 Q2147.67 197.127 2150.61 193.377 Q2153.57 189.627 2158.27 189.627 Q2161.14 189.627 2163.18 190.761 Q2165.24 191.872 2166.58 194.187 M2152.07 203.238 Q2152.07 207.937 2153.99 210.622 Q2155.93 213.284 2159.31 213.284 Q2162.69 213.284 2164.63 210.622 Q2166.58 207.937 2166.58 203.238 Q2166.58 198.539 2164.63 195.877 Q2162.69 193.192 2159.31 193.192 Q2155.93 193.192 2153.99 195.877 Q2152.07 198.539 2152.07 203.238 Z" fill="#000000" fill-rule="evenodd" fill-opacity="1" /><polyline clip-path="url(#clip380)" style="stroke:#000000; stroke-linecap:round; stroke-linejoin:round; stroke-width:4; stroke-opacity:1; fill:none" stroke-dasharray="16, 10" points="
  1789.27,250.738 1933.25,250.738 
  "/>
<path clip-path="url(#clip380)" d="M1982.81 263.087 L1982.81 253.805 L1975.17 253.805 L1975.17 249.962 L1987.44 249.962 L1987.44 264.8 Q1984.73 266.721 1981.46 267.717 Q1978.2 268.689 1974.5 268.689 Q1966.4 268.689 1961.81 263.967 Q1957.25 259.221 1957.25 250.772 Q1957.25 242.3 1961.81 237.578 Q1966.4 232.833 1974.5 232.833 Q1977.88 232.833 1980.91 233.666 Q1983.96 234.499 1986.53 236.12 L1986.53 241.096 Q1983.94 238.897 1981.02 237.786 Q1978.11 236.675 1974.89 236.675 Q1968.55 236.675 1965.35 240.217 Q1962.18 243.758 1962.18 250.772 Q1962.18 257.763 1965.35 261.305 Q1968.55 264.846 1974.89 264.846 Q1977.37 264.846 1979.31 264.43 Q1981.26 263.99 1982.81 263.087 Z" fill="#000000" fill-rule="evenodd" fill-opacity="1" /><path clip-path="url(#clip380)" d="M2010.82 246.073 Q2010.1 245.657 2009.24 245.471 Q2008.41 245.263 2007.39 245.263 Q2003.78 245.263 2001.83 247.624 Q1999.91 249.962 1999.91 254.36 L1999.91 268.018 L1995.63 268.018 L1995.63 242.092 L1999.91 242.092 L1999.91 246.12 Q2001.26 243.758 2003.41 242.624 Q2005.56 241.467 2008.64 241.467 Q2009.08 241.467 2009.61 241.536 Q2010.15 241.583 2010.79 241.698 L2010.82 246.073 Z" fill="#000000" fill-rule="evenodd" fill-opacity="1" /><path clip-path="url(#clip380)" d="M2024.29 245.078 Q2020.86 245.078 2018.87 247.763 Q2016.88 250.425 2016.88 255.078 Q2016.88 259.731 2018.85 262.416 Q2020.84 265.078 2024.29 265.078 Q2027.69 265.078 2029.68 262.393 Q2031.67 259.707 2031.67 255.078 Q2031.67 250.471 2029.68 247.786 Q2027.69 245.078 2024.29 245.078 M2024.29 241.467 Q2029.84 241.467 2033.02 245.078 Q2036.19 248.689 2036.19 255.078 Q2036.19 261.444 2033.02 265.078 Q2029.84 268.689 2024.29 268.689 Q2018.71 268.689 2015.54 265.078 Q2012.39 261.444 2012.39 255.078 Q2012.39 248.689 2015.54 245.078 Q2018.71 241.467 2024.29 241.467 Z" fill="#000000" fill-rule="evenodd" fill-opacity="1" /><path clip-path="url(#clip380)" d="M2042.81 257.786 L2042.81 242.092 L2047.07 242.092 L2047.07 257.624 Q2047.07 261.305 2048.5 263.156 Q2049.94 264.985 2052.81 264.985 Q2056.26 264.985 2058.25 262.786 Q2060.26 260.587 2060.26 256.791 L2060.26 242.092 L2064.52 242.092 L2064.52 268.018 L2060.26 268.018 L2060.26 264.036 Q2058.71 266.397 2056.65 267.555 Q2054.61 268.689 2051.9 268.689 Q2047.44 268.689 2045.12 265.911 Q2042.81 263.133 2042.81 257.786 M2053.52 241.467 L2053.52 241.467 Z" fill="#000000" fill-rule="evenodd" fill-opacity="1" /><path clip-path="url(#clip380)" d="M2094.84 252.369 L2094.84 268.018 L2090.58 268.018 L2090.58 252.508 Q2090.58 248.828 2089.15 246.999 Q2087.71 245.17 2084.84 245.17 Q2081.39 245.17 2079.4 247.37 Q2077.41 249.569 2077.41 253.365 L2077.41 268.018 L2073.13 268.018 L2073.13 242.092 L2077.41 242.092 L2077.41 246.12 Q2078.94 243.782 2081 242.624 Q2083.08 241.467 2085.79 241.467 Q2090.26 241.467 2092.55 244.245 Q2094.84 246.999 2094.84 252.369 Z" fill="#000000" fill-rule="evenodd" fill-opacity="1" /><path clip-path="url(#clip380)" d="M2120.4 246.027 L2120.4 231.999 L2124.66 231.999 L2124.66 268.018 L2120.4 268.018 L2120.4 264.129 Q2119.06 266.443 2117 267.578 Q2114.96 268.689 2112.09 268.689 Q2107.39 268.689 2104.43 264.939 Q2101.49 261.189 2101.49 255.078 Q2101.49 248.967 2104.43 245.217 Q2107.39 241.467 2112.09 241.467 Q2114.96 241.467 2117 242.601 Q2119.06 243.712 2120.4 246.027 M2105.89 255.078 Q2105.89 259.777 2107.81 262.462 Q2109.75 265.124 2113.13 265.124 Q2116.51 265.124 2118.45 262.462 Q2120.4 259.777 2120.4 255.078 Q2120.4 250.379 2118.45 247.717 Q2116.51 245.032 2113.13 245.032 Q2109.75 245.032 2107.81 247.717 Q2105.89 250.379 2105.89 255.078 Z" fill="#000000" fill-rule="evenodd" fill-opacity="1" /><path clip-path="url(#clip380)" d="M2152.71 234.731 L2152.71 242.092 L2161.49 242.092 L2161.49 245.402 L2152.71 245.402 L2152.71 259.476 Q2152.71 262.647 2153.57 263.55 Q2154.45 264.453 2157.11 264.453 L2161.49 264.453 L2161.49 268.018 L2157.11 268.018 Q2152.18 268.018 2150.31 266.189 Q2148.43 264.337 2148.43 259.476 L2148.43 245.402 L2145.31 245.402 L2145.31 242.092 L2148.43 242.092 L2148.43 234.731 L2152.71 234.731 Z" fill="#000000" fill-rule="evenodd" fill-opacity="1" /><path clip-path="url(#clip380)" d="M2182.11 246.073 Q2181.39 245.657 2180.54 245.471 Q2179.7 245.263 2178.69 245.263 Q2175.07 245.263 2173.13 247.624 Q2171.21 249.962 2171.21 254.36 L2171.21 268.018 L2166.93 268.018 L2166.93 242.092 L2171.21 242.092 L2171.21 246.12 Q2172.55 243.758 2174.7 242.624 Q2176.86 241.467 2179.94 241.467 Q2180.38 241.467 2180.91 241.536 Q2181.44 241.583 2182.09 241.698 L2182.11 246.073 Z" fill="#000000" fill-rule="evenodd" fill-opacity="1" /><path clip-path="url(#clip380)" d="M2186.14 257.786 L2186.14 242.092 L2190.4 242.092 L2190.4 257.624 Q2190.4 261.305 2191.83 263.156 Q2193.27 264.985 2196.14 264.985 Q2199.59 264.985 2201.58 262.786 Q2203.59 260.587 2203.59 256.791 L2203.59 242.092 L2207.85 242.092 L2207.85 268.018 L2203.59 268.018 L2203.59 264.036 Q2202.04 266.397 2199.98 267.555 Q2197.94 268.689 2195.24 268.689 Q2190.77 268.689 2188.45 265.911 Q2186.14 263.133 2186.14 257.786 M2196.86 241.467 L2196.86 241.467 Z" fill="#000000" fill-rule="evenodd" fill-opacity="1" /><path clip-path="url(#clip380)" d="M2220.84 234.731 L2220.84 242.092 L2229.61 242.092 L2229.61 245.402 L2220.84 245.402 L2220.84 259.476 Q2220.84 262.647 2221.69 263.55 Q2222.57 264.453 2225.24 264.453 L2229.61 264.453 L2229.61 268.018 L2225.24 268.018 Q2220.31 268.018 2218.43 266.189 Q2216.56 264.337 2216.56 259.476 L2216.56 245.402 L2213.43 245.402 L2213.43 242.092 L2216.56 242.092 L2216.56 234.731 L2220.84 234.731 Z" fill="#000000" fill-rule="evenodd" fill-opacity="1" /><path clip-path="url(#clip380)" d="M2256.76 252.369 L2256.76 268.018 L2252.5 268.018 L2252.5 252.508 Q2252.5 248.828 2251.07 246.999 Q2249.63 245.17 2246.76 245.17 Q2243.32 245.17 2241.32 247.37 Q2239.33 249.569 2239.33 253.365 L2239.33 268.018 L2235.05 268.018 L2235.05 231.999 L2239.33 231.999 L2239.33 246.12 Q2240.86 243.782 2242.92 242.624 Q2245 241.467 2247.71 241.467 Q2252.18 241.467 2254.47 244.245 Q2256.76 246.999 2256.76 252.369 Z" fill="#000000" fill-rule="evenodd" fill-opacity="1" /></svg>
