<?xml version="1.0" encoding="utf-8"?>
<svg xmlns="http://www.w3.org/2000/svg" xmlns:xlink="http://www.w3.org/1999/xlink" width="600" height="400" viewBox="0 0 2400 1600">
<defs>
  <clipPath id="clip200">
    <rect x="0" y="0" width="2400" height="1600"/>
  </clipPath>
</defs>
<path clip-path="url(#clip200)" d="
M0 1600 L2400 1600 L2400 0 L0 0  Z
  " fill="#ffffff" fill-rule="evenodd" fill-opacity="1"/>
<defs>
  <clipPath id="clip201">
    <rect x="480" y="0" width="1681" height="1600"/>
  </clipPath>
</defs>
<path clip-path="url(#clip200)" d="
M147.478 1486.45 L2352.76 1486.45 L2352.76 47.2441 L147.478 47.2441  Z
  " fill="#ffffff" fill-rule="evenodd" fill-opacity="1"/>
<defs>
  <clipPath id="clip202">
    <rect x="147" y="47" width="2206" height="1440"/>
  </clipPath>
</defs>
<polyline clip-path="url(#clip202)" style="stroke:#000000; stroke-linecap:round; stroke-linejoin:round; stroke-width:2; stroke-opacity:0.1; fill:none" points="
  301.8,1486.45 301.8,47.2441 
  "/>
<polyline clip-path="url(#clip202)" style="stroke:#000000; stroke-linecap:round; stroke-linejoin:round; stroke-width:2; stroke-opacity:0.1; fill:none" points="
  617.381,1486.45 617.381,47.2441 
  "/>
<polyline clip-path="url(#clip202)" style="stroke:#000000; stroke-linecap:round; stroke-linejoin:round; stroke-width:2; stroke-opacity:0.1; fill:none" points="
  932.962,1486.45 932.962,47.2441 
  "/>
<polyline clip-path="url(#clip202)" style="stroke:#000000; stroke-linecap:round; stroke-linejoin:round; stroke-width:2; stroke-opacity:0.1; fill:none" points="
  1248.54,1486.45 1248.54,47.2441 
  "/>
<polyline clip-path="url(#clip202)" style="stroke:#000000; stroke-linecap:round; stroke-linejoin:round; stroke-width:2; stroke-opacity:0.1; fill:none" points="
  1564.12,1486.45 1564.12,47.2441 
  "/>
<polyline clip-path="url(#clip202)" style="stroke:#000000; stroke-linecap:round; stroke-linejoin:round; stroke-width:2; stroke-opacity:0.1; fill:none" points="
  1879.7,1486.45 1879.7,47.2441 
  "/>
<polyline clip-path="url(#clip202)" style="stroke:#000000; stroke-linecap:round; stroke-linejoin:round; stroke-width:2; stroke-opacity:0.1; fill:none" points="
  2195.29,1486.45 2195.29,47.2441 
  "/>
<polyline clip-path="url(#clip200)" style="stroke:#000000; stroke-linecap:round; stroke-linejoin:round; stroke-width:4; stroke-opacity:1; fill:none" points="
  147.478,1486.45 2352.76,1486.45 
  "/>
<polyline clip-path="url(#clip200)" style="stroke:#000000; stroke-linecap:round; stroke-linejoin:round; stroke-width:4; stroke-opacity:1; fill:none" points="
  301.8,1486.45 301.8,1467.55 
  "/>
<polyline clip-path="url(#clip200)" style="stroke:#000000; stroke-linecap:round; stroke-linejoin:round; stroke-width:4; stroke-opacity:1; fill:none" points="
  617.381,1486.45 617.381,1467.55 
  "/>
<polyline clip-path="url(#clip200)" style="stroke:#000000; stroke-linecap:round; stroke-linejoin:round; stroke-width:4; stroke-opacity:1; fill:none" points="
  932.962,1486.45 932.962,1467.55 
  "/>
<polyline clip-path="url(#clip200)" style="stroke:#000000; stroke-linecap:round; stroke-linejoin:round; stroke-width:4; stroke-opacity:1; fill:none" points="
  1248.54,1486.45 1248.54,1467.55 
  "/>
<polyline clip-path="url(#clip200)" style="stroke:#000000; stroke-linecap:round; stroke-linejoin:round; stroke-width:4; stroke-opacity:1; fill:none" points="
  1564.12,1486.45 1564.12,1467.55 
  "/>
<polyline clip-path="url(#clip200)" style="stroke:#000000; stroke-linecap:round; stroke-linejoin:round; stroke-width:4; stroke-opacity:1; fill:none" points="
  1879.7,1486.45 1879.7,1467.55 
  "/>
<polyline clip-path="url(#clip200)" style="stroke:#000000; stroke-linecap:round; stroke-linejoin:round; stroke-width:4; stroke-opacity:1; fill:none" points="
  2195.29,1486.45 2195.29,1467.55 
  "/>
<path clip-path="url(#clip200)" d="M271.268 1532.02 L300.944 1532.02 L300.944 1535.95 L271.268 1535.95 L271.268 1532.02 Z" fill="#000000" fill-rule="evenodd" fill-opacity="1" /><path clip-path="url(#clip200)" d="M325.203 1530.21 Q328.56 1530.93 330.435 1533.2 Q332.333 1535.47 332.333 1538.8 Q332.333 1543.92 328.814 1546.72 Q325.296 1549.52 318.814 1549.52 Q316.638 1549.52 314.324 1549.08 Q312.032 1548.66 309.578 1547.81 L309.578 1543.29 Q311.523 1544.43 313.837 1545.01 Q316.152 1545.58 318.675 1545.58 Q323.073 1545.58 325.365 1543.85 Q327.68 1542.11 327.68 1538.8 Q327.68 1535.75 325.527 1534.03 Q323.398 1532.3 319.578 1532.3 L315.55 1532.3 L315.55 1528.45 L319.763 1528.45 Q323.212 1528.45 325.041 1527.09 Q326.87 1525.7 326.87 1523.11 Q326.87 1520.45 324.972 1519.03 Q323.097 1517.6 319.578 1517.6 Q317.657 1517.6 315.458 1518.01 Q313.259 1518.43 310.62 1519.31 L310.62 1515.14 Q313.282 1514.4 315.597 1514.03 Q317.935 1513.66 319.995 1513.66 Q325.319 1513.66 328.421 1516.09 Q331.522 1518.5 331.522 1522.62 Q331.522 1525.49 329.879 1527.48 Q328.235 1529.45 325.203 1530.21 Z" fill="#000000" fill-rule="evenodd" fill-opacity="1" /><path clip-path="url(#clip200)" d="M587.324 1532.02 L616.999 1532.02 L616.999 1535.95 L587.324 1535.95 L587.324 1532.02 Z" fill="#000000" fill-rule="evenodd" fill-opacity="1" /><path clip-path="url(#clip200)" d="M631.12 1544.91 L647.439 1544.91 L647.439 1548.85 L625.495 1548.85 L625.495 1544.91 Q628.157 1542.16 632.74 1537.53 Q637.346 1532.88 638.527 1531.53 Q640.772 1529.01 641.652 1527.27 Q642.555 1525.51 642.555 1523.82 Q642.555 1521.07 640.61 1519.33 Q638.689 1517.6 635.587 1517.6 Q633.388 1517.6 630.934 1518.36 Q628.504 1519.13 625.726 1520.68 L625.726 1515.95 Q628.55 1514.82 631.004 1514.24 Q633.458 1513.66 635.495 1513.66 Q640.865 1513.66 644.059 1516.35 Q647.254 1519.03 647.254 1523.52 Q647.254 1525.65 646.444 1527.57 Q645.657 1529.47 643.55 1532.07 Q642.971 1532.74 639.87 1535.95 Q636.768 1539.15 631.12 1544.91 Z" fill="#000000" fill-rule="evenodd" fill-opacity="1" /><path clip-path="url(#clip200)" d="M902.719 1532.02 L932.395 1532.02 L932.395 1535.95 L902.719 1535.95 L902.719 1532.02 Z" fill="#000000" fill-rule="evenodd" fill-opacity="1" /><path clip-path="url(#clip200)" d="M943.298 1544.91 L950.937 1544.91 L950.937 1518.55 L942.626 1520.21 L942.626 1515.95 L950.89 1514.29 L955.566 1514.29 L955.566 1544.91 L963.205 1544.91 L963.205 1548.85 L943.298 1548.85 L943.298 1544.91 Z" fill="#000000" fill-rule="evenodd" fill-opacity="1" /><path clip-path="url(#clip200)" d="M1248.54 1517.37 Q1244.93 1517.37 1243.1 1520.93 Q1241.3 1524.47 1241.3 1531.6 Q1241.3 1538.71 1243.1 1542.27 Q1244.93 1545.82 1248.54 1545.82 Q1252.18 1545.82 1253.98 1542.27 Q1255.81 1538.71 1255.81 1531.6 Q1255.81 1524.47 1253.98 1520.93 Q1252.18 1517.37 1248.54 1517.37 M1248.54 1513.66 Q1254.35 1513.66 1257.41 1518.27 Q1260.49 1522.85 1260.49 1531.6 Q1260.49 1540.33 1257.41 1544.94 Q1254.35 1549.52 1248.54 1549.52 Q1242.73 1549.52 1239.65 1544.94 Q1236.6 1540.33 1236.6 1531.6 Q1236.6 1522.85 1239.65 1518.27 Q1242.73 1513.66 1248.54 1513.66 Z" fill="#000000" fill-rule="evenodd" fill-opacity="1" /><path clip-path="url(#clip200)" d="M1554.51 1544.91 L1562.14 1544.91 L1562.14 1518.55 L1553.83 1520.21 L1553.83 1515.95 L1562.1 1514.29 L1566.77 1514.29 L1566.77 1544.91 L1574.41 1544.91 L1574.41 1548.85 L1554.51 1548.85 L1554.51 1544.91 Z" fill="#000000" fill-rule="evenodd" fill-opacity="1" /><path clip-path="url(#clip200)" d="M1874.36 1544.91 L1890.68 1544.91 L1890.68 1548.85 L1868.73 1548.85 L1868.73 1544.91 Q1871.39 1542.16 1875.98 1537.53 Q1880.58 1532.88 1881.76 1531.53 Q1884.01 1529.01 1884.89 1527.27 Q1885.79 1525.51 1885.79 1523.82 Q1885.79 1521.07 1883.85 1519.33 Q1881.93 1517.6 1878.82 1517.6 Q1876.63 1517.6 1874.17 1518.36 Q1871.74 1519.13 1868.96 1520.68 L1868.96 1515.95 Q1871.79 1514.82 1874.24 1514.24 Q1876.7 1513.66 1878.73 1513.66 Q1884.1 1513.66 1887.3 1516.35 Q1890.49 1519.03 1890.49 1523.52 Q1890.49 1525.65 1889.68 1527.57 Q1888.89 1529.47 1886.79 1532.07 Q1886.21 1532.74 1883.11 1535.95 Q1880.01 1539.15 1874.36 1544.91 Z" fill="#000000" fill-rule="evenodd" fill-opacity="1" /><path clip-path="url(#clip200)" d="M2199.53 1530.21 Q2202.89 1530.93 2204.76 1533.2 Q2206.66 1535.47 2206.66 1538.8 Q2206.66 1543.92 2203.14 1546.72 Q2199.63 1549.52 2193.14 1549.52 Q2190.97 1549.52 2188.65 1549.08 Q2186.36 1548.66 2183.91 1547.81 L2183.91 1543.29 Q2185.85 1544.43 2188.17 1545.01 Q2190.48 1545.58 2193.01 1545.58 Q2197.4 1545.58 2199.7 1543.85 Q2202.01 1542.11 2202.01 1538.8 Q2202.01 1535.75 2199.86 1534.03 Q2197.73 1532.3 2193.91 1532.3 L2189.88 1532.3 L2189.88 1528.45 L2194.09 1528.45 Q2197.54 1528.45 2199.37 1527.09 Q2201.2 1525.7 2201.2 1523.11 Q2201.2 1520.45 2199.3 1519.03 Q2197.43 1517.6 2193.91 1517.6 Q2191.99 1517.6 2189.79 1518.01 Q2187.59 1518.43 2184.95 1519.31 L2184.95 1515.14 Q2187.61 1514.4 2189.93 1514.03 Q2192.26 1513.66 2194.32 1513.66 Q2199.65 1513.66 2202.75 1516.09 Q2205.85 1518.5 2205.85 1522.62 Q2205.85 1525.49 2204.21 1527.48 Q2202.57 1529.45 2199.53 1530.21 Z" fill="#000000" fill-rule="evenodd" fill-opacity="1" /><polyline clip-path="url(#clip202)" style="stroke:#000000; stroke-linecap:round; stroke-linejoin:round; stroke-width:2; stroke-opacity:0.1; fill:none" points="
  147.478,1347.46 2352.76,1347.46 
  "/>
<polyline clip-path="url(#clip202)" style="stroke:#000000; stroke-linecap:round; stroke-linejoin:round; stroke-width:2; stroke-opacity:0.1; fill:none" points="
  147.478,1028.42 2352.76,1028.42 
  "/>
<polyline clip-path="url(#clip202)" style="stroke:#000000; stroke-linecap:round; stroke-linejoin:round; stroke-width:2; stroke-opacity:0.1; fill:none" points="
  147.478,709.379 2352.76,709.379 
  "/>
<polyline clip-path="url(#clip202)" style="stroke:#000000; stroke-linecap:round; stroke-linejoin:round; stroke-width:2; stroke-opacity:0.1; fill:none" points="
  147.478,390.339 2352.76,390.339 
  "/>
<polyline clip-path="url(#clip202)" style="stroke:#000000; stroke-linecap:round; stroke-linejoin:round; stroke-width:2; stroke-opacity:0.1; fill:none" points="
  147.478,71.298 2352.76,71.298 
  "/>
<polyline clip-path="url(#clip200)" style="stroke:#000000; stroke-linecap:round; stroke-linejoin:round; stroke-width:4; stroke-opacity:1; fill:none" points="
  147.478,1486.45 147.478,47.2441 
  "/>
<polyline clip-path="url(#clip200)" style="stroke:#000000; stroke-linecap:round; stroke-linejoin:round; stroke-width:4; stroke-opacity:1; fill:none" points="
  147.478,1347.46 166.376,1347.46 
  "/>
<polyline clip-path="url(#clip200)" style="stroke:#000000; stroke-linecap:round; stroke-linejoin:round; stroke-width:4; stroke-opacity:1; fill:none" points="
  147.478,1028.42 166.376,1028.42 
  "/>
<polyline clip-path="url(#clip200)" style="stroke:#000000; stroke-linecap:round; stroke-linejoin:round; stroke-width:4; stroke-opacity:1; fill:none" points="
  147.478,709.379 166.376,709.379 
  "/>
<polyline clip-path="url(#clip200)" style="stroke:#000000; stroke-linecap:round; stroke-linejoin:round; stroke-width:4; stroke-opacity:1; fill:none" points="
  147.478,390.339 166.376,390.339 
  "/>
<polyline clip-path="url(#clip200)" style="stroke:#000000; stroke-linecap:round; stroke-linejoin:round; stroke-width:4; stroke-opacity:1; fill:none" points="
  147.478,71.298 166.376,71.298 
  "/>
<path clip-path="url(#clip200)" d="M50.9921 1347.91 L80.6679 1347.91 L80.6679 1351.85 L50.9921 1351.85 L50.9921 1347.91 Z" fill="#000000" fill-rule="evenodd" fill-opacity="1" /><path clip-path="url(#clip200)" d="M91.5706 1360.81 L99.2095 1360.81 L99.2095 1334.44 L90.8993 1336.11 L90.8993 1331.85 L99.1632 1330.18 L103.839 1330.18 L103.839 1360.81 L111.478 1360.81 L111.478 1364.74 L91.5706 1364.74 L91.5706 1360.81 Z" fill="#000000" fill-rule="evenodd" fill-opacity="1" /><path clip-path="url(#clip200)" d="M99.5335 1014.22 Q95.9224 1014.22 94.0937 1017.78 Q92.2882 1021.33 92.2882 1028.45 Q92.2882 1035.56 94.0937 1039.13 Q95.9224 1042.67 99.5335 1042.67 Q103.168 1042.67 104.973 1039.13 Q106.802 1035.56 106.802 1028.45 Q106.802 1021.33 104.973 1017.78 Q103.168 1014.22 99.5335 1014.22 M99.5335 1010.51 Q105.344 1010.51 108.399 1015.12 Q111.478 1019.7 111.478 1028.45 Q111.478 1037.18 108.399 1041.79 Q105.344 1046.37 99.5335 1046.37 Q93.7234 1046.37 90.6447 1041.79 Q87.5892 1037.18 87.5892 1028.45 Q87.5892 1019.7 90.6447 1015.12 Q93.7234 1010.51 99.5335 1010.51 Z" fill="#000000" fill-rule="evenodd" fill-opacity="1" /><path clip-path="url(#clip200)" d="M91.5706 722.724 L99.2095 722.724 L99.2095 696.359 L90.8993 698.025 L90.8993 693.766 L99.1632 692.099 L103.839 692.099 L103.839 722.724 L111.478 722.724 L111.478 726.659 L91.5706 726.659 L91.5706 722.724 Z" fill="#000000" fill-rule="evenodd" fill-opacity="1" /><path clip-path="url(#clip200)" d="M95.1586 403.683 L111.478 403.683 L111.478 407.619 L89.5336 407.619 L89.5336 403.683 Q92.1956 400.929 96.7789 396.299 Q101.385 391.647 102.566 390.304 Q104.811 387.781 105.691 386.045 Q106.594 384.285 106.594 382.596 Q106.594 379.841 104.649 378.105 Q102.728 376.369 99.6261 376.369 Q97.4271 376.369 94.9734 377.133 Q92.5428 377.897 89.7651 379.448 L89.7651 374.725 Q92.5891 373.591 95.0428 373.012 Q97.4965 372.434 99.5335 372.434 Q104.904 372.434 108.098 375.119 Q111.293 377.804 111.293 382.295 Q111.293 384.424 110.483 386.346 Q109.696 388.244 107.589 390.836 Q107.01 391.508 103.909 394.725 Q100.807 397.92 95.1586 403.683 Z" fill="#000000" fill-rule="evenodd" fill-opacity="1" /><path clip-path="url(#clip200)" d="M104.348 69.9438 Q107.705 70.6614 109.58 72.9299 Q111.478 75.1984 111.478 78.5317 Q111.478 83.6475 107.959 86.4484 Q104.441 89.2493 97.9595 89.2493 Q95.7836 89.2493 93.4688 88.8095 Q91.1771 88.3928 88.7234 87.5363 L88.7234 83.0225 Q90.6678 84.1567 92.9826 84.7354 Q95.2974 85.3141 97.8206 85.3141 Q102.219 85.3141 104.51 83.578 Q106.825 81.8419 106.825 78.5317 Q106.825 75.4762 104.672 73.7632 Q102.543 72.0271 98.7234 72.0271 L94.6956 72.0271 L94.6956 68.1846 L98.9085 68.1846 Q102.358 68.1846 104.186 66.8188 Q106.015 65.43 106.015 62.8374 Q106.015 60.1754 104.117 58.7633 Q102.242 57.3281 98.7234 57.3281 Q96.8021 57.3281 94.603 57.7448 Q92.4039 58.1615 89.7651 59.0411 L89.7651 54.8745 Q92.4271 54.1337 94.7419 53.7634 Q97.0798 53.393 99.14 53.393 Q104.464 53.393 107.566 55.8235 Q110.668 58.2309 110.668 62.3513 Q110.668 65.2216 109.024 67.2124 Q107.381 69.1799 104.348 69.9438 Z" fill="#000000" fill-rule="evenodd" fill-opacity="1" /><circle clip-path="url(#clip202)" cx="1487.35" cy="710.136" r="14.4" fill="#e69f00" fill-rule="evenodd" fill-opacity="1" stroke="#000000" stroke-opacity="1" stroke-width="3.2"/>
<circle clip-path="url(#clip202)" cx="664.987" cy="967.351" r="14.4" fill="#e69f00" fill-rule="evenodd" fill-opacity="1" stroke="#000000" stroke-opacity="1" stroke-width="3.2"/>
<circle clip-path="url(#clip202)" cx="2041.67" cy="370.768" r="14.4" fill="#e69f00" fill-rule="evenodd" fill-opacity="1" stroke="#000000" stroke-opacity="1" stroke-width="3.2"/>
<circle clip-path="url(#clip202)" cx="360.68" cy="950.748" r="14.4" fill="#e69f00" fill-rule="evenodd" fill-opacity="1" stroke="#000000" stroke-opacity="1" stroke-width="3.2"/>
<circle clip-path="url(#clip202)" cx="896.063" cy="638.146" r="14.4" fill="#e69f00" fill-rule="evenodd" fill-opacity="1" stroke="#000000" stroke-opacity="1" stroke-width="3.2"/>
<circle clip-path="url(#clip202)" cx="1106.87" cy="903.242" r="14.4" fill="#e69f00" fill-rule="evenodd" fill-opacity="1" stroke="#000000" stroke-opacity="1" stroke-width="3.2"/>
<circle clip-path="url(#clip202)" cx="1359.42" cy="1150.56" r="14.4" fill="#e69f00" fill-rule="evenodd" fill-opacity="1" stroke="#000000" stroke-opacity="1" stroke-width="3.2"/>
<circle clip-path="url(#clip202)" cx="431.974" cy="385.613" r="14.4" fill="#e69f00" fill-rule="evenodd" fill-opacity="1" stroke="#000000" stroke-opacity="1" stroke-width="3.2"/>
<circle clip-path="url(#clip202)" cx="345.091" cy="891.545" r="14.4" fill="#e69f00" fill-rule="evenodd" fill-opacity="1" stroke="#000000" stroke-opacity="1" stroke-width="3.2"/>
<circle clip-path="url(#clip202)" cx="1274.73" cy="750.033" r="14.4" fill="#e69f00" fill-rule="evenodd" fill-opacity="1" stroke="#000000" stroke-opacity="1" stroke-width="3.2"/>
<circle clip-path="url(#clip202)" cx="1145.84" cy="1032.48" r="14.4" fill="#e69f00" fill-rule="evenodd" fill-opacity="1" stroke="#000000" stroke-opacity="1" stroke-width="3.2"/>
<circle clip-path="url(#clip202)" cx="565.126" cy="435.736" r="14.4" fill="#e69f00" fill-rule="evenodd" fill-opacity="1" stroke="#000000" stroke-opacity="1" stroke-width="3.2"/>
<circle clip-path="url(#clip202)" cx="2021.66" cy="474.595" r="14.4" fill="#e69f00" fill-rule="evenodd" fill-opacity="1" stroke="#000000" stroke-opacity="1" stroke-width="3.2"/>
<circle clip-path="url(#clip202)" cx="1129.87" cy="1161.4" r="14.4" fill="#e69f00" fill-rule="evenodd" fill-opacity="1" stroke="#000000" stroke-opacity="1" stroke-width="3.2"/>
<circle clip-path="url(#clip202)" cx="1238.12" cy="897.538" r="14.4" fill="#e69f00" fill-rule="evenodd" fill-opacity="1" stroke="#000000" stroke-opacity="1" stroke-width="3.2"/>
<circle clip-path="url(#clip202)" cx="555.197" cy="398.859" r="14.4" fill="#e69f00" fill-rule="evenodd" fill-opacity="1" stroke="#000000" stroke-opacity="1" stroke-width="3.2"/>
<circle clip-path="url(#clip202)" cx="305.268" cy="935.875" r="14.4" fill="#e69f00" fill-rule="evenodd" fill-opacity="1" stroke="#000000" stroke-opacity="1" stroke-width="3.2"/>
<circle clip-path="url(#clip202)" cx="1240.23" cy="1322.66" r="14.4" fill="#e69f00" fill-rule="evenodd" fill-opacity="1" stroke="#000000" stroke-opacity="1" stroke-width="3.2"/>
<circle clip-path="url(#clip202)" cx="822.744" cy="611.182" r="14.4" fill="#e69f00" fill-rule="evenodd" fill-opacity="1" stroke="#000000" stroke-opacity="1" stroke-width="3.2"/>
<circle clip-path="url(#clip202)" cx="819.734" cy="706.466" r="14.4" fill="#e69f00" fill-rule="evenodd" fill-opacity="1" stroke="#000000" stroke-opacity="1" stroke-width="3.2"/>
<circle clip-path="url(#clip202)" cx="1171.53" cy="841.184" r="14.4" fill="#e69f00" fill-rule="evenodd" fill-opacity="1" stroke="#000000" stroke-opacity="1" stroke-width="3.2"/>
<circle clip-path="url(#clip202)" cx="596.094" cy="419.529" r="14.4" fill="#e69f00" fill-rule="evenodd" fill-opacity="1" stroke="#000000" stroke-opacity="1" stroke-width="3.2"/>
<circle clip-path="url(#clip202)" cx="604.102" cy="210.559" r="14.4" fill="#e69f00" fill-rule="evenodd" fill-opacity="1" stroke="#000000" stroke-opacity="1" stroke-width="3.2"/>
<circle clip-path="url(#clip202)" cx="620.195" cy="856.52" r="14.4" fill="#e69f00" fill-rule="evenodd" fill-opacity="1" stroke="#000000" stroke-opacity="1" stroke-width="3.2"/>
<circle clip-path="url(#clip202)" cx="1300.99" cy="627.611" r="14.4" fill="#e69f00" fill-rule="evenodd" fill-opacity="1" stroke="#000000" stroke-opacity="1" stroke-width="3.2"/>
<circle clip-path="url(#clip202)" cx="2085.69" cy="483.063" r="14.4" fill="#e69f00" fill-rule="evenodd" fill-opacity="1" stroke="#000000" stroke-opacity="1" stroke-width="3.2"/>
<circle clip-path="url(#clip202)" cx="2105.73" cy="669.035" r="14.4" fill="#e69f00" fill-rule="evenodd" fill-opacity="1" stroke="#000000" stroke-opacity="1" stroke-width="3.2"/>
<circle clip-path="url(#clip202)" cx="1071.24" cy="850.579" r="14.4" fill="#e69f00" fill-rule="evenodd" fill-opacity="1" stroke="#000000" stroke-opacity="1" stroke-width="3.2"/>
<circle clip-path="url(#clip202)" cx="337.839" cy="706.099" r="14.4" fill="#e69f00" fill-rule="evenodd" fill-opacity="1" stroke="#000000" stroke-opacity="1" stroke-width="3.2"/>
<circle clip-path="url(#clip202)" cx="680.342" cy="534.568" r="14.4" fill="#e69f00" fill-rule="evenodd" fill-opacity="1" stroke="#000000" stroke-opacity="1" stroke-width="3.2"/>
<circle clip-path="url(#clip202)" cx="1271.48" cy="1131.71" r="14.4" fill="#e69f00" fill-rule="evenodd" fill-opacity="1" stroke="#000000" stroke-opacity="1" stroke-width="3.2"/>
<circle clip-path="url(#clip202)" cx="578.19" cy="533.13" r="14.4" fill="#e69f00" fill-rule="evenodd" fill-opacity="1" stroke="#000000" stroke-opacity="1" stroke-width="3.2"/>
<circle clip-path="url(#clip202)" cx="658.204" cy="206.764" r="14.4" fill="#e69f00" fill-rule="evenodd" fill-opacity="1" stroke="#000000" stroke-opacity="1" stroke-width="3.2"/>
<circle clip-path="url(#clip202)" cx="1704.25" cy="979.528" r="14.4" fill="#e69f00" fill-rule="evenodd" fill-opacity="1" stroke="#000000" stroke-opacity="1" stroke-width="3.2"/>
<circle clip-path="url(#clip202)" cx="2194.97" cy="814.638" r="14.4" fill="#e69f00" fill-rule="evenodd" fill-opacity="1" stroke="#000000" stroke-opacity="1" stroke-width="3.2"/>
<circle clip-path="url(#clip202)" cx="1581.61" cy="555.94" r="14.4" fill="#e69f00" fill-rule="evenodd" fill-opacity="1" stroke="#000000" stroke-opacity="1" stroke-width="3.2"/>
<circle clip-path="url(#clip202)" cx="1873.22" cy="733.232" r="14.4" fill="#e69f00" fill-rule="evenodd" fill-opacity="1" stroke="#000000" stroke-opacity="1" stroke-width="3.2"/>
<circle clip-path="url(#clip202)" cx="955.228" cy="661.353" r="14.4" fill="#e69f00" fill-rule="evenodd" fill-opacity="1" stroke="#000000" stroke-opacity="1" stroke-width="3.2"/>
<circle clip-path="url(#clip202)" cx="1371.2" cy="922.18" r="14.4" fill="#e69f00" fill-rule="evenodd" fill-opacity="1" stroke="#000000" stroke-opacity="1" stroke-width="3.2"/>
<circle clip-path="url(#clip202)" cx="613.165" cy="417.785" r="14.4" fill="#e69f00" fill-rule="evenodd" fill-opacity="1" stroke="#000000" stroke-opacity="1" stroke-width="3.2"/>
<circle clip-path="url(#clip202)" cx="1927.35" cy="505.267" r="14.4" fill="#e69f00" fill-rule="evenodd" fill-opacity="1" stroke="#000000" stroke-opacity="1" stroke-width="3.2"/>
<circle clip-path="url(#clip202)" cx="1191.86" cy="1084.98" r="14.4" fill="#e69f00" fill-rule="evenodd" fill-opacity="1" stroke="#000000" stroke-opacity="1" stroke-width="3.2"/>
<circle clip-path="url(#clip202)" cx="1740.04" cy="693.8" r="14.4" fill="#e69f00" fill-rule="evenodd" fill-opacity="1" stroke="#000000" stroke-opacity="1" stroke-width="3.2"/>
<circle clip-path="url(#clip202)" cx="1126.88" cy="1156.5" r="14.4" fill="#e69f00" fill-rule="evenodd" fill-opacity="1" stroke="#000000" stroke-opacity="1" stroke-width="3.2"/>
<circle clip-path="url(#clip202)" cx="328.168" cy="776.97" r="14.4" fill="#e69f00" fill-rule="evenodd" fill-opacity="1" stroke="#000000" stroke-opacity="1" stroke-width="3.2"/>
<circle clip-path="url(#clip202)" cx="1215.37" cy="1127.59" r="14.4" fill="#e69f00" fill-rule="evenodd" fill-opacity="1" stroke="#000000" stroke-opacity="1" stroke-width="3.2"/>
<circle clip-path="url(#clip202)" cx="1539.77" cy="760.915" r="14.4" fill="#e69f00" fill-rule="evenodd" fill-opacity="1" stroke="#000000" stroke-opacity="1" stroke-width="3.2"/>
<circle clip-path="url(#clip202)" cx="313.616" cy="1077.04" r="14.4" fill="#e69f00" fill-rule="evenodd" fill-opacity="1" stroke="#000000" stroke-opacity="1" stroke-width="3.2"/>
<circle clip-path="url(#clip202)" cx="892.776" cy="638.161" r="14.4" fill="#e69f00" fill-rule="evenodd" fill-opacity="1" stroke="#000000" stroke-opacity="1" stroke-width="3.2"/>
<circle clip-path="url(#clip202)" cx="667.147" cy="556.707" r="14.4" fill="#e69f00" fill-rule="evenodd" fill-opacity="1" stroke="#000000" stroke-opacity="1" stroke-width="3.2"/>
<circle clip-path="url(#clip202)" cx="1308.85" cy="1279.01" r="14.4" fill="#e69f00" fill-rule="evenodd" fill-opacity="1" stroke="#000000" stroke-opacity="1" stroke-width="3.2"/>
<circle clip-path="url(#clip202)" cx="1481.02" cy="708.954" r="14.4" fill="#e69f00" fill-rule="evenodd" fill-opacity="1" stroke="#000000" stroke-opacity="1" stroke-width="3.2"/>
<circle clip-path="url(#clip202)" cx="1680.09" cy="787.125" r="14.4" fill="#e69f00" fill-rule="evenodd" fill-opacity="1" stroke="#000000" stroke-opacity="1" stroke-width="3.2"/>
<circle clip-path="url(#clip202)" cx="725.705" cy="393.395" r="14.4" fill="#e69f00" fill-rule="evenodd" fill-opacity="1" stroke="#000000" stroke-opacity="1" stroke-width="3.2"/>
<circle clip-path="url(#clip202)" cx="1330.29" cy="933.449" r="14.4" fill="#e69f00" fill-rule="evenodd" fill-opacity="1" stroke="#000000" stroke-opacity="1" stroke-width="3.2"/>
<circle clip-path="url(#clip202)" cx="1644.97" cy="999.516" r="14.4" fill="#e69f00" fill-rule="evenodd" fill-opacity="1" stroke="#000000" stroke-opacity="1" stroke-width="3.2"/>
<circle clip-path="url(#clip202)" cx="956.979" cy="875.806" r="14.4" fill="#e69f00" fill-rule="evenodd" fill-opacity="1" stroke="#000000" stroke-opacity="1" stroke-width="3.2"/>
<circle clip-path="url(#clip202)" cx="1501.62" cy="835.831" r="14.4" fill="#e69f00" fill-rule="evenodd" fill-opacity="1" stroke="#000000" stroke-opacity="1" stroke-width="3.2"/>
<circle clip-path="url(#clip202)" cx="1288.31" cy="724.994" r="14.4" fill="#e69f00" fill-rule="evenodd" fill-opacity="1" stroke="#000000" stroke-opacity="1" stroke-width="3.2"/>
<circle clip-path="url(#clip202)" cx="732.316" cy="339.714" r="14.4" fill="#e69f00" fill-rule="evenodd" fill-opacity="1" stroke="#000000" stroke-opacity="1" stroke-width="3.2"/>
<circle clip-path="url(#clip202)" cx="1339.99" cy="1173.51" r="14.4" fill="#e69f00" fill-rule="evenodd" fill-opacity="1" stroke="#000000" stroke-opacity="1" stroke-width="3.2"/>
<circle clip-path="url(#clip202)" cx="778.129" cy="512.375" r="14.4" fill="#e69f00" fill-rule="evenodd" fill-opacity="1" stroke="#000000" stroke-opacity="1" stroke-width="3.2"/>
<circle clip-path="url(#clip202)" cx="742.937" cy="438.983" r="14.4" fill="#e69f00" fill-rule="evenodd" fill-opacity="1" stroke="#000000" stroke-opacity="1" stroke-width="3.2"/>
<circle clip-path="url(#clip202)" cx="1303.82" cy="1156.9" r="14.4" fill="#e69f00" fill-rule="evenodd" fill-opacity="1" stroke="#000000" stroke-opacity="1" stroke-width="3.2"/>
<circle clip-path="url(#clip202)" cx="1112.72" cy="835.692" r="14.4" fill="#e69f00" fill-rule="evenodd" fill-opacity="1" stroke="#000000" stroke-opacity="1" stroke-width="3.2"/>
<circle clip-path="url(#clip202)" cx="812.387" cy="392.052" r="14.4" fill="#e69f00" fill-rule="evenodd" fill-opacity="1" stroke="#000000" stroke-opacity="1" stroke-width="3.2"/>
<circle clip-path="url(#clip202)" cx="1121.93" cy="877.094" r="14.4" fill="#e69f00" fill-rule="evenodd" fill-opacity="1" stroke="#000000" stroke-opacity="1" stroke-width="3.2"/>
<circle clip-path="url(#clip202)" cx="593.35" cy="595.333" r="14.4" fill="#e69f00" fill-rule="evenodd" fill-opacity="1" stroke="#000000" stroke-opacity="1" stroke-width="3.2"/>
<circle clip-path="url(#clip202)" cx="492.033" cy="322.046" r="14.4" fill="#e69f00" fill-rule="evenodd" fill-opacity="1" stroke="#000000" stroke-opacity="1" stroke-width="3.2"/>
<circle clip-path="url(#clip202)" cx="860.22" cy="827.927" r="14.4" fill="#e69f00" fill-rule="evenodd" fill-opacity="1" stroke="#000000" stroke-opacity="1" stroke-width="3.2"/>
<circle clip-path="url(#clip202)" cx="1106.78" cy="1108.9" r="14.4" fill="#e69f00" fill-rule="evenodd" fill-opacity="1" stroke="#000000" stroke-opacity="1" stroke-width="3.2"/>
<circle clip-path="url(#clip202)" cx="2149.03" cy="563.68" r="14.4" fill="#e69f00" fill-rule="evenodd" fill-opacity="1" stroke="#000000" stroke-opacity="1" stroke-width="3.2"/>
<circle clip-path="url(#clip202)" cx="491.37" cy="490.822" r="14.4" fill="#e69f00" fill-rule="evenodd" fill-opacity="1" stroke="#000000" stroke-opacity="1" stroke-width="3.2"/>
<circle clip-path="url(#clip202)" cx="939.628" cy="904.809" r="14.4" fill="#e69f00" fill-rule="evenodd" fill-opacity="1" stroke="#000000" stroke-opacity="1" stroke-width="3.2"/>
<circle clip-path="url(#clip202)" cx="979.705" cy="1058.06" r="14.4" fill="#e69f00" fill-rule="evenodd" fill-opacity="1" stroke="#000000" stroke-opacity="1" stroke-width="3.2"/>
<circle clip-path="url(#clip202)" cx="1904.69" cy="535.645" r="14.4" fill="#e69f00" fill-rule="evenodd" fill-opacity="1" stroke="#000000" stroke-opacity="1" stroke-width="3.2"/>
<circle clip-path="url(#clip202)" cx="1501.26" cy="558.927" r="14.4" fill="#e69f00" fill-rule="evenodd" fill-opacity="1" stroke="#000000" stroke-opacity="1" stroke-width="3.2"/>
<circle clip-path="url(#clip202)" cx="1940.34" cy="295.432" r="14.4" fill="#e69f00" fill-rule="evenodd" fill-opacity="1" stroke="#000000" stroke-opacity="1" stroke-width="3.2"/>
<circle clip-path="url(#clip202)" cx="1080.94" cy="626.879" r="14.4" fill="#e69f00" fill-rule="evenodd" fill-opacity="1" stroke="#000000" stroke-opacity="1" stroke-width="3.2"/>
<circle clip-path="url(#clip202)" cx="563.972" cy="521.376" r="14.4" fill="#e69f00" fill-rule="evenodd" fill-opacity="1" stroke="#000000" stroke-opacity="1" stroke-width="3.2"/>
<circle clip-path="url(#clip202)" cx="995.77" cy="613.142" r="14.4" fill="#e69f00" fill-rule="evenodd" fill-opacity="1" stroke="#000000" stroke-opacity="1" stroke-width="3.2"/>
<circle clip-path="url(#clip202)" cx="1868.18" cy="587.283" r="14.4" fill="#e69f00" fill-rule="evenodd" fill-opacity="1" stroke="#000000" stroke-opacity="1" stroke-width="3.2"/>
<circle clip-path="url(#clip202)" cx="422.533" cy="761.517" r="14.4" fill="#e69f00" fill-rule="evenodd" fill-opacity="1" stroke="#000000" stroke-opacity="1" stroke-width="3.2"/>
<circle clip-path="url(#clip202)" cx="2101.58" cy="713.415" r="14.4" fill="#e69f00" fill-rule="evenodd" fill-opacity="1" stroke="#000000" stroke-opacity="1" stroke-width="3.2"/>
<circle clip-path="url(#clip202)" cx="432.556" cy="676.237" r="14.4" fill="#e69f00" fill-rule="evenodd" fill-opacity="1" stroke="#000000" stroke-opacity="1" stroke-width="3.2"/>
<circle clip-path="url(#clip202)" cx="380.393" cy="711.783" r="14.4" fill="#e69f00" fill-rule="evenodd" fill-opacity="1" stroke="#000000" stroke-opacity="1" stroke-width="3.2"/>
<circle clip-path="url(#clip202)" cx="1059.27" cy="879.761" r="14.4" fill="#e69f00" fill-rule="evenodd" fill-opacity="1" stroke="#000000" stroke-opacity="1" stroke-width="3.2"/>
<circle clip-path="url(#clip202)" cx="896.445" cy="574.987" r="14.4" fill="#e69f00" fill-rule="evenodd" fill-opacity="1" stroke="#000000" stroke-opacity="1" stroke-width="3.2"/>
<circle clip-path="url(#clip202)" cx="1296.44" cy="1138.47" r="14.4" fill="#e69f00" fill-rule="evenodd" fill-opacity="1" stroke="#000000" stroke-opacity="1" stroke-width="3.2"/>
<circle clip-path="url(#clip202)" cx="628.158" cy="532.436" r="14.4" fill="#e69f00" fill-rule="evenodd" fill-opacity="1" stroke="#000000" stroke-opacity="1" stroke-width="3.2"/>
<circle clip-path="url(#clip202)" cx="1049.37" cy="937.47" r="14.4" fill="#e69f00" fill-rule="evenodd" fill-opacity="1" stroke="#000000" stroke-opacity="1" stroke-width="3.2"/>
<circle clip-path="url(#clip202)" cx="605.507" cy="672.929" r="14.4" fill="#e69f00" fill-rule="evenodd" fill-opacity="1" stroke="#000000" stroke-opacity="1" stroke-width="3.2"/>
<circle clip-path="url(#clip202)" cx="2099.01" cy="962.547" r="14.4" fill="#e69f00" fill-rule="evenodd" fill-opacity="1" stroke="#000000" stroke-opacity="1" stroke-width="3.2"/>
<circle clip-path="url(#clip202)" cx="914.918" cy="1032.21" r="14.4" fill="#e69f00" fill-rule="evenodd" fill-opacity="1" stroke="#000000" stroke-opacity="1" stroke-width="3.2"/>
<circle clip-path="url(#clip202)" cx="1291.2" cy="1303.23" r="14.4" fill="#e69f00" fill-rule="evenodd" fill-opacity="1" stroke="#000000" stroke-opacity="1" stroke-width="3.2"/>
<circle clip-path="url(#clip202)" cx="2121.4" cy="564.472" r="14.4" fill="#e69f00" fill-rule="evenodd" fill-opacity="1" stroke="#000000" stroke-opacity="1" stroke-width="3.2"/>
<circle clip-path="url(#clip202)" cx="2094.56" cy="678.273" r="14.4" fill="#e69f00" fill-rule="evenodd" fill-opacity="1" stroke="#000000" stroke-opacity="1" stroke-width="3.2"/>
<circle clip-path="url(#clip202)" cx="1972.7" cy="663.198" r="14.4" fill="#e69f00" fill-rule="evenodd" fill-opacity="1" stroke="#000000" stroke-opacity="1" stroke-width="3.2"/>
<circle clip-path="url(#clip202)" cx="1640.73" cy="538.607" r="14.4" fill="#e69f00" fill-rule="evenodd" fill-opacity="1" stroke="#000000" stroke-opacity="1" stroke-width="3.2"/>
<circle clip-path="url(#clip202)" cx="1382.07" cy="932.882" r="14.4" fill="#e69f00" fill-rule="evenodd" fill-opacity="1" stroke="#000000" stroke-opacity="1" stroke-width="3.2"/>
<circle clip-path="url(#clip202)" cx="1747.14" cy="379.967" r="14.4" fill="#e69f00" fill-rule="evenodd" fill-opacity="1" stroke="#000000" stroke-opacity="1" stroke-width="3.2"/>
<circle clip-path="url(#clip202)" cx="839.159" cy="736.1" r="14.4" fill="#e69f00" fill-rule="evenodd" fill-opacity="1" stroke="#000000" stroke-opacity="1" stroke-width="3.2"/>
<circle clip-path="url(#clip202)" cx="1674.18" cy="592.408" r="14.4" fill="#e69f00" fill-rule="evenodd" fill-opacity="1" stroke="#000000" stroke-opacity="1" stroke-width="3.2"/>
<circle clip-path="url(#clip202)" cx="1447.7" cy="864.409" r="14.4" fill="#e69f00" fill-rule="evenodd" fill-opacity="1" stroke="#000000" stroke-opacity="1" stroke-width="3.2"/>
<circle clip-path="url(#clip202)" cx="832.775" cy="418.523" r="14.4" fill="#e69f00" fill-rule="evenodd" fill-opacity="1" stroke="#000000" stroke-opacity="1" stroke-width="3.2"/>
<circle clip-path="url(#clip202)" cx="1738.16" cy="649.519" r="14.4" fill="#e69f00" fill-rule="evenodd" fill-opacity="1" stroke="#000000" stroke-opacity="1" stroke-width="3.2"/>
<circle clip-path="url(#clip202)" cx="569.618" cy="292.95" r="14.4" fill="#e69f00" fill-rule="evenodd" fill-opacity="1" stroke="#000000" stroke-opacity="1" stroke-width="3.2"/>
<circle clip-path="url(#clip202)" cx="545.092" cy="449.669" r="14.4" fill="#e69f00" fill-rule="evenodd" fill-opacity="1" stroke="#000000" stroke-opacity="1" stroke-width="3.2"/>
<circle clip-path="url(#clip202)" cx="422.561" cy="756.146" r="14.4" fill="#e69f00" fill-rule="evenodd" fill-opacity="1" stroke="#000000" stroke-opacity="1" stroke-width="3.2"/>
<circle clip-path="url(#clip202)" cx="740.359" cy="487.253" r="14.4" fill="#e69f00" fill-rule="evenodd" fill-opacity="1" stroke="#000000" stroke-opacity="1" stroke-width="3.2"/>
<circle clip-path="url(#clip202)" cx="1443.04" cy="927.623" r="14.4" fill="#e69f00" fill-rule="evenodd" fill-opacity="1" stroke="#000000" stroke-opacity="1" stroke-width="3.2"/>
<circle clip-path="url(#clip202)" cx="979.989" cy="1026.38" r="14.4" fill="#e69f00" fill-rule="evenodd" fill-opacity="1" stroke="#000000" stroke-opacity="1" stroke-width="3.2"/>
<circle clip-path="url(#clip202)" cx="1575.99" cy="683.211" r="14.4" fill="#e69f00" fill-rule="evenodd" fill-opacity="1" stroke="#000000" stroke-opacity="1" stroke-width="3.2"/>
<circle clip-path="url(#clip202)" cx="343.619" cy="884.036" r="14.4" fill="#e69f00" fill-rule="evenodd" fill-opacity="1" stroke="#000000" stroke-opacity="1" stroke-width="3.2"/>
<circle clip-path="url(#clip202)" cx="832.45" cy="424.213" r="14.4" fill="#e69f00" fill-rule="evenodd" fill-opacity="1" stroke="#000000" stroke-opacity="1" stroke-width="3.2"/>
<circle clip-path="url(#clip202)" cx="1327.91" cy="1014.25" r="14.4" fill="#e69f00" fill-rule="evenodd" fill-opacity="1" stroke="#000000" stroke-opacity="1" stroke-width="3.2"/>
<circle clip-path="url(#clip202)" cx="1485.87" cy="931.737" r="14.4" fill="#e69f00" fill-rule="evenodd" fill-opacity="1" stroke="#000000" stroke-opacity="1" stroke-width="3.2"/>
<circle clip-path="url(#clip202)" cx="306.231" cy="785.008" r="14.4" fill="#e69f00" fill-rule="evenodd" fill-opacity="1" stroke="#000000" stroke-opacity="1" stroke-width="3.2"/>
<circle clip-path="url(#clip202)" cx="1114.24" cy="1150.47" r="14.4" fill="#e69f00" fill-rule="evenodd" fill-opacity="1" stroke="#000000" stroke-opacity="1" stroke-width="3.2"/>
<circle clip-path="url(#clip202)" cx="2011.71" cy="726.611" r="14.4" fill="#e69f00" fill-rule="evenodd" fill-opacity="1" stroke="#000000" stroke-opacity="1" stroke-width="3.2"/>
<circle clip-path="url(#clip202)" cx="782.399" cy="560.645" r="14.4" fill="#e69f00" fill-rule="evenodd" fill-opacity="1" stroke="#000000" stroke-opacity="1" stroke-width="3.2"/>
<circle clip-path="url(#clip202)" cx="632.153" cy="333.763" r="14.4" fill="#e69f00" fill-rule="evenodd" fill-opacity="1" stroke="#000000" stroke-opacity="1" stroke-width="3.2"/>
<circle clip-path="url(#clip202)" cx="466.256" cy="678.481" r="14.4" fill="#e69f00" fill-rule="evenodd" fill-opacity="1" stroke="#000000" stroke-opacity="1" stroke-width="3.2"/>
<circle clip-path="url(#clip202)" cx="1141.89" cy="865.964" r="14.4" fill="#e69f00" fill-rule="evenodd" fill-opacity="1" stroke="#000000" stroke-opacity="1" stroke-width="3.2"/>
<circle clip-path="url(#clip202)" cx="771.524" cy="638.657" r="14.4" fill="#e69f00" fill-rule="evenodd" fill-opacity="1" stroke="#000000" stroke-opacity="1" stroke-width="3.2"/>
<circle clip-path="url(#clip202)" cx="964.978" cy="909.892" r="14.4" fill="#e69f00" fill-rule="evenodd" fill-opacity="1" stroke="#000000" stroke-opacity="1" stroke-width="3.2"/>
<circle clip-path="url(#clip202)" cx="882.242" cy="889.678" r="14.4" fill="#e69f00" fill-rule="evenodd" fill-opacity="1" stroke="#000000" stroke-opacity="1" stroke-width="3.2"/>
<circle clip-path="url(#clip202)" cx="630.453" cy="710.334" r="14.4" fill="#e69f00" fill-rule="evenodd" fill-opacity="1" stroke="#000000" stroke-opacity="1" stroke-width="3.2"/>
<circle clip-path="url(#clip202)" cx="756.649" cy="621.229" r="14.4" fill="#e69f00" fill-rule="evenodd" fill-opacity="1" stroke="#000000" stroke-opacity="1" stroke-width="3.2"/>
<circle clip-path="url(#clip202)" cx="1982" cy="774.028" r="14.4" fill="#e69f00" fill-rule="evenodd" fill-opacity="1" stroke="#000000" stroke-opacity="1" stroke-width="3.2"/>
<circle clip-path="url(#clip202)" cx="399.413" cy="425.207" r="14.4" fill="#e69f00" fill-rule="evenodd" fill-opacity="1" stroke="#000000" stroke-opacity="1" stroke-width="3.2"/>
<circle clip-path="url(#clip202)" cx="1212.54" cy="930.357" r="14.4" fill="#e69f00" fill-rule="evenodd" fill-opacity="1" stroke="#000000" stroke-opacity="1" stroke-width="3.2"/>
<circle clip-path="url(#clip202)" cx="797.747" cy="441.151" r="14.4" fill="#e69f00" fill-rule="evenodd" fill-opacity="1" stroke="#000000" stroke-opacity="1" stroke-width="3.2"/>
<circle clip-path="url(#clip202)" cx="372.676" cy="748.988" r="14.4" fill="#e69f00" fill-rule="evenodd" fill-opacity="1" stroke="#000000" stroke-opacity="1" stroke-width="3.2"/>
<circle clip-path="url(#clip202)" cx="1647.91" cy="460.867" r="14.4" fill="#e69f00" fill-rule="evenodd" fill-opacity="1" stroke="#000000" stroke-opacity="1" stroke-width="3.2"/>
<circle clip-path="url(#clip202)" cx="1739.98" cy="505.776" r="14.4" fill="#e69f00" fill-rule="evenodd" fill-opacity="1" stroke="#000000" stroke-opacity="1" stroke-width="3.2"/>
<circle clip-path="url(#clip202)" cx="2192.5" cy="832.74" r="14.4" fill="#e69f00" fill-rule="evenodd" fill-opacity="1" stroke="#000000" stroke-opacity="1" stroke-width="3.2"/>
<circle clip-path="url(#clip202)" cx="388.171" cy="832.255" r="14.4" fill="#e69f00" fill-rule="evenodd" fill-opacity="1" stroke="#000000" stroke-opacity="1" stroke-width="3.2"/>
<circle clip-path="url(#clip202)" cx="1541.92" cy="926.054" r="14.4" fill="#e69f00" fill-rule="evenodd" fill-opacity="1" stroke="#000000" stroke-opacity="1" stroke-width="3.2"/>
<circle clip-path="url(#clip202)" cx="1625.78" cy="883.282" r="14.4" fill="#e69f00" fill-rule="evenodd" fill-opacity="1" stroke="#000000" stroke-opacity="1" stroke-width="3.2"/>
<circle clip-path="url(#clip202)" cx="1925.15" cy="394.21" r="14.4" fill="#e69f00" fill-rule="evenodd" fill-opacity="1" stroke="#000000" stroke-opacity="1" stroke-width="3.2"/>
<circle clip-path="url(#clip202)" cx="729.039" cy="658.619" r="14.4" fill="#e69f00" fill-rule="evenodd" fill-opacity="1" stroke="#000000" stroke-opacity="1" stroke-width="3.2"/>
<circle clip-path="url(#clip202)" cx="445.997" cy="581.463" r="14.4" fill="#e69f00" fill-rule="evenodd" fill-opacity="1" stroke="#000000" stroke-opacity="1" stroke-width="3.2"/>
<circle clip-path="url(#clip202)" cx="627.469" cy="628.031" r="14.4" fill="#e69f00" fill-rule="evenodd" fill-opacity="1" stroke="#000000" stroke-opacity="1" stroke-width="3.2"/>
<circle clip-path="url(#clip202)" cx="370.872" cy="741.255" r="14.4" fill="#e69f00" fill-rule="evenodd" fill-opacity="1" stroke="#000000" stroke-opacity="1" stroke-width="3.2"/>
<circle clip-path="url(#clip202)" cx="2084.55" cy="874.688" r="14.4" fill="#e69f00" fill-rule="evenodd" fill-opacity="1" stroke="#000000" stroke-opacity="1" stroke-width="3.2"/>
<circle clip-path="url(#clip202)" cx="1593.28" cy="926.128" r="14.4" fill="#e69f00" fill-rule="evenodd" fill-opacity="1" stroke="#000000" stroke-opacity="1" stroke-width="3.2"/>
<circle clip-path="url(#clip202)" cx="1887.24" cy="470.326" r="14.4" fill="#e69f00" fill-rule="evenodd" fill-opacity="1" stroke="#000000" stroke-opacity="1" stroke-width="3.2"/>
<circle clip-path="url(#clip202)" cx="835.783" cy="570.837" r="14.4" fill="#e69f00" fill-rule="evenodd" fill-opacity="1" stroke="#000000" stroke-opacity="1" stroke-width="3.2"/>
<circle clip-path="url(#clip202)" cx="1625.86" cy="666.537" r="14.4" fill="#e69f00" fill-rule="evenodd" fill-opacity="1" stroke="#000000" stroke-opacity="1" stroke-width="3.2"/>
<circle clip-path="url(#clip202)" cx="1108.64" cy="591.576" r="14.4" fill="#e69f00" fill-rule="evenodd" fill-opacity="1" stroke="#000000" stroke-opacity="1" stroke-width="3.2"/>
<circle clip-path="url(#clip202)" cx="1036.4" cy="824.005" r="14.4" fill="#e69f00" fill-rule="evenodd" fill-opacity="1" stroke="#000000" stroke-opacity="1" stroke-width="3.2"/>
<circle clip-path="url(#clip202)" cx="967.554" cy="707.124" r="14.4" fill="#e69f00" fill-rule="evenodd" fill-opacity="1" stroke="#000000" stroke-opacity="1" stroke-width="3.2"/>
<circle clip-path="url(#clip202)" cx="504.993" cy="300.98" r="14.4" fill="#e69f00" fill-rule="evenodd" fill-opacity="1" stroke="#000000" stroke-opacity="1" stroke-width="3.2"/>
<circle clip-path="url(#clip202)" cx="1060.88" cy="992.483" r="14.4" fill="#e69f00" fill-rule="evenodd" fill-opacity="1" stroke="#000000" stroke-opacity="1" stroke-width="3.2"/>
<circle clip-path="url(#clip202)" cx="650.532" cy="529.544" r="14.4" fill="#e69f00" fill-rule="evenodd" fill-opacity="1" stroke="#000000" stroke-opacity="1" stroke-width="3.2"/>
<circle clip-path="url(#clip202)" cx="990.641" cy="946.597" r="14.4" fill="#e69f00" fill-rule="evenodd" fill-opacity="1" stroke="#000000" stroke-opacity="1" stroke-width="3.2"/>
<circle clip-path="url(#clip202)" cx="1108.95" cy="945.926" r="14.4" fill="#e69f00" fill-rule="evenodd" fill-opacity="1" stroke="#000000" stroke-opacity="1" stroke-width="3.2"/>
<circle clip-path="url(#clip202)" cx="1767.46" cy="681.835" r="14.4" fill="#e69f00" fill-rule="evenodd" fill-opacity="1" stroke="#000000" stroke-opacity="1" stroke-width="3.2"/>
<circle clip-path="url(#clip202)" cx="2108.2" cy="597.256" r="14.4" fill="#e69f00" fill-rule="evenodd" fill-opacity="1" stroke="#000000" stroke-opacity="1" stroke-width="3.2"/>
<circle clip-path="url(#clip202)" cx="1359.61" cy="1326.93" r="14.4" fill="#e69f00" fill-rule="evenodd" fill-opacity="1" stroke="#000000" stroke-opacity="1" stroke-width="3.2"/>
<circle clip-path="url(#clip202)" cx="857.018" cy="832.395" r="14.4" fill="#e69f00" fill-rule="evenodd" fill-opacity="1" stroke="#000000" stroke-opacity="1" stroke-width="3.2"/>
<circle clip-path="url(#clip202)" cx="709.548" cy="591.192" r="14.4" fill="#e69f00" fill-rule="evenodd" fill-opacity="1" stroke="#000000" stroke-opacity="1" stroke-width="3.2"/>
<circle clip-path="url(#clip202)" cx="2095.34" cy="740.844" r="14.4" fill="#e69f00" fill-rule="evenodd" fill-opacity="1" stroke="#000000" stroke-opacity="1" stroke-width="3.2"/>
<circle clip-path="url(#clip202)" cx="1970.53" cy="455.987" r="14.4" fill="#e69f00" fill-rule="evenodd" fill-opacity="1" stroke="#000000" stroke-opacity="1" stroke-width="3.2"/>
<circle clip-path="url(#clip202)" cx="1458.59" cy="697.238" r="14.4" fill="#e69f00" fill-rule="evenodd" fill-opacity="1" stroke="#000000" stroke-opacity="1" stroke-width="3.2"/>
<circle clip-path="url(#clip202)" cx="1298.18" cy="896.905" r="14.4" fill="#e69f00" fill-rule="evenodd" fill-opacity="1" stroke="#000000" stroke-opacity="1" stroke-width="3.2"/>
<circle clip-path="url(#clip202)" cx="1613.8" cy="1032.12" r="14.4" fill="#e69f00" fill-rule="evenodd" fill-opacity="1" stroke="#000000" stroke-opacity="1" stroke-width="3.2"/>
<circle clip-path="url(#clip202)" cx="619.415" cy="207.723" r="14.4" fill="#e69f00" fill-rule="evenodd" fill-opacity="1" stroke="#000000" stroke-opacity="1" stroke-width="3.2"/>
<circle clip-path="url(#clip202)" cx="960.24" cy="830.304" r="14.4" fill="#e69f00" fill-rule="evenodd" fill-opacity="1" stroke="#000000" stroke-opacity="1" stroke-width="3.2"/>
<circle clip-path="url(#clip202)" cx="804.188" cy="530.577" r="14.4" fill="#e69f00" fill-rule="evenodd" fill-opacity="1" stroke="#000000" stroke-opacity="1" stroke-width="3.2"/>
<circle clip-path="url(#clip202)" cx="1579.13" cy="895.033" r="14.4" fill="#e69f00" fill-rule="evenodd" fill-opacity="1" stroke="#000000" stroke-opacity="1" stroke-width="3.2"/>
<circle clip-path="url(#clip202)" cx="650.539" cy="329.113" r="14.4" fill="#e69f00" fill-rule="evenodd" fill-opacity="1" stroke="#000000" stroke-opacity="1" stroke-width="3.2"/>
<circle clip-path="url(#clip202)" cx="330.469" cy="872.204" r="14.4" fill="#e69f00" fill-rule="evenodd" fill-opacity="1" stroke="#000000" stroke-opacity="1" stroke-width="3.2"/>
<circle clip-path="url(#clip202)" cx="1526.79" cy="607.633" r="14.4" fill="#e69f00" fill-rule="evenodd" fill-opacity="1" stroke="#000000" stroke-opacity="1" stroke-width="3.2"/>
<circle clip-path="url(#clip202)" cx="763.343" cy="452.219" r="14.4" fill="#e69f00" fill-rule="evenodd" fill-opacity="1" stroke="#000000" stroke-opacity="1" stroke-width="3.2"/>
<circle clip-path="url(#clip202)" cx="1543.75" cy="1005.21" r="14.4" fill="#e69f00" fill-rule="evenodd" fill-opacity="1" stroke="#000000" stroke-opacity="1" stroke-width="3.2"/>
<circle clip-path="url(#clip202)" cx="2123.9" cy="615.859" r="14.4" fill="#e69f00" fill-rule="evenodd" fill-opacity="1" stroke="#000000" stroke-opacity="1" stroke-width="3.2"/>
<circle clip-path="url(#clip202)" cx="1173.83" cy="841.338" r="14.4" fill="#e69f00" fill-rule="evenodd" fill-opacity="1" stroke="#000000" stroke-opacity="1" stroke-width="3.2"/>
<circle clip-path="url(#clip202)" cx="506.608" cy="649.614" r="14.4" fill="#e69f00" fill-rule="evenodd" fill-opacity="1" stroke="#000000" stroke-opacity="1" stroke-width="3.2"/>
<circle clip-path="url(#clip202)" cx="775.493" cy="700.271" r="14.4" fill="#e69f00" fill-rule="evenodd" fill-opacity="1" stroke="#000000" stroke-opacity="1" stroke-width="3.2"/>
<circle clip-path="url(#clip202)" cx="1434.59" cy="858.445" r="14.4" fill="#e69f00" fill-rule="evenodd" fill-opacity="1" stroke="#000000" stroke-opacity="1" stroke-width="3.2"/>
<circle clip-path="url(#clip202)" cx="1256.4" cy="728.285" r="14.4" fill="#e69f00" fill-rule="evenodd" fill-opacity="1" stroke="#000000" stroke-opacity="1" stroke-width="3.2"/>
<circle clip-path="url(#clip202)" cx="2069.73" cy="455.302" r="14.4" fill="#e69f00" fill-rule="evenodd" fill-opacity="1" stroke="#000000" stroke-opacity="1" stroke-width="3.2"/>
<circle clip-path="url(#clip202)" cx="1878.5" cy="327.594" r="14.4" fill="#e69f00" fill-rule="evenodd" fill-opacity="1" stroke="#000000" stroke-opacity="1" stroke-width="3.2"/>
<circle clip-path="url(#clip202)" cx="1411.38" cy="1228.23" r="14.4" fill="#e69f00" fill-rule="evenodd" fill-opacity="1" stroke="#000000" stroke-opacity="1" stroke-width="3.2"/>
<circle clip-path="url(#clip202)" cx="928.3" cy="921.32" r="14.4" fill="#e69f00" fill-rule="evenodd" fill-opacity="1" stroke="#000000" stroke-opacity="1" stroke-width="3.2"/>
<circle clip-path="url(#clip202)" cx="992.372" cy="575.563" r="14.4" fill="#e69f00" fill-rule="evenodd" fill-opacity="1" stroke="#000000" stroke-opacity="1" stroke-width="3.2"/>
<circle clip-path="url(#clip202)" cx="1401.49" cy="1155.57" r="14.4" fill="#e69f00" fill-rule="evenodd" fill-opacity="1" stroke="#000000" stroke-opacity="1" stroke-width="3.2"/>
<circle clip-path="url(#clip202)" cx="1440.17" cy="915.031" r="14.4" fill="#e69f00" fill-rule="evenodd" fill-opacity="1" stroke="#000000" stroke-opacity="1" stroke-width="3.2"/>
<circle clip-path="url(#clip202)" cx="1971.03" cy="842.772" r="14.4" fill="#e69f00" fill-rule="evenodd" fill-opacity="1" stroke="#000000" stroke-opacity="1" stroke-width="3.2"/>
<circle clip-path="url(#clip202)" cx="639.482" cy="548.685" r="14.4" fill="#e69f00" fill-rule="evenodd" fill-opacity="1" stroke="#000000" stroke-opacity="1" stroke-width="3.2"/>
<circle clip-path="url(#clip202)" cx="882.482" cy="907.581" r="14.4" fill="#e69f00" fill-rule="evenodd" fill-opacity="1" stroke="#000000" stroke-opacity="1" stroke-width="3.2"/>
<circle clip-path="url(#clip202)" cx="884.742" cy="641.006" r="14.4" fill="#e69f00" fill-rule="evenodd" fill-opacity="1" stroke="#000000" stroke-opacity="1" stroke-width="3.2"/>
<circle clip-path="url(#clip202)" cx="1468.37" cy="992.842" r="14.4" fill="#e69f00" fill-rule="evenodd" fill-opacity="1" stroke="#000000" stroke-opacity="1" stroke-width="3.2"/>
<circle clip-path="url(#clip202)" cx="739.124" cy="669.684" r="14.4" fill="#e69f00" fill-rule="evenodd" fill-opacity="1" stroke="#000000" stroke-opacity="1" stroke-width="3.2"/>
<circle clip-path="url(#clip202)" cx="305.727" cy="831.089" r="14.4" fill="#e69f00" fill-rule="evenodd" fill-opacity="1" stroke="#000000" stroke-opacity="1" stroke-width="3.2"/>
<circle clip-path="url(#clip202)" cx="1237.84" cy="1208.59" r="14.4" fill="#e69f00" fill-rule="evenodd" fill-opacity="1" stroke="#000000" stroke-opacity="1" stroke-width="3.2"/>
<circle clip-path="url(#clip202)" cx="2159.82" cy="836.535" r="14.4" fill="#e69f00" fill-rule="evenodd" fill-opacity="1" stroke="#000000" stroke-opacity="1" stroke-width="3.2"/>
<circle clip-path="url(#clip202)" cx="694.249" cy="453.088" r="14.4" fill="#e69f00" fill-rule="evenodd" fill-opacity="1" stroke="#000000" stroke-opacity="1" stroke-width="3.2"/>
<circle clip-path="url(#clip202)" cx="813.302" cy="599.573" r="14.4" fill="#e69f00" fill-rule="evenodd" fill-opacity="1" stroke="#000000" stroke-opacity="1" stroke-width="3.2"/>
<circle clip-path="url(#clip202)" cx="987.102" cy="1021.51" r="14.4" fill="#e69f00" fill-rule="evenodd" fill-opacity="1" stroke="#000000" stroke-opacity="1" stroke-width="3.2"/>
<circle clip-path="url(#clip202)" cx="2126.64" cy="857.907" r="14.4" fill="#e69f00" fill-rule="evenodd" fill-opacity="1" stroke="#000000" stroke-opacity="1" stroke-width="3.2"/>
<circle clip-path="url(#clip202)" cx="490.069" cy="520.876" r="14.4" fill="#e69f00" fill-rule="evenodd" fill-opacity="1" stroke="#000000" stroke-opacity="1" stroke-width="3.2"/>
<circle clip-path="url(#clip202)" cx="1380.54" cy="1097.28" r="14.4" fill="#e69f00" fill-rule="evenodd" fill-opacity="1" stroke="#000000" stroke-opacity="1" stroke-width="3.2"/>
<circle clip-path="url(#clip202)" cx="1701.35" cy="643.838" r="14.4" fill="#e69f00" fill-rule="evenodd" fill-opacity="1" stroke="#000000" stroke-opacity="1" stroke-width="3.2"/>
<circle clip-path="url(#clip202)" cx="489.56" cy="440.96" r="14.4" fill="#e69f00" fill-rule="evenodd" fill-opacity="1" stroke="#000000" stroke-opacity="1" stroke-width="3.2"/>
<circle clip-path="url(#clip202)" cx="522.091" cy="223.985" r="14.4" fill="#e69f00" fill-rule="evenodd" fill-opacity="1" stroke="#000000" stroke-opacity="1" stroke-width="3.2"/>
<circle clip-path="url(#clip202)" cx="1682.03" cy="643.833" r="14.4" fill="#e69f00" fill-rule="evenodd" fill-opacity="1" stroke="#000000" stroke-opacity="1" stroke-width="3.2"/>
<circle clip-path="url(#clip202)" cx="440.206" cy="334.654" r="14.4" fill="#e69f00" fill-rule="evenodd" fill-opacity="1" stroke="#000000" stroke-opacity="1" stroke-width="3.2"/>
<circle clip-path="url(#clip202)" cx="1595.85" cy="881.97" r="14.4" fill="#e69f00" fill-rule="evenodd" fill-opacity="1" stroke="#000000" stroke-opacity="1" stroke-width="3.2"/>
<circle clip-path="url(#clip202)" cx="1929.68" cy="642.072" r="14.4" fill="#e69f00" fill-rule="evenodd" fill-opacity="1" stroke="#000000" stroke-opacity="1" stroke-width="3.2"/>
<circle clip-path="url(#clip202)" cx="1798.63" cy="222.932" r="14.4" fill="#e69f00" fill-rule="evenodd" fill-opacity="1" stroke="#000000" stroke-opacity="1" stroke-width="3.2"/>
<circle clip-path="url(#clip202)" cx="861.466" cy="432.667" r="14.4" fill="#e69f00" fill-rule="evenodd" fill-opacity="1" stroke="#000000" stroke-opacity="1" stroke-width="3.2"/>
<circle clip-path="url(#clip202)" cx="389.678" cy="578.899" r="14.4" fill="#e69f00" fill-rule="evenodd" fill-opacity="1" stroke="#000000" stroke-opacity="1" stroke-width="3.2"/>
<circle clip-path="url(#clip202)" cx="1585.52" cy="815.388" r="14.4" fill="#e69f00" fill-rule="evenodd" fill-opacity="1" stroke="#000000" stroke-opacity="1" stroke-width="3.2"/>
<circle clip-path="url(#clip202)" cx="2054.32" cy="454.195" r="14.4" fill="#e69f00" fill-rule="evenodd" fill-opacity="1" stroke="#000000" stroke-opacity="1" stroke-width="3.2"/>
<circle clip-path="url(#clip202)" cx="463.763" cy="562.604" r="14.4" fill="#e69f00" fill-rule="evenodd" fill-opacity="1" stroke="#000000" stroke-opacity="1" stroke-width="3.2"/>
<circle clip-path="url(#clip202)" cx="2173.16" cy="921.748" r="14.4" fill="#e69f00" fill-rule="evenodd" fill-opacity="1" stroke="#000000" stroke-opacity="1" stroke-width="3.2"/>
<circle clip-path="url(#clip202)" cx="1098.89" cy="1046.48" r="14.4" fill="#e69f00" fill-rule="evenodd" fill-opacity="1" stroke="#000000" stroke-opacity="1" stroke-width="3.2"/>
<circle clip-path="url(#clip202)" cx="1635.01" cy="722.467" r="14.4" fill="#e69f00" fill-rule="evenodd" fill-opacity="1" stroke="#000000" stroke-opacity="1" stroke-width="3.2"/>
<circle clip-path="url(#clip202)" cx="1936.75" cy="319.418" r="14.4" fill="#e69f00" fill-rule="evenodd" fill-opacity="1" stroke="#000000" stroke-opacity="1" stroke-width="3.2"/>
<circle clip-path="url(#clip202)" cx="1633.28" cy="997.672" r="14.4" fill="#e69f00" fill-rule="evenodd" fill-opacity="1" stroke="#000000" stroke-opacity="1" stroke-width="3.2"/>
<circle clip-path="url(#clip202)" cx="1351.85" cy="1030.35" r="14.4" fill="#e69f00" fill-rule="evenodd" fill-opacity="1" stroke="#000000" stroke-opacity="1" stroke-width="3.2"/>
<circle clip-path="url(#clip202)" cx="750.852" cy="518.341" r="14.4" fill="#e69f00" fill-rule="evenodd" fill-opacity="1" stroke="#000000" stroke-opacity="1" stroke-width="3.2"/>
<circle clip-path="url(#clip202)" cx="381.325" cy="716.922" r="14.4" fill="#e69f00" fill-rule="evenodd" fill-opacity="1" stroke="#000000" stroke-opacity="1" stroke-width="3.2"/>
<circle clip-path="url(#clip202)" cx="1724.69" cy="497.964" r="14.4" fill="#e69f00" fill-rule="evenodd" fill-opacity="1" stroke="#000000" stroke-opacity="1" stroke-width="3.2"/>
<circle clip-path="url(#clip202)" cx="1900.18" cy="504.701" r="14.4" fill="#e69f00" fill-rule="evenodd" fill-opacity="1" stroke="#000000" stroke-opacity="1" stroke-width="3.2"/>
<circle clip-path="url(#clip202)" cx="2020.75" cy="481.814" r="14.4" fill="#e69f00" fill-rule="evenodd" fill-opacity="1" stroke="#000000" stroke-opacity="1" stroke-width="3.2"/>
<circle clip-path="url(#clip202)" cx="1145.38" cy="1032.89" r="14.4" fill="#e69f00" fill-rule="evenodd" fill-opacity="1" stroke="#000000" stroke-opacity="1" stroke-width="3.2"/>
<circle clip-path="url(#clip202)" cx="445.44" cy="657.709" r="14.4" fill="#e69f00" fill-rule="evenodd" fill-opacity="1" stroke="#000000" stroke-opacity="1" stroke-width="3.2"/>
<circle clip-path="url(#clip202)" cx="1134.63" cy="932.177" r="14.4" fill="#e69f00" fill-rule="evenodd" fill-opacity="1" stroke="#000000" stroke-opacity="1" stroke-width="3.2"/>
<circle clip-path="url(#clip202)" cx="470.038" cy="253.453" r="14.4" fill="#e69f00" fill-rule="evenodd" fill-opacity="1" stroke="#000000" stroke-opacity="1" stroke-width="3.2"/>
<circle clip-path="url(#clip202)" cx="1816.39" cy="310.709" r="14.4" fill="#e69f00" fill-rule="evenodd" fill-opacity="1" stroke="#000000" stroke-opacity="1" stroke-width="3.2"/>
<circle clip-path="url(#clip202)" cx="425.823" cy="495.376" r="14.4" fill="#e69f00" fill-rule="evenodd" fill-opacity="1" stroke="#000000" stroke-opacity="1" stroke-width="3.2"/>
<circle clip-path="url(#clip202)" cx="551.401" cy="444.859" r="14.4" fill="#e69f00" fill-rule="evenodd" fill-opacity="1" stroke="#000000" stroke-opacity="1" stroke-width="3.2"/>
<circle clip-path="url(#clip202)" cx="1087.61" cy="1203.34" r="14.4" fill="#e69f00" fill-rule="evenodd" fill-opacity="1" stroke="#000000" stroke-opacity="1" stroke-width="3.2"/>
<circle clip-path="url(#clip202)" cx="1051.07" cy="770.275" r="14.4" fill="#e69f00" fill-rule="evenodd" fill-opacity="1" stroke="#000000" stroke-opacity="1" stroke-width="3.2"/>
<circle clip-path="url(#clip202)" cx="474.961" cy="717.177" r="14.4" fill="#e69f00" fill-rule="evenodd" fill-opacity="1" stroke="#000000" stroke-opacity="1" stroke-width="3.2"/>
<circle clip-path="url(#clip202)" cx="1946.02" cy="387.858" r="14.4" fill="#e69f00" fill-rule="evenodd" fill-opacity="1" stroke="#000000" stroke-opacity="1" stroke-width="3.2"/>
<path clip-path="url(#clip202)" d="
M147.478 999.729 L192.484 999.729 L237.489 999.729 L282.495 999.729 L327.501 999.729 L372.506 999.729 L417.512 994.845 L462.518 918.929 L507.523 882.891 L552.529 882.891 
  L597.535 882.891 L642.54 883.219 L687.546 883.219 L732.552 908.258 L777.557 993.808 L822.563 1016.73 L867.569 1059.22 L912.574 1102.23 L957.58 1124.35 L1002.59 1138.13 
  L1047.59 1137.33 L1092.6 1183.63 L1137.6 1191.2 L1182.61 1199.77 L1227.61 1212.26 L1272.62 1224.38 L1317.63 1224.38 L1362.63 1215.85 L1407.64 1154.04 L1452.64 1154.04 
  L1497.65 1127.38 L1542.65 1056.26 L1587.66 981.899 L1632.67 985.015 L1677.67 939.411 L1722.68 939.411 L1767.68 890.504 L1812.69 889.151 L1857.69 910.285 L1902.7 915.648 
  L1947.7 908.799 L1992.71 896.591 L2037.72 915.565 L2082.72 995.027 L2127.73 1028.9 L2172.73 1061.69 L2217.74 1061.69 L2262.74 1061.69 L2307.75 1061.69 L2352.76 1061.69 
  L2352.76 406.072 L2307.75 406.072 L2262.74 406.072 L2217.74 406.072 L2172.73 406.072 L2127.73 364.741 L2082.72 324.4 L2037.72 261.557 L1992.71 242.12 L1947.7 260.948 
  L1902.7 270.443 L1857.69 259.48 L1812.69 237.193 L1767.68 246.931 L1722.68 280.949 L1677.67 280.709 L1632.67 328.626 L1587.66 304.741 L1542.65 370.871 L1497.65 461.318 
  L1452.64 495.911 L1407.64 510.803 L1362.63 565.635 L1317.63 578.529 L1272.62 578.529 L1227.61 555.047 L1182.61 551.472 L1137.6 541.907 L1092.6 533.333 L1047.59 488.408 
  L1002.59 493.535 L957.58 470.169 L912.574 441.592 L867.569 395.499 L822.563 357.543 L777.557 311.975 L732.552 235.231 L687.546 233.773 L642.54 233.773 L597.535 233.773 
  L552.529 233.773 L507.523 233.773 L462.518 250.496 L417.512 336.575 L372.506 348.781 L327.501 348.781 L282.495 348.781 L237.489 348.781 L192.484 348.781 L147.478 348.781 
   Z
  " fill="#56b4e9" fill-rule="evenodd" fill-opacity="0.5"/>
<polyline clip-path="url(#clip202)" style="stroke:#56b4e9; stroke-linecap:round; stroke-linejoin:round; stroke-width:16; stroke-opacity:1; fill:none" points="
  147.478,674.255 192.484,674.255 237.489,674.255 282.495,674.255 327.501,674.255 372.506,674.255 417.512,665.71 462.518,584.712 507.523,558.332 552.529,558.332 
  597.535,558.332 642.54,558.496 687.546,558.496 732.552,571.744 777.557,652.892 822.563,687.135 867.569,727.36 912.574,771.912 957.58,797.26 1002.59,815.832 
  1047.59,812.871 1092.6,858.48 1137.6,866.553 1182.61,875.619 1227.61,883.651 1272.62,901.453 1317.63,901.453 1362.63,890.742 1407.64,832.422 1452.64,824.976 
  1497.65,794.347 1542.65,713.566 1587.66,643.32 1632.67,656.82 1677.67,610.06 1722.68,610.18 1767.68,568.718 1812.69,563.172 1857.69,584.882 1902.7,593.045 
  1947.7,584.874 1992.71,569.356 2037.72,588.561 2082.72,659.713 2127.73,696.823 2172.73,733.879 2217.74,733.879 2262.74,733.879 2307.75,733.879 2352.76,733.879 
  
  "/>
<polyline clip-path="url(#clip202)" style="stroke:#000000; stroke-linecap:round; stroke-linejoin:round; stroke-width:4; stroke-opacity:1; fill:none" stroke-dasharray="16, 10" points="
  144.01,1420.12 147.698,1406.61 151.386,1393.12 155.074,1379.67 158.762,1366.26 162.45,1352.88 166.138,1339.54 169.825,1326.24 173.513,1312.98 177.201,1299.77 
  180.889,1286.61 184.577,1273.49 188.265,1260.43 191.953,1247.42 195.641,1234.47 199.329,1221.57 203.017,1208.73 206.705,1195.96 210.393,1183.24 214.081,1170.6 
  217.768,1158.01 221.456,1145.5 225.144,1133.06 228.832,1120.69 232.52,1108.4 236.208,1096.18 239.896,1084.04 243.584,1071.97 247.272,1059.99 250.96,1048.09 
  254.648,1036.28 258.336,1024.55 262.024,1012.91 265.711,1001.36 269.399,989.902 273.087,978.535 276.775,967.261 280.463,956.082 284.151,945.001 287.839,934.017 
  291.527,923.133 295.215,912.351 298.903,901.67 302.591,891.093 306.279,880.621 309.967,870.256 313.654,859.998 317.342,849.849 321.03,839.809 324.718,829.881 
  328.406,820.065 332.094,810.363 335.782,800.774 339.47,791.302 343.158,781.946 346.846,772.707 350.534,763.588 354.222,754.587 357.91,745.707 361.597,736.949 
  365.285,728.312 368.973,719.799 372.661,711.41 376.349,703.145 380.037,695.005 383.725,686.992 387.413,679.106 391.101,671.347 394.789,663.716 398.477,656.214 
  402.165,648.842 405.853,641.599 409.54,634.487 413.228,627.506 416.916,620.656 420.604,613.938 424.292,607.353 427.98,600.9 431.668,594.58 435.356,588.394 
  439.044,582.341 442.732,576.422 446.42,570.638 450.108,564.988 453.796,559.472 457.483,554.092 461.171,548.846 464.859,543.735 468.547,538.76 472.235,533.919 
  475.923,529.214 479.611,524.644 483.299,520.21 486.987,515.91 490.675,511.745 494.363,507.715 498.051,503.82 501.739,500.06 505.426,496.434 509.114,492.942 
  512.802,489.584 516.49,486.36 520.178,483.269 523.866,480.311 527.554,477.486 531.242,474.793 534.93,472.232 538.618,469.802 542.306,467.504 545.994,465.336 
  549.682,463.298 553.369,461.389 557.057,459.609 560.745,457.958 564.433,456.434 568.121,455.038 571.809,453.768 575.497,452.623 579.185,451.604 582.873,450.709 
  586.561,449.938 590.249,449.289 593.937,448.763 597.625,448.358 601.312,448.073 605,447.907 608.688,447.86 612.376,447.931 616.064,448.119 619.752,448.423 
  623.44,448.841 627.128,449.373 630.816,450.019 634.504,450.776 638.192,451.643 641.88,452.621 645.568,453.707 649.255,454.901 652.943,456.201 656.631,457.606 
  660.319,459.116 664.007,460.728 667.695,462.443 671.383,464.257 675.071,466.171 678.759,468.183 682.447,470.292 686.135,472.496 689.823,474.795 693.511,477.186 
  697.198,479.669 700.886,482.242 704.574,484.904 708.262,487.654 711.95,490.489 715.638,493.41 719.326,496.413 723.014,499.499 726.702,502.665 730.39,505.91 
  734.078,509.232 737.766,512.631 741.454,516.104 745.141,519.651 748.829,523.268 752.517,526.956 756.205,530.713 759.893,534.537 763.581,538.426 767.269,542.379 
  770.957,546.394 774.645,550.471 778.333,554.606 782.021,558.799 785.709,563.049 789.397,567.352 793.084,571.709 796.772,576.117 800.46,580.575 804.148,585.08 
  807.836,589.632 811.524,594.229 815.212,598.869 818.9,603.551 822.588,608.273 826.276,613.033 829.964,617.829 833.652,622.661 837.34,627.525 841.027,632.422 
  844.715,637.348 848.403,642.303 852.091,647.285 855.779,652.292 859.467,657.322 863.155,662.374 866.843,667.446 870.531,672.537 874.219,677.644 877.907,682.767 
  881.595,687.903 885.283,693.051 888.97,698.21 892.658,703.377 896.346,708.551 900.034,713.731 903.722,718.914 907.41,724.099 911.098,729.286 914.786,734.471 
  918.474,739.653 922.162,744.831 925.85,750.004 929.538,755.168 933.226,760.324 936.913,765.47 940.601,770.603 944.289,775.723 947.977,780.828 951.665,785.916 
  955.353,790.985 959.041,796.035 962.729,801.064 966.417,806.07 970.105,811.051 973.793,816.008 977.481,820.936 981.168,825.837 984.856,830.707 988.544,835.546 
  992.232,840.352 995.92,845.124 999.608,849.86 1003.3,854.559 1006.98,859.22 1010.67,863.84 1014.36,868.42 1018.05,872.958 1021.74,877.452 1025.42,881.901 
  1029.11,886.303 1032.8,890.658 1036.49,894.965 1040.18,899.221 1043.86,903.426 1047.55,907.579 1051.24,911.679 1054.93,915.723 1058.61,919.712 1062.3,923.644 
  1065.99,927.517 1069.68,931.332 1073.37,935.086 1077.05,938.779 1080.74,942.41 1084.43,945.977 1088.12,949.48 1091.81,952.917 1095.49,956.289 1099.18,959.593 
  1102.87,962.828 1106.56,965.995 1110.25,969.092 1113.93,972.118 1117.62,975.072 1121.31,977.954 1125,980.763 1128.69,983.498 1132.37,986.157 1136.06,988.742 
  1139.75,991.25 1143.44,993.681 1147.13,996.034 1150.81,998.31 1154.5,1000.51 1158.19,1002.62 1161.88,1004.66 1165.56,1006.62 1169.25,1008.49 1172.94,1010.28 
  1176.63,1012 1180.32,1013.62 1184,1015.17 1187.69,1016.63 1191.38,1018.01 1195.07,1019.3 1198.76,1020.51 1202.44,1021.64 1206.13,1022.68 1209.82,1023.63 
  1213.51,1024.5 1217.2,1025.28 1220.88,1025.97 1224.57,1026.58 1228.26,1027.1 1231.95,1027.54 1235.64,1027.89 1239.32,1028.15 1243.01,1028.32 1246.7,1028.41 
  1250.39,1028.41 1254.07,1028.32 1257.76,1028.15 1261.45,1027.89 1265.14,1027.54 1268.83,1027.1 1272.51,1026.58 1276.2,1025.97 1279.89,1025.28 1283.58,1024.5 
  1287.27,1023.63 1290.95,1022.68 1294.64,1021.64 1298.33,1020.51 1302.02,1019.3 1305.71,1018.01 1309.39,1016.63 1313.08,1015.17 1316.77,1013.62 1320.46,1012 
  1324.15,1010.28 1327.83,1008.49 1331.52,1006.62 1335.21,1004.66 1338.9,1002.62 1342.58,1000.51 1346.27,998.31 1349.96,996.034 1353.65,993.681 1357.34,991.25 
  1361.02,988.742 1364.71,986.157 1368.4,983.498 1372.09,980.763 1375.78,977.954 1379.46,975.072 1383.15,972.118 1386.84,969.092 1390.53,965.995 1394.22,962.828 
  1397.9,959.593 1401.59,956.289 1405.28,952.917 1408.97,949.48 1412.66,945.977 1416.34,942.41 1420.03,938.779 1423.72,935.086 1427.41,931.332 1431.1,927.517 
  1434.78,923.644 1438.47,919.712 1442.16,915.723 1445.85,911.679 1449.53,907.579 1453.22,903.426 1456.91,899.221 1460.6,894.965 1464.29,890.658 1467.97,886.303 
  1471.66,881.901 1475.35,877.452 1479.04,872.958 1482.73,868.42 1486.41,863.84 1490.1,859.22 1493.79,854.559 1497.48,849.86 1501.17,845.124 1504.85,840.352 
  1508.54,835.546 1512.23,830.707 1515.92,825.837 1519.61,820.936 1523.29,816.008 1526.98,811.051 1530.67,806.07 1534.36,801.064 1538.04,796.035 1541.73,790.985 
  1545.42,785.916 1549.11,780.828 1552.8,775.723 1556.48,770.603 1560.17,765.47 1563.86,760.324 1567.55,755.168 1571.24,750.004 1574.92,744.831 1578.61,739.653 
  1582.3,734.471 1585.99,729.286 1589.68,724.099 1593.36,718.914 1597.05,713.731 1600.74,708.551 1604.43,703.377 1608.12,698.21 1611.8,693.051 1615.49,687.903 
  1619.18,682.767 1622.87,677.644 1626.55,672.537 1630.24,667.446 1633.93,662.374 1637.62,657.322 1641.31,652.292 1644.99,647.285 1648.68,642.303 1652.37,637.348 
  1656.06,632.422 1659.75,627.525 1663.43,622.661 1667.12,617.829 1670.81,613.033 1674.5,608.273 1678.19,603.551 1681.87,598.869 1685.56,594.229 1689.25,589.632 
  1692.94,585.08 1696.63,580.575 1700.31,576.117 1704,571.709 1707.69,567.352 1711.38,563.049 1715.07,558.799 1718.75,554.606 1722.44,550.471 1726.13,546.394 
  1729.82,542.379 1733.5,538.426 1737.19,534.537 1740.88,530.713 1744.57,526.956 1748.26,523.268 1751.94,519.651 1755.63,516.104 1759.32,512.631 1763.01,509.232 
  1766.7,505.91 1770.38,502.665 1774.07,499.499 1777.76,496.413 1781.45,493.41 1785.14,490.489 1788.82,487.654 1792.51,484.904 1796.2,482.242 1799.89,479.669 
  1803.58,477.186 1807.26,474.795 1810.95,472.496 1814.64,470.292 1818.33,468.183 1822.01,466.171 1825.7,464.257 1829.39,462.443 1833.08,460.728 1836.77,459.116 
  1840.45,457.606 1844.14,456.201 1847.83,454.901 1851.52,453.707 1855.21,452.621 1858.89,451.643 1862.58,450.776 1866.27,450.019 1869.96,449.373 1873.65,448.841 
  1877.33,448.423 1881.02,448.119 1884.71,447.931 1888.4,447.86 1892.09,447.907 1895.77,448.073 1899.46,448.358 1903.15,448.763 1906.84,449.289 1910.53,449.938 
  1914.21,450.709 1917.9,451.604 1921.59,452.623 1925.28,453.768 1928.96,455.038 1932.65,456.434 1936.34,457.958 1940.03,459.609 1943.72,461.389 1947.4,463.298 
  1951.09,465.336 1954.78,467.504 1958.47,469.802 1962.16,472.232 1965.84,474.793 1969.53,477.486 1973.22,480.311 1976.91,483.269 1980.6,486.36 1984.28,489.584 
  1987.97,492.942 1991.66,496.434 1995.35,500.06 1999.04,503.82 2002.72,507.715 2006.41,511.745 2010.1,515.91 2013.79,520.21 2017.47,524.644 2021.16,529.214 
  2024.85,533.919 2028.54,538.76 2032.23,543.735 2035.91,548.846 2039.6,554.092 2043.29,559.472 2046.98,564.988 2050.67,570.638 2054.35,576.422 2058.04,582.341 
  2061.73,588.394 2065.42,594.58 2069.11,600.9 2072.79,607.353 2076.48,613.938 2080.17,620.656 2083.86,627.506 2087.55,634.487 2091.23,641.599 2094.92,648.842 
  2098.61,656.214 2102.3,663.716 2105.98,671.347 2109.67,679.106 2113.36,686.992 2117.05,695.005 2120.74,703.145 2124.42,711.41 2128.11,719.799 2131.8,728.312 
  2135.49,736.949 2139.18,745.707 2142.86,754.587 2146.55,763.588 2150.24,772.707 2153.93,781.946 2157.62,791.302 2161.3,800.774 2164.99,810.363 2168.68,820.065 
  2172.37,829.881 2176.06,839.809 2179.74,849.849 2183.43,859.998 2187.12,870.256 2190.81,880.621 2194.5,891.093 2198.18,901.67 2201.87,912.351 2205.56,923.133 
  2209.25,934.017 2212.93,945.001 2216.62,956.082 2220.31,967.261 2224,978.535 2227.69,989.902 2231.37,1001.36 2235.06,1012.91 2238.75,1024.55 2242.44,1036.28 
  2246.13,1048.09 2249.81,1059.99 2253.5,1071.97 2257.19,1084.04 2260.88,1096.18 2264.57,1108.4 2268.25,1120.69 2271.94,1133.06 2275.63,1145.5 2279.32,1158.01 
  2283.01,1170.6 2286.69,1183.24 2290.38,1195.96 2294.07,1208.73 2297.76,1221.57 2301.44,1234.47 2305.13,1247.42 2308.82,1260.43 2312.51,1273.49 2316.2,1286.61 
  2319.88,1299.77 2323.57,1312.98 2327.26,1326.24 2330.95,1339.54 2334.64,1352.88 2338.32,1366.26 2342.01,1379.67 2345.7,1393.12 2349.39,1406.61 2353.08,1420.12 
  
  "/>
<path clip-path="url(#clip200)" d="
M1759.21 302.578 L2279.25 302.578 L2279.25 95.2176 L1759.21 95.2176  Z
  " fill="#ffffff" fill-rule="evenodd" fill-opacity="1"/>
<polyline clip-path="url(#clip200)" style="stroke:#000000; stroke-linecap:round; stroke-linejoin:round; stroke-width:4; stroke-opacity:1; fill:none" points="
  1759.21,302.578 2279.25,302.578 2279.25,95.2176 1759.21,95.2176 1759.21,302.578 
  "/>
<circle clip-path="url(#clip200)" cx="1857.22" cy="147.058" r="23.04" fill="#e69f00" fill-rule="evenodd" fill-opacity="1" stroke="#000000" stroke-opacity="1" stroke-width="5.12"/>
<path clip-path="url(#clip200)" d="M1955.23 129.778 L1984.47 129.778 L1984.47 133.713 L1972.2 133.713 L1972.2 164.338 L1967.5 164.338 L1967.5 133.713 L1955.23 133.713 L1955.23 129.778 Z" fill="#000000" fill-rule="evenodd" fill-opacity="1" /><path clip-path="url(#clip200)" d="M2002.92 150.31 L2002.92 152.393 L1983.33 152.393 Q1983.61 156.791 1985.97 159.106 Q1988.36 161.398 1992.59 161.398 Q1995.05 161.398 1997.34 160.796 Q1999.65 160.194 2001.92 158.99 L2001.92 163.018 Q1999.63 163.99 1997.22 164.5 Q1994.81 165.009 1992.34 165.009 Q1986.13 165.009 1982.5 161.398 Q1978.89 157.787 1978.89 151.629 Q1978.89 145.264 1982.31 141.537 Q1985.76 137.787 1991.6 137.787 Q1996.83 137.787 1999.86 141.166 Q2002.92 144.523 2002.92 150.31 M1998.66 149.06 Q1998.61 145.565 1996.69 143.481 Q1994.79 141.398 1991.64 141.398 Q1988.08 141.398 1985.93 143.412 Q1983.8 145.426 1983.47 149.083 L1998.66 149.06 Z" fill="#000000" fill-rule="evenodd" fill-opacity="1" /><path clip-path="url(#clip200)" d="M2026.43 139.176 L2026.43 143.203 Q2024.63 142.277 2022.68 141.815 Q2020.74 141.352 2018.66 141.352 Q2015.49 141.352 2013.89 142.324 Q2012.31 143.296 2012.31 145.24 Q2012.31 146.722 2013.45 147.578 Q2014.58 148.412 2018.01 149.176 L2019.47 149.5 Q2024 150.472 2025.9 152.254 Q2027.82 154.014 2027.82 157.185 Q2027.82 160.796 2024.95 162.902 Q2022.11 165.009 2017.11 165.009 Q2015.02 165.009 2012.75 164.592 Q2010.51 164.199 2008.01 163.388 L2008.01 158.99 Q2010.37 160.217 2012.66 160.842 Q2014.95 161.444 2017.2 161.444 Q2020.21 161.444 2021.83 160.426 Q2023.45 159.384 2023.45 157.509 Q2023.45 155.773 2022.27 154.847 Q2021.11 153.921 2017.15 153.064 L2015.67 152.717 Q2011.71 151.884 2009.95 150.171 Q2008.19 148.435 2008.19 145.426 Q2008.19 141.768 2010.79 139.778 Q2013.38 137.787 2018.15 137.787 Q2020.51 137.787 2022.59 138.134 Q2024.68 138.481 2026.43 139.176 Z" fill="#000000" fill-rule="evenodd" fill-opacity="1" /><path clip-path="url(#clip200)" d="M2038.82 131.051 L2038.82 138.412 L2047.59 138.412 L2047.59 141.722 L2038.82 141.722 L2038.82 155.796 Q2038.82 158.967 2039.68 159.87 Q2040.55 160.773 2043.22 160.773 L2047.59 160.773 L2047.59 164.338 L2043.22 164.338 Q2038.29 164.338 2036.41 162.509 Q2034.54 160.657 2034.54 155.796 L2034.54 141.722 L2031.41 141.722 L2031.41 138.412 L2034.54 138.412 L2034.54 131.051 L2038.82 131.051 Z" fill="#000000" fill-rule="evenodd" fill-opacity="1" /><path clip-path="url(#clip200)" d="M2072.38 160.449 L2072.38 174.199 L2068.1 174.199 L2068.1 138.412 L2072.38 138.412 L2072.38 142.347 Q2073.73 140.032 2075.76 138.921 Q2077.82 137.787 2080.67 137.787 Q2085.39 137.787 2088.33 141.537 Q2091.3 145.287 2091.3 151.398 Q2091.3 157.509 2088.33 161.259 Q2085.39 165.009 2080.67 165.009 Q2077.82 165.009 2075.76 163.898 Q2073.73 162.763 2072.38 160.449 M2086.87 151.398 Q2086.87 146.699 2084.93 144.037 Q2083.01 141.352 2079.63 141.352 Q2076.25 141.352 2074.3 144.037 Q2072.38 146.699 2072.38 151.398 Q2072.38 156.097 2074.3 158.782 Q2076.25 161.444 2079.63 161.444 Q2083.01 161.444 2084.93 158.782 Q2086.87 156.097 2086.87 151.398 Z" fill="#000000" fill-rule="evenodd" fill-opacity="1" /><path clip-path="url(#clip200)" d="M2108.4 141.398 Q2104.98 141.398 2102.99 144.083 Q2100.99 146.745 2100.99 151.398 Q2100.99 156.051 2102.96 158.736 Q2104.95 161.398 2108.4 161.398 Q2111.8 161.398 2113.8 158.713 Q2115.79 156.027 2115.79 151.398 Q2115.79 146.791 2113.8 144.106 Q2111.8 141.398 2108.4 141.398 M2108.4 137.787 Q2113.96 137.787 2117.13 141.398 Q2120.3 145.009 2120.3 151.398 Q2120.3 157.764 2117.13 161.398 Q2113.96 165.009 2108.4 165.009 Q2102.82 165.009 2099.65 161.398 Q2096.5 157.764 2096.5 151.398 Q2096.5 145.009 2099.65 141.398 Q2102.82 137.787 2108.4 137.787 Z" fill="#000000" fill-rule="evenodd" fill-opacity="1" /><path clip-path="url(#clip200)" d="M2127.36 138.412 L2131.62 138.412 L2131.62 164.338 L2127.36 164.338 L2127.36 138.412 M2127.36 128.319 L2131.62 128.319 L2131.62 133.713 L2127.36 133.713 L2127.36 128.319 Z" fill="#000000" fill-rule="evenodd" fill-opacity="1" /><path clip-path="url(#clip200)" d="M2162.08 148.689 L2162.08 164.338 L2157.82 164.338 L2157.82 148.828 Q2157.82 145.148 2156.39 143.319 Q2154.95 141.49 2152.08 141.49 Q2148.63 141.49 2146.64 143.69 Q2144.65 145.889 2144.65 149.685 L2144.65 164.338 L2140.37 164.338 L2140.37 138.412 L2144.65 138.412 L2144.65 142.44 Q2146.18 140.102 2148.24 138.944 Q2150.32 137.787 2153.03 137.787 Q2157.5 137.787 2159.79 140.565 Q2162.08 143.319 2162.08 148.689 Z" fill="#000000" fill-rule="evenodd" fill-opacity="1" /><path clip-path="url(#clip200)" d="M2174.79 131.051 L2174.79 138.412 L2183.56 138.412 L2183.56 141.722 L2174.79 141.722 L2174.79 155.796 Q2174.79 158.967 2175.65 159.87 Q2176.53 160.773 2179.19 160.773 L2183.56 160.773 L2183.56 164.338 L2179.19 164.338 Q2174.26 164.338 2172.38 162.509 Q2170.51 160.657 2170.51 155.796 L2170.51 141.722 L2167.38 141.722 L2167.38 138.412 L2170.51 138.412 L2170.51 131.051 L2174.79 131.051 Z" fill="#000000" fill-rule="evenodd" fill-opacity="1" /><path clip-path="url(#clip200)" d="M2205.69 139.176 L2205.69 143.203 Q2203.89 142.277 2201.94 141.815 Q2200 141.352 2197.92 141.352 Q2194.74 141.352 2193.15 142.324 Q2191.57 143.296 2191.57 145.24 Q2191.57 146.722 2192.71 147.578 Q2193.84 148.412 2197.27 149.176 L2198.73 149.5 Q2203.26 150.472 2205.16 152.254 Q2207.08 154.014 2207.08 157.185 Q2207.08 160.796 2204.21 162.902 Q2201.36 165.009 2196.36 165.009 Q2194.28 165.009 2192.01 164.592 Q2189.77 164.199 2187.27 163.388 L2187.27 158.99 Q2189.63 160.217 2191.92 160.842 Q2194.21 161.444 2196.46 161.444 Q2199.47 161.444 2201.09 160.426 Q2202.71 159.384 2202.71 157.509 Q2202.71 155.773 2201.53 154.847 Q2200.37 153.921 2196.41 153.064 L2194.93 152.717 Q2190.97 151.884 2189.21 150.171 Q2187.45 148.435 2187.45 145.426 Q2187.45 141.768 2190.04 139.778 Q2192.64 137.787 2197.41 137.787 Q2199.77 137.787 2201.85 138.134 Q2203.93 138.481 2205.69 139.176 Z" fill="#000000" fill-rule="evenodd" fill-opacity="1" /><polyline clip-path="url(#clip200)" style="stroke:#56b4e9; stroke-linecap:round; stroke-linejoin:round; stroke-width:16; stroke-opacity:1; fill:none" points="
  1783.71,198.898 1930.73,198.898 
  "/>
<path clip-path="url(#clip200)" d="M1959.91 185.46 L1959.91 198.446 L1965.79 198.446 Q1969.05 198.446 1970.83 196.756 Q1972.62 195.067 1972.62 191.942 Q1972.62 188.84 1970.83 187.15 Q1969.05 185.46 1965.79 185.46 L1959.91 185.46 M1955.23 181.618 L1965.79 181.618 Q1971.6 181.618 1974.56 184.256 Q1977.55 186.872 1977.55 191.942 Q1977.55 197.057 1974.56 199.673 Q1971.6 202.289 1965.79 202.289 L1959.91 202.289 L1959.91 216.178 L1955.23 216.178 L1955.23 181.618 Z" fill="#000000" fill-rule="evenodd" fill-opacity="1" /><path clip-path="url(#clip200)" d="M1997.82 194.233 Q1997.11 193.817 1996.25 193.631 Q1995.42 193.423 1994.4 193.423 Q1990.79 193.423 1988.84 195.784 Q1986.92 198.122 1986.92 202.52 L1986.92 216.178 L1982.64 216.178 L1982.64 190.252 L1986.92 190.252 L1986.92 194.28 Q1988.26 191.918 1990.42 190.784 Q1992.57 189.627 1995.65 189.627 Q1996.09 189.627 1996.62 189.696 Q1997.15 189.743 1997.8 189.858 L1997.82 194.233 Z" fill="#000000" fill-rule="evenodd" fill-opacity="1" /><path clip-path="url(#clip200)" d="M2023.43 202.15 L2023.43 204.233 L2003.84 204.233 Q2004.12 208.631 2006.48 210.946 Q2008.87 213.238 2013.1 213.238 Q2015.56 213.238 2017.85 212.636 Q2020.16 212.034 2022.43 210.83 L2022.43 214.858 Q2020.14 215.83 2017.73 216.34 Q2015.32 216.849 2012.85 216.849 Q2006.64 216.849 2003.01 213.238 Q1999.4 209.627 1999.4 203.469 Q1999.4 197.104 2002.82 193.377 Q2006.27 189.627 2012.11 189.627 Q2017.34 189.627 2020.37 193.006 Q2023.43 196.363 2023.43 202.15 M2019.17 200.9 Q2019.12 197.405 2017.2 195.321 Q2015.3 193.238 2012.15 193.238 Q2008.59 193.238 2006.43 195.252 Q2004.31 197.266 2003.98 200.923 L2019.17 200.9 Z" fill="#000000" fill-rule="evenodd" fill-opacity="1" /><path clip-path="url(#clip200)" d="M2047.48 194.187 L2047.48 180.159 L2051.74 180.159 L2051.74 216.178 L2047.48 216.178 L2047.48 212.289 Q2046.13 214.603 2044.07 215.738 Q2042.04 216.849 2039.17 216.849 Q2034.47 216.849 2031.5 213.099 Q2028.56 209.349 2028.56 203.238 Q2028.56 197.127 2031.5 193.377 Q2034.47 189.627 2039.17 189.627 Q2042.04 189.627 2044.07 190.761 Q2046.13 191.872 2047.48 194.187 M2032.96 203.238 Q2032.96 207.937 2034.88 210.622 Q2036.83 213.284 2040.21 213.284 Q2043.59 213.284 2045.53 210.622 Q2047.48 207.937 2047.48 203.238 Q2047.48 198.539 2045.53 195.877 Q2043.59 193.192 2040.21 193.192 Q2036.83 193.192 2034.88 195.877 Q2032.96 198.539 2032.96 203.238 Z" fill="#000000" fill-rule="evenodd" fill-opacity="1" /><path clip-path="url(#clip200)" d="M2060.51 190.252 L2064.77 190.252 L2064.77 216.178 L2060.51 216.178 L2060.51 190.252 M2060.51 180.159 L2064.77 180.159 L2064.77 185.553 L2060.51 185.553 L2060.51 180.159 Z" fill="#000000" fill-rule="evenodd" fill-opacity="1" /><path clip-path="url(#clip200)" d="M2092.34 191.247 L2092.34 195.229 Q2090.53 194.233 2088.7 193.747 Q2086.9 193.238 2085.05 193.238 Q2080.9 193.238 2078.61 195.877 Q2076.32 198.492 2076.32 203.238 Q2076.32 207.983 2078.61 210.622 Q2080.9 213.238 2085.05 213.238 Q2086.9 213.238 2088.7 212.752 Q2090.53 212.242 2092.34 211.247 L2092.34 215.182 Q2090.55 216.016 2088.63 216.432 Q2086.74 216.849 2084.58 216.849 Q2078.73 216.849 2075.28 213.168 Q2071.83 209.488 2071.83 203.238 Q2071.83 196.895 2075.3 193.261 Q2078.8 189.627 2084.86 189.627 Q2086.83 189.627 2088.7 190.043 Q2090.58 190.437 2092.34 191.247 Z" fill="#000000" fill-rule="evenodd" fill-opacity="1" /><path clip-path="url(#clip200)" d="M2103.96 182.891 L2103.96 190.252 L2112.73 190.252 L2112.73 193.562 L2103.96 193.562 L2103.96 207.636 Q2103.96 210.807 2104.81 211.71 Q2105.69 212.613 2108.36 212.613 L2112.73 212.613 L2112.73 216.178 L2108.36 216.178 Q2103.42 216.178 2101.55 214.349 Q2099.67 212.497 2099.67 207.636 L2099.67 193.562 L2096.55 193.562 L2096.55 190.252 L2099.67 190.252 L2099.67 182.891 L2103.96 182.891 Z" fill="#000000" fill-rule="evenodd" fill-opacity="1" /><path clip-path="url(#clip200)" d="M2140.51 202.15 L2140.51 204.233 L2120.92 204.233 Q2121.2 208.631 2123.56 210.946 Q2125.95 213.238 2130.18 213.238 Q2132.64 213.238 2134.93 212.636 Q2137.24 212.034 2139.51 210.83 L2139.51 214.858 Q2137.22 215.83 2134.81 216.34 Q2132.41 216.849 2129.93 216.849 Q2123.73 216.849 2120.09 213.238 Q2116.48 209.627 2116.48 203.469 Q2116.48 197.104 2119.91 193.377 Q2123.36 189.627 2129.19 189.627 Q2134.42 189.627 2137.45 193.006 Q2140.51 196.363 2140.51 202.15 M2136.25 200.9 Q2136.2 197.405 2134.28 195.321 Q2132.38 193.238 2129.23 193.238 Q2125.67 193.238 2123.52 195.252 Q2121.39 197.266 2121.06 200.923 L2136.25 200.9 Z" fill="#000000" fill-rule="evenodd" fill-opacity="1" /><path clip-path="url(#clip200)" d="M2164.56 194.187 L2164.56 180.159 L2168.82 180.159 L2168.82 216.178 L2164.56 216.178 L2164.56 212.289 Q2163.22 214.603 2161.16 215.738 Q2159.12 216.849 2156.25 216.849 Q2151.55 216.849 2148.59 213.099 Q2145.65 209.349 2145.65 203.238 Q2145.65 197.127 2148.59 193.377 Q2151.55 189.627 2156.25 189.627 Q2159.12 189.627 2161.16 190.761 Q2163.22 191.872 2164.56 194.187 M2150.05 203.238 Q2150.05 207.937 2151.97 210.622 Q2153.91 213.284 2157.29 213.284 Q2160.67 213.284 2162.61 210.622 Q2164.56 207.937 2164.56 203.238 Q2164.56 198.539 2162.61 195.877 Q2160.67 193.192 2157.29 193.192 Q2153.91 193.192 2151.97 195.877 Q2150.05 198.539 2150.05 203.238 Z" fill="#000000" fill-rule="evenodd" fill-opacity="1" /><polyline clip-path="url(#clip200)" style="stroke:#000000; stroke-linecap:round; stroke-linejoin:round; stroke-width:4; stroke-opacity:1; fill:none" stroke-dasharray="16, 10" points="
  1783.71,250.738 1930.73,250.738 
  "/>
<path clip-path="url(#clip200)" d="M1980.79 263.087 L1980.79 253.805 L1973.15 253.805 L1973.15 249.962 L1985.42 249.962 L1985.42 264.8 Q1982.71 266.721 1979.44 267.717 Q1976.18 268.689 1972.48 268.689 Q1964.37 268.689 1959.79 263.967 Q1955.23 259.221 1955.23 250.772 Q1955.23 242.3 1959.79 237.578 Q1964.37 232.833 1972.48 232.833 Q1975.86 232.833 1978.89 233.666 Q1981.94 234.499 1984.51 236.12 L1984.51 241.096 Q1981.92 238.897 1979 237.786 Q1976.09 236.675 1972.87 236.675 Q1966.53 236.675 1963.33 240.217 Q1960.16 243.758 1960.16 250.772 Q1960.16 257.763 1963.33 261.305 Q1966.53 264.846 1972.87 264.846 Q1975.35 264.846 1977.29 264.43 Q1979.24 263.99 1980.79 263.087 Z" fill="#000000" fill-rule="evenodd" fill-opacity="1" /><path clip-path="url(#clip200)" d="M2008.8 246.073 Q2008.08 245.657 2007.22 245.471 Q2006.39 245.263 2005.37 245.263 Q2001.76 245.263 1999.81 247.624 Q1997.89 249.962 1997.89 254.36 L1997.89 268.018 L1993.61 268.018 L1993.61 242.092 L1997.89 242.092 L1997.89 246.12 Q1999.24 243.758 2001.39 242.624 Q2003.54 241.467 2006.62 241.467 Q2007.06 241.467 2007.59 241.536 Q2008.12 241.583 2008.77 241.698 L2008.8 246.073 Z" fill="#000000" fill-rule="evenodd" fill-opacity="1" /><path clip-path="url(#clip200)" d="M2022.27 245.078 Q2018.84 245.078 2016.85 247.763 Q2014.86 250.425 2014.86 255.078 Q2014.86 259.731 2016.83 262.416 Q2018.82 265.078 2022.27 265.078 Q2025.67 265.078 2027.66 262.393 Q2029.65 259.707 2029.65 255.078 Q2029.65 250.471 2027.66 247.786 Q2025.67 245.078 2022.27 245.078 M2022.27 241.467 Q2027.82 241.467 2030.99 245.078 Q2034.17 248.689 2034.17 255.078 Q2034.17 261.444 2030.99 265.078 Q2027.82 268.689 2022.27 268.689 Q2016.69 268.689 2013.52 265.078 Q2010.37 261.444 2010.37 255.078 Q2010.37 248.689 2013.52 245.078 Q2016.69 241.467 2022.27 241.467 Z" fill="#000000" fill-rule="evenodd" fill-opacity="1" /><path clip-path="url(#clip200)" d="M2040.79 257.786 L2040.79 242.092 L2045.05 242.092 L2045.05 257.624 Q2045.05 261.305 2046.48 263.156 Q2047.92 264.985 2050.79 264.985 Q2054.24 264.985 2056.23 262.786 Q2058.24 260.587 2058.24 256.791 L2058.24 242.092 L2062.5 242.092 L2062.5 268.018 L2058.24 268.018 L2058.24 264.036 Q2056.69 266.397 2054.63 267.555 Q2052.59 268.689 2049.88 268.689 Q2045.42 268.689 2043.1 265.911 Q2040.79 263.133 2040.79 257.786 M2051.5 241.467 L2051.5 241.467 Z" fill="#000000" fill-rule="evenodd" fill-opacity="1" /><path clip-path="url(#clip200)" d="M2092.82 252.369 L2092.82 268.018 L2088.56 268.018 L2088.56 252.508 Q2088.56 248.828 2087.13 246.999 Q2085.69 245.17 2082.82 245.17 Q2079.37 245.17 2077.38 247.37 Q2075.39 249.569 2075.39 253.365 L2075.39 268.018 L2071.11 268.018 L2071.11 242.092 L2075.39 242.092 L2075.39 246.12 Q2076.92 243.782 2078.98 242.624 Q2081.06 241.467 2083.77 241.467 Q2088.24 241.467 2090.53 244.245 Q2092.82 246.999 2092.82 252.369 Z" fill="#000000" fill-rule="evenodd" fill-opacity="1" /><path clip-path="url(#clip200)" d="M2118.38 246.027 L2118.38 231.999 L2122.64 231.999 L2122.64 268.018 L2118.38 268.018 L2118.38 264.129 Q2117.04 266.443 2114.98 267.578 Q2112.94 268.689 2110.07 268.689 Q2105.37 268.689 2102.41 264.939 Q2099.47 261.189 2099.47 255.078 Q2099.47 248.967 2102.41 245.217 Q2105.37 241.467 2110.07 241.467 Q2112.94 241.467 2114.98 242.601 Q2117.04 243.712 2118.38 246.027 M2103.86 255.078 Q2103.86 259.777 2105.79 262.462 Q2107.73 265.124 2111.11 265.124 Q2114.49 265.124 2116.43 262.462 Q2118.38 259.777 2118.38 255.078 Q2118.38 250.379 2116.43 247.717 Q2114.49 245.032 2111.11 245.032 Q2107.73 245.032 2105.79 247.717 Q2103.86 250.379 2103.86 255.078 Z" fill="#000000" fill-rule="evenodd" fill-opacity="1" /><path clip-path="url(#clip200)" d="M2150.69 234.731 L2150.69 242.092 L2159.47 242.092 L2159.47 245.402 L2150.69 245.402 L2150.69 259.476 Q2150.69 262.647 2151.55 263.55 Q2152.43 264.453 2155.09 264.453 L2159.47 264.453 L2159.47 268.018 L2155.09 268.018 Q2150.16 268.018 2148.29 266.189 Q2146.41 264.337 2146.41 259.476 L2146.41 245.402 L2143.29 245.402 L2143.29 242.092 L2146.41 242.092 L2146.41 234.731 L2150.69 234.731 Z" fill="#000000" fill-rule="evenodd" fill-opacity="1" /><path clip-path="url(#clip200)" d="M2180.09 246.073 Q2179.37 245.657 2178.52 245.471 Q2177.68 245.263 2176.67 245.263 Q2173.05 245.263 2171.11 247.624 Q2169.19 249.962 2169.19 254.36 L2169.19 268.018 L2164.91 268.018 L2164.91 242.092 L2169.19 242.092 L2169.19 246.12 Q2170.53 243.758 2172.68 242.624 Q2174.84 241.467 2177.92 241.467 Q2178.36 241.467 2178.89 241.536 Q2179.42 241.583 2180.07 241.698 L2180.09 246.073 Z" fill="#000000" fill-rule="evenodd" fill-opacity="1" /><path clip-path="url(#clip200)" d="M2184.12 257.786 L2184.12 242.092 L2188.38 242.092 L2188.38 257.624 Q2188.38 261.305 2189.81 263.156 Q2191.25 264.985 2194.12 264.985 Q2197.57 264.985 2199.56 262.786 Q2201.57 260.587 2201.57 256.791 L2201.57 242.092 L2205.83 242.092 L2205.83 268.018 L2201.57 268.018 L2201.57 264.036 Q2200.02 266.397 2197.96 267.555 Q2195.92 268.689 2193.22 268.689 Q2188.75 268.689 2186.43 265.911 Q2184.12 263.133 2184.12 257.786 M2194.84 241.467 L2194.84 241.467 Z" fill="#000000" fill-rule="evenodd" fill-opacity="1" /><path clip-path="url(#clip200)" d="M2218.82 234.731 L2218.82 242.092 L2227.59 242.092 L2227.59 245.402 L2218.82 245.402 L2218.82 259.476 Q2218.82 262.647 2219.67 263.55 Q2220.55 264.453 2223.22 264.453 L2227.59 264.453 L2227.59 268.018 L2223.22 268.018 Q2218.29 268.018 2216.41 266.189 Q2214.54 264.337 2214.54 259.476 L2214.54 245.402 L2211.41 245.402 L2211.41 242.092 L2214.54 242.092 L2214.54 234.731 L2218.82 234.731 Z" fill="#000000" fill-rule="evenodd" fill-opacity="1" /><path clip-path="url(#clip200)" d="M2254.74 252.369 L2254.74 268.018 L2250.48 268.018 L2250.48 252.508 Q2250.48 248.828 2249.05 246.999 Q2247.61 245.17 2244.74 245.17 Q2241.29 245.17 2239.3 247.37 Q2237.31 249.569 2237.31 253.365 L2237.31 268.018 L2233.03 268.018 L2233.03 231.999 L2237.31 231.999 L2237.31 246.12 Q2238.84 243.782 2240.9 242.624 Q2242.98 241.467 2245.69 241.467 Q2250.16 241.467 2252.45 244.245 Q2254.74 246.999 2254.74 252.369 Z" fill="#000000" fill-rule="evenodd" fill-opacity="1" /></svg>
