<?xml version="1.0" encoding="utf-8"?>
<svg xmlns="http://www.w3.org/2000/svg" xmlns:xlink="http://www.w3.org/1999/xlink" width="600" height="400" viewBox="0 0 2400 1600">
<defs>
  <clipPath id="clip940">
    <rect x="0" y="0" width="2400" height="1600"/>
  </clipPath>
</defs>
<path clip-path="url(#clip940)" d="M0 1600 L2400 1600 L2400 0 L0 0  Z" fill="#ffffff" fill-rule="evenodd" fill-opacity="1"/>
<defs>
  <clipPath id="clip941">
    <rect x="480" y="0" width="1681" height="1600"/>
  </clipPath>
</defs>
<path clip-path="url(#clip940)" d="M193.936 1486.45 L2352.76 1486.45 L2352.76 47.2441 L193.936 47.2441  Z" fill="#ffffff" fill-rule="evenodd" fill-opacity="1"/>
<defs>
  <clipPath id="clip942">
    <rect x="193" y="47" width="2160" height="1440"/>
  </clipPath>
</defs>
<polyline clip-path="url(#clip942)" style="stroke:#000000; stroke-linecap:round; stroke-linejoin:round; stroke-width:2; stroke-opacity:0.1; fill:none" points="585.075,1486.45 585.075,47.2441 "/>
<polyline clip-path="url(#clip942)" style="stroke:#000000; stroke-linecap:round; stroke-linejoin:round; stroke-width:2; stroke-opacity:0.1; fill:none" points="980.729,1486.45 980.729,47.2441 "/>
<polyline clip-path="url(#clip942)" style="stroke:#000000; stroke-linecap:round; stroke-linejoin:round; stroke-width:2; stroke-opacity:0.1; fill:none" points="1376.38,1486.45 1376.38,47.2441 "/>
<polyline clip-path="url(#clip942)" style="stroke:#000000; stroke-linecap:round; stroke-linejoin:round; stroke-width:2; stroke-opacity:0.1; fill:none" points="1772.04,1486.45 1772.04,47.2441 "/>
<polyline clip-path="url(#clip942)" style="stroke:#000000; stroke-linecap:round; stroke-linejoin:round; stroke-width:2; stroke-opacity:0.1; fill:none" points="2167.69,1486.45 2167.69,47.2441 "/>
<polyline clip-path="url(#clip940)" style="stroke:#000000; stroke-linecap:round; stroke-linejoin:round; stroke-width:4; stroke-opacity:1; fill:none" points="193.936,1486.45 2352.76,1486.45 "/>
<polyline clip-path="url(#clip940)" style="stroke:#000000; stroke-linecap:round; stroke-linejoin:round; stroke-width:4; stroke-opacity:1; fill:none" points="585.075,1486.45 585.075,1467.55 "/>
<polyline clip-path="url(#clip940)" style="stroke:#000000; stroke-linecap:round; stroke-linejoin:round; stroke-width:4; stroke-opacity:1; fill:none" points="980.729,1486.45 980.729,1467.55 "/>
<polyline clip-path="url(#clip940)" style="stroke:#000000; stroke-linecap:round; stroke-linejoin:round; stroke-width:4; stroke-opacity:1; fill:none" points="1376.38,1486.45 1376.38,1467.55 "/>
<polyline clip-path="url(#clip940)" style="stroke:#000000; stroke-linecap:round; stroke-linejoin:round; stroke-width:4; stroke-opacity:1; fill:none" points="1772.04,1486.45 1772.04,1467.55 "/>
<polyline clip-path="url(#clip940)" style="stroke:#000000; stroke-linecap:round; stroke-linejoin:round; stroke-width:4; stroke-opacity:1; fill:none" points="2167.69,1486.45 2167.69,1467.55 "/>
<path clip-path="url(#clip940)" d="M555.018 1532.02 L584.693 1532.02 L584.693 1535.95 L555.018 1535.95 L555.018 1532.02 Z" fill="#000000" fill-rule="nonzero" fill-opacity="1" /><path clip-path="url(#clip940)" d="M598.814 1544.91 L615.133 1544.91 L615.133 1548.85 L593.189 1548.85 L593.189 1544.91 Q595.851 1542.16 600.434 1537.53 Q605.04 1532.88 606.221 1531.53 Q608.466 1529.01 609.346 1527.27 Q610.249 1525.51 610.249 1523.82 Q610.249 1521.07 608.304 1519.33 Q606.383 1517.6 603.281 1517.6 Q601.082 1517.6 598.628 1518.36 Q596.198 1519.13 593.42 1520.68 L593.42 1515.95 Q596.244 1514.82 598.698 1514.24 Q601.152 1513.66 603.189 1513.66 Q608.559 1513.66 611.753 1516.35 Q614.948 1519.03 614.948 1523.52 Q614.948 1525.65 614.138 1527.57 Q613.351 1529.47 611.244 1532.07 Q610.665 1532.74 607.564 1535.95 Q604.462 1539.15 598.814 1544.91 Z" fill="#000000" fill-rule="nonzero" fill-opacity="1" /><path clip-path="url(#clip940)" d="M950.486 1532.02 L980.162 1532.02 L980.162 1535.95 L950.486 1535.95 L950.486 1532.02 Z" fill="#000000" fill-rule="nonzero" fill-opacity="1" /><path clip-path="url(#clip940)" d="M991.064 1544.91 L998.703 1544.91 L998.703 1518.55 L990.393 1520.21 L990.393 1515.95 L998.657 1514.29 L1003.33 1514.29 L1003.33 1544.91 L1010.97 1544.91 L1010.97 1548.85 L991.064 1548.85 L991.064 1544.91 Z" fill="#000000" fill-rule="nonzero" fill-opacity="1" /><path clip-path="url(#clip940)" d="M1376.38 1517.37 Q1372.77 1517.37 1370.94 1520.93 Q1369.14 1524.47 1369.14 1531.6 Q1369.14 1538.71 1370.94 1542.27 Q1372.77 1545.82 1376.38 1545.82 Q1380.02 1545.82 1381.82 1542.27 Q1383.65 1538.71 1383.65 1531.6 Q1383.65 1524.47 1381.82 1520.93 Q1380.02 1517.37 1376.38 1517.37 M1376.38 1513.66 Q1382.19 1513.66 1385.25 1518.27 Q1388.33 1522.85 1388.33 1531.6 Q1388.33 1540.33 1385.25 1544.94 Q1382.19 1549.52 1376.38 1549.52 Q1370.57 1549.52 1367.49 1544.94 Q1364.44 1540.33 1364.44 1531.6 Q1364.44 1522.85 1367.49 1518.27 Q1370.57 1513.66 1376.38 1513.66 Z" fill="#000000" fill-rule="nonzero" fill-opacity="1" /><path clip-path="url(#clip940)" d="M1762.42 1544.91 L1770.06 1544.91 L1770.06 1518.55 L1761.75 1520.21 L1761.75 1515.95 L1770.01 1514.29 L1774.69 1514.29 L1774.69 1544.91 L1782.33 1544.91 L1782.33 1548.85 L1762.42 1548.85 L1762.42 1544.91 Z" fill="#000000" fill-rule="nonzero" fill-opacity="1" /><path clip-path="url(#clip940)" d="M2162.34 1544.91 L2178.66 1544.91 L2178.66 1548.85 L2156.72 1548.85 L2156.72 1544.91 Q2159.38 1542.16 2163.96 1537.53 Q2168.57 1532.88 2169.75 1531.53 Q2171.99 1529.01 2172.87 1527.27 Q2173.78 1525.51 2173.78 1523.82 Q2173.78 1521.07 2171.83 1519.33 Q2169.91 1517.6 2166.81 1517.6 Q2164.61 1517.6 2162.16 1518.36 Q2159.73 1519.13 2156.95 1520.68 L2156.95 1515.95 Q2159.77 1514.82 2162.23 1514.24 Q2164.68 1513.66 2166.72 1513.66 Q2172.09 1513.66 2175.28 1516.35 Q2178.48 1519.03 2178.48 1523.52 Q2178.48 1525.65 2177.67 1527.57 Q2176.88 1529.47 2174.77 1532.07 Q2174.19 1532.74 2171.09 1535.95 Q2167.99 1539.15 2162.34 1544.91 Z" fill="#000000" fill-rule="nonzero" fill-opacity="1" /><polyline clip-path="url(#clip942)" style="stroke:#000000; stroke-linecap:round; stroke-linejoin:round; stroke-width:2; stroke-opacity:0.1; fill:none" points="193.936,1380.44 2352.76,1380.44 "/>
<polyline clip-path="url(#clip942)" style="stroke:#000000; stroke-linecap:round; stroke-linejoin:round; stroke-width:2; stroke-opacity:0.1; fill:none" points="193.936,1112.3 2352.76,1112.3 "/>
<polyline clip-path="url(#clip942)" style="stroke:#000000; stroke-linecap:round; stroke-linejoin:round; stroke-width:2; stroke-opacity:0.1; fill:none" points="193.936,844.156 2352.76,844.156 "/>
<polyline clip-path="url(#clip942)" style="stroke:#000000; stroke-linecap:round; stroke-linejoin:round; stroke-width:2; stroke-opacity:0.1; fill:none" points="193.936,576.013 2352.76,576.013 "/>
<polyline clip-path="url(#clip942)" style="stroke:#000000; stroke-linecap:round; stroke-linejoin:round; stroke-width:2; stroke-opacity:0.1; fill:none" points="193.936,307.871 2352.76,307.871 "/>
<polyline clip-path="url(#clip940)" style="stroke:#000000; stroke-linecap:round; stroke-linejoin:round; stroke-width:4; stroke-opacity:1; fill:none" points="193.936,1486.45 193.936,47.2441 "/>
<polyline clip-path="url(#clip940)" style="stroke:#000000; stroke-linecap:round; stroke-linejoin:round; stroke-width:4; stroke-opacity:1; fill:none" points="193.936,1380.44 212.834,1380.44 "/>
<polyline clip-path="url(#clip940)" style="stroke:#000000; stroke-linecap:round; stroke-linejoin:round; stroke-width:4; stroke-opacity:1; fill:none" points="193.936,1112.3 212.834,1112.3 "/>
<polyline clip-path="url(#clip940)" style="stroke:#000000; stroke-linecap:round; stroke-linejoin:round; stroke-width:4; stroke-opacity:1; fill:none" points="193.936,844.156 212.834,844.156 "/>
<polyline clip-path="url(#clip940)" style="stroke:#000000; stroke-linecap:round; stroke-linejoin:round; stroke-width:4; stroke-opacity:1; fill:none" points="193.936,576.013 212.834,576.013 "/>
<polyline clip-path="url(#clip940)" style="stroke:#000000; stroke-linecap:round; stroke-linejoin:round; stroke-width:4; stroke-opacity:1; fill:none" points="193.936,307.871 212.834,307.871 "/>
<path clip-path="url(#clip940)" d="M51.9875 1380.89 L81.6633 1380.89 L81.6633 1384.83 L51.9875 1384.83 L51.9875 1380.89 Z" fill="#000000" fill-rule="nonzero" fill-opacity="1" /><path clip-path="url(#clip940)" d="M92.566 1393.79 L100.205 1393.79 L100.205 1367.42 L91.8947 1369.09 L91.8947 1364.83 L100.159 1363.16 L104.834 1363.16 L104.834 1393.79 L112.473 1393.79 L112.473 1397.72 L92.566 1397.72 L92.566 1393.79 Z" fill="#000000" fill-rule="nonzero" fill-opacity="1" /><path clip-path="url(#clip940)" d="M121.918 1391.84 L126.802 1391.84 L126.802 1397.72 L121.918 1397.72 L121.918 1391.84 Z" fill="#000000" fill-rule="nonzero" fill-opacity="1" /><path clip-path="url(#clip940)" d="M137.033 1363.16 L155.39 1363.16 L155.39 1367.1 L141.316 1367.1 L141.316 1375.57 Q142.334 1375.22 143.353 1375.06 Q144.371 1374.87 145.39 1374.87 Q151.177 1374.87 154.556 1378.05 Q157.936 1381.22 157.936 1386.63 Q157.936 1392.21 154.464 1395.31 Q150.992 1398.39 144.672 1398.39 Q142.496 1398.39 140.228 1398.02 Q137.982 1397.65 135.575 1396.91 L135.575 1392.21 Q137.658 1393.35 139.881 1393.9 Q142.103 1394.46 144.58 1394.46 Q148.584 1394.46 150.922 1392.35 Q153.26 1390.24 153.26 1386.63 Q153.26 1383.02 150.922 1380.92 Q148.584 1378.81 144.58 1378.81 Q142.705 1378.81 140.83 1379.23 Q138.978 1379.64 137.033 1380.52 L137.033 1363.16 Z" fill="#000000" fill-rule="nonzero" fill-opacity="1" /><path clip-path="url(#clip940)" d="M50.9921 1112.75 L80.6679 1112.75 L80.6679 1116.69 L50.9921 1116.69 L50.9921 1112.75 Z" fill="#000000" fill-rule="nonzero" fill-opacity="1" /><path clip-path="url(#clip940)" d="M91.5706 1125.64 L99.2095 1125.64 L99.2095 1099.28 L90.8993 1100.94 L90.8993 1096.69 L99.1632 1095.02 L103.839 1095.02 L103.839 1125.64 L111.478 1125.64 L111.478 1129.58 L91.5706 1129.58 L91.5706 1125.64 Z" fill="#000000" fill-rule="nonzero" fill-opacity="1" /><path clip-path="url(#clip940)" d="M120.922 1123.7 L125.807 1123.7 L125.807 1129.58 L120.922 1129.58 L120.922 1123.7 Z" fill="#000000" fill-rule="nonzero" fill-opacity="1" /><path clip-path="url(#clip940)" d="M145.992 1098.1 Q142.381 1098.1 140.552 1101.66 Q138.746 1105.2 138.746 1112.33 Q138.746 1119.44 140.552 1123 Q142.381 1126.55 145.992 1126.55 Q149.626 1126.55 151.431 1123 Q153.26 1119.44 153.26 1112.33 Q153.26 1105.2 151.431 1101.66 Q149.626 1098.1 145.992 1098.1 M145.992 1094.39 Q151.802 1094.39 154.857 1099 Q157.936 1103.58 157.936 1112.33 Q157.936 1121.06 154.857 1125.67 Q151.802 1130.25 145.992 1130.25 Q140.181 1130.25 137.103 1125.67 Q134.047 1121.06 134.047 1112.33 Q134.047 1103.58 137.103 1099 Q140.181 1094.39 145.992 1094.39 Z" fill="#000000" fill-rule="nonzero" fill-opacity="1" /><path clip-path="url(#clip940)" d="M51.9875 844.608 L81.6633 844.608 L81.6633 848.543 L51.9875 848.543 L51.9875 844.608 Z" fill="#000000" fill-rule="nonzero" fill-opacity="1" /><path clip-path="url(#clip940)" d="M101.756 829.955 Q98.1447 829.955 96.316 833.52 Q94.5104 837.061 94.5104 844.191 Q94.5104 851.297 96.316 854.862 Q98.1447 858.404 101.756 858.404 Q105.39 858.404 107.196 854.862 Q109.024 851.297 109.024 844.191 Q109.024 837.061 107.196 833.52 Q105.39 829.955 101.756 829.955 M101.756 826.251 Q107.566 826.251 110.621 830.858 Q113.7 835.441 113.7 844.191 Q113.7 852.918 110.621 857.524 Q107.566 862.107 101.756 862.107 Q95.9456 862.107 92.8669 857.524 Q89.8114 852.918 89.8114 844.191 Q89.8114 835.441 92.8669 830.858 Q95.9456 826.251 101.756 826.251 Z" fill="#000000" fill-rule="nonzero" fill-opacity="1" /><path clip-path="url(#clip940)" d="M121.918 855.557 L126.802 855.557 L126.802 861.436 L121.918 861.436 L121.918 855.557 Z" fill="#000000" fill-rule="nonzero" fill-opacity="1" /><path clip-path="url(#clip940)" d="M137.033 826.876 L155.39 826.876 L155.39 830.811 L141.316 830.811 L141.316 839.283 Q142.334 838.936 143.353 838.774 Q144.371 838.589 145.39 838.589 Q151.177 838.589 154.556 841.76 Q157.936 844.932 157.936 850.348 Q157.936 855.927 154.464 859.029 Q150.992 862.107 144.672 862.107 Q142.496 862.107 140.228 861.737 Q137.982 861.367 135.575 860.626 L135.575 855.927 Q137.658 857.061 139.881 857.617 Q142.103 858.172 144.58 858.172 Q148.584 858.172 150.922 856.066 Q153.26 853.959 153.26 850.348 Q153.26 846.737 150.922 844.631 Q148.584 842.524 144.58 842.524 Q142.705 842.524 140.83 842.941 Q138.978 843.358 137.033 844.237 L137.033 826.876 Z" fill="#000000" fill-rule="nonzero" fill-opacity="1" /><path clip-path="url(#clip940)" d="M100.76 561.812 Q97.1493 561.812 95.3206 565.377 Q93.515 568.919 93.515 576.048 Q93.515 583.155 95.3206 586.719 Q97.1493 590.261 100.76 590.261 Q104.395 590.261 106.2 586.719 Q108.029 583.155 108.029 576.048 Q108.029 568.919 106.2 565.377 Q104.395 561.812 100.76 561.812 M100.76 558.108 Q106.571 558.108 109.626 562.715 Q112.705 567.298 112.705 576.048 Q112.705 584.775 109.626 589.381 Q106.571 593.965 100.76 593.965 Q94.9502 593.965 91.8715 589.381 Q88.816 584.775 88.816 576.048 Q88.816 567.298 91.8715 562.715 Q94.9502 558.108 100.76 558.108 Z" fill="#000000" fill-rule="nonzero" fill-opacity="1" /><path clip-path="url(#clip940)" d="M120.922 587.414 L125.807 587.414 L125.807 593.293 L120.922 593.293 L120.922 587.414 Z" fill="#000000" fill-rule="nonzero" fill-opacity="1" /><path clip-path="url(#clip940)" d="M145.992 561.812 Q142.381 561.812 140.552 565.377 Q138.746 568.919 138.746 576.048 Q138.746 583.155 140.552 586.719 Q142.381 590.261 145.992 590.261 Q149.626 590.261 151.431 586.719 Q153.26 583.155 153.26 576.048 Q153.26 568.919 151.431 565.377 Q149.626 561.812 145.992 561.812 M145.992 558.108 Q151.802 558.108 154.857 562.715 Q157.936 567.298 157.936 576.048 Q157.936 584.775 154.857 589.381 Q151.802 593.965 145.992 593.965 Q140.181 593.965 137.103 589.381 Q134.047 584.775 134.047 576.048 Q134.047 567.298 137.103 562.715 Q140.181 558.108 145.992 558.108 Z" fill="#000000" fill-rule="nonzero" fill-opacity="1" /><path clip-path="url(#clip940)" d="M101.756 293.669 Q98.1447 293.669 96.316 297.234 Q94.5104 300.776 94.5104 307.905 Q94.5104 315.012 96.316 318.577 Q98.1447 322.118 101.756 322.118 Q105.39 322.118 107.196 318.577 Q109.024 315.012 109.024 307.905 Q109.024 300.776 107.196 297.234 Q105.39 293.669 101.756 293.669 M101.756 289.966 Q107.566 289.966 110.621 294.572 Q113.7 299.155 113.7 307.905 Q113.7 316.632 110.621 321.239 Q107.566 325.822 101.756 325.822 Q95.9456 325.822 92.8669 321.239 Q89.8114 316.632 89.8114 307.905 Q89.8114 299.155 92.8669 294.572 Q95.9456 289.966 101.756 289.966 Z" fill="#000000" fill-rule="nonzero" fill-opacity="1" /><path clip-path="url(#clip940)" d="M121.918 319.271 L126.802 319.271 L126.802 325.151 L121.918 325.151 L121.918 319.271 Z" fill="#000000" fill-rule="nonzero" fill-opacity="1" /><path clip-path="url(#clip940)" d="M137.033 290.591 L155.39 290.591 L155.39 294.526 L141.316 294.526 L141.316 302.998 Q142.334 302.651 143.353 302.489 Q144.371 302.304 145.39 302.304 Q151.177 302.304 154.556 305.475 Q157.936 308.646 157.936 314.063 Q157.936 319.641 154.464 322.743 Q150.992 325.822 144.672 325.822 Q142.496 325.822 140.228 325.452 Q137.982 325.081 135.575 324.341 L135.575 319.641 Q137.658 320.776 139.881 321.331 Q142.103 321.887 144.58 321.887 Q148.584 321.887 150.922 319.78 Q153.26 317.674 153.26 314.063 Q153.26 310.452 150.922 308.345 Q148.584 306.239 144.58 306.239 Q142.705 306.239 140.83 306.655 Q138.978 307.072 137.033 307.952 L137.033 290.591 Z" fill="#000000" fill-rule="nonzero" fill-opacity="1" /><circle clip-path="url(#clip942)" cx="1403.73" cy="620.732" r="14.4" fill="#e69f00" fill-rule="evenodd" fill-opacity="1" stroke="#000000" stroke-opacity="1" stroke-width="3.2"/>
<circle clip-path="url(#clip942)" cx="934.991" cy="472.937" r="14.4" fill="#e69f00" fill-rule="evenodd" fill-opacity="1" stroke="#000000" stroke-opacity="1" stroke-width="3.2"/>
<circle clip-path="url(#clip942)" cx="1093.28" cy="583.215" r="14.4" fill="#e69f00" fill-rule="evenodd" fill-opacity="1" stroke="#000000" stroke-opacity="1" stroke-width="3.2"/>
<circle clip-path="url(#clip942)" cx="1810.69" cy="891.582" r="14.4" fill="#e69f00" fill-rule="evenodd" fill-opacity="1" stroke="#000000" stroke-opacity="1" stroke-width="3.2"/>
<circle clip-path="url(#clip942)" cx="1573.36" cy="963.137" r="14.4" fill="#e69f00" fill-rule="evenodd" fill-opacity="1" stroke="#000000" stroke-opacity="1" stroke-width="3.2"/>
<circle clip-path="url(#clip942)" cx="741.411" cy="550.5" r="14.4" fill="#e69f00" fill-rule="evenodd" fill-opacity="1" stroke="#000000" stroke-opacity="1" stroke-width="3.2"/>
<circle clip-path="url(#clip942)" cx="1019.03" cy="720.36" r="14.4" fill="#e69f00" fill-rule="evenodd" fill-opacity="1" stroke="#000000" stroke-opacity="1" stroke-width="3.2"/>
<circle clip-path="url(#clip942)" cx="681.203" cy="565.546" r="14.4" fill="#e69f00" fill-rule="evenodd" fill-opacity="1" stroke="#000000" stroke-opacity="1" stroke-width="3.2"/>
<circle clip-path="url(#clip942)" cx="1341.53" cy="846.356" r="14.4" fill="#e69f00" fill-rule="evenodd" fill-opacity="1" stroke="#000000" stroke-opacity="1" stroke-width="3.2"/>
<circle clip-path="url(#clip942)" cx="1311.84" cy="681.072" r="14.4" fill="#e69f00" fill-rule="evenodd" fill-opacity="1" stroke="#000000" stroke-opacity="1" stroke-width="3.2"/>
<circle clip-path="url(#clip942)" cx="1183.72" cy="563.839" r="14.4" fill="#e69f00" fill-rule="evenodd" fill-opacity="1" stroke="#000000" stroke-opacity="1" stroke-width="3.2"/>
<circle clip-path="url(#clip942)" cx="2010.67" cy="1137.43" r="14.4" fill="#e69f00" fill-rule="evenodd" fill-opacity="1" stroke="#000000" stroke-opacity="1" stroke-width="3.2"/>
<circle clip-path="url(#clip942)" cx="2139.56" cy="1105.07" r="14.4" fill="#e69f00" fill-rule="evenodd" fill-opacity="1" stroke="#000000" stroke-opacity="1" stroke-width="3.2"/>
<circle clip-path="url(#clip942)" cx="954.351" cy="550.466" r="14.4" fill="#e69f00" fill-rule="evenodd" fill-opacity="1" stroke="#000000" stroke-opacity="1" stroke-width="3.2"/>
<circle clip-path="url(#clip942)" cx="1076.91" cy="428.176" r="14.4" fill="#e69f00" fill-rule="evenodd" fill-opacity="1" stroke="#000000" stroke-opacity="1" stroke-width="3.2"/>
<circle clip-path="url(#clip942)" cx="1543.62" cy="558.339" r="14.4" fill="#e69f00" fill-rule="evenodd" fill-opacity="1" stroke="#000000" stroke-opacity="1" stroke-width="3.2"/>
<circle clip-path="url(#clip942)" cx="722.38" cy="467.584" r="14.4" fill="#e69f00" fill-rule="evenodd" fill-opacity="1" stroke="#000000" stroke-opacity="1" stroke-width="3.2"/>
<circle clip-path="url(#clip942)" cx="1551.96" cy="777.691" r="14.4" fill="#e69f00" fill-rule="evenodd" fill-opacity="1" stroke="#000000" stroke-opacity="1" stroke-width="3.2"/>
<circle clip-path="url(#clip942)" cx="1122.97" cy="379.469" r="14.4" fill="#e69f00" fill-rule="evenodd" fill-opacity="1" stroke="#000000" stroke-opacity="1" stroke-width="3.2"/>
<circle clip-path="url(#clip942)" cx="391.763" cy="446.523" r="14.4" fill="#e69f00" fill-rule="evenodd" fill-opacity="1" stroke="#000000" stroke-opacity="1" stroke-width="3.2"/>
<circle clip-path="url(#clip942)" cx="1616.01" cy="1019.12" r="14.4" fill="#e69f00" fill-rule="evenodd" fill-opacity="1" stroke="#000000" stroke-opacity="1" stroke-width="3.2"/>
<circle clip-path="url(#clip942)" cx="1834.39" cy="871.335" r="14.4" fill="#e69f00" fill-rule="evenodd" fill-opacity="1" stroke="#000000" stroke-opacity="1" stroke-width="3.2"/>
<circle clip-path="url(#clip942)" cx="1147.65" cy="613.3" r="14.4" fill="#e69f00" fill-rule="evenodd" fill-opacity="1" stroke="#000000" stroke-opacity="1" stroke-width="3.2"/>
<circle clip-path="url(#clip942)" cx="1689.75" cy="1095.11" r="14.4" fill="#e69f00" fill-rule="evenodd" fill-opacity="1" stroke="#000000" stroke-opacity="1" stroke-width="3.2"/>
<circle clip-path="url(#clip942)" cx="1814.47" cy="932.382" r="14.4" fill="#e69f00" fill-rule="evenodd" fill-opacity="1" stroke="#000000" stroke-opacity="1" stroke-width="3.2"/>
<circle clip-path="url(#clip942)" cx="940.066" cy="446.897" r="14.4" fill="#e69f00" fill-rule="evenodd" fill-opacity="1" stroke="#000000" stroke-opacity="1" stroke-width="3.2"/>
<circle clip-path="url(#clip942)" cx="1839.98" cy="899.724" r="14.4" fill="#e69f00" fill-rule="evenodd" fill-opacity="1" stroke="#000000" stroke-opacity="1" stroke-width="3.2"/>
<circle clip-path="url(#clip942)" cx="1787.81" cy="894.406" r="14.4" fill="#e69f00" fill-rule="evenodd" fill-opacity="1" stroke="#000000" stroke-opacity="1" stroke-width="3.2"/>
<circle clip-path="url(#clip942)" cx="1515.14" cy="654.263" r="14.4" fill="#e69f00" fill-rule="evenodd" fill-opacity="1" stroke="#000000" stroke-opacity="1" stroke-width="3.2"/>
<circle clip-path="url(#clip942)" cx="1703.55" cy="771.722" r="14.4" fill="#e69f00" fill-rule="evenodd" fill-opacity="1" stroke="#000000" stroke-opacity="1" stroke-width="3.2"/>
<circle clip-path="url(#clip942)" cx="1027.35" cy="638.85" r="14.4" fill="#e69f00" fill-rule="evenodd" fill-opacity="1" stroke="#000000" stroke-opacity="1" stroke-width="3.2"/>
<circle clip-path="url(#clip942)" cx="976.812" cy="363.98" r="14.4" fill="#e69f00" fill-rule="evenodd" fill-opacity="1" stroke="#000000" stroke-opacity="1" stroke-width="3.2"/>
<circle clip-path="url(#clip942)" cx="1198.58" cy="826.821" r="14.4" fill="#e69f00" fill-rule="evenodd" fill-opacity="1" stroke="#000000" stroke-opacity="1" stroke-width="3.2"/>
<circle clip-path="url(#clip942)" cx="1496.14" cy="836.114" r="14.4" fill="#e69f00" fill-rule="evenodd" fill-opacity="1" stroke="#000000" stroke-opacity="1" stroke-width="3.2"/>
<circle clip-path="url(#clip942)" cx="1725.42" cy="1218.31" r="14.4" fill="#e69f00" fill-rule="evenodd" fill-opacity="1" stroke="#000000" stroke-opacity="1" stroke-width="3.2"/>
<circle clip-path="url(#clip942)" cx="1095.96" cy="478.214" r="14.4" fill="#e69f00" fill-rule="evenodd" fill-opacity="1" stroke="#000000" stroke-opacity="1" stroke-width="3.2"/>
<circle clip-path="url(#clip942)" cx="931.618" cy="787.029" r="14.4" fill="#e69f00" fill-rule="evenodd" fill-opacity="1" stroke="#000000" stroke-opacity="1" stroke-width="3.2"/>
<circle clip-path="url(#clip942)" cx="1320.27" cy="777.11" r="14.4" fill="#e69f00" fill-rule="evenodd" fill-opacity="1" stroke="#000000" stroke-opacity="1" stroke-width="3.2"/>
<circle clip-path="url(#clip942)" cx="1033.6" cy="343.345" r="14.4" fill="#e69f00" fill-rule="evenodd" fill-opacity="1" stroke="#000000" stroke-opacity="1" stroke-width="3.2"/>
<circle clip-path="url(#clip942)" cx="1609.18" cy="730.788" r="14.4" fill="#e69f00" fill-rule="evenodd" fill-opacity="1" stroke="#000000" stroke-opacity="1" stroke-width="3.2"/>
<circle clip-path="url(#clip942)" cx="1459.21" cy="549.43" r="14.4" fill="#e69f00" fill-rule="evenodd" fill-opacity="1" stroke="#000000" stroke-opacity="1" stroke-width="3.2"/>
<circle clip-path="url(#clip942)" cx="681.715" cy="393.622" r="14.4" fill="#e69f00" fill-rule="evenodd" fill-opacity="1" stroke="#000000" stroke-opacity="1" stroke-width="3.2"/>
<circle clip-path="url(#clip942)" cx="1089.93" cy="462.881" r="14.4" fill="#e69f00" fill-rule="evenodd" fill-opacity="1" stroke="#000000" stroke-opacity="1" stroke-width="3.2"/>
<circle clip-path="url(#clip942)" cx="1455.9" cy="966.303" r="14.4" fill="#e69f00" fill-rule="evenodd" fill-opacity="1" stroke="#000000" stroke-opacity="1" stroke-width="3.2"/>
<circle clip-path="url(#clip942)" cx="1093.11" cy="555.121" r="14.4" fill="#e69f00" fill-rule="evenodd" fill-opacity="1" stroke="#000000" stroke-opacity="1" stroke-width="3.2"/>
<circle clip-path="url(#clip942)" cx="1525.96" cy="711.946" r="14.4" fill="#e69f00" fill-rule="evenodd" fill-opacity="1" stroke="#000000" stroke-opacity="1" stroke-width="3.2"/>
<circle clip-path="url(#clip942)" cx="654.631" cy="628.207" r="14.4" fill="#e69f00" fill-rule="evenodd" fill-opacity="1" stroke="#000000" stroke-opacity="1" stroke-width="3.2"/>
<circle clip-path="url(#clip942)" cx="962.64" cy="570.773" r="14.4" fill="#e69f00" fill-rule="evenodd" fill-opacity="1" stroke="#000000" stroke-opacity="1" stroke-width="3.2"/>
<circle clip-path="url(#clip942)" cx="877.954" cy="661.33" r="14.4" fill="#e69f00" fill-rule="evenodd" fill-opacity="1" stroke="#000000" stroke-opacity="1" stroke-width="3.2"/>
<circle clip-path="url(#clip942)" cx="1656.46" cy="884.942" r="14.4" fill="#e69f00" fill-rule="evenodd" fill-opacity="1" stroke="#000000" stroke-opacity="1" stroke-width="3.2"/>
<circle clip-path="url(#clip942)" cx="1546.55" cy="817.973" r="14.4" fill="#e69f00" fill-rule="evenodd" fill-opacity="1" stroke="#000000" stroke-opacity="1" stroke-width="3.2"/>
<circle clip-path="url(#clip942)" cx="1309.1" cy="1114.51" r="14.4" fill="#e69f00" fill-rule="evenodd" fill-opacity="1" stroke="#000000" stroke-opacity="1" stroke-width="3.2"/>
<circle clip-path="url(#clip942)" cx="968.394" cy="1056.84" r="14.4" fill="#e69f00" fill-rule="evenodd" fill-opacity="1" stroke="#000000" stroke-opacity="1" stroke-width="3.2"/>
<circle clip-path="url(#clip942)" cx="917.424" cy="350.951" r="14.4" fill="#e69f00" fill-rule="evenodd" fill-opacity="1" stroke="#000000" stroke-opacity="1" stroke-width="3.2"/>
<circle clip-path="url(#clip942)" cx="1766.43" cy="724.613" r="14.4" fill="#e69f00" fill-rule="evenodd" fill-opacity="1" stroke="#000000" stroke-opacity="1" stroke-width="3.2"/>
<circle clip-path="url(#clip942)" cx="1482.67" cy="683.239" r="14.4" fill="#e69f00" fill-rule="evenodd" fill-opacity="1" stroke="#000000" stroke-opacity="1" stroke-width="3.2"/>
<circle clip-path="url(#clip942)" cx="1474.76" cy="691.233" r="14.4" fill="#e69f00" fill-rule="evenodd" fill-opacity="1" stroke="#000000" stroke-opacity="1" stroke-width="3.2"/>
<circle clip-path="url(#clip942)" cx="680.557" cy="517.862" r="14.4" fill="#e69f00" fill-rule="evenodd" fill-opacity="1" stroke="#000000" stroke-opacity="1" stroke-width="3.2"/>
<circle clip-path="url(#clip942)" cx="1562.14" cy="599.922" r="14.4" fill="#e69f00" fill-rule="evenodd" fill-opacity="1" stroke="#000000" stroke-opacity="1" stroke-width="3.2"/>
<circle clip-path="url(#clip942)" cx="1534.55" cy="438.261" r="14.4" fill="#e69f00" fill-rule="evenodd" fill-opacity="1" stroke="#000000" stroke-opacity="1" stroke-width="3.2"/>
<circle clip-path="url(#clip942)" cx="1307.94" cy="697.423" r="14.4" fill="#e69f00" fill-rule="evenodd" fill-opacity="1" stroke="#000000" stroke-opacity="1" stroke-width="3.2"/>
<circle clip-path="url(#clip942)" cx="1071.09" cy="766.146" r="14.4" fill="#e69f00" fill-rule="evenodd" fill-opacity="1" stroke="#000000" stroke-opacity="1" stroke-width="3.2"/>
<circle clip-path="url(#clip942)" cx="2149.34" cy="1005.63" r="14.4" fill="#e69f00" fill-rule="evenodd" fill-opacity="1" stroke="#000000" stroke-opacity="1" stroke-width="3.2"/>
<circle clip-path="url(#clip942)" cx="1477.41" cy="638.159" r="14.4" fill="#e69f00" fill-rule="evenodd" fill-opacity="1" stroke="#000000" stroke-opacity="1" stroke-width="3.2"/>
<circle clip-path="url(#clip942)" cx="1326.83" cy="958.827" r="14.4" fill="#e69f00" fill-rule="evenodd" fill-opacity="1" stroke="#000000" stroke-opacity="1" stroke-width="3.2"/>
<circle clip-path="url(#clip942)" cx="1103.37" cy="698.258" r="14.4" fill="#e69f00" fill-rule="evenodd" fill-opacity="1" stroke="#000000" stroke-opacity="1" stroke-width="3.2"/>
<circle clip-path="url(#clip942)" cx="891.354" cy="334.62" r="14.4" fill="#e69f00" fill-rule="evenodd" fill-opacity="1" stroke="#000000" stroke-opacity="1" stroke-width="3.2"/>
<circle clip-path="url(#clip942)" cx="1539.99" cy="801.915" r="14.4" fill="#e69f00" fill-rule="evenodd" fill-opacity="1" stroke="#000000" stroke-opacity="1" stroke-width="3.2"/>
<circle clip-path="url(#clip942)" cx="1310.51" cy="623.226" r="14.4" fill="#e69f00" fill-rule="evenodd" fill-opacity="1" stroke="#000000" stroke-opacity="1" stroke-width="3.2"/>
<circle clip-path="url(#clip942)" cx="1566.21" cy="959.853" r="14.4" fill="#e69f00" fill-rule="evenodd" fill-opacity="1" stroke="#000000" stroke-opacity="1" stroke-width="3.2"/>
<circle clip-path="url(#clip942)" cx="2154.93" cy="848.36" r="14.4" fill="#e69f00" fill-rule="evenodd" fill-opacity="1" stroke="#000000" stroke-opacity="1" stroke-width="3.2"/>
<circle clip-path="url(#clip942)" cx="1256.68" cy="770.162" r="14.4" fill="#e69f00" fill-rule="evenodd" fill-opacity="1" stroke="#000000" stroke-opacity="1" stroke-width="3.2"/>
<circle clip-path="url(#clip942)" cx="1171.27" cy="644.698" r="14.4" fill="#e69f00" fill-rule="evenodd" fill-opacity="1" stroke="#000000" stroke-opacity="1" stroke-width="3.2"/>
<circle clip-path="url(#clip942)" cx="1372.15" cy="665.455" r="14.4" fill="#e69f00" fill-rule="evenodd" fill-opacity="1" stroke="#000000" stroke-opacity="1" stroke-width="3.2"/>
<circle clip-path="url(#clip942)" cx="2014.8" cy="951.964" r="14.4" fill="#e69f00" fill-rule="evenodd" fill-opacity="1" stroke="#000000" stroke-opacity="1" stroke-width="3.2"/>
<circle clip-path="url(#clip942)" cx="1468.37" cy="496.591" r="14.4" fill="#e69f00" fill-rule="evenodd" fill-opacity="1" stroke="#000000" stroke-opacity="1" stroke-width="3.2"/>
<circle clip-path="url(#clip942)" cx="1143.65" cy="465.106" r="14.4" fill="#e69f00" fill-rule="evenodd" fill-opacity="1" stroke="#000000" stroke-opacity="1" stroke-width="3.2"/>
<circle clip-path="url(#clip942)" cx="1352.63" cy="626.963" r="14.4" fill="#e69f00" fill-rule="evenodd" fill-opacity="1" stroke="#000000" stroke-opacity="1" stroke-width="3.2"/>
<circle clip-path="url(#clip942)" cx="1151.12" cy="595.215" r="14.4" fill="#e69f00" fill-rule="evenodd" fill-opacity="1" stroke="#000000" stroke-opacity="1" stroke-width="3.2"/>
<circle clip-path="url(#clip942)" cx="710.927" cy="315.387" r="14.4" fill="#e69f00" fill-rule="evenodd" fill-opacity="1" stroke="#000000" stroke-opacity="1" stroke-width="3.2"/>
<circle clip-path="url(#clip942)" cx="933.225" cy="553.783" r="14.4" fill="#e69f00" fill-rule="evenodd" fill-opacity="1" stroke="#000000" stroke-opacity="1" stroke-width="3.2"/>
<circle clip-path="url(#clip942)" cx="2067.48" cy="949.125" r="14.4" fill="#e69f00" fill-rule="evenodd" fill-opacity="1" stroke="#000000" stroke-opacity="1" stroke-width="3.2"/>
<circle clip-path="url(#clip942)" cx="2072.78" cy="996.437" r="14.4" fill="#e69f00" fill-rule="evenodd" fill-opacity="1" stroke="#000000" stroke-opacity="1" stroke-width="3.2"/>
<circle clip-path="url(#clip942)" cx="1953.83" cy="797.401" r="14.4" fill="#e69f00" fill-rule="evenodd" fill-opacity="1" stroke="#000000" stroke-opacity="1" stroke-width="3.2"/>
<circle clip-path="url(#clip942)" cx="1099.07" cy="648.456" r="14.4" fill="#e69f00" fill-rule="evenodd" fill-opacity="1" stroke="#000000" stroke-opacity="1" stroke-width="3.2"/>
<circle clip-path="url(#clip942)" cx="1238.92" cy="965.715" r="14.4" fill="#e69f00" fill-rule="evenodd" fill-opacity="1" stroke="#000000" stroke-opacity="1" stroke-width="3.2"/>
<circle clip-path="url(#clip942)" cx="1718.08" cy="1016.74" r="14.4" fill="#e69f00" fill-rule="evenodd" fill-opacity="1" stroke="#000000" stroke-opacity="1" stroke-width="3.2"/>
<circle clip-path="url(#clip942)" cx="570.394" cy="391.678" r="14.4" fill="#e69f00" fill-rule="evenodd" fill-opacity="1" stroke="#000000" stroke-opacity="1" stroke-width="3.2"/>
<circle clip-path="url(#clip942)" cx="1249.74" cy="526.295" r="14.4" fill="#e69f00" fill-rule="evenodd" fill-opacity="1" stroke="#000000" stroke-opacity="1" stroke-width="3.2"/>
<circle clip-path="url(#clip942)" cx="1674.58" cy="864.747" r="14.4" fill="#e69f00" fill-rule="evenodd" fill-opacity="1" stroke="#000000" stroke-opacity="1" stroke-width="3.2"/>
<circle clip-path="url(#clip942)" cx="952.478" cy="484.829" r="14.4" fill="#e69f00" fill-rule="evenodd" fill-opacity="1" stroke="#000000" stroke-opacity="1" stroke-width="3.2"/>
<circle clip-path="url(#clip942)" cx="915.707" cy="366.332" r="14.4" fill="#e69f00" fill-rule="evenodd" fill-opacity="1" stroke="#000000" stroke-opacity="1" stroke-width="3.2"/>
<circle clip-path="url(#clip942)" cx="1722.58" cy="729.391" r="14.4" fill="#e69f00" fill-rule="evenodd" fill-opacity="1" stroke="#000000" stroke-opacity="1" stroke-width="3.2"/>
<circle clip-path="url(#clip942)" cx="906.736" cy="576.234" r="14.4" fill="#e69f00" fill-rule="evenodd" fill-opacity="1" stroke="#000000" stroke-opacity="1" stroke-width="3.2"/>
<circle clip-path="url(#clip942)" cx="1381.21" cy="843.337" r="14.4" fill="#e69f00" fill-rule="evenodd" fill-opacity="1" stroke="#000000" stroke-opacity="1" stroke-width="3.2"/>
<circle clip-path="url(#clip942)" cx="1140.54" cy="687.942" r="14.4" fill="#e69f00" fill-rule="evenodd" fill-opacity="1" stroke="#000000" stroke-opacity="1" stroke-width="3.2"/>
<circle clip-path="url(#clip942)" cx="1364.21" cy="659.935" r="14.4" fill="#e69f00" fill-rule="evenodd" fill-opacity="1" stroke="#000000" stroke-opacity="1" stroke-width="3.2"/>
<circle clip-path="url(#clip942)" cx="1109.98" cy="664.003" r="14.4" fill="#e69f00" fill-rule="evenodd" fill-opacity="1" stroke="#000000" stroke-opacity="1" stroke-width="3.2"/>
<circle clip-path="url(#clip942)" cx="697.767" cy="568.129" r="14.4" fill="#e69f00" fill-rule="evenodd" fill-opacity="1" stroke="#000000" stroke-opacity="1" stroke-width="3.2"/>
<circle clip-path="url(#clip942)" cx="1391.35" cy="926.916" r="14.4" fill="#e69f00" fill-rule="evenodd" fill-opacity="1" stroke="#000000" stroke-opacity="1" stroke-width="3.2"/>
<path clip-path="url(#clip942)" d="M391.763 949.551 L570.394 949.551 L654.631 949.551 L680.557 944.382 L681.203 944.382 L681.715 862.879 L697.767 874.044 L710.927 874.044 L722.38 874.044 L741.411 958.728 L877.954 1086.72 L891.354 1115.2 L906.736 1115.2 L915.707 1115.2 L917.424 1115.2 L931.618 1115.2 L933.225 1115.2 L934.991 902.95 L940.066 892.571 L952.478 945.349 L954.351 945.349 L962.64 937.146 L968.394 937.146 L976.812 863.428 L1019.03 1048.53 L1027.35 1042.75 L1033.6 807.029 L1071.09 833.003 L1076.91 833.003 L1089.93 887.256 L1093.11 961.163 L1093.28 970.48 L1095.96 872.294 L1099.07 872.294 L1103.37 872.294 L1109.98 872.294 L1122.97 830.634 L1140.54 1000.93 L1143.65 1000.93 L1147.65 1000.93 L1151.12 1000.93 L1171.27 1000.93 L1183.72 1000.93 L1198.58 1197.84 L1238.92 1197.84 L1249.74 1197.84 L1256.68 1116.96 L1307.94 1116.96 L1309.1 1116.96 L1310.51 1116.96 L1311.84 1116.96 L1320.27 1179.67 L1326.83 1231.8 L1341.53 1231.8 L1352.63 1231.8 L1364.21 1231.8 L1372.15 1231.8 L1381.21 1098.64 L1391.35 1098.64 L1403.73 1098.64 L1455.9 1286.33 L1459.21 1046.82 L1468.37 1046.82 L1474.76 1046.82 L1477.41 1046.82 L1482.67 1193.67 L1496.14 1193.67 L1515.14 1074.48 L1525.96 1110.6 L1534.55 1110.6 L1539.99 983.759 L1543.62 983.759 L1546.55 983.759 L1551.96 1193.98 L1562.14 1335.35 L1566.21 1335.35 L1573.36 1335.35 L1609.18 1183.71 L1616.01 1403.65 L1656.46 1317.91 L1674.58 1446.2 L1689.75 1446.2 L1703.55 1268.64 L1718.08 1542.29 L1722.58 1542.29 L1725.42 1542.29 L1766.43 1350.47 L1787.81 1350.47 L1810.69 1293.34 L1814.47 1343.25 L1834.39 1285.14 L1839.98 1305.05 L1953.83 1532.28 L2010.67 1532.28 L2014.8 1532.28 L2067.48 1532.28 L2072.78 1532.28 L2139.56 1532.28 L2149.34 1532.28 L2154.93 1532.28 L2154.93 712.352 L2149.34 712.352 L2139.56 712.352 L2072.78 712.352 L2067.48 712.352 L2014.8 712.352 L2010.67 712.352 L1953.83 712.352 L1839.98 485.118 L1834.39 465.215 L1814.47 523.317 L1810.69 473.408 L1787.81 530.54 L1766.43 530.54 L1725.42 722.361 L1722.58 722.361 L1718.08 722.361 L1703.55 448.71 L1689.75 626.268 L1674.58 626.268 L1656.46 497.984 L1616.01 583.724 L1609.18 363.781 L1573.36 515.422 L1566.21 515.422 L1562.14 515.422 L1551.96 374.054 L1546.55 163.83 L1543.62 163.83 L1539.99 163.83 L1534.55 290.67 L1525.96 290.67 L1515.14 254.55 L1496.14 373.739 L1482.67 373.739 L1477.41 226.895 L1474.76 226.895 L1468.37 226.895 L1459.21 226.895 L1455.9 466.405 L1403.73 278.712 L1391.35 278.712 L1381.21 278.712 L1372.15 411.867 L1364.21 411.867 L1352.63 411.867 L1341.53 411.867 L1326.83 411.867 L1320.27 359.743 L1311.84 297.029 L1310.51 297.029 L1309.1 297.029 L1307.94 297.029 L1256.68 297.029 L1249.74 377.909 L1238.92 377.909 L1198.58 377.909 L1183.72 181.005 L1171.27 181.005 L1151.12 181.005 L1147.65 181.005 L1143.65 181.005 L1140.54 181.005 L1122.97 10.7051 L1109.98 52.3661 L1103.37 52.3661 L1099.07 52.3661 L1095.96 52.3661 L1093.28 150.551 L1093.11 141.234 L1089.93 67.3278 L1076.91 13.0742 L1071.09 13.0742 L1033.6 -12.8997 L1027.35 222.822 L1019.03 228.604 L976.812 43.4996 L968.394 117.218 L962.64 117.218 L954.351 125.421 L952.478 125.421 L940.066 72.6426 L934.991 83.0215 L933.225 295.275 L931.618 295.275 L917.424 295.275 L915.707 295.275 L906.736 295.275 L891.354 295.275 L877.954 266.788 L741.411 138.8 L722.38 54.116 L710.927 54.116 L697.767 54.116 L681.715 42.9509 L681.203 124.454 L680.557 124.454 L654.631 129.622 L570.394 129.622 L391.763 129.622  Z" fill="#56b4e9" fill-rule="evenodd" fill-opacity="0.5"/>
<polyline clip-path="url(#clip942)" style="stroke:#56b4e9; stroke-linecap:round; stroke-linejoin:round; stroke-width:4; stroke-opacity:1; fill:none" points="391.763,539.587 570.394,539.587 654.631,539.587 680.557,534.418 681.203,534.418 681.715,452.915 697.767,464.08 710.927,464.08 722.38,464.08 741.411,548.764 877.954,676.752 891.354,705.24 906.736,705.24 915.707,705.24 917.424,705.24 931.618,705.24 933.225,705.24 934.991,492.986 940.066,482.607 952.478,535.385 954.351,535.385 962.64,527.182 968.394,527.182 976.812,453.464 1019.03,638.568 1027.35,632.786 1033.6,397.065 1071.09,423.038 1076.91,423.038 1089.93,477.292 1093.11,551.199 1093.28,560.516 1095.96,462.33 1099.07,462.33 1103.37,462.33 1109.98,462.33 1122.97,420.669 1140.54,590.969 1143.65,590.969 1147.65,590.969 1151.12,590.969 1171.27,590.969 1183.72,590.969 1198.58,787.873 1238.92,787.873 1249.74,787.873 1256.68,706.993 1307.94,706.993 1309.1,706.993 1310.51,706.993 1311.84,706.993 1320.27,769.707 1326.83,821.831 1341.53,821.831 1352.63,821.831 1364.21,821.831 1372.15,821.831 1381.21,688.676 1391.35,688.676 1403.73,688.676 1455.9,876.369 1459.21,636.86 1468.37,636.86 1474.76,636.86 1477.41,636.86 1482.67,783.703 1496.14,783.703 1515.14,664.514 1525.96,700.634 1534.55,700.634 1539.99,573.795 1543.62,573.795 1546.55,573.795 1551.96,784.019 1562.14,925.386 1566.21,925.386 1573.36,925.386 1609.18,773.745 1616.01,993.688 1656.46,907.948 1674.58,1036.23 1689.75,1036.23 1703.55,858.675 1718.08,1132.33 1722.58,1132.33 1725.42,1132.33 1766.43,940.504 1787.81,940.504 1810.69,883.372 1814.47,933.281 1834.39,875.179 1839.98,895.082 1953.83,1122.32 2010.67,1122.32 2014.8,1122.32 2067.48,1122.32 2072.78,1122.32 2139.56,1122.32 2149.34,1122.32 2154.93,1122.32 "/>
<path clip-path="url(#clip940)" d="M1843.8 250.738 L2280.8 250.738 L2280.8 95.2176 L1843.8 95.2176  Z" fill="#ffffff" fill-rule="evenodd" fill-opacity="1"/>
<polyline clip-path="url(#clip940)" style="stroke:#000000; stroke-linecap:round; stroke-linejoin:round; stroke-width:4; stroke-opacity:1; fill:none" points="1843.8,250.738 2280.8,250.738 2280.8,95.2176 1843.8,95.2176 1843.8,250.738 "/>
<circle clip-path="url(#clip940)" cx="1939.75" cy="147.058" r="20.48" fill="#e69f00" fill-rule="evenodd" fill-opacity="1" stroke="#000000" stroke-opacity="1" stroke-width="4.55111"/>
<path clip-path="url(#clip940)" d="M2051.72 132.949 Q2046.62 132.949 2043.62 136.745 Q2040.63 140.541 2040.63 147.092 Q2040.63 153.62 2043.62 157.416 Q2046.62 161.213 2051.72 161.213 Q2056.81 161.213 2059.77 157.416 Q2062.76 153.62 2062.76 147.092 Q2062.76 140.541 2059.77 136.745 Q2056.81 132.949 2051.72 132.949 M2051.72 129.153 Q2058.99 129.153 2063.34 134.037 Q2067.69 138.898 2067.69 147.092 Q2067.69 155.264 2063.34 160.148 Q2058.99 165.009 2051.72 165.009 Q2044.43 165.009 2040.05 160.148 Q2035.7 155.287 2035.7 147.092 Q2035.7 138.898 2040.05 134.037 Q2044.43 129.153 2051.72 129.153 Z" fill="#000000" fill-rule="nonzero" fill-opacity="1" /><path clip-path="url(#clip940)" d="M2093.43 151.398 Q2093.43 146.699 2091.49 144.037 Q2089.56 141.352 2086.18 141.352 Q2082.8 141.352 2080.86 144.037 Q2078.94 146.699 2078.94 151.398 Q2078.94 156.097 2080.86 158.782 Q2082.8 161.444 2086.18 161.444 Q2089.56 161.444 2091.49 158.782 Q2093.43 156.097 2093.43 151.398 M2078.94 142.347 Q2080.28 140.032 2082.32 138.921 Q2084.38 137.787 2087.23 137.787 Q2091.95 137.787 2094.89 141.537 Q2097.85 145.287 2097.85 151.398 Q2097.85 157.509 2094.89 161.259 Q2091.95 165.009 2087.23 165.009 Q2084.38 165.009 2082.32 163.898 Q2080.28 162.763 2078.94 160.449 L2078.94 164.338 L2074.66 164.338 L2074.66 128.319 L2078.94 128.319 L2078.94 142.347 Z" fill="#000000" fill-rule="nonzero" fill-opacity="1" /><path clip-path="url(#clip940)" d="M2121.44 139.176 L2121.44 143.203 Q2119.63 142.277 2117.69 141.815 Q2115.74 141.352 2113.66 141.352 Q2110.49 141.352 2108.89 142.324 Q2107.32 143.296 2107.32 145.24 Q2107.32 146.722 2108.45 147.578 Q2109.59 148.412 2113.01 149.176 L2114.47 149.5 Q2119.01 150.472 2120.91 152.254 Q2122.83 154.014 2122.83 157.185 Q2122.83 160.796 2119.96 162.902 Q2117.11 165.009 2112.11 165.009 Q2110.03 165.009 2107.76 164.592 Q2105.51 164.199 2103.01 163.388 L2103.01 158.99 Q2105.37 160.217 2107.67 160.842 Q2109.96 161.444 2112.2 161.444 Q2115.21 161.444 2116.83 160.426 Q2118.45 159.384 2118.45 157.509 Q2118.45 155.773 2117.27 154.847 Q2116.11 153.921 2112.16 153.064 L2110.67 152.717 Q2106.72 151.884 2104.96 150.171 Q2103.2 148.435 2103.2 145.426 Q2103.2 141.768 2105.79 139.778 Q2108.38 137.787 2113.15 137.787 Q2115.51 137.787 2117.6 138.134 Q2119.68 138.481 2121.44 139.176 Z" fill="#000000" fill-rule="nonzero" fill-opacity="1" /><path clip-path="url(#clip940)" d="M2151.79 150.31 L2151.79 152.393 L2132.2 152.393 Q2132.48 156.791 2134.84 159.106 Q2137.23 161.398 2141.46 161.398 Q2143.92 161.398 2146.21 160.796 Q2148.52 160.194 2150.79 158.99 L2150.79 163.018 Q2148.5 163.99 2146.09 164.5 Q2143.68 165.009 2141.21 165.009 Q2135 165.009 2131.37 161.398 Q2127.76 157.787 2127.76 151.629 Q2127.76 145.264 2131.18 141.537 Q2134.63 137.787 2140.47 137.787 Q2145.7 137.787 2148.73 141.166 Q2151.79 144.523 2151.79 150.31 M2147.53 149.06 Q2147.48 145.565 2145.56 143.481 Q2143.66 141.398 2140.51 141.398 Q2136.95 141.398 2134.8 143.412 Q2132.67 145.426 2132.34 149.083 L2147.53 149.06 Z" fill="#000000" fill-rule="nonzero" fill-opacity="1" /><path clip-path="url(#clip940)" d="M2173.8 142.393 Q2173.08 141.977 2172.23 141.791 Q2171.39 141.583 2170.37 141.583 Q2166.76 141.583 2164.82 143.944 Q2162.9 146.282 2162.9 150.68 L2162.9 164.338 L2158.61 164.338 L2158.61 138.412 L2162.9 138.412 L2162.9 142.44 Q2164.24 140.078 2166.39 138.944 Q2168.54 137.787 2171.62 137.787 Q2172.06 137.787 2172.6 137.856 Q2173.13 137.903 2173.78 138.018 L2173.8 142.393 Z" fill="#000000" fill-rule="nonzero" fill-opacity="1" /><path clip-path="url(#clip940)" d="M2175.21 138.412 L2179.73 138.412 L2187.83 160.171 L2195.93 138.412 L2200.44 138.412 L2190.72 164.338 L2184.93 164.338 L2175.21 138.412 Z" fill="#000000" fill-rule="nonzero" fill-opacity="1" /><path clip-path="url(#clip940)" d="M2228.5 150.31 L2228.5 152.393 L2208.92 152.393 Q2209.19 156.791 2211.55 159.106 Q2213.94 161.398 2218.17 161.398 Q2220.63 161.398 2222.92 160.796 Q2225.23 160.194 2227.5 158.99 L2227.5 163.018 Q2225.21 163.99 2222.8 164.5 Q2220.4 165.009 2217.92 165.009 Q2211.72 165.009 2208.08 161.398 Q2204.47 157.787 2204.47 151.629 Q2204.47 145.264 2207.9 141.537 Q2211.35 137.787 2217.18 137.787 Q2222.41 137.787 2225.44 141.166 Q2228.5 144.523 2228.5 150.31 M2224.24 149.06 Q2224.19 145.565 2222.27 143.481 Q2220.37 141.398 2217.23 141.398 Q2213.66 141.398 2211.51 143.412 Q2209.38 145.426 2209.05 149.083 L2224.24 149.06 Z" fill="#000000" fill-rule="nonzero" fill-opacity="1" /><path clip-path="url(#clip940)" d="M2252.55 142.347 L2252.55 128.319 L2256.81 128.319 L2256.81 164.338 L2252.55 164.338 L2252.55 160.449 Q2251.21 162.763 2249.15 163.898 Q2247.11 165.009 2244.24 165.009 Q2239.54 165.009 2236.58 161.259 Q2233.64 157.509 2233.64 151.398 Q2233.64 145.287 2236.58 141.537 Q2239.54 137.787 2244.24 137.787 Q2247.11 137.787 2249.15 138.921 Q2251.21 140.032 2252.55 142.347 M2238.04 151.398 Q2238.04 156.097 2239.96 158.782 Q2241.9 161.444 2245.28 161.444 Q2248.66 161.444 2250.6 158.782 Q2252.55 156.097 2252.55 151.398 Q2252.55 146.699 2250.6 144.037 Q2248.66 141.352 2245.28 141.352 Q2241.9 141.352 2239.96 144.037 Q2238.04 146.699 2238.04 151.398 Z" fill="#000000" fill-rule="nonzero" fill-opacity="1" /><polyline clip-path="url(#clip940)" style="stroke:#56b4e9; stroke-linecap:round; stroke-linejoin:round; stroke-width:4; stroke-opacity:1; fill:none" points="1867.79,198.898 2011.71,198.898 "/>
<path clip-path="url(#clip940)" d="M2040.37 185.46 L2040.37 198.446 L2046.25 198.446 Q2049.52 198.446 2051.3 196.756 Q2053.08 195.067 2053.08 191.942 Q2053.08 188.84 2051.3 187.15 Q2049.52 185.46 2046.25 185.46 L2040.37 185.46 M2035.7 181.618 L2046.25 181.618 Q2052.06 181.618 2055.03 184.256 Q2058.01 186.872 2058.01 191.942 Q2058.01 197.057 2055.03 199.673 Q2052.06 202.289 2046.25 202.289 L2040.37 202.289 L2040.37 216.178 L2035.7 216.178 L2035.7 181.618 Z" fill="#000000" fill-rule="nonzero" fill-opacity="1" /><path clip-path="url(#clip940)" d="M2078.29 194.233 Q2077.57 193.817 2076.72 193.631 Q2075.88 193.423 2074.86 193.423 Q2071.25 193.423 2069.31 195.784 Q2067.39 198.122 2067.39 202.52 L2067.39 216.178 L2063.11 216.178 L2063.11 190.252 L2067.39 190.252 L2067.39 194.28 Q2068.73 191.918 2070.88 190.784 Q2073.04 189.627 2076.11 189.627 Q2076.55 189.627 2077.09 189.696 Q2077.62 189.743 2078.27 189.858 L2078.29 194.233 Z" fill="#000000" fill-rule="nonzero" fill-opacity="1" /><path clip-path="url(#clip940)" d="M2103.89 202.15 L2103.89 204.233 L2084.31 204.233 Q2084.59 208.631 2086.95 210.946 Q2089.33 213.238 2093.57 213.238 Q2096.02 213.238 2098.31 212.636 Q2100.63 212.034 2102.9 210.83 L2102.9 214.858 Q2100.61 215.83 2098.2 216.34 Q2095.79 216.849 2093.31 216.849 Q2087.11 216.849 2083.48 213.238 Q2079.86 209.627 2079.86 203.469 Q2079.86 197.104 2083.29 193.377 Q2086.74 189.627 2092.57 189.627 Q2097.8 189.627 2100.84 193.006 Q2103.89 196.363 2103.89 202.15 M2099.63 200.9 Q2099.59 197.405 2097.67 195.321 Q2095.77 193.238 2092.62 193.238 Q2089.05 193.238 2086.9 195.252 Q2084.77 197.266 2084.45 200.923 L2099.63 200.9 Z" fill="#000000" fill-rule="nonzero" fill-opacity="1" /><path clip-path="url(#clip940)" d="M2127.94 194.187 L2127.94 180.159 L2132.2 180.159 L2132.2 216.178 L2127.94 216.178 L2127.94 212.289 Q2126.6 214.603 2124.54 215.738 Q2122.5 216.849 2119.63 216.849 Q2114.93 216.849 2111.97 213.099 Q2109.03 209.349 2109.03 203.238 Q2109.03 197.127 2111.97 193.377 Q2114.93 189.627 2119.63 189.627 Q2122.5 189.627 2124.54 190.761 Q2126.6 191.872 2127.94 194.187 M2113.43 203.238 Q2113.43 207.937 2115.35 210.622 Q2117.3 213.284 2120.67 213.284 Q2124.05 213.284 2126 210.622 Q2127.94 207.937 2127.94 203.238 Q2127.94 198.539 2126 195.877 Q2124.05 193.192 2120.67 193.192 Q2117.3 193.192 2115.35 195.877 Q2113.43 198.539 2113.43 203.238 Z" fill="#000000" fill-rule="nonzero" fill-opacity="1" /><path clip-path="url(#clip940)" d="M2140.98 190.252 L2145.23 190.252 L2145.23 216.178 L2140.98 216.178 L2140.98 190.252 M2140.98 180.159 L2145.23 180.159 L2145.23 185.553 L2140.98 185.553 L2140.98 180.159 Z" fill="#000000" fill-rule="nonzero" fill-opacity="1" /><path clip-path="url(#clip940)" d="M2172.8 191.247 L2172.8 195.229 Q2171 194.233 2169.17 193.747 Q2167.36 193.238 2165.51 193.238 Q2161.37 193.238 2159.08 195.877 Q2156.79 198.492 2156.79 203.238 Q2156.79 207.983 2159.08 210.622 Q2161.37 213.238 2165.51 213.238 Q2167.36 213.238 2169.17 212.752 Q2171 212.242 2172.8 211.247 L2172.8 215.182 Q2171.02 216.016 2169.1 216.432 Q2167.2 216.849 2165.05 216.849 Q2159.19 216.849 2155.74 213.168 Q2152.3 209.488 2152.3 203.238 Q2152.3 196.895 2155.77 193.261 Q2159.26 189.627 2165.33 189.627 Q2167.29 189.627 2169.17 190.043 Q2171.04 190.437 2172.8 191.247 Z" fill="#000000" fill-rule="nonzero" fill-opacity="1" /><path clip-path="url(#clip940)" d="M2184.42 182.891 L2184.42 190.252 L2193.2 190.252 L2193.2 193.562 L2184.42 193.562 L2184.42 207.636 Q2184.42 210.807 2185.28 211.71 Q2186.16 212.613 2188.82 212.613 L2193.2 212.613 L2193.2 216.178 L2188.82 216.178 Q2183.89 216.178 2182.02 214.349 Q2180.14 212.497 2180.14 207.636 L2180.14 193.562 L2177.02 193.562 L2177.02 190.252 L2180.14 190.252 L2180.14 182.891 L2184.42 182.891 Z" fill="#000000" fill-rule="nonzero" fill-opacity="1" /><path clip-path="url(#clip940)" d="M2220.98 202.15 L2220.98 204.233 L2201.39 204.233 Q2201.67 208.631 2204.03 210.946 Q2206.42 213.238 2210.65 213.238 Q2213.1 213.238 2215.4 212.636 Q2217.71 212.034 2219.98 210.83 L2219.98 214.858 Q2217.69 215.83 2215.28 216.34 Q2212.87 216.849 2210.4 216.849 Q2204.19 216.849 2200.56 213.238 Q2196.95 209.627 2196.95 203.469 Q2196.95 197.104 2200.37 193.377 Q2203.82 189.627 2209.66 189.627 Q2214.89 189.627 2217.92 193.006 Q2220.98 196.363 2220.98 202.15 M2216.72 200.9 Q2216.67 197.405 2214.75 195.321 Q2212.85 193.238 2209.7 193.238 Q2206.14 193.238 2203.98 195.252 Q2201.85 197.266 2201.53 200.923 L2216.72 200.9 Z" fill="#000000" fill-rule="nonzero" fill-opacity="1" /><path clip-path="url(#clip940)" d="M2245.03 194.187 L2245.03 180.159 L2249.29 180.159 L2249.29 216.178 L2245.03 216.178 L2245.03 212.289 Q2243.68 214.603 2241.62 215.738 Q2239.59 216.849 2236.72 216.849 Q2232.02 216.849 2229.05 213.099 Q2226.11 209.349 2226.11 203.238 Q2226.11 197.127 2229.05 193.377 Q2232.02 189.627 2236.72 189.627 Q2239.59 189.627 2241.62 190.761 Q2243.68 191.872 2245.03 194.187 M2230.51 203.238 Q2230.51 207.937 2232.43 210.622 Q2234.38 213.284 2237.76 213.284 Q2241.14 213.284 2243.08 210.622 Q2245.03 207.937 2245.03 203.238 Q2245.03 198.539 2243.08 195.877 Q2241.14 193.192 2237.76 193.192 Q2234.38 193.192 2232.43 195.877 Q2230.51 198.539 2230.51 203.238 Z" fill="#000000" fill-rule="nonzero" fill-opacity="1" /></svg>
