<?xml version="1.0" encoding="UTF-8"?>
<svg xmlns="http://www.w3.org/2000/svg" xmlns:xlink="http://www.w3.org/1999/xlink" width="500pt" height="500pt" viewBox="0 0 500 500" version="1.1">
<g id="surface191">
<path style=" stroke:none;fill-rule:nonzero;fill:rgb(25.1%,38.8%,84.7%);fill-opacity:1;" d="M 305.035156 271.277344 C 305.035156 279.5625 298.320312 286.277344 290.035156 286.277344 C 281.75 286.277344 275.035156 279.5625 275.035156 271.277344 C 275.035156 262.992188 281.75 256.277344 290.035156 256.277344 C 298.320312 256.277344 305.035156 262.992188 305.035156 271.277344 "/>
<path style=" stroke:none;fill-rule:nonzero;fill:rgb(79.6%,23.5%,20%);fill-opacity:1;" d="M 201.558594 119.367188 C 201.558594 127.652344 194.84375 134.367188 186.558594 134.367188 C 178.273438 134.367188 171.558594 127.652344 171.558594 119.367188 C 171.558594 111.082031 178.273438 104.367188 186.558594 104.367188 C 194.84375 104.367188 201.558594 111.082031 201.558594 119.367188 "/>
<path style=" stroke:none;fill-rule:nonzero;fill:rgb(22%,59.6%,14.9%);fill-opacity:1;" d="M 140.804688 222.855469 C 140.804688 231.140625 134.089844 237.855469 125.804688 237.855469 C 117.523438 237.855469 110.804688 231.140625 110.804688 222.855469 C 110.804688 214.574219 117.523438 207.855469 125.804688 207.855469 C 134.089844 207.855469 140.804688 214.574219 140.804688 222.855469 "/>
<path style=" stroke:none;fill-rule:nonzero;fill:rgb(58.4%,34.5%,69.8%);fill-opacity:1;" d="M 283.804688 218.847656 C 283.804688 227.128906 277.089844 233.847656 268.804688 233.847656 C 260.519531 233.847656 253.804688 227.128906 253.804688 218.847656 C 253.804688 210.5625 260.519531 203.847656 268.804688 203.847656 C 277.089844 203.847656 283.804688 210.5625 283.804688 218.847656 "/>
<path style="fill:none;stroke-width:2;stroke-linecap:butt;stroke-linejoin:miter;stroke:rgb(50.196078%,0%,50.196078%);stroke-opacity:1;stroke-miterlimit:10;" d="M 73.097656 323.617188 L 80.320312 307.796875 L 87.539062 292.695312 L 94.757812 278.449219 L 101.980469 265.171875 L 109.199219 252.960938 L 116.421875 241.910156 L 123.640625 232.089844 L 130.863281 223.550781 L 138.082031 216.339844 L 145.304688 210.472656 L 152.523438 205.960938 L 159.742188 202.792969 L 166.964844 200.945312 L 174.183594 200.371094 L 181.40625 201.019531 L 188.625 202.816406 L 195.847656 205.683594 L 203.066406 209.519531 L 210.289062 214.222656 L 217.507812 219.675781 L 224.726562 225.753906 L 231.949219 232.324219 L 239.167969 239.25 L 246.390625 246.394531 L 253.609375 253.605469 L 260.832031 260.75 L 268.050781 267.675781 L 275.273438 274.246094 L 282.492188 280.324219 L 289.710938 285.777344 L 296.933594 290.480469 L 304.152344 294.316406 L 311.375 297.183594 L 318.59375 298.980469 L 325.816406 299.628906 L 333.035156 299.054688 L 340.257812 297.207031 L 347.476562 294.039062 L 354.695312 289.527344 L 361.917969 283.660156 L 369.136719 276.449219 L 376.359375 267.910156 L 383.578125 258.089844 L 390.800781 247.039062 L 398.019531 234.828125 L 405.242188 221.550781 L 412.460938 207.304688 L 419.679688 192.203125 L 426.902344 176.382812 "/>
<path style=" stroke:none;fill-rule:nonzero;fill:rgb(100%,0%,0%);fill-opacity:0.1;" d="M 74.710938 180.410156 L 75.683594 180.953125 L 77.179688 181.660156 L 81.882812 182.886719 L 82.917969 182.96875 L 85.175781 182.945312 L 85.785156 182.886719 L 88.007812 182.527344 L 89.648438 182.109375 L 91.304688 181.5625 L 92.933594 180.914062 L 93.269531 180.769531 L 93.328125 180.742188 L 93.34375 180.734375 L 93.902344 180.480469 L 95.359375 179.761719 L 97.585938 178.519531 L 99.5625 177.289062 L 100.109375 176.925781 L 102.609375 175.179688 L 102.6875 175.121094 L 103.203125 174.742188 L 106.023438 172.558594 L 109.796875 169.417969 L 111.046875 168.328125 L 112.507812 167.03125 L 113.558594 166.085938 L 115.308594 164.492188 L 115.480469 164.332031 L 116.777344 163.136719 L 116.792969 163.121094 L 117.273438 162.671875 L 117.765625 162.21875 L 117.980469 162.019531 L 118.4375 161.589844 L 119.898438 160.222656 L 122.121094 158.132812 L 123.875 156.488281 L 125.804688 154.683594 L 125.878906 154.613281 L 126.457031 154.078125 L 128.175781 152.488281 L 128.382812 152.296875 L 129.019531 151.714844 L 129.394531 151.371094 L 133.113281 148.03125 L 133.628906 147.582031 L 134.535156 146.789062 L 135.722656 145.769531 L 136.789062 144.863281 L 138.65625 143.320312 L 140.058594 142.1875 L 141.390625 141.140625 L 142.234375 140.492188 L 143.101562 139.832031 L 143.804688 139.308594 L 150.828125 134.558594 L 150.863281 134.539062 L 151.921875 133.90625 L 152.148438 133.769531 L 155.59375 131.882812 L 157.371094 131.003906 L 157.824219 130.792969 L 159.980469 129.84375 L 162.007812 129.046875 L 163.117188 128.652344 L 164.753906 128.121094 L 165.050781 128.03125 L 166.617188 127.589844 L 174.597656 126.269531 L 175.679688 126.210938 L 176.140625 126.191406 L 177.59375 126.171875 L 180.796875 126.308594 L 180.933594 126.320312 L 182.601562 126.496094 L 186.558594 127.179688 L 191.578125 128.574219 L 192.96875 129.066406 L 195.132812 129.914062 L 199.023438 131.695312 L 199.324219 131.84375 L 203.339844 134.042969 L 204.730469 134.878906 L 209.164062 137.789062 L 209.492188 138.019531 L 209.539062 138.054688 L 213.378906 140.886719 L 218.4375 144.980469 L 219.195312 145.628906 L 221.667969 147.792969 L 222.707031 148.722656 L 223.230469 149.203125 L 224.726562 150.578125 L 224.921875 150.757812 L 227.0625 152.78125 L 228.199219 153.875 L 229.207031 154.851562 L 230.746094 156.367188 L 237.027344 162.746094 L 237.824219 163.578125 L 238.804688 164.605469 L 238.878906 164.679688 L 238.96875 164.773438 L 242.253906 168.242188 L 242.929688 168.957031 L 245.417969 171.613281 L 245.996094 172.230469 L 246.167969 172.414062 L 248.011719 174.390625 L 248.125 174.511719 L 248.550781 174.96875 L 250.730469 177.304688 L 251.214844 177.824219 L 253.5 180.265625 L 258.757812 185.828125 L 259.570312 186.675781 L 266.894531 194.136719 L 268.804688 196.011719 L 268.957031 196.160156 L 269.542969 196.726562 L 271.863281 198.933594 L 274.34375 201.226562 L 275.785156 202.523438 L 283.800781 209.207031 L 288.757812 212.816406 L 290.035156 213.675781 L 295.175781 216.8125 L 296.855469 217.722656 L 300.71875 219.582031 L 301.226562 219.800781 L 301.230469 219.800781 L 302.808594 220.449219 L 303.675781 220.777344 L 307.765625 222.097656 L 310.347656 222.726562 L 312.238281 223.082031 L 315.023438 223.441406 L 315.609375 223.492188 L 315.84375 223.511719 L 316.015625 223.523438 L 316.136719 223.53125 L 316.207031 223.535156 L 316.285156 223.539062 L 316.609375 223.558594 L 316.828125 223.570312 L 317.78125 223.605469 L 319.226562 223.613281 L 320.195312 223.589844 L 320.90625 223.554688 L 322.011719 223.476562 L 327.5 222.617188 L 328.320312 222.417969 L 328.492188 222.378906 L 332.585938 221.121094 L 334.992188 220.179688 L 335.609375 219.917969 L 335.828125 219.820312 L 338.75 218.421875 L 339.996094 217.761719 L 343.535156 215.679688 L 344.429688 215.105469 L 345.179688 214.609375 L 345.667969 214.277344 L 346.722656 213.546875 L 346.90625 213.421875 L 347.203125 213.207031 L 347.640625 212.894531 L 350.71875 210.558594 L 355.859375 206.21875 L 357.386719 204.832031 L 358.765625 203.542969 L 359.980469 202.378906 L 362.375 200.015625 L 363.824219 198.542969 L 368.851562 193.214844 L 370.289062 191.640625 L 372.960938 188.65625 L 374.71875 186.664062 L 376.589844 184.523438 L 384.4375 175.472656 L 385.070312 174.746094 L 388.5 170.847656 L 392.5 166.4375 L 392.570312 166.363281 L 396 162.757812 L 396.53125 162.21875 L 402.171875 156.859375 L 402.429688 156.632812 L 402.566406 156.515625 L 405.554688 154.054688 L 407.179688 152.835938 L 410.40625 150.707031 L 411.40625 150.132812 L 413.582031 149.035156 L 414.195312 148.765625 L 418.179688 147.484375 L 418.777344 147.367188 L 418.855469 147.351562 L 420.324219 147.15625 L 420.324219 300.546875 L 418.855469 300.742188 L 418.777344 300.753906 L 418.179688 300.875 L 414.195312 302.15625 L 413.582031 302.425781 L 411.40625 303.519531 L 410.40625 304.09375 L 407.179688 306.222656 L 405.554688 307.441406 L 402.566406 309.90625 L 402.429688 310.019531 L 402.171875 310.25 L 396.53125 315.609375 L 396 316.148438 L 392.570312 319.75 L 392.5 319.828125 L 388.5 324.238281 L 385.070312 328.132812 L 384.4375 328.863281 L 376.589844 337.914062 L 374.71875 340.054688 L 372.960938 342.046875 L 370.289062 345.027344 L 368.851562 346.605469 L 363.824219 351.929688 L 362.375 353.40625 L 359.980469 355.769531 L 358.765625 356.929688 L 357.386719 358.21875 L 355.859375 359.609375 L 350.71875 363.949219 L 347.640625 366.285156 L 347.203125 366.597656 L 346.90625 366.808594 L 346.722656 366.9375 L 345.667969 367.667969 L 345.179688 368 L 344.429688 368.492188 L 343.535156 369.066406 L 339.996094 371.148438 L 338.75 371.8125 L 335.828125 373.210938 L 335.609375 373.304688 L 334.992188 373.570312 L 332.585938 374.511719 L 328.492188 375.765625 L 328.320312 375.808594 L 327.5 376.003906 L 322.011719 376.863281 L 320.90625 376.945312 L 320.195312 376.976562 L 319.226562 377.003906 L 317.78125 376.996094 L 316.828125 376.960938 L 316.609375 376.949219 L 316.285156 376.929688 L 316.207031 376.925781 L 316.136719 376.921875 L 316.015625 376.914062 L 315.84375 376.898438 L 315.609375 376.882812 L 315.023438 376.832031 L 312.238281 376.46875 L 310.347656 376.117188 L 307.765625 375.488281 L 303.675781 374.167969 L 302.808594 373.835938 L 301.230469 373.191406 L 301.226562 373.1875 L 300.71875 372.96875 L 296.855469 371.113281 L 295.175781 370.203125 L 290.035156 367.066406 L 288.757812 366.207031 L 283.800781 362.59375 L 275.785156 355.914062 L 274.34375 354.617188 L 271.863281 352.320312 L 269.542969 350.113281 L 268.957031 349.546875 L 268.804688 349.398438 L 266.894531 347.523438 L 259.570312 340.066406 L 258.757812 339.21875 L 253.5 333.65625 L 251.214844 331.214844 L 250.730469 330.695312 L 248.550781 328.359375 L 248.125 327.898438 L 248.011719 327.777344 L 246.167969 325.804688 L 245.996094 325.617188 L 245.417969 325.003906 L 242.929688 322.34375 L 242.253906 321.628906 L 238.96875 318.164062 L 238.878906 318.070312 L 238.804688 317.992188 L 237.824219 316.96875 L 237.027344 316.136719 L 230.746094 309.753906 L 229.207031 308.242188 L 228.199219 307.261719 L 227.0625 306.167969 L 224.921875 304.148438 L 224.726562 303.964844 L 223.230469 302.589844 L 222.707031 302.113281 L 221.667969 301.183594 L 219.195312 299.015625 L 218.4375 298.371094 L 213.378906 294.277344 L 209.539062 291.441406 L 209.492188 291.410156 L 209.164062 291.179688 L 204.730469 288.269531 L 203.339844 287.433594 L 199.324219 285.234375 L 199.023438 285.082031 L 195.132812 283.300781 L 192.96875 282.453125 L 191.578125 281.964844 L 186.558594 280.570312 L 182.601562 279.886719 L 180.933594 279.710938 L 180.796875 279.699219 L 177.59375 279.5625 L 176.140625 279.582031 L 175.679688 279.597656 L 174.597656 279.660156 L 166.617188 280.980469 L 165.050781 281.417969 L 164.753906 281.507812 L 163.117188 282.039062 L 162.007812 282.4375 L 159.980469 283.234375 L 157.824219 284.179688 L 157.371094 284.394531 L 155.59375 285.269531 L 152.148438 287.160156 L 151.921875 287.292969 L 150.863281 287.925781 L 150.828125 287.949219 L 143.804688 292.699219 L 143.101562 293.222656 L 142.234375 293.878906 L 141.390625 294.53125 L 140.058594 295.578125 L 138.65625 296.707031 L 136.789062 298.253906 L 135.722656 299.15625 L 134.535156 300.175781 L 133.628906 300.96875 L 133.113281 301.421875 L 129.394531 304.757812 L 129.019531 305.105469 L 128.382812 305.683594 L 128.175781 305.878906 L 126.457031 307.46875 L 125.878906 308.003906 L 125.804688 308.070312 L 123.875 309.875 L 122.121094 311.523438 L 119.898438 313.609375 L 118.4375 314.980469 L 117.980469 315.40625 L 117.765625 315.605469 L 117.273438 316.0625 L 116.792969 316.507812 L 116.777344 316.523438 L 115.480469 317.722656 L 115.308594 317.878906 L 113.558594 319.476562 L 112.507812 320.421875 L 111.046875 321.714844 L 109.796875 322.804688 L 106.023438 325.949219 L 103.203125 328.132812 L 102.6875 328.511719 L 100.109375 330.316406 L 99.5625 330.675781 L 97.585938 331.910156 L 95.359375 333.148438 L 93.902344 333.871094 L 93.34375 334.125 L 93.328125 334.132812 L 93.269531 334.15625 L 92.933594 334.304688 L 91.304688 334.953125 L 89.648438 335.496094 L 88.007812 335.917969 L 85.785156 336.277344 L 85.175781 336.332031 L 82.917969 336.359375 L 81.882812 336.273438 L 77.179688 335.046875 L 75.683594 334.34375 L 74.710938 333.796875 "/>
</g>
</svg>
