<?xml version="1.0" encoding="utf-8"?>
<svg xmlns="http://www.w3.org/2000/svg" xmlns:xlink="http://www.w3.org/1999/xlink" width="800" height="300" viewBox="0 0 3200 1200">
<defs>
  <clipPath id="clip120">
    <rect x="0" y="0" width="3200" height="1200"/>
  </clipPath>
</defs>
<path clip-path="url(#clip120)" d="M0 1200 L3200 1200 L3200 0 L0 0  Z" fill="#ffffff" fill-rule="evenodd" fill-opacity="1"/>
<defs>
  <clipPath id="clip121">
    <rect x="640" y="0" width="2241" height="1200"/>
  </clipPath>
</defs>
<path clip-path="url(#clip120)" d="M178.857 1110.43 L1552.18 1110.43 L1552.18 97.0121 L178.857 97.0121  Z" fill="#ffffff" fill-rule="evenodd" fill-opacity="1"/>
<defs>
  <clipPath id="clip122">
    <rect x="178" y="97" width="1374" height="1014"/>
  </clipPath>
</defs>
<polyline clip-path="url(#clip122)" style="stroke:#000000; stroke-linecap:round; stroke-linejoin:round; stroke-width:2; stroke-opacity:0.1; fill:none" points="356.247,1110.43 356.247,97.0121 "/>
<polyline clip-path="url(#clip122)" style="stroke:#000000; stroke-linecap:round; stroke-linejoin:round; stroke-width:2; stroke-opacity:0.1; fill:none" points="610.882,1110.43 610.882,97.0121 "/>
<polyline clip-path="url(#clip122)" style="stroke:#000000; stroke-linecap:round; stroke-linejoin:round; stroke-width:2; stroke-opacity:0.1; fill:none" points="865.517,1110.43 865.517,97.0121 "/>
<polyline clip-path="url(#clip122)" style="stroke:#000000; stroke-linecap:round; stroke-linejoin:round; stroke-width:2; stroke-opacity:0.1; fill:none" points="1120.15,1110.43 1120.15,97.0121 "/>
<polyline clip-path="url(#clip122)" style="stroke:#000000; stroke-linecap:round; stroke-linejoin:round; stroke-width:2; stroke-opacity:0.1; fill:none" points="1374.79,1110.43 1374.79,97.0121 "/>
<polyline clip-path="url(#clip120)" style="stroke:#000000; stroke-linecap:round; stroke-linejoin:round; stroke-width:4; stroke-opacity:1; fill:none" points="178.857,1110.43 1552.18,1110.43 "/>
<polyline clip-path="url(#clip120)" style="stroke:#000000; stroke-linecap:round; stroke-linejoin:round; stroke-width:4; stroke-opacity:1; fill:none" points="356.247,1110.43 356.247,1091.53 "/>
<polyline clip-path="url(#clip120)" style="stroke:#000000; stroke-linecap:round; stroke-linejoin:round; stroke-width:4; stroke-opacity:1; fill:none" points="610.882,1110.43 610.882,1091.53 "/>
<polyline clip-path="url(#clip120)" style="stroke:#000000; stroke-linecap:round; stroke-linejoin:round; stroke-width:4; stroke-opacity:1; fill:none" points="865.517,1110.43 865.517,1091.53 "/>
<polyline clip-path="url(#clip120)" style="stroke:#000000; stroke-linecap:round; stroke-linejoin:round; stroke-width:4; stroke-opacity:1; fill:none" points="1120.15,1110.43 1120.15,1091.53 "/>
<polyline clip-path="url(#clip120)" style="stroke:#000000; stroke-linecap:round; stroke-linejoin:round; stroke-width:4; stroke-opacity:1; fill:none" points="1374.79,1110.43 1374.79,1091.53 "/>
<path clip-path="url(#clip120)" d="M269.659 1141.26 L269.659 1176.81 L266.707 1176.81 L266.707 1141.26 L269.659 1141.26 Z" fill="#000000" fill-rule="nonzero" fill-opacity="1" /><path clip-path="url(#clip120)" d="M297.072 1144.5 L297.072 1148.2 Q295.301 1146.55 293.287 1145.74 Q291.29 1144.92 289.033 1144.92 Q284.589 1144.92 282.228 1147.65 Q279.867 1150.36 279.867 1155.49 Q279.867 1160.62 282.228 1163.34 Q284.589 1166.05 289.033 1166.05 Q291.29 1166.05 293.287 1165.23 Q295.301 1164.42 297.072 1162.77 L297.072 1166.43 Q295.231 1167.68 293.165 1168.31 Q291.117 1168.93 288.825 1168.93 Q282.94 1168.93 279.554 1165.34 Q276.169 1161.73 276.169 1155.49 Q276.169 1149.24 279.554 1145.65 Q282.94 1142.04 288.825 1142.04 Q291.151 1142.04 293.2 1142.66 Q295.266 1143.27 297.072 1144.5 Z" fill="#000000" fill-rule="nonzero" fill-opacity="1" /><path clip-path="url(#clip120)" d="M306.464 1141.26 L306.464 1176.81 L303.513 1176.81 L303.513 1141.26 L306.464 1141.26 Z" fill="#000000" fill-rule="nonzero" fill-opacity="1" /><path clip-path="url(#clip120)" d="M328.235 1157.54 Q328.356 1158.83 329.45 1160.91 Q330.735 1163.32 333.165 1164.68 Q335.544 1166 338.113 1166.01 L350.214 1166.01 L350.214 1168.78 L338.113 1168.78 Q334.78 1168.78 331.689 1167.06 Q328.617 1165.34 326.967 1162.28 Q325.318 1159.23 325.318 1155.98 Q325.318 1152.77 326.967 1149.71 Q328.617 1146.66 331.689 1144.92 Q334.78 1143.18 338.113 1143.18 L350.214 1143.18 L350.214 1145.95 L338.113 1145.95 Q335.544 1145.96 333.165 1147.3 Q330.752 1148.67 329.45 1151.07 Q328.339 1153.15 328.183 1154.76 L350.214 1154.76 L350.214 1157.54 L328.235 1157.54 Z" fill="#000000" fill-rule="nonzero" fill-opacity="1" /><path clip-path="url(#clip120)" d="M367.609 1141.41 L374.97 1141.41 L374.97 1143.9 L370.804 1143.9 L370.804 1170.63 L374.97 1170.63 L374.97 1173.12 L367.609 1173.12 L367.609 1141.41 Z" fill="#000000" fill-rule="nonzero" fill-opacity="1" /><path clip-path="url(#clip120)" d="M385.248 1165.48 L397.488 1165.48 L397.488 1168.43 L381.029 1168.43 L381.029 1165.48 Q383.026 1163.41 386.463 1159.94 Q389.918 1156.45 390.804 1155.44 Q392.488 1153.55 393.147 1152.25 Q393.825 1150.93 393.825 1149.66 Q393.825 1147.59 392.366 1146.29 Q390.925 1144.99 388.599 1144.99 Q386.95 1144.99 385.109 1145.56 Q383.286 1146.14 381.203 1147.3 L381.203 1143.76 Q383.321 1142.91 385.161 1142.47 Q387.002 1142.04 388.529 1142.04 Q392.557 1142.04 394.953 1144.05 Q397.349 1146.07 397.349 1149.43 Q397.349 1151.03 396.741 1152.47 Q396.151 1153.9 394.571 1155.84 Q394.137 1156.34 391.811 1158.76 Q389.484 1161.15 385.248 1165.48 Z" fill="#000000" fill-rule="nonzero" fill-opacity="1" /><path clip-path="url(#clip120)" d="M405.213 1164.02 L408.877 1164.02 L408.877 1167 L406.029 1172.56 L403.79 1172.56 L405.213 1167 L405.213 1164.02 Z" fill="#000000" fill-rule="nonzero" fill-opacity="1" /><path clip-path="url(#clip120)" d="M426.776 1154.45 Q429.293 1154.99 430.699 1156.69 Q432.123 1158.39 432.123 1160.89 Q432.123 1164.73 429.484 1166.83 Q426.845 1168.93 421.984 1168.93 Q420.352 1168.93 418.616 1168.6 Q416.897 1168.29 415.057 1167.65 L415.057 1164.26 Q416.515 1165.11 418.251 1165.55 Q419.988 1165.98 421.88 1165.98 Q425.179 1165.98 426.897 1164.68 Q428.633 1163.38 428.633 1160.89 Q428.633 1158.6 427.019 1157.32 Q425.422 1156.01 422.557 1156.01 L419.536 1156.01 L419.536 1153.13 L422.696 1153.13 Q425.283 1153.13 426.654 1152.11 Q428.026 1151.07 428.026 1149.12 Q428.026 1147.13 426.602 1146.07 Q425.196 1144.99 422.557 1144.99 Q421.116 1144.99 419.467 1145.3 Q417.817 1145.62 415.838 1146.28 L415.838 1143.15 Q417.835 1142.59 419.571 1142.32 Q421.324 1142.04 422.87 1142.04 Q426.863 1142.04 429.189 1143.86 Q431.515 1145.67 431.515 1148.76 Q431.515 1150.91 430.283 1152.4 Q429.05 1153.88 426.776 1154.45 Z" fill="#000000" fill-rule="nonzero" fill-opacity="1" /><path clip-path="url(#clip120)" d="M445.786 1141.41 L445.786 1173.12 L438.425 1173.12 L438.425 1170.63 L442.574 1170.63 L442.574 1143.9 L438.425 1143.9 L438.425 1141.41 L445.786 1141.41 Z" fill="#000000" fill-rule="nonzero" fill-opacity="1" /><path clip-path="url(#clip120)" d="M524.294 1141.26 L524.294 1176.81 L521.343 1176.81 L521.343 1141.26 L524.294 1141.26 Z" fill="#000000" fill-rule="nonzero" fill-opacity="1" /><path clip-path="url(#clip120)" d="M551.707 1144.5 L551.707 1148.2 Q549.936 1146.55 547.922 1145.74 Q545.926 1144.92 543.669 1144.92 Q539.224 1144.92 536.863 1147.65 Q534.502 1150.36 534.502 1155.49 Q534.502 1160.62 536.863 1163.34 Q539.224 1166.05 543.669 1166.05 Q545.926 1166.05 547.922 1165.23 Q549.936 1164.42 551.707 1162.77 L551.707 1166.43 Q549.867 1167.68 547.801 1168.31 Q545.752 1168.93 543.46 1168.93 Q537.575 1168.93 534.19 1165.34 Q530.804 1161.73 530.804 1155.49 Q530.804 1149.24 534.19 1145.65 Q537.575 1142.04 543.46 1142.04 Q545.787 1142.04 547.835 1142.66 Q549.901 1143.27 551.707 1144.5 Z" fill="#000000" fill-rule="nonzero" fill-opacity="1" /><path clip-path="url(#clip120)" d="M561.099 1141.26 L561.099 1176.81 L558.148 1176.81 L558.148 1141.26 L561.099 1141.26 Z" fill="#000000" fill-rule="nonzero" fill-opacity="1" /><path clip-path="url(#clip120)" d="M582.87 1157.54 Q582.991 1158.83 584.085 1160.91 Q585.37 1163.32 587.8 1164.68 Q590.179 1166 592.748 1166.01 L604.849 1166.01 L604.849 1168.78 L592.748 1168.78 Q589.415 1168.78 586.325 1167.06 Q583.252 1165.34 581.603 1162.28 Q579.953 1159.23 579.953 1155.98 Q579.953 1152.77 581.603 1149.71 Q583.252 1146.66 586.325 1144.92 Q589.415 1143.18 592.748 1143.18 L604.849 1143.18 L604.849 1145.95 L592.748 1145.95 Q590.179 1145.96 587.8 1147.3 Q585.387 1148.67 584.085 1151.07 Q582.974 1153.15 582.818 1154.76 L604.849 1154.76 L604.849 1157.54 L582.87 1157.54 Z" fill="#000000" fill-rule="nonzero" fill-opacity="1" /><path clip-path="url(#clip120)" d="M622.245 1141.41 L629.606 1141.41 L629.606 1143.9 L625.439 1143.9 L625.439 1170.63 L629.606 1170.63 L629.606 1173.12 L622.245 1173.12 L622.245 1141.41 Z" fill="#000000" fill-rule="nonzero" fill-opacity="1" /><path clip-path="url(#clip120)" d="M646.498 1145.56 L637.644 1159.4 L646.498 1159.4 L646.498 1145.56 M645.578 1142.51 L649.988 1142.51 L649.988 1159.4 L653.686 1159.4 L653.686 1162.32 L649.988 1162.32 L649.988 1168.43 L646.498 1168.43 L646.498 1162.32 L634.797 1162.32 L634.797 1158.93 L645.578 1142.51 Z" fill="#000000" fill-rule="nonzero" fill-opacity="1" /><path clip-path="url(#clip120)" d="M659.849 1164.02 L663.512 1164.02 L663.512 1167 L660.665 1172.56 L658.425 1172.56 L659.849 1167 L659.849 1164.02 Z" fill="#000000" fill-rule="nonzero" fill-opacity="1" /><path clip-path="url(#clip120)" d="M670.821 1142.51 L684.588 1142.51 L684.588 1145.46 L674.033 1145.46 L674.033 1151.81 Q674.797 1151.55 675.56 1151.43 Q676.324 1151.29 677.088 1151.29 Q681.428 1151.29 683.963 1153.67 Q686.498 1156.05 686.498 1160.11 Q686.498 1164.3 683.894 1166.62 Q681.29 1168.93 676.55 1168.93 Q674.918 1168.93 673.217 1168.65 Q671.533 1168.38 669.727 1167.82 L669.727 1164.3 Q671.29 1165.15 672.956 1165.56 Q674.623 1165.98 676.481 1165.98 Q679.484 1165.98 681.237 1164.4 Q682.991 1162.82 682.991 1160.11 Q682.991 1157.4 681.237 1155.82 Q679.484 1154.24 676.481 1154.24 Q675.074 1154.24 673.668 1154.56 Q672.279 1154.87 670.821 1155.53 L670.821 1142.51 Z" fill="#000000" fill-rule="nonzero" fill-opacity="1" /><path clip-path="url(#clip120)" d="M700.421 1141.41 L700.421 1173.12 L693.06 1173.12 L693.06 1170.63 L697.21 1170.63 L697.21 1143.9 L693.06 1143.9 L693.06 1141.41 L700.421 1141.41 Z" fill="#000000" fill-rule="nonzero" fill-opacity="1" /><path clip-path="url(#clip120)" d="M778.929 1141.26 L778.929 1176.81 L775.978 1176.81 L775.978 1141.26 L778.929 1141.26 Z" fill="#000000" fill-rule="nonzero" fill-opacity="1" /><path clip-path="url(#clip120)" d="M806.342 1144.5 L806.342 1148.2 Q804.571 1146.55 802.558 1145.74 Q800.561 1144.92 798.304 1144.92 Q793.86 1144.92 791.499 1147.65 Q789.138 1150.36 789.138 1155.49 Q789.138 1160.62 791.499 1163.34 Q793.86 1166.05 798.304 1166.05 Q800.561 1166.05 802.558 1165.23 Q804.571 1164.42 806.342 1162.77 L806.342 1166.43 Q804.502 1167.68 802.436 1168.31 Q800.387 1168.93 798.096 1168.93 Q792.21 1168.93 788.825 1165.34 Q785.44 1161.73 785.44 1155.49 Q785.44 1149.24 788.825 1145.65 Q792.21 1142.04 798.096 1142.04 Q800.422 1142.04 802.471 1142.66 Q804.537 1143.27 806.342 1144.5 Z" fill="#000000" fill-rule="nonzero" fill-opacity="1" /><path clip-path="url(#clip120)" d="M815.735 1141.26 L815.735 1176.81 L812.783 1176.81 L812.783 1141.26 L815.735 1141.26 Z" fill="#000000" fill-rule="nonzero" fill-opacity="1" /><path clip-path="url(#clip120)" d="M837.505 1157.54 Q837.627 1158.83 838.721 1160.91 Q840.005 1163.32 842.436 1164.68 Q844.814 1166 847.384 1166.01 L859.484 1166.01 L859.484 1168.78 L847.384 1168.78 Q844.05 1168.78 840.96 1167.06 Q837.887 1165.34 836.238 1162.28 Q834.589 1159.23 834.589 1155.98 Q834.589 1152.77 836.238 1149.71 Q837.887 1146.66 840.96 1144.92 Q844.05 1143.18 847.384 1143.18 L859.484 1143.18 L859.484 1145.95 L847.384 1145.95 Q844.814 1145.96 842.436 1147.3 Q840.023 1148.67 838.721 1151.07 Q837.609 1153.15 837.453 1154.76 L859.484 1154.76 L859.484 1157.54 L837.505 1157.54 Z" fill="#000000" fill-rule="nonzero" fill-opacity="1" /><path clip-path="url(#clip120)" d="M876.88 1141.41 L884.241 1141.41 L884.241 1143.9 L880.075 1143.9 L880.075 1170.63 L884.241 1170.63 L884.241 1173.12 L876.88 1173.12 L876.88 1141.41 Z" fill="#000000" fill-rule="nonzero" fill-opacity="1" /><path clip-path="url(#clip120)" d="M899.432 1154.07 Q897.071 1154.07 895.682 1155.68 Q894.311 1157.3 894.311 1160.11 Q894.311 1162.91 895.682 1164.54 Q897.071 1166.15 899.432 1166.15 Q901.793 1166.15 903.165 1164.54 Q904.554 1162.91 904.554 1160.11 Q904.554 1157.3 903.165 1155.68 Q901.793 1154.07 899.432 1154.07 M906.394 1143.08 L906.394 1146.28 Q905.074 1145.65 903.72 1145.32 Q902.383 1144.99 901.064 1144.99 Q897.592 1144.99 895.752 1147.33 Q893.929 1149.68 893.668 1154.42 Q894.693 1152.91 896.238 1152.11 Q897.783 1151.29 899.64 1151.29 Q903.547 1151.29 905.804 1153.67 Q908.078 1156.03 908.078 1160.11 Q908.078 1164.1 905.717 1166.52 Q903.356 1168.93 899.432 1168.93 Q894.936 1168.93 892.557 1165.49 Q890.179 1162.04 890.179 1155.49 Q890.179 1149.35 893.095 1145.7 Q896.012 1142.04 900.925 1142.04 Q902.245 1142.04 903.581 1142.3 Q904.936 1142.56 906.394 1143.08 Z" fill="#000000" fill-rule="nonzero" fill-opacity="1" /><path clip-path="url(#clip120)" d="M914.484 1164.02 L918.147 1164.02 L918.147 1167 L915.3 1172.56 L913.06 1172.56 L914.484 1167 L914.484 1164.02 Z" fill="#000000" fill-rule="nonzero" fill-opacity="1" /><path clip-path="url(#clip120)" d="M924.536 1142.51 L941.203 1142.51 L941.203 1144 L931.793 1168.43 L928.13 1168.43 L936.984 1145.46 L924.536 1145.46 L924.536 1142.51 Z" fill="#000000" fill-rule="nonzero" fill-opacity="1" /><path clip-path="url(#clip120)" d="M955.057 1141.41 L955.057 1173.12 L947.696 1173.12 L947.696 1170.63 L951.845 1170.63 L951.845 1143.9 L947.696 1143.9 L947.696 1141.41 L955.057 1141.41 Z" fill="#000000" fill-rule="nonzero" fill-opacity="1" /><path clip-path="url(#clip120)" d="M1033.56 1141.26 L1033.56 1176.81 L1030.61 1176.81 L1030.61 1141.26 L1033.56 1141.26 Z" fill="#000000" fill-rule="nonzero" fill-opacity="1" /><path clip-path="url(#clip120)" d="M1060.98 1144.5 L1060.98 1148.2 Q1059.21 1146.55 1057.19 1145.74 Q1055.2 1144.92 1052.94 1144.92 Q1048.5 1144.92 1046.13 1147.65 Q1043.77 1150.36 1043.77 1155.49 Q1043.77 1160.62 1046.13 1163.34 Q1048.5 1166.05 1052.94 1166.05 Q1055.2 1166.05 1057.19 1165.23 Q1059.21 1164.42 1060.98 1162.77 L1060.98 1166.43 Q1059.14 1167.68 1057.07 1168.31 Q1055.02 1168.93 1052.73 1168.93 Q1046.85 1168.93 1043.46 1165.34 Q1040.07 1161.73 1040.07 1155.49 Q1040.07 1149.24 1043.46 1145.65 Q1046.85 1142.04 1052.73 1142.04 Q1055.06 1142.04 1057.11 1142.66 Q1059.17 1143.27 1060.98 1144.5 Z" fill="#000000" fill-rule="nonzero" fill-opacity="1" /><path clip-path="url(#clip120)" d="M1070.37 1141.26 L1070.37 1176.81 L1067.42 1176.81 L1067.42 1141.26 L1070.37 1141.26 Z" fill="#000000" fill-rule="nonzero" fill-opacity="1" /><path clip-path="url(#clip120)" d="M1092.14 1157.54 Q1092.26 1158.83 1093.36 1160.91 Q1094.64 1163.32 1097.07 1164.68 Q1099.45 1166 1102.02 1166.01 L1114.12 1166.01 L1114.12 1168.78 L1102.02 1168.78 Q1098.69 1168.78 1095.6 1167.06 Q1092.52 1165.34 1090.87 1162.28 Q1089.22 1159.23 1089.22 1155.98 Q1089.22 1152.77 1090.87 1149.71 Q1092.52 1146.66 1095.6 1144.92 Q1098.69 1143.18 1102.02 1143.18 L1114.12 1143.18 L1114.12 1145.95 L1102.02 1145.95 Q1099.45 1145.96 1097.07 1147.3 Q1094.66 1148.67 1093.36 1151.07 Q1092.24 1153.15 1092.09 1154.76 L1114.12 1154.76 L1114.12 1157.54 L1092.14 1157.54 Z" fill="#000000" fill-rule="nonzero" fill-opacity="1" /><path clip-path="url(#clip120)" d="M1131.52 1141.41 L1138.88 1141.41 L1138.88 1143.9 L1134.71 1143.9 L1134.71 1170.63 L1138.88 1170.63 L1138.88 1173.12 L1131.52 1173.12 L1131.52 1141.41 Z" fill="#000000" fill-rule="nonzero" fill-opacity="1" /><path clip-path="url(#clip120)" d="M1153.63 1156.12 Q1151.13 1156.12 1149.69 1157.46 Q1148.27 1158.79 1148.27 1161.14 Q1148.27 1163.48 1149.69 1164.82 Q1151.13 1166.15 1153.63 1166.15 Q1156.13 1166.15 1157.57 1164.82 Q1159.02 1163.46 1159.02 1161.14 Q1159.02 1158.79 1157.57 1157.46 Q1156.15 1156.12 1153.63 1156.12 M1150.13 1154.63 Q1147.87 1154.07 1146.6 1152.53 Q1145.35 1150.98 1145.35 1148.76 Q1145.35 1145.65 1147.56 1143.84 Q1149.78 1142.04 1153.63 1142.04 Q1157.5 1142.04 1159.71 1143.84 Q1161.91 1145.65 1161.91 1148.76 Q1161.91 1150.98 1160.65 1152.53 Q1159.4 1154.07 1157.16 1154.63 Q1159.69 1155.22 1161.1 1156.93 Q1162.52 1158.65 1162.52 1161.14 Q1162.52 1164.9 1160.21 1166.92 Q1157.92 1168.93 1153.63 1168.93 Q1149.35 1168.93 1147.04 1166.92 Q1144.74 1164.9 1144.74 1161.14 Q1144.74 1158.65 1146.17 1156.93 Q1147.59 1155.22 1150.13 1154.63 M1148.84 1149.09 Q1148.84 1151.1 1150.09 1152.23 Q1151.36 1153.36 1153.63 1153.36 Q1155.89 1153.36 1157.16 1152.23 Q1158.44 1151.1 1158.44 1149.09 Q1158.44 1147.07 1157.16 1145.95 Q1155.89 1144.82 1153.63 1144.82 Q1151.36 1144.82 1150.09 1145.95 Q1148.84 1147.07 1148.84 1149.09 Z" fill="#000000" fill-rule="nonzero" fill-opacity="1" /><path clip-path="url(#clip120)" d="M1169.12 1164.02 L1172.78 1164.02 L1172.78 1167 L1169.94 1172.56 L1167.7 1172.56 L1169.12 1167 L1169.12 1164.02 Z" fill="#000000" fill-rule="nonzero" fill-opacity="1" /><path clip-path="url(#clip120)" d="M1180.16 1167.89 L1180.16 1164.7 Q1181.48 1165.32 1182.83 1165.65 Q1184.19 1165.98 1185.49 1165.98 Q1188.96 1165.98 1190.79 1163.65 Q1192.63 1161.31 1192.89 1156.55 Q1191.88 1158.05 1190.33 1158.84 Q1188.79 1159.64 1186.91 1159.64 Q1183.03 1159.64 1180.75 1157.3 Q1178.49 1154.94 1178.49 1150.86 Q1178.49 1146.87 1180.86 1144.45 Q1183.22 1142.04 1187.14 1142.04 Q1191.64 1142.04 1194 1145.49 Q1196.38 1148.93 1196.38 1155.49 Q1196.38 1161.62 1193.46 1165.29 Q1190.56 1168.93 1185.65 1168.93 Q1184.33 1168.93 1182.97 1168.67 Q1181.62 1168.41 1180.16 1167.89 M1187.14 1156.9 Q1189.5 1156.9 1190.87 1155.29 Q1192.26 1153.67 1192.26 1150.86 Q1192.26 1148.06 1190.87 1146.45 Q1189.5 1144.82 1187.14 1144.82 Q1184.78 1144.82 1183.39 1146.45 Q1182.02 1148.06 1182.02 1150.86 Q1182.02 1153.67 1183.39 1155.29 Q1184.78 1156.9 1187.14 1156.9 Z" fill="#000000" fill-rule="nonzero" fill-opacity="1" /><path clip-path="url(#clip120)" d="M1209.69 1141.41 L1209.69 1173.12 L1202.33 1173.12 L1202.33 1170.63 L1206.48 1170.63 L1206.48 1143.9 L1202.33 1143.9 L1202.33 1141.41 L1209.69 1141.41 Z" fill="#000000" fill-rule="nonzero" fill-opacity="1" /><path clip-path="url(#clip120)" d="M1293.85 1141.26 L1293.85 1176.81 L1290.9 1176.81 L1290.9 1141.26 L1293.85 1141.26 Z" fill="#000000" fill-rule="nonzero" fill-opacity="1" /><path clip-path="url(#clip120)" d="M1321.26 1144.5 L1321.26 1148.2 Q1319.49 1146.55 1317.48 1145.74 Q1315.48 1144.92 1313.23 1144.92 Q1308.78 1144.92 1306.42 1147.65 Q1304.06 1150.36 1304.06 1155.49 Q1304.06 1160.62 1306.42 1163.34 Q1308.78 1166.05 1313.23 1166.05 Q1315.48 1166.05 1317.48 1165.23 Q1319.49 1164.42 1321.26 1162.77 L1321.26 1166.43 Q1319.42 1167.68 1317.36 1168.31 Q1315.31 1168.93 1313.02 1168.93 Q1307.13 1168.93 1303.75 1165.34 Q1300.36 1161.73 1300.36 1155.49 Q1300.36 1149.24 1303.75 1145.65 Q1307.13 1142.04 1313.02 1142.04 Q1315.34 1142.04 1317.39 1142.66 Q1319.46 1143.27 1321.26 1144.5 Z" fill="#000000" fill-rule="nonzero" fill-opacity="1" /><path clip-path="url(#clip120)" d="M1330.66 1141.26 L1330.66 1176.81 L1327.7 1176.81 L1327.7 1141.26 L1330.66 1141.26 Z" fill="#000000" fill-rule="nonzero" fill-opacity="1" /><path clip-path="url(#clip120)" d="M1352.43 1157.54 Q1352.55 1158.83 1353.64 1160.91 Q1354.93 1163.32 1357.36 1164.68 Q1359.74 1166 1362.31 1166.01 L1374.41 1166.01 L1374.41 1168.78 L1362.31 1168.78 Q1358.97 1168.78 1355.88 1167.06 Q1352.81 1165.34 1351.16 1162.28 Q1349.51 1159.23 1349.51 1155.98 Q1349.51 1152.77 1351.16 1149.71 Q1352.81 1146.66 1355.88 1144.92 Q1358.97 1143.18 1362.31 1143.18 L1374.41 1143.18 L1374.41 1145.95 L1362.31 1145.95 Q1359.74 1145.96 1357.36 1147.3 Q1354.94 1148.67 1353.64 1151.07 Q1352.53 1153.15 1352.37 1154.76 L1374.41 1154.76 L1374.41 1157.54 L1352.43 1157.54 Z" fill="#000000" fill-rule="nonzero" fill-opacity="1" /><path clip-path="url(#clip120)" d="M1391.8 1141.41 L1399.16 1141.41 L1399.16 1143.9 L1395 1143.9 L1395 1170.63 L1399.16 1170.63 L1399.16 1173.12 L1391.8 1173.12 L1391.8 1141.41 Z" fill="#000000" fill-rule="nonzero" fill-opacity="1" /><path clip-path="url(#clip120)" d="M1407.03 1165.48 L1412.76 1165.48 L1412.76 1145.7 L1406.52 1146.95 L1406.52 1143.76 L1412.72 1142.51 L1416.23 1142.51 L1416.23 1165.48 L1421.96 1165.48 L1421.96 1168.43 L1407.03 1168.43 L1407.03 1165.48 Z" fill="#000000" fill-rule="nonzero" fill-opacity="1" /><path clip-path="url(#clip120)" d="M1436.54 1144.82 Q1433.83 1144.82 1432.46 1147.49 Q1431.11 1150.15 1431.11 1155.49 Q1431.11 1160.82 1432.46 1163.5 Q1433.83 1166.15 1436.54 1166.15 Q1439.27 1166.15 1440.62 1163.5 Q1441.99 1160.82 1441.99 1155.49 Q1441.99 1150.15 1440.62 1147.49 Q1439.27 1144.82 1436.54 1144.82 M1436.54 1142.04 Q1440.9 1142.04 1443.19 1145.49 Q1445.5 1148.93 1445.5 1155.49 Q1445.5 1162.04 1443.19 1165.49 Q1440.9 1168.93 1436.54 1168.93 Q1432.18 1168.93 1429.87 1165.49 Q1427.58 1162.04 1427.58 1155.49 Q1427.58 1148.93 1429.87 1145.49 Q1432.18 1142.04 1436.54 1142.04 Z" fill="#000000" fill-rule="nonzero" fill-opacity="1" /><path clip-path="url(#clip120)" d="M1458.68 1141.41 L1458.68 1173.12 L1451.32 1173.12 L1451.32 1170.63 L1455.46 1170.63 L1455.46 1143.9 L1451.32 1143.9 L1451.32 1141.41 L1458.68 1141.41 Z" fill="#000000" fill-rule="nonzero" fill-opacity="1" /><polyline clip-path="url(#clip122)" style="stroke:#000000; stroke-linecap:round; stroke-linejoin:round; stroke-width:2; stroke-opacity:0.1; fill:none" points="178.857,1081.75 1552.18,1081.75 "/>
<polyline clip-path="url(#clip122)" style="stroke:#000000; stroke-linecap:round; stroke-linejoin:round; stroke-width:2; stroke-opacity:0.1; fill:none" points="178.857,890.536 1552.18,890.536 "/>
<polyline clip-path="url(#clip122)" style="stroke:#000000; stroke-linecap:round; stroke-linejoin:round; stroke-width:2; stroke-opacity:0.1; fill:none" points="178.857,699.325 1552.18,699.325 "/>
<polyline clip-path="url(#clip122)" style="stroke:#000000; stroke-linecap:round; stroke-linejoin:round; stroke-width:2; stroke-opacity:0.1; fill:none" points="178.857,508.115 1552.18,508.115 "/>
<polyline clip-path="url(#clip122)" style="stroke:#000000; stroke-linecap:round; stroke-linejoin:round; stroke-width:2; stroke-opacity:0.1; fill:none" points="178.857,316.904 1552.18,316.904 "/>
<polyline clip-path="url(#clip122)" style="stroke:#000000; stroke-linecap:round; stroke-linejoin:round; stroke-width:2; stroke-opacity:0.1; fill:none" points="178.857,125.694 1552.18,125.694 "/>
<polyline clip-path="url(#clip120)" style="stroke:#000000; stroke-linecap:round; stroke-linejoin:round; stroke-width:4; stroke-opacity:1; fill:none" points="178.857,1110.43 178.857,97.0121 "/>
<polyline clip-path="url(#clip120)" style="stroke:#000000; stroke-linecap:round; stroke-linejoin:round; stroke-width:4; stroke-opacity:1; fill:none" points="178.857,1081.75 197.755,1081.75 "/>
<polyline clip-path="url(#clip120)" style="stroke:#000000; stroke-linecap:round; stroke-linejoin:round; stroke-width:4; stroke-opacity:1; fill:none" points="178.857,890.536 197.755,890.536 "/>
<polyline clip-path="url(#clip120)" style="stroke:#000000; stroke-linecap:round; stroke-linejoin:round; stroke-width:4; stroke-opacity:1; fill:none" points="178.857,699.325 197.755,699.325 "/>
<polyline clip-path="url(#clip120)" style="stroke:#000000; stroke-linecap:round; stroke-linejoin:round; stroke-width:4; stroke-opacity:1; fill:none" points="178.857,508.115 197.755,508.115 "/>
<polyline clip-path="url(#clip120)" style="stroke:#000000; stroke-linecap:round; stroke-linejoin:round; stroke-width:4; stroke-opacity:1; fill:none" points="178.857,316.904 197.755,316.904 "/>
<polyline clip-path="url(#clip120)" style="stroke:#000000; stroke-linecap:round; stroke-linejoin:round; stroke-width:4; stroke-opacity:1; fill:none" points="178.857,125.694 197.755,125.694 "/>
<path clip-path="url(#clip120)" d="M118.913 1067.54 Q115.302 1067.54 113.473 1071.11 Q111.668 1074.65 111.668 1081.78 Q111.668 1088.89 113.473 1092.45 Q115.302 1095.99 118.913 1095.99 Q122.547 1095.99 124.353 1092.45 Q126.182 1088.89 126.182 1081.78 Q126.182 1074.65 124.353 1071.11 Q122.547 1067.54 118.913 1067.54 M118.913 1063.84 Q124.723 1063.84 127.779 1068.45 Q130.857 1073.03 130.857 1081.78 Q130.857 1090.51 127.779 1095.11 Q124.723 1099.7 118.913 1099.7 Q113.103 1099.7 110.024 1095.11 Q106.969 1090.51 106.969 1081.78 Q106.969 1073.03 110.024 1068.45 Q113.103 1063.84 118.913 1063.84 Z" fill="#000000" fill-rule="nonzero" fill-opacity="1" /><path clip-path="url(#clip120)" d="M78.7975 873.256 L97.1539 873.256 L97.1539 877.191 L83.0799 877.191 L83.0799 885.663 Q84.0984 885.316 85.1169 885.154 Q86.1354 884.969 87.1539 884.969 Q92.941 884.969 96.3206 888.14 Q99.7002 891.311 99.7002 896.728 Q99.7002 902.307 96.228 905.408 Q92.7558 908.487 86.4364 908.487 Q84.2604 908.487 81.9919 908.117 Q79.7466 907.746 77.3392 907.006 L77.3392 902.307 Q79.4225 903.441 81.6447 903.996 Q83.8669 904.552 86.3438 904.552 Q90.3484 904.552 92.6863 902.445 Q95.0243 900.339 95.0243 896.728 Q95.0243 893.117 92.6863 891.01 Q90.3484 888.904 86.3438 888.904 Q84.4688 888.904 82.5938 889.321 Q80.7419 889.737 78.7975 890.617 L78.7975 873.256 Z" fill="#000000" fill-rule="nonzero" fill-opacity="1" /><path clip-path="url(#clip120)" d="M118.913 876.334 Q115.302 876.334 113.473 879.899 Q111.668 883.441 111.668 890.57 Q111.668 897.677 113.473 901.242 Q115.302 904.783 118.913 904.783 Q122.547 904.783 124.353 901.242 Q126.182 897.677 126.182 890.57 Q126.182 883.441 124.353 879.899 Q122.547 876.334 118.913 876.334 M118.913 872.631 Q124.723 872.631 127.779 877.237 Q130.857 881.821 130.857 890.57 Q130.857 899.297 127.779 903.904 Q124.723 908.487 118.913 908.487 Q113.103 908.487 110.024 903.904 Q106.969 899.297 106.969 890.57 Q106.969 881.821 110.024 877.237 Q113.103 872.631 118.913 872.631 Z" fill="#000000" fill-rule="nonzero" fill-opacity="1" /><path clip-path="url(#clip120)" d="M49.3995 712.67 L57.0384 712.67 L57.0384 686.304 L48.7282 687.971 L48.7282 683.712 L56.9921 682.045 L61.668 682.045 L61.668 712.67 L69.3068 712.67 L69.3068 716.605 L49.3995 716.605 L49.3995 712.67 Z" fill="#000000" fill-rule="nonzero" fill-opacity="1" /><path clip-path="url(#clip120)" d="M88.7512 685.124 Q85.1401 685.124 83.3114 688.689 Q81.5058 692.23 81.5058 699.36 Q81.5058 706.466 83.3114 710.031 Q85.1401 713.573 88.7512 713.573 Q92.3854 713.573 94.1909 710.031 Q96.0196 706.466 96.0196 699.36 Q96.0196 692.23 94.1909 688.689 Q92.3854 685.124 88.7512 685.124 M88.7512 681.42 Q94.5613 681.42 97.6169 686.027 Q100.696 690.61 100.696 699.36 Q100.696 708.087 97.6169 712.693 Q94.5613 717.277 88.7512 717.277 Q82.941 717.277 79.8623 712.693 Q76.8068 708.087 76.8068 699.36 Q76.8068 690.61 79.8623 686.027 Q82.941 681.42 88.7512 681.42 Z" fill="#000000" fill-rule="nonzero" fill-opacity="1" /><path clip-path="url(#clip120)" d="M118.913 685.124 Q115.302 685.124 113.473 688.689 Q111.668 692.23 111.668 699.36 Q111.668 706.466 113.473 710.031 Q115.302 713.573 118.913 713.573 Q122.547 713.573 124.353 710.031 Q126.182 706.466 126.182 699.36 Q126.182 692.23 124.353 688.689 Q122.547 685.124 118.913 685.124 M118.913 681.42 Q124.723 681.42 127.779 686.027 Q130.857 690.61 130.857 699.36 Q130.857 708.087 127.779 712.693 Q124.723 717.277 118.913 717.277 Q113.103 717.277 110.024 712.693 Q106.969 708.087 106.969 699.36 Q106.969 690.61 110.024 686.027 Q113.103 681.42 118.913 681.42 Z" fill="#000000" fill-rule="nonzero" fill-opacity="1" /><path clip-path="url(#clip120)" d="M49.3995 521.46 L57.0384 521.46 L57.0384 495.094 L48.7282 496.761 L48.7282 492.501 L56.9921 490.835 L61.668 490.835 L61.668 521.46 L69.3068 521.46 L69.3068 525.395 L49.3995 525.395 L49.3995 521.46 Z" fill="#000000" fill-rule="nonzero" fill-opacity="1" /><path clip-path="url(#clip120)" d="M78.7975 490.835 L97.1539 490.835 L97.1539 494.77 L83.0799 494.77 L83.0799 503.242 Q84.0984 502.895 85.1169 502.733 Q86.1354 502.548 87.1539 502.548 Q92.941 502.548 96.3206 505.719 Q99.7002 508.89 99.7002 514.307 Q99.7002 519.886 96.228 522.987 Q92.7558 526.066 86.4364 526.066 Q84.2604 526.066 81.9919 525.696 Q79.7466 525.325 77.3392 524.585 L77.3392 519.886 Q79.4225 521.02 81.6447 521.575 Q83.8669 522.131 86.3438 522.131 Q90.3484 522.131 92.6863 520.024 Q95.0243 517.918 95.0243 514.307 Q95.0243 510.696 92.6863 508.589 Q90.3484 506.483 86.3438 506.483 Q84.4688 506.483 82.5938 506.899 Q80.7419 507.316 78.7975 508.196 L78.7975 490.835 Z" fill="#000000" fill-rule="nonzero" fill-opacity="1" /><path clip-path="url(#clip120)" d="M118.913 493.913 Q115.302 493.913 113.473 497.478 Q111.668 501.02 111.668 508.149 Q111.668 515.256 113.473 518.821 Q115.302 522.362 118.913 522.362 Q122.547 522.362 124.353 518.821 Q126.182 515.256 126.182 508.149 Q126.182 501.02 124.353 497.478 Q122.547 493.913 118.913 493.913 M118.913 490.21 Q124.723 490.21 127.779 494.816 Q130.857 499.4 130.857 508.149 Q130.857 516.876 127.779 521.483 Q124.723 526.066 118.913 526.066 Q113.103 526.066 110.024 521.483 Q106.969 516.876 106.969 508.149 Q106.969 499.4 110.024 494.816 Q113.103 490.21 118.913 490.21 Z" fill="#000000" fill-rule="nonzero" fill-opacity="1" /><path clip-path="url(#clip120)" d="M52.6171 330.249 L68.9365 330.249 L68.9365 334.184 L46.9921 334.184 L46.9921 330.249 Q49.6541 327.494 54.2375 322.865 Q58.8439 318.212 60.0245 316.87 Q62.2698 314.346 63.1494 312.61 Q64.0522 310.851 64.0522 309.161 Q64.0522 306.407 62.1078 304.67 Q60.1865 302.934 57.0847 302.934 Q54.8856 302.934 52.4319 303.698 Q50.0014 304.462 47.2236 306.013 L47.2236 301.291 Q50.0477 300.157 52.5014 299.578 Q54.955 298.999 56.9921 298.999 Q62.3624 298.999 65.5568 301.684 Q68.7513 304.37 68.7513 308.86 Q68.7513 310.99 67.9411 312.911 Q67.1541 314.809 65.0476 317.402 Q64.4689 318.073 61.367 321.291 Q58.2652 324.485 52.6171 330.249 Z" fill="#000000" fill-rule="nonzero" fill-opacity="1" /><path clip-path="url(#clip120)" d="M88.7512 302.703 Q85.1401 302.703 83.3114 306.268 Q81.5058 309.809 81.5058 316.939 Q81.5058 324.045 83.3114 327.61 Q85.1401 331.152 88.7512 331.152 Q92.3854 331.152 94.1909 327.61 Q96.0196 324.045 96.0196 316.939 Q96.0196 309.809 94.1909 306.268 Q92.3854 302.703 88.7512 302.703 M88.7512 298.999 Q94.5613 298.999 97.6169 303.606 Q100.696 308.189 100.696 316.939 Q100.696 325.666 97.6169 330.272 Q94.5613 334.856 88.7512 334.856 Q82.941 334.856 79.8623 330.272 Q76.8068 325.666 76.8068 316.939 Q76.8068 308.189 79.8623 303.606 Q82.941 298.999 88.7512 298.999 Z" fill="#000000" fill-rule="nonzero" fill-opacity="1" /><path clip-path="url(#clip120)" d="M118.913 302.703 Q115.302 302.703 113.473 306.268 Q111.668 309.809 111.668 316.939 Q111.668 324.045 113.473 327.61 Q115.302 331.152 118.913 331.152 Q122.547 331.152 124.353 327.61 Q126.182 324.045 126.182 316.939 Q126.182 309.809 124.353 306.268 Q122.547 302.703 118.913 302.703 M118.913 298.999 Q124.723 298.999 127.779 303.606 Q130.857 308.189 130.857 316.939 Q130.857 325.666 127.779 330.272 Q124.723 334.856 118.913 334.856 Q113.103 334.856 110.024 330.272 Q106.969 325.666 106.969 316.939 Q106.969 308.189 110.024 303.606 Q113.103 298.999 118.913 298.999 Z" fill="#000000" fill-rule="nonzero" fill-opacity="1" /><path clip-path="url(#clip120)" d="M52.6171 139.039 L68.9365 139.039 L68.9365 142.974 L46.9921 142.974 L46.9921 139.039 Q49.6541 136.284 54.2375 131.654 Q58.8439 127.002 60.0245 125.659 Q62.2698 123.136 63.1494 121.4 Q64.0522 119.64 64.0522 117.951 Q64.0522 115.196 62.1078 113.46 Q60.1865 111.724 57.0847 111.724 Q54.8856 111.724 52.4319 112.488 Q50.0014 113.252 47.2236 114.803 L47.2236 110.08 Q50.0477 108.946 52.5014 108.367 Q54.955 107.789 56.9921 107.789 Q62.3624 107.789 65.5568 110.474 Q68.7513 113.159 68.7513 117.65 Q68.7513 119.779 67.9411 121.701 Q67.1541 123.599 65.0476 126.191 Q64.4689 126.863 61.367 130.08 Q58.2652 133.275 52.6171 139.039 Z" fill="#000000" fill-rule="nonzero" fill-opacity="1" /><path clip-path="url(#clip120)" d="M78.7975 108.414 L97.1539 108.414 L97.1539 112.349 L83.0799 112.349 L83.0799 120.821 Q84.0984 120.474 85.1169 120.312 Q86.1354 120.127 87.1539 120.127 Q92.941 120.127 96.3206 123.298 Q99.7002 126.469 99.7002 131.886 Q99.7002 137.464 96.228 140.566 Q92.7558 143.645 86.4364 143.645 Q84.2604 143.645 81.9919 143.275 Q79.7466 142.904 77.3392 142.164 L77.3392 137.464 Q79.4225 138.599 81.6447 139.154 Q83.8669 139.71 86.3438 139.71 Q90.3484 139.71 92.6863 137.603 Q95.0243 135.497 95.0243 131.886 Q95.0243 128.275 92.6863 126.168 Q90.3484 124.062 86.3438 124.062 Q84.4688 124.062 82.5938 124.478 Q80.7419 124.895 78.7975 125.775 L78.7975 108.414 Z" fill="#000000" fill-rule="nonzero" fill-opacity="1" /><path clip-path="url(#clip120)" d="M118.913 111.492 Q115.302 111.492 113.473 115.057 Q111.668 118.599 111.668 125.728 Q111.668 132.835 113.473 136.4 Q115.302 139.941 118.913 139.941 Q122.547 139.941 124.353 136.4 Q126.182 132.835 126.182 125.728 Q126.182 118.599 124.353 115.057 Q122.547 111.492 118.913 111.492 M118.913 107.789 Q124.723 107.789 127.779 112.395 Q130.857 116.978 130.857 125.728 Q130.857 134.455 127.779 139.062 Q124.723 143.645 118.913 143.645 Q113.103 143.645 110.024 139.062 Q106.969 134.455 106.969 125.728 Q106.969 116.978 110.024 112.395 Q113.103 107.789 118.913 107.789 Z" fill="#000000" fill-rule="nonzero" fill-opacity="1" /><path clip-path="url(#clip120)" d="M500.47 49.7694 Q491.437 49.7694 487.953 51.8354 Q484.469 53.9013 484.469 58.8839 Q484.469 62.8538 487.062 65.2034 Q489.695 67.5124 494.191 67.5124 Q500.389 67.5124 504.116 63.1374 Q507.883 58.7219 507.883 51.4303 L507.883 49.7694 L500.47 49.7694 M515.337 46.6907 L515.337 72.576 L507.883 72.576 L507.883 65.6895 Q505.331 69.8214 501.523 71.8063 Q497.715 73.7508 492.206 73.7508 Q485.239 73.7508 481.107 69.8619 Q477.015 65.9325 477.015 59.3701 Q477.015 51.7138 482.119 47.825 Q487.264 43.9361 497.432 43.9361 L507.883 43.9361 L507.883 43.2069 Q507.883 38.0623 504.48 35.2672 Q501.118 32.4315 495.001 32.4315 Q491.112 32.4315 487.426 33.3632 Q483.74 34.295 480.337 36.1584 L480.337 29.2718 Q484.428 27.692 488.277 26.9223 Q492.125 26.1121 495.771 26.1121 Q505.615 26.1121 510.476 31.2163 Q515.337 36.3204 515.337 46.6907 Z" fill="#000000" fill-rule="nonzero" fill-opacity="1" /><path clip-path="url(#clip120)" d="M560.545 34.0924 L560.545 9.54393 L567.999 9.54393 L567.999 72.576 L560.545 72.576 L560.545 65.7705 Q558.195 69.8214 554.59 71.8063 Q551.025 73.7508 546.002 73.7508 Q537.779 73.7508 532.594 67.1883 Q527.449 60.6258 527.449 49.9314 Q527.449 39.2371 532.594 32.6746 Q537.779 26.1121 546.002 26.1121 Q551.025 26.1121 554.59 28.0971 Q558.195 30.0415 560.545 34.0924 M535.146 49.9314 Q535.146 58.1548 538.508 62.8538 Q541.911 67.5124 547.825 67.5124 Q553.739 67.5124 557.142 62.8538 Q560.545 58.1548 560.545 49.9314 Q560.545 41.7081 557.142 37.0496 Q553.739 32.3505 547.825 32.3505 Q541.911 32.3505 538.508 37.0496 Q535.146 41.7081 535.146 49.9314 Z" fill="#000000" fill-rule="nonzero" fill-opacity="1" /><path clip-path="url(#clip120)" d="M603.971 49.7694 Q594.937 49.7694 591.453 51.8354 Q587.97 53.9013 587.97 58.8839 Q587.97 62.8538 590.562 65.2034 Q593.195 67.5124 597.692 67.5124 Q603.89 67.5124 607.616 63.1374 Q611.384 58.7219 611.384 51.4303 L611.384 49.7694 L603.971 49.7694 M618.837 46.6907 L618.837 72.576 L611.384 72.576 L611.384 65.6895 Q608.832 69.8214 605.024 71.8063 Q601.216 73.7508 595.707 73.7508 Q588.739 73.7508 584.607 69.8619 Q580.516 65.9325 580.516 59.3701 Q580.516 51.7138 585.62 47.825 Q590.765 43.9361 600.933 43.9361 L611.384 43.9361 L611.384 43.2069 Q611.384 38.0623 607.981 35.2672 Q604.619 32.4315 598.502 32.4315 Q594.613 32.4315 590.927 33.3632 Q587.24 34.295 583.838 36.1584 L583.838 29.2718 Q587.929 27.692 591.777 26.9223 Q595.626 26.1121 599.272 26.1121 Q609.115 26.1121 613.976 31.2163 Q618.837 36.3204 618.837 46.6907 Z" fill="#000000" fill-rule="nonzero" fill-opacity="1" /><path clip-path="url(#clip120)" d="M641.401 65.7705 L641.401 89.8329 L633.907 89.8329 L633.907 27.2059 L641.401 27.2059 L641.401 34.0924 Q643.751 30.0415 647.315 28.0971 Q650.921 26.1121 655.903 26.1121 Q664.167 26.1121 669.312 32.6746 Q674.497 39.2371 674.497 49.9314 Q674.497 60.6258 669.312 67.1883 Q664.167 73.7508 655.903 73.7508 Q650.921 73.7508 647.315 71.8063 Q643.751 69.8214 641.401 65.7705 M666.76 49.9314 Q666.76 41.7081 663.357 37.0496 Q659.995 32.3505 654.08 32.3505 Q648.166 32.3505 644.763 37.0496 Q641.401 41.7081 641.401 49.9314 Q641.401 58.1548 644.763 62.8538 Q648.166 67.5124 654.08 67.5124 Q659.995 67.5124 663.357 62.8538 Q666.76 58.1548 666.76 49.9314 Z" fill="#000000" fill-rule="nonzero" fill-opacity="1" /><path clip-path="url(#clip120)" d="M694.225 14.324 L694.225 27.2059 L709.578 27.2059 L709.578 32.9987 L694.225 32.9987 L694.225 57.6282 Q694.225 63.1779 695.724 64.7578 Q697.263 66.3376 701.922 66.3376 L709.578 66.3376 L709.578 72.576 L701.922 72.576 Q693.293 72.576 690.012 69.3758 Q686.731 66.1351 686.731 57.6282 L686.731 32.9987 L681.262 32.9987 L681.262 27.2059 L686.731 27.2059 L686.731 14.324 L694.225 14.324 Z" fill="#000000" fill-rule="nonzero" fill-opacity="1" /><path clip-path="url(#clip120)" d="M719.381 27.2059 L726.835 27.2059 L726.835 72.576 L719.381 72.576 L719.381 27.2059 M719.381 9.54393 L726.835 9.54393 L726.835 18.9825 L719.381 18.9825 L719.381 9.54393 Z" fill="#000000" fill-rule="nonzero" fill-opacity="1" /><path clip-path="url(#clip120)" d="M737.083 27.2059 L744.983 27.2059 L759.161 65.2844 L773.339 27.2059 L781.238 27.2059 L764.224 72.576 L754.097 72.576 L737.083 27.2059 Z" fill="#000000" fill-rule="nonzero" fill-opacity="1" /><path clip-path="url(#clip120)" d="M830.335 48.0275 L830.335 51.6733 L796.065 51.6733 Q796.551 59.3701 800.683 63.421 Q804.855 67.4314 812.268 67.4314 Q816.562 67.4314 820.573 66.3781 Q824.623 65.3249 828.593 63.2184 L828.593 70.267 Q824.583 71.9684 820.37 72.8596 Q816.157 73.7508 811.823 73.7508 Q800.966 73.7508 794.606 67.4314 Q788.287 61.1119 788.287 50.3365 Q788.287 39.1965 794.282 32.6746 Q800.318 26.1121 810.526 26.1121 Q819.681 26.1121 824.988 32.0264 Q830.335 37.9003 830.335 48.0275 M822.882 45.84 Q822.801 39.7232 819.438 36.0774 Q816.117 32.4315 810.607 32.4315 Q804.369 32.4315 800.602 35.9558 Q796.875 39.4801 796.308 45.8805 L822.882 45.84 Z" fill="#000000" fill-rule="nonzero" fill-opacity="1" /><path clip-path="url(#clip120)" d="M877.042 86.3491 L877.042 92.1419 L833.941 92.1419 L833.941 86.3491 L877.042 86.3491 Z" fill="#000000" fill-rule="nonzero" fill-opacity="1" /><path clip-path="url(#clip120)" d="M884.05 27.2059 L891.504 27.2059 L891.504 72.576 L884.05 72.576 L884.05 27.2059 M884.05 9.54393 L891.504 9.54393 L891.504 18.9825 L884.05 18.9825 L884.05 9.54393 Z" fill="#000000" fill-rule="nonzero" fill-opacity="1" /><path clip-path="url(#clip120)" d="M944.814 45.1919 L944.814 72.576 L937.36 72.576 L937.36 45.4349 Q937.36 38.994 934.849 35.7938 Q932.337 32.5936 927.314 32.5936 Q921.278 32.5936 917.794 36.4419 Q914.31 40.2903 914.31 46.9338 L914.31 72.576 L906.816 72.576 L906.816 27.2059 L914.31 27.2059 L914.31 34.2544 Q916.984 30.163 920.589 28.1376 Q924.235 26.1121 928.975 26.1121 Q936.793 26.1121 940.803 30.9732 Q944.814 35.7938 944.814 45.1919 Z" fill="#000000" fill-rule="nonzero" fill-opacity="1" /><path clip-path="url(#clip120)" d="M989.536 34.0924 L989.536 9.54393 L996.989 9.54393 L996.989 72.576 L989.536 72.576 L989.536 65.7705 Q987.186 69.8214 983.581 71.8063 Q980.016 73.7508 974.993 73.7508 Q966.77 73.7508 961.585 67.1883 Q956.44 60.6258 956.44 49.9314 Q956.44 39.2371 961.585 32.6746 Q966.77 26.1121 974.993 26.1121 Q980.016 26.1121 983.581 28.0971 Q987.186 30.0415 989.536 34.0924 M964.137 49.9314 Q964.137 58.1548 967.499 62.8538 Q970.902 67.5124 976.816 67.5124 Q982.73 67.5124 986.133 62.8538 Q989.536 58.1548 989.536 49.9314 Q989.536 41.7081 986.133 37.0496 Q982.73 32.3505 976.816 32.3505 Q970.902 32.3505 967.499 37.0496 Q964.137 41.7081 964.137 49.9314 Z" fill="#000000" fill-rule="nonzero" fill-opacity="1" /><path clip-path="url(#clip120)" d="M1011.57 54.671 L1011.57 27.2059 L1019.03 27.2059 L1019.03 54.3874 Q1019.03 60.8284 1021.54 64.0691 Q1024.05 67.2693 1029.07 67.2693 Q1035.11 67.2693 1038.59 63.421 Q1042.12 59.5726 1042.12 52.9291 L1042.12 27.2059 L1049.57 27.2059 L1049.57 72.576 L1042.12 72.576 L1042.12 65.6084 Q1039.4 69.7404 1035.8 71.7658 Q1032.23 73.7508 1027.49 73.7508 Q1019.67 73.7508 1015.62 68.8897 Q1011.57 64.0286 1011.57 54.671 M1030.33 26.1121 L1030.33 26.1121 Z" fill="#000000" fill-rule="nonzero" fill-opacity="1" /><path clip-path="url(#clip120)" d="M1097.57 28.9478 L1097.57 35.9153 Q1094.41 34.1734 1091.21 33.3227 Q1088.05 32.4315 1084.81 32.4315 Q1077.56 32.4315 1073.55 37.0496 Q1069.54 41.6271 1069.54 49.9314 Q1069.54 58.2358 1073.55 62.8538 Q1077.56 67.4314 1084.81 67.4314 Q1088.05 67.4314 1091.21 66.5807 Q1094.41 65.6895 1097.57 63.9476 L1097.57 70.8341 Q1094.45 72.2924 1091.09 73.0216 Q1087.77 73.7508 1084 73.7508 Q1073.75 73.7508 1067.72 67.3098 Q1061.68 60.8689 1061.68 49.9314 Q1061.68 38.832 1067.76 32.472 Q1073.88 26.1121 1084.49 26.1121 Q1087.93 26.1121 1091.21 26.8413 Q1094.49 27.5299 1097.57 28.9478 Z" fill="#000000" fill-rule="nonzero" fill-opacity="1" /><path clip-path="url(#clip120)" d="M1117.91 14.324 L1117.91 27.2059 L1133.26 27.2059 L1133.26 32.9987 L1117.91 32.9987 L1117.91 57.6282 Q1117.91 63.1779 1119.41 64.7578 Q1120.95 66.3376 1125.61 66.3376 L1133.26 66.3376 L1133.26 72.576 L1125.61 72.576 Q1116.98 72.576 1113.7 69.3758 Q1110.41 66.1351 1110.41 57.6282 L1110.41 32.9987 L1104.95 32.9987 L1104.95 27.2059 L1110.41 27.2059 L1110.41 14.324 L1117.91 14.324 Z" fill="#000000" fill-rule="nonzero" fill-opacity="1" /><path clip-path="url(#clip120)" d="M1143.07 27.2059 L1150.52 27.2059 L1150.52 72.576 L1143.07 72.576 L1143.07 27.2059 M1143.07 9.54393 L1150.52 9.54393 L1150.52 18.9825 L1143.07 18.9825 L1143.07 9.54393 Z" fill="#000000" fill-rule="nonzero" fill-opacity="1" /><path clip-path="url(#clip120)" d="M1160.77 27.2059 L1168.67 27.2059 L1182.84 65.2844 L1197.02 27.2059 L1204.92 27.2059 L1187.91 72.576 L1177.78 72.576 L1160.77 27.2059 Z" fill="#000000" fill-rule="nonzero" fill-opacity="1" /><path clip-path="url(#clip120)" d="M1254.02 48.0275 L1254.02 51.6733 L1219.75 51.6733 Q1220.23 59.3701 1224.37 63.421 Q1228.54 67.4314 1235.95 67.4314 Q1240.25 67.4314 1244.26 66.3781 Q1248.31 65.3249 1252.28 63.2184 L1252.28 70.267 Q1248.27 71.9684 1244.05 72.8596 Q1239.84 73.7508 1235.51 73.7508 Q1224.65 73.7508 1218.29 67.4314 Q1211.97 61.1119 1211.97 50.3365 Q1211.97 39.1965 1217.97 32.6746 Q1224 26.1121 1234.21 26.1121 Q1243.37 26.1121 1248.67 32.0264 Q1254.02 37.9003 1254.02 48.0275 M1246.57 45.84 Q1246.48 39.7232 1243.12 36.0774 Q1239.8 32.4315 1234.29 32.4315 Q1228.05 32.4315 1224.29 35.9558 Q1220.56 39.4801 1219.99 45.8805 L1246.57 45.84 Z" fill="#000000" fill-rule="nonzero" fill-opacity="1" /><path clip-path="url(#clip122)" d="M254.392 488.994 L254.392 1081.75 L458.101 1081.75 L458.101 488.994 L254.392 488.994 L254.392 488.994  Z" fill="#e69f00" fill-rule="evenodd" fill-opacity="1"/>
<polyline clip-path="url(#clip122)" style="stroke:#000000; stroke-linecap:round; stroke-linejoin:round; stroke-width:4; stroke-opacity:1; fill:none" points="254.392,488.994 254.392,1081.75 458.101,1081.75 458.101,488.994 254.392,488.994 "/>
<path clip-path="url(#clip122)" d="M509.028 378.092 L509.028 1081.75 L712.736 1081.75 L712.736 378.092 L509.028 378.092 L509.028 378.092  Z" fill="#e69f00" fill-rule="evenodd" fill-opacity="1"/>
<polyline clip-path="url(#clip122)" style="stroke:#000000; stroke-linecap:round; stroke-linejoin:round; stroke-width:4; stroke-opacity:1; fill:none" points="509.028,378.092 509.028,1081.75 712.736,1081.75 712.736,378.092 509.028,378.092 "/>
<path clip-path="url(#clip122)" d="M763.663 190.705 L763.663 1081.75 L967.371 1081.75 L967.371 190.705 L763.663 190.705 L763.663 190.705  Z" fill="#e69f00" fill-rule="evenodd" fill-opacity="1"/>
<polyline clip-path="url(#clip122)" style="stroke:#000000; stroke-linecap:round; stroke-linejoin:round; stroke-width:4; stroke-opacity:1; fill:none" points="763.663,190.705 763.663,1081.75 967.371,1081.75 967.371,190.705 763.663,190.705 "/>
<path clip-path="url(#clip122)" d="M1018.3 125.694 L1018.3 1081.75 L1222.01 1081.75 L1222.01 125.694 L1018.3 125.694 L1018.3 125.694  Z" fill="#e69f00" fill-rule="evenodd" fill-opacity="1"/>
<polyline clip-path="url(#clip122)" style="stroke:#000000; stroke-linecap:round; stroke-linejoin:round; stroke-width:4; stroke-opacity:1; fill:none" points="1018.3,125.694 1018.3,1081.75 1222.01,1081.75 1222.01,125.694 1018.3,125.694 "/>
<path clip-path="url(#clip122)" d="M1272.93 401.037 L1272.93 1081.75 L1476.64 1081.75 L1476.64 401.037 L1272.93 401.037 L1272.93 401.037  Z" fill="#e69f00" fill-rule="evenodd" fill-opacity="1"/>
<polyline clip-path="url(#clip122)" style="stroke:#000000; stroke-linecap:round; stroke-linejoin:round; stroke-width:4; stroke-opacity:1; fill:none" points="1272.93,401.037 1272.93,1081.75 1476.64,1081.75 1476.64,401.037 1272.93,401.037 "/>
<circle clip-path="url(#clip122)" style="fill:#e69f00; stroke:none; fill-opacity:0" cx="356.247" cy="488.994" r="2"/>
<circle clip-path="url(#clip122)" style="fill:#e69f00; stroke:none; fill-opacity:0" cx="610.882" cy="378.092" r="2"/>
<circle clip-path="url(#clip122)" style="fill:#e69f00; stroke:none; fill-opacity:0" cx="865.517" cy="190.705" r="2"/>
<circle clip-path="url(#clip122)" style="fill:#e69f00; stroke:none; fill-opacity:0" cx="1120.15" cy="125.694" r="2"/>
<circle clip-path="url(#clip122)" style="fill:#e69f00; stroke:none; fill-opacity:0" cx="1374.79" cy="401.037" r="2"/>
<path clip-path="url(#clip120)" d="M1779.44 1110.43 L3152.76 1110.43 L3152.76 97.0121 L1779.44 97.0121  Z" fill="#ffffff" fill-rule="evenodd" fill-opacity="1"/>
<defs>
  <clipPath id="clip123">
    <rect x="1779" y="97" width="1374" height="1014"/>
  </clipPath>
</defs>
<polyline clip-path="url(#clip123)" style="stroke:#000000; stroke-linecap:round; stroke-linejoin:round; stroke-width:2; stroke-opacity:0.1; fill:none" points="1983.63,1110.43 1983.63,97.0121 "/>
<polyline clip-path="url(#clip123)" style="stroke:#000000; stroke-linecap:round; stroke-linejoin:round; stroke-width:2; stroke-opacity:0.1; fill:none" points="2305.27,1110.43 2305.27,97.0121 "/>
<polyline clip-path="url(#clip123)" style="stroke:#000000; stroke-linecap:round; stroke-linejoin:round; stroke-width:2; stroke-opacity:0.1; fill:none" points="2626.92,1110.43 2626.92,97.0121 "/>
<polyline clip-path="url(#clip123)" style="stroke:#000000; stroke-linecap:round; stroke-linejoin:round; stroke-width:2; stroke-opacity:0.1; fill:none" points="2948.56,1110.43 2948.56,97.0121 "/>
<polyline clip-path="url(#clip120)" style="stroke:#000000; stroke-linecap:round; stroke-linejoin:round; stroke-width:4; stroke-opacity:1; fill:none" points="1779.44,1110.43 3152.76,1110.43 "/>
<polyline clip-path="url(#clip120)" style="stroke:#000000; stroke-linecap:round; stroke-linejoin:round; stroke-width:4; stroke-opacity:1; fill:none" points="1983.63,1110.43 1983.63,1091.53 "/>
<polyline clip-path="url(#clip120)" style="stroke:#000000; stroke-linecap:round; stroke-linejoin:round; stroke-width:4; stroke-opacity:1; fill:none" points="2305.27,1110.43 2305.27,1091.53 "/>
<polyline clip-path="url(#clip120)" style="stroke:#000000; stroke-linecap:round; stroke-linejoin:round; stroke-width:4; stroke-opacity:1; fill:none" points="2626.92,1110.43 2626.92,1091.53 "/>
<polyline clip-path="url(#clip120)" style="stroke:#000000; stroke-linecap:round; stroke-linejoin:round; stroke-width:4; stroke-opacity:1; fill:none" points="2948.56,1110.43 2948.56,1091.53 "/>
<path clip-path="url(#clip120)" d="M1897.04 1141.26 L1897.04 1176.81 L1894.09 1176.81 L1894.09 1141.26 L1897.04 1141.26 Z" fill="#000000" fill-rule="nonzero" fill-opacity="1" /><path clip-path="url(#clip120)" d="M1924.45 1144.5 L1924.45 1148.2 Q1922.68 1146.55 1920.67 1145.74 Q1918.67 1144.92 1916.42 1144.92 Q1911.97 1144.92 1909.61 1147.65 Q1907.25 1150.36 1907.25 1155.49 Q1907.25 1160.62 1909.61 1163.34 Q1911.97 1166.05 1916.42 1166.05 Q1918.67 1166.05 1920.67 1165.23 Q1922.68 1164.42 1924.45 1162.77 L1924.45 1166.43 Q1922.61 1167.68 1920.55 1168.31 Q1918.5 1168.93 1916.21 1168.93 Q1910.32 1168.93 1906.94 1165.34 Q1903.55 1161.73 1903.55 1155.49 Q1903.55 1149.24 1906.94 1145.65 Q1910.32 1142.04 1916.21 1142.04 Q1918.53 1142.04 1920.58 1142.66 Q1922.65 1143.27 1924.45 1144.5 Z" fill="#000000" fill-rule="nonzero" fill-opacity="1" /><path clip-path="url(#clip120)" d="M1933.85 1141.26 L1933.85 1176.81 L1930.89 1176.81 L1930.89 1141.26 L1933.85 1141.26 Z" fill="#000000" fill-rule="nonzero" fill-opacity="1" /><path clip-path="url(#clip120)" d="M1955.62 1157.54 Q1955.74 1158.83 1956.83 1160.91 Q1958.12 1163.32 1960.55 1164.68 Q1962.93 1166 1965.5 1166.01 L1977.6 1166.01 L1977.6 1168.78 L1965.5 1168.78 Q1962.16 1168.78 1959.07 1167.06 Q1956 1165.34 1954.35 1162.28 Q1952.7 1159.23 1952.7 1155.98 Q1952.7 1152.77 1954.35 1149.71 Q1956 1146.66 1959.07 1144.92 Q1962.16 1143.18 1965.5 1143.18 L1977.6 1143.18 L1977.6 1145.95 L1965.5 1145.95 Q1962.93 1145.96 1960.55 1147.3 Q1958.13 1148.67 1956.83 1151.07 Q1955.72 1153.15 1955.56 1154.76 L1977.6 1154.76 L1977.6 1157.54 L1955.62 1157.54 Z" fill="#000000" fill-rule="nonzero" fill-opacity="1" /><path clip-path="url(#clip120)" d="M1994.99 1141.41 L2002.35 1141.41 L2002.35 1143.9 L1998.19 1143.9 L1998.19 1170.63 L2002.35 1170.63 L2002.35 1173.12 L1994.99 1173.12 L1994.99 1141.41 Z" fill="#000000" fill-rule="nonzero" fill-opacity="1" /><path clip-path="url(#clip120)" d="M2017.11 1144.82 Q2014.4 1144.82 2013.03 1147.49 Q2011.68 1150.15 2011.68 1155.49 Q2011.68 1160.82 2013.03 1163.5 Q2014.4 1166.15 2017.11 1166.15 Q2019.84 1166.15 2021.19 1163.5 Q2022.56 1160.82 2022.56 1155.49 Q2022.56 1150.15 2021.19 1147.49 Q2019.84 1144.82 2017.11 1144.82 M2017.11 1142.04 Q2021.47 1142.04 2023.76 1145.49 Q2026.07 1148.93 2026.07 1155.49 Q2026.07 1162.04 2023.76 1165.49 Q2021.47 1168.93 2017.11 1168.93 Q2012.75 1168.93 2010.44 1165.49 Q2008.15 1162.04 2008.15 1155.49 Q2008.15 1148.93 2010.44 1145.49 Q2012.75 1142.04 2017.11 1142.04 Z" fill="#000000" fill-rule="nonzero" fill-opacity="1" /><path clip-path="url(#clip120)" d="M2032.6 1164.02 L2036.26 1164.02 L2036.26 1167 L2033.41 1172.56 L2031.17 1172.56 L2032.6 1167 L2032.6 1164.02 Z" fill="#000000" fill-rule="nonzero" fill-opacity="1" /><path clip-path="url(#clip120)" d="M2044.14 1165.48 L2049.87 1165.48 L2049.87 1145.7 L2043.64 1146.95 L2043.64 1143.76 L2049.84 1142.51 L2053.34 1142.51 L2053.34 1165.48 L2059.07 1165.48 L2059.07 1168.43 L2044.14 1168.43 L2044.14 1165.48 Z" fill="#000000" fill-rule="nonzero" fill-opacity="1" /><path clip-path="url(#clip120)" d="M2073.17 1141.41 L2073.17 1173.12 L2065.81 1173.12 L2065.81 1170.63 L2069.96 1170.63 L2069.96 1143.9 L2065.81 1143.9 L2065.81 1141.41 L2073.17 1141.41 Z" fill="#000000" fill-rule="nonzero" fill-opacity="1" /><path clip-path="url(#clip120)" d="M2218.69 1141.26 L2218.69 1176.81 L2215.73 1176.81 L2215.73 1141.26 L2218.69 1141.26 Z" fill="#000000" fill-rule="nonzero" fill-opacity="1" /><path clip-path="url(#clip120)" d="M2246.1 1144.5 L2246.1 1148.2 Q2244.33 1146.55 2242.31 1145.74 Q2240.32 1144.92 2238.06 1144.92 Q2233.62 1144.92 2231.25 1147.65 Q2228.89 1150.36 2228.89 1155.49 Q2228.89 1160.62 2231.25 1163.34 Q2233.62 1166.05 2238.06 1166.05 Q2240.32 1166.05 2242.31 1165.23 Q2244.33 1164.42 2246.1 1162.77 L2246.1 1166.43 Q2244.26 1167.68 2242.19 1168.31 Q2240.14 1168.93 2237.85 1168.93 Q2231.97 1168.93 2228.58 1165.34 Q2225.2 1161.73 2225.2 1155.49 Q2225.2 1149.24 2228.58 1145.65 Q2231.97 1142.04 2237.85 1142.04 Q2240.18 1142.04 2242.23 1142.66 Q2244.29 1143.27 2246.1 1144.5 Z" fill="#000000" fill-rule="nonzero" fill-opacity="1" /><path clip-path="url(#clip120)" d="M2255.49 1141.26 L2255.49 1176.81 L2252.54 1176.81 L2252.54 1141.26 L2255.49 1141.26 Z" fill="#000000" fill-rule="nonzero" fill-opacity="1" /><path clip-path="url(#clip120)" d="M2277.26 1157.54 Q2277.38 1158.83 2278.48 1160.91 Q2279.76 1163.32 2282.19 1164.68 Q2284.57 1166 2287.14 1166.01 L2299.24 1166.01 L2299.24 1168.78 L2287.14 1168.78 Q2283.81 1168.78 2280.72 1167.06 Q2277.64 1165.34 2275.99 1162.28 Q2274.35 1159.23 2274.35 1155.98 Q2274.35 1152.77 2275.99 1149.71 Q2277.64 1146.66 2280.72 1144.92 Q2283.81 1143.18 2287.14 1143.18 L2299.24 1143.18 L2299.24 1145.95 L2287.14 1145.95 Q2284.57 1145.96 2282.19 1147.3 Q2279.78 1148.67 2278.48 1151.07 Q2277.37 1153.15 2277.21 1154.76 L2299.24 1154.76 L2299.24 1157.54 L2277.26 1157.54 Z" fill="#000000" fill-rule="nonzero" fill-opacity="1" /><path clip-path="url(#clip120)" d="M2316.64 1141.41 L2324 1141.41 L2324 1143.9 L2319.83 1143.9 L2319.83 1170.63 L2324 1170.63 L2324 1173.12 L2316.64 1173.12 L2316.64 1141.41 Z" fill="#000000" fill-rule="nonzero" fill-opacity="1" /><path clip-path="url(#clip120)" d="M2334.28 1165.48 L2346.51 1165.48 L2346.51 1168.43 L2330.06 1168.43 L2330.06 1165.48 Q2332.05 1163.41 2335.49 1159.94 Q2338.95 1156.45 2339.83 1155.44 Q2341.51 1153.55 2342.17 1152.25 Q2342.85 1150.93 2342.85 1149.66 Q2342.85 1147.59 2341.39 1146.29 Q2339.95 1144.99 2337.63 1144.99 Q2335.98 1144.99 2334.14 1145.56 Q2332.31 1146.14 2330.23 1147.3 L2330.23 1143.76 Q2332.35 1142.91 2334.19 1142.47 Q2336.03 1142.04 2337.56 1142.04 Q2341.58 1142.04 2343.98 1144.05 Q2346.38 1146.07 2346.38 1149.43 Q2346.38 1151.03 2345.77 1152.47 Q2345.18 1153.9 2343.6 1155.84 Q2343.16 1156.34 2340.84 1158.76 Q2338.51 1161.15 2334.28 1165.48 Z" fill="#000000" fill-rule="nonzero" fill-opacity="1" /><path clip-path="url(#clip120)" d="M2354.24 1164.02 L2357.9 1164.02 L2357.9 1167 L2355.06 1172.56 L2352.82 1172.56 L2354.24 1167 L2354.24 1164.02 Z" fill="#000000" fill-rule="nonzero" fill-opacity="1" /><path clip-path="url(#clip120)" d="M2375.8 1154.45 Q2378.32 1154.99 2379.73 1156.69 Q2381.15 1158.39 2381.15 1160.89 Q2381.15 1164.73 2378.51 1166.83 Q2375.87 1168.93 2371.01 1168.93 Q2369.38 1168.93 2367.64 1168.6 Q2365.92 1168.29 2364.08 1167.65 L2364.08 1164.26 Q2365.54 1165.11 2367.28 1165.55 Q2369.01 1165.98 2370.91 1165.98 Q2374.21 1165.98 2375.92 1164.68 Q2377.66 1163.38 2377.66 1160.89 Q2377.66 1158.6 2376.05 1157.32 Q2374.45 1156.01 2371.58 1156.01 L2368.56 1156.01 L2368.56 1153.13 L2371.72 1153.13 Q2374.31 1153.13 2375.68 1152.11 Q2377.05 1151.07 2377.05 1149.12 Q2377.05 1147.13 2375.63 1146.07 Q2374.22 1144.99 2371.58 1144.99 Q2370.14 1144.99 2368.49 1145.3 Q2366.84 1145.62 2364.87 1146.28 L2364.87 1143.15 Q2366.86 1142.59 2368.6 1142.32 Q2370.35 1142.04 2371.9 1142.04 Q2375.89 1142.04 2378.22 1143.86 Q2380.54 1145.67 2380.54 1148.76 Q2380.54 1150.91 2379.31 1152.4 Q2378.08 1153.88 2375.8 1154.45 Z" fill="#000000" fill-rule="nonzero" fill-opacity="1" /><path clip-path="url(#clip120)" d="M2394.81 1141.41 L2394.81 1173.12 L2387.45 1173.12 L2387.45 1170.63 L2391.6 1170.63 L2391.6 1143.9 L2387.45 1143.9 L2387.45 1141.41 L2394.81 1141.41 Z" fill="#000000" fill-rule="nonzero" fill-opacity="1" /><path clip-path="url(#clip120)" d="M2540.33 1141.26 L2540.33 1176.81 L2537.38 1176.81 L2537.38 1141.26 L2540.33 1141.26 Z" fill="#000000" fill-rule="nonzero" fill-opacity="1" /><path clip-path="url(#clip120)" d="M2567.74 1144.5 L2567.74 1148.2 Q2565.97 1146.55 2563.96 1145.74 Q2561.96 1144.92 2559.71 1144.92 Q2555.26 1144.92 2552.9 1147.65 Q2550.54 1150.36 2550.54 1155.49 Q2550.54 1160.62 2552.9 1163.34 Q2555.26 1166.05 2559.71 1166.05 Q2561.96 1166.05 2563.96 1165.23 Q2565.97 1164.42 2567.74 1162.77 L2567.74 1166.43 Q2565.9 1167.68 2563.84 1168.31 Q2561.79 1168.93 2559.5 1168.93 Q2553.61 1168.93 2550.23 1165.34 Q2546.84 1161.73 2546.84 1155.49 Q2546.84 1149.24 2550.23 1145.65 Q2553.61 1142.04 2559.5 1142.04 Q2561.82 1142.04 2563.87 1142.66 Q2565.94 1143.27 2567.74 1144.5 Z" fill="#000000" fill-rule="nonzero" fill-opacity="1" /><path clip-path="url(#clip120)" d="M2577.14 1141.26 L2577.14 1176.81 L2574.18 1176.81 L2574.18 1141.26 L2577.14 1141.26 Z" fill="#000000" fill-rule="nonzero" fill-opacity="1" /><path clip-path="url(#clip120)" d="M2598.91 1157.54 Q2599.03 1158.83 2600.12 1160.91 Q2601.41 1163.32 2603.84 1164.68 Q2606.22 1166 2608.78 1166.01 L2620.89 1166.01 L2620.89 1168.78 L2608.78 1168.78 Q2605.45 1168.78 2602.36 1167.06 Q2599.29 1165.34 2597.64 1162.28 Q2595.99 1159.23 2595.99 1155.98 Q2595.99 1152.77 2597.64 1149.71 Q2599.29 1146.66 2602.36 1144.92 Q2605.45 1143.18 2608.78 1143.18 L2620.89 1143.18 L2620.89 1145.95 L2608.78 1145.95 Q2606.22 1145.96 2603.84 1147.3 Q2601.42 1148.67 2600.12 1151.07 Q2599.01 1153.15 2598.85 1154.76 L2620.89 1154.76 L2620.89 1157.54 L2598.91 1157.54 Z" fill="#000000" fill-rule="nonzero" fill-opacity="1" /><path clip-path="url(#clip120)" d="M2638.28 1141.41 L2645.64 1141.41 L2645.64 1143.9 L2641.48 1143.9 L2641.48 1170.63 L2645.64 1170.63 L2645.64 1173.12 L2638.28 1173.12 L2638.28 1141.41 Z" fill="#000000" fill-rule="nonzero" fill-opacity="1" /><path clip-path="url(#clip120)" d="M2662.53 1145.56 L2653.68 1159.4 L2662.53 1159.4 L2662.53 1145.56 M2661.61 1142.51 L2666.02 1142.51 L2666.02 1159.4 L2669.72 1159.4 L2669.72 1162.32 L2666.02 1162.32 L2666.02 1168.43 L2662.53 1168.43 L2662.53 1162.32 L2650.83 1162.32 L2650.83 1158.93 L2661.61 1142.51 Z" fill="#000000" fill-rule="nonzero" fill-opacity="1" /><path clip-path="url(#clip120)" d="M2675.89 1164.02 L2679.55 1164.02 L2679.55 1167 L2676.7 1172.56 L2674.46 1172.56 L2675.89 1167 L2675.89 1164.02 Z" fill="#000000" fill-rule="nonzero" fill-opacity="1" /><path clip-path="url(#clip120)" d="M2686.86 1142.51 L2700.62 1142.51 L2700.62 1145.46 L2690.07 1145.46 L2690.07 1151.81 Q2690.83 1151.55 2691.6 1151.43 Q2692.36 1151.29 2693.12 1151.29 Q2697.46 1151.29 2700 1153.67 Q2702.53 1156.05 2702.53 1160.11 Q2702.53 1164.3 2699.93 1166.62 Q2697.33 1168.93 2692.59 1168.93 Q2690.95 1168.93 2689.25 1168.65 Q2687.57 1168.38 2685.76 1167.82 L2685.76 1164.3 Q2687.33 1165.15 2688.99 1165.56 Q2690.66 1165.98 2692.52 1165.98 Q2695.52 1165.98 2697.27 1164.4 Q2699.03 1162.82 2699.03 1160.11 Q2699.03 1157.4 2697.27 1155.82 Q2695.52 1154.24 2692.52 1154.24 Q2691.11 1154.24 2689.7 1154.56 Q2688.32 1154.87 2686.86 1155.53 L2686.86 1142.51 Z" fill="#000000" fill-rule="nonzero" fill-opacity="1" /><path clip-path="url(#clip120)" d="M2716.46 1141.41 L2716.46 1173.12 L2709.1 1173.12 L2709.1 1170.63 L2713.25 1170.63 L2713.25 1143.9 L2709.1 1143.9 L2709.1 1141.41 L2716.46 1141.41 Z" fill="#000000" fill-rule="nonzero" fill-opacity="1" /><path clip-path="url(#clip120)" d="M2878.94 1141.26 L2878.94 1176.81 L2875.99 1176.81 L2875.99 1141.26 L2878.94 1141.26 Z" fill="#000000" fill-rule="nonzero" fill-opacity="1" /><path clip-path="url(#clip120)" d="M2906.35 1144.5 L2906.35 1148.2 Q2904.58 1146.55 2902.56 1145.74 Q2900.57 1144.92 2898.31 1144.92 Q2893.87 1144.92 2891.51 1147.65 Q2889.14 1150.36 2889.14 1155.49 Q2889.14 1160.62 2891.51 1163.34 Q2893.87 1166.05 2898.31 1166.05 Q2900.57 1166.05 2902.56 1165.23 Q2904.58 1164.42 2906.35 1162.77 L2906.35 1166.43 Q2904.51 1167.68 2902.44 1168.31 Q2900.39 1168.93 2898.1 1168.93 Q2892.22 1168.93 2888.83 1165.34 Q2885.45 1161.73 2885.45 1155.49 Q2885.45 1149.24 2888.83 1145.65 Q2892.22 1142.04 2898.1 1142.04 Q2900.43 1142.04 2902.48 1142.66 Q2904.54 1143.27 2906.35 1144.5 Z" fill="#000000" fill-rule="nonzero" fill-opacity="1" /><path clip-path="url(#clip120)" d="M2915.74 1141.26 L2915.74 1176.81 L2912.79 1176.81 L2912.79 1141.26 L2915.74 1141.26 Z" fill="#000000" fill-rule="nonzero" fill-opacity="1" /><path clip-path="url(#clip120)" d="M2937.51 1157.54 Q2937.63 1158.83 2938.73 1160.91 Q2940.01 1163.32 2942.44 1164.68 Q2944.82 1166 2947.39 1166.01 L2959.49 1166.01 L2959.49 1168.78 L2947.39 1168.78 Q2944.06 1168.78 2940.97 1167.06 Q2937.89 1165.34 2936.25 1162.28 Q2934.6 1159.23 2934.6 1155.98 Q2934.6 1152.77 2936.25 1149.71 Q2937.89 1146.66 2940.97 1144.92 Q2944.06 1143.18 2947.39 1143.18 L2959.49 1143.18 L2959.49 1145.95 L2947.39 1145.95 Q2944.82 1145.96 2942.44 1147.3 Q2940.03 1148.67 2938.73 1151.07 Q2937.62 1153.15 2937.46 1154.76 L2959.49 1154.76 L2959.49 1157.54 L2937.51 1157.54 Z" fill="#000000" fill-rule="nonzero" fill-opacity="1" /><path clip-path="url(#clip120)" d="M2976.89 1141.41 L2984.25 1141.41 L2984.25 1143.9 L2980.08 1143.9 L2980.08 1170.63 L2984.25 1170.63 L2984.25 1173.12 L2976.89 1173.12 L2976.89 1141.41 Z" fill="#000000" fill-rule="nonzero" fill-opacity="1" /><path clip-path="url(#clip120)" d="M2999.44 1154.07 Q2997.08 1154.07 2995.69 1155.68 Q2994.32 1157.3 2994.32 1160.11 Q2994.32 1162.91 2995.69 1164.54 Q2997.08 1166.15 2999.44 1166.15 Q3001.8 1166.15 3003.17 1164.54 Q3004.56 1162.91 3004.56 1160.11 Q3004.56 1157.3 3003.17 1155.68 Q3001.8 1154.07 2999.44 1154.07 M3006.4 1143.08 L3006.4 1146.28 Q3005.08 1145.65 3003.73 1145.32 Q3002.39 1144.99 3001.07 1144.99 Q2997.6 1144.99 2995.76 1147.33 Q2993.94 1149.68 2993.68 1154.42 Q2994.7 1152.91 2996.25 1152.11 Q2997.79 1151.29 2999.65 1151.29 Q3003.55 1151.29 3005.81 1153.67 Q3008.09 1156.03 3008.09 1160.11 Q3008.09 1164.1 3005.72 1166.52 Q3003.36 1168.93 2999.44 1168.93 Q2994.94 1168.93 2992.56 1165.49 Q2990.19 1162.04 2990.19 1155.49 Q2990.19 1149.35 2993.1 1145.7 Q2996.02 1142.04 3000.93 1142.04 Q3002.25 1142.04 3003.59 1142.3 Q3004.94 1142.56 3006.4 1143.08 Z" fill="#000000" fill-rule="nonzero" fill-opacity="1" /><path clip-path="url(#clip120)" d="M3021.14 1141.41 L3021.14 1173.12 L3013.78 1173.12 L3013.78 1170.63 L3017.93 1170.63 L3017.93 1143.9 L3013.78 1143.9 L3013.78 1141.41 L3021.14 1141.41 Z" fill="#000000" fill-rule="nonzero" fill-opacity="1" /><polyline clip-path="url(#clip123)" style="stroke:#000000; stroke-linecap:round; stroke-linejoin:round; stroke-width:2; stroke-opacity:0.1; fill:none" points="1779.44,1081.75 3152.76,1081.75 "/>
<polyline clip-path="url(#clip123)" style="stroke:#000000; stroke-linecap:round; stroke-linejoin:round; stroke-width:2; stroke-opacity:0.1; fill:none" points="1779.44,846.844 3152.76,846.844 "/>
<polyline clip-path="url(#clip123)" style="stroke:#000000; stroke-linecap:round; stroke-linejoin:round; stroke-width:2; stroke-opacity:0.1; fill:none" points="1779.44,611.942 3152.76,611.942 "/>
<polyline clip-path="url(#clip123)" style="stroke:#000000; stroke-linecap:round; stroke-linejoin:round; stroke-width:2; stroke-opacity:0.1; fill:none" points="1779.44,377.039 3152.76,377.039 "/>
<polyline clip-path="url(#clip123)" style="stroke:#000000; stroke-linecap:round; stroke-linejoin:round; stroke-width:2; stroke-opacity:0.1; fill:none" points="1779.44,142.137 3152.76,142.137 "/>
<polyline clip-path="url(#clip120)" style="stroke:#000000; stroke-linecap:round; stroke-linejoin:round; stroke-width:4; stroke-opacity:1; fill:none" points="1779.44,1110.43 1779.44,97.0121 "/>
<polyline clip-path="url(#clip120)" style="stroke:#000000; stroke-linecap:round; stroke-linejoin:round; stroke-width:4; stroke-opacity:1; fill:none" points="1779.44,1081.75 1798.33,1081.75 "/>
<polyline clip-path="url(#clip120)" style="stroke:#000000; stroke-linecap:round; stroke-linejoin:round; stroke-width:4; stroke-opacity:1; fill:none" points="1779.44,846.844 1798.33,846.844 "/>
<polyline clip-path="url(#clip120)" style="stroke:#000000; stroke-linecap:round; stroke-linejoin:round; stroke-width:4; stroke-opacity:1; fill:none" points="1779.44,611.942 1798.33,611.942 "/>
<polyline clip-path="url(#clip120)" style="stroke:#000000; stroke-linecap:round; stroke-linejoin:round; stroke-width:4; stroke-opacity:1; fill:none" points="1779.44,377.039 1798.33,377.039 "/>
<polyline clip-path="url(#clip120)" style="stroke:#000000; stroke-linecap:round; stroke-linejoin:round; stroke-width:4; stroke-opacity:1; fill:none" points="1779.44,142.137 1798.33,142.137 "/>
<path clip-path="url(#clip120)" d="M1719.49 1067.54 Q1715.88 1067.54 1714.05 1071.11 Q1712.25 1074.65 1712.25 1081.78 Q1712.25 1088.89 1714.05 1092.45 Q1715.88 1095.99 1719.49 1095.99 Q1723.13 1095.99 1724.93 1092.45 Q1726.76 1088.89 1726.76 1081.78 Q1726.76 1074.65 1724.93 1071.11 Q1723.13 1067.54 1719.49 1067.54 M1719.49 1063.84 Q1725.3 1063.84 1728.36 1068.45 Q1731.44 1073.03 1731.44 1081.78 Q1731.44 1090.51 1728.36 1095.11 Q1725.3 1099.7 1719.49 1099.7 Q1713.68 1099.7 1710.6 1095.11 Q1707.55 1090.51 1707.55 1081.78 Q1707.55 1073.03 1710.6 1068.45 Q1713.68 1063.84 1719.49 1063.84 Z" fill="#000000" fill-rule="nonzero" fill-opacity="1" /><path clip-path="url(#clip120)" d="M1653.2 860.189 L1669.52 860.189 L1669.52 864.124 L1647.57 864.124 L1647.57 860.189 Q1650.23 857.434 1654.82 852.805 Q1659.42 848.152 1660.6 846.809 Q1662.85 844.286 1663.73 842.55 Q1664.63 840.791 1664.63 839.101 Q1664.63 836.346 1662.69 834.61 Q1660.77 832.874 1657.66 832.874 Q1655.46 832.874 1653.01 833.638 Q1650.58 834.402 1647.8 835.953 L1647.8 831.231 Q1650.63 830.096 1653.08 829.518 Q1655.53 828.939 1657.57 828.939 Q1662.94 828.939 1666.14 831.624 Q1669.33 834.309 1669.33 838.8 Q1669.33 840.93 1668.52 842.851 Q1667.73 844.749 1665.63 847.342 Q1665.05 848.013 1661.95 851.23 Q1658.84 854.425 1653.2 860.189 Z" fill="#000000" fill-rule="nonzero" fill-opacity="1" /><path clip-path="url(#clip120)" d="M1689.33 832.643 Q1685.72 832.643 1683.89 836.207 Q1682.08 839.749 1682.08 846.879 Q1682.08 853.985 1683.89 857.55 Q1685.72 861.092 1689.33 861.092 Q1692.96 861.092 1694.77 857.55 Q1696.6 853.985 1696.6 846.879 Q1696.6 839.749 1694.77 836.207 Q1692.96 832.643 1689.33 832.643 M1689.33 828.939 Q1695.14 828.939 1698.2 833.545 Q1701.27 838.129 1701.27 846.879 Q1701.27 855.605 1698.2 860.212 Q1695.14 864.795 1689.33 864.795 Q1683.52 864.795 1680.44 860.212 Q1677.39 855.605 1677.39 846.879 Q1677.39 838.129 1680.44 833.545 Q1683.52 828.939 1689.33 828.939 Z" fill="#000000" fill-rule="nonzero" fill-opacity="1" /><path clip-path="url(#clip120)" d="M1719.49 832.643 Q1715.88 832.643 1714.05 836.207 Q1712.25 839.749 1712.25 846.879 Q1712.25 853.985 1714.05 857.55 Q1715.88 861.092 1719.49 861.092 Q1723.13 861.092 1724.93 857.55 Q1726.76 853.985 1726.76 846.879 Q1726.76 839.749 1724.93 836.207 Q1723.13 832.643 1719.49 832.643 M1719.49 828.939 Q1725.3 828.939 1728.36 833.545 Q1731.44 838.129 1731.44 846.879 Q1731.44 855.605 1728.36 860.212 Q1725.3 864.795 1719.49 864.795 Q1713.68 864.795 1710.6 860.212 Q1707.55 855.605 1707.55 846.879 Q1707.55 838.129 1710.6 833.545 Q1713.68 828.939 1719.49 828.939 Z" fill="#000000" fill-rule="nonzero" fill-opacity="1" /><path clip-path="url(#clip120)" d="M1662.02 598.736 L1650.21 617.185 L1662.02 617.185 L1662.02 598.736 M1660.79 594.662 L1666.67 594.662 L1666.67 617.185 L1671.6 617.185 L1671.6 621.073 L1666.67 621.073 L1666.67 629.222 L1662.02 629.222 L1662.02 621.073 L1646.41 621.073 L1646.41 616.56 L1660.79 594.662 Z" fill="#000000" fill-rule="nonzero" fill-opacity="1" /><path clip-path="url(#clip120)" d="M1689.33 597.74 Q1685.72 597.74 1683.89 601.305 Q1682.08 604.847 1682.08 611.976 Q1682.08 619.083 1683.89 622.648 Q1685.72 626.189 1689.33 626.189 Q1692.96 626.189 1694.77 622.648 Q1696.6 619.083 1696.6 611.976 Q1696.6 604.847 1694.77 601.305 Q1692.96 597.74 1689.33 597.74 M1689.33 594.037 Q1695.14 594.037 1698.2 598.643 Q1701.27 603.226 1701.27 611.976 Q1701.27 620.703 1698.2 625.31 Q1695.14 629.893 1689.33 629.893 Q1683.52 629.893 1680.44 625.31 Q1677.39 620.703 1677.39 611.976 Q1677.39 603.226 1680.44 598.643 Q1683.52 594.037 1689.33 594.037 Z" fill="#000000" fill-rule="nonzero" fill-opacity="1" /><path clip-path="url(#clip120)" d="M1719.49 597.74 Q1715.88 597.74 1714.05 601.305 Q1712.25 604.847 1712.25 611.976 Q1712.25 619.083 1714.05 622.648 Q1715.88 626.189 1719.49 626.189 Q1723.13 626.189 1724.93 622.648 Q1726.76 619.083 1726.76 611.976 Q1726.76 604.847 1724.93 601.305 Q1723.13 597.74 1719.49 597.74 M1719.49 594.037 Q1725.3 594.037 1728.36 598.643 Q1731.44 603.226 1731.44 611.976 Q1731.44 620.703 1728.36 625.31 Q1725.3 629.893 1719.49 629.893 Q1713.68 629.893 1710.6 625.31 Q1707.55 620.703 1707.55 611.976 Q1707.55 603.226 1710.6 598.643 Q1713.68 594.037 1719.49 594.037 Z" fill="#000000" fill-rule="nonzero" fill-opacity="1" /><path clip-path="url(#clip120)" d="M1659.75 375.176 Q1656.6 375.176 1654.75 377.329 Q1652.92 379.481 1652.92 383.231 Q1652.92 386.958 1654.75 389.134 Q1656.6 391.287 1659.75 391.287 Q1662.89 391.287 1664.72 389.134 Q1666.58 386.958 1666.58 383.231 Q1666.58 379.481 1664.72 377.329 Q1662.89 375.176 1659.75 375.176 M1669.03 360.523 L1669.03 364.782 Q1667.27 363.949 1665.46 363.509 Q1663.68 363.069 1661.92 363.069 Q1657.29 363.069 1654.84 366.194 Q1652.41 369.319 1652.06 375.639 Q1653.43 373.625 1655.49 372.56 Q1657.55 371.472 1660.02 371.472 Q1665.23 371.472 1668.24 374.643 Q1671.27 377.792 1671.27 383.231 Q1671.27 388.555 1668.13 391.773 Q1664.98 394.991 1659.75 394.991 Q1653.75 394.991 1650.58 390.407 Q1647.41 385.801 1647.41 377.074 Q1647.41 368.88 1651.3 364.018 Q1655.19 359.134 1661.74 359.134 Q1663.5 359.134 1665.28 359.481 Q1667.08 359.829 1669.03 360.523 Z" fill="#000000" fill-rule="nonzero" fill-opacity="1" /><path clip-path="url(#clip120)" d="M1689.33 362.838 Q1685.72 362.838 1683.89 366.403 Q1682.08 369.944 1682.08 377.074 Q1682.08 384.18 1683.89 387.745 Q1685.72 391.287 1689.33 391.287 Q1692.96 391.287 1694.77 387.745 Q1696.6 384.18 1696.6 377.074 Q1696.6 369.944 1694.77 366.403 Q1692.96 362.838 1689.33 362.838 M1689.33 359.134 Q1695.14 359.134 1698.2 363.741 Q1701.27 368.324 1701.27 377.074 Q1701.27 385.801 1698.2 390.407 Q1695.14 394.991 1689.33 394.991 Q1683.52 394.991 1680.44 390.407 Q1677.39 385.801 1677.39 377.074 Q1677.39 368.324 1680.44 363.741 Q1683.52 359.134 1689.33 359.134 Z" fill="#000000" fill-rule="nonzero" fill-opacity="1" /><path clip-path="url(#clip120)" d="M1719.49 362.838 Q1715.88 362.838 1714.05 366.403 Q1712.25 369.944 1712.25 377.074 Q1712.25 384.18 1714.05 387.745 Q1715.88 391.287 1719.49 391.287 Q1723.13 391.287 1724.93 387.745 Q1726.76 384.18 1726.76 377.074 Q1726.76 369.944 1724.93 366.403 Q1723.13 362.838 1719.49 362.838 M1719.49 359.134 Q1725.3 359.134 1728.36 363.741 Q1731.44 368.324 1731.44 377.074 Q1731.44 385.801 1728.36 390.407 Q1725.3 394.991 1719.49 394.991 Q1713.68 394.991 1710.6 390.407 Q1707.55 385.801 1707.55 377.074 Q1707.55 368.324 1710.6 363.741 Q1713.68 359.134 1719.49 359.134 Z" fill="#000000" fill-rule="nonzero" fill-opacity="1" /><path clip-path="url(#clip120)" d="M1659.17 143.005 Q1655.83 143.005 1653.91 144.787 Q1652.02 146.57 1652.02 149.695 Q1652.02 152.82 1653.91 154.602 Q1655.83 156.384 1659.17 156.384 Q1662.5 156.384 1664.42 154.602 Q1666.34 152.797 1666.34 149.695 Q1666.34 146.57 1664.42 144.787 Q1662.52 143.005 1659.17 143.005 M1654.49 141.014 Q1651.48 140.273 1649.79 138.213 Q1648.13 136.153 1648.13 133.19 Q1648.13 129.047 1651.07 126.639 Q1654.03 124.232 1659.17 124.232 Q1664.33 124.232 1667.27 126.639 Q1670.21 129.047 1670.21 133.19 Q1670.21 136.153 1668.52 138.213 Q1666.85 140.273 1663.87 141.014 Q1667.25 141.801 1669.12 144.093 Q1671.02 146.385 1671.02 149.695 Q1671.02 154.718 1667.94 157.403 Q1664.89 160.088 1659.17 160.088 Q1653.45 160.088 1650.37 157.403 Q1647.32 154.718 1647.32 149.695 Q1647.32 146.385 1649.21 144.093 Q1651.11 141.801 1654.49 141.014 M1652.78 133.63 Q1652.78 136.315 1654.45 137.82 Q1656.14 139.324 1659.17 139.324 Q1662.18 139.324 1663.87 137.82 Q1665.58 136.315 1665.58 133.63 Q1665.58 130.945 1663.87 129.44 Q1662.18 127.936 1659.17 127.936 Q1656.14 127.936 1654.45 129.44 Q1652.78 130.945 1652.78 133.63 Z" fill="#000000" fill-rule="nonzero" fill-opacity="1" /><path clip-path="url(#clip120)" d="M1689.33 127.936 Q1685.72 127.936 1683.89 131.5 Q1682.08 135.042 1682.08 142.172 Q1682.08 149.278 1683.89 152.843 Q1685.72 156.384 1689.33 156.384 Q1692.96 156.384 1694.77 152.843 Q1696.6 149.278 1696.6 142.172 Q1696.6 135.042 1694.77 131.5 Q1692.96 127.936 1689.33 127.936 M1689.33 124.232 Q1695.14 124.232 1698.2 128.838 Q1701.27 133.422 1701.27 142.172 Q1701.27 150.898 1698.2 155.505 Q1695.14 160.088 1689.33 160.088 Q1683.52 160.088 1680.44 155.505 Q1677.39 150.898 1677.39 142.172 Q1677.39 133.422 1680.44 128.838 Q1683.52 124.232 1689.33 124.232 Z" fill="#000000" fill-rule="nonzero" fill-opacity="1" /><path clip-path="url(#clip120)" d="M1719.49 127.936 Q1715.88 127.936 1714.05 131.5 Q1712.25 135.042 1712.25 142.172 Q1712.25 149.278 1714.05 152.843 Q1715.88 156.384 1719.49 156.384 Q1723.13 156.384 1724.93 152.843 Q1726.76 149.278 1726.76 142.172 Q1726.76 135.042 1724.93 131.5 Q1723.13 127.936 1719.49 127.936 M1719.49 124.232 Q1725.3 124.232 1728.36 128.838 Q1731.44 133.422 1731.44 142.172 Q1731.44 150.898 1728.36 155.505 Q1725.3 160.088 1719.49 160.088 Q1713.68 160.088 1710.6 155.505 Q1707.55 150.898 1707.55 142.172 Q1707.55 133.422 1710.6 128.838 Q1713.68 124.232 1719.49 124.232 Z" fill="#000000" fill-rule="nonzero" fill-opacity="1" /><path clip-path="url(#clip120)" d="M2154.03 28.5427 L2154.03 35.5912 Q2150.87 33.9709 2147.47 33.1607 Q2144.07 32.3505 2140.42 32.3505 Q2134.87 32.3505 2132.08 34.0519 Q2129.32 35.7533 2129.32 39.156 Q2129.32 41.7486 2131.31 43.2475 Q2133.29 44.7058 2139.29 46.0426 L2141.84 46.6097 Q2149.78 48.3111 2153.1 51.4303 Q2156.47 54.509 2156.47 60.0587 Q2156.47 66.3781 2151.44 70.0644 Q2146.46 73.7508 2137.71 73.7508 Q2134.06 73.7508 2130.09 73.0216 Q2126.16 72.3329 2121.79 70.9151 L2121.79 63.2184 Q2125.92 65.3654 2129.93 66.4591 Q2133.94 67.5124 2137.87 67.5124 Q2143.14 67.5124 2145.97 65.73 Q2148.81 63.9071 2148.81 60.6258 Q2148.81 57.5877 2146.74 55.9673 Q2144.72 54.3469 2137.79 52.8481 L2135.2 52.2405 Q2128.27 50.7821 2125.19 47.7845 Q2122.11 44.7463 2122.11 39.4801 Q2122.11 33.0797 2126.65 29.5959 Q2131.19 26.1121 2139.53 26.1121 Q2143.66 26.1121 2147.31 26.7198 Q2150.96 27.3274 2154.03 28.5427 Z" fill="#000000" fill-rule="nonzero" fill-opacity="1" /><path clip-path="url(#clip120)" d="M2168.33 27.2059 L2175.79 27.2059 L2175.79 72.576 L2168.33 72.576 L2168.33 27.2059 M2168.33 9.54393 L2175.79 9.54393 L2175.79 18.9825 L2168.33 18.9825 L2168.33 9.54393 Z" fill="#000000" fill-rule="nonzero" fill-opacity="1" /><path clip-path="url(#clip120)" d="M2226.71 35.9153 Q2229.5 30.8922 2233.39 28.5022 Q2237.28 26.1121 2242.55 26.1121 Q2249.64 26.1121 2253.48 31.0947 Q2257.33 36.0368 2257.33 45.1919 L2257.33 72.576 L2249.84 72.576 L2249.84 45.4349 Q2249.84 38.913 2247.53 35.7533 Q2245.22 32.5936 2240.48 32.5936 Q2234.69 32.5936 2231.33 36.4419 Q2227.96 40.2903 2227.96 46.9338 L2227.96 72.576 L2220.47 72.576 L2220.47 45.4349 Q2220.47 38.8725 2218.16 35.7533 Q2215.85 32.5936 2211.03 32.5936 Q2205.32 32.5936 2201.96 36.4824 Q2198.59 40.3308 2198.59 46.9338 L2198.59 72.576 L2191.1 72.576 L2191.1 27.2059 L2198.59 27.2059 L2198.59 34.2544 Q2201.15 30.082 2204.71 28.0971 Q2208.28 26.1121 2213.18 26.1121 Q2218.12 26.1121 2221.56 28.6237 Q2225.05 31.1352 2226.71 35.9153 Z" fill="#000000" fill-rule="nonzero" fill-opacity="1" /><path clip-path="url(#clip120)" d="M2279.41 65.7705 L2279.41 89.8329 L2271.92 89.8329 L2271.92 27.2059 L2279.41 27.2059 L2279.41 34.0924 Q2281.76 30.0415 2285.32 28.0971 Q2288.93 26.1121 2293.91 26.1121 Q2302.18 26.1121 2307.32 32.6746 Q2312.51 39.2371 2312.51 49.9314 Q2312.51 60.6258 2307.32 67.1883 Q2302.18 73.7508 2293.91 73.7508 Q2288.93 73.7508 2285.32 71.8063 Q2281.76 69.8214 2279.41 65.7705 M2304.77 49.9314 Q2304.77 41.7081 2301.37 37.0496 Q2298 32.3505 2292.09 32.3505 Q2286.18 32.3505 2282.77 37.0496 Q2279.41 41.7081 2279.41 49.9314 Q2279.41 58.1548 2282.77 62.8538 Q2286.18 67.5124 2292.09 67.5124 Q2298 67.5124 2301.37 62.8538 Q2304.77 58.1548 2304.77 49.9314 Z" fill="#000000" fill-rule="nonzero" fill-opacity="1" /><path clip-path="url(#clip120)" d="M2324.86 9.54393 L2332.31 9.54393 L2332.31 72.576 L2324.86 72.576 L2324.86 9.54393 Z" fill="#000000" fill-rule="nonzero" fill-opacity="1" /><path clip-path="url(#clip120)" d="M2386.72 48.0275 L2386.72 51.6733 L2352.45 51.6733 Q2352.93 59.3701 2357.07 63.421 Q2361.24 67.4314 2368.65 67.4314 Q2372.95 67.4314 2376.96 66.3781 Q2381.01 65.3249 2384.98 63.2184 L2384.98 70.267 Q2380.97 71.9684 2376.75 72.8596 Q2372.54 73.7508 2368.21 73.7508 Q2357.35 73.7508 2350.99 67.4314 Q2344.67 61.1119 2344.67 50.3365 Q2344.67 39.1965 2350.67 32.6746 Q2356.7 26.1121 2366.91 26.1121 Q2376.06 26.1121 2381.37 32.0264 Q2386.72 37.9003 2386.72 48.0275 M2379.26 45.84 Q2379.18 39.7232 2375.82 36.0774 Q2372.5 32.4315 2366.99 32.4315 Q2360.75 32.4315 2356.98 35.9558 Q2353.26 39.4801 2352.69 45.8805 L2379.26 45.84 Z" fill="#000000" fill-rule="nonzero" fill-opacity="1" /><path clip-path="url(#clip120)" d="M2433.43 86.3491 L2433.43 92.1419 L2390.32 92.1419 L2390.32 86.3491 L2433.43 86.3491 Z" fill="#000000" fill-rule="nonzero" fill-opacity="1" /><path clip-path="url(#clip120)" d="M2440.43 27.2059 L2447.89 27.2059 L2447.89 72.576 L2440.43 72.576 L2440.43 27.2059 M2440.43 9.54393 L2447.89 9.54393 L2447.89 18.9825 L2440.43 18.9825 L2440.43 9.54393 Z" fill="#000000" fill-rule="nonzero" fill-opacity="1" /><path clip-path="url(#clip120)" d="M2501.2 45.1919 L2501.2 72.576 L2493.74 72.576 L2493.74 45.4349 Q2493.74 38.994 2491.23 35.7938 Q2488.72 32.5936 2483.7 32.5936 Q2477.66 32.5936 2474.18 36.4419 Q2470.69 40.2903 2470.69 46.9338 L2470.69 72.576 L2463.2 72.576 L2463.2 27.2059 L2470.69 27.2059 L2470.69 34.2544 Q2473.37 30.163 2476.97 28.1376 Q2480.62 26.1121 2485.36 26.1121 Q2493.18 26.1121 2497.19 30.9732 Q2501.2 35.7938 2501.2 45.1919 Z" fill="#000000" fill-rule="nonzero" fill-opacity="1" /><path clip-path="url(#clip120)" d="M2545.92 34.0924 L2545.92 9.54393 L2553.37 9.54393 L2553.37 72.576 L2545.92 72.576 L2545.92 65.7705 Q2543.57 69.8214 2539.96 71.8063 Q2536.4 73.7508 2531.38 73.7508 Q2523.15 73.7508 2517.97 67.1883 Q2512.82 60.6258 2512.82 49.9314 Q2512.82 39.2371 2517.97 32.6746 Q2523.15 26.1121 2531.38 26.1121 Q2536.4 26.1121 2539.96 28.0971 Q2543.57 30.0415 2545.92 34.0924 M2520.52 49.9314 Q2520.52 58.1548 2523.88 62.8538 Q2527.28 67.5124 2533.2 67.5124 Q2539.11 67.5124 2542.52 62.8538 Q2545.92 58.1548 2545.92 49.9314 Q2545.92 41.7081 2542.52 37.0496 Q2539.11 32.3505 2533.2 32.3505 Q2527.28 32.3505 2523.88 37.0496 Q2520.52 41.7081 2520.52 49.9314 Z" fill="#000000" fill-rule="nonzero" fill-opacity="1" /><path clip-path="url(#clip120)" d="M2567.96 54.671 L2567.96 27.2059 L2575.41 27.2059 L2575.41 54.3874 Q2575.41 60.8284 2577.92 64.0691 Q2580.43 67.2693 2585.46 67.2693 Q2591.49 67.2693 2594.98 63.421 Q2598.5 59.5726 2598.5 52.9291 L2598.5 27.2059 L2605.95 27.2059 L2605.95 72.576 L2598.5 72.576 L2598.5 65.6084 Q2595.79 69.7404 2592.18 71.7658 Q2588.62 73.7508 2583.88 73.7508 Q2576.06 73.7508 2572.01 68.8897 Q2567.96 64.0286 2567.96 54.671 M2586.71 26.1121 L2586.71 26.1121 Z" fill="#000000" fill-rule="nonzero" fill-opacity="1" /><path clip-path="url(#clip120)" d="M2653.96 28.9478 L2653.96 35.9153 Q2650.8 34.1734 2647.6 33.3227 Q2644.44 32.4315 2641.2 32.4315 Q2633.95 32.4315 2629.93 37.0496 Q2625.92 41.6271 2625.92 49.9314 Q2625.92 58.2358 2629.93 62.8538 Q2633.95 67.4314 2641.2 67.4314 Q2644.44 67.4314 2647.6 66.5807 Q2650.8 65.6895 2653.96 63.9476 L2653.96 70.8341 Q2650.84 72.2924 2647.48 73.0216 Q2644.15 73.7508 2640.39 73.7508 Q2630.14 73.7508 2624.1 67.3098 Q2618.07 60.8689 2618.07 49.9314 Q2618.07 38.832 2624.14 32.472 Q2630.26 26.1121 2640.87 26.1121 Q2644.32 26.1121 2647.6 26.8413 Q2650.88 27.5299 2653.96 28.9478 Z" fill="#000000" fill-rule="nonzero" fill-opacity="1" /><path clip-path="url(#clip120)" d="M2674.29 14.324 L2674.29 27.2059 L2689.65 27.2059 L2689.65 32.9987 L2674.29 32.9987 L2674.29 57.6282 Q2674.29 63.1779 2675.79 64.7578 Q2677.33 66.3376 2681.99 66.3376 L2689.65 66.3376 L2689.65 72.576 L2681.99 72.576 Q2673.36 72.576 2670.08 69.3758 Q2666.8 66.1351 2666.8 57.6282 L2666.8 32.9987 L2661.33 32.9987 L2661.33 27.2059 L2666.8 27.2059 L2666.8 14.324 L2674.29 14.324 Z" fill="#000000" fill-rule="nonzero" fill-opacity="1" /><path clip-path="url(#clip120)" d="M2699.45 27.2059 L2706.9 27.2059 L2706.9 72.576 L2699.45 72.576 L2699.45 27.2059 M2699.45 9.54393 L2706.9 9.54393 L2706.9 18.9825 L2699.45 18.9825 L2699.45 9.54393 Z" fill="#000000" fill-rule="nonzero" fill-opacity="1" /><path clip-path="url(#clip120)" d="M2717.15 27.2059 L2725.05 27.2059 L2739.23 65.2844 L2753.41 27.2059 L2761.31 27.2059 L2744.29 72.576 L2734.16 72.576 L2717.15 27.2059 Z" fill="#000000" fill-rule="nonzero" fill-opacity="1" /><path clip-path="url(#clip120)" d="M2810.4 48.0275 L2810.4 51.6733 L2776.13 51.6733 Q2776.62 59.3701 2780.75 63.421 Q2784.92 67.4314 2792.34 67.4314 Q2796.63 67.4314 2800.64 66.3781 Q2804.69 65.3249 2808.66 63.2184 L2808.66 70.267 Q2804.65 71.9684 2800.44 72.8596 Q2796.22 73.7508 2791.89 73.7508 Q2781.03 73.7508 2774.67 67.4314 Q2768.35 61.1119 2768.35 50.3365 Q2768.35 39.1965 2774.35 32.6746 Q2780.39 26.1121 2790.59 26.1121 Q2799.75 26.1121 2805.06 32.0264 Q2810.4 37.9003 2810.4 48.0275 M2802.95 45.84 Q2802.87 39.7232 2799.51 36.0774 Q2796.18 32.4315 2790.67 32.4315 Q2784.44 32.4315 2780.67 35.9558 Q2776.94 39.4801 2776.38 45.8805 L2802.95 45.84 Z" fill="#000000" fill-rule="nonzero" fill-opacity="1" /><path clip-path="url(#clip123)" d="M1854.97 125.694 L1854.97 1081.75 L2112.29 1081.75 L2112.29 125.694 L1854.97 125.694 L1854.97 125.694  Z" fill="#e69f00" fill-rule="evenodd" fill-opacity="1"/>
<polyline clip-path="url(#clip123)" style="stroke:#000000; stroke-linecap:round; stroke-linejoin:round; stroke-width:4; stroke-opacity:1; fill:none" points="1854.97,125.694 1854.97,1081.75 2112.29,1081.75 2112.29,125.694 1854.97,125.694 "/>
<path clip-path="url(#clip123)" d="M2176.62 904.395 L2176.62 1081.75 L2433.93 1081.75 L2433.93 904.395 L2176.62 904.395 L2176.62 904.395  Z" fill="#e69f00" fill-rule="evenodd" fill-opacity="1"/>
<polyline clip-path="url(#clip123)" style="stroke:#000000; stroke-linecap:round; stroke-linejoin:round; stroke-width:4; stroke-opacity:1; fill:none" points="2176.62,904.395 2176.62,1081.75 2433.93,1081.75 2433.93,904.395 2176.62,904.395 "/>
<path clip-path="url(#clip123)" d="M2498.26 1045.34 L2498.26 1081.75 L2755.58 1081.75 L2755.58 1045.34 L2498.26 1045.34 L2498.26 1045.34  Z" fill="#e69f00" fill-rule="evenodd" fill-opacity="1"/>
<polyline clip-path="url(#clip123)" style="stroke:#000000; stroke-linecap:round; stroke-linejoin:round; stroke-width:4; stroke-opacity:1; fill:none" points="2498.26,1045.34 2498.26,1081.75 2755.58,1081.75 2755.58,1045.34 2498.26,1045.34 "/>
<path clip-path="url(#clip123)" d="M2819.91 1077.05 L2819.91 1081.75 L3077.22 1081.75 L3077.22 1077.05 L2819.91 1077.05 L2819.91 1077.05  Z" fill="#e69f00" fill-rule="evenodd" fill-opacity="1"/>
<polyline clip-path="url(#clip123)" style="stroke:#000000; stroke-linecap:round; stroke-linejoin:round; stroke-width:4; stroke-opacity:1; fill:none" points="2819.91,1077.05 2819.91,1081.75 3077.22,1081.75 3077.22,1077.05 2819.91,1077.05 "/>
<circle clip-path="url(#clip123)" style="fill:#e69f00; stroke:none; fill-opacity:0" cx="1983.63" cy="125.694" r="2"/>
<circle clip-path="url(#clip123)" style="fill:#e69f00; stroke:none; fill-opacity:0" cx="2305.27" cy="904.395" r="2"/>
<circle clip-path="url(#clip123)" style="fill:#e69f00; stroke:none; fill-opacity:0" cx="2626.92" cy="1045.34" r="2"/>
<circle clip-path="url(#clip123)" style="fill:#e69f00; stroke:none; fill-opacity:0" cx="2948.56" cy="1077.05" r="2"/>
</svg>
