<?xml version="1.0" encoding="utf-8"?>
<svg xmlns="http://www.w3.org/2000/svg" xmlns:xlink="http://www.w3.org/1999/xlink" width="800" height="300" viewBox="0 0 3200 1200">
<defs>
  <clipPath id="clip900">
    <rect x="0" y="0" width="3200" height="1200"/>
  </clipPath>
</defs>
<path clip-path="url(#clip900)" d="
M0 1200 L3200 1200 L3200 0 L0 0  Z
  " fill="#ffffff" fill-rule="evenodd" fill-opacity="1"/>
<defs>
  <clipPath id="clip901">
    <rect x="640" y="0" width="2241" height="1200"/>
  </clipPath>
</defs>
<path clip-path="url(#clip900)" d="
M178.857 1110.43 L1552.18 1110.43 L1552.18 97.0121 L178.857 97.0121  Z
  " fill="#ffffff" fill-rule="evenodd" fill-opacity="1"/>
<defs>
  <clipPath id="clip902">
    <rect x="178" y="97" width="1374" height="1014"/>
  </clipPath>
</defs>
<polyline clip-path="url(#clip902)" style="stroke:#000000; stroke-linecap:round; stroke-linejoin:round; stroke-width:2; stroke-opacity:0.1; fill:none" points="
  338.686,1110.43 338.686,97.0121 
  "/>
<polyline clip-path="url(#clip902)" style="stroke:#000000; stroke-linecap:round; stroke-linejoin:round; stroke-width:2; stroke-opacity:0.1; fill:none" points="
  549.418,1110.43 549.418,97.0121 
  "/>
<polyline clip-path="url(#clip902)" style="stroke:#000000; stroke-linecap:round; stroke-linejoin:round; stroke-width:2; stroke-opacity:0.1; fill:none" points="
  760.151,1110.43 760.151,97.0121 
  "/>
<polyline clip-path="url(#clip902)" style="stroke:#000000; stroke-linecap:round; stroke-linejoin:round; stroke-width:2; stroke-opacity:0.1; fill:none" points="
  970.884,1110.43 970.884,97.0121 
  "/>
<polyline clip-path="url(#clip902)" style="stroke:#000000; stroke-linecap:round; stroke-linejoin:round; stroke-width:2; stroke-opacity:0.1; fill:none" points="
  1181.62,1110.43 1181.62,97.0121 
  "/>
<polyline clip-path="url(#clip902)" style="stroke:#000000; stroke-linecap:round; stroke-linejoin:round; stroke-width:2; stroke-opacity:0.1; fill:none" points="
  1392.35,1110.43 1392.35,97.0121 
  "/>
<polyline clip-path="url(#clip900)" style="stroke:#000000; stroke-linecap:round; stroke-linejoin:round; stroke-width:4; stroke-opacity:1; fill:none" points="
  178.857,1110.43 1552.18,1110.43 
  "/>
<polyline clip-path="url(#clip900)" style="stroke:#000000; stroke-linecap:round; stroke-linejoin:round; stroke-width:4; stroke-opacity:1; fill:none" points="
  338.686,1110.43 338.686,1091.53 
  "/>
<polyline clip-path="url(#clip900)" style="stroke:#000000; stroke-linecap:round; stroke-linejoin:round; stroke-width:4; stroke-opacity:1; fill:none" points="
  549.418,1110.43 549.418,1091.53 
  "/>
<polyline clip-path="url(#clip900)" style="stroke:#000000; stroke-linecap:round; stroke-linejoin:round; stroke-width:4; stroke-opacity:1; fill:none" points="
  760.151,1110.43 760.151,1091.53 
  "/>
<polyline clip-path="url(#clip900)" style="stroke:#000000; stroke-linecap:round; stroke-linejoin:round; stroke-width:4; stroke-opacity:1; fill:none" points="
  970.884,1110.43 970.884,1091.53 
  "/>
<polyline clip-path="url(#clip900)" style="stroke:#000000; stroke-linecap:round; stroke-linejoin:round; stroke-width:4; stroke-opacity:1; fill:none" points="
  1181.62,1110.43 1181.62,1091.53 
  "/>
<polyline clip-path="url(#clip900)" style="stroke:#000000; stroke-linecap:round; stroke-linejoin:round; stroke-width:4; stroke-opacity:1; fill:none" points="
  1392.35,1110.43 1392.35,1091.53 
  "/>
<path clip-path="url(#clip900)" d="M252.097 1141.26 L252.097 1176.81 L249.146 1176.81 L249.146 1141.26 L252.097 1141.26 Z" fill="#000000" fill-rule="evenodd" fill-opacity="1" /><path clip-path="url(#clip900)" d="M279.511 1144.5 L279.511 1148.2 Q277.74 1146.55 275.726 1145.74 Q273.729 1144.92 271.472 1144.92 Q267.028 1144.92 264.667 1147.65 Q262.306 1150.36 262.306 1155.49 Q262.306 1160.62 264.667 1163.34 Q267.028 1166.05 271.472 1166.05 Q273.729 1166.05 275.726 1165.23 Q277.74 1164.42 279.511 1162.77 L279.511 1166.43 Q277.67 1167.68 275.604 1168.31 Q273.556 1168.93 271.264 1168.93 Q265.379 1168.93 261.993 1165.34 Q258.608 1161.73 258.608 1155.49 Q258.608 1149.24 261.993 1145.65 Q265.379 1142.04 271.264 1142.04 Q273.59 1142.04 275.639 1142.66 Q277.705 1143.27 279.511 1144.5 Z" fill="#000000" fill-rule="evenodd" fill-opacity="1" /><path clip-path="url(#clip900)" d="M288.903 1141.26 L288.903 1176.81 L285.951 1176.81 L285.951 1141.26 L288.903 1141.26 Z" fill="#000000" fill-rule="evenodd" fill-opacity="1" /><path clip-path="url(#clip900)" d="M310.674 1157.54 Q310.795 1158.83 311.889 1160.91 Q313.174 1163.32 315.604 1164.68 Q317.983 1166 320.552 1166.01 L332.653 1166.01 L332.653 1168.78 L320.552 1168.78 Q317.219 1168.78 314.128 1167.06 Q311.055 1165.34 309.406 1162.28 Q307.757 1159.23 307.757 1155.98 Q307.757 1152.77 309.406 1149.71 Q311.055 1146.66 314.128 1144.92 Q317.219 1143.18 320.552 1143.18 L332.653 1143.18 L332.653 1145.95 L320.552 1145.95 Q317.983 1145.96 315.604 1147.3 Q313.191 1148.67 311.889 1151.07 Q310.778 1153.15 310.621 1154.76 L332.653 1154.76 L332.653 1157.54 L310.674 1157.54 Z" fill="#000000" fill-rule="evenodd" fill-opacity="1" /><path clip-path="url(#clip900)" d="M350.048 1141.41 L357.409 1141.41 L357.409 1143.9 L353.243 1143.9 L353.243 1170.63 L357.409 1170.63 L357.409 1173.12 L350.048 1173.12 L350.048 1141.41 Z" fill="#000000" fill-rule="evenodd" fill-opacity="1" /><path clip-path="url(#clip900)" d="M372.166 1144.82 Q369.458 1144.82 368.086 1147.49 Q366.732 1150.15 366.732 1155.49 Q366.732 1160.82 368.086 1163.5 Q369.458 1166.15 372.166 1166.15 Q374.892 1166.15 376.246 1163.5 Q377.618 1160.82 377.618 1155.49 Q377.618 1150.15 376.246 1147.49 Q374.892 1144.82 372.166 1144.82 M372.166 1142.04 Q376.524 1142.04 378.816 1145.49 Q381.125 1148.93 381.125 1155.49 Q381.125 1162.04 378.816 1165.49 Q376.524 1168.93 372.166 1168.93 Q367.809 1168.93 365.5 1165.49 Q363.208 1162.04 363.208 1155.49 Q363.208 1148.93 365.5 1145.49 Q367.809 1142.04 372.166 1142.04 Z" fill="#000000" fill-rule="evenodd" fill-opacity="1" /><path clip-path="url(#clip900)" d="M387.652 1164.02 L391.315 1164.02 L391.315 1167 L388.468 1172.56 L386.229 1172.56 L387.652 1167 L387.652 1164.02 Z" fill="#000000" fill-rule="evenodd" fill-opacity="1" /><path clip-path="url(#clip900)" d="M399.197 1165.48 L404.926 1165.48 L404.926 1145.7 L398.694 1146.95 L398.694 1143.76 L404.892 1142.51 L408.399 1142.51 L408.399 1165.48 L414.128 1165.48 L414.128 1168.43 L399.197 1168.43 L399.197 1165.48 Z" fill="#000000" fill-rule="evenodd" fill-opacity="1" /><path clip-path="url(#clip900)" d="M428.225 1141.41 L428.225 1173.12 L420.864 1173.12 L420.864 1170.63 L425.013 1170.63 L425.013 1143.9 L420.864 1143.9 L420.864 1141.41 L428.225 1141.41 Z" fill="#000000" fill-rule="evenodd" fill-opacity="1" /><path clip-path="url(#clip900)" d="M462.83 1141.26 L462.83 1176.81 L459.879 1176.81 L459.879 1141.26 L462.83 1141.26 Z" fill="#000000" fill-rule="evenodd" fill-opacity="1" /><path clip-path="url(#clip900)" d="M490.243 1144.5 L490.243 1148.2 Q488.472 1146.55 486.459 1145.74 Q484.462 1144.92 482.205 1144.92 Q477.761 1144.92 475.4 1147.65 Q473.038 1150.36 473.038 1155.49 Q473.038 1160.62 475.4 1163.34 Q477.761 1166.05 482.205 1166.05 Q484.462 1166.05 486.459 1165.23 Q488.472 1164.42 490.243 1162.77 L490.243 1166.43 Q488.403 1167.68 486.337 1168.31 Q484.288 1168.93 481.997 1168.93 Q476.111 1168.93 472.726 1165.34 Q469.341 1161.73 469.341 1155.49 Q469.341 1149.24 472.726 1145.65 Q476.111 1142.04 481.997 1142.04 Q484.323 1142.04 486.372 1142.66 Q488.438 1143.27 490.243 1144.5 Z" fill="#000000" fill-rule="evenodd" fill-opacity="1" /><path clip-path="url(#clip900)" d="M499.636 1141.26 L499.636 1176.81 L496.684 1176.81 L496.684 1141.26 L499.636 1141.26 Z" fill="#000000" fill-rule="evenodd" fill-opacity="1" /><path clip-path="url(#clip900)" d="M521.406 1157.54 Q521.528 1158.83 522.622 1160.91 Q523.906 1163.32 526.337 1164.68 Q528.715 1166 531.285 1166.01 L543.385 1166.01 L543.385 1168.78 L531.285 1168.78 Q527.951 1168.78 524.861 1167.06 Q521.788 1165.34 520.139 1162.28 Q518.49 1159.23 518.49 1155.98 Q518.49 1152.77 520.139 1149.71 Q521.788 1146.66 524.861 1144.92 Q527.951 1143.18 531.285 1143.18 L543.385 1143.18 L543.385 1145.95 L531.285 1145.95 Q528.715 1145.96 526.337 1147.3 Q523.924 1148.67 522.622 1151.07 Q521.51 1153.15 521.354 1154.76 L543.385 1154.76 L543.385 1157.54 L521.406 1157.54 Z" fill="#000000" fill-rule="evenodd" fill-opacity="1" /><path clip-path="url(#clip900)" d="M560.781 1141.41 L568.142 1141.41 L568.142 1143.9 L563.975 1143.9 L563.975 1170.63 L568.142 1170.63 L568.142 1173.12 L560.781 1173.12 L560.781 1141.41 Z" fill="#000000" fill-rule="evenodd" fill-opacity="1" /><path clip-path="url(#clip900)" d="M578.42 1165.48 L590.659 1165.48 L590.659 1168.43 L574.201 1168.43 L574.201 1165.48 Q576.198 1163.41 579.635 1159.94 Q583.09 1156.45 583.975 1155.44 Q585.659 1153.55 586.319 1152.25 Q586.996 1150.93 586.996 1149.66 Q586.996 1147.59 585.538 1146.29 Q584.097 1144.99 581.771 1144.99 Q580.121 1144.99 578.281 1145.56 Q576.458 1146.14 574.375 1147.3 L574.375 1143.76 Q576.493 1142.91 578.333 1142.47 Q580.173 1142.04 581.701 1142.04 Q585.729 1142.04 588.125 1144.05 Q590.52 1146.07 590.52 1149.43 Q590.52 1151.03 589.913 1152.47 Q589.323 1153.9 587.743 1155.84 Q587.309 1156.34 584.982 1158.76 Q582.656 1161.15 578.42 1165.48 Z" fill="#000000" fill-rule="evenodd" fill-opacity="1" /><path clip-path="url(#clip900)" d="M598.385 1164.02 L602.048 1164.02 L602.048 1167 L599.201 1172.56 L596.961 1172.56 L598.385 1167 L598.385 1164.02 Z" fill="#000000" fill-rule="evenodd" fill-opacity="1" /><path clip-path="url(#clip900)" d="M619.947 1154.45 Q622.465 1154.99 623.871 1156.69 Q625.295 1158.39 625.295 1160.89 Q625.295 1164.73 622.656 1166.83 Q620.017 1168.93 615.156 1168.93 Q613.524 1168.93 611.788 1168.6 Q610.069 1168.29 608.229 1167.65 L608.229 1164.26 Q609.687 1165.11 611.423 1165.55 Q613.159 1165.98 615.052 1165.98 Q618.35 1165.98 620.069 1164.68 Q621.805 1163.38 621.805 1160.89 Q621.805 1158.6 620.19 1157.32 Q618.593 1156.01 615.729 1156.01 L612.708 1156.01 L612.708 1153.13 L615.868 1153.13 Q618.454 1153.13 619.826 1152.11 Q621.197 1151.07 621.197 1149.12 Q621.197 1147.13 619.774 1146.07 Q618.368 1144.99 615.729 1144.99 Q614.288 1144.99 612.638 1145.3 Q610.989 1145.62 609.01 1146.28 L609.01 1143.15 Q611.006 1142.59 612.743 1142.32 Q614.496 1142.04 616.041 1142.04 Q620.034 1142.04 622.361 1143.86 Q624.687 1145.67 624.687 1148.76 Q624.687 1150.91 623.454 1152.4 Q622.222 1153.88 619.947 1154.45 Z" fill="#000000" fill-rule="evenodd" fill-opacity="1" /><path clip-path="url(#clip900)" d="M638.958 1141.41 L638.958 1173.12 L631.597 1173.12 L631.597 1170.63 L635.746 1170.63 L635.746 1143.9 L631.597 1143.9 L631.597 1141.41 L638.958 1141.41 Z" fill="#000000" fill-rule="evenodd" fill-opacity="1" /><path clip-path="url(#clip900)" d="M673.563 1141.26 L673.563 1176.81 L670.612 1176.81 L670.612 1141.26 L673.563 1141.26 Z" fill="#000000" fill-rule="evenodd" fill-opacity="1" /><path clip-path="url(#clip900)" d="M700.976 1144.5 L700.976 1148.2 Q699.205 1146.55 697.191 1145.74 Q695.195 1144.92 692.938 1144.92 Q688.493 1144.92 686.132 1147.65 Q683.771 1150.36 683.771 1155.49 Q683.771 1160.62 686.132 1163.34 Q688.493 1166.05 692.938 1166.05 Q695.195 1166.05 697.191 1165.23 Q699.205 1164.42 700.976 1162.77 L700.976 1166.43 Q699.136 1167.68 697.07 1168.31 Q695.021 1168.93 692.729 1168.93 Q686.844 1168.93 683.459 1165.34 Q680.073 1161.73 680.073 1155.49 Q680.073 1149.24 683.459 1145.65 Q686.844 1142.04 692.729 1142.04 Q695.056 1142.04 697.104 1142.66 Q699.17 1143.27 700.976 1144.5 Z" fill="#000000" fill-rule="evenodd" fill-opacity="1" /><path clip-path="url(#clip900)" d="M710.368 1141.26 L710.368 1176.81 L707.417 1176.81 L707.417 1141.26 L710.368 1141.26 Z" fill="#000000" fill-rule="evenodd" fill-opacity="1" /><path clip-path="url(#clip900)" d="M732.139 1157.54 Q732.26 1158.83 733.354 1160.91 Q734.639 1163.32 737.069 1164.68 Q739.448 1166 742.017 1166.01 L754.118 1166.01 L754.118 1168.78 L742.017 1168.78 Q738.684 1168.78 735.594 1167.06 Q732.521 1165.34 730.872 1162.28 Q729.222 1159.23 729.222 1155.98 Q729.222 1152.77 730.872 1149.71 Q732.521 1146.66 735.594 1144.92 Q738.684 1143.18 742.017 1143.18 L754.118 1143.18 L754.118 1145.95 L742.017 1145.95 Q739.448 1145.96 737.069 1147.3 Q734.656 1148.67 733.354 1151.07 Q732.243 1153.15 732.087 1154.76 L754.118 1154.76 L754.118 1157.54 L732.139 1157.54 Z" fill="#000000" fill-rule="evenodd" fill-opacity="1" /><path clip-path="url(#clip900)" d="M771.514 1141.41 L778.875 1141.41 L778.875 1143.9 L774.708 1143.9 L774.708 1170.63 L778.875 1170.63 L778.875 1173.12 L771.514 1173.12 L771.514 1141.41 Z" fill="#000000" fill-rule="evenodd" fill-opacity="1" /><path clip-path="url(#clip900)" d="M795.767 1145.56 L786.913 1159.4 L795.767 1159.4 L795.767 1145.56 M794.847 1142.51 L799.257 1142.51 L799.257 1159.4 L802.955 1159.4 L802.955 1162.32 L799.257 1162.32 L799.257 1168.43 L795.767 1168.43 L795.767 1162.32 L784.066 1162.32 L784.066 1158.93 L794.847 1142.51 Z" fill="#000000" fill-rule="evenodd" fill-opacity="1" /><path clip-path="url(#clip900)" d="M809.118 1164.02 L812.781 1164.02 L812.781 1167 L809.934 1172.56 L807.694 1172.56 L809.118 1167 L809.118 1164.02 Z" fill="#000000" fill-rule="evenodd" fill-opacity="1" /><path clip-path="url(#clip900)" d="M820.09 1142.51 L833.857 1142.51 L833.857 1145.46 L823.302 1145.46 L823.302 1151.81 Q824.066 1151.55 824.829 1151.43 Q825.593 1151.29 826.357 1151.29 Q830.697 1151.29 833.232 1153.67 Q835.767 1156.05 835.767 1160.11 Q835.767 1164.3 833.163 1166.62 Q830.559 1168.93 825.819 1168.93 Q824.187 1168.93 822.486 1168.65 Q820.802 1168.38 818.996 1167.82 L818.996 1164.3 Q820.559 1165.15 822.225 1165.56 Q823.892 1165.98 825.75 1165.98 Q828.753 1165.98 830.506 1164.4 Q832.26 1162.82 832.26 1160.11 Q832.26 1157.4 830.506 1155.82 Q828.753 1154.24 825.75 1154.24 Q824.343 1154.24 822.937 1154.56 Q821.548 1154.87 820.09 1155.53 L820.09 1142.51 Z" fill="#000000" fill-rule="evenodd" fill-opacity="1" /><path clip-path="url(#clip900)" d="M849.69 1141.41 L849.69 1173.12 L842.329 1173.12 L842.329 1170.63 L846.479 1170.63 L846.479 1143.9 L842.329 1143.9 L842.329 1141.41 L849.69 1141.41 Z" fill="#000000" fill-rule="evenodd" fill-opacity="1" /><path clip-path="url(#clip900)" d="M884.296 1141.26 L884.296 1176.81 L881.344 1176.81 L881.344 1141.26 L884.296 1141.26 Z" fill="#000000" fill-rule="evenodd" fill-opacity="1" /><path clip-path="url(#clip900)" d="M911.709 1144.5 L911.709 1148.2 Q909.938 1146.55 907.924 1145.74 Q905.927 1144.92 903.67 1144.92 Q899.226 1144.92 896.865 1147.65 Q894.504 1150.36 894.504 1155.49 Q894.504 1160.62 896.865 1163.34 Q899.226 1166.05 903.67 1166.05 Q905.927 1166.05 907.924 1165.23 Q909.938 1164.42 911.709 1162.77 L911.709 1166.43 Q909.868 1167.68 907.802 1168.31 Q905.754 1168.93 903.462 1168.93 Q897.577 1168.93 894.191 1165.34 Q890.806 1161.73 890.806 1155.49 Q890.806 1149.24 894.191 1145.65 Q897.577 1142.04 903.462 1142.04 Q905.789 1142.04 907.837 1142.66 Q909.903 1143.27 911.709 1144.5 Z" fill="#000000" fill-rule="evenodd" fill-opacity="1" /><path clip-path="url(#clip900)" d="M921.101 1141.26 L921.101 1176.81 L918.15 1176.81 L918.15 1141.26 L921.101 1141.26 Z" fill="#000000" fill-rule="evenodd" fill-opacity="1" /><path clip-path="url(#clip900)" d="M942.872 1157.54 Q942.993 1158.83 944.087 1160.91 Q945.372 1163.32 947.802 1164.68 Q950.181 1166 952.75 1166.01 L964.851 1166.01 L964.851 1168.78 L952.75 1168.78 Q949.417 1168.78 946.327 1167.06 Q943.254 1165.34 941.604 1162.28 Q939.955 1159.23 939.955 1155.98 Q939.955 1152.77 941.604 1149.71 Q943.254 1146.66 946.327 1144.92 Q949.417 1143.18 952.75 1143.18 L964.851 1143.18 L964.851 1145.95 L952.75 1145.95 Q950.181 1145.96 947.802 1147.3 Q945.389 1148.67 944.087 1151.07 Q942.976 1153.15 942.82 1154.76 L964.851 1154.76 L964.851 1157.54 L942.872 1157.54 Z" fill="#000000" fill-rule="evenodd" fill-opacity="1" /><path clip-path="url(#clip900)" d="M982.246 1141.41 L989.608 1141.41 L989.608 1143.9 L985.441 1143.9 L985.441 1170.63 L989.608 1170.63 L989.608 1173.12 L982.246 1173.12 L982.246 1141.41 Z" fill="#000000" fill-rule="evenodd" fill-opacity="1" /><path clip-path="url(#clip900)" d="M1004.8 1154.07 Q1002.44 1154.07 1001.05 1155.68 Q999.677 1157.3 999.677 1160.11 Q999.677 1162.91 1001.05 1164.54 Q1002.44 1166.15 1004.8 1166.15 Q1007.16 1166.15 1008.53 1164.54 Q1009.92 1162.91 1009.92 1160.11 Q1009.92 1157.3 1008.53 1155.68 Q1007.16 1154.07 1004.8 1154.07 M1011.76 1143.08 L1011.76 1146.28 Q1010.44 1145.65 1009.09 1145.32 Q1007.75 1144.99 1006.43 1144.99 Q1002.96 1144.99 1001.12 1147.33 Q999.295 1149.68 999.035 1154.42 Q1000.06 1152.91 1001.6 1152.11 Q1003.15 1151.29 1005.01 1151.29 Q1008.91 1151.29 1011.17 1153.67 Q1013.44 1156.03 1013.44 1160.11 Q1013.44 1164.1 1011.08 1166.52 Q1008.72 1168.93 1004.8 1168.93 Q1000.3 1168.93 997.923 1165.49 Q995.545 1162.04 995.545 1155.49 Q995.545 1149.35 998.462 1145.7 Q1001.38 1142.04 1006.29 1142.04 Q1007.61 1142.04 1008.95 1142.3 Q1010.3 1142.56 1011.76 1143.08 Z" fill="#000000" fill-rule="evenodd" fill-opacity="1" /><path clip-path="url(#clip900)" d="M1019.85 1164.02 L1023.51 1164.02 L1023.51 1167 L1020.67 1172.56 L1018.43 1172.56 L1019.85 1167 L1019.85 1164.02 Z" fill="#000000" fill-rule="evenodd" fill-opacity="1" /><path clip-path="url(#clip900)" d="M1029.9 1142.51 L1046.57 1142.51 L1046.57 1144 L1037.16 1168.43 L1033.5 1168.43 L1042.35 1145.46 L1029.9 1145.46 L1029.9 1142.51 Z" fill="#000000" fill-rule="evenodd" fill-opacity="1" /><path clip-path="url(#clip900)" d="M1060.42 1141.41 L1060.42 1173.12 L1053.06 1173.12 L1053.06 1170.63 L1057.21 1170.63 L1057.21 1143.9 L1053.06 1143.9 L1053.06 1141.41 L1060.42 1141.41 Z" fill="#000000" fill-rule="evenodd" fill-opacity="1" /><path clip-path="url(#clip900)" d="M1095.03 1141.26 L1095.03 1176.81 L1092.08 1176.81 L1092.08 1141.26 L1095.03 1141.26 Z" fill="#000000" fill-rule="evenodd" fill-opacity="1" /><path clip-path="url(#clip900)" d="M1122.44 1144.5 L1122.44 1148.2 Q1120.67 1146.55 1118.66 1145.74 Q1116.66 1144.92 1114.4 1144.92 Q1109.96 1144.92 1107.6 1147.65 Q1105.24 1150.36 1105.24 1155.49 Q1105.24 1160.62 1107.6 1163.34 Q1109.96 1166.05 1114.4 1166.05 Q1116.66 1166.05 1118.66 1165.23 Q1120.67 1164.42 1122.44 1162.77 L1122.44 1166.43 Q1120.6 1167.68 1118.54 1168.31 Q1116.49 1168.93 1114.19 1168.93 Q1108.31 1168.93 1104.92 1165.34 Q1101.54 1161.73 1101.54 1155.49 Q1101.54 1149.24 1104.92 1145.65 Q1108.31 1142.04 1114.19 1142.04 Q1116.52 1142.04 1118.57 1142.66 Q1120.64 1143.27 1122.44 1144.5 Z" fill="#000000" fill-rule="evenodd" fill-opacity="1" /><path clip-path="url(#clip900)" d="M1131.83 1141.26 L1131.83 1176.81 L1128.88 1176.81 L1128.88 1141.26 L1131.83 1141.26 Z" fill="#000000" fill-rule="evenodd" fill-opacity="1" /><path clip-path="url(#clip900)" d="M1153.6 1157.54 Q1153.73 1158.83 1154.82 1160.91 Q1156.1 1163.32 1158.53 1164.68 Q1160.91 1166 1163.48 1166.01 L1175.58 1166.01 L1175.58 1168.78 L1163.48 1168.78 Q1160.15 1168.78 1157.06 1167.06 Q1153.99 1165.34 1152.34 1162.28 Q1150.69 1159.23 1150.69 1155.98 Q1150.69 1152.77 1152.34 1149.71 Q1153.99 1146.66 1157.06 1144.92 Q1160.15 1143.18 1163.48 1143.18 L1175.58 1143.18 L1175.58 1145.95 L1163.48 1145.95 Q1160.91 1145.96 1158.53 1147.3 Q1156.12 1148.67 1154.82 1151.07 Q1153.71 1153.15 1153.55 1154.76 L1175.58 1154.76 L1175.58 1157.54 L1153.6 1157.54 Z" fill="#000000" fill-rule="evenodd" fill-opacity="1" /><path clip-path="url(#clip900)" d="M1192.98 1141.41 L1200.34 1141.41 L1200.34 1143.9 L1196.17 1143.9 L1196.17 1170.63 L1200.34 1170.63 L1200.34 1173.12 L1192.98 1173.12 L1192.98 1141.41 Z" fill="#000000" fill-rule="evenodd" fill-opacity="1" /><path clip-path="url(#clip900)" d="M1215.1 1156.12 Q1212.6 1156.12 1211.16 1157.46 Q1209.73 1158.79 1209.73 1161.14 Q1209.73 1163.48 1211.16 1164.82 Q1212.6 1166.15 1215.1 1166.15 Q1217.6 1166.15 1219.04 1164.82 Q1220.48 1163.46 1220.48 1161.14 Q1220.48 1158.79 1219.04 1157.46 Q1217.61 1156.12 1215.1 1156.12 M1211.59 1154.63 Q1209.33 1154.07 1208.07 1152.53 Q1206.82 1150.98 1206.82 1148.76 Q1206.82 1145.65 1209.02 1143.84 Q1211.24 1142.04 1215.1 1142.04 Q1218.97 1142.04 1221.17 1143.84 Q1223.38 1145.65 1223.38 1148.76 Q1223.38 1150.98 1222.11 1152.53 Q1220.86 1154.07 1218.62 1154.63 Q1221.16 1155.22 1222.56 1156.93 Q1223.99 1158.65 1223.99 1161.14 Q1223.99 1164.9 1221.68 1166.92 Q1219.39 1168.93 1215.1 1168.93 Q1210.81 1168.93 1208.5 1166.92 Q1206.21 1164.9 1206.21 1161.14 Q1206.21 1158.65 1207.63 1156.93 Q1209.06 1155.22 1211.59 1154.63 M1210.31 1149.09 Q1210.31 1151.1 1211.56 1152.23 Q1212.82 1153.36 1215.1 1153.36 Q1217.35 1153.36 1218.62 1152.23 Q1219.91 1151.1 1219.91 1149.09 Q1219.91 1147.07 1218.62 1145.95 Q1217.35 1144.82 1215.1 1144.82 Q1212.82 1144.82 1211.56 1145.95 Q1210.31 1147.07 1210.31 1149.09 Z" fill="#000000" fill-rule="evenodd" fill-opacity="1" /><path clip-path="url(#clip900)" d="M1230.58 1164.02 L1234.25 1164.02 L1234.25 1167 L1231.4 1172.56 L1229.16 1172.56 L1230.58 1167 L1230.58 1164.02 Z" fill="#000000" fill-rule="evenodd" fill-opacity="1" /><path clip-path="url(#clip900)" d="M1241.62 1167.89 L1241.62 1164.7 Q1242.94 1165.32 1244.3 1165.65 Q1245.65 1165.98 1246.95 1165.98 Q1250.43 1165.98 1252.25 1163.65 Q1254.09 1161.31 1254.35 1156.55 Q1253.34 1158.05 1251.8 1158.84 Q1250.25 1159.64 1248.38 1159.64 Q1244.49 1159.64 1242.22 1157.3 Q1239.96 1154.94 1239.96 1150.86 Q1239.96 1146.87 1242.32 1144.45 Q1244.68 1142.04 1248.6 1142.04 Q1253.1 1142.04 1255.46 1145.49 Q1257.84 1148.93 1257.84 1155.49 Q1257.84 1161.62 1254.92 1165.29 Q1252.02 1168.93 1247.11 1168.93 Q1245.79 1168.93 1244.44 1168.67 Q1243.08 1168.41 1241.62 1167.89 M1248.6 1156.9 Q1250.96 1156.9 1252.34 1155.29 Q1253.73 1153.67 1253.73 1150.86 Q1253.73 1148.06 1252.34 1146.45 Q1250.96 1144.82 1248.6 1144.82 Q1246.24 1144.82 1244.85 1146.45 Q1243.48 1148.06 1243.48 1150.86 Q1243.48 1153.67 1244.85 1155.29 Q1246.24 1156.9 1248.6 1156.9 Z" fill="#000000" fill-rule="evenodd" fill-opacity="1" /><path clip-path="url(#clip900)" d="M1271.16 1141.41 L1271.16 1173.12 L1263.79 1173.12 L1263.79 1170.63 L1267.94 1170.63 L1267.94 1143.9 L1263.79 1143.9 L1263.79 1141.41 L1271.16 1141.41 Z" fill="#000000" fill-rule="evenodd" fill-opacity="1" /><path clip-path="url(#clip900)" d="M1311.41 1141.26 L1311.41 1176.81 L1308.46 1176.81 L1308.46 1141.26 L1311.41 1141.26 Z" fill="#000000" fill-rule="evenodd" fill-opacity="1" /><path clip-path="url(#clip900)" d="M1338.83 1144.5 L1338.83 1148.2 Q1337.05 1146.55 1335.04 1145.74 Q1333.04 1144.92 1330.79 1144.92 Q1326.34 1144.92 1323.98 1147.65 Q1321.62 1150.36 1321.62 1155.49 Q1321.62 1160.62 1323.98 1163.34 Q1326.34 1166.05 1330.79 1166.05 Q1333.04 1166.05 1335.04 1165.23 Q1337.05 1164.42 1338.83 1162.77 L1338.83 1166.43 Q1336.98 1167.68 1334.92 1168.31 Q1332.87 1168.93 1330.58 1168.93 Q1324.69 1168.93 1321.31 1165.34 Q1317.92 1161.73 1317.92 1155.49 Q1317.92 1149.24 1321.31 1145.65 Q1324.69 1142.04 1330.58 1142.04 Q1332.9 1142.04 1334.95 1142.66 Q1337.02 1143.27 1338.83 1144.5 Z" fill="#000000" fill-rule="evenodd" fill-opacity="1" /><path clip-path="url(#clip900)" d="M1348.22 1141.26 L1348.22 1176.81 L1345.27 1176.81 L1345.27 1141.26 L1348.22 1141.26 Z" fill="#000000" fill-rule="evenodd" fill-opacity="1" /><path clip-path="url(#clip900)" d="M1369.99 1157.54 Q1370.11 1158.83 1371.2 1160.91 Q1372.49 1163.32 1374.92 1164.68 Q1377.3 1166 1379.87 1166.01 L1391.97 1166.01 L1391.97 1168.78 L1379.87 1168.78 Q1376.53 1168.78 1373.44 1167.06 Q1370.37 1165.34 1368.72 1162.28 Q1367.07 1159.23 1367.07 1155.98 Q1367.07 1152.77 1368.72 1149.71 Q1370.37 1146.66 1373.44 1144.92 Q1376.53 1143.18 1379.87 1143.18 L1391.97 1143.18 L1391.97 1145.95 L1379.87 1145.95 Q1377.3 1145.96 1374.92 1147.3 Q1372.51 1148.67 1371.2 1151.07 Q1370.09 1153.15 1369.94 1154.76 L1391.97 1154.76 L1391.97 1157.54 L1369.99 1157.54 Z" fill="#000000" fill-rule="evenodd" fill-opacity="1" /><path clip-path="url(#clip900)" d="M1409.36 1141.41 L1416.72 1141.41 L1416.72 1143.9 L1412.56 1143.9 L1412.56 1170.63 L1416.72 1170.63 L1416.72 1173.12 L1409.36 1173.12 L1409.36 1141.41 Z" fill="#000000" fill-rule="evenodd" fill-opacity="1" /><path clip-path="url(#clip900)" d="M1424.59 1165.48 L1430.32 1165.48 L1430.32 1145.7 L1424.09 1146.95 L1424.09 1143.76 L1430.28 1142.51 L1433.79 1142.51 L1433.79 1165.48 L1439.52 1165.48 L1439.52 1168.43 L1424.59 1168.43 L1424.59 1165.48 Z" fill="#000000" fill-rule="evenodd" fill-opacity="1" /><path clip-path="url(#clip900)" d="M1454.1 1144.82 Q1451.39 1144.82 1450.02 1147.49 Q1448.67 1150.15 1448.67 1155.49 Q1448.67 1160.82 1450.02 1163.5 Q1451.39 1166.15 1454.1 1166.15 Q1456.83 1166.15 1458.18 1163.5 Q1459.55 1160.82 1459.55 1155.49 Q1459.55 1150.15 1458.18 1147.49 Q1456.83 1144.82 1454.1 1144.82 M1454.1 1142.04 Q1458.46 1142.04 1460.75 1145.49 Q1463.06 1148.93 1463.06 1155.49 Q1463.06 1162.04 1460.75 1165.49 Q1458.46 1168.93 1454.1 1168.93 Q1449.74 1168.93 1447.44 1165.49 Q1445.14 1162.04 1445.14 1155.49 Q1445.14 1148.93 1447.44 1145.49 Q1449.74 1142.04 1454.1 1142.04 Z" fill="#000000" fill-rule="evenodd" fill-opacity="1" /><path clip-path="url(#clip900)" d="M1476.24 1141.41 L1476.24 1173.12 L1468.88 1173.12 L1468.88 1170.63 L1473.03 1170.63 L1473.03 1143.9 L1468.88 1143.9 L1468.88 1141.41 L1476.24 1141.41 Z" fill="#000000" fill-rule="evenodd" fill-opacity="1" /><polyline clip-path="url(#clip902)" style="stroke:#000000; stroke-linecap:round; stroke-linejoin:round; stroke-width:2; stroke-opacity:0.1; fill:none" points="
  178.857,1081.75 1552.18,1081.75 
  "/>
<polyline clip-path="url(#clip902)" style="stroke:#000000; stroke-linecap:round; stroke-linejoin:round; stroke-width:2; stroke-opacity:0.1; fill:none" points="
  178.857,878.331 1552.18,878.331 
  "/>
<polyline clip-path="url(#clip902)" style="stroke:#000000; stroke-linecap:round; stroke-linejoin:round; stroke-width:2; stroke-opacity:0.1; fill:none" points="
  178.857,674.915 1552.18,674.915 
  "/>
<polyline clip-path="url(#clip902)" style="stroke:#000000; stroke-linecap:round; stroke-linejoin:round; stroke-width:2; stroke-opacity:0.1; fill:none" points="
  178.857,471.5 1552.18,471.5 
  "/>
<polyline clip-path="url(#clip902)" style="stroke:#000000; stroke-linecap:round; stroke-linejoin:round; stroke-width:2; stroke-opacity:0.1; fill:none" points="
  178.857,268.085 1552.18,268.085 
  "/>
<polyline clip-path="url(#clip900)" style="stroke:#000000; stroke-linecap:round; stroke-linejoin:round; stroke-width:4; stroke-opacity:1; fill:none" points="
  178.857,1110.43 178.857,97.0121 
  "/>
<polyline clip-path="url(#clip900)" style="stroke:#000000; stroke-linecap:round; stroke-linejoin:round; stroke-width:4; stroke-opacity:1; fill:none" points="
  178.857,1081.75 197.755,1081.75 
  "/>
<polyline clip-path="url(#clip900)" style="stroke:#000000; stroke-linecap:round; stroke-linejoin:round; stroke-width:4; stroke-opacity:1; fill:none" points="
  178.857,878.331 197.755,878.331 
  "/>
<polyline clip-path="url(#clip900)" style="stroke:#000000; stroke-linecap:round; stroke-linejoin:round; stroke-width:4; stroke-opacity:1; fill:none" points="
  178.857,674.915 197.755,674.915 
  "/>
<polyline clip-path="url(#clip900)" style="stroke:#000000; stroke-linecap:round; stroke-linejoin:round; stroke-width:4; stroke-opacity:1; fill:none" points="
  178.857,471.5 197.755,471.5 
  "/>
<polyline clip-path="url(#clip900)" style="stroke:#000000; stroke-linecap:round; stroke-linejoin:round; stroke-width:4; stroke-opacity:1; fill:none" points="
  178.857,268.085 197.755,268.085 
  "/>
<path clip-path="url(#clip900)" d="M118.913 1067.54 Q115.302 1067.54 113.473 1071.11 Q111.668 1074.65 111.668 1081.78 Q111.668 1088.89 113.473 1092.45 Q115.302 1095.99 118.913 1095.99 Q122.547 1095.99 124.353 1092.45 Q126.182 1088.89 126.182 1081.78 Q126.182 1074.65 124.353 1071.11 Q122.547 1067.54 118.913 1067.54 M118.913 1063.84 Q124.723 1063.84 127.779 1068.45 Q130.857 1073.03 130.857 1081.78 Q130.857 1090.51 127.779 1095.11 Q124.723 1099.7 118.913 1099.7 Q113.103 1099.7 110.024 1095.11 Q106.969 1090.51 106.969 1081.78 Q106.969 1073.03 110.024 1068.45 Q113.103 1063.84 118.913 1063.84 Z" fill="#000000" fill-rule="evenodd" fill-opacity="1" /><path clip-path="url(#clip900)" d="M78.7975 861.051 L97.1539 861.051 L97.1539 864.986 L83.0799 864.986 L83.0799 873.458 Q84.0984 873.111 85.1169 872.949 Q86.1354 872.764 87.1539 872.764 Q92.941 872.764 96.3206 875.935 Q99.7002 879.106 99.7002 884.523 Q99.7002 890.102 96.228 893.203 Q92.7558 896.282 86.4364 896.282 Q84.2604 896.282 81.9919 895.912 Q79.7466 895.541 77.3392 894.801 L77.3392 890.102 Q79.4225 891.236 81.6447 891.791 Q83.8669 892.347 86.3438 892.347 Q90.3484 892.347 92.6863 890.241 Q95.0243 888.134 95.0243 884.523 Q95.0243 880.912 92.6863 878.805 Q90.3484 876.699 86.3438 876.699 Q84.4688 876.699 82.5938 877.116 Q80.7419 877.532 78.7975 878.412 L78.7975 861.051 Z" fill="#000000" fill-rule="evenodd" fill-opacity="1" /><path clip-path="url(#clip900)" d="M118.913 864.13 Q115.302 864.13 113.473 867.694 Q111.668 871.236 111.668 878.366 Q111.668 885.472 113.473 889.037 Q115.302 892.578 118.913 892.578 Q122.547 892.578 124.353 889.037 Q126.182 885.472 126.182 878.366 Q126.182 871.236 124.353 867.694 Q122.547 864.13 118.913 864.13 M118.913 860.426 Q124.723 860.426 127.779 865.032 Q130.857 869.616 130.857 878.366 Q130.857 887.092 127.779 891.699 Q124.723 896.282 118.913 896.282 Q113.103 896.282 110.024 891.699 Q106.969 887.092 106.969 878.366 Q106.969 869.616 110.024 865.032 Q113.103 860.426 118.913 860.426 Z" fill="#000000" fill-rule="evenodd" fill-opacity="1" /><path clip-path="url(#clip900)" d="M49.3995 688.26 L57.0384 688.26 L57.0384 661.895 L48.7282 663.561 L48.7282 659.302 L56.9921 657.635 L61.668 657.635 L61.668 688.26 L69.3068 688.26 L69.3068 692.195 L49.3995 692.195 L49.3995 688.26 Z" fill="#000000" fill-rule="evenodd" fill-opacity="1" /><path clip-path="url(#clip900)" d="M88.7512 660.714 Q85.1401 660.714 83.3114 664.279 Q81.5058 667.821 81.5058 674.95 Q81.5058 682.057 83.3114 685.621 Q85.1401 689.163 88.7512 689.163 Q92.3854 689.163 94.1909 685.621 Q96.0196 682.057 96.0196 674.95 Q96.0196 667.821 94.1909 664.279 Q92.3854 660.714 88.7512 660.714 M88.7512 657.01 Q94.5613 657.01 97.6169 661.617 Q100.696 666.2 100.696 674.95 Q100.696 683.677 97.6169 688.283 Q94.5613 692.867 88.7512 692.867 Q82.941 692.867 79.8623 688.283 Q76.8068 683.677 76.8068 674.95 Q76.8068 666.2 79.8623 661.617 Q82.941 657.01 88.7512 657.01 Z" fill="#000000" fill-rule="evenodd" fill-opacity="1" /><path clip-path="url(#clip900)" d="M118.913 660.714 Q115.302 660.714 113.473 664.279 Q111.668 667.821 111.668 674.95 Q111.668 682.057 113.473 685.621 Q115.302 689.163 118.913 689.163 Q122.547 689.163 124.353 685.621 Q126.182 682.057 126.182 674.95 Q126.182 667.821 124.353 664.279 Q122.547 660.714 118.913 660.714 M118.913 657.01 Q124.723 657.01 127.779 661.617 Q130.857 666.2 130.857 674.95 Q130.857 683.677 127.779 688.283 Q124.723 692.867 118.913 692.867 Q113.103 692.867 110.024 688.283 Q106.969 683.677 106.969 674.95 Q106.969 666.2 110.024 661.617 Q113.103 657.01 118.913 657.01 Z" fill="#000000" fill-rule="evenodd" fill-opacity="1" /><path clip-path="url(#clip900)" d="M49.3995 484.845 L57.0384 484.845 L57.0384 458.479 L48.7282 460.146 L48.7282 455.887 L56.9921 454.22 L61.668 454.22 L61.668 484.845 L69.3068 484.845 L69.3068 488.78 L49.3995 488.78 L49.3995 484.845 Z" fill="#000000" fill-rule="evenodd" fill-opacity="1" /><path clip-path="url(#clip900)" d="M78.7975 454.22 L97.1539 454.22 L97.1539 458.155 L83.0799 458.155 L83.0799 466.627 Q84.0984 466.28 85.1169 466.118 Q86.1354 465.933 87.1539 465.933 Q92.941 465.933 96.3206 469.104 Q99.7002 472.275 99.7002 477.692 Q99.7002 483.271 96.228 486.373 Q92.7558 489.451 86.4364 489.451 Q84.2604 489.451 81.9919 489.081 Q79.7466 488.711 77.3392 487.97 L77.3392 483.271 Q79.4225 484.405 81.6447 484.961 Q83.8669 485.516 86.3438 485.516 Q90.3484 485.516 92.6863 483.41 Q95.0243 481.303 95.0243 477.692 Q95.0243 474.081 92.6863 471.974 Q90.3484 469.868 86.3438 469.868 Q84.4688 469.868 82.5938 470.285 Q80.7419 470.701 78.7975 471.581 L78.7975 454.22 Z" fill="#000000" fill-rule="evenodd" fill-opacity="1" /><path clip-path="url(#clip900)" d="M118.913 457.299 Q115.302 457.299 113.473 460.863 Q111.668 464.405 111.668 471.535 Q111.668 478.641 113.473 482.206 Q115.302 485.748 118.913 485.748 Q122.547 485.748 124.353 482.206 Q126.182 478.641 126.182 471.535 Q126.182 464.405 124.353 460.863 Q122.547 457.299 118.913 457.299 M118.913 453.595 Q124.723 453.595 127.779 458.201 Q130.857 462.785 130.857 471.535 Q130.857 480.261 127.779 484.868 Q124.723 489.451 118.913 489.451 Q113.103 489.451 110.024 484.868 Q106.969 480.261 106.969 471.535 Q106.969 462.785 110.024 458.201 Q113.103 453.595 118.913 453.595 Z" fill="#000000" fill-rule="evenodd" fill-opacity="1" /><path clip-path="url(#clip900)" d="M52.6171 281.429 L68.9365 281.429 L68.9365 285.365 L46.9921 285.365 L46.9921 281.429 Q49.6541 278.675 54.2375 274.045 Q58.8439 269.392 60.0245 268.05 Q62.2698 265.527 63.1494 263.791 Q64.0522 262.031 64.0522 260.342 Q64.0522 257.587 62.1078 255.851 Q60.1865 254.115 57.0847 254.115 Q54.8856 254.115 52.4319 254.879 Q50.0014 255.642 47.2236 257.193 L47.2236 252.471 Q50.0477 251.337 52.5014 250.758 Q54.955 250.18 56.9921 250.18 Q62.3624 250.18 65.5568 252.865 Q68.7513 255.55 68.7513 260.041 Q68.7513 262.17 67.9411 264.091 Q67.1541 265.99 65.0476 268.582 Q64.4689 269.253 61.367 272.471 Q58.2652 275.665 52.6171 281.429 Z" fill="#000000" fill-rule="evenodd" fill-opacity="1" /><path clip-path="url(#clip900)" d="M88.7512 253.883 Q85.1401 253.883 83.3114 257.448 Q81.5058 260.99 81.5058 268.119 Q81.5058 275.226 83.3114 278.79 Q85.1401 282.332 88.7512 282.332 Q92.3854 282.332 94.1909 278.79 Q96.0196 275.226 96.0196 268.119 Q96.0196 260.99 94.1909 257.448 Q92.3854 253.883 88.7512 253.883 M88.7512 250.18 Q94.5613 250.18 97.6169 254.786 Q100.696 259.369 100.696 268.119 Q100.696 276.846 97.6169 281.452 Q94.5613 286.036 88.7512 286.036 Q82.941 286.036 79.8623 281.452 Q76.8068 276.846 76.8068 268.119 Q76.8068 259.369 79.8623 254.786 Q82.941 250.18 88.7512 250.18 Z" fill="#000000" fill-rule="evenodd" fill-opacity="1" /><path clip-path="url(#clip900)" d="M118.913 253.883 Q115.302 253.883 113.473 257.448 Q111.668 260.99 111.668 268.119 Q111.668 275.226 113.473 278.79 Q115.302 282.332 118.913 282.332 Q122.547 282.332 124.353 278.79 Q126.182 275.226 126.182 268.119 Q126.182 260.99 124.353 257.448 Q122.547 253.883 118.913 253.883 M118.913 250.18 Q124.723 250.18 127.779 254.786 Q130.857 259.369 130.857 268.119 Q130.857 276.846 127.779 281.452 Q124.723 286.036 118.913 286.036 Q113.103 286.036 110.024 281.452 Q106.969 276.846 106.969 268.119 Q106.969 259.369 110.024 254.786 Q113.103 250.18 118.913 250.18 Z" fill="#000000" fill-rule="evenodd" fill-opacity="1" /><path clip-path="url(#clip900)" d="M500.47 49.7694 Q491.437 49.7694 487.953 51.8354 Q484.469 53.9013 484.469 58.8839 Q484.469 62.8538 487.062 65.2034 Q489.695 67.5124 494.191 67.5124 Q500.389 67.5124 504.116 63.1374 Q507.883 58.7219 507.883 51.4303 L507.883 49.7694 L500.47 49.7694 M515.337 46.6907 L515.337 72.576 L507.883 72.576 L507.883 65.6895 Q505.331 69.8214 501.523 71.8063 Q497.715 73.7508 492.206 73.7508 Q485.239 73.7508 481.107 69.8619 Q477.015 65.9325 477.015 59.3701 Q477.015 51.7138 482.119 47.825 Q487.264 43.9361 497.432 43.9361 L507.883 43.9361 L507.883 43.2069 Q507.883 38.0623 504.48 35.2672 Q501.118 32.4315 495.001 32.4315 Q491.112 32.4315 487.426 33.3632 Q483.74 34.295 480.337 36.1584 L480.337 29.2718 Q484.428 27.692 488.277 26.9223 Q492.125 26.1121 495.771 26.1121 Q505.615 26.1121 510.476 31.2163 Q515.337 36.3204 515.337 46.6907 Z" fill="#000000" fill-rule="evenodd" fill-opacity="1" /><path clip-path="url(#clip900)" d="M560.545 34.0924 L560.545 9.54393 L567.999 9.54393 L567.999 72.576 L560.545 72.576 L560.545 65.7705 Q558.195 69.8214 554.59 71.8063 Q551.025 73.7508 546.002 73.7508 Q537.779 73.7508 532.594 67.1883 Q527.449 60.6258 527.449 49.9314 Q527.449 39.2371 532.594 32.6746 Q537.779 26.1121 546.002 26.1121 Q551.025 26.1121 554.59 28.0971 Q558.195 30.0415 560.545 34.0924 M535.146 49.9314 Q535.146 58.1548 538.508 62.8538 Q541.911 67.5124 547.825 67.5124 Q553.739 67.5124 557.142 62.8538 Q560.545 58.1548 560.545 49.9314 Q560.545 41.7081 557.142 37.0496 Q553.739 32.3505 547.825 32.3505 Q541.911 32.3505 538.508 37.0496 Q535.146 41.7081 535.146 49.9314 Z" fill="#000000" fill-rule="evenodd" fill-opacity="1" /><path clip-path="url(#clip900)" d="M603.971 49.7694 Q594.937 49.7694 591.453 51.8354 Q587.97 53.9013 587.97 58.8839 Q587.97 62.8538 590.562 65.2034 Q593.195 67.5124 597.692 67.5124 Q603.89 67.5124 607.616 63.1374 Q611.384 58.7219 611.384 51.4303 L611.384 49.7694 L603.971 49.7694 M618.837 46.6907 L618.837 72.576 L611.384 72.576 L611.384 65.6895 Q608.832 69.8214 605.024 71.8063 Q601.216 73.7508 595.707 73.7508 Q588.739 73.7508 584.607 69.8619 Q580.516 65.9325 580.516 59.3701 Q580.516 51.7138 585.62 47.825 Q590.765 43.9361 600.933 43.9361 L611.384 43.9361 L611.384 43.2069 Q611.384 38.0623 607.981 35.2672 Q604.619 32.4315 598.502 32.4315 Q594.613 32.4315 590.927 33.3632 Q587.24 34.295 583.838 36.1584 L583.838 29.2718 Q587.929 27.692 591.777 26.9223 Q595.626 26.1121 599.272 26.1121 Q609.115 26.1121 613.976 31.2163 Q618.837 36.3204 618.837 46.6907 Z" fill="#000000" fill-rule="evenodd" fill-opacity="1" /><path clip-path="url(#clip900)" d="M641.401 65.7705 L641.401 89.8329 L633.907 89.8329 L633.907 27.2059 L641.401 27.2059 L641.401 34.0924 Q643.751 30.0415 647.315 28.0971 Q650.921 26.1121 655.903 26.1121 Q664.167 26.1121 669.312 32.6746 Q674.497 39.2371 674.497 49.9314 Q674.497 60.6258 669.312 67.1883 Q664.167 73.7508 655.903 73.7508 Q650.921 73.7508 647.315 71.8063 Q643.751 69.8214 641.401 65.7705 M666.76 49.9314 Q666.76 41.7081 663.357 37.0496 Q659.995 32.3505 654.08 32.3505 Q648.166 32.3505 644.763 37.0496 Q641.401 41.7081 641.401 49.9314 Q641.401 58.1548 644.763 62.8538 Q648.166 67.5124 654.08 67.5124 Q659.995 67.5124 663.357 62.8538 Q666.76 58.1548 666.76 49.9314 Z" fill="#000000" fill-rule="evenodd" fill-opacity="1" /><path clip-path="url(#clip900)" d="M694.225 14.324 L694.225 27.2059 L709.578 27.2059 L709.578 32.9987 L694.225 32.9987 L694.225 57.6282 Q694.225 63.1779 695.724 64.7578 Q697.263 66.3376 701.922 66.3376 L709.578 66.3376 L709.578 72.576 L701.922 72.576 Q693.293 72.576 690.012 69.3758 Q686.731 66.1351 686.731 57.6282 L686.731 32.9987 L681.262 32.9987 L681.262 27.2059 L686.731 27.2059 L686.731 14.324 L694.225 14.324 Z" fill="#000000" fill-rule="evenodd" fill-opacity="1" /><path clip-path="url(#clip900)" d="M719.381 27.2059 L726.835 27.2059 L726.835 72.576 L719.381 72.576 L719.381 27.2059 M719.381 9.54393 L726.835 9.54393 L726.835 18.9825 L719.381 18.9825 L719.381 9.54393 Z" fill="#000000" fill-rule="evenodd" fill-opacity="1" /><path clip-path="url(#clip900)" d="M737.083 27.2059 L744.983 27.2059 L759.161 65.2844 L773.339 27.2059 L781.238 27.2059 L764.224 72.576 L754.097 72.576 L737.083 27.2059 Z" fill="#000000" fill-rule="evenodd" fill-opacity="1" /><path clip-path="url(#clip900)" d="M830.335 48.0275 L830.335 51.6733 L796.065 51.6733 Q796.551 59.3701 800.683 63.421 Q804.855 67.4314 812.268 67.4314 Q816.562 67.4314 820.573 66.3781 Q824.623 65.3249 828.593 63.2184 L828.593 70.267 Q824.583 71.9684 820.37 72.8596 Q816.157 73.7508 811.823 73.7508 Q800.966 73.7508 794.606 67.4314 Q788.287 61.1119 788.287 50.3365 Q788.287 39.1965 794.282 32.6746 Q800.318 26.1121 810.526 26.1121 Q819.681 26.1121 824.988 32.0264 Q830.335 37.9003 830.335 48.0275 M822.882 45.84 Q822.801 39.7232 819.438 36.0774 Q816.117 32.4315 810.607 32.4315 Q804.369 32.4315 800.602 35.9558 Q796.875 39.4801 796.308 45.8805 L822.882 45.84 Z" fill="#000000" fill-rule="evenodd" fill-opacity="1" /><path clip-path="url(#clip900)" d="M877.042 86.3491 L877.042 92.1419 L833.941 92.1419 L833.941 86.3491 L877.042 86.3491 Z" fill="#000000" fill-rule="evenodd" fill-opacity="1" /><path clip-path="url(#clip900)" d="M884.05 27.2059 L891.504 27.2059 L891.504 72.576 L884.05 72.576 L884.05 27.2059 M884.05 9.54393 L891.504 9.54393 L891.504 18.9825 L884.05 18.9825 L884.05 9.54393 Z" fill="#000000" fill-rule="evenodd" fill-opacity="1" /><path clip-path="url(#clip900)" d="M944.814 45.1919 L944.814 72.576 L937.36 72.576 L937.36 45.4349 Q937.36 38.994 934.849 35.7938 Q932.337 32.5936 927.314 32.5936 Q921.278 32.5936 917.794 36.4419 Q914.31 40.2903 914.31 46.9338 L914.31 72.576 L906.816 72.576 L906.816 27.2059 L914.31 27.2059 L914.31 34.2544 Q916.984 30.163 920.589 28.1376 Q924.235 26.1121 928.975 26.1121 Q936.793 26.1121 940.803 30.9732 Q944.814 35.7938 944.814 45.1919 Z" fill="#000000" fill-rule="evenodd" fill-opacity="1" /><path clip-path="url(#clip900)" d="M989.536 34.0924 L989.536 9.54393 L996.989 9.54393 L996.989 72.576 L989.536 72.576 L989.536 65.7705 Q987.186 69.8214 983.581 71.8063 Q980.016 73.7508 974.993 73.7508 Q966.77 73.7508 961.585 67.1883 Q956.44 60.6258 956.44 49.9314 Q956.44 39.2371 961.585 32.6746 Q966.77 26.1121 974.993 26.1121 Q980.016 26.1121 983.581 28.0971 Q987.186 30.0415 989.536 34.0924 M964.137 49.9314 Q964.137 58.1548 967.499 62.8538 Q970.902 67.5124 976.816 67.5124 Q982.73 67.5124 986.133 62.8538 Q989.536 58.1548 989.536 49.9314 Q989.536 41.7081 986.133 37.0496 Q982.73 32.3505 976.816 32.3505 Q970.902 32.3505 967.499 37.0496 Q964.137 41.7081 964.137 49.9314 Z" fill="#000000" fill-rule="evenodd" fill-opacity="1" /><path clip-path="url(#clip900)" d="M1011.57 54.671 L1011.57 27.2059 L1019.03 27.2059 L1019.03 54.3874 Q1019.03 60.8284 1021.54 64.0691 Q1024.05 67.2693 1029.07 67.2693 Q1035.11 67.2693 1038.59 63.421 Q1042.12 59.5726 1042.12 52.9291 L1042.12 27.2059 L1049.57 27.2059 L1049.57 72.576 L1042.12 72.576 L1042.12 65.6084 Q1039.4 69.7404 1035.8 71.7658 Q1032.23 73.7508 1027.49 73.7508 Q1019.67 73.7508 1015.62 68.8897 Q1011.57 64.0286 1011.57 54.671 M1030.33 26.1121 L1030.33 26.1121 Z" fill="#000000" fill-rule="evenodd" fill-opacity="1" /><path clip-path="url(#clip900)" d="M1097.57 28.9478 L1097.57 35.9153 Q1094.41 34.1734 1091.21 33.3227 Q1088.05 32.4315 1084.81 32.4315 Q1077.56 32.4315 1073.55 37.0496 Q1069.54 41.6271 1069.54 49.9314 Q1069.54 58.2358 1073.55 62.8538 Q1077.56 67.4314 1084.81 67.4314 Q1088.05 67.4314 1091.21 66.5807 Q1094.41 65.6895 1097.57 63.9476 L1097.57 70.8341 Q1094.45 72.2924 1091.09 73.0216 Q1087.77 73.7508 1084 73.7508 Q1073.75 73.7508 1067.72 67.3098 Q1061.68 60.8689 1061.68 49.9314 Q1061.68 38.832 1067.76 32.472 Q1073.88 26.1121 1084.49 26.1121 Q1087.93 26.1121 1091.21 26.8413 Q1094.49 27.5299 1097.57 28.9478 Z" fill="#000000" fill-rule="evenodd" fill-opacity="1" /><path clip-path="url(#clip900)" d="M1117.91 14.324 L1117.91 27.2059 L1133.26 27.2059 L1133.26 32.9987 L1117.91 32.9987 L1117.91 57.6282 Q1117.91 63.1779 1119.41 64.7578 Q1120.95 66.3376 1125.61 66.3376 L1133.26 66.3376 L1133.26 72.576 L1125.61 72.576 Q1116.98 72.576 1113.7 69.3758 Q1110.41 66.1351 1110.41 57.6282 L1110.41 32.9987 L1104.95 32.9987 L1104.95 27.2059 L1110.41 27.2059 L1110.41 14.324 L1117.91 14.324 Z" fill="#000000" fill-rule="evenodd" fill-opacity="1" /><path clip-path="url(#clip900)" d="M1143.07 27.2059 L1150.52 27.2059 L1150.52 72.576 L1143.07 72.576 L1143.07 27.2059 M1143.07 9.54393 L1150.52 9.54393 L1150.52 18.9825 L1143.07 18.9825 L1143.07 9.54393 Z" fill="#000000" fill-rule="evenodd" fill-opacity="1" /><path clip-path="url(#clip900)" d="M1160.77 27.2059 L1168.67 27.2059 L1182.84 65.2844 L1197.02 27.2059 L1204.92 27.2059 L1187.91 72.576 L1177.78 72.576 L1160.77 27.2059 Z" fill="#000000" fill-rule="evenodd" fill-opacity="1" /><path clip-path="url(#clip900)" d="M1254.02 48.0275 L1254.02 51.6733 L1219.75 51.6733 Q1220.23 59.3701 1224.37 63.421 Q1228.54 67.4314 1235.95 67.4314 Q1240.25 67.4314 1244.26 66.3781 Q1248.31 65.3249 1252.28 63.2184 L1252.28 70.267 Q1248.27 71.9684 1244.05 72.8596 Q1239.84 73.7508 1235.51 73.7508 Q1224.65 73.7508 1218.29 67.4314 Q1211.97 61.1119 1211.97 50.3365 Q1211.97 39.1965 1217.97 32.6746 Q1224 26.1121 1234.21 26.1121 Q1243.37 26.1121 1248.67 32.0264 Q1254.02 37.9003 1254.02 48.0275 M1246.57 45.84 Q1246.48 39.7232 1243.12 36.0774 Q1239.8 32.4315 1234.29 32.4315 Q1228.05 32.4315 1224.29 35.9558 Q1220.56 39.4801 1219.99 45.8805 L1246.57 45.84 Z" fill="#000000" fill-rule="evenodd" fill-opacity="1" /><path clip-path="url(#clip902)" d="
M254.392 817.306 L254.392 1081.75 L422.979 1081.75 L422.979 817.306 L254.392 817.306 L254.392 817.306  Z
  " fill="#e69f00" fill-rule="evenodd" fill-opacity="1"/>
<polyline clip-path="url(#clip902)" style="stroke:#000000; stroke-linecap:round; stroke-linejoin:round; stroke-width:4; stroke-opacity:1; fill:none" points="
  254.392,817.306 254.392,1081.75 422.979,1081.75 422.979,817.306 254.392,817.306 
  "/>
<path clip-path="url(#clip902)" d="
M465.125 158.24 L465.125 1081.75 L633.711 1081.75 L633.711 158.24 L465.125 158.24 L465.125 158.24  Z
  " fill="#e69f00" fill-rule="evenodd" fill-opacity="1"/>
<polyline clip-path="url(#clip902)" style="stroke:#000000; stroke-linecap:round; stroke-linejoin:round; stroke-width:4; stroke-opacity:1; fill:none" points="
  465.125,158.24 465.125,1081.75 633.711,1081.75 633.711,158.24 465.125,158.24 
  "/>
<path clip-path="url(#clip902)" d="
M675.858 125.694 L675.858 1081.75 L844.444 1081.75 L844.444 125.694 L675.858 125.694 L675.858 125.694  Z
  " fill="#e69f00" fill-rule="evenodd" fill-opacity="1"/>
<polyline clip-path="url(#clip902)" style="stroke:#000000; stroke-linecap:round; stroke-linejoin:round; stroke-width:4; stroke-opacity:1; fill:none" points="
  675.858,125.694 675.858,1081.75 844.444,1081.75 844.444,125.694 675.858,125.694 
  "/>
<path clip-path="url(#clip902)" d="
M886.591 341.314 L886.591 1081.75 L1055.18 1081.75 L1055.18 341.314 L886.591 341.314 L886.591 341.314  Z
  " fill="#e69f00" fill-rule="evenodd" fill-opacity="1"/>
<polyline clip-path="url(#clip902)" style="stroke:#000000; stroke-linecap:round; stroke-linejoin:round; stroke-width:4; stroke-opacity:1; fill:none" points="
  886.591,341.314 886.591,1081.75 1055.18,1081.75 1055.18,341.314 886.591,341.314 
  "/>
<path clip-path="url(#clip902)" d="
M1097.32 304.699 L1097.32 1081.75 L1265.91 1081.75 L1265.91 304.699 L1097.32 304.699 L1097.32 304.699  Z
  " fill="#e69f00" fill-rule="evenodd" fill-opacity="1"/>
<polyline clip-path="url(#clip902)" style="stroke:#000000; stroke-linecap:round; stroke-linejoin:round; stroke-width:4; stroke-opacity:1; fill:none" points="
  1097.32,304.699 1097.32,1081.75 1265.91,1081.75 1265.91,304.699 1097.32,304.699 
  "/>
<path clip-path="url(#clip902)" d="
M1308.06 674.915 L1308.06 1081.75 L1476.64 1081.75 L1476.64 674.915 L1308.06 674.915 L1308.06 674.915  Z
  " fill="#e69f00" fill-rule="evenodd" fill-opacity="1"/>
<polyline clip-path="url(#clip902)" style="stroke:#000000; stroke-linecap:round; stroke-linejoin:round; stroke-width:4; stroke-opacity:1; fill:none" points="
  1308.06,674.915 1308.06,1081.75 1476.64,1081.75 1476.64,674.915 1308.06,674.915 
  "/>
<circle clip-path="url(#clip902)" style="fill:#e69f00; stroke:none; fill-opacity:0" cx="338.686" cy="817.306" r="2"/>
<circle clip-path="url(#clip902)" style="fill:#e69f00; stroke:none; fill-opacity:0" cx="549.418" cy="158.24" r="2"/>
<circle clip-path="url(#clip902)" style="fill:#e69f00; stroke:none; fill-opacity:0" cx="760.151" cy="125.694" r="2"/>
<circle clip-path="url(#clip902)" style="fill:#e69f00; stroke:none; fill-opacity:0" cx="970.884" cy="341.314" r="2"/>
<circle clip-path="url(#clip902)" style="fill:#e69f00; stroke:none; fill-opacity:0" cx="1181.62" cy="304.699" r="2"/>
<circle clip-path="url(#clip902)" style="fill:#e69f00; stroke:none; fill-opacity:0" cx="1392.35" cy="674.915" r="2"/>
<path clip-path="url(#clip900)" d="
M1779.44 1110.43 L3152.76 1110.43 L3152.76 97.0121 L1779.44 97.0121  Z
  " fill="#ffffff" fill-rule="evenodd" fill-opacity="1"/>
<defs>
  <clipPath id="clip903">
    <rect x="1779" y="97" width="1374" height="1014"/>
  </clipPath>
</defs>
<polyline clip-path="url(#clip903)" style="stroke:#000000; stroke-linecap:round; stroke-linejoin:round; stroke-width:2; stroke-opacity:0.1; fill:none" points="
  1983.63,1110.43 1983.63,97.0121 
  "/>
<polyline clip-path="url(#clip903)" style="stroke:#000000; stroke-linecap:round; stroke-linejoin:round; stroke-width:2; stroke-opacity:0.1; fill:none" points="
  2305.27,1110.43 2305.27,97.0121 
  "/>
<polyline clip-path="url(#clip903)" style="stroke:#000000; stroke-linecap:round; stroke-linejoin:round; stroke-width:2; stroke-opacity:0.1; fill:none" points="
  2626.92,1110.43 2626.92,97.0121 
  "/>
<polyline clip-path="url(#clip903)" style="stroke:#000000; stroke-linecap:round; stroke-linejoin:round; stroke-width:2; stroke-opacity:0.1; fill:none" points="
  2948.56,1110.43 2948.56,97.0121 
  "/>
<polyline clip-path="url(#clip900)" style="stroke:#000000; stroke-linecap:round; stroke-linejoin:round; stroke-width:4; stroke-opacity:1; fill:none" points="
  1779.44,1110.43 3152.76,1110.43 
  "/>
<polyline clip-path="url(#clip900)" style="stroke:#000000; stroke-linecap:round; stroke-linejoin:round; stroke-width:4; stroke-opacity:1; fill:none" points="
  1983.63,1110.43 1983.63,1091.53 
  "/>
<polyline clip-path="url(#clip900)" style="stroke:#000000; stroke-linecap:round; stroke-linejoin:round; stroke-width:4; stroke-opacity:1; fill:none" points="
  2305.27,1110.43 2305.27,1091.53 
  "/>
<polyline clip-path="url(#clip900)" style="stroke:#000000; stroke-linecap:round; stroke-linejoin:round; stroke-width:4; stroke-opacity:1; fill:none" points="
  2626.92,1110.43 2626.92,1091.53 
  "/>
<polyline clip-path="url(#clip900)" style="stroke:#000000; stroke-linecap:round; stroke-linejoin:round; stroke-width:4; stroke-opacity:1; fill:none" points="
  2948.56,1110.43 2948.56,1091.53 
  "/>
<path clip-path="url(#clip900)" d="M1897.04 1141.26 L1897.04 1176.81 L1894.09 1176.81 L1894.09 1141.26 L1897.04 1141.26 Z" fill="#000000" fill-rule="evenodd" fill-opacity="1" /><path clip-path="url(#clip900)" d="M1924.45 1144.5 L1924.45 1148.2 Q1922.68 1146.55 1920.67 1145.74 Q1918.67 1144.92 1916.42 1144.92 Q1911.97 1144.92 1909.61 1147.65 Q1907.25 1150.36 1907.25 1155.49 Q1907.25 1160.62 1909.61 1163.34 Q1911.97 1166.05 1916.42 1166.05 Q1918.67 1166.05 1920.67 1165.23 Q1922.68 1164.42 1924.45 1162.77 L1924.45 1166.43 Q1922.61 1167.68 1920.55 1168.31 Q1918.5 1168.93 1916.21 1168.93 Q1910.32 1168.93 1906.94 1165.34 Q1903.55 1161.73 1903.55 1155.49 Q1903.55 1149.24 1906.94 1145.65 Q1910.32 1142.04 1916.21 1142.04 Q1918.53 1142.04 1920.58 1142.66 Q1922.65 1143.27 1924.45 1144.5 Z" fill="#000000" fill-rule="evenodd" fill-opacity="1" /><path clip-path="url(#clip900)" d="M1933.85 1141.26 L1933.85 1176.81 L1930.89 1176.81 L1930.89 1141.26 L1933.85 1141.26 Z" fill="#000000" fill-rule="evenodd" fill-opacity="1" /><path clip-path="url(#clip900)" d="M1955.62 1157.54 Q1955.74 1158.83 1956.83 1160.91 Q1958.12 1163.32 1960.55 1164.68 Q1962.93 1166 1965.5 1166.01 L1977.6 1166.01 L1977.6 1168.78 L1965.5 1168.78 Q1962.16 1168.78 1959.07 1167.06 Q1956 1165.34 1954.35 1162.28 Q1952.7 1159.23 1952.7 1155.98 Q1952.7 1152.77 1954.35 1149.71 Q1956 1146.66 1959.07 1144.92 Q1962.16 1143.18 1965.5 1143.18 L1977.6 1143.18 L1977.6 1145.95 L1965.5 1145.95 Q1962.93 1145.96 1960.55 1147.3 Q1958.13 1148.67 1956.83 1151.07 Q1955.72 1153.15 1955.56 1154.76 L1977.6 1154.76 L1977.6 1157.54 L1955.62 1157.54 Z" fill="#000000" fill-rule="evenodd" fill-opacity="1" /><path clip-path="url(#clip900)" d="M1994.99 1141.41 L2002.35 1141.41 L2002.35 1143.9 L1998.19 1143.9 L1998.19 1170.63 L2002.35 1170.63 L2002.35 1173.12 L1994.99 1173.12 L1994.99 1141.41 Z" fill="#000000" fill-rule="evenodd" fill-opacity="1" /><path clip-path="url(#clip900)" d="M2017.11 1144.82 Q2014.4 1144.82 2013.03 1147.49 Q2011.68 1150.15 2011.68 1155.49 Q2011.68 1160.82 2013.03 1163.5 Q2014.4 1166.15 2017.11 1166.15 Q2019.84 1166.15 2021.19 1163.5 Q2022.56 1160.82 2022.56 1155.49 Q2022.56 1150.15 2021.19 1147.49 Q2019.84 1144.82 2017.11 1144.82 M2017.11 1142.04 Q2021.47 1142.04 2023.76 1145.49 Q2026.07 1148.93 2026.07 1155.49 Q2026.07 1162.04 2023.76 1165.49 Q2021.47 1168.93 2017.11 1168.93 Q2012.75 1168.93 2010.44 1165.49 Q2008.15 1162.04 2008.15 1155.49 Q2008.15 1148.93 2010.44 1145.49 Q2012.75 1142.04 2017.11 1142.04 Z" fill="#000000" fill-rule="evenodd" fill-opacity="1" /><path clip-path="url(#clip900)" d="M2032.6 1164.02 L2036.26 1164.02 L2036.26 1167 L2033.41 1172.56 L2031.17 1172.56 L2032.6 1167 L2032.6 1164.02 Z" fill="#000000" fill-rule="evenodd" fill-opacity="1" /><path clip-path="url(#clip900)" d="M2044.14 1165.48 L2049.87 1165.48 L2049.87 1145.7 L2043.64 1146.95 L2043.64 1143.76 L2049.84 1142.51 L2053.34 1142.51 L2053.34 1165.48 L2059.07 1165.48 L2059.07 1168.43 L2044.14 1168.43 L2044.14 1165.48 Z" fill="#000000" fill-rule="evenodd" fill-opacity="1" /><path clip-path="url(#clip900)" d="M2073.17 1141.41 L2073.17 1173.12 L2065.81 1173.12 L2065.81 1170.63 L2069.96 1170.63 L2069.96 1143.9 L2065.81 1143.9 L2065.81 1141.41 L2073.17 1141.41 Z" fill="#000000" fill-rule="evenodd" fill-opacity="1" /><path clip-path="url(#clip900)" d="M2218.69 1141.26 L2218.69 1176.81 L2215.73 1176.81 L2215.73 1141.26 L2218.69 1141.26 Z" fill="#000000" fill-rule="evenodd" fill-opacity="1" /><path clip-path="url(#clip900)" d="M2246.1 1144.5 L2246.1 1148.2 Q2244.33 1146.55 2242.31 1145.74 Q2240.32 1144.92 2238.06 1144.92 Q2233.62 1144.92 2231.25 1147.65 Q2228.89 1150.36 2228.89 1155.49 Q2228.89 1160.62 2231.25 1163.34 Q2233.62 1166.05 2238.06 1166.05 Q2240.32 1166.05 2242.31 1165.23 Q2244.33 1164.42 2246.1 1162.77 L2246.1 1166.43 Q2244.26 1167.68 2242.19 1168.31 Q2240.14 1168.93 2237.85 1168.93 Q2231.97 1168.93 2228.58 1165.34 Q2225.2 1161.73 2225.2 1155.49 Q2225.2 1149.24 2228.58 1145.65 Q2231.97 1142.04 2237.85 1142.04 Q2240.18 1142.04 2242.23 1142.66 Q2244.29 1143.27 2246.1 1144.5 Z" fill="#000000" fill-rule="evenodd" fill-opacity="1" /><path clip-path="url(#clip900)" d="M2255.49 1141.26 L2255.49 1176.81 L2252.54 1176.81 L2252.54 1141.26 L2255.49 1141.26 Z" fill="#000000" fill-rule="evenodd" fill-opacity="1" /><path clip-path="url(#clip900)" d="M2277.26 1157.54 Q2277.38 1158.83 2278.48 1160.91 Q2279.76 1163.32 2282.19 1164.68 Q2284.57 1166 2287.14 1166.01 L2299.24 1166.01 L2299.24 1168.78 L2287.14 1168.78 Q2283.81 1168.78 2280.72 1167.06 Q2277.64 1165.34 2275.99 1162.28 Q2274.35 1159.23 2274.35 1155.98 Q2274.35 1152.77 2275.99 1149.71 Q2277.64 1146.66 2280.72 1144.92 Q2283.81 1143.18 2287.14 1143.18 L2299.24 1143.18 L2299.24 1145.95 L2287.14 1145.95 Q2284.57 1145.96 2282.19 1147.3 Q2279.78 1148.67 2278.48 1151.07 Q2277.37 1153.15 2277.21 1154.76 L2299.24 1154.76 L2299.24 1157.54 L2277.26 1157.54 Z" fill="#000000" fill-rule="evenodd" fill-opacity="1" /><path clip-path="url(#clip900)" d="M2316.64 1141.41 L2324 1141.41 L2324 1143.9 L2319.83 1143.9 L2319.83 1170.63 L2324 1170.63 L2324 1173.12 L2316.64 1173.12 L2316.64 1141.41 Z" fill="#000000" fill-rule="evenodd" fill-opacity="1" /><path clip-path="url(#clip900)" d="M2334.28 1165.48 L2346.51 1165.48 L2346.51 1168.43 L2330.06 1168.43 L2330.06 1165.48 Q2332.05 1163.41 2335.49 1159.94 Q2338.95 1156.45 2339.83 1155.44 Q2341.51 1153.55 2342.17 1152.25 Q2342.85 1150.93 2342.85 1149.66 Q2342.85 1147.59 2341.39 1146.29 Q2339.95 1144.99 2337.63 1144.99 Q2335.98 1144.99 2334.14 1145.56 Q2332.31 1146.14 2330.23 1147.3 L2330.23 1143.76 Q2332.35 1142.91 2334.19 1142.47 Q2336.03 1142.04 2337.56 1142.04 Q2341.58 1142.04 2343.98 1144.05 Q2346.38 1146.07 2346.38 1149.43 Q2346.38 1151.03 2345.77 1152.47 Q2345.18 1153.9 2343.6 1155.84 Q2343.16 1156.34 2340.84 1158.76 Q2338.51 1161.15 2334.28 1165.48 Z" fill="#000000" fill-rule="evenodd" fill-opacity="1" /><path clip-path="url(#clip900)" d="M2354.24 1164.02 L2357.9 1164.02 L2357.9 1167 L2355.06 1172.56 L2352.82 1172.56 L2354.24 1167 L2354.24 1164.02 Z" fill="#000000" fill-rule="evenodd" fill-opacity="1" /><path clip-path="url(#clip900)" d="M2375.8 1154.45 Q2378.32 1154.99 2379.73 1156.69 Q2381.15 1158.39 2381.15 1160.89 Q2381.15 1164.73 2378.51 1166.83 Q2375.87 1168.93 2371.01 1168.93 Q2369.38 1168.93 2367.64 1168.6 Q2365.92 1168.29 2364.08 1167.65 L2364.08 1164.26 Q2365.54 1165.11 2367.28 1165.55 Q2369.01 1165.98 2370.91 1165.98 Q2374.21 1165.98 2375.92 1164.68 Q2377.66 1163.38 2377.66 1160.89 Q2377.66 1158.6 2376.05 1157.32 Q2374.45 1156.01 2371.58 1156.01 L2368.56 1156.01 L2368.56 1153.13 L2371.72 1153.13 Q2374.31 1153.13 2375.68 1152.11 Q2377.05 1151.07 2377.05 1149.12 Q2377.05 1147.13 2375.63 1146.07 Q2374.22 1144.99 2371.58 1144.99 Q2370.14 1144.99 2368.49 1145.3 Q2366.84 1145.62 2364.87 1146.28 L2364.87 1143.15 Q2366.86 1142.59 2368.6 1142.32 Q2370.35 1142.04 2371.9 1142.04 Q2375.89 1142.04 2378.22 1143.86 Q2380.54 1145.67 2380.54 1148.76 Q2380.54 1150.91 2379.31 1152.4 Q2378.08 1153.88 2375.8 1154.45 Z" fill="#000000" fill-rule="evenodd" fill-opacity="1" /><path clip-path="url(#clip900)" d="M2394.81 1141.41 L2394.81 1173.12 L2387.45 1173.12 L2387.45 1170.63 L2391.6 1170.63 L2391.6 1143.9 L2387.45 1143.9 L2387.45 1141.41 L2394.81 1141.41 Z" fill="#000000" fill-rule="evenodd" fill-opacity="1" /><path clip-path="url(#clip900)" d="M2540.33 1141.26 L2540.33 1176.81 L2537.38 1176.81 L2537.38 1141.26 L2540.33 1141.26 Z" fill="#000000" fill-rule="evenodd" fill-opacity="1" /><path clip-path="url(#clip900)" d="M2567.74 1144.5 L2567.74 1148.2 Q2565.97 1146.55 2563.96 1145.74 Q2561.96 1144.92 2559.71 1144.92 Q2555.26 1144.92 2552.9 1147.65 Q2550.54 1150.36 2550.54 1155.49 Q2550.54 1160.62 2552.9 1163.34 Q2555.26 1166.05 2559.71 1166.05 Q2561.96 1166.05 2563.96 1165.23 Q2565.97 1164.42 2567.74 1162.77 L2567.74 1166.43 Q2565.9 1167.68 2563.84 1168.31 Q2561.79 1168.93 2559.5 1168.93 Q2553.61 1168.93 2550.23 1165.34 Q2546.84 1161.73 2546.84 1155.49 Q2546.84 1149.24 2550.23 1145.65 Q2553.61 1142.04 2559.5 1142.04 Q2561.82 1142.04 2563.87 1142.66 Q2565.94 1143.27 2567.74 1144.5 Z" fill="#000000" fill-rule="evenodd" fill-opacity="1" /><path clip-path="url(#clip900)" d="M2577.14 1141.26 L2577.14 1176.81 L2574.18 1176.81 L2574.18 1141.26 L2577.14 1141.26 Z" fill="#000000" fill-rule="evenodd" fill-opacity="1" /><path clip-path="url(#clip900)" d="M2598.91 1157.54 Q2599.03 1158.83 2600.12 1160.91 Q2601.41 1163.32 2603.84 1164.68 Q2606.22 1166 2608.78 1166.01 L2620.89 1166.01 L2620.89 1168.78 L2608.78 1168.78 Q2605.45 1168.78 2602.36 1167.06 Q2599.29 1165.34 2597.64 1162.28 Q2595.99 1159.23 2595.99 1155.98 Q2595.99 1152.77 2597.64 1149.71 Q2599.29 1146.66 2602.36 1144.92 Q2605.45 1143.18 2608.78 1143.18 L2620.89 1143.18 L2620.89 1145.95 L2608.78 1145.95 Q2606.22 1145.96 2603.84 1147.3 Q2601.42 1148.67 2600.12 1151.07 Q2599.01 1153.15 2598.85 1154.76 L2620.89 1154.76 L2620.89 1157.54 L2598.91 1157.54 Z" fill="#000000" fill-rule="evenodd" fill-opacity="1" /><path clip-path="url(#clip900)" d="M2638.28 1141.41 L2645.64 1141.41 L2645.64 1143.9 L2641.48 1143.9 L2641.48 1170.63 L2645.64 1170.63 L2645.64 1173.12 L2638.28 1173.12 L2638.28 1141.41 Z" fill="#000000" fill-rule="evenodd" fill-opacity="1" /><path clip-path="url(#clip900)" d="M2662.53 1145.56 L2653.68 1159.4 L2662.53 1159.4 L2662.53 1145.56 M2661.61 1142.51 L2666.02 1142.51 L2666.02 1159.4 L2669.72 1159.4 L2669.72 1162.32 L2666.02 1162.32 L2666.02 1168.43 L2662.53 1168.43 L2662.53 1162.32 L2650.83 1162.32 L2650.83 1158.93 L2661.61 1142.51 Z" fill="#000000" fill-rule="evenodd" fill-opacity="1" /><path clip-path="url(#clip900)" d="M2675.89 1164.02 L2679.55 1164.02 L2679.55 1167 L2676.7 1172.56 L2674.46 1172.56 L2675.89 1167 L2675.89 1164.02 Z" fill="#000000" fill-rule="evenodd" fill-opacity="1" /><path clip-path="url(#clip900)" d="M2686.86 1142.51 L2700.62 1142.51 L2700.62 1145.46 L2690.07 1145.46 L2690.07 1151.81 Q2690.83 1151.55 2691.6 1151.43 Q2692.36 1151.29 2693.12 1151.29 Q2697.46 1151.29 2700 1153.67 Q2702.53 1156.05 2702.53 1160.11 Q2702.53 1164.3 2699.93 1166.62 Q2697.33 1168.93 2692.59 1168.93 Q2690.95 1168.93 2689.25 1168.65 Q2687.57 1168.38 2685.76 1167.82 L2685.76 1164.3 Q2687.33 1165.15 2688.99 1165.56 Q2690.66 1165.98 2692.52 1165.98 Q2695.52 1165.98 2697.27 1164.4 Q2699.03 1162.82 2699.03 1160.11 Q2699.03 1157.4 2697.27 1155.82 Q2695.52 1154.24 2692.52 1154.24 Q2691.11 1154.24 2689.7 1154.56 Q2688.32 1154.87 2686.86 1155.53 L2686.86 1142.51 Z" fill="#000000" fill-rule="evenodd" fill-opacity="1" /><path clip-path="url(#clip900)" d="M2716.46 1141.41 L2716.46 1173.12 L2709.1 1173.12 L2709.1 1170.63 L2713.25 1170.63 L2713.25 1143.9 L2709.1 1143.9 L2709.1 1141.41 L2716.46 1141.41 Z" fill="#000000" fill-rule="evenodd" fill-opacity="1" /><path clip-path="url(#clip900)" d="M2861.97 1141.26 L2861.97 1176.81 L2859.02 1176.81 L2859.02 1141.26 L2861.97 1141.26 Z" fill="#000000" fill-rule="evenodd" fill-opacity="1" /><path clip-path="url(#clip900)" d="M2889.39 1144.5 L2889.39 1148.2 Q2887.62 1146.55 2885.6 1145.74 Q2883.61 1144.92 2881.35 1144.92 Q2876.91 1144.92 2874.54 1147.65 Q2872.18 1150.36 2872.18 1155.49 Q2872.18 1160.62 2874.54 1163.34 Q2876.91 1166.05 2881.35 1166.05 Q2883.61 1166.05 2885.6 1165.23 Q2887.62 1164.42 2889.39 1162.77 L2889.39 1166.43 Q2887.55 1167.68 2885.48 1168.31 Q2883.43 1168.93 2881.14 1168.93 Q2875.26 1168.93 2871.87 1165.34 Q2868.49 1161.73 2868.49 1155.49 Q2868.49 1149.24 2871.87 1145.65 Q2875.26 1142.04 2881.14 1142.04 Q2883.47 1142.04 2885.52 1142.66 Q2887.58 1143.27 2889.39 1144.5 Z" fill="#000000" fill-rule="evenodd" fill-opacity="1" /><path clip-path="url(#clip900)" d="M2898.78 1141.26 L2898.78 1176.81 L2895.83 1176.81 L2895.83 1141.26 L2898.78 1141.26 Z" fill="#000000" fill-rule="evenodd" fill-opacity="1" /><path clip-path="url(#clip900)" d="M2920.55 1157.54 Q2920.67 1158.83 2921.77 1160.91 Q2923.05 1163.32 2925.48 1164.68 Q2927.86 1166 2930.43 1166.01 L2942.53 1166.01 L2942.53 1168.78 L2930.43 1168.78 Q2927.1 1168.78 2924.01 1167.06 Q2920.93 1165.34 2919.28 1162.28 Q2917.63 1159.23 2917.63 1155.98 Q2917.63 1152.77 2919.28 1149.71 Q2920.93 1146.66 2924.01 1144.92 Q2927.1 1143.18 2930.43 1143.18 L2942.53 1143.18 L2942.53 1145.95 L2930.43 1145.95 Q2927.86 1145.96 2925.48 1147.3 Q2923.07 1148.67 2921.77 1151.07 Q2920.66 1153.15 2920.5 1154.76 L2942.53 1154.76 L2942.53 1157.54 L2920.55 1157.54 Z" fill="#000000" fill-rule="evenodd" fill-opacity="1" /><path clip-path="url(#clip900)" d="M2959.93 1141.41 L2967.29 1141.41 L2967.29 1143.9 L2963.12 1143.9 L2963.12 1170.63 L2967.29 1170.63 L2967.29 1173.12 L2959.93 1173.12 L2959.93 1141.41 Z" fill="#000000" fill-rule="evenodd" fill-opacity="1" /><path clip-path="url(#clip900)" d="M2982.48 1154.07 Q2980.12 1154.07 2978.73 1155.68 Q2977.36 1157.3 2977.36 1160.11 Q2977.36 1162.91 2978.73 1164.54 Q2980.12 1166.15 2982.48 1166.15 Q2984.84 1166.15 2986.21 1164.54 Q2987.6 1162.91 2987.6 1160.11 Q2987.6 1157.3 2986.21 1155.68 Q2984.84 1154.07 2982.48 1154.07 M2989.44 1143.08 L2989.44 1146.28 Q2988.12 1145.65 2986.77 1145.32 Q2985.43 1144.99 2984.11 1144.99 Q2980.64 1144.99 2978.8 1147.33 Q2976.97 1149.68 2976.71 1154.42 Q2977.74 1152.91 2979.28 1152.11 Q2980.83 1151.29 2982.69 1151.29 Q2986.59 1151.29 2988.85 1153.67 Q2991.12 1156.03 2991.12 1160.11 Q2991.12 1164.1 2988.76 1166.52 Q2986.4 1168.93 2982.48 1168.93 Q2977.98 1168.93 2975.6 1165.49 Q2973.22 1162.04 2973.22 1155.49 Q2973.22 1149.35 2976.14 1145.7 Q2979.06 1142.04 2983.97 1142.04 Q2985.29 1142.04 2986.63 1142.3 Q2987.98 1142.56 2989.44 1143.08 Z" fill="#000000" fill-rule="evenodd" fill-opacity="1" /><path clip-path="url(#clip900)" d="M2997.53 1164.02 L3001.19 1164.02 L3001.19 1167 L2998.35 1172.56 L2996.11 1172.56 L2997.53 1167 L2997.53 1164.02 Z" fill="#000000" fill-rule="evenodd" fill-opacity="1" /><path clip-path="url(#clip900)" d="M3007.58 1142.51 L3024.25 1142.51 L3024.25 1144 L3014.84 1168.43 L3011.18 1168.43 L3020.03 1145.46 L3007.58 1145.46 L3007.58 1142.51 Z" fill="#000000" fill-rule="evenodd" fill-opacity="1" /><path clip-path="url(#clip900)" d="M3038.1 1141.41 L3038.1 1173.12 L3030.74 1173.12 L3030.74 1170.63 L3034.89 1170.63 L3034.89 1143.9 L3030.74 1143.9 L3030.74 1141.41 L3038.1 1141.41 Z" fill="#000000" fill-rule="evenodd" fill-opacity="1" /><polyline clip-path="url(#clip903)" style="stroke:#000000; stroke-linecap:round; stroke-linejoin:round; stroke-width:2; stroke-opacity:0.1; fill:none" points="
  1779.44,1081.75 3152.76,1081.75 
  "/>
<polyline clip-path="url(#clip903)" style="stroke:#000000; stroke-linecap:round; stroke-linejoin:round; stroke-width:2; stroke-opacity:0.1; fill:none" points="
  1779.44,841.833 3152.76,841.833 
  "/>
<polyline clip-path="url(#clip903)" style="stroke:#000000; stroke-linecap:round; stroke-linejoin:round; stroke-width:2; stroke-opacity:0.1; fill:none" points="
  1779.44,601.921 3152.76,601.921 
  "/>
<polyline clip-path="url(#clip903)" style="stroke:#000000; stroke-linecap:round; stroke-linejoin:round; stroke-width:2; stroke-opacity:0.1; fill:none" points="
  1779.44,362.008 3152.76,362.008 
  "/>
<polyline clip-path="url(#clip903)" style="stroke:#000000; stroke-linecap:round; stroke-linejoin:round; stroke-width:2; stroke-opacity:0.1; fill:none" points="
  1779.44,122.095 3152.76,122.095 
  "/>
<polyline clip-path="url(#clip900)" style="stroke:#000000; stroke-linecap:round; stroke-linejoin:round; stroke-width:4; stroke-opacity:1; fill:none" points="
  1779.44,1110.43 1779.44,97.0121 
  "/>
<polyline clip-path="url(#clip900)" style="stroke:#000000; stroke-linecap:round; stroke-linejoin:round; stroke-width:4; stroke-opacity:1; fill:none" points="
  1779.44,1081.75 1798.33,1081.75 
  "/>
<polyline clip-path="url(#clip900)" style="stroke:#000000; stroke-linecap:round; stroke-linejoin:round; stroke-width:4; stroke-opacity:1; fill:none" points="
  1779.44,841.833 1798.33,841.833 
  "/>
<polyline clip-path="url(#clip900)" style="stroke:#000000; stroke-linecap:round; stroke-linejoin:round; stroke-width:4; stroke-opacity:1; fill:none" points="
  1779.44,601.921 1798.33,601.921 
  "/>
<polyline clip-path="url(#clip900)" style="stroke:#000000; stroke-linecap:round; stroke-linejoin:round; stroke-width:4; stroke-opacity:1; fill:none" points="
  1779.44,362.008 1798.33,362.008 
  "/>
<polyline clip-path="url(#clip900)" style="stroke:#000000; stroke-linecap:round; stroke-linejoin:round; stroke-width:4; stroke-opacity:1; fill:none" points="
  1779.44,122.095 1798.33,122.095 
  "/>
<path clip-path="url(#clip900)" d="M1719.49 1067.54 Q1715.88 1067.54 1714.05 1071.11 Q1712.25 1074.65 1712.25 1081.78 Q1712.25 1088.89 1714.05 1092.45 Q1715.88 1095.99 1719.49 1095.99 Q1723.13 1095.99 1724.93 1092.45 Q1726.76 1088.89 1726.76 1081.78 Q1726.76 1074.65 1724.93 1071.11 Q1723.13 1067.54 1719.49 1067.54 M1719.49 1063.84 Q1725.3 1063.84 1728.36 1068.45 Q1731.44 1073.03 1731.44 1081.78 Q1731.44 1090.51 1728.36 1095.11 Q1725.3 1099.7 1719.49 1099.7 Q1713.68 1099.7 1710.6 1095.11 Q1707.55 1090.51 1707.55 1081.78 Q1707.55 1073.03 1710.6 1068.45 Q1713.68 1063.84 1719.49 1063.84 Z" fill="#000000" fill-rule="evenodd" fill-opacity="1" /><path clip-path="url(#clip900)" d="M1653.2 855.178 L1669.52 855.178 L1669.52 859.113 L1647.57 859.113 L1647.57 855.178 Q1650.23 852.424 1654.82 847.794 Q1659.42 843.141 1660.6 841.799 Q1662.85 839.276 1663.73 837.54 Q1664.63 835.78 1664.63 834.09 Q1664.63 831.336 1662.69 829.6 Q1660.77 827.864 1657.66 827.864 Q1655.46 827.864 1653.01 828.628 Q1650.58 829.391 1647.8 830.942 L1647.8 826.22 Q1650.63 825.086 1653.08 824.507 Q1655.53 823.928 1657.57 823.928 Q1662.94 823.928 1666.14 826.614 Q1669.33 829.299 1669.33 833.79 Q1669.33 835.919 1668.52 837.84 Q1667.73 839.739 1665.63 842.331 Q1665.05 843.002 1661.95 846.22 Q1658.84 849.414 1653.2 855.178 Z" fill="#000000" fill-rule="evenodd" fill-opacity="1" /><path clip-path="url(#clip900)" d="M1689.33 827.632 Q1685.72 827.632 1683.89 831.197 Q1682.08 834.739 1682.08 841.868 Q1682.08 848.975 1683.89 852.539 Q1685.72 856.081 1689.33 856.081 Q1692.96 856.081 1694.77 852.539 Q1696.6 848.975 1696.6 841.868 Q1696.6 834.739 1694.77 831.197 Q1692.96 827.632 1689.33 827.632 M1689.33 823.928 Q1695.14 823.928 1698.2 828.535 Q1701.27 833.118 1701.27 841.868 Q1701.27 850.595 1698.2 855.201 Q1695.14 859.785 1689.33 859.785 Q1683.52 859.785 1680.44 855.201 Q1677.39 850.595 1677.39 841.868 Q1677.39 833.118 1680.44 828.535 Q1683.52 823.928 1689.33 823.928 Z" fill="#000000" fill-rule="evenodd" fill-opacity="1" /><path clip-path="url(#clip900)" d="M1719.49 827.632 Q1715.88 827.632 1714.05 831.197 Q1712.25 834.739 1712.25 841.868 Q1712.25 848.975 1714.05 852.539 Q1715.88 856.081 1719.49 856.081 Q1723.13 856.081 1724.93 852.539 Q1726.76 848.975 1726.76 841.868 Q1726.76 834.739 1724.93 831.197 Q1723.13 827.632 1719.49 827.632 M1719.49 823.928 Q1725.3 823.928 1728.36 828.535 Q1731.44 833.118 1731.44 841.868 Q1731.44 850.595 1728.36 855.201 Q1725.3 859.785 1719.49 859.785 Q1713.68 859.785 1710.6 855.201 Q1707.55 850.595 1707.55 841.868 Q1707.55 833.118 1710.6 828.535 Q1713.68 823.928 1719.49 823.928 Z" fill="#000000" fill-rule="evenodd" fill-opacity="1" /><path clip-path="url(#clip900)" d="M1662.02 588.715 L1650.21 607.164 L1662.02 607.164 L1662.02 588.715 M1660.79 584.641 L1666.67 584.641 L1666.67 607.164 L1671.6 607.164 L1671.6 611.053 L1666.67 611.053 L1666.67 619.201 L1662.02 619.201 L1662.02 611.053 L1646.41 611.053 L1646.41 606.539 L1660.79 584.641 Z" fill="#000000" fill-rule="evenodd" fill-opacity="1" /><path clip-path="url(#clip900)" d="M1689.33 587.719 Q1685.72 587.719 1683.89 591.284 Q1682.08 594.826 1682.08 601.955 Q1682.08 609.062 1683.89 612.627 Q1685.72 616.168 1689.33 616.168 Q1692.96 616.168 1694.77 612.627 Q1696.6 609.062 1696.6 601.955 Q1696.6 594.826 1694.77 591.284 Q1692.96 587.719 1689.33 587.719 M1689.33 584.016 Q1695.14 584.016 1698.2 588.622 Q1701.27 593.205 1701.27 601.955 Q1701.27 610.682 1698.2 615.289 Q1695.14 619.872 1689.33 619.872 Q1683.52 619.872 1680.44 615.289 Q1677.39 610.682 1677.39 601.955 Q1677.39 593.205 1680.44 588.622 Q1683.52 584.016 1689.33 584.016 Z" fill="#000000" fill-rule="evenodd" fill-opacity="1" /><path clip-path="url(#clip900)" d="M1719.49 587.719 Q1715.88 587.719 1714.05 591.284 Q1712.25 594.826 1712.25 601.955 Q1712.25 609.062 1714.05 612.627 Q1715.88 616.168 1719.49 616.168 Q1723.13 616.168 1724.93 612.627 Q1726.76 609.062 1726.76 601.955 Q1726.76 594.826 1724.93 591.284 Q1723.13 587.719 1719.49 587.719 M1719.49 584.016 Q1725.3 584.016 1728.36 588.622 Q1731.44 593.205 1731.44 601.955 Q1731.44 610.682 1728.36 615.289 Q1725.3 619.872 1719.49 619.872 Q1713.68 619.872 1710.6 615.289 Q1707.55 610.682 1707.55 601.955 Q1707.55 593.205 1710.6 588.622 Q1713.68 584.016 1719.49 584.016 Z" fill="#000000" fill-rule="evenodd" fill-opacity="1" /><path clip-path="url(#clip900)" d="M1659.75 360.144 Q1656.6 360.144 1654.75 362.297 Q1652.92 364.45 1652.92 368.2 Q1652.92 371.927 1654.75 374.103 Q1656.6 376.255 1659.75 376.255 Q1662.89 376.255 1664.72 374.103 Q1666.58 371.927 1666.58 368.2 Q1666.58 364.45 1664.72 362.297 Q1662.89 360.144 1659.75 360.144 M1669.03 345.492 L1669.03 349.751 Q1667.27 348.918 1665.46 348.478 Q1663.68 348.038 1661.92 348.038 Q1657.29 348.038 1654.84 351.163 Q1652.41 354.288 1652.06 360.607 Q1653.43 358.593 1655.49 357.529 Q1657.55 356.441 1660.02 356.441 Q1665.23 356.441 1668.24 359.612 Q1671.27 362.76 1671.27 368.2 Q1671.27 373.524 1668.13 376.742 Q1664.98 379.959 1659.75 379.959 Q1653.75 379.959 1650.58 375.376 Q1647.41 370.769 1647.41 362.043 Q1647.41 353.848 1651.3 348.987 Q1655.19 344.103 1661.74 344.103 Q1663.5 344.103 1665.28 344.45 Q1667.08 344.797 1669.03 345.492 Z" fill="#000000" fill-rule="evenodd" fill-opacity="1" /><path clip-path="url(#clip900)" d="M1689.33 347.807 Q1685.72 347.807 1683.89 351.371 Q1682.08 354.913 1682.08 362.043 Q1682.08 369.149 1683.89 372.714 Q1685.72 376.255 1689.33 376.255 Q1692.96 376.255 1694.77 372.714 Q1696.6 369.149 1696.6 362.043 Q1696.6 354.913 1694.77 351.371 Q1692.96 347.807 1689.33 347.807 M1689.33 344.103 Q1695.14 344.103 1698.2 348.709 Q1701.27 353.293 1701.27 362.043 Q1701.27 370.769 1698.2 375.376 Q1695.14 379.959 1689.33 379.959 Q1683.52 379.959 1680.44 375.376 Q1677.39 370.769 1677.39 362.043 Q1677.39 353.293 1680.44 348.709 Q1683.52 344.103 1689.33 344.103 Z" fill="#000000" fill-rule="evenodd" fill-opacity="1" /><path clip-path="url(#clip900)" d="M1719.49 347.807 Q1715.88 347.807 1714.05 351.371 Q1712.25 354.913 1712.25 362.043 Q1712.25 369.149 1714.05 372.714 Q1715.88 376.255 1719.49 376.255 Q1723.13 376.255 1724.93 372.714 Q1726.76 369.149 1726.76 362.043 Q1726.76 354.913 1724.93 351.371 Q1723.13 347.807 1719.49 347.807 M1719.49 344.103 Q1725.3 344.103 1728.36 348.709 Q1731.44 353.293 1731.44 362.043 Q1731.44 370.769 1728.36 375.376 Q1725.3 379.959 1719.49 379.959 Q1713.68 379.959 1710.6 375.376 Q1707.55 370.769 1707.55 362.043 Q1707.55 353.293 1710.6 348.709 Q1713.68 344.103 1719.49 344.103 Z" fill="#000000" fill-rule="evenodd" fill-opacity="1" /><path clip-path="url(#clip900)" d="M1659.17 122.963 Q1655.83 122.963 1653.91 124.745 Q1652.02 126.528 1652.02 129.653 Q1652.02 132.778 1653.91 134.56 Q1655.83 136.343 1659.17 136.343 Q1662.5 136.343 1664.42 134.56 Q1666.34 132.755 1666.34 129.653 Q1666.34 126.528 1664.42 124.745 Q1662.52 122.963 1659.17 122.963 M1654.49 120.972 Q1651.48 120.232 1649.79 118.171 Q1648.13 116.111 1648.13 113.148 Q1648.13 109.005 1651.07 106.597 Q1654.03 104.19 1659.17 104.19 Q1664.33 104.19 1667.27 106.597 Q1670.21 109.005 1670.21 113.148 Q1670.21 116.111 1668.52 118.171 Q1666.85 120.232 1663.87 120.972 Q1667.25 121.759 1669.12 124.051 Q1671.02 126.343 1671.02 129.653 Q1671.02 134.676 1667.94 137.361 Q1664.89 140.046 1659.17 140.046 Q1653.45 140.046 1650.37 137.361 Q1647.32 134.676 1647.32 129.653 Q1647.32 126.343 1649.21 124.051 Q1651.11 121.759 1654.49 120.972 M1652.78 113.588 Q1652.78 116.273 1654.45 117.778 Q1656.14 119.283 1659.17 119.283 Q1662.18 119.283 1663.87 117.778 Q1665.58 116.273 1665.58 113.588 Q1665.58 110.903 1663.87 109.398 Q1662.18 107.894 1659.17 107.894 Q1656.14 107.894 1654.45 109.398 Q1652.78 110.903 1652.78 113.588 Z" fill="#000000" fill-rule="evenodd" fill-opacity="1" /><path clip-path="url(#clip900)" d="M1689.33 107.894 Q1685.72 107.894 1683.89 111.458 Q1682.08 115 1682.08 122.13 Q1682.08 129.236 1683.89 132.801 Q1685.72 136.343 1689.33 136.343 Q1692.96 136.343 1694.77 132.801 Q1696.6 129.236 1696.6 122.13 Q1696.6 115 1694.77 111.458 Q1692.96 107.894 1689.33 107.894 M1689.33 104.19 Q1695.14 104.19 1698.2 108.796 Q1701.27 113.38 1701.27 122.13 Q1701.27 130.857 1698.2 135.463 Q1695.14 140.046 1689.33 140.046 Q1683.52 140.046 1680.44 135.463 Q1677.39 130.857 1677.39 122.13 Q1677.39 113.38 1680.44 108.796 Q1683.52 104.19 1689.33 104.19 Z" fill="#000000" fill-rule="evenodd" fill-opacity="1" /><path clip-path="url(#clip900)" d="M1719.49 107.894 Q1715.88 107.894 1714.05 111.458 Q1712.25 115 1712.25 122.13 Q1712.25 129.236 1714.05 132.801 Q1715.88 136.343 1719.49 136.343 Q1723.13 136.343 1724.93 132.801 Q1726.76 129.236 1726.76 122.13 Q1726.76 115 1724.93 111.458 Q1723.13 107.894 1719.49 107.894 M1719.49 104.19 Q1725.3 104.19 1728.36 108.796 Q1731.44 113.38 1731.44 122.13 Q1731.44 130.857 1728.36 135.463 Q1725.3 140.046 1719.49 140.046 Q1713.68 140.046 1710.6 135.463 Q1707.55 130.857 1707.55 122.13 Q1707.55 113.38 1710.6 108.796 Q1713.68 104.19 1719.49 104.19 Z" fill="#000000" fill-rule="evenodd" fill-opacity="1" /><path clip-path="url(#clip900)" d="M2154.03 28.5427 L2154.03 35.5912 Q2150.87 33.9709 2147.47 33.1607 Q2144.07 32.3505 2140.42 32.3505 Q2134.87 32.3505 2132.08 34.0519 Q2129.32 35.7533 2129.32 39.156 Q2129.32 41.7486 2131.31 43.2475 Q2133.29 44.7058 2139.29 46.0426 L2141.84 46.6097 Q2149.78 48.3111 2153.1 51.4303 Q2156.47 54.509 2156.47 60.0587 Q2156.47 66.3781 2151.44 70.0644 Q2146.46 73.7508 2137.71 73.7508 Q2134.06 73.7508 2130.09 73.0216 Q2126.16 72.3329 2121.79 70.9151 L2121.79 63.2184 Q2125.92 65.3654 2129.93 66.4591 Q2133.94 67.5124 2137.87 67.5124 Q2143.14 67.5124 2145.97 65.73 Q2148.81 63.9071 2148.81 60.6258 Q2148.81 57.5877 2146.74 55.9673 Q2144.72 54.3469 2137.79 52.8481 L2135.2 52.2405 Q2128.27 50.7821 2125.19 47.7845 Q2122.11 44.7463 2122.11 39.4801 Q2122.11 33.0797 2126.65 29.5959 Q2131.19 26.1121 2139.53 26.1121 Q2143.66 26.1121 2147.31 26.7198 Q2150.96 27.3274 2154.03 28.5427 Z" fill="#000000" fill-rule="evenodd" fill-opacity="1" /><path clip-path="url(#clip900)" d="M2168.33 27.2059 L2175.79 27.2059 L2175.79 72.576 L2168.33 72.576 L2168.33 27.2059 M2168.33 9.54393 L2175.79 9.54393 L2175.79 18.9825 L2168.33 18.9825 L2168.33 9.54393 Z" fill="#000000" fill-rule="evenodd" fill-opacity="1" /><path clip-path="url(#clip900)" d="M2226.71 35.9153 Q2229.5 30.8922 2233.39 28.5022 Q2237.28 26.1121 2242.55 26.1121 Q2249.64 26.1121 2253.48 31.0947 Q2257.33 36.0368 2257.33 45.1919 L2257.33 72.576 L2249.84 72.576 L2249.84 45.4349 Q2249.84 38.913 2247.53 35.7533 Q2245.22 32.5936 2240.48 32.5936 Q2234.69 32.5936 2231.33 36.4419 Q2227.96 40.2903 2227.96 46.9338 L2227.96 72.576 L2220.47 72.576 L2220.47 45.4349 Q2220.47 38.8725 2218.16 35.7533 Q2215.85 32.5936 2211.03 32.5936 Q2205.32 32.5936 2201.96 36.4824 Q2198.59 40.3308 2198.59 46.9338 L2198.59 72.576 L2191.1 72.576 L2191.1 27.2059 L2198.59 27.2059 L2198.59 34.2544 Q2201.15 30.082 2204.71 28.0971 Q2208.28 26.1121 2213.18 26.1121 Q2218.12 26.1121 2221.56 28.6237 Q2225.05 31.1352 2226.71 35.9153 Z" fill="#000000" fill-rule="evenodd" fill-opacity="1" /><path clip-path="url(#clip900)" d="M2279.41 65.7705 L2279.41 89.8329 L2271.92 89.8329 L2271.92 27.2059 L2279.41 27.2059 L2279.41 34.0924 Q2281.76 30.0415 2285.32 28.0971 Q2288.93 26.1121 2293.91 26.1121 Q2302.18 26.1121 2307.32 32.6746 Q2312.51 39.2371 2312.51 49.9314 Q2312.51 60.6258 2307.32 67.1883 Q2302.18 73.7508 2293.91 73.7508 Q2288.93 73.7508 2285.32 71.8063 Q2281.76 69.8214 2279.41 65.7705 M2304.77 49.9314 Q2304.77 41.7081 2301.37 37.0496 Q2298 32.3505 2292.09 32.3505 Q2286.18 32.3505 2282.77 37.0496 Q2279.41 41.7081 2279.41 49.9314 Q2279.41 58.1548 2282.77 62.8538 Q2286.18 67.5124 2292.09 67.5124 Q2298 67.5124 2301.37 62.8538 Q2304.77 58.1548 2304.77 49.9314 Z" fill="#000000" fill-rule="evenodd" fill-opacity="1" /><path clip-path="url(#clip900)" d="M2324.86 9.54393 L2332.31 9.54393 L2332.31 72.576 L2324.86 72.576 L2324.86 9.54393 Z" fill="#000000" fill-rule="evenodd" fill-opacity="1" /><path clip-path="url(#clip900)" d="M2386.72 48.0275 L2386.72 51.6733 L2352.45 51.6733 Q2352.93 59.3701 2357.07 63.421 Q2361.24 67.4314 2368.65 67.4314 Q2372.95 67.4314 2376.96 66.3781 Q2381.01 65.3249 2384.98 63.2184 L2384.98 70.267 Q2380.97 71.9684 2376.75 72.8596 Q2372.54 73.7508 2368.21 73.7508 Q2357.35 73.7508 2350.99 67.4314 Q2344.67 61.1119 2344.67 50.3365 Q2344.67 39.1965 2350.67 32.6746 Q2356.7 26.1121 2366.91 26.1121 Q2376.06 26.1121 2381.37 32.0264 Q2386.72 37.9003 2386.72 48.0275 M2379.26 45.84 Q2379.18 39.7232 2375.82 36.0774 Q2372.5 32.4315 2366.99 32.4315 Q2360.75 32.4315 2356.98 35.9558 Q2353.26 39.4801 2352.69 45.8805 L2379.26 45.84 Z" fill="#000000" fill-rule="evenodd" fill-opacity="1" /><path clip-path="url(#clip900)" d="M2433.43 86.3491 L2433.43 92.1419 L2390.32 92.1419 L2390.32 86.3491 L2433.43 86.3491 Z" fill="#000000" fill-rule="evenodd" fill-opacity="1" /><path clip-path="url(#clip900)" d="M2440.43 27.2059 L2447.89 27.2059 L2447.89 72.576 L2440.43 72.576 L2440.43 27.2059 M2440.43 9.54393 L2447.89 9.54393 L2447.89 18.9825 L2440.43 18.9825 L2440.43 9.54393 Z" fill="#000000" fill-rule="evenodd" fill-opacity="1" /><path clip-path="url(#clip900)" d="M2501.2 45.1919 L2501.2 72.576 L2493.74 72.576 L2493.74 45.4349 Q2493.74 38.994 2491.23 35.7938 Q2488.72 32.5936 2483.7 32.5936 Q2477.66 32.5936 2474.18 36.4419 Q2470.69 40.2903 2470.69 46.9338 L2470.69 72.576 L2463.2 72.576 L2463.2 27.2059 L2470.69 27.2059 L2470.69 34.2544 Q2473.37 30.163 2476.97 28.1376 Q2480.62 26.1121 2485.36 26.1121 Q2493.18 26.1121 2497.19 30.9732 Q2501.2 35.7938 2501.2 45.1919 Z" fill="#000000" fill-rule="evenodd" fill-opacity="1" /><path clip-path="url(#clip900)" d="M2545.92 34.0924 L2545.92 9.54393 L2553.37 9.54393 L2553.37 72.576 L2545.92 72.576 L2545.92 65.7705 Q2543.57 69.8214 2539.96 71.8063 Q2536.4 73.7508 2531.38 73.7508 Q2523.15 73.7508 2517.97 67.1883 Q2512.82 60.6258 2512.82 49.9314 Q2512.82 39.2371 2517.97 32.6746 Q2523.15 26.1121 2531.38 26.1121 Q2536.4 26.1121 2539.96 28.0971 Q2543.57 30.0415 2545.92 34.0924 M2520.52 49.9314 Q2520.52 58.1548 2523.88 62.8538 Q2527.28 67.5124 2533.2 67.5124 Q2539.11 67.5124 2542.52 62.8538 Q2545.92 58.1548 2545.92 49.9314 Q2545.92 41.7081 2542.52 37.0496 Q2539.11 32.3505 2533.2 32.3505 Q2527.28 32.3505 2523.88 37.0496 Q2520.52 41.7081 2520.52 49.9314 Z" fill="#000000" fill-rule="evenodd" fill-opacity="1" /><path clip-path="url(#clip900)" d="M2567.96 54.671 L2567.96 27.2059 L2575.41 27.2059 L2575.41 54.3874 Q2575.41 60.8284 2577.92 64.0691 Q2580.43 67.2693 2585.46 67.2693 Q2591.49 67.2693 2594.98 63.421 Q2598.5 59.5726 2598.5 52.9291 L2598.5 27.2059 L2605.95 27.2059 L2605.95 72.576 L2598.5 72.576 L2598.5 65.6084 Q2595.79 69.7404 2592.18 71.7658 Q2588.62 73.7508 2583.88 73.7508 Q2576.06 73.7508 2572.01 68.8897 Q2567.96 64.0286 2567.96 54.671 M2586.71 26.1121 L2586.71 26.1121 Z" fill="#000000" fill-rule="evenodd" fill-opacity="1" /><path clip-path="url(#clip900)" d="M2653.96 28.9478 L2653.96 35.9153 Q2650.8 34.1734 2647.6 33.3227 Q2644.44 32.4315 2641.2 32.4315 Q2633.95 32.4315 2629.93 37.0496 Q2625.92 41.6271 2625.92 49.9314 Q2625.92 58.2358 2629.93 62.8538 Q2633.95 67.4314 2641.2 67.4314 Q2644.44 67.4314 2647.6 66.5807 Q2650.8 65.6895 2653.96 63.9476 L2653.96 70.8341 Q2650.84 72.2924 2647.48 73.0216 Q2644.15 73.7508 2640.39 73.7508 Q2630.14 73.7508 2624.1 67.3098 Q2618.07 60.8689 2618.07 49.9314 Q2618.07 38.832 2624.14 32.472 Q2630.26 26.1121 2640.87 26.1121 Q2644.32 26.1121 2647.6 26.8413 Q2650.88 27.5299 2653.96 28.9478 Z" fill="#000000" fill-rule="evenodd" fill-opacity="1" /><path clip-path="url(#clip900)" d="M2674.29 14.324 L2674.29 27.2059 L2689.65 27.2059 L2689.65 32.9987 L2674.29 32.9987 L2674.29 57.6282 Q2674.29 63.1779 2675.79 64.7578 Q2677.33 66.3376 2681.99 66.3376 L2689.65 66.3376 L2689.65 72.576 L2681.99 72.576 Q2673.36 72.576 2670.08 69.3758 Q2666.8 66.1351 2666.8 57.6282 L2666.8 32.9987 L2661.33 32.9987 L2661.33 27.2059 L2666.8 27.2059 L2666.8 14.324 L2674.29 14.324 Z" fill="#000000" fill-rule="evenodd" fill-opacity="1" /><path clip-path="url(#clip900)" d="M2699.45 27.2059 L2706.9 27.2059 L2706.9 72.576 L2699.45 72.576 L2699.45 27.2059 M2699.45 9.54393 L2706.9 9.54393 L2706.9 18.9825 L2699.45 18.9825 L2699.45 9.54393 Z" fill="#000000" fill-rule="evenodd" fill-opacity="1" /><path clip-path="url(#clip900)" d="M2717.15 27.2059 L2725.05 27.2059 L2739.23 65.2844 L2753.41 27.2059 L2761.31 27.2059 L2744.29 72.576 L2734.16 72.576 L2717.15 27.2059 Z" fill="#000000" fill-rule="evenodd" fill-opacity="1" /><path clip-path="url(#clip900)" d="M2810.4 48.0275 L2810.4 51.6733 L2776.13 51.6733 Q2776.62 59.3701 2780.75 63.421 Q2784.92 67.4314 2792.34 67.4314 Q2796.63 67.4314 2800.64 66.3781 Q2804.69 65.3249 2808.66 63.2184 L2808.66 70.267 Q2804.65 71.9684 2800.44 72.8596 Q2796.22 73.7508 2791.89 73.7508 Q2781.03 73.7508 2774.67 67.4314 Q2768.35 61.1119 2768.35 50.3365 Q2768.35 39.1965 2774.35 32.6746 Q2780.39 26.1121 2790.59 26.1121 Q2799.75 26.1121 2805.06 32.0264 Q2810.4 37.9003 2810.4 48.0275 M2802.95 45.84 Q2802.87 39.7232 2799.51 36.0774 Q2796.18 32.4315 2790.67 32.4315 Q2784.44 32.4315 2780.67 35.9558 Q2776.94 39.4801 2776.38 45.8805 L2802.95 45.84 Z" fill="#000000" fill-rule="evenodd" fill-opacity="1" /><path clip-path="url(#clip903)" d="
M1854.97 125.694 L1854.97 1081.75 L2112.29 1081.75 L2112.29 125.694 L1854.97 125.694 L1854.97 125.694  Z
  " fill="#e69f00" fill-rule="evenodd" fill-opacity="1"/>
<polyline clip-path="url(#clip903)" style="stroke:#000000; stroke-linecap:round; stroke-linejoin:round; stroke-width:4; stroke-opacity:1; fill:none" points="
  1854.97,125.694 1854.97,1081.75 2112.29,1081.75 2112.29,125.694 1854.97,125.694 
  "/>
<path clip-path="url(#clip903)" d="
M2176.62 895.814 L2176.62 1081.75 L2433.93 1081.75 L2433.93 895.814 L2176.62 895.814 L2176.62 895.814  Z
  " fill="#e69f00" fill-rule="evenodd" fill-opacity="1"/>
<polyline clip-path="url(#clip903)" style="stroke:#000000; stroke-linecap:round; stroke-linejoin:round; stroke-width:4; stroke-opacity:1; fill:none" points="
  2176.62,895.814 2176.62,1081.75 2433.93,1081.75 2433.93,895.814 2176.62,895.814 
  "/>
<path clip-path="url(#clip903)" d="
M2498.26 1033.76 L2498.26 1081.75 L2755.58 1081.75 L2755.58 1033.76 L2498.26 1033.76 L2498.26 1033.76  Z
  " fill="#e69f00" fill-rule="evenodd" fill-opacity="1"/>
<polyline clip-path="url(#clip903)" style="stroke:#000000; stroke-linecap:round; stroke-linejoin:round; stroke-width:4; stroke-opacity:1; fill:none" points="
  2498.26,1033.76 2498.26,1081.75 2755.58,1081.75 2755.58,1033.76 2498.26,1033.76 
  "/>
<path clip-path="url(#clip903)" d="
M2819.91 1072.15 L2819.91 1081.75 L3077.22 1081.75 L3077.22 1072.15 L2819.91 1072.15 L2819.91 1072.15  Z
  " fill="#e69f00" fill-rule="evenodd" fill-opacity="1"/>
<polyline clip-path="url(#clip903)" style="stroke:#000000; stroke-linecap:round; stroke-linejoin:round; stroke-width:4; stroke-opacity:1; fill:none" points="
  2819.91,1072.15 2819.91,1081.75 3077.22,1081.75 3077.22,1072.15 2819.91,1072.15 
  "/>
<circle clip-path="url(#clip903)" style="fill:#e69f00; stroke:none; fill-opacity:0" cx="1983.63" cy="125.694" r="2"/>
<circle clip-path="url(#clip903)" style="fill:#e69f00; stroke:none; fill-opacity:0" cx="2305.27" cy="895.814" r="2"/>
<circle clip-path="url(#clip903)" style="fill:#e69f00; stroke:none; fill-opacity:0" cx="2626.92" cy="1033.76" r="2"/>
<circle clip-path="url(#clip903)" style="fill:#e69f00; stroke:none; fill-opacity:0" cx="2948.56" cy="1072.15" r="2"/>
</svg>
