<?xml version="1.0" encoding="utf-8"?>
<svg xmlns="http://www.w3.org/2000/svg" xmlns:xlink="http://www.w3.org/1999/xlink" width="600" height="400" viewBox="0 0 2400 1600">
<defs>
  <clipPath id="clip610">
    <rect x="0" y="0" width="2400" height="1600"/>
  </clipPath>
</defs>
<path clip-path="url(#clip610)" d="
M0 1600 L2400 1600 L2400 0 L0 0  Z
  " fill="#ffffff" fill-rule="evenodd" fill-opacity="1"/>
<defs>
  <clipPath id="clip611">
    <rect x="480" y="0" width="1681" height="1600"/>
  </clipPath>
</defs>
<path clip-path="url(#clip610)" d="
M147.478 1486.45 L2352.76 1486.45 L2352.76 47.2441 L147.478 47.2441  Z
  " fill="#ffffff" fill-rule="evenodd" fill-opacity="1"/>
<defs>
  <clipPath id="clip612">
    <rect x="147" y="47" width="2206" height="1440"/>
  </clipPath>
</defs>
<polyline clip-path="url(#clip612)" style="stroke:#000000; stroke-linecap:round; stroke-linejoin:round; stroke-width:2; stroke-opacity:0.1; fill:none" points="
  299.28,1486.45 299.28,47.2441 
  "/>
<polyline clip-path="url(#clip612)" style="stroke:#000000; stroke-linecap:round; stroke-linejoin:round; stroke-width:2; stroke-opacity:0.1; fill:none" points="
  615.417,1486.45 615.417,47.2441 
  "/>
<polyline clip-path="url(#clip612)" style="stroke:#000000; stroke-linecap:round; stroke-linejoin:round; stroke-width:2; stroke-opacity:0.1; fill:none" points="
  931.554,1486.45 931.554,47.2441 
  "/>
<polyline clip-path="url(#clip612)" style="stroke:#000000; stroke-linecap:round; stroke-linejoin:round; stroke-width:2; stroke-opacity:0.1; fill:none" points="
  1247.69,1486.45 1247.69,47.2441 
  "/>
<polyline clip-path="url(#clip612)" style="stroke:#000000; stroke-linecap:round; stroke-linejoin:round; stroke-width:2; stroke-opacity:0.1; fill:none" points="
  1563.83,1486.45 1563.83,47.2441 
  "/>
<polyline clip-path="url(#clip612)" style="stroke:#000000; stroke-linecap:round; stroke-linejoin:round; stroke-width:2; stroke-opacity:0.1; fill:none" points="
  1879.97,1486.45 1879.97,47.2441 
  "/>
<polyline clip-path="url(#clip612)" style="stroke:#000000; stroke-linecap:round; stroke-linejoin:round; stroke-width:2; stroke-opacity:0.1; fill:none" points="
  2196.1,1486.45 2196.1,47.2441 
  "/>
<polyline clip-path="url(#clip610)" style="stroke:#000000; stroke-linecap:round; stroke-linejoin:round; stroke-width:4; stroke-opacity:1; fill:none" points="
  147.478,1486.45 2352.76,1486.45 
  "/>
<polyline clip-path="url(#clip610)" style="stroke:#000000; stroke-linecap:round; stroke-linejoin:round; stroke-width:4; stroke-opacity:1; fill:none" points="
  299.28,1486.45 299.28,1467.55 
  "/>
<polyline clip-path="url(#clip610)" style="stroke:#000000; stroke-linecap:round; stroke-linejoin:round; stroke-width:4; stroke-opacity:1; fill:none" points="
  615.417,1486.45 615.417,1467.55 
  "/>
<polyline clip-path="url(#clip610)" style="stroke:#000000; stroke-linecap:round; stroke-linejoin:round; stroke-width:4; stroke-opacity:1; fill:none" points="
  931.554,1486.45 931.554,1467.55 
  "/>
<polyline clip-path="url(#clip610)" style="stroke:#000000; stroke-linecap:round; stroke-linejoin:round; stroke-width:4; stroke-opacity:1; fill:none" points="
  1247.69,1486.45 1247.69,1467.55 
  "/>
<polyline clip-path="url(#clip610)" style="stroke:#000000; stroke-linecap:round; stroke-linejoin:round; stroke-width:4; stroke-opacity:1; fill:none" points="
  1563.83,1486.45 1563.83,1467.55 
  "/>
<polyline clip-path="url(#clip610)" style="stroke:#000000; stroke-linecap:round; stroke-linejoin:round; stroke-width:4; stroke-opacity:1; fill:none" points="
  1879.97,1486.45 1879.97,1467.55 
  "/>
<polyline clip-path="url(#clip610)" style="stroke:#000000; stroke-linecap:round; stroke-linejoin:round; stroke-width:4; stroke-opacity:1; fill:none" points="
  2196.1,1486.45 2196.1,1467.55 
  "/>
<path clip-path="url(#clip610)" d="M268.747 1532.02 L298.423 1532.02 L298.423 1535.95 L268.747 1535.95 L268.747 1532.02 Z" fill="#000000" fill-rule="evenodd" fill-opacity="1" /><path clip-path="url(#clip610)" d="M322.682 1530.21 Q326.039 1530.93 327.914 1533.2 Q329.812 1535.47 329.812 1538.8 Q329.812 1543.92 326.293 1546.72 Q322.775 1549.52 316.294 1549.52 Q314.118 1549.52 311.803 1549.08 Q309.511 1548.66 307.057 1547.81 L307.057 1543.29 Q309.002 1544.43 311.317 1545.01 Q313.632 1545.58 316.155 1545.58 Q320.553 1545.58 322.844 1543.85 Q325.159 1542.11 325.159 1538.8 Q325.159 1535.75 323.006 1534.03 Q320.877 1532.3 317.057 1532.3 L313.03 1532.3 L313.03 1528.45 L317.243 1528.45 Q320.692 1528.45 322.52 1527.09 Q324.349 1525.7 324.349 1523.11 Q324.349 1520.45 322.451 1519.03 Q320.576 1517.6 317.057 1517.6 Q315.136 1517.6 312.937 1518.01 Q310.738 1518.43 308.099 1519.31 L308.099 1515.14 Q310.761 1514.4 313.076 1514.03 Q315.414 1513.66 317.474 1513.66 Q322.798 1513.66 325.9 1516.09 Q329.002 1518.5 329.002 1522.62 Q329.002 1525.49 327.358 1527.48 Q325.715 1529.45 322.682 1530.21 Z" fill="#000000" fill-rule="evenodd" fill-opacity="1" /><path clip-path="url(#clip610)" d="M585.359 1532.02 L615.035 1532.02 L615.035 1535.95 L585.359 1535.95 L585.359 1532.02 Z" fill="#000000" fill-rule="evenodd" fill-opacity="1" /><path clip-path="url(#clip610)" d="M629.155 1544.91 L645.475 1544.91 L645.475 1548.85 L623.53 1548.85 L623.53 1544.91 Q626.192 1542.16 630.776 1537.53 Q635.382 1532.88 636.563 1531.53 Q638.808 1529.01 639.688 1527.27 Q640.59 1525.51 640.59 1523.82 Q640.59 1521.07 638.646 1519.33 Q636.725 1517.6 633.623 1517.6 Q631.424 1517.6 628.97 1518.36 Q626.539 1519.13 623.762 1520.68 L623.762 1515.95 Q626.586 1514.82 629.039 1514.24 Q631.493 1513.66 633.53 1513.66 Q638.901 1513.66 642.095 1516.35 Q645.289 1519.03 645.289 1523.52 Q645.289 1525.65 644.479 1527.57 Q643.692 1529.47 641.586 1532.07 Q641.007 1532.74 637.905 1535.95 Q634.803 1539.15 629.155 1544.91 Z" fill="#000000" fill-rule="evenodd" fill-opacity="1" /><path clip-path="url(#clip610)" d="M901.311 1532.02 L930.987 1532.02 L930.987 1535.95 L901.311 1535.95 L901.311 1532.02 Z" fill="#000000" fill-rule="evenodd" fill-opacity="1" /><path clip-path="url(#clip610)" d="M941.89 1544.91 L949.528 1544.91 L949.528 1518.55 L941.218 1520.21 L941.218 1515.95 L949.482 1514.29 L954.158 1514.29 L954.158 1544.91 L961.797 1544.91 L961.797 1548.85 L941.89 1548.85 L941.89 1544.91 Z" fill="#000000" fill-rule="evenodd" fill-opacity="1" /><path clip-path="url(#clip610)" d="M1247.69 1517.37 Q1244.08 1517.37 1242.25 1520.93 Q1240.45 1524.47 1240.45 1531.6 Q1240.45 1538.71 1242.25 1542.27 Q1244.08 1545.82 1247.69 1545.82 Q1251.33 1545.82 1253.13 1542.27 Q1254.96 1538.71 1254.96 1531.6 Q1254.96 1524.47 1253.13 1520.93 Q1251.33 1517.37 1247.69 1517.37 M1247.69 1513.66 Q1253.5 1513.66 1256.56 1518.27 Q1259.64 1522.85 1259.64 1531.6 Q1259.64 1540.33 1256.56 1544.94 Q1253.5 1549.52 1247.69 1549.52 Q1241.88 1549.52 1238.8 1544.94 Q1235.75 1540.33 1235.75 1531.6 Q1235.75 1522.85 1238.8 1518.27 Q1241.88 1513.66 1247.69 1513.66 Z" fill="#000000" fill-rule="evenodd" fill-opacity="1" /><path clip-path="url(#clip610)" d="M1554.21 1544.91 L1561.85 1544.91 L1561.85 1518.55 L1553.54 1520.21 L1553.54 1515.95 L1561.8 1514.29 L1566.48 1514.29 L1566.48 1544.91 L1574.12 1544.91 L1574.12 1548.85 L1554.21 1548.85 L1554.21 1544.91 Z" fill="#000000" fill-rule="evenodd" fill-opacity="1" /><path clip-path="url(#clip610)" d="M1874.62 1544.91 L1890.94 1544.91 L1890.94 1548.85 L1868.99 1548.85 L1868.99 1544.91 Q1871.66 1542.16 1876.24 1537.53 Q1880.85 1532.88 1882.03 1531.53 Q1884.27 1529.01 1885.15 1527.27 Q1886.05 1525.51 1886.05 1523.82 Q1886.05 1521.07 1884.11 1519.33 Q1882.19 1517.6 1879.09 1517.6 Q1876.89 1517.6 1874.43 1518.36 Q1872 1519.13 1869.22 1520.68 L1869.22 1515.95 Q1872.05 1514.82 1874.5 1514.24 Q1876.96 1513.66 1878.99 1513.66 Q1884.36 1513.66 1887.56 1516.35 Q1890.75 1519.03 1890.75 1523.52 Q1890.75 1525.65 1889.94 1527.57 Q1889.16 1529.47 1887.05 1532.07 Q1886.47 1532.74 1883.37 1535.95 Q1880.27 1539.15 1874.62 1544.91 Z" fill="#000000" fill-rule="evenodd" fill-opacity="1" /><path clip-path="url(#clip610)" d="M2200.35 1530.21 Q2203.71 1530.93 2205.58 1533.2 Q2207.48 1535.47 2207.48 1538.8 Q2207.48 1543.92 2203.96 1546.72 Q2200.44 1549.52 2193.96 1549.52 Q2191.79 1549.52 2189.47 1549.08 Q2187.18 1548.66 2184.73 1547.81 L2184.73 1543.29 Q2186.67 1544.43 2188.98 1545.01 Q2191.3 1545.58 2193.82 1545.58 Q2198.22 1545.58 2200.51 1543.85 Q2202.83 1542.11 2202.83 1538.8 Q2202.83 1535.75 2200.67 1534.03 Q2198.54 1532.3 2194.73 1532.3 L2190.7 1532.3 L2190.7 1528.45 L2194.91 1528.45 Q2198.36 1528.45 2200.19 1527.09 Q2202.02 1525.7 2202.02 1523.11 Q2202.02 1520.45 2200.12 1519.03 Q2198.24 1517.6 2194.73 1517.6 Q2192.8 1517.6 2190.6 1518.01 Q2188.41 1518.43 2185.77 1519.31 L2185.77 1515.14 Q2188.43 1514.4 2190.74 1514.03 Q2193.08 1513.66 2195.14 1513.66 Q2200.47 1513.66 2203.57 1516.09 Q2206.67 1518.5 2206.67 1522.62 Q2206.67 1525.49 2205.03 1527.48 Q2203.38 1529.45 2200.35 1530.21 Z" fill="#000000" fill-rule="evenodd" fill-opacity="1" /><polyline clip-path="url(#clip612)" style="stroke:#000000; stroke-linecap:round; stroke-linejoin:round; stroke-width:2; stroke-opacity:0.1; fill:none" points="
  147.478,1406.86 2352.76,1406.86 
  "/>
<polyline clip-path="url(#clip612)" style="stroke:#000000; stroke-linecap:round; stroke-linejoin:round; stroke-width:2; stroke-opacity:0.1; fill:none" points="
  147.478,1087.51 2352.76,1087.51 
  "/>
<polyline clip-path="url(#clip612)" style="stroke:#000000; stroke-linecap:round; stroke-linejoin:round; stroke-width:2; stroke-opacity:0.1; fill:none" points="
  147.478,768.161 2352.76,768.161 
  "/>
<polyline clip-path="url(#clip612)" style="stroke:#000000; stroke-linecap:round; stroke-linejoin:round; stroke-width:2; stroke-opacity:0.1; fill:none" points="
  147.478,448.81 2352.76,448.81 
  "/>
<polyline clip-path="url(#clip612)" style="stroke:#000000; stroke-linecap:round; stroke-linejoin:round; stroke-width:2; stroke-opacity:0.1; fill:none" points="
  147.478,129.458 2352.76,129.458 
  "/>
<polyline clip-path="url(#clip610)" style="stroke:#000000; stroke-linecap:round; stroke-linejoin:round; stroke-width:4; stroke-opacity:1; fill:none" points="
  147.478,1486.45 147.478,47.2441 
  "/>
<polyline clip-path="url(#clip610)" style="stroke:#000000; stroke-linecap:round; stroke-linejoin:round; stroke-width:4; stroke-opacity:1; fill:none" points="
  147.478,1406.86 166.376,1406.86 
  "/>
<polyline clip-path="url(#clip610)" style="stroke:#000000; stroke-linecap:round; stroke-linejoin:round; stroke-width:4; stroke-opacity:1; fill:none" points="
  147.478,1087.51 166.376,1087.51 
  "/>
<polyline clip-path="url(#clip610)" style="stroke:#000000; stroke-linecap:round; stroke-linejoin:round; stroke-width:4; stroke-opacity:1; fill:none" points="
  147.478,768.161 166.376,768.161 
  "/>
<polyline clip-path="url(#clip610)" style="stroke:#000000; stroke-linecap:round; stroke-linejoin:round; stroke-width:4; stroke-opacity:1; fill:none" points="
  147.478,448.81 166.376,448.81 
  "/>
<polyline clip-path="url(#clip610)" style="stroke:#000000; stroke-linecap:round; stroke-linejoin:round; stroke-width:4; stroke-opacity:1; fill:none" points="
  147.478,129.458 166.376,129.458 
  "/>
<path clip-path="url(#clip610)" d="M50.9921 1407.32 L80.6679 1407.32 L80.6679 1411.25 L50.9921 1411.25 L50.9921 1407.32 Z" fill="#000000" fill-rule="evenodd" fill-opacity="1" /><path clip-path="url(#clip610)" d="M91.5706 1420.21 L99.2095 1420.21 L99.2095 1393.84 L90.8993 1395.51 L90.8993 1391.25 L99.1632 1389.58 L103.839 1389.58 L103.839 1420.21 L111.478 1420.21 L111.478 1424.14 L91.5706 1424.14 L91.5706 1420.21 Z" fill="#000000" fill-rule="evenodd" fill-opacity="1" /><path clip-path="url(#clip610)" d="M99.5335 1073.31 Q95.9224 1073.31 94.0937 1076.88 Q92.2882 1080.42 92.2882 1087.55 Q92.2882 1094.65 94.0937 1098.22 Q95.9224 1101.76 99.5335 1101.76 Q103.168 1101.76 104.973 1098.22 Q106.802 1094.65 106.802 1087.55 Q106.802 1080.42 104.973 1076.88 Q103.168 1073.31 99.5335 1073.31 M99.5335 1069.61 Q105.344 1069.61 108.399 1074.21 Q111.478 1078.8 111.478 1087.55 Q111.478 1096.27 108.399 1100.88 Q105.344 1105.46 99.5335 1105.46 Q93.7234 1105.46 90.6447 1100.88 Q87.5892 1096.27 87.5892 1087.55 Q87.5892 1078.8 90.6447 1074.21 Q93.7234 1069.61 99.5335 1069.61 Z" fill="#000000" fill-rule="evenodd" fill-opacity="1" /><path clip-path="url(#clip610)" d="M91.5706 781.506 L99.2095 781.506 L99.2095 755.14 L90.8993 756.807 L90.8993 752.548 L99.1632 750.881 L103.839 750.881 L103.839 781.506 L111.478 781.506 L111.478 785.441 L91.5706 785.441 L91.5706 781.506 Z" fill="#000000" fill-rule="evenodd" fill-opacity="1" /><path clip-path="url(#clip610)" d="M95.1586 462.154 L111.478 462.154 L111.478 466.09 L89.5336 466.09 L89.5336 462.154 Q92.1956 459.4 96.7789 454.77 Q101.385 450.117 102.566 448.775 Q104.811 446.252 105.691 444.516 Q106.594 442.756 106.594 441.067 Q106.594 438.312 104.649 436.576 Q102.728 434.84 99.6261 434.84 Q97.4271 434.84 94.9734 435.604 Q92.5428 436.368 89.7651 437.918 L89.7651 433.196 Q92.5891 432.062 95.0428 431.483 Q97.4965 430.905 99.5335 430.905 Q104.904 430.905 108.098 433.59 Q111.293 436.275 111.293 440.766 Q111.293 442.895 110.483 444.817 Q109.696 446.715 107.589 449.307 Q107.01 449.979 103.909 453.196 Q100.807 456.391 95.1586 462.154 Z" fill="#000000" fill-rule="evenodd" fill-opacity="1" /><path clip-path="url(#clip610)" d="M104.348 128.104 Q107.705 128.821 109.58 131.09 Q111.478 133.358 111.478 136.692 Q111.478 141.807 107.959 144.608 Q104.441 147.409 97.9595 147.409 Q95.7836 147.409 93.4688 146.969 Q91.1771 146.553 88.7234 145.696 L88.7234 141.182 Q90.6678 142.317 92.9826 142.895 Q95.2974 143.474 97.8206 143.474 Q102.219 143.474 104.51 141.738 Q106.825 140.002 106.825 136.692 Q106.825 133.636 104.672 131.923 Q102.543 130.187 98.7234 130.187 L94.6956 130.187 L94.6956 126.345 L98.9085 126.345 Q102.358 126.345 104.186 124.979 Q106.015 123.59 106.015 120.997 Q106.015 118.335 104.117 116.923 Q102.242 115.488 98.7234 115.488 Q96.8021 115.488 94.603 115.905 Q92.4039 116.321 89.7651 117.201 L89.7651 113.034 Q92.4271 112.294 94.7419 111.923 Q97.0798 111.553 99.14 111.553 Q104.464 111.553 107.566 113.984 Q110.668 116.391 110.668 120.511 Q110.668 123.382 109.024 125.372 Q107.381 127.34 104.348 128.104 Z" fill="#000000" fill-rule="evenodd" fill-opacity="1" /><circle clip-path="url(#clip612)" cx="1787.58" cy="700.951" r="14.4" fill="#e69f00" fill-rule="evenodd" fill-opacity="1" stroke="#000000" stroke-opacity="1" stroke-width="3.2"/>
<circle clip-path="url(#clip612)" cx="699.468" cy="721.791" r="14.4" fill="#e69f00" fill-rule="evenodd" fill-opacity="1" stroke="#000000" stroke-opacity="1" stroke-width="3.2"/>
<circle clip-path="url(#clip612)" cx="855.325" cy="696.439" r="14.4" fill="#e69f00" fill-rule="evenodd" fill-opacity="1" stroke="#000000" stroke-opacity="1" stroke-width="3.2"/>
<circle clip-path="url(#clip612)" cx="1723.48" cy="944.297" r="14.4" fill="#e69f00" fill-rule="evenodd" fill-opacity="1" stroke="#000000" stroke-opacity="1" stroke-width="3.2"/>
<circle clip-path="url(#clip612)" cx="1864.14" cy="789.933" r="14.4" fill="#e69f00" fill-rule="evenodd" fill-opacity="1" stroke="#000000" stroke-opacity="1" stroke-width="3.2"/>
<circle clip-path="url(#clip612)" cx="1102.7" cy="821.826" r="14.4" fill="#e69f00" fill-rule="evenodd" fill-opacity="1" stroke="#000000" stroke-opacity="1" stroke-width="3.2"/>
<circle clip-path="url(#clip612)" cx="1920.9" cy="609.794" r="14.4" fill="#e69f00" fill-rule="evenodd" fill-opacity="1" stroke="#000000" stroke-opacity="1" stroke-width="3.2"/>
<circle clip-path="url(#clip612)" cx="1114.62" cy="912.003" r="14.4" fill="#e69f00" fill-rule="evenodd" fill-opacity="1" stroke="#000000" stroke-opacity="1" stroke-width="3.2"/>
<circle clip-path="url(#clip612)" cx="1818.42" cy="462.527" r="14.4" fill="#e69f00" fill-rule="evenodd" fill-opacity="1" stroke="#000000" stroke-opacity="1" stroke-width="3.2"/>
<circle clip-path="url(#clip612)" cx="1375.22" cy="816.707" r="14.4" fill="#e69f00" fill-rule="evenodd" fill-opacity="1" stroke="#000000" stroke-opacity="1" stroke-width="3.2"/>
<circle clip-path="url(#clip612)" cx="870.029" cy="615.303" r="14.4" fill="#e69f00" fill-rule="evenodd" fill-opacity="1" stroke="#000000" stroke-opacity="1" stroke-width="3.2"/>
<circle clip-path="url(#clip612)" cx="1062.29" cy="1030.96" r="14.4" fill="#e69f00" fill-rule="evenodd" fill-opacity="1" stroke="#000000" stroke-opacity="1" stroke-width="3.2"/>
<circle clip-path="url(#clip612)" cx="324.586" cy="764.899" r="14.4" fill="#e69f00" fill-rule="evenodd" fill-opacity="1" stroke="#000000" stroke-opacity="1" stroke-width="3.2"/>
<circle clip-path="url(#clip612)" cx="849.008" cy="897.75" r="14.4" fill="#e69f00" fill-rule="evenodd" fill-opacity="1" stroke="#000000" stroke-opacity="1" stroke-width="3.2"/>
<circle clip-path="url(#clip612)" cx="1501.91" cy="962.569" r="14.4" fill="#e69f00" fill-rule="evenodd" fill-opacity="1" stroke="#000000" stroke-opacity="1" stroke-width="3.2"/>
<circle clip-path="url(#clip612)" cx="1869.87" cy="502.083" r="14.4" fill="#e69f00" fill-rule="evenodd" fill-opacity="1" stroke="#000000" stroke-opacity="1" stroke-width="3.2"/>
<circle clip-path="url(#clip612)" cx="484.977" cy="454.932" r="14.4" fill="#e69f00" fill-rule="evenodd" fill-opacity="1" stroke="#000000" stroke-opacity="1" stroke-width="3.2"/>
<circle clip-path="url(#clip612)" cx="1318.03" cy="1160.75" r="14.4" fill="#e69f00" fill-rule="evenodd" fill-opacity="1" stroke="#000000" stroke-opacity="1" stroke-width="3.2"/>
<circle clip-path="url(#clip612)" cx="750.136" cy="540.389" r="14.4" fill="#e69f00" fill-rule="evenodd" fill-opacity="1" stroke="#000000" stroke-opacity="1" stroke-width="3.2"/>
<circle clip-path="url(#clip612)" cx="362.504" cy="637.869" r="14.4" fill="#e69f00" fill-rule="evenodd" fill-opacity="1" stroke="#000000" stroke-opacity="1" stroke-width="3.2"/>
<circle clip-path="url(#clip612)" cx="1303.8" cy="1014.77" r="14.4" fill="#e69f00" fill-rule="evenodd" fill-opacity="1" stroke="#000000" stroke-opacity="1" stroke-width="3.2"/>
<circle clip-path="url(#clip612)" cx="1761.91" cy="753.891" r="14.4" fill="#e69f00" fill-rule="evenodd" fill-opacity="1" stroke="#000000" stroke-opacity="1" stroke-width="3.2"/>
<circle clip-path="url(#clip612)" cx="906.968" cy="609.957" r="14.4" fill="#e69f00" fill-rule="evenodd" fill-opacity="1" stroke="#000000" stroke-opacity="1" stroke-width="3.2"/>
<circle clip-path="url(#clip612)" cx="1664.87" cy="419.773" r="14.4" fill="#e69f00" fill-rule="evenodd" fill-opacity="1" stroke="#000000" stroke-opacity="1" stroke-width="3.2"/>
<circle clip-path="url(#clip612)" cx="1209.6" cy="1043.67" r="14.4" fill="#e69f00" fill-rule="evenodd" fill-opacity="1" stroke="#000000" stroke-opacity="1" stroke-width="3.2"/>
<circle clip-path="url(#clip612)" cx="1924.69" cy="397.051" r="14.4" fill="#e69f00" fill-rule="evenodd" fill-opacity="1" stroke="#000000" stroke-opacity="1" stroke-width="3.2"/>
<circle clip-path="url(#clip612)" cx="1513.84" cy="634.97" r="14.4" fill="#e69f00" fill-rule="evenodd" fill-opacity="1" stroke="#000000" stroke-opacity="1" stroke-width="3.2"/>
<circle clip-path="url(#clip612)" cx="1232.33" cy="1221.3" r="14.4" fill="#e69f00" fill-rule="evenodd" fill-opacity="1" stroke="#000000" stroke-opacity="1" stroke-width="3.2"/>
<circle clip-path="url(#clip612)" cx="1854.25" cy="663.814" r="14.4" fill="#e69f00" fill-rule="evenodd" fill-opacity="1" stroke="#000000" stroke-opacity="1" stroke-width="3.2"/>
<circle clip-path="url(#clip612)" cx="966.958" cy="908.729" r="14.4" fill="#e69f00" fill-rule="evenodd" fill-opacity="1" stroke="#000000" stroke-opacity="1" stroke-width="3.2"/>
<circle clip-path="url(#clip612)" cx="2154.95" cy="708.145" r="14.4" fill="#e69f00" fill-rule="evenodd" fill-opacity="1" stroke="#000000" stroke-opacity="1" stroke-width="3.2"/>
<circle clip-path="url(#clip612)" cx="1535.84" cy="1009.23" r="14.4" fill="#e69f00" fill-rule="evenodd" fill-opacity="1" stroke="#000000" stroke-opacity="1" stroke-width="3.2"/>
<circle clip-path="url(#clip612)" cx="1094.26" cy="1183.15" r="14.4" fill="#e69f00" fill-rule="evenodd" fill-opacity="1" stroke="#000000" stroke-opacity="1" stroke-width="3.2"/>
<circle clip-path="url(#clip612)" cx="1063.11" cy="1276.48" r="14.4" fill="#e69f00" fill-rule="evenodd" fill-opacity="1" stroke="#000000" stroke-opacity="1" stroke-width="3.2"/>
<circle clip-path="url(#clip612)" cx="632.11" cy="609.634" r="14.4" fill="#e69f00" fill-rule="evenodd" fill-opacity="1" stroke="#000000" stroke-opacity="1" stroke-width="3.2"/>
<circle clip-path="url(#clip612)" cx="361.647" cy="625.342" r="14.4" fill="#e69f00" fill-rule="evenodd" fill-opacity="1" stroke="#000000" stroke-opacity="1" stroke-width="3.2"/>
<circle clip-path="url(#clip612)" cx="1060.56" cy="1093.87" r="14.4" fill="#e69f00" fill-rule="evenodd" fill-opacity="1" stroke="#000000" stroke-opacity="1" stroke-width="3.2"/>
<circle clip-path="url(#clip612)" cx="1560.93" cy="784.161" r="14.4" fill="#e69f00" fill-rule="evenodd" fill-opacity="1" stroke="#000000" stroke-opacity="1" stroke-width="3.2"/>
<circle clip-path="url(#clip612)" cx="1028.65" cy="1014.2" r="14.4" fill="#e69f00" fill-rule="evenodd" fill-opacity="1" stroke="#000000" stroke-opacity="1" stroke-width="3.2"/>
<circle clip-path="url(#clip612)" cx="2048.3" cy="717.061" r="14.4" fill="#e69f00" fill-rule="evenodd" fill-opacity="1" stroke="#000000" stroke-opacity="1" stroke-width="3.2"/>
<circle clip-path="url(#clip612)" cx="998.49" cy="1139.4" r="14.4" fill="#e69f00" fill-rule="evenodd" fill-opacity="1" stroke="#000000" stroke-opacity="1" stroke-width="3.2"/>
<circle clip-path="url(#clip612)" cx="920.812" cy="903.369" r="14.4" fill="#e69f00" fill-rule="evenodd" fill-opacity="1" stroke="#000000" stroke-opacity="1" stroke-width="3.2"/>
<circle clip-path="url(#clip612)" cx="491.792" cy="611.96" r="14.4" fill="#e69f00" fill-rule="evenodd" fill-opacity="1" stroke="#000000" stroke-opacity="1" stroke-width="3.2"/>
<circle clip-path="url(#clip612)" cx="679.204" cy="428.281" r="14.4" fill="#e69f00" fill-rule="evenodd" fill-opacity="1" stroke="#000000" stroke-opacity="1" stroke-width="3.2"/>
<circle clip-path="url(#clip612)" cx="532.074" cy="529.618" r="14.4" fill="#e69f00" fill-rule="evenodd" fill-opacity="1" stroke="#000000" stroke-opacity="1" stroke-width="3.2"/>
<circle clip-path="url(#clip612)" cx="798.387" cy="463.327" r="14.4" fill="#e69f00" fill-rule="evenodd" fill-opacity="1" stroke="#000000" stroke-opacity="1" stroke-width="3.2"/>
<circle clip-path="url(#clip612)" cx="875.744" cy="749.766" r="14.4" fill="#e69f00" fill-rule="evenodd" fill-opacity="1" stroke="#000000" stroke-opacity="1" stroke-width="3.2"/>
<circle clip-path="url(#clip612)" cx="1127.05" cy="1044.25" r="14.4" fill="#e69f00" fill-rule="evenodd" fill-opacity="1" stroke="#000000" stroke-opacity="1" stroke-width="3.2"/>
<circle clip-path="url(#clip612)" cx="1278.08" cy="1058.76" r="14.4" fill="#e69f00" fill-rule="evenodd" fill-opacity="1" stroke="#000000" stroke-opacity="1" stroke-width="3.2"/>
<circle clip-path="url(#clip612)" cx="867.763" cy="471.198" r="14.4" fill="#e69f00" fill-rule="evenodd" fill-opacity="1" stroke="#000000" stroke-opacity="1" stroke-width="3.2"/>
<circle clip-path="url(#clip612)" cx="2190.37" cy="1046.8" r="14.4" fill="#e69f00" fill-rule="evenodd" fill-opacity="1" stroke="#000000" stroke-opacity="1" stroke-width="3.2"/>
<circle clip-path="url(#clip612)" cx="1978.07" cy="516.534" r="14.4" fill="#e69f00" fill-rule="evenodd" fill-opacity="1" stroke="#000000" stroke-opacity="1" stroke-width="3.2"/>
<circle clip-path="url(#clip612)" cx="348.805" cy="839.923" r="14.4" fill="#e69f00" fill-rule="evenodd" fill-opacity="1" stroke="#000000" stroke-opacity="1" stroke-width="3.2"/>
<circle clip-path="url(#clip612)" cx="948.562" cy="757.063" r="14.4" fill="#e69f00" fill-rule="evenodd" fill-opacity="1" stroke="#000000" stroke-opacity="1" stroke-width="3.2"/>
<circle clip-path="url(#clip612)" cx="1404.27" cy="928.401" r="14.4" fill="#e69f00" fill-rule="evenodd" fill-opacity="1" stroke="#000000" stroke-opacity="1" stroke-width="3.2"/>
<circle clip-path="url(#clip612)" cx="565.782" cy="571.144" r="14.4" fill="#e69f00" fill-rule="evenodd" fill-opacity="1" stroke="#000000" stroke-opacity="1" stroke-width="3.2"/>
<circle clip-path="url(#clip612)" cx="1839.05" cy="695.636" r="14.4" fill="#e69f00" fill-rule="evenodd" fill-opacity="1" stroke="#000000" stroke-opacity="1" stroke-width="3.2"/>
<circle clip-path="url(#clip612)" cx="1788.65" cy="345.485" r="14.4" fill="#e69f00" fill-rule="evenodd" fill-opacity="1" stroke="#000000" stroke-opacity="1" stroke-width="3.2"/>
<circle clip-path="url(#clip612)" cx="483.074" cy="638.677" r="14.4" fill="#e69f00" fill-rule="evenodd" fill-opacity="1" stroke="#000000" stroke-opacity="1" stroke-width="3.2"/>
<circle clip-path="url(#clip612)" cx="1653.9" cy="643.769" r="14.4" fill="#e69f00" fill-rule="evenodd" fill-opacity="1" stroke="#000000" stroke-opacity="1" stroke-width="3.2"/>
<circle clip-path="url(#clip612)" cx="945.371" cy="852.9" r="14.4" fill="#e69f00" fill-rule="evenodd" fill-opacity="1" stroke="#000000" stroke-opacity="1" stroke-width="3.2"/>
<circle clip-path="url(#clip612)" cx="1583.91" cy="397.139" r="14.4" fill="#e69f00" fill-rule="evenodd" fill-opacity="1" stroke="#000000" stroke-opacity="1" stroke-width="3.2"/>
<circle clip-path="url(#clip612)" cx="1107.31" cy="1022.16" r="14.4" fill="#e69f00" fill-rule="evenodd" fill-opacity="1" stroke="#000000" stroke-opacity="1" stroke-width="3.2"/>
<circle clip-path="url(#clip612)" cx="1529.13" cy="920.751" r="14.4" fill="#e69f00" fill-rule="evenodd" fill-opacity="1" stroke="#000000" stroke-opacity="1" stroke-width="3.2"/>
<circle clip-path="url(#clip612)" cx="1373.61" cy="1169.68" r="14.4" fill="#e69f00" fill-rule="evenodd" fill-opacity="1" stroke="#000000" stroke-opacity="1" stroke-width="3.2"/>
<circle clip-path="url(#clip612)" cx="554.798" cy="525.071" r="14.4" fill="#e69f00" fill-rule="evenodd" fill-opacity="1" stroke="#000000" stroke-opacity="1" stroke-width="3.2"/>
<circle clip-path="url(#clip612)" cx="1074.1" cy="886.029" r="14.4" fill="#e69f00" fill-rule="evenodd" fill-opacity="1" stroke="#000000" stroke-opacity="1" stroke-width="3.2"/>
<circle clip-path="url(#clip612)" cx="1865.82" cy="323.147" r="14.4" fill="#e69f00" fill-rule="evenodd" fill-opacity="1" stroke="#000000" stroke-opacity="1" stroke-width="3.2"/>
<circle clip-path="url(#clip612)" cx="425.757" cy="588.872" r="14.4" fill="#e69f00" fill-rule="evenodd" fill-opacity="1" stroke="#000000" stroke-opacity="1" stroke-width="3.2"/>
<circle clip-path="url(#clip612)" cx="1958.03" cy="746.513" r="14.4" fill="#e69f00" fill-rule="evenodd" fill-opacity="1" stroke="#000000" stroke-opacity="1" stroke-width="3.2"/>
<circle clip-path="url(#clip612)" cx="1730.22" cy="538.393" r="14.4" fill="#e69f00" fill-rule="evenodd" fill-opacity="1" stroke="#000000" stroke-opacity="1" stroke-width="3.2"/>
<circle clip-path="url(#clip612)" cx="2080.87" cy="530.51" r="14.4" fill="#e69f00" fill-rule="evenodd" fill-opacity="1" stroke="#000000" stroke-opacity="1" stroke-width="3.2"/>
<circle clip-path="url(#clip612)" cx="2022.02" cy="576.078" r="14.4" fill="#e69f00" fill-rule="evenodd" fill-opacity="1" stroke="#000000" stroke-opacity="1" stroke-width="3.2"/>
<circle clip-path="url(#clip612)" cx="926.844" cy="754.782" r="14.4" fill="#e69f00" fill-rule="evenodd" fill-opacity="1" stroke="#000000" stroke-opacity="1" stroke-width="3.2"/>
<circle clip-path="url(#clip612)" cx="686.497" cy="482.918" r="14.4" fill="#e69f00" fill-rule="evenodd" fill-opacity="1" stroke="#000000" stroke-opacity="1" stroke-width="3.2"/>
<circle clip-path="url(#clip612)" cx="587.801" cy="677.81" r="14.4" fill="#e69f00" fill-rule="evenodd" fill-opacity="1" stroke="#000000" stroke-opacity="1" stroke-width="3.2"/>
<circle clip-path="url(#clip612)" cx="1291.27" cy="980.7" r="14.4" fill="#e69f00" fill-rule="evenodd" fill-opacity="1" stroke="#000000" stroke-opacity="1" stroke-width="3.2"/>
<circle clip-path="url(#clip612)" cx="643.356" cy="589.011" r="14.4" fill="#e69f00" fill-rule="evenodd" fill-opacity="1" stroke="#000000" stroke-opacity="1" stroke-width="3.2"/>
<circle clip-path="url(#clip612)" cx="1829.4" cy="315.397" r="14.4" fill="#e69f00" fill-rule="evenodd" fill-opacity="1" stroke="#000000" stroke-opacity="1" stroke-width="3.2"/>
<circle clip-path="url(#clip612)" cx="1216.86" cy="839.406" r="14.4" fill="#e69f00" fill-rule="evenodd" fill-opacity="1" stroke="#000000" stroke-opacity="1" stroke-width="3.2"/>
<circle clip-path="url(#clip612)" cx="1665.8" cy="438.934" r="14.4" fill="#e69f00" fill-rule="evenodd" fill-opacity="1" stroke="#000000" stroke-opacity="1" stroke-width="3.2"/>
<circle clip-path="url(#clip612)" cx="1139.62" cy="934.334" r="14.4" fill="#e69f00" fill-rule="evenodd" fill-opacity="1" stroke="#000000" stroke-opacity="1" stroke-width="3.2"/>
<circle clip-path="url(#clip612)" cx="1050.67" cy="969.98" r="14.4" fill="#e69f00" fill-rule="evenodd" fill-opacity="1" stroke="#000000" stroke-opacity="1" stroke-width="3.2"/>
<circle clip-path="url(#clip612)" cx="1516.86" cy="983.295" r="14.4" fill="#e69f00" fill-rule="evenodd" fill-opacity="1" stroke="#000000" stroke-opacity="1" stroke-width="3.2"/>
<circle clip-path="url(#clip612)" cx="731.525" cy="803.092" r="14.4" fill="#e69f00" fill-rule="evenodd" fill-opacity="1" stroke="#000000" stroke-opacity="1" stroke-width="3.2"/>
<circle clip-path="url(#clip612)" cx="711.119" cy="578.733" r="14.4" fill="#e69f00" fill-rule="evenodd" fill-opacity="1" stroke="#000000" stroke-opacity="1" stroke-width="3.2"/>
<circle clip-path="url(#clip612)" cx="1877.82" cy="441.663" r="14.4" fill="#e69f00" fill-rule="evenodd" fill-opacity="1" stroke="#000000" stroke-opacity="1" stroke-width="3.2"/>
<circle clip-path="url(#clip612)" cx="1781.73" cy="586.845" r="14.4" fill="#e69f00" fill-rule="evenodd" fill-opacity="1" stroke="#000000" stroke-opacity="1" stroke-width="3.2"/>
<circle clip-path="url(#clip612)" cx="2036.23" cy="852.149" r="14.4" fill="#e69f00" fill-rule="evenodd" fill-opacity="1" stroke="#000000" stroke-opacity="1" stroke-width="3.2"/>
<circle clip-path="url(#clip612)" cx="2133.38" cy="718.687" r="14.4" fill="#e69f00" fill-rule="evenodd" fill-opacity="1" stroke="#000000" stroke-opacity="1" stroke-width="3.2"/>
<circle clip-path="url(#clip612)" cx="1003.89" cy="1140.83" r="14.4" fill="#e69f00" fill-rule="evenodd" fill-opacity="1" stroke="#000000" stroke-opacity="1" stroke-width="3.2"/>
<circle clip-path="url(#clip612)" cx="557.485" cy="206.92" r="14.4" fill="#e69f00" fill-rule="evenodd" fill-opacity="1" stroke="#000000" stroke-opacity="1" stroke-width="3.2"/>
<circle clip-path="url(#clip612)" cx="804.393" cy="785.681" r="14.4" fill="#e69f00" fill-rule="evenodd" fill-opacity="1" stroke="#000000" stroke-opacity="1" stroke-width="3.2"/>
<circle clip-path="url(#clip612)" cx="1421.64" cy="1134.23" r="14.4" fill="#e69f00" fill-rule="evenodd" fill-opacity="1" stroke="#000000" stroke-opacity="1" stroke-width="3.2"/>
<circle clip-path="url(#clip612)" cx="1908.44" cy="687.116" r="14.4" fill="#e69f00" fill-rule="evenodd" fill-opacity="1" stroke="#000000" stroke-opacity="1" stroke-width="3.2"/>
<circle clip-path="url(#clip612)" cx="1463.07" cy="1073.48" r="14.4" fill="#e69f00" fill-rule="evenodd" fill-opacity="1" stroke="#000000" stroke-opacity="1" stroke-width="3.2"/>
<circle clip-path="url(#clip612)" cx="1165.59" cy="899.14" r="14.4" fill="#e69f00" fill-rule="evenodd" fill-opacity="1" stroke="#000000" stroke-opacity="1" stroke-width="3.2"/>
<circle clip-path="url(#clip612)" cx="482.299" cy="498.603" r="14.4" fill="#e69f00" fill-rule="evenodd" fill-opacity="1" stroke="#000000" stroke-opacity="1" stroke-width="3.2"/>
<circle clip-path="url(#clip612)" cx="819.876" cy="400.794" r="14.4" fill="#e69f00" fill-rule="evenodd" fill-opacity="1" stroke="#000000" stroke-opacity="1" stroke-width="3.2"/>
<circle clip-path="url(#clip612)" cx="747.54" cy="579.281" r="14.4" fill="#e69f00" fill-rule="evenodd" fill-opacity="1" stroke="#000000" stroke-opacity="1" stroke-width="3.2"/>
<circle clip-path="url(#clip612)" cx="1599.13" cy="623.88" r="14.4" fill="#e69f00" fill-rule="evenodd" fill-opacity="1" stroke="#000000" stroke-opacity="1" stroke-width="3.2"/>
<circle clip-path="url(#clip612)" cx="623.749" cy="636.819" r="14.4" fill="#e69f00" fill-rule="evenodd" fill-opacity="1" stroke="#000000" stroke-opacity="1" stroke-width="3.2"/>
<circle clip-path="url(#clip612)" cx="1507.16" cy="676.901" r="14.4" fill="#e69f00" fill-rule="evenodd" fill-opacity="1" stroke="#000000" stroke-opacity="1" stroke-width="3.2"/>
<circle clip-path="url(#clip612)" cx="1720.89" cy="677.774" r="14.4" fill="#e69f00" fill-rule="evenodd" fill-opacity="1" stroke="#000000" stroke-opacity="1" stroke-width="3.2"/>
<circle clip-path="url(#clip612)" cx="1398.89" cy="1158.44" r="14.4" fill="#e69f00" fill-rule="evenodd" fill-opacity="1" stroke="#000000" stroke-opacity="1" stroke-width="3.2"/>
<circle clip-path="url(#clip612)" cx="1860.54" cy="533.405" r="14.4" fill="#e69f00" fill-rule="evenodd" fill-opacity="1" stroke="#000000" stroke-opacity="1" stroke-width="3.2"/>
<circle clip-path="url(#clip612)" cx="1391.3" cy="1084.21" r="14.4" fill="#e69f00" fill-rule="evenodd" fill-opacity="1" stroke="#000000" stroke-opacity="1" stroke-width="3.2"/>
<circle clip-path="url(#clip612)" cx="2160.07" cy="1197.89" r="14.4" fill="#e69f00" fill-rule="evenodd" fill-opacity="1" stroke="#000000" stroke-opacity="1" stroke-width="3.2"/>
<circle clip-path="url(#clip612)" cx="1808.94" cy="323.684" r="14.4" fill="#e69f00" fill-rule="evenodd" fill-opacity="1" stroke="#000000" stroke-opacity="1" stroke-width="3.2"/>
<circle clip-path="url(#clip612)" cx="864.03" cy="897.398" r="14.4" fill="#e69f00" fill-rule="evenodd" fill-opacity="1" stroke="#000000" stroke-opacity="1" stroke-width="3.2"/>
<circle clip-path="url(#clip612)" cx="1529.52" cy="1048.09" r="14.4" fill="#e69f00" fill-rule="evenodd" fill-opacity="1" stroke="#000000" stroke-opacity="1" stroke-width="3.2"/>
<circle clip-path="url(#clip612)" cx="624.906" cy="312.291" r="14.4" fill="#e69f00" fill-rule="evenodd" fill-opacity="1" stroke="#000000" stroke-opacity="1" stroke-width="3.2"/>
<circle clip-path="url(#clip612)" cx="1673.35" cy="1050.49" r="14.4" fill="#e69f00" fill-rule="evenodd" fill-opacity="1" stroke="#000000" stroke-opacity="1" stroke-width="3.2"/>
<circle clip-path="url(#clip612)" cx="2136.79" cy="877.286" r="14.4" fill="#e69f00" fill-rule="evenodd" fill-opacity="1" stroke="#000000" stroke-opacity="1" stroke-width="3.2"/>
<circle clip-path="url(#clip612)" cx="360.803" cy="974.761" r="14.4" fill="#e69f00" fill-rule="evenodd" fill-opacity="1" stroke="#000000" stroke-opacity="1" stroke-width="3.2"/>
<circle clip-path="url(#clip612)" cx="2194.69" cy="988.21" r="14.4" fill="#e69f00" fill-rule="evenodd" fill-opacity="1" stroke="#000000" stroke-opacity="1" stroke-width="3.2"/>
<circle clip-path="url(#clip612)" cx="1113.94" cy="911.782" r="14.4" fill="#e69f00" fill-rule="evenodd" fill-opacity="1" stroke="#000000" stroke-opacity="1" stroke-width="3.2"/>
<circle clip-path="url(#clip612)" cx="338.194" cy="967.102" r="14.4" fill="#e69f00" fill-rule="evenodd" fill-opacity="1" stroke="#000000" stroke-opacity="1" stroke-width="3.2"/>
<circle clip-path="url(#clip612)" cx="1248.26" cy="1010.43" r="14.4" fill="#e69f00" fill-rule="evenodd" fill-opacity="1" stroke="#000000" stroke-opacity="1" stroke-width="3.2"/>
<circle clip-path="url(#clip612)" cx="1462.89" cy="935.232" r="14.4" fill="#e69f00" fill-rule="evenodd" fill-opacity="1" stroke="#000000" stroke-opacity="1" stroke-width="3.2"/>
<circle clip-path="url(#clip612)" cx="1641.84" cy="968.263" r="14.4" fill="#e69f00" fill-rule="evenodd" fill-opacity="1" stroke="#000000" stroke-opacity="1" stroke-width="3.2"/>
<circle clip-path="url(#clip612)" cx="458.945" cy="441.023" r="14.4" fill="#e69f00" fill-rule="evenodd" fill-opacity="1" stroke="#000000" stroke-opacity="1" stroke-width="3.2"/>
<circle clip-path="url(#clip612)" cx="1035.69" cy="610.035" r="14.4" fill="#e69f00" fill-rule="evenodd" fill-opacity="1" stroke="#000000" stroke-opacity="1" stroke-width="3.2"/>
<circle clip-path="url(#clip612)" cx="1233.65" cy="974.923" r="14.4" fill="#e69f00" fill-rule="evenodd" fill-opacity="1" stroke="#000000" stroke-opacity="1" stroke-width="3.2"/>
<circle clip-path="url(#clip612)" cx="1013.83" cy="951.362" r="14.4" fill="#e69f00" fill-rule="evenodd" fill-opacity="1" stroke="#000000" stroke-opacity="1" stroke-width="3.2"/>
<circle clip-path="url(#clip612)" cx="873.081" cy="612.524" r="14.4" fill="#e69f00" fill-rule="evenodd" fill-opacity="1" stroke="#000000" stroke-opacity="1" stroke-width="3.2"/>
<circle clip-path="url(#clip612)" cx="2183.96" cy="895.74" r="14.4" fill="#e69f00" fill-rule="evenodd" fill-opacity="1" stroke="#000000" stroke-opacity="1" stroke-width="3.2"/>
<circle clip-path="url(#clip612)" cx="1378.08" cy="1031.16" r="14.4" fill="#e69f00" fill-rule="evenodd" fill-opacity="1" stroke="#000000" stroke-opacity="1" stroke-width="3.2"/>
<circle clip-path="url(#clip612)" cx="701.39" cy="450.622" r="14.4" fill="#e69f00" fill-rule="evenodd" fill-opacity="1" stroke="#000000" stroke-opacity="1" stroke-width="3.2"/>
<circle clip-path="url(#clip612)" cx="1336.72" cy="1326.77" r="14.4" fill="#e69f00" fill-rule="evenodd" fill-opacity="1" stroke="#000000" stroke-opacity="1" stroke-width="3.2"/>
<circle clip-path="url(#clip612)" cx="1277.1" cy="935.589" r="14.4" fill="#e69f00" fill-rule="evenodd" fill-opacity="1" stroke="#000000" stroke-opacity="1" stroke-width="3.2"/>
<circle clip-path="url(#clip612)" cx="1701.2" cy="665.349" r="14.4" fill="#e69f00" fill-rule="evenodd" fill-opacity="1" stroke="#000000" stroke-opacity="1" stroke-width="3.2"/>
<circle clip-path="url(#clip612)" cx="1666.94" cy="551.067" r="14.4" fill="#e69f00" fill-rule="evenodd" fill-opacity="1" stroke="#000000" stroke-opacity="1" stroke-width="3.2"/>
<circle clip-path="url(#clip612)" cx="1319.77" cy="1189.58" r="14.4" fill="#e69f00" fill-rule="evenodd" fill-opacity="1" stroke="#000000" stroke-opacity="1" stroke-width="3.2"/>
<circle clip-path="url(#clip612)" cx="1681.77" cy="587.979" r="14.4" fill="#e69f00" fill-rule="evenodd" fill-opacity="1" stroke="#000000" stroke-opacity="1" stroke-width="3.2"/>
<circle clip-path="url(#clip612)" cx="2059.76" cy="715.767" r="14.4" fill="#e69f00" fill-rule="evenodd" fill-opacity="1" stroke="#000000" stroke-opacity="1" stroke-width="3.2"/>
<circle clip-path="url(#clip612)" cx="2026.13" cy="568.165" r="14.4" fill="#e69f00" fill-rule="evenodd" fill-opacity="1" stroke="#000000" stroke-opacity="1" stroke-width="3.2"/>
<circle clip-path="url(#clip612)" cx="838.071" cy="1034.9" r="14.4" fill="#e69f00" fill-rule="evenodd" fill-opacity="1" stroke="#000000" stroke-opacity="1" stroke-width="3.2"/>
<circle clip-path="url(#clip612)" cx="696.47" cy="408.361" r="14.4" fill="#e69f00" fill-rule="evenodd" fill-opacity="1" stroke="#000000" stroke-opacity="1" stroke-width="3.2"/>
<circle clip-path="url(#clip612)" cx="753.021" cy="765.501" r="14.4" fill="#e69f00" fill-rule="evenodd" fill-opacity="1" stroke="#000000" stroke-opacity="1" stroke-width="3.2"/>
<circle clip-path="url(#clip612)" cx="1317.78" cy="967.504" r="14.4" fill="#e69f00" fill-rule="evenodd" fill-opacity="1" stroke="#000000" stroke-opacity="1" stroke-width="3.2"/>
<circle clip-path="url(#clip612)" cx="2075.76" cy="374.347" r="14.4" fill="#e69f00" fill-rule="evenodd" fill-opacity="1" stroke="#000000" stroke-opacity="1" stroke-width="3.2"/>
<circle clip-path="url(#clip612)" cx="1435.12" cy="1057.97" r="14.4" fill="#e69f00" fill-rule="evenodd" fill-opacity="1" stroke="#000000" stroke-opacity="1" stroke-width="3.2"/>
<circle clip-path="url(#clip612)" cx="837.073" cy="445.04" r="14.4" fill="#e69f00" fill-rule="evenodd" fill-opacity="1" stroke="#000000" stroke-opacity="1" stroke-width="3.2"/>
<circle clip-path="url(#clip612)" cx="1215.82" cy="1018.13" r="14.4" fill="#e69f00" fill-rule="evenodd" fill-opacity="1" stroke="#000000" stroke-opacity="1" stroke-width="3.2"/>
<circle clip-path="url(#clip612)" cx="2149.56" cy="771.44" r="14.4" fill="#e69f00" fill-rule="evenodd" fill-opacity="1" stroke="#000000" stroke-opacity="1" stroke-width="3.2"/>
<circle clip-path="url(#clip612)" cx="1582.07" cy="928.303" r="14.4" fill="#e69f00" fill-rule="evenodd" fill-opacity="1" stroke="#000000" stroke-opacity="1" stroke-width="3.2"/>
<circle clip-path="url(#clip612)" cx="1952.2" cy="447.212" r="14.4" fill="#e69f00" fill-rule="evenodd" fill-opacity="1" stroke="#000000" stroke-opacity="1" stroke-width="3.2"/>
<circle clip-path="url(#clip612)" cx="1061.9" cy="1058.99" r="14.4" fill="#e69f00" fill-rule="evenodd" fill-opacity="1" stroke="#000000" stroke-opacity="1" stroke-width="3.2"/>
<circle clip-path="url(#clip612)" cx="2064.89" cy="653.182" r="14.4" fill="#e69f00" fill-rule="evenodd" fill-opacity="1" stroke="#000000" stroke-opacity="1" stroke-width="3.2"/>
<circle clip-path="url(#clip612)" cx="535.425" cy="438.3" r="14.4" fill="#e69f00" fill-rule="evenodd" fill-opacity="1" stroke="#000000" stroke-opacity="1" stroke-width="3.2"/>
<circle clip-path="url(#clip612)" cx="1727.39" cy="605.826" r="14.4" fill="#e69f00" fill-rule="evenodd" fill-opacity="1" stroke="#000000" stroke-opacity="1" stroke-width="3.2"/>
<circle clip-path="url(#clip612)" cx="1959.52" cy="557.512" r="14.4" fill="#e69f00" fill-rule="evenodd" fill-opacity="1" stroke="#000000" stroke-opacity="1" stroke-width="3.2"/>
<circle clip-path="url(#clip612)" cx="1551.97" cy="816.719" r="14.4" fill="#e69f00" fill-rule="evenodd" fill-opacity="1" stroke="#000000" stroke-opacity="1" stroke-width="3.2"/>
<circle clip-path="url(#clip612)" cx="2070" cy="477.032" r="14.4" fill="#e69f00" fill-rule="evenodd" fill-opacity="1" stroke="#000000" stroke-opacity="1" stroke-width="3.2"/>
<circle clip-path="url(#clip612)" cx="352.284" cy="981.427" r="14.4" fill="#e69f00" fill-rule="evenodd" fill-opacity="1" stroke="#000000" stroke-opacity="1" stroke-width="3.2"/>
<circle clip-path="url(#clip612)" cx="308.161" cy="817.819" r="14.4" fill="#e69f00" fill-rule="evenodd" fill-opacity="1" stroke="#000000" stroke-opacity="1" stroke-width="3.2"/>
<circle clip-path="url(#clip612)" cx="2073.58" cy="577.206" r="14.4" fill="#e69f00" fill-rule="evenodd" fill-opacity="1" stroke="#000000" stroke-opacity="1" stroke-width="3.2"/>
<circle clip-path="url(#clip612)" cx="571.591" cy="307.647" r="14.4" fill="#e69f00" fill-rule="evenodd" fill-opacity="1" stroke="#000000" stroke-opacity="1" stroke-width="3.2"/>
<circle clip-path="url(#clip612)" cx="1097.73" cy="1131.08" r="14.4" fill="#e69f00" fill-rule="evenodd" fill-opacity="1" stroke="#000000" stroke-opacity="1" stroke-width="3.2"/>
<circle clip-path="url(#clip612)" cx="1704.7" cy="445.247" r="14.4" fill="#e69f00" fill-rule="evenodd" fill-opacity="1" stroke="#000000" stroke-opacity="1" stroke-width="3.2"/>
<circle clip-path="url(#clip612)" cx="1102.44" cy="1173.56" r="14.4" fill="#e69f00" fill-rule="evenodd" fill-opacity="1" stroke="#000000" stroke-opacity="1" stroke-width="3.2"/>
<circle clip-path="url(#clip612)" cx="1224.63" cy="1200.4" r="14.4" fill="#e69f00" fill-rule="evenodd" fill-opacity="1" stroke="#000000" stroke-opacity="1" stroke-width="3.2"/>
<circle clip-path="url(#clip612)" cx="351.181" cy="658.372" r="14.4" fill="#e69f00" fill-rule="evenodd" fill-opacity="1" stroke="#000000" stroke-opacity="1" stroke-width="3.2"/>
<circle clip-path="url(#clip612)" cx="1012.72" cy="1027.63" r="14.4" fill="#e69f00" fill-rule="evenodd" fill-opacity="1" stroke="#000000" stroke-opacity="1" stroke-width="3.2"/>
<circle clip-path="url(#clip612)" cx="1669.61" cy="673.059" r="14.4" fill="#e69f00" fill-rule="evenodd" fill-opacity="1" stroke="#000000" stroke-opacity="1" stroke-width="3.2"/>
<circle clip-path="url(#clip612)" cx="998.033" cy="910.909" r="14.4" fill="#e69f00" fill-rule="evenodd" fill-opacity="1" stroke="#000000" stroke-opacity="1" stroke-width="3.2"/>
<circle clip-path="url(#clip612)" cx="1898.4" cy="340.615" r="14.4" fill="#e69f00" fill-rule="evenodd" fill-opacity="1" stroke="#000000" stroke-opacity="1" stroke-width="3.2"/>
<circle clip-path="url(#clip612)" cx="897.563" cy="1012.51" r="14.4" fill="#e69f00" fill-rule="evenodd" fill-opacity="1" stroke="#000000" stroke-opacity="1" stroke-width="3.2"/>
<circle clip-path="url(#clip612)" cx="801.877" cy="967.851" r="14.4" fill="#e69f00" fill-rule="evenodd" fill-opacity="1" stroke="#000000" stroke-opacity="1" stroke-width="3.2"/>
<circle clip-path="url(#clip612)" cx="448.751" cy="619.216" r="14.4" fill="#e69f00" fill-rule="evenodd" fill-opacity="1" stroke="#000000" stroke-opacity="1" stroke-width="3.2"/>
<circle clip-path="url(#clip612)" cx="815.631" cy="620.949" r="14.4" fill="#e69f00" fill-rule="evenodd" fill-opacity="1" stroke="#000000" stroke-opacity="1" stroke-width="3.2"/>
<circle clip-path="url(#clip612)" cx="952.005" cy="913.714" r="14.4" fill="#e69f00" fill-rule="evenodd" fill-opacity="1" stroke="#000000" stroke-opacity="1" stroke-width="3.2"/>
<circle clip-path="url(#clip612)" cx="981.309" cy="716.467" r="14.4" fill="#e69f00" fill-rule="evenodd" fill-opacity="1" stroke="#000000" stroke-opacity="1" stroke-width="3.2"/>
<circle clip-path="url(#clip612)" cx="1243.02" cy="902.239" r="14.4" fill="#e69f00" fill-rule="evenodd" fill-opacity="1" stroke="#000000" stroke-opacity="1" stroke-width="3.2"/>
<circle clip-path="url(#clip612)" cx="1857.89" cy="685.034" r="14.4" fill="#e69f00" fill-rule="evenodd" fill-opacity="1" stroke="#000000" stroke-opacity="1" stroke-width="3.2"/>
<circle clip-path="url(#clip612)" cx="1142.86" cy="1089.75" r="14.4" fill="#e69f00" fill-rule="evenodd" fill-opacity="1" stroke="#000000" stroke-opacity="1" stroke-width="3.2"/>
<circle clip-path="url(#clip612)" cx="430.545" cy="767.999" r="14.4" fill="#e69f00" fill-rule="evenodd" fill-opacity="1" stroke="#000000" stroke-opacity="1" stroke-width="3.2"/>
<circle clip-path="url(#clip612)" cx="1036.35" cy="941.158" r="14.4" fill="#e69f00" fill-rule="evenodd" fill-opacity="1" stroke="#000000" stroke-opacity="1" stroke-width="3.2"/>
<circle clip-path="url(#clip612)" cx="1942.99" cy="662.525" r="14.4" fill="#e69f00" fill-rule="evenodd" fill-opacity="1" stroke="#000000" stroke-opacity="1" stroke-width="3.2"/>
<circle clip-path="url(#clip612)" cx="1435.69" cy="946.368" r="14.4" fill="#e69f00" fill-rule="evenodd" fill-opacity="1" stroke="#000000" stroke-opacity="1" stroke-width="3.2"/>
<circle clip-path="url(#clip612)" cx="1610.76" cy="637.466" r="14.4" fill="#e69f00" fill-rule="evenodd" fill-opacity="1" stroke="#000000" stroke-opacity="1" stroke-width="3.2"/>
<circle clip-path="url(#clip612)" cx="1700.95" cy="600.022" r="14.4" fill="#e69f00" fill-rule="evenodd" fill-opacity="1" stroke="#000000" stroke-opacity="1" stroke-width="3.2"/>
<circle clip-path="url(#clip612)" cx="1939.63" cy="784.49" r="14.4" fill="#e69f00" fill-rule="evenodd" fill-opacity="1" stroke="#000000" stroke-opacity="1" stroke-width="3.2"/>
<circle clip-path="url(#clip612)" cx="1970.23" cy="583.897" r="14.4" fill="#e69f00" fill-rule="evenodd" fill-opacity="1" stroke="#000000" stroke-opacity="1" stroke-width="3.2"/>
<circle clip-path="url(#clip612)" cx="1520.68" cy="803.084" r="14.4" fill="#e69f00" fill-rule="evenodd" fill-opacity="1" stroke="#000000" stroke-opacity="1" stroke-width="3.2"/>
<circle clip-path="url(#clip612)" cx="770.895" cy="372.948" r="14.4" fill="#e69f00" fill-rule="evenodd" fill-opacity="1" stroke="#000000" stroke-opacity="1" stroke-width="3.2"/>
<circle clip-path="url(#clip612)" cx="665.231" cy="688.836" r="14.4" fill="#e69f00" fill-rule="evenodd" fill-opacity="1" stroke="#000000" stroke-opacity="1" stroke-width="3.2"/>
<circle clip-path="url(#clip612)" cx="2094.69" cy="653.308" r="14.4" fill="#e69f00" fill-rule="evenodd" fill-opacity="1" stroke="#000000" stroke-opacity="1" stroke-width="3.2"/>
<circle clip-path="url(#clip612)" cx="1290.67" cy="855.539" r="14.4" fill="#e69f00" fill-rule="evenodd" fill-opacity="1" stroke="#000000" stroke-opacity="1" stroke-width="3.2"/>
<circle clip-path="url(#clip612)" cx="960.518" cy="906.955" r="14.4" fill="#e69f00" fill-rule="evenodd" fill-opacity="1" stroke="#000000" stroke-opacity="1" stroke-width="3.2"/>
<circle clip-path="url(#clip612)" cx="877.509" cy="810.992" r="14.4" fill="#e69f00" fill-rule="evenodd" fill-opacity="1" stroke="#000000" stroke-opacity="1" stroke-width="3.2"/>
<circle clip-path="url(#clip612)" cx="1637.98" cy="665.785" r="14.4" fill="#e69f00" fill-rule="evenodd" fill-opacity="1" stroke="#000000" stroke-opacity="1" stroke-width="3.2"/>
<circle clip-path="url(#clip612)" cx="627.515" cy="443.94" r="14.4" fill="#e69f00" fill-rule="evenodd" fill-opacity="1" stroke="#000000" stroke-opacity="1" stroke-width="3.2"/>
<circle clip-path="url(#clip612)" cx="484.215" cy="345.824" r="14.4" fill="#e69f00" fill-rule="evenodd" fill-opacity="1" stroke="#000000" stroke-opacity="1" stroke-width="3.2"/>
<circle clip-path="url(#clip612)" cx="1534.01" cy="566.748" r="14.4" fill="#e69f00" fill-rule="evenodd" fill-opacity="1" stroke="#000000" stroke-opacity="1" stroke-width="3.2"/>
<circle clip-path="url(#clip612)" cx="339.688" cy="876.011" r="14.4" fill="#e69f00" fill-rule="evenodd" fill-opacity="1" stroke="#000000" stroke-opacity="1" stroke-width="3.2"/>
<circle clip-path="url(#clip612)" cx="1529.76" cy="706.333" r="14.4" fill="#e69f00" fill-rule="evenodd" fill-opacity="1" stroke="#000000" stroke-opacity="1" stroke-width="3.2"/>
<circle clip-path="url(#clip612)" cx="1103.1" cy="927.543" r="14.4" fill="#e69f00" fill-rule="evenodd" fill-opacity="1" stroke="#000000" stroke-opacity="1" stroke-width="3.2"/>
<circle clip-path="url(#clip612)" cx="2170.03" cy="779.294" r="14.4" fill="#e69f00" fill-rule="evenodd" fill-opacity="1" stroke="#000000" stroke-opacity="1" stroke-width="3.2"/>
<circle clip-path="url(#clip612)" cx="1995.44" cy="729.514" r="14.4" fill="#e69f00" fill-rule="evenodd" fill-opacity="1" stroke="#000000" stroke-opacity="1" stroke-width="3.2"/>
<circle clip-path="url(#clip612)" cx="875.737" cy="635.293" r="14.4" fill="#e69f00" fill-rule="evenodd" fill-opacity="1" stroke="#000000" stroke-opacity="1" stroke-width="3.2"/>
<circle clip-path="url(#clip612)" cx="738.788" cy="690.104" r="14.4" fill="#e69f00" fill-rule="evenodd" fill-opacity="1" stroke="#000000" stroke-opacity="1" stroke-width="3.2"/>
<circle clip-path="url(#clip612)" cx="426.811" cy="575.82" r="14.4" fill="#e69f00" fill-rule="evenodd" fill-opacity="1" stroke="#000000" stroke-opacity="1" stroke-width="3.2"/>
<circle clip-path="url(#clip612)" cx="1842.17" cy="328.599" r="14.4" fill="#e69f00" fill-rule="evenodd" fill-opacity="1" stroke="#000000" stroke-opacity="1" stroke-width="3.2"/>
<circle clip-path="url(#clip612)" cx="456.315" cy="657.835" r="14.4" fill="#e69f00" fill-rule="evenodd" fill-opacity="1" stroke="#000000" stroke-opacity="1" stroke-width="3.2"/>
<circle clip-path="url(#clip612)" cx="1701.8" cy="632.328" r="14.4" fill="#e69f00" fill-rule="evenodd" fill-opacity="1" stroke="#000000" stroke-opacity="1" stroke-width="3.2"/>
<circle clip-path="url(#clip612)" cx="788.175" cy="658.112" r="14.4" fill="#e69f00" fill-rule="evenodd" fill-opacity="1" stroke="#000000" stroke-opacity="1" stroke-width="3.2"/>
<circle clip-path="url(#clip612)" cx="1678.66" cy="320.643" r="14.4" fill="#e69f00" fill-rule="evenodd" fill-opacity="1" stroke="#000000" stroke-opacity="1" stroke-width="3.2"/>
<circle clip-path="url(#clip612)" cx="375.353" cy="642.204" r="14.4" fill="#e69f00" fill-rule="evenodd" fill-opacity="1" stroke="#000000" stroke-opacity="1" stroke-width="3.2"/>
<circle clip-path="url(#clip612)" cx="473.548" cy="474.46" r="14.4" fill="#e69f00" fill-rule="evenodd" fill-opacity="1" stroke="#000000" stroke-opacity="1" stroke-width="3.2"/>
<circle clip-path="url(#clip612)" cx="801.635" cy="683.585" r="14.4" fill="#e69f00" fill-rule="evenodd" fill-opacity="1" stroke="#000000" stroke-opacity="1" stroke-width="3.2"/>
<circle clip-path="url(#clip612)" cx="1449.08" cy="817.352" r="14.4" fill="#e69f00" fill-rule="evenodd" fill-opacity="1" stroke="#000000" stroke-opacity="1" stroke-width="3.2"/>
<circle clip-path="url(#clip612)" cx="1039.16" cy="843.101" r="14.4" fill="#e69f00" fill-rule="evenodd" fill-opacity="1" stroke="#000000" stroke-opacity="1" stroke-width="3.2"/>
<circle clip-path="url(#clip612)" cx="305.546" cy="939.159" r="14.4" fill="#e69f00" fill-rule="evenodd" fill-opacity="1" stroke="#000000" stroke-opacity="1" stroke-width="3.2"/>
<circle clip-path="url(#clip612)" cx="1891.13" cy="582.706" r="14.4" fill="#e69f00" fill-rule="evenodd" fill-opacity="1" stroke="#000000" stroke-opacity="1" stroke-width="3.2"/>
<circle clip-path="url(#clip612)" cx="1887.23" cy="249.558" r="14.4" fill="#e69f00" fill-rule="evenodd" fill-opacity="1" stroke="#000000" stroke-opacity="1" stroke-width="3.2"/>
<circle clip-path="url(#clip612)" cx="924.374" cy="766.32" r="14.4" fill="#e69f00" fill-rule="evenodd" fill-opacity="1" stroke="#000000" stroke-opacity="1" stroke-width="3.2"/>
<circle clip-path="url(#clip612)" cx="365.508" cy="710.227" r="14.4" fill="#e69f00" fill-rule="evenodd" fill-opacity="1" stroke="#000000" stroke-opacity="1" stroke-width="3.2"/>
<circle clip-path="url(#clip612)" cx="939.557" cy="673.671" r="14.4" fill="#e69f00" fill-rule="evenodd" fill-opacity="1" stroke="#000000" stroke-opacity="1" stroke-width="3.2"/>
<circle clip-path="url(#clip612)" cx="1814.77" cy="744.658" r="14.4" fill="#e69f00" fill-rule="evenodd" fill-opacity="1" stroke="#000000" stroke-opacity="1" stroke-width="3.2"/>
<circle clip-path="url(#clip612)" cx="1841.73" cy="412.364" r="14.4" fill="#e69f00" fill-rule="evenodd" fill-opacity="1" stroke="#000000" stroke-opacity="1" stroke-width="3.2"/>
<circle clip-path="url(#clip612)" cx="1584.26" cy="807.276" r="14.4" fill="#e69f00" fill-rule="evenodd" fill-opacity="1" stroke="#000000" stroke-opacity="1" stroke-width="3.2"/>
<circle clip-path="url(#clip612)" cx="369.645" cy="698.273" r="14.4" fill="#e69f00" fill-rule="evenodd" fill-opacity="1" stroke="#000000" stroke-opacity="1" stroke-width="3.2"/>
<circle clip-path="url(#clip612)" cx="1700.19" cy="808.054" r="14.4" fill="#e69f00" fill-rule="evenodd" fill-opacity="1" stroke="#000000" stroke-opacity="1" stroke-width="3.2"/>
<circle clip-path="url(#clip612)" cx="1222.73" cy="1148.76" r="14.4" fill="#e69f00" fill-rule="evenodd" fill-opacity="1" stroke="#000000" stroke-opacity="1" stroke-width="3.2"/>
<circle clip-path="url(#clip612)" cx="2093.4" cy="803.861" r="14.4" fill="#e69f00" fill-rule="evenodd" fill-opacity="1" stroke="#000000" stroke-opacity="1" stroke-width="3.2"/>
<circle clip-path="url(#clip612)" cx="1665.05" cy="776.274" r="14.4" fill="#e69f00" fill-rule="evenodd" fill-opacity="1" stroke="#000000" stroke-opacity="1" stroke-width="3.2"/>
<circle clip-path="url(#clip612)" cx="1029.5" cy="753.062" r="14.4" fill="#e69f00" fill-rule="evenodd" fill-opacity="1" stroke="#000000" stroke-opacity="1" stroke-width="3.2"/>
<circle clip-path="url(#clip612)" cx="990.26" cy="844.78" r="14.4" fill="#e69f00" fill-rule="evenodd" fill-opacity="1" stroke="#000000" stroke-opacity="1" stroke-width="3.2"/>
<circle clip-path="url(#clip612)" cx="1629.71" cy="687.11" r="14.4" fill="#e69f00" fill-rule="evenodd" fill-opacity="1" stroke="#000000" stroke-opacity="1" stroke-width="3.2"/>
<circle clip-path="url(#clip612)" cx="1607.43" cy="696.624" r="14.4" fill="#e69f00" fill-rule="evenodd" fill-opacity="1" stroke="#000000" stroke-opacity="1" stroke-width="3.2"/>
<circle clip-path="url(#clip612)" cx="1290.13" cy="715.662" r="14.4" fill="#e69f00" fill-rule="evenodd" fill-opacity="1" stroke="#000000" stroke-opacity="1" stroke-width="3.2"/>
<circle clip-path="url(#clip612)" cx="1476.7" cy="907.276" r="14.4" fill="#e69f00" fill-rule="evenodd" fill-opacity="1" stroke="#000000" stroke-opacity="1" stroke-width="3.2"/>
<circle clip-path="url(#clip612)" cx="994.915" cy="1008.08" r="14.4" fill="#e69f00" fill-rule="evenodd" fill-opacity="1" stroke="#000000" stroke-opacity="1" stroke-width="3.2"/>
<circle clip-path="url(#clip612)" cx="1571.7" cy="1002.96" r="14.4" fill="#e69f00" fill-rule="evenodd" fill-opacity="1" stroke="#000000" stroke-opacity="1" stroke-width="3.2"/>
<circle clip-path="url(#clip612)" cx="1739.8" cy="767.265" r="14.4" fill="#e69f00" fill-rule="evenodd" fill-opacity="1" stroke="#000000" stroke-opacity="1" stroke-width="3.2"/>
<circle clip-path="url(#clip612)" cx="1629.9" cy="759.906" r="14.4" fill="#e69f00" fill-rule="evenodd" fill-opacity="1" stroke="#000000" stroke-opacity="1" stroke-width="3.2"/>
<circle clip-path="url(#clip612)" cx="834.378" cy="669.466" r="14.4" fill="#e69f00" fill-rule="evenodd" fill-opacity="1" stroke="#000000" stroke-opacity="1" stroke-width="3.2"/>
<circle clip-path="url(#clip612)" cx="634.939" cy="384.054" r="14.4" fill="#e69f00" fill-rule="evenodd" fill-opacity="1" stroke="#000000" stroke-opacity="1" stroke-width="3.2"/>
<path clip-path="url(#clip612)" d="
M147.478 1163.13 L192.484 1163.13 L237.489 1163.13 L282.495 1163.13 L327.501 1163.13 L372.506 1131.08 L417.512 993.76 L462.518 968.357 L507.523 964.43 L552.529 964.43 
  L597.535 964.43 L642.54 964.43 L687.546 977.895 L732.552 1037.1 L777.557 1037.1 L822.563 1042.61 L867.569 1083.17 L912.574 1117.88 L957.58 1148.03 L1002.59 1183.87 
  L1047.59 1230.76 L1092.6 1284.34 L1137.6 1284.34 L1182.61 1285.11 L1227.61 1285.11 L1272.62 1285.11 L1317.63 1285.11 L1362.63 1284.34 L1407.64 1223.91 L1452.64 1155.21 
  L1497.65 1144.58 L1542.65 1118.68 L1587.66 1085.54 L1632.67 1085.54 L1677.67 1074.86 L1722.68 941.392 L1767.68 935.521 L1812.69 936.622 L1857.69 922.611 L1902.7 925.175 
  L1947.7 942.237 L1992.71 948.048 L2037.72 985.742 L2082.72 1099.28 L2127.73 1137.37 L2172.73 1196.5 L2217.74 1196.5 L2262.74 1196.5 L2307.75 1196.5 L2352.76 1196.5 
  L2352.76 504.364 L2307.75 504.364 L2262.74 504.364 L2217.74 504.364 L2172.73 504.364 L2127.73 419.775 L2082.72 378.555 L2037.72 265.645 L1992.71 244.283 L1947.7 240.851 
  L1902.7 231.386 L1857.69 226.287 L1812.69 246.594 L1767.68 236.516 L1722.68 232.43 L1677.67 342.495 L1632.67 396.031 L1587.66 396.031 L1542.65 404.966 L1497.65 450.036 
  L1452.64 451.604 L1407.64 485.953 L1362.63 592.65 L1317.63 592.65 L1272.62 592.65 L1227.61 592.65 L1182.61 592.419 L1137.6 584.568 L1092.6 582.617 L1047.59 514.835 
  L1002.59 485.125 L957.58 456.403 L912.574 426.048 L867.569 388.997 L822.563 349.803 L777.557 346.196 L732.552 346.196 L687.546 276.037 L642.54 271.802 L597.535 271.802 
  L552.529 271.802 L507.523 271.802 L462.518 271.802 L417.512 275.832 L372.506 403.123 L327.501 460.677 L282.495 460.677 L237.489 460.677 L192.484 460.677 L147.478 460.677 
   Z
  " fill="#56b4e9" fill-rule="evenodd" fill-opacity="0.5"/>
<polyline clip-path="url(#clip612)" style="stroke:#56b4e9; stroke-linecap:round; stroke-linejoin:round; stroke-width:16; stroke-opacity:1; fill:none" points="
  147.478,811.906 192.484,811.906 237.489,811.906 282.495,811.906 327.501,811.906 372.506,767.103 417.512,634.796 462.518,620.08 507.523,618.116 552.529,618.116 
  597.535,618.116 642.54,618.116 687.546,626.966 732.552,691.649 777.557,691.649 822.563,696.207 867.569,736.084 912.574,771.963 957.58,802.214 1002.59,834.496 
  1047.59,872.797 1092.6,933.478 1137.6,934.453 1182.61,938.766 1227.61,938.881 1272.62,938.881 1317.63,938.881 1362.63,938.494 1407.64,854.932 1452.64,803.406 
  1497.65,797.308 1542.65,761.822 1587.66,740.784 1632.67,740.784 1677.67,708.679 1722.68,586.911 1767.68,586.019 1812.69,591.608 1857.69,574.449 1902.7,578.28 
  1947.7,591.544 1992.71,596.165 2037.72,625.694 2082.72,738.917 2127.73,778.574 2172.73,850.434 2217.74,850.434 2262.74,850.434 2307.75,850.434 2352.76,850.434 
  
  "/>
<polyline clip-path="url(#clip612)" style="stroke:#000000; stroke-linecap:round; stroke-linejoin:round; stroke-width:4; stroke-opacity:1; fill:none" stroke-dasharray="16, 10" points="
  141.211,1479.59 144.906,1466.07 148.6,1452.57 152.294,1439.11 155.989,1425.68 159.683,1412.29 163.378,1398.93 167.072,1385.62 170.767,1372.35 174.461,1359.13 
  178.155,1345.95 181.85,1332.82 185.544,1319.75 189.239,1306.73 192.933,1293.76 196.628,1280.85 200.322,1268 204.016,1255.21 207.711,1242.49 211.405,1229.83 
  215.1,1217.23 218.794,1204.71 222.488,1192.26 226.183,1179.87 229.877,1167.57 233.572,1155.34 237.266,1143.18 240.961,1131.11 244.655,1119.12 248.349,1107.21 
  252.044,1095.38 255.738,1083.64 259.433,1071.99 263.127,1060.43 266.822,1048.96 270.516,1037.58 274.21,1026.29 277.905,1015.1 281.599,1004.01 285.294,993.018 
  288.988,982.124 292.683,971.33 296.377,960.639 300.071,950.052 303.766,939.57 307.46,929.195 311.155,918.927 314.849,908.767 318.544,898.718 322.238,888.78 
  325.932,878.955 329.627,869.243 333.321,859.645 337.016,850.164 340.71,840.798 344.404,831.551 348.099,822.422 351.793,813.413 355.488,804.525 359.182,795.757 
  362.877,787.113 366.571,778.591 370.265,770.193 373.96,761.921 377.654,753.773 381.349,745.752 385.043,737.858 388.738,730.092 392.432,722.454 396.126,714.944 
  399.821,707.565 403.515,700.315 407.21,693.196 410.904,686.208 414.599,679.352 418.293,672.627 421.987,666.035 425.682,659.576 429.376,653.25 433.071,647.058 
  436.765,640.999 440.46,635.075 444.154,629.284 447.848,623.629 451.543,618.108 455.237,612.722 458.932,607.471 462.626,602.356 466.32,597.375 470.015,592.53 
  473.709,587.821 477.404,583.246 481.098,578.807 484.793,574.503 488.487,570.334 492.181,566.301 495.876,562.402 499.57,558.638 503.265,555.008 506.959,551.513 
  510.654,548.152 514.348,544.924 518.042,541.83 521.737,538.87 525.431,536.042 529.126,533.346 532.82,530.783 536.515,528.351 540.209,526.05 543.903,523.88 
  547.598,521.84 551.292,519.929 554.987,518.148 558.681,516.495 562.375,514.97 566.07,513.572 569.764,512.3 573.459,511.155 577.153,510.135 580.848,509.239 
  584.542,508.467 588.236,507.818 591.931,507.291 595.625,506.885 599.32,506.6 603.014,506.434 606.709,506.387 610.403,506.458 614.097,506.646 617.792,506.95 
  621.486,507.369 625.181,507.902 628.875,508.548 632.57,509.305 636.264,510.174 639.958,511.153 643.653,512.24 647.347,513.435 651.042,514.736 654.736,516.143 
  658.431,517.654 662.125,519.268 665.819,520.984 669.514,522.8 673.208,524.716 676.903,526.73 680.597,528.841 684.291,531.047 687.986,533.348 691.68,535.742 
  695.375,538.227 699.069,540.803 702.764,543.467 706.458,546.219 710.152,549.058 713.847,551.981 717.541,554.988 721.236,558.076 724.93,561.245 728.625,564.493 
  732.319,567.819 736.013,571.221 739.708,574.698 743.402,578.248 747.097,581.869 750.791,585.561 754.486,589.321 758.18,593.148 761.874,597.041 765.569,600.998 
  769.263,605.017 772.958,609.098 776.652,613.237 780.347,617.434 784.041,621.688 787.735,625.996 791.43,630.357 795.124,634.769 798.819,639.231 802.513,643.741 
  806.207,648.298 809.902,652.899 813.596,657.544 817.291,662.23 820.985,666.956 824.68,671.721 828.374,676.522 832.068,681.358 835.763,686.227 839.457,691.129 
  843.152,696.06 846.846,701.02 850.541,706.006 854.235,711.018 857.929,716.053 861.624,721.11 865.318,726.187 869.013,731.283 872.707,736.395 876.402,741.523 
  880.096,746.664 883.79,751.817 887.485,756.981 891.179,762.153 894.874,767.332 898.568,772.517 902.263,777.705 905.957,782.896 909.651,788.087 913.346,793.277 
  917.04,798.464 920.735,803.648 924.429,808.825 928.123,813.995 931.818,819.156 935.512,824.307 939.207,829.445 942.901,834.57 946.596,839.679 950.29,844.772 
  953.984,849.847 957.679,854.901 961.373,859.935 965.068,864.946 968.762,869.932 972.457,874.893 976.151,879.827 979.845,884.732 983.54,889.607 987.234,894.451 
  990.929,899.261 994.623,904.038 998.318,908.779 1002.01,913.482 1005.71,918.147 1009.4,922.773 1013.1,927.357 1016.79,931.899 1020.48,936.397 1024.18,940.851 
  1027.87,945.258 1031.57,949.617 1035.26,953.928 1038.96,958.188 1042.65,962.397 1046.35,966.554 1050.04,970.658 1053.73,974.706 1057.43,978.699 1061.12,982.634 
  1064.82,986.512 1068.51,990.33 1072.21,994.088 1075.9,997.785 1079.59,1001.42 1083.29,1004.99 1086.98,1008.5 1090.68,1011.94 1094.37,1015.31 1098.07,1018.62 
  1101.76,1021.86 1105.46,1025.03 1109.15,1028.13 1112.84,1031.16 1116.54,1034.11 1120.23,1037 1123.93,1039.81 1127.62,1042.55 1131.32,1045.21 1135.01,1047.8 
  1138.71,1050.31 1142.4,1052.74 1146.09,1055.1 1149.79,1057.37 1153.48,1059.57 1157.18,1061.69 1160.87,1063.73 1164.57,1065.69 1168.26,1067.56 1171.96,1069.36 
  1175.65,1071.07 1179.34,1072.7 1183.04,1074.25 1186.73,1075.71 1190.43,1077.09 1194.12,1078.39 1197.82,1079.6 1201.51,1080.72 1205.21,1081.76 1208.9,1082.72 
  1212.59,1083.58 1216.29,1084.37 1219.98,1085.06 1223.68,1085.67 1227.37,1086.19 1231.07,1086.63 1234.76,1086.98 1238.46,1087.24 1242.15,1087.41 1245.84,1087.5 
  1249.54,1087.5 1253.23,1087.41 1256.93,1087.24 1260.62,1086.98 1264.32,1086.63 1268.01,1086.19 1271.7,1085.67 1275.4,1085.06 1279.09,1084.37 1282.79,1083.58 
  1286.48,1082.72 1290.18,1081.76 1293.87,1080.72 1297.57,1079.6 1301.26,1078.39 1304.95,1077.09 1308.65,1075.71 1312.34,1074.25 1316.04,1072.7 1319.73,1071.07 
  1323.43,1069.36 1327.12,1067.56 1330.82,1065.69 1334.51,1063.73 1338.2,1061.69 1341.9,1059.57 1345.59,1057.37 1349.29,1055.1 1352.98,1052.74 1356.68,1050.31 
  1360.37,1047.8 1364.07,1045.21 1367.76,1042.55 1371.45,1039.81 1375.15,1037 1378.84,1034.11 1382.54,1031.16 1386.23,1028.13 1389.93,1025.03 1393.62,1021.86 
  1397.32,1018.62 1401.01,1015.31 1404.7,1011.94 1408.4,1008.5 1412.09,1004.99 1415.79,1001.42 1419.48,997.785 1423.18,994.088 1426.87,990.33 1430.57,986.512 
  1434.26,982.634 1437.95,978.699 1441.65,974.706 1445.34,970.658 1449.04,966.554 1452.73,962.397 1456.43,958.188 1460.12,953.928 1463.81,949.617 1467.51,945.258 
  1471.2,940.851 1474.9,936.397 1478.59,931.899 1482.29,927.357 1485.98,922.773 1489.68,918.147 1493.37,913.482 1497.06,908.779 1500.76,904.038 1504.45,899.261 
  1508.15,894.451 1511.84,889.607 1515.54,884.732 1519.23,879.827 1522.93,874.893 1526.62,869.932 1530.31,864.946 1534.01,859.935 1537.7,854.901 1541.4,849.847 
  1545.09,844.772 1548.79,839.679 1552.48,834.57 1556.18,829.445 1559.87,824.307 1563.56,819.156 1567.26,813.995 1570.95,808.825 1574.65,803.648 1578.34,798.464 
  1582.04,793.277 1585.73,788.087 1589.43,782.896 1593.12,777.705 1596.81,772.517 1600.51,767.332 1604.2,762.153 1607.9,756.981 1611.59,751.817 1615.29,746.664 
  1618.98,741.523 1622.68,736.395 1626.37,731.283 1630.06,726.187 1633.76,721.11 1637.45,716.053 1641.15,711.018 1644.84,706.006 1648.54,701.02 1652.23,696.06 
  1655.93,691.129 1659.62,686.227 1663.31,681.358 1667.01,676.522 1670.7,671.721 1674.4,666.956 1678.09,662.23 1681.79,657.544 1685.48,652.899 1689.17,648.298 
  1692.87,643.741 1696.56,639.231 1700.26,634.769 1703.95,630.357 1707.65,625.996 1711.34,621.688 1715.04,617.434 1718.73,613.237 1722.42,609.098 1726.12,605.017 
  1729.81,600.998 1733.51,597.041 1737.2,593.148 1740.9,589.321 1744.59,585.561 1748.29,581.869 1751.98,578.248 1755.67,574.698 1759.37,571.221 1763.06,567.819 
  1766.76,564.493 1770.45,561.245 1774.15,558.076 1777.84,554.988 1781.54,551.981 1785.23,549.058 1788.92,546.219 1792.62,543.467 1796.31,540.803 1800.01,538.227 
  1803.7,535.742 1807.4,533.348 1811.09,531.047 1814.79,528.841 1818.48,526.73 1822.17,524.716 1825.87,522.8 1829.56,520.984 1833.26,519.268 1836.95,517.654 
  1840.65,516.143 1844.34,514.736 1848.04,513.435 1851.73,512.24 1855.42,511.153 1859.12,510.174 1862.81,509.305 1866.51,508.548 1870.2,507.902 1873.9,507.369 
  1877.59,506.95 1881.28,506.646 1884.98,506.458 1888.67,506.387 1892.37,506.434 1896.06,506.6 1899.76,506.885 1903.45,507.291 1907.15,507.818 1910.84,508.467 
  1914.53,509.239 1918.23,510.135 1921.92,511.155 1925.62,512.3 1929.31,513.572 1933.01,514.97 1936.7,516.495 1940.4,518.148 1944.09,519.929 1947.78,521.84 
  1951.48,523.88 1955.17,526.05 1958.87,528.351 1962.56,530.783 1966.26,533.346 1969.95,536.042 1973.65,538.87 1977.34,541.83 1981.03,544.924 1984.73,548.152 
  1988.42,551.513 1992.12,555.008 1995.81,558.638 1999.51,562.402 2003.2,566.301 2006.9,570.334 2010.59,574.503 2014.28,578.807 2017.98,583.246 2021.67,587.821 
  2025.37,592.53 2029.06,597.375 2032.76,602.356 2036.45,607.471 2040.15,612.722 2043.84,618.108 2047.53,623.629 2051.23,629.284 2054.92,635.075 2058.62,640.999 
  2062.31,647.058 2066.01,653.25 2069.7,659.576 2073.39,666.035 2077.09,672.627 2080.78,679.352 2084.48,686.208 2088.17,693.196 2091.87,700.315 2095.56,707.565 
  2099.26,714.944 2102.95,722.454 2106.64,730.092 2110.34,737.858 2114.03,745.752 2117.73,753.773 2121.42,761.921 2125.12,770.193 2128.81,778.591 2132.51,787.113 
  2136.2,795.757 2139.89,804.525 2143.59,813.413 2147.28,822.422 2150.98,831.551 2154.67,840.798 2158.37,850.164 2162.06,859.645 2165.76,869.243 2169.45,878.955 
  2173.14,888.78 2176.84,898.718 2180.53,908.767 2184.23,918.927 2187.92,929.195 2191.62,939.57 2195.31,950.052 2199.01,960.639 2202.7,971.33 2206.39,982.124 
  2210.09,993.018 2213.78,1004.01 2217.48,1015.1 2221.17,1026.29 2224.87,1037.58 2228.56,1048.96 2232.26,1060.43 2235.95,1071.99 2239.64,1083.64 2243.34,1095.38 
  2247.03,1107.21 2250.73,1119.12 2254.42,1131.11 2258.12,1143.18 2261.81,1155.34 2265.5,1167.57 2269.2,1179.87 2272.89,1192.26 2276.59,1204.71 2280.28,1217.23 
  2283.98,1229.83 2287.67,1242.49 2291.37,1255.21 2295.06,1268 2298.75,1280.85 2302.45,1293.76 2306.14,1306.73 2309.84,1319.75 2313.53,1332.82 2317.23,1345.95 
  2320.92,1359.13 2324.62,1372.35 2328.31,1385.62 2332,1398.93 2335.7,1412.29 2339.39,1425.68 2343.09,1439.11 2346.78,1452.57 2350.48,1466.07 2354.17,1479.59 
  
  "/>
<path clip-path="url(#clip610)" d="
M220.987 302.578 L741.027 302.578 L741.027 95.2176 L220.987 95.2176  Z
  " fill="#ffffff" fill-rule="evenodd" fill-opacity="1"/>
<polyline clip-path="url(#clip610)" style="stroke:#000000; stroke-linecap:round; stroke-linejoin:round; stroke-width:4; stroke-opacity:1; fill:none" points="
  220.987,302.578 741.027,302.578 741.027,95.2176 220.987,95.2176 220.987,302.578 
  "/>
<circle clip-path="url(#clip610)" cx="319" cy="147.058" r="23.04" fill="#e69f00" fill-rule="evenodd" fill-opacity="1" stroke="#000000" stroke-opacity="1" stroke-width="5.12"/>
<path clip-path="url(#clip610)" d="M417.012 129.778 L446.248 129.778 L446.248 133.713 L433.979 133.713 L433.979 164.338 L429.28 164.338 L429.28 133.713 L417.012 133.713 L417.012 129.778 Z" fill="#000000" fill-rule="evenodd" fill-opacity="1" /><path clip-path="url(#clip610)" d="M464.697 150.31 L464.697 152.393 L445.114 152.393 Q445.391 156.791 447.752 159.106 Q450.137 161.398 454.373 161.398 Q456.826 161.398 459.118 160.796 Q461.433 160.194 463.701 158.99 L463.701 163.018 Q461.41 163.99 459.002 164.5 Q456.595 165.009 454.118 165.009 Q447.915 165.009 444.28 161.398 Q440.669 157.787 440.669 151.629 Q440.669 145.264 444.095 141.537 Q447.544 137.787 453.377 137.787 Q458.609 137.787 461.641 141.166 Q464.697 144.523 464.697 150.31 M460.438 149.06 Q460.391 145.565 458.47 143.481 Q456.572 141.398 453.424 141.398 Q449.859 141.398 447.706 143.412 Q445.577 145.426 445.252 149.083 L460.438 149.06 Z" fill="#000000" fill-rule="evenodd" fill-opacity="1" /><path clip-path="url(#clip610)" d="M488.215 139.176 L488.215 143.203 Q486.41 142.277 484.465 141.815 Q482.521 141.352 480.437 141.352 Q477.266 141.352 475.669 142.324 Q474.095 143.296 474.095 145.24 Q474.095 146.722 475.229 147.578 Q476.363 148.412 479.789 149.176 L481.248 149.5 Q485.785 150.472 487.683 152.254 Q489.604 154.014 489.604 157.185 Q489.604 160.796 486.734 162.902 Q483.887 165.009 478.887 165.009 Q476.803 165.009 474.535 164.592 Q472.289 164.199 469.789 163.388 L469.789 158.99 Q472.15 160.217 474.442 160.842 Q476.734 161.444 478.979 161.444 Q481.988 161.444 483.609 160.426 Q485.229 159.384 485.229 157.509 Q485.229 155.773 484.049 154.847 Q482.891 153.921 478.933 153.064 L477.451 152.717 Q473.493 151.884 471.734 150.171 Q469.975 148.435 469.975 145.426 Q469.975 141.768 472.567 139.778 Q475.16 137.787 479.928 137.787 Q482.289 137.787 484.373 138.134 Q486.456 138.481 488.215 139.176 Z" fill="#000000" fill-rule="evenodd" fill-opacity="1" /><path clip-path="url(#clip610)" d="M500.599 131.051 L500.599 138.412 L509.373 138.412 L509.373 141.722 L500.599 141.722 L500.599 155.796 Q500.599 158.967 501.456 159.87 Q502.336 160.773 504.998 160.773 L509.373 160.773 L509.373 164.338 L504.998 164.338 Q500.067 164.338 498.192 162.509 Q496.317 160.657 496.317 155.796 L496.317 141.722 L493.192 141.722 L493.192 138.412 L496.317 138.412 L496.317 131.051 L500.599 131.051 Z" fill="#000000" fill-rule="evenodd" fill-opacity="1" /><path clip-path="url(#clip610)" d="M534.164 160.449 L534.164 174.199 L529.882 174.199 L529.882 138.412 L534.164 138.412 L534.164 142.347 Q535.507 140.032 537.544 138.921 Q539.604 137.787 542.451 137.787 Q547.173 137.787 550.113 141.537 Q553.076 145.287 553.076 151.398 Q553.076 157.509 550.113 161.259 Q547.173 165.009 542.451 165.009 Q539.604 165.009 537.544 163.898 Q535.507 162.763 534.164 160.449 M548.655 151.398 Q548.655 146.699 546.71 144.037 Q544.789 141.352 541.409 141.352 Q538.03 141.352 536.085 144.037 Q534.164 146.699 534.164 151.398 Q534.164 156.097 536.085 158.782 Q538.03 161.444 541.409 161.444 Q544.789 161.444 546.71 158.782 Q548.655 156.097 548.655 151.398 Z" fill="#000000" fill-rule="evenodd" fill-opacity="1" /><path clip-path="url(#clip610)" d="M570.182 141.398 Q566.756 141.398 564.766 144.083 Q562.775 146.745 562.775 151.398 Q562.775 156.051 564.743 158.736 Q566.733 161.398 570.182 161.398 Q573.585 161.398 575.576 158.713 Q577.567 156.027 577.567 151.398 Q577.567 146.791 575.576 144.106 Q573.585 141.398 570.182 141.398 M570.182 137.787 Q575.738 137.787 578.909 141.398 Q582.08 145.009 582.08 151.398 Q582.08 157.764 578.909 161.398 Q575.738 165.009 570.182 165.009 Q564.604 165.009 561.432 161.398 Q558.284 157.764 558.284 151.398 Q558.284 145.009 561.432 141.398 Q564.604 137.787 570.182 137.787 Z" fill="#000000" fill-rule="evenodd" fill-opacity="1" /><path clip-path="url(#clip610)" d="M589.141 138.412 L593.4 138.412 L593.4 164.338 L589.141 164.338 L589.141 138.412 M589.141 128.319 L593.4 128.319 L593.4 133.713 L589.141 133.713 L589.141 128.319 Z" fill="#000000" fill-rule="evenodd" fill-opacity="1" /><path clip-path="url(#clip610)" d="M623.863 148.689 L623.863 164.338 L619.603 164.338 L619.603 148.828 Q619.603 145.148 618.168 143.319 Q616.733 141.49 613.863 141.49 Q610.414 141.49 608.423 143.69 Q606.432 145.889 606.432 149.685 L606.432 164.338 L602.15 164.338 L602.15 138.412 L606.432 138.412 L606.432 142.44 Q607.96 140.102 610.02 138.944 Q612.103 137.787 614.812 137.787 Q619.279 137.787 621.571 140.565 Q623.863 143.319 623.863 148.689 Z" fill="#000000" fill-rule="evenodd" fill-opacity="1" /><path clip-path="url(#clip610)" d="M636.571 131.051 L636.571 138.412 L645.344 138.412 L645.344 141.722 L636.571 141.722 L636.571 155.796 Q636.571 158.967 637.427 159.87 Q638.307 160.773 640.969 160.773 L645.344 160.773 L645.344 164.338 L640.969 164.338 Q636.038 164.338 634.164 162.509 Q632.289 160.657 632.289 155.796 L632.289 141.722 L629.164 141.722 L629.164 138.412 L632.289 138.412 L632.289 131.051 L636.571 131.051 Z" fill="#000000" fill-rule="evenodd" fill-opacity="1" /><path clip-path="url(#clip610)" d="M667.474 139.176 L667.474 143.203 Q665.668 142.277 663.724 141.815 Q661.779 141.352 659.696 141.352 Q656.524 141.352 654.927 142.324 Q653.353 143.296 653.353 145.24 Q653.353 146.722 654.487 147.578 Q655.622 148.412 659.048 149.176 L660.506 149.5 Q665.043 150.472 666.941 152.254 Q668.862 154.014 668.862 157.185 Q668.862 160.796 665.992 162.902 Q663.145 165.009 658.145 165.009 Q656.062 165.009 653.793 164.592 Q651.548 164.199 649.048 163.388 L649.048 158.99 Q651.409 160.217 653.7 160.842 Q655.992 161.444 658.237 161.444 Q661.247 161.444 662.867 160.426 Q664.487 159.384 664.487 157.509 Q664.487 155.773 663.307 154.847 Q662.149 153.921 658.191 153.064 L656.71 152.717 Q652.751 151.884 650.992 150.171 Q649.233 148.435 649.233 145.426 Q649.233 141.768 651.825 139.778 Q654.418 137.787 659.187 137.787 Q661.548 137.787 663.631 138.134 Q665.714 138.481 667.474 139.176 Z" fill="#000000" fill-rule="evenodd" fill-opacity="1" /><polyline clip-path="url(#clip610)" style="stroke:#56b4e9; stroke-linecap:round; stroke-linejoin:round; stroke-width:16; stroke-opacity:1; fill:none" points="
  245.49,198.898 392.509,198.898 
  "/>
<path clip-path="url(#clip610)" d="M421.688 185.46 L421.688 198.446 L427.567 198.446 Q430.831 198.446 432.614 196.756 Q434.396 195.067 434.396 191.942 Q434.396 188.84 432.614 187.15 Q430.831 185.46 427.567 185.46 L421.688 185.46 M417.012 181.618 L427.567 181.618 Q433.378 181.618 436.34 184.256 Q439.327 186.872 439.327 191.942 Q439.327 197.057 436.34 199.673 Q433.378 202.289 427.567 202.289 L421.688 202.289 L421.688 216.178 L417.012 216.178 L417.012 181.618 Z" fill="#000000" fill-rule="evenodd" fill-opacity="1" /><path clip-path="url(#clip610)" d="M459.604 194.233 Q458.887 193.817 458.03 193.631 Q457.197 193.423 456.178 193.423 Q452.567 193.423 450.623 195.784 Q448.702 198.122 448.702 202.52 L448.702 216.178 L444.419 216.178 L444.419 190.252 L448.702 190.252 L448.702 194.28 Q450.044 191.918 452.197 190.784 Q454.35 189.627 457.428 189.627 Q457.868 189.627 458.401 189.696 Q458.933 189.743 459.581 189.858 L459.604 194.233 Z" fill="#000000" fill-rule="evenodd" fill-opacity="1" /><path clip-path="url(#clip610)" d="M485.206 202.15 L485.206 204.233 L465.623 204.233 Q465.901 208.631 468.262 210.946 Q470.646 213.238 474.882 213.238 Q477.336 213.238 479.627 212.636 Q481.942 212.034 484.211 210.83 L484.211 214.858 Q481.919 215.83 479.512 216.34 Q477.104 216.849 474.627 216.849 Q468.424 216.849 464.789 213.238 Q461.178 209.627 461.178 203.469 Q461.178 197.104 464.604 193.377 Q468.053 189.627 473.887 189.627 Q479.118 189.627 482.15 193.006 Q485.206 196.363 485.206 202.15 M480.947 200.9 Q480.9 197.405 478.979 195.321 Q477.081 193.238 473.933 193.238 Q470.368 193.238 468.215 195.252 Q466.086 197.266 465.762 200.923 L480.947 200.9 Z" fill="#000000" fill-rule="evenodd" fill-opacity="1" /><path clip-path="url(#clip610)" d="M509.257 194.187 L509.257 180.159 L513.516 180.159 L513.516 216.178 L509.257 216.178 L509.257 212.289 Q507.914 214.603 505.854 215.738 Q503.817 216.849 500.947 216.849 Q496.248 216.849 493.285 213.099 Q490.345 209.349 490.345 203.238 Q490.345 197.127 493.285 193.377 Q496.248 189.627 500.947 189.627 Q503.817 189.627 505.854 190.761 Q507.914 191.872 509.257 194.187 M494.743 203.238 Q494.743 207.937 496.664 210.622 Q498.609 213.284 501.988 213.284 Q505.368 213.284 507.312 210.622 Q509.257 207.937 509.257 203.238 Q509.257 198.539 507.312 195.877 Q505.368 193.192 501.988 193.192 Q498.609 193.192 496.664 195.877 Q494.743 198.539 494.743 203.238 Z" fill="#000000" fill-rule="evenodd" fill-opacity="1" /><path clip-path="url(#clip610)" d="M522.289 190.252 L526.548 190.252 L526.548 216.178 L522.289 216.178 L522.289 190.252 M522.289 180.159 L526.548 180.159 L526.548 185.553 L522.289 185.553 L522.289 180.159 Z" fill="#000000" fill-rule="evenodd" fill-opacity="1" /><path clip-path="url(#clip610)" d="M554.118 191.247 L554.118 195.229 Q552.312 194.233 550.483 193.747 Q548.678 193.238 546.826 193.238 Q542.683 193.238 540.391 195.877 Q538.099 198.492 538.099 203.238 Q538.099 207.983 540.391 210.622 Q542.683 213.238 546.826 213.238 Q548.678 213.238 550.483 212.752 Q552.312 212.242 554.118 211.247 L554.118 215.182 Q552.335 216.016 550.414 216.432 Q548.516 216.849 546.363 216.849 Q540.507 216.849 537.058 213.168 Q533.608 209.488 533.608 203.238 Q533.608 196.895 537.081 193.261 Q540.576 189.627 546.641 189.627 Q548.608 189.627 550.483 190.043 Q552.358 190.437 554.118 191.247 Z" fill="#000000" fill-rule="evenodd" fill-opacity="1" /><path clip-path="url(#clip610)" d="M565.738 182.891 L565.738 190.252 L574.511 190.252 L574.511 193.562 L565.738 193.562 L565.738 207.636 Q565.738 210.807 566.594 211.71 Q567.474 212.613 570.136 212.613 L574.511 212.613 L574.511 216.178 L570.136 216.178 Q565.206 216.178 563.331 214.349 Q561.456 212.497 561.456 207.636 L561.456 193.562 L558.331 193.562 L558.331 190.252 L561.456 190.252 L561.456 182.891 L565.738 182.891 Z" fill="#000000" fill-rule="evenodd" fill-opacity="1" /><path clip-path="url(#clip610)" d="M602.289 202.15 L602.289 204.233 L582.705 204.233 Q582.983 208.631 585.344 210.946 Q587.729 213.238 591.965 213.238 Q594.418 213.238 596.71 212.636 Q599.025 212.034 601.293 210.83 L601.293 214.858 Q599.002 215.83 596.594 216.34 Q594.187 216.849 591.71 216.849 Q585.506 216.849 581.872 213.238 Q578.261 209.627 578.261 203.469 Q578.261 197.104 581.687 193.377 Q585.136 189.627 590.969 189.627 Q596.201 189.627 599.233 193.006 Q602.289 196.363 602.289 202.15 M598.029 200.9 Q597.983 197.405 596.062 195.321 Q594.164 193.238 591.016 193.238 Q587.451 193.238 585.298 195.252 Q583.168 197.266 582.844 200.923 L598.029 200.9 Z" fill="#000000" fill-rule="evenodd" fill-opacity="1" /><path clip-path="url(#clip610)" d="M626.339 194.187 L626.339 180.159 L630.599 180.159 L630.599 216.178 L626.339 216.178 L626.339 212.289 Q624.997 214.603 622.937 215.738 Q620.9 216.849 618.029 216.849 Q613.33 216.849 610.367 213.099 Q607.428 209.349 607.428 203.238 Q607.428 197.127 610.367 193.377 Q613.33 189.627 618.029 189.627 Q620.9 189.627 622.937 190.761 Q624.997 191.872 626.339 194.187 M611.826 203.238 Q611.826 207.937 613.747 210.622 Q615.691 213.284 619.071 213.284 Q622.451 213.284 624.395 210.622 Q626.339 207.937 626.339 203.238 Q626.339 198.539 624.395 195.877 Q622.451 193.192 619.071 193.192 Q615.691 193.192 613.747 195.877 Q611.826 198.539 611.826 203.238 Z" fill="#000000" fill-rule="evenodd" fill-opacity="1" /><polyline clip-path="url(#clip610)" style="stroke:#000000; stroke-linecap:round; stroke-linejoin:round; stroke-width:4; stroke-opacity:1; fill:none" stroke-dasharray="16, 10" points="
  245.49,250.738 392.509,250.738 
  "/>
<path clip-path="url(#clip610)" d="M442.567 263.087 L442.567 253.805 L434.928 253.805 L434.928 249.962 L447.197 249.962 L447.197 264.8 Q444.489 266.721 441.225 267.717 Q437.961 268.689 434.257 268.689 Q426.155 268.689 421.572 263.967 Q417.012 259.221 417.012 250.772 Q417.012 242.3 421.572 237.578 Q426.155 232.833 434.257 232.833 Q437.637 232.833 440.669 233.666 Q443.725 234.499 446.294 236.12 L446.294 241.096 Q443.702 238.897 440.785 237.786 Q437.868 236.675 434.651 236.675 Q428.308 236.675 425.114 240.217 Q421.942 243.758 421.942 250.772 Q421.942 257.763 425.114 261.305 Q428.308 264.846 434.651 264.846 Q437.128 264.846 439.072 264.43 Q441.016 263.99 442.567 263.087 Z" fill="#000000" fill-rule="evenodd" fill-opacity="1" /><path clip-path="url(#clip610)" d="M470.576 246.073 Q469.859 245.657 469.002 245.471 Q468.169 245.263 467.151 245.263 Q463.539 245.263 461.595 247.624 Q459.674 249.962 459.674 254.36 L459.674 268.018 L455.391 268.018 L455.391 242.092 L459.674 242.092 L459.674 246.12 Q461.016 243.758 463.169 242.624 Q465.322 241.467 468.401 241.467 Q468.84 241.467 469.373 241.536 Q469.905 241.583 470.553 241.698 L470.576 246.073 Z" fill="#000000" fill-rule="evenodd" fill-opacity="1" /><path clip-path="url(#clip610)" d="M484.049 245.078 Q480.623 245.078 478.632 247.763 Q476.641 250.425 476.641 255.078 Q476.641 259.731 478.609 262.416 Q480.6 265.078 484.049 265.078 Q487.451 265.078 489.442 262.393 Q491.433 259.707 491.433 255.078 Q491.433 250.471 489.442 247.786 Q487.451 245.078 484.049 245.078 M484.049 241.467 Q489.604 241.467 492.775 245.078 Q495.947 248.689 495.947 255.078 Q495.947 261.444 492.775 265.078 Q489.604 268.689 484.049 268.689 Q478.47 268.689 475.299 265.078 Q472.15 261.444 472.15 255.078 Q472.15 248.689 475.299 245.078 Q478.47 241.467 484.049 241.467 Z" fill="#000000" fill-rule="evenodd" fill-opacity="1" /><path clip-path="url(#clip610)" d="M502.567 257.786 L502.567 242.092 L506.826 242.092 L506.826 257.624 Q506.826 261.305 508.261 263.156 Q509.697 264.985 512.567 264.985 Q516.016 264.985 518.007 262.786 Q520.021 260.587 520.021 256.791 L520.021 242.092 L524.28 242.092 L524.28 268.018 L520.021 268.018 L520.021 264.036 Q518.47 266.397 516.41 267.555 Q514.372 268.689 511.664 268.689 Q507.197 268.689 504.882 265.911 Q502.567 263.133 502.567 257.786 M513.285 241.467 L513.285 241.467 Z" fill="#000000" fill-rule="evenodd" fill-opacity="1" /><path clip-path="url(#clip610)" d="M554.604 252.369 L554.604 268.018 L550.345 268.018 L550.345 252.508 Q550.345 248.828 548.909 246.999 Q547.474 245.17 544.604 245.17 Q541.155 245.17 539.164 247.37 Q537.173 249.569 537.173 253.365 L537.173 268.018 L532.891 268.018 L532.891 242.092 L537.173 242.092 L537.173 246.12 Q538.701 243.782 540.761 242.624 Q542.845 241.467 545.553 241.467 Q550.02 241.467 552.312 244.245 Q554.604 246.999 554.604 252.369 Z" fill="#000000" fill-rule="evenodd" fill-opacity="1" /><path clip-path="url(#clip610)" d="M580.159 246.027 L580.159 231.999 L584.418 231.999 L584.418 268.018 L580.159 268.018 L580.159 264.129 Q578.817 266.443 576.756 267.578 Q574.719 268.689 571.849 268.689 Q567.15 268.689 564.187 264.939 Q561.247 261.189 561.247 255.078 Q561.247 248.967 564.187 245.217 Q567.15 241.467 571.849 241.467 Q574.719 241.467 576.756 242.601 Q578.817 243.712 580.159 246.027 M565.645 255.078 Q565.645 259.777 567.567 262.462 Q569.511 265.124 572.891 265.124 Q576.27 265.124 578.215 262.462 Q580.159 259.777 580.159 255.078 Q580.159 250.379 578.215 247.717 Q576.27 245.032 572.891 245.032 Q569.511 245.032 567.567 247.717 Q565.645 250.379 565.645 255.078 Z" fill="#000000" fill-rule="evenodd" fill-opacity="1" /><path clip-path="url(#clip610)" d="M612.474 234.731 L612.474 242.092 L621.247 242.092 L621.247 245.402 L612.474 245.402 L612.474 259.476 Q612.474 262.647 613.33 263.55 Q614.21 264.453 616.872 264.453 L621.247 264.453 L621.247 268.018 L616.872 268.018 Q611.941 268.018 610.066 266.189 Q608.191 264.337 608.191 259.476 L608.191 245.402 L605.066 245.402 L605.066 242.092 L608.191 242.092 L608.191 234.731 L612.474 234.731 Z" fill="#000000" fill-rule="evenodd" fill-opacity="1" /><path clip-path="url(#clip610)" d="M641.872 246.073 Q641.154 245.657 640.298 245.471 Q639.464 245.263 638.446 245.263 Q634.835 245.263 632.89 247.624 Q630.969 249.962 630.969 254.36 L630.969 268.018 L626.687 268.018 L626.687 242.092 L630.969 242.092 L630.969 246.12 Q632.312 243.758 634.464 242.624 Q636.617 241.467 639.696 241.467 Q640.136 241.467 640.668 241.536 Q641.201 241.583 641.849 241.698 L641.872 246.073 Z" fill="#000000" fill-rule="evenodd" fill-opacity="1" /><path clip-path="url(#clip610)" d="M645.9 257.786 L645.9 242.092 L650.159 242.092 L650.159 257.624 Q650.159 261.305 651.594 263.156 Q653.029 264.985 655.899 264.985 Q659.349 264.985 661.339 262.786 Q663.353 260.587 663.353 256.791 L663.353 242.092 L667.612 242.092 L667.612 268.018 L663.353 268.018 L663.353 264.036 Q661.802 266.397 659.742 267.555 Q657.705 268.689 654.997 268.689 Q650.529 268.689 648.214 265.911 Q645.9 263.133 645.9 257.786 M656.617 241.467 L656.617 241.467 Z" fill="#000000" fill-rule="evenodd" fill-opacity="1" /><path clip-path="url(#clip610)" d="M680.598 234.731 L680.598 242.092 L689.372 242.092 L689.372 245.402 L680.598 245.402 L680.598 259.476 Q680.598 262.647 681.455 263.55 Q682.335 264.453 684.997 264.453 L689.372 264.453 L689.372 268.018 L684.997 268.018 Q680.066 268.018 678.191 266.189 Q676.316 264.337 676.316 259.476 L676.316 245.402 L673.191 245.402 L673.191 242.092 L676.316 242.092 L676.316 234.731 L680.598 234.731 Z" fill="#000000" fill-rule="evenodd" fill-opacity="1" /><path clip-path="url(#clip610)" d="M716.524 252.369 L716.524 268.018 L712.265 268.018 L712.265 252.508 Q712.265 248.828 710.83 246.999 Q709.395 245.17 706.524 245.17 Q703.075 245.17 701.084 247.37 Q699.094 249.569 699.094 253.365 L699.094 268.018 L694.811 268.018 L694.811 231.999 L699.094 231.999 L699.094 246.12 Q700.621 243.782 702.682 242.624 Q704.765 241.467 707.473 241.467 Q711.941 241.467 714.233 244.245 Q716.524 246.999 716.524 252.369 Z" fill="#000000" fill-rule="evenodd" fill-opacity="1" /></svg>
