<?xml version="1.0" encoding="utf-8"?>
<svg xmlns="http://www.w3.org/2000/svg" xmlns:xlink="http://www.w3.org/1999/xlink" width="800" height="300" viewBox="0 0 3200 1200">
<defs>
  <clipPath id="clip790">
    <rect x="0" y="0" width="3200" height="1200"/>
  </clipPath>
</defs>
<path clip-path="url(#clip790)" d="M0 1200 L3200 1200 L3200 0 L0 0  Z" fill="#ffffff" fill-rule="evenodd" fill-opacity="1"/>
<defs>
  <clipPath id="clip791">
    <rect x="640" y="0" width="2241" height="1200"/>
  </clipPath>
</defs>
<path clip-path="url(#clip790)" d="M180.015 1110.43 L1552.76 1110.43 L1552.76 97.0121 L180.015 97.0121  Z" fill="#ffffff" fill-rule="evenodd" fill-opacity="1"/>
<defs>
  <clipPath id="clip792">
    <rect x="180" y="97" width="1374" height="1014"/>
  </clipPath>
</defs>
<polyline clip-path="url(#clip792)" style="stroke:#000000; stroke-linecap:round; stroke-linejoin:round; stroke-width:2; stroke-opacity:0.1; fill:none" points="527.015,1110.43 527.015,97.0121 "/>
<polyline clip-path="url(#clip792)" style="stroke:#000000; stroke-linecap:round; stroke-linejoin:round; stroke-width:2; stroke-opacity:0.1; fill:none" points="1205.76,1110.43 1205.76,97.0121 "/>
<polyline clip-path="url(#clip790)" style="stroke:#000000; stroke-linecap:round; stroke-linejoin:round; stroke-width:4; stroke-opacity:1; fill:none" points="180.015,1110.43 1552.76,1110.43 "/>
<polyline clip-path="url(#clip790)" style="stroke:#000000; stroke-linecap:round; stroke-linejoin:round; stroke-width:4; stroke-opacity:1; fill:none" points="527.015,1110.43 527.015,1091.53 "/>
<polyline clip-path="url(#clip790)" style="stroke:#000000; stroke-linecap:round; stroke-linejoin:round; stroke-width:4; stroke-opacity:1; fill:none" points="1205.76,1110.43 1205.76,1091.53 "/>
<path clip-path="url(#clip790)" d="M440.427 1141.26 L440.427 1176.81 L437.475 1176.81 L437.475 1141.26 L440.427 1141.26 Z" fill="#000000" fill-rule="nonzero" fill-opacity="1" /><path clip-path="url(#clip790)" d="M467.84 1144.5 L467.84 1148.2 Q466.069 1146.55 464.055 1145.74 Q462.058 1144.92 459.801 1144.92 Q455.357 1144.92 452.996 1147.65 Q450.635 1150.36 450.635 1155.49 Q450.635 1160.62 452.996 1163.34 Q455.357 1166.05 459.801 1166.05 Q462.058 1166.05 464.055 1165.23 Q466.069 1164.42 467.84 1162.77 L467.84 1166.43 Q465.999 1167.68 463.933 1168.31 Q461.885 1168.93 459.593 1168.93 Q453.708 1168.93 450.322 1165.34 Q446.937 1161.73 446.937 1155.49 Q446.937 1149.24 450.322 1145.65 Q453.708 1142.04 459.593 1142.04 Q461.919 1142.04 463.968 1142.66 Q466.034 1143.27 467.84 1144.5 Z" fill="#000000" fill-rule="nonzero" fill-opacity="1" /><path clip-path="url(#clip790)" d="M477.232 1141.26 L477.232 1176.81 L474.281 1176.81 L474.281 1141.26 L477.232 1141.26 Z" fill="#000000" fill-rule="nonzero" fill-opacity="1" /><path clip-path="url(#clip790)" d="M499.003 1157.54 Q499.124 1158.83 500.218 1160.91 Q501.503 1163.32 503.933 1164.68 Q506.312 1166 508.881 1166.01 L520.982 1166.01 L520.982 1168.78 L508.881 1168.78 Q505.548 1168.78 502.457 1167.06 Q499.385 1165.34 497.735 1162.28 Q496.086 1159.23 496.086 1155.98 Q496.086 1152.77 497.735 1149.71 Q499.385 1146.66 502.457 1144.92 Q505.548 1143.18 508.881 1143.18 L520.982 1143.18 L520.982 1145.95 L508.881 1145.95 Q506.312 1145.96 503.933 1147.3 Q501.52 1148.67 500.218 1151.07 Q499.107 1153.15 498.951 1154.76 L520.982 1154.76 L520.982 1157.54 L499.003 1157.54 Z" fill="#000000" fill-rule="nonzero" fill-opacity="1" /><path clip-path="url(#clip790)" d="M538.377 1141.41 L545.738 1141.41 L545.738 1143.9 L541.572 1143.9 L541.572 1170.63 L545.738 1170.63 L545.738 1173.12 L538.377 1173.12 L538.377 1141.41 Z" fill="#000000" fill-rule="nonzero" fill-opacity="1" /><path clip-path="url(#clip790)" d="M560.495 1144.82 Q557.787 1144.82 556.416 1147.49 Q555.061 1150.15 555.061 1155.49 Q555.061 1160.82 556.416 1163.5 Q557.787 1166.15 560.495 1166.15 Q563.221 1166.15 564.575 1163.5 Q565.947 1160.82 565.947 1155.49 Q565.947 1150.15 564.575 1147.49 Q563.221 1144.82 560.495 1144.82 M560.495 1142.04 Q564.853 1142.04 567.145 1145.49 Q569.454 1148.93 569.454 1155.49 Q569.454 1162.04 567.145 1165.49 Q564.853 1168.93 560.495 1168.93 Q556.138 1168.93 553.829 1165.49 Q551.537 1162.04 551.537 1155.49 Q551.537 1148.93 553.829 1145.49 Q556.138 1142.04 560.495 1142.04 Z" fill="#000000" fill-rule="nonzero" fill-opacity="1" /><path clip-path="url(#clip790)" d="M575.981 1164.02 L579.645 1164.02 L579.645 1167 L576.797 1172.56 L574.558 1172.56 L575.981 1167 L575.981 1164.02 Z" fill="#000000" fill-rule="nonzero" fill-opacity="1" /><path clip-path="url(#clip790)" d="M587.526 1165.48 L593.256 1165.48 L593.256 1145.7 L587.023 1146.95 L587.023 1143.76 L593.221 1142.51 L596.728 1142.51 L596.728 1165.48 L602.457 1165.48 L602.457 1168.43 L587.526 1168.43 L587.526 1165.48 Z" fill="#000000" fill-rule="nonzero" fill-opacity="1" /><path clip-path="url(#clip790)" d="M616.554 1141.41 L616.554 1173.12 L609.193 1173.12 L609.193 1170.63 L613.342 1170.63 L613.342 1143.9 L609.193 1143.9 L609.193 1141.41 L616.554 1141.41 Z" fill="#000000" fill-rule="nonzero" fill-opacity="1" /><path clip-path="url(#clip790)" d="M1136.13 1141.26 L1136.13 1176.81 L1133.18 1176.81 L1133.18 1141.26 L1136.13 1141.26 Z" fill="#000000" fill-rule="nonzero" fill-opacity="1" /><path clip-path="url(#clip790)" d="M1163.54 1144.5 L1163.54 1148.2 Q1161.77 1146.55 1159.76 1145.74 Q1157.76 1144.92 1155.5 1144.92 Q1151.06 1144.92 1148.7 1147.65 Q1146.34 1150.36 1146.34 1155.49 Q1146.34 1160.62 1148.7 1163.34 Q1151.06 1166.05 1155.5 1166.05 Q1157.76 1166.05 1159.76 1165.23 Q1161.77 1164.42 1163.54 1162.77 L1163.54 1166.43 Q1161.7 1167.68 1159.64 1168.31 Q1157.59 1168.93 1155.3 1168.93 Q1149.41 1168.93 1146.03 1165.34 Q1142.64 1161.73 1142.64 1155.49 Q1142.64 1149.24 1146.03 1145.65 Q1149.41 1142.04 1155.3 1142.04 Q1157.62 1142.04 1159.67 1142.66 Q1161.74 1143.27 1163.54 1144.5 Z" fill="#000000" fill-rule="nonzero" fill-opacity="1" /><path clip-path="url(#clip790)" d="M1172.94 1141.26 L1172.94 1176.81 L1169.98 1176.81 L1169.98 1141.26 L1172.94 1141.26 Z" fill="#000000" fill-rule="nonzero" fill-opacity="1" /><path clip-path="url(#clip790)" d="M1194.71 1157.54 Q1194.83 1158.83 1195.92 1160.91 Q1197.21 1163.32 1199.64 1164.68 Q1202.01 1166 1204.58 1166.01 L1216.68 1166.01 L1216.68 1168.78 L1204.58 1168.78 Q1201.25 1168.78 1198.16 1167.06 Q1195.09 1165.34 1193.44 1162.28 Q1191.79 1159.23 1191.79 1155.98 Q1191.79 1152.77 1193.44 1149.71 Q1195.09 1146.66 1198.16 1144.92 Q1201.25 1143.18 1204.58 1143.18 L1216.68 1143.18 L1216.68 1145.95 L1204.58 1145.95 Q1202.01 1145.96 1199.64 1147.3 Q1197.22 1148.67 1195.92 1151.07 Q1194.81 1153.15 1194.65 1154.76 L1216.68 1154.76 L1216.68 1157.54 L1194.71 1157.54 Z" fill="#000000" fill-rule="nonzero" fill-opacity="1" /><path clip-path="url(#clip790)" d="M1234.08 1141.41 L1241.44 1141.41 L1241.44 1143.9 L1237.28 1143.9 L1237.28 1170.63 L1241.44 1170.63 L1241.44 1173.12 L1234.08 1173.12 L1234.08 1141.41 Z" fill="#000000" fill-rule="nonzero" fill-opacity="1" /><path clip-path="url(#clip790)" d="M1251.72 1165.48 L1263.96 1165.48 L1263.96 1168.43 L1247.5 1168.43 L1247.5 1165.48 Q1249.5 1163.41 1252.93 1159.94 Q1256.39 1156.45 1257.27 1155.44 Q1258.96 1153.55 1259.62 1152.25 Q1260.3 1150.93 1260.3 1149.66 Q1260.3 1147.59 1258.84 1146.29 Q1257.4 1144.99 1255.07 1144.99 Q1253.42 1144.99 1251.58 1145.56 Q1249.76 1146.14 1247.67 1147.3 L1247.67 1143.76 Q1249.79 1142.91 1251.63 1142.47 Q1253.47 1142.04 1255 1142.04 Q1259.03 1142.04 1261.42 1144.05 Q1263.82 1146.07 1263.82 1149.43 Q1263.82 1151.03 1263.21 1152.47 Q1262.62 1153.9 1261.04 1155.84 Q1260.61 1156.34 1258.28 1158.76 Q1255.96 1161.15 1251.72 1165.48 Z" fill="#000000" fill-rule="nonzero" fill-opacity="1" /><path clip-path="url(#clip790)" d="M1278.33 1141.41 L1278.33 1173.12 L1270.97 1173.12 L1270.97 1170.63 L1275.12 1170.63 L1275.12 1143.9 L1270.97 1143.9 L1270.97 1141.41 L1278.33 1141.41 Z" fill="#000000" fill-rule="nonzero" fill-opacity="1" /><polyline clip-path="url(#clip792)" style="stroke:#000000; stroke-linecap:round; stroke-linejoin:round; stroke-width:2; stroke-opacity:0.1; fill:none" points="180.015,1081.75 1552.76,1081.75 "/>
<polyline clip-path="url(#clip792)" style="stroke:#000000; stroke-linecap:round; stroke-linejoin:round; stroke-width:2; stroke-opacity:0.1; fill:none" points="180.015,888.994 1552.76,888.994 "/>
<polyline clip-path="url(#clip792)" style="stroke:#000000; stroke-linecap:round; stroke-linejoin:round; stroke-width:2; stroke-opacity:0.1; fill:none" points="180.015,696.241 1552.76,696.241 "/>
<polyline clip-path="url(#clip792)" style="stroke:#000000; stroke-linecap:round; stroke-linejoin:round; stroke-width:2; stroke-opacity:0.1; fill:none" points="180.015,503.489 1552.76,503.489 "/>
<polyline clip-path="url(#clip792)" style="stroke:#000000; stroke-linecap:round; stroke-linejoin:round; stroke-width:2; stroke-opacity:0.1; fill:none" points="180.015,310.736 1552.76,310.736 "/>
<polyline clip-path="url(#clip792)" style="stroke:#000000; stroke-linecap:round; stroke-linejoin:round; stroke-width:2; stroke-opacity:0.1; fill:none" points="180.015,117.984 1552.76,117.984 "/>
<polyline clip-path="url(#clip790)" style="stroke:#000000; stroke-linecap:round; stroke-linejoin:round; stroke-width:4; stroke-opacity:1; fill:none" points="180.015,1110.43 180.015,97.0121 "/>
<polyline clip-path="url(#clip790)" style="stroke:#000000; stroke-linecap:round; stroke-linejoin:round; stroke-width:4; stroke-opacity:1; fill:none" points="180.015,1081.75 198.912,1081.75 "/>
<polyline clip-path="url(#clip790)" style="stroke:#000000; stroke-linecap:round; stroke-linejoin:round; stroke-width:4; stroke-opacity:1; fill:none" points="180.015,888.994 198.912,888.994 "/>
<polyline clip-path="url(#clip790)" style="stroke:#000000; stroke-linecap:round; stroke-linejoin:round; stroke-width:4; stroke-opacity:1; fill:none" points="180.015,696.241 198.912,696.241 "/>
<polyline clip-path="url(#clip790)" style="stroke:#000000; stroke-linecap:round; stroke-linejoin:round; stroke-width:4; stroke-opacity:1; fill:none" points="180.015,503.489 198.912,503.489 "/>
<polyline clip-path="url(#clip790)" style="stroke:#000000; stroke-linecap:round; stroke-linejoin:round; stroke-width:4; stroke-opacity:1; fill:none" points="180.015,310.736 198.912,310.736 "/>
<polyline clip-path="url(#clip790)" style="stroke:#000000; stroke-linecap:round; stroke-linejoin:round; stroke-width:4; stroke-opacity:1; fill:none" points="180.015,117.984 198.912,117.984 "/>
<path clip-path="url(#clip790)" d="M120.07 1067.54 Q116.459 1067.54 114.631 1071.11 Q112.825 1074.65 112.825 1081.78 Q112.825 1088.89 114.631 1092.45 Q116.459 1095.99 120.07 1095.99 Q123.705 1095.99 125.51 1092.45 Q127.339 1088.89 127.339 1081.78 Q127.339 1074.65 125.51 1071.11 Q123.705 1067.54 120.07 1067.54 M120.07 1063.84 Q125.881 1063.84 128.936 1068.45 Q132.015 1073.03 132.015 1081.78 Q132.015 1090.51 128.936 1095.11 Q125.881 1099.7 120.07 1099.7 Q114.26 1099.7 111.182 1095.11 Q108.126 1090.51 108.126 1081.78 Q108.126 1073.03 111.182 1068.45 Q114.26 1063.84 120.07 1063.84 Z" fill="#000000" fill-rule="nonzero" fill-opacity="1" /><path clip-path="url(#clip790)" d="M50.5569 902.339 L58.1958 902.339 L58.1958 875.973 L49.8856 877.64 L49.8856 873.38 L58.1495 871.714 L62.8254 871.714 L62.8254 902.339 L70.4642 902.339 L70.4642 906.274 L50.5569 906.274 L50.5569 902.339 Z" fill="#000000" fill-rule="nonzero" fill-opacity="1" /><path clip-path="url(#clip790)" d="M89.9086 874.792 Q86.2975 874.792 84.4688 878.357 Q82.6632 881.899 82.6632 889.028 Q82.6632 896.135 84.4688 899.7 Q86.2975 903.241 89.9086 903.241 Q93.5428 903.241 95.3483 899.7 Q97.177 896.135 97.177 889.028 Q97.177 881.899 95.3483 878.357 Q93.5428 874.792 89.9086 874.792 M89.9086 871.089 Q95.7187 871.089 98.7743 875.695 Q101.853 880.279 101.853 889.028 Q101.853 897.755 98.7743 902.362 Q95.7187 906.945 89.9086 906.945 Q84.0984 906.945 81.0197 902.362 Q77.9642 897.755 77.9642 889.028 Q77.9642 880.279 81.0197 875.695 Q84.0984 871.089 89.9086 871.089 Z" fill="#000000" fill-rule="nonzero" fill-opacity="1" /><path clip-path="url(#clip790)" d="M120.07 874.792 Q116.459 874.792 114.631 878.357 Q112.825 881.899 112.825 889.028 Q112.825 896.135 114.631 899.7 Q116.459 903.241 120.07 903.241 Q123.705 903.241 125.51 899.7 Q127.339 896.135 127.339 889.028 Q127.339 881.899 125.51 878.357 Q123.705 874.792 120.07 874.792 M120.07 871.089 Q125.881 871.089 128.936 875.695 Q132.015 880.279 132.015 889.028 Q132.015 897.755 128.936 902.362 Q125.881 906.945 120.07 906.945 Q114.26 906.945 111.182 902.362 Q108.126 897.755 108.126 889.028 Q108.126 880.279 111.182 875.695 Q114.26 871.089 120.07 871.089 Z" fill="#000000" fill-rule="nonzero" fill-opacity="1" /><path clip-path="url(#clip790)" d="M53.7745 709.586 L70.0939 709.586 L70.0939 713.521 L48.1495 713.521 L48.1495 709.586 Q50.8115 706.831 55.3949 702.202 Q60.0013 697.549 61.1819 696.206 Q63.4272 693.683 64.3068 691.947 Q65.2096 690.188 65.2096 688.498 Q65.2096 685.744 63.2652 684.007 Q61.3439 682.271 58.2421 682.271 Q56.043 682.271 53.5893 683.035 Q51.1588 683.799 48.381 685.35 L48.381 680.628 Q51.2051 679.494 53.6588 678.915 Q56.1124 678.336 58.1495 678.336 Q63.5198 678.336 66.7142 681.021 Q69.9087 683.707 69.9087 688.197 Q69.9087 690.327 69.0985 692.248 Q68.3115 694.146 66.205 696.739 Q65.6263 697.41 62.5245 700.628 Q59.4226 703.822 53.7745 709.586 Z" fill="#000000" fill-rule="nonzero" fill-opacity="1" /><path clip-path="url(#clip790)" d="M89.9086 682.04 Q86.2975 682.04 84.4688 685.605 Q82.6632 689.146 82.6632 696.276 Q82.6632 703.382 84.4688 706.947 Q86.2975 710.489 89.9086 710.489 Q93.5428 710.489 95.3483 706.947 Q97.177 703.382 97.177 696.276 Q97.177 689.146 95.3483 685.605 Q93.5428 682.04 89.9086 682.04 M89.9086 678.336 Q95.7187 678.336 98.7743 682.943 Q101.853 687.526 101.853 696.276 Q101.853 705.003 98.7743 709.609 Q95.7187 714.193 89.9086 714.193 Q84.0984 714.193 81.0197 709.609 Q77.9642 705.003 77.9642 696.276 Q77.9642 687.526 81.0197 682.943 Q84.0984 678.336 89.9086 678.336 Z" fill="#000000" fill-rule="nonzero" fill-opacity="1" /><path clip-path="url(#clip790)" d="M120.07 682.04 Q116.459 682.04 114.631 685.605 Q112.825 689.146 112.825 696.276 Q112.825 703.382 114.631 706.947 Q116.459 710.489 120.07 710.489 Q123.705 710.489 125.51 706.947 Q127.339 703.382 127.339 696.276 Q127.339 689.146 125.51 685.605 Q123.705 682.04 120.07 682.04 M120.07 678.336 Q125.881 678.336 128.936 682.943 Q132.015 687.526 132.015 696.276 Q132.015 705.003 128.936 709.609 Q125.881 714.193 120.07 714.193 Q114.26 714.193 111.182 709.609 Q108.126 705.003 108.126 696.276 Q108.126 687.526 111.182 682.943 Q114.26 678.336 120.07 678.336 Z" fill="#000000" fill-rule="nonzero" fill-opacity="1" /><path clip-path="url(#clip790)" d="M63.9133 502.135 Q67.2698 502.852 69.1448 505.121 Q71.0429 507.389 71.0429 510.722 Q71.0429 515.838 67.5244 518.639 Q64.0059 521.44 57.5245 521.44 Q55.3486 521.44 53.0338 521 Q50.7421 520.583 48.2884 519.727 L48.2884 515.213 Q50.2328 516.347 52.5477 516.926 Q54.8625 517.505 57.3856 517.505 Q61.7837 517.505 64.0754 515.769 Q66.3902 514.033 66.3902 510.722 Q66.3902 507.667 64.2374 505.954 Q62.1078 504.218 58.2884 504.218 L54.2606 504.218 L54.2606 500.375 L58.4735 500.375 Q61.9226 500.375 63.7513 499.01 Q65.58 497.621 65.58 495.028 Q65.58 492.366 63.6819 490.954 Q61.8069 489.519 58.2884 489.519 Q56.3671 489.519 54.168 489.936 Q51.969 490.352 49.3301 491.232 L49.3301 487.065 Q51.9921 486.324 54.3069 485.954 Q56.6449 485.584 58.705 485.584 Q64.0291 485.584 67.1309 488.014 Q70.2327 490.422 70.2327 494.542 Q70.2327 497.412 68.5892 499.403 Q66.9457 501.371 63.9133 502.135 Z" fill="#000000" fill-rule="nonzero" fill-opacity="1" /><path clip-path="url(#clip790)" d="M89.9086 489.287 Q86.2975 489.287 84.4688 492.852 Q82.6632 496.394 82.6632 503.523 Q82.6632 510.63 84.4688 514.195 Q86.2975 517.736 89.9086 517.736 Q93.5428 517.736 95.3483 514.195 Q97.177 510.63 97.177 503.523 Q97.177 496.394 95.3483 492.852 Q93.5428 489.287 89.9086 489.287 M89.9086 485.584 Q95.7187 485.584 98.7743 490.19 Q101.853 494.773 101.853 503.523 Q101.853 512.25 98.7743 516.857 Q95.7187 521.44 89.9086 521.44 Q84.0984 521.44 81.0197 516.857 Q77.9642 512.25 77.9642 503.523 Q77.9642 494.773 81.0197 490.19 Q84.0984 485.584 89.9086 485.584 Z" fill="#000000" fill-rule="nonzero" fill-opacity="1" /><path clip-path="url(#clip790)" d="M120.07 489.287 Q116.459 489.287 114.631 492.852 Q112.825 496.394 112.825 503.523 Q112.825 510.63 114.631 514.195 Q116.459 517.736 120.07 517.736 Q123.705 517.736 125.51 514.195 Q127.339 510.63 127.339 503.523 Q127.339 496.394 125.51 492.852 Q123.705 489.287 120.07 489.287 M120.07 485.584 Q125.881 485.584 128.936 490.19 Q132.015 494.773 132.015 503.523 Q132.015 512.25 128.936 516.857 Q125.881 521.44 120.07 521.44 Q114.26 521.44 111.182 516.857 Q108.126 512.25 108.126 503.523 Q108.126 494.773 111.182 490.19 Q114.26 485.584 120.07 485.584 Z" fill="#000000" fill-rule="nonzero" fill-opacity="1" /><path clip-path="url(#clip790)" d="M62.5939 297.53 L50.7884 315.979 L62.5939 315.979 L62.5939 297.53 M61.367 293.456 L67.2466 293.456 L67.2466 315.979 L72.1772 315.979 L72.1772 319.868 L67.2466 319.868 L67.2466 328.016 L62.5939 328.016 L62.5939 319.868 L46.9921 319.868 L46.9921 315.354 L61.367 293.456 Z" fill="#000000" fill-rule="nonzero" fill-opacity="1" /><path clip-path="url(#clip790)" d="M89.9086 296.535 Q86.2975 296.535 84.4688 300.1 Q82.6632 303.641 82.6632 310.771 Q82.6632 317.877 84.4688 321.442 Q86.2975 324.984 89.9086 324.984 Q93.5428 324.984 95.3483 321.442 Q97.177 317.877 97.177 310.771 Q97.177 303.641 95.3483 300.1 Q93.5428 296.535 89.9086 296.535 M89.9086 292.831 Q95.7187 292.831 98.7743 297.438 Q101.853 302.021 101.853 310.771 Q101.853 319.498 98.7743 324.104 Q95.7187 328.687 89.9086 328.687 Q84.0984 328.687 81.0197 324.104 Q77.9642 319.498 77.9642 310.771 Q77.9642 302.021 81.0197 297.438 Q84.0984 292.831 89.9086 292.831 Z" fill="#000000" fill-rule="nonzero" fill-opacity="1" /><path clip-path="url(#clip790)" d="M120.07 296.535 Q116.459 296.535 114.631 300.1 Q112.825 303.641 112.825 310.771 Q112.825 317.877 114.631 321.442 Q116.459 324.984 120.07 324.984 Q123.705 324.984 125.51 321.442 Q127.339 317.877 127.339 310.771 Q127.339 303.641 125.51 300.1 Q123.705 296.535 120.07 296.535 M120.07 292.831 Q125.881 292.831 128.936 297.438 Q132.015 302.021 132.015 310.771 Q132.015 319.498 128.936 324.104 Q125.881 328.687 120.07 328.687 Q114.26 328.687 111.182 324.104 Q108.126 319.498 108.126 310.771 Q108.126 302.021 111.182 297.438 Q114.26 292.831 120.07 292.831 Z" fill="#000000" fill-rule="nonzero" fill-opacity="1" /><path clip-path="url(#clip790)" d="M49.793 100.704 L68.1494 100.704 L68.1494 104.639 L54.0754 104.639 L54.0754 113.111 Q55.0939 112.764 56.1124 112.602 Q57.131 112.417 58.1495 112.417 Q63.9365 112.417 67.3161 115.588 Q70.6957 118.759 70.6957 124.176 Q70.6957 129.754 67.2235 132.856 Q63.7513 135.935 57.4319 135.935 Q55.256 135.935 52.9875 135.565 Q50.7421 135.194 48.3347 134.453 L48.3347 129.754 Q50.418 130.889 52.6402 131.444 Q54.8625 132 57.3393 132 Q61.3439 132 63.6819 129.893 Q66.0198 127.787 66.0198 124.176 Q66.0198 120.565 63.6819 118.458 Q61.3439 116.352 57.3393 116.352 Q55.4643 116.352 53.5893 116.768 Q51.7375 117.185 49.793 118.065 L49.793 100.704 Z" fill="#000000" fill-rule="nonzero" fill-opacity="1" /><path clip-path="url(#clip790)" d="M89.9086 103.782 Q86.2975 103.782 84.4688 107.347 Q82.6632 110.889 82.6632 118.018 Q82.6632 125.125 84.4688 128.69 Q86.2975 132.231 89.9086 132.231 Q93.5428 132.231 95.3483 128.69 Q97.177 125.125 97.177 118.018 Q97.177 110.889 95.3483 107.347 Q93.5428 103.782 89.9086 103.782 M89.9086 100.079 Q95.7187 100.079 98.7743 104.685 Q101.853 109.268 101.853 118.018 Q101.853 126.745 98.7743 131.352 Q95.7187 135.935 89.9086 135.935 Q84.0984 135.935 81.0197 131.352 Q77.9642 126.745 77.9642 118.018 Q77.9642 109.268 81.0197 104.685 Q84.0984 100.079 89.9086 100.079 Z" fill="#000000" fill-rule="nonzero" fill-opacity="1" /><path clip-path="url(#clip790)" d="M120.07 103.782 Q116.459 103.782 114.631 107.347 Q112.825 110.889 112.825 118.018 Q112.825 125.125 114.631 128.69 Q116.459 132.231 120.07 132.231 Q123.705 132.231 125.51 128.69 Q127.339 125.125 127.339 118.018 Q127.339 110.889 125.51 107.347 Q123.705 103.782 120.07 103.782 M120.07 100.079 Q125.881 100.079 128.936 104.685 Q132.015 109.268 132.015 118.018 Q132.015 126.745 128.936 131.352 Q125.881 135.935 120.07 135.935 Q114.26 135.935 111.182 131.352 Q108.126 126.745 108.126 118.018 Q108.126 109.268 111.182 104.685 Q114.26 100.079 120.07 100.079 Z" fill="#000000" fill-rule="nonzero" fill-opacity="1" /><path clip-path="url(#clip790)" d="M501.338 49.7694 Q492.305 49.7694 488.821 51.8354 Q485.337 53.9013 485.337 58.8839 Q485.337 62.8538 487.93 65.2034 Q490.563 67.5124 495.059 67.5124 Q501.257 67.5124 504.984 63.1374 Q508.751 58.7219 508.751 51.4303 L508.751 49.7694 L501.338 49.7694 M516.205 46.6907 L516.205 72.576 L508.751 72.576 L508.751 65.6895 Q506.199 69.8214 502.391 71.8063 Q498.584 73.7508 493.074 73.7508 Q486.107 73.7508 481.975 69.8619 Q477.883 65.9325 477.883 59.3701 Q477.883 51.7138 482.988 47.825 Q488.132 43.9361 498.3 43.9361 L508.751 43.9361 L508.751 43.2069 Q508.751 38.0623 505.349 35.2672 Q501.986 32.4315 495.869 32.4315 Q491.981 32.4315 488.294 33.3632 Q484.608 34.295 481.205 36.1584 L481.205 29.2718 Q485.297 27.692 489.145 26.9223 Q492.993 26.1121 496.639 26.1121 Q506.483 26.1121 511.344 31.2163 Q516.205 36.3204 516.205 46.6907 Z" fill="#000000" fill-rule="nonzero" fill-opacity="1" /><path clip-path="url(#clip790)" d="M561.413 34.0924 L561.413 9.54393 L568.867 9.54393 L568.867 72.576 L561.413 72.576 L561.413 65.7705 Q559.064 69.8214 555.458 71.8063 Q551.893 73.7508 546.87 73.7508 Q538.647 73.7508 533.462 67.1883 Q528.317 60.6258 528.317 49.9314 Q528.317 39.2371 533.462 32.6746 Q538.647 26.1121 546.87 26.1121 Q551.893 26.1121 555.458 28.0971 Q559.064 30.0415 561.413 34.0924 M536.014 49.9314 Q536.014 58.1548 539.376 62.8538 Q542.779 67.5124 548.693 67.5124 Q554.608 67.5124 558.01 62.8538 Q561.413 58.1548 561.413 49.9314 Q561.413 41.7081 558.01 37.0496 Q554.608 32.3505 548.693 32.3505 Q542.779 32.3505 539.376 37.0496 Q536.014 41.7081 536.014 49.9314 Z" fill="#000000" fill-rule="nonzero" fill-opacity="1" /><path clip-path="url(#clip790)" d="M604.839 49.7694 Q595.805 49.7694 592.321 51.8354 Q588.838 53.9013 588.838 58.8839 Q588.838 62.8538 591.43 65.2034 Q594.063 67.5124 598.56 67.5124 Q604.758 67.5124 608.485 63.1374 Q612.252 58.7219 612.252 51.4303 L612.252 49.7694 L604.839 49.7694 M619.706 46.6907 L619.706 72.576 L612.252 72.576 L612.252 65.6895 Q609.7 69.8214 605.892 71.8063 Q602.084 73.7508 596.575 73.7508 Q589.607 73.7508 585.475 69.8619 Q581.384 65.9325 581.384 59.3701 Q581.384 51.7138 586.488 47.825 Q591.633 43.9361 601.801 43.9361 L612.252 43.9361 L612.252 43.2069 Q612.252 38.0623 608.849 35.2672 Q605.487 32.4315 599.37 32.4315 Q595.481 32.4315 591.795 33.3632 Q588.108 34.295 584.706 36.1584 L584.706 29.2718 Q588.797 27.692 592.646 26.9223 Q596.494 26.1121 600.14 26.1121 Q609.983 26.1121 614.844 31.2163 Q619.706 36.3204 619.706 46.6907 Z" fill="#000000" fill-rule="nonzero" fill-opacity="1" /><path clip-path="url(#clip790)" d="M642.269 65.7705 L642.269 89.8329 L634.775 89.8329 L634.775 27.2059 L642.269 27.2059 L642.269 34.0924 Q644.619 30.0415 648.183 28.0971 Q651.789 26.1121 656.771 26.1121 Q665.035 26.1121 670.18 32.6746 Q675.365 39.2371 675.365 49.9314 Q675.365 60.6258 670.18 67.1883 Q665.035 73.7508 656.771 73.7508 Q651.789 73.7508 648.183 71.8063 Q644.619 69.8214 642.269 65.7705 M667.628 49.9314 Q667.628 41.7081 664.225 37.0496 Q660.863 32.3505 654.948 32.3505 Q649.034 32.3505 645.631 37.0496 Q642.269 41.7081 642.269 49.9314 Q642.269 58.1548 645.631 62.8538 Q649.034 67.5124 654.948 67.5124 Q660.863 67.5124 664.225 62.8538 Q667.628 58.1548 667.628 49.9314 Z" fill="#000000" fill-rule="nonzero" fill-opacity="1" /><path clip-path="url(#clip790)" d="M695.093 14.324 L695.093 27.2059 L710.446 27.2059 L710.446 32.9987 L695.093 32.9987 L695.093 57.6282 Q695.093 63.1779 696.592 64.7578 Q698.131 66.3376 702.79 66.3376 L710.446 66.3376 L710.446 72.576 L702.79 72.576 Q694.161 72.576 690.88 69.3758 Q687.599 66.1351 687.599 57.6282 L687.599 32.9987 L682.13 32.9987 L682.13 27.2059 L687.599 27.2059 L687.599 14.324 L695.093 14.324 Z" fill="#000000" fill-rule="nonzero" fill-opacity="1" /><path clip-path="url(#clip790)" d="M720.249 27.2059 L727.703 27.2059 L727.703 72.576 L720.249 72.576 L720.249 27.2059 M720.249 9.54393 L727.703 9.54393 L727.703 18.9825 L720.249 18.9825 L720.249 9.54393 Z" fill="#000000" fill-rule="nonzero" fill-opacity="1" /><path clip-path="url(#clip790)" d="M737.951 27.2059 L745.851 27.2059 L760.029 65.2844 L774.207 27.2059 L782.106 27.2059 L765.093 72.576 L754.965 72.576 L737.951 27.2059 Z" fill="#000000" fill-rule="nonzero" fill-opacity="1" /><path clip-path="url(#clip790)" d="M831.203 48.0275 L831.203 51.6733 L796.933 51.6733 Q797.419 59.3701 801.551 63.421 Q805.723 67.4314 813.136 67.4314 Q817.43 67.4314 821.441 66.3781 Q825.491 65.3249 829.461 63.2184 L829.461 70.267 Q825.451 71.9684 821.238 72.8596 Q817.025 73.7508 812.691 73.7508 Q801.834 73.7508 795.474 67.4314 Q789.155 61.1119 789.155 50.3365 Q789.155 39.1965 795.15 32.6746 Q801.186 26.1121 811.394 26.1121 Q820.549 26.1121 825.856 32.0264 Q831.203 37.9003 831.203 48.0275 M823.75 45.84 Q823.669 39.7232 820.306 36.0774 Q816.985 32.4315 811.475 32.4315 Q805.237 32.4315 801.47 35.9558 Q797.743 39.4801 797.176 45.8805 L823.75 45.84 Z" fill="#000000" fill-rule="nonzero" fill-opacity="1" /><path clip-path="url(#clip790)" d="M877.91 86.3491 L877.91 92.1419 L834.809 92.1419 L834.809 86.3491 L877.91 86.3491 Z" fill="#000000" fill-rule="nonzero" fill-opacity="1" /><path clip-path="url(#clip790)" d="M884.918 27.2059 L892.372 27.2059 L892.372 72.576 L884.918 72.576 L884.918 27.2059 M884.918 9.54393 L892.372 9.54393 L892.372 18.9825 L884.918 18.9825 L884.918 9.54393 Z" fill="#000000" fill-rule="nonzero" fill-opacity="1" /><path clip-path="url(#clip790)" d="M945.682 45.1919 L945.682 72.576 L938.228 72.576 L938.228 45.4349 Q938.228 38.994 935.717 35.7938 Q933.205 32.5936 928.182 32.5936 Q922.146 32.5936 918.662 36.4419 Q915.179 40.2903 915.179 46.9338 L915.179 72.576 L907.684 72.576 L907.684 27.2059 L915.179 27.2059 L915.179 34.2544 Q917.852 30.163 921.457 28.1376 Q925.103 26.1121 929.843 26.1121 Q937.661 26.1121 941.671 30.9732 Q945.682 35.7938 945.682 45.1919 Z" fill="#000000" fill-rule="nonzero" fill-opacity="1" /><path clip-path="url(#clip790)" d="M990.404 34.0924 L990.404 9.54393 L997.857 9.54393 L997.857 72.576 L990.404 72.576 L990.404 65.7705 Q988.054 69.8214 984.449 71.8063 Q980.884 73.7508 975.861 73.7508 Q967.638 73.7508 962.453 67.1883 Q957.308 60.6258 957.308 49.9314 Q957.308 39.2371 962.453 32.6746 Q967.638 26.1121 975.861 26.1121 Q980.884 26.1121 984.449 28.0971 Q988.054 30.0415 990.404 34.0924 M965.005 49.9314 Q965.005 58.1548 968.367 62.8538 Q971.77 67.5124 977.684 67.5124 Q983.598 67.5124 987.001 62.8538 Q990.404 58.1548 990.404 49.9314 Q990.404 41.7081 987.001 37.0496 Q983.598 32.3505 977.684 32.3505 Q971.77 32.3505 968.367 37.0496 Q965.005 41.7081 965.005 49.9314 Z" fill="#000000" fill-rule="nonzero" fill-opacity="1" /><path clip-path="url(#clip790)" d="M1012.44 54.671 L1012.44 27.2059 L1019.89 27.2059 L1019.89 54.3874 Q1019.89 60.8284 1022.41 64.0691 Q1024.92 67.2693 1029.94 67.2693 Q1035.98 67.2693 1039.46 63.421 Q1042.98 59.5726 1042.98 52.9291 L1042.98 27.2059 L1050.44 27.2059 L1050.44 72.576 L1042.98 72.576 L1042.98 65.6084 Q1040.27 69.7404 1036.67 71.7658 Q1033.1 73.7508 1028.36 73.7508 Q1020.54 73.7508 1016.49 68.8897 Q1012.44 64.0286 1012.44 54.671 M1031.2 26.1121 L1031.2 26.1121 Z" fill="#000000" fill-rule="nonzero" fill-opacity="1" /><path clip-path="url(#clip790)" d="M1098.44 28.9478 L1098.44 35.9153 Q1095.28 34.1734 1092.08 33.3227 Q1088.92 32.4315 1085.68 32.4315 Q1078.43 32.4315 1074.42 37.0496 Q1070.41 41.6271 1070.41 49.9314 Q1070.41 58.2358 1074.42 62.8538 Q1078.43 67.4314 1085.68 67.4314 Q1088.92 67.4314 1092.08 66.5807 Q1095.28 65.6895 1098.44 63.9476 L1098.44 70.8341 Q1095.32 72.2924 1091.96 73.0216 Q1088.64 73.7508 1084.87 73.7508 Q1074.62 73.7508 1068.59 67.3098 Q1062.55 60.8689 1062.55 49.9314 Q1062.55 38.832 1068.63 32.472 Q1074.74 26.1121 1085.36 26.1121 Q1088.8 26.1121 1092.08 26.8413 Q1095.36 27.5299 1098.44 28.9478 Z" fill="#000000" fill-rule="nonzero" fill-opacity="1" /><path clip-path="url(#clip790)" d="M1118.78 14.324 L1118.78 27.2059 L1134.13 27.2059 L1134.13 32.9987 L1118.78 32.9987 L1118.78 57.6282 Q1118.78 63.1779 1120.28 64.7578 Q1121.82 66.3376 1126.47 66.3376 L1134.13 66.3376 L1134.13 72.576 L1126.47 72.576 Q1117.85 72.576 1114.56 69.3758 Q1111.28 66.1351 1111.28 57.6282 L1111.28 32.9987 L1105.81 32.9987 L1105.81 27.2059 L1111.28 27.2059 L1111.28 14.324 L1118.78 14.324 Z" fill="#000000" fill-rule="nonzero" fill-opacity="1" /><path clip-path="url(#clip790)" d="M1143.93 27.2059 L1151.39 27.2059 L1151.39 72.576 L1143.93 72.576 L1143.93 27.2059 M1143.93 9.54393 L1151.39 9.54393 L1151.39 18.9825 L1143.93 18.9825 L1143.93 9.54393 Z" fill="#000000" fill-rule="nonzero" fill-opacity="1" /><path clip-path="url(#clip790)" d="M1161.64 27.2059 L1169.53 27.2059 L1183.71 65.2844 L1197.89 27.2059 L1205.79 27.2059 L1188.78 72.576 L1178.65 72.576 L1161.64 27.2059 Z" fill="#000000" fill-rule="nonzero" fill-opacity="1" /><path clip-path="url(#clip790)" d="M1254.89 48.0275 L1254.89 51.6733 L1220.62 51.6733 Q1221.1 59.3701 1225.23 63.421 Q1229.41 67.4314 1236.82 67.4314 Q1241.11 67.4314 1245.12 66.3781 Q1249.18 65.3249 1253.15 63.2184 L1253.15 70.267 Q1249.14 71.9684 1244.92 72.8596 Q1240.71 73.7508 1236.37 73.7508 Q1225.52 73.7508 1219.16 67.4314 Q1212.84 61.1119 1212.84 50.3365 Q1212.84 39.1965 1218.83 32.6746 Q1224.87 26.1121 1235.08 26.1121 Q1244.23 26.1121 1249.54 32.0264 Q1254.89 37.9003 1254.89 48.0275 M1247.43 45.84 Q1247.35 39.7232 1243.99 36.0774 Q1240.67 32.4315 1235.16 32.4315 Q1228.92 32.4315 1225.15 35.9558 Q1221.43 39.4801 1220.86 45.8805 L1247.43 45.84 Z" fill="#000000" fill-rule="nonzero" fill-opacity="1" /><path clip-path="url(#clip792)" d="M255.518 1074.04 L255.518 1081.75 L798.511 1081.75 L798.511 1074.04 L255.518 1074.04 L255.518 1074.04  Z" fill="#e69f00" fill-rule="evenodd" fill-opacity="1"/>
<polyline clip-path="url(#clip792)" style="stroke:#000000; stroke-linecap:round; stroke-linejoin:round; stroke-width:4; stroke-opacity:1; fill:none" points="255.518,1074.04 255.518,1081.75 798.511,1081.75 798.511,1074.04 255.518,1074.04 "/>
<path clip-path="url(#clip792)" d="M934.26 125.694 L934.26 1081.75 L1477.25 1081.75 L1477.25 125.694 L934.26 125.694 L934.26 125.694  Z" fill="#e69f00" fill-rule="evenodd" fill-opacity="1"/>
<polyline clip-path="url(#clip792)" style="stroke:#000000; stroke-linecap:round; stroke-linejoin:round; stroke-width:4; stroke-opacity:1; fill:none" points="934.26,125.694 934.26,1081.75 1477.25,1081.75 1477.25,125.694 934.26,125.694 "/>
<circle clip-path="url(#clip792)" style="fill:#e69f00; stroke:none; fill-opacity:0" cx="527.015" cy="1074.04" r="2"/>
<circle clip-path="url(#clip792)" style="fill:#e69f00; stroke:none; fill-opacity:0" cx="1205.76" cy="125.694" r="2"/>
<path clip-path="url(#clip790)" d="M1780.01 1110.43 L3152.76 1110.43 L3152.76 97.0121 L1780.01 97.0121  Z" fill="#ffffff" fill-rule="evenodd" fill-opacity="1"/>
<defs>
  <clipPath id="clip793">
    <rect x="1780" y="97" width="1374" height="1014"/>
  </clipPath>
</defs>
<polyline clip-path="url(#clip793)" style="stroke:#000000; stroke-linecap:round; stroke-linejoin:round; stroke-width:2; stroke-opacity:0.1; fill:none" points="2466.39,1110.43 2466.39,97.0121 "/>
<polyline clip-path="url(#clip790)" style="stroke:#000000; stroke-linecap:round; stroke-linejoin:round; stroke-width:4; stroke-opacity:1; fill:none" points="1780.01,1110.43 3152.76,1110.43 "/>
<polyline clip-path="url(#clip790)" style="stroke:#000000; stroke-linecap:round; stroke-linejoin:round; stroke-width:4; stroke-opacity:1; fill:none" points="2466.39,1110.43 2466.39,1091.53 "/>
<path clip-path="url(#clip790)" d="M2379.8 1141.26 L2379.8 1176.81 L2376.85 1176.81 L2376.85 1141.26 L2379.8 1141.26 Z" fill="#000000" fill-rule="nonzero" fill-opacity="1" /><path clip-path="url(#clip790)" d="M2407.21 1144.5 L2407.21 1148.2 Q2405.44 1146.55 2403.43 1145.74 Q2401.43 1144.92 2399.17 1144.92 Q2394.73 1144.92 2392.37 1147.65 Q2390.01 1150.36 2390.01 1155.49 Q2390.01 1160.62 2392.37 1163.34 Q2394.73 1166.05 2399.17 1166.05 Q2401.43 1166.05 2403.43 1165.23 Q2405.44 1164.42 2407.21 1162.77 L2407.21 1166.43 Q2405.37 1167.68 2403.3 1168.31 Q2401.26 1168.93 2398.96 1168.93 Q2393.08 1168.93 2389.69 1165.34 Q2386.31 1161.73 2386.31 1155.49 Q2386.31 1149.24 2389.69 1145.65 Q2393.08 1142.04 2398.96 1142.04 Q2401.29 1142.04 2403.34 1142.66 Q2405.4 1143.27 2407.21 1144.5 Z" fill="#000000" fill-rule="nonzero" fill-opacity="1" /><path clip-path="url(#clip790)" d="M2416.6 1141.26 L2416.6 1176.81 L2413.65 1176.81 L2413.65 1141.26 L2416.6 1141.26 Z" fill="#000000" fill-rule="nonzero" fill-opacity="1" /><path clip-path="url(#clip790)" d="M2438.37 1157.54 Q2438.49 1158.83 2439.59 1160.91 Q2440.87 1163.32 2443.3 1164.68 Q2445.68 1166 2448.25 1166.01 L2460.35 1166.01 L2460.35 1168.78 L2448.25 1168.78 Q2444.92 1168.78 2441.83 1167.06 Q2438.76 1165.34 2437.11 1162.28 Q2435.46 1159.23 2435.46 1155.98 Q2435.46 1152.77 2437.11 1149.71 Q2438.76 1146.66 2441.83 1144.92 Q2444.92 1143.18 2448.25 1143.18 L2460.35 1143.18 L2460.35 1145.95 L2448.25 1145.95 Q2445.68 1145.96 2443.3 1147.3 Q2440.89 1148.67 2439.59 1151.07 Q2438.48 1153.15 2438.32 1154.76 L2460.35 1154.76 L2460.35 1157.54 L2438.37 1157.54 Z" fill="#000000" fill-rule="nonzero" fill-opacity="1" /><path clip-path="url(#clip790)" d="M2477.75 1141.41 L2485.11 1141.41 L2485.11 1143.9 L2480.94 1143.9 L2480.94 1170.63 L2485.11 1170.63 L2485.11 1173.12 L2477.75 1173.12 L2477.75 1141.41 Z" fill="#000000" fill-rule="nonzero" fill-opacity="1" /><path clip-path="url(#clip790)" d="M2499.87 1144.82 Q2497.16 1144.82 2495.79 1147.49 Q2494.43 1150.15 2494.43 1155.49 Q2494.43 1160.82 2495.79 1163.5 Q2497.16 1166.15 2499.87 1166.15 Q2502.59 1166.15 2503.95 1163.5 Q2505.32 1160.82 2505.32 1155.49 Q2505.32 1150.15 2503.95 1147.49 Q2502.59 1144.82 2499.87 1144.82 M2499.87 1142.04 Q2504.22 1142.04 2506.52 1145.49 Q2508.82 1148.93 2508.82 1155.49 Q2508.82 1162.04 2506.52 1165.49 Q2504.22 1168.93 2499.87 1168.93 Q2495.51 1168.93 2493.2 1165.49 Q2490.91 1162.04 2490.91 1155.49 Q2490.91 1148.93 2493.2 1145.49 Q2495.51 1142.04 2499.87 1142.04 Z" fill="#000000" fill-rule="nonzero" fill-opacity="1" /><path clip-path="url(#clip790)" d="M2515.35 1164.02 L2519.02 1164.02 L2519.02 1167 L2516.17 1172.56 L2513.93 1172.56 L2515.35 1167 L2515.35 1164.02 Z" fill="#000000" fill-rule="nonzero" fill-opacity="1" /><path clip-path="url(#clip790)" d="M2526.9 1165.48 L2532.63 1165.48 L2532.63 1145.7 L2526.39 1146.95 L2526.39 1143.76 L2532.59 1142.51 L2536.1 1142.51 L2536.1 1165.48 L2541.83 1165.48 L2541.83 1168.43 L2526.9 1168.43 L2526.9 1165.48 Z" fill="#000000" fill-rule="nonzero" fill-opacity="1" /><path clip-path="url(#clip790)" d="M2555.92 1141.41 L2555.92 1173.12 L2548.56 1173.12 L2548.56 1170.63 L2552.71 1170.63 L2552.71 1143.9 L2548.56 1143.9 L2548.56 1141.41 L2555.92 1141.41 Z" fill="#000000" fill-rule="nonzero" fill-opacity="1" /><polyline clip-path="url(#clip793)" style="stroke:#000000; stroke-linecap:round; stroke-linejoin:round; stroke-width:2; stroke-opacity:0.1; fill:none" points="1780.01,1081.75 3152.76,1081.75 "/>
<polyline clip-path="url(#clip793)" style="stroke:#000000; stroke-linecap:round; stroke-linejoin:round; stroke-width:2; stroke-opacity:0.1; fill:none" points="1780.01,890.536 3152.76,890.536 "/>
<polyline clip-path="url(#clip793)" style="stroke:#000000; stroke-linecap:round; stroke-linejoin:round; stroke-width:2; stroke-opacity:0.1; fill:none" points="1780.01,699.325 3152.76,699.325 "/>
<polyline clip-path="url(#clip793)" style="stroke:#000000; stroke-linecap:round; stroke-linejoin:round; stroke-width:2; stroke-opacity:0.1; fill:none" points="1780.01,508.115 3152.76,508.115 "/>
<polyline clip-path="url(#clip793)" style="stroke:#000000; stroke-linecap:round; stroke-linejoin:round; stroke-width:2; stroke-opacity:0.1; fill:none" points="1780.01,316.904 3152.76,316.904 "/>
<polyline clip-path="url(#clip793)" style="stroke:#000000; stroke-linecap:round; stroke-linejoin:round; stroke-width:2; stroke-opacity:0.1; fill:none" points="1780.01,125.694 3152.76,125.694 "/>
<polyline clip-path="url(#clip790)" style="stroke:#000000; stroke-linecap:round; stroke-linejoin:round; stroke-width:4; stroke-opacity:1; fill:none" points="1780.01,1110.43 1780.01,97.0121 "/>
<polyline clip-path="url(#clip790)" style="stroke:#000000; stroke-linecap:round; stroke-linejoin:round; stroke-width:4; stroke-opacity:1; fill:none" points="1780.01,1081.75 1798.91,1081.75 "/>
<polyline clip-path="url(#clip790)" style="stroke:#000000; stroke-linecap:round; stroke-linejoin:round; stroke-width:4; stroke-opacity:1; fill:none" points="1780.01,890.536 1798.91,890.536 "/>
<polyline clip-path="url(#clip790)" style="stroke:#000000; stroke-linecap:round; stroke-linejoin:round; stroke-width:4; stroke-opacity:1; fill:none" points="1780.01,699.325 1798.91,699.325 "/>
<polyline clip-path="url(#clip790)" style="stroke:#000000; stroke-linecap:round; stroke-linejoin:round; stroke-width:4; stroke-opacity:1; fill:none" points="1780.01,508.115 1798.91,508.115 "/>
<polyline clip-path="url(#clip790)" style="stroke:#000000; stroke-linecap:round; stroke-linejoin:round; stroke-width:4; stroke-opacity:1; fill:none" points="1780.01,316.904 1798.91,316.904 "/>
<polyline clip-path="url(#clip790)" style="stroke:#000000; stroke-linecap:round; stroke-linejoin:round; stroke-width:4; stroke-opacity:1; fill:none" points="1780.01,125.694 1798.91,125.694 "/>
<path clip-path="url(#clip790)" d="M1720.07 1067.54 Q1716.46 1067.54 1714.63 1071.11 Q1712.83 1074.65 1712.83 1081.78 Q1712.83 1088.89 1714.63 1092.45 Q1716.46 1095.99 1720.07 1095.99 Q1723.7 1095.99 1725.51 1092.45 Q1727.34 1088.89 1727.34 1081.78 Q1727.34 1074.65 1725.51 1071.11 Q1723.7 1067.54 1720.07 1067.54 M1720.07 1063.84 Q1725.88 1063.84 1728.94 1068.45 Q1732.01 1073.03 1732.01 1081.78 Q1732.01 1090.51 1728.94 1095.11 Q1725.88 1099.7 1720.07 1099.7 Q1714.26 1099.7 1711.18 1095.11 Q1708.13 1090.51 1708.13 1081.78 Q1708.13 1073.03 1711.18 1068.45 Q1714.26 1063.84 1720.07 1063.84 Z" fill="#000000" fill-rule="nonzero" fill-opacity="1" /><path clip-path="url(#clip790)" d="M1650.56 903.881 L1658.2 903.881 L1658.2 877.515 L1649.89 879.182 L1649.89 874.922 L1658.15 873.256 L1662.83 873.256 L1662.83 903.881 L1670.46 903.881 L1670.46 907.816 L1650.56 907.816 L1650.56 903.881 Z" fill="#000000" fill-rule="nonzero" fill-opacity="1" /><path clip-path="url(#clip790)" d="M1689.91 876.334 Q1686.3 876.334 1684.47 879.899 Q1682.66 883.441 1682.66 890.57 Q1682.66 897.677 1684.47 901.242 Q1686.3 904.783 1689.91 904.783 Q1693.54 904.783 1695.35 901.242 Q1697.18 897.677 1697.18 890.57 Q1697.18 883.441 1695.35 879.899 Q1693.54 876.334 1689.91 876.334 M1689.91 872.631 Q1695.72 872.631 1698.77 877.237 Q1701.85 881.821 1701.85 890.57 Q1701.85 899.297 1698.77 903.904 Q1695.72 908.487 1689.91 908.487 Q1684.1 908.487 1681.02 903.904 Q1677.96 899.297 1677.96 890.57 Q1677.96 881.821 1681.02 877.237 Q1684.1 872.631 1689.91 872.631 Z" fill="#000000" fill-rule="nonzero" fill-opacity="1" /><path clip-path="url(#clip790)" d="M1720.07 876.334 Q1716.46 876.334 1714.63 879.899 Q1712.83 883.441 1712.83 890.57 Q1712.83 897.677 1714.63 901.242 Q1716.46 904.783 1720.07 904.783 Q1723.7 904.783 1725.51 901.242 Q1727.34 897.677 1727.34 890.57 Q1727.34 883.441 1725.51 879.899 Q1723.7 876.334 1720.07 876.334 M1720.07 872.631 Q1725.88 872.631 1728.94 877.237 Q1732.01 881.821 1732.01 890.57 Q1732.01 899.297 1728.94 903.904 Q1725.88 908.487 1720.07 908.487 Q1714.26 908.487 1711.18 903.904 Q1708.13 899.297 1708.13 890.57 Q1708.13 881.821 1711.18 877.237 Q1714.26 872.631 1720.07 872.631 Z" fill="#000000" fill-rule="nonzero" fill-opacity="1" /><path clip-path="url(#clip790)" d="M1653.77 712.67 L1670.09 712.67 L1670.09 716.605 L1648.15 716.605 L1648.15 712.67 Q1650.81 709.915 1655.39 705.286 Q1660 700.633 1661.18 699.291 Q1663.43 696.767 1664.31 695.031 Q1665.21 693.272 1665.21 691.582 Q1665.21 688.828 1663.27 687.092 Q1661.34 685.355 1658.24 685.355 Q1656.04 685.355 1653.59 686.119 Q1651.16 686.883 1648.38 688.434 L1648.38 683.712 Q1651.21 682.578 1653.66 681.999 Q1656.11 681.42 1658.15 681.42 Q1663.52 681.42 1666.71 684.105 Q1669.91 686.791 1669.91 691.281 Q1669.91 693.411 1669.1 695.332 Q1668.31 697.23 1666.2 699.823 Q1665.63 700.494 1662.52 703.712 Q1659.42 706.906 1653.77 712.67 Z" fill="#000000" fill-rule="nonzero" fill-opacity="1" /><path clip-path="url(#clip790)" d="M1689.91 685.124 Q1686.3 685.124 1684.47 688.689 Q1682.66 692.23 1682.66 699.36 Q1682.66 706.466 1684.47 710.031 Q1686.3 713.573 1689.91 713.573 Q1693.54 713.573 1695.35 710.031 Q1697.18 706.466 1697.18 699.36 Q1697.18 692.23 1695.35 688.689 Q1693.54 685.124 1689.91 685.124 M1689.91 681.42 Q1695.72 681.42 1698.77 686.027 Q1701.85 690.61 1701.85 699.36 Q1701.85 708.087 1698.77 712.693 Q1695.72 717.277 1689.91 717.277 Q1684.1 717.277 1681.02 712.693 Q1677.96 708.087 1677.96 699.36 Q1677.96 690.61 1681.02 686.027 Q1684.1 681.42 1689.91 681.42 Z" fill="#000000" fill-rule="nonzero" fill-opacity="1" /><path clip-path="url(#clip790)" d="M1720.07 685.124 Q1716.46 685.124 1714.63 688.689 Q1712.83 692.23 1712.83 699.36 Q1712.83 706.466 1714.63 710.031 Q1716.46 713.573 1720.07 713.573 Q1723.7 713.573 1725.51 710.031 Q1727.34 706.466 1727.34 699.36 Q1727.34 692.23 1725.51 688.689 Q1723.7 685.124 1720.07 685.124 M1720.07 681.42 Q1725.88 681.42 1728.94 686.027 Q1732.01 690.61 1732.01 699.36 Q1732.01 708.087 1728.94 712.693 Q1725.88 717.277 1720.07 717.277 Q1714.26 717.277 1711.18 712.693 Q1708.13 708.087 1708.13 699.36 Q1708.13 690.61 1711.18 686.027 Q1714.26 681.42 1720.07 681.42 Z" fill="#000000" fill-rule="nonzero" fill-opacity="1" /><path clip-path="url(#clip790)" d="M1663.91 506.761 Q1667.27 507.478 1669.14 509.747 Q1671.04 512.015 1671.04 515.348 Q1671.04 520.464 1667.52 523.265 Q1664.01 526.066 1657.52 526.066 Q1655.35 526.066 1653.03 525.626 Q1650.74 525.21 1648.29 524.353 L1648.29 519.839 Q1650.23 520.973 1652.55 521.552 Q1654.86 522.131 1657.39 522.131 Q1661.78 522.131 1664.08 520.395 Q1666.39 518.659 1666.39 515.348 Q1666.39 512.293 1664.24 510.58 Q1662.11 508.844 1658.29 508.844 L1654.26 508.844 L1654.26 505.001 L1658.47 505.001 Q1661.92 505.001 1663.75 503.636 Q1665.58 502.247 1665.58 499.654 Q1665.58 496.992 1663.68 495.58 Q1661.81 494.145 1658.29 494.145 Q1656.37 494.145 1654.17 494.562 Q1651.97 494.978 1649.33 495.858 L1649.33 491.691 Q1651.99 490.95 1654.31 490.58 Q1656.64 490.21 1658.71 490.21 Q1664.03 490.21 1667.13 492.64 Q1670.23 495.048 1670.23 499.168 Q1670.23 502.038 1668.59 504.029 Q1666.95 505.997 1663.91 506.761 Z" fill="#000000" fill-rule="nonzero" fill-opacity="1" /><path clip-path="url(#clip790)" d="M1689.91 493.913 Q1686.3 493.913 1684.47 497.478 Q1682.66 501.02 1682.66 508.149 Q1682.66 515.256 1684.47 518.821 Q1686.3 522.362 1689.91 522.362 Q1693.54 522.362 1695.35 518.821 Q1697.18 515.256 1697.18 508.149 Q1697.18 501.02 1695.35 497.478 Q1693.54 493.913 1689.91 493.913 M1689.91 490.21 Q1695.72 490.21 1698.77 494.816 Q1701.85 499.4 1701.85 508.149 Q1701.85 516.876 1698.77 521.483 Q1695.72 526.066 1689.91 526.066 Q1684.1 526.066 1681.02 521.483 Q1677.96 516.876 1677.96 508.149 Q1677.96 499.4 1681.02 494.816 Q1684.1 490.21 1689.91 490.21 Z" fill="#000000" fill-rule="nonzero" fill-opacity="1" /><path clip-path="url(#clip790)" d="M1720.07 493.913 Q1716.46 493.913 1714.63 497.478 Q1712.83 501.02 1712.83 508.149 Q1712.83 515.256 1714.63 518.821 Q1716.46 522.362 1720.07 522.362 Q1723.7 522.362 1725.51 518.821 Q1727.34 515.256 1727.34 508.149 Q1727.34 501.02 1725.51 497.478 Q1723.7 493.913 1720.07 493.913 M1720.07 490.21 Q1725.88 490.21 1728.94 494.816 Q1732.01 499.4 1732.01 508.149 Q1732.01 516.876 1728.94 521.483 Q1725.88 526.066 1720.07 526.066 Q1714.26 526.066 1711.18 521.483 Q1708.13 516.876 1708.13 508.149 Q1708.13 499.4 1711.18 494.816 Q1714.26 490.21 1720.07 490.21 Z" fill="#000000" fill-rule="nonzero" fill-opacity="1" /><path clip-path="url(#clip790)" d="M1662.59 303.698 L1650.79 322.147 L1662.59 322.147 L1662.59 303.698 M1661.37 299.624 L1667.25 299.624 L1667.25 322.147 L1672.18 322.147 L1672.18 326.036 L1667.25 326.036 L1667.25 334.184 L1662.59 334.184 L1662.59 326.036 L1646.99 326.036 L1646.99 321.522 L1661.37 299.624 Z" fill="#000000" fill-rule="nonzero" fill-opacity="1" /><path clip-path="url(#clip790)" d="M1689.91 302.703 Q1686.3 302.703 1684.47 306.268 Q1682.66 309.809 1682.66 316.939 Q1682.66 324.045 1684.47 327.61 Q1686.3 331.152 1689.91 331.152 Q1693.54 331.152 1695.35 327.61 Q1697.18 324.045 1697.18 316.939 Q1697.18 309.809 1695.35 306.268 Q1693.54 302.703 1689.91 302.703 M1689.91 298.999 Q1695.72 298.999 1698.77 303.606 Q1701.85 308.189 1701.85 316.939 Q1701.85 325.666 1698.77 330.272 Q1695.72 334.856 1689.91 334.856 Q1684.1 334.856 1681.02 330.272 Q1677.96 325.666 1677.96 316.939 Q1677.96 308.189 1681.02 303.606 Q1684.1 298.999 1689.91 298.999 Z" fill="#000000" fill-rule="nonzero" fill-opacity="1" /><path clip-path="url(#clip790)" d="M1720.07 302.703 Q1716.46 302.703 1714.63 306.268 Q1712.83 309.809 1712.83 316.939 Q1712.83 324.045 1714.63 327.61 Q1716.46 331.152 1720.07 331.152 Q1723.7 331.152 1725.51 327.61 Q1727.34 324.045 1727.34 316.939 Q1727.34 309.809 1725.51 306.268 Q1723.7 302.703 1720.07 302.703 M1720.07 298.999 Q1725.88 298.999 1728.94 303.606 Q1732.01 308.189 1732.01 316.939 Q1732.01 325.666 1728.94 330.272 Q1725.88 334.856 1720.07 334.856 Q1714.26 334.856 1711.18 330.272 Q1708.13 325.666 1708.13 316.939 Q1708.13 308.189 1711.18 303.606 Q1714.26 298.999 1720.07 298.999 Z" fill="#000000" fill-rule="nonzero" fill-opacity="1" /><path clip-path="url(#clip790)" d="M1649.79 108.414 L1668.15 108.414 L1668.15 112.349 L1654.08 112.349 L1654.08 120.821 Q1655.09 120.474 1656.11 120.312 Q1657.13 120.127 1658.15 120.127 Q1663.94 120.127 1667.32 123.298 Q1670.7 126.469 1670.7 131.886 Q1670.7 137.464 1667.22 140.566 Q1663.75 143.645 1657.43 143.645 Q1655.26 143.645 1652.99 143.275 Q1650.74 142.904 1648.33 142.164 L1648.33 137.464 Q1650.42 138.599 1652.64 139.154 Q1654.86 139.71 1657.34 139.71 Q1661.34 139.71 1663.68 137.603 Q1666.02 135.497 1666.02 131.886 Q1666.02 128.275 1663.68 126.168 Q1661.34 124.062 1657.34 124.062 Q1655.46 124.062 1653.59 124.478 Q1651.74 124.895 1649.79 125.775 L1649.79 108.414 Z" fill="#000000" fill-rule="nonzero" fill-opacity="1" /><path clip-path="url(#clip790)" d="M1689.91 111.492 Q1686.3 111.492 1684.47 115.057 Q1682.66 118.599 1682.66 125.728 Q1682.66 132.835 1684.47 136.4 Q1686.3 139.941 1689.91 139.941 Q1693.54 139.941 1695.35 136.4 Q1697.18 132.835 1697.18 125.728 Q1697.18 118.599 1695.35 115.057 Q1693.54 111.492 1689.91 111.492 M1689.91 107.789 Q1695.72 107.789 1698.77 112.395 Q1701.85 116.978 1701.85 125.728 Q1701.85 134.455 1698.77 139.062 Q1695.72 143.645 1689.91 143.645 Q1684.1 143.645 1681.02 139.062 Q1677.96 134.455 1677.96 125.728 Q1677.96 116.978 1681.02 112.395 Q1684.1 107.789 1689.91 107.789 Z" fill="#000000" fill-rule="nonzero" fill-opacity="1" /><path clip-path="url(#clip790)" d="M1720.07 111.492 Q1716.46 111.492 1714.63 115.057 Q1712.83 118.599 1712.83 125.728 Q1712.83 132.835 1714.63 136.4 Q1716.46 139.941 1720.07 139.941 Q1723.7 139.941 1725.51 136.4 Q1727.34 132.835 1727.34 125.728 Q1727.34 118.599 1725.51 115.057 Q1723.7 111.492 1720.07 111.492 M1720.07 107.789 Q1725.88 107.789 1728.94 112.395 Q1732.01 116.978 1732.01 125.728 Q1732.01 134.455 1728.94 139.062 Q1725.88 143.645 1720.07 143.645 Q1714.26 143.645 1711.18 139.062 Q1708.13 134.455 1708.13 125.728 Q1708.13 116.978 1711.18 112.395 Q1714.26 107.789 1720.07 107.789 Z" fill="#000000" fill-rule="nonzero" fill-opacity="1" /><path clip-path="url(#clip790)" d="M2154.32 28.5427 L2154.32 35.5912 Q2151.16 33.9709 2147.76 33.1607 Q2144.36 32.3505 2140.71 32.3505 Q2135.16 32.3505 2132.37 34.0519 Q2129.61 35.7533 2129.61 39.156 Q2129.61 41.7486 2131.6 43.2475 Q2133.58 44.7058 2139.58 46.0426 L2142.13 46.6097 Q2150.07 48.3111 2153.39 51.4303 Q2156.75 54.509 2156.75 60.0587 Q2156.75 66.3781 2151.73 70.0644 Q2146.75 73.7508 2138 73.7508 Q2134.35 73.7508 2130.38 73.0216 Q2126.45 72.3329 2122.08 70.9151 L2122.08 63.2184 Q2126.21 65.3654 2130.22 66.4591 Q2134.23 67.5124 2138.16 67.5124 Q2143.43 67.5124 2146.26 65.73 Q2149.1 63.9071 2149.1 60.6258 Q2149.1 57.5877 2147.03 55.9673 Q2145.01 54.3469 2138.08 52.8481 L2135.49 52.2405 Q2128.56 50.7821 2125.48 47.7845 Q2122.4 44.7463 2122.4 39.4801 Q2122.4 33.0797 2126.94 29.5959 Q2131.48 26.1121 2139.82 26.1121 Q2143.95 26.1121 2147.6 26.7198 Q2151.25 27.3274 2154.32 28.5427 Z" fill="#000000" fill-rule="nonzero" fill-opacity="1" /><path clip-path="url(#clip790)" d="M2168.62 27.2059 L2176.08 27.2059 L2176.08 72.576 L2168.62 72.576 L2168.62 27.2059 M2168.62 9.54393 L2176.08 9.54393 L2176.08 18.9825 L2168.62 18.9825 L2168.62 9.54393 Z" fill="#000000" fill-rule="nonzero" fill-opacity="1" /><path clip-path="url(#clip790)" d="M2227 35.9153 Q2229.79 30.8922 2233.68 28.5022 Q2237.57 26.1121 2242.84 26.1121 Q2249.93 26.1121 2253.77 31.0947 Q2257.62 36.0368 2257.62 45.1919 L2257.62 72.576 L2250.13 72.576 L2250.13 45.4349 Q2250.13 38.913 2247.82 35.7533 Q2245.51 32.5936 2240.77 32.5936 Q2234.98 32.5936 2231.62 36.4419 Q2228.25 40.2903 2228.25 46.9338 L2228.25 72.576 L2220.76 72.576 L2220.76 45.4349 Q2220.76 38.8725 2218.45 35.7533 Q2216.14 32.5936 2211.32 32.5936 Q2205.61 32.5936 2202.25 36.4824 Q2198.88 40.3308 2198.88 46.9338 L2198.88 72.576 L2191.39 72.576 L2191.39 27.2059 L2198.88 27.2059 L2198.88 34.2544 Q2201.44 30.082 2205 28.0971 Q2208.57 26.1121 2213.47 26.1121 Q2218.41 26.1121 2221.85 28.6237 Q2225.34 31.1352 2227 35.9153 Z" fill="#000000" fill-rule="nonzero" fill-opacity="1" /><path clip-path="url(#clip790)" d="M2279.7 65.7705 L2279.7 89.8329 L2272.21 89.8329 L2272.21 27.2059 L2279.7 27.2059 L2279.7 34.0924 Q2282.05 30.0415 2285.61 28.0971 Q2289.22 26.1121 2294.2 26.1121 Q2302.47 26.1121 2307.61 32.6746 Q2312.8 39.2371 2312.8 49.9314 Q2312.8 60.6258 2307.61 67.1883 Q2302.47 73.7508 2294.2 73.7508 Q2289.22 73.7508 2285.61 71.8063 Q2282.05 69.8214 2279.7 65.7705 M2305.06 49.9314 Q2305.06 41.7081 2301.66 37.0496 Q2298.29 32.3505 2292.38 32.3505 Q2286.46 32.3505 2283.06 37.0496 Q2279.7 41.7081 2279.7 49.9314 Q2279.7 58.1548 2283.06 62.8538 Q2286.46 67.5124 2292.38 67.5124 Q2298.29 67.5124 2301.66 62.8538 Q2305.06 58.1548 2305.06 49.9314 Z" fill="#000000" fill-rule="nonzero" fill-opacity="1" /><path clip-path="url(#clip790)" d="M2325.15 9.54393 L2332.6 9.54393 L2332.6 72.576 L2325.15 72.576 L2325.15 9.54393 Z" fill="#000000" fill-rule="nonzero" fill-opacity="1" /><path clip-path="url(#clip790)" d="M2387.01 48.0275 L2387.01 51.6733 L2352.74 51.6733 Q2353.22 59.3701 2357.36 63.421 Q2361.53 67.4314 2368.94 67.4314 Q2373.23 67.4314 2377.25 66.3781 Q2381.3 65.3249 2385.27 63.2184 L2385.27 70.267 Q2381.26 71.9684 2377.04 72.8596 Q2372.83 73.7508 2368.5 73.7508 Q2357.64 73.7508 2351.28 67.4314 Q2344.96 61.1119 2344.96 50.3365 Q2344.96 39.1965 2350.95 32.6746 Q2356.99 26.1121 2367.2 26.1121 Q2376.35 26.1121 2381.66 32.0264 Q2387.01 37.9003 2387.01 48.0275 M2379.55 45.84 Q2379.47 39.7232 2376.11 36.0774 Q2372.79 32.4315 2367.28 32.4315 Q2361.04 32.4315 2357.27 35.9558 Q2353.55 39.4801 2352.98 45.8805 L2379.55 45.84 Z" fill="#000000" fill-rule="nonzero" fill-opacity="1" /><path clip-path="url(#clip790)" d="M2433.71 86.3491 L2433.71 92.1419 L2390.61 92.1419 L2390.61 86.3491 L2433.71 86.3491 Z" fill="#000000" fill-rule="nonzero" fill-opacity="1" /><path clip-path="url(#clip790)" d="M2440.72 27.2059 L2448.18 27.2059 L2448.18 72.576 L2440.72 72.576 L2440.72 27.2059 M2440.72 9.54393 L2448.18 9.54393 L2448.18 18.9825 L2440.72 18.9825 L2440.72 9.54393 Z" fill="#000000" fill-rule="nonzero" fill-opacity="1" /><path clip-path="url(#clip790)" d="M2501.49 45.1919 L2501.49 72.576 L2494.03 72.576 L2494.03 45.4349 Q2494.03 38.994 2491.52 35.7938 Q2489.01 32.5936 2483.99 32.5936 Q2477.95 32.5936 2474.47 36.4419 Q2470.98 40.2903 2470.98 46.9338 L2470.98 72.576 L2463.49 72.576 L2463.49 27.2059 L2470.98 27.2059 L2470.98 34.2544 Q2473.66 30.163 2477.26 28.1376 Q2480.91 26.1121 2485.65 26.1121 Q2493.47 26.1121 2497.48 30.9732 Q2501.49 35.7938 2501.49 45.1919 Z" fill="#000000" fill-rule="nonzero" fill-opacity="1" /><path clip-path="url(#clip790)" d="M2546.21 34.0924 L2546.21 9.54393 L2553.66 9.54393 L2553.66 72.576 L2546.21 72.576 L2546.21 65.7705 Q2543.86 69.8214 2540.25 71.8063 Q2536.69 73.7508 2531.67 73.7508 Q2523.44 73.7508 2518.26 67.1883 Q2513.11 60.6258 2513.11 49.9314 Q2513.11 39.2371 2518.26 32.6746 Q2523.44 26.1121 2531.67 26.1121 Q2536.69 26.1121 2540.25 28.0971 Q2543.86 30.0415 2546.21 34.0924 M2520.81 49.9314 Q2520.81 58.1548 2524.17 62.8538 Q2527.57 67.5124 2533.49 67.5124 Q2539.4 67.5124 2542.81 62.8538 Q2546.21 58.1548 2546.21 49.9314 Q2546.21 41.7081 2542.81 37.0496 Q2539.4 32.3505 2533.49 32.3505 Q2527.57 32.3505 2524.17 37.0496 Q2520.81 41.7081 2520.81 49.9314 Z" fill="#000000" fill-rule="nonzero" fill-opacity="1" /><path clip-path="url(#clip790)" d="M2568.25 54.671 L2568.25 27.2059 L2575.7 27.2059 L2575.7 54.3874 Q2575.7 60.8284 2578.21 64.0691 Q2580.72 67.2693 2585.75 67.2693 Q2591.78 67.2693 2595.26 63.421 Q2598.79 59.5726 2598.79 52.9291 L2598.79 27.2059 L2606.24 27.2059 L2606.24 72.576 L2598.79 72.576 L2598.79 65.6084 Q2596.08 69.7404 2592.47 71.7658 Q2588.9 73.7508 2584.17 73.7508 Q2576.35 73.7508 2572.3 68.8897 Q2568.25 64.0286 2568.25 54.671 M2587 26.1121 L2587 26.1121 Z" fill="#000000" fill-rule="nonzero" fill-opacity="1" /><path clip-path="url(#clip790)" d="M2654.25 28.9478 L2654.25 35.9153 Q2651.09 34.1734 2647.89 33.3227 Q2644.73 32.4315 2641.49 32.4315 Q2634.23 32.4315 2630.22 37.0496 Q2626.21 41.6271 2626.21 49.9314 Q2626.21 58.2358 2630.22 62.8538 Q2634.23 67.4314 2641.49 67.4314 Q2644.73 67.4314 2647.89 66.5807 Q2651.09 65.6895 2654.25 63.9476 L2654.25 70.8341 Q2651.13 72.2924 2647.76 73.0216 Q2644.44 73.7508 2640.68 73.7508 Q2630.43 73.7508 2624.39 67.3098 Q2618.36 60.8689 2618.36 49.9314 Q2618.36 38.832 2624.43 32.472 Q2630.55 26.1121 2641.16 26.1121 Q2644.6 26.1121 2647.89 26.8413 Q2651.17 27.5299 2654.25 28.9478 Z" fill="#000000" fill-rule="nonzero" fill-opacity="1" /><path clip-path="url(#clip790)" d="M2674.58 14.324 L2674.58 27.2059 L2689.93 27.2059 L2689.93 32.9987 L2674.58 32.9987 L2674.58 57.6282 Q2674.58 63.1779 2676.08 64.7578 Q2677.62 66.3376 2682.28 66.3376 L2689.93 66.3376 L2689.93 72.576 L2682.28 72.576 Q2673.65 72.576 2670.37 69.3758 Q2667.09 66.1351 2667.09 57.6282 L2667.09 32.9987 L2661.62 32.9987 L2661.62 27.2059 L2667.09 27.2059 L2667.09 14.324 L2674.58 14.324 Z" fill="#000000" fill-rule="nonzero" fill-opacity="1" /><path clip-path="url(#clip790)" d="M2699.74 27.2059 L2707.19 27.2059 L2707.19 72.576 L2699.74 72.576 L2699.74 27.2059 M2699.74 9.54393 L2707.19 9.54393 L2707.19 18.9825 L2699.74 18.9825 L2699.74 9.54393 Z" fill="#000000" fill-rule="nonzero" fill-opacity="1" /><path clip-path="url(#clip790)" d="M2717.44 27.2059 L2725.34 27.2059 L2739.52 65.2844 L2753.7 27.2059 L2761.6 27.2059 L2744.58 72.576 L2734.45 72.576 L2717.44 27.2059 Z" fill="#000000" fill-rule="nonzero" fill-opacity="1" /><path clip-path="url(#clip790)" d="M2810.69 48.0275 L2810.69 51.6733 L2776.42 51.6733 Q2776.91 59.3701 2781.04 63.421 Q2785.21 67.4314 2792.62 67.4314 Q2796.92 67.4314 2800.93 66.3781 Q2804.98 65.3249 2808.95 63.2184 L2808.95 70.267 Q2804.94 71.9684 2800.73 72.8596 Q2796.51 73.7508 2792.18 73.7508 Q2781.32 73.7508 2774.96 67.4314 Q2768.64 61.1119 2768.64 50.3365 Q2768.64 39.1965 2774.64 32.6746 Q2780.67 26.1121 2790.88 26.1121 Q2800.04 26.1121 2805.34 32.0264 Q2810.69 37.9003 2810.69 48.0275 M2803.24 45.84 Q2803.16 39.7232 2799.8 36.0774 Q2796.47 32.4315 2790.96 32.4315 Q2784.73 32.4315 2780.96 35.9558 Q2777.23 39.4801 2776.66 45.8805 L2803.24 45.84 Z" fill="#000000" fill-rule="nonzero" fill-opacity="1" /><path clip-path="url(#clip793)" d="M1855.52 125.694 L1855.52 1081.75 L3077.25 1081.75 L3077.25 125.694 L1855.52 125.694 L1855.52 125.694  Z" fill="#e69f00" fill-rule="evenodd" fill-opacity="1"/>
<polyline clip-path="url(#clip793)" style="stroke:#000000; stroke-linecap:round; stroke-linejoin:round; stroke-width:4; stroke-opacity:1; fill:none" points="1855.52,125.694 1855.52,1081.75 3077.25,1081.75 3077.25,125.694 1855.52,125.694 "/>
<circle clip-path="url(#clip793)" style="fill:#e69f00; stroke:none; fill-opacity:0" cx="2466.39" cy="125.694" r="2"/>
</svg>
