<?xml version="1.0" encoding="utf-8"?>
<svg xmlns="http://www.w3.org/2000/svg" xmlns:xlink="http://www.w3.org/1999/xlink" width="600" height="400" viewBox="0 0 2400 1600">
<defs>
  <clipPath id="clip900">
    <rect x="0" y="0" width="2400" height="1600"/>
  </clipPath>
</defs>
<path clip-path="url(#clip900)" d="
M0 1600 L2400 1600 L2400 0 L0 0  Z
  " fill="#ffffff" fill-rule="evenodd" fill-opacity="1"/>
<defs>
  <clipPath id="clip901">
    <rect x="480" y="0" width="1681" height="1600"/>
  </clipPath>
</defs>
<path clip-path="url(#clip900)" d="
M194.422 686.448 L1152.76 686.448 L1152.76 123.472 L194.422 123.472  Z
  " fill="#ffffff" fill-rule="evenodd" fill-opacity="1"/>
<defs>
  <clipPath id="clip902">
    <rect x="194" y="123" width="959" height="564"/>
  </clipPath>
</defs>
<polyline clip-path="url(#clip902)" style="stroke:#000000; stroke-linecap:round; stroke-linejoin:round; stroke-width:2; stroke-opacity:0.1; fill:none" points="
  321.999,686.448 321.999,123.472 
  "/>
<polyline clip-path="url(#clip902)" style="stroke:#000000; stroke-linecap:round; stroke-linejoin:round; stroke-width:2; stroke-opacity:0.1; fill:none" points="
  522.908,686.448 522.908,123.472 
  "/>
<polyline clip-path="url(#clip902)" style="stroke:#000000; stroke-linecap:round; stroke-linejoin:round; stroke-width:2; stroke-opacity:0.1; fill:none" points="
  723.816,686.448 723.816,123.472 
  "/>
<polyline clip-path="url(#clip902)" style="stroke:#000000; stroke-linecap:round; stroke-linejoin:round; stroke-width:2; stroke-opacity:0.1; fill:none" points="
  924.725,686.448 924.725,123.472 
  "/>
<polyline clip-path="url(#clip902)" style="stroke:#000000; stroke-linecap:round; stroke-linejoin:round; stroke-width:2; stroke-opacity:0.1; fill:none" points="
  1125.63,686.448 1125.63,123.472 
  "/>
<polyline clip-path="url(#clip900)" style="stroke:#000000; stroke-linecap:round; stroke-linejoin:round; stroke-width:4; stroke-opacity:1; fill:none" points="
  194.422,686.448 1152.76,686.448 
  "/>
<polyline clip-path="url(#clip900)" style="stroke:#000000; stroke-linecap:round; stroke-linejoin:round; stroke-width:4; stroke-opacity:1; fill:none" points="
  321.999,686.448 321.999,667.55 
  "/>
<polyline clip-path="url(#clip900)" style="stroke:#000000; stroke-linecap:round; stroke-linejoin:round; stroke-width:4; stroke-opacity:1; fill:none" points="
  522.908,686.448 522.908,667.55 
  "/>
<polyline clip-path="url(#clip900)" style="stroke:#000000; stroke-linecap:round; stroke-linejoin:round; stroke-width:4; stroke-opacity:1; fill:none" points="
  723.816,686.448 723.816,667.55 
  "/>
<polyline clip-path="url(#clip900)" style="stroke:#000000; stroke-linecap:round; stroke-linejoin:round; stroke-width:4; stroke-opacity:1; fill:none" points="
  924.725,686.448 924.725,667.55 
  "/>
<polyline clip-path="url(#clip900)" style="stroke:#000000; stroke-linecap:round; stroke-linejoin:round; stroke-width:4; stroke-opacity:1; fill:none" points="
  1125.63,686.448 1125.63,667.55 
  "/>
<path clip-path="url(#clip900)" d="M316.652 744.913 L332.971 744.913 L332.971 748.848 L311.027 748.848 L311.027 744.913 Q313.689 742.158 318.272 737.528 Q322.879 732.876 324.059 731.533 Q326.305 729.01 327.184 727.274 Q328.087 725.515 328.087 723.825 Q328.087 721.07 326.143 719.334 Q324.221 717.598 321.119 717.598 Q318.92 717.598 316.467 718.362 Q314.036 719.126 311.258 720.677 L311.258 715.955 Q314.082 714.82 316.536 714.242 Q318.99 713.663 321.027 713.663 Q326.397 713.663 329.592 716.348 Q332.786 719.033 332.786 723.524 Q332.786 725.654 331.976 727.575 Q331.189 729.473 329.082 732.066 Q328.504 732.737 325.402 735.954 Q322.3 739.149 316.652 744.913 Z" fill="#000000" fill-rule="evenodd" fill-opacity="1" /><path clip-path="url(#clip900)" d="M525.917 718.362 L514.111 736.811 L525.917 736.811 L525.917 718.362 M524.69 714.288 L530.57 714.288 L530.57 736.811 L535.5 736.811 L535.5 740.7 L530.57 740.7 L530.57 748.848 L525.917 748.848 L525.917 740.7 L510.315 740.7 L510.315 736.186 L524.69 714.288 Z" fill="#000000" fill-rule="evenodd" fill-opacity="1" /><path clip-path="url(#clip900)" d="M724.221 729.704 Q721.073 729.704 719.221 731.857 Q717.393 734.01 717.393 737.76 Q717.393 741.487 719.221 743.663 Q721.073 745.815 724.221 745.815 Q727.369 745.815 729.198 743.663 Q731.05 741.487 731.05 737.76 Q731.05 734.01 729.198 731.857 Q727.369 729.704 724.221 729.704 M733.504 715.052 L733.504 719.311 Q731.744 718.478 729.939 718.038 Q728.156 717.598 726.397 717.598 Q721.768 717.598 719.314 720.723 Q716.883 723.848 716.536 730.167 Q717.902 728.154 719.962 727.089 Q722.022 726.001 724.499 726.001 Q729.707 726.001 732.717 729.172 Q735.749 732.32 735.749 737.76 Q735.749 743.084 732.601 746.302 Q729.453 749.519 724.221 749.519 Q718.226 749.519 715.055 744.936 Q711.883 740.329 711.883 731.603 Q711.883 723.408 715.772 718.547 Q719.661 713.663 726.212 713.663 Q727.971 713.663 729.754 714.01 Q731.559 714.357 733.504 715.052 Z" fill="#000000" fill-rule="evenodd" fill-opacity="1" /><path clip-path="url(#clip900)" d="M924.725 732.436 Q921.391 732.436 919.47 734.218 Q917.572 736.001 917.572 739.126 Q917.572 742.251 919.47 744.033 Q921.391 745.815 924.725 745.815 Q928.058 745.815 929.979 744.033 Q931.901 742.228 931.901 739.126 Q931.901 736.001 929.979 734.218 Q928.081 732.436 924.725 732.436 M920.049 730.445 Q917.04 729.704 915.35 727.644 Q913.683 725.584 913.683 722.621 Q913.683 718.478 916.623 716.07 Q919.586 713.663 924.725 713.663 Q929.887 713.663 932.827 716.07 Q935.766 718.478 935.766 722.621 Q935.766 725.584 934.076 727.644 Q932.41 729.704 929.424 730.445 Q932.803 731.232 934.678 733.524 Q936.576 735.816 936.576 739.126 Q936.576 744.149 933.498 746.834 Q930.442 749.519 924.725 749.519 Q919.007 749.519 915.928 746.834 Q912.873 744.149 912.873 739.126 Q912.873 735.816 914.771 733.524 Q916.669 731.232 920.049 730.445 M918.336 723.061 Q918.336 725.746 920.003 727.251 Q921.692 728.755 924.725 728.755 Q927.734 728.755 929.424 727.251 Q931.137 725.746 931.137 723.061 Q931.137 720.376 929.424 718.871 Q927.734 717.367 924.725 717.367 Q921.692 717.367 920.003 718.871 Q918.336 720.376 918.336 723.061 Z" fill="#000000" fill-rule="evenodd" fill-opacity="1" /><path clip-path="url(#clip900)" d="M1100.32 744.913 L1107.96 744.913 L1107.96 718.547 L1099.65 720.214 L1099.65 715.955 L1107.91 714.288 L1112.59 714.288 L1112.59 744.913 L1120.23 744.913 L1120.23 748.848 L1100.32 748.848 L1100.32 744.913 Z" fill="#000000" fill-rule="evenodd" fill-opacity="1" /><path clip-path="url(#clip900)" d="M1139.67 717.367 Q1136.06 717.367 1134.23 720.931 Q1132.43 724.473 1132.43 731.603 Q1132.43 738.709 1134.23 742.274 Q1136.06 745.815 1139.67 745.815 Q1143.31 745.815 1145.11 742.274 Q1146.94 738.709 1146.94 731.603 Q1146.94 724.473 1145.11 720.931 Q1143.31 717.367 1139.67 717.367 M1139.67 713.663 Q1145.48 713.663 1148.54 718.269 Q1151.62 722.853 1151.62 731.603 Q1151.62 740.329 1148.54 744.936 Q1145.48 749.519 1139.67 749.519 Q1133.86 749.519 1130.78 744.936 Q1127.73 740.329 1127.73 731.603 Q1127.73 722.853 1130.78 718.269 Q1133.86 713.663 1139.67 713.663 Z" fill="#000000" fill-rule="evenodd" fill-opacity="1" /><polyline clip-path="url(#clip902)" style="stroke:#000000; stroke-linecap:round; stroke-linejoin:round; stroke-width:2; stroke-opacity:0.1; fill:none" points="
  194.422,593.557 1152.76,593.557 
  "/>
<polyline clip-path="url(#clip902)" style="stroke:#000000; stroke-linecap:round; stroke-linejoin:round; stroke-width:2; stroke-opacity:0.1; fill:none" points="
  194.422,472.843 1152.76,472.843 
  "/>
<polyline clip-path="url(#clip902)" style="stroke:#000000; stroke-linecap:round; stroke-linejoin:round; stroke-width:2; stroke-opacity:0.1; fill:none" points="
  194.422,352.128 1152.76,352.128 
  "/>
<polyline clip-path="url(#clip902)" style="stroke:#000000; stroke-linecap:round; stroke-linejoin:round; stroke-width:2; stroke-opacity:0.1; fill:none" points="
  194.422,231.414 1152.76,231.414 
  "/>
<polyline clip-path="url(#clip900)" style="stroke:#000000; stroke-linecap:round; stroke-linejoin:round; stroke-width:4; stroke-opacity:1; fill:none" points="
  194.422,686.448 194.422,123.472 
  "/>
<polyline clip-path="url(#clip900)" style="stroke:#000000; stroke-linecap:round; stroke-linejoin:round; stroke-width:4; stroke-opacity:1; fill:none" points="
  194.422,593.557 213.32,593.557 
  "/>
<polyline clip-path="url(#clip900)" style="stroke:#000000; stroke-linecap:round; stroke-linejoin:round; stroke-width:4; stroke-opacity:1; fill:none" points="
  194.422,472.843 213.32,472.843 
  "/>
<polyline clip-path="url(#clip900)" style="stroke:#000000; stroke-linecap:round; stroke-linejoin:round; stroke-width:4; stroke-opacity:1; fill:none" points="
  194.422,352.128 213.32,352.128 
  "/>
<polyline clip-path="url(#clip900)" style="stroke:#000000; stroke-linecap:round; stroke-linejoin:round; stroke-width:4; stroke-opacity:1; fill:none" points="
  194.422,231.414 213.32,231.414 
  "/>
<path clip-path="url(#clip900)" d="M50.9921 594.009 L80.6679 594.009 L80.6679 597.944 L50.9921 597.944 L50.9921 594.009 Z" fill="#000000" fill-rule="evenodd" fill-opacity="1" /><path clip-path="url(#clip900)" d="M100.76 579.356 Q97.1493 579.356 95.3206 582.921 Q93.515 586.462 93.515 593.592 Q93.515 600.698 95.3206 604.263 Q97.1493 607.805 100.76 607.805 Q104.395 607.805 106.2 604.263 Q108.029 600.698 108.029 593.592 Q108.029 586.462 106.2 582.921 Q104.395 579.356 100.76 579.356 M100.76 575.652 Q106.571 575.652 109.626 580.259 Q112.705 584.842 112.705 593.592 Q112.705 602.319 109.626 606.925 Q106.571 611.509 100.76 611.509 Q94.9502 611.509 91.8715 606.925 Q88.816 602.319 88.816 593.592 Q88.816 584.842 91.8715 580.259 Q94.9502 575.652 100.76 575.652 Z" fill="#000000" fill-rule="evenodd" fill-opacity="1" /><path clip-path="url(#clip900)" d="M120.922 604.958 L125.807 604.958 L125.807 610.837 L120.922 610.837 L120.922 604.958 Z" fill="#000000" fill-rule="evenodd" fill-opacity="1" /><path clip-path="url(#clip900)" d="M148.839 580.351 L137.033 598.8 L148.839 598.8 L148.839 580.351 M147.612 576.277 L153.492 576.277 L153.492 598.8 L158.422 598.8 L158.422 602.689 L153.492 602.689 L153.492 610.837 L148.839 610.837 L148.839 602.689 L133.237 602.689 L133.237 598.175 L147.612 576.277 Z" fill="#000000" fill-rule="evenodd" fill-opacity="1" /><path clip-path="url(#clip900)" d="M53.0754 473.294 L82.7512 473.294 L82.7512 477.229 L53.0754 477.229 L53.0754 473.294 Z" fill="#000000" fill-rule="evenodd" fill-opacity="1" /><path clip-path="url(#clip900)" d="M102.844 458.641 Q99.2326 458.641 97.4039 462.206 Q95.5984 465.748 95.5984 472.877 Q95.5984 479.984 97.4039 483.549 Q99.2326 487.09 102.844 487.09 Q106.478 487.09 108.283 483.549 Q110.112 479.984 110.112 472.877 Q110.112 465.748 108.283 462.206 Q106.478 458.641 102.844 458.641 M102.844 454.938 Q108.654 454.938 111.709 459.544 Q114.788 464.127 114.788 472.877 Q114.788 481.604 111.709 486.211 Q108.654 490.794 102.844 490.794 Q97.0335 490.794 93.9549 486.211 Q90.8993 481.604 90.8993 472.877 Q90.8993 464.127 93.9549 459.544 Q97.0335 454.938 102.844 454.938 Z" fill="#000000" fill-rule="evenodd" fill-opacity="1" /><path clip-path="url(#clip900)" d="M123.006 484.243 L127.89 484.243 L127.89 490.123 L123.006 490.123 L123.006 484.243 Z" fill="#000000" fill-rule="evenodd" fill-opacity="1" /><path clip-path="url(#clip900)" d="M142.103 486.188 L158.422 486.188 L158.422 490.123 L136.478 490.123 L136.478 486.188 Q139.14 483.433 143.723 478.803 Q148.33 474.151 149.51 472.808 Q151.755 470.285 152.635 468.549 Q153.538 466.79 153.538 465.1 Q153.538 462.345 151.593 460.609 Q149.672 458.873 146.57 458.873 Q144.371 458.873 141.918 459.637 Q139.487 460.401 136.709 461.952 L136.709 457.229 Q139.533 456.095 141.987 455.516 Q144.441 454.938 146.478 454.938 Q151.848 454.938 155.042 457.623 Q158.237 460.308 158.237 464.799 Q158.237 466.928 157.427 468.85 Q156.64 470.748 154.533 473.34 Q153.955 474.012 150.853 477.229 Q147.751 480.424 142.103 486.188 Z" fill="#000000" fill-rule="evenodd" fill-opacity="1" /><path clip-path="url(#clip900)" d="M101.246 337.927 Q97.6354 337.927 95.8067 341.492 Q94.0012 345.033 94.0012 352.163 Q94.0012 359.269 95.8067 362.834 Q97.6354 366.376 101.246 366.376 Q104.881 366.376 106.686 362.834 Q108.515 359.269 108.515 352.163 Q108.515 345.033 106.686 341.492 Q104.881 337.927 101.246 337.927 M101.246 334.223 Q107.057 334.223 110.112 338.83 Q113.191 343.413 113.191 352.163 Q113.191 360.89 110.112 365.496 Q107.057 370.079 101.246 370.079 Q95.4363 370.079 92.3576 365.496 Q89.3021 360.89 89.3021 352.163 Q89.3021 343.413 92.3576 338.83 Q95.4363 334.223 101.246 334.223 Z" fill="#000000" fill-rule="evenodd" fill-opacity="1" /><path clip-path="url(#clip900)" d="M121.408 363.529 L126.293 363.529 L126.293 369.408 L121.408 369.408 L121.408 363.529 Z" fill="#000000" fill-rule="evenodd" fill-opacity="1" /><path clip-path="url(#clip900)" d="M146.478 337.927 Q142.867 337.927 141.038 341.492 Q139.232 345.033 139.232 352.163 Q139.232 359.269 141.038 362.834 Q142.867 366.376 146.478 366.376 Q150.112 366.376 151.918 362.834 Q153.746 359.269 153.746 352.163 Q153.746 345.033 151.918 341.492 Q150.112 337.927 146.478 337.927 M146.478 334.223 Q152.288 334.223 155.343 338.83 Q158.422 343.413 158.422 352.163 Q158.422 360.89 155.343 365.496 Q152.288 370.079 146.478 370.079 Q140.668 370.079 137.589 365.496 Q134.533 360.89 134.533 352.163 Q134.533 343.413 137.589 338.83 Q140.668 334.223 146.478 334.223 Z" fill="#000000" fill-rule="evenodd" fill-opacity="1" /><path clip-path="url(#clip900)" d="M102.844 217.212 Q99.2326 217.212 97.4039 220.777 Q95.5984 224.319 95.5984 231.448 Q95.5984 238.555 97.4039 242.12 Q99.2326 245.661 102.844 245.661 Q106.478 245.661 108.283 242.12 Q110.112 238.555 110.112 231.448 Q110.112 224.319 108.283 220.777 Q106.478 217.212 102.844 217.212 M102.844 213.509 Q108.654 213.509 111.709 218.115 Q114.788 222.698 114.788 231.448 Q114.788 240.175 111.709 244.782 Q108.654 249.365 102.844 249.365 Q97.0335 249.365 93.9549 244.782 Q90.8993 240.175 90.8993 231.448 Q90.8993 222.698 93.9549 218.115 Q97.0335 213.509 102.844 213.509 Z" fill="#000000" fill-rule="evenodd" fill-opacity="1" /><path clip-path="url(#clip900)" d="M123.006 242.814 L127.89 242.814 L127.89 248.694 L123.006 248.694 L123.006 242.814 Z" fill="#000000" fill-rule="evenodd" fill-opacity="1" /><path clip-path="url(#clip900)" d="M142.103 244.758 L158.422 244.758 L158.422 248.694 L136.478 248.694 L136.478 244.758 Q139.14 242.004 143.723 237.374 Q148.33 232.721 149.51 231.379 Q151.755 228.856 152.635 227.12 Q153.538 225.36 153.538 223.671 Q153.538 220.916 151.593 219.18 Q149.672 217.444 146.57 217.444 Q144.371 217.444 141.918 218.208 Q139.487 218.972 136.709 220.522 L136.709 215.8 Q139.533 214.666 141.987 214.087 Q144.441 213.509 146.478 213.509 Q151.848 213.509 155.042 216.194 Q158.237 218.879 158.237 223.37 Q158.237 225.499 157.427 227.421 Q156.64 229.319 154.533 231.911 Q153.955 232.583 150.853 235.8 Q147.751 238.995 142.103 244.758 Z" fill="#000000" fill-rule="evenodd" fill-opacity="1" /><path clip-path="url(#clip900)" d="M175.672 14.0809 L175.672 22.0612 Q171.014 19.8332 166.882 18.7395 Q162.75 17.6457 158.901 17.6457 Q152.217 17.6457 148.572 20.2383 Q144.966 22.8309 144.966 27.611 Q144.966 31.6214 147.356 33.6873 Q149.787 35.7128 156.511 36.9686 L161.453 37.9813 Q170.608 39.7232 174.943 44.1387 Q179.318 48.5136 179.318 55.8863 Q179.318 64.6767 173.404 69.2137 Q167.53 73.7508 156.147 73.7508 Q151.853 73.7508 146.992 72.7785 Q142.171 71.8063 136.986 69.9024 L136.986 61.4765 Q141.969 64.2716 146.749 65.6895 Q151.529 67.1073 156.147 67.1073 Q163.155 67.1073 166.963 64.3527 Q170.771 61.598 170.771 56.4939 Q170.771 52.0379 168.016 49.5264 Q165.302 47.0148 159.063 45.759 L154.081 44.7868 Q144.926 42.9639 140.834 39.075 Q136.743 35.1862 136.743 28.2591 Q136.743 20.2383 142.374 15.6203 Q148.045 11.0023 157.97 11.0023 Q162.223 11.0023 166.639 11.7719 Q171.054 12.5416 175.672 14.0809 Z" fill="#000000" fill-rule="evenodd" fill-opacity="1" /><path clip-path="url(#clip900)" d="M191.754 27.2059 L199.208 27.2059 L199.208 72.576 L191.754 72.576 L191.754 27.2059 M191.754 9.54393 L199.208 9.54393 L199.208 18.9825 L191.754 18.9825 L191.754 9.54393 Z" fill="#000000" fill-rule="evenodd" fill-opacity="1" /><path clip-path="url(#clip900)" d="M250.128 35.9153 Q252.923 30.8922 256.812 28.5022 Q260.701 26.1121 265.967 26.1121 Q273.056 26.1121 276.904 31.0947 Q280.753 36.0368 280.753 45.1919 L280.753 72.576 L273.258 72.576 L273.258 45.4349 Q273.258 38.913 270.949 35.7533 Q268.64 32.5936 263.901 32.5936 Q258.108 32.5936 254.746 36.4419 Q251.384 40.2903 251.384 46.9338 L251.384 72.576 L243.889 72.576 L243.889 45.4349 Q243.889 38.8725 241.58 35.7533 Q239.271 32.5936 234.451 32.5936 Q228.739 32.5936 225.377 36.4824 Q222.014 40.3308 222.014 46.9338 L222.014 72.576 L214.52 72.576 L214.52 27.2059 L222.014 27.2059 L222.014 34.2544 Q224.567 30.082 228.131 28.0971 Q231.696 26.1121 236.598 26.1121 Q241.54 26.1121 244.983 28.6237 Q248.467 31.1352 250.128 35.9153 Z" fill="#000000" fill-rule="evenodd" fill-opacity="1" /><path clip-path="url(#clip900)" d="M302.83 65.7705 L302.83 89.8329 L295.336 89.8329 L295.336 27.2059 L302.83 27.2059 L302.83 34.0924 Q305.18 30.0415 308.744 28.0971 Q312.35 26.1121 317.332 26.1121 Q325.596 26.1121 330.741 32.6746 Q335.926 39.2371 335.926 49.9314 Q335.926 60.6258 330.741 67.1883 Q325.596 73.7508 317.332 73.7508 Q312.35 73.7508 308.744 71.8063 Q305.18 69.8214 302.83 65.7705 M328.189 49.9314 Q328.189 41.7081 324.786 37.0496 Q321.424 32.3505 315.509 32.3505 Q309.595 32.3505 306.192 37.0496 Q302.83 41.7081 302.83 49.9314 Q302.83 58.1548 306.192 62.8538 Q309.595 67.5124 315.509 67.5124 Q321.424 67.5124 324.786 62.8538 Q328.189 58.1548 328.189 49.9314 Z" fill="#000000" fill-rule="evenodd" fill-opacity="1" /><path clip-path="url(#clip900)" d="M348.281 9.54393 L355.735 9.54393 L355.735 72.576 L348.281 72.576 L348.281 9.54393 Z" fill="#000000" fill-rule="evenodd" fill-opacity="1" /><path clip-path="url(#clip900)" d="M410.138 48.0275 L410.138 51.6733 L375.868 51.6733 Q376.354 59.3701 380.486 63.421 Q384.658 67.4314 392.071 67.4314 Q396.365 67.4314 400.376 66.3781 Q404.427 65.3249 408.397 63.2184 L408.397 70.267 Q404.386 71.9684 400.173 72.8596 Q395.96 73.7508 391.626 73.7508 Q380.769 73.7508 374.409 67.4314 Q368.09 61.1119 368.09 50.3365 Q368.09 39.1965 374.085 32.6746 Q380.121 26.1121 390.33 26.1121 Q399.485 26.1121 404.791 32.0264 Q410.138 37.9003 410.138 48.0275 M402.685 45.84 Q402.604 39.7232 399.242 36.0774 Q395.92 32.4315 390.411 32.4315 Q384.172 32.4315 380.405 35.9558 Q376.678 39.4801 376.111 45.8805 L402.685 45.84 Z" fill="#000000" fill-rule="evenodd" fill-opacity="1" /><path clip-path="url(#clip900)" d="M422.696 12.096 L430.879 12.096 L430.879 72.576 L422.696 72.576 L422.696 12.096 Z" fill="#000000" fill-rule="evenodd" fill-opacity="1" /><path clip-path="url(#clip900)" d="M484.554 45.1919 L484.554 72.576 L477.1 72.576 L477.1 45.4349 Q477.1 38.994 474.588 35.7938 Q472.077 32.5936 467.054 32.5936 Q461.018 32.5936 457.534 36.4419 Q454.05 40.2903 454.05 46.9338 L454.05 72.576 L446.556 72.576 L446.556 27.2059 L454.05 27.2059 L454.05 34.2544 Q456.724 30.163 460.329 28.1376 Q463.975 26.1121 468.715 26.1121 Q476.533 26.1121 480.543 30.9732 Q484.554 35.7938 484.554 45.1919 Z" fill="#000000" fill-rule="evenodd" fill-opacity="1" /><path clip-path="url(#clip900)" d="M529.276 34.0924 L529.276 9.54393 L536.729 9.54393 L536.729 72.576 L529.276 72.576 L529.276 65.7705 Q526.926 69.8214 523.321 71.8063 Q519.756 73.7508 514.733 73.7508 Q506.509 73.7508 501.324 67.1883 Q496.18 60.6258 496.18 49.9314 Q496.18 39.2371 501.324 32.6746 Q506.509 26.1121 514.733 26.1121 Q519.756 26.1121 523.321 28.0971 Q526.926 30.0415 529.276 34.0924 M503.876 49.9314 Q503.876 58.1548 507.239 62.8538 Q510.641 67.5124 516.556 67.5124 Q522.47 67.5124 525.873 62.8538 Q529.276 58.1548 529.276 49.9314 Q529.276 41.7081 525.873 37.0496 Q522.47 32.3505 516.556 32.3505 Q510.641 32.3505 507.239 37.0496 Q503.876 41.7081 503.876 49.9314 Z" fill="#000000" fill-rule="evenodd" fill-opacity="1" /><path clip-path="url(#clip900)" d="M551.312 54.671 L551.312 27.2059 L558.766 27.2059 L558.766 54.3874 Q558.766 60.8284 561.278 64.0691 Q563.789 67.2693 568.812 67.2693 Q574.848 67.2693 578.332 63.421 Q581.856 59.5726 581.856 52.9291 L581.856 27.2059 L589.31 27.2059 L589.31 72.576 L581.856 72.576 L581.856 65.6084 Q579.142 69.7404 575.537 71.7658 Q571.972 73.7508 567.233 73.7508 Q559.414 73.7508 555.363 68.8897 Q551.312 64.0286 551.312 54.671 M570.068 26.1121 L570.068 26.1121 Z" fill="#000000" fill-rule="evenodd" fill-opacity="1" /><path clip-path="url(#clip900)" d="M637.313 28.9478 L637.313 35.9153 Q634.153 34.1734 630.953 33.3227 Q627.794 32.4315 624.553 32.4315 Q617.302 32.4315 613.291 37.0496 Q609.281 41.6271 609.281 49.9314 Q609.281 58.2358 613.291 62.8538 Q617.302 67.4314 624.553 67.4314 Q627.794 67.4314 630.953 66.5807 Q634.153 65.6895 637.313 63.9476 L637.313 70.8341 Q634.194 72.2924 630.832 73.0216 Q627.51 73.7508 623.743 73.7508 Q613.494 73.7508 607.458 67.3098 Q601.422 60.8689 601.422 49.9314 Q601.422 38.832 607.499 32.472 Q613.615 26.1121 624.229 26.1121 Q627.672 26.1121 630.953 26.8413 Q634.234 27.5299 637.313 28.9478 Z" fill="#000000" fill-rule="evenodd" fill-opacity="1" /><path clip-path="url(#clip900)" d="M657.649 14.324 L657.649 27.2059 L673.002 27.2059 L673.002 32.9987 L657.649 32.9987 L657.649 57.6282 Q657.649 63.1779 659.148 64.7578 Q660.687 66.3376 665.345 66.3376 L673.002 66.3376 L673.002 72.576 L665.345 72.576 Q656.717 72.576 653.436 69.3758 Q650.155 66.1351 650.155 57.6282 L650.155 32.9987 L644.686 32.9987 L644.686 27.2059 L650.155 27.2059 L650.155 14.324 L657.649 14.324 Z" fill="#000000" fill-rule="evenodd" fill-opacity="1" /><path clip-path="url(#clip900)" d="M682.805 27.2059 L690.258 27.2059 L690.258 72.576 L682.805 72.576 L682.805 27.2059 M682.805 9.54393 L690.258 9.54393 L690.258 18.9825 L682.805 18.9825 L682.805 9.54393 Z" fill="#000000" fill-rule="evenodd" fill-opacity="1" /><path clip-path="url(#clip900)" d="M700.507 27.2059 L708.407 27.2059 L722.585 65.2844 L736.763 27.2059 L744.662 27.2059 L727.648 72.576 L717.521 72.576 L700.507 27.2059 Z" fill="#000000" fill-rule="evenodd" fill-opacity="1" /><path clip-path="url(#clip900)" d="M793.759 48.0275 L793.759 51.6733 L759.488 51.6733 Q759.975 59.3701 764.106 63.421 Q768.279 67.4314 775.692 67.4314 Q779.986 67.4314 783.996 66.3781 Q788.047 65.3249 792.017 63.2184 L792.017 70.267 Q788.007 71.9684 783.794 72.8596 Q779.581 73.7508 775.246 73.7508 Q764.39 73.7508 758.03 67.4314 Q751.711 61.1119 751.711 50.3365 Q751.711 39.1965 757.706 32.6746 Q763.742 26.1121 773.95 26.1121 Q783.105 26.1121 788.412 32.0264 Q793.759 37.9003 793.759 48.0275 M786.305 45.84 Q786.224 39.7232 782.862 36.0774 Q779.54 32.4315 774.031 32.4315 Q767.793 32.4315 764.025 35.9558 Q760.299 39.4801 759.731 45.8805 L786.305 45.84 Z" fill="#000000" fill-rule="evenodd" fill-opacity="1" /><path clip-path="url(#clip900)" d="M834.997 44.2197 Q837.63 45.1109 840.101 48.0275 Q842.613 50.9442 845.125 56.0483 L853.429 72.576 L844.638 72.576 L836.901 57.061 Q833.904 50.9847 831.068 48.9997 Q828.273 47.0148 823.412 47.0148 L814.5 47.0148 L814.5 72.576 L806.317 72.576 L806.317 12.096 L824.789 12.096 Q835.159 12.096 840.263 16.4305 Q845.368 20.7649 845.368 29.5149 Q845.368 35.2267 842.694 38.994 Q840.061 42.7613 834.997 44.2197 M814.5 18.8205 L814.5 40.2903 L824.789 40.2903 Q830.703 40.2903 833.701 37.5762 Q836.739 34.8216 836.739 29.5149 Q836.739 24.2082 833.701 21.5346 Q830.703 18.8205 824.789 18.8205 L814.5 18.8205 Z" fill="#000000" fill-rule="evenodd" fill-opacity="1" /><path clip-path="url(#clip900)" d="M898.718 48.0275 L898.718 51.6733 L864.447 51.6733 Q864.933 59.3701 869.065 63.421 Q873.238 67.4314 880.651 67.4314 Q884.945 67.4314 888.955 66.3781 Q893.006 65.3249 896.976 63.2184 L896.976 70.267 Q892.966 71.9684 888.753 72.8596 Q884.54 73.7508 880.205 73.7508 Q869.349 73.7508 862.989 67.4314 Q856.67 61.1119 856.67 50.3365 Q856.67 39.1965 862.665 32.6746 Q868.701 26.1121 878.909 26.1121 Q888.064 26.1121 893.371 32.0264 Q898.718 37.9003 898.718 48.0275 M891.264 45.84 Q891.183 39.7232 887.821 36.0774 Q884.499 32.4315 878.99 32.4315 Q872.752 32.4315 868.984 35.9558 Q865.258 39.4801 864.69 45.8805 L891.264 45.84 Z" fill="#000000" fill-rule="evenodd" fill-opacity="1" /><path clip-path="url(#clip900)" d="M940.807 49.3643 Q940.807 41.2625 937.445 36.8065 Q934.123 32.3505 928.087 32.3505 Q922.092 32.3505 918.729 36.8065 Q915.408 41.2625 915.408 49.3643 Q915.408 57.4256 918.729 61.8816 Q922.092 66.3376 928.087 66.3376 Q934.123 66.3376 937.445 61.8816 Q940.807 57.4256 940.807 49.3643 M948.261 66.9452 Q948.261 78.5308 943.116 84.1616 Q937.971 89.8329 927.358 89.8329 Q923.429 89.8329 919.945 89.2252 Q916.461 88.6581 913.18 87.4428 L913.18 80.1917 Q916.461 81.9741 919.661 82.8248 Q922.861 83.6755 926.183 83.6755 Q933.515 83.6755 937.161 79.8271 Q940.807 76.0193 940.807 68.282 L940.807 64.5957 Q938.498 68.6061 934.893 70.5911 Q931.287 72.576 926.264 72.576 Q917.919 72.576 912.815 66.2161 Q907.711 59.8562 907.711 49.3643 Q907.711 38.832 912.815 32.472 Q917.919 26.1121 926.264 26.1121 Q931.287 26.1121 934.893 28.0971 Q938.498 30.082 940.807 34.0924 L940.807 27.2059 L948.261 27.2059 L948.261 66.9452 Z" fill="#000000" fill-rule="evenodd" fill-opacity="1" /><path clip-path="url(#clip900)" d="M989.904 34.1734 Q988.648 33.4443 987.149 33.1202 Q985.691 32.7556 983.909 32.7556 Q977.589 32.7556 974.186 36.8875 Q970.824 40.9789 970.824 48.6757 L970.824 72.576 L963.33 72.576 L963.33 27.2059 L970.824 27.2059 L970.824 34.2544 Q973.174 30.1225 976.941 28.1376 Q980.708 26.1121 986.096 26.1121 Q986.866 26.1121 987.797 26.2337 Q988.729 26.3147 989.863 26.5172 L989.904 34.1734 Z" fill="#000000" fill-rule="evenodd" fill-opacity="1" /><path clip-path="url(#clip900)" d="M1034.71 48.0275 L1034.71 51.6733 L1000.44 51.6733 Q1000.92 59.3701 1005.05 63.421 Q1009.23 67.4314 1016.64 67.4314 Q1020.93 67.4314 1024.94 66.3781 Q1029 65.3249 1032.96 63.2184 L1032.96 70.267 Q1028.95 71.9684 1024.74 72.8596 Q1020.53 73.7508 1016.19 73.7508 Q1005.34 73.7508 998.978 67.4314 Q992.658 61.1119 992.658 50.3365 Q992.658 39.1965 998.654 32.6746 Q1004.69 26.1121 1014.9 26.1121 Q1024.05 26.1121 1029.36 32.0264 Q1034.71 37.9003 1034.71 48.0275 M1027.25 45.84 Q1027.17 39.7232 1023.81 36.0774 Q1020.49 32.4315 1014.98 32.4315 Q1008.74 32.4315 1004.97 35.9558 Q1001.25 39.4801 1000.68 45.8805 L1027.25 45.84 Z" fill="#000000" fill-rule="evenodd" fill-opacity="1" /><path clip-path="url(#clip900)" d="M1075.86 28.5427 L1075.86 35.5912 Q1072.7 33.9709 1069.3 33.1607 Q1065.9 32.3505 1062.25 32.3505 Q1056.7 32.3505 1053.91 34.0519 Q1051.15 35.7533 1051.15 39.156 Q1051.15 41.7486 1053.14 43.2475 Q1055.12 44.7058 1061.12 46.0426 L1063.67 46.6097 Q1071.61 48.3111 1074.93 51.4303 Q1078.29 54.509 1078.29 60.0587 Q1078.29 66.3781 1073.27 70.0644 Q1068.29 73.7508 1059.54 73.7508 Q1055.89 73.7508 1051.92 73.0216 Q1047.99 72.3329 1043.62 70.9151 L1043.62 63.2184 Q1047.75 65.3654 1051.76 66.4591 Q1055.77 67.5124 1059.7 67.5124 Q1064.97 67.5124 1067.8 65.73 Q1070.64 63.9071 1070.64 60.6258 Q1070.64 57.5877 1068.57 55.9673 Q1066.55 54.3469 1059.62 52.8481 L1057.03 52.2405 Q1050.1 50.7821 1047.02 47.7845 Q1043.94 44.7463 1043.94 39.4801 Q1043.94 33.0797 1048.48 29.5959 Q1053.02 26.1121 1061.36 26.1121 Q1065.49 26.1121 1069.14 26.7198 Q1072.79 27.3274 1075.86 28.5427 Z" fill="#000000" fill-rule="evenodd" fill-opacity="1" /><path clip-path="url(#clip900)" d="M1119.09 28.5427 L1119.09 35.5912 Q1115.93 33.9709 1112.52 33.1607 Q1109.12 32.3505 1105.48 32.3505 Q1099.93 32.3505 1097.13 34.0519 Q1094.38 35.7533 1094.38 39.156 Q1094.38 41.7486 1096.36 43.2475 Q1098.35 44.7058 1104.34 46.0426 L1106.89 46.6097 Q1114.83 48.3111 1118.16 51.4303 Q1121.52 54.509 1121.52 60.0587 Q1121.52 66.3781 1116.49 70.0644 Q1111.51 73.7508 1102.76 73.7508 Q1099.12 73.7508 1095.15 73.0216 Q1091.22 72.3329 1086.84 70.9151 L1086.84 63.2184 Q1090.97 65.3654 1094.98 66.4591 Q1098.99 67.5124 1102.92 67.5124 Q1108.19 67.5124 1111.03 65.73 Q1113.86 63.9071 1113.86 60.6258 Q1113.86 57.5877 1111.8 55.9673 Q1109.77 54.3469 1102.84 52.8481 L1100.25 52.2405 Q1093.32 50.7821 1090.24 47.7845 Q1087.17 44.7463 1087.17 39.4801 Q1087.17 33.0797 1091.7 29.5959 Q1096.24 26.1121 1104.58 26.1121 Q1108.72 26.1121 1112.36 26.7198 Q1116.01 27.3274 1119.09 28.5427 Z" fill="#000000" fill-rule="evenodd" fill-opacity="1" /><path clip-path="url(#clip900)" d="M1150.97 32.4315 Q1144.97 32.4315 1141.49 37.1306 Q1138 41.7891 1138 49.9314 Q1138 58.0738 1141.45 62.7728 Q1144.93 67.4314 1150.97 67.4314 Q1156.92 67.4314 1160.41 62.7323 Q1163.89 58.0333 1163.89 49.9314 Q1163.89 41.8701 1160.41 37.1711 Q1156.92 32.4315 1150.97 32.4315 M1150.97 26.1121 Q1160.69 26.1121 1166.24 32.4315 Q1171.79 38.7509 1171.79 49.9314 Q1171.79 61.0714 1166.24 67.4314 Q1160.69 73.7508 1150.97 73.7508 Q1141.21 73.7508 1135.66 67.4314 Q1130.15 61.0714 1130.15 49.9314 Q1130.15 38.7509 1135.66 32.4315 Q1141.21 26.1121 1150.97 26.1121 Z" fill="#000000" fill-rule="evenodd" fill-opacity="1" /><path clip-path="url(#clip900)" d="M1210.44 34.1734 Q1209.18 33.4443 1207.68 33.1202 Q1206.22 32.7556 1204.44 32.7556 Q1198.12 32.7556 1194.72 36.8875 Q1191.36 40.9789 1191.36 48.6757 L1191.36 72.576 L1183.86 72.576 L1183.86 27.2059 L1191.36 27.2059 L1191.36 34.2544 Q1193.7 30.1225 1197.47 28.1376 Q1201.24 26.1121 1206.63 26.1121 Q1207.4 26.1121 1208.33 26.2337 Q1209.26 26.3147 1210.39 26.5172 L1210.44 34.1734 Z" fill="#000000" fill-rule="evenodd" fill-opacity="1" /><polyline clip-path="url(#clip902)" style="stroke:#ffa500; stroke-linecap:round; stroke-linejoin:round; stroke-width:4; stroke-opacity:1; fill:none" points="
  221.545,545.497 321.999,448.161 422.453,495.929 522.908,589.538 623.362,526.728 723.816,448.161 824.27,625.816 924.725,589.538 1025.18,670.515 1125.63,625.816 
  
  "/>
<polyline clip-path="url(#clip902)" style="stroke:#ffa500; stroke-linecap:round; stroke-linejoin:round; stroke-width:4; stroke-opacity:1; fill:none" points="
  221.545,236.741 321.999,139.405 422.453,187.173 522.908,280.782 623.362,217.972 723.816,139.405 824.27,317.06 924.725,280.782 1025.18,361.759 1125.63,317.06 
  
  "/>
<path clip-path="url(#clip900)" d="
M1394.42 686.448 L2352.76 686.448 L2352.76 123.472 L1394.42 123.472  Z
  " fill="#ffffff" fill-rule="evenodd" fill-opacity="1"/>
<defs>
  <clipPath id="clip903">
    <rect x="1394" y="123" width="959" height="564"/>
  </clipPath>
</defs>
<polyline clip-path="url(#clip903)" style="stroke:#000000; stroke-linecap:round; stroke-linejoin:round; stroke-width:2; stroke-opacity:0.1; fill:none" points="
  1522,686.448 1522,123.472 
  "/>
<polyline clip-path="url(#clip903)" style="stroke:#000000; stroke-linecap:round; stroke-linejoin:round; stroke-width:2; stroke-opacity:0.1; fill:none" points="
  1722.91,686.448 1722.91,123.472 
  "/>
<polyline clip-path="url(#clip903)" style="stroke:#000000; stroke-linecap:round; stroke-linejoin:round; stroke-width:2; stroke-opacity:0.1; fill:none" points="
  1923.82,686.448 1923.82,123.472 
  "/>
<polyline clip-path="url(#clip903)" style="stroke:#000000; stroke-linecap:round; stroke-linejoin:round; stroke-width:2; stroke-opacity:0.1; fill:none" points="
  2124.72,686.448 2124.72,123.472 
  "/>
<polyline clip-path="url(#clip903)" style="stroke:#000000; stroke-linecap:round; stroke-linejoin:round; stroke-width:2; stroke-opacity:0.1; fill:none" points="
  2325.63,686.448 2325.63,123.472 
  "/>
<polyline clip-path="url(#clip900)" style="stroke:#000000; stroke-linecap:round; stroke-linejoin:round; stroke-width:4; stroke-opacity:1; fill:none" points="
  1394.42,686.448 2352.76,686.448 
  "/>
<polyline clip-path="url(#clip900)" style="stroke:#000000; stroke-linecap:round; stroke-linejoin:round; stroke-width:4; stroke-opacity:1; fill:none" points="
  1522,686.448 1522,667.55 
  "/>
<polyline clip-path="url(#clip900)" style="stroke:#000000; stroke-linecap:round; stroke-linejoin:round; stroke-width:4; stroke-opacity:1; fill:none" points="
  1722.91,686.448 1722.91,667.55 
  "/>
<polyline clip-path="url(#clip900)" style="stroke:#000000; stroke-linecap:round; stroke-linejoin:round; stroke-width:4; stroke-opacity:1; fill:none" points="
  1923.82,686.448 1923.82,667.55 
  "/>
<polyline clip-path="url(#clip900)" style="stroke:#000000; stroke-linecap:round; stroke-linejoin:round; stroke-width:4; stroke-opacity:1; fill:none" points="
  2124.72,686.448 2124.72,667.55 
  "/>
<polyline clip-path="url(#clip900)" style="stroke:#000000; stroke-linecap:round; stroke-linejoin:round; stroke-width:4; stroke-opacity:1; fill:none" points="
  2325.63,686.448 2325.63,667.55 
  "/>
<path clip-path="url(#clip900)" d="M1516.65 744.913 L1532.97 744.913 L1532.97 748.848 L1511.03 748.848 L1511.03 744.913 Q1513.69 742.158 1518.27 737.528 Q1522.88 732.876 1524.06 731.533 Q1526.3 729.01 1527.18 727.274 Q1528.09 725.515 1528.09 723.825 Q1528.09 721.07 1526.14 719.334 Q1524.22 717.598 1521.12 717.598 Q1518.92 717.598 1516.47 718.362 Q1514.04 719.126 1511.26 720.677 L1511.26 715.955 Q1514.08 714.82 1516.54 714.242 Q1518.99 713.663 1521.03 713.663 Q1526.4 713.663 1529.59 716.348 Q1532.79 719.033 1532.79 723.524 Q1532.79 725.654 1531.98 727.575 Q1531.19 729.473 1529.08 732.066 Q1528.5 732.737 1525.4 735.954 Q1522.3 739.149 1516.65 744.913 Z" fill="#000000" fill-rule="evenodd" fill-opacity="1" /><path clip-path="url(#clip900)" d="M1725.92 718.362 L1714.11 736.811 L1725.92 736.811 L1725.92 718.362 M1724.69 714.288 L1730.57 714.288 L1730.57 736.811 L1735.5 736.811 L1735.5 740.7 L1730.57 740.7 L1730.57 748.848 L1725.92 748.848 L1725.92 740.7 L1710.32 740.7 L1710.32 736.186 L1724.69 714.288 Z" fill="#000000" fill-rule="evenodd" fill-opacity="1" /><path clip-path="url(#clip900)" d="M1924.22 729.704 Q1921.07 729.704 1919.22 731.857 Q1917.39 734.01 1917.39 737.76 Q1917.39 741.487 1919.22 743.663 Q1921.07 745.815 1924.22 745.815 Q1927.37 745.815 1929.2 743.663 Q1931.05 741.487 1931.05 737.76 Q1931.05 734.01 1929.2 731.857 Q1927.37 729.704 1924.22 729.704 M1933.5 715.052 L1933.5 719.311 Q1931.74 718.478 1929.94 718.038 Q1928.16 717.598 1926.4 717.598 Q1921.77 717.598 1919.31 720.723 Q1916.88 723.848 1916.54 730.167 Q1917.9 728.154 1919.96 727.089 Q1922.02 726.001 1924.5 726.001 Q1929.71 726.001 1932.72 729.172 Q1935.75 732.32 1935.75 737.76 Q1935.75 743.084 1932.6 746.302 Q1929.45 749.519 1924.22 749.519 Q1918.23 749.519 1915.05 744.936 Q1911.88 740.329 1911.88 731.603 Q1911.88 723.408 1915.77 718.547 Q1919.66 713.663 1926.21 713.663 Q1927.97 713.663 1929.75 714.01 Q1931.56 714.357 1933.5 715.052 Z" fill="#000000" fill-rule="evenodd" fill-opacity="1" /><path clip-path="url(#clip900)" d="M2124.72 732.436 Q2121.39 732.436 2119.47 734.218 Q2117.57 736.001 2117.57 739.126 Q2117.57 742.251 2119.47 744.033 Q2121.39 745.815 2124.72 745.815 Q2128.06 745.815 2129.98 744.033 Q2131.9 742.228 2131.9 739.126 Q2131.9 736.001 2129.98 734.218 Q2128.08 732.436 2124.72 732.436 M2120.05 730.445 Q2117.04 729.704 2115.35 727.644 Q2113.68 725.584 2113.68 722.621 Q2113.68 718.478 2116.62 716.07 Q2119.59 713.663 2124.72 713.663 Q2129.89 713.663 2132.83 716.07 Q2135.77 718.478 2135.77 722.621 Q2135.77 725.584 2134.08 727.644 Q2132.41 729.704 2129.42 730.445 Q2132.8 731.232 2134.68 733.524 Q2136.58 735.816 2136.58 739.126 Q2136.58 744.149 2133.5 746.834 Q2130.44 749.519 2124.72 749.519 Q2119.01 749.519 2115.93 746.834 Q2112.87 744.149 2112.87 739.126 Q2112.87 735.816 2114.77 733.524 Q2116.67 731.232 2120.05 730.445 M2118.34 723.061 Q2118.34 725.746 2120 727.251 Q2121.69 728.755 2124.72 728.755 Q2127.73 728.755 2129.42 727.251 Q2131.14 725.746 2131.14 723.061 Q2131.14 720.376 2129.42 718.871 Q2127.73 717.367 2124.72 717.367 Q2121.69 717.367 2120 718.871 Q2118.34 720.376 2118.34 723.061 Z" fill="#000000" fill-rule="evenodd" fill-opacity="1" /><path clip-path="url(#clip900)" d="M2300.32 744.913 L2307.96 744.913 L2307.96 718.547 L2299.65 720.214 L2299.65 715.955 L2307.91 714.288 L2312.59 714.288 L2312.59 744.913 L2320.23 744.913 L2320.23 748.848 L2300.32 748.848 L2300.32 744.913 Z" fill="#000000" fill-rule="evenodd" fill-opacity="1" /><path clip-path="url(#clip900)" d="M2339.67 717.367 Q2336.06 717.367 2334.23 720.931 Q2332.43 724.473 2332.43 731.603 Q2332.43 738.709 2334.23 742.274 Q2336.06 745.815 2339.67 745.815 Q2343.31 745.815 2345.11 742.274 Q2346.94 738.709 2346.94 731.603 Q2346.94 724.473 2345.11 720.931 Q2343.31 717.367 2339.67 717.367 M2339.67 713.663 Q2345.48 713.663 2348.54 718.269 Q2351.62 722.853 2351.62 731.603 Q2351.62 740.329 2348.54 744.936 Q2345.48 749.519 2339.67 749.519 Q2333.86 749.519 2330.78 744.936 Q2327.73 740.329 2327.73 731.603 Q2327.73 722.853 2330.78 718.269 Q2333.86 713.663 2339.67 713.663 Z" fill="#000000" fill-rule="evenodd" fill-opacity="1" /><polyline clip-path="url(#clip903)" style="stroke:#000000; stroke-linecap:round; stroke-linejoin:round; stroke-width:2; stroke-opacity:0.1; fill:none" points="
  1394.42,614.256 2352.76,614.256 
  "/>
<polyline clip-path="url(#clip903)" style="stroke:#000000; stroke-linecap:round; stroke-linejoin:round; stroke-width:2; stroke-opacity:0.1; fill:none" points="
  1394.42,537.258 2352.76,537.258 
  "/>
<polyline clip-path="url(#clip903)" style="stroke:#000000; stroke-linecap:round; stroke-linejoin:round; stroke-width:2; stroke-opacity:0.1; fill:none" points="
  1394.42,460.26 2352.76,460.26 
  "/>
<polyline clip-path="url(#clip903)" style="stroke:#000000; stroke-linecap:round; stroke-linejoin:round; stroke-width:2; stroke-opacity:0.1; fill:none" points="
  1394.42,383.262 2352.76,383.262 
  "/>
<polyline clip-path="url(#clip903)" style="stroke:#000000; stroke-linecap:round; stroke-linejoin:round; stroke-width:2; stroke-opacity:0.1; fill:none" points="
  1394.42,306.264 2352.76,306.264 
  "/>
<polyline clip-path="url(#clip903)" style="stroke:#000000; stroke-linecap:round; stroke-linejoin:round; stroke-width:2; stroke-opacity:0.1; fill:none" points="
  1394.42,229.267 2352.76,229.267 
  "/>
<polyline clip-path="url(#clip903)" style="stroke:#000000; stroke-linecap:round; stroke-linejoin:round; stroke-width:2; stroke-opacity:0.1; fill:none" points="
  1394.42,152.269 2352.76,152.269 
  "/>
<polyline clip-path="url(#clip900)" style="stroke:#000000; stroke-linecap:round; stroke-linejoin:round; stroke-width:4; stroke-opacity:1; fill:none" points="
  1394.42,686.448 1394.42,123.472 
  "/>
<polyline clip-path="url(#clip900)" style="stroke:#000000; stroke-linecap:round; stroke-linejoin:round; stroke-width:4; stroke-opacity:1; fill:none" points="
  1394.42,614.256 1413.32,614.256 
  "/>
<polyline clip-path="url(#clip900)" style="stroke:#000000; stroke-linecap:round; stroke-linejoin:round; stroke-width:4; stroke-opacity:1; fill:none" points="
  1394.42,537.258 1413.32,537.258 
  "/>
<polyline clip-path="url(#clip900)" style="stroke:#000000; stroke-linecap:round; stroke-linejoin:round; stroke-width:4; stroke-opacity:1; fill:none" points="
  1394.42,460.26 1413.32,460.26 
  "/>
<polyline clip-path="url(#clip900)" style="stroke:#000000; stroke-linecap:round; stroke-linejoin:round; stroke-width:4; stroke-opacity:1; fill:none" points="
  1394.42,383.262 1413.32,383.262 
  "/>
<polyline clip-path="url(#clip900)" style="stroke:#000000; stroke-linecap:round; stroke-linejoin:round; stroke-width:4; stroke-opacity:1; fill:none" points="
  1394.42,306.264 1413.32,306.264 
  "/>
<polyline clip-path="url(#clip900)" style="stroke:#000000; stroke-linecap:round; stroke-linejoin:round; stroke-width:4; stroke-opacity:1; fill:none" points="
  1394.42,229.267 1413.32,229.267 
  "/>
<polyline clip-path="url(#clip900)" style="stroke:#000000; stroke-linecap:round; stroke-linejoin:round; stroke-width:4; stroke-opacity:1; fill:none" points="
  1394.42,152.269 1413.32,152.269 
  "/>
<path clip-path="url(#clip900)" d="M1250.99 614.708 L1280.67 614.708 L1280.67 618.643 L1250.99 618.643 L1250.99 614.708 Z" fill="#000000" fill-rule="evenodd" fill-opacity="1" /><path clip-path="url(#clip900)" d="M1300.76 600.055 Q1297.15 600.055 1295.32 603.62 Q1293.52 607.161 1293.52 614.291 Q1293.52 621.397 1295.32 624.962 Q1297.15 628.504 1300.76 628.504 Q1304.39 628.504 1306.2 624.962 Q1308.03 621.397 1308.03 614.291 Q1308.03 607.161 1306.2 603.62 Q1304.39 600.055 1300.76 600.055 M1300.76 596.351 Q1306.57 596.351 1309.63 600.958 Q1312.7 605.541 1312.7 614.291 Q1312.7 623.018 1309.63 627.624 Q1306.57 632.207 1300.76 632.207 Q1294.95 632.207 1291.87 627.624 Q1288.82 623.018 1288.82 614.291 Q1288.82 605.541 1291.87 600.958 Q1294.95 596.351 1300.76 596.351 Z" fill="#000000" fill-rule="evenodd" fill-opacity="1" /><path clip-path="url(#clip900)" d="M1320.92 625.657 L1325.81 625.657 L1325.81 631.536 L1320.92 631.536 L1320.92 625.657 Z" fill="#000000" fill-rule="evenodd" fill-opacity="1" /><path clip-path="url(#clip900)" d="M1348.84 601.05 L1337.03 619.499 L1348.84 619.499 L1348.84 601.05 M1347.61 596.976 L1353.49 596.976 L1353.49 619.499 L1358.42 619.499 L1358.42 623.388 L1353.49 623.388 L1353.49 631.536 L1348.84 631.536 L1348.84 623.388 L1333.24 623.388 L1333.24 618.874 L1347.61 596.976 Z" fill="#000000" fill-rule="evenodd" fill-opacity="1" /><path clip-path="url(#clip900)" d="M1252.13 537.71 L1281.8 537.71 L1281.8 541.645 L1252.13 541.645 L1252.13 537.71 Z" fill="#000000" fill-rule="evenodd" fill-opacity="1" /><path clip-path="url(#clip900)" d="M1301.89 523.057 Q1298.28 523.057 1296.45 526.622 Q1294.65 530.163 1294.65 537.293 Q1294.65 544.399 1296.45 547.964 Q1298.28 551.506 1301.89 551.506 Q1305.53 551.506 1307.33 547.964 Q1309.16 544.399 1309.16 537.293 Q1309.16 530.163 1307.33 526.622 Q1305.53 523.057 1301.89 523.057 M1301.89 519.353 Q1307.7 519.353 1310.76 523.96 Q1313.84 528.543 1313.84 537.293 Q1313.84 546.02 1310.76 550.626 Q1307.7 555.21 1301.89 555.21 Q1296.08 555.21 1293.01 550.626 Q1289.95 546.02 1289.95 537.293 Q1289.95 528.543 1293.01 523.96 Q1296.08 519.353 1301.89 519.353 Z" fill="#000000" fill-rule="evenodd" fill-opacity="1" /><path clip-path="url(#clip900)" d="M1322.06 548.659 L1326.94 548.659 L1326.94 554.538 L1322.06 554.538 L1322.06 548.659 Z" fill="#000000" fill-rule="evenodd" fill-opacity="1" /><path clip-path="url(#clip900)" d="M1351.29 535.904 Q1354.65 536.622 1356.52 538.89 Q1358.42 541.159 1358.42 544.492 Q1358.42 549.608 1354.9 552.409 Q1351.39 555.21 1344.9 555.21 Q1342.73 555.21 1340.41 554.77 Q1338.12 554.353 1335.67 553.497 L1335.67 548.983 Q1337.61 550.117 1339.93 550.696 Q1342.24 551.274 1344.76 551.274 Q1349.16 551.274 1351.45 549.538 Q1353.77 547.802 1353.77 544.492 Q1353.77 541.436 1351.62 539.724 Q1349.49 537.987 1345.67 537.987 L1341.64 537.987 L1341.64 534.145 L1345.85 534.145 Q1349.3 534.145 1351.13 532.779 Q1352.96 531.39 1352.96 528.798 Q1352.96 526.136 1351.06 524.724 Q1349.19 523.288 1345.67 523.288 Q1343.75 523.288 1341.55 523.705 Q1339.35 524.122 1336.71 525.001 L1336.71 520.835 Q1339.37 520.094 1341.69 519.724 Q1344.02 519.353 1346.08 519.353 Q1351.41 519.353 1354.51 521.784 Q1357.61 524.191 1357.61 528.312 Q1357.61 531.182 1355.97 533.173 Q1354.32 535.14 1351.29 535.904 Z" fill="#000000" fill-rule="evenodd" fill-opacity="1" /><path clip-path="url(#clip900)" d="M1253.08 460.712 L1282.75 460.712 L1282.75 464.647 L1253.08 464.647 L1253.08 460.712 Z" fill="#000000" fill-rule="evenodd" fill-opacity="1" /><path clip-path="url(#clip900)" d="M1302.84 446.059 Q1299.23 446.059 1297.4 449.624 Q1295.6 453.165 1295.6 460.295 Q1295.6 467.401 1297.4 470.966 Q1299.23 474.508 1302.84 474.508 Q1306.48 474.508 1308.28 470.966 Q1310.11 467.401 1310.11 460.295 Q1310.11 453.165 1308.28 449.624 Q1306.48 446.059 1302.84 446.059 M1302.84 442.355 Q1308.65 442.355 1311.71 446.962 Q1314.79 451.545 1314.79 460.295 Q1314.79 469.022 1311.71 473.628 Q1308.65 478.212 1302.84 478.212 Q1297.03 478.212 1293.95 473.628 Q1290.9 469.022 1290.9 460.295 Q1290.9 451.545 1293.95 446.962 Q1297.03 442.355 1302.84 442.355 Z" fill="#000000" fill-rule="evenodd" fill-opacity="1" /><path clip-path="url(#clip900)" d="M1323.01 471.661 L1327.89 471.661 L1327.89 477.54 L1323.01 477.54 L1323.01 471.661 Z" fill="#000000" fill-rule="evenodd" fill-opacity="1" /><path clip-path="url(#clip900)" d="M1342.1 473.605 L1358.42 473.605 L1358.42 477.54 L1336.48 477.54 L1336.48 473.605 Q1339.14 470.851 1343.72 466.221 Q1348.33 461.568 1349.51 460.226 Q1351.76 457.702 1352.64 455.966 Q1353.54 454.207 1353.54 452.517 Q1353.54 449.763 1351.59 448.027 Q1349.67 446.29 1346.57 446.29 Q1344.37 446.29 1341.92 447.054 Q1339.49 447.818 1336.71 449.369 L1336.71 444.647 Q1339.53 443.513 1341.99 442.934 Q1344.44 442.355 1346.48 442.355 Q1351.85 442.355 1355.04 445.04 Q1358.24 447.726 1358.24 452.216 Q1358.24 454.346 1357.43 456.267 Q1356.64 458.165 1354.53 460.758 Q1353.95 461.429 1350.85 464.647 Q1347.75 467.841 1342.1 473.605 Z" fill="#000000" fill-rule="evenodd" fill-opacity="1" /><path clip-path="url(#clip900)" d="M1252.71 383.714 L1282.38 383.714 L1282.38 387.649 L1252.71 387.649 L1252.71 383.714 Z" fill="#000000" fill-rule="evenodd" fill-opacity="1" /><path clip-path="url(#clip900)" d="M1302.47 369.061 Q1298.86 369.061 1297.03 372.626 Q1295.23 376.168 1295.23 383.297 Q1295.23 390.404 1297.03 393.968 Q1298.86 397.51 1302.47 397.51 Q1306.11 397.51 1307.91 393.968 Q1309.74 390.404 1309.74 383.297 Q1309.74 376.168 1307.91 372.626 Q1306.11 369.061 1302.47 369.061 M1302.47 365.357 Q1308.28 365.357 1311.34 369.964 Q1314.42 374.547 1314.42 383.297 Q1314.42 392.024 1311.34 396.63 Q1308.28 401.214 1302.47 401.214 Q1296.66 401.214 1293.58 396.63 Q1290.53 392.024 1290.53 383.297 Q1290.53 374.547 1293.58 369.964 Q1296.66 365.357 1302.47 365.357 Z" fill="#000000" fill-rule="evenodd" fill-opacity="1" /><path clip-path="url(#clip900)" d="M1322.64 394.663 L1327.52 394.663 L1327.52 400.542 L1322.64 400.542 L1322.64 394.663 Z" fill="#000000" fill-rule="evenodd" fill-opacity="1" /><path clip-path="url(#clip900)" d="M1338.51 396.607 L1346.15 396.607 L1346.15 370.242 L1337.84 371.908 L1337.84 367.649 L1346.11 365.982 L1350.78 365.982 L1350.78 396.607 L1358.42 396.607 L1358.42 400.542 L1338.51 400.542 L1338.51 396.607 Z" fill="#000000" fill-rule="evenodd" fill-opacity="1" /><path clip-path="url(#clip900)" d="M1301.25 292.063 Q1297.64 292.063 1295.81 295.628 Q1294 299.17 1294 306.299 Q1294 313.406 1295.81 316.97 Q1297.64 320.512 1301.25 320.512 Q1304.88 320.512 1306.69 316.97 Q1308.51 313.406 1308.51 306.299 Q1308.51 299.17 1306.69 295.628 Q1304.88 292.063 1301.25 292.063 M1301.25 288.359 Q1307.06 288.359 1310.11 292.966 Q1313.19 297.549 1313.19 306.299 Q1313.19 315.026 1310.11 319.632 Q1307.06 324.216 1301.25 324.216 Q1295.44 324.216 1292.36 319.632 Q1289.3 315.026 1289.3 306.299 Q1289.3 297.549 1292.36 292.966 Q1295.44 288.359 1301.25 288.359 Z" fill="#000000" fill-rule="evenodd" fill-opacity="1" /><path clip-path="url(#clip900)" d="M1321.41 317.665 L1326.29 317.665 L1326.29 323.544 L1321.41 323.544 L1321.41 317.665 Z" fill="#000000" fill-rule="evenodd" fill-opacity="1" /><path clip-path="url(#clip900)" d="M1346.48 292.063 Q1342.87 292.063 1341.04 295.628 Q1339.23 299.17 1339.23 306.299 Q1339.23 313.406 1341.04 316.97 Q1342.87 320.512 1346.48 320.512 Q1350.11 320.512 1351.92 316.97 Q1353.75 313.406 1353.75 306.299 Q1353.75 299.17 1351.92 295.628 Q1350.11 292.063 1346.48 292.063 M1346.48 288.359 Q1352.29 288.359 1355.34 292.966 Q1358.42 297.549 1358.42 306.299 Q1358.42 315.026 1355.34 319.632 Q1352.29 324.216 1346.48 324.216 Q1340.67 324.216 1337.59 319.632 Q1334.53 315.026 1334.53 306.299 Q1334.53 297.549 1337.59 292.966 Q1340.67 288.359 1346.48 288.359 Z" fill="#000000" fill-rule="evenodd" fill-opacity="1" /><path clip-path="url(#clip900)" d="M1302.47 215.065 Q1298.86 215.065 1297.03 218.63 Q1295.23 222.172 1295.23 229.301 Q1295.23 236.408 1297.03 239.972 Q1298.86 243.514 1302.47 243.514 Q1306.11 243.514 1307.91 239.972 Q1309.74 236.408 1309.74 229.301 Q1309.74 222.172 1307.91 218.63 Q1306.11 215.065 1302.47 215.065 M1302.47 211.362 Q1308.28 211.362 1311.34 215.968 Q1314.42 220.551 1314.42 229.301 Q1314.42 238.028 1311.34 242.635 Q1308.28 247.218 1302.47 247.218 Q1296.66 247.218 1293.58 242.635 Q1290.53 238.028 1290.53 229.301 Q1290.53 220.551 1293.58 215.968 Q1296.66 211.362 1302.47 211.362 Z" fill="#000000" fill-rule="evenodd" fill-opacity="1" /><path clip-path="url(#clip900)" d="M1322.64 240.667 L1327.52 240.667 L1327.52 246.547 L1322.64 246.547 L1322.64 240.667 Z" fill="#000000" fill-rule="evenodd" fill-opacity="1" /><path clip-path="url(#clip900)" d="M1338.51 242.611 L1346.15 242.611 L1346.15 216.246 L1337.84 217.912 L1337.84 213.653 L1346.11 211.987 L1350.78 211.987 L1350.78 242.611 L1358.42 242.611 L1358.42 246.547 L1338.51 246.547 L1338.51 242.611 Z" fill="#000000" fill-rule="evenodd" fill-opacity="1" /><path clip-path="url(#clip900)" d="M1302.84 138.067 Q1299.23 138.067 1297.4 141.632 Q1295.6 145.174 1295.6 152.303 Q1295.6 159.41 1297.4 162.975 Q1299.23 166.516 1302.84 166.516 Q1306.48 166.516 1308.28 162.975 Q1310.11 159.41 1310.11 152.303 Q1310.11 145.174 1308.28 141.632 Q1306.48 138.067 1302.84 138.067 M1302.84 134.364 Q1308.65 134.364 1311.71 138.97 Q1314.79 143.553 1314.79 152.303 Q1314.79 161.03 1311.71 165.637 Q1308.65 170.22 1302.84 170.22 Q1297.03 170.22 1293.95 165.637 Q1290.9 161.03 1290.9 152.303 Q1290.9 143.553 1293.95 138.97 Q1297.03 134.364 1302.84 134.364 Z" fill="#000000" fill-rule="evenodd" fill-opacity="1" /><path clip-path="url(#clip900)" d="M1323.01 163.669 L1327.89 163.669 L1327.89 169.549 L1323.01 169.549 L1323.01 163.669 Z" fill="#000000" fill-rule="evenodd" fill-opacity="1" /><path clip-path="url(#clip900)" d="M1342.1 165.613 L1358.42 165.613 L1358.42 169.549 L1336.48 169.549 L1336.48 165.613 Q1339.14 162.859 1343.72 158.229 Q1348.33 153.576 1349.51 152.234 Q1351.76 149.711 1352.64 147.975 Q1353.54 146.215 1353.54 144.526 Q1353.54 141.771 1351.59 140.035 Q1349.67 138.299 1346.57 138.299 Q1344.37 138.299 1341.92 139.063 Q1339.49 139.827 1336.71 141.377 L1336.71 136.655 Q1339.53 135.521 1341.99 134.942 Q1344.44 134.364 1346.48 134.364 Q1351.85 134.364 1355.04 137.049 Q1358.24 139.734 1358.24 144.225 Q1358.24 146.354 1357.43 148.276 Q1356.64 150.174 1354.53 152.766 Q1353.95 153.438 1350.85 156.655 Q1347.75 159.85 1342.1 165.613 Z" fill="#000000" fill-rule="evenodd" fill-opacity="1" /><path clip-path="url(#clip900)" d="M1553.49 12.096 L1564.51 12.096 L1591.32 62.6918 L1591.32 12.096 L1599.26 12.096 L1599.26 72.576 L1588.24 72.576 L1561.43 21.9802 L1561.43 72.576 L1553.49 72.576 L1553.49 12.096 Z" fill="#000000" fill-rule="evenodd" fill-opacity="1" /><path clip-path="url(#clip900)" d="M1635.84 49.7694 Q1626.81 49.7694 1623.32 51.8354 Q1619.84 53.9013 1619.84 58.8839 Q1619.84 62.8538 1622.43 65.2034 Q1625.07 67.5124 1629.56 67.5124 Q1635.76 67.5124 1639.49 63.1374 Q1643.25 58.7219 1643.25 51.4303 L1643.25 49.7694 L1635.84 49.7694 M1650.71 46.6907 L1650.71 72.576 L1643.25 72.576 L1643.25 65.6895 Q1640.7 69.8214 1636.89 71.8063 Q1633.09 73.7508 1627.58 73.7508 Q1620.61 73.7508 1616.48 69.8619 Q1612.39 65.9325 1612.39 59.3701 Q1612.39 51.7138 1617.49 47.825 Q1622.64 43.9361 1632.8 43.9361 L1643.25 43.9361 L1643.25 43.2069 Q1643.25 38.0623 1639.85 35.2672 Q1636.49 32.4315 1630.37 32.4315 Q1626.48 32.4315 1622.8 33.3632 Q1619.11 34.295 1615.71 36.1584 L1615.71 29.2718 Q1619.8 27.692 1623.65 26.9223 Q1627.5 26.1121 1631.14 26.1121 Q1640.99 26.1121 1645.85 31.2163 Q1650.71 36.3204 1650.71 46.6907 Z" fill="#000000" fill-rule="evenodd" fill-opacity="1" /><path clip-path="url(#clip900)" d="M1666.06 27.2059 L1673.51 27.2059 L1673.51 72.576 L1666.06 72.576 L1666.06 27.2059 M1666.06 9.54393 L1673.51 9.54393 L1673.51 18.9825 L1666.06 18.9825 L1666.06 9.54393 Z" fill="#000000" fill-rule="evenodd" fill-opacity="1" /><path clip-path="url(#clip900)" d="M1683.76 27.2059 L1691.66 27.2059 L1705.84 65.2844 L1720.02 27.2059 L1727.92 27.2059 L1710.9 72.576 L1700.78 72.576 L1683.76 27.2059 Z" fill="#000000" fill-rule="evenodd" fill-opacity="1" /><path clip-path="url(#clip900)" d="M1777.02 48.0275 L1777.02 51.6733 L1742.74 51.6733 Q1743.23 59.3701 1747.36 63.421 Q1751.54 67.4314 1758.95 67.4314 Q1763.24 67.4314 1767.25 66.3781 Q1771.3 65.3249 1775.27 63.2184 L1775.27 70.267 Q1771.26 71.9684 1767.05 72.8596 Q1762.84 73.7508 1758.5 73.7508 Q1747.65 73.7508 1741.29 67.4314 Q1734.97 61.1119 1734.97 50.3365 Q1734.97 39.1965 1740.96 32.6746 Q1747 26.1121 1757.21 26.1121 Q1766.36 26.1121 1771.67 32.0264 Q1777.02 37.9003 1777.02 48.0275 M1769.56 45.84 Q1769.48 39.7232 1766.12 36.0774 Q1762.8 32.4315 1757.29 32.4315 Q1751.05 32.4315 1747.28 35.9558 Q1743.55 39.4801 1742.99 45.8805 L1769.56 45.84 Z" fill="#000000" fill-rule="evenodd" fill-opacity="1" /><path clip-path="url(#clip900)" d="M1818.25 44.2197 Q1820.89 45.1109 1823.36 48.0275 Q1825.87 50.9442 1828.38 56.0483 L1836.69 72.576 L1827.89 72.576 L1820.16 57.061 Q1817.16 50.9847 1814.32 48.9997 Q1811.53 47.0148 1806.67 47.0148 L1797.76 47.0148 L1797.76 72.576 L1789.57 72.576 L1789.57 12.096 L1808.05 12.096 Q1818.42 12.096 1823.52 16.4305 Q1828.62 20.7649 1828.62 29.5149 Q1828.62 35.2267 1825.95 38.994 Q1823.32 42.7613 1818.25 44.2197 M1797.76 18.8205 L1797.76 40.2903 L1808.05 40.2903 Q1813.96 40.2903 1816.96 37.5762 Q1820 34.8216 1820 29.5149 Q1820 24.2082 1816.96 21.5346 Q1813.96 18.8205 1808.05 18.8205 L1797.76 18.8205 Z" fill="#000000" fill-rule="evenodd" fill-opacity="1" /><path clip-path="url(#clip900)" d="M1881.97 48.0275 L1881.97 51.6733 L1847.7 51.6733 Q1848.19 59.3701 1852.32 63.421 Q1856.49 67.4314 1863.91 67.4314 Q1868.2 67.4314 1872.21 66.3781 Q1876.26 65.3249 1880.23 63.2184 L1880.23 70.267 Q1876.22 71.9684 1872.01 72.8596 Q1867.8 73.7508 1863.46 73.7508 Q1852.61 73.7508 1846.25 67.4314 Q1839.93 61.1119 1839.93 50.3365 Q1839.93 39.1965 1845.92 32.6746 Q1851.96 26.1121 1862.17 26.1121 Q1871.32 26.1121 1876.63 32.0264 Q1881.97 37.9003 1881.97 48.0275 M1874.52 45.84 Q1874.44 39.7232 1871.08 36.0774 Q1867.76 32.4315 1862.25 32.4315 Q1856.01 32.4315 1852.24 35.9558 Q1848.51 39.4801 1847.95 45.8805 L1874.52 45.84 Z" fill="#000000" fill-rule="evenodd" fill-opacity="1" /><path clip-path="url(#clip900)" d="M1924.06 49.3643 Q1924.06 41.2625 1920.7 36.8065 Q1917.38 32.3505 1911.34 32.3505 Q1905.35 32.3505 1901.99 36.8065 Q1898.66 41.2625 1898.66 49.3643 Q1898.66 57.4256 1901.99 61.8816 Q1905.35 66.3376 1911.34 66.3376 Q1917.38 66.3376 1920.7 61.8816 Q1924.06 57.4256 1924.06 49.3643 M1931.52 66.9452 Q1931.52 78.5308 1926.37 84.1616 Q1921.23 89.8329 1910.61 89.8329 Q1906.68 89.8329 1903.2 89.2252 Q1899.72 88.6581 1896.44 87.4428 L1896.44 80.1917 Q1899.72 81.9741 1902.92 82.8248 Q1906.12 83.6755 1909.44 83.6755 Q1916.77 83.6755 1920.42 79.8271 Q1924.06 76.0193 1924.06 68.282 L1924.06 64.5957 Q1921.75 68.6061 1918.15 70.5911 Q1914.54 72.576 1909.52 72.576 Q1901.18 72.576 1896.07 66.2161 Q1890.97 59.8562 1890.97 49.3643 Q1890.97 38.832 1896.07 32.472 Q1901.18 26.1121 1909.52 26.1121 Q1914.54 26.1121 1918.15 28.0971 Q1921.75 30.082 1924.06 34.0924 L1924.06 27.2059 L1931.52 27.2059 L1931.52 66.9452 Z" fill="#000000" fill-rule="evenodd" fill-opacity="1" /><path clip-path="url(#clip900)" d="M1973.16 34.1734 Q1971.9 33.4443 1970.41 33.1202 Q1968.95 32.7556 1967.16 32.7556 Q1960.85 32.7556 1957.44 36.8875 Q1954.08 40.9789 1954.08 48.6757 L1954.08 72.576 L1946.59 72.576 L1946.59 27.2059 L1954.08 27.2059 L1954.08 34.2544 Q1956.43 30.1225 1960.2 28.1376 Q1963.96 26.1121 1969.35 26.1121 Q1970.12 26.1121 1971.05 26.2337 Q1971.99 26.3147 1973.12 26.5172 L1973.16 34.1734 Z" fill="#000000" fill-rule="evenodd" fill-opacity="1" /><path clip-path="url(#clip900)" d="M2017.96 48.0275 L2017.96 51.6733 L1983.69 51.6733 Q1984.18 59.3701 1988.31 63.421 Q1992.48 67.4314 1999.9 67.4314 Q2004.19 67.4314 2008.2 66.3781 Q2012.25 65.3249 2016.22 63.2184 L2016.22 70.267 Q2012.21 71.9684 2008 72.8596 Q2003.79 73.7508 1999.45 73.7508 Q1988.59 73.7508 1982.23 67.4314 Q1975.91 61.1119 1975.91 50.3365 Q1975.91 39.1965 1981.91 32.6746 Q1987.95 26.1121 1998.15 26.1121 Q2007.31 26.1121 2012.62 32.0264 Q2017.96 37.9003 2017.96 48.0275 M2010.51 45.84 Q2010.43 39.7232 2007.07 36.0774 Q2003.74 32.4315 1998.24 32.4315 Q1992 32.4315 1988.23 35.9558 Q1984.5 39.4801 1983.94 45.8805 L2010.51 45.84 Z" fill="#000000" fill-rule="evenodd" fill-opacity="1" /><path clip-path="url(#clip900)" d="M2059.12 28.5427 L2059.12 35.5912 Q2055.96 33.9709 2052.56 33.1607 Q2049.16 32.3505 2045.51 32.3505 Q2039.96 32.3505 2037.16 34.0519 Q2034.41 35.7533 2034.41 39.156 Q2034.41 41.7486 2036.39 43.2475 Q2038.38 44.7058 2044.38 46.0426 L2046.93 46.6097 Q2054.87 48.3111 2058.19 51.4303 Q2061.55 54.509 2061.55 60.0587 Q2061.55 66.3781 2056.53 70.0644 Q2051.55 73.7508 2042.8 73.7508 Q2039.15 73.7508 2035.18 73.0216 Q2031.25 72.3329 2026.88 70.9151 L2026.88 63.2184 Q2031.01 65.3654 2035.02 66.4591 Q2039.03 67.5124 2042.96 67.5124 Q2048.22 67.5124 2051.06 65.73 Q2053.89 63.9071 2053.89 60.6258 Q2053.89 57.5877 2051.83 55.9673 Q2049.8 54.3469 2042.88 52.8481 L2040.28 52.2405 Q2033.36 50.7821 2030.28 47.7845 Q2027.2 44.7463 2027.2 39.4801 Q2027.2 33.0797 2031.74 29.5959 Q2036.27 26.1121 2044.62 26.1121 Q2048.75 26.1121 2052.4 26.7198 Q2056.04 27.3274 2059.12 28.5427 Z" fill="#000000" fill-rule="evenodd" fill-opacity="1" /><path clip-path="url(#clip900)" d="M2102.34 28.5427 L2102.34 35.5912 Q2099.18 33.9709 2095.78 33.1607 Q2092.38 32.3505 2088.73 32.3505 Q2083.18 32.3505 2080.39 34.0519 Q2077.63 35.7533 2077.63 39.156 Q2077.63 41.7486 2079.62 43.2475 Q2081.6 44.7058 2087.6 46.0426 L2090.15 46.6097 Q2098.09 48.3111 2101.41 51.4303 Q2104.77 54.509 2104.77 60.0587 Q2104.77 66.3781 2099.75 70.0644 Q2094.77 73.7508 2086.02 73.7508 Q2082.37 73.7508 2078.4 73.0216 Q2074.47 72.3329 2070.1 70.9151 L2070.1 63.2184 Q2074.23 65.3654 2078.24 66.4591 Q2082.25 67.5124 2086.18 67.5124 Q2091.45 67.5124 2094.28 65.73 Q2097.12 63.9071 2097.12 60.6258 Q2097.12 57.5877 2095.05 55.9673 Q2093.03 54.3469 2086.1 52.8481 L2083.51 52.2405 Q2076.58 50.7821 2073.5 47.7845 Q2070.42 44.7463 2070.42 39.4801 Q2070.42 33.0797 2074.96 29.5959 Q2079.5 26.1121 2087.84 26.1121 Q2091.97 26.1121 2095.62 26.7198 Q2099.26 27.3274 2102.34 28.5427 Z" fill="#000000" fill-rule="evenodd" fill-opacity="1" /><path clip-path="url(#clip900)" d="M2134.22 32.4315 Q2128.23 32.4315 2124.75 37.1306 Q2121.26 41.7891 2121.26 49.9314 Q2121.26 58.0738 2124.7 62.7728 Q2128.19 67.4314 2134.22 67.4314 Q2140.18 67.4314 2143.66 62.7323 Q2147.15 58.0333 2147.15 49.9314 Q2147.15 41.8701 2143.66 37.1711 Q2140.18 32.4315 2134.22 32.4315 M2134.22 26.1121 Q2143.95 26.1121 2149.5 32.4315 Q2155.05 38.7509 2155.05 49.9314 Q2155.05 61.0714 2149.5 67.4314 Q2143.95 73.7508 2134.22 73.7508 Q2124.46 73.7508 2118.91 67.4314 Q2113.4 61.0714 2113.4 49.9314 Q2113.4 38.7509 2118.91 32.4315 Q2124.46 26.1121 2134.22 26.1121 Z" fill="#000000" fill-rule="evenodd" fill-opacity="1" /><path clip-path="url(#clip900)" d="M2193.69 34.1734 Q2192.44 33.4443 2190.94 33.1202 Q2189.48 32.7556 2187.7 32.7556 Q2181.38 32.7556 2177.97 36.8875 Q2174.61 40.9789 2174.61 48.6757 L2174.61 72.576 L2167.12 72.576 L2167.12 27.2059 L2174.61 27.2059 L2174.61 34.2544 Q2176.96 30.1225 2180.73 28.1376 Q2184.5 26.1121 2189.88 26.1121 Q2190.65 26.1121 2191.58 26.2337 Q2192.52 26.3147 2193.65 26.5172 L2193.69 34.1734 Z" fill="#000000" fill-rule="evenodd" fill-opacity="1" /><polyline clip-path="url(#clip903)" style="stroke:#ffa500; stroke-linecap:round; stroke-linejoin:round; stroke-width:4; stroke-opacity:1; fill:none" points="
  1421.54,459.893 1522,484.765 1622.45,523.642 1722.91,516.82 1823.36,514.259 1923.82,378.506 2024.27,597.993 2124.72,482.193 2225.18,670.515 2325.63,485.63 
  
  "/>
<polyline clip-path="url(#clip903)" style="stroke:#ffa500; stroke-linecap:round; stroke-linejoin:round; stroke-width:4; stroke-opacity:1; fill:none" points="
  1421.54,220.792 1522,245.664 1622.45,284.541 1722.91,277.72 1823.36,275.158 1923.82,139.405 2024.27,358.892 2124.72,243.093 2225.18,431.414 2325.63,246.529 
  
  "/>
<path clip-path="url(#clip900)" d="
M194.422 1486.45 L1152.76 1486.45 L1152.76 923.472 L194.422 923.472  Z
  " fill="#ffffff" fill-rule="evenodd" fill-opacity="1"/>
<defs>
  <clipPath id="clip904">
    <rect x="194" y="923" width="959" height="564"/>
  </clipPath>
</defs>
<polyline clip-path="url(#clip904)" style="stroke:#000000; stroke-linecap:round; stroke-linejoin:round; stroke-width:2; stroke-opacity:0.1; fill:none" points="
  321.999,1486.45 321.999,923.472 
  "/>
<polyline clip-path="url(#clip904)" style="stroke:#000000; stroke-linecap:round; stroke-linejoin:round; stroke-width:2; stroke-opacity:0.1; fill:none" points="
  522.908,1486.45 522.908,923.472 
  "/>
<polyline clip-path="url(#clip904)" style="stroke:#000000; stroke-linecap:round; stroke-linejoin:round; stroke-width:2; stroke-opacity:0.1; fill:none" points="
  723.816,1486.45 723.816,923.472 
  "/>
<polyline clip-path="url(#clip904)" style="stroke:#000000; stroke-linecap:round; stroke-linejoin:round; stroke-width:2; stroke-opacity:0.1; fill:none" points="
  924.725,1486.45 924.725,923.472 
  "/>
<polyline clip-path="url(#clip904)" style="stroke:#000000; stroke-linecap:round; stroke-linejoin:round; stroke-width:2; stroke-opacity:0.1; fill:none" points="
  1125.63,1486.45 1125.63,923.472 
  "/>
<polyline clip-path="url(#clip900)" style="stroke:#000000; stroke-linecap:round; stroke-linejoin:round; stroke-width:4; stroke-opacity:1; fill:none" points="
  194.422,1486.45 1152.76,1486.45 
  "/>
<polyline clip-path="url(#clip900)" style="stroke:#000000; stroke-linecap:round; stroke-linejoin:round; stroke-width:4; stroke-opacity:1; fill:none" points="
  321.999,1486.45 321.999,1467.55 
  "/>
<polyline clip-path="url(#clip900)" style="stroke:#000000; stroke-linecap:round; stroke-linejoin:round; stroke-width:4; stroke-opacity:1; fill:none" points="
  522.908,1486.45 522.908,1467.55 
  "/>
<polyline clip-path="url(#clip900)" style="stroke:#000000; stroke-linecap:round; stroke-linejoin:round; stroke-width:4; stroke-opacity:1; fill:none" points="
  723.816,1486.45 723.816,1467.55 
  "/>
<polyline clip-path="url(#clip900)" style="stroke:#000000; stroke-linecap:round; stroke-linejoin:round; stroke-width:4; stroke-opacity:1; fill:none" points="
  924.725,1486.45 924.725,1467.55 
  "/>
<polyline clip-path="url(#clip900)" style="stroke:#000000; stroke-linecap:round; stroke-linejoin:round; stroke-width:4; stroke-opacity:1; fill:none" points="
  1125.63,1486.45 1125.63,1467.55 
  "/>
<path clip-path="url(#clip900)" d="M316.652 1544.91 L332.971 1544.91 L332.971 1548.85 L311.027 1548.85 L311.027 1544.91 Q313.689 1542.16 318.272 1537.53 Q322.879 1532.88 324.059 1531.53 Q326.305 1529.01 327.184 1527.27 Q328.087 1525.51 328.087 1523.82 Q328.087 1521.07 326.143 1519.33 Q324.221 1517.6 321.119 1517.6 Q318.92 1517.6 316.467 1518.36 Q314.036 1519.13 311.258 1520.68 L311.258 1515.95 Q314.082 1514.82 316.536 1514.24 Q318.99 1513.66 321.027 1513.66 Q326.397 1513.66 329.592 1516.35 Q332.786 1519.03 332.786 1523.52 Q332.786 1525.65 331.976 1527.57 Q331.189 1529.47 329.082 1532.07 Q328.504 1532.74 325.402 1535.95 Q322.3 1539.15 316.652 1544.91 Z" fill="#000000" fill-rule="evenodd" fill-opacity="1" /><path clip-path="url(#clip900)" d="M525.917 1518.36 L514.111 1536.81 L525.917 1536.81 L525.917 1518.36 M524.69 1514.29 L530.57 1514.29 L530.57 1536.81 L535.5 1536.81 L535.5 1540.7 L530.57 1540.7 L530.57 1548.85 L525.917 1548.85 L525.917 1540.7 L510.315 1540.7 L510.315 1536.19 L524.69 1514.29 Z" fill="#000000" fill-rule="evenodd" fill-opacity="1" /><path clip-path="url(#clip900)" d="M724.221 1529.7 Q721.073 1529.7 719.221 1531.86 Q717.393 1534.01 717.393 1537.76 Q717.393 1541.49 719.221 1543.66 Q721.073 1545.82 724.221 1545.82 Q727.369 1545.82 729.198 1543.66 Q731.05 1541.49 731.05 1537.76 Q731.05 1534.01 729.198 1531.86 Q727.369 1529.7 724.221 1529.7 M733.504 1515.05 L733.504 1519.31 Q731.744 1518.48 729.939 1518.04 Q728.156 1517.6 726.397 1517.6 Q721.768 1517.6 719.314 1520.72 Q716.883 1523.85 716.536 1530.17 Q717.902 1528.15 719.962 1527.09 Q722.022 1526 724.499 1526 Q729.707 1526 732.717 1529.17 Q735.749 1532.32 735.749 1537.76 Q735.749 1543.08 732.601 1546.3 Q729.453 1549.52 724.221 1549.52 Q718.226 1549.52 715.055 1544.94 Q711.883 1540.33 711.883 1531.6 Q711.883 1523.41 715.772 1518.55 Q719.661 1513.66 726.212 1513.66 Q727.971 1513.66 729.754 1514.01 Q731.559 1514.36 733.504 1515.05 Z" fill="#000000" fill-rule="evenodd" fill-opacity="1" /><path clip-path="url(#clip900)" d="M924.725 1532.44 Q921.391 1532.44 919.47 1534.22 Q917.572 1536 917.572 1539.13 Q917.572 1542.25 919.47 1544.03 Q921.391 1545.82 924.725 1545.82 Q928.058 1545.82 929.979 1544.03 Q931.901 1542.23 931.901 1539.13 Q931.901 1536 929.979 1534.22 Q928.081 1532.44 924.725 1532.44 M920.049 1530.45 Q917.04 1529.7 915.35 1527.64 Q913.683 1525.58 913.683 1522.62 Q913.683 1518.48 916.623 1516.07 Q919.586 1513.66 924.725 1513.66 Q929.887 1513.66 932.827 1516.07 Q935.766 1518.48 935.766 1522.62 Q935.766 1525.58 934.076 1527.64 Q932.41 1529.7 929.424 1530.45 Q932.803 1531.23 934.678 1533.52 Q936.576 1535.82 936.576 1539.13 Q936.576 1544.15 933.498 1546.83 Q930.442 1549.52 924.725 1549.52 Q919.007 1549.52 915.928 1546.83 Q912.873 1544.15 912.873 1539.13 Q912.873 1535.82 914.771 1533.52 Q916.669 1531.23 920.049 1530.45 M918.336 1523.06 Q918.336 1525.75 920.003 1527.25 Q921.692 1528.76 924.725 1528.76 Q927.734 1528.76 929.424 1527.25 Q931.137 1525.75 931.137 1523.06 Q931.137 1520.38 929.424 1518.87 Q927.734 1517.37 924.725 1517.37 Q921.692 1517.37 920.003 1518.87 Q918.336 1520.38 918.336 1523.06 Z" fill="#000000" fill-rule="evenodd" fill-opacity="1" /><path clip-path="url(#clip900)" d="M1100.32 1544.91 L1107.96 1544.91 L1107.96 1518.55 L1099.65 1520.21 L1099.65 1515.95 L1107.91 1514.29 L1112.59 1514.29 L1112.59 1544.91 L1120.23 1544.91 L1120.23 1548.85 L1100.32 1548.85 L1100.32 1544.91 Z" fill="#000000" fill-rule="evenodd" fill-opacity="1" /><path clip-path="url(#clip900)" d="M1139.67 1517.37 Q1136.06 1517.37 1134.23 1520.93 Q1132.43 1524.47 1132.43 1531.6 Q1132.43 1538.71 1134.23 1542.27 Q1136.06 1545.82 1139.67 1545.82 Q1143.31 1545.82 1145.11 1542.27 Q1146.94 1538.71 1146.94 1531.6 Q1146.94 1524.47 1145.11 1520.93 Q1143.31 1517.37 1139.67 1517.37 M1139.67 1513.66 Q1145.48 1513.66 1148.54 1518.27 Q1151.62 1522.85 1151.62 1531.6 Q1151.62 1540.33 1148.54 1544.94 Q1145.48 1549.52 1139.67 1549.52 Q1133.86 1549.52 1130.78 1544.94 Q1127.73 1540.33 1127.73 1531.6 Q1127.73 1522.85 1130.78 1518.27 Q1133.86 1513.66 1139.67 1513.66 Z" fill="#000000" fill-rule="evenodd" fill-opacity="1" /><polyline clip-path="url(#clip904)" style="stroke:#000000; stroke-linecap:round; stroke-linejoin:round; stroke-width:2; stroke-opacity:0.1; fill:none" points="
  194.422,1378.82 1152.76,1378.82 
  "/>
<polyline clip-path="url(#clip904)" style="stroke:#000000; stroke-linecap:round; stroke-linejoin:round; stroke-width:2; stroke-opacity:0.1; fill:none" points="
  194.422,1250.9 1152.76,1250.9 
  "/>
<polyline clip-path="url(#clip904)" style="stroke:#000000; stroke-linecap:round; stroke-linejoin:round; stroke-width:2; stroke-opacity:0.1; fill:none" points="
  194.422,1122.98 1152.76,1122.98 
  "/>
<polyline clip-path="url(#clip904)" style="stroke:#000000; stroke-linecap:round; stroke-linejoin:round; stroke-width:2; stroke-opacity:0.1; fill:none" points="
  194.422,995.056 1152.76,995.056 
  "/>
<polyline clip-path="url(#clip900)" style="stroke:#000000; stroke-linecap:round; stroke-linejoin:round; stroke-width:4; stroke-opacity:1; fill:none" points="
  194.422,1486.45 194.422,923.472 
  "/>
<polyline clip-path="url(#clip900)" style="stroke:#000000; stroke-linecap:round; stroke-linejoin:round; stroke-width:4; stroke-opacity:1; fill:none" points="
  194.422,1378.82 213.32,1378.82 
  "/>
<polyline clip-path="url(#clip900)" style="stroke:#000000; stroke-linecap:round; stroke-linejoin:round; stroke-width:4; stroke-opacity:1; fill:none" points="
  194.422,1250.9 213.32,1250.9 
  "/>
<polyline clip-path="url(#clip900)" style="stroke:#000000; stroke-linecap:round; stroke-linejoin:round; stroke-width:4; stroke-opacity:1; fill:none" points="
  194.422,1122.98 213.32,1122.98 
  "/>
<polyline clip-path="url(#clip900)" style="stroke:#000000; stroke-linecap:round; stroke-linejoin:round; stroke-width:4; stroke-opacity:1; fill:none" points="
  194.422,995.056 213.32,995.056 
  "/>
<path clip-path="url(#clip900)" d="M50.9921 1379.27 L80.6679 1379.27 L80.6679 1383.2 L50.9921 1383.2 L50.9921 1379.27 Z" fill="#000000" fill-rule="evenodd" fill-opacity="1" /><path clip-path="url(#clip900)" d="M100.76 1364.62 Q97.1493 1364.62 95.3206 1368.18 Q93.515 1371.72 93.515 1378.85 Q93.515 1385.96 95.3206 1389.52 Q97.1493 1393.06 100.76 1393.06 Q104.395 1393.06 106.2 1389.52 Q108.029 1385.96 108.029 1378.85 Q108.029 1371.72 106.2 1368.18 Q104.395 1364.62 100.76 1364.62 M100.76 1360.91 Q106.571 1360.91 109.626 1365.52 Q112.705 1370.1 112.705 1378.85 Q112.705 1387.58 109.626 1392.18 Q106.571 1396.77 100.76 1396.77 Q94.9502 1396.77 91.8715 1392.18 Q88.816 1387.58 88.816 1378.85 Q88.816 1370.1 91.8715 1365.52 Q94.9502 1360.91 100.76 1360.91 Z" fill="#000000" fill-rule="evenodd" fill-opacity="1" /><path clip-path="url(#clip900)" d="M120.922 1390.22 L125.807 1390.22 L125.807 1396.1 L120.922 1396.1 L120.922 1390.22 Z" fill="#000000" fill-rule="evenodd" fill-opacity="1" /><path clip-path="url(#clip900)" d="M148.839 1365.61 L137.033 1384.06 L148.839 1384.06 L148.839 1365.61 M147.612 1361.54 L153.492 1361.54 L153.492 1384.06 L158.422 1384.06 L158.422 1387.95 L153.492 1387.95 L153.492 1396.1 L148.839 1396.1 L148.839 1387.95 L133.237 1387.95 L133.237 1383.44 L147.612 1361.54 Z" fill="#000000" fill-rule="evenodd" fill-opacity="1" /><path clip-path="url(#clip900)" d="M53.0754 1251.35 L82.7512 1251.35 L82.7512 1255.28 L53.0754 1255.28 L53.0754 1251.35 Z" fill="#000000" fill-rule="evenodd" fill-opacity="1" /><path clip-path="url(#clip900)" d="M102.844 1236.7 Q99.2326 1236.7 97.4039 1240.26 Q95.5984 1243.8 95.5984 1250.93 Q95.5984 1258.04 97.4039 1261.6 Q99.2326 1265.14 102.844 1265.14 Q106.478 1265.14 108.283 1261.6 Q110.112 1258.04 110.112 1250.93 Q110.112 1243.8 108.283 1240.26 Q106.478 1236.7 102.844 1236.7 M102.844 1232.99 Q108.654 1232.99 111.709 1237.6 Q114.788 1242.18 114.788 1250.93 Q114.788 1259.66 111.709 1264.26 Q108.654 1268.85 102.844 1268.85 Q97.0335 1268.85 93.9549 1264.26 Q90.8993 1259.66 90.8993 1250.93 Q90.8993 1242.18 93.9549 1237.6 Q97.0335 1232.99 102.844 1232.99 Z" fill="#000000" fill-rule="evenodd" fill-opacity="1" /><path clip-path="url(#clip900)" d="M123.006 1262.3 L127.89 1262.3 L127.89 1268.18 L123.006 1268.18 L123.006 1262.3 Z" fill="#000000" fill-rule="evenodd" fill-opacity="1" /><path clip-path="url(#clip900)" d="M142.103 1264.24 L158.422 1264.24 L158.422 1268.18 L136.478 1268.18 L136.478 1264.24 Q139.14 1261.49 143.723 1256.86 Q148.33 1252.2 149.51 1250.86 Q151.755 1248.34 152.635 1246.6 Q153.538 1244.84 153.538 1243.15 Q153.538 1240.4 151.593 1238.66 Q149.672 1236.93 146.57 1236.93 Q144.371 1236.93 141.918 1237.69 Q139.487 1238.45 136.709 1240.01 L136.709 1235.28 Q139.533 1234.15 141.987 1233.57 Q144.441 1232.99 146.478 1232.99 Q151.848 1232.99 155.042 1235.68 Q158.237 1238.36 158.237 1242.85 Q158.237 1244.98 157.427 1246.9 Q156.64 1248.8 154.533 1251.39 Q153.955 1252.07 150.853 1255.28 Q147.751 1258.48 142.103 1264.24 Z" fill="#000000" fill-rule="evenodd" fill-opacity="1" /><path clip-path="url(#clip900)" d="M101.246 1108.77 Q97.6354 1108.77 95.8067 1112.34 Q94.0012 1115.88 94.0012 1123.01 Q94.0012 1130.12 95.8067 1133.68 Q97.6354 1137.22 101.246 1137.22 Q104.881 1137.22 106.686 1133.68 Q108.515 1130.12 108.515 1123.01 Q108.515 1115.88 106.686 1112.34 Q104.881 1108.77 101.246 1108.77 M101.246 1105.07 Q107.057 1105.07 110.112 1109.68 Q113.191 1114.26 113.191 1123.01 Q113.191 1131.74 110.112 1136.34 Q107.057 1140.93 101.246 1140.93 Q95.4363 1140.93 92.3576 1136.34 Q89.3021 1131.74 89.3021 1123.01 Q89.3021 1114.26 92.3576 1109.68 Q95.4363 1105.07 101.246 1105.07 Z" fill="#000000" fill-rule="evenodd" fill-opacity="1" /><path clip-path="url(#clip900)" d="M121.408 1134.38 L126.293 1134.38 L126.293 1140.26 L121.408 1140.26 L121.408 1134.38 Z" fill="#000000" fill-rule="evenodd" fill-opacity="1" /><path clip-path="url(#clip900)" d="M146.478 1108.77 Q142.867 1108.77 141.038 1112.34 Q139.232 1115.88 139.232 1123.01 Q139.232 1130.12 141.038 1133.68 Q142.867 1137.22 146.478 1137.22 Q150.112 1137.22 151.918 1133.68 Q153.746 1130.12 153.746 1123.01 Q153.746 1115.88 151.918 1112.34 Q150.112 1108.77 146.478 1108.77 M146.478 1105.07 Q152.288 1105.07 155.343 1109.68 Q158.422 1114.26 158.422 1123.01 Q158.422 1131.74 155.343 1136.34 Q152.288 1140.93 146.478 1140.93 Q140.668 1140.93 137.589 1136.34 Q134.533 1131.74 134.533 1123.01 Q134.533 1114.26 137.589 1109.68 Q140.668 1105.07 146.478 1105.07 Z" fill="#000000" fill-rule="evenodd" fill-opacity="1" /><path clip-path="url(#clip900)" d="M102.844 980.854 Q99.2326 980.854 97.4039 984.419 Q95.5984 987.961 95.5984 995.09 Q95.5984 1002.2 97.4039 1005.76 Q99.2326 1009.3 102.844 1009.3 Q106.478 1009.3 108.283 1005.76 Q110.112 1002.2 110.112 995.09 Q110.112 987.961 108.283 984.419 Q106.478 980.854 102.844 980.854 M102.844 977.151 Q108.654 977.151 111.709 981.757 Q114.788 986.34 114.788 995.09 Q114.788 1003.82 111.709 1008.42 Q108.654 1013.01 102.844 1013.01 Q97.0335 1013.01 93.9549 1008.42 Q90.8993 1003.82 90.8993 995.09 Q90.8993 986.34 93.9549 981.757 Q97.0335 977.151 102.844 977.151 Z" fill="#000000" fill-rule="evenodd" fill-opacity="1" /><path clip-path="url(#clip900)" d="M123.006 1006.46 L127.89 1006.46 L127.89 1012.34 L123.006 1012.34 L123.006 1006.46 Z" fill="#000000" fill-rule="evenodd" fill-opacity="1" /><path clip-path="url(#clip900)" d="M142.103 1008.4 L158.422 1008.4 L158.422 1012.34 L136.478 1012.34 L136.478 1008.4 Q139.14 1005.65 143.723 1001.02 Q148.33 996.364 149.51 995.021 Q151.755 992.498 152.635 990.762 Q153.538 989.002 153.538 987.313 Q153.538 984.558 151.593 982.822 Q149.672 981.086 146.57 981.086 Q144.371 981.086 141.918 981.85 Q139.487 982.614 136.709 984.165 L136.709 979.442 Q139.533 978.308 141.987 977.729 Q144.441 977.151 146.478 977.151 Q151.848 977.151 155.042 979.836 Q158.237 982.521 158.237 987.012 Q158.237 989.141 157.427 991.063 Q156.64 992.961 154.533 995.553 Q153.955 996.225 150.853 999.442 Q147.751 1002.64 142.103 1008.4 Z" fill="#000000" fill-rule="evenodd" fill-opacity="1" /><path clip-path="url(#clip900)" d="M291.305 812.096 L299.488 812.096 L299.488 868.363 Q299.488 879.301 295.316 884.243 Q291.184 889.185 281.988 889.185 L278.869 889.185 L278.869 882.298 L281.421 882.298 Q286.849 882.298 289.077 879.26 Q291.305 876.222 291.305 868.363 L291.305 812.096 Z" fill="#000000" fill-rule="evenodd" fill-opacity="1" /><path clip-path="url(#clip900)" d="M336.068 849.769 Q327.034 849.769 323.55 851.835 Q320.067 853.901 320.067 858.884 Q320.067 862.854 322.659 865.203 Q325.292 867.512 329.789 867.512 Q335.987 867.512 339.713 863.137 Q343.481 858.722 343.481 851.43 L343.481 849.769 L336.068 849.769 M350.934 846.691 L350.934 872.576 L343.481 872.576 L343.481 865.689 Q340.929 869.821 337.121 871.806 Q333.313 873.751 327.804 873.751 Q320.836 873.751 316.704 869.862 Q312.613 865.933 312.613 859.37 Q312.613 851.714 317.717 847.825 Q322.862 843.936 333.029 843.936 L343.481 843.936 L343.481 843.207 Q343.481 838.062 340.078 835.267 Q336.716 832.432 330.599 832.432 Q326.71 832.432 323.024 833.363 Q319.337 834.295 315.935 836.158 L315.935 829.272 Q320.026 827.692 323.874 826.922 Q327.723 826.112 331.369 826.112 Q341.212 826.112 346.073 831.216 Q350.934 836.32 350.934 846.691 Z" fill="#000000" fill-rule="evenodd" fill-opacity="1" /><path clip-path="url(#clip900)" d="M398.938 828.948 L398.938 835.915 Q395.778 834.173 392.578 833.323 Q389.418 832.432 386.177 832.432 Q378.926 832.432 374.916 837.05 Q370.905 841.627 370.905 849.931 Q370.905 858.236 374.916 862.854 Q378.926 867.431 386.177 867.431 Q389.418 867.431 392.578 866.581 Q395.778 865.689 398.938 863.948 L398.938 870.834 Q395.819 872.292 392.456 873.022 Q389.135 873.751 385.367 873.751 Q375.118 873.751 369.083 867.31 Q363.047 860.869 363.047 849.931 Q363.047 838.832 369.123 832.472 Q375.24 826.112 385.853 826.112 Q389.297 826.112 392.578 826.841 Q395.859 827.53 398.938 828.948 Z" fill="#000000" fill-rule="evenodd" fill-opacity="1" /><path clip-path="url(#clip900)" d="M411.617 809.544 L419.111 809.544 L419.111 846.772 L441.351 827.206 L450.87 827.206 L426.808 848.433 L451.883 872.576 L442.161 872.576 L419.111 850.418 L419.111 872.576 L411.617 872.576 L411.617 809.544 Z" fill="#000000" fill-rule="evenodd" fill-opacity="1" /><path clip-path="url(#clip900)" d="M459.661 809.544 L467.155 809.544 L467.155 846.772 L489.394 827.206 L498.914 827.206 L474.852 848.433 L499.927 872.576 L490.205 872.576 L467.155 850.418 L467.155 872.576 L459.661 872.576 L459.661 809.544 Z" fill="#000000" fill-rule="evenodd" fill-opacity="1" /><path clip-path="url(#clip900)" d="M545.702 845.192 L545.702 872.576 L538.248 872.576 L538.248 845.435 Q538.248 838.994 535.737 835.794 Q533.225 832.594 528.202 832.594 Q522.166 832.594 518.682 836.442 Q515.199 840.29 515.199 846.934 L515.199 872.576 L507.704 872.576 L507.704 827.206 L515.199 827.206 L515.199 834.254 Q517.872 830.163 521.478 828.138 Q525.123 826.112 529.863 826.112 Q537.681 826.112 541.692 830.973 Q545.702 835.794 545.702 845.192 Z" fill="#000000" fill-rule="evenodd" fill-opacity="1" /><path clip-path="url(#clip900)" d="M560.569 827.206 L568.022 827.206 L568.022 872.576 L560.569 872.576 L560.569 827.206 M560.569 809.544 L568.022 809.544 L568.022 818.983 L560.569 818.983 L560.569 809.544 Z" fill="#000000" fill-rule="evenodd" fill-opacity="1" /><path clip-path="url(#clip900)" d="M606.587 809.544 L606.587 815.742 L599.457 815.742 Q595.447 815.742 593.867 817.362 Q592.328 818.983 592.328 823.195 L592.328 827.206 L604.602 827.206 L604.602 832.999 L592.328 832.999 L592.328 872.576 L584.834 872.576 L584.834 832.999 L577.704 832.999 L577.704 827.206 L584.834 827.206 L584.834 824.046 Q584.834 816.471 588.358 813.028 Q591.882 809.544 599.538 809.544 L606.587 809.544 Z" fill="#000000" fill-rule="evenodd" fill-opacity="1" /><path clip-path="url(#clip900)" d="M651.633 848.028 L651.633 851.673 L617.362 851.673 Q617.849 859.37 621.98 863.421 Q626.153 867.431 633.566 867.431 Q637.86 867.431 641.87 866.378 Q645.921 865.325 649.891 863.218 L649.891 870.267 Q645.881 871.968 641.668 872.86 Q637.455 873.751 633.12 873.751 Q622.264 873.751 615.904 867.431 Q609.585 861.112 609.585 850.337 Q609.585 839.197 615.58 832.675 Q621.616 826.112 631.824 826.112 Q640.979 826.112 646.286 832.026 Q651.633 837.9 651.633 848.028 M644.179 845.84 Q644.098 839.723 640.736 836.077 Q637.414 832.432 631.905 832.432 Q625.667 832.432 621.899 835.956 Q618.173 839.48 617.606 845.881 L644.179 845.84 Z" fill="#000000" fill-rule="evenodd" fill-opacity="1" /><path clip-path="url(#clip900)" d="M692.871 844.22 Q695.504 845.111 697.975 848.028 Q700.487 850.944 702.999 856.048 L711.303 872.576 L702.512 872.576 L694.775 857.061 Q691.778 850.985 688.942 849 Q686.147 847.015 681.286 847.015 L672.374 847.015 L672.374 872.576 L664.191 872.576 L664.191 812.096 L682.663 812.096 Q693.033 812.096 698.137 816.43 Q703.242 820.765 703.242 829.515 Q703.242 835.227 700.568 838.994 Q697.935 842.761 692.871 844.22 M672.374 818.821 L672.374 840.29 L682.663 840.29 Q688.577 840.29 691.575 837.576 Q694.613 834.822 694.613 829.515 Q694.613 824.208 691.575 821.535 Q688.577 818.821 682.663 818.821 L672.374 818.821 Z" fill="#000000" fill-rule="evenodd" fill-opacity="1" /><path clip-path="url(#clip900)" d="M756.592 848.028 L756.592 851.673 L722.321 851.673 Q722.807 859.37 726.939 863.421 Q731.112 867.431 738.525 867.431 Q742.819 867.431 746.829 866.378 Q750.88 865.325 754.85 863.218 L754.85 870.267 Q750.84 871.968 746.627 872.86 Q742.414 873.751 738.079 873.751 Q727.223 873.751 720.863 867.431 Q714.544 861.112 714.544 850.337 Q714.544 839.197 720.539 832.675 Q726.575 826.112 736.783 826.112 Q745.938 826.112 751.245 832.026 Q756.592 837.9 756.592 848.028 M749.138 845.84 Q749.057 839.723 745.695 836.077 Q742.373 832.432 736.864 832.432 Q730.626 832.432 726.858 835.956 Q723.132 839.48 722.564 845.881 L749.138 845.84 Z" fill="#000000" fill-rule="evenodd" fill-opacity="1" /><path clip-path="url(#clip900)" d="M798.681 849.364 Q798.681 841.263 795.319 836.807 Q791.997 832.351 785.961 832.351 Q779.966 832.351 776.604 836.807 Q773.282 841.263 773.282 849.364 Q773.282 857.426 776.604 861.882 Q779.966 866.338 785.961 866.338 Q791.997 866.338 795.319 861.882 Q798.681 857.426 798.681 849.364 M806.135 866.945 Q806.135 878.531 800.99 884.162 Q795.845 889.833 785.232 889.833 Q781.303 889.833 777.819 889.225 Q774.335 888.658 771.054 887.443 L771.054 880.192 Q774.335 881.974 777.535 882.825 Q780.735 883.675 784.057 883.675 Q791.389 883.675 795.035 879.827 Q798.681 876.019 798.681 868.282 L798.681 864.596 Q796.372 868.606 792.767 870.591 Q789.161 872.576 784.138 872.576 Q775.793 872.576 770.689 866.216 Q765.585 859.856 765.585 849.364 Q765.585 838.832 770.689 832.472 Q775.793 826.112 784.138 826.112 Q789.161 826.112 792.767 828.097 Q796.372 830.082 798.681 834.092 L798.681 827.206 L806.135 827.206 L806.135 866.945 Z" fill="#000000" fill-rule="evenodd" fill-opacity="1" /><path clip-path="url(#clip900)" d="M847.778 834.173 Q846.522 833.444 845.023 833.12 Q843.565 832.756 841.783 832.756 Q835.463 832.756 832.06 836.888 Q828.698 840.979 828.698 848.676 L828.698 872.576 L821.204 872.576 L821.204 827.206 L828.698 827.206 L828.698 834.254 Q831.048 830.123 834.815 828.138 Q838.582 826.112 843.97 826.112 Q844.74 826.112 845.671 826.234 Q846.603 826.315 847.737 826.517 L847.778 834.173 Z" fill="#000000" fill-rule="evenodd" fill-opacity="1" /><path clip-path="url(#clip900)" d="M892.581 848.028 L892.581 851.673 L858.31 851.673 Q858.796 859.37 862.928 863.421 Q867.101 867.431 874.514 867.431 Q878.808 867.431 882.818 866.378 Q886.869 865.325 890.839 863.218 L890.839 870.267 Q886.829 871.968 882.616 872.86 Q878.403 873.751 874.068 873.751 Q863.212 873.751 856.852 867.431 Q850.533 861.112 850.533 850.337 Q850.533 839.197 856.528 832.675 Q862.564 826.112 872.772 826.112 Q881.927 826.112 887.234 832.026 Q892.581 837.9 892.581 848.028 M885.127 845.84 Q885.046 839.723 881.684 836.077 Q878.362 832.432 872.853 832.432 Q866.615 832.432 862.847 835.956 Q859.12 839.48 858.553 845.881 L885.127 845.84 Z" fill="#000000" fill-rule="evenodd" fill-opacity="1" /><path clip-path="url(#clip900)" d="M933.738 828.543 L933.738 835.591 Q930.578 833.971 927.176 833.161 Q923.773 832.351 920.127 832.351 Q914.577 832.351 911.782 834.052 Q909.028 835.753 909.028 839.156 Q909.028 841.749 911.013 843.247 Q912.997 844.706 918.993 846.043 L921.545 846.61 Q929.485 848.311 932.806 851.43 Q936.169 854.509 936.169 860.059 Q936.169 866.378 931.145 870.064 Q926.163 873.751 917.413 873.751 Q913.767 873.751 909.797 873.022 Q905.868 872.333 901.493 870.915 L901.493 863.218 Q905.625 865.365 909.635 866.459 Q913.646 867.512 917.575 867.512 Q922.841 867.512 925.677 865.73 Q928.512 863.907 928.512 860.626 Q928.512 857.588 926.446 855.967 Q924.421 854.347 917.494 852.848 L914.901 852.24 Q907.974 850.782 904.896 847.784 Q901.817 844.746 901.817 839.48 Q901.817 833.08 906.354 829.596 Q910.891 826.112 919.236 826.112 Q923.368 826.112 927.014 826.72 Q930.659 827.327 933.738 828.543 Z" fill="#000000" fill-rule="evenodd" fill-opacity="1" /><path clip-path="url(#clip900)" d="M976.961 828.543 L976.961 835.591 Q973.802 833.971 970.399 833.161 Q966.996 832.351 963.35 832.351 Q957.8 832.351 955.005 834.052 Q952.251 835.753 952.251 839.156 Q952.251 841.749 954.236 843.247 Q956.221 844.706 962.216 846.043 L964.768 846.61 Q972.708 848.311 976.03 851.43 Q979.392 854.509 979.392 860.059 Q979.392 866.378 974.369 870.064 Q969.386 873.751 960.636 873.751 Q956.99 873.751 953.02 873.022 Q949.091 872.333 944.716 870.915 L944.716 863.218 Q948.848 865.365 952.858 866.459 Q956.869 867.512 960.798 867.512 Q966.064 867.512 968.9 865.73 Q971.736 863.907 971.736 860.626 Q971.736 857.588 969.67 855.967 Q967.644 854.347 960.717 852.848 L958.125 852.24 Q951.197 850.782 948.119 847.784 Q945.04 844.746 945.04 839.48 Q945.04 833.08 949.577 829.596 Q954.114 826.112 962.459 826.112 Q966.591 826.112 970.237 826.72 Q973.883 827.327 976.961 828.543 Z" fill="#000000" fill-rule="evenodd" fill-opacity="1" /><path clip-path="url(#clip900)" d="M1008.84 832.432 Q1002.85 832.432 999.363 837.131 Q995.879 841.789 995.879 849.931 Q995.879 858.074 999.322 862.773 Q1002.81 867.431 1008.84 867.431 Q1014.8 867.431 1018.28 862.732 Q1021.76 858.033 1021.76 849.931 Q1021.76 841.87 1018.28 837.171 Q1014.8 832.432 1008.84 832.432 M1008.84 826.112 Q1018.56 826.112 1024.11 832.432 Q1029.66 838.751 1029.66 849.931 Q1029.66 861.071 1024.11 867.431 Q1018.56 873.751 1008.84 873.751 Q999.079 873.751 993.529 867.431 Q988.02 861.071 988.02 849.931 Q988.02 838.751 993.529 832.432 Q999.079 826.112 1008.84 826.112 Z" fill="#000000" fill-rule="evenodd" fill-opacity="1" /><path clip-path="url(#clip900)" d="M1068.31 834.173 Q1067.05 833.444 1065.55 833.12 Q1064.1 832.756 1062.31 832.756 Q1055.99 832.756 1052.59 836.888 Q1049.23 840.979 1049.23 848.676 L1049.23 872.576 L1041.74 872.576 L1041.74 827.206 L1049.23 827.206 L1049.23 834.254 Q1051.58 830.123 1055.35 828.138 Q1059.11 826.112 1064.5 826.112 Q1065.27 826.112 1066.2 826.234 Q1067.13 826.315 1068.27 826.517 L1068.31 834.173 Z" fill="#000000" fill-rule="evenodd" fill-opacity="1" /><polyline clip-path="url(#clip904)" style="stroke:#ffa500; stroke-linecap:round; stroke-linejoin:round; stroke-width:4; stroke-opacity:1; fill:none" points="
  221.545,1295.56 321.999,1316.22 422.453,1348.51 522.908,1342.84 623.362,1340.72 723.816,1227.95 824.27,1410.27 924.725,1314.08 1025.18,1470.51 1125.63,1316.94 
  
  "/>
<polyline clip-path="url(#clip904)" style="stroke:#ffa500; stroke-linecap:round; stroke-linejoin:round; stroke-width:4; stroke-opacity:1; fill:none" points="
  221.545,1007.01 321.999,1027.67 422.453,1059.97 522.908,1054.3 623.362,1052.17 723.816,939.405 824.27,1121.73 924.725,1025.54 1025.18,1181.97 1125.63,1028.39 
  
  "/>
</svg>
