<?xml version="1.0" encoding="utf-8"?>
<svg xmlns="http://www.w3.org/2000/svg" xmlns:xlink="http://www.w3.org/1999/xlink" width="600" height="400" viewBox="0 0 2400 1600">
<defs>
  <clipPath id="clip780">
    <rect x="0" y="0" width="2400" height="1600"/>
  </clipPath>
</defs>
<path clip-path="url(#clip780)" d="
M0 1600 L2400 1600 L2400 0 L0 0  Z
  " fill="#ffffff" fill-rule="evenodd" fill-opacity="1"/>
<defs>
  <clipPath id="clip781">
    <rect x="480" y="0" width="1681" height="1600"/>
  </clipPath>
</defs>
<path clip-path="url(#clip780)" d="
M194.422 1486.45 L2352.76 1486.45 L2352.76 123.472 L194.422 123.472  Z
  " fill="#ffffff" fill-rule="evenodd" fill-opacity="1"/>
<defs>
  <clipPath id="clip782">
    <rect x="194" y="123" width="2159" height="1364"/>
  </clipPath>
</defs>
<polyline clip-path="url(#clip782)" style="stroke:#000000; stroke-linecap:round; stroke-linejoin:round; stroke-width:2; stroke-opacity:0.1; fill:none" points="
  481.747,1486.45 481.747,123.472 
  "/>
<polyline clip-path="url(#clip782)" style="stroke:#000000; stroke-linecap:round; stroke-linejoin:round; stroke-width:2; stroke-opacity:0.1; fill:none" points="
  934.228,1486.45 934.228,123.472 
  "/>
<polyline clip-path="url(#clip782)" style="stroke:#000000; stroke-linecap:round; stroke-linejoin:round; stroke-width:2; stroke-opacity:0.1; fill:none" points="
  1386.71,1486.45 1386.71,123.472 
  "/>
<polyline clip-path="url(#clip782)" style="stroke:#000000; stroke-linecap:round; stroke-linejoin:round; stroke-width:2; stroke-opacity:0.1; fill:none" points="
  1839.19,1486.45 1839.19,123.472 
  "/>
<polyline clip-path="url(#clip782)" style="stroke:#000000; stroke-linecap:round; stroke-linejoin:round; stroke-width:2; stroke-opacity:0.1; fill:none" points="
  2291.67,1486.45 2291.67,123.472 
  "/>
<polyline clip-path="url(#clip780)" style="stroke:#000000; stroke-linecap:round; stroke-linejoin:round; stroke-width:4; stroke-opacity:1; fill:none" points="
  194.422,1486.45 2352.76,1486.45 
  "/>
<polyline clip-path="url(#clip780)" style="stroke:#000000; stroke-linecap:round; stroke-linejoin:round; stroke-width:4; stroke-opacity:1; fill:none" points="
  481.747,1486.45 481.747,1467.55 
  "/>
<polyline clip-path="url(#clip780)" style="stroke:#000000; stroke-linecap:round; stroke-linejoin:round; stroke-width:4; stroke-opacity:1; fill:none" points="
  934.228,1486.45 934.228,1467.55 
  "/>
<polyline clip-path="url(#clip780)" style="stroke:#000000; stroke-linecap:round; stroke-linejoin:round; stroke-width:4; stroke-opacity:1; fill:none" points="
  1386.71,1486.45 1386.71,1467.55 
  "/>
<polyline clip-path="url(#clip780)" style="stroke:#000000; stroke-linecap:round; stroke-linejoin:round; stroke-width:4; stroke-opacity:1; fill:none" points="
  1839.19,1486.45 1839.19,1467.55 
  "/>
<polyline clip-path="url(#clip780)" style="stroke:#000000; stroke-linecap:round; stroke-linejoin:round; stroke-width:4; stroke-opacity:1; fill:none" points="
  2291.67,1486.45 2291.67,1467.55 
  "/>
<path clip-path="url(#clip780)" d="M476.4 1544.91 L492.72 1544.91 L492.72 1548.85 L470.775 1548.85 L470.775 1544.91 Q473.437 1542.16 478.021 1537.53 Q482.627 1532.88 483.808 1531.53 Q486.053 1529.01 486.933 1527.27 Q487.835 1525.51 487.835 1523.82 Q487.835 1521.07 485.891 1519.33 Q483.97 1517.6 480.868 1517.6 Q478.669 1517.6 476.215 1518.36 Q473.785 1519.13 471.007 1520.68 L471.007 1515.95 Q473.831 1514.82 476.285 1514.24 Q478.738 1513.66 480.775 1513.66 Q486.146 1513.66 489.34 1516.35 Q492.534 1519.03 492.534 1523.52 Q492.534 1525.65 491.724 1527.57 Q490.937 1529.47 488.831 1532.07 Q488.252 1532.74 485.15 1535.95 Q482.048 1539.15 476.4 1544.91 Z" fill="#000000" fill-rule="evenodd" fill-opacity="1" /><path clip-path="url(#clip780)" d="M937.238 1518.36 L925.432 1536.81 L937.238 1536.81 L937.238 1518.36 M936.011 1514.29 L941.89 1514.29 L941.89 1536.81 L946.821 1536.81 L946.821 1540.7 L941.89 1540.7 L941.89 1548.85 L937.238 1548.85 L937.238 1540.7 L921.636 1540.7 L921.636 1536.19 L936.011 1514.29 Z" fill="#000000" fill-rule="evenodd" fill-opacity="1" /><path clip-path="url(#clip780)" d="M1387.11 1529.7 Q1383.97 1529.7 1382.11 1531.86 Q1380.29 1534.01 1380.29 1537.76 Q1380.29 1541.49 1382.11 1543.66 Q1383.97 1545.82 1387.11 1545.82 Q1390.26 1545.82 1392.09 1543.66 Q1393.94 1541.49 1393.94 1537.76 Q1393.94 1534.01 1392.09 1531.86 Q1390.26 1529.7 1387.11 1529.7 M1396.4 1515.05 L1396.4 1519.31 Q1394.64 1518.48 1392.83 1518.04 Q1391.05 1517.6 1389.29 1517.6 Q1384.66 1517.6 1382.21 1520.72 Q1379.78 1523.85 1379.43 1530.17 Q1380.79 1528.15 1382.86 1527.09 Q1384.92 1526 1387.39 1526 Q1392.6 1526 1395.61 1529.17 Q1398.64 1532.32 1398.64 1537.76 Q1398.64 1543.08 1395.49 1546.3 Q1392.35 1549.52 1387.11 1549.52 Q1381.12 1549.52 1377.95 1544.94 Q1374.78 1540.33 1374.78 1531.6 Q1374.78 1523.41 1378.67 1518.55 Q1382.55 1513.66 1389.11 1513.66 Q1390.86 1513.66 1392.65 1514.01 Q1394.45 1514.36 1396.4 1515.05 Z" fill="#000000" fill-rule="evenodd" fill-opacity="1" /><path clip-path="url(#clip780)" d="M1839.19 1532.44 Q1835.86 1532.44 1833.94 1534.22 Q1832.04 1536 1832.04 1539.13 Q1832.04 1542.25 1833.94 1544.03 Q1835.86 1545.82 1839.19 1545.82 Q1842.52 1545.82 1844.44 1544.03 Q1846.37 1542.23 1846.37 1539.13 Q1846.37 1536 1844.44 1534.22 Q1842.55 1532.44 1839.19 1532.44 M1834.51 1530.45 Q1831.5 1529.7 1829.82 1527.64 Q1828.15 1525.58 1828.15 1522.62 Q1828.15 1518.48 1831.09 1516.07 Q1834.05 1513.66 1839.19 1513.66 Q1844.35 1513.66 1847.29 1516.07 Q1850.23 1518.48 1850.23 1522.62 Q1850.23 1525.58 1848.54 1527.64 Q1846.88 1529.7 1843.89 1530.45 Q1847.27 1531.23 1849.14 1533.52 Q1851.04 1535.82 1851.04 1539.13 Q1851.04 1544.15 1847.96 1546.83 Q1844.91 1549.52 1839.19 1549.52 Q1833.47 1549.52 1830.39 1546.83 Q1827.34 1544.15 1827.34 1539.13 Q1827.34 1535.82 1829.24 1533.52 Q1831.13 1531.23 1834.51 1530.45 M1832.8 1523.06 Q1832.8 1525.75 1834.47 1527.25 Q1836.16 1528.76 1839.19 1528.76 Q1842.2 1528.76 1843.89 1527.25 Q1845.6 1525.75 1845.6 1523.06 Q1845.6 1520.38 1843.89 1518.87 Q1842.2 1517.37 1839.19 1517.37 Q1836.16 1517.37 1834.47 1518.87 Q1832.8 1520.38 1832.8 1523.06 Z" fill="#000000" fill-rule="evenodd" fill-opacity="1" /><path clip-path="url(#clip780)" d="M2266.36 1544.91 L2274 1544.91 L2274 1518.55 L2265.69 1520.21 L2265.69 1515.95 L2273.95 1514.29 L2278.63 1514.29 L2278.63 1544.91 L2286.27 1544.91 L2286.27 1548.85 L2266.36 1548.85 L2266.36 1544.91 Z" fill="#000000" fill-rule="evenodd" fill-opacity="1" /><path clip-path="url(#clip780)" d="M2305.71 1517.37 Q2302.1 1517.37 2300.27 1520.93 Q2298.46 1524.47 2298.46 1531.6 Q2298.46 1538.71 2300.27 1542.27 Q2302.1 1545.82 2305.71 1545.82 Q2309.34 1545.82 2311.15 1542.27 Q2312.98 1538.71 2312.98 1531.6 Q2312.98 1524.47 2311.15 1520.93 Q2309.34 1517.37 2305.71 1517.37 M2305.71 1513.66 Q2311.52 1513.66 2314.58 1518.27 Q2317.65 1522.85 2317.65 1531.6 Q2317.65 1540.33 2314.58 1544.94 Q2311.52 1549.52 2305.71 1549.52 Q2299.9 1549.52 2296.82 1544.94 Q2293.77 1540.33 2293.77 1531.6 Q2293.77 1522.85 2296.82 1518.27 Q2299.9 1513.66 2305.71 1513.66 Z" fill="#000000" fill-rule="evenodd" fill-opacity="1" /><polyline clip-path="url(#clip782)" style="stroke:#000000; stroke-linecap:round; stroke-linejoin:round; stroke-width:2; stroke-opacity:0.1; fill:none" points="
  194.422,1261.56 2352.76,1261.56 
  "/>
<polyline clip-path="url(#clip782)" style="stroke:#000000; stroke-linecap:round; stroke-linejoin:round; stroke-width:2; stroke-opacity:0.1; fill:none" points="
  194.422,969.305 2352.76,969.305 
  "/>
<polyline clip-path="url(#clip782)" style="stroke:#000000; stroke-linecap:round; stroke-linejoin:round; stroke-width:2; stroke-opacity:0.1; fill:none" points="
  194.422,677.053 2352.76,677.053 
  "/>
<polyline clip-path="url(#clip782)" style="stroke:#000000; stroke-linecap:round; stroke-linejoin:round; stroke-width:2; stroke-opacity:0.1; fill:none" points="
  194.422,384.801 2352.76,384.801 
  "/>
<polyline clip-path="url(#clip780)" style="stroke:#000000; stroke-linecap:round; stroke-linejoin:round; stroke-width:4; stroke-opacity:1; fill:none" points="
  194.422,1486.45 194.422,123.472 
  "/>
<polyline clip-path="url(#clip780)" style="stroke:#000000; stroke-linecap:round; stroke-linejoin:round; stroke-width:4; stroke-opacity:1; fill:none" points="
  194.422,1261.56 213.32,1261.56 
  "/>
<polyline clip-path="url(#clip780)" style="stroke:#000000; stroke-linecap:round; stroke-linejoin:round; stroke-width:4; stroke-opacity:1; fill:none" points="
  194.422,969.305 213.32,969.305 
  "/>
<polyline clip-path="url(#clip780)" style="stroke:#000000; stroke-linecap:round; stroke-linejoin:round; stroke-width:4; stroke-opacity:1; fill:none" points="
  194.422,677.053 213.32,677.053 
  "/>
<polyline clip-path="url(#clip780)" style="stroke:#000000; stroke-linecap:round; stroke-linejoin:round; stroke-width:4; stroke-opacity:1; fill:none" points="
  194.422,384.801 213.32,384.801 
  "/>
<path clip-path="url(#clip780)" d="M50.9921 1262.01 L80.6679 1262.01 L80.6679 1265.94 L50.9921 1265.94 L50.9921 1262.01 Z" fill="#000000" fill-rule="evenodd" fill-opacity="1" /><path clip-path="url(#clip780)" d="M100.76 1247.36 Q97.1493 1247.36 95.3206 1250.92 Q93.515 1254.46 93.515 1261.59 Q93.515 1268.7 95.3206 1272.26 Q97.1493 1275.81 100.76 1275.81 Q104.395 1275.81 106.2 1272.26 Q108.029 1268.7 108.029 1261.59 Q108.029 1254.46 106.2 1250.92 Q104.395 1247.36 100.76 1247.36 M100.76 1243.65 Q106.571 1243.65 109.626 1248.26 Q112.705 1252.84 112.705 1261.59 Q112.705 1270.32 109.626 1274.93 Q106.571 1279.51 100.76 1279.51 Q94.9502 1279.51 91.8715 1274.93 Q88.816 1270.32 88.816 1261.59 Q88.816 1252.84 91.8715 1248.26 Q94.9502 1243.65 100.76 1243.65 Z" fill="#000000" fill-rule="evenodd" fill-opacity="1" /><path clip-path="url(#clip780)" d="M120.922 1272.96 L125.807 1272.96 L125.807 1278.84 L120.922 1278.84 L120.922 1272.96 Z" fill="#000000" fill-rule="evenodd" fill-opacity="1" /><path clip-path="url(#clip780)" d="M148.839 1248.35 L137.033 1266.8 L148.839 1266.8 L148.839 1248.35 M147.612 1244.28 L153.492 1244.28 L153.492 1266.8 L158.422 1266.8 L158.422 1270.69 L153.492 1270.69 L153.492 1278.84 L148.839 1278.84 L148.839 1270.69 L133.237 1270.69 L133.237 1266.18 L147.612 1244.28 Z" fill="#000000" fill-rule="evenodd" fill-opacity="1" /><path clip-path="url(#clip780)" d="M53.0754 969.757 L82.7512 969.757 L82.7512 973.692 L53.0754 973.692 L53.0754 969.757 Z" fill="#000000" fill-rule="evenodd" fill-opacity="1" /><path clip-path="url(#clip780)" d="M102.844 955.104 Q99.2326 955.104 97.4039 958.669 Q95.5984 962.211 95.5984 969.34 Q95.5984 976.447 97.4039 980.011 Q99.2326 983.553 102.844 983.553 Q106.478 983.553 108.283 980.011 Q110.112 976.447 110.112 969.34 Q110.112 962.211 108.283 958.669 Q106.478 955.104 102.844 955.104 M102.844 951.4 Q108.654 951.4 111.709 956.007 Q114.788 960.59 114.788 969.34 Q114.788 978.067 111.709 982.673 Q108.654 987.257 102.844 987.257 Q97.0335 987.257 93.9549 982.673 Q90.8993 978.067 90.8993 969.34 Q90.8993 960.59 93.9549 956.007 Q97.0335 951.4 102.844 951.4 Z" fill="#000000" fill-rule="evenodd" fill-opacity="1" /><path clip-path="url(#clip780)" d="M123.006 980.706 L127.89 980.706 L127.89 986.585 L123.006 986.585 L123.006 980.706 Z" fill="#000000" fill-rule="evenodd" fill-opacity="1" /><path clip-path="url(#clip780)" d="M142.103 982.65 L158.422 982.65 L158.422 986.585 L136.478 986.585 L136.478 982.65 Q139.14 979.896 143.723 975.266 Q148.33 970.613 149.51 969.271 Q151.755 966.748 152.635 965.011 Q153.538 963.252 153.538 961.562 Q153.538 958.808 151.593 957.072 Q149.672 955.336 146.57 955.336 Q144.371 955.336 141.918 956.1 Q139.487 956.863 136.709 958.414 L136.709 953.692 Q139.533 952.558 141.987 951.979 Q144.441 951.4 146.478 951.4 Q151.848 951.4 155.042 954.086 Q158.237 956.771 158.237 961.262 Q158.237 963.391 157.427 965.312 Q156.64 967.211 154.533 969.803 Q153.955 970.474 150.853 973.692 Q147.751 976.886 142.103 982.65 Z" fill="#000000" fill-rule="evenodd" fill-opacity="1" /><path clip-path="url(#clip780)" d="M101.246 662.852 Q97.6354 662.852 95.8067 666.417 Q94.0012 669.958 94.0012 677.088 Q94.0012 684.194 95.8067 687.759 Q97.6354 691.301 101.246 691.301 Q104.881 691.301 106.686 687.759 Q108.515 684.194 108.515 677.088 Q108.515 669.958 106.686 666.417 Q104.881 662.852 101.246 662.852 M101.246 659.148 Q107.057 659.148 110.112 663.754 Q113.191 668.338 113.191 677.088 Q113.191 685.815 110.112 690.421 Q107.057 695.004 101.246 695.004 Q95.4363 695.004 92.3576 690.421 Q89.3021 685.815 89.3021 677.088 Q89.3021 668.338 92.3576 663.754 Q95.4363 659.148 101.246 659.148 Z" fill="#000000" fill-rule="evenodd" fill-opacity="1" /><path clip-path="url(#clip780)" d="M121.408 688.453 L126.293 688.453 L126.293 694.333 L121.408 694.333 L121.408 688.453 Z" fill="#000000" fill-rule="evenodd" fill-opacity="1" /><path clip-path="url(#clip780)" d="M146.478 662.852 Q142.867 662.852 141.038 666.417 Q139.232 669.958 139.232 677.088 Q139.232 684.194 141.038 687.759 Q142.867 691.301 146.478 691.301 Q150.112 691.301 151.918 687.759 Q153.746 684.194 153.746 677.088 Q153.746 669.958 151.918 666.417 Q150.112 662.852 146.478 662.852 M146.478 659.148 Q152.288 659.148 155.343 663.754 Q158.422 668.338 158.422 677.088 Q158.422 685.815 155.343 690.421 Q152.288 695.004 146.478 695.004 Q140.668 695.004 137.589 690.421 Q134.533 685.815 134.533 677.088 Q134.533 668.338 137.589 663.754 Q140.668 659.148 146.478 659.148 Z" fill="#000000" fill-rule="evenodd" fill-opacity="1" /><path clip-path="url(#clip780)" d="M102.844 370.599 Q99.2326 370.599 97.4039 374.164 Q95.5984 377.706 95.5984 384.835 Q95.5984 391.942 97.4039 395.507 Q99.2326 399.048 102.844 399.048 Q106.478 399.048 108.283 395.507 Q110.112 391.942 110.112 384.835 Q110.112 377.706 108.283 374.164 Q106.478 370.599 102.844 370.599 M102.844 366.896 Q108.654 366.896 111.709 371.502 Q114.788 376.085 114.788 384.835 Q114.788 393.562 111.709 398.169 Q108.654 402.752 102.844 402.752 Q97.0335 402.752 93.9549 398.169 Q90.8993 393.562 90.8993 384.835 Q90.8993 376.085 93.9549 371.502 Q97.0335 366.896 102.844 366.896 Z" fill="#000000" fill-rule="evenodd" fill-opacity="1" /><path clip-path="url(#clip780)" d="M123.006 396.201 L127.89 396.201 L127.89 402.081 L123.006 402.081 L123.006 396.201 Z" fill="#000000" fill-rule="evenodd" fill-opacity="1" /><path clip-path="url(#clip780)" d="M142.103 398.145 L158.422 398.145 L158.422 402.081 L136.478 402.081 L136.478 398.145 Q139.14 395.391 143.723 390.761 Q148.33 386.108 149.51 384.766 Q151.755 382.243 152.635 380.507 Q153.538 378.747 153.538 377.058 Q153.538 374.303 151.593 372.567 Q149.672 370.831 146.57 370.831 Q144.371 370.831 141.918 371.595 Q139.487 372.359 136.709 373.909 L136.709 369.187 Q139.533 368.053 141.987 367.474 Q144.441 366.896 146.478 366.896 Q151.848 366.896 155.042 369.581 Q158.237 372.266 158.237 376.757 Q158.237 378.886 157.427 380.808 Q156.64 382.706 154.533 385.298 Q153.955 385.97 150.853 389.187 Q147.751 392.382 142.103 398.145 Z" fill="#000000" fill-rule="evenodd" fill-opacity="1" /><path clip-path="url(#clip780)" d="M775.672 14.0809 L775.672 22.0612 Q771.014 19.8332 766.882 18.7395 Q762.75 17.6457 758.901 17.6457 Q752.217 17.6457 748.572 20.2383 Q744.966 22.8309 744.966 27.611 Q744.966 31.6214 747.356 33.6873 Q749.787 35.7128 756.511 36.9686 L761.453 37.9813 Q770.608 39.7232 774.943 44.1387 Q779.318 48.5136 779.318 55.8863 Q779.318 64.6767 773.404 69.2137 Q767.53 73.7508 756.147 73.7508 Q751.853 73.7508 746.992 72.7785 Q742.171 71.8063 736.986 69.9024 L736.986 61.4765 Q741.969 64.2716 746.749 65.6895 Q751.529 67.1073 756.147 67.1073 Q763.155 67.1073 766.963 64.3527 Q770.771 61.598 770.771 56.4939 Q770.771 52.0379 768.016 49.5264 Q765.302 47.0148 759.063 45.759 L754.081 44.7868 Q744.926 42.9639 740.834 39.075 Q736.743 35.1862 736.743 28.2591 Q736.743 20.2383 742.374 15.6203 Q748.045 11.0023 757.97 11.0023 Q762.223 11.0023 766.639 11.7719 Q771.054 12.5416 775.672 14.0809 Z" fill="#000000" fill-rule="evenodd" fill-opacity="1" /><path clip-path="url(#clip780)" d="M791.754 27.2059 L799.208 27.2059 L799.208 72.576 L791.754 72.576 L791.754 27.2059 M791.754 9.54393 L799.208 9.54393 L799.208 18.9825 L791.754 18.9825 L791.754 9.54393 Z" fill="#000000" fill-rule="evenodd" fill-opacity="1" /><path clip-path="url(#clip780)" d="M850.128 35.9153 Q852.923 30.8922 856.812 28.5022 Q860.701 26.1121 865.967 26.1121 Q873.056 26.1121 876.904 31.0947 Q880.753 36.0368 880.753 45.1919 L880.753 72.576 L873.258 72.576 L873.258 45.4349 Q873.258 38.913 870.949 35.7533 Q868.64 32.5936 863.901 32.5936 Q858.108 32.5936 854.746 36.4419 Q851.384 40.2903 851.384 46.9338 L851.384 72.576 L843.889 72.576 L843.889 45.4349 Q843.889 38.8725 841.58 35.7533 Q839.271 32.5936 834.451 32.5936 Q828.739 32.5936 825.377 36.4824 Q822.014 40.3308 822.014 46.9338 L822.014 72.576 L814.52 72.576 L814.52 27.2059 L822.014 27.2059 L822.014 34.2544 Q824.567 30.082 828.131 28.0971 Q831.696 26.1121 836.598 26.1121 Q841.54 26.1121 844.983 28.6237 Q848.467 31.1352 850.128 35.9153 Z" fill="#000000" fill-rule="evenodd" fill-opacity="1" /><path clip-path="url(#clip780)" d="M902.83 65.7705 L902.83 89.8329 L895.336 89.8329 L895.336 27.2059 L902.83 27.2059 L902.83 34.0924 Q905.18 30.0415 908.744 28.0971 Q912.35 26.1121 917.332 26.1121 Q925.596 26.1121 930.741 32.6746 Q935.926 39.2371 935.926 49.9314 Q935.926 60.6258 930.741 67.1883 Q925.596 73.7508 917.332 73.7508 Q912.35 73.7508 908.744 71.8063 Q905.18 69.8214 902.83 65.7705 M928.189 49.9314 Q928.189 41.7081 924.786 37.0496 Q921.424 32.3505 915.509 32.3505 Q909.595 32.3505 906.192 37.0496 Q902.83 41.7081 902.83 49.9314 Q902.83 58.1548 906.192 62.8538 Q909.595 67.5124 915.509 67.5124 Q921.424 67.5124 924.786 62.8538 Q928.189 58.1548 928.189 49.9314 Z" fill="#000000" fill-rule="evenodd" fill-opacity="1" /><path clip-path="url(#clip780)" d="M948.281 9.54393 L955.735 9.54393 L955.735 72.576 L948.281 72.576 L948.281 9.54393 Z" fill="#000000" fill-rule="evenodd" fill-opacity="1" /><path clip-path="url(#clip780)" d="M1010.14 48.0275 L1010.14 51.6733 L975.868 51.6733 Q976.354 59.3701 980.486 63.421 Q984.658 67.4314 992.071 67.4314 Q996.365 67.4314 1000.38 66.3781 Q1004.43 65.3249 1008.4 63.2184 L1008.4 70.267 Q1004.39 71.9684 1000.17 72.8596 Q995.96 73.7508 991.626 73.7508 Q980.769 73.7508 974.409 67.4314 Q968.09 61.1119 968.09 50.3365 Q968.09 39.1965 974.085 32.6746 Q980.121 26.1121 990.33 26.1121 Q999.485 26.1121 1004.79 32.0264 Q1010.14 37.9003 1010.14 48.0275 M1002.68 45.84 Q1002.6 39.7232 999.242 36.0774 Q995.92 32.4315 990.411 32.4315 Q984.172 32.4315 980.405 35.9558 Q976.678 39.4801 976.111 45.8805 L1002.68 45.84 Z" fill="#000000" fill-rule="evenodd" fill-opacity="1" /><path clip-path="url(#clip780)" d="M1022.7 12.096 L1030.88 12.096 L1030.88 72.576 L1022.7 72.576 L1022.7 12.096 Z" fill="#000000" fill-rule="evenodd" fill-opacity="1" /><path clip-path="url(#clip780)" d="M1084.55 45.1919 L1084.55 72.576 L1077.1 72.576 L1077.1 45.4349 Q1077.1 38.994 1074.59 35.7938 Q1072.08 32.5936 1067.05 32.5936 Q1061.02 32.5936 1057.53 36.4419 Q1054.05 40.2903 1054.05 46.9338 L1054.05 72.576 L1046.56 72.576 L1046.56 27.2059 L1054.05 27.2059 L1054.05 34.2544 Q1056.72 30.163 1060.33 28.1376 Q1063.97 26.1121 1068.71 26.1121 Q1076.53 26.1121 1080.54 30.9732 Q1084.55 35.7938 1084.55 45.1919 Z" fill="#000000" fill-rule="evenodd" fill-opacity="1" /><path clip-path="url(#clip780)" d="M1129.28 34.0924 L1129.28 9.54393 L1136.73 9.54393 L1136.73 72.576 L1129.28 72.576 L1129.28 65.7705 Q1126.93 69.8214 1123.32 71.8063 Q1119.76 73.7508 1114.73 73.7508 Q1106.51 73.7508 1101.32 67.1883 Q1096.18 60.6258 1096.18 49.9314 Q1096.18 39.2371 1101.32 32.6746 Q1106.51 26.1121 1114.73 26.1121 Q1119.76 26.1121 1123.32 28.0971 Q1126.93 30.0415 1129.28 34.0924 M1103.88 49.9314 Q1103.88 58.1548 1107.24 62.8538 Q1110.64 67.5124 1116.56 67.5124 Q1122.47 67.5124 1125.87 62.8538 Q1129.28 58.1548 1129.28 49.9314 Q1129.28 41.7081 1125.87 37.0496 Q1122.47 32.3505 1116.56 32.3505 Q1110.64 32.3505 1107.24 37.0496 Q1103.88 41.7081 1103.88 49.9314 Z" fill="#000000" fill-rule="evenodd" fill-opacity="1" /><path clip-path="url(#clip780)" d="M1151.31 54.671 L1151.31 27.2059 L1158.77 27.2059 L1158.77 54.3874 Q1158.77 60.8284 1161.28 64.0691 Q1163.79 67.2693 1168.81 67.2693 Q1174.85 67.2693 1178.33 63.421 Q1181.86 59.5726 1181.86 52.9291 L1181.86 27.2059 L1189.31 27.2059 L1189.31 72.576 L1181.86 72.576 L1181.86 65.6084 Q1179.14 69.7404 1175.54 71.7658 Q1171.97 73.7508 1167.23 73.7508 Q1159.41 73.7508 1155.36 68.8897 Q1151.31 64.0286 1151.31 54.671 M1170.07 26.1121 L1170.07 26.1121 Z" fill="#000000" fill-rule="evenodd" fill-opacity="1" /><path clip-path="url(#clip780)" d="M1237.31 28.9478 L1237.31 35.9153 Q1234.15 34.1734 1230.95 33.3227 Q1227.79 32.4315 1224.55 32.4315 Q1217.3 32.4315 1213.29 37.0496 Q1209.28 41.6271 1209.28 49.9314 Q1209.28 58.2358 1213.29 62.8538 Q1217.3 67.4314 1224.55 67.4314 Q1227.79 67.4314 1230.95 66.5807 Q1234.15 65.6895 1237.31 63.9476 L1237.31 70.8341 Q1234.19 72.2924 1230.83 73.0216 Q1227.51 73.7508 1223.74 73.7508 Q1213.49 73.7508 1207.46 67.3098 Q1201.42 60.8689 1201.42 49.9314 Q1201.42 38.832 1207.5 32.472 Q1213.62 26.1121 1224.23 26.1121 Q1227.67 26.1121 1230.95 26.8413 Q1234.23 27.5299 1237.31 28.9478 Z" fill="#000000" fill-rule="evenodd" fill-opacity="1" /><path clip-path="url(#clip780)" d="M1257.65 14.324 L1257.65 27.2059 L1273 27.2059 L1273 32.9987 L1257.65 32.9987 L1257.65 57.6282 Q1257.65 63.1779 1259.15 64.7578 Q1260.69 66.3376 1265.35 66.3376 L1273 66.3376 L1273 72.576 L1265.35 72.576 Q1256.72 72.576 1253.44 69.3758 Q1250.15 66.1351 1250.15 57.6282 L1250.15 32.9987 L1244.69 32.9987 L1244.69 27.2059 L1250.15 27.2059 L1250.15 14.324 L1257.65 14.324 Z" fill="#000000" fill-rule="evenodd" fill-opacity="1" /><path clip-path="url(#clip780)" d="M1282.8 27.2059 L1290.26 27.2059 L1290.26 72.576 L1282.8 72.576 L1282.8 27.2059 M1282.8 9.54393 L1290.26 9.54393 L1290.26 18.9825 L1282.8 18.9825 L1282.8 9.54393 Z" fill="#000000" fill-rule="evenodd" fill-opacity="1" /><path clip-path="url(#clip780)" d="M1300.51 27.2059 L1308.41 27.2059 L1322.58 65.2844 L1336.76 27.2059 L1344.66 27.2059 L1327.65 72.576 L1317.52 72.576 L1300.51 27.2059 Z" fill="#000000" fill-rule="evenodd" fill-opacity="1" /><path clip-path="url(#clip780)" d="M1393.76 48.0275 L1393.76 51.6733 L1359.49 51.6733 Q1359.97 59.3701 1364.11 63.421 Q1368.28 67.4314 1375.69 67.4314 Q1379.99 67.4314 1384 66.3781 Q1388.05 65.3249 1392.02 63.2184 L1392.02 70.267 Q1388.01 71.9684 1383.79 72.8596 Q1379.58 73.7508 1375.25 73.7508 Q1364.39 73.7508 1358.03 67.4314 Q1351.71 61.1119 1351.71 50.3365 Q1351.71 39.1965 1357.71 32.6746 Q1363.74 26.1121 1373.95 26.1121 Q1383.11 26.1121 1388.41 32.0264 Q1393.76 37.9003 1393.76 48.0275 M1386.31 45.84 Q1386.22 39.7232 1382.86 36.0774 Q1379.54 32.4315 1374.03 32.4315 Q1367.79 32.4315 1364.03 35.9558 Q1360.3 39.4801 1359.73 45.8805 L1386.31 45.84 Z" fill="#000000" fill-rule="evenodd" fill-opacity="1" /><path clip-path="url(#clip780)" d="M1435 44.2197 Q1437.63 45.1109 1440.1 48.0275 Q1442.61 50.9442 1445.12 56.0483 L1453.43 72.576 L1444.64 72.576 L1436.9 57.061 Q1433.9 50.9847 1431.07 48.9997 Q1428.27 47.0148 1423.41 47.0148 L1414.5 47.0148 L1414.5 72.576 L1406.32 72.576 L1406.32 12.096 L1424.79 12.096 Q1435.16 12.096 1440.26 16.4305 Q1445.37 20.7649 1445.37 29.5149 Q1445.37 35.2267 1442.69 38.994 Q1440.06 42.7613 1435 44.2197 M1414.5 18.8205 L1414.5 40.2903 L1424.79 40.2903 Q1430.7 40.2903 1433.7 37.5762 Q1436.74 34.8216 1436.74 29.5149 Q1436.74 24.2082 1433.7 21.5346 Q1430.7 18.8205 1424.79 18.8205 L1414.5 18.8205 Z" fill="#000000" fill-rule="evenodd" fill-opacity="1" /><path clip-path="url(#clip780)" d="M1498.72 48.0275 L1498.72 51.6733 L1464.45 51.6733 Q1464.93 59.3701 1469.07 63.421 Q1473.24 67.4314 1480.65 67.4314 Q1484.94 67.4314 1488.96 66.3781 Q1493.01 65.3249 1496.98 63.2184 L1496.98 70.267 Q1492.97 71.9684 1488.75 72.8596 Q1484.54 73.7508 1480.21 73.7508 Q1469.35 73.7508 1462.99 67.4314 Q1456.67 61.1119 1456.67 50.3365 Q1456.67 39.1965 1462.66 32.6746 Q1468.7 26.1121 1478.91 26.1121 Q1488.06 26.1121 1493.37 32.0264 Q1498.72 37.9003 1498.72 48.0275 M1491.26 45.84 Q1491.18 39.7232 1487.82 36.0774 Q1484.5 32.4315 1478.99 32.4315 Q1472.75 32.4315 1468.98 35.9558 Q1465.26 39.4801 1464.69 45.8805 L1491.26 45.84 Z" fill="#000000" fill-rule="evenodd" fill-opacity="1" /><path clip-path="url(#clip780)" d="M1540.81 49.3643 Q1540.81 41.2625 1537.44 36.8065 Q1534.12 32.3505 1528.09 32.3505 Q1522.09 32.3505 1518.73 36.8065 Q1515.41 41.2625 1515.41 49.3643 Q1515.41 57.4256 1518.73 61.8816 Q1522.09 66.3376 1528.09 66.3376 Q1534.12 66.3376 1537.44 61.8816 Q1540.81 57.4256 1540.81 49.3643 M1548.26 66.9452 Q1548.26 78.5308 1543.12 84.1616 Q1537.97 89.8329 1527.36 89.8329 Q1523.43 89.8329 1519.94 89.2252 Q1516.46 88.6581 1513.18 87.4428 L1513.18 80.1917 Q1516.46 81.9741 1519.66 82.8248 Q1522.86 83.6755 1526.18 83.6755 Q1533.52 83.6755 1537.16 79.8271 Q1540.81 76.0193 1540.81 68.282 L1540.81 64.5957 Q1538.5 68.6061 1534.89 70.5911 Q1531.29 72.576 1526.26 72.576 Q1517.92 72.576 1512.82 66.2161 Q1507.71 59.8562 1507.71 49.3643 Q1507.71 38.832 1512.82 32.472 Q1517.92 26.1121 1526.26 26.1121 Q1531.29 26.1121 1534.89 28.0971 Q1538.5 30.082 1540.81 34.0924 L1540.81 27.2059 L1548.26 27.2059 L1548.26 66.9452 Z" fill="#000000" fill-rule="evenodd" fill-opacity="1" /><path clip-path="url(#clip780)" d="M1589.9 34.1734 Q1588.65 33.4443 1587.15 33.1202 Q1585.69 32.7556 1583.91 32.7556 Q1577.59 32.7556 1574.19 36.8875 Q1570.82 40.9789 1570.82 48.6757 L1570.82 72.576 L1563.33 72.576 L1563.33 27.2059 L1570.82 27.2059 L1570.82 34.2544 Q1573.17 30.1225 1576.94 28.1376 Q1580.71 26.1121 1586.1 26.1121 Q1586.87 26.1121 1587.8 26.2337 Q1588.73 26.3147 1589.86 26.5172 L1589.9 34.1734 Z" fill="#000000" fill-rule="evenodd" fill-opacity="1" /><path clip-path="url(#clip780)" d="M1634.71 48.0275 L1634.71 51.6733 L1600.44 51.6733 Q1600.92 59.3701 1605.05 63.421 Q1609.23 67.4314 1616.64 67.4314 Q1620.93 67.4314 1624.94 66.3781 Q1629 65.3249 1632.96 63.2184 L1632.96 70.267 Q1628.95 71.9684 1624.74 72.8596 Q1620.53 73.7508 1616.19 73.7508 Q1605.34 73.7508 1598.98 67.4314 Q1592.66 61.1119 1592.66 50.3365 Q1592.66 39.1965 1598.65 32.6746 Q1604.69 26.1121 1614.9 26.1121 Q1624.05 26.1121 1629.36 32.0264 Q1634.71 37.9003 1634.71 48.0275 M1627.25 45.84 Q1627.17 39.7232 1623.81 36.0774 Q1620.49 32.4315 1614.98 32.4315 Q1608.74 32.4315 1604.97 35.9558 Q1601.25 39.4801 1600.68 45.8805 L1627.25 45.84 Z" fill="#000000" fill-rule="evenodd" fill-opacity="1" /><path clip-path="url(#clip780)" d="M1675.86 28.5427 L1675.86 35.5912 Q1672.7 33.9709 1669.3 33.1607 Q1665.9 32.3505 1662.25 32.3505 Q1656.7 32.3505 1653.91 34.0519 Q1651.15 35.7533 1651.15 39.156 Q1651.15 41.7486 1653.14 43.2475 Q1655.12 44.7058 1661.12 46.0426 L1663.67 46.6097 Q1671.61 48.3111 1674.93 51.4303 Q1678.29 54.509 1678.29 60.0587 Q1678.29 66.3781 1673.27 70.0644 Q1668.29 73.7508 1659.54 73.7508 Q1655.89 73.7508 1651.92 73.0216 Q1647.99 72.3329 1643.62 70.9151 L1643.62 63.2184 Q1647.75 65.3654 1651.76 66.4591 Q1655.77 67.5124 1659.7 67.5124 Q1664.97 67.5124 1667.8 65.73 Q1670.64 63.9071 1670.64 60.6258 Q1670.64 57.5877 1668.57 55.9673 Q1666.55 54.3469 1659.62 52.8481 L1657.03 52.2405 Q1650.1 50.7821 1647.02 47.7845 Q1643.94 44.7463 1643.94 39.4801 Q1643.94 33.0797 1648.48 29.5959 Q1653.02 26.1121 1661.36 26.1121 Q1665.49 26.1121 1669.14 26.7198 Q1672.79 27.3274 1675.86 28.5427 Z" fill="#000000" fill-rule="evenodd" fill-opacity="1" /><path clip-path="url(#clip780)" d="M1719.09 28.5427 L1719.09 35.5912 Q1715.93 33.9709 1712.52 33.1607 Q1709.12 32.3505 1705.48 32.3505 Q1699.93 32.3505 1697.13 34.0519 Q1694.38 35.7533 1694.38 39.156 Q1694.38 41.7486 1696.36 43.2475 Q1698.35 44.7058 1704.34 46.0426 L1706.89 46.6097 Q1714.83 48.3111 1718.16 51.4303 Q1721.52 54.509 1721.52 60.0587 Q1721.52 66.3781 1716.49 70.0644 Q1711.51 73.7508 1702.76 73.7508 Q1699.12 73.7508 1695.15 73.0216 Q1691.22 72.3329 1686.84 70.9151 L1686.84 63.2184 Q1690.97 65.3654 1694.98 66.4591 Q1698.99 67.5124 1702.92 67.5124 Q1708.19 67.5124 1711.03 65.73 Q1713.86 63.9071 1713.86 60.6258 Q1713.86 57.5877 1711.8 55.9673 Q1709.77 54.3469 1702.84 52.8481 L1700.25 52.2405 Q1693.32 50.7821 1690.24 47.7845 Q1687.17 44.7463 1687.17 39.4801 Q1687.17 33.0797 1691.7 29.5959 Q1696.24 26.1121 1704.58 26.1121 Q1708.72 26.1121 1712.36 26.7198 Q1716.01 27.3274 1719.09 28.5427 Z" fill="#000000" fill-rule="evenodd" fill-opacity="1" /><path clip-path="url(#clip780)" d="M1750.97 32.4315 Q1744.97 32.4315 1741.49 37.1306 Q1738 41.7891 1738 49.9314 Q1738 58.0738 1741.45 62.7728 Q1744.93 67.4314 1750.97 67.4314 Q1756.92 67.4314 1760.41 62.7323 Q1763.89 58.0333 1763.89 49.9314 Q1763.89 41.8701 1760.41 37.1711 Q1756.92 32.4315 1750.97 32.4315 M1750.97 26.1121 Q1760.69 26.1121 1766.24 32.4315 Q1771.79 38.7509 1771.79 49.9314 Q1771.79 61.0714 1766.24 67.4314 Q1760.69 73.7508 1750.97 73.7508 Q1741.21 73.7508 1735.66 67.4314 Q1730.15 61.0714 1730.15 49.9314 Q1730.15 38.7509 1735.66 32.4315 Q1741.21 26.1121 1750.97 26.1121 Z" fill="#000000" fill-rule="evenodd" fill-opacity="1" /><path clip-path="url(#clip780)" d="M1810.44 34.1734 Q1809.18 33.4443 1807.68 33.1202 Q1806.22 32.7556 1804.44 32.7556 Q1798.12 32.7556 1794.72 36.8875 Q1791.36 40.9789 1791.36 48.6757 L1791.36 72.576 L1783.86 72.576 L1783.86 27.2059 L1791.36 27.2059 L1791.36 34.2544 Q1793.7 30.1225 1797.47 28.1376 Q1801.24 26.1121 1806.63 26.1121 Q1807.4 26.1121 1808.33 26.2337 Q1809.26 26.3147 1810.39 26.5172 L1810.44 34.1734 Z" fill="#000000" fill-rule="evenodd" fill-opacity="1" /><polyline clip-path="url(#clip782)" style="stroke:#ffa500; stroke-linecap:round; stroke-linejoin:round; stroke-width:4; stroke-opacity:1; fill:none" points="
  255.507,1145.2 481.747,909.551 707.988,1025.2 934.228,1251.83 1160.47,1099.76 1386.71,909.551 1612.95,1339.66 1839.19,1251.83 2065.43,1447.87 2291.67,1339.66 
  
  "/>
<polyline clip-path="url(#clip782)" style="stroke:#ffa500; stroke-linecap:round; stroke-linejoin:round; stroke-width:4; stroke-opacity:1; fill:none" points="
  255.507,397.699 481.747,162.047 707.988,277.694 934.228,504.323 1160.47,352.259 1386.71,162.047 1612.95,592.152 1839.19,504.323 2065.43,700.369 2291.67,592.152 
  
  "/>
</svg>
