<?xml version="1.0" encoding="utf-8"?>
<svg xmlns="http://www.w3.org/2000/svg" xmlns:xlink="http://www.w3.org/1999/xlink" width="600" height="400" viewBox="0 0 2400 1600">
<defs>
  <clipPath id="clip370">
    <rect x="0" y="0" width="2400" height="1600"/>
  </clipPath>
</defs>
<path clip-path="url(#clip370)" d="
M0 1600 L2400 1600 L2400 0 L0 0  Z
  " fill="#ffffff" fill-rule="evenodd" fill-opacity="1"/>
<defs>
  <clipPath id="clip371">
    <rect x="480" y="0" width="1681" height="1600"/>
  </clipPath>
</defs>
<path clip-path="url(#clip370)" d="
M149.191 1486.45 L2352.76 1486.45 L2352.76 123.472 L149.191 123.472  Z
  " fill="#ffffff" fill-rule="evenodd" fill-opacity="1"/>
<defs>
  <clipPath id="clip372">
    <rect x="149" y="123" width="2205" height="1364"/>
  </clipPath>
</defs>
<polyline clip-path="url(#clip372)" style="stroke:#000000; stroke-linecap:round; stroke-linejoin:round; stroke-width:2; stroke-opacity:0.1; fill:none" points="
  442.538,1486.45 442.538,123.472 
  "/>
<polyline clip-path="url(#clip372)" style="stroke:#000000; stroke-linecap:round; stroke-linejoin:round; stroke-width:2; stroke-opacity:0.1; fill:none" points="
  904.501,1486.45 904.501,123.472 
  "/>
<polyline clip-path="url(#clip372)" style="stroke:#000000; stroke-linecap:round; stroke-linejoin:round; stroke-width:2; stroke-opacity:0.1; fill:none" points="
  1366.46,1486.45 1366.46,123.472 
  "/>
<polyline clip-path="url(#clip372)" style="stroke:#000000; stroke-linecap:round; stroke-linejoin:round; stroke-width:2; stroke-opacity:0.1; fill:none" points="
  1828.43,1486.45 1828.43,123.472 
  "/>
<polyline clip-path="url(#clip372)" style="stroke:#000000; stroke-linecap:round; stroke-linejoin:round; stroke-width:2; stroke-opacity:0.1; fill:none" points="
  2290.39,1486.45 2290.39,123.472 
  "/>
<polyline clip-path="url(#clip370)" style="stroke:#000000; stroke-linecap:round; stroke-linejoin:round; stroke-width:4; stroke-opacity:1; fill:none" points="
  149.191,1486.45 2352.76,1486.45 
  "/>
<polyline clip-path="url(#clip370)" style="stroke:#000000; stroke-linecap:round; stroke-linejoin:round; stroke-width:4; stroke-opacity:1; fill:none" points="
  442.538,1486.45 442.538,1467.55 
  "/>
<polyline clip-path="url(#clip370)" style="stroke:#000000; stroke-linecap:round; stroke-linejoin:round; stroke-width:4; stroke-opacity:1; fill:none" points="
  904.501,1486.45 904.501,1467.55 
  "/>
<polyline clip-path="url(#clip370)" style="stroke:#000000; stroke-linecap:round; stroke-linejoin:round; stroke-width:4; stroke-opacity:1; fill:none" points="
  1366.46,1486.45 1366.46,1467.55 
  "/>
<polyline clip-path="url(#clip370)" style="stroke:#000000; stroke-linecap:round; stroke-linejoin:round; stroke-width:4; stroke-opacity:1; fill:none" points="
  1828.43,1486.45 1828.43,1467.55 
  "/>
<polyline clip-path="url(#clip370)" style="stroke:#000000; stroke-linecap:round; stroke-linejoin:round; stroke-width:4; stroke-opacity:1; fill:none" points="
  2290.39,1486.45 2290.39,1467.55 
  "/>
<path clip-path="url(#clip370)" d="M437.19 1544.91 L453.51 1544.91 L453.51 1548.85 L431.565 1548.85 L431.565 1544.91 Q434.227 1542.16 438.811 1537.53 Q443.417 1532.88 444.598 1531.53 Q446.843 1529.01 447.723 1527.27 Q448.626 1525.51 448.626 1523.82 Q448.626 1521.07 446.681 1519.33 Q444.76 1517.6 441.658 1517.6 Q439.459 1517.6 437.005 1518.36 Q434.575 1519.13 431.797 1520.68 L431.797 1515.95 Q434.621 1514.82 437.075 1514.24 Q439.528 1513.66 441.565 1513.66 Q446.936 1513.66 450.13 1516.35 Q453.325 1519.03 453.325 1523.52 Q453.325 1525.65 452.514 1527.57 Q451.727 1529.47 449.621 1532.07 Q449.042 1532.74 445.94 1535.95 Q442.838 1539.15 437.19 1544.91 Z" fill="#000000" fill-rule="evenodd" fill-opacity="1" /><path clip-path="url(#clip370)" d="M907.51 1518.36 L895.705 1536.81 L907.51 1536.81 L907.51 1518.36 M906.283 1514.29 L912.163 1514.29 L912.163 1536.81 L917.093 1536.81 L917.093 1540.7 L912.163 1540.7 L912.163 1548.85 L907.51 1548.85 L907.51 1540.7 L891.908 1540.7 L891.908 1536.19 L906.283 1514.29 Z" fill="#000000" fill-rule="evenodd" fill-opacity="1" /><path clip-path="url(#clip370)" d="M1366.87 1529.7 Q1363.72 1529.7 1361.87 1531.86 Q1360.04 1534.01 1360.04 1537.76 Q1360.04 1541.49 1361.87 1543.66 Q1363.72 1545.82 1366.87 1545.82 Q1370.02 1545.82 1371.85 1543.66 Q1373.7 1541.49 1373.7 1537.76 Q1373.7 1534.01 1371.85 1531.86 Q1370.02 1529.7 1366.87 1529.7 M1376.15 1515.05 L1376.15 1519.31 Q1374.39 1518.48 1372.59 1518.04 Q1370.8 1517.6 1369.05 1517.6 Q1364.42 1517.6 1361.96 1520.72 Q1359.53 1523.85 1359.18 1530.17 Q1360.55 1528.15 1362.61 1527.09 Q1364.67 1526 1367.15 1526 Q1372.36 1526 1375.36 1529.17 Q1378.4 1532.32 1378.4 1537.76 Q1378.4 1543.08 1375.25 1546.3 Q1372.1 1549.52 1366.87 1549.52 Q1360.87 1549.52 1357.7 1544.94 Q1354.53 1540.33 1354.53 1531.6 Q1354.53 1523.41 1358.42 1518.55 Q1362.31 1513.66 1368.86 1513.66 Q1370.62 1513.66 1372.4 1514.01 Q1374.21 1514.36 1376.15 1515.05 Z" fill="#000000" fill-rule="evenodd" fill-opacity="1" /><path clip-path="url(#clip370)" d="M1828.43 1532.44 Q1825.09 1532.44 1823.17 1534.22 Q1821.27 1536 1821.27 1539.13 Q1821.27 1542.25 1823.17 1544.03 Q1825.09 1545.82 1828.43 1545.82 Q1831.76 1545.82 1833.68 1544.03 Q1835.6 1542.23 1835.6 1539.13 Q1835.6 1536 1833.68 1534.22 Q1831.78 1532.44 1828.43 1532.44 M1823.75 1530.45 Q1820.74 1529.7 1819.05 1527.64 Q1817.39 1525.58 1817.39 1522.62 Q1817.39 1518.48 1820.33 1516.07 Q1823.29 1513.66 1828.43 1513.66 Q1833.59 1513.66 1836.53 1516.07 Q1839.47 1518.48 1839.47 1522.62 Q1839.47 1525.58 1837.78 1527.64 Q1836.11 1529.7 1833.13 1530.45 Q1836.51 1531.23 1838.38 1533.52 Q1840.28 1535.82 1840.28 1539.13 Q1840.28 1544.15 1837.2 1546.83 Q1834.15 1549.52 1828.43 1549.52 Q1822.71 1549.52 1819.63 1546.83 Q1816.58 1544.15 1816.58 1539.13 Q1816.58 1535.82 1818.47 1533.52 Q1820.37 1531.23 1823.75 1530.45 M1822.04 1523.06 Q1822.04 1525.75 1823.71 1527.25 Q1825.4 1528.76 1828.43 1528.76 Q1831.44 1528.76 1833.13 1527.25 Q1834.84 1525.75 1834.84 1523.06 Q1834.84 1520.38 1833.13 1518.87 Q1831.44 1517.37 1828.43 1517.37 Q1825.4 1517.37 1823.71 1518.87 Q1822.04 1520.38 1822.04 1523.06 Z" fill="#000000" fill-rule="evenodd" fill-opacity="1" /><path clip-path="url(#clip370)" d="M2265.08 1544.91 L2272.72 1544.91 L2272.72 1518.55 L2264.41 1520.21 L2264.41 1515.95 L2272.67 1514.29 L2277.35 1514.29 L2277.35 1544.91 L2284.99 1544.91 L2284.99 1548.85 L2265.08 1548.85 L2265.08 1544.91 Z" fill="#000000" fill-rule="evenodd" fill-opacity="1" /><path clip-path="url(#clip370)" d="M2304.43 1517.37 Q2300.82 1517.37 2298.99 1520.93 Q2297.18 1524.47 2297.18 1531.6 Q2297.18 1538.71 2298.99 1542.27 Q2300.82 1545.82 2304.43 1545.82 Q2308.06 1545.82 2309.87 1542.27 Q2311.7 1538.71 2311.7 1531.6 Q2311.7 1524.47 2309.87 1520.93 Q2308.06 1517.37 2304.43 1517.37 M2304.43 1513.66 Q2310.24 1513.66 2313.3 1518.27 Q2316.37 1522.85 2316.37 1531.6 Q2316.37 1540.33 2313.3 1544.94 Q2310.24 1549.52 2304.43 1549.52 Q2298.62 1549.52 2295.54 1544.94 Q2292.49 1540.33 2292.49 1531.6 Q2292.49 1522.85 2295.54 1518.27 Q2298.62 1513.66 2304.43 1513.66 Z" fill="#000000" fill-rule="evenodd" fill-opacity="1" /><polyline clip-path="url(#clip372)" style="stroke:#000000; stroke-linecap:round; stroke-linejoin:round; stroke-width:2; stroke-opacity:0.1; fill:none" points="
  149.191,1319.61 2352.76,1319.61 
  "/>
<polyline clip-path="url(#clip372)" style="stroke:#000000; stroke-linecap:round; stroke-linejoin:round; stroke-width:2; stroke-opacity:0.1; fill:none" points="
  149.191,1042.82 2352.76,1042.82 
  "/>
<polyline clip-path="url(#clip372)" style="stroke:#000000; stroke-linecap:round; stroke-linejoin:round; stroke-width:2; stroke-opacity:0.1; fill:none" points="
  149.191,766.034 2352.76,766.034 
  "/>
<polyline clip-path="url(#clip372)" style="stroke:#000000; stroke-linecap:round; stroke-linejoin:round; stroke-width:2; stroke-opacity:0.1; fill:none" points="
  149.191,489.245 2352.76,489.245 
  "/>
<polyline clip-path="url(#clip372)" style="stroke:#000000; stroke-linecap:round; stroke-linejoin:round; stroke-width:2; stroke-opacity:0.1; fill:none" points="
  149.191,212.456 2352.76,212.456 
  "/>
<polyline clip-path="url(#clip370)" style="stroke:#000000; stroke-linecap:round; stroke-linejoin:round; stroke-width:4; stroke-opacity:1; fill:none" points="
  149.191,1486.45 149.191,123.472 
  "/>
<polyline clip-path="url(#clip370)" style="stroke:#000000; stroke-linecap:round; stroke-linejoin:round; stroke-width:4; stroke-opacity:1; fill:none" points="
  149.191,1319.61 168.089,1319.61 
  "/>
<polyline clip-path="url(#clip370)" style="stroke:#000000; stroke-linecap:round; stroke-linejoin:round; stroke-width:4; stroke-opacity:1; fill:none" points="
  149.191,1042.82 168.089,1042.82 
  "/>
<polyline clip-path="url(#clip370)" style="stroke:#000000; stroke-linecap:round; stroke-linejoin:round; stroke-width:4; stroke-opacity:1; fill:none" points="
  149.191,766.034 168.089,766.034 
  "/>
<polyline clip-path="url(#clip370)" style="stroke:#000000; stroke-linecap:round; stroke-linejoin:round; stroke-width:4; stroke-opacity:1; fill:none" points="
  149.191,489.245 168.089,489.245 
  "/>
<polyline clip-path="url(#clip370)" style="stroke:#000000; stroke-linecap:round; stroke-linejoin:round; stroke-width:4; stroke-opacity:1; fill:none" points="
  149.191,212.456 168.089,212.456 
  "/>
<path clip-path="url(#clip370)" d="M50.9921 1320.06 L80.6679 1320.06 L80.6679 1324 L50.9921 1324 L50.9921 1320.06 Z" fill="#000000" fill-rule="evenodd" fill-opacity="1" /><path clip-path="url(#clip370)" d="M103.608 1306.41 L91.8021 1324.86 L103.608 1324.86 L103.608 1306.41 M102.381 1302.33 L108.26 1302.33 L108.26 1324.86 L113.191 1324.86 L113.191 1328.74 L108.26 1328.74 L108.26 1336.89 L103.608 1336.89 L103.608 1328.74 L88.0058 1328.74 L88.0058 1324.23 L102.381 1302.33 Z" fill="#000000" fill-rule="evenodd" fill-opacity="1" /><path clip-path="url(#clip370)" d="M53.0754 1043.27 L82.7512 1043.27 L82.7512 1047.21 L53.0754 1047.21 L53.0754 1043.27 Z" fill="#000000" fill-rule="evenodd" fill-opacity="1" /><path clip-path="url(#clip370)" d="M96.8715 1056.17 L113.191 1056.17 L113.191 1060.1 L91.2465 1060.1 L91.2465 1056.17 Q93.9086 1053.41 98.4919 1048.78 Q103.098 1044.13 104.279 1042.79 Q106.524 1040.27 107.404 1038.53 Q108.307 1036.77 108.307 1035.08 Q108.307 1032.33 106.362 1030.59 Q104.441 1028.85 101.339 1028.85 Q99.14 1028.85 96.6863 1029.62 Q94.2558 1030.38 91.478 1031.93 L91.478 1027.21 Q94.3021 1026.08 96.7558 1025.5 Q99.2095 1024.92 101.246 1024.92 Q106.617 1024.92 109.811 1027.6 Q113.006 1030.29 113.006 1034.78 Q113.006 1036.91 112.196 1038.83 Q111.408 1040.73 109.302 1043.32 Q108.723 1043.99 105.621 1047.21 Q102.52 1050.4 96.8715 1056.17 Z" fill="#000000" fill-rule="evenodd" fill-opacity="1" /><path clip-path="url(#clip370)" d="M101.246 751.833 Q97.6354 751.833 95.8067 755.398 Q94.0012 758.939 94.0012 766.069 Q94.0012 773.175 95.8067 776.74 Q97.6354 780.282 101.246 780.282 Q104.881 780.282 106.686 776.74 Q108.515 773.175 108.515 766.069 Q108.515 758.939 106.686 755.398 Q104.881 751.833 101.246 751.833 M101.246 748.129 Q107.057 748.129 110.112 752.736 Q113.191 757.319 113.191 766.069 Q113.191 774.796 110.112 779.402 Q107.057 783.985 101.246 783.985 Q95.4363 783.985 92.3576 779.402 Q89.3021 774.796 89.3021 766.069 Q89.3021 757.319 92.3576 752.736 Q95.4363 748.129 101.246 748.129 Z" fill="#000000" fill-rule="evenodd" fill-opacity="1" /><path clip-path="url(#clip370)" d="M96.8715 502.59 L113.191 502.59 L113.191 506.525 L91.2465 506.525 L91.2465 502.59 Q93.9086 499.835 98.4919 495.206 Q103.098 490.553 104.279 489.21 Q106.524 486.687 107.404 484.951 Q108.307 483.192 108.307 481.502 Q108.307 478.747 106.362 477.011 Q104.441 475.275 101.339 475.275 Q99.14 475.275 96.6863 476.039 Q94.2558 476.803 91.478 478.354 L91.478 473.632 Q94.3021 472.497 96.7558 471.919 Q99.2095 471.34 101.246 471.34 Q106.617 471.34 109.811 474.025 Q113.006 476.71 113.006 481.201 Q113.006 483.331 112.196 485.252 Q111.408 487.15 109.302 489.743 Q108.723 490.414 105.621 493.632 Q102.52 496.826 96.8715 502.59 Z" fill="#000000" fill-rule="evenodd" fill-opacity="1" /><path clip-path="url(#clip370)" d="M103.608 199.25 L91.8021 217.699 L103.608 217.699 L103.608 199.25 M102.381 195.176 L108.26 195.176 L108.26 217.699 L113.191 217.699 L113.191 221.588 L108.26 221.588 L108.26 229.736 L103.608 229.736 L103.608 221.588 L88.0058 221.588 L88.0058 217.074 L102.381 195.176 Z" fill="#000000" fill-rule="evenodd" fill-opacity="1" /><path clip-path="url(#clip370)" d="M753.056 14.0809 L753.056 22.0612 Q748.398 19.8332 744.266 18.7395 Q740.134 17.6457 736.286 17.6457 Q729.602 17.6457 725.956 20.2383 Q722.351 22.8309 722.351 27.611 Q722.351 31.6214 724.741 33.6873 Q727.171 35.7128 733.896 36.9686 L738.838 37.9813 Q747.993 39.7232 752.327 44.1387 Q756.702 48.5136 756.702 55.8863 Q756.702 64.6767 750.788 69.2137 Q744.914 73.7508 733.531 73.7508 Q729.237 73.7508 724.376 72.7785 Q719.556 71.8063 714.37 69.9024 L714.37 61.4765 Q719.353 64.2716 724.133 65.6895 Q728.913 67.1073 733.531 67.1073 Q740.539 67.1073 744.347 64.3527 Q748.155 61.598 748.155 56.4939 Q748.155 52.0379 745.4 49.5264 Q742.686 47.0148 736.448 45.759 L731.465 44.7868 Q722.31 42.9639 718.219 39.075 Q714.127 35.1862 714.127 28.2591 Q714.127 20.2383 719.758 15.6203 Q725.429 11.0023 735.354 11.0023 Q739.607 11.0023 744.023 11.7719 Q748.438 12.5416 753.056 14.0809 Z" fill="#000000" fill-rule="evenodd" fill-opacity="1" /><path clip-path="url(#clip370)" d="M769.139 27.2059 L776.592 27.2059 L776.592 72.576 L769.139 72.576 L769.139 27.2059 M769.139 9.54393 L776.592 9.54393 L776.592 18.9825 L769.139 18.9825 L769.139 9.54393 Z" fill="#000000" fill-rule="evenodd" fill-opacity="1" /><path clip-path="url(#clip370)" d="M827.512 35.9153 Q830.307 30.8922 834.196 28.5022 Q838.085 26.1121 843.351 26.1121 Q850.44 26.1121 854.289 31.0947 Q858.137 36.0368 858.137 45.1919 L858.137 72.576 L850.643 72.576 L850.643 45.4349 Q850.643 38.913 848.334 35.7533 Q846.025 32.5936 841.285 32.5936 Q835.492 32.5936 832.13 36.4419 Q828.768 40.2903 828.768 46.9338 L828.768 72.576 L821.274 72.576 L821.274 45.4349 Q821.274 38.8725 818.965 35.7533 Q816.656 32.5936 811.835 32.5936 Q806.123 32.5936 802.761 36.4824 Q799.399 40.3308 799.399 46.9338 L799.399 72.576 L791.905 72.576 L791.905 27.2059 L799.399 27.2059 L799.399 34.2544 Q801.951 30.082 805.516 28.0971 Q809.08 26.1121 813.982 26.1121 Q818.924 26.1121 822.367 28.6237 Q825.851 31.1352 827.512 35.9153 Z" fill="#000000" fill-rule="evenodd" fill-opacity="1" /><path clip-path="url(#clip370)" d="M880.214 65.7705 L880.214 89.8329 L872.72 89.8329 L872.72 27.2059 L880.214 27.2059 L880.214 34.0924 Q882.564 30.0415 886.129 28.0971 Q889.734 26.1121 894.717 26.1121 Q902.98 26.1121 908.125 32.6746 Q913.31 39.2371 913.31 49.9314 Q913.31 60.6258 908.125 67.1883 Q902.98 73.7508 894.717 73.7508 Q889.734 73.7508 886.129 71.8063 Q882.564 69.8214 880.214 65.7705 M905.573 49.9314 Q905.573 41.7081 902.17 37.0496 Q898.808 32.3505 892.894 32.3505 Q886.979 32.3505 883.577 37.0496 Q880.214 41.7081 880.214 49.9314 Q880.214 58.1548 883.577 62.8538 Q886.979 67.5124 892.894 67.5124 Q898.808 67.5124 902.17 62.8538 Q905.573 58.1548 905.573 49.9314 Z" fill="#000000" fill-rule="evenodd" fill-opacity="1" /><path clip-path="url(#clip370)" d="M925.666 9.54393 L933.119 9.54393 L933.119 72.576 L925.666 72.576 L925.666 9.54393 Z" fill="#000000" fill-rule="evenodd" fill-opacity="1" /><path clip-path="url(#clip370)" d="M987.523 48.0275 L987.523 51.6733 L953.252 51.6733 Q953.738 59.3701 957.87 63.421 Q962.043 67.4314 969.456 67.4314 Q973.75 67.4314 977.76 66.3781 Q981.811 65.3249 985.781 63.2184 L985.781 70.267 Q981.771 71.9684 977.558 72.8596 Q973.345 73.7508 969.01 73.7508 Q958.154 73.7508 951.794 67.4314 Q945.474 61.1119 945.474 50.3365 Q945.474 39.1965 951.47 32.6746 Q957.506 26.1121 967.714 26.1121 Q976.869 26.1121 982.176 32.0264 Q987.523 37.9003 987.523 48.0275 M980.069 45.84 Q979.988 39.7232 976.626 36.0774 Q973.304 32.4315 967.795 32.4315 Q961.557 32.4315 957.789 35.9558 Q954.062 39.4801 953.495 45.8805 L980.069 45.84 Z" fill="#000000" fill-rule="evenodd" fill-opacity="1" /><path clip-path="url(#clip370)" d="M1000.08 12.096 L1008.26 12.096 L1008.26 72.576 L1000.08 72.576 L1000.08 12.096 Z" fill="#000000" fill-rule="evenodd" fill-opacity="1" /><path clip-path="url(#clip370)" d="M1061.94 45.1919 L1061.94 72.576 L1054.48 72.576 L1054.48 45.4349 Q1054.48 38.994 1051.97 35.7938 Q1049.46 32.5936 1044.44 32.5936 Q1038.4 32.5936 1034.92 36.4419 Q1031.43 40.2903 1031.43 46.9338 L1031.43 72.576 L1023.94 72.576 L1023.94 27.2059 L1031.43 27.2059 L1031.43 34.2544 Q1034.11 30.163 1037.71 28.1376 Q1041.36 26.1121 1046.1 26.1121 Q1053.92 26.1121 1057.93 30.9732 Q1061.94 35.7938 1061.94 45.1919 Z" fill="#000000" fill-rule="evenodd" fill-opacity="1" /><path clip-path="url(#clip370)" d="M1106.66 34.0924 L1106.66 9.54393 L1114.11 9.54393 L1114.11 72.576 L1106.66 72.576 L1106.66 65.7705 Q1104.31 69.8214 1100.71 71.8063 Q1097.14 73.7508 1092.12 73.7508 Q1083.89 73.7508 1078.71 67.1883 Q1073.56 60.6258 1073.56 49.9314 Q1073.56 39.2371 1078.71 32.6746 Q1083.89 26.1121 1092.12 26.1121 Q1097.14 26.1121 1100.71 28.0971 Q1104.31 30.0415 1106.66 34.0924 M1081.26 49.9314 Q1081.26 58.1548 1084.62 62.8538 Q1088.03 67.5124 1093.94 67.5124 Q1099.85 67.5124 1103.26 62.8538 Q1106.66 58.1548 1106.66 49.9314 Q1106.66 41.7081 1103.26 37.0496 Q1099.85 32.3505 1093.94 32.3505 Q1088.03 32.3505 1084.62 37.0496 Q1081.26 41.7081 1081.26 49.9314 Z" fill="#000000" fill-rule="evenodd" fill-opacity="1" /><path clip-path="url(#clip370)" d="M1128.7 54.671 L1128.7 27.2059 L1136.15 27.2059 L1136.15 54.3874 Q1136.15 60.8284 1138.66 64.0691 Q1141.17 67.2693 1146.2 67.2693 Q1152.23 67.2693 1155.72 63.421 Q1159.24 59.5726 1159.24 52.9291 L1159.24 27.2059 L1166.69 27.2059 L1166.69 72.576 L1159.24 72.576 L1159.24 65.6084 Q1156.53 69.7404 1152.92 71.7658 Q1149.36 73.7508 1144.62 73.7508 Q1136.8 73.7508 1132.75 68.8897 Q1128.7 64.0286 1128.7 54.671 M1147.45 26.1121 L1147.45 26.1121 Z" fill="#000000" fill-rule="evenodd" fill-opacity="1" /><path clip-path="url(#clip370)" d="M1214.7 28.9478 L1214.7 35.9153 Q1211.54 34.1734 1208.34 33.3227 Q1205.18 32.4315 1201.94 32.4315 Q1194.69 32.4315 1190.68 37.0496 Q1186.67 41.6271 1186.67 49.9314 Q1186.67 58.2358 1190.68 62.8538 Q1194.69 67.4314 1201.94 67.4314 Q1205.18 67.4314 1208.34 66.5807 Q1211.54 65.6895 1214.7 63.9476 L1214.7 70.8341 Q1211.58 72.2924 1208.22 73.0216 Q1204.89 73.7508 1201.13 73.7508 Q1190.88 73.7508 1184.84 67.3098 Q1178.81 60.8689 1178.81 49.9314 Q1178.81 38.832 1184.88 32.472 Q1191 26.1121 1201.61 26.1121 Q1205.06 26.1121 1208.34 26.8413 Q1211.62 27.5299 1214.7 28.9478 Z" fill="#000000" fill-rule="evenodd" fill-opacity="1" /><path clip-path="url(#clip370)" d="M1235.03 14.324 L1235.03 27.2059 L1250.39 27.2059 L1250.39 32.9987 L1235.03 32.9987 L1235.03 57.6282 Q1235.03 63.1779 1236.53 64.7578 Q1238.07 66.3376 1242.73 66.3376 L1250.39 66.3376 L1250.39 72.576 L1242.73 72.576 Q1234.1 72.576 1230.82 69.3758 Q1227.54 66.1351 1227.54 57.6282 L1227.54 32.9987 L1222.07 32.9987 L1222.07 27.2059 L1227.54 27.2059 L1227.54 14.324 L1235.03 14.324 Z" fill="#000000" fill-rule="evenodd" fill-opacity="1" /><path clip-path="url(#clip370)" d="M1260.19 27.2059 L1267.64 27.2059 L1267.64 72.576 L1260.19 72.576 L1260.19 27.2059 M1260.19 9.54393 L1267.64 9.54393 L1267.64 18.9825 L1260.19 18.9825 L1260.19 9.54393 Z" fill="#000000" fill-rule="evenodd" fill-opacity="1" /><path clip-path="url(#clip370)" d="M1277.89 27.2059 L1285.79 27.2059 L1299.97 65.2844 L1314.15 27.2059 L1322.05 27.2059 L1305.03 72.576 L1294.91 72.576 L1277.89 27.2059 Z" fill="#000000" fill-rule="evenodd" fill-opacity="1" /><path clip-path="url(#clip370)" d="M1371.14 48.0275 L1371.14 51.6733 L1336.87 51.6733 Q1337.36 59.3701 1341.49 63.421 Q1345.66 67.4314 1353.08 67.4314 Q1357.37 67.4314 1361.38 66.3781 Q1365.43 65.3249 1369.4 63.2184 L1369.4 70.267 Q1365.39 71.9684 1361.18 72.8596 Q1356.97 73.7508 1352.63 73.7508 Q1341.77 73.7508 1335.41 67.4314 Q1329.1 61.1119 1329.1 50.3365 Q1329.1 39.1965 1335.09 32.6746 Q1341.13 26.1121 1351.33 26.1121 Q1360.49 26.1121 1365.8 32.0264 Q1371.14 37.9003 1371.14 48.0275 M1363.69 45.84 Q1363.61 39.7232 1360.25 36.0774 Q1356.92 32.4315 1351.42 32.4315 Q1345.18 32.4315 1341.41 35.9558 Q1337.68 39.4801 1337.12 45.8805 L1363.69 45.84 Z" fill="#000000" fill-rule="evenodd" fill-opacity="1" /><path clip-path="url(#clip370)" d="M1412.38 44.2197 Q1415.01 45.1109 1417.49 48.0275 Q1420 50.9442 1422.51 56.0483 L1430.81 72.576 L1422.02 72.576 L1414.29 57.061 Q1411.29 50.9847 1408.45 48.9997 Q1405.66 47.0148 1400.8 47.0148 L1391.88 47.0148 L1391.88 72.576 L1383.7 72.576 L1383.7 12.096 L1402.17 12.096 Q1412.54 12.096 1417.65 16.4305 Q1422.75 20.7649 1422.75 29.5149 Q1422.75 35.2267 1420.08 38.994 Q1417.45 42.7613 1412.38 44.2197 M1391.88 18.8205 L1391.88 40.2903 L1402.17 40.2903 Q1408.09 40.2903 1411.09 37.5762 Q1414.12 34.8216 1414.12 29.5149 Q1414.12 24.2082 1411.09 21.5346 Q1408.09 18.8205 1402.17 18.8205 L1391.88 18.8205 Z" fill="#000000" fill-rule="evenodd" fill-opacity="1" /><path clip-path="url(#clip370)" d="M1476.1 48.0275 L1476.1 51.6733 L1441.83 51.6733 Q1442.32 59.3701 1446.45 63.421 Q1450.62 67.4314 1458.04 67.4314 Q1462.33 67.4314 1466.34 66.3781 Q1470.39 65.3249 1474.36 63.2184 L1474.36 70.267 Q1470.35 71.9684 1466.14 72.8596 Q1461.92 73.7508 1457.59 73.7508 Q1446.73 73.7508 1440.37 67.4314 Q1434.05 61.1119 1434.05 50.3365 Q1434.05 39.1965 1440.05 32.6746 Q1446.09 26.1121 1456.29 26.1121 Q1465.45 26.1121 1470.76 32.0264 Q1476.1 37.9003 1476.1 48.0275 M1468.65 45.84 Q1468.57 39.7232 1465.21 36.0774 Q1461.88 32.4315 1456.37 32.4315 Q1450.14 32.4315 1446.37 35.9558 Q1442.64 39.4801 1442.07 45.8805 L1468.65 45.84 Z" fill="#000000" fill-rule="evenodd" fill-opacity="1" /><path clip-path="url(#clip370)" d="M1518.19 49.3643 Q1518.19 41.2625 1514.83 36.8065 Q1511.51 32.3505 1505.47 32.3505 Q1499.48 32.3505 1496.11 36.8065 Q1492.79 41.2625 1492.79 49.3643 Q1492.79 57.4256 1496.11 61.8816 Q1499.48 66.3376 1505.47 66.3376 Q1511.51 66.3376 1514.83 61.8816 Q1518.19 57.4256 1518.19 49.3643 M1525.64 66.9452 Q1525.64 78.5308 1520.5 84.1616 Q1515.36 89.8329 1504.74 89.8329 Q1500.81 89.8329 1497.33 89.2252 Q1493.85 88.6581 1490.56 87.4428 L1490.56 80.1917 Q1493.85 81.9741 1497.05 82.8248 Q1500.25 83.6755 1503.57 83.6755 Q1510.9 83.6755 1514.55 79.8271 Q1518.19 76.0193 1518.19 68.282 L1518.19 64.5957 Q1515.88 68.6061 1512.28 70.5911 Q1508.67 72.576 1503.65 72.576 Q1495.3 72.576 1490.2 66.2161 Q1485.1 59.8562 1485.1 49.3643 Q1485.1 38.832 1490.2 32.472 Q1495.3 26.1121 1503.65 26.1121 Q1508.67 26.1121 1512.28 28.0971 Q1515.88 30.082 1518.19 34.0924 L1518.19 27.2059 L1525.64 27.2059 L1525.64 66.9452 Z" fill="#000000" fill-rule="evenodd" fill-opacity="1" /><path clip-path="url(#clip370)" d="M1567.29 34.1734 Q1566.03 33.4443 1564.53 33.1202 Q1563.08 32.7556 1561.29 32.7556 Q1554.97 32.7556 1551.57 36.8875 Q1548.21 40.9789 1548.21 48.6757 L1548.21 72.576 L1540.71 72.576 L1540.71 27.2059 L1548.21 27.2059 L1548.21 34.2544 Q1550.56 30.1225 1554.33 28.1376 Q1558.09 26.1121 1563.48 26.1121 Q1564.25 26.1121 1565.18 26.2337 Q1566.11 26.3147 1567.25 26.5172 L1567.29 34.1734 Z" fill="#000000" fill-rule="evenodd" fill-opacity="1" /><path clip-path="url(#clip370)" d="M1612.09 48.0275 L1612.09 51.6733 L1577.82 51.6733 Q1578.31 59.3701 1582.44 63.421 Q1586.61 67.4314 1594.02 67.4314 Q1598.32 67.4314 1602.33 66.3781 Q1606.38 65.3249 1610.35 63.2184 L1610.35 70.267 Q1606.34 71.9684 1602.13 72.8596 Q1597.91 73.7508 1593.58 73.7508 Q1582.72 73.7508 1576.36 67.4314 Q1570.04 61.1119 1570.04 50.3365 Q1570.04 39.1965 1576.04 32.6746 Q1582.07 26.1121 1592.28 26.1121 Q1601.44 26.1121 1606.74 32.0264 Q1612.09 37.9003 1612.09 48.0275 M1604.64 45.84 Q1604.56 39.7232 1601.19 36.0774 Q1597.87 32.4315 1592.36 32.4315 Q1586.12 32.4315 1582.36 35.9558 Q1578.63 39.4801 1578.06 45.8805 L1604.64 45.84 Z" fill="#000000" fill-rule="evenodd" fill-opacity="1" /><path clip-path="url(#clip370)" d="M1653.25 28.5427 L1653.25 35.5912 Q1650.09 33.9709 1646.69 33.1607 Q1643.28 32.3505 1639.64 32.3505 Q1634.09 32.3505 1631.29 34.0519 Q1628.54 35.7533 1628.54 39.156 Q1628.54 41.7486 1630.52 43.2475 Q1632.51 44.7058 1638.5 46.0426 L1641.06 46.6097 Q1648.99 48.3111 1652.32 51.4303 Q1655.68 54.509 1655.68 60.0587 Q1655.68 66.3781 1650.66 70.0644 Q1645.67 73.7508 1636.92 73.7508 Q1633.28 73.7508 1629.31 73.0216 Q1625.38 72.3329 1621 70.9151 L1621 63.2184 Q1625.14 65.3654 1629.15 66.4591 Q1633.16 67.5124 1637.09 67.5124 Q1642.35 67.5124 1645.19 65.73 Q1648.02 63.9071 1648.02 60.6258 Q1648.02 57.5877 1645.96 55.9673 Q1643.93 54.3469 1637 52.8481 L1634.41 52.2405 Q1627.48 50.7821 1624.41 47.7845 Q1621.33 44.7463 1621.33 39.4801 Q1621.33 33.0797 1625.86 29.5959 Q1630.4 26.1121 1638.75 26.1121 Q1642.88 26.1121 1646.52 26.7198 Q1650.17 27.3274 1653.25 28.5427 Z" fill="#000000" fill-rule="evenodd" fill-opacity="1" /><path clip-path="url(#clip370)" d="M1696.47 28.5427 L1696.47 35.5912 Q1693.31 33.9709 1689.91 33.1607 Q1686.51 32.3505 1682.86 32.3505 Q1677.31 32.3505 1674.52 34.0519 Q1671.76 35.7533 1671.76 39.156 Q1671.76 41.7486 1673.75 43.2475 Q1675.73 44.7058 1681.73 46.0426 L1684.28 46.6097 Q1692.22 48.3111 1695.54 51.4303 Q1698.9 54.509 1698.9 60.0587 Q1698.9 66.3781 1693.88 70.0644 Q1688.9 73.7508 1680.15 73.7508 Q1676.5 73.7508 1672.53 73.0216 Q1668.6 72.3329 1664.23 70.9151 L1664.23 63.2184 Q1668.36 65.3654 1672.37 66.4591 Q1676.38 67.5124 1680.31 67.5124 Q1685.57 67.5124 1688.41 65.73 Q1691.25 63.9071 1691.25 60.6258 Q1691.25 57.5877 1689.18 55.9673 Q1687.15 54.3469 1680.23 52.8481 L1677.63 52.2405 Q1670.71 50.7821 1667.63 47.7845 Q1664.55 44.7463 1664.55 39.4801 Q1664.55 33.0797 1669.09 29.5959 Q1673.62 26.1121 1681.97 26.1121 Q1686.1 26.1121 1689.75 26.7198 Q1693.39 27.3274 1696.47 28.5427 Z" fill="#000000" fill-rule="evenodd" fill-opacity="1" /><path clip-path="url(#clip370)" d="M1728.35 32.4315 Q1722.36 32.4315 1718.87 37.1306 Q1715.39 41.7891 1715.39 49.9314 Q1715.39 58.0738 1718.83 62.7728 Q1722.32 67.4314 1728.35 67.4314 Q1734.31 67.4314 1737.79 62.7323 Q1741.27 58.0333 1741.27 49.9314 Q1741.27 41.8701 1737.79 37.1711 Q1734.31 32.4315 1728.35 32.4315 M1728.35 26.1121 Q1738.07 26.1121 1743.62 32.4315 Q1749.17 38.7509 1749.17 49.9314 Q1749.17 61.0714 1743.62 67.4314 Q1738.07 73.7508 1728.35 73.7508 Q1718.59 73.7508 1713.04 67.4314 Q1707.53 61.0714 1707.53 49.9314 Q1707.53 38.7509 1713.04 32.4315 Q1718.59 26.1121 1728.35 26.1121 Z" fill="#000000" fill-rule="evenodd" fill-opacity="1" /><path clip-path="url(#clip370)" d="M1787.82 34.1734 Q1786.56 33.4443 1785.06 33.1202 Q1783.61 32.7556 1781.82 32.7556 Q1775.5 32.7556 1772.1 36.8875 Q1768.74 40.9789 1768.74 48.6757 L1768.74 72.576 L1761.25 72.576 L1761.25 27.2059 L1768.74 27.2059 L1768.74 34.2544 Q1771.09 30.1225 1774.86 28.1376 Q1778.62 26.1121 1784.01 26.1121 Q1784.78 26.1121 1785.71 26.2337 Q1786.64 26.3147 1787.78 26.5172 L1787.82 34.1734 Z" fill="#000000" fill-rule="evenodd" fill-opacity="1" /><polyline clip-path="url(#clip372)" style="stroke:#ffa500; stroke-linecap:round; stroke-linejoin:round; stroke-width:4; stroke-opacity:1; fill:none" points="
  211.556,1200.19 442.538,472.33 673.519,1316.14 904.501,1388.02 1135.48,786.848 1366.46,644.881 1597.45,875.37 1828.43,472.33 2059.41,1447.87 2290.39,1447.87 
  
  "/>
<polyline clip-path="url(#clip372)" style="stroke:#ffa500; stroke-linecap:round; stroke-linejoin:round; stroke-width:4; stroke-opacity:1; fill:none" points="
  211.556,889.905 442.538,162.047 673.519,1005.86 904.501,1077.74 1135.48,476.565 1366.46,334.598 1597.45,565.087 1828.43,162.047 2059.41,1137.59 2290.39,1137.59 
  
  "/>
</svg>
