<?xml version="1.0" encoding="utf-8"?>
<svg xmlns="http://www.w3.org/2000/svg" xmlns:xlink="http://www.w3.org/1999/xlink" width="600" height="400" viewBox="0 0 2400 1600">
<defs>
  <clipPath id="clip270">
    <rect x="0" y="0" width="2400" height="1600"/>
  </clipPath>
</defs>
<path clip-path="url(#clip270)" d="
M0 1600 L2400 1600 L2400 0 L0 0  Z
  " fill="#ffffff" fill-rule="evenodd" fill-opacity="1"/>
<defs>
  <clipPath id="clip271">
    <rect x="480" y="0" width="1681" height="1600"/>
  </clipPath>
</defs>
<path clip-path="url(#clip270)" d="
M170.857 1495.09 L2352.76 1495.09 L2352.76 47.2441 L170.857 47.2441  Z
  " fill="#ffffff" fill-rule="evenodd" fill-opacity="1"/>
<defs>
  <clipPath id="clip272">
    <rect x="170" y="47" width="2183" height="1449"/>
  </clipPath>
</defs>
<polyline clip-path="url(#clip272)" style="stroke:#000000; stroke-linecap:round; stroke-linejoin:round; stroke-width:2; stroke-opacity:0.1; fill:none" points="
  452.689,1495.09 452.689,47.2441 
  "/>
<polyline clip-path="url(#clip272)" style="stroke:#000000; stroke-linecap:round; stroke-linejoin:round; stroke-width:2; stroke-opacity:0.1; fill:none" points="
  857.248,1495.09 857.248,47.2441 
  "/>
<polyline clip-path="url(#clip272)" style="stroke:#000000; stroke-linecap:round; stroke-linejoin:round; stroke-width:2; stroke-opacity:0.1; fill:none" points="
  1261.81,1495.09 1261.81,47.2441 
  "/>
<polyline clip-path="url(#clip272)" style="stroke:#000000; stroke-linecap:round; stroke-linejoin:round; stroke-width:2; stroke-opacity:0.1; fill:none" points="
  1666.37,1495.09 1666.37,47.2441 
  "/>
<polyline clip-path="url(#clip272)" style="stroke:#000000; stroke-linecap:round; stroke-linejoin:round; stroke-width:2; stroke-opacity:0.1; fill:none" points="
  2070.92,1495.09 2070.92,47.2441 
  "/>
<polyline clip-path="url(#clip270)" style="stroke:#000000; stroke-linecap:round; stroke-linejoin:round; stroke-width:4; stroke-opacity:1; fill:none" points="
  170.857,1495.09 2352.76,1495.09 
  "/>
<polyline clip-path="url(#clip270)" style="stroke:#000000; stroke-linecap:round; stroke-linejoin:round; stroke-width:4; stroke-opacity:1; fill:none" points="
  452.689,1495.09 452.689,1476.19 
  "/>
<polyline clip-path="url(#clip270)" style="stroke:#000000; stroke-linecap:round; stroke-linejoin:round; stroke-width:4; stroke-opacity:1; fill:none" points="
  857.248,1495.09 857.248,1476.19 
  "/>
<polyline clip-path="url(#clip270)" style="stroke:#000000; stroke-linecap:round; stroke-linejoin:round; stroke-width:4; stroke-opacity:1; fill:none" points="
  1261.81,1495.09 1261.81,1476.19 
  "/>
<polyline clip-path="url(#clip270)" style="stroke:#000000; stroke-linecap:round; stroke-linejoin:round; stroke-width:4; stroke-opacity:1; fill:none" points="
  1666.37,1495.09 1666.37,1476.19 
  "/>
<polyline clip-path="url(#clip270)" style="stroke:#000000; stroke-linecap:round; stroke-linejoin:round; stroke-width:4; stroke-opacity:1; fill:none" points="
  2070.92,1495.09 2070.92,1476.19 
  "/>
<path clip-path="url(#clip270)" d="M309.556 1519.52 L309.556 1555.07 L306.605 1555.07 L306.605 1519.52 L309.556 1519.52 Z" fill="#000000" fill-rule="evenodd" fill-opacity="1" /><path clip-path="url(#clip270)" d="M336.969 1522.76 L336.969 1526.46 Q335.199 1524.81 333.185 1524 Q331.188 1523.18 328.931 1523.18 Q324.487 1523.18 322.126 1525.91 Q319.765 1528.62 319.765 1533.75 Q319.765 1538.88 322.126 1541.6 Q324.487 1544.31 328.931 1544.31 Q331.188 1544.31 333.185 1543.49 Q335.199 1542.68 336.969 1541.03 L336.969 1544.69 Q335.129 1545.94 333.063 1546.57 Q331.015 1547.19 328.723 1547.19 Q322.837 1547.19 319.452 1543.6 Q316.067 1539.99 316.067 1533.75 Q316.067 1527.5 319.452 1523.91 Q322.837 1520.3 328.723 1520.3 Q331.049 1520.3 333.098 1520.92 Q335.164 1521.53 336.969 1522.76 Z" fill="#000000" fill-rule="evenodd" fill-opacity="1" /><path clip-path="url(#clip270)" d="M346.362 1519.52 L346.362 1555.07 L343.41 1555.07 L343.41 1519.52 L346.362 1519.52 Z" fill="#000000" fill-rule="evenodd" fill-opacity="1" /><path clip-path="url(#clip270)" d="M368.132 1535.8 Q368.254 1537.09 369.348 1539.17 Q370.632 1541.58 373.063 1542.94 Q375.441 1544.26 378.011 1544.27 L390.111 1544.27 L390.111 1547.04 L378.011 1547.04 Q374.677 1547.04 371.587 1545.32 Q368.514 1543.6 366.865 1540.54 Q365.216 1537.49 365.216 1534.24 Q365.216 1531.03 366.865 1527.97 Q368.514 1524.92 371.587 1523.18 Q374.677 1521.44 378.011 1521.44 L390.111 1521.44 L390.111 1524.21 L378.011 1524.21 Q375.441 1524.22 373.063 1525.56 Q370.65 1526.93 369.348 1529.33 Q368.237 1531.41 368.08 1533.02 L390.111 1533.02 L390.111 1535.8 L368.132 1535.8 Z" fill="#000000" fill-rule="evenodd" fill-opacity="1" /><path clip-path="url(#clip270)" d="M415.476 1519.71 Q413.149 1523.7 412.021 1527.61 Q410.893 1531.51 410.893 1535.52 Q410.893 1539.54 412.021 1543.48 Q413.167 1547.4 415.476 1551.38 L412.698 1551.38 Q410.094 1547.3 408.792 1543.35 Q407.507 1539.41 407.507 1535.52 Q407.507 1531.65 408.792 1527.73 Q410.077 1523.81 412.698 1519.71 L415.476 1519.71 Z" fill="#000000" fill-rule="evenodd" fill-opacity="1" /><path clip-path="url(#clip270)" d="M425.146 1543.74 L437.385 1543.74 L437.385 1546.69 L420.927 1546.69 L420.927 1543.74 Q422.924 1541.67 426.361 1538.2 Q429.816 1534.71 430.701 1533.7 Q432.385 1531.81 433.045 1530.51 Q433.722 1529.19 433.722 1527.92 Q433.722 1525.85 432.264 1524.55 Q430.823 1523.25 428.497 1523.25 Q426.847 1523.25 425.007 1523.82 Q423.184 1524.4 421.101 1525.56 L421.101 1522.02 Q423.219 1521.17 425.059 1520.73 Q426.899 1520.3 428.427 1520.3 Q432.455 1520.3 434.851 1522.31 Q437.247 1524.33 437.247 1527.69 Q437.247 1529.29 436.639 1530.73 Q436.049 1532.16 434.469 1534.1 Q434.035 1534.6 431.708 1537.02 Q429.382 1539.41 425.146 1543.74 Z" fill="#000000" fill-rule="evenodd" fill-opacity="1" /><path clip-path="url(#clip270)" d="M444.747 1542.28 L448.41 1542.28 L448.41 1546.69 L444.747 1546.69 L444.747 1542.28 Z" fill="#000000" fill-rule="evenodd" fill-opacity="1" /><path clip-path="url(#clip270)" d="M456.656 1543.74 L462.385 1543.74 L462.385 1523.96 L456.153 1525.21 L456.153 1522.02 L462.351 1520.77 L465.858 1520.77 L465.858 1543.74 L471.587 1543.74 L471.587 1546.69 L456.656 1546.69 L456.656 1543.74 Z" fill="#000000" fill-rule="evenodd" fill-opacity="1" /><path clip-path="url(#clip270)" d="M478.705 1520.77 L492.472 1520.77 L492.472 1523.72 L481.916 1523.72 L481.916 1530.07 Q482.68 1529.81 483.444 1529.69 Q484.208 1529.55 484.972 1529.55 Q489.312 1529.55 491.847 1531.93 Q494.382 1534.31 494.382 1538.37 Q494.382 1542.56 491.778 1544.88 Q489.173 1547.19 484.434 1547.19 Q482.802 1547.19 481.101 1546.91 Q479.416 1546.64 477.611 1546.08 L477.611 1542.56 Q479.173 1543.41 480.84 1543.82 Q482.507 1544.24 484.364 1544.24 Q487.368 1544.24 489.121 1542.66 Q490.875 1541.08 490.875 1538.37 Q490.875 1535.66 489.121 1534.08 Q487.368 1532.5 484.364 1532.5 Q482.958 1532.5 481.552 1532.82 Q480.163 1533.13 478.705 1533.79 L478.705 1520.77 Z" fill="#000000" fill-rule="evenodd" fill-opacity="1" /><path clip-path="url(#clip270)" d="M501.656 1542.28 L505.319 1542.28 L505.319 1545.26 L502.472 1550.82 L500.232 1550.82 L501.656 1545.26 L501.656 1542.28 Z" fill="#000000" fill-rule="evenodd" fill-opacity="1" /><path clip-path="url(#clip270)" d="M515.614 1543.74 L527.854 1543.74 L527.854 1546.69 L511.395 1546.69 L511.395 1543.74 Q513.392 1541.67 516.829 1538.2 Q520.284 1534.71 521.17 1533.7 Q522.854 1531.81 523.513 1530.51 Q524.191 1529.19 524.191 1527.92 Q524.191 1525.85 522.732 1524.55 Q521.291 1523.25 518.965 1523.25 Q517.316 1523.25 515.475 1523.82 Q513.652 1524.4 511.569 1525.56 L511.569 1522.02 Q513.687 1521.17 515.527 1520.73 Q517.368 1520.3 518.895 1520.3 Q522.923 1520.3 525.319 1522.31 Q527.715 1524.33 527.715 1527.69 Q527.715 1529.29 527.107 1530.73 Q526.517 1532.16 524.937 1534.1 Q524.503 1534.6 522.177 1537.02 Q519.85 1539.41 515.614 1543.74 Z" fill="#000000" fill-rule="evenodd" fill-opacity="1" /><path clip-path="url(#clip270)" d="M535.215 1542.28 L538.878 1542.28 L538.878 1546.69 L535.215 1546.69 L535.215 1542.28 Z" fill="#000000" fill-rule="evenodd" fill-opacity="1" /><path clip-path="url(#clip270)" d="M547.124 1543.74 L552.854 1543.74 L552.854 1523.96 L546.621 1525.21 L546.621 1522.02 L552.819 1520.77 L556.326 1520.77 L556.326 1543.74 L562.055 1543.74 L562.055 1546.69 L547.124 1546.69 L547.124 1543.74 Z" fill="#000000" fill-rule="evenodd" fill-opacity="1" /><path clip-path="url(#clip270)" d="M576.638 1534.38 Q574.138 1534.38 572.697 1535.72 Q571.274 1537.05 571.274 1539.4 Q571.274 1541.74 572.697 1543.08 Q574.138 1544.41 576.638 1544.41 Q579.138 1544.41 580.579 1543.08 Q582.02 1541.72 582.02 1539.4 Q582.02 1537.05 580.579 1535.72 Q579.156 1534.38 576.638 1534.38 M573.131 1532.89 Q570.874 1532.33 569.607 1530.79 Q568.357 1529.24 568.357 1527.02 Q568.357 1523.91 570.562 1522.1 Q572.784 1520.3 576.638 1520.3 Q580.51 1520.3 582.715 1522.1 Q584.919 1523.91 584.919 1527.02 Q584.919 1529.24 583.652 1530.79 Q582.402 1532.33 580.162 1532.89 Q582.697 1533.48 584.103 1535.19 Q585.527 1536.91 585.527 1539.4 Q585.527 1543.16 583.218 1545.18 Q580.926 1547.19 576.638 1547.19 Q572.35 1547.19 570.041 1545.18 Q567.749 1543.16 567.749 1539.4 Q567.749 1536.91 569.173 1535.19 Q570.597 1533.48 573.131 1532.89 M571.847 1527.35 Q571.847 1529.36 573.097 1530.49 Q574.364 1531.62 576.638 1531.62 Q578.895 1531.62 580.162 1530.49 Q581.447 1529.36 581.447 1527.35 Q581.447 1525.33 580.162 1524.21 Q578.895 1523.08 576.638 1523.08 Q574.364 1523.08 573.097 1524.21 Q571.847 1525.33 571.847 1527.35 Z" fill="#000000" fill-rule="evenodd" fill-opacity="1" /><path clip-path="url(#clip270)" d="M598.773 1519.67 L598.773 1551.38 L591.412 1551.38 L591.412 1548.89 L595.562 1548.89 L595.562 1522.16 L591.412 1522.16 L591.412 1519.67 L598.773 1519.67 Z" fill="#000000" fill-rule="evenodd" fill-opacity="1" /><path clip-path="url(#clip270)" d="M714.115 1519.52 L714.115 1555.07 L711.164 1555.07 L711.164 1519.52 L714.115 1519.52 Z" fill="#000000" fill-rule="evenodd" fill-opacity="1" /><path clip-path="url(#clip270)" d="M741.528 1522.76 L741.528 1526.46 Q739.757 1524.81 737.743 1524 Q735.747 1523.18 733.49 1523.18 Q729.045 1523.18 726.684 1525.91 Q724.323 1528.62 724.323 1533.75 Q724.323 1538.88 726.684 1541.6 Q729.045 1544.31 733.49 1544.31 Q735.747 1544.31 737.743 1543.49 Q739.757 1542.68 741.528 1541.03 L741.528 1544.69 Q739.688 1545.94 737.622 1546.57 Q735.573 1547.19 733.282 1547.19 Q727.396 1547.19 724.011 1543.6 Q720.625 1539.99 720.625 1533.75 Q720.625 1527.5 724.011 1523.91 Q727.396 1520.3 733.282 1520.3 Q735.608 1520.3 737.657 1520.92 Q739.723 1521.53 741.528 1522.76 Z" fill="#000000" fill-rule="evenodd" fill-opacity="1" /><path clip-path="url(#clip270)" d="M750.92 1519.52 L750.92 1555.07 L747.969 1555.07 L747.969 1519.52 L750.92 1519.52 Z" fill="#000000" fill-rule="evenodd" fill-opacity="1" /><path clip-path="url(#clip270)" d="M772.691 1535.8 Q772.813 1537.09 773.906 1539.17 Q775.191 1541.58 777.622 1542.94 Q780 1544.26 782.57 1544.27 L794.67 1544.27 L794.67 1547.04 L782.57 1547.04 Q779.236 1547.04 776.146 1545.32 Q773.073 1543.6 771.424 1540.54 Q769.774 1537.49 769.774 1534.24 Q769.774 1531.03 771.424 1527.97 Q773.073 1524.92 776.146 1523.18 Q779.236 1521.44 782.57 1521.44 L794.67 1521.44 L794.67 1524.21 L782.57 1524.21 Q780 1524.22 777.622 1525.56 Q775.208 1526.93 773.906 1529.33 Q772.795 1531.41 772.639 1533.02 L794.67 1533.02 L794.67 1535.8 L772.691 1535.8 Z" fill="#000000" fill-rule="evenodd" fill-opacity="1" /><path clip-path="url(#clip270)" d="M820.035 1519.71 Q817.708 1523.7 816.58 1527.61 Q815.451 1531.51 815.451 1535.52 Q815.451 1539.54 816.58 1543.48 Q817.726 1547.4 820.035 1551.38 L817.257 1551.38 Q814.653 1547.3 813.351 1543.35 Q812.066 1539.41 812.066 1535.52 Q812.066 1531.65 813.351 1527.73 Q814.635 1523.81 817.257 1519.71 L820.035 1519.71 Z" fill="#000000" fill-rule="evenodd" fill-opacity="1" /><path clip-path="url(#clip270)" d="M829.705 1543.74 L841.944 1543.74 L841.944 1546.69 L825.486 1546.69 L825.486 1543.74 Q827.482 1541.67 830.92 1538.2 Q834.375 1534.71 835.26 1533.7 Q836.944 1531.81 837.604 1530.51 Q838.281 1529.19 838.281 1527.92 Q838.281 1525.85 836.823 1524.55 Q835.382 1523.25 833.055 1523.25 Q831.406 1523.25 829.566 1523.82 Q827.743 1524.4 825.66 1525.56 L825.66 1522.02 Q827.778 1521.17 829.618 1520.73 Q831.458 1520.3 832.986 1520.3 Q837.014 1520.3 839.409 1522.31 Q841.805 1524.33 841.805 1527.69 Q841.805 1529.29 841.198 1530.73 Q840.607 1532.16 839.028 1534.1 Q838.594 1534.6 836.267 1537.02 Q833.941 1539.41 829.705 1543.74 Z" fill="#000000" fill-rule="evenodd" fill-opacity="1" /><path clip-path="url(#clip270)" d="M849.305 1542.28 L852.968 1542.28 L852.968 1546.69 L849.305 1546.69 L849.305 1542.28 Z" fill="#000000" fill-rule="evenodd" fill-opacity="1" /><path clip-path="url(#clip270)" d="M861.215 1543.74 L866.944 1543.74 L866.944 1523.96 L860.711 1525.21 L860.711 1522.02 L866.909 1520.77 L870.416 1520.77 L870.416 1543.74 L876.145 1543.74 L876.145 1546.69 L861.215 1546.69 L861.215 1543.74 Z" fill="#000000" fill-rule="evenodd" fill-opacity="1" /><path clip-path="url(#clip270)" d="M890.729 1534.38 Q888.229 1534.38 886.788 1535.72 Q885.364 1537.05 885.364 1539.4 Q885.364 1541.74 886.788 1543.08 Q888.229 1544.41 890.729 1544.41 Q893.229 1544.41 894.67 1543.08 Q896.111 1541.72 896.111 1539.4 Q896.111 1537.05 894.67 1535.72 Q893.246 1534.38 890.729 1534.38 M887.222 1532.89 Q884.965 1532.33 883.697 1530.79 Q882.447 1529.24 882.447 1527.02 Q882.447 1523.91 884.652 1522.1 Q886.875 1520.3 890.729 1520.3 Q894.6 1520.3 896.805 1522.1 Q899.01 1523.91 899.01 1527.02 Q899.01 1529.24 897.743 1530.79 Q896.493 1532.33 894.253 1532.89 Q896.788 1533.48 898.194 1535.19 Q899.617 1536.91 899.617 1539.4 Q899.617 1543.16 897.308 1545.18 Q895.017 1547.19 890.729 1547.19 Q886.44 1547.19 884.131 1545.18 Q881.84 1543.16 881.84 1539.4 Q881.84 1536.91 883.263 1535.19 Q884.687 1533.48 887.222 1532.89 M885.937 1527.35 Q885.937 1529.36 887.187 1530.49 Q888.454 1531.62 890.729 1531.62 Q892.986 1531.62 894.253 1530.49 Q895.538 1529.36 895.538 1527.35 Q895.538 1525.33 894.253 1524.21 Q892.986 1523.08 890.729 1523.08 Q888.454 1523.08 887.187 1524.21 Q885.937 1525.33 885.937 1527.35 Z" fill="#000000" fill-rule="evenodd" fill-opacity="1" /><path clip-path="url(#clip270)" d="M906.215 1542.28 L909.878 1542.28 L909.878 1545.26 L907.031 1550.82 L904.791 1550.82 L906.215 1545.26 L906.215 1542.28 Z" fill="#000000" fill-rule="evenodd" fill-opacity="1" /><path clip-path="url(#clip270)" d="M920.173 1543.74 L932.412 1543.74 L932.412 1546.69 L915.954 1546.69 L915.954 1543.74 Q917.951 1541.67 921.388 1538.2 Q924.843 1534.71 925.728 1533.7 Q927.412 1531.81 928.072 1530.51 Q928.749 1529.19 928.749 1527.92 Q928.749 1525.85 927.291 1524.55 Q925.85 1523.25 923.524 1523.25 Q921.874 1523.25 920.034 1523.82 Q918.211 1524.4 916.128 1525.56 L916.128 1522.02 Q918.246 1521.17 920.086 1520.73 Q921.926 1520.3 923.454 1520.3 Q927.482 1520.3 929.878 1522.31 Q932.274 1524.33 932.274 1527.69 Q932.274 1529.29 931.666 1530.73 Q931.076 1532.16 929.496 1534.1 Q929.062 1534.6 926.735 1537.02 Q924.409 1539.41 920.173 1543.74 Z" fill="#000000" fill-rule="evenodd" fill-opacity="1" /><path clip-path="url(#clip270)" d="M939.774 1542.28 L943.437 1542.28 L943.437 1546.69 L939.774 1546.69 L939.774 1542.28 Z" fill="#000000" fill-rule="evenodd" fill-opacity="1" /><path clip-path="url(#clip270)" d="M954.096 1543.74 L966.336 1543.74 L966.336 1546.69 L949.878 1546.69 L949.878 1543.74 Q951.874 1541.67 955.312 1538.2 Q958.766 1534.71 959.652 1533.7 Q961.336 1531.81 961.996 1530.51 Q962.673 1529.19 962.673 1527.92 Q962.673 1525.85 961.214 1524.55 Q959.773 1523.25 957.447 1523.25 Q955.798 1523.25 953.957 1523.82 Q952.135 1524.4 950.051 1525.56 L950.051 1522.02 Q952.169 1521.17 954.01 1520.73 Q955.85 1520.3 957.378 1520.3 Q961.405 1520.3 963.801 1522.31 Q966.197 1524.33 966.197 1527.69 Q966.197 1529.29 965.589 1530.73 Q964.999 1532.16 963.419 1534.1 Q962.985 1534.6 960.659 1537.02 Q958.332 1539.41 954.096 1543.74 Z" fill="#000000" fill-rule="evenodd" fill-opacity="1" /><path clip-path="url(#clip270)" d="M974.305 1543.74 L980.034 1543.74 L980.034 1523.96 L973.801 1525.21 L973.801 1522.02 L979.999 1520.77 L983.506 1520.77 L983.506 1543.74 L989.235 1543.74 L989.235 1546.69 L974.305 1546.69 L974.305 1543.74 Z" fill="#000000" fill-rule="evenodd" fill-opacity="1" /><path clip-path="url(#clip270)" d="M1003.33 1519.67 L1003.33 1551.38 L995.971 1551.38 L995.971 1548.89 L1000.12 1548.89 L1000.12 1522.16 L995.971 1522.16 L995.971 1519.67 L1003.33 1519.67 Z" fill="#000000" fill-rule="evenodd" fill-opacity="1" /><path clip-path="url(#clip270)" d="M1118.67 1519.52 L1118.67 1555.07 L1115.72 1555.07 L1115.72 1519.52 L1118.67 1519.52 Z" fill="#000000" fill-rule="evenodd" fill-opacity="1" /><path clip-path="url(#clip270)" d="M1146.09 1522.76 L1146.09 1526.46 Q1144.32 1524.81 1142.3 1524 Q1140.31 1523.18 1138.05 1523.18 Q1133.6 1523.18 1131.24 1525.91 Q1128.88 1528.62 1128.88 1533.75 Q1128.88 1538.88 1131.24 1541.6 Q1133.6 1544.31 1138.05 1544.31 Q1140.31 1544.31 1142.3 1543.49 Q1144.32 1542.68 1146.09 1541.03 L1146.09 1544.69 Q1144.25 1545.94 1142.18 1546.57 Q1140.13 1547.19 1137.84 1547.19 Q1131.95 1547.19 1128.57 1543.6 Q1125.18 1539.99 1125.18 1533.75 Q1125.18 1527.5 1128.57 1523.91 Q1131.95 1520.3 1137.84 1520.3 Q1140.17 1520.3 1142.22 1520.92 Q1144.28 1521.53 1146.09 1522.76 Z" fill="#000000" fill-rule="evenodd" fill-opacity="1" /><path clip-path="url(#clip270)" d="M1155.48 1519.52 L1155.48 1555.07 L1152.53 1555.07 L1152.53 1519.52 L1155.48 1519.52 Z" fill="#000000" fill-rule="evenodd" fill-opacity="1" /><path clip-path="url(#clip270)" d="M1177.25 1535.8 Q1177.37 1537.09 1178.47 1539.17 Q1179.75 1541.58 1182.18 1542.94 Q1184.56 1544.26 1187.13 1544.27 L1199.23 1544.27 L1199.23 1547.04 L1187.13 1547.04 Q1183.79 1547.04 1180.7 1545.32 Q1177.63 1543.6 1175.98 1540.54 Q1174.33 1537.49 1174.33 1534.24 Q1174.33 1531.03 1175.98 1527.97 Q1177.63 1524.92 1180.7 1523.18 Q1183.79 1521.44 1187.13 1521.44 L1199.23 1521.44 L1199.23 1524.21 L1187.13 1524.21 Q1184.56 1524.22 1182.18 1525.56 Q1179.77 1526.93 1178.47 1529.33 Q1177.35 1531.41 1177.2 1533.02 L1199.23 1533.02 L1199.23 1535.8 L1177.25 1535.8 Z" fill="#000000" fill-rule="evenodd" fill-opacity="1" /><path clip-path="url(#clip270)" d="M1224.59 1519.71 Q1222.27 1523.7 1221.14 1527.61 Q1220.01 1531.51 1220.01 1535.52 Q1220.01 1539.54 1221.14 1543.48 Q1222.28 1547.4 1224.59 1551.38 L1221.82 1551.38 Q1219.21 1547.3 1217.91 1543.35 Q1216.62 1539.41 1216.62 1535.52 Q1216.62 1531.65 1217.91 1527.73 Q1219.19 1523.81 1221.82 1519.71 L1224.59 1519.71 Z" fill="#000000" fill-rule="evenodd" fill-opacity="1" /><path clip-path="url(#clip270)" d="M1234.26 1543.74 L1246.5 1543.74 L1246.5 1546.69 L1230.04 1546.69 L1230.04 1543.74 Q1232.04 1541.67 1235.48 1538.2 Q1238.93 1534.71 1239.82 1533.7 Q1241.5 1531.81 1242.16 1530.51 Q1242.84 1529.19 1242.84 1527.92 Q1242.84 1525.85 1241.38 1524.55 Q1239.94 1523.25 1237.61 1523.25 Q1235.96 1523.25 1234.12 1523.82 Q1232.3 1524.4 1230.22 1525.56 L1230.22 1522.02 Q1232.34 1521.17 1234.18 1520.73 Q1236.02 1520.3 1237.54 1520.3 Q1241.57 1520.3 1243.97 1522.31 Q1246.36 1524.33 1246.36 1527.69 Q1246.36 1529.29 1245.76 1530.73 Q1245.17 1532.16 1243.59 1534.1 Q1243.15 1534.6 1240.83 1537.02 Q1238.5 1539.41 1234.26 1543.74 Z" fill="#000000" fill-rule="evenodd" fill-opacity="1" /><path clip-path="url(#clip270)" d="M1253.86 1542.28 L1257.53 1542.28 L1257.53 1546.69 L1253.86 1546.69 L1253.86 1542.28 Z" fill="#000000" fill-rule="evenodd" fill-opacity="1" /><path clip-path="url(#clip270)" d="M1268.19 1543.74 L1280.43 1543.74 L1280.43 1546.69 L1263.97 1546.69 L1263.97 1543.74 Q1265.96 1541.67 1269.4 1538.2 Q1272.86 1534.71 1273.74 1533.7 Q1275.43 1531.81 1276.09 1530.51 Q1276.76 1529.19 1276.76 1527.92 Q1276.76 1525.85 1275.3 1524.55 Q1273.86 1523.25 1271.54 1523.25 Q1269.89 1523.25 1268.05 1523.82 Q1266.23 1524.4 1264.14 1525.56 L1264.14 1522.02 Q1266.26 1521.17 1268.1 1520.73 Q1269.94 1520.3 1271.47 1520.3 Q1275.5 1520.3 1277.89 1522.31 Q1280.29 1524.33 1280.29 1527.69 Q1280.29 1529.29 1279.68 1530.73 Q1279.09 1532.16 1277.51 1534.1 Q1277.08 1534.6 1274.75 1537.02 Q1272.42 1539.41 1268.19 1543.74 Z" fill="#000000" fill-rule="evenodd" fill-opacity="1" /><path clip-path="url(#clip270)" d="M1288.4 1543.74 L1294.12 1543.74 L1294.12 1523.96 L1287.89 1525.21 L1287.89 1522.02 L1294.09 1520.77 L1297.6 1520.77 L1297.6 1543.74 L1303.33 1543.74 L1303.33 1546.69 L1288.4 1546.69 L1288.4 1543.74 Z" fill="#000000" fill-rule="evenodd" fill-opacity="1" /><path clip-path="url(#clip270)" d="M1310.77 1542.28 L1314.44 1542.28 L1314.44 1545.26 L1311.59 1550.82 L1309.35 1550.82 L1310.77 1545.26 L1310.77 1542.28 Z" fill="#000000" fill-rule="evenodd" fill-opacity="1" /><path clip-path="url(#clip270)" d="M1324.73 1543.74 L1336.97 1543.74 L1336.97 1546.69 L1320.51 1546.69 L1320.51 1543.74 Q1322.51 1541.67 1325.95 1538.2 Q1329.4 1534.71 1330.29 1533.7 Q1331.97 1531.81 1332.63 1530.51 Q1333.31 1529.19 1333.31 1527.92 Q1333.31 1525.85 1331.85 1524.55 Q1330.41 1523.25 1328.08 1523.25 Q1326.43 1523.25 1324.59 1523.82 Q1322.77 1524.4 1320.69 1525.56 L1320.69 1522.02 Q1322.8 1521.17 1324.64 1520.73 Q1326.49 1520.3 1328.01 1520.3 Q1332.04 1520.3 1334.44 1522.31 Q1336.83 1524.33 1336.83 1527.69 Q1336.83 1529.29 1336.22 1530.73 Q1335.63 1532.16 1334.05 1534.1 Q1333.62 1534.6 1331.29 1537.02 Q1328.97 1539.41 1324.73 1543.74 Z" fill="#000000" fill-rule="evenodd" fill-opacity="1" /><path clip-path="url(#clip270)" d="M1344.33 1542.28 L1348 1542.28 L1348 1546.69 L1344.33 1546.69 L1344.33 1542.28 Z" fill="#000000" fill-rule="evenodd" fill-opacity="1" /><path clip-path="url(#clip270)" d="M1358.66 1543.74 L1370.89 1543.74 L1370.89 1546.69 L1354.44 1546.69 L1354.44 1543.74 Q1356.43 1541.67 1359.87 1538.2 Q1363.33 1534.71 1364.21 1533.7 Q1365.89 1531.81 1366.55 1530.51 Q1367.23 1529.19 1367.23 1527.92 Q1367.23 1525.85 1365.77 1524.55 Q1364.33 1523.25 1362.01 1523.25 Q1360.36 1523.25 1358.52 1523.82 Q1356.69 1524.4 1354.61 1525.56 L1354.61 1522.02 Q1356.73 1521.17 1358.57 1520.73 Q1360.41 1520.3 1361.94 1520.3 Q1365.96 1520.3 1368.36 1522.31 Q1370.76 1524.33 1370.76 1527.69 Q1370.76 1529.29 1370.15 1530.73 Q1369.56 1532.16 1367.98 1534.1 Q1367.54 1534.6 1365.22 1537.02 Q1362.89 1539.41 1358.66 1543.74 Z" fill="#000000" fill-rule="evenodd" fill-opacity="1" /><path clip-path="url(#clip270)" d="M1387.89 1523.82 L1379.04 1537.66 L1387.89 1537.66 L1387.89 1523.82 M1386.97 1520.77 L1391.38 1520.77 L1391.38 1537.66 L1395.08 1537.66 L1395.08 1540.58 L1391.38 1540.58 L1391.38 1546.69 L1387.89 1546.69 L1387.89 1540.58 L1376.19 1540.58 L1376.19 1537.19 L1386.97 1520.77 Z" fill="#000000" fill-rule="evenodd" fill-opacity="1" /><path clip-path="url(#clip270)" d="M1407.89 1519.67 L1407.89 1551.38 L1400.53 1551.38 L1400.53 1548.89 L1404.68 1548.89 L1404.68 1522.16 L1400.53 1522.16 L1400.53 1519.67 L1407.89 1519.67 Z" fill="#000000" fill-rule="evenodd" fill-opacity="1" /><path clip-path="url(#clip270)" d="M1523.23 1519.52 L1523.23 1555.07 L1520.28 1555.07 L1520.28 1519.52 L1523.23 1519.52 Z" fill="#000000" fill-rule="evenodd" fill-opacity="1" /><path clip-path="url(#clip270)" d="M1550.65 1522.76 L1550.65 1526.46 Q1548.87 1524.81 1546.86 1524 Q1544.86 1523.18 1542.61 1523.18 Q1538.16 1523.18 1535.8 1525.91 Q1533.44 1528.62 1533.44 1533.75 Q1533.44 1538.88 1535.8 1541.6 Q1538.16 1544.31 1542.61 1544.31 Q1544.86 1544.31 1546.86 1543.49 Q1548.87 1542.68 1550.65 1541.03 L1550.65 1544.69 Q1548.81 1545.94 1546.74 1546.57 Q1544.69 1547.19 1542.4 1547.19 Q1536.51 1547.19 1533.13 1543.6 Q1529.74 1539.99 1529.74 1533.75 Q1529.74 1527.5 1533.13 1523.91 Q1536.51 1520.3 1542.4 1520.3 Q1544.73 1520.3 1546.77 1520.92 Q1548.84 1521.53 1550.65 1522.76 Z" fill="#000000" fill-rule="evenodd" fill-opacity="1" /><path clip-path="url(#clip270)" d="M1560.04 1519.52 L1560.04 1555.07 L1557.09 1555.07 L1557.09 1519.52 L1560.04 1519.52 Z" fill="#000000" fill-rule="evenodd" fill-opacity="1" /><path clip-path="url(#clip270)" d="M1581.81 1535.8 Q1581.93 1537.09 1583.02 1539.17 Q1584.31 1541.58 1586.74 1542.94 Q1589.12 1544.26 1591.69 1544.27 L1603.79 1544.27 L1603.79 1547.04 L1591.69 1547.04 Q1588.35 1547.04 1585.26 1545.32 Q1582.19 1543.6 1580.54 1540.54 Q1578.89 1537.49 1578.89 1534.24 Q1578.89 1531.03 1580.54 1527.97 Q1582.19 1524.92 1585.26 1523.18 Q1588.35 1521.44 1591.69 1521.44 L1603.79 1521.44 L1603.79 1524.21 L1591.69 1524.21 Q1589.12 1524.22 1586.74 1525.56 Q1584.33 1526.93 1583.02 1529.33 Q1581.91 1531.41 1581.76 1533.02 L1603.79 1533.02 L1603.79 1535.8 L1581.81 1535.8 Z" fill="#000000" fill-rule="evenodd" fill-opacity="1" /><path clip-path="url(#clip270)" d="M1629.15 1519.71 Q1626.83 1523.7 1625.7 1527.61 Q1624.57 1531.51 1624.57 1535.52 Q1624.57 1539.54 1625.7 1543.48 Q1626.84 1547.4 1629.15 1551.38 L1626.37 1551.38 Q1623.77 1547.3 1622.47 1543.35 Q1621.18 1539.41 1621.18 1535.52 Q1621.18 1531.65 1622.47 1527.73 Q1623.75 1523.81 1626.37 1519.71 L1629.15 1519.71 Z" fill="#000000" fill-rule="evenodd" fill-opacity="1" /><path clip-path="url(#clip270)" d="M1638.82 1543.74 L1651.06 1543.74 L1651.06 1546.69 L1634.6 1546.69 L1634.6 1543.74 Q1636.6 1541.67 1640.04 1538.2 Q1643.49 1534.71 1644.38 1533.7 Q1646.06 1531.81 1646.72 1530.51 Q1647.4 1529.19 1647.4 1527.92 Q1647.4 1525.85 1645.94 1524.55 Q1644.5 1523.25 1642.17 1523.25 Q1640.52 1523.25 1638.68 1523.82 Q1636.86 1524.4 1634.78 1525.56 L1634.78 1522.02 Q1636.9 1521.17 1638.74 1520.73 Q1640.58 1520.3 1642.1 1520.3 Q1646.13 1520.3 1648.53 1522.31 Q1650.92 1524.33 1650.92 1527.69 Q1650.92 1529.29 1650.32 1530.73 Q1649.72 1532.16 1648.14 1534.1 Q1647.71 1534.6 1645.38 1537.02 Q1643.06 1539.41 1638.82 1543.74 Z" fill="#000000" fill-rule="evenodd" fill-opacity="1" /><path clip-path="url(#clip270)" d="M1658.42 1542.28 L1662.09 1542.28 L1662.09 1546.69 L1658.42 1546.69 L1658.42 1542.28 Z" fill="#000000" fill-rule="evenodd" fill-opacity="1" /><path clip-path="url(#clip270)" d="M1672.75 1543.74 L1684.99 1543.74 L1684.99 1546.69 L1668.53 1546.69 L1668.53 1543.74 Q1670.52 1541.67 1673.96 1538.2 Q1677.42 1534.71 1678.3 1533.7 Q1679.99 1531.81 1680.64 1530.51 Q1681.32 1529.19 1681.32 1527.92 Q1681.32 1525.85 1679.86 1524.55 Q1678.42 1523.25 1676.1 1523.25 Q1674.45 1523.25 1672.61 1523.82 Q1670.78 1524.4 1668.7 1525.56 L1668.7 1522.02 Q1670.82 1521.17 1672.66 1520.73 Q1674.5 1520.3 1676.03 1520.3 Q1680.05 1520.3 1682.45 1522.31 Q1684.85 1524.33 1684.85 1527.69 Q1684.85 1529.29 1684.24 1530.73 Q1683.65 1532.16 1682.07 1534.1 Q1681.63 1534.6 1679.31 1537.02 Q1676.98 1539.41 1672.75 1543.74 Z" fill="#000000" fill-rule="evenodd" fill-opacity="1" /><path clip-path="url(#clip270)" d="M1701.98 1523.82 L1693.13 1537.66 L1701.98 1537.66 L1701.98 1523.82 M1701.06 1520.77 L1705.47 1520.77 L1705.47 1537.66 L1709.17 1537.66 L1709.17 1540.58 L1705.47 1540.58 L1705.47 1546.69 L1701.98 1546.69 L1701.98 1540.58 L1690.28 1540.58 L1690.28 1537.19 L1701.06 1520.77 Z" fill="#000000" fill-rule="evenodd" fill-opacity="1" /><path clip-path="url(#clip270)" d="M1715.33 1542.28 L1719 1542.28 L1719 1545.26 L1716.15 1550.82 L1713.91 1550.82 L1715.33 1545.26 L1715.33 1542.28 Z" fill="#000000" fill-rule="evenodd" fill-opacity="1" /><path clip-path="url(#clip270)" d="M1729.29 1543.74 L1741.53 1543.74 L1741.53 1546.69 L1725.07 1546.69 L1725.07 1543.74 Q1727.07 1541.67 1730.51 1538.2 Q1733.96 1534.71 1734.85 1533.7 Q1736.53 1531.81 1737.19 1530.51 Q1737.87 1529.19 1737.87 1527.92 Q1737.87 1525.85 1736.41 1524.55 Q1734.97 1523.25 1732.64 1523.25 Q1730.99 1523.25 1729.15 1523.82 Q1727.33 1524.4 1725.25 1525.56 L1725.25 1522.02 Q1727.36 1521.17 1729.2 1520.73 Q1731.04 1520.3 1732.57 1520.3 Q1736.6 1520.3 1739 1522.31 Q1741.39 1524.33 1741.39 1527.69 Q1741.39 1529.29 1740.78 1530.73 Q1740.19 1532.16 1738.61 1534.1 Q1738.18 1534.6 1735.85 1537.02 Q1733.53 1539.41 1729.29 1543.74 Z" fill="#000000" fill-rule="evenodd" fill-opacity="1" /><path clip-path="url(#clip270)" d="M1748.89 1542.28 L1752.55 1542.28 L1752.55 1546.69 L1748.89 1546.69 L1748.89 1542.28 Z" fill="#000000" fill-rule="evenodd" fill-opacity="1" /><path clip-path="url(#clip270)" d="M1763.21 1543.74 L1775.45 1543.74 L1775.45 1546.69 L1759 1546.69 L1759 1543.74 Q1760.99 1541.67 1764.43 1538.2 Q1767.88 1534.71 1768.77 1533.7 Q1770.45 1531.81 1771.11 1530.51 Q1771.79 1529.19 1771.79 1527.92 Q1771.79 1525.85 1770.33 1524.55 Q1768.89 1523.25 1766.56 1523.25 Q1764.92 1523.25 1763.07 1523.82 Q1761.25 1524.4 1759.17 1525.56 L1759.17 1522.02 Q1761.29 1521.17 1763.13 1520.73 Q1764.97 1520.3 1766.5 1520.3 Q1770.52 1520.3 1772.92 1522.31 Q1775.31 1524.33 1775.31 1527.69 Q1775.31 1529.29 1774.71 1530.73 Q1774.12 1532.16 1772.54 1534.1 Q1772.1 1534.6 1769.78 1537.02 Q1767.45 1539.41 1763.21 1543.74 Z" fill="#000000" fill-rule="evenodd" fill-opacity="1" /><path clip-path="url(#clip270)" d="M1781.93 1520.77 L1798.6 1520.77 L1798.6 1522.26 L1789.19 1546.69 L1785.52 1546.69 L1794.38 1523.72 L1781.93 1523.72 L1781.93 1520.77 Z" fill="#000000" fill-rule="evenodd" fill-opacity="1" /><path clip-path="url(#clip270)" d="M1812.45 1519.67 L1812.45 1551.38 L1805.09 1551.38 L1805.09 1548.89 L1809.24 1548.89 L1809.24 1522.16 L1805.09 1522.16 L1805.09 1519.67 L1812.45 1519.67 Z" fill="#000000" fill-rule="evenodd" fill-opacity="1" /><path clip-path="url(#clip270)" d="M1939.1 1519.52 L1939.1 1555.07 L1936.15 1555.07 L1936.15 1519.52 L1939.1 1519.52 Z" fill="#000000" fill-rule="evenodd" fill-opacity="1" /><path clip-path="url(#clip270)" d="M1966.51 1522.76 L1966.51 1526.46 Q1964.74 1524.81 1962.73 1524 Q1960.73 1523.18 1958.48 1523.18 Q1954.03 1523.18 1951.67 1525.91 Q1949.31 1528.62 1949.31 1533.75 Q1949.31 1538.88 1951.67 1541.6 Q1954.03 1544.31 1958.48 1544.31 Q1960.73 1544.31 1962.73 1543.49 Q1964.74 1542.68 1966.51 1541.03 L1966.51 1544.69 Q1964.67 1545.94 1962.61 1546.57 Q1960.56 1547.19 1958.27 1547.19 Q1952.38 1547.19 1949 1543.6 Q1945.61 1539.99 1945.61 1533.75 Q1945.61 1527.5 1949 1523.91 Q1952.38 1520.3 1958.27 1520.3 Q1960.59 1520.3 1962.64 1520.92 Q1964.71 1521.53 1966.51 1522.76 Z" fill="#000000" fill-rule="evenodd" fill-opacity="1" /><path clip-path="url(#clip270)" d="M1975.91 1519.52 L1975.91 1555.07 L1972.96 1555.07 L1972.96 1519.52 L1975.91 1519.52 Z" fill="#000000" fill-rule="evenodd" fill-opacity="1" /><path clip-path="url(#clip270)" d="M1997.68 1535.8 Q1997.8 1537.09 1998.89 1539.17 Q2000.18 1541.58 2002.61 1542.94 Q2004.99 1544.26 2007.56 1544.27 L2019.66 1544.27 L2019.66 1547.04 L2007.56 1547.04 Q2004.22 1547.04 2001.13 1545.32 Q1998.06 1543.6 1996.41 1540.54 Q1994.76 1537.49 1994.76 1534.24 Q1994.76 1531.03 1996.41 1527.97 Q1998.06 1524.92 2001.13 1523.18 Q2004.22 1521.44 2007.56 1521.44 L2019.66 1521.44 L2019.66 1524.21 L2007.56 1524.21 Q2004.99 1524.22 2002.61 1525.56 Q2000.2 1526.93 1998.89 1529.33 Q1997.78 1531.41 1997.63 1533.02 L2019.66 1533.02 L2019.66 1535.8 L1997.68 1535.8 Z" fill="#000000" fill-rule="evenodd" fill-opacity="1" /><path clip-path="url(#clip270)" d="M2045.02 1519.71 Q2042.7 1523.7 2041.57 1527.61 Q2040.44 1531.51 2040.44 1535.52 Q2040.44 1539.54 2041.57 1543.48 Q2042.71 1547.4 2045.02 1551.38 L2042.24 1551.38 Q2039.64 1547.3 2038.34 1543.35 Q2037.05 1539.41 2037.05 1535.52 Q2037.05 1531.65 2038.34 1527.73 Q2039.62 1523.81 2042.24 1519.71 L2045.02 1519.71 Z" fill="#000000" fill-rule="evenodd" fill-opacity="1" /><path clip-path="url(#clip270)" d="M2054.69 1543.74 L2066.93 1543.74 L2066.93 1546.69 L2050.47 1546.69 L2050.47 1543.74 Q2052.47 1541.67 2055.91 1538.2 Q2059.36 1534.71 2060.25 1533.7 Q2061.93 1531.81 2062.59 1530.51 Q2063.27 1529.19 2063.27 1527.92 Q2063.27 1525.85 2061.81 1524.55 Q2060.37 1523.25 2058.04 1523.25 Q2056.39 1523.25 2054.55 1523.82 Q2052.73 1524.4 2050.65 1525.56 L2050.65 1522.02 Q2052.76 1521.17 2054.6 1520.73 Q2056.45 1520.3 2057.97 1520.3 Q2062 1520.3 2064.4 1522.31 Q2066.79 1524.33 2066.79 1527.69 Q2066.79 1529.29 2066.18 1530.73 Q2065.59 1532.16 2064.01 1534.1 Q2063.58 1534.6 2061.25 1537.02 Q2058.93 1539.41 2054.69 1543.74 Z" fill="#000000" fill-rule="evenodd" fill-opacity="1" /><path clip-path="url(#clip270)" d="M2074.29 1542.28 L2077.96 1542.28 L2077.96 1546.69 L2074.29 1546.69 L2074.29 1542.28 Z" fill="#000000" fill-rule="evenodd" fill-opacity="1" /><path clip-path="url(#clip270)" d="M2088.61 1543.74 L2100.85 1543.74 L2100.85 1546.69 L2084.4 1546.69 L2084.4 1543.74 Q2086.39 1541.67 2089.83 1538.2 Q2093.29 1534.71 2094.17 1533.7 Q2095.85 1531.81 2096.51 1530.51 Q2097.19 1529.19 2097.19 1527.92 Q2097.19 1525.85 2095.73 1524.55 Q2094.29 1523.25 2091.97 1523.25 Q2090.32 1523.25 2088.48 1523.82 Q2086.65 1524.4 2084.57 1525.56 L2084.57 1522.02 Q2086.69 1521.17 2088.53 1520.73 Q2090.37 1520.3 2091.9 1520.3 Q2095.92 1520.3 2098.32 1522.31 Q2100.72 1524.33 2100.72 1527.69 Q2100.72 1529.29 2100.11 1530.73 Q2099.52 1532.16 2097.94 1534.1 Q2097.5 1534.6 2095.18 1537.02 Q2092.85 1539.41 2088.61 1543.74 Z" fill="#000000" fill-rule="evenodd" fill-opacity="1" /><path clip-path="url(#clip270)" d="M2107.33 1520.77 L2124 1520.77 L2124 1522.26 L2114.59 1546.69 L2110.92 1546.69 L2119.78 1523.72 L2107.33 1523.72 L2107.33 1520.77 Z" fill="#000000" fill-rule="evenodd" fill-opacity="1" /><path clip-path="url(#clip270)" d="M2131.2 1542.28 L2134.86 1542.28 L2134.86 1545.26 L2132.02 1550.82 L2129.78 1550.82 L2131.2 1545.26 L2131.2 1542.28 Z" fill="#000000" fill-rule="evenodd" fill-opacity="1" /><path clip-path="url(#clip270)" d="M2145.16 1543.74 L2157.4 1543.74 L2157.4 1546.69 L2140.94 1546.69 L2140.94 1543.74 Q2142.94 1541.67 2146.38 1538.2 Q2149.83 1534.71 2150.72 1533.7 Q2152.4 1531.81 2153.06 1530.51 Q2153.74 1529.19 2153.74 1527.92 Q2153.74 1525.85 2152.28 1524.55 Q2150.84 1523.25 2148.51 1523.25 Q2146.86 1523.25 2145.02 1523.82 Q2143.2 1524.4 2141.11 1525.56 L2141.11 1522.02 Q2143.23 1521.17 2145.07 1520.73 Q2146.91 1520.3 2148.44 1520.3 Q2152.47 1520.3 2154.86 1522.31 Q2157.26 1524.33 2157.26 1527.69 Q2157.26 1529.29 2156.65 1530.73 Q2156.06 1532.16 2154.48 1534.1 Q2154.05 1534.6 2151.72 1537.02 Q2149.4 1539.41 2145.16 1543.74 Z" fill="#000000" fill-rule="evenodd" fill-opacity="1" /><path clip-path="url(#clip270)" d="M2164.76 1542.28 L2168.42 1542.28 L2168.42 1546.69 L2164.76 1546.69 L2164.76 1542.28 Z" fill="#000000" fill-rule="evenodd" fill-opacity="1" /><path clip-path="url(#clip270)" d="M2186.69 1532.71 Q2189.2 1533.25 2190.61 1534.95 Q2192.03 1536.65 2192.03 1539.15 Q2192.03 1542.99 2189.4 1545.09 Q2186.76 1547.19 2181.9 1547.19 Q2180.26 1547.19 2178.53 1546.86 Q2176.81 1546.55 2174.97 1545.91 L2174.97 1542.52 Q2176.43 1543.37 2178.16 1543.81 Q2179.9 1544.24 2181.79 1544.24 Q2185.09 1544.24 2186.81 1542.94 Q2188.55 1541.64 2188.55 1539.15 Q2188.55 1536.86 2186.93 1535.58 Q2185.33 1534.27 2182.47 1534.27 L2179.45 1534.27 L2179.45 1531.39 L2182.61 1531.39 Q2185.19 1531.39 2186.57 1530.37 Q2187.94 1529.33 2187.94 1527.38 Q2187.94 1525.39 2186.51 1524.33 Q2185.11 1523.25 2182.47 1523.25 Q2181.03 1523.25 2179.38 1523.56 Q2177.73 1523.88 2175.75 1524.54 L2175.75 1521.41 Q2177.75 1520.85 2179.48 1520.58 Q2181.24 1520.3 2182.78 1520.3 Q2186.77 1520.3 2189.1 1522.12 Q2191.43 1523.93 2191.43 1527.02 Q2191.43 1529.17 2190.19 1530.66 Q2188.96 1532.14 2186.69 1532.71 Z" fill="#000000" fill-rule="evenodd" fill-opacity="1" /><path clip-path="url(#clip270)" d="M2205.7 1519.67 L2205.7 1551.38 L2198.34 1551.38 L2198.34 1548.89 L2202.49 1548.89 L2202.49 1522.16 L2198.34 1522.16 L2198.34 1519.67 L2205.7 1519.67 Z" fill="#000000" fill-rule="evenodd" fill-opacity="1" /><polyline clip-path="url(#clip272)" style="stroke:#000000; stroke-linecap:round; stroke-linejoin:round; stroke-width:2; stroke-opacity:0.1; fill:none" points="
  170.857,1454.11 2352.76,1454.11 
  "/>
<polyline clip-path="url(#clip272)" style="stroke:#000000; stroke-linecap:round; stroke-linejoin:round; stroke-width:2; stroke-opacity:0.1; fill:none" points="
  170.857,1017.72 2352.76,1017.72 
  "/>
<polyline clip-path="url(#clip272)" style="stroke:#000000; stroke-linecap:round; stroke-linejoin:round; stroke-width:2; stroke-opacity:0.1; fill:none" points="
  170.857,581.338 2352.76,581.338 
  "/>
<polyline clip-path="url(#clip272)" style="stroke:#000000; stroke-linecap:round; stroke-linejoin:round; stroke-width:2; stroke-opacity:0.1; fill:none" points="
  170.857,144.951 2352.76,144.951 
  "/>
<polyline clip-path="url(#clip270)" style="stroke:#000000; stroke-linecap:round; stroke-linejoin:round; stroke-width:4; stroke-opacity:1; fill:none" points="
  170.857,1495.09 170.857,47.2441 
  "/>
<polyline clip-path="url(#clip270)" style="stroke:#000000; stroke-linecap:round; stroke-linejoin:round; stroke-width:4; stroke-opacity:1; fill:none" points="
  170.857,1454.11 189.755,1454.11 
  "/>
<polyline clip-path="url(#clip270)" style="stroke:#000000; stroke-linecap:round; stroke-linejoin:round; stroke-width:4; stroke-opacity:1; fill:none" points="
  170.857,1017.72 189.755,1017.72 
  "/>
<polyline clip-path="url(#clip270)" style="stroke:#000000; stroke-linecap:round; stroke-linejoin:round; stroke-width:4; stroke-opacity:1; fill:none" points="
  170.857,581.338 189.755,581.338 
  "/>
<polyline clip-path="url(#clip270)" style="stroke:#000000; stroke-linecap:round; stroke-linejoin:round; stroke-width:4; stroke-opacity:1; fill:none" points="
  170.857,144.951 189.755,144.951 
  "/>
<path clip-path="url(#clip270)" d="M122.913 1439.91 Q119.302 1439.91 117.473 1443.47 Q115.668 1447.02 115.668 1454.15 Q115.668 1461.25 117.473 1464.82 Q119.302 1468.36 122.913 1468.36 Q126.547 1468.36 128.353 1464.82 Q130.182 1461.25 130.182 1454.15 Q130.182 1447.02 128.353 1443.47 Q126.547 1439.91 122.913 1439.91 M122.913 1436.21 Q128.723 1436.21 131.779 1440.81 Q134.857 1445.4 134.857 1454.15 Q134.857 1462.87 131.779 1467.48 Q128.723 1472.06 122.913 1472.06 Q117.103 1472.06 114.024 1467.48 Q110.969 1462.87 110.969 1454.15 Q110.969 1445.4 114.024 1440.81 Q117.103 1436.21 122.913 1436.21 Z" fill="#000000" fill-rule="evenodd" fill-opacity="1" /><path clip-path="url(#clip270)" d="M53.3995 1031.07 L61.0384 1031.07 L61.0384 1004.7 L52.7282 1006.37 L52.7282 1002.11 L60.9921 1000.44 L65.668 1000.44 L65.668 1031.07 L73.3068 1031.07 L73.3068 1035 L53.3995 1035 L53.3995 1031.07 Z" fill="#000000" fill-rule="evenodd" fill-opacity="1" /><path clip-path="url(#clip270)" d="M92.7512 1003.52 Q89.1401 1003.52 87.3114 1007.09 Q85.5058 1010.63 85.5058 1017.76 Q85.5058 1024.87 87.3114 1028.43 Q89.1401 1031.97 92.7512 1031.97 Q96.3854 1031.97 98.1909 1028.43 Q100.02 1024.87 100.02 1017.76 Q100.02 1010.63 98.1909 1007.09 Q96.3854 1003.52 92.7512 1003.52 M92.7512 999.819 Q98.5613 999.819 101.617 1004.43 Q104.696 1009.01 104.696 1017.76 Q104.696 1026.49 101.617 1031.09 Q98.5613 1035.68 92.7512 1035.68 Q86.941 1035.68 83.8623 1031.09 Q80.8068 1026.49 80.8068 1017.76 Q80.8068 1009.01 83.8623 1004.43 Q86.941 999.819 92.7512 999.819 Z" fill="#000000" fill-rule="evenodd" fill-opacity="1" /><path clip-path="url(#clip270)" d="M122.913 1003.52 Q119.302 1003.52 117.473 1007.09 Q115.668 1010.63 115.668 1017.76 Q115.668 1024.87 117.473 1028.43 Q119.302 1031.97 122.913 1031.97 Q126.547 1031.97 128.353 1028.43 Q130.182 1024.87 130.182 1017.76 Q130.182 1010.63 128.353 1007.09 Q126.547 1003.52 122.913 1003.52 M122.913 999.819 Q128.723 999.819 131.779 1004.43 Q134.857 1009.01 134.857 1017.76 Q134.857 1026.49 131.779 1031.09 Q128.723 1035.68 122.913 1035.68 Q117.103 1035.68 114.024 1031.09 Q110.969 1026.49 110.969 1017.76 Q110.969 1009.01 114.024 1004.43 Q117.103 999.819 122.913 999.819 Z" fill="#000000" fill-rule="evenodd" fill-opacity="1" /><path clip-path="url(#clip270)" d="M56.6171 594.683 L72.9365 594.683 L72.9365 598.618 L50.9921 598.618 L50.9921 594.683 Q53.6541 591.928 58.2375 587.298 Q62.8439 582.646 64.0245 581.303 Q66.2698 578.78 67.1494 577.044 Q68.0522 575.285 68.0522 573.595 Q68.0522 570.84 66.1078 569.104 Q64.1865 567.368 61.0847 567.368 Q58.8856 567.368 56.4319 568.132 Q54.0014 568.896 51.2236 570.447 L51.2236 565.724 Q54.0477 564.59 56.5014 564.011 Q58.955 563.433 60.9921 563.433 Q66.3624 563.433 69.5568 566.118 Q72.7513 568.803 72.7513 573.294 Q72.7513 575.423 71.9411 577.345 Q71.1541 579.243 69.0476 581.835 Q68.4689 582.507 65.367 585.724 Q62.2652 588.919 56.6171 594.683 Z" fill="#000000" fill-rule="evenodd" fill-opacity="1" /><path clip-path="url(#clip270)" d="M92.7512 567.136 Q89.1401 567.136 87.3114 570.701 Q85.5058 574.243 85.5058 581.372 Q85.5058 588.479 87.3114 592.044 Q89.1401 595.585 92.7512 595.585 Q96.3854 595.585 98.1909 592.044 Q100.02 588.479 100.02 581.372 Q100.02 574.243 98.1909 570.701 Q96.3854 567.136 92.7512 567.136 M92.7512 563.433 Q98.5613 563.433 101.617 568.039 Q104.696 572.623 104.696 581.372 Q104.696 590.099 101.617 594.706 Q98.5613 599.289 92.7512 599.289 Q86.941 599.289 83.8623 594.706 Q80.8068 590.099 80.8068 581.372 Q80.8068 572.623 83.8623 568.039 Q86.941 563.433 92.7512 563.433 Z" fill="#000000" fill-rule="evenodd" fill-opacity="1" /><path clip-path="url(#clip270)" d="M122.913 567.136 Q119.302 567.136 117.473 570.701 Q115.668 574.243 115.668 581.372 Q115.668 588.479 117.473 592.044 Q119.302 595.585 122.913 595.585 Q126.547 595.585 128.353 592.044 Q130.182 588.479 130.182 581.372 Q130.182 574.243 128.353 570.701 Q126.547 567.136 122.913 567.136 M122.913 563.433 Q128.723 563.433 131.779 568.039 Q134.857 572.623 134.857 581.372 Q134.857 590.099 131.779 594.706 Q128.723 599.289 122.913 599.289 Q117.103 599.289 114.024 594.706 Q110.969 590.099 110.969 581.372 Q110.969 572.623 114.024 568.039 Q117.103 563.433 122.913 563.433 Z" fill="#000000" fill-rule="evenodd" fill-opacity="1" /><path clip-path="url(#clip270)" d="M66.7559 143.597 Q70.1124 144.315 71.9874 146.583 Q73.8855 148.852 73.8855 152.185 Q73.8855 157.301 70.367 160.101 Q66.8485 162.902 60.3671 162.902 Q58.1912 162.902 55.8764 162.463 Q53.5847 162.046 51.131 161.189 L51.131 156.676 Q53.0754 157.81 55.3903 158.389 Q57.7051 158.967 60.2282 158.967 Q64.6263 158.967 66.918 157.231 Q69.2328 155.495 69.2328 152.185 Q69.2328 149.129 67.08 147.416 Q64.9504 145.68 61.131 145.68 L57.1032 145.68 L57.1032 141.838 L61.3161 141.838 Q64.7652 141.838 66.5939 140.472 Q68.4226 139.083 68.4226 136.49 Q68.4226 133.828 66.5245 132.416 Q64.6495 130.981 61.131 130.981 Q59.2097 130.981 57.0106 131.398 Q54.8115 131.815 52.1727 132.694 L52.1727 128.528 Q54.8347 127.787 57.1495 127.416 Q59.4875 127.046 61.5476 127.046 Q66.8717 127.046 69.9735 129.477 Q73.0753 131.884 73.0753 136.004 Q73.0753 138.875 71.4318 140.865 Q69.7883 142.833 66.7559 143.597 Z" fill="#000000" fill-rule="evenodd" fill-opacity="1" /><path clip-path="url(#clip270)" d="M92.7512 130.75 Q89.1401 130.75 87.3114 134.315 Q85.5058 137.856 85.5058 144.986 Q85.5058 152.092 87.3114 155.657 Q89.1401 159.199 92.7512 159.199 Q96.3854 159.199 98.1909 155.657 Q100.02 152.092 100.02 144.986 Q100.02 137.856 98.1909 134.315 Q96.3854 130.75 92.7512 130.75 M92.7512 127.046 Q98.5613 127.046 101.617 131.653 Q104.696 136.236 104.696 144.986 Q104.696 153.713 101.617 158.319 Q98.5613 162.902 92.7512 162.902 Q86.941 162.902 83.8623 158.319 Q80.8068 153.713 80.8068 144.986 Q80.8068 136.236 83.8623 131.653 Q86.941 127.046 92.7512 127.046 Z" fill="#000000" fill-rule="evenodd" fill-opacity="1" /><path clip-path="url(#clip270)" d="M122.913 130.75 Q119.302 130.75 117.473 134.315 Q115.668 137.856 115.668 144.986 Q115.668 152.092 117.473 155.657 Q119.302 159.199 122.913 159.199 Q126.547 159.199 128.353 155.657 Q130.182 152.092 130.182 144.986 Q130.182 137.856 128.353 134.315 Q126.547 130.75 122.913 130.75 M122.913 127.046 Q128.723 127.046 131.779 131.653 Q134.857 136.236 134.857 144.986 Q134.857 153.713 131.779 158.319 Q128.723 162.902 122.913 162.902 Q117.103 162.902 114.024 158.319 Q110.969 153.713 110.969 144.986 Q110.969 136.236 114.024 131.653 Q117.103 127.046 122.913 127.046 Z" fill="#000000" fill-rule="evenodd" fill-opacity="1" /><path clip-path="url(#clip272)" d="
M290.866 638.068 L290.866 1454.11 L614.513 1454.11 L614.513 638.068 L290.866 638.068 L290.866 638.068  Z
  " fill="#e69f00" fill-rule="evenodd" fill-opacity="1"/>
<polyline clip-path="url(#clip272)" style="stroke:#000000; stroke-linecap:round; stroke-linejoin:round; stroke-width:4; stroke-opacity:1; fill:none" points="
  290.866,638.068 290.866,1454.11 614.513,1454.11 614.513,638.068 290.866,638.068 
  "/>
<path clip-path="url(#clip272)" d="
M695.424 88.2208 L695.424 1454.11 L1019.07 1454.11 L1019.07 88.2208 L695.424 88.2208 L695.424 88.2208  Z
  " fill="#e69f00" fill-rule="evenodd" fill-opacity="1"/>
<polyline clip-path="url(#clip272)" style="stroke:#000000; stroke-linecap:round; stroke-linejoin:round; stroke-width:4; stroke-opacity:1; fill:none" points="
  695.424,88.2208 695.424,1454.11 1019.07,1454.11 1019.07,88.2208 695.424,88.2208 
  "/>
<path clip-path="url(#clip272)" d="
M1099.98 1091.91 L1099.98 1454.11 L1423.63 1454.11 L1423.63 1091.91 L1099.98 1091.91 L1099.98 1091.91  Z
  " fill="#e69f00" fill-rule="evenodd" fill-opacity="1"/>
<polyline clip-path="url(#clip272)" style="stroke:#000000; stroke-linecap:round; stroke-linejoin:round; stroke-width:4; stroke-opacity:1; fill:none" points="
  1099.98,1091.91 1099.98,1454.11 1423.63,1454.11 1423.63,1091.91 1099.98,1091.91 
  "/>
<path clip-path="url(#clip272)" d="
M1504.54 1388.65 L1504.54 1454.11 L1828.19 1454.11 L1828.19 1388.65 L1504.54 1388.65 L1504.54 1388.65  Z
  " fill="#e69f00" fill-rule="evenodd" fill-opacity="1"/>
<polyline clip-path="url(#clip272)" style="stroke:#000000; stroke-linecap:round; stroke-linejoin:round; stroke-width:4; stroke-opacity:1; fill:none" points="
  1504.54,1388.65 1504.54,1454.11 1828.19,1454.11 1828.19,1388.65 1504.54,1388.65 
  "/>
<path clip-path="url(#clip272)" d="
M1909.1 1445.38 L1909.1 1454.11 L2232.75 1454.11 L2232.75 1445.38 L1909.1 1445.38 L1909.1 1445.38  Z
  " fill="#e69f00" fill-rule="evenodd" fill-opacity="1"/>
<polyline clip-path="url(#clip272)" style="stroke:#000000; stroke-linecap:round; stroke-linejoin:round; stroke-width:4; stroke-opacity:1; fill:none" points="
  1909.1,1445.38 1909.1,1454.11 2232.75,1454.11 2232.75,1445.38 1909.1,1445.38 
  "/>
<circle clip-path="url(#clip272)" style="fill:#e69f00; stroke:none; fill-opacity:0" cx="452.689" cy="638.068" r="2"/>
<circle clip-path="url(#clip272)" style="fill:#e69f00; stroke:none; fill-opacity:0" cx="857.248" cy="88.2208" r="2"/>
<circle clip-path="url(#clip272)" style="fill:#e69f00; stroke:none; fill-opacity:0" cx="1261.81" cy="1091.91" r="2"/>
<circle clip-path="url(#clip272)" style="fill:#e69f00; stroke:none; fill-opacity:0" cx="1666.37" cy="1388.65" r="2"/>
<circle clip-path="url(#clip272)" style="fill:#e69f00; stroke:none; fill-opacity:0" cx="2070.92" cy="1445.38" r="2"/>
</svg>
