<?xml version="1.0" encoding="utf-8"?>
<svg xmlns="http://www.w3.org/2000/svg" xmlns:xlink="http://www.w3.org/1999/xlink" width="600" height="400" viewBox="0 0 2400 1600">
<defs>
  <clipPath id="clip820">
    <rect x="0" y="0" width="2400" height="1600"/>
  </clipPath>
</defs>
<path clip-path="url(#clip820)" d="M0 1600 L2400 1600 L2400 0 L0 0  Z" fill="#ffffff" fill-rule="evenodd" fill-opacity="1"/>
<defs>
  <clipPath id="clip821">
    <rect x="480" y="0" width="1681" height="1600"/>
  </clipPath>
</defs>
<path clip-path="url(#clip820)" d="M112.177 1486.45 L2352.76 1486.45 L2352.76 47.2441 L112.177 47.2441  Z" fill="#ffffff" fill-rule="evenodd" fill-opacity="1"/>
<defs>
  <clipPath id="clip822">
    <rect x="112" y="47" width="2242" height="1440"/>
  </clipPath>
</defs>
<polyline clip-path="url(#clip822)" style="stroke:#000000; stroke-linecap:round; stroke-linejoin:round; stroke-width:2; stroke-opacity:0.1; fill:none" points="175.59,1486.45 175.59,47.2441 "/>
<polyline clip-path="url(#clip822)" style="stroke:#000000; stroke-linecap:round; stroke-linejoin:round; stroke-width:2; stroke-opacity:0.1; fill:none" points="754.26,1486.45 754.26,47.2441 "/>
<polyline clip-path="url(#clip822)" style="stroke:#000000; stroke-linecap:round; stroke-linejoin:round; stroke-width:2; stroke-opacity:0.1; fill:none" points="1332.93,1486.45 1332.93,47.2441 "/>
<polyline clip-path="url(#clip822)" style="stroke:#000000; stroke-linecap:round; stroke-linejoin:round; stroke-width:2; stroke-opacity:0.1; fill:none" points="1911.6,1486.45 1911.6,47.2441 "/>
<polyline clip-path="url(#clip820)" style="stroke:#000000; stroke-linecap:round; stroke-linejoin:round; stroke-width:4; stroke-opacity:1; fill:none" points="112.177,1486.45 2352.76,1486.45 "/>
<polyline clip-path="url(#clip820)" style="stroke:#000000; stroke-linecap:round; stroke-linejoin:round; stroke-width:4; stroke-opacity:1; fill:none" points="175.59,1486.45 175.59,1467.55 "/>
<polyline clip-path="url(#clip820)" style="stroke:#000000; stroke-linecap:round; stroke-linejoin:round; stroke-width:4; stroke-opacity:1; fill:none" points="754.26,1486.45 754.26,1467.55 "/>
<polyline clip-path="url(#clip820)" style="stroke:#000000; stroke-linecap:round; stroke-linejoin:round; stroke-width:4; stroke-opacity:1; fill:none" points="1332.93,1486.45 1332.93,1467.55 "/>
<polyline clip-path="url(#clip820)" style="stroke:#000000; stroke-linecap:round; stroke-linejoin:round; stroke-width:4; stroke-opacity:1; fill:none" points="1911.6,1486.45 1911.6,1467.55 "/>
<path clip-path="url(#clip820)" d="M47.2687 1544.91 L63.5881 1544.91 L63.5881 1548.85 L41.6437 1548.85 L41.6437 1544.91 Q44.3058 1542.16 48.8891 1537.53 Q53.4955 1532.88 54.6761 1531.53 Q56.9214 1529.01 57.8011 1527.27 Q58.7038 1525.51 58.7038 1523.82 Q58.7038 1521.07 56.7594 1519.33 Q54.8381 1517.6 51.7363 1517.6 Q49.5372 1517.6 47.0835 1518.36 Q44.653 1519.13 41.8752 1520.68 L41.8752 1515.95 Q44.6993 1514.82 47.153 1514.24 Q49.6067 1513.66 51.6437 1513.66 Q57.014 1513.66 60.2085 1516.35 Q63.4029 1519.03 63.4029 1523.52 Q63.4029 1525.65 62.5927 1527.57 Q61.8057 1529.47 59.6992 1532.07 Q59.1205 1532.74 56.0187 1535.95 Q52.9168 1539.15 47.2687 1544.91 Z" fill="#000000" fill-rule="nonzero" fill-opacity="1" /><path clip-path="url(#clip820)" d="M83.4028 1517.37 Q79.7917 1517.37 77.963 1520.93 Q76.1574 1524.47 76.1574 1531.6 Q76.1574 1538.71 77.963 1542.27 Q79.7917 1545.82 83.4028 1545.82 Q87.037 1545.82 88.8426 1542.27 Q90.6713 1538.71 90.6713 1531.6 Q90.6713 1524.47 88.8426 1520.93 Q87.037 1517.37 83.4028 1517.37 M83.4028 1513.66 Q89.2129 1513.66 92.2685 1518.27 Q95.3472 1522.85 95.3472 1531.6 Q95.3472 1540.33 92.2685 1544.94 Q89.2129 1549.52 83.4028 1549.52 Q77.5926 1549.52 74.5139 1544.94 Q71.4584 1540.33 71.4584 1531.6 Q71.4584 1522.85 74.5139 1518.27 Q77.5926 1513.66 83.4028 1513.66 Z" fill="#000000" fill-rule="nonzero" fill-opacity="1" /><path clip-path="url(#clip820)" d="M104.375 1544.91 L112.014 1544.91 L112.014 1518.55 L103.704 1520.21 L103.704 1515.95 L111.967 1514.29 L116.643 1514.29 L116.643 1544.91 L124.282 1544.91 L124.282 1548.85 L104.375 1548.85 L104.375 1544.91 Z" fill="#000000" fill-rule="nonzero" fill-opacity="1" /><path clip-path="url(#clip820)" d="M146.574 1518.36 L134.768 1536.81 L146.574 1536.81 L146.574 1518.36 M145.347 1514.29 L151.226 1514.29 L151.226 1536.81 L156.157 1536.81 L156.157 1540.7 L151.226 1540.7 L151.226 1548.85 L146.574 1548.85 L146.574 1540.7 L130.972 1540.7 L130.972 1536.19 L145.347 1514.29 Z" fill="#000000" fill-rule="nonzero" fill-opacity="1" /><path clip-path="url(#clip820)" d="M161.134 1533.96 L173.611 1533.96 L173.611 1537.76 L161.134 1537.76 L161.134 1533.96 Z" fill="#000000" fill-rule="nonzero" fill-opacity="1" /><path clip-path="url(#clip820)" d="M190.995 1517.37 Q187.384 1517.37 185.555 1520.93 Q183.749 1524.47 183.749 1531.6 Q183.749 1538.71 185.555 1542.27 Q187.384 1545.82 190.995 1545.82 Q194.629 1545.82 196.435 1542.27 Q198.263 1538.71 198.263 1531.6 Q198.263 1524.47 196.435 1520.93 Q194.629 1517.37 190.995 1517.37 M190.995 1513.66 Q196.805 1513.66 199.86 1518.27 Q202.939 1522.85 202.939 1531.6 Q202.939 1540.33 199.86 1544.94 Q196.805 1549.52 190.995 1549.52 Q185.185 1549.52 182.106 1544.94 Q179.05 1540.33 179.05 1531.6 Q179.05 1522.85 182.106 1518.27 Q185.185 1513.66 190.995 1513.66 Z" fill="#000000" fill-rule="nonzero" fill-opacity="1" /><path clip-path="url(#clip820)" d="M215.184 1544.91 L231.504 1544.91 L231.504 1548.85 L209.56 1548.85 L209.56 1544.91 Q212.222 1542.16 216.805 1537.53 Q221.411 1532.88 222.592 1531.53 Q224.837 1529.01 225.717 1527.27 Q226.62 1525.51 226.62 1523.82 Q226.62 1521.07 224.675 1519.33 Q222.754 1517.6 219.652 1517.6 Q217.453 1517.6 214.999 1518.36 Q212.569 1519.13 209.791 1520.68 L209.791 1515.95 Q212.615 1514.82 215.069 1514.24 Q217.522 1513.66 219.559 1513.66 Q224.93 1513.66 228.124 1516.35 Q231.319 1519.03 231.319 1523.52 Q231.319 1525.65 230.508 1527.57 Q229.721 1529.47 227.615 1532.07 Q227.036 1532.74 223.934 1535.95 Q220.833 1539.15 215.184 1544.91 Z" fill="#000000" fill-rule="nonzero" fill-opacity="1" /><path clip-path="url(#clip820)" d="M238.564 1533.96 L251.041 1533.96 L251.041 1537.76 L238.564 1537.76 L238.564 1533.96 Z" fill="#000000" fill-rule="nonzero" fill-opacity="1" /><path clip-path="url(#clip820)" d="M259.235 1544.91 L266.874 1544.91 L266.874 1518.55 L258.564 1520.21 L258.564 1515.95 L266.828 1514.29 L271.504 1514.29 L271.504 1544.91 L279.142 1544.91 L279.142 1548.85 L259.235 1548.85 L259.235 1544.91 Z" fill="#000000" fill-rule="nonzero" fill-opacity="1" /><path clip-path="url(#clip820)" d="M288.633 1514.29 L306.99 1514.29 L306.99 1518.22 L292.916 1518.22 L292.916 1526.7 Q293.934 1526.35 294.953 1526.19 Q295.971 1526 296.99 1526 Q302.777 1526 306.156 1529.17 Q309.536 1532.34 309.536 1537.76 Q309.536 1543.34 306.064 1546.44 Q302.591 1549.52 296.272 1549.52 Q294.096 1549.52 291.828 1549.15 Q289.582 1548.78 287.175 1548.04 L287.175 1543.34 Q289.258 1544.47 291.48 1545.03 Q293.703 1545.58 296.179 1545.58 Q300.184 1545.58 302.522 1543.48 Q304.86 1541.37 304.86 1537.76 Q304.86 1534.15 302.522 1532.04 Q300.184 1529.94 296.179 1529.94 Q294.304 1529.94 292.429 1530.35 Q290.578 1530.77 288.633 1531.65 L288.633 1514.29 Z" fill="#000000" fill-rule="nonzero" fill-opacity="1" /><path clip-path="url(#clip820)" d="M625.487 1544.91 L641.807 1544.91 L641.807 1548.85 L619.863 1548.85 L619.863 1544.91 Q622.525 1542.16 627.108 1537.53 Q631.714 1532.88 632.895 1531.53 Q635.14 1529.01 636.02 1527.27 Q636.923 1525.51 636.923 1523.82 Q636.923 1521.07 634.978 1519.33 Q633.057 1517.6 629.955 1517.6 Q627.756 1517.6 625.302 1518.36 Q622.872 1519.13 620.094 1520.68 L620.094 1515.95 Q622.918 1514.82 625.372 1514.24 Q627.825 1513.66 629.862 1513.66 Q635.233 1513.66 638.427 1516.35 Q641.622 1519.03 641.622 1523.52 Q641.622 1525.65 640.811 1527.57 Q640.024 1529.47 637.918 1532.07 Q637.339 1532.74 634.237 1535.95 Q631.136 1539.15 625.487 1544.91 Z" fill="#000000" fill-rule="nonzero" fill-opacity="1" /><path clip-path="url(#clip820)" d="M661.622 1517.37 Q658.01 1517.37 656.182 1520.93 Q654.376 1524.47 654.376 1531.6 Q654.376 1538.71 656.182 1542.27 Q658.01 1545.82 661.622 1545.82 Q665.256 1545.82 667.061 1542.27 Q668.89 1538.71 668.89 1531.6 Q668.89 1524.47 667.061 1520.93 Q665.256 1517.37 661.622 1517.37 M661.622 1513.66 Q667.432 1513.66 670.487 1518.27 Q673.566 1522.85 673.566 1531.6 Q673.566 1540.33 670.487 1544.94 Q667.432 1549.52 661.622 1549.52 Q655.811 1549.52 652.733 1544.94 Q649.677 1540.33 649.677 1531.6 Q649.677 1522.85 652.733 1518.27 Q655.811 1513.66 661.622 1513.66 Z" fill="#000000" fill-rule="nonzero" fill-opacity="1" /><path clip-path="url(#clip820)" d="M682.594 1544.91 L690.233 1544.91 L690.233 1518.55 L681.922 1520.21 L681.922 1515.95 L690.186 1514.29 L694.862 1514.29 L694.862 1544.91 L702.501 1544.91 L702.501 1548.85 L682.594 1548.85 L682.594 1544.91 Z" fill="#000000" fill-rule="nonzero" fill-opacity="1" /><path clip-path="url(#clip820)" d="M724.793 1518.36 L712.987 1536.81 L724.793 1536.81 L724.793 1518.36 M723.566 1514.29 L729.445 1514.29 L729.445 1536.81 L734.376 1536.81 L734.376 1540.7 L729.445 1540.7 L729.445 1548.85 L724.793 1548.85 L724.793 1540.7 L709.191 1540.7 L709.191 1536.19 L723.566 1514.29 Z" fill="#000000" fill-rule="nonzero" fill-opacity="1" /><path clip-path="url(#clip820)" d="M739.353 1533.96 L751.829 1533.96 L751.829 1537.76 L739.353 1537.76 L739.353 1533.96 Z" fill="#000000" fill-rule="nonzero" fill-opacity="1" /><path clip-path="url(#clip820)" d="M769.214 1517.37 Q765.602 1517.37 763.774 1520.93 Q761.968 1524.47 761.968 1531.6 Q761.968 1538.71 763.774 1542.27 Q765.602 1545.82 769.214 1545.82 Q772.848 1545.82 774.653 1542.27 Q776.482 1538.71 776.482 1531.6 Q776.482 1524.47 774.653 1520.93 Q772.848 1517.37 769.214 1517.37 M769.214 1513.66 Q775.024 1513.66 778.079 1518.27 Q781.158 1522.85 781.158 1531.6 Q781.158 1540.33 778.079 1544.94 Q775.024 1549.52 769.214 1549.52 Q763.403 1549.52 760.325 1544.94 Q757.269 1540.33 757.269 1531.6 Q757.269 1522.85 760.325 1518.27 Q763.403 1513.66 769.214 1513.66 Z" fill="#000000" fill-rule="nonzero" fill-opacity="1" /><path clip-path="url(#clip820)" d="M793.403 1544.91 L809.723 1544.91 L809.723 1548.85 L787.778 1548.85 L787.778 1544.91 Q790.44 1542.16 795.024 1537.53 Q799.63 1532.88 800.811 1531.53 Q803.056 1529.01 803.936 1527.27 Q804.838 1525.51 804.838 1523.82 Q804.838 1521.07 802.894 1519.33 Q800.973 1517.6 797.871 1517.6 Q795.672 1517.6 793.218 1518.36 Q790.788 1519.13 788.01 1520.68 L788.01 1515.95 Q790.834 1514.82 793.288 1514.24 Q795.741 1513.66 797.778 1513.66 Q803.149 1513.66 806.343 1516.35 Q809.537 1519.03 809.537 1523.52 Q809.537 1525.65 808.727 1527.57 Q807.94 1529.47 805.834 1532.07 Q805.255 1532.74 802.153 1535.95 Q799.051 1539.15 793.403 1544.91 Z" fill="#000000" fill-rule="nonzero" fill-opacity="1" /><path clip-path="url(#clip820)" d="M816.783 1533.96 L829.26 1533.96 L829.26 1537.76 L816.783 1537.76 L816.783 1533.96 Z" fill="#000000" fill-rule="nonzero" fill-opacity="1" /><path clip-path="url(#clip820)" d="M837.454 1544.91 L845.093 1544.91 L845.093 1518.55 L836.783 1520.21 L836.783 1515.95 L845.046 1514.29 L849.722 1514.29 L849.722 1544.91 L857.361 1544.91 L857.361 1548.85 L837.454 1548.85 L837.454 1544.91 Z" fill="#000000" fill-rule="nonzero" fill-opacity="1" /><path clip-path="url(#clip820)" d="M876.806 1532.44 Q873.472 1532.44 871.551 1534.22 Q869.653 1536 869.653 1539.13 Q869.653 1542.25 871.551 1544.03 Q873.472 1545.82 876.806 1545.82 Q880.139 1545.82 882.06 1544.03 Q883.981 1542.23 883.981 1539.13 Q883.981 1536 882.06 1534.22 Q880.162 1532.44 876.806 1532.44 M872.13 1530.45 Q869.12 1529.7 867.431 1527.64 Q865.764 1525.58 865.764 1522.62 Q865.764 1518.48 868.704 1516.07 Q871.667 1513.66 876.806 1513.66 Q881.968 1513.66 884.907 1516.07 Q887.847 1518.48 887.847 1522.62 Q887.847 1525.58 886.157 1527.64 Q884.491 1529.7 881.505 1530.45 Q884.884 1531.23 886.759 1533.52 Q888.657 1535.82 888.657 1539.13 Q888.657 1544.15 885.579 1546.83 Q882.523 1549.52 876.806 1549.52 Q871.088 1549.52 868.009 1546.83 Q864.954 1544.15 864.954 1539.13 Q864.954 1535.82 866.852 1533.52 Q868.75 1531.23 872.13 1530.45 M870.417 1523.06 Q870.417 1525.75 872.083 1527.25 Q873.773 1528.76 876.806 1528.76 Q879.815 1528.76 881.505 1527.25 Q883.218 1525.75 883.218 1523.06 Q883.218 1520.38 881.505 1518.87 Q879.815 1517.37 876.806 1517.37 Q873.773 1517.37 872.083 1518.87 Q870.417 1520.38 870.417 1523.06 Z" fill="#000000" fill-rule="nonzero" fill-opacity="1" /><path clip-path="url(#clip820)" d="M1204.72 1544.91 L1221.04 1544.91 L1221.04 1548.85 L1199.1 1548.85 L1199.1 1544.91 Q1201.76 1542.16 1206.35 1537.53 Q1210.95 1532.88 1212.13 1531.53 Q1214.38 1529.01 1215.26 1527.27 Q1216.16 1525.51 1216.16 1523.82 Q1216.16 1521.07 1214.22 1519.33 Q1212.29 1517.6 1209.19 1517.6 Q1206.99 1517.6 1204.54 1518.36 Q1202.11 1519.13 1199.33 1520.68 L1199.33 1515.95 Q1202.16 1514.82 1204.61 1514.24 Q1207.06 1513.66 1209.1 1513.66 Q1214.47 1513.66 1217.66 1516.35 Q1220.86 1519.03 1220.86 1523.52 Q1220.86 1525.65 1220.05 1527.57 Q1219.26 1529.47 1217.16 1532.07 Q1216.58 1532.74 1213.47 1535.95 Q1210.37 1539.15 1204.72 1544.91 Z" fill="#000000" fill-rule="nonzero" fill-opacity="1" /><path clip-path="url(#clip820)" d="M1240.86 1517.37 Q1237.25 1517.37 1235.42 1520.93 Q1233.61 1524.47 1233.61 1531.6 Q1233.61 1538.71 1235.42 1542.27 Q1237.25 1545.82 1240.86 1545.82 Q1244.49 1545.82 1246.3 1542.27 Q1248.13 1538.71 1248.13 1531.6 Q1248.13 1524.47 1246.3 1520.93 Q1244.49 1517.37 1240.86 1517.37 M1240.86 1513.66 Q1246.67 1513.66 1249.72 1518.27 Q1252.8 1522.85 1252.8 1531.6 Q1252.8 1540.33 1249.72 1544.94 Q1246.67 1549.52 1240.86 1549.52 Q1235.05 1549.52 1231.97 1544.94 Q1228.91 1540.33 1228.91 1531.6 Q1228.91 1522.85 1231.97 1518.27 Q1235.05 1513.66 1240.86 1513.66 Z" fill="#000000" fill-rule="nonzero" fill-opacity="1" /><path clip-path="url(#clip820)" d="M1261.83 1544.91 L1269.47 1544.91 L1269.47 1518.55 L1261.16 1520.21 L1261.16 1515.95 L1269.42 1514.29 L1274.1 1514.29 L1274.1 1544.91 L1281.74 1544.91 L1281.74 1548.85 L1261.83 1548.85 L1261.83 1544.91 Z" fill="#000000" fill-rule="nonzero" fill-opacity="1" /><path clip-path="url(#clip820)" d="M1304.03 1518.36 L1292.22 1536.81 L1304.03 1536.81 L1304.03 1518.36 M1302.8 1514.29 L1308.68 1514.29 L1308.68 1536.81 L1313.61 1536.81 L1313.61 1540.7 L1308.68 1540.7 L1308.68 1548.85 L1304.03 1548.85 L1304.03 1540.7 L1288.43 1540.7 L1288.43 1536.19 L1302.8 1514.29 Z" fill="#000000" fill-rule="nonzero" fill-opacity="1" /><path clip-path="url(#clip820)" d="M1318.59 1533.96 L1331.07 1533.96 L1331.07 1537.76 L1318.59 1537.76 L1318.59 1533.96 Z" fill="#000000" fill-rule="nonzero" fill-opacity="1" /><path clip-path="url(#clip820)" d="M1348.45 1517.37 Q1344.84 1517.37 1343.01 1520.93 Q1341.21 1524.47 1341.21 1531.6 Q1341.21 1538.71 1343.01 1542.27 Q1344.84 1545.82 1348.45 1545.82 Q1352.09 1545.82 1353.89 1542.27 Q1355.72 1538.71 1355.72 1531.6 Q1355.72 1524.47 1353.89 1520.93 Q1352.09 1517.37 1348.45 1517.37 M1348.45 1513.66 Q1354.26 1513.66 1357.32 1518.27 Q1360.4 1522.85 1360.4 1531.6 Q1360.4 1540.33 1357.32 1544.94 Q1354.26 1549.52 1348.45 1549.52 Q1342.64 1549.52 1339.56 1544.94 Q1336.51 1540.33 1336.51 1531.6 Q1336.51 1522.85 1339.56 1518.27 Q1342.64 1513.66 1348.45 1513.66 Z" fill="#000000" fill-rule="nonzero" fill-opacity="1" /><path clip-path="url(#clip820)" d="M1372.64 1544.91 L1388.96 1544.91 L1388.96 1548.85 L1367.02 1548.85 L1367.02 1544.91 Q1369.68 1542.16 1374.26 1537.53 Q1378.87 1532.88 1380.05 1531.53 Q1382.29 1529.01 1383.17 1527.27 Q1384.08 1525.51 1384.08 1523.82 Q1384.08 1521.07 1382.13 1519.33 Q1380.21 1517.6 1377.11 1517.6 Q1374.91 1517.6 1372.46 1518.36 Q1370.02 1519.13 1367.25 1520.68 L1367.25 1515.95 Q1370.07 1514.82 1372.52 1514.24 Q1374.98 1513.66 1377.02 1513.66 Q1382.39 1513.66 1385.58 1516.35 Q1388.77 1519.03 1388.77 1523.52 Q1388.77 1525.65 1387.96 1527.57 Q1387.18 1529.47 1385.07 1532.07 Q1384.49 1532.74 1381.39 1535.95 Q1378.29 1539.15 1372.64 1544.91 Z" fill="#000000" fill-rule="nonzero" fill-opacity="1" /><path clip-path="url(#clip820)" d="M1396.02 1533.96 L1408.5 1533.96 L1408.5 1537.76 L1396.02 1537.76 L1396.02 1533.96 Z" fill="#000000" fill-rule="nonzero" fill-opacity="1" /><path clip-path="url(#clip820)" d="M1419.91 1544.91 L1436.23 1544.91 L1436.23 1548.85 L1414.28 1548.85 L1414.28 1544.91 Q1416.95 1542.16 1421.53 1537.53 Q1426.14 1532.88 1427.32 1531.53 Q1429.56 1529.01 1430.44 1527.27 Q1431.34 1525.51 1431.34 1523.82 Q1431.34 1521.07 1429.4 1519.33 Q1427.48 1517.6 1424.38 1517.6 Q1422.18 1517.6 1419.72 1518.36 Q1417.29 1519.13 1414.52 1520.68 L1414.52 1515.95 Q1417.34 1514.82 1419.79 1514.24 Q1422.25 1513.66 1424.28 1513.66 Q1429.65 1513.66 1432.85 1516.35 Q1436.04 1519.03 1436.04 1523.52 Q1436.04 1525.65 1435.23 1527.57 Q1434.45 1529.47 1432.34 1532.07 Q1431.76 1532.74 1428.66 1535.95 Q1425.56 1539.15 1419.91 1544.91 Z" fill="#000000" fill-rule="nonzero" fill-opacity="1" /><path clip-path="url(#clip820)" d="M1446.85 1544.91 L1454.49 1544.91 L1454.49 1518.55 L1446.18 1520.21 L1446.18 1515.95 L1454.45 1514.29 L1459.12 1514.29 L1459.12 1544.91 L1466.76 1544.91 L1466.76 1548.85 L1446.85 1548.85 L1446.85 1544.91 Z" fill="#000000" fill-rule="nonzero" fill-opacity="1" /><path clip-path="url(#clip820)" d="M1782.54 1544.91 L1798.86 1544.91 L1798.86 1548.85 L1776.91 1548.85 L1776.91 1544.91 Q1779.58 1542.16 1784.16 1537.53 Q1788.77 1532.88 1789.95 1531.53 Q1792.19 1529.01 1793.07 1527.27 Q1793.97 1525.51 1793.97 1523.82 Q1793.97 1521.07 1792.03 1519.33 Q1790.11 1517.6 1787.01 1517.6 Q1784.81 1517.6 1782.35 1518.36 Q1779.92 1519.13 1777.14 1520.68 L1777.14 1515.95 Q1779.97 1514.82 1782.42 1514.24 Q1784.88 1513.66 1786.91 1513.66 Q1792.28 1513.66 1795.48 1516.35 Q1798.67 1519.03 1798.67 1523.52 Q1798.67 1525.65 1797.86 1527.57 Q1797.08 1529.47 1794.97 1532.07 Q1794.39 1532.74 1791.29 1535.95 Q1788.19 1539.15 1782.54 1544.91 Z" fill="#000000" fill-rule="nonzero" fill-opacity="1" /><path clip-path="url(#clip820)" d="M1818.67 1517.37 Q1815.06 1517.37 1813.23 1520.93 Q1811.43 1524.47 1811.43 1531.6 Q1811.43 1538.71 1813.23 1542.27 Q1815.06 1545.82 1818.67 1545.82 Q1822.31 1545.82 1824.11 1542.27 Q1825.94 1538.71 1825.94 1531.6 Q1825.94 1524.47 1824.11 1520.93 Q1822.31 1517.37 1818.67 1517.37 M1818.67 1513.66 Q1824.48 1513.66 1827.54 1518.27 Q1830.62 1522.85 1830.62 1531.6 Q1830.62 1540.33 1827.54 1544.94 Q1824.48 1549.52 1818.67 1549.52 Q1812.86 1549.52 1809.78 1544.94 Q1806.73 1540.33 1806.73 1531.6 Q1806.73 1522.85 1809.78 1518.27 Q1812.86 1513.66 1818.67 1513.66 Z" fill="#000000" fill-rule="nonzero" fill-opacity="1" /><path clip-path="url(#clip820)" d="M1839.64 1544.91 L1847.28 1544.91 L1847.28 1518.55 L1838.97 1520.21 L1838.97 1515.95 L1847.24 1514.29 L1851.91 1514.29 L1851.91 1544.91 L1859.55 1544.91 L1859.55 1548.85 L1839.64 1548.85 L1839.64 1544.91 Z" fill="#000000" fill-rule="nonzero" fill-opacity="1" /><path clip-path="url(#clip820)" d="M1881.84 1518.36 L1870.04 1536.81 L1881.84 1536.81 L1881.84 1518.36 M1880.62 1514.29 L1886.5 1514.29 L1886.5 1536.81 L1891.43 1536.81 L1891.43 1540.7 L1886.5 1540.7 L1886.5 1548.85 L1881.84 1548.85 L1881.84 1540.7 L1866.24 1540.7 L1866.24 1536.19 L1880.62 1514.29 Z" fill="#000000" fill-rule="nonzero" fill-opacity="1" /><path clip-path="url(#clip820)" d="M1896.4 1533.96 L1908.88 1533.96 L1908.88 1537.76 L1896.4 1537.76 L1896.4 1533.96 Z" fill="#000000" fill-rule="nonzero" fill-opacity="1" /><path clip-path="url(#clip820)" d="M1926.26 1517.37 Q1922.65 1517.37 1920.82 1520.93 Q1919.02 1524.47 1919.02 1531.6 Q1919.02 1538.71 1920.82 1542.27 Q1922.65 1545.82 1926.26 1545.82 Q1929.9 1545.82 1931.7 1542.27 Q1933.53 1538.71 1933.53 1531.6 Q1933.53 1524.47 1931.7 1520.93 Q1929.9 1517.37 1926.26 1517.37 M1926.26 1513.66 Q1932.07 1513.66 1935.13 1518.27 Q1938.21 1522.85 1938.21 1531.6 Q1938.21 1540.33 1935.13 1544.94 Q1932.07 1549.52 1926.26 1549.52 Q1920.45 1549.52 1917.38 1544.94 Q1914.32 1540.33 1914.32 1531.6 Q1914.32 1522.85 1917.38 1518.27 Q1920.45 1513.66 1926.26 1513.66 Z" fill="#000000" fill-rule="nonzero" fill-opacity="1" /><path clip-path="url(#clip820)" d="M1950.45 1544.91 L1966.77 1544.91 L1966.77 1548.85 L1944.83 1548.85 L1944.83 1544.91 Q1947.49 1542.16 1952.07 1537.53 Q1956.68 1532.88 1957.86 1531.53 Q1960.11 1529.01 1960.99 1527.27 Q1961.89 1525.51 1961.89 1523.82 Q1961.89 1521.07 1959.94 1519.33 Q1958.02 1517.6 1954.92 1517.6 Q1952.72 1517.6 1950.27 1518.36 Q1947.84 1519.13 1945.06 1520.68 L1945.06 1515.95 Q1947.88 1514.82 1950.34 1514.24 Q1952.79 1513.66 1954.83 1513.66 Q1960.2 1513.66 1963.39 1516.35 Q1966.59 1519.03 1966.59 1523.52 Q1966.59 1525.65 1965.78 1527.57 Q1964.99 1529.47 1962.88 1532.07 Q1962.31 1532.74 1959.2 1535.95 Q1956.1 1539.15 1950.45 1544.91 Z" fill="#000000" fill-rule="nonzero" fill-opacity="1" /><path clip-path="url(#clip820)" d="M1973.83 1533.96 L1986.31 1533.96 L1986.31 1537.76 L1973.83 1537.76 L1973.83 1533.96 Z" fill="#000000" fill-rule="nonzero" fill-opacity="1" /><path clip-path="url(#clip820)" d="M1997.72 1544.91 L2014.04 1544.91 L2014.04 1548.85 L1992.1 1548.85 L1992.1 1544.91 Q1994.76 1542.16 1999.34 1537.53 Q2003.95 1532.88 2005.13 1531.53 Q2007.38 1529.01 2008.25 1527.27 Q2009.16 1525.51 2009.16 1523.82 Q2009.16 1521.07 2007.21 1519.33 Q2005.29 1517.6 2002.19 1517.6 Q1999.99 1517.6 1997.54 1518.36 Q1995.11 1519.13 1992.33 1520.68 L1992.33 1515.95 Q1995.15 1514.82 1997.61 1514.24 Q2000.06 1513.66 2002.1 1513.66 Q2007.47 1513.66 2010.66 1516.35 Q2013.86 1519.03 2013.86 1523.52 Q2013.86 1525.65 2013.05 1527.57 Q2012.26 1529.47 2010.15 1532.07 Q2009.57 1532.74 2006.47 1535.95 Q2003.37 1539.15 1997.72 1544.91 Z" fill="#000000" fill-rule="nonzero" fill-opacity="1" /><path clip-path="url(#clip820)" d="M2036.7 1518.36 L2024.9 1536.81 L2036.7 1536.81 L2036.7 1518.36 M2035.48 1514.29 L2041.36 1514.29 L2041.36 1536.81 L2046.29 1536.81 L2046.29 1540.7 L2041.36 1540.7 L2041.36 1548.85 L2036.7 1548.85 L2036.7 1540.7 L2021.1 1540.7 L2021.1 1536.19 L2035.48 1514.29 Z" fill="#000000" fill-rule="nonzero" fill-opacity="1" /><polyline clip-path="url(#clip822)" style="stroke:#000000; stroke-linecap:round; stroke-linejoin:round; stroke-width:2; stroke-opacity:0.1; fill:none" points="112.177,1459.71 2352.76,1459.71 "/>
<polyline clip-path="url(#clip822)" style="stroke:#000000; stroke-linecap:round; stroke-linejoin:round; stroke-width:2; stroke-opacity:0.1; fill:none" points="112.177,1190.58 2352.76,1190.58 "/>
<polyline clip-path="url(#clip822)" style="stroke:#000000; stroke-linecap:round; stroke-linejoin:round; stroke-width:2; stroke-opacity:0.1; fill:none" points="112.177,921.459 2352.76,921.459 "/>
<polyline clip-path="url(#clip822)" style="stroke:#000000; stroke-linecap:round; stroke-linejoin:round; stroke-width:2; stroke-opacity:0.1; fill:none" points="112.177,652.333 2352.76,652.333 "/>
<polyline clip-path="url(#clip822)" style="stroke:#000000; stroke-linecap:round; stroke-linejoin:round; stroke-width:2; stroke-opacity:0.1; fill:none" points="112.177,383.207 2352.76,383.207 "/>
<polyline clip-path="url(#clip822)" style="stroke:#000000; stroke-linecap:round; stroke-linejoin:round; stroke-width:2; stroke-opacity:0.1; fill:none" points="112.177,114.081 2352.76,114.081 "/>
<polyline clip-path="url(#clip820)" style="stroke:#000000; stroke-linecap:round; stroke-linejoin:round; stroke-width:4; stroke-opacity:1; fill:none" points="112.177,1486.45 112.177,47.2441 "/>
<polyline clip-path="url(#clip820)" style="stroke:#000000; stroke-linecap:round; stroke-linejoin:round; stroke-width:4; stroke-opacity:1; fill:none" points="112.177,1459.71 131.075,1459.71 "/>
<polyline clip-path="url(#clip820)" style="stroke:#000000; stroke-linecap:round; stroke-linejoin:round; stroke-width:4; stroke-opacity:1; fill:none" points="112.177,1190.58 131.075,1190.58 "/>
<polyline clip-path="url(#clip820)" style="stroke:#000000; stroke-linecap:round; stroke-linejoin:round; stroke-width:4; stroke-opacity:1; fill:none" points="112.177,921.459 131.075,921.459 "/>
<polyline clip-path="url(#clip820)" style="stroke:#000000; stroke-linecap:round; stroke-linejoin:round; stroke-width:4; stroke-opacity:1; fill:none" points="112.177,652.333 131.075,652.333 "/>
<polyline clip-path="url(#clip820)" style="stroke:#000000; stroke-linecap:round; stroke-linejoin:round; stroke-width:4; stroke-opacity:1; fill:none" points="112.177,383.207 131.075,383.207 "/>
<polyline clip-path="url(#clip820)" style="stroke:#000000; stroke-linecap:round; stroke-linejoin:round; stroke-width:4; stroke-opacity:1; fill:none" points="112.177,114.081 131.075,114.081 "/>
<path clip-path="url(#clip820)" d="M56.2699 1473.06 L63.9087 1473.06 L63.9087 1446.69 L55.5986 1448.36 L55.5986 1444.1 L63.8624 1442.43 L68.5383 1442.43 L68.5383 1473.06 L76.1772 1473.06 L76.1772 1476.99 L56.2699 1476.99 L56.2699 1473.06 Z" fill="#000000" fill-rule="nonzero" fill-opacity="1" /><path clip-path="url(#clip820)" d="M59.8578 1203.93 L76.1772 1203.93 L76.1772 1207.86 L54.2328 1207.86 L54.2328 1203.93 Q56.8949 1201.17 61.4782 1196.55 Q66.0846 1191.89 67.2652 1190.55 Q69.5105 1188.03 70.3902 1186.29 Q71.2929 1184.53 71.2929 1182.84 Q71.2929 1180.09 69.3485 1178.35 Q67.4272 1176.61 64.3254 1176.61 Q62.1263 1176.61 59.6726 1177.38 Q57.2421 1178.14 54.4643 1179.69 L54.4643 1174.97 Q57.2884 1173.84 59.7421 1173.26 Q62.1958 1172.68 64.2328 1172.68 Q69.6031 1172.68 72.7976 1175.36 Q75.992 1178.05 75.992 1182.54 Q75.992 1184.67 75.1818 1186.59 Q74.3948 1188.49 72.2883 1191.08 Q71.7096 1191.75 68.6078 1194.97 Q65.5059 1198.17 59.8578 1203.93 Z" fill="#000000" fill-rule="nonzero" fill-opacity="1" /><path clip-path="url(#clip820)" d="M69.0476 920.105 Q72.404 920.822 74.279 923.091 Q76.1772 925.359 76.1772 928.692 Q76.1772 933.808 72.6587 936.609 Q69.1402 939.41 62.6587 939.41 Q60.4828 939.41 58.168 938.97 Q55.8764 938.554 53.4227 937.697 L53.4227 933.183 Q55.3671 934.317 57.6819 934.896 Q59.9967 935.475 62.5198 935.475 Q66.918 935.475 69.2096 933.739 Q71.5244 932.003 71.5244 928.692 Q71.5244 925.637 69.3717 923.924 Q67.242 922.188 63.4226 922.188 L59.3949 922.188 L59.3949 918.345 L63.6078 918.345 Q67.0569 918.345 68.8855 916.98 Q70.7142 915.591 70.7142 912.998 Q70.7142 910.336 68.8161 908.924 Q66.9411 907.489 63.4226 907.489 Q61.5013 907.489 59.3023 907.906 Q57.1032 908.322 54.4643 909.202 L54.4643 905.035 Q57.1264 904.294 59.4412 903.924 Q61.7791 903.554 63.8393 903.554 Q69.1633 903.554 72.2652 905.984 Q75.367 908.392 75.367 912.512 Q75.367 915.382 73.7235 917.373 Q72.08 919.341 69.0476 920.105 Z" fill="#000000" fill-rule="nonzero" fill-opacity="1" /><path clip-path="url(#clip820)" d="M66.5939 639.127 L54.7884 657.576 L66.5939 657.576 L66.5939 639.127 M65.367 635.053 L71.2466 635.053 L71.2466 657.576 L76.1772 657.576 L76.1772 661.465 L71.2466 661.465 L71.2466 669.613 L66.5939 669.613 L66.5939 661.465 L50.9921 661.465 L50.9921 656.951 L65.367 635.053 Z" fill="#000000" fill-rule="nonzero" fill-opacity="1" /><path clip-path="url(#clip820)" d="M55.2745 365.927 L73.6309 365.927 L73.6309 369.862 L59.5569 369.862 L59.5569 378.335 Q60.5754 377.987 61.5939 377.825 Q62.6124 377.64 63.6309 377.64 Q69.418 377.64 72.7976 380.811 Q76.1772 383.983 76.1772 389.399 Q76.1772 394.978 72.705 398.08 Q69.2328 401.159 62.9134 401.159 Q60.7374 401.159 58.4689 400.788 Q56.2236 400.418 53.8162 399.677 L53.8162 394.978 Q55.8995 396.112 58.1217 396.668 Q60.3439 397.223 62.8208 397.223 Q66.8254 397.223 69.1633 395.117 Q71.5013 393.01 71.5013 389.399 Q71.5013 385.788 69.1633 383.682 Q66.8254 381.575 62.8208 381.575 Q60.9458 381.575 59.0708 381.992 Q57.2189 382.409 55.2745 383.288 L55.2745 365.927 Z" fill="#000000" fill-rule="nonzero" fill-opacity="1" /><path clip-path="url(#clip820)" d="M64.6495 112.218 Q61.5013 112.218 59.6495 114.371 Q57.8208 116.524 57.8208 120.274 Q57.8208 124 59.6495 126.176 Q61.5013 128.329 64.6495 128.329 Q67.7976 128.329 69.6263 126.176 Q71.4781 124 71.4781 120.274 Q71.4781 116.524 69.6263 114.371 Q67.7976 112.218 64.6495 112.218 M73.9318 97.5654 L73.9318 101.825 Q72.1726 100.991 70.367 100.551 Q68.5846 100.112 66.8254 100.112 Q62.1958 100.112 59.7421 103.237 Q57.3115 106.362 56.9643 112.681 Q58.33 110.667 60.3902 109.602 Q62.4504 108.514 64.9272 108.514 Q70.1355 108.514 73.1448 111.686 Q76.1772 114.834 76.1772 120.274 Q76.1772 125.598 73.029 128.815 Q69.8809 132.033 64.6495 132.033 Q58.6541 132.033 55.4828 127.449 Q52.3116 122.843 52.3116 114.116 Q52.3116 105.922 56.2004 101.061 Q60.0893 96.1765 66.6402 96.1765 Q68.3994 96.1765 70.1818 96.5237 Q71.9874 96.8709 73.9318 97.5654 Z" fill="#000000" fill-rule="nonzero" fill-opacity="1" /><polyline clip-path="url(#clip822)" style="stroke:#0000ff; stroke-linecap:round; stroke-linejoin:round; stroke-width:4; stroke-opacity:1; fill:none" points="175.59,635.109 183.627,719.884 191.664,770.748 199.701,793.624 207.738,772.901 215.775,710.733 223.812,640.222 231.849,582.899 239.886,507.274 247.924,447.259 255.961,399.893 263.998,370.02 272.035,373.25 280.072,365.445 288.109,342.569 296.146,330.189 304.183,329.113 312.22,347.683 320.257,407.967 328.294,457.217 336.331,499.47 344.369,592.587 352.406,668.75 360.443,594.471 368.48,722.037 376.517,819.191 384.554,874.631 392.591,901.005 400.628,902.351 408.665,875.169 416.702,833.185 424.739,806.542 432.777,759.176 440.814,722.844 448.851,715.578 456.888,712.348 464.925,731.725 472.962,735.762 480.999,721.767 489.036,690.28 497.073,643.721 505.11,621.922 513.147,643.721 521.184,634.571 529.222,649.373 537.259,729.841 545.296,778.822 553.333,677.9 561.37,771.825 569.407,845.296 577.444,884.858 585.481,882.166 593.518,813.808 601.555,649.911 609.592,459.37 617.629,429.766 625.667,407.698 633.704,390.474 641.741,373.519 649.778,361.946 657.815,340.147 665.852,321.847 673.889,318.348 681.926,290.897 689.963,289.013 698,333.688 706.037,399.086 714.075,437.84 722.112,486.821 730.149,609.273 738.186,678.169 746.223,595.009 754.26,703.467 762.297,779.36 770.334,822.151 778.371,818.922 786.408,757.561 794.445,604.429 802.482,420.616 810.52,405.276 818.557,381.592 826.594,355.756 834.631,318.886 842.668,279.594 850.705,241.109 858.742,188.36 866.779,155.796 874.816,101.163 882.853,87.9763 890.89,157.68 898.927,246.76 906.965,311.351 915.002,382.4 923.039,527.997 931.076,602.814 939.113,536.34 947.15,660.676 955.187,743.836 963.224,792.278 971.261,794.97 979.298,734.955 987.335,568.097 995.373,395.318 1003.41,360.87 1011.45,315.657 1019.48,311.082 1027.52,304.353 1035.56,306.506 1043.6,300.316 1051.63,289.282 1059.67,296.549 1067.71,294.934 1075.74,342.569 1083.78,389.935 1091.82,452.911 1099.85,469.866 1107.89,529.073 1115.93,637.262 1123.97,687.858 1132,591.511 1140.04,706.427 1148.08,806.273 1156.11,853.37 1164.15,860.098 1172.19,799.814 1180.23,641.568 1188.26,456.948 1196.3,461.523 1204.34,458.293 1212.37,452.911 "/>
<polyline clip-path="url(#clip822)" style="stroke:#ffa500; stroke-linecap:round; stroke-linejoin:round; stroke-width:4; stroke-opacity:1; fill:none" points="1220.41,424.653 1228.45,419.808 1236.49,418.732 1244.52,427.344 1252.56,437.302 1260.6,412.811 1268.63,397.74 1276.67,437.032 1284.71,478.478 1292.74,465.829 1300.78,505.39 1308.82,620.845 1316.86,680.053 1324.89,582.629 1332.93,681.129 1340.97,785.55 1349,829.687 1357.04,831.571 1365.08,753.793 1373.12,587.743 1381.15,403.392 1389.19,386.975 1397.23,375.672 1405.26,386.706 1413.3,387.513 1421.34,389.935 1429.38,406.89 1437.41,428.151 1445.45,467.713 1453.49,461.254 1461.52,459.101 1469.56,497.047 1477.6,530.15 1485.63,509.158 1493.67,542.799 1501.71,635.109 1509.75,683.821 1517.78,592.856 1525.82,1246.56 1533.86,1339.95 1541.89,1389.47 1549.93,1400.23 1557.97,1380.32 1566.01,1319.5 1574.04,1243.33 1582.08,1180.36 1590.12,1136.76 1598.15,1129.76 1606.19,1137.3 1614.23,1141.6 1622.27,1169.59 1630.3,1185.74 1638.34,1190.05 1646.38,1172.82 1654.41,1148.06 1662.45,1149.14 1670.49,1167.98 1678.52,1162.6 1686.56,1190.32 1694.6,1251.68 1702.64,1271.32 1710.67,1169.59 1718.71,1270.78 1726.75,1365.79 1734.78,1421.23 1742.82,1445.72 1750.86,1440.87 1758.9,1411 1766.93,1371.71 1774.97,1341.29 1783.01,1293.93 1791.04,1277.24 1799.08,1272.94 1807.12,1268.63 1815.16,1269.71 1823.19,1254.1 1831.23,1230.42 1839.27,1188.16 1847.3,1136.22 1855.34,1103.66 1863.38,1123.57 1871.41,1116.57 1879.45,1146.99 1887.49,1231.49 1895.53,1269.71 1903.56,1174.44 1911.6,1270.51 1919.64,1351.79 1927.67,1392.16 1935.71,1395.39 1943.75,1337.26 1951.79,1179.55 1959.82,990.624 1967.86,971.247 1975.9,944.065 1983.93,940.028 1991.97,930.609 2000.01,904.504 2008.05,862.789 2016.08,818.922 2024.12,798.199 2032.16,773.44 2040.19,769.134 2048.23,820.267 2056.27,893.47 2064.3,915.538 2072.34,977.168 2080.38,1100.43 2088.42,1161.52 2096.45,1080.24 2104.49,1188.43 2112.53,1280.47 2120.56,1325.95 2128.6,1334.84 2136.64,1271.86 2144.68,1100.97 2152.71,921.997 2160.75,896.161 2168.79,848.257 2176.82,797.93 2184.86,747.065 2192.9,691.894 2200.94,635.647 2208.97,582.899 2217.01,588.819 2225.05,591.511 2233.08,663.905 2241.12,799.007 2249.16,903.696 2257.19,930.071 2265.23,990.893 2273.27,1108.77 2281.31,1162.33 2289.34,1080.24 "/>
<polyline clip-path="url(#clip822)" style="stroke:#008000; stroke-linecap:round; stroke-linejoin:round; stroke-width:4; stroke-opacity:1; fill:none" points="1220.41,406.667 1228.45,404.574 1236.49,401.895 1244.52,409.083 1252.56,423.373 1260.6,439.102 1268.63,431.639 1276.67,450.036 1284.71,483.495 1292.74,509.175 1300.78,517.385 1308.82,563.635 1316.86,618.795 1324.89,569.231 1332.93,704.328 1340.97,777.151 1349,833.479 1357.04,845.137 1365.08,791.889 1373.12,622.498 1381.15,450.612 1389.19,371.836 1397.23,362.79 1405.26,355.231 1413.3,372.023 1421.34,379.056 1429.38,384.853 1437.41,416.474 1445.45,426.407 1453.49,454.795 1461.52,465.534 1469.56,490.881 1477.6,519.261 1485.63,548.9 1493.67,534.808 1501.71,586.69 1509.75,622.178 1517.78,574.289 1525.82,712.968 1533.86,832.753 1541.89,859.77 1549.93,866.412 1557.97,839.176 1566.01,803.826 1574.04,774.461 1582.08,770.381 1590.12,765.976 1598.15,766.044 1606.19,769.472 1614.23,772.503 1622.27,772.442 1630.3,770.779 1638.34,769.973 1646.38,772.759 1654.41,773.144 1662.45,771.749 1670.49,771.913 1678.52,770.431 1686.56,769.262 1694.6,767.95 1702.64,764.545 1710.67,762.411 1718.71,863.278 1726.75,863.823 1734.78,867.118 1742.82,871.131 1750.86,863.234 1758.9,839.302 1766.93,804.189 1774.97,793.919 1783.01,789.6 1791.04,791.779 1799.08,790.693 1807.12,786.957 1815.16,786.648 1823.19,785.267 1831.23,785.083 1839.27,783.511 1847.3,783.767 1855.34,784.209 1863.38,787.751 1871.41,789.486 1879.45,791.279 1887.49,791.544 1895.53,789.28 1903.56,779.655 1911.6,847.651 1919.64,847.492 1927.67,850.829 1935.71,850.76 1943.75,842.741 1951.79,785.22 1959.82,760.014 1967.86,757.163 1975.9,761.208 1983.93,763.502 1991.97,762.308 2000.01,760.587 2008.05,759.549 2016.08,750.144 2024.12,725.522 2032.16,695.929 2040.19,648.457 2048.23,641.932 2056.27,722.486 2064.3,760.685 2072.34,764.988 2080.38,768.95 2088.42,761.85 2096.45,758.687 2104.49,850.118 2112.53,849.775 2120.56,845.398 2128.6,844.071 2136.64,838.879 2144.68,777.968 2152.71,756.793 2160.75,761.593 2168.79,758.623 2176.82,748.802 2184.86,698.277 2192.9,622.925 2200.94,585.53 2208.97,547.668 2217.01,504.256 2225.05,512.851 2233.08,521.655 2241.12,573.453 2249.16,736.834 2257.19,771.839 2265.23,774.741 2273.27,769.23 2281.31,763.752 2289.34,761.615 "/>
<path clip-path="url(#clip822)" d="M1220.41 482.983 L1228.45 480.89 L1236.49 478.211 L1244.52 485.399 L1252.56 499.689 L1260.6 515.418 L1268.63 507.955 L1276.67 526.352 L1284.71 559.811 L1292.74 585.491 L1300.78 593.701 L1308.82 639.951 L1316.86 695.111 L1324.89 645.547 L1332.93 780.644 L1340.97 853.467 L1349 909.795 L1357.04 921.453 L1365.08 868.205 L1373.12 698.814 L1381.15 526.928 L1389.19 448.152 L1397.23 439.106 L1405.26 431.547 L1413.3 448.339 L1421.34 455.372 L1429.38 461.169 L1437.41 492.79 L1445.45 502.723 L1453.49 531.111 L1461.52 541.85 L1469.56 567.197 L1477.6 595.577 L1485.63 625.216 L1493.67 611.124 L1501.71 663.006 L1509.75 698.494 L1517.78 650.605 L1525.82 789.284 L1533.86 909.069 L1541.89 936.086 L1549.93 942.728 L1557.97 915.492 L1566.01 880.142 L1574.04 850.777 L1582.08 846.697 L1590.12 842.292 L1598.15 842.36 L1606.19 845.788 L1614.23 848.819 L1622.27 848.758 L1630.3 847.095 L1638.34 846.289 L1646.38 849.075 L1654.41 849.46 L1662.45 848.065 L1670.49 848.229 L1678.52 846.747 L1686.56 845.578 L1694.6 844.266 L1702.64 840.861 L1710.67 838.727 L1718.71 939.594 L1726.75 940.139 L1734.78 943.434 L1742.82 947.447 L1750.86 939.55 L1758.9 915.618 L1766.93 880.505 L1774.97 870.235 L1783.01 865.916 L1791.04 868.095 L1799.08 867.009 L1807.12 863.273 L1815.16 862.964 L1823.19 861.583 L1831.23 861.399 L1839.27 859.827 L1847.3 860.083 L1855.34 860.525 L1863.38 864.067 L1871.41 865.802 L1879.45 867.595 L1887.49 867.86 L1895.53 865.596 L1903.56 855.971 L1911.6 923.967 L1919.64 923.808 L1927.67 927.145 L1935.71 927.076 L1943.75 919.057 L1951.79 861.536 L1959.82 836.33 L1967.86 833.479 L1975.9 837.524 L1983.93 839.818 L1991.97 838.624 L2000.01 836.903 L2008.05 835.865 L2016.08 826.46 L2024.12 801.838 L2032.16 772.245 L2040.19 724.773 L2048.23 718.248 L2056.27 798.802 L2064.3 837.001 L2072.34 841.304 L2080.38 845.266 L2088.42 838.166 L2096.45 835.003 L2104.49 926.434 L2112.53 926.091 L2120.56 921.714 L2128.6 920.387 L2136.64 915.195 L2144.68 854.284 L2152.71 833.109 L2160.75 837.909 L2168.79 834.939 L2176.82 825.118 L2184.86 774.593 L2192.9 699.241 L2200.94 661.846 L2208.97 623.984 L2217.01 580.572 L2225.05 589.167 L2233.08 597.971 L2241.12 649.769 L2249.16 813.15 L2257.19 848.155 L2265.23 851.057 L2273.27 845.546 L2281.31 840.068 L2289.34 837.931 L2289.34 685.299 L2281.31 687.436 L2273.27 692.914 L2265.23 698.425 L2257.19 695.523 L2249.16 660.518 L2241.12 497.137 L2233.08 445.339 L2225.05 436.535 L2217.01 427.94 L2208.97 471.352 L2200.94 509.214 L2192.9 546.609 L2184.86 621.961 L2176.82 672.486 L2168.79 682.307 L2160.75 685.277 L2152.71 680.477 L2144.68 701.652 L2136.64 762.563 L2128.6 767.755 L2120.56 769.082 L2112.53 773.459 L2104.49 773.802 L2096.45 682.371 L2088.42 685.534 L2080.38 692.634 L2072.34 688.672 L2064.3 684.369 L2056.27 646.17 L2048.23 565.616 L2040.19 572.141 L2032.16 619.613 L2024.12 649.206 L2016.08 673.828 L2008.05 683.233 L2000.01 684.271 L1991.97 685.992 L1983.93 687.186 L1975.9 684.892 L1967.86 680.847 L1959.82 683.698 L1951.79 708.904 L1943.75 766.425 L1935.71 774.444 L1927.67 774.513 L1919.64 771.176 L1911.6 771.335 L1903.56 703.339 L1895.53 712.964 L1887.49 715.228 L1879.45 714.963 L1871.41 713.17 L1863.38 711.435 L1855.34 707.893 L1847.3 707.451 L1839.27 707.195 L1831.23 708.767 L1823.19 708.951 L1815.16 710.332 L1807.12 710.641 L1799.08 714.377 L1791.04 715.463 L1783.01 713.284 L1774.97 717.603 L1766.93 727.873 L1758.9 762.986 L1750.86 786.918 L1742.82 794.815 L1734.78 790.802 L1726.75 787.507 L1718.71 786.962 L1710.67 686.095 L1702.64 688.229 L1694.6 691.634 L1686.56 692.946 L1678.52 694.115 L1670.49 695.597 L1662.45 695.433 L1654.41 696.828 L1646.38 696.444 L1638.34 693.657 L1630.3 694.463 L1622.27 696.126 L1614.23 696.187 L1606.19 693.156 L1598.15 689.728 L1590.12 689.66 L1582.08 694.065 L1574.04 698.145 L1566.01 727.51 L1557.97 762.86 L1549.93 790.096 L1541.89 783.454 L1533.86 756.437 L1525.82 636.652 L1517.78 497.973 L1509.75 545.862 L1501.71 510.374 L1493.67 458.492 L1485.63 472.584 L1477.6 442.945 L1469.56 414.565 L1461.52 389.218 L1453.49 378.479 L1445.45 350.091 L1437.41 340.158 L1429.38 308.537 L1421.34 302.74 L1413.3 295.707 L1405.26 278.915 L1397.23 286.474 L1389.19 295.52 L1381.15 374.296 L1373.12 546.182 L1365.08 715.573 L1357.04 768.821 L1349 757.163 L1340.97 700.835 L1332.93 628.012 L1324.89 492.915 L1316.86 542.479 L1308.82 487.319 L1300.78 441.069 L1292.74 432.859 L1284.71 407.179 L1276.67 373.72 L1268.63 355.323 L1260.6 362.786 L1252.56 347.057 L1244.52 332.767 L1236.49 325.579 L1228.45 328.258 L1220.41 330.351  Z" fill="#008000" fill-rule="evenodd" fill-opacity="0.2"/>
<polyline clip-path="url(#clip822)" style="stroke:#008000; stroke-linecap:round; stroke-linejoin:round; stroke-width:0; stroke-opacity:1; fill:none" points="1220.41,482.983 1228.45,480.89 1236.49,478.211 1244.52,485.399 1252.56,499.689 1260.6,515.418 1268.63,507.955 1276.67,526.352 1284.71,559.811 1292.74,585.491 1300.78,593.701 1308.82,639.951 1316.86,695.111 1324.89,645.547 1332.93,780.644 1340.97,853.467 1349,909.795 1357.04,921.453 1365.08,868.205 1373.12,698.814 1381.15,526.928 1389.19,448.152 1397.23,439.106 1405.26,431.547 1413.3,448.339 1421.34,455.372 1429.38,461.169 1437.41,492.79 1445.45,502.723 1453.49,531.111 1461.52,541.85 1469.56,567.197 1477.6,595.577 1485.63,625.216 1493.67,611.124 1501.71,663.006 1509.75,698.494 1517.78,650.605 1525.82,789.284 1533.86,909.069 1541.89,936.086 1549.93,942.728 1557.97,915.492 1566.01,880.142 1574.04,850.777 1582.08,846.697 1590.12,842.292 1598.15,842.36 1606.19,845.788 1614.23,848.819 1622.27,848.758 1630.3,847.095 1638.34,846.289 1646.38,849.075 1654.41,849.46 1662.45,848.065 1670.49,848.229 1678.52,846.747 1686.56,845.578 1694.6,844.266 1702.64,840.861 1710.67,838.727 1718.71,939.594 1726.75,940.139 1734.78,943.434 1742.82,947.447 1750.86,939.55 1758.9,915.618 1766.93,880.505 1774.97,870.235 1783.01,865.916 1791.04,868.095 1799.08,867.009 1807.12,863.273 1815.16,862.964 1823.19,861.583 1831.23,861.399 1839.27,859.827 1847.3,860.083 1855.34,860.525 1863.38,864.067 1871.41,865.802 1879.45,867.595 1887.49,867.86 1895.53,865.596 1903.56,855.971 1911.6,923.967 1919.64,923.808 1927.67,927.145 1935.71,927.076 1943.75,919.057 1951.79,861.536 1959.82,836.33 1967.86,833.479 1975.9,837.524 1983.93,839.818 1991.97,838.624 2000.01,836.903 2008.05,835.865 2016.08,826.46 2024.12,801.838 2032.16,772.245 2040.19,724.773 2048.23,718.248 2056.27,798.802 2064.3,837.001 2072.34,841.304 2080.38,845.266 2088.42,838.166 2096.45,835.003 2104.49,926.434 2112.53,926.091 2120.56,921.714 2128.6,920.387 2136.64,915.195 2144.68,854.284 2152.71,833.109 2160.75,837.909 2168.79,834.939 2176.82,825.118 2184.86,774.593 2192.9,699.241 2200.94,661.846 2208.97,623.984 2217.01,580.572 2225.05,589.167 2233.08,597.971 2241.12,649.769 2249.16,813.15 2257.19,848.155 2265.23,851.057 2273.27,845.546 2281.31,840.068 2289.34,837.931 "/>
<path clip-path="url(#clip820)" d="M186.863 1438.47 L1110.29 1438.47 L1110.29 1179.27 L186.863 1179.27  Z" fill="#ffffff" fill-rule="evenodd" fill-opacity="1"/>
<polyline clip-path="url(#clip820)" style="stroke:#000000; stroke-linecap:round; stroke-linejoin:round; stroke-width:4; stroke-opacity:1; fill:none" points="186.863,1438.47 1110.29,1438.47 1110.29,1179.27 186.863,1179.27 186.863,1438.47 "/>
<polyline clip-path="url(#clip820)" style="stroke:#0000ff; stroke-linecap:round; stroke-linejoin:round; stroke-width:4; stroke-opacity:1; fill:none" points="211.758,1231.11 361.13,1231.11 "/>
<path clip-path="url(#clip820)" d="M393.433 1215.11 L393.433 1222.47 L402.206 1222.47 L402.206 1225.78 L393.433 1225.78 L393.433 1239.85 Q393.433 1243.02 394.29 1243.93 Q395.169 1244.83 397.831 1244.83 L402.206 1244.83 L402.206 1248.39 L397.831 1248.39 Q392.901 1248.39 391.026 1246.57 Q389.151 1244.71 389.151 1239.85 L389.151 1225.78 L386.026 1225.78 L386.026 1222.47 L389.151 1222.47 L389.151 1215.11 L393.433 1215.11 Z" fill="#000000" fill-rule="nonzero" fill-opacity="1" /><path clip-path="url(#clip820)" d="M422.831 1226.45 Q422.113 1226.03 421.257 1225.85 Q420.424 1225.64 419.405 1225.64 Q415.794 1225.64 413.85 1228 Q411.928 1230.34 411.928 1234.74 L411.928 1248.39 L407.646 1248.39 L407.646 1222.47 L411.928 1222.47 L411.928 1226.5 Q413.271 1224.14 415.424 1223 Q417.576 1221.84 420.655 1221.84 Q421.095 1221.84 421.627 1221.91 Q422.16 1221.96 422.808 1222.08 L422.831 1226.45 Z" fill="#000000" fill-rule="nonzero" fill-opacity="1" /><path clip-path="url(#clip820)" d="M439.081 1235.36 Q433.919 1235.36 431.928 1236.54 Q429.937 1237.72 429.937 1240.57 Q429.937 1242.84 431.419 1244.18 Q432.924 1245.5 435.493 1245.5 Q439.035 1245.5 441.164 1243 Q443.317 1240.48 443.317 1236.31 L443.317 1235.36 L439.081 1235.36 M447.576 1233.6 L447.576 1248.39 L443.317 1248.39 L443.317 1244.46 Q441.859 1246.82 439.683 1247.95 Q437.507 1249.07 434.359 1249.07 Q430.377 1249.07 428.016 1246.84 Q425.678 1244.6 425.678 1240.85 Q425.678 1236.47 428.595 1234.25 Q431.535 1232.03 437.345 1232.03 L443.317 1232.03 L443.317 1231.61 Q443.317 1228.67 441.373 1227.08 Q439.451 1225.45 435.956 1225.45 Q433.734 1225.45 431.627 1225.99 Q429.521 1226.52 427.576 1227.58 L427.576 1223.65 Q429.914 1222.75 432.113 1222.31 Q434.312 1221.84 436.396 1221.84 Q442.021 1221.84 444.799 1224.76 Q447.576 1227.68 447.576 1233.6 Z" fill="#000000" fill-rule="nonzero" fill-opacity="1" /><path clip-path="url(#clip820)" d="M456.349 1222.47 L460.609 1222.47 L460.609 1248.39 L456.349 1248.39 L456.349 1222.47 M456.349 1212.38 L460.609 1212.38 L460.609 1217.77 L456.349 1217.77 L456.349 1212.38 Z" fill="#000000" fill-rule="nonzero" fill-opacity="1" /><path clip-path="url(#clip820)" d="M491.071 1232.75 L491.071 1248.39 L486.812 1248.39 L486.812 1232.89 Q486.812 1229.2 485.377 1227.38 Q483.942 1225.55 481.071 1225.55 Q477.622 1225.55 475.632 1227.75 Q473.641 1229.95 473.641 1233.74 L473.641 1248.39 L469.359 1248.39 L469.359 1222.47 L473.641 1222.47 L473.641 1226.5 Q475.169 1224.16 477.229 1223 Q479.312 1221.84 482.021 1221.84 Q486.488 1221.84 488.78 1224.62 Q491.071 1227.38 491.071 1232.75 Z" fill="#000000" fill-rule="nonzero" fill-opacity="1" /><polyline clip-path="url(#clip820)" style="stroke:#ffa500; stroke-linecap:round; stroke-linejoin:round; stroke-width:4; stroke-opacity:1; fill:none" points="211.758,1282.95 361.13,1282.95 "/>
<path clip-path="url(#clip820)" d="M393.433 1266.95 L393.433 1274.31 L402.206 1274.31 L402.206 1277.62 L393.433 1277.62 L393.433 1291.69 Q393.433 1294.86 394.29 1295.77 Q395.169 1296.67 397.831 1296.67 L402.206 1296.67 L402.206 1300.23 L397.831 1300.23 Q392.901 1300.23 391.026 1298.41 Q389.151 1296.55 389.151 1291.69 L389.151 1277.62 L386.026 1277.62 L386.026 1274.31 L389.151 1274.31 L389.151 1266.95 L393.433 1266.95 Z" fill="#000000" fill-rule="nonzero" fill-opacity="1" /><path clip-path="url(#clip820)" d="M429.984 1286.21 L429.984 1288.29 L410.401 1288.29 Q410.678 1292.69 413.039 1295 Q415.424 1297.29 419.66 1297.29 Q422.113 1297.29 424.405 1296.69 Q426.72 1296.09 428.988 1294.89 L428.988 1298.91 Q426.697 1299.89 424.289 1300.4 Q421.882 1300.91 419.405 1300.91 Q413.201 1300.91 409.567 1297.29 Q405.956 1293.68 405.956 1287.53 Q405.956 1281.16 409.382 1277.43 Q412.831 1273.68 418.664 1273.68 Q423.896 1273.68 426.928 1277.06 Q429.984 1280.42 429.984 1286.21 M425.725 1284.96 Q425.678 1281.46 423.757 1279.38 Q421.859 1277.29 418.711 1277.29 Q415.146 1277.29 412.993 1279.31 Q410.864 1281.32 410.539 1284.98 L425.725 1284.96 Z" fill="#000000" fill-rule="nonzero" fill-opacity="1" /><path clip-path="url(#clip820)" d="M453.502 1275.07 L453.502 1279.1 Q451.697 1278.17 449.752 1277.71 Q447.808 1277.25 445.724 1277.25 Q442.553 1277.25 440.956 1278.22 Q439.382 1279.19 439.382 1281.14 Q439.382 1282.62 440.516 1283.48 Q441.65 1284.31 445.076 1285.07 L446.535 1285.4 Q451.072 1286.37 452.97 1288.15 Q454.891 1289.91 454.891 1293.08 Q454.891 1296.69 452.021 1298.8 Q449.173 1300.91 444.174 1300.91 Q442.09 1300.91 439.822 1300.49 Q437.576 1300.1 435.076 1299.29 L435.076 1294.89 Q437.437 1296.11 439.729 1296.74 Q442.021 1297.34 444.266 1297.34 Q447.275 1297.34 448.896 1296.32 Q450.516 1295.28 450.516 1293.41 Q450.516 1291.67 449.336 1290.74 Q448.178 1289.82 444.22 1288.96 L442.738 1288.61 Q438.78 1287.78 437.021 1286.07 Q435.262 1284.33 435.262 1281.32 Q435.262 1277.67 437.854 1275.67 Q440.447 1273.68 445.215 1273.68 Q447.576 1273.68 449.66 1274.03 Q451.743 1274.38 453.502 1275.07 Z" fill="#000000" fill-rule="nonzero" fill-opacity="1" /><path clip-path="url(#clip820)" d="M465.886 1266.95 L465.886 1274.31 L474.659 1274.31 L474.659 1277.62 L465.886 1277.62 L465.886 1291.69 Q465.886 1294.86 466.743 1295.77 Q467.622 1296.67 470.284 1296.67 L474.659 1296.67 L474.659 1300.23 L470.284 1300.23 Q465.354 1300.23 463.479 1298.41 Q461.604 1296.55 461.604 1291.69 L461.604 1277.62 L458.479 1277.62 L458.479 1274.31 L461.604 1274.31 L461.604 1266.95 L465.886 1266.95 Z" fill="#000000" fill-rule="nonzero" fill-opacity="1" /><polyline clip-path="url(#clip820)" style="stroke:#008000; stroke-linecap:round; stroke-linejoin:round; stroke-width:4; stroke-opacity:1; fill:none" points="211.758,1334.79 361.13,1334.79 "/>
<path clip-path="url(#clip820)" d="M390.308 1348.19 L390.308 1361.94 L386.026 1361.94 L386.026 1326.15 L390.308 1326.15 L390.308 1330.08 Q391.651 1327.77 393.688 1326.66 Q395.748 1325.52 398.595 1325.52 Q403.317 1325.52 406.257 1329.27 Q409.22 1333.02 409.22 1339.13 Q409.22 1345.25 406.257 1349 Q403.317 1352.75 398.595 1352.75 Q395.748 1352.75 393.688 1351.63 Q391.651 1350.5 390.308 1348.19 M404.799 1339.13 Q404.799 1334.44 402.854 1331.77 Q400.933 1329.09 397.553 1329.09 Q394.174 1329.09 392.229 1331.77 Q390.308 1334.44 390.308 1339.13 Q390.308 1343.83 392.229 1346.52 Q394.174 1349.18 397.553 1349.18 Q400.933 1349.18 402.854 1346.52 Q404.799 1343.83 404.799 1339.13 Z" fill="#000000" fill-rule="nonzero" fill-opacity="1" /><path clip-path="url(#clip820)" d="M431.303 1330.13 Q430.586 1329.71 429.729 1329.53 Q428.896 1329.32 427.877 1329.32 Q424.266 1329.32 422.322 1331.68 Q420.401 1334.02 420.401 1338.42 L420.401 1352.07 L416.118 1352.07 L416.118 1326.15 L420.401 1326.15 L420.401 1330.18 Q421.743 1327.82 423.896 1326.68 Q426.049 1325.52 429.127 1325.52 Q429.567 1325.52 430.1 1325.59 Q430.632 1325.64 431.28 1325.76 L431.303 1330.13 Z" fill="#000000" fill-rule="nonzero" fill-opacity="1" /><path clip-path="url(#clip820)" d="M456.905 1338.05 L456.905 1340.13 L437.322 1340.13 Q437.599 1344.53 439.961 1346.84 Q442.345 1349.13 446.581 1349.13 Q449.035 1349.13 451.326 1348.53 Q453.641 1347.93 455.91 1346.73 L455.91 1350.75 Q453.618 1351.73 451.211 1352.24 Q448.803 1352.75 446.326 1352.75 Q440.123 1352.75 436.488 1349.13 Q432.877 1345.52 432.877 1339.37 Q432.877 1333 436.303 1329.27 Q439.752 1325.52 445.586 1325.52 Q450.817 1325.52 453.849 1328.9 Q456.905 1332.26 456.905 1338.05 M452.646 1336.8 Q452.599 1333.3 450.678 1331.22 Q448.78 1329.13 445.632 1329.13 Q442.067 1329.13 439.914 1331.15 Q437.785 1333.16 437.461 1336.82 L452.646 1336.8 Z" fill="#000000" fill-rule="nonzero" fill-opacity="1" /><path clip-path="url(#clip820)" d="M480.956 1330.08 L480.956 1316.06 L485.215 1316.06 L485.215 1352.07 L480.956 1352.07 L480.956 1348.19 Q479.613 1350.5 477.553 1351.63 Q475.516 1352.75 472.646 1352.75 Q467.947 1352.75 464.984 1349 Q462.044 1345.25 462.044 1339.13 Q462.044 1333.02 464.984 1329.27 Q467.947 1325.52 472.646 1325.52 Q475.516 1325.52 477.553 1326.66 Q479.613 1327.77 480.956 1330.08 M466.442 1339.13 Q466.442 1343.83 468.363 1346.52 Q470.308 1349.18 473.687 1349.18 Q477.067 1349.18 479.011 1346.52 Q480.956 1343.83 480.956 1339.13 Q480.956 1334.44 479.011 1331.77 Q477.067 1329.09 473.687 1329.09 Q470.308 1329.09 468.363 1331.77 Q466.442 1334.44 466.442 1339.13 Z" fill="#000000" fill-rule="nonzero" fill-opacity="1" /><path clip-path="url(#clip820)" d="M493.988 1326.15 L498.247 1326.15 L498.247 1352.07 L493.988 1352.07 L493.988 1326.15 M493.988 1316.06 L498.247 1316.06 L498.247 1321.45 L493.988 1321.45 L493.988 1316.06 Z" fill="#000000" fill-rule="nonzero" fill-opacity="1" /><path clip-path="url(#clip820)" d="M525.817 1327.14 L525.817 1331.13 Q524.011 1330.13 522.182 1329.64 Q520.377 1329.13 518.525 1329.13 Q514.381 1329.13 512.09 1331.77 Q509.798 1334.39 509.798 1339.13 Q509.798 1343.88 512.09 1346.52 Q514.381 1349.13 518.525 1349.13 Q520.377 1349.13 522.182 1348.65 Q524.011 1348.14 525.817 1347.14 L525.817 1351.08 Q524.034 1351.91 522.113 1352.33 Q520.215 1352.75 518.062 1352.75 Q512.206 1352.75 508.757 1349.07 Q505.307 1345.38 505.307 1339.13 Q505.307 1332.79 508.78 1329.16 Q512.275 1325.52 518.34 1325.52 Q520.307 1325.52 522.182 1325.94 Q524.057 1326.33 525.817 1327.14 Z" fill="#000000" fill-rule="nonzero" fill-opacity="1" /><path clip-path="url(#clip820)" d="M537.437 1318.79 L537.437 1326.15 L546.21 1326.15 L546.21 1329.46 L537.437 1329.46 L537.437 1343.53 Q537.437 1346.7 538.293 1347.61 Q539.173 1348.51 541.835 1348.51 L546.21 1348.51 L546.21 1352.07 L541.835 1352.07 Q536.905 1352.07 535.03 1350.25 Q533.155 1348.39 533.155 1343.53 L533.155 1329.46 L530.03 1329.46 L530.03 1326.15 L533.155 1326.15 L533.155 1318.79 L537.437 1318.79 Z" fill="#000000" fill-rule="nonzero" fill-opacity="1" /><path clip-path="url(#clip820)" d="M551.812 1326.15 L556.071 1326.15 L556.071 1352.07 L551.812 1352.07 L551.812 1326.15 M551.812 1316.06 L556.071 1316.06 L556.071 1321.45 L551.812 1321.45 L551.812 1316.06 Z" fill="#000000" fill-rule="nonzero" fill-opacity="1" /><path clip-path="url(#clip820)" d="M575.029 1329.13 Q571.603 1329.13 569.613 1331.82 Q567.622 1334.48 567.622 1339.13 Q567.622 1343.79 569.59 1346.47 Q571.58 1349.13 575.029 1349.13 Q578.432 1349.13 580.423 1346.45 Q582.414 1343.76 582.414 1339.13 Q582.414 1334.53 580.423 1331.84 Q578.432 1329.13 575.029 1329.13 M575.029 1325.52 Q580.585 1325.52 583.756 1329.13 Q586.927 1332.75 586.927 1339.13 Q586.927 1345.5 583.756 1349.13 Q580.585 1352.75 575.029 1352.75 Q569.451 1352.75 566.279 1349.13 Q563.131 1345.5 563.131 1339.13 Q563.131 1332.75 566.279 1329.13 Q569.451 1325.52 575.029 1325.52 Z" fill="#000000" fill-rule="nonzero" fill-opacity="1" /><path clip-path="url(#clip820)" d="M615.538 1336.43 L615.538 1352.07 L611.279 1352.07 L611.279 1336.57 Q611.279 1332.88 609.844 1331.06 Q608.409 1329.23 605.538 1329.23 Q602.089 1329.23 600.099 1331.43 Q598.108 1333.63 598.108 1337.42 L598.108 1352.07 L593.826 1352.07 L593.826 1326.15 L598.108 1326.15 L598.108 1330.18 Q599.636 1327.84 601.696 1326.68 Q603.779 1325.52 606.487 1325.52 Q610.955 1325.52 613.247 1328.3 Q615.538 1331.06 615.538 1336.43 Z" fill="#000000" fill-rule="nonzero" fill-opacity="1" /><path clip-path="url(#clip820)" d="M211.758 1407.37 L361.13 1407.37 L361.13 1365.9 L211.758 1365.9 L211.758 1407.37  Z" fill="#008000" fill-rule="evenodd" fill-opacity="0.2"/>
<polyline clip-path="url(#clip820)" style="stroke:#008000; stroke-linecap:round; stroke-linejoin:round; stroke-width:0.8; stroke-opacity:1; fill:none" points="211.758,1365.9 361.13,1365.9 "/>
<path clip-path="url(#clip820)" d="M390.702 1373.2 L390.702 1386.18 L396.581 1386.18 Q399.845 1386.18 401.627 1384.49 Q403.41 1382.8 403.41 1379.68 Q403.41 1376.58 401.627 1374.89 Q399.845 1373.2 396.581 1373.2 L390.702 1373.2 M386.026 1369.35 L396.581 1369.35 Q402.391 1369.35 405.354 1371.99 Q408.34 1374.61 408.34 1379.68 Q408.34 1384.79 405.354 1387.41 Q402.391 1390.03 396.581 1390.03 L390.702 1390.03 L390.702 1403.91 L386.026 1403.91 L386.026 1369.35 Z" fill="#000000" fill-rule="nonzero" fill-opacity="1" /><path clip-path="url(#clip820)" d="M414.613 1369.35 L419.289 1369.35 L419.289 1403.91 L414.613 1403.91 L414.613 1369.35 Z" fill="#000000" fill-rule="nonzero" fill-opacity="1" /><path clip-path="url(#clip820)" d="M441.002 1377.99 L445.261 1377.99 L450.586 1398.22 L455.886 1377.99 L460.91 1377.99 L466.234 1398.22 L471.534 1377.99 L475.794 1377.99 L469.011 1403.91 L463.988 1403.91 L458.41 1382.66 L452.808 1403.91 L447.785 1403.91 L441.002 1377.99 Z" fill="#000000" fill-rule="nonzero" fill-opacity="1" /><path clip-path="url(#clip820)" d="M482.252 1377.99 L486.511 1377.99 L486.511 1403.91 L482.252 1403.91 L482.252 1377.99 M482.252 1367.9 L486.511 1367.9 L486.511 1373.29 L482.252 1373.29 L482.252 1367.9 Z" fill="#000000" fill-rule="nonzero" fill-opacity="1" /><path clip-path="url(#clip820)" d="M499.636 1370.63 L499.636 1377.99 L508.409 1377.99 L508.409 1381.3 L499.636 1381.3 L499.636 1395.37 Q499.636 1398.54 500.493 1399.45 Q501.372 1400.35 504.034 1400.35 L508.409 1400.35 L508.409 1403.91 L504.034 1403.91 Q499.104 1403.91 497.229 1402.09 Q495.354 1400.23 495.354 1395.37 L495.354 1381.3 L492.229 1381.3 L492.229 1377.99 L495.354 1377.99 L495.354 1370.63 L499.636 1370.63 Z" fill="#000000" fill-rule="nonzero" fill-opacity="1" /><path clip-path="url(#clip820)" d="M535.562 1388.27 L535.562 1403.91 L531.303 1403.91 L531.303 1388.41 Q531.303 1384.72 529.868 1382.9 Q528.432 1381.07 525.562 1381.07 Q522.113 1381.07 520.122 1383.27 Q518.131 1385.47 518.131 1389.26 L518.131 1403.91 L513.849 1403.91 L513.849 1367.9 L518.131 1367.9 L518.131 1382.02 Q519.659 1379.68 521.719 1378.52 Q523.803 1377.36 526.511 1377.36 Q530.979 1377.36 533.27 1380.14 Q535.562 1382.9 535.562 1388.27 Z" fill="#000000" fill-rule="nonzero" fill-opacity="1" /><path clip-path="url(#clip820)" d="M554.103 1380.97 Q550.678 1380.97 548.687 1383.66 Q546.696 1386.32 546.696 1390.97 Q546.696 1395.63 548.664 1398.31 Q550.654 1400.97 554.103 1400.97 Q557.506 1400.97 559.497 1398.29 Q561.488 1395.6 561.488 1390.97 Q561.488 1386.37 559.497 1383.68 Q557.506 1380.97 554.103 1380.97 M554.103 1377.36 Q559.659 1377.36 562.83 1380.97 Q566.002 1384.59 566.002 1390.97 Q566.002 1397.34 562.83 1400.97 Q559.659 1404.59 554.103 1404.59 Q548.525 1404.59 545.354 1400.97 Q542.205 1397.34 542.205 1390.97 Q542.205 1384.59 545.354 1380.97 Q548.525 1377.36 554.103 1377.36 Z" fill="#000000" fill-rule="nonzero" fill-opacity="1" /><path clip-path="url(#clip820)" d="M572.622 1393.68 L572.622 1377.99 L576.881 1377.99 L576.881 1393.52 Q576.881 1397.2 578.316 1399.05 Q579.752 1400.88 582.622 1400.88 Q586.071 1400.88 588.062 1398.68 Q590.076 1396.48 590.076 1392.69 L590.076 1377.99 L594.335 1377.99 L594.335 1403.91 L590.076 1403.91 L590.076 1399.93 Q588.525 1402.29 586.464 1403.45 Q584.427 1404.59 581.719 1404.59 Q577.252 1404.59 574.937 1401.81 Q572.622 1399.03 572.622 1393.68 M583.339 1377.36 L583.339 1377.36 Z" fill="#000000" fill-rule="nonzero" fill-opacity="1" /><path clip-path="url(#clip820)" d="M607.321 1370.63 L607.321 1377.99 L616.094 1377.99 L616.094 1381.3 L607.321 1381.3 L607.321 1395.37 Q607.321 1398.54 608.177 1399.45 Q609.057 1400.35 611.719 1400.35 L616.094 1400.35 L616.094 1403.91 L611.719 1403.91 Q606.788 1403.91 604.913 1402.09 Q603.038 1400.23 603.038 1395.37 L603.038 1381.3 L599.913 1381.3 L599.913 1377.99 L603.038 1377.99 L603.038 1370.63 L607.321 1370.63 Z" fill="#000000" fill-rule="nonzero" fill-opacity="1" /><path clip-path="url(#clip820)" d="M636.325 1393.68 L636.325 1377.99 L640.585 1377.99 L640.585 1393.52 Q640.585 1397.2 642.02 1399.05 Q643.455 1400.88 646.325 1400.88 Q649.774 1400.88 651.765 1398.68 Q653.779 1396.48 653.779 1392.69 L653.779 1377.99 L658.038 1377.99 L658.038 1403.91 L653.779 1403.91 L653.779 1399.93 Q652.228 1402.29 650.168 1403.45 Q648.131 1404.59 645.422 1404.59 Q640.955 1404.59 638.64 1401.81 Q636.325 1399.03 636.325 1393.68 M647.043 1377.36 L647.043 1377.36 Z" fill="#000000" fill-rule="nonzero" fill-opacity="1" /><path clip-path="url(#clip820)" d="M670.932 1400.03 L670.932 1413.78 L666.649 1413.78 L666.649 1377.99 L670.932 1377.99 L670.932 1381.92 Q672.274 1379.61 674.311 1378.5 Q676.371 1377.36 679.219 1377.36 Q683.941 1377.36 686.881 1381.11 Q689.844 1384.86 689.844 1390.97 Q689.844 1397.09 686.881 1400.84 Q683.941 1404.59 679.219 1404.59 Q676.371 1404.59 674.311 1403.47 Q672.274 1402.34 670.932 1400.03 M685.422 1390.97 Q685.422 1386.28 683.478 1383.61 Q681.557 1380.93 678.177 1380.93 Q674.797 1380.93 672.853 1383.61 Q670.932 1386.28 670.932 1390.97 Q670.932 1395.67 672.853 1398.36 Q674.797 1401.02 678.177 1401.02 Q681.557 1401.02 683.478 1398.36 Q685.422 1395.67 685.422 1390.97 Z" fill="#000000" fill-rule="nonzero" fill-opacity="1" /><path clip-path="url(#clip820)" d="M713.964 1381.92 L713.964 1367.9 L718.223 1367.9 L718.223 1403.91 L713.964 1403.91 L713.964 1400.03 Q712.621 1402.34 710.561 1403.47 Q708.524 1404.59 705.654 1404.59 Q700.955 1404.59 697.992 1400.84 Q695.052 1397.09 695.052 1390.97 Q695.052 1384.86 697.992 1381.11 Q700.955 1377.36 705.654 1377.36 Q708.524 1377.36 710.561 1378.5 Q712.621 1379.61 713.964 1381.92 M699.45 1390.97 Q699.45 1395.67 701.371 1398.36 Q703.316 1401.02 706.695 1401.02 Q710.075 1401.02 712.019 1398.36 Q713.964 1395.67 713.964 1390.97 Q713.964 1386.28 712.019 1383.61 Q710.075 1380.93 706.695 1380.93 Q703.316 1380.93 701.371 1383.61 Q699.45 1386.28 699.45 1390.97 Z" fill="#000000" fill-rule="nonzero" fill-opacity="1" /><path clip-path="url(#clip820)" d="M738.778 1390.88 Q733.616 1390.88 731.626 1392.06 Q729.635 1393.24 729.635 1396.09 Q729.635 1398.36 731.116 1399.7 Q732.621 1401.02 735.19 1401.02 Q738.732 1401.02 740.862 1398.52 Q743.015 1396 743.015 1391.83 L743.015 1390.88 L738.778 1390.88 M747.274 1389.12 L747.274 1403.91 L743.015 1403.91 L743.015 1399.98 Q741.556 1402.34 739.38 1403.47 Q737.204 1404.59 734.056 1404.59 Q730.075 1404.59 727.714 1402.36 Q725.376 1400.12 725.376 1396.37 Q725.376 1391.99 728.292 1389.77 Q731.232 1387.55 737.042 1387.55 L743.015 1387.55 L743.015 1387.13 Q743.015 1384.19 741.07 1382.6 Q739.149 1380.97 735.653 1380.97 Q733.431 1380.97 731.325 1381.51 Q729.218 1382.04 727.274 1383.1 L727.274 1379.17 Q729.612 1378.27 731.811 1377.83 Q734.01 1377.36 736.093 1377.36 Q741.718 1377.36 744.496 1380.28 Q747.274 1383.2 747.274 1389.12 Z" fill="#000000" fill-rule="nonzero" fill-opacity="1" /><path clip-path="url(#clip820)" d="M760.26 1370.63 L760.26 1377.99 L769.033 1377.99 L769.033 1381.3 L760.26 1381.3 L760.26 1395.37 Q760.26 1398.54 761.116 1399.45 Q761.996 1400.35 764.658 1400.35 L769.033 1400.35 L769.033 1403.91 L764.658 1403.91 Q759.727 1403.91 757.852 1402.09 Q755.977 1400.23 755.977 1395.37 L755.977 1381.3 L752.852 1381.3 L752.852 1377.99 L755.977 1377.99 L755.977 1370.63 L760.26 1370.63 Z" fill="#000000" fill-rule="nonzero" fill-opacity="1" /><path clip-path="url(#clip820)" d="M796.811 1389.89 L796.811 1391.97 L777.227 1391.97 Q777.505 1396.37 779.866 1398.68 Q782.25 1400.97 786.487 1400.97 Q788.94 1400.97 791.232 1400.37 Q793.547 1399.77 795.815 1398.57 L795.815 1402.59 Q793.524 1403.57 791.116 1404.08 Q788.709 1404.59 786.232 1404.59 Q780.028 1404.59 776.394 1400.97 Q772.783 1397.36 772.783 1391.21 Q772.783 1384.84 776.209 1381.11 Q779.658 1377.36 785.491 1377.36 Q790.723 1377.36 793.755 1380.74 Q796.811 1384.1 796.811 1389.89 M792.551 1388.64 Q792.505 1385.14 790.584 1383.06 Q788.686 1380.97 785.537 1380.97 Q781.973 1380.97 779.82 1382.99 Q777.69 1385 777.366 1388.66 L792.551 1388.64 Z" fill="#000000" fill-rule="nonzero" fill-opacity="1" /><path clip-path="url(#clip820)" d="M828.917 1380.97 Q825.491 1380.97 823.5 1383.66 Q821.509 1386.32 821.509 1390.97 Q821.509 1395.63 823.477 1398.31 Q825.468 1400.97 828.917 1400.97 Q832.32 1400.97 834.31 1398.29 Q836.301 1395.6 836.301 1390.97 Q836.301 1386.37 834.31 1383.68 Q832.32 1380.97 828.917 1380.97 M828.917 1377.36 Q834.472 1377.36 837.644 1380.97 Q840.815 1384.59 840.815 1390.97 Q840.815 1397.34 837.644 1400.97 Q834.472 1404.59 828.917 1404.59 Q823.338 1404.59 820.167 1400.97 Q817.019 1397.34 817.019 1390.97 Q817.019 1384.59 820.167 1380.97 Q823.338 1377.36 828.917 1377.36 Z" fill="#000000" fill-rule="nonzero" fill-opacity="1" /><path clip-path="url(#clip820)" d="M861 1367.9 L861 1371.44 L856.926 1371.44 Q854.634 1371.44 853.732 1372.36 Q852.852 1373.29 852.852 1375.7 L852.852 1377.99 L859.866 1377.99 L859.866 1381.3 L852.852 1381.3 L852.852 1403.91 L848.57 1403.91 L848.57 1381.3 L844.495 1381.3 L844.495 1377.99 L848.57 1377.99 L848.57 1376.18 Q848.57 1371.85 850.583 1369.89 Q852.597 1367.9 856.972 1367.9 L861 1367.9 Z" fill="#000000" fill-rule="nonzero" fill-opacity="1" /><path clip-path="url(#clip820)" d="M894.657 1381.97 Q893.94 1381.55 893.083 1381.37 Q892.25 1381.16 891.231 1381.16 Q887.62 1381.16 885.676 1383.52 Q883.755 1385.86 883.755 1390.26 L883.755 1403.91 L879.472 1403.91 L879.472 1377.99 L883.755 1377.99 L883.755 1382.02 Q885.097 1379.66 887.25 1378.52 Q889.403 1377.36 892.481 1377.36 Q892.921 1377.36 893.454 1377.43 Q893.986 1377.48 894.634 1377.6 L894.657 1381.97 Z" fill="#000000" fill-rule="nonzero" fill-opacity="1" /><path clip-path="url(#clip820)" d="M920.259 1389.89 L920.259 1391.97 L900.676 1391.97 Q900.953 1396.37 903.315 1398.68 Q905.699 1400.97 909.935 1400.97 Q912.389 1400.97 914.68 1400.37 Q916.995 1399.77 919.264 1398.57 L919.264 1402.59 Q916.972 1403.57 914.565 1404.08 Q912.157 1404.59 909.68 1404.59 Q903.477 1404.59 899.842 1400.97 Q896.231 1397.36 896.231 1391.21 Q896.231 1384.84 899.657 1381.11 Q903.106 1377.36 908.94 1377.36 Q914.171 1377.36 917.203 1380.74 Q920.259 1384.1 920.259 1389.89 M916 1388.64 Q915.953 1385.14 914.032 1383.06 Q912.134 1380.97 908.986 1380.97 Q905.421 1380.97 903.268 1382.99 Q901.139 1385 900.815 1388.66 L916 1388.64 Z" fill="#000000" fill-rule="nonzero" fill-opacity="1" /><path clip-path="url(#clip820)" d="M943.777 1378.75 L943.777 1382.78 Q941.972 1381.85 940.027 1381.39 Q938.083 1380.93 936 1380.93 Q932.828 1380.93 931.231 1381.9 Q929.657 1382.87 929.657 1384.82 Q929.657 1386.3 930.791 1387.16 Q931.926 1387.99 935.351 1388.75 L936.81 1389.08 Q941.347 1390.05 943.245 1391.83 Q945.166 1393.59 945.166 1396.76 Q945.166 1400.37 942.296 1402.48 Q939.449 1404.59 934.449 1404.59 Q932.365 1404.59 930.097 1404.17 Q927.851 1403.78 925.352 1402.97 L925.352 1398.57 Q927.713 1399.79 930.004 1400.42 Q932.296 1401.02 934.541 1401.02 Q937.551 1401.02 939.171 1400 Q940.791 1398.96 940.791 1397.09 Q940.791 1395.35 939.611 1394.42 Q938.453 1393.5 934.495 1392.64 L933.013 1392.29 Q929.055 1391.46 927.296 1389.75 Q925.537 1388.01 925.537 1385 Q925.537 1381.35 928.129 1379.35 Q930.722 1377.36 935.49 1377.36 Q937.851 1377.36 939.935 1377.71 Q942.018 1378.06 943.777 1378.75 Z" fill="#000000" fill-rule="nonzero" fill-opacity="1" /><path clip-path="url(#clip820)" d="M951.949 1377.99 L956.208 1377.99 L956.208 1403.91 L951.949 1403.91 L951.949 1377.99 M951.949 1367.9 L956.208 1367.9 L956.208 1373.29 L951.949 1373.29 L951.949 1367.9 Z" fill="#000000" fill-rule="nonzero" fill-opacity="1" /><path clip-path="url(#clip820)" d="M982.18 1381.92 L982.18 1367.9 L986.439 1367.9 L986.439 1403.91 L982.18 1403.91 L982.18 1400.03 Q980.837 1402.34 978.777 1403.47 Q976.74 1404.59 973.87 1404.59 Q969.171 1404.59 966.208 1400.84 Q963.268 1397.09 963.268 1390.97 Q963.268 1384.86 966.208 1381.11 Q969.171 1377.36 973.87 1377.36 Q976.74 1377.36 978.777 1378.5 Q980.837 1379.61 982.18 1381.92 M967.666 1390.97 Q967.666 1395.67 969.587 1398.36 Q971.532 1401.02 974.911 1401.02 Q978.291 1401.02 980.235 1398.36 Q982.18 1395.67 982.18 1390.97 Q982.18 1386.28 980.235 1383.61 Q978.291 1380.93 974.911 1380.93 Q971.532 1380.93 969.587 1383.61 Q967.666 1386.28 967.666 1390.97 Z" fill="#000000" fill-rule="nonzero" fill-opacity="1" /><path clip-path="url(#clip820)" d="M994.772 1393.68 L994.772 1377.99 L999.032 1377.99 L999.032 1393.52 Q999.032 1397.2 1000.47 1399.05 Q1001.9 1400.88 1004.77 1400.88 Q1008.22 1400.88 1010.21 1398.68 Q1012.23 1396.48 1012.23 1392.69 L1012.23 1377.99 L1016.49 1377.99 L1016.49 1403.91 L1012.23 1403.91 L1012.23 1399.93 Q1010.68 1402.29 1008.61 1403.45 Q1006.58 1404.59 1003.87 1404.59 Q999.402 1404.59 997.087 1401.81 Q994.772 1399.03 994.772 1393.68 M1005.49 1377.36 L1005.49 1377.36 Z" fill="#000000" fill-rule="nonzero" fill-opacity="1" /><path clip-path="url(#clip820)" d="M1037.04 1390.88 Q1031.88 1390.88 1029.89 1392.06 Q1027.9 1393.24 1027.9 1396.09 Q1027.9 1398.36 1029.38 1399.7 Q1030.88 1401.02 1033.45 1401.02 Q1036.99 1401.02 1039.12 1398.52 Q1041.28 1396 1041.28 1391.83 L1041.28 1390.88 L1037.04 1390.88 M1045.54 1389.12 L1045.54 1403.91 L1041.28 1403.91 L1041.28 1399.98 Q1039.82 1402.34 1037.64 1403.47 Q1035.47 1404.59 1032.32 1404.59 Q1028.34 1404.59 1025.98 1402.36 Q1023.64 1400.12 1023.64 1396.37 Q1023.64 1391.99 1026.55 1389.77 Q1029.49 1387.55 1035.3 1387.55 L1041.28 1387.55 L1041.28 1387.13 Q1041.28 1384.19 1039.33 1382.6 Q1037.41 1380.97 1033.92 1380.97 Q1031.69 1380.97 1029.59 1381.51 Q1027.48 1382.04 1025.54 1383.1 L1025.54 1379.17 Q1027.87 1378.27 1030.07 1377.83 Q1032.27 1377.36 1034.36 1377.36 Q1039.98 1377.36 1042.76 1380.28 Q1045.54 1383.2 1045.54 1389.12 Z" fill="#000000" fill-rule="nonzero" fill-opacity="1" /><path clip-path="url(#clip820)" d="M1054.31 1367.9 L1058.57 1367.9 L1058.57 1403.91 L1054.31 1403.91 L1054.31 1367.9 Z" fill="#000000" fill-rule="nonzero" fill-opacity="1" /><path clip-path="url(#clip820)" d="M1084.01 1378.75 L1084.01 1382.78 Q1082.2 1381.85 1080.26 1381.39 Q1078.31 1380.93 1076.23 1380.93 Q1073.06 1380.93 1071.46 1381.9 Q1069.89 1382.87 1069.89 1384.82 Q1069.89 1386.3 1071.02 1387.16 Q1072.16 1387.99 1075.58 1388.75 L1077.04 1389.08 Q1081.58 1390.05 1083.48 1391.83 Q1085.4 1393.59 1085.4 1396.76 Q1085.4 1400.37 1082.53 1402.48 Q1079.68 1404.59 1074.68 1404.59 Q1072.6 1404.59 1070.33 1404.17 Q1068.08 1403.78 1065.58 1402.97 L1065.58 1398.57 Q1067.94 1399.79 1070.23 1400.42 Q1072.53 1401.02 1074.77 1401.02 Q1077.78 1401.02 1079.4 1400 Q1081.02 1398.96 1081.02 1397.09 Q1081.02 1395.35 1079.84 1394.42 Q1078.68 1393.5 1074.73 1392.64 L1073.24 1392.29 Q1069.29 1391.46 1067.53 1389.75 Q1065.77 1388.01 1065.77 1385 Q1065.77 1381.35 1068.36 1379.35 Q1070.95 1377.36 1075.72 1377.36 Q1078.08 1377.36 1080.17 1377.71 Q1082.25 1378.06 1084.01 1378.75 Z" fill="#000000" fill-rule="nonzero" fill-opacity="1" /></svg>
