<?xml version="1.0" encoding="utf-8"?>
<svg xmlns="http://www.w3.org/2000/svg" xmlns:xlink="http://www.w3.org/1999/xlink" width="850" height="400" viewBox="0 0 3400 1600">
<defs>
  <clipPath id="clip370">
    <rect x="0" y="0" width="3400" height="1600"/>
  </clipPath>
</defs>
<path clip-path="url(#clip370)" d="M0 1600 L3400 1600 L3400 0 L0 0  Z" fill="#ffffff" fill-rule="evenodd" fill-opacity="1"/>
<defs>
  <clipPath id="clip371">
    <rect x="680" y="0" width="2381" height="1600"/>
  </clipPath>
</defs>
<path clip-path="url(#clip370)" d="M234.461 1199.77 L3352.76 1199.77 L3352.76 47.2441 L234.461 47.2441  Z" fill="#ffffff" fill-rule="evenodd" fill-opacity="1"/>
<defs>
  <clipPath id="clip372">
    <rect x="234" y="47" width="3119" height="1154"/>
  </clipPath>
</defs>
<polyline clip-path="url(#clip372)" style="stroke:#000000; stroke-linecap:round; stroke-linejoin:round; stroke-width:2; stroke-opacity:0.1; fill:none" points="322.714,1199.77 322.714,47.2441 "/>
<polyline clip-path="url(#clip372)" style="stroke:#000000; stroke-linecap:round; stroke-linejoin:round; stroke-width:2; stroke-opacity:0.1; fill:none" points="1208.94,1199.77 1208.94,47.2441 "/>
<polyline clip-path="url(#clip372)" style="stroke:#000000; stroke-linecap:round; stroke-linejoin:round; stroke-width:2; stroke-opacity:0.1; fill:none" points="2095.17,1199.77 2095.17,47.2441 "/>
<polyline clip-path="url(#clip372)" style="stroke:#000000; stroke-linecap:round; stroke-linejoin:round; stroke-width:2; stroke-opacity:0.1; fill:none" points="2981.4,1199.77 2981.4,47.2441 "/>
<polyline clip-path="url(#clip370)" style="stroke:#000000; stroke-linecap:round; stroke-linejoin:round; stroke-width:4; stroke-opacity:1; fill:none" points="234.461,1199.77 3352.76,1199.77 "/>
<polyline clip-path="url(#clip370)" style="stroke:#000000; stroke-linecap:round; stroke-linejoin:round; stroke-width:4; stroke-opacity:1; fill:none" points="234.461,47.2441 3352.76,47.2441 "/>
<polyline clip-path="url(#clip370)" style="stroke:#000000; stroke-linecap:round; stroke-linejoin:round; stroke-width:4; stroke-opacity:1; fill:none" points="322.714,1199.77 322.714,1184.22 "/>
<polyline clip-path="url(#clip370)" style="stroke:#000000; stroke-linecap:round; stroke-linejoin:round; stroke-width:4; stroke-opacity:1; fill:none" points="1208.94,1199.77 1208.94,1184.22 "/>
<polyline clip-path="url(#clip370)" style="stroke:#000000; stroke-linecap:round; stroke-linejoin:round; stroke-width:4; stroke-opacity:1; fill:none" points="2095.17,1199.77 2095.17,1184.22 "/>
<polyline clip-path="url(#clip370)" style="stroke:#000000; stroke-linecap:round; stroke-linejoin:round; stroke-width:4; stroke-opacity:1; fill:none" points="2981.4,1199.77 2981.4,1184.22 "/>
<path clip-path="url(#clip370)" d="M193.815 1266.24 L210.134 1266.24 L210.134 1270.17 L188.19 1270.17 L188.19 1266.24 Q190.852 1263.48 195.435 1258.85 Q200.042 1254.2 201.222 1252.86 Q203.467 1250.33 204.347 1248.6 Q205.25 1246.84 205.25 1245.15 Q205.25 1242.39 203.305 1240.66 Q201.384 1238.92 198.282 1238.92 Q196.083 1238.92 193.63 1239.69 Q191.199 1240.45 188.421 1242 L188.421 1237.28 Q191.245 1236.14 193.699 1235.57 Q196.153 1234.99 198.19 1234.99 Q203.56 1234.99 206.754 1237.67 Q209.949 1240.36 209.949 1244.85 Q209.949 1246.98 209.139 1248.9 Q208.352 1250.8 206.245 1253.39 Q205.667 1254.06 202.565 1257.28 Q199.463 1260.47 193.815 1266.24 Z" fill="#000000" fill-rule="nonzero" fill-opacity="1" /><path clip-path="url(#clip370)" d="M229.949 1238.69 Q226.338 1238.69 224.509 1242.26 Q222.703 1245.8 222.703 1252.93 Q222.703 1260.03 224.509 1263.6 Q226.338 1267.14 229.949 1267.14 Q233.583 1267.14 235.389 1263.6 Q237.217 1260.03 237.217 1252.93 Q237.217 1245.8 235.389 1242.26 Q233.583 1238.69 229.949 1238.69 M229.949 1234.99 Q235.759 1234.99 238.814 1239.59 Q241.893 1244.18 241.893 1252.93 Q241.893 1261.65 238.814 1266.26 Q235.759 1270.84 229.949 1270.84 Q224.139 1270.84 221.06 1266.26 Q218.004 1261.65 218.004 1252.93 Q218.004 1244.18 221.06 1239.59 Q224.139 1234.99 229.949 1234.99 Z" fill="#000000" fill-rule="nonzero" fill-opacity="1" /><path clip-path="url(#clip370)" d="M250.921 1266.24 L258.56 1266.24 L258.56 1239.87 L250.25 1241.54 L250.25 1237.28 L258.513 1235.61 L263.189 1235.61 L263.189 1266.24 L270.828 1266.24 L270.828 1270.17 L250.921 1270.17 L250.921 1266.24 Z" fill="#000000" fill-rule="nonzero" fill-opacity="1" /><path clip-path="url(#clip370)" d="M293.12 1239.69 L281.314 1258.13 L293.12 1258.13 L293.12 1239.69 M291.893 1235.61 L297.773 1235.61 L297.773 1258.13 L302.703 1258.13 L302.703 1262.02 L297.773 1262.02 L297.773 1270.17 L293.12 1270.17 L293.12 1262.02 L277.518 1262.02 L277.518 1257.51 L291.893 1235.61 Z" fill="#000000" fill-rule="nonzero" fill-opacity="1" /><path clip-path="url(#clip370)" d="M307.68 1255.29 L320.157 1255.29 L320.157 1259.08 L307.68 1259.08 L307.68 1255.29 Z" fill="#000000" fill-rule="nonzero" fill-opacity="1" /><path clip-path="url(#clip370)" d="M337.541 1238.69 Q333.93 1238.69 332.101 1242.26 Q330.295 1245.8 330.295 1252.93 Q330.295 1260.03 332.101 1263.6 Q333.93 1267.14 337.541 1267.14 Q341.175 1267.14 342.981 1263.6 Q344.809 1260.03 344.809 1252.93 Q344.809 1245.8 342.981 1242.26 Q341.175 1238.69 337.541 1238.69 M337.541 1234.99 Q343.351 1234.99 346.406 1239.59 Q349.485 1244.18 349.485 1252.93 Q349.485 1261.65 346.406 1266.26 Q343.351 1270.84 337.541 1270.84 Q331.731 1270.84 328.652 1266.26 Q325.596 1261.65 325.596 1252.93 Q325.596 1244.18 328.652 1239.59 Q331.731 1234.99 337.541 1234.99 Z" fill="#000000" fill-rule="nonzero" fill-opacity="1" /><path clip-path="url(#clip370)" d="M361.73 1266.24 L378.05 1266.24 L378.05 1270.17 L356.106 1270.17 L356.106 1266.24 Q358.768 1263.48 363.351 1258.85 Q367.957 1254.2 369.138 1252.86 Q371.383 1250.33 372.263 1248.6 Q373.166 1246.84 373.166 1245.15 Q373.166 1242.39 371.221 1240.66 Q369.3 1238.92 366.198 1238.92 Q363.999 1238.92 361.545 1239.69 Q359.115 1240.45 356.337 1242 L356.337 1237.28 Q359.161 1236.14 361.615 1235.57 Q364.068 1234.99 366.105 1234.99 Q371.476 1234.99 374.67 1237.67 Q377.865 1240.36 377.865 1244.85 Q377.865 1246.98 377.054 1248.9 Q376.267 1250.8 374.161 1253.39 Q373.582 1254.06 370.48 1257.28 Q367.379 1260.47 361.73 1266.24 Z" fill="#000000" fill-rule="nonzero" fill-opacity="1" /><path clip-path="url(#clip370)" d="M385.11 1255.29 L397.587 1255.29 L397.587 1259.08 L385.11 1259.08 L385.11 1255.29 Z" fill="#000000" fill-rule="nonzero" fill-opacity="1" /><path clip-path="url(#clip370)" d="M405.781 1266.24 L413.42 1266.24 L413.42 1239.87 L405.11 1241.54 L405.11 1237.28 L413.374 1235.61 L418.05 1235.61 L418.05 1266.24 L425.688 1266.24 L425.688 1270.17 L405.781 1270.17 L405.781 1266.24 Z" fill="#000000" fill-rule="nonzero" fill-opacity="1" /><path clip-path="url(#clip370)" d="M445.712 1251.03 Q442.563 1251.03 440.712 1253.18 Q438.883 1255.33 438.883 1259.08 Q438.883 1262.81 440.712 1264.99 Q442.563 1267.14 445.712 1267.14 Q448.86 1267.14 450.688 1264.99 Q452.54 1262.81 452.54 1259.08 Q452.54 1255.33 450.688 1253.18 Q448.86 1251.03 445.712 1251.03 M454.994 1236.38 L454.994 1240.63 Q453.235 1239.8 451.429 1239.36 Q449.647 1238.92 447.887 1238.92 Q443.258 1238.92 440.804 1242.05 Q438.374 1245.17 438.026 1251.49 Q439.392 1249.48 441.452 1248.41 Q443.512 1247.32 445.989 1247.32 Q451.198 1247.32 454.207 1250.5 Q457.239 1253.64 457.239 1259.08 Q457.239 1264.41 454.091 1267.63 Q450.943 1270.84 445.712 1270.84 Q439.716 1270.84 436.545 1266.26 Q433.374 1261.65 433.374 1252.93 Q433.374 1244.73 437.262 1239.87 Q441.151 1234.99 447.702 1234.99 Q449.462 1234.99 451.244 1235.33 Q453.049 1235.68 454.994 1236.38 Z" fill="#000000" fill-rule="nonzero" fill-opacity="1" /><path clip-path="url(#clip370)" d="M1080.22 1266.24 L1096.54 1266.24 L1096.54 1270.17 L1074.59 1270.17 L1074.59 1266.24 Q1077.25 1263.48 1081.84 1258.85 Q1086.44 1254.2 1087.62 1252.86 Q1089.87 1250.33 1090.75 1248.6 Q1091.65 1246.84 1091.65 1245.15 Q1091.65 1242.39 1089.71 1240.66 Q1087.79 1238.92 1084.68 1238.92 Q1082.49 1238.92 1080.03 1239.69 Q1077.6 1240.45 1074.82 1242 L1074.82 1237.28 Q1077.65 1236.14 1080.1 1235.57 Q1082.56 1234.99 1084.59 1234.99 Q1089.96 1234.99 1093.16 1237.67 Q1096.35 1240.36 1096.35 1244.85 Q1096.35 1246.98 1095.54 1248.9 Q1094.75 1250.8 1092.65 1253.39 Q1092.07 1254.06 1088.97 1257.28 Q1085.87 1260.47 1080.22 1266.24 Z" fill="#000000" fill-rule="nonzero" fill-opacity="1" /><path clip-path="url(#clip370)" d="M1116.35 1238.69 Q1112.74 1238.69 1110.91 1242.26 Q1109.11 1245.8 1109.11 1252.93 Q1109.11 1260.03 1110.91 1263.6 Q1112.74 1267.14 1116.35 1267.14 Q1119.99 1267.14 1121.79 1263.6 Q1123.62 1260.03 1123.62 1252.93 Q1123.62 1245.8 1121.79 1242.26 Q1119.99 1238.69 1116.35 1238.69 M1116.35 1234.99 Q1122.16 1234.99 1125.22 1239.59 Q1128.3 1244.18 1128.3 1252.93 Q1128.3 1261.65 1125.22 1266.26 Q1122.16 1270.84 1116.35 1270.84 Q1110.54 1270.84 1107.46 1266.26 Q1104.41 1261.65 1104.41 1252.93 Q1104.41 1244.18 1107.46 1239.59 Q1110.54 1234.99 1116.35 1234.99 Z" fill="#000000" fill-rule="nonzero" fill-opacity="1" /><path clip-path="url(#clip370)" d="M1137.32 1266.24 L1144.96 1266.24 L1144.96 1239.87 L1136.65 1241.54 L1136.65 1237.28 L1144.92 1235.61 L1149.59 1235.61 L1149.59 1266.24 L1157.23 1266.24 L1157.23 1270.17 L1137.32 1270.17 L1137.32 1266.24 Z" fill="#000000" fill-rule="nonzero" fill-opacity="1" /><path clip-path="url(#clip370)" d="M1179.52 1239.69 L1167.72 1258.13 L1179.52 1258.13 L1179.52 1239.69 M1178.3 1235.61 L1184.18 1235.61 L1184.18 1258.13 L1189.11 1258.13 L1189.11 1262.02 L1184.18 1262.02 L1184.18 1270.17 L1179.52 1270.17 L1179.52 1262.02 L1163.92 1262.02 L1163.92 1257.51 L1178.3 1235.61 Z" fill="#000000" fill-rule="nonzero" fill-opacity="1" /><path clip-path="url(#clip370)" d="M1194.08 1255.29 L1206.56 1255.29 L1206.56 1259.08 L1194.08 1259.08 L1194.08 1255.29 Z" fill="#000000" fill-rule="nonzero" fill-opacity="1" /><path clip-path="url(#clip370)" d="M1223.94 1238.69 Q1220.33 1238.69 1218.5 1242.26 Q1216.7 1245.8 1216.7 1252.93 Q1216.7 1260.03 1218.5 1263.6 Q1220.33 1267.14 1223.94 1267.14 Q1227.58 1267.14 1229.38 1263.6 Q1231.21 1260.03 1231.21 1252.93 Q1231.21 1245.8 1229.38 1242.26 Q1227.58 1238.69 1223.94 1238.69 M1223.94 1234.99 Q1229.75 1234.99 1232.81 1239.59 Q1235.89 1244.18 1235.89 1252.93 Q1235.89 1261.65 1232.81 1266.26 Q1229.75 1270.84 1223.94 1270.84 Q1218.13 1270.84 1215.05 1266.26 Q1212 1261.65 1212 1252.93 Q1212 1244.18 1215.05 1239.59 Q1218.13 1234.99 1223.94 1234.99 Z" fill="#000000" fill-rule="nonzero" fill-opacity="1" /><path clip-path="url(#clip370)" d="M1248.13 1266.24 L1264.45 1266.24 L1264.45 1270.17 L1242.51 1270.17 L1242.51 1266.24 Q1245.17 1263.48 1249.75 1258.85 Q1254.36 1254.2 1255.54 1252.86 Q1257.79 1250.33 1258.67 1248.6 Q1259.57 1246.84 1259.57 1245.15 Q1259.57 1242.39 1257.62 1240.66 Q1255.7 1238.92 1252.6 1238.92 Q1250.4 1238.92 1247.95 1239.69 Q1245.52 1240.45 1242.74 1242 L1242.74 1237.28 Q1245.56 1236.14 1248.02 1235.57 Q1250.47 1234.99 1252.51 1234.99 Q1257.88 1234.99 1261.07 1237.67 Q1264.27 1240.36 1264.27 1244.85 Q1264.27 1246.98 1263.46 1248.9 Q1262.67 1250.8 1260.56 1253.39 Q1259.98 1254.06 1256.88 1257.28 Q1253.78 1260.47 1248.13 1266.24 Z" fill="#000000" fill-rule="nonzero" fill-opacity="1" /><path clip-path="url(#clip370)" d="M1271.51 1255.29 L1283.99 1255.29 L1283.99 1259.08 L1271.51 1259.08 L1271.51 1255.29 Z" fill="#000000" fill-rule="nonzero" fill-opacity="1" /><path clip-path="url(#clip370)" d="M1292.18 1266.24 L1299.82 1266.24 L1299.82 1239.87 L1291.51 1241.54 L1291.51 1237.28 L1299.78 1235.61 L1304.45 1235.61 L1304.45 1266.24 L1312.09 1266.24 L1312.09 1270.17 L1292.18 1270.17 L1292.18 1266.24 Z" fill="#000000" fill-rule="nonzero" fill-opacity="1" /><path clip-path="url(#clip370)" d="M1321.67 1269.45 L1321.67 1265.19 Q1323.43 1266.03 1325.24 1266.47 Q1327.04 1266.91 1328.78 1266.91 Q1333.41 1266.91 1335.84 1263.81 Q1338.29 1260.68 1338.64 1254.34 Q1337.3 1256.33 1335.24 1257.39 Q1333.18 1258.46 1330.68 1258.46 Q1325.49 1258.46 1322.46 1255.33 Q1319.45 1252.19 1319.45 1246.75 Q1319.45 1241.42 1322.6 1238.2 Q1325.75 1234.99 1330.98 1234.99 Q1336.98 1234.99 1340.12 1239.59 Q1343.29 1244.18 1343.29 1252.93 Q1343.29 1261.1 1339.41 1265.98 Q1335.54 1270.84 1328.99 1270.84 Q1327.23 1270.84 1325.42 1270.5 Q1323.62 1270.15 1321.67 1269.45 M1330.98 1254.8 Q1334.13 1254.8 1335.96 1252.65 Q1337.81 1250.5 1337.81 1246.75 Q1337.81 1243.02 1335.96 1240.87 Q1334.13 1238.69 1330.98 1238.69 Q1327.83 1238.69 1325.98 1240.87 Q1324.15 1243.02 1324.15 1246.75 Q1324.15 1250.5 1325.98 1252.65 Q1327.83 1254.8 1330.98 1254.8 Z" fill="#000000" fill-rule="nonzero" fill-opacity="1" /><path clip-path="url(#clip370)" d="M1967.15 1266.24 L1983.47 1266.24 L1983.47 1270.17 L1961.53 1270.17 L1961.53 1266.24 Q1964.19 1263.48 1968.77 1258.85 Q1973.38 1254.2 1974.56 1252.86 Q1976.8 1250.33 1977.68 1248.6 Q1978.59 1246.84 1978.59 1245.15 Q1978.59 1242.39 1976.64 1240.66 Q1974.72 1238.92 1971.62 1238.92 Q1969.42 1238.92 1966.97 1239.69 Q1964.54 1240.45 1961.76 1242 L1961.76 1237.28 Q1964.58 1236.14 1967.04 1235.57 Q1969.49 1234.99 1971.53 1234.99 Q1976.9 1234.99 1980.09 1237.67 Q1983.29 1240.36 1983.29 1244.85 Q1983.29 1246.98 1982.48 1248.9 Q1981.69 1250.8 1979.58 1253.39 Q1979 1254.06 1975.9 1257.28 Q1972.8 1260.47 1967.15 1266.24 Z" fill="#000000" fill-rule="nonzero" fill-opacity="1" /><path clip-path="url(#clip370)" d="M2003.29 1238.69 Q1999.68 1238.69 1997.85 1242.26 Q1996.04 1245.8 1996.04 1252.93 Q1996.04 1260.03 1997.85 1263.6 Q1999.68 1267.14 2003.29 1267.14 Q2006.92 1267.14 2008.73 1263.6 Q2010.55 1260.03 2010.55 1252.93 Q2010.55 1245.8 2008.73 1242.26 Q2006.92 1238.69 2003.29 1238.69 M2003.29 1234.99 Q2009.1 1234.99 2012.15 1239.59 Q2015.23 1244.18 2015.23 1252.93 Q2015.23 1261.65 2012.15 1266.26 Q2009.1 1270.84 2003.29 1270.84 Q1997.48 1270.84 1994.4 1266.26 Q1991.34 1261.65 1991.34 1252.93 Q1991.34 1244.18 1994.4 1239.59 Q1997.48 1234.99 2003.29 1234.99 Z" fill="#000000" fill-rule="nonzero" fill-opacity="1" /><path clip-path="url(#clip370)" d="M2024.26 1266.24 L2031.9 1266.24 L2031.9 1239.87 L2023.59 1241.54 L2023.59 1237.28 L2031.85 1235.61 L2036.53 1235.61 L2036.53 1266.24 L2044.17 1266.24 L2044.17 1270.17 L2024.26 1270.17 L2024.26 1266.24 Z" fill="#000000" fill-rule="nonzero" fill-opacity="1" /><path clip-path="url(#clip370)" d="M2066.46 1239.69 L2054.65 1258.13 L2066.46 1258.13 L2066.46 1239.69 M2065.23 1235.61 L2071.11 1235.61 L2071.11 1258.13 L2076.04 1258.13 L2076.04 1262.02 L2071.11 1262.02 L2071.11 1270.17 L2066.46 1270.17 L2066.46 1262.02 L2050.86 1262.02 L2050.86 1257.51 L2065.23 1235.61 Z" fill="#000000" fill-rule="nonzero" fill-opacity="1" /><path clip-path="url(#clip370)" d="M2081.02 1255.29 L2093.49 1255.29 L2093.49 1259.08 L2081.02 1259.08 L2081.02 1255.29 Z" fill="#000000" fill-rule="nonzero" fill-opacity="1" /><path clip-path="url(#clip370)" d="M2110.88 1238.69 Q2107.27 1238.69 2105.44 1242.26 Q2103.63 1245.8 2103.63 1252.93 Q2103.63 1260.03 2105.44 1263.6 Q2107.27 1267.14 2110.88 1267.14 Q2114.51 1267.14 2116.32 1263.6 Q2118.15 1260.03 2118.15 1252.93 Q2118.15 1245.8 2116.32 1242.26 Q2114.51 1238.69 2110.88 1238.69 M2110.88 1234.99 Q2116.69 1234.99 2119.74 1239.59 Q2122.82 1244.18 2122.82 1252.93 Q2122.82 1261.65 2119.74 1266.26 Q2116.69 1270.84 2110.88 1270.84 Q2105.07 1270.84 2101.99 1266.26 Q2098.93 1261.65 2098.93 1252.93 Q2098.93 1244.18 2101.99 1239.59 Q2105.07 1234.99 2110.88 1234.99 Z" fill="#000000" fill-rule="nonzero" fill-opacity="1" /><path clip-path="url(#clip370)" d="M2135.07 1266.24 L2151.39 1266.24 L2151.39 1270.17 L2129.44 1270.17 L2129.44 1266.24 Q2132.11 1263.48 2136.69 1258.85 Q2141.29 1254.2 2142.48 1252.86 Q2144.72 1250.33 2145.6 1248.6 Q2146.5 1246.84 2146.5 1245.15 Q2146.5 1242.39 2144.56 1240.66 Q2142.64 1238.92 2139.54 1238.92 Q2137.34 1238.92 2134.88 1239.69 Q2132.45 1240.45 2129.67 1242 L2129.67 1237.28 Q2132.5 1236.14 2134.95 1235.57 Q2137.41 1234.99 2139.44 1234.99 Q2144.81 1234.99 2148.01 1237.67 Q2151.2 1240.36 2151.2 1244.85 Q2151.2 1246.98 2150.39 1248.9 Q2149.6 1250.8 2147.5 1253.39 Q2146.92 1254.06 2143.82 1257.28 Q2140.72 1260.47 2135.07 1266.24 Z" fill="#000000" fill-rule="nonzero" fill-opacity="1" /><path clip-path="url(#clip370)" d="M2158.45 1255.29 L2170.92 1255.29 L2170.92 1259.08 L2158.45 1259.08 L2158.45 1255.29 Z" fill="#000000" fill-rule="nonzero" fill-opacity="1" /><path clip-path="url(#clip370)" d="M2182.34 1266.24 L2198.66 1266.24 L2198.66 1270.17 L2176.71 1270.17 L2176.71 1266.24 Q2179.37 1263.48 2183.96 1258.85 Q2188.56 1254.2 2189.74 1252.86 Q2191.99 1250.33 2192.87 1248.6 Q2193.77 1246.84 2193.77 1245.15 Q2193.77 1242.39 2191.83 1240.66 Q2189.91 1238.92 2186.8 1238.92 Q2184.6 1238.92 2182.15 1239.69 Q2179.72 1240.45 2176.94 1242 L2176.94 1237.28 Q2179.77 1236.14 2182.22 1235.57 Q2184.67 1234.99 2186.71 1234.99 Q2192.08 1234.99 2195.28 1237.67 Q2198.47 1240.36 2198.47 1244.85 Q2198.47 1246.98 2197.66 1248.9 Q2196.87 1250.8 2194.77 1253.39 Q2194.19 1254.06 2191.09 1257.28 Q2187.98 1260.47 2182.34 1266.24 Z" fill="#000000" fill-rule="nonzero" fill-opacity="1" /><path clip-path="url(#clip370)" d="M2212.5 1266.24 L2228.82 1266.24 L2228.82 1270.17 L2206.87 1270.17 L2206.87 1266.24 Q2209.54 1263.48 2214.12 1258.85 Q2218.72 1254.2 2219.91 1252.86 Q2222.15 1250.33 2223.03 1248.6 Q2223.93 1246.84 2223.93 1245.15 Q2223.93 1242.39 2221.99 1240.66 Q2220.07 1238.92 2216.97 1238.92 Q2214.77 1238.92 2212.31 1239.69 Q2209.88 1240.45 2207.1 1242 L2207.1 1237.28 Q2209.93 1236.14 2212.38 1235.57 Q2214.84 1234.99 2216.87 1234.99 Q2222.24 1234.99 2225.44 1237.67 Q2228.63 1240.36 2228.63 1244.85 Q2228.63 1246.98 2227.82 1248.9 Q2227.04 1250.8 2224.93 1253.39 Q2224.35 1254.06 2221.25 1257.28 Q2218.15 1260.47 2212.5 1266.24 Z" fill="#000000" fill-rule="nonzero" fill-opacity="1" /><path clip-path="url(#clip370)" d="M2853.08 1266.24 L2869.4 1266.24 L2869.4 1270.17 L2847.46 1270.17 L2847.46 1266.24 Q2850.12 1263.48 2854.7 1258.85 Q2859.31 1254.2 2860.49 1252.86 Q2862.73 1250.33 2863.61 1248.6 Q2864.52 1246.84 2864.52 1245.15 Q2864.52 1242.39 2862.57 1240.66 Q2860.65 1238.92 2857.55 1238.92 Q2855.35 1238.92 2852.9 1239.69 Q2850.46 1240.45 2847.69 1242 L2847.69 1237.28 Q2850.51 1236.14 2852.96 1235.57 Q2855.42 1234.99 2857.46 1234.99 Q2862.83 1234.99 2866.02 1237.67 Q2869.21 1240.36 2869.21 1244.85 Q2869.21 1246.98 2868.4 1248.9 Q2867.62 1250.8 2865.51 1253.39 Q2864.93 1254.06 2861.83 1257.28 Q2858.73 1260.47 2853.08 1266.24 Z" fill="#000000" fill-rule="nonzero" fill-opacity="1" /><path clip-path="url(#clip370)" d="M2889.21 1238.69 Q2885.6 1238.69 2883.77 1242.26 Q2881.97 1245.8 2881.97 1252.93 Q2881.97 1260.03 2883.77 1263.6 Q2885.6 1267.14 2889.21 1267.14 Q2892.85 1267.14 2894.65 1263.6 Q2896.48 1260.03 2896.48 1252.93 Q2896.48 1245.8 2894.65 1242.26 Q2892.85 1238.69 2889.21 1238.69 M2889.21 1234.99 Q2895.02 1234.99 2898.08 1239.59 Q2901.16 1244.18 2901.16 1252.93 Q2901.16 1261.65 2898.08 1266.26 Q2895.02 1270.84 2889.21 1270.84 Q2883.4 1270.84 2880.33 1266.26 Q2877.27 1261.65 2877.27 1252.93 Q2877.27 1244.18 2880.33 1239.59 Q2883.4 1234.99 2889.21 1234.99 Z" fill="#000000" fill-rule="nonzero" fill-opacity="1" /><path clip-path="url(#clip370)" d="M2910.19 1266.24 L2917.83 1266.24 L2917.83 1239.87 L2909.52 1241.54 L2909.52 1237.28 L2917.78 1235.61 L2922.45 1235.61 L2922.45 1266.24 L2930.09 1266.24 L2930.09 1270.17 L2910.19 1270.17 L2910.19 1266.24 Z" fill="#000000" fill-rule="nonzero" fill-opacity="1" /><path clip-path="url(#clip370)" d="M2952.39 1239.69 L2940.58 1258.13 L2952.39 1258.13 L2952.39 1239.69 M2951.16 1235.61 L2957.04 1235.61 L2957.04 1258.13 L2961.97 1258.13 L2961.97 1262.02 L2957.04 1262.02 L2957.04 1270.17 L2952.39 1270.17 L2952.39 1262.02 L2936.78 1262.02 L2936.78 1257.51 L2951.16 1235.61 Z" fill="#000000" fill-rule="nonzero" fill-opacity="1" /><path clip-path="url(#clip370)" d="M2966.95 1255.29 L2979.42 1255.29 L2979.42 1259.08 L2966.95 1259.08 L2966.95 1255.29 Z" fill="#000000" fill-rule="nonzero" fill-opacity="1" /><path clip-path="url(#clip370)" d="M2996.81 1238.69 Q2993.2 1238.69 2991.37 1242.26 Q2989.56 1245.8 2989.56 1252.93 Q2989.56 1260.03 2991.37 1263.6 Q2993.2 1267.14 2996.81 1267.14 Q3000.44 1267.14 3002.25 1263.6 Q3004.07 1260.03 3004.07 1252.93 Q3004.07 1245.8 3002.25 1242.26 Q3000.44 1238.69 2996.81 1238.69 M2996.81 1234.99 Q3002.62 1234.99 3005.67 1239.59 Q3008.75 1244.18 3008.75 1252.93 Q3008.75 1261.65 3005.67 1266.26 Q3002.62 1270.84 2996.81 1270.84 Q2991 1270.84 2987.92 1266.26 Q2984.86 1261.65 2984.86 1252.93 Q2984.86 1244.18 2987.92 1239.59 Q2991 1234.99 2996.81 1234.99 Z" fill="#000000" fill-rule="nonzero" fill-opacity="1" /><path clip-path="url(#clip370)" d="M3021 1266.24 L3037.32 1266.24 L3037.32 1270.17 L3015.37 1270.17 L3015.37 1266.24 Q3018.03 1263.48 3022.62 1258.85 Q3027.22 1254.2 3028.4 1252.86 Q3030.65 1250.33 3031.53 1248.6 Q3032.43 1246.84 3032.43 1245.15 Q3032.43 1242.39 3030.49 1240.66 Q3028.57 1238.92 3025.46 1238.92 Q3023.26 1238.92 3020.81 1239.69 Q3018.38 1240.45 3015.6 1242 L3015.6 1237.28 Q3018.43 1236.14 3020.88 1235.57 Q3023.33 1234.99 3025.37 1234.99 Q3030.74 1234.99 3033.94 1237.67 Q3037.13 1240.36 3037.13 1244.85 Q3037.13 1246.98 3036.32 1248.9 Q3035.53 1250.8 3033.43 1253.39 Q3032.85 1254.06 3029.75 1257.28 Q3026.64 1260.47 3021 1266.24 Z" fill="#000000" fill-rule="nonzero" fill-opacity="1" /><path clip-path="url(#clip370)" d="M3044.38 1255.29 L3056.85 1255.29 L3056.85 1259.08 L3044.38 1259.08 L3044.38 1255.29 Z" fill="#000000" fill-rule="nonzero" fill-opacity="1" /><path clip-path="url(#clip370)" d="M3068.26 1266.24 L3084.58 1266.24 L3084.58 1270.17 L3062.64 1270.17 L3062.64 1266.24 Q3065.3 1263.48 3069.88 1258.85 Q3074.49 1254.2 3075.67 1252.86 Q3077.92 1250.33 3078.8 1248.6 Q3079.7 1246.84 3079.7 1245.15 Q3079.7 1242.39 3077.76 1240.66 Q3075.83 1238.92 3072.73 1238.92 Q3070.53 1238.92 3068.08 1239.69 Q3065.65 1240.45 3062.87 1242 L3062.87 1237.28 Q3065.69 1236.14 3068.15 1235.57 Q3070.6 1234.99 3072.64 1234.99 Q3078.01 1234.99 3081.2 1237.67 Q3084.4 1240.36 3084.4 1244.85 Q3084.4 1246.98 3083.59 1248.9 Q3082.8 1250.8 3080.69 1253.39 Q3080.12 1254.06 3077.01 1257.28 Q3073.91 1260.47 3068.26 1266.24 Z" fill="#000000" fill-rule="nonzero" fill-opacity="1" /><path clip-path="url(#clip370)" d="M3094.44 1235.61 L3112.8 1235.61 L3112.8 1239.55 L3098.73 1239.55 L3098.73 1248.02 Q3099.75 1247.67 3100.76 1247.51 Q3101.78 1247.32 3102.8 1247.32 Q3108.59 1247.32 3111.97 1250.5 Q3115.35 1253.67 3115.35 1259.08 Q3115.35 1264.66 3111.88 1267.76 Q3108.4 1270.84 3102.08 1270.84 Q3099.91 1270.84 3097.64 1270.47 Q3095.39 1270.1 3092.99 1269.36 L3092.99 1264.66 Q3095.07 1265.8 3097.29 1266.35 Q3099.51 1266.91 3101.99 1266.91 Q3106 1266.91 3108.33 1264.8 Q3110.67 1262.69 3110.67 1259.08 Q3110.67 1255.47 3108.33 1253.37 Q3106 1251.26 3101.99 1251.26 Q3100.12 1251.26 3098.24 1251.68 Q3096.39 1252.09 3094.44 1252.97 L3094.44 1235.61 Z" fill="#000000" fill-rule="nonzero" fill-opacity="1" /><path clip-path="url(#clip370)" d="M1727.07 1317.4 L1727.07 1354.35 L1734.84 1354.35 Q1744.67 1354.35 1749.22 1349.9 Q1753.81 1345.44 1753.81 1335.83 Q1753.81 1326.28 1749.22 1321.86 Q1744.67 1317.4 1734.84 1317.4 L1727.07 1317.4 M1720.64 1312.12 L1733.85 1312.12 Q1747.66 1312.12 1754.13 1317.88 Q1760.59 1323.61 1760.59 1335.83 Q1760.59 1348.11 1754.09 1353.87 Q1747.6 1359.64 1733.85 1359.64 L1720.64 1359.64 L1720.64 1312.12 Z" fill="#000000" fill-rule="nonzero" fill-opacity="1" /><path clip-path="url(#clip370)" d="M1786.78 1341.72 Q1779.68 1341.72 1776.95 1343.34 Q1774.21 1344.96 1774.21 1348.88 Q1774.21 1352 1776.25 1353.84 Q1778.31 1355.66 1781.85 1355.66 Q1786.72 1355.66 1789.65 1352.22 Q1792.61 1348.75 1792.61 1343.02 L1792.61 1341.72 L1786.78 1341.72 M1798.46 1339.3 L1798.46 1359.64 L1792.61 1359.64 L1792.61 1354.22 Q1790.6 1357.47 1787.61 1359.03 Q1784.62 1360.56 1780.29 1360.56 Q1774.81 1360.56 1771.57 1357.5 Q1768.35 1354.42 1768.35 1349.26 Q1768.35 1343.24 1772.36 1340.19 Q1776.41 1337.13 1784.39 1337.13 L1792.61 1337.13 L1792.61 1336.56 Q1792.61 1332.52 1789.93 1330.32 Q1787.29 1328.09 1782.48 1328.09 Q1779.43 1328.09 1776.53 1328.83 Q1773.64 1329.56 1770.96 1331.02 L1770.96 1325.61 Q1774.18 1324.37 1777.2 1323.77 Q1780.22 1323.13 1783.09 1323.13 Q1790.82 1323.13 1794.64 1327.14 Q1798.46 1331.15 1798.46 1339.3 Z" fill="#000000" fill-rule="nonzero" fill-opacity="1" /><path clip-path="url(#clip370)" d="M1816.32 1313.87 L1816.32 1323.99 L1828.38 1323.99 L1828.38 1328.54 L1816.32 1328.54 L1816.32 1347.89 Q1816.32 1352.25 1817.5 1353.49 Q1818.71 1354.73 1822.37 1354.73 L1828.38 1354.73 L1828.38 1359.64 L1822.37 1359.64 Q1815.59 1359.64 1813.01 1357.12 Q1810.43 1354.58 1810.43 1347.89 L1810.43 1328.54 L1806.13 1328.54 L1806.13 1323.99 L1810.43 1323.99 L1810.43 1313.87 L1816.32 1313.87 Z" fill="#000000" fill-rule="nonzero" fill-opacity="1" /><path clip-path="url(#clip370)" d="M1866.58 1340.35 L1866.58 1343.21 L1839.65 1343.21 Q1840.03 1349.26 1843.28 1352.44 Q1846.56 1355.59 1852.38 1355.59 Q1855.75 1355.59 1858.9 1354.77 Q1862.09 1353.94 1865.21 1352.28 L1865.21 1357.82 Q1862.06 1359.16 1858.75 1359.86 Q1855.44 1360.56 1852.03 1360.56 Q1843.5 1360.56 1838.5 1355.59 Q1833.54 1350.63 1833.54 1342.16 Q1833.54 1333.41 1838.25 1328.28 Q1842.99 1323.13 1851.01 1323.13 Q1858.2 1323.13 1862.37 1327.78 Q1866.58 1332.39 1866.58 1340.35 M1860.72 1338.63 Q1860.66 1333.82 1858.01 1330.96 Q1855.4 1328.09 1851.07 1328.09 Q1846.17 1328.09 1843.21 1330.86 Q1840.28 1333.63 1839.84 1338.66 L1860.72 1338.63 Z" fill="#000000" fill-rule="nonzero" fill-opacity="1" /><polyline clip-path="url(#clip372)" style="stroke:#000000; stroke-linecap:round; stroke-linejoin:round; stroke-width:2; stroke-opacity:0.1; fill:none" points="234.461,1177.16 3352.76,1177.16 "/>
<polyline clip-path="url(#clip372)" style="stroke:#000000; stroke-linecap:round; stroke-linejoin:round; stroke-width:2; stroke-opacity:0.1; fill:none" points="234.461,984.757 3352.76,984.757 "/>
<polyline clip-path="url(#clip372)" style="stroke:#000000; stroke-linecap:round; stroke-linejoin:round; stroke-width:2; stroke-opacity:0.1; fill:none" points="234.461,792.357 3352.76,792.357 "/>
<polyline clip-path="url(#clip372)" style="stroke:#000000; stroke-linecap:round; stroke-linejoin:round; stroke-width:2; stroke-opacity:0.1; fill:none" points="234.461,599.956 3352.76,599.956 "/>
<polyline clip-path="url(#clip372)" style="stroke:#000000; stroke-linecap:round; stroke-linejoin:round; stroke-width:2; stroke-opacity:0.1; fill:none" points="234.461,407.555 3352.76,407.555 "/>
<polyline clip-path="url(#clip372)" style="stroke:#000000; stroke-linecap:round; stroke-linejoin:round; stroke-width:2; stroke-opacity:0.1; fill:none" points="234.461,215.155 3352.76,215.155 "/>
<polyline clip-path="url(#clip370)" style="stroke:#000000; stroke-linecap:round; stroke-linejoin:round; stroke-width:4; stroke-opacity:1; fill:none" points="234.461,1199.77 234.461,47.2441 "/>
<polyline clip-path="url(#clip370)" style="stroke:#000000; stroke-linecap:round; stroke-linejoin:round; stroke-width:4; stroke-opacity:1; fill:none" points="3352.76,1199.77 3352.76,47.2441 "/>
<polyline clip-path="url(#clip370)" style="stroke:#000000; stroke-linecap:round; stroke-linejoin:round; stroke-width:4; stroke-opacity:1; fill:none" points="234.461,1177.16 253.359,1177.16 "/>
<polyline clip-path="url(#clip370)" style="stroke:#000000; stroke-linecap:round; stroke-linejoin:round; stroke-width:4; stroke-opacity:1; fill:none" points="234.461,984.757 253.359,984.757 "/>
<polyline clip-path="url(#clip370)" style="stroke:#000000; stroke-linecap:round; stroke-linejoin:round; stroke-width:4; stroke-opacity:1; fill:none" points="234.461,792.357 253.359,792.357 "/>
<polyline clip-path="url(#clip370)" style="stroke:#000000; stroke-linecap:round; stroke-linejoin:round; stroke-width:4; stroke-opacity:1; fill:none" points="234.461,599.956 253.359,599.956 "/>
<polyline clip-path="url(#clip370)" style="stroke:#000000; stroke-linecap:round; stroke-linejoin:round; stroke-width:4; stroke-opacity:1; fill:none" points="234.461,407.555 253.359,407.555 "/>
<polyline clip-path="url(#clip370)" style="stroke:#000000; stroke-linecap:round; stroke-linejoin:round; stroke-width:4; stroke-opacity:1; fill:none" points="234.461,215.155 253.359,215.155 "/>
<path clip-path="url(#clip370)" d="M163.554 1190.5 L171.192 1190.5 L171.192 1164.14 L162.882 1165.8 L162.882 1161.54 L171.146 1159.88 L175.822 1159.88 L175.822 1190.5 L183.461 1190.5 L183.461 1194.44 L163.554 1194.44 L163.554 1190.5 Z" fill="#000000" fill-rule="nonzero" fill-opacity="1" /><path clip-path="url(#clip370)" d="M167.142 998.102 L183.461 998.102 L183.461 1002.04 L161.517 1002.04 L161.517 998.102 Q164.179 995.348 168.762 990.718 Q173.368 986.065 174.549 984.723 Q176.794 982.199 177.674 980.463 Q178.577 978.704 178.577 977.014 Q178.577 974.26 176.632 972.524 Q174.711 970.787 171.609 970.787 Q169.41 970.787 166.956 971.551 Q164.526 972.315 161.748 973.866 L161.748 969.144 Q164.572 968.01 167.026 967.431 Q169.479 966.852 171.516 966.852 Q176.887 966.852 180.081 969.537 Q183.276 972.223 183.276 976.713 Q183.276 978.843 182.465 980.764 Q181.678 982.662 179.572 985.255 Q178.993 985.926 175.891 989.144 Q172.79 992.338 167.142 998.102 Z" fill="#000000" fill-rule="nonzero" fill-opacity="1" /><path clip-path="url(#clip370)" d="M176.331 791.003 Q179.688 791.72 181.563 793.989 Q183.461 796.257 183.461 799.59 Q183.461 804.706 179.942 807.507 Q176.424 810.308 169.942 810.308 Q167.767 810.308 165.452 809.868 Q163.16 809.451 160.706 808.595 L160.706 804.081 Q162.651 805.215 164.966 805.794 Q167.28 806.373 169.804 806.373 Q174.202 806.373 176.493 804.637 Q178.808 802.901 178.808 799.59 Q178.808 796.535 176.655 794.822 Q174.526 793.086 170.706 793.086 L166.679 793.086 L166.679 789.243 L170.891 789.243 Q174.341 789.243 176.169 787.878 Q177.998 786.489 177.998 783.896 Q177.998 781.234 176.1 779.822 Q174.225 778.387 170.706 778.387 Q168.785 778.387 166.586 778.804 Q164.387 779.22 161.748 780.1 L161.748 775.933 Q164.41 775.192 166.725 774.822 Q169.063 774.452 171.123 774.452 Q176.447 774.452 179.549 776.882 Q182.651 779.29 182.651 783.41 Q182.651 786.28 181.007 788.271 Q179.364 790.239 176.331 791.003 Z" fill="#000000" fill-rule="nonzero" fill-opacity="1" /><path clip-path="url(#clip370)" d="M173.878 586.75 L162.072 605.199 L173.878 605.199 L173.878 586.75 M172.651 582.676 L178.53 582.676 L178.53 605.199 L183.461 605.199 L183.461 609.088 L178.53 609.088 L178.53 617.236 L173.878 617.236 L173.878 609.088 L158.276 609.088 L158.276 604.574 L172.651 582.676 Z" fill="#000000" fill-rule="nonzero" fill-opacity="1" /><path clip-path="url(#clip370)" d="M162.558 390.275 L180.915 390.275 L180.915 394.211 L166.841 394.211 L166.841 402.683 Q167.859 402.336 168.878 402.174 Q169.896 401.988 170.915 401.988 Q176.702 401.988 180.081 405.16 Q183.461 408.331 183.461 413.748 Q183.461 419.326 179.989 422.428 Q176.516 425.507 170.197 425.507 Q168.021 425.507 165.753 425.136 Q163.507 424.766 161.1 424.025 L161.1 419.326 Q163.183 420.46 165.405 421.016 Q167.628 421.572 170.104 421.572 Q174.109 421.572 176.447 419.465 Q178.785 417.359 178.785 413.748 Q178.785 410.136 176.447 408.03 Q174.109 405.924 170.104 405.924 Q168.229 405.924 166.354 406.34 Q164.503 406.757 162.558 407.636 L162.558 390.275 Z" fill="#000000" fill-rule="nonzero" fill-opacity="1" /><path clip-path="url(#clip370)" d="M171.933 213.291 Q168.785 213.291 166.933 215.444 Q165.104 217.597 165.104 221.347 Q165.104 225.074 166.933 227.25 Q168.785 229.402 171.933 229.402 Q175.081 229.402 176.91 227.25 Q178.762 225.074 178.762 221.347 Q178.762 217.597 176.91 215.444 Q175.081 213.291 171.933 213.291 M181.216 198.639 L181.216 202.898 Q179.456 202.065 177.651 201.625 Q175.868 201.185 174.109 201.185 Q169.479 201.185 167.026 204.31 Q164.595 207.435 164.248 213.754 Q165.614 211.74 167.674 210.676 Q169.734 209.588 172.211 209.588 Q177.419 209.588 180.428 212.759 Q183.461 215.907 183.461 221.347 Q183.461 226.671 180.313 229.889 Q177.165 233.106 171.933 233.106 Q165.938 233.106 162.767 228.523 Q159.595 223.916 159.595 215.19 Q159.595 206.995 163.484 202.134 Q167.373 197.25 173.924 197.25 Q175.683 197.25 177.466 197.597 Q179.271 197.944 181.216 198.639 Z" fill="#000000" fill-rule="nonzero" fill-opacity="1" /><path clip-path="url(#clip370)" d="M45.4998 1006.48 L45.4998 976.439 L50.9107 976.439 L50.9107 1000.06 L64.9789 1000.06 L64.9789 977.425 L70.3897 977.425 L70.3897 1000.06 L87.609 1000.06 L87.609 975.866 L93.0198 975.866 L93.0198 1006.48 L45.4998 1006.48 Z" fill="#000000" fill-rule="nonzero" fill-opacity="1" /><path clip-path="url(#clip370)" d="M43.4946 965.553 L43.4946 959.697 L93.0198 959.697 L93.0198 965.553 L43.4946 965.553 Z" fill="#000000" fill-rule="nonzero" fill-opacity="1" /><path clip-path="url(#clip370)" d="M73.7317 916.951 L76.5963 916.951 L76.5963 943.878 Q82.6437 943.496 85.8266 940.25 Q88.9776 936.971 88.9776 931.147 Q88.9776 927.773 88.15 924.622 Q87.3225 921.439 85.6674 918.32 L91.2056 918.32 Q92.5424 921.471 93.2426 924.781 Q93.9428 928.091 93.9428 931.497 Q93.9428 940.027 88.9776 945.024 Q84.0123 949.989 75.5459 949.989 Q66.7931 949.989 61.6687 945.278 Q56.5125 940.536 56.5125 932.515 Q56.5125 925.322 61.1595 921.152 Q65.7746 916.951 73.7317 916.951 M72.013 922.808 Q67.2069 922.871 64.3423 925.513 Q61.4777 928.123 61.4777 932.452 Q61.4777 937.353 64.2468 940.313 Q67.0159 943.241 72.0448 943.687 L72.013 922.808 Z" fill="#000000" fill-rule="nonzero" fill-opacity="1" /><path clip-path="url(#clip370)" d="M58.7405 881.685 L64.215 881.685 Q62.8464 884.168 62.178 886.682 Q61.4777 889.165 61.4777 891.711 Q61.4777 897.408 65.1062 900.559 Q68.7028 903.71 75.2277 903.71 Q81.7525 903.71 85.381 900.559 Q88.9776 897.408 88.9776 891.711 Q88.9776 889.165 88.3092 886.682 Q87.609 884.168 86.2403 881.685 L91.6512 881.685 Q92.797 884.136 93.3699 886.778 Q93.9428 889.388 93.9428 892.348 Q93.9428 900.4 88.8821 905.143 Q83.8214 909.885 75.2277 909.885 Q66.5066 909.885 61.5096 905.111 Q56.5125 900.305 56.5125 891.966 Q56.5125 889.26 57.0854 886.682 Q57.6265 884.104 58.7405 881.685 Z" fill="#000000" fill-rule="nonzero" fill-opacity="1" /><path clip-path="url(#clip370)" d="M47.2504 865.707 L57.3719 865.707 L57.3719 853.644 L61.9233 853.644 L61.9233 865.707 L81.2751 865.707 Q85.6356 865.707 86.8769 864.53 Q88.1182 863.32 88.1182 859.66 L88.1182 853.644 L93.0198 853.644 L93.0198 859.66 Q93.0198 866.439 90.5054 869.017 Q87.9591 871.595 81.2751 871.595 L61.9233 871.595 L61.9233 875.892 L57.3719 875.892 L57.3719 871.595 L47.2504 871.595 L47.2504 865.707 Z" fill="#000000" fill-rule="nonzero" fill-opacity="1" /><path clip-path="url(#clip370)" d="M62.8464 825.285 Q62.2734 826.272 62.0188 827.449 Q61.7324 828.595 61.7324 829.996 Q61.7324 834.961 64.9789 837.634 Q68.1936 840.276 74.241 840.276 L93.0198 840.276 L93.0198 846.164 L57.3719 846.164 L57.3719 840.276 L62.91 840.276 Q59.6635 838.43 58.1039 835.47 Q56.5125 832.51 56.5125 828.277 Q56.5125 827.672 56.608 826.94 Q56.6716 826.208 56.8308 825.317 L62.8464 825.285 Z" fill="#000000" fill-rule="nonzero" fill-opacity="1" /><path clip-path="url(#clip370)" d="M57.3719 819.142 L57.3719 813.286 L93.0198 813.286 L93.0198 819.142 L57.3719 819.142 M43.4946 819.142 L43.4946 813.286 L50.9107 813.286 L50.9107 819.142 L43.4946 819.142 Z" fill="#000000" fill-rule="nonzero" fill-opacity="1" /><path clip-path="url(#clip370)" d="M58.7405 775.378 L64.215 775.378 Q62.8464 777.86 62.178 780.375 Q61.4777 782.857 61.4777 785.404 Q61.4777 791.101 65.1062 794.252 Q68.7028 797.403 75.2277 797.403 Q81.7525 797.403 85.381 794.252 Q88.9776 791.101 88.9776 785.404 Q88.9776 782.857 88.3092 780.375 Q87.609 777.86 86.2403 775.378 L91.6512 775.378 Q92.797 777.829 93.3699 780.47 Q93.9428 783.08 93.9428 786.04 Q93.9428 794.093 88.8821 798.835 Q83.8214 803.578 75.2277 803.578 Q66.5066 803.578 61.5096 798.804 Q56.5125 793.997 56.5125 785.658 Q56.5125 782.953 57.0854 780.375 Q57.6265 777.797 58.7405 775.378 Z" fill="#000000" fill-rule="nonzero" fill-opacity="1" /><path clip-path="url(#clip370)" d="M57.3719 765.193 L57.3719 759.336 L93.0198 759.336 L93.0198 765.193 L57.3719 765.193 M43.4946 765.193 L43.4946 759.336 L50.9107 759.336 L50.9107 765.193 L43.4946 765.193 Z" fill="#000000" fill-rule="nonzero" fill-opacity="1" /><path clip-path="url(#clip370)" d="M47.2504 741.289 L57.3719 741.289 L57.3719 729.226 L61.9233 729.226 L61.9233 741.289 L81.2751 741.289 Q85.6356 741.289 86.8769 740.112 Q88.1182 738.902 88.1182 735.242 L88.1182 729.226 L93.0198 729.226 L93.0198 735.242 Q93.0198 742.021 90.5054 744.6 Q87.9591 747.178 81.2751 747.178 L61.9233 747.178 L61.9233 751.475 L57.3719 751.475 L57.3719 747.178 L47.2504 747.178 L47.2504 741.289 Z" fill="#000000" fill-rule="nonzero" fill-opacity="1" /><path clip-path="url(#clip370)" d="M96.33 706.692 Q102.696 709.174 104.637 711.53 Q106.579 713.885 106.579 717.832 L106.579 722.511 L101.677 722.511 L101.677 719.073 Q101.677 716.654 100.531 715.317 Q99.3855 713.981 95.1205 712.357 L92.4469 711.307 L57.3719 725.725 L57.3719 719.519 L85.2537 708.379 L57.3719 697.239 L57.3719 691.032 L96.33 706.692 Z" fill="#000000" fill-rule="nonzero" fill-opacity="1" /><path clip-path="url(#clip370)" d="M62.7827 638.77 L43.4946 638.77 L43.4946 632.913 L93.0198 632.913 L93.0198 638.77 L87.6726 638.77 Q90.8555 640.616 92.4151 643.449 Q93.9428 646.249 93.9428 650.196 Q93.9428 656.657 88.7866 660.731 Q83.6304 664.774 75.2277 664.774 Q66.8249 664.774 61.6687 660.731 Q56.5125 656.657 56.5125 650.196 Q56.5125 646.249 58.0721 643.449 Q59.5999 640.616 62.7827 638.77 M75.2277 658.726 Q81.6889 658.726 85.381 656.084 Q89.0412 653.411 89.0412 648.764 Q89.0412 644.117 85.381 641.443 Q81.6889 638.77 75.2277 638.77 Q68.7665 638.77 65.1062 641.443 Q61.4141 644.117 61.4141 648.764 Q61.4141 653.411 65.1062 656.084 Q68.7665 658.726 75.2277 658.726 Z" fill="#000000" fill-rule="nonzero" fill-opacity="1" /><path clip-path="url(#clip370)" d="M73.7317 590.359 L76.5963 590.359 L76.5963 617.285 Q82.6437 616.904 85.8266 613.657 Q88.9776 610.379 88.9776 604.554 Q88.9776 601.18 88.15 598.029 Q87.3225 594.846 85.6674 591.727 L91.2056 591.727 Q92.5424 594.878 93.2426 598.188 Q93.9428 601.499 93.9428 604.904 Q93.9428 613.434 88.9776 618.431 Q84.0123 623.397 75.5459 623.397 Q66.7931 623.397 61.6687 618.686 Q56.5125 613.943 56.5125 605.923 Q56.5125 598.729 61.1595 594.56 Q65.7746 590.359 73.7317 590.359 M72.013 596.215 Q67.2069 596.279 64.3423 598.92 Q61.4777 601.53 61.4777 605.859 Q61.4777 610.761 64.2468 613.721 Q67.0159 616.649 72.0448 617.094 L72.013 596.215 Z" fill="#000000" fill-rule="nonzero" fill-opacity="1" /><path clip-path="url(#clip370)" d="M64.215 552.992 Q60.2683 550.796 58.3904 547.74 Q56.5125 544.685 56.5125 540.547 Q56.5125 534.977 60.4274 531.953 Q64.3105 528.929 71.5037 528.929 L93.0198 528.929 L93.0198 534.818 L71.6947 534.818 Q66.5703 534.818 64.0877 536.632 Q61.6051 538.446 61.6051 542.17 Q61.6051 546.722 64.6288 549.363 Q67.6525 552.005 72.8724 552.005 L93.0198 552.005 L93.0198 557.893 L71.6947 557.893 Q66.5385 557.893 64.0877 559.708 Q61.6051 561.522 61.6051 565.309 Q61.6051 569.797 64.6606 572.439 Q67.6843 575.081 72.8724 575.081 L93.0198 575.081 L93.0198 580.969 L57.3719 580.969 L57.3719 575.081 L62.91 575.081 Q59.6317 573.076 58.0721 570.275 Q56.5125 567.474 56.5125 563.623 Q56.5125 559.739 58.4859 557.034 Q60.4592 554.297 64.215 552.992 Z" fill="#000000" fill-rule="nonzero" fill-opacity="1" /><path clip-path="url(#clip370)" d="M75.1003 501.048 Q75.1003 508.145 76.7236 510.883 Q78.3469 513.62 82.2618 513.62 Q85.381 513.62 87.227 511.583 Q89.0412 509.514 89.0412 505.981 Q89.0412 501.111 85.6038 498.183 Q82.1345 495.223 76.4053 495.223 L75.1003 495.223 L75.1003 501.048 M72.6814 489.367 L93.0198 489.367 L93.0198 495.223 L87.609 495.223 Q90.8555 497.228 92.4151 500.22 Q93.9428 503.212 93.9428 507.541 Q93.9428 513.015 90.8873 516.262 Q87.7999 519.476 82.6437 519.476 Q76.6281 519.476 73.5726 515.466 Q70.517 511.424 70.517 503.435 L70.517 495.223 L69.9441 495.223 Q65.9019 495.223 63.7057 497.897 Q61.4777 500.538 61.4777 505.345 Q61.4777 508.4 62.2098 511.296 Q62.9418 514.193 64.406 516.866 L58.9951 516.866 Q57.7538 513.652 57.1491 510.628 Q56.5125 507.604 56.5125 504.74 Q56.5125 497.005 60.5229 493.186 Q64.5333 489.367 72.6814 489.367 Z" fill="#000000" fill-rule="nonzero" fill-opacity="1" /><path clip-path="url(#clip370)" d="M71.5037 447.671 L93.0198 447.671 L93.0198 453.528 L71.6947 453.528 Q66.634 453.528 64.1195 455.501 Q61.6051 457.474 61.6051 461.421 Q61.6051 466.164 64.6288 468.901 Q67.6525 471.638 72.8724 471.638 L93.0198 471.638 L93.0198 477.526 L57.3719 477.526 L57.3719 471.638 L62.91 471.638 Q59.6953 469.537 58.1039 466.705 Q56.5125 463.84 56.5125 460.116 Q56.5125 453.973 60.3319 450.822 Q64.1195 447.671 71.5037 447.671 Z" fill="#000000" fill-rule="nonzero" fill-opacity="1" /><path clip-path="url(#clip370)" d="M62.7827 412.533 L43.4946 412.533 L43.4946 406.676 L93.0198 406.676 L93.0198 412.533 L87.6726 412.533 Q90.8555 414.379 92.4151 417.211 Q93.9428 420.012 93.9428 423.959 Q93.9428 430.42 88.7866 434.494 Q83.6304 438.536 75.2277 438.536 Q66.8249 438.536 61.6687 434.494 Q56.5125 430.42 56.5125 423.959 Q56.5125 420.012 58.0721 417.211 Q59.5999 414.379 62.7827 412.533 M75.2277 432.489 Q81.6889 432.489 85.381 429.847 Q89.0412 427.174 89.0412 422.527 Q89.0412 417.88 85.381 415.206 Q81.6889 412.533 75.2277 412.533 Q68.7665 412.533 65.1062 415.206 Q61.4141 417.88 61.4141 422.527 Q61.4141 427.174 65.1062 429.847 Q68.7665 432.489 75.2277 432.489 Z" fill="#000000" fill-rule="nonzero" fill-opacity="1" /><path clip-path="url(#clip370)" d="M43.5583 380.545 Q50.8788 384.81 58.0403 386.879 Q65.2017 388.948 72.5541 388.948 Q79.9065 388.948 87.1315 386.879 Q94.3248 384.778 101.614 380.545 L101.614 385.637 Q94.1338 390.412 86.9087 392.799 Q79.6837 395.154 72.5541 395.154 Q65.4563 395.154 58.2631 392.799 Q51.0698 390.444 43.5583 385.637 L43.5583 380.545 Z" fill="#000000" fill-rule="nonzero" fill-opacity="1" /><path clip-path="url(#clip370)" d="M86.2403 336.526 L73.4771 336.526 L73.4771 347.029 L68.1936 347.029 L68.1936 330.16 L88.5956 330.16 Q91.2374 333.884 92.606 338.372 Q93.9428 342.86 93.9428 347.952 Q93.9428 359.092 87.4498 365.394 Q80.925 371.665 69.3076 371.665 Q57.6583 371.665 51.1653 365.394 Q44.6404 359.092 44.6404 347.952 Q44.6404 343.305 45.7863 339.136 Q46.9321 334.935 49.1601 331.402 L56.0032 331.402 Q52.9795 334.966 51.4517 338.977 Q49.924 342.987 49.924 347.411 Q49.924 356.132 54.7937 360.525 Q59.6635 364.885 69.3076 364.885 Q78.9198 364.885 83.7895 360.525 Q88.6593 356.132 88.6593 347.411 Q88.6593 344.006 88.0864 341.332 Q87.4816 338.658 86.2403 336.526 Z" fill="#000000" fill-rule="nonzero" fill-opacity="1" /><path clip-path="url(#clip370)" d="M45.4998 322.649 L45.4998 316.156 L85.6674 306.162 L45.4998 296.199 L45.4998 288.974 L85.6674 278.98 L45.4998 269.018 L45.4998 262.493 L93.0198 274.429 L93.0198 282.513 L51.77 292.539 L93.0198 302.66 L93.0198 310.745 L45.4998 322.649 Z" fill="#000000" fill-rule="nonzero" fill-opacity="1" /><path clip-path="url(#clip370)" d="M43.5583 255.14 L43.5583 250.048 Q51.0698 245.274 58.2631 242.918 Q65.4563 240.531 72.5541 240.531 Q79.6837 240.531 86.9087 242.918 Q94.1338 245.274 101.614 250.048 L101.614 255.14 Q94.3248 250.907 87.1315 248.838 Q79.9065 246.738 72.5541 246.738 Q65.2017 246.738 58.0403 248.838 Q50.8788 250.907 43.5583 255.14 Z" fill="#000000" fill-rule="nonzero" fill-opacity="1" /><polyline clip-path="url(#clip372)" style="stroke:#008000; stroke-linecap:round; stroke-linejoin:round; stroke-width:4; stroke-opacity:1; fill:none" points="322.714,649.788 335.023,719.244 347.332,758.879 359.641,777.734 371.949,778.696 384.258,759.264 396.567,729.249 408.876,710.202 421.184,676.339 433.493,650.365 445.802,645.17 458.111,642.861 470.419,656.714 482.728,659.6 495.037,649.595 507.346,627.085 519.654,593.799 531.963,578.215 544.272,593.799 556.58,587.258 568.889,597.84 581.198,655.367 593.507,690.384 605.815,618.234 618.124,685.382 630.433,737.907 642.742,766.19 655.05,764.266 667.359,715.396 679.668,598.224 691.977,462.005 704.285,440.841 716.594,425.064 728.903,412.75 741.212,400.629 753.52,392.356 765.829,376.771 778.138,363.688 790.446,361.187 802.755,341.562 815.064,340.215 827.373,372.154 839.681,418.907 851.99,446.613 864.299,481.63 876.608,569.172 888.916,618.427 901.225,558.975 913.534,636.512 925.843,690.769 938.151,721.361 950.46,719.052 962.769,675.185 975.077,565.709 987.386,434.299 999.695,423.332 1012,406.401 1024.31,387.931 1036.62,361.572 1048.93,333.481 1061.24,305.968 1073.55,268.257 1085.86,244.977 1098.16,205.92 1110.47,196.492 1122.78,246.324 1135.09,310.008 1147.4,356.184 1159.71,406.978 1172.02,511.067 1184.33,564.554 1196.63,517.031 1208.94,605.92 "/>
<polyline clip-path="url(#clip372)" style="stroke:#ff0000; stroke-linecap:round; stroke-linejoin:round; stroke-width:4; stroke-opacity:1; fill:none" points="1221.25,665.372 1233.56,700.004 1245.87,701.928 1258.18,659.023 1270.49,539.735 1282.8,416.213 1295.1,391.586 1307.41,359.263 1319.72,355.992 1332.03,351.182 1344.34,352.721 1356.65,348.296 1368.96,340.408 1381.27,345.602 1393.57,344.448 1405.88,378.503 1418.19,412.365 1430.5,457.387 1442.81,469.508 1455.12,511.837 1467.43,589.182 1479.74,625.353 1492.04,556.474 1504.35,638.629 1516.66,710.009 1528.97,743.679 1541.28,748.489 1553.59,705.392 1565.9,592.26 1578.21,460.273 1590.51,463.544 1602.82,461.235 1615.13,457.387 1627.44,437.185 1639.75,433.722 1652.06,432.952 1664.37,439.109 1676.68,446.228 1688.98,428.72 1701.29,417.945 1713.6,446.036 1725.91,475.665 1738.22,466.622 1750.53,494.905 1762.84,577.445 1775.15,619.773 1787.45,550.124 1799.76,620.543 1812.07,695.194 1824.38,726.748 1836.69,728.095 1849,672.491 1861.31,553.78 1873.62,421.985 1885.92,410.249 1898.23,402.168 1910.54,410.057 1922.85,410.634 1935.16,412.365 1947.47,424.487 1959.78,439.686 1972.09,467.969 1984.39,463.352 1996.7,461.812 2009.01,488.941 2021.32,512.606 2033.63,497.599 2045.94,521.649 2058.25,587.642 2070.55,622.467 2082.86,557.436 2095.17,1024.78 2107.48,1091.54 2119.79,1126.94 2132.1,1134.64 2144.41,1120.4 2156.72,1076.92 2169.02,1022.47 2181.33,977.446 2193.64,946.277 2205.95,941.275 2218.26,946.662 2230.57,949.74 2242.88,969.75 2255.19,981.294 2267.49,984.372 2279.8,972.059 2292.11,954.358 2304.42,955.128 2316.73,968.596 2329.04,964.748 2341.35,984.565 2353.66,1028.43 2365.96,1042.48 2378.27,969.75 2390.58,1042.09 2402.89,1110.01 2415.2,1149.64 2427.51,1167.15 2439.82,1163.69 2452.13,1142.33 2464.43,1114.24 2476.74,1092.5 2489.05,1058.64 2501.36,1046.71 2513.67,1043.63 2525.98,1040.55 2538.29,1041.32 2550.6,1030.16 2562.9,1013.23 2575.21,983.026 2587.52,945.892 2599.83,922.612 2612.14,936.85 2624.45,931.847 2636.76,953.588 2649.07,1014 2661.37,1041.32 2673.68,973.213 2685.99,1041.9 2698.3,1100.01 2710.61,1128.87 2722.92,1131.17 2735.23,1089.62 2747.54,976.869 2759.84,841.804 2772.15,827.951 2784.46,808.518 2796.77,805.632 2809.08,798.898 2821.39,780.235 2833.7,750.413 2846.01,719.052 2858.31,704.237 2870.62,686.536 2882.93,683.458 2895.24,720.014 2907.55,772.347 2919.86,788.124 2932.17,832.184 2944.48,920.303 2956.78,963.978 2969.09,905.873 2981.4,983.218 2993.71,1049.02 3006.02,1081.53 3018.33,1087.88 3030.64,1042.86 3042.95,920.688 3055.25,792.741 3067.56,774.271 3079.87,740.024 3092.18,704.045 3104.49,667.681 3116.8,628.239 3129.11,588.027 3141.41,550.317 3153.72,554.55 3166.03,556.474 3178.34,608.229 3190.65,704.814 3202.96,779.658 3215.27,798.513 3227.58,841.996 3239.88,926.268 3252.19,964.555 3264.5,905.873 "/>
<polyline clip-path="url(#clip372)" style="stroke:#0000ff; stroke-linecap:round; stroke-linejoin:round; stroke-width:4; stroke-opacity:1; fill:none" points="1221.25,647.286 1233.56,693.854 1245.87,706.545 1258.18,661.754 1270.49,565.766 1282.8,437.736 1295.1,388.763 1307.41,368.442 1319.72,338.435 1332.03,327.243 1344.34,320.055 1356.65,329.438 1368.96,337.128 1381.27,333.664 1393.57,349.507 1405.88,355.638 1418.19,417.287 1430.5,460.163 1442.81,486.379 1455.12,511.261 1467.43,556.109 1479.74,574.82 1492.04,548.603 1504.35,635.611 1516.66,702.834 1528.97,734.192 1541.28,742.675 1553.59,720.589 1565.9,637.03 1578.21,489.887 1590.51,416.023 1602.82,422.734 1615.13,429.949 1627.44,429.332 1639.75,428.055 1652.06,430.583 1664.37,436.316 1676.68,446.929 1688.98,455.605 1701.29,450.84 1713.6,442.725 1725.91,478.507 1738.22,502.512 1750.53,495.64 1762.84,539.208 1775.15,583.695 1787.45,539.078 1799.76,632.36 1812.07,690.632 1824.38,730.258 1836.69,742.832 1849,715.371 1861.31,579.723 1873.62,456.255 1885.92,396.505 1898.23,394.038 1910.54,387.488 1922.85,398.144 1935.16,402.683 1947.47,408.427 1959.78,432.918 1972.09,448.192 1984.39,469.165 1996.7,477.73 2009.01,483.446 2021.32,510.203 2033.63,526.531 2045.94,518.129 2058.25,558.657 2070.55,581.601 2082.86,546.179 2095.17,635.262 2107.48,708.527 2119.79,736.096 2132.1,746.997 2144.41,726.203 2156.72,692.459 2169.02,627.662 2181.33,577.731 2193.64,537.726 2205.95,522.54 2218.26,527.051 2230.57,540.946 2242.88,546.386 2255.19,570.537 2267.49,576.182 2279.8,579.737 2292.11,573.915 2304.42,552.034 2316.73,555.29 2329.04,574.034 2341.35,570.385 2353.66,589.145 2365.96,608.873 2378.27,596.623 2390.58,659.656 2402.89,722.193 2415.2,745.413 2427.51,762.827 2439.82,751.844 2452.13,734.047 2464.43,710.695 2476.74,691.491 2489.05,659.133 2501.36,631.377 2513.67,628.532 2525.98,626.374 2538.29,623.053 2550.6,620.685 2562.9,610.264 2575.21,586.427 2587.52,561.674 2599.83,535.871 2612.14,521.787 2624.45,533.318 2636.76,535.731 2649.07,587.424 2661.37,601.68 2673.68,601.044 2685.99,657.229 2698.3,713.113 2710.61,733.177 2722.92,744.398 2735.23,715.619 2747.54,635.906 2759.84,481.574 2772.15,412.395 2784.46,407.024 2796.77,398.436 2809.08,399.191 2821.39,399.964 2833.7,376.338 2846.01,344.447 2858.31,317.224 2870.62,302.798 2882.93,290.248 2895.24,303.217 2907.55,372.392 2919.86,427.891 2932.17,443.941 2944.48,501.453 2956.78,564.76 2969.09,528.424 2981.4,588.099 2993.71,659.564 3006.02,702.815 3018.33,704.174 3030.64,660.275 3042.95,561.156 3055.25,437.953 3067.56,380.53 3079.87,345.272 3092.18,293.965 3104.49,257.56 3116.8,211.947 3129.11,183.156 3141.41,144.141 3153.72,136.112 3166.03,152.594 3178.34,205.196 3190.65,299.32 3202.96,393.778 3215.27,434.991 3227.58,456.918 3239.88,509.411 3252.19,570.651 3264.5,530.31 "/>
<path clip-path="url(#clip372)" d="M1221.25 703.535 L1233.56 750.104 L1245.87 762.795 L1258.18 718.003 L1270.49 622.015 L1282.8 493.985 L1295.1 445.013 L1307.41 424.691 L1319.72 394.685 L1332.03 383.492 L1344.34 376.304 L1356.65 385.687 L1368.96 393.377 L1381.27 389.913 L1393.57 405.756 L1405.88 411.887 L1418.19 473.536 L1430.5 516.412 L1442.81 542.628 L1455.12 567.511 L1467.43 612.359 L1479.74 631.07 L1492.04 604.852 L1504.35 691.86 L1516.66 759.083 L1528.97 790.442 L1541.28 798.925 L1553.59 776.838 L1565.9 693.279 L1578.21 546.137 L1590.51 472.272 L1602.82 478.983 L1615.13 486.199 L1627.44 485.581 L1639.75 484.304 L1652.06 486.833 L1664.37 492.566 L1676.68 503.179 L1688.98 511.854 L1701.29 507.089 L1713.6 498.975 L1725.91 534.757 L1738.22 558.761 L1750.53 551.889 L1762.84 595.457 L1775.15 639.944 L1787.45 595.327 L1799.76 688.609 L1812.07 746.882 L1824.38 786.507 L1836.69 799.082 L1849 771.62 L1861.31 635.972 L1873.62 512.504 L1885.92 452.755 L1898.23 450.287 L1910.54 443.737 L1922.85 454.393 L1935.16 458.932 L1947.47 464.677 L1959.78 489.167 L1972.09 504.441 L1984.39 525.415 L1996.7 533.979 L2009.01 539.695 L2021.32 566.452 L2033.63 582.78 L2045.94 574.378 L2058.25 614.906 L2070.55 637.85 L2082.86 602.428 L2095.17 691.512 L2107.48 764.776 L2119.79 792.345 L2132.1 803.247 L2144.41 782.452 L2156.72 748.708 L2169.02 683.911 L2181.33 633.98 L2193.64 593.975 L2205.95 578.789 L2218.26 583.301 L2230.57 597.196 L2242.88 602.635 L2255.19 626.786 L2267.49 632.431 L2279.8 635.986 L2292.11 630.164 L2304.42 608.283 L2316.73 611.54 L2329.04 630.284 L2341.35 626.635 L2353.66 645.394 L2365.96 665.122 L2378.27 652.873 L2390.58 715.905 L2402.89 778.442 L2415.2 801.662 L2427.51 819.076 L2439.82 808.093 L2452.13 790.297 L2464.43 766.944 L2476.74 747.74 L2489.05 715.382 L2501.36 687.627 L2513.67 684.782 L2525.98 682.623 L2538.29 679.302 L2550.6 676.934 L2562.9 666.513 L2575.21 642.676 L2587.52 617.923 L2599.83 592.12 L2612.14 578.037 L2624.45 589.567 L2636.76 591.981 L2649.07 643.674 L2661.37 657.929 L2673.68 657.294 L2685.99 713.479 L2698.3 769.363 L2710.61 789.427 L2722.92 800.648 L2735.23 771.868 L2747.54 692.156 L2759.84 537.823 L2772.15 468.644 L2784.46 463.273 L2796.77 454.685 L2809.08 455.441 L2821.39 456.213 L2833.7 432.588 L2846.01 400.696 L2858.31 373.473 L2870.62 359.047 L2882.93 346.497 L2895.24 359.466 L2907.55 428.641 L2919.86 484.141 L2932.17 500.19 L2944.48 557.702 L2956.78 621.009 L2969.09 584.673 L2981.4 644.349 L2993.71 715.813 L3006.02 759.064 L3018.33 760.423 L3030.64 716.525 L3042.95 617.405 L3055.25 494.203 L3067.56 436.779 L3079.87 401.521 L3092.18 350.215 L3104.49 313.809 L3116.8 268.196 L3129.11 239.405 L3141.41 200.39 L3153.72 192.361 L3166.03 208.843 L3178.34 261.445 L3190.65 355.569 L3202.96 450.027 L3215.27 491.241 L3227.58 513.167 L3239.88 565.661 L3252.19 626.9 L3264.5 586.56 L3264.5 474.061 L3252.19 514.402 L3239.88 453.162 L3227.58 400.668 L3215.27 378.742 L3202.96 337.529 L3190.65 243.071 L3178.34 148.946 L3166.03 96.3448 L3153.72 79.8628 L3141.41 87.8918 L3129.11 126.907 L3116.8 155.698 L3104.49 201.311 L3092.18 237.716 L3079.87 289.023 L3067.56 324.281 L3055.25 381.704 L3042.95 504.907 L3030.64 604.026 L3018.33 647.925 L3006.02 646.566 L2993.71 603.315 L2981.4 531.85 L2969.09 472.174 L2956.78 508.51 L2944.48 445.204 L2932.17 387.691 L2919.86 371.642 L2907.55 316.143 L2895.24 246.967 L2882.93 233.998 L2870.62 246.548 L2858.31 260.975 L2846.01 288.197 L2833.7 320.089 L2821.39 343.715 L2809.08 342.942 L2796.77 342.186 L2784.46 350.775 L2772.15 356.146 L2759.84 425.324 L2747.54 579.657 L2735.23 659.369 L2722.92 688.149 L2710.61 676.928 L2698.3 656.864 L2685.99 600.98 L2673.68 544.795 L2661.37 545.431 L2649.07 531.175 L2636.76 479.482 L2624.45 477.068 L2612.14 465.538 L2599.83 479.621 L2587.52 505.425 L2575.21 530.177 L2562.9 554.014 L2550.6 564.436 L2538.29 566.804 L2525.98 570.125 L2513.67 572.283 L2501.36 575.128 L2489.05 602.883 L2476.74 635.242 L2464.43 654.446 L2452.13 677.798 L2439.82 695.594 L2427.51 706.577 L2415.2 689.164 L2402.89 665.943 L2390.58 603.407 L2378.27 540.374 L2365.96 552.624 L2353.66 532.896 L2341.35 514.136 L2329.04 517.785 L2316.73 499.041 L2304.42 495.785 L2292.11 517.665 L2279.8 523.487 L2267.49 519.933 L2255.19 514.287 L2242.88 490.137 L2230.57 484.697 L2218.26 470.802 L2205.95 466.291 L2193.64 481.476 L2181.33 521.482 L2169.02 571.412 L2156.72 636.209 L2144.41 669.953 L2132.1 690.748 L2119.79 679.847 L2107.48 652.277 L2095.17 579.013 L2082.86 489.929 L2070.55 525.352 L2058.25 502.407 L2045.94 461.88 L2033.63 470.282 L2021.32 453.954 L2009.01 427.197 L1996.7 421.48 L1984.39 412.916 L1972.09 391.943 L1959.78 376.669 L1947.47 352.178 L1935.16 346.434 L1922.85 341.895 L1910.54 331.239 L1898.23 337.789 L1885.92 340.256 L1873.62 400.005 L1861.31 523.474 L1849 659.122 L1836.69 686.583 L1824.38 674.008 L1812.07 634.383 L1799.76 576.11 L1787.45 482.829 L1775.15 527.446 L1762.84 482.959 L1750.53 439.391 L1738.22 446.262 L1725.91 422.258 L1713.6 386.476 L1701.29 394.591 L1688.98 399.356 L1676.68 390.68 L1664.37 380.067 L1652.06 374.334 L1639.75 371.806 L1627.44 373.082 L1615.13 373.7 L1602.82 366.484 L1590.51 359.774 L1578.21 433.638 L1565.9 580.781 L1553.59 664.339 L1541.28 686.426 L1528.97 677.943 L1516.66 646.584 L1504.35 579.361 L1492.04 492.354 L1479.74 518.571 L1467.43 499.86 L1455.12 455.012 L1442.81 430.13 L1430.5 403.913 L1418.19 361.037 L1405.88 299.389 L1393.57 293.258 L1381.27 277.415 L1368.96 280.879 L1356.65 273.188 L1344.34 263.805 L1332.03 270.993 L1319.72 282.186 L1307.41 312.192 L1295.1 332.514 L1282.8 381.487 L1270.49 509.517 L1258.18 605.504 L1245.87 650.296 L1233.56 637.605 L1221.25 591.036  Z" fill="#4a0e87" fill-rule="evenodd" fill-opacity="0.2"/>
<polyline clip-path="url(#clip372)" style="stroke:#4a0e87; stroke-linecap:round; stroke-linejoin:round; stroke-width:0; stroke-opacity:1; fill:none" points="1221.25,703.535 1233.56,750.104 1245.87,762.795 1258.18,718.003 1270.49,622.015 1282.8,493.985 1295.1,445.013 1307.41,424.691 1319.72,394.685 1332.03,383.492 1344.34,376.304 1356.65,385.687 1368.96,393.377 1381.27,389.913 1393.57,405.756 1405.88,411.887 1418.19,473.536 1430.5,516.412 1442.81,542.628 1455.12,567.511 1467.43,612.359 1479.74,631.07 1492.04,604.852 1504.35,691.86 1516.66,759.083 1528.97,790.442 1541.28,798.925 1553.59,776.838 1565.9,693.279 1578.21,546.137 1590.51,472.272 1602.82,478.983 1615.13,486.199 1627.44,485.581 1639.75,484.304 1652.06,486.833 1664.37,492.566 1676.68,503.179 1688.98,511.854 1701.29,507.089 1713.6,498.975 1725.91,534.757 1738.22,558.761 1750.53,551.889 1762.84,595.457 1775.15,639.944 1787.45,595.327 1799.76,688.609 1812.07,746.882 1824.38,786.507 1836.69,799.082 1849,771.62 1861.31,635.972 1873.62,512.504 1885.92,452.755 1898.23,450.287 1910.54,443.737 1922.85,454.393 1935.16,458.932 1947.47,464.677 1959.78,489.167 1972.09,504.441 1984.39,525.415 1996.7,533.979 2009.01,539.695 2021.32,566.452 2033.63,582.78 2045.94,574.378 2058.25,614.906 2070.55,637.85 2082.86,602.428 2095.17,691.512 2107.48,764.776 2119.79,792.345 2132.1,803.247 2144.41,782.452 2156.72,748.708 2169.02,683.911 2181.33,633.98 2193.64,593.975 2205.95,578.789 2218.26,583.301 2230.57,597.196 2242.88,602.635 2255.19,626.786 2267.49,632.431 2279.8,635.986 2292.11,630.164 2304.42,608.283 2316.73,611.54 2329.04,630.284 2341.35,626.635 2353.66,645.394 2365.96,665.122 2378.27,652.873 2390.58,715.905 2402.89,778.442 2415.2,801.662 2427.51,819.076 2439.82,808.093 2452.13,790.297 2464.43,766.944 2476.74,747.74 2489.05,715.382 2501.36,687.627 2513.67,684.782 2525.98,682.623 2538.29,679.302 2550.6,676.934 2562.9,666.513 2575.21,642.676 2587.52,617.923 2599.83,592.12 2612.14,578.037 2624.45,589.567 2636.76,591.981 2649.07,643.674 2661.37,657.929 2673.68,657.294 2685.99,713.479 2698.3,769.363 2710.61,789.427 2722.92,800.648 2735.23,771.868 2747.54,692.156 2759.84,537.823 2772.15,468.644 2784.46,463.273 2796.77,454.685 2809.08,455.441 2821.39,456.213 2833.7,432.588 2846.01,400.696 2858.31,373.473 2870.62,359.047 2882.93,346.497 2895.24,359.466 2907.55,428.641 2919.86,484.141 2932.17,500.19 2944.48,557.702 2956.78,621.009 2969.09,584.673 2981.4,644.349 2993.71,715.813 3006.02,759.064 3018.33,760.423 3030.64,716.525 3042.95,617.405 3055.25,494.203 3067.56,436.779 3079.87,401.521 3092.18,350.215 3104.49,313.809 3116.8,268.196 3129.11,239.405 3141.41,200.39 3153.72,192.361 3166.03,208.843 3178.34,261.445 3190.65,355.569 3202.96,450.027 3215.27,491.241 3227.58,513.167 3239.88,565.661 3252.19,626.9 3264.5,586.56 "/>
<path clip-path="url(#clip370)" d="M215.051 1447.32 L3372.17 1447.32 L3372.17 1369.56 L215.051 1369.56  Z" fill="#ffffff" fill-rule="evenodd" fill-opacity="1"/>
<polyline clip-path="url(#clip370)" style="stroke:#000000; stroke-linecap:round; stroke-linejoin:round; stroke-width:4; stroke-opacity:1; fill:none" points="215.051,1447.32 3372.17,1447.32 3372.17,1369.56 215.051,1369.56 215.051,1447.32 "/>
<polyline clip-path="url(#clip370)" style="stroke:#008000; stroke-linecap:round; stroke-linejoin:round; stroke-width:3; stroke-opacity:1; fill:none" points="249.699,1408.44 457.585,1408.44 "/>
<path clip-path="url(#clip370)" d="M497.789 1396.44 L497.789 1401.96 L504.368 1401.96 L504.368 1404.44 L497.789 1404.44 L497.789 1414.99 Q497.789 1417.37 498.431 1418.05 Q499.091 1418.73 501.087 1418.73 L504.368 1418.73 L504.368 1421.4 L501.087 1421.4 Q497.389 1421.4 495.983 1420.03 Q494.577 1418.64 494.577 1414.99 L494.577 1404.44 L492.233 1404.44 L492.233 1401.96 L494.577 1401.96 L494.577 1396.44 L497.789 1396.44 Z" fill="#000000" fill-rule="nonzero" fill-opacity="1" /><path clip-path="url(#clip370)" d="M519.837 1404.94 Q519.299 1404.63 518.657 1404.49 Q518.032 1404.34 517.268 1404.34 Q514.559 1404.34 513.101 1406.11 Q511.66 1407.86 511.66 1411.16 L511.66 1421.4 L508.448 1421.4 L508.448 1401.96 L511.66 1401.96 L511.66 1404.98 Q512.667 1403.21 514.282 1402.36 Q515.896 1401.49 518.205 1401.49 Q518.535 1401.49 518.934 1401.54 Q519.334 1401.57 519.82 1401.66 L519.837 1404.94 Z" fill="#000000" fill-rule="nonzero" fill-opacity="1" /><path clip-path="url(#clip370)" d="M532.025 1411.63 Q528.153 1411.63 526.66 1412.51 Q525.167 1413.4 525.167 1415.53 Q525.167 1417.23 526.278 1418.24 Q527.407 1419.23 529.334 1419.23 Q531.99 1419.23 533.587 1417.36 Q535.202 1415.46 535.202 1412.34 L535.202 1411.63 L532.025 1411.63 M538.396 1410.31 L538.396 1421.4 L535.202 1421.4 L535.202 1418.45 Q534.108 1420.22 532.476 1421.07 Q530.844 1421.9 528.483 1421.9 Q525.497 1421.9 523.726 1420.24 Q521.973 1418.55 521.973 1415.74 Q521.973 1412.46 524.16 1410.79 Q526.365 1409.13 530.723 1409.13 L535.202 1409.13 L535.202 1408.81 Q535.202 1406.61 533.743 1405.41 Q532.302 1404.2 529.681 1404.2 Q528.014 1404.2 526.434 1404.6 Q524.854 1404.99 523.396 1405.79 L523.396 1402.84 Q525.15 1402.17 526.799 1401.84 Q528.448 1401.49 530.011 1401.49 Q534.229 1401.49 536.313 1403.68 Q538.396 1405.86 538.396 1410.31 Z" fill="#000000" fill-rule="nonzero" fill-opacity="1" /><path clip-path="url(#clip370)" d="M544.976 1401.96 L548.17 1401.96 L548.17 1421.4 L544.976 1421.4 L544.976 1401.96 M544.976 1394.39 L548.17 1394.39 L548.17 1398.43 L544.976 1398.43 L544.976 1394.39 Z" fill="#000000" fill-rule="nonzero" fill-opacity="1" /><path clip-path="url(#clip370)" d="M571.017 1409.66 L571.017 1421.4 L567.823 1421.4 L567.823 1409.77 Q567.823 1407.01 566.747 1405.64 Q565.67 1404.27 563.517 1404.27 Q560.931 1404.27 559.438 1405.91 Q557.945 1407.56 557.945 1410.41 L557.945 1421.4 L554.733 1421.4 L554.733 1401.96 L557.945 1401.96 L557.945 1404.98 Q559.09 1403.22 560.636 1402.36 Q562.198 1401.49 564.229 1401.49 Q567.58 1401.49 569.299 1403.57 Q571.017 1405.64 571.017 1409.66 Z" fill="#000000" fill-rule="nonzero" fill-opacity="1" /><polyline clip-path="url(#clip370)" style="stroke:#ff0000; stroke-linecap:round; stroke-linejoin:round; stroke-width:3; stroke-opacity:1; fill:none" points="1030.32,1408.44 1238.2,1408.44 "/>
<path clip-path="url(#clip370)" d="M1278.41 1396.44 L1278.41 1401.96 L1284.99 1401.96 L1284.99 1404.44 L1278.41 1404.44 L1278.41 1414.99 Q1278.41 1417.37 1279.05 1418.05 Q1279.71 1418.73 1281.7 1418.73 L1284.99 1418.73 L1284.99 1421.4 L1281.7 1421.4 Q1278.01 1421.4 1276.6 1420.03 Q1275.19 1418.64 1275.19 1414.99 L1275.19 1404.44 L1272.85 1404.44 L1272.85 1401.96 L1275.19 1401.96 L1275.19 1396.44 L1278.41 1396.44 Z" fill="#000000" fill-rule="nonzero" fill-opacity="1" /><path clip-path="url(#clip370)" d="M1305.82 1410.88 L1305.82 1412.44 L1291.13 1412.44 Q1291.34 1415.74 1293.11 1417.48 Q1294.9 1419.2 1298.08 1419.2 Q1299.92 1419.2 1301.63 1418.74 Q1303.37 1418.29 1305.07 1417.39 L1305.07 1420.41 Q1303.35 1421.14 1301.55 1421.52 Q1299.74 1421.9 1297.88 1421.9 Q1293.23 1421.9 1290.51 1419.2 Q1287.8 1416.49 1287.8 1411.87 Q1287.8 1407.1 1290.37 1404.3 Q1292.95 1401.49 1297.33 1401.49 Q1301.25 1401.49 1303.53 1404.02 Q1305.82 1406.54 1305.82 1410.88 M1302.62 1409.94 Q1302.59 1407.32 1301.15 1405.76 Q1299.72 1404.2 1297.36 1404.2 Q1294.69 1404.2 1293.08 1405.71 Q1291.48 1407.22 1291.24 1409.96 L1302.62 1409.94 Z" fill="#000000" fill-rule="nonzero" fill-opacity="1" /><path clip-path="url(#clip370)" d="M1323.46 1402.53 L1323.46 1405.55 Q1322.1 1404.86 1320.64 1404.51 Q1319.19 1404.16 1317.62 1404.16 Q1315.25 1404.16 1314.05 1404.89 Q1312.87 1405.62 1312.87 1407.08 Q1312.87 1408.19 1313.72 1408.83 Q1314.57 1409.46 1317.14 1410.03 L1318.23 1410.27 Q1321.63 1411 1323.06 1412.34 Q1324.5 1413.66 1324.5 1416.04 Q1324.5 1418.74 1322.35 1420.32 Q1320.21 1421.9 1316.46 1421.9 Q1314.9 1421.9 1313.2 1421.59 Q1311.51 1421.3 1309.64 1420.69 L1309.64 1417.39 Q1311.41 1418.31 1313.13 1418.78 Q1314.85 1419.23 1316.53 1419.23 Q1318.79 1419.23 1320 1418.47 Q1321.22 1417.69 1321.22 1416.28 Q1321.22 1414.98 1320.33 1414.28 Q1319.46 1413.59 1316.5 1412.95 L1315.38 1412.69 Q1312.42 1412.06 1311.1 1410.78 Q1309.78 1409.47 1309.78 1407.22 Q1309.78 1404.47 1311.72 1402.98 Q1313.67 1401.49 1317.24 1401.49 Q1319.01 1401.49 1320.58 1401.75 Q1322.14 1402.01 1323.46 1402.53 Z" fill="#000000" fill-rule="nonzero" fill-opacity="1" /><path clip-path="url(#clip370)" d="M1332.75 1396.44 L1332.75 1401.96 L1339.33 1401.96 L1339.33 1404.44 L1332.75 1404.44 L1332.75 1414.99 Q1332.75 1417.37 1333.39 1418.05 Q1334.05 1418.73 1336.04 1418.73 L1339.33 1418.73 L1339.33 1421.4 L1336.04 1421.4 Q1332.35 1421.4 1330.94 1420.03 Q1329.53 1418.64 1329.53 1414.99 L1329.53 1404.44 L1327.19 1404.44 L1327.19 1401.96 L1329.53 1401.96 L1329.53 1396.44 L1332.75 1396.44 Z" fill="#000000" fill-rule="nonzero" fill-opacity="1" /><polyline clip-path="url(#clip370)" style="stroke:#0000ff; stroke-linecap:round; stroke-linejoin:round; stroke-width:3; stroke-opacity:1; fill:none" points="1810.93,1408.44 2018.82,1408.44 "/>
<path clip-path="url(#clip370)" d="M2056.68 1418.48 L2056.68 1428.8 L2053.47 1428.8 L2053.47 1401.96 L2056.68 1401.96 L2056.68 1404.91 Q2057.69 1403.17 2059.21 1402.34 Q2060.76 1401.49 2062.89 1401.49 Q2066.43 1401.49 2068.64 1404.3 Q2070.86 1407.11 2070.86 1411.7 Q2070.86 1416.28 2068.64 1419.09 Q2066.43 1421.9 2062.89 1421.9 Q2060.76 1421.9 2059.21 1421.07 Q2057.69 1420.22 2056.68 1418.48 M2067.55 1411.7 Q2067.55 1408.17 2066.09 1406.18 Q2064.65 1404.16 2062.11 1404.16 Q2059.58 1404.16 2058.12 1406.18 Q2056.68 1408.17 2056.68 1411.7 Q2056.68 1415.22 2058.12 1417.23 Q2059.58 1419.23 2062.11 1419.23 Q2064.65 1419.23 2066.09 1417.23 Q2067.55 1415.22 2067.55 1411.7 Z" fill="#000000" fill-rule="nonzero" fill-opacity="1" /><path clip-path="url(#clip370)" d="M2087.42 1404.94 Q2086.89 1404.63 2086.24 1404.49 Q2085.62 1404.34 2084.86 1404.34 Q2082.15 1404.34 2080.69 1406.11 Q2079.25 1407.86 2079.25 1411.16 L2079.25 1421.4 L2076.04 1421.4 L2076.04 1401.96 L2079.25 1401.96 L2079.25 1404.98 Q2080.25 1403.21 2081.87 1402.36 Q2083.48 1401.49 2085.79 1401.49 Q2086.12 1401.49 2086.52 1401.54 Q2086.92 1401.57 2087.41 1401.66 L2087.42 1404.94 Z" fill="#000000" fill-rule="nonzero" fill-opacity="1" /><path clip-path="url(#clip370)" d="M2106.63 1410.88 L2106.63 1412.44 L2091.94 1412.44 Q2092.15 1415.74 2093.92 1417.48 Q2095.71 1419.2 2098.88 1419.2 Q2100.72 1419.2 2102.44 1418.74 Q2104.18 1418.29 2105.88 1417.39 L2105.88 1420.41 Q2104.16 1421.14 2102.35 1421.52 Q2100.55 1421.9 2098.69 1421.9 Q2094.04 1421.9 2091.31 1419.2 Q2088.61 1416.49 2088.61 1411.87 Q2088.61 1407.1 2091.17 1404.3 Q2093.76 1401.49 2098.14 1401.49 Q2102.06 1401.49 2104.33 1404.02 Q2106.63 1406.54 2106.63 1410.88 M2103.43 1409.94 Q2103.4 1407.32 2101.96 1405.76 Q2100.53 1404.2 2098.17 1404.2 Q2095.5 1404.2 2093.88 1405.71 Q2092.29 1407.22 2092.04 1409.96 L2103.43 1409.94 Z" fill="#000000" fill-rule="nonzero" fill-opacity="1" /><path clip-path="url(#clip370)" d="M2124.66 1404.91 L2124.66 1394.39 L2127.86 1394.39 L2127.86 1421.4 L2124.66 1421.4 L2124.66 1418.48 Q2123.66 1420.22 2122.11 1421.07 Q2120.58 1421.9 2118.43 1421.9 Q2114.91 1421.9 2112.68 1419.09 Q2110.48 1416.28 2110.48 1411.7 Q2110.48 1407.11 2112.68 1404.3 Q2114.91 1401.49 2118.43 1401.49 Q2120.58 1401.49 2122.11 1402.34 Q2123.66 1403.17 2124.66 1404.91 M2113.78 1411.7 Q2113.78 1415.22 2115.22 1417.23 Q2116.68 1419.23 2119.21 1419.23 Q2121.75 1419.23 2123.21 1417.23 Q2124.66 1415.22 2124.66 1411.7 Q2124.66 1408.17 2123.21 1406.18 Q2121.75 1404.16 2119.21 1404.16 Q2116.68 1404.16 2115.22 1406.18 Q2113.78 1408.17 2113.78 1411.7 Z" fill="#000000" fill-rule="nonzero" fill-opacity="1" /><path clip-path="url(#clip370)" d="M2134.44 1401.96 L2137.63 1401.96 L2137.63 1421.4 L2134.44 1421.4 L2134.44 1401.96 M2134.44 1394.39 L2137.63 1394.39 L2137.63 1398.43 L2134.44 1398.43 L2134.44 1394.39 Z" fill="#000000" fill-rule="nonzero" fill-opacity="1" /><path clip-path="url(#clip370)" d="M2158.31 1402.7 L2158.31 1405.69 Q2156.96 1404.94 2155.58 1404.58 Q2154.23 1404.2 2152.84 1404.2 Q2149.73 1404.2 2148.01 1406.18 Q2146.3 1408.14 2146.3 1411.7 Q2146.3 1415.26 2148.01 1417.23 Q2149.73 1419.2 2152.84 1419.2 Q2154.23 1419.2 2155.58 1418.83 Q2156.96 1418.45 2158.31 1417.7 L2158.31 1420.65 Q2156.97 1421.28 2155.53 1421.59 Q2154.11 1421.9 2152.49 1421.9 Q2148.1 1421.9 2145.51 1419.14 Q2142.93 1416.38 2142.93 1411.7 Q2142.93 1406.94 2145.53 1404.21 Q2148.15 1401.49 2152.7 1401.49 Q2154.18 1401.49 2155.58 1401.8 Q2156.99 1402.1 2158.31 1402.7 Z" fill="#000000" fill-rule="nonzero" fill-opacity="1" /><path clip-path="url(#clip370)" d="M2167.02 1396.44 L2167.02 1401.96 L2173.6 1401.96 L2173.6 1404.44 L2167.02 1404.44 L2167.02 1414.99 Q2167.02 1417.37 2167.67 1418.05 Q2168.33 1418.73 2170.32 1418.73 L2173.6 1418.73 L2173.6 1421.4 L2170.32 1421.4 Q2166.63 1421.4 2165.22 1420.03 Q2163.81 1418.64 2163.81 1414.99 L2163.81 1404.44 L2161.47 1404.44 L2161.47 1401.96 L2163.81 1401.96 L2163.81 1396.44 L2167.02 1396.44 Z" fill="#000000" fill-rule="nonzero" fill-opacity="1" /><path clip-path="url(#clip370)" d="M2177.81 1401.96 L2181 1401.96 L2181 1421.4 L2177.81 1421.4 L2177.81 1401.96 M2177.81 1394.39 L2181 1394.39 L2181 1398.43 L2177.81 1398.43 L2177.81 1394.39 Z" fill="#000000" fill-rule="nonzero" fill-opacity="1" /><path clip-path="url(#clip370)" d="M2195.22 1404.2 Q2192.65 1404.2 2191.16 1406.21 Q2189.66 1408.21 2189.66 1411.7 Q2189.66 1415.19 2191.14 1417.2 Q2192.63 1419.2 2195.22 1419.2 Q2197.77 1419.2 2199.26 1417.18 Q2200.76 1415.17 2200.76 1411.7 Q2200.76 1408.24 2199.26 1406.23 Q2197.77 1404.2 2195.22 1404.2 M2195.22 1401.49 Q2199.39 1401.49 2201.76 1404.2 Q2204.14 1406.9 2204.14 1411.7 Q2204.14 1416.47 2201.76 1419.2 Q2199.39 1421.9 2195.22 1421.9 Q2191.04 1421.9 2188.66 1419.2 Q2186.3 1416.47 2186.3 1411.7 Q2186.3 1406.9 2188.66 1404.2 Q2191.04 1401.49 2195.22 1401.49 Z" fill="#000000" fill-rule="nonzero" fill-opacity="1" /><path clip-path="url(#clip370)" d="M2225.6 1409.66 L2225.6 1421.4 L2222.41 1421.4 L2222.41 1409.77 Q2222.41 1407.01 2221.33 1405.64 Q2220.25 1404.27 2218.1 1404.27 Q2215.51 1404.27 2214.02 1405.91 Q2212.53 1407.56 2212.53 1410.41 L2212.53 1421.4 L2209.32 1421.4 L2209.32 1401.96 L2212.53 1401.96 L2212.53 1404.98 Q2213.67 1403.22 2215.22 1402.36 Q2216.78 1401.49 2218.81 1401.49 Q2222.16 1401.49 2223.88 1403.57 Q2225.6 1405.64 2225.6 1409.66 Z" fill="#000000" fill-rule="nonzero" fill-opacity="1" /><path clip-path="url(#clip370)" d="M2591.55 1423.99 L2799.44 1423.99 L2799.44 1392.89 L2591.55 1392.89 L2591.55 1423.99  Z" fill="#4a0e87" fill-rule="evenodd" fill-opacity="0.2"/>
<polyline clip-path="url(#clip370)" style="stroke:#4a0e87; stroke-linecap:round; stroke-linejoin:round; stroke-width:0.6; stroke-opacity:1; fill:none" points="2591.55,1392.89 2799.44,1392.89 "/>
<path clip-path="url(#clip370)" d="M2837.29 1418.48 L2837.29 1428.8 L2834.08 1428.8 L2834.08 1401.96 L2837.29 1401.96 L2837.29 1404.91 Q2838.3 1403.17 2839.83 1402.34 Q2841.37 1401.49 2843.51 1401.49 Q2847.05 1401.49 2849.26 1404.3 Q2851.48 1407.11 2851.48 1411.7 Q2851.48 1416.28 2849.26 1419.09 Q2847.05 1421.9 2843.51 1421.9 Q2841.37 1421.9 2839.83 1421.07 Q2838.3 1420.22 2837.29 1418.48 M2848.16 1411.7 Q2848.16 1408.17 2846.7 1406.18 Q2845.26 1404.16 2842.73 1404.16 Q2840.19 1404.16 2838.74 1406.18 Q2837.29 1408.17 2837.29 1411.7 Q2837.29 1415.22 2838.74 1417.23 Q2840.19 1419.23 2842.73 1419.23 Q2845.26 1419.23 2846.7 1417.23 Q2848.16 1415.22 2848.16 1411.7 Z" fill="#000000" fill-rule="nonzero" fill-opacity="1" /><path clip-path="url(#clip370)" d="M2868.04 1404.94 Q2867.5 1404.63 2866.86 1404.49 Q2866.24 1404.34 2865.47 1404.34 Q2862.76 1404.34 2861.3 1406.11 Q2859.86 1407.86 2859.86 1411.16 L2859.86 1421.4 L2856.65 1421.4 L2856.65 1401.96 L2859.86 1401.96 L2859.86 1404.98 Q2860.87 1403.21 2862.49 1402.36 Q2864.1 1401.49 2866.41 1401.49 Q2866.74 1401.49 2867.14 1401.54 Q2867.54 1401.57 2868.02 1401.66 L2868.04 1404.94 Z" fill="#000000" fill-rule="nonzero" fill-opacity="1" /><path clip-path="url(#clip370)" d="M2887.24 1410.88 L2887.24 1412.44 L2872.55 1412.44 Q2872.76 1415.74 2874.53 1417.48 Q2876.32 1419.2 2879.5 1419.2 Q2881.34 1419.2 2883.06 1418.74 Q2884.79 1418.29 2886.5 1417.39 L2886.5 1420.41 Q2884.78 1421.14 2882.97 1421.52 Q2881.17 1421.9 2879.31 1421.9 Q2874.66 1421.9 2871.93 1419.2 Q2869.22 1416.49 2869.22 1411.87 Q2869.22 1407.1 2871.79 1404.3 Q2874.38 1401.49 2878.75 1401.49 Q2882.68 1401.49 2884.95 1404.02 Q2887.24 1406.54 2887.24 1410.88 M2884.05 1409.94 Q2884.01 1407.32 2882.57 1405.76 Q2881.15 1404.2 2878.79 1404.2 Q2876.11 1404.2 2874.5 1405.71 Q2872.9 1407.22 2872.66 1409.96 L2884.05 1409.94 Z" fill="#000000" fill-rule="nonzero" fill-opacity="1" /><path clip-path="url(#clip370)" d="M2905.28 1404.91 L2905.28 1394.39 L2908.47 1394.39 L2908.47 1421.4 L2905.28 1421.4 L2905.28 1418.48 Q2904.27 1420.22 2902.73 1421.07 Q2901.2 1421.9 2899.05 1421.9 Q2895.52 1421.9 2893.3 1419.09 Q2891.1 1416.28 2891.1 1411.7 Q2891.1 1407.11 2893.3 1404.3 Q2895.52 1401.49 2899.05 1401.49 Q2901.2 1401.49 2902.73 1402.34 Q2904.27 1403.17 2905.28 1404.91 M2894.4 1411.7 Q2894.4 1415.22 2895.84 1417.23 Q2897.29 1419.23 2899.83 1419.23 Q2902.36 1419.23 2903.82 1417.23 Q2905.28 1415.22 2905.28 1411.7 Q2905.28 1408.17 2903.82 1406.18 Q2902.36 1404.16 2899.83 1404.16 Q2897.29 1404.16 2895.84 1406.18 Q2894.4 1408.17 2894.4 1411.7 Z" fill="#000000" fill-rule="nonzero" fill-opacity="1" /><path clip-path="url(#clip370)" d="M2915.05 1401.96 L2918.25 1401.96 L2918.25 1421.4 L2915.05 1421.4 L2915.05 1401.96 M2915.05 1394.39 L2918.25 1394.39 L2918.25 1398.43 L2915.05 1398.43 L2915.05 1394.39 Z" fill="#000000" fill-rule="nonzero" fill-opacity="1" /><path clip-path="url(#clip370)" d="M2938.93 1402.7 L2938.93 1405.69 Q2937.57 1404.94 2936.2 1404.58 Q2934.85 1404.2 2933.46 1404.2 Q2930.35 1404.2 2928.63 1406.18 Q2926.91 1408.14 2926.91 1411.7 Q2926.91 1415.26 2928.63 1417.23 Q2930.35 1419.2 2933.46 1419.2 Q2934.85 1419.2 2936.2 1418.83 Q2937.57 1418.45 2938.93 1417.7 L2938.93 1420.65 Q2937.59 1421.28 2936.15 1421.59 Q2934.72 1421.9 2933.11 1421.9 Q2928.72 1421.9 2926.13 1419.14 Q2923.54 1416.38 2923.54 1411.7 Q2923.54 1406.94 2926.15 1404.21 Q2928.77 1401.49 2933.32 1401.49 Q2934.79 1401.49 2936.2 1401.8 Q2937.61 1402.1 2938.93 1402.7 Z" fill="#000000" fill-rule="nonzero" fill-opacity="1" /><path clip-path="url(#clip370)" d="M2947.64 1396.44 L2947.64 1401.96 L2954.22 1401.96 L2954.22 1404.44 L2947.64 1404.44 L2947.64 1414.99 Q2947.64 1417.37 2948.28 1418.05 Q2948.94 1418.73 2950.94 1418.73 L2954.22 1418.73 L2954.22 1421.4 L2950.94 1421.4 Q2947.24 1421.4 2945.84 1420.03 Q2944.43 1418.64 2944.43 1414.99 L2944.43 1404.44 L2942.09 1404.44 L2942.09 1401.96 L2944.43 1401.96 L2944.43 1396.44 L2947.64 1396.44 Z" fill="#000000" fill-rule="nonzero" fill-opacity="1" /><path clip-path="url(#clip370)" d="M2958.42 1401.96 L2961.62 1401.96 L2961.62 1421.4 L2958.42 1421.4 L2958.42 1401.96 M2958.42 1394.39 L2961.62 1394.39 L2961.62 1398.43 L2958.42 1398.43 L2958.42 1394.39 Z" fill="#000000" fill-rule="nonzero" fill-opacity="1" /><path clip-path="url(#clip370)" d="M2975.84 1404.2 Q2973.27 1404.2 2971.77 1406.21 Q2970.28 1408.21 2970.28 1411.7 Q2970.28 1415.19 2971.76 1417.2 Q2973.25 1419.2 2975.84 1419.2 Q2978.39 1419.2 2979.88 1417.18 Q2981.37 1415.17 2981.37 1411.7 Q2981.37 1408.24 2979.88 1406.23 Q2978.39 1404.2 2975.84 1404.2 M2975.84 1401.49 Q2980 1401.49 2982.38 1404.2 Q2984.76 1406.9 2984.76 1411.7 Q2984.76 1416.47 2982.38 1419.2 Q2980 1421.9 2975.84 1421.9 Q2971.65 1421.9 2969.27 1419.2 Q2966.91 1416.47 2966.91 1411.7 Q2966.91 1406.9 2969.27 1404.2 Q2971.65 1401.49 2975.84 1401.49 Z" fill="#000000" fill-rule="nonzero" fill-opacity="1" /><path clip-path="url(#clip370)" d="M3006.22 1409.66 L3006.22 1421.4 L3003.02 1421.4 L3003.02 1409.77 Q3003.02 1407.01 3001.95 1405.64 Q3000.87 1404.27 2998.72 1404.27 Q2996.13 1404.27 2994.64 1405.91 Q2993.14 1407.56 2993.14 1410.41 L2993.14 1421.4 L2989.93 1421.4 L2989.93 1401.96 L2993.14 1401.96 L2993.14 1404.98 Q2994.29 1403.22 2995.84 1402.36 Q2997.4 1401.49 2999.43 1401.49 Q3002.78 1401.49 3004.5 1403.57 Q3006.22 1405.64 3006.22 1409.66 Z" fill="#000000" fill-rule="nonzero" fill-opacity="1" /><path clip-path="url(#clip370)" d="M3023.89 1401.96 L3027.09 1401.96 L3027.09 1421.4 L3023.89 1421.4 L3023.89 1401.96 M3023.89 1394.39 L3027.09 1394.39 L3027.09 1398.43 L3023.89 1398.43 L3023.89 1394.39 Z" fill="#000000" fill-rule="nonzero" fill-opacity="1" /><path clip-path="url(#clip370)" d="M3049.93 1409.66 L3049.93 1421.4 L3046.74 1421.4 L3046.74 1409.77 Q3046.74 1407.01 3045.66 1405.64 Q3044.59 1404.27 3042.43 1404.27 Q3039.85 1404.27 3038.35 1405.91 Q3036.86 1407.56 3036.86 1410.41 L3036.86 1421.4 L3033.65 1421.4 L3033.65 1401.96 L3036.86 1401.96 L3036.86 1404.98 Q3038.01 1403.22 3039.55 1402.36 Q3041.11 1401.49 3043.14 1401.49 Q3046.49 1401.49 3048.21 1403.57 Q3049.93 1405.64 3049.93 1409.66 Z" fill="#000000" fill-rule="nonzero" fill-opacity="1" /><path clip-path="url(#clip370)" d="M3059.46 1396.44 L3059.46 1401.96 L3066.04 1401.96 L3066.04 1404.44 L3059.46 1404.44 L3059.46 1414.99 Q3059.46 1417.37 3060.11 1418.05 Q3060.77 1418.73 3062.76 1418.73 L3066.04 1418.73 L3066.04 1421.4 L3062.76 1421.4 Q3059.06 1421.4 3057.66 1420.03 Q3056.25 1418.64 3056.25 1414.99 L3056.25 1404.44 L3053.91 1404.44 L3053.91 1401.96 L3056.25 1401.96 L3056.25 1396.44 L3059.46 1396.44 Z" fill="#000000" fill-rule="nonzero" fill-opacity="1" /><path clip-path="url(#clip370)" d="M3086.88 1410.88 L3086.88 1412.44 L3072.19 1412.44 Q3072.4 1415.74 3074.17 1417.48 Q3075.96 1419.2 3079.13 1419.2 Q3080.97 1419.2 3082.69 1418.74 Q3084.43 1418.29 3086.13 1417.39 L3086.13 1420.41 Q3084.41 1421.14 3082.61 1421.52 Q3080.8 1421.9 3078.94 1421.9 Q3074.29 1421.9 3071.56 1419.2 Q3068.86 1416.49 3068.86 1411.87 Q3068.86 1407.1 3071.43 1404.3 Q3074.01 1401.49 3078.39 1401.49 Q3082.31 1401.49 3084.59 1404.02 Q3086.88 1406.54 3086.88 1410.88 M3083.68 1409.94 Q3083.65 1407.32 3082.21 1405.76 Q3080.78 1404.2 3078.42 1404.2 Q3075.75 1404.2 3074.13 1405.71 Q3072.54 1407.22 3072.29 1409.96 L3083.68 1409.94 Z" fill="#000000" fill-rule="nonzero" fill-opacity="1" /><path clip-path="url(#clip370)" d="M3103.39 1404.94 Q3102.85 1404.63 3102.21 1404.49 Q3101.58 1404.34 3100.82 1404.34 Q3098.11 1404.34 3096.65 1406.11 Q3095.21 1407.86 3095.21 1411.16 L3095.21 1421.4 L3092 1421.4 L3092 1401.96 L3095.21 1401.96 L3095.21 1404.98 Q3096.22 1403.21 3097.83 1402.36 Q3099.45 1401.49 3101.76 1401.49 Q3102.08 1401.49 3102.48 1401.54 Q3102.88 1401.57 3103.37 1401.66 L3103.39 1404.94 Z" fill="#000000" fill-rule="nonzero" fill-opacity="1" /><path clip-path="url(#clip370)" d="M3104.45 1401.96 L3107.83 1401.96 L3113.91 1418.28 L3119.98 1401.96 L3123.37 1401.96 L3116.08 1421.4 L3111.74 1421.4 L3104.45 1401.96 Z" fill="#000000" fill-rule="nonzero" fill-opacity="1" /><path clip-path="url(#clip370)" d="M3136.62 1411.63 Q3132.74 1411.63 3131.25 1412.51 Q3129.76 1413.4 3129.76 1415.53 Q3129.76 1417.23 3130.87 1418.24 Q3132 1419.23 3133.93 1419.23 Q3136.58 1419.23 3138.18 1417.36 Q3139.79 1415.46 3139.79 1412.34 L3139.79 1411.63 L3136.62 1411.63 M3142.99 1410.31 L3142.99 1421.4 L3139.79 1421.4 L3139.79 1418.45 Q3138.7 1420.22 3137.07 1421.07 Q3135.44 1421.9 3133.07 1421.9 Q3130.09 1421.9 3128.32 1420.24 Q3126.56 1418.55 3126.56 1415.74 Q3126.56 1412.46 3128.75 1410.79 Q3130.96 1409.13 3135.31 1409.13 L3139.79 1409.13 L3139.79 1408.81 Q3139.79 1406.61 3138.33 1405.41 Q3136.89 1404.2 3134.27 1404.2 Q3132.61 1404.2 3131.03 1404.6 Q3129.45 1404.99 3127.99 1405.79 L3127.99 1402.84 Q3129.74 1402.17 3131.39 1401.84 Q3133.04 1401.49 3134.6 1401.49 Q3138.82 1401.49 3140.9 1403.68 Q3142.99 1405.86 3142.99 1410.31 Z" fill="#000000" fill-rule="nonzero" fill-opacity="1" /><path clip-path="url(#clip370)" d="M3149.57 1394.39 L3152.76 1394.39 L3152.76 1421.4 L3149.57 1421.4 L3149.57 1394.39 Z" fill="#000000" fill-rule="nonzero" fill-opacity="1" /><path clip-path="url(#clip370)" d="M3168.89 1401.96 L3172.08 1401.96 L3176.08 1417.13 L3180.05 1401.96 L3183.82 1401.96 L3187.81 1417.13 L3191.79 1401.96 L3194.98 1401.96 L3189.9 1421.4 L3186.13 1421.4 L3181.95 1405.46 L3177.74 1421.4 L3173.98 1421.4 L3168.89 1401.96 Z" fill="#000000" fill-rule="nonzero" fill-opacity="1" /><path clip-path="url(#clip370)" d="M3205.5 1395.48 L3208.46 1395.48 L3199.43 1424.7 L3196.48 1424.7 L3205.5 1395.48 Z" fill="#000000" fill-rule="nonzero" fill-opacity="1" /><path clip-path="url(#clip370)" d="M3219.34 1404.2 Q3216.77 1404.2 3215.28 1406.21 Q3213.79 1408.21 3213.79 1411.7 Q3213.79 1415.19 3215.26 1417.2 Q3216.75 1419.2 3219.34 1419.2 Q3221.89 1419.2 3223.39 1417.18 Q3224.88 1415.17 3224.88 1411.7 Q3224.88 1408.24 3223.39 1406.23 Q3221.89 1404.2 3219.34 1404.2 M3219.34 1401.49 Q3223.51 1401.49 3225.89 1404.2 Q3228.26 1406.9 3228.26 1411.7 Q3228.26 1416.47 3225.89 1419.2 Q3223.51 1421.9 3219.34 1421.9 Q3215.16 1421.9 3212.78 1419.2 Q3210.42 1416.47 3210.42 1411.7 Q3210.42 1406.9 3212.78 1404.2 Q3215.16 1401.49 3219.34 1401.49 Z" fill="#000000" fill-rule="nonzero" fill-opacity="1" /><path clip-path="url(#clip370)" d="M3245 1395.48 L3261.39 1395.48 L3261.39 1398.43 L3248.51 1398.43 L3248.51 1406.11 L3260.85 1406.11 L3260.85 1409.06 L3248.51 1409.06 L3248.51 1418.45 L3261.7 1418.45 L3261.7 1421.4 L3245 1421.4 L3245 1395.48 Z" fill="#000000" fill-rule="nonzero" fill-opacity="1" /><path clip-path="url(#clip370)" d="M3283.49 1409.66 L3283.49 1421.4 L3280.3 1421.4 L3280.3 1409.77 Q3280.3 1407.01 3279.22 1405.64 Q3278.14 1404.27 3275.99 1404.27 Q3273.4 1404.27 3271.91 1405.91 Q3270.42 1407.56 3270.42 1410.41 L3270.42 1421.4 L3267.21 1421.4 L3267.21 1401.96 L3270.42 1401.96 L3270.42 1404.98 Q3271.56 1403.22 3273.11 1402.36 Q3274.67 1401.49 3276.7 1401.49 Q3280.05 1401.49 3281.77 1403.57 Q3283.49 1405.64 3283.49 1409.66 Z" fill="#000000" fill-rule="nonzero" fill-opacity="1" /><path clip-path="url(#clip370)" d="M3303.82 1411.7 Q3303.82 1408.17 3302.36 1406.18 Q3300.92 1404.16 3298.39 1404.16 Q3295.85 1404.16 3294.39 1406.18 Q3292.95 1408.17 3292.95 1411.7 Q3292.95 1415.22 3294.39 1417.23 Q3295.85 1419.23 3298.39 1419.23 Q3300.92 1419.23 3302.36 1417.23 Q3303.82 1415.22 3303.82 1411.7 M3292.95 1404.91 Q3293.96 1403.17 3295.49 1402.34 Q3297.03 1401.49 3299.17 1401.49 Q3302.71 1401.49 3304.91 1404.3 Q3307.14 1407.11 3307.14 1411.7 Q3307.14 1416.28 3304.91 1419.09 Q3302.71 1421.9 3299.17 1421.9 Q3297.03 1421.9 3295.49 1421.07 Q3293.96 1420.22 3292.95 1418.48 L3292.95 1421.4 L3289.74 1421.4 L3289.74 1394.39 L3292.95 1394.39 L3292.95 1404.91 Z" fill="#000000" fill-rule="nonzero" fill-opacity="1" /><path clip-path="url(#clip370)" d="M3316.08 1398.36 L3316.08 1408.1 L3320.49 1408.1 Q3322.93 1408.1 3324.27 1406.84 Q3325.61 1405.57 3325.61 1403.22 Q3325.61 1400.9 3324.27 1399.63 Q3322.93 1398.36 3320.49 1398.36 L3316.08 1398.36 M3312.57 1395.48 L3320.49 1395.48 Q3324.84 1395.48 3327.07 1397.46 Q3329.31 1399.42 3329.31 1403.22 Q3329.31 1407.06 3327.07 1409.02 Q3324.84 1410.98 3320.49 1410.98 L3316.08 1410.98 L3316.08 1421.4 L3312.57 1421.4 L3312.57 1395.48 Z" fill="#000000" fill-rule="nonzero" fill-opacity="1" /><path clip-path="url(#clip370)" d="M3334.01 1395.48 L3337.52 1395.48 L3337.52 1421.4 L3334.01 1421.4 L3334.01 1395.48 Z" fill="#000000" fill-rule="nonzero" fill-opacity="1" /></svg>
