<?xml version="1.0" encoding="utf-8"?>
<svg xmlns="http://www.w3.org/2000/svg" xmlns:xlink="http://www.w3.org/1999/xlink" width="850" height="400" viewBox="0 0 3400 1600">
<defs>
  <clipPath id="clip890">
    <rect x="0" y="0" width="3400" height="1600"/>
  </clipPath>
</defs>
<path clip-path="url(#clip890)" d="M0 1600 L3400 1600 L3400 0 L0 0  Z" fill="#ffffff" fill-rule="evenodd" fill-opacity="1"/>
<defs>
  <clipPath id="clip891">
    <rect x="680" y="0" width="2381" height="1600"/>
  </clipPath>
</defs>
<path clip-path="url(#clip890)" d="M234.461 1173.85 L3352.76 1173.85 L3352.76 47.2441 L234.461 47.2441  Z" fill="#ffffff" fill-rule="evenodd" fill-opacity="1"/>
<defs>
  <clipPath id="clip892">
    <rect x="234" y="47" width="3119" height="1128"/>
  </clipPath>
</defs>
<polyline clip-path="url(#clip892)" style="stroke:#000000; stroke-linecap:round; stroke-linejoin:round; stroke-width:2; stroke-opacity:0.1; fill:none" points="322.714,1173.85 322.714,47.2441 "/>
<polyline clip-path="url(#clip892)" style="stroke:#000000; stroke-linecap:round; stroke-linejoin:round; stroke-width:2; stroke-opacity:0.1; fill:none" points="1208.94,1173.85 1208.94,47.2441 "/>
<polyline clip-path="url(#clip892)" style="stroke:#000000; stroke-linecap:round; stroke-linejoin:round; stroke-width:2; stroke-opacity:0.1; fill:none" points="2095.17,1173.85 2095.17,47.2441 "/>
<polyline clip-path="url(#clip892)" style="stroke:#000000; stroke-linecap:round; stroke-linejoin:round; stroke-width:2; stroke-opacity:0.1; fill:none" points="2981.4,1173.85 2981.4,47.2441 "/>
<polyline clip-path="url(#clip890)" style="stroke:#000000; stroke-linecap:round; stroke-linejoin:round; stroke-width:4; stroke-opacity:1; fill:none" points="234.461,1173.85 3352.76,1173.85 "/>
<polyline clip-path="url(#clip890)" style="stroke:#000000; stroke-linecap:round; stroke-linejoin:round; stroke-width:4; stroke-opacity:1; fill:none" points="234.461,47.2441 3352.76,47.2441 "/>
<polyline clip-path="url(#clip890)" style="stroke:#000000; stroke-linecap:round; stroke-linejoin:round; stroke-width:4; stroke-opacity:1; fill:none" points="322.714,1173.85 322.714,1158.65 "/>
<polyline clip-path="url(#clip890)" style="stroke:#000000; stroke-linecap:round; stroke-linejoin:round; stroke-width:4; stroke-opacity:1; fill:none" points="1208.94,1173.85 1208.94,1158.65 "/>
<polyline clip-path="url(#clip890)" style="stroke:#000000; stroke-linecap:round; stroke-linejoin:round; stroke-width:4; stroke-opacity:1; fill:none" points="2095.17,1173.85 2095.17,1158.65 "/>
<polyline clip-path="url(#clip890)" style="stroke:#000000; stroke-linecap:round; stroke-linejoin:round; stroke-width:4; stroke-opacity:1; fill:none" points="2981.4,1173.85 2981.4,1158.65 "/>
<path clip-path="url(#clip890)" d="M193.815 1240.32 L210.134 1240.32 L210.134 1244.25 L188.19 1244.25 L188.19 1240.32 Q190.852 1237.56 195.435 1232.93 Q200.042 1228.28 201.222 1226.94 Q203.467 1224.41 204.347 1222.68 Q205.25 1220.92 205.25 1219.23 Q205.25 1216.47 203.305 1214.74 Q201.384 1213 198.282 1213 Q196.083 1213 193.63 1213.77 Q191.199 1214.53 188.421 1216.08 L188.421 1211.36 Q191.245 1210.22 193.699 1209.65 Q196.153 1209.07 198.19 1209.07 Q203.56 1209.07 206.754 1211.75 Q209.949 1214.44 209.949 1218.93 Q209.949 1221.06 209.139 1222.98 Q208.352 1224.88 206.245 1227.47 Q205.667 1228.14 202.565 1231.36 Q199.463 1234.55 193.815 1240.32 Z" fill="#000000" fill-rule="nonzero" fill-opacity="1" /><path clip-path="url(#clip890)" d="M229.949 1212.77 Q226.338 1212.77 224.509 1216.34 Q222.703 1219.88 222.703 1227.01 Q222.703 1234.11 224.509 1237.68 Q226.338 1241.22 229.949 1241.22 Q233.583 1241.22 235.389 1237.68 Q237.217 1234.11 237.217 1227.01 Q237.217 1219.88 235.389 1216.34 Q233.583 1212.77 229.949 1212.77 M229.949 1209.07 Q235.759 1209.07 238.814 1213.67 Q241.893 1218.26 241.893 1227.01 Q241.893 1235.73 238.814 1240.34 Q235.759 1244.92 229.949 1244.92 Q224.139 1244.92 221.06 1240.34 Q218.004 1235.73 218.004 1227.01 Q218.004 1218.26 221.06 1213.67 Q224.139 1209.07 229.949 1209.07 Z" fill="#000000" fill-rule="nonzero" fill-opacity="1" /><path clip-path="url(#clip890)" d="M250.921 1240.32 L258.56 1240.32 L258.56 1213.95 L250.25 1215.62 L250.25 1211.36 L258.513 1209.69 L263.189 1209.69 L263.189 1240.32 L270.828 1240.32 L270.828 1244.25 L250.921 1244.25 L250.921 1240.32 Z" fill="#000000" fill-rule="nonzero" fill-opacity="1" /><path clip-path="url(#clip890)" d="M293.12 1213.77 L281.314 1232.21 L293.12 1232.21 L293.12 1213.77 M291.893 1209.69 L297.773 1209.69 L297.773 1232.21 L302.703 1232.21 L302.703 1236.1 L297.773 1236.1 L297.773 1244.25 L293.12 1244.25 L293.12 1236.1 L277.518 1236.1 L277.518 1231.59 L291.893 1209.69 Z" fill="#000000" fill-rule="nonzero" fill-opacity="1" /><path clip-path="url(#clip890)" d="M307.68 1229.37 L320.157 1229.37 L320.157 1233.16 L307.68 1233.16 L307.68 1229.37 Z" fill="#000000" fill-rule="nonzero" fill-opacity="1" /><path clip-path="url(#clip890)" d="M337.541 1212.77 Q333.93 1212.77 332.101 1216.34 Q330.295 1219.88 330.295 1227.01 Q330.295 1234.11 332.101 1237.68 Q333.93 1241.22 337.541 1241.22 Q341.175 1241.22 342.981 1237.68 Q344.809 1234.11 344.809 1227.01 Q344.809 1219.88 342.981 1216.34 Q341.175 1212.77 337.541 1212.77 M337.541 1209.07 Q343.351 1209.07 346.406 1213.67 Q349.485 1218.26 349.485 1227.01 Q349.485 1235.73 346.406 1240.34 Q343.351 1244.92 337.541 1244.92 Q331.731 1244.92 328.652 1240.34 Q325.596 1235.73 325.596 1227.01 Q325.596 1218.26 328.652 1213.67 Q331.731 1209.07 337.541 1209.07 Z" fill="#000000" fill-rule="nonzero" fill-opacity="1" /><path clip-path="url(#clip890)" d="M361.73 1240.32 L378.05 1240.32 L378.05 1244.25 L356.106 1244.25 L356.106 1240.32 Q358.768 1237.56 363.351 1232.93 Q367.957 1228.28 369.138 1226.94 Q371.383 1224.41 372.263 1222.68 Q373.166 1220.92 373.166 1219.23 Q373.166 1216.47 371.221 1214.74 Q369.3 1213 366.198 1213 Q363.999 1213 361.545 1213.77 Q359.115 1214.53 356.337 1216.08 L356.337 1211.36 Q359.161 1210.22 361.615 1209.65 Q364.068 1209.07 366.105 1209.07 Q371.476 1209.07 374.67 1211.75 Q377.865 1214.44 377.865 1218.93 Q377.865 1221.06 377.054 1222.98 Q376.267 1224.88 374.161 1227.47 Q373.582 1228.14 370.48 1231.36 Q367.379 1234.55 361.73 1240.32 Z" fill="#000000" fill-rule="nonzero" fill-opacity="1" /><path clip-path="url(#clip890)" d="M385.11 1229.37 L397.587 1229.37 L397.587 1233.16 L385.11 1233.16 L385.11 1229.37 Z" fill="#000000" fill-rule="nonzero" fill-opacity="1" /><path clip-path="url(#clip890)" d="M405.781 1240.32 L413.42 1240.32 L413.42 1213.95 L405.11 1215.62 L405.11 1211.36 L413.374 1209.69 L418.05 1209.69 L418.05 1240.32 L425.688 1240.32 L425.688 1244.25 L405.781 1244.25 L405.781 1240.32 Z" fill="#000000" fill-rule="nonzero" fill-opacity="1" /><path clip-path="url(#clip890)" d="M445.712 1225.11 Q442.563 1225.11 440.712 1227.26 Q438.883 1229.41 438.883 1233.16 Q438.883 1236.89 440.712 1239.07 Q442.563 1241.22 445.712 1241.22 Q448.86 1241.22 450.688 1239.07 Q452.54 1236.89 452.54 1233.16 Q452.54 1229.41 450.688 1227.26 Q448.86 1225.11 445.712 1225.11 M454.994 1210.46 L454.994 1214.71 Q453.235 1213.88 451.429 1213.44 Q449.647 1213 447.887 1213 Q443.258 1213 440.804 1216.13 Q438.374 1219.25 438.026 1225.57 Q439.392 1223.56 441.452 1222.49 Q443.512 1221.4 445.989 1221.4 Q451.198 1221.4 454.207 1224.58 Q457.239 1227.72 457.239 1233.16 Q457.239 1238.49 454.091 1241.71 Q450.943 1244.92 445.712 1244.92 Q439.716 1244.92 436.545 1240.34 Q433.374 1235.73 433.374 1227.01 Q433.374 1218.81 437.262 1213.95 Q441.151 1209.07 447.702 1209.07 Q449.462 1209.07 451.244 1209.41 Q453.049 1209.76 454.994 1210.46 Z" fill="#000000" fill-rule="nonzero" fill-opacity="1" /><path clip-path="url(#clip890)" d="M1080.22 1240.32 L1096.54 1240.32 L1096.54 1244.25 L1074.59 1244.25 L1074.59 1240.32 Q1077.25 1237.56 1081.84 1232.93 Q1086.44 1228.28 1087.62 1226.94 Q1089.87 1224.41 1090.75 1222.68 Q1091.65 1220.92 1091.65 1219.23 Q1091.65 1216.47 1089.71 1214.74 Q1087.79 1213 1084.68 1213 Q1082.49 1213 1080.03 1213.77 Q1077.6 1214.53 1074.82 1216.08 L1074.82 1211.36 Q1077.65 1210.22 1080.1 1209.65 Q1082.56 1209.07 1084.59 1209.07 Q1089.96 1209.07 1093.16 1211.75 Q1096.35 1214.44 1096.35 1218.93 Q1096.35 1221.06 1095.54 1222.98 Q1094.75 1224.88 1092.65 1227.47 Q1092.07 1228.14 1088.97 1231.36 Q1085.87 1234.55 1080.22 1240.32 Z" fill="#000000" fill-rule="nonzero" fill-opacity="1" /><path clip-path="url(#clip890)" d="M1116.35 1212.77 Q1112.74 1212.77 1110.91 1216.34 Q1109.11 1219.88 1109.11 1227.01 Q1109.11 1234.11 1110.91 1237.68 Q1112.74 1241.22 1116.35 1241.22 Q1119.99 1241.22 1121.79 1237.68 Q1123.62 1234.11 1123.62 1227.01 Q1123.62 1219.88 1121.79 1216.34 Q1119.99 1212.77 1116.35 1212.77 M1116.35 1209.07 Q1122.16 1209.07 1125.22 1213.67 Q1128.3 1218.26 1128.3 1227.01 Q1128.3 1235.73 1125.22 1240.34 Q1122.16 1244.92 1116.35 1244.92 Q1110.54 1244.92 1107.46 1240.34 Q1104.41 1235.73 1104.41 1227.01 Q1104.41 1218.26 1107.46 1213.67 Q1110.54 1209.07 1116.35 1209.07 Z" fill="#000000" fill-rule="nonzero" fill-opacity="1" /><path clip-path="url(#clip890)" d="M1137.32 1240.32 L1144.96 1240.32 L1144.96 1213.95 L1136.65 1215.62 L1136.65 1211.36 L1144.92 1209.69 L1149.59 1209.69 L1149.59 1240.32 L1157.23 1240.32 L1157.23 1244.25 L1137.32 1244.25 L1137.32 1240.32 Z" fill="#000000" fill-rule="nonzero" fill-opacity="1" /><path clip-path="url(#clip890)" d="M1179.52 1213.77 L1167.72 1232.21 L1179.52 1232.21 L1179.52 1213.77 M1178.3 1209.69 L1184.18 1209.69 L1184.18 1232.21 L1189.11 1232.21 L1189.11 1236.1 L1184.18 1236.1 L1184.18 1244.25 L1179.52 1244.25 L1179.52 1236.1 L1163.92 1236.1 L1163.92 1231.59 L1178.3 1209.69 Z" fill="#000000" fill-rule="nonzero" fill-opacity="1" /><path clip-path="url(#clip890)" d="M1194.08 1229.37 L1206.56 1229.37 L1206.56 1233.16 L1194.08 1233.16 L1194.08 1229.37 Z" fill="#000000" fill-rule="nonzero" fill-opacity="1" /><path clip-path="url(#clip890)" d="M1223.94 1212.77 Q1220.33 1212.77 1218.5 1216.34 Q1216.7 1219.88 1216.7 1227.01 Q1216.7 1234.11 1218.5 1237.68 Q1220.33 1241.22 1223.94 1241.22 Q1227.58 1241.22 1229.38 1237.68 Q1231.21 1234.11 1231.21 1227.01 Q1231.21 1219.88 1229.38 1216.34 Q1227.58 1212.77 1223.94 1212.77 M1223.94 1209.07 Q1229.75 1209.07 1232.81 1213.67 Q1235.89 1218.26 1235.89 1227.01 Q1235.89 1235.73 1232.81 1240.34 Q1229.75 1244.92 1223.94 1244.92 Q1218.13 1244.92 1215.05 1240.34 Q1212 1235.73 1212 1227.01 Q1212 1218.26 1215.05 1213.67 Q1218.13 1209.07 1223.94 1209.07 Z" fill="#000000" fill-rule="nonzero" fill-opacity="1" /><path clip-path="url(#clip890)" d="M1248.13 1240.32 L1264.45 1240.32 L1264.45 1244.25 L1242.51 1244.25 L1242.51 1240.32 Q1245.17 1237.56 1249.75 1232.93 Q1254.36 1228.28 1255.54 1226.94 Q1257.79 1224.41 1258.67 1222.68 Q1259.57 1220.92 1259.57 1219.23 Q1259.57 1216.47 1257.62 1214.74 Q1255.7 1213 1252.6 1213 Q1250.4 1213 1247.95 1213.77 Q1245.52 1214.53 1242.74 1216.08 L1242.74 1211.36 Q1245.56 1210.22 1248.02 1209.65 Q1250.47 1209.07 1252.51 1209.07 Q1257.88 1209.07 1261.07 1211.75 Q1264.27 1214.44 1264.27 1218.93 Q1264.27 1221.06 1263.46 1222.98 Q1262.67 1224.88 1260.56 1227.47 Q1259.98 1228.14 1256.88 1231.36 Q1253.78 1234.55 1248.13 1240.32 Z" fill="#000000" fill-rule="nonzero" fill-opacity="1" /><path clip-path="url(#clip890)" d="M1271.51 1229.37 L1283.99 1229.37 L1283.99 1233.16 L1271.51 1233.16 L1271.51 1229.37 Z" fill="#000000" fill-rule="nonzero" fill-opacity="1" /><path clip-path="url(#clip890)" d="M1292.18 1240.32 L1299.82 1240.32 L1299.82 1213.95 L1291.51 1215.62 L1291.51 1211.36 L1299.78 1209.69 L1304.45 1209.69 L1304.45 1240.32 L1312.09 1240.32 L1312.09 1244.25 L1292.18 1244.25 L1292.18 1240.32 Z" fill="#000000" fill-rule="nonzero" fill-opacity="1" /><path clip-path="url(#clip890)" d="M1321.67 1243.53 L1321.67 1239.27 Q1323.43 1240.11 1325.24 1240.55 Q1327.04 1240.99 1328.78 1240.99 Q1333.41 1240.99 1335.84 1237.89 Q1338.29 1234.76 1338.64 1228.42 Q1337.3 1230.41 1335.24 1231.47 Q1333.18 1232.54 1330.68 1232.54 Q1325.49 1232.54 1322.46 1229.41 Q1319.45 1226.27 1319.45 1220.83 Q1319.45 1215.5 1322.6 1212.28 Q1325.75 1209.07 1330.98 1209.07 Q1336.98 1209.07 1340.12 1213.67 Q1343.29 1218.26 1343.29 1227.01 Q1343.29 1235.18 1339.41 1240.06 Q1335.54 1244.92 1328.99 1244.92 Q1327.23 1244.92 1325.42 1244.58 Q1323.62 1244.23 1321.67 1243.53 M1330.98 1228.88 Q1334.13 1228.88 1335.96 1226.73 Q1337.81 1224.58 1337.81 1220.83 Q1337.81 1217.1 1335.96 1214.95 Q1334.13 1212.77 1330.98 1212.77 Q1327.83 1212.77 1325.98 1214.95 Q1324.15 1217.1 1324.15 1220.83 Q1324.15 1224.58 1325.98 1226.73 Q1327.83 1228.88 1330.98 1228.88 Z" fill="#000000" fill-rule="nonzero" fill-opacity="1" /><path clip-path="url(#clip890)" d="M1967.15 1240.32 L1983.47 1240.32 L1983.47 1244.25 L1961.53 1244.25 L1961.53 1240.32 Q1964.19 1237.56 1968.77 1232.93 Q1973.38 1228.28 1974.56 1226.94 Q1976.8 1224.41 1977.68 1222.68 Q1978.59 1220.92 1978.59 1219.23 Q1978.59 1216.47 1976.64 1214.74 Q1974.72 1213 1971.62 1213 Q1969.42 1213 1966.97 1213.77 Q1964.54 1214.53 1961.76 1216.08 L1961.76 1211.36 Q1964.58 1210.22 1967.04 1209.65 Q1969.49 1209.07 1971.53 1209.07 Q1976.9 1209.07 1980.09 1211.75 Q1983.29 1214.44 1983.29 1218.93 Q1983.29 1221.06 1982.48 1222.98 Q1981.69 1224.88 1979.58 1227.47 Q1979 1228.14 1975.9 1231.36 Q1972.8 1234.55 1967.15 1240.32 Z" fill="#000000" fill-rule="nonzero" fill-opacity="1" /><path clip-path="url(#clip890)" d="M2003.29 1212.77 Q1999.68 1212.77 1997.85 1216.34 Q1996.04 1219.88 1996.04 1227.01 Q1996.04 1234.11 1997.85 1237.68 Q1999.68 1241.22 2003.29 1241.22 Q2006.92 1241.22 2008.73 1237.68 Q2010.55 1234.11 2010.55 1227.01 Q2010.55 1219.88 2008.73 1216.34 Q2006.92 1212.77 2003.29 1212.77 M2003.29 1209.07 Q2009.1 1209.07 2012.15 1213.67 Q2015.23 1218.26 2015.23 1227.01 Q2015.23 1235.73 2012.15 1240.34 Q2009.1 1244.92 2003.29 1244.92 Q1997.48 1244.92 1994.4 1240.34 Q1991.34 1235.73 1991.34 1227.01 Q1991.34 1218.26 1994.4 1213.67 Q1997.48 1209.07 2003.29 1209.07 Z" fill="#000000" fill-rule="nonzero" fill-opacity="1" /><path clip-path="url(#clip890)" d="M2024.26 1240.32 L2031.9 1240.32 L2031.9 1213.95 L2023.59 1215.62 L2023.59 1211.36 L2031.85 1209.69 L2036.53 1209.69 L2036.53 1240.32 L2044.17 1240.32 L2044.17 1244.25 L2024.26 1244.25 L2024.26 1240.32 Z" fill="#000000" fill-rule="nonzero" fill-opacity="1" /><path clip-path="url(#clip890)" d="M2066.46 1213.77 L2054.65 1232.21 L2066.46 1232.21 L2066.46 1213.77 M2065.23 1209.69 L2071.11 1209.69 L2071.11 1232.21 L2076.04 1232.21 L2076.04 1236.1 L2071.11 1236.1 L2071.11 1244.25 L2066.46 1244.25 L2066.46 1236.1 L2050.86 1236.1 L2050.86 1231.59 L2065.23 1209.69 Z" fill="#000000" fill-rule="nonzero" fill-opacity="1" /><path clip-path="url(#clip890)" d="M2081.02 1229.37 L2093.49 1229.37 L2093.49 1233.16 L2081.02 1233.16 L2081.02 1229.37 Z" fill="#000000" fill-rule="nonzero" fill-opacity="1" /><path clip-path="url(#clip890)" d="M2110.88 1212.77 Q2107.27 1212.77 2105.44 1216.34 Q2103.63 1219.88 2103.63 1227.01 Q2103.63 1234.11 2105.44 1237.68 Q2107.27 1241.22 2110.88 1241.22 Q2114.51 1241.22 2116.32 1237.68 Q2118.15 1234.11 2118.15 1227.01 Q2118.15 1219.88 2116.32 1216.34 Q2114.51 1212.77 2110.88 1212.77 M2110.88 1209.07 Q2116.69 1209.07 2119.74 1213.67 Q2122.82 1218.26 2122.82 1227.01 Q2122.82 1235.73 2119.74 1240.34 Q2116.69 1244.92 2110.88 1244.92 Q2105.07 1244.92 2101.99 1240.34 Q2098.93 1235.73 2098.93 1227.01 Q2098.93 1218.26 2101.99 1213.67 Q2105.07 1209.07 2110.88 1209.07 Z" fill="#000000" fill-rule="nonzero" fill-opacity="1" /><path clip-path="url(#clip890)" d="M2135.07 1240.32 L2151.39 1240.32 L2151.39 1244.25 L2129.44 1244.25 L2129.44 1240.32 Q2132.11 1237.56 2136.69 1232.93 Q2141.29 1228.28 2142.48 1226.94 Q2144.72 1224.41 2145.6 1222.68 Q2146.5 1220.92 2146.5 1219.23 Q2146.5 1216.47 2144.56 1214.74 Q2142.64 1213 2139.54 1213 Q2137.34 1213 2134.88 1213.77 Q2132.45 1214.53 2129.67 1216.08 L2129.67 1211.36 Q2132.5 1210.22 2134.95 1209.65 Q2137.41 1209.07 2139.44 1209.07 Q2144.81 1209.07 2148.01 1211.75 Q2151.2 1214.44 2151.2 1218.93 Q2151.2 1221.06 2150.39 1222.98 Q2149.6 1224.88 2147.5 1227.47 Q2146.92 1228.14 2143.82 1231.36 Q2140.72 1234.55 2135.07 1240.32 Z" fill="#000000" fill-rule="nonzero" fill-opacity="1" /><path clip-path="url(#clip890)" d="M2158.45 1229.37 L2170.92 1229.37 L2170.92 1233.16 L2158.45 1233.16 L2158.45 1229.37 Z" fill="#000000" fill-rule="nonzero" fill-opacity="1" /><path clip-path="url(#clip890)" d="M2182.34 1240.32 L2198.66 1240.32 L2198.66 1244.25 L2176.71 1244.25 L2176.71 1240.32 Q2179.37 1237.56 2183.96 1232.93 Q2188.56 1228.28 2189.74 1226.94 Q2191.99 1224.41 2192.87 1222.68 Q2193.77 1220.92 2193.77 1219.23 Q2193.77 1216.47 2191.83 1214.74 Q2189.91 1213 2186.8 1213 Q2184.6 1213 2182.15 1213.77 Q2179.72 1214.53 2176.94 1216.08 L2176.94 1211.36 Q2179.77 1210.22 2182.22 1209.65 Q2184.67 1209.07 2186.71 1209.07 Q2192.08 1209.07 2195.28 1211.75 Q2198.47 1214.44 2198.47 1218.93 Q2198.47 1221.06 2197.66 1222.98 Q2196.87 1224.88 2194.77 1227.47 Q2194.19 1228.14 2191.09 1231.36 Q2187.98 1234.55 2182.34 1240.32 Z" fill="#000000" fill-rule="nonzero" fill-opacity="1" /><path clip-path="url(#clip890)" d="M2212.5 1240.32 L2228.82 1240.32 L2228.82 1244.25 L2206.87 1244.25 L2206.87 1240.32 Q2209.54 1237.56 2214.12 1232.93 Q2218.72 1228.28 2219.91 1226.94 Q2222.15 1224.41 2223.03 1222.68 Q2223.93 1220.92 2223.93 1219.23 Q2223.93 1216.47 2221.99 1214.74 Q2220.07 1213 2216.97 1213 Q2214.77 1213 2212.31 1213.77 Q2209.88 1214.53 2207.1 1216.08 L2207.1 1211.36 Q2209.93 1210.22 2212.38 1209.65 Q2214.84 1209.07 2216.87 1209.07 Q2222.24 1209.07 2225.44 1211.75 Q2228.63 1214.44 2228.63 1218.93 Q2228.63 1221.06 2227.82 1222.98 Q2227.04 1224.88 2224.93 1227.47 Q2224.35 1228.14 2221.25 1231.36 Q2218.15 1234.55 2212.5 1240.32 Z" fill="#000000" fill-rule="nonzero" fill-opacity="1" /><path clip-path="url(#clip890)" d="M2853.08 1240.32 L2869.4 1240.32 L2869.4 1244.25 L2847.46 1244.25 L2847.46 1240.32 Q2850.12 1237.56 2854.7 1232.93 Q2859.31 1228.28 2860.49 1226.94 Q2862.73 1224.41 2863.61 1222.68 Q2864.52 1220.92 2864.52 1219.23 Q2864.52 1216.47 2862.57 1214.74 Q2860.65 1213 2857.55 1213 Q2855.35 1213 2852.9 1213.77 Q2850.46 1214.53 2847.69 1216.08 L2847.69 1211.36 Q2850.51 1210.22 2852.96 1209.65 Q2855.42 1209.07 2857.46 1209.07 Q2862.83 1209.07 2866.02 1211.75 Q2869.21 1214.44 2869.21 1218.93 Q2869.21 1221.06 2868.4 1222.98 Q2867.62 1224.88 2865.51 1227.47 Q2864.93 1228.14 2861.83 1231.36 Q2858.73 1234.55 2853.08 1240.32 Z" fill="#000000" fill-rule="nonzero" fill-opacity="1" /><path clip-path="url(#clip890)" d="M2889.21 1212.77 Q2885.6 1212.77 2883.77 1216.34 Q2881.97 1219.88 2881.97 1227.01 Q2881.97 1234.11 2883.77 1237.68 Q2885.6 1241.22 2889.21 1241.22 Q2892.85 1241.22 2894.65 1237.68 Q2896.48 1234.11 2896.48 1227.01 Q2896.48 1219.88 2894.65 1216.34 Q2892.85 1212.77 2889.21 1212.77 M2889.21 1209.07 Q2895.02 1209.07 2898.08 1213.67 Q2901.16 1218.26 2901.16 1227.01 Q2901.16 1235.73 2898.08 1240.34 Q2895.02 1244.92 2889.21 1244.92 Q2883.4 1244.92 2880.33 1240.34 Q2877.27 1235.73 2877.27 1227.01 Q2877.27 1218.26 2880.33 1213.67 Q2883.4 1209.07 2889.21 1209.07 Z" fill="#000000" fill-rule="nonzero" fill-opacity="1" /><path clip-path="url(#clip890)" d="M2910.19 1240.32 L2917.83 1240.32 L2917.83 1213.95 L2909.52 1215.62 L2909.52 1211.36 L2917.78 1209.69 L2922.45 1209.69 L2922.45 1240.32 L2930.09 1240.32 L2930.09 1244.25 L2910.19 1244.25 L2910.19 1240.32 Z" fill="#000000" fill-rule="nonzero" fill-opacity="1" /><path clip-path="url(#clip890)" d="M2952.39 1213.77 L2940.58 1232.21 L2952.39 1232.21 L2952.39 1213.77 M2951.16 1209.69 L2957.04 1209.69 L2957.04 1232.21 L2961.97 1232.21 L2961.97 1236.1 L2957.04 1236.1 L2957.04 1244.25 L2952.39 1244.25 L2952.39 1236.1 L2936.78 1236.1 L2936.78 1231.59 L2951.16 1209.69 Z" fill="#000000" fill-rule="nonzero" fill-opacity="1" /><path clip-path="url(#clip890)" d="M2966.95 1229.37 L2979.42 1229.37 L2979.42 1233.16 L2966.95 1233.16 L2966.95 1229.37 Z" fill="#000000" fill-rule="nonzero" fill-opacity="1" /><path clip-path="url(#clip890)" d="M2996.81 1212.77 Q2993.2 1212.77 2991.37 1216.34 Q2989.56 1219.88 2989.56 1227.01 Q2989.56 1234.11 2991.37 1237.68 Q2993.2 1241.22 2996.81 1241.22 Q3000.44 1241.22 3002.25 1237.68 Q3004.07 1234.11 3004.07 1227.01 Q3004.07 1219.88 3002.25 1216.34 Q3000.44 1212.77 2996.81 1212.77 M2996.81 1209.07 Q3002.62 1209.07 3005.67 1213.67 Q3008.75 1218.26 3008.75 1227.01 Q3008.75 1235.73 3005.67 1240.34 Q3002.62 1244.92 2996.81 1244.92 Q2991 1244.92 2987.92 1240.34 Q2984.86 1235.73 2984.86 1227.01 Q2984.86 1218.26 2987.92 1213.67 Q2991 1209.07 2996.81 1209.07 Z" fill="#000000" fill-rule="nonzero" fill-opacity="1" /><path clip-path="url(#clip890)" d="M3021 1240.32 L3037.32 1240.32 L3037.32 1244.25 L3015.37 1244.25 L3015.37 1240.32 Q3018.03 1237.56 3022.62 1232.93 Q3027.22 1228.28 3028.4 1226.94 Q3030.65 1224.41 3031.53 1222.68 Q3032.43 1220.92 3032.43 1219.23 Q3032.43 1216.47 3030.49 1214.74 Q3028.57 1213 3025.46 1213 Q3023.26 1213 3020.81 1213.77 Q3018.38 1214.53 3015.6 1216.08 L3015.6 1211.36 Q3018.43 1210.22 3020.88 1209.65 Q3023.33 1209.07 3025.37 1209.07 Q3030.74 1209.07 3033.94 1211.75 Q3037.13 1214.44 3037.13 1218.93 Q3037.13 1221.06 3036.32 1222.98 Q3035.53 1224.88 3033.43 1227.47 Q3032.85 1228.14 3029.75 1231.36 Q3026.64 1234.55 3021 1240.32 Z" fill="#000000" fill-rule="nonzero" fill-opacity="1" /><path clip-path="url(#clip890)" d="M3044.38 1229.37 L3056.85 1229.37 L3056.85 1233.16 L3044.38 1233.16 L3044.38 1229.37 Z" fill="#000000" fill-rule="nonzero" fill-opacity="1" /><path clip-path="url(#clip890)" d="M3068.26 1240.32 L3084.58 1240.32 L3084.58 1244.25 L3062.64 1244.25 L3062.64 1240.32 Q3065.3 1237.56 3069.88 1232.93 Q3074.49 1228.28 3075.67 1226.94 Q3077.92 1224.41 3078.8 1222.68 Q3079.7 1220.92 3079.7 1219.23 Q3079.7 1216.47 3077.76 1214.74 Q3075.83 1213 3072.73 1213 Q3070.53 1213 3068.08 1213.77 Q3065.65 1214.53 3062.87 1216.08 L3062.87 1211.36 Q3065.69 1210.22 3068.15 1209.65 Q3070.6 1209.07 3072.64 1209.07 Q3078.01 1209.07 3081.2 1211.75 Q3084.4 1214.44 3084.4 1218.93 Q3084.4 1221.06 3083.59 1222.98 Q3082.8 1224.88 3080.69 1227.47 Q3080.12 1228.14 3077.01 1231.36 Q3073.91 1234.55 3068.26 1240.32 Z" fill="#000000" fill-rule="nonzero" fill-opacity="1" /><path clip-path="url(#clip890)" d="M3094.44 1209.69 L3112.8 1209.69 L3112.8 1213.63 L3098.73 1213.63 L3098.73 1222.1 Q3099.75 1221.75 3100.76 1221.59 Q3101.78 1221.4 3102.8 1221.4 Q3108.59 1221.4 3111.97 1224.58 Q3115.35 1227.75 3115.35 1233.16 Q3115.35 1238.74 3111.88 1241.84 Q3108.4 1244.92 3102.08 1244.92 Q3099.91 1244.92 3097.64 1244.55 Q3095.39 1244.18 3092.99 1243.44 L3092.99 1238.74 Q3095.07 1239.88 3097.29 1240.43 Q3099.51 1240.99 3101.99 1240.99 Q3106 1240.99 3108.33 1238.88 Q3110.67 1236.77 3110.67 1233.16 Q3110.67 1229.55 3108.33 1227.45 Q3106 1225.34 3101.99 1225.34 Q3100.12 1225.34 3098.24 1225.76 Q3096.39 1226.17 3094.44 1227.05 L3094.44 1209.69 Z" fill="#000000" fill-rule="nonzero" fill-opacity="1" /><path clip-path="url(#clip890)" d="M1727.07 1291.48 L1727.07 1328.43 L1734.84 1328.43 Q1744.67 1328.43 1749.22 1323.98 Q1753.81 1319.52 1753.81 1309.91 Q1753.81 1300.36 1749.22 1295.94 Q1744.67 1291.48 1734.84 1291.48 L1727.07 1291.48 M1720.64 1286.2 L1733.85 1286.2 Q1747.66 1286.2 1754.13 1291.96 Q1760.59 1297.69 1760.59 1309.91 Q1760.59 1322.19 1754.09 1327.95 Q1747.6 1333.72 1733.85 1333.72 L1720.64 1333.72 L1720.64 1286.2 Z" fill="#000000" fill-rule="nonzero" fill-opacity="1" /><path clip-path="url(#clip890)" d="M1786.78 1315.8 Q1779.68 1315.8 1776.95 1317.42 Q1774.21 1319.04 1774.21 1322.96 Q1774.21 1326.08 1776.25 1327.92 Q1778.31 1329.74 1781.85 1329.74 Q1786.72 1329.74 1789.65 1326.3 Q1792.61 1322.83 1792.61 1317.1 L1792.61 1315.8 L1786.78 1315.8 M1798.46 1313.38 L1798.46 1333.72 L1792.61 1333.72 L1792.61 1328.3 Q1790.6 1331.55 1787.61 1333.11 Q1784.62 1334.64 1780.29 1334.64 Q1774.81 1334.64 1771.57 1331.58 Q1768.35 1328.5 1768.35 1323.34 Q1768.35 1317.32 1772.36 1314.27 Q1776.41 1311.21 1784.39 1311.21 L1792.61 1311.21 L1792.61 1310.64 Q1792.61 1306.6 1789.93 1304.4 Q1787.29 1302.17 1782.48 1302.17 Q1779.43 1302.17 1776.53 1302.91 Q1773.64 1303.64 1770.96 1305.1 L1770.96 1299.69 Q1774.18 1298.45 1777.2 1297.85 Q1780.22 1297.21 1783.09 1297.21 Q1790.82 1297.21 1794.64 1301.22 Q1798.46 1305.23 1798.46 1313.38 Z" fill="#000000" fill-rule="nonzero" fill-opacity="1" /><path clip-path="url(#clip890)" d="M1816.32 1287.95 L1816.32 1298.07 L1828.38 1298.07 L1828.38 1302.62 L1816.32 1302.62 L1816.32 1321.97 Q1816.32 1326.33 1817.5 1327.57 Q1818.71 1328.81 1822.37 1328.81 L1828.38 1328.81 L1828.38 1333.72 L1822.37 1333.72 Q1815.59 1333.72 1813.01 1331.2 Q1810.43 1328.66 1810.43 1321.97 L1810.43 1302.62 L1806.13 1302.62 L1806.13 1298.07 L1810.43 1298.07 L1810.43 1287.95 L1816.32 1287.95 Z" fill="#000000" fill-rule="nonzero" fill-opacity="1" /><path clip-path="url(#clip890)" d="M1866.58 1314.43 L1866.58 1317.29 L1839.65 1317.29 Q1840.03 1323.34 1843.28 1326.52 Q1846.56 1329.67 1852.38 1329.67 Q1855.75 1329.67 1858.9 1328.85 Q1862.09 1328.02 1865.21 1326.36 L1865.21 1331.9 Q1862.06 1333.24 1858.75 1333.94 Q1855.44 1334.64 1852.03 1334.64 Q1843.5 1334.64 1838.5 1329.67 Q1833.54 1324.71 1833.54 1316.24 Q1833.54 1307.49 1838.25 1302.36 Q1842.99 1297.21 1851.01 1297.21 Q1858.2 1297.21 1862.37 1301.86 Q1866.58 1306.47 1866.58 1314.43 M1860.72 1312.71 Q1860.66 1307.9 1858.01 1305.04 Q1855.4 1302.17 1851.07 1302.17 Q1846.17 1302.17 1843.21 1304.94 Q1840.28 1307.71 1839.84 1312.74 L1860.72 1312.71 Z" fill="#000000" fill-rule="nonzero" fill-opacity="1" /><polyline clip-path="url(#clip892)" style="stroke:#000000; stroke-linecap:round; stroke-linejoin:round; stroke-width:2; stroke-opacity:0.1; fill:none" points="234.461,1007.27 3352.76,1007.27 "/>
<polyline clip-path="url(#clip892)" style="stroke:#000000; stroke-linecap:round; stroke-linejoin:round; stroke-width:2; stroke-opacity:0.1; fill:none" points="234.461,723.084 3352.76,723.084 "/>
<polyline clip-path="url(#clip892)" style="stroke:#000000; stroke-linecap:round; stroke-linejoin:round; stroke-width:2; stroke-opacity:0.1; fill:none" points="234.461,438.904 3352.76,438.904 "/>
<polyline clip-path="url(#clip892)" style="stroke:#000000; stroke-linecap:round; stroke-linejoin:round; stroke-width:2; stroke-opacity:0.1; fill:none" points="234.461,154.723 3352.76,154.723 "/>
<polyline clip-path="url(#clip890)" style="stroke:#000000; stroke-linecap:round; stroke-linejoin:round; stroke-width:4; stroke-opacity:1; fill:none" points="234.461,1173.85 234.461,47.2441 "/>
<polyline clip-path="url(#clip890)" style="stroke:#000000; stroke-linecap:round; stroke-linejoin:round; stroke-width:4; stroke-opacity:1; fill:none" points="3352.76,1173.85 3352.76,47.2441 "/>
<polyline clip-path="url(#clip890)" style="stroke:#000000; stroke-linecap:round; stroke-linejoin:round; stroke-width:4; stroke-opacity:1; fill:none" points="234.461,1007.27 253.359,1007.27 "/>
<polyline clip-path="url(#clip890)" style="stroke:#000000; stroke-linecap:round; stroke-linejoin:round; stroke-width:4; stroke-opacity:1; fill:none" points="234.461,723.084 253.359,723.084 "/>
<polyline clip-path="url(#clip890)" style="stroke:#000000; stroke-linecap:round; stroke-linejoin:round; stroke-width:4; stroke-opacity:1; fill:none" points="234.461,438.904 253.359,438.904 "/>
<polyline clip-path="url(#clip890)" style="stroke:#000000; stroke-linecap:round; stroke-linejoin:round; stroke-width:4; stroke-opacity:1; fill:none" points="234.461,154.723 253.359,154.723 "/>
<path clip-path="url(#clip890)" d="M167.142 1020.61 L183.461 1020.61 L183.461 1024.55 L161.517 1024.55 L161.517 1020.61 Q164.179 1017.86 168.762 1013.23 Q173.368 1008.57 174.549 1007.23 Q176.794 1004.71 177.674 1002.97 Q178.577 1001.21 178.577 999.522 Q178.577 996.767 176.632 995.031 Q174.711 993.295 171.609 993.295 Q169.41 993.295 166.956 994.059 Q164.526 994.823 161.748 996.374 L161.748 991.652 Q164.572 990.517 167.026 989.939 Q169.479 989.36 171.516 989.36 Q176.887 989.36 180.081 992.045 Q183.276 994.73 183.276 999.221 Q183.276 1001.35 182.465 1003.27 Q181.678 1005.17 179.572 1007.76 Q178.993 1008.43 175.891 1011.65 Q172.79 1014.85 167.142 1020.61 Z" fill="#000000" fill-rule="nonzero" fill-opacity="1" /><path clip-path="url(#clip890)" d="M173.878 709.879 L162.072 728.328 L173.878 728.328 L173.878 709.879 M172.651 705.804 L178.53 705.804 L178.53 728.328 L183.461 728.328 L183.461 732.216 L178.53 732.216 L178.53 740.364 L173.878 740.364 L173.878 732.216 L158.276 732.216 L158.276 727.703 L172.651 705.804 Z" fill="#000000" fill-rule="nonzero" fill-opacity="1" /><path clip-path="url(#clip890)" d="M171.933 437.041 Q168.785 437.041 166.933 439.193 Q165.104 441.346 165.104 445.096 Q165.104 448.823 166.933 450.999 Q168.785 453.152 171.933 453.152 Q175.081 453.152 176.91 450.999 Q178.762 448.823 178.762 445.096 Q178.762 441.346 176.91 439.193 Q175.081 437.041 171.933 437.041 M181.216 422.388 L181.216 426.647 Q179.456 425.814 177.651 425.374 Q175.868 424.934 174.109 424.934 Q169.479 424.934 167.026 428.059 Q164.595 431.184 164.248 437.503 Q165.614 435.49 167.674 434.425 Q169.734 433.337 172.211 433.337 Q177.419 433.337 180.428 436.508 Q183.461 439.656 183.461 445.096 Q183.461 450.42 180.313 453.638 Q177.165 456.855 171.933 456.855 Q165.938 456.855 162.767 452.272 Q159.595 447.665 159.595 438.939 Q159.595 430.744 163.484 425.883 Q167.373 420.999 173.924 420.999 Q175.683 420.999 177.466 421.346 Q179.271 421.693 181.216 422.388 Z" fill="#000000" fill-rule="nonzero" fill-opacity="1" /><path clip-path="url(#clip890)" d="M171.609 155.591 Q168.276 155.591 166.354 157.374 Q164.456 159.156 164.456 162.281 Q164.456 165.406 166.354 167.189 Q168.276 168.971 171.609 168.971 Q174.942 168.971 176.864 167.189 Q178.785 165.383 178.785 162.281 Q178.785 159.156 176.864 157.374 Q174.966 155.591 171.609 155.591 M166.933 153.601 Q163.924 152.86 162.234 150.8 Q160.567 148.74 160.567 145.777 Q160.567 141.633 163.507 139.226 Q166.47 136.818 171.609 136.818 Q176.771 136.818 179.711 139.226 Q182.651 141.633 182.651 145.777 Q182.651 148.74 180.961 150.8 Q179.294 152.86 176.308 153.601 Q179.688 154.388 181.563 156.679 Q183.461 158.971 183.461 162.281 Q183.461 167.304 180.382 169.989 Q177.327 172.675 171.609 172.675 Q165.892 172.675 162.813 169.989 Q159.757 167.304 159.757 162.281 Q159.757 158.971 161.655 156.679 Q163.554 154.388 166.933 153.601 M165.22 146.216 Q165.22 148.902 166.887 150.406 Q168.577 151.911 171.609 151.911 Q174.618 151.911 176.308 150.406 Q178.021 148.902 178.021 146.216 Q178.021 143.531 176.308 142.027 Q174.618 140.522 171.609 140.522 Q168.577 140.522 166.887 142.027 Q165.22 143.531 165.22 146.216 Z" fill="#000000" fill-rule="nonzero" fill-opacity="1" /><path clip-path="url(#clip890)" d="M45.4998 993.525 L45.4998 963.479 L50.9107 963.479 L50.9107 987.095 L64.9789 987.095 L64.9789 964.465 L70.3897 964.465 L70.3897 987.095 L87.609 987.095 L87.609 962.906 L93.0198 962.906 L93.0198 993.525 L45.4998 993.525 Z" fill="#000000" fill-rule="nonzero" fill-opacity="1" /><path clip-path="url(#clip890)" d="M43.4946 952.593 L43.4946 946.737 L93.0198 946.737 L93.0198 952.593 L43.4946 952.593 Z" fill="#000000" fill-rule="nonzero" fill-opacity="1" /><path clip-path="url(#clip890)" d="M73.7317 903.991 L76.5963 903.991 L76.5963 930.918 Q82.6437 930.536 85.8266 927.29 Q88.9776 924.011 88.9776 918.187 Q88.9776 914.813 88.15 911.662 Q87.3225 908.479 85.6674 905.36 L91.2056 905.36 Q92.5424 908.511 93.2426 911.821 Q93.9428 915.131 93.9428 918.537 Q93.9428 927.067 88.9776 932.064 Q84.0123 937.029 75.5459 937.029 Q66.7931 937.029 61.6687 932.318 Q56.5125 927.576 56.5125 919.555 Q56.5125 912.362 61.1595 908.192 Q65.7746 903.991 73.7317 903.991 M72.013 909.848 Q67.2069 909.911 64.3423 912.553 Q61.4777 915.163 61.4777 919.492 Q61.4777 924.393 64.2468 927.353 Q67.0159 930.281 72.0448 930.727 L72.013 909.848 Z" fill="#000000" fill-rule="nonzero" fill-opacity="1" /><path clip-path="url(#clip890)" d="M58.7405 868.725 L64.215 868.725 Q62.8464 871.208 62.178 873.722 Q61.4777 876.205 61.4777 878.751 Q61.4777 884.448 65.1062 887.599 Q68.7028 890.75 75.2277 890.75 Q81.7525 890.75 85.381 887.599 Q88.9776 884.448 88.9776 878.751 Q88.9776 876.205 88.3092 873.722 Q87.609 871.208 86.2403 868.725 L91.6512 868.725 Q92.797 871.176 93.3699 873.818 Q93.9428 876.428 93.9428 879.388 Q93.9428 887.44 88.8821 892.183 Q83.8214 896.925 75.2277 896.925 Q66.5066 896.925 61.5096 892.151 Q56.5125 887.345 56.5125 879.006 Q56.5125 876.3 57.0854 873.722 Q57.6265 871.144 58.7405 868.725 Z" fill="#000000" fill-rule="nonzero" fill-opacity="1" /><path clip-path="url(#clip890)" d="M47.2504 852.747 L57.3719 852.747 L57.3719 840.684 L61.9233 840.684 L61.9233 852.747 L81.2751 852.747 Q85.6356 852.747 86.8769 851.57 Q88.1182 850.36 88.1182 846.7 L88.1182 840.684 L93.0198 840.684 L93.0198 846.7 Q93.0198 853.479 90.5054 856.057 Q87.9591 858.635 81.2751 858.635 L61.9233 858.635 L61.9233 862.932 L57.3719 862.932 L57.3719 858.635 L47.2504 858.635 L47.2504 852.747 Z" fill="#000000" fill-rule="nonzero" fill-opacity="1" /><path clip-path="url(#clip890)" d="M62.8464 812.325 Q62.2734 813.312 62.0188 814.489 Q61.7324 815.635 61.7324 817.036 Q61.7324 822.001 64.9789 824.674 Q68.1936 827.316 74.241 827.316 L93.0198 827.316 L93.0198 833.204 L57.3719 833.204 L57.3719 827.316 L62.91 827.316 Q59.6635 825.47 58.1039 822.51 Q56.5125 819.55 56.5125 815.317 Q56.5125 814.712 56.608 813.98 Q56.6716 813.248 56.8308 812.357 L62.8464 812.325 Z" fill="#000000" fill-rule="nonzero" fill-opacity="1" /><path clip-path="url(#clip890)" d="M57.3719 806.182 L57.3719 800.326 L93.0198 800.326 L93.0198 806.182 L57.3719 806.182 M43.4946 806.182 L43.4946 800.326 L50.9107 800.326 L50.9107 806.182 L43.4946 806.182 Z" fill="#000000" fill-rule="nonzero" fill-opacity="1" /><path clip-path="url(#clip890)" d="M58.7405 762.418 L64.215 762.418 Q62.8464 764.9 62.178 767.415 Q61.4777 769.897 61.4777 772.444 Q61.4777 778.141 65.1062 781.292 Q68.7028 784.443 75.2277 784.443 Q81.7525 784.443 85.381 781.292 Q88.9776 778.141 88.9776 772.444 Q88.9776 769.897 88.3092 767.415 Q87.609 764.9 86.2403 762.418 L91.6512 762.418 Q92.797 764.869 93.3699 767.51 Q93.9428 770.12 93.9428 773.08 Q93.9428 781.133 88.8821 785.875 Q83.8214 790.618 75.2277 790.618 Q66.5066 790.618 61.5096 785.844 Q56.5125 781.037 56.5125 772.698 Q56.5125 769.993 57.0854 767.415 Q57.6265 764.837 58.7405 762.418 Z" fill="#000000" fill-rule="nonzero" fill-opacity="1" /><path clip-path="url(#clip890)" d="M57.3719 752.233 L57.3719 746.376 L93.0198 746.376 L93.0198 752.233 L57.3719 752.233 M43.4946 752.233 L43.4946 746.376 L50.9107 746.376 L50.9107 752.233 L43.4946 752.233 Z" fill="#000000" fill-rule="nonzero" fill-opacity="1" /><path clip-path="url(#clip890)" d="M47.2504 728.329 L57.3719 728.329 L57.3719 716.266 L61.9233 716.266 L61.9233 728.329 L81.2751 728.329 Q85.6356 728.329 86.8769 727.152 Q88.1182 725.942 88.1182 722.282 L88.1182 716.266 L93.0198 716.266 L93.0198 722.282 Q93.0198 729.061 90.5054 731.64 Q87.9591 734.218 81.2751 734.218 L61.9233 734.218 L61.9233 738.515 L57.3719 738.515 L57.3719 734.218 L47.2504 734.218 L47.2504 728.329 Z" fill="#000000" fill-rule="nonzero" fill-opacity="1" /><path clip-path="url(#clip890)" d="M96.33 693.732 Q102.696 696.214 104.637 698.57 Q106.579 700.925 106.579 704.872 L106.579 709.551 L101.677 709.551 L101.677 706.113 Q101.677 703.694 100.531 702.357 Q99.3855 701.021 95.1205 699.397 L92.4469 698.347 L57.3719 712.765 L57.3719 706.559 L85.2537 695.419 L57.3719 684.279 L57.3719 678.072 L96.33 693.732 Z" fill="#000000" fill-rule="nonzero" fill-opacity="1" /><path clip-path="url(#clip890)" d="M62.7827 625.81 L43.4946 625.81 L43.4946 619.953 L93.0198 619.953 L93.0198 625.81 L87.6726 625.81 Q90.8555 627.656 92.4151 630.489 Q93.9428 633.289 93.9428 637.236 Q93.9428 643.697 88.7866 647.771 Q83.6304 651.814 75.2277 651.814 Q66.8249 651.814 61.6687 647.771 Q56.5125 643.697 56.5125 637.236 Q56.5125 633.289 58.0721 630.489 Q59.5999 627.656 62.7827 625.81 M75.2277 645.766 Q81.6889 645.766 85.381 643.124 Q89.0412 640.451 89.0412 635.804 Q89.0412 631.157 85.381 628.483 Q81.6889 625.81 75.2277 625.81 Q68.7665 625.81 65.1062 628.483 Q61.4141 631.157 61.4141 635.804 Q61.4141 640.451 65.1062 643.124 Q68.7665 645.766 75.2277 645.766 Z" fill="#000000" fill-rule="nonzero" fill-opacity="1" /><path clip-path="url(#clip890)" d="M73.7317 577.399 L76.5963 577.399 L76.5963 604.325 Q82.6437 603.944 85.8266 600.697 Q88.9776 597.419 88.9776 591.594 Q88.9776 588.22 88.15 585.069 Q87.3225 581.886 85.6674 578.767 L91.2056 578.767 Q92.5424 581.918 93.2426 585.228 Q93.9428 588.539 93.9428 591.944 Q93.9428 600.474 88.9776 605.471 Q84.0123 610.437 75.5459 610.437 Q66.7931 610.437 61.6687 605.726 Q56.5125 600.983 56.5125 592.963 Q56.5125 585.769 61.1595 581.6 Q65.7746 577.399 73.7317 577.399 M72.013 583.255 Q67.2069 583.319 64.3423 585.96 Q61.4777 588.57 61.4777 592.899 Q61.4777 597.801 64.2468 600.761 Q67.0159 603.689 72.0448 604.134 L72.013 583.255 Z" fill="#000000" fill-rule="nonzero" fill-opacity="1" /><path clip-path="url(#clip890)" d="M64.215 540.032 Q60.2683 537.836 58.3904 534.78 Q56.5125 531.725 56.5125 527.587 Q56.5125 522.017 60.4274 518.993 Q64.3105 515.969 71.5037 515.969 L93.0198 515.969 L93.0198 521.858 L71.6947 521.858 Q66.5703 521.858 64.0877 523.672 Q61.6051 525.486 61.6051 529.21 Q61.6051 533.762 64.6288 536.403 Q67.6525 539.045 72.8724 539.045 L93.0198 539.045 L93.0198 544.933 L71.6947 544.933 Q66.5385 544.933 64.0877 546.748 Q61.6051 548.562 61.6051 552.349 Q61.6051 556.837 64.6606 559.479 Q67.6843 562.121 72.8724 562.121 L93.0198 562.121 L93.0198 568.009 L57.3719 568.009 L57.3719 562.121 L62.91 562.121 Q59.6317 560.116 58.0721 557.315 Q56.5125 554.514 56.5125 550.663 Q56.5125 546.779 58.4859 544.074 Q60.4592 541.337 64.215 540.032 Z" fill="#000000" fill-rule="nonzero" fill-opacity="1" /><path clip-path="url(#clip890)" d="M75.1003 488.088 Q75.1003 495.185 76.7236 497.923 Q78.3469 500.66 82.2618 500.66 Q85.381 500.66 87.227 498.623 Q89.0412 496.554 89.0412 493.021 Q89.0412 488.151 85.6038 485.223 Q82.1345 482.263 76.4053 482.263 L75.1003 482.263 L75.1003 488.088 M72.6814 476.407 L93.0198 476.407 L93.0198 482.263 L87.609 482.263 Q90.8555 484.268 92.4151 487.26 Q93.9428 490.252 93.9428 494.581 Q93.9428 500.055 90.8873 503.302 Q87.7999 506.516 82.6437 506.516 Q76.6281 506.516 73.5726 502.506 Q70.517 498.464 70.517 490.475 L70.517 482.263 L69.9441 482.263 Q65.9019 482.263 63.7057 484.937 Q61.4777 487.578 61.4777 492.385 Q61.4777 495.44 62.2098 498.336 Q62.9418 501.233 64.406 503.906 L58.9951 503.906 Q57.7538 500.692 57.1491 497.668 Q56.5125 494.644 56.5125 491.78 Q56.5125 484.045 60.5229 480.226 Q64.5333 476.407 72.6814 476.407 Z" fill="#000000" fill-rule="nonzero" fill-opacity="1" /><path clip-path="url(#clip890)" d="M71.5037 434.711 L93.0198 434.711 L93.0198 440.568 L71.6947 440.568 Q66.634 440.568 64.1195 442.541 Q61.6051 444.514 61.6051 448.461 Q61.6051 453.204 64.6288 455.941 Q67.6525 458.678 72.8724 458.678 L93.0198 458.678 L93.0198 464.566 L57.3719 464.566 L57.3719 458.678 L62.91 458.678 Q59.6953 456.577 58.1039 453.745 Q56.5125 450.88 56.5125 447.156 Q56.5125 441.013 60.3319 437.862 Q64.1195 434.711 71.5037 434.711 Z" fill="#000000" fill-rule="nonzero" fill-opacity="1" /><path clip-path="url(#clip890)" d="M62.7827 399.573 L43.4946 399.573 L43.4946 393.716 L93.0198 393.716 L93.0198 399.573 L87.6726 399.573 Q90.8555 401.419 92.4151 404.251 Q93.9428 407.052 93.9428 410.999 Q93.9428 417.46 88.7866 421.534 Q83.6304 425.576 75.2277 425.576 Q66.8249 425.576 61.6687 421.534 Q56.5125 417.46 56.5125 410.999 Q56.5125 407.052 58.0721 404.251 Q59.5999 401.419 62.7827 399.573 M75.2277 419.529 Q81.6889 419.529 85.381 416.887 Q89.0412 414.214 89.0412 409.567 Q89.0412 404.92 85.381 402.246 Q81.6889 399.573 75.2277 399.573 Q68.7665 399.573 65.1062 402.246 Q61.4141 404.92 61.4141 409.567 Q61.4141 414.214 65.1062 416.887 Q68.7665 419.529 75.2277 419.529 Z" fill="#000000" fill-rule="nonzero" fill-opacity="1" /><path clip-path="url(#clip890)" d="M43.5583 367.585 Q50.8788 371.85 58.0403 373.919 Q65.2017 375.988 72.5541 375.988 Q79.9065 375.988 87.1315 373.919 Q94.3248 371.818 101.614 367.585 L101.614 372.677 Q94.1338 377.452 86.9087 379.839 Q79.6837 382.194 72.5541 382.194 Q65.4563 382.194 58.2631 379.839 Q51.0698 377.484 43.5583 372.677 L43.5583 367.585 Z" fill="#000000" fill-rule="nonzero" fill-opacity="1" /><path clip-path="url(#clip890)" d="M86.2403 323.566 L73.4771 323.566 L73.4771 334.069 L68.1936 334.069 L68.1936 317.2 L88.5956 317.2 Q91.2374 320.924 92.606 325.412 Q93.9428 329.9 93.9428 334.992 Q93.9428 346.132 87.4498 352.434 Q80.925 358.705 69.3076 358.705 Q57.6583 358.705 51.1653 352.434 Q44.6404 346.132 44.6404 334.992 Q44.6404 330.345 45.7863 326.176 Q46.9321 321.975 49.1601 318.442 L56.0032 318.442 Q52.9795 322.006 51.4517 326.017 Q49.924 330.027 49.924 334.451 Q49.924 343.172 54.7937 347.565 Q59.6635 351.925 69.3076 351.925 Q78.9198 351.925 83.7895 347.565 Q88.6593 343.172 88.6593 334.451 Q88.6593 331.046 88.0864 328.372 Q87.4816 325.698 86.2403 323.566 Z" fill="#000000" fill-rule="nonzero" fill-opacity="1" /><path clip-path="url(#clip890)" d="M45.4998 309.689 L45.4998 303.196 L85.6674 293.202 L45.4998 283.239 L45.4998 276.014 L85.6674 266.02 L45.4998 256.058 L45.4998 249.533 L93.0198 261.469 L93.0198 269.553 L51.77 279.579 L93.0198 289.7 L93.0198 297.785 L45.4998 309.689 Z" fill="#000000" fill-rule="nonzero" fill-opacity="1" /><path clip-path="url(#clip890)" d="M43.5583 242.18 L43.5583 237.088 Q51.0698 232.314 58.2631 229.958 Q65.4563 227.571 72.5541 227.571 Q79.6837 227.571 86.9087 229.958 Q94.1338 232.314 101.614 237.088 L101.614 242.18 Q94.3248 237.947 87.1315 235.878 Q79.9065 233.778 72.5541 233.778 Q65.2017 233.778 58.0403 235.878 Q50.8788 237.947 43.5583 242.18 Z" fill="#000000" fill-rule="nonzero" fill-opacity="1" /><polyline clip-path="url(#clip892)" style="stroke:#008000; stroke-linecap:round; stroke-linejoin:round; stroke-width:4; stroke-opacity:1; fill:none" points="322.714,759.886 335.023,811.18 347.332,840.451 359.641,854.376 371.949,855.086 384.258,840.735 396.567,818.569 408.876,804.502 421.184,779.494 433.493,760.312 445.802,756.476 458.111,754.771 470.419,765.001 482.728,767.132 495.037,759.744 507.346,743.119 519.654,718.538 531.963,707.028 544.272,718.538 556.58,713.707 568.889,721.522 581.198,764.007 593.507,789.867 605.815,736.583 618.124,786.173 630.433,824.963 642.742,845.851 655.05,844.43 667.359,808.339 679.668,721.806 691.977,621.206 704.285,605.576 716.594,593.924 728.903,584.831 741.212,575.879 753.52,569.769 765.829,558.26 778.138,548.598 790.446,546.75 802.755,532.257 815.064,531.263 827.373,554.85 839.681,589.378 851.99,609.839 864.299,635.699 876.608,700.35 888.916,736.725 901.225,692.819 913.534,750.082 925.843,790.151 938.151,812.743 950.46,811.038 962.769,778.642 975.077,697.792 987.386,600.745 999.695,592.646 1012,580.142 1024.31,566.501 1036.62,547.035 1048.93,526.289 1061.24,505.971 1073.55,478.121 1085.86,460.928 1098.16,432.084 1110.47,425.121 1122.78,461.923 1135.09,508.954 1147.4,543.056 1159.71,580.568 1172.02,657.439 1184.33,696.94 1196.63,661.844 1208.94,727.489 "/>
<polyline clip-path="url(#clip892)" style="stroke:#ff0000; stroke-linecap:round; stroke-linejoin:round; stroke-width:4; stroke-opacity:1; fill:none" points="1221.25,771.395 1233.56,796.971 1245.87,798.392 1258.18,766.706 1270.49,678.61 1282.8,587.388 1295.1,569.201 1307.41,545.33 1319.72,542.914 1332.03,539.362 1344.34,540.498 1356.65,537.23 1368.96,531.405 1381.27,535.241 1393.57,534.389 1405.88,559.539 1418.19,584.546 1430.5,617.796 1442.81,626.747 1455.12,658.007 1467.43,715.127 1479.74,741.84 1492.04,690.972 1504.35,751.645 1516.66,804.36 1528.97,829.226 1541.28,832.778 1553.59,800.95 1565.9,717.401 1578.21,619.927 1590.51,622.342 1602.82,620.637 1615.13,617.796 1627.44,602.876 1639.75,600.318 1652.06,599.75 1664.37,604.297 1676.68,609.554 1688.98,596.624 1701.29,588.667 1713.6,609.412 1725.91,631.294 1738.22,624.616 1750.53,645.503 1762.84,706.46 1775.15,737.72 1787.45,686.283 1799.76,738.288 1812.07,793.419 1824.38,816.722 1836.69,817.717 1849,776.653 1861.31,688.983 1873.62,591.651 1885.92,582.983 1898.23,577.016 1910.54,582.841 1922.85,583.268 1935.16,584.546 1947.47,593.498 1959.78,604.723 1972.09,625.611 1984.39,622.2 1996.7,621.064 2009.01,641.098 2021.32,658.576 2033.63,647.492 2045.94,665.254 2058.25,713.991 2070.55,739.709 2082.86,691.683 2095.17,1036.82 2107.48,1086.13 2119.79,1112.27 2132.1,1117.95 2144.41,1107.44 2156.72,1075.33 2169.02,1035.11 2181.33,1001.87 2193.64,978.847 2205.95,975.153 2218.26,979.131 2230.57,981.405 2242.88,996.182 2255.19,1004.71 2267.49,1006.98 2279.8,997.887 2292.11,984.815 2304.42,985.383 2316.73,995.329 2329.04,992.488 2341.35,1007.12 2353.66,1039.52 2365.96,1049.89 2378.27,996.182 2390.58,1049.61 2402.89,1099.77 2415.2,1129.04 2427.51,1141.97 2439.82,1139.41 2452.13,1123.64 2464.43,1102.89 2476.74,1086.84 2489.05,1061.83 2501.36,1053.02 2513.67,1050.74 2525.98,1048.47 2538.29,1049.04 2550.6,1040.8 2562.9,1028.29 2575.21,1005.99 2587.52,978.563 2599.83,961.37 2612.14,971.885 2624.45,968.19 2636.76,984.246 2649.07,1028.86 2661.37,1049.04 2673.68,998.74 2685.99,1049.47 2698.3,1092.38 2710.61,1113.69 2722.92,1115.4 2735.23,1084.7 2747.54,1001.44 2759.84,901.692 2772.15,891.461 2784.46,877.11 2796.77,874.979 2809.08,870.006 2821.39,856.223 2833.7,834.199 2846.01,811.038 2858.31,800.097 2870.62,787.025 2882.93,784.752 2895.24,811.749 2907.55,850.397 2919.86,862.049 2932.17,894.587 2944.48,959.665 2956.78,991.919 2969.09,949.008 2981.4,1006.13 2993.71,1054.72 3006.02,1078.74 3018.33,1083.43 3030.64,1050.18 3042.95,959.949 3055.25,865.459 3067.56,851.818 3079.87,826.526 3092.18,799.955 3104.49,773.1 3116.8,743.972 3129.11,714.275 3141.41,686.425 3153.72,689.551 3166.03,690.972 3178.34,729.194 3190.65,800.524 3202.96,855.797 3215.27,869.722 3227.58,901.834 3239.88,964.07 3252.19,992.346 3264.5,949.008 "/>
<polyline clip-path="url(#clip892)" style="stroke:#0000ff; stroke-linecap:round; stroke-linejoin:round; stroke-width:4; stroke-opacity:1; fill:none" points="1221.25,757.781 1233.56,791.629 1245.87,800.794 1258.18,768.209 1270.49,698.471 1282.8,611.784 1295.1,564.768 1307.41,547.582 1319.72,528.226 1332.03,525.233 1344.34,520.124 1356.65,531.504 1368.96,534.268 1381.27,528.663 1393.57,540.392 1405.88,542.952 1418.19,579.866 1430.5,618.379 1442.81,638.984 1455.12,653.711 1467.43,685.467 1479.74,705.134 1492.04,683.866 1504.35,751.896 1516.66,799.656 1528.97,820.539 1541.28,830.653 1553.59,811.633 1565.9,753.591 1578.21,641.181 1590.51,587.844 1602.82,592.618 1615.13,598.792 1627.44,597.206 1639.75,589.736 1652.06,587.452 1664.37,593.877 1676.68,601.131 1688.98,607.392 1701.29,603.223 1713.6,607.497 1725.91,630.945 1738.22,650.122 1750.53,646.611 1762.84,672.682 1775.15,707.224 1787.45,680.944 1799.76,749.346 1812.07,789.549 1824.38,816.017 1836.69,824.251 1849,802.506 1861.31,707.3 1873.62,621.791 1885.92,569.263 1898.23,569.067 1910.54,564.756 1922.85,573.498 1935.16,576.082 1947.47,577.072 1959.78,592.95 1972.09,600.37 1984.39,623.516 1996.7,624.631 2009.01,634.397 2021.32,652.435 2033.63,669.715 2045.94,658.394 2058.25,698.008 2070.55,707.938 2082.86,683.309 2095.17,754.164 2107.48,802.995 2119.79,823.495 2132.1,833.455 2144.41,816.377 2156.72,795.666 2169.02,742.046 2181.33,705.748 2193.64,676.729 2205.95,670.29 2218.26,678.914 2230.57,681.163 2242.88,686.678 2255.19,701.857 2267.49,707.278 2279.8,708.985 2292.11,702.493 2304.42,689.346 2316.73,691.492 2329.04,703.131 2341.35,702.933 2353.66,718.27 2365.96,728.478 2378.27,715.683 2390.58,769.215 2402.89,813.554 2415.2,829.646 2427.51,842.314 2439.82,834.183 2452.13,820.864 2464.43,800.853 2476.74,786.522 2489.05,766.931 2501.36,743.121 2513.67,740.132 2525.98,736.899 2538.29,734.112 2550.6,733.644 2562.9,727.259 2575.21,712.638 2587.52,691.933 2599.83,670.7 2612.14,669.902 2624.45,678.904 2636.76,680.378 2649.07,715.332 2661.37,726.908 2673.68,718.027 2685.99,768.078 2698.3,806.464 2710.61,822.224 2722.92,830.512 2735.23,809.504 2747.54,751.123 2759.84,636.672 2772.15,584.345 2784.46,577.154 2796.77,573.544 2809.08,575.402 2821.39,573.617 2833.7,554.262 2846.01,531.456 2858.31,510.76 2870.62,503.645 2882.93,490.677 2895.24,496.182 2907.55,550.532 2919.86,589.452 2932.17,604.896 2944.48,642.12 2956.78,693.658 2969.09,670.813 2981.4,715.006 2993.71,766.233 3006.02,798.519 3018.33,800.145 3030.64,767.672 3042.95,693.902 3055.25,609.558 3067.56,555.343 3079.87,528.192 3092.18,498.776 3104.49,473.3 3116.8,445.914 3129.11,415.382 3141.41,387.582 3153.72,381.115 3166.03,399.589 3178.34,432.58 3190.65,498.12 3202.96,573.909 3215.27,600.045 3227.58,621.042 3239.88,652.481 3252.19,695.832 3264.5,670.517 "/>
<path clip-path="url(#clip892)" d="M1221.25 803.688 L1233.56 837.536 L1245.87 846.701 L1258.18 814.116 L1270.49 744.378 L1282.8 657.692 L1295.1 610.675 L1307.41 593.489 L1319.72 574.133 L1332.03 571.141 L1344.34 566.031 L1356.65 577.411 L1368.96 580.175 L1381.27 574.57 L1393.57 586.299 L1405.88 588.859 L1418.19 625.774 L1430.5 664.286 L1442.81 684.891 L1455.12 699.619 L1467.43 731.374 L1479.74 751.041 L1492.04 729.773 L1504.35 797.803 L1516.66 845.563 L1528.97 866.446 L1541.28 876.56 L1553.59 857.541 L1565.9 799.498 L1578.21 687.088 L1590.51 630.337 L1602.82 635.111 L1615.13 641.285 L1627.44 639.699 L1639.75 632.229 L1652.06 629.944 L1664.37 636.37 L1676.68 643.624 L1688.98 649.885 L1701.29 645.716 L1713.6 649.99 L1725.91 673.437 L1738.22 692.615 L1750.53 689.103 L1762.84 715.175 L1775.15 749.717 L1787.45 723.437 L1799.76 791.838 L1812.07 832.041 L1824.38 858.51 L1836.69 866.744 L1849 844.999 L1861.31 749.793 L1873.62 664.284 L1885.92 611.755 L1898.23 611.56 L1910.54 607.248 L1922.85 615.991 L1935.16 618.574 L1947.47 619.565 L1959.78 635.442 L1972.09 642.863 L1984.39 666.009 L1996.7 667.124 L2009.01 676.89 L2021.32 694.928 L2033.63 712.208 L2045.94 700.887 L2058.25 740.501 L2070.55 750.431 L2082.86 725.801 L2095.17 796.657 L2107.48 845.488 L2119.79 865.988 L2132.1 875.947 L2144.41 858.87 L2156.72 838.158 L2169.02 784.539 L2181.33 748.24 L2193.64 719.222 L2205.95 712.783 L2218.26 721.407 L2230.57 723.656 L2242.88 729.171 L2255.19 744.349 L2267.49 749.77 L2279.8 751.478 L2292.11 744.985 L2304.42 731.839 L2316.73 733.985 L2329.04 762.281 L2341.35 762.083 L2353.66 777.42 L2365.96 787.628 L2378.27 774.832 L2390.58 828.365 L2402.89 872.703 L2415.2 888.796 L2427.51 901.464 L2439.82 893.333 L2452.13 880.013 L2464.43 860.002 L2476.74 845.671 L2489.05 826.081 L2501.36 802.27 L2513.67 799.282 L2525.98 796.048 L2538.29 793.262 L2550.6 792.794 L2562.9 786.409 L2575.21 771.788 L2587.52 751.083 L2599.83 729.85 L2612.14 729.051 L2624.45 738.054 L2636.76 739.527 L2649.07 774.481 L2661.37 786.057 L2673.68 777.177 L2685.99 827.227 L2698.3 1105.87 L2710.61 1121.63 L2722.92 1129.91 L2735.23 1108.91 L2747.54 1050.53 L2759.84 936.074 L2772.15 883.748 L2784.46 876.557 L2796.77 872.947 L2809.08 874.805 L2821.39 873.02 L2833.7 853.665 L2846.01 830.859 L2858.31 810.163 L2870.62 803.047 L2882.93 790.08 L2895.24 795.585 L2907.55 849.934 L2919.86 888.855 L2932.17 904.299 L2944.48 941.523 L2956.78 993.061 L2969.09 970.216 L2981.4 1014.41 L2993.71 1065.64 L3006.02 1097.92 L3018.33 1099.55 L3030.64 1067.08 L3042.95 993.305 L3055.25 908.961 L3067.56 857.328 L3079.87 830.177 L3092.18 800.761 L3104.49 775.286 L3116.8 747.899 L3129.11 717.368 L3141.41 689.568 L3153.72 683.1 L3166.03 701.574 L3178.34 734.565 L3190.65 800.106 L3202.96 875.895 L3215.27 902.031 L3227.58 923.027 L3239.88 954.467 L3252.19 997.817 L3264.5 972.502 L3264.5 368.531 L3252.19 393.846 L3239.88 350.495 L3227.58 319.056 L3215.27 298.06 L3202.96 271.923 L3190.65 196.134 L3178.34 130.594 L3166.03 97.6031 L3153.72 79.1292 L3141.41 85.5969 L3129.11 113.397 L3116.8 143.928 L3104.49 171.315 L3092.18 196.79 L3079.87 226.206 L3067.56 253.357 L3055.25 310.155 L3042.95 394.499 L3030.64 468.269 L3018.33 500.743 L3006.02 499.116 L2993.71 466.83 L2981.4 415.603 L2969.09 371.41 L2956.78 394.255 L2944.48 342.718 L2932.17 305.493 L2919.86 290.049 L2907.55 251.129 L2895.24 196.779 L2882.93 191.274 L2870.62 204.242 L2858.31 211.357 L2846.01 232.053 L2833.7 254.859 L2821.39 274.214 L2809.08 275.999 L2796.77 274.141 L2784.46 277.751 L2772.15 284.942 L2759.84 337.269 L2747.54 451.72 L2735.23 510.101 L2722.92 531.109 L2710.61 522.822 L2698.3 507.061 L2685.99 708.928 L2673.68 658.877 L2661.37 667.758 L2649.07 656.182 L2636.76 621.228 L2624.45 619.755 L2612.14 610.752 L2599.83 611.55 L2587.52 632.784 L2575.21 653.489 L2562.9 668.11 L2550.6 674.495 L2538.29 674.963 L2525.98 677.749 L2513.67 680.982 L2501.36 683.971 L2489.05 707.782 L2476.74 727.372 L2464.43 741.703 L2452.13 761.714 L2439.82 775.034 L2427.51 783.164 L2415.2 770.497 L2402.89 754.404 L2390.58 710.065 L2378.27 656.533 L2365.96 669.329 L2353.66 659.121 L2341.35 643.784 L2329.04 643.981 L2316.73 649 L2304.42 646.854 L2292.11 660 L2279.8 666.492 L2267.49 664.785 L2255.19 659.364 L2242.88 644.186 L2230.57 638.671 L2218.26 636.421 L2205.95 627.797 L2193.64 634.236 L2181.33 663.255 L2169.02 699.553 L2156.72 753.173 L2144.41 773.884 L2132.1 790.962 L2119.79 781.003 L2107.48 760.502 L2095.17 711.672 L2082.86 640.816 L2070.55 665.446 L2058.25 655.515 L2045.94 615.902 L2033.63 627.223 L2021.32 609.942 L2009.01 591.904 L1996.7 582.138 L1984.39 581.023 L1972.09 557.878 L1959.78 550.457 L1947.47 534.58 L1935.16 533.589 L1922.85 531.006 L1910.54 522.263 L1898.23 526.574 L1885.92 526.77 L1873.62 579.298 L1861.31 664.807 L1849 760.014 L1836.69 781.759 L1824.38 773.524 L1812.07 747.056 L1799.76 706.853 L1787.45 638.452 L1775.15 664.732 L1762.84 630.189 L1750.53 604.118 L1738.22 607.63 L1725.91 588.452 L1713.6 565.005 L1701.29 560.731 L1688.98 564.899 L1676.68 558.639 L1664.37 551.384 L1652.06 544.959 L1639.75 547.244 L1627.44 554.713 L1615.13 556.3 L1602.82 550.125 L1590.51 545.351 L1578.21 595.274 L1565.9 707.684 L1553.59 765.726 L1541.28 784.746 L1528.97 774.632 L1516.66 753.749 L1504.35 705.989 L1492.04 637.959 L1479.74 659.227 L1467.43 639.56 L1455.12 607.804 L1442.81 593.077 L1430.5 572.472 L1418.19 533.959 L1405.88 497.045 L1393.57 494.485 L1381.27 482.756 L1368.96 488.361 L1356.65 485.597 L1344.34 474.217 L1332.03 479.326 L1319.72 482.319 L1307.41 501.675 L1295.1 518.861 L1282.8 565.877 L1270.49 652.564 L1258.18 722.302 L1245.87 754.887 L1233.56 745.722 L1221.25 711.873  Z" fill="#4a0e87" fill-rule="evenodd" fill-opacity="0.2"/>
<polyline clip-path="url(#clip892)" style="stroke:#4a0e87; stroke-linecap:round; stroke-linejoin:round; stroke-width:0; stroke-opacity:1; fill:none" points="1221.25,803.688 1233.56,837.536 1245.87,846.701 1258.18,814.116 1270.49,744.378 1282.8,657.692 1295.1,610.675 1307.41,593.489 1319.72,574.133 1332.03,571.141 1344.34,566.031 1356.65,577.411 1368.96,580.175 1381.27,574.57 1393.57,586.299 1405.88,588.859 1418.19,625.774 1430.5,664.286 1442.81,684.891 1455.12,699.619 1467.43,731.374 1479.74,751.041 1492.04,729.773 1504.35,797.803 1516.66,845.563 1528.97,866.446 1541.28,876.56 1553.59,857.541 1565.9,799.498 1578.21,687.088 1590.51,630.337 1602.82,635.111 1615.13,641.285 1627.44,639.699 1639.75,632.229 1652.06,629.944 1664.37,636.37 1676.68,643.624 1688.98,649.885 1701.29,645.716 1713.6,649.99 1725.91,673.437 1738.22,692.615 1750.53,689.103 1762.84,715.175 1775.15,749.717 1787.45,723.437 1799.76,791.838 1812.07,832.041 1824.38,858.51 1836.69,866.744 1849,844.999 1861.31,749.793 1873.62,664.284 1885.92,611.755 1898.23,611.56 1910.54,607.248 1922.85,615.991 1935.16,618.574 1947.47,619.565 1959.78,635.442 1972.09,642.863 1984.39,666.009 1996.7,667.124 2009.01,676.89 2021.32,694.928 2033.63,712.208 2045.94,700.887 2058.25,740.501 2070.55,750.431 2082.86,725.801 2095.17,796.657 2107.48,845.488 2119.79,865.988 2132.1,875.947 2144.41,858.87 2156.72,838.158 2169.02,784.539 2181.33,748.24 2193.64,719.222 2205.95,712.783 2218.26,721.407 2230.57,723.656 2242.88,729.171 2255.19,744.349 2267.49,749.77 2279.8,751.478 2292.11,744.985 2304.42,731.839 2316.73,733.985 2329.04,762.281 2341.35,762.083 2353.66,777.42 2365.96,787.628 2378.27,774.832 2390.58,828.365 2402.89,872.703 2415.2,888.796 2427.51,901.464 2439.82,893.333 2452.13,880.013 2464.43,860.002 2476.74,845.671 2489.05,826.081 2501.36,802.27 2513.67,799.282 2525.98,796.048 2538.29,793.262 2550.6,792.794 2562.9,786.409 2575.21,771.788 2587.52,751.083 2599.83,729.85 2612.14,729.051 2624.45,738.054 2636.76,739.527 2649.07,774.481 2661.37,786.057 2673.68,777.177 2685.99,827.227 2698.3,1105.87 2710.61,1121.63 2722.92,1129.91 2735.23,1108.91 2747.54,1050.53 2759.84,936.074 2772.15,883.748 2784.46,876.557 2796.77,872.947 2809.08,874.805 2821.39,873.02 2833.7,853.665 2846.01,830.859 2858.31,810.163 2870.62,803.047 2882.93,790.08 2895.24,795.585 2907.55,849.934 2919.86,888.855 2932.17,904.299 2944.48,941.523 2956.78,993.061 2969.09,970.216 2981.4,1014.41 2993.71,1065.64 3006.02,1097.92 3018.33,1099.55 3030.64,1067.08 3042.95,993.305 3055.25,908.961 3067.56,857.328 3079.87,830.177 3092.18,800.761 3104.49,775.286 3116.8,747.899 3129.11,717.368 3141.41,689.568 3153.72,683.1 3166.03,701.574 3178.34,734.565 3190.65,800.106 3202.96,875.895 3215.27,902.031 3227.58,923.027 3239.88,954.467 3252.19,997.817 3264.5,972.502 "/>
<path clip-path="url(#clip890)" d="M762.896 1447.32 L2824.32 1447.32 L2824.32 1343.64 L762.896 1343.64  Z" fill="#ffffff" fill-rule="evenodd" fill-opacity="1"/>
<polyline clip-path="url(#clip890)" style="stroke:#000000; stroke-linecap:round; stroke-linejoin:round; stroke-width:4; stroke-opacity:1; fill:none" points="762.896,1447.32 2824.32,1447.32 2824.32,1343.64 762.896,1343.64 762.896,1447.32 "/>
<polyline clip-path="url(#clip890)" style="stroke:#008000; stroke-linecap:round; stroke-linejoin:round; stroke-width:4; stroke-opacity:1; fill:none" points="797.543,1395.48 1005.43,1395.48 "/>
<path clip-path="url(#clip890)" d="M1047.48 1379.47 L1047.48 1386.84 L1056.26 1386.84 L1056.26 1390.15 L1047.48 1390.15 L1047.48 1404.22 Q1047.48 1407.39 1048.34 1408.29 Q1049.22 1409.2 1051.88 1409.2 L1056.26 1409.2 L1056.26 1412.76 L1051.88 1412.76 Q1046.95 1412.76 1045.08 1410.93 Q1043.2 1409.08 1043.2 1404.22 L1043.2 1390.15 L1040.08 1390.15 L1040.08 1386.84 L1043.2 1386.84 L1043.2 1379.47 L1047.48 1379.47 Z" fill="#000000" fill-rule="nonzero" fill-opacity="1" /><path clip-path="url(#clip890)" d="M1076.88 1390.82 Q1076.17 1390.4 1075.31 1390.21 Q1074.48 1390.01 1073.46 1390.01 Q1069.85 1390.01 1067.9 1392.37 Q1065.98 1394.71 1065.98 1399.1 L1065.98 1412.76 L1061.7 1412.76 L1061.7 1386.84 L1065.98 1386.84 L1065.98 1390.86 Q1067.32 1388.5 1069.48 1387.37 Q1071.63 1386.21 1074.71 1386.21 Q1075.15 1386.21 1075.68 1386.28 Q1076.21 1386.33 1076.86 1386.44 L1076.88 1390.82 Z" fill="#000000" fill-rule="nonzero" fill-opacity="1" /><path clip-path="url(#clip890)" d="M1093.13 1399.73 Q1087.97 1399.73 1085.98 1400.91 Q1083.99 1402.09 1083.99 1404.94 Q1083.99 1407.21 1085.47 1408.55 Q1086.98 1409.87 1089.54 1409.87 Q1093.09 1409.87 1095.22 1407.37 Q1097.37 1404.84 1097.37 1400.68 L1097.37 1399.73 L1093.13 1399.73 M1101.63 1397.97 L1101.63 1412.76 L1097.37 1412.76 L1097.37 1408.83 Q1095.91 1411.19 1093.73 1412.32 Q1091.56 1413.43 1088.41 1413.43 Q1084.43 1413.43 1082.07 1411.21 Q1079.73 1408.96 1079.73 1405.21 Q1079.73 1400.84 1082.65 1398.62 Q1085.59 1396.4 1091.4 1396.4 L1097.37 1396.4 L1097.37 1395.98 Q1097.37 1393.04 1095.42 1391.44 Q1093.5 1389.82 1090.01 1389.82 Q1087.79 1389.82 1085.68 1390.35 Q1083.57 1390.89 1081.63 1391.95 L1081.63 1388.02 Q1083.97 1387.11 1086.17 1386.67 Q1088.36 1386.21 1090.45 1386.21 Q1096.07 1386.21 1098.85 1389.13 Q1101.63 1392.04 1101.63 1397.97 Z" fill="#000000" fill-rule="nonzero" fill-opacity="1" /><path clip-path="url(#clip890)" d="M1110.4 1386.84 L1114.66 1386.84 L1114.66 1412.76 L1110.4 1412.76 L1110.4 1386.84 M1110.4 1376.74 L1114.66 1376.74 L1114.66 1382.14 L1110.4 1382.14 L1110.4 1376.74 Z" fill="#000000" fill-rule="nonzero" fill-opacity="1" /><path clip-path="url(#clip890)" d="M1145.12 1397.11 L1145.12 1412.76 L1140.86 1412.76 L1140.86 1397.25 Q1140.86 1393.57 1139.43 1391.74 Q1137.99 1389.91 1135.12 1389.91 Q1131.67 1389.91 1129.68 1392.11 Q1127.69 1394.31 1127.69 1398.11 L1127.69 1412.76 L1123.41 1412.76 L1123.41 1386.84 L1127.69 1386.84 L1127.69 1390.86 Q1129.22 1388.53 1131.28 1387.37 Q1133.36 1386.21 1136.07 1386.21 Q1140.54 1386.21 1142.83 1388.99 Q1145.12 1391.74 1145.12 1397.11 Z" fill="#000000" fill-rule="nonzero" fill-opacity="1" /><polyline clip-path="url(#clip890)" style="stroke:#ff0000; stroke-linecap:round; stroke-linejoin:round; stroke-width:4; stroke-opacity:1; fill:none" points="1304.24,1395.48 1512.12,1395.48 "/>
<path clip-path="url(#clip890)" d="M1554.18 1379.47 L1554.18 1386.84 L1562.95 1386.84 L1562.95 1390.15 L1554.18 1390.15 L1554.18 1404.22 Q1554.18 1407.39 1555.04 1408.29 Q1555.92 1409.2 1558.58 1409.2 L1562.95 1409.2 L1562.95 1412.76 L1558.58 1412.76 Q1553.65 1412.76 1551.77 1410.93 Q1549.9 1409.08 1549.9 1404.22 L1549.9 1390.15 L1546.77 1390.15 L1546.77 1386.84 L1549.9 1386.84 L1549.9 1379.47 L1554.18 1379.47 Z" fill="#000000" fill-rule="nonzero" fill-opacity="1" /><path clip-path="url(#clip890)" d="M1590.73 1398.73 L1590.73 1400.82 L1571.15 1400.82 Q1571.42 1405.21 1573.79 1407.53 Q1576.17 1409.82 1580.41 1409.82 Q1582.86 1409.82 1585.15 1409.22 Q1587.47 1408.62 1589.73 1407.41 L1589.73 1411.44 Q1587.44 1412.41 1585.04 1412.92 Q1582.63 1413.43 1580.15 1413.43 Q1573.95 1413.43 1570.31 1409.82 Q1566.7 1406.21 1566.7 1400.05 Q1566.7 1393.69 1570.13 1389.96 Q1573.58 1386.21 1579.41 1386.21 Q1584.64 1386.21 1587.67 1389.59 Q1590.73 1392.95 1590.73 1398.73 M1586.47 1397.48 Q1586.42 1393.99 1584.5 1391.9 Q1582.61 1389.82 1579.46 1389.82 Q1575.89 1389.82 1573.74 1391.84 Q1571.61 1393.85 1571.29 1397.51 L1586.47 1397.48 Z" fill="#000000" fill-rule="nonzero" fill-opacity="1" /><path clip-path="url(#clip890)" d="M1614.25 1387.6 L1614.25 1391.63 Q1612.44 1390.7 1610.5 1390.24 Q1608.55 1389.78 1606.47 1389.78 Q1603.3 1389.78 1601.7 1390.75 Q1600.13 1391.72 1600.13 1393.66 Q1600.13 1395.15 1601.26 1396 Q1602.4 1396.84 1605.82 1397.6 L1607.28 1397.92 Q1611.82 1398.9 1613.72 1400.68 Q1615.64 1402.44 1615.64 1405.61 Q1615.64 1409.22 1612.77 1411.33 Q1609.92 1413.43 1604.92 1413.43 Q1602.84 1413.43 1600.57 1413.02 Q1598.32 1412.62 1595.82 1411.81 L1595.82 1407.41 Q1598.18 1408.64 1600.48 1409.27 Q1602.77 1409.87 1605.01 1409.87 Q1608.02 1409.87 1609.64 1408.85 Q1611.26 1407.81 1611.26 1405.93 Q1611.26 1404.2 1610.08 1403.27 Q1608.92 1402.34 1604.97 1401.49 L1603.48 1401.14 Q1599.53 1400.31 1597.77 1398.59 Q1596.01 1396.86 1596.01 1393.85 Q1596.01 1390.19 1598.6 1388.2 Q1601.19 1386.21 1605.96 1386.21 Q1608.32 1386.21 1610.41 1386.56 Q1612.49 1386.9 1614.25 1387.6 Z" fill="#000000" fill-rule="nonzero" fill-opacity="1" /><path clip-path="url(#clip890)" d="M1626.63 1379.47 L1626.63 1386.84 L1635.41 1386.84 L1635.41 1390.15 L1626.63 1390.15 L1626.63 1404.22 Q1626.63 1407.39 1627.49 1408.29 Q1628.37 1409.2 1631.03 1409.2 L1635.41 1409.2 L1635.41 1412.76 L1631.03 1412.76 Q1626.1 1412.76 1624.23 1410.93 Q1622.35 1409.08 1622.35 1404.22 L1622.35 1390.15 L1619.23 1390.15 L1619.23 1386.84 L1622.35 1386.84 L1622.35 1379.47 L1626.63 1379.47 Z" fill="#000000" fill-rule="nonzero" fill-opacity="1" /><polyline clip-path="url(#clip890)" style="stroke:#0000ff; stroke-linecap:round; stroke-linejoin:round; stroke-width:4; stroke-opacity:1; fill:none" points="1810.93,1395.48 2018.82,1395.48 "/>
<path clip-path="url(#clip890)" d="M2057.75 1408.87 L2057.75 1422.62 L2053.47 1422.62 L2053.47 1386.84 L2057.75 1386.84 L2057.75 1390.77 Q2059.09 1388.46 2061.13 1387.34 Q2063.19 1386.21 2066.04 1386.21 Q2070.76 1386.21 2073.7 1389.96 Q2076.66 1393.71 2076.66 1399.82 Q2076.66 1405.93 2073.7 1409.68 Q2070.76 1413.43 2066.04 1413.43 Q2063.19 1413.43 2061.13 1412.32 Q2059.09 1411.19 2057.75 1408.87 M2072.24 1399.82 Q2072.24 1395.12 2070.29 1392.46 Q2068.37 1389.78 2064.99 1389.78 Q2061.61 1389.78 2059.67 1392.46 Q2057.75 1395.12 2057.75 1399.82 Q2057.75 1404.52 2059.67 1407.21 Q2061.61 1409.87 2064.99 1409.87 Q2068.37 1409.87 2070.29 1407.21 Q2072.24 1404.52 2072.24 1399.82 Z" fill="#000000" fill-rule="nonzero" fill-opacity="1" /><path clip-path="url(#clip890)" d="M2098.74 1390.82 Q2098.03 1390.4 2097.17 1390.21 Q2096.34 1390.01 2095.32 1390.01 Q2091.71 1390.01 2089.76 1392.37 Q2087.84 1394.71 2087.84 1399.1 L2087.84 1412.76 L2083.56 1412.76 L2083.56 1386.84 L2087.84 1386.84 L2087.84 1390.86 Q2089.18 1388.5 2091.34 1387.37 Q2093.49 1386.21 2096.57 1386.21 Q2097.01 1386.21 2097.54 1386.28 Q2098.07 1386.33 2098.72 1386.44 L2098.74 1390.82 Z" fill="#000000" fill-rule="nonzero" fill-opacity="1" /><path clip-path="url(#clip890)" d="M2124.35 1398.73 L2124.35 1400.82 L2104.76 1400.82 Q2105.04 1405.21 2107.4 1407.53 Q2109.79 1409.82 2114.02 1409.82 Q2116.48 1409.82 2118.77 1409.22 Q2121.08 1408.62 2123.35 1407.41 L2123.35 1411.44 Q2121.06 1412.41 2118.65 1412.92 Q2116.24 1413.43 2113.77 1413.43 Q2107.56 1413.43 2103.93 1409.82 Q2100.32 1406.21 2100.32 1400.05 Q2100.32 1393.69 2103.74 1389.96 Q2107.19 1386.21 2113.03 1386.21 Q2118.26 1386.21 2121.29 1389.59 Q2124.35 1392.95 2124.35 1398.73 M2120.09 1397.48 Q2120.04 1393.99 2118.12 1391.9 Q2116.22 1389.82 2113.07 1389.82 Q2109.51 1389.82 2107.35 1391.84 Q2105.23 1393.85 2104.9 1397.51 L2120.09 1397.48 Z" fill="#000000" fill-rule="nonzero" fill-opacity="1" /><path clip-path="url(#clip890)" d="M2148.4 1390.77 L2148.4 1376.74 L2152.66 1376.74 L2152.66 1412.76 L2148.4 1412.76 L2148.4 1408.87 Q2147.05 1411.19 2144.99 1412.32 Q2142.96 1413.43 2140.09 1413.43 Q2135.39 1413.43 2132.42 1409.68 Q2129.48 1405.93 2129.48 1399.82 Q2129.48 1393.71 2132.42 1389.96 Q2135.39 1386.21 2140.09 1386.21 Q2142.96 1386.21 2144.99 1387.34 Q2147.05 1388.46 2148.4 1390.77 M2133.88 1399.82 Q2133.88 1404.52 2135.8 1407.21 Q2137.75 1409.87 2141.13 1409.87 Q2144.51 1409.87 2146.45 1407.21 Q2148.4 1404.52 2148.4 1399.82 Q2148.4 1395.12 2146.45 1392.46 Q2144.51 1389.78 2141.13 1389.78 Q2137.75 1389.78 2135.8 1392.46 Q2133.88 1395.12 2133.88 1399.82 Z" fill="#000000" fill-rule="nonzero" fill-opacity="1" /><path clip-path="url(#clip890)" d="M2161.43 1386.84 L2165.69 1386.84 L2165.69 1412.76 L2161.43 1412.76 L2161.43 1386.84 M2161.43 1376.74 L2165.69 1376.74 L2165.69 1382.14 L2161.43 1382.14 L2161.43 1376.74 Z" fill="#000000" fill-rule="nonzero" fill-opacity="1" /><path clip-path="url(#clip890)" d="M2193.26 1387.83 L2193.26 1391.81 Q2191.45 1390.82 2189.62 1390.33 Q2187.82 1389.82 2185.97 1389.82 Q2181.82 1389.82 2179.53 1392.46 Q2177.24 1395.08 2177.24 1399.82 Q2177.24 1404.57 2179.53 1407.21 Q2181.82 1409.82 2185.97 1409.82 Q2187.82 1409.82 2189.62 1409.34 Q2191.45 1408.83 2193.26 1407.83 L2193.26 1411.77 Q2191.47 1412.6 2189.55 1413.02 Q2187.66 1413.43 2185.5 1413.43 Q2179.65 1413.43 2176.2 1409.75 Q2172.75 1406.07 2172.75 1399.82 Q2172.75 1393.48 2176.22 1389.84 Q2179.72 1386.21 2185.78 1386.21 Q2187.75 1386.21 2189.62 1386.63 Q2191.5 1387.02 2193.26 1387.83 Z" fill="#000000" fill-rule="nonzero" fill-opacity="1" /><path clip-path="url(#clip890)" d="M2204.88 1379.47 L2204.88 1386.84 L2213.65 1386.84 L2213.65 1390.15 L2204.88 1390.15 L2204.88 1404.22 Q2204.88 1407.39 2205.73 1408.29 Q2206.61 1409.2 2209.28 1409.2 L2213.65 1409.2 L2213.65 1412.76 L2209.28 1412.76 Q2204.35 1412.76 2202.47 1410.93 Q2200.6 1409.08 2200.6 1404.22 L2200.6 1390.15 L2197.47 1390.15 L2197.47 1386.84 L2200.6 1386.84 L2200.6 1379.47 L2204.88 1379.47 Z" fill="#000000" fill-rule="nonzero" fill-opacity="1" /><path clip-path="url(#clip890)" d="M2219.25 1386.84 L2223.51 1386.84 L2223.51 1412.76 L2219.25 1412.76 L2219.25 1386.84 M2219.25 1376.74 L2223.51 1376.74 L2223.51 1382.14 L2219.25 1382.14 L2219.25 1376.74 Z" fill="#000000" fill-rule="nonzero" fill-opacity="1" /><path clip-path="url(#clip890)" d="M2242.47 1389.82 Q2239.04 1389.82 2237.05 1392.51 Q2235.06 1395.17 2235.06 1399.82 Q2235.06 1404.47 2237.03 1407.16 Q2239.02 1409.82 2242.47 1409.82 Q2245.87 1409.82 2247.86 1407.14 Q2249.85 1404.45 2249.85 1399.82 Q2249.85 1395.21 2247.86 1392.53 Q2245.87 1389.82 2242.47 1389.82 M2242.47 1386.21 Q2248.03 1386.21 2251.2 1389.82 Q2254.37 1393.43 2254.37 1399.82 Q2254.37 1406.19 2251.2 1409.82 Q2248.03 1413.43 2242.47 1413.43 Q2236.89 1413.43 2233.72 1409.82 Q2230.57 1406.19 2230.57 1399.82 Q2230.57 1393.43 2233.72 1389.82 Q2236.89 1386.21 2242.47 1386.21 Z" fill="#000000" fill-rule="nonzero" fill-opacity="1" /><path clip-path="url(#clip890)" d="M2282.98 1397.11 L2282.98 1412.76 L2278.72 1412.76 L2278.72 1397.25 Q2278.72 1393.57 2277.28 1391.74 Q2275.85 1389.91 2272.98 1389.91 Q2269.53 1389.91 2267.54 1392.11 Q2265.55 1394.31 2265.55 1398.11 L2265.55 1412.76 L2261.27 1412.76 L2261.27 1386.84 L2265.55 1386.84 L2265.55 1390.86 Q2267.08 1388.53 2269.14 1387.37 Q2271.22 1386.21 2273.93 1386.21 Q2278.4 1386.21 2280.69 1388.99 Q2282.98 1391.74 2282.98 1397.11 Z" fill="#000000" fill-rule="nonzero" fill-opacity="1" /><path clip-path="url(#clip890)" d="M2317.63 1416.22 L2525.51 1416.22 L2525.51 1374.75 L2317.63 1374.75 L2317.63 1416.22  Z" fill="#4a0e87" fill-rule="evenodd" fill-opacity="0.2"/>
<polyline clip-path="url(#clip890)" style="stroke:#4a0e87; stroke-linecap:round; stroke-linejoin:round; stroke-width:0.8; stroke-opacity:1; fill:none" points="2317.63,1374.75 2525.51,1374.75 "/>
<path clip-path="url(#clip890)" d="M2560.16 1378.2 L2582.01 1378.2 L2582.01 1382.14 L2564.84 1382.14 L2564.84 1392.37 L2581.29 1392.37 L2581.29 1396.3 L2564.84 1396.3 L2564.84 1408.83 L2582.43 1408.83 L2582.43 1412.76 L2560.16 1412.76 L2560.16 1378.2 Z" fill="#000000" fill-rule="nonzero" fill-opacity="1" /><path clip-path="url(#clip890)" d="M2611.48 1397.11 L2611.48 1412.76 L2607.22 1412.76 L2607.22 1397.25 Q2607.22 1393.57 2605.79 1391.74 Q2604.35 1389.91 2601.48 1389.91 Q2598.03 1389.91 2596.04 1392.11 Q2594.05 1394.31 2594.05 1398.11 L2594.05 1412.76 L2589.77 1412.76 L2589.77 1386.84 L2594.05 1386.84 L2594.05 1390.86 Q2595.58 1388.53 2597.64 1387.37 Q2599.72 1386.21 2602.43 1386.21 Q2606.9 1386.21 2609.19 1388.99 Q2611.48 1391.74 2611.48 1397.11 Z" fill="#000000" fill-rule="nonzero" fill-opacity="1" /><path clip-path="url(#clip890)" d="M2638.59 1399.82 Q2638.59 1395.12 2636.64 1392.46 Q2634.72 1389.78 2631.34 1389.78 Q2627.96 1389.78 2626.02 1392.46 Q2624.1 1395.12 2624.1 1399.82 Q2624.1 1404.52 2626.02 1407.21 Q2627.96 1409.87 2631.34 1409.87 Q2634.72 1409.87 2636.64 1407.21 Q2638.59 1404.52 2638.59 1399.82 M2624.1 1390.77 Q2625.44 1388.46 2627.48 1387.34 Q2629.54 1386.21 2632.38 1386.21 Q2637.1 1386.21 2640.04 1389.96 Q2643.01 1393.71 2643.01 1399.82 Q2643.01 1405.93 2640.04 1409.68 Q2637.1 1413.43 2632.38 1413.43 Q2629.54 1413.43 2627.48 1412.32 Q2625.44 1411.19 2624.1 1408.87 L2624.1 1412.76 L2619.81 1412.76 L2619.81 1376.74 L2624.1 1376.74 L2624.1 1390.77 Z" fill="#000000" fill-rule="nonzero" fill-opacity="1" /><path clip-path="url(#clip890)" d="M2654.93 1382.04 L2654.93 1395.03 L2660.81 1395.03 Q2664.07 1395.03 2665.85 1393.34 Q2667.64 1391.65 2667.64 1388.53 Q2667.64 1385.42 2665.85 1383.73 Q2664.07 1382.04 2660.81 1382.04 L2654.93 1382.04 M2650.25 1378.2 L2660.81 1378.2 Q2666.62 1378.2 2669.58 1380.84 Q2672.57 1383.46 2672.57 1388.53 Q2672.57 1393.64 2669.58 1396.26 Q2666.62 1398.87 2660.81 1398.87 L2654.93 1398.87 L2654.93 1412.76 L2650.25 1412.76 L2650.25 1378.2 Z" fill="#000000" fill-rule="nonzero" fill-opacity="1" /><path clip-path="url(#clip890)" d="M2678.84 1378.2 L2683.52 1378.2 L2683.52 1412.76 L2678.84 1412.76 L2678.84 1378.2 Z" fill="#000000" fill-rule="nonzero" fill-opacity="1" /></svg>
