<?xml version="1.0" encoding="utf-8"?>
<svg xmlns="http://www.w3.org/2000/svg" xmlns:xlink="http://www.w3.org/1999/xlink" width="600" height="400" viewBox="0 0 2400 1600">
<defs>
  <clipPath id="clip370">
    <rect x="0" y="0" width="2400" height="1600"/>
  </clipPath>
</defs>
<path clip-path="url(#clip370)" d="
M0 1600 L2400 1600 L2400 0 L0 0  Z
  " fill="#ffffff" fill-rule="evenodd" fill-opacity="1"/>
<defs>
  <clipPath id="clip371">
    <rect x="480" y="0" width="1681" height="1600"/>
  </clipPath>
</defs>
<path clip-path="url(#clip370)" d="
M172.015 1495.09 L2352.76 1495.09 L2352.76 47.2441 L172.015 47.2441  Z
  " fill="#ffffff" fill-rule="evenodd" fill-opacity="1"/>
<defs>
  <clipPath id="clip372">
    <rect x="172" y="47" width="2182" height="1449"/>
  </clipPath>
</defs>
<polyline clip-path="url(#clip372)" style="stroke:#000000; stroke-linecap:round; stroke-linejoin:round; stroke-width:2; stroke-opacity:0.1; fill:none" points="
  453.697,1495.09 453.697,47.2441 
  "/>
<polyline clip-path="url(#clip372)" style="stroke:#000000; stroke-linecap:round; stroke-linejoin:round; stroke-width:2; stroke-opacity:0.1; fill:none" points="
  858.041,1495.09 858.041,47.2441 
  "/>
<polyline clip-path="url(#clip372)" style="stroke:#000000; stroke-linecap:round; stroke-linejoin:round; stroke-width:2; stroke-opacity:0.1; fill:none" points="
  1262.39,1495.09 1262.39,47.2441 
  "/>
<polyline clip-path="url(#clip372)" style="stroke:#000000; stroke-linecap:round; stroke-linejoin:round; stroke-width:2; stroke-opacity:0.1; fill:none" points="
  1666.73,1495.09 1666.73,47.2441 
  "/>
<polyline clip-path="url(#clip372)" style="stroke:#000000; stroke-linecap:round; stroke-linejoin:round; stroke-width:2; stroke-opacity:0.1; fill:none" points="
  2071.07,1495.09 2071.07,47.2441 
  "/>
<polyline clip-path="url(#clip370)" style="stroke:#000000; stroke-linecap:round; stroke-linejoin:round; stroke-width:4; stroke-opacity:1; fill:none" points="
  172.015,1495.09 2352.76,1495.09 
  "/>
<polyline clip-path="url(#clip370)" style="stroke:#000000; stroke-linecap:round; stroke-linejoin:round; stroke-width:4; stroke-opacity:1; fill:none" points="
  453.697,1495.09 453.697,1476.19 
  "/>
<polyline clip-path="url(#clip370)" style="stroke:#000000; stroke-linecap:round; stroke-linejoin:round; stroke-width:4; stroke-opacity:1; fill:none" points="
  858.041,1495.09 858.041,1476.19 
  "/>
<polyline clip-path="url(#clip370)" style="stroke:#000000; stroke-linecap:round; stroke-linejoin:round; stroke-width:4; stroke-opacity:1; fill:none" points="
  1262.39,1495.09 1262.39,1476.19 
  "/>
<polyline clip-path="url(#clip370)" style="stroke:#000000; stroke-linecap:round; stroke-linejoin:round; stroke-width:4; stroke-opacity:1; fill:none" points="
  1666.73,1495.09 1666.73,1476.19 
  "/>
<polyline clip-path="url(#clip370)" style="stroke:#000000; stroke-linecap:round; stroke-linejoin:round; stroke-width:4; stroke-opacity:1; fill:none" points="
  2071.07,1495.09 2071.07,1476.19 
  "/>
<path clip-path="url(#clip370)" d="M310.564 1519.52 L310.564 1555.07 L307.613 1555.07 L307.613 1519.52 L310.564 1519.52 Z" fill="#000000" fill-rule="evenodd" fill-opacity="1" /><path clip-path="url(#clip370)" d="M337.977 1522.76 L337.977 1526.46 Q336.206 1524.81 334.193 1524 Q332.196 1523.18 329.939 1523.18 Q325.495 1523.18 323.134 1525.91 Q320.772 1528.62 320.772 1533.75 Q320.772 1538.88 323.134 1541.6 Q325.495 1544.31 329.939 1544.31 Q332.196 1544.31 334.193 1543.49 Q336.206 1542.68 337.977 1541.03 L337.977 1544.69 Q336.137 1545.94 334.071 1546.57 Q332.022 1547.19 329.731 1547.19 Q323.845 1547.19 320.46 1543.6 Q317.075 1539.99 317.075 1533.75 Q317.075 1527.5 320.46 1523.91 Q323.845 1520.3 329.731 1520.3 Q332.057 1520.3 334.106 1520.92 Q336.172 1521.53 337.977 1522.76 Z" fill="#000000" fill-rule="evenodd" fill-opacity="1" /><path clip-path="url(#clip370)" d="M347.37 1519.52 L347.37 1555.07 L344.418 1555.07 L344.418 1519.52 L347.37 1519.52 Z" fill="#000000" fill-rule="evenodd" fill-opacity="1" /><path clip-path="url(#clip370)" d="M369.14 1535.8 Q369.262 1537.09 370.356 1539.17 Q371.64 1541.58 374.071 1542.94 Q376.449 1544.26 379.019 1544.27 L391.119 1544.27 L391.119 1547.04 L379.019 1547.04 Q375.685 1547.04 372.595 1545.32 Q369.522 1543.6 367.873 1540.54 Q366.224 1537.49 366.224 1534.24 Q366.224 1531.03 367.873 1527.97 Q369.522 1524.92 372.595 1523.18 Q375.685 1521.44 379.019 1521.44 L391.119 1521.44 L391.119 1524.21 L379.019 1524.21 Q376.449 1524.22 374.071 1525.56 Q371.658 1526.93 370.356 1529.33 Q369.244 1531.41 369.088 1533.02 L391.119 1533.02 L391.119 1535.8 L369.14 1535.8 Z" fill="#000000" fill-rule="evenodd" fill-opacity="1" /><path clip-path="url(#clip370)" d="M416.484 1519.71 Q414.157 1523.7 413.029 1527.61 Q411.9 1531.51 411.9 1535.52 Q411.9 1539.54 413.029 1543.48 Q414.175 1547.4 416.484 1551.38 L413.706 1551.38 Q411.102 1547.3 409.8 1543.35 Q408.515 1539.41 408.515 1535.52 Q408.515 1531.65 409.8 1527.73 Q411.084 1523.81 413.706 1519.71 L416.484 1519.71 Z" fill="#000000" fill-rule="evenodd" fill-opacity="1" /><path clip-path="url(#clip370)" d="M426.154 1543.74 L438.393 1543.74 L438.393 1546.69 L421.935 1546.69 L421.935 1543.74 Q423.932 1541.67 427.369 1538.2 Q430.824 1534.71 431.709 1533.7 Q433.393 1531.81 434.053 1530.51 Q434.73 1529.19 434.73 1527.92 Q434.73 1525.85 433.272 1524.55 Q431.831 1523.25 429.505 1523.25 Q427.855 1523.25 426.015 1523.82 Q424.192 1524.4 422.109 1525.56 L422.109 1522.02 Q424.227 1521.17 426.067 1520.73 Q427.907 1520.3 429.435 1520.3 Q433.463 1520.3 435.859 1522.31 Q438.254 1524.33 438.254 1527.69 Q438.254 1529.29 437.647 1530.73 Q437.057 1532.16 435.477 1534.1 Q435.043 1534.6 432.716 1537.02 Q430.39 1539.41 426.154 1543.74 Z" fill="#000000" fill-rule="evenodd" fill-opacity="1" /><path clip-path="url(#clip370)" d="M445.754 1542.28 L449.418 1542.28 L449.418 1546.69 L445.754 1546.69 L445.754 1542.28 Z" fill="#000000" fill-rule="evenodd" fill-opacity="1" /><path clip-path="url(#clip370)" d="M457.664 1543.74 L463.393 1543.74 L463.393 1523.96 L457.161 1525.21 L457.161 1522.02 L463.359 1520.77 L466.865 1520.77 L466.865 1543.74 L472.595 1543.74 L472.595 1546.69 L457.664 1546.69 L457.664 1543.74 Z" fill="#000000" fill-rule="evenodd" fill-opacity="1" /><path clip-path="url(#clip370)" d="M478.792 1520.77 L495.459 1520.77 L495.459 1522.26 L486.049 1546.69 L482.386 1546.69 L491.24 1523.72 L478.792 1523.72 L478.792 1520.77 Z" fill="#000000" fill-rule="evenodd" fill-opacity="1" /><path clip-path="url(#clip370)" d="M502.664 1542.28 L506.327 1542.28 L506.327 1545.26 L503.48 1550.82 L501.24 1550.82 L502.664 1545.26 L502.664 1542.28 Z" fill="#000000" fill-rule="evenodd" fill-opacity="1" /><path clip-path="url(#clip370)" d="M516.622 1543.74 L528.862 1543.74 L528.862 1546.69 L512.403 1546.69 L512.403 1543.74 Q514.4 1541.67 517.837 1538.2 Q521.292 1534.71 522.178 1533.7 Q523.862 1531.81 524.521 1530.51 Q525.198 1529.19 525.198 1527.92 Q525.198 1525.85 523.74 1524.55 Q522.299 1523.25 519.973 1523.25 Q518.324 1523.25 516.483 1523.82 Q514.66 1524.4 512.577 1525.56 L512.577 1522.02 Q514.695 1521.17 516.535 1520.73 Q518.376 1520.3 519.903 1520.3 Q523.931 1520.3 526.327 1522.31 Q528.723 1524.33 528.723 1527.69 Q528.723 1529.29 528.115 1530.73 Q527.525 1532.16 525.945 1534.1 Q525.511 1534.6 523.185 1537.02 Q520.858 1539.41 516.622 1543.74 Z" fill="#000000" fill-rule="evenodd" fill-opacity="1" /><path clip-path="url(#clip370)" d="M536.223 1542.28 L539.886 1542.28 L539.886 1546.69 L536.223 1546.69 L536.223 1542.28 Z" fill="#000000" fill-rule="evenodd" fill-opacity="1" /><path clip-path="url(#clip370)" d="M550.546 1543.74 L562.785 1543.74 L562.785 1546.69 L546.327 1546.69 L546.327 1543.74 Q548.323 1541.67 551.761 1538.2 Q555.216 1534.71 556.101 1533.7 Q557.785 1531.81 558.445 1530.51 Q559.122 1529.19 559.122 1527.92 Q559.122 1525.85 557.664 1524.55 Q556.223 1523.25 553.896 1523.25 Q552.247 1523.25 550.407 1523.82 Q548.584 1524.4 546.5 1525.56 L546.5 1522.02 Q548.618 1521.17 550.459 1520.73 Q552.299 1520.3 553.827 1520.3 Q557.855 1520.3 560.25 1522.31 Q562.646 1524.33 562.646 1527.69 Q562.646 1529.29 562.039 1530.73 Q561.448 1532.16 559.868 1534.1 Q559.434 1534.6 557.108 1537.02 Q554.782 1539.41 550.546 1543.74 Z" fill="#000000" fill-rule="evenodd" fill-opacity="1" /><path clip-path="url(#clip370)" d="M570.754 1543.74 L576.483 1543.74 L576.483 1523.96 L570.25 1525.21 L570.25 1522.02 L576.448 1520.77 L579.955 1520.77 L579.955 1543.74 L585.684 1543.74 L585.684 1546.69 L570.754 1546.69 L570.754 1543.74 Z" fill="#000000" fill-rule="evenodd" fill-opacity="1" /><path clip-path="url(#clip370)" d="M599.781 1519.67 L599.781 1551.38 L592.42 1551.38 L592.42 1548.89 L596.57 1548.89 L596.57 1522.16 L592.42 1522.16 L592.42 1519.67 L599.781 1519.67 Z" fill="#000000" fill-rule="evenodd" fill-opacity="1" /><path clip-path="url(#clip370)" d="M714.908 1519.52 L714.908 1555.07 L711.957 1555.07 L711.957 1519.52 L714.908 1519.52 Z" fill="#000000" fill-rule="evenodd" fill-opacity="1" /><path clip-path="url(#clip370)" d="M742.321 1522.76 L742.321 1526.46 Q740.551 1524.81 738.537 1524 Q736.54 1523.18 734.283 1523.18 Q729.839 1523.18 727.478 1525.91 Q725.117 1528.62 725.117 1533.75 Q725.117 1538.88 727.478 1541.6 Q729.839 1544.31 734.283 1544.31 Q736.54 1544.31 738.537 1543.49 Q740.551 1542.68 742.321 1541.03 L742.321 1544.69 Q740.481 1545.94 738.415 1546.57 Q736.367 1547.19 734.075 1547.19 Q728.19 1547.19 724.804 1543.6 Q721.419 1539.99 721.419 1533.75 Q721.419 1527.5 724.804 1523.91 Q728.19 1520.3 734.075 1520.3 Q736.401 1520.3 738.45 1520.92 Q740.516 1521.53 742.321 1522.76 Z" fill="#000000" fill-rule="evenodd" fill-opacity="1" /><path clip-path="url(#clip370)" d="M751.714 1519.52 L751.714 1555.07 L748.762 1555.07 L748.762 1519.52 L751.714 1519.52 Z" fill="#000000" fill-rule="evenodd" fill-opacity="1" /><path clip-path="url(#clip370)" d="M773.484 1535.8 Q773.606 1537.09 774.7 1539.17 Q775.984 1541.58 778.415 1542.94 Q780.793 1544.26 783.363 1544.27 L795.463 1544.27 L795.463 1547.04 L783.363 1547.04 Q780.03 1547.04 776.939 1545.32 Q773.866 1543.6 772.217 1540.54 Q770.568 1537.49 770.568 1534.24 Q770.568 1531.03 772.217 1527.97 Q773.866 1524.92 776.939 1523.18 Q780.03 1521.44 783.363 1521.44 L795.463 1521.44 L795.463 1524.21 L783.363 1524.21 Q780.793 1524.22 778.415 1525.56 Q776.002 1526.93 774.7 1529.33 Q773.589 1531.41 773.432 1533.02 L795.463 1533.02 L795.463 1535.8 L773.484 1535.8 Z" fill="#000000" fill-rule="evenodd" fill-opacity="1" /><path clip-path="url(#clip370)" d="M820.828 1519.71 Q818.502 1523.7 817.373 1527.61 Q816.245 1531.51 816.245 1535.52 Q816.245 1539.54 817.373 1543.48 Q818.519 1547.4 820.828 1551.38 L818.05 1551.38 Q815.446 1547.3 814.144 1543.35 Q812.859 1539.41 812.859 1535.52 Q812.859 1531.65 814.144 1527.73 Q815.429 1523.81 818.05 1519.71 L820.828 1519.71 Z" fill="#000000" fill-rule="evenodd" fill-opacity="1" /><path clip-path="url(#clip370)" d="M830.498 1543.74 L842.737 1543.74 L842.737 1546.69 L826.279 1546.69 L826.279 1543.74 Q828.276 1541.67 831.713 1538.2 Q835.168 1534.71 836.054 1533.7 Q837.738 1531.81 838.397 1530.51 Q839.074 1529.19 839.074 1527.92 Q839.074 1525.85 837.616 1524.55 Q836.175 1523.25 833.849 1523.25 Q832.199 1523.25 830.359 1523.82 Q828.536 1524.4 826.453 1525.56 L826.453 1522.02 Q828.571 1521.17 830.411 1520.73 Q832.251 1520.3 833.779 1520.3 Q837.807 1520.3 840.203 1522.31 Q842.599 1524.33 842.599 1527.69 Q842.599 1529.29 841.991 1530.73 Q841.401 1532.16 839.821 1534.1 Q839.387 1534.6 837.06 1537.02 Q834.734 1539.41 830.498 1543.74 Z" fill="#000000" fill-rule="evenodd" fill-opacity="1" /><path clip-path="url(#clip370)" d="M850.099 1542.28 L853.762 1542.28 L853.762 1546.69 L850.099 1546.69 L850.099 1542.28 Z" fill="#000000" fill-rule="evenodd" fill-opacity="1" /><path clip-path="url(#clip370)" d="M864.421 1543.74 L876.661 1543.74 L876.661 1546.69 L860.203 1546.69 L860.203 1543.74 Q862.199 1541.67 865.637 1538.2 Q869.092 1534.71 869.977 1533.7 Q871.661 1531.81 872.321 1530.51 Q872.998 1529.19 872.998 1527.92 Q872.998 1525.85 871.539 1524.55 Q870.098 1523.25 867.772 1523.25 Q866.123 1523.25 864.283 1523.82 Q862.46 1524.4 860.376 1525.56 L860.376 1522.02 Q862.494 1521.17 864.335 1520.73 Q866.175 1520.3 867.703 1520.3 Q871.73 1520.3 874.126 1522.31 Q876.522 1524.33 876.522 1527.69 Q876.522 1529.29 875.914 1530.73 Q875.324 1532.16 873.744 1534.1 Q873.31 1534.6 870.984 1537.02 Q868.657 1539.41 864.421 1543.74 Z" fill="#000000" fill-rule="evenodd" fill-opacity="1" /><path clip-path="url(#clip370)" d="M884.63 1543.74 L890.359 1543.74 L890.359 1523.96 L884.126 1525.21 L884.126 1522.02 L890.324 1520.77 L893.831 1520.77 L893.831 1543.74 L899.56 1543.74 L899.56 1546.69 L884.63 1546.69 L884.63 1543.74 Z" fill="#000000" fill-rule="evenodd" fill-opacity="1" /><path clip-path="url(#clip370)" d="M907.008 1542.28 L910.671 1542.28 L910.671 1545.26 L907.824 1550.82 L905.584 1550.82 L907.008 1545.26 L907.008 1542.28 Z" fill="#000000" fill-rule="evenodd" fill-opacity="1" /><path clip-path="url(#clip370)" d="M920.966 1543.74 L933.206 1543.74 L933.206 1546.69 L916.748 1546.69 L916.748 1543.74 Q918.744 1541.67 922.182 1538.2 Q925.636 1534.71 926.522 1533.7 Q928.206 1531.81 928.866 1530.51 Q929.543 1529.19 929.543 1527.92 Q929.543 1525.85 928.084 1524.55 Q926.643 1523.25 924.317 1523.25 Q922.668 1523.25 920.827 1523.82 Q919.004 1524.4 916.921 1525.56 L916.921 1522.02 Q919.039 1521.17 920.879 1520.73 Q922.72 1520.3 924.247 1520.3 Q928.275 1520.3 930.671 1522.31 Q933.067 1524.33 933.067 1527.69 Q933.067 1529.29 932.459 1530.73 Q931.869 1532.16 930.289 1534.1 Q929.855 1534.6 927.529 1537.02 Q925.202 1539.41 920.966 1543.74 Z" fill="#000000" fill-rule="evenodd" fill-opacity="1" /><path clip-path="url(#clip370)" d="M940.567 1542.28 L944.23 1542.28 L944.23 1546.69 L940.567 1546.69 L940.567 1542.28 Z" fill="#000000" fill-rule="evenodd" fill-opacity="1" /><path clip-path="url(#clip370)" d="M954.89 1543.74 L967.129 1543.74 L967.129 1546.69 L950.671 1546.69 L950.671 1543.74 Q952.667 1541.67 956.105 1538.2 Q959.56 1534.71 960.445 1533.7 Q962.129 1531.81 962.789 1530.51 Q963.466 1529.19 963.466 1527.92 Q963.466 1525.85 962.008 1524.55 Q960.567 1523.25 958.24 1523.25 Q956.591 1523.25 954.751 1523.82 Q952.928 1524.4 950.845 1525.56 L950.845 1522.02 Q952.963 1521.17 954.803 1520.73 Q956.643 1520.3 958.171 1520.3 Q962.199 1520.3 964.594 1522.31 Q966.99 1524.33 966.99 1527.69 Q966.99 1529.29 966.383 1530.73 Q965.792 1532.16 964.213 1534.1 Q963.779 1534.6 961.452 1537.02 Q959.126 1539.41 954.89 1543.74 Z" fill="#000000" fill-rule="evenodd" fill-opacity="1" /><path clip-path="url(#clip370)" d="M974.525 1520.77 L988.292 1520.77 L988.292 1523.72 L977.737 1523.72 L977.737 1530.07 Q978.501 1529.81 979.265 1529.69 Q980.028 1529.55 980.792 1529.55 Q985.133 1529.55 987.667 1531.93 Q990.202 1534.31 990.202 1538.37 Q990.202 1542.56 987.598 1544.88 Q984.994 1547.19 980.254 1547.19 Q978.622 1547.19 976.921 1546.91 Q975.237 1546.64 973.431 1546.08 L973.431 1542.56 Q974.994 1543.41 976.66 1543.82 Q978.327 1544.24 980.185 1544.24 Q983.188 1544.24 984.942 1542.66 Q986.695 1541.08 986.695 1538.37 Q986.695 1535.66 984.942 1534.08 Q983.188 1532.5 980.185 1532.5 Q978.778 1532.5 977.372 1532.82 Q975.983 1533.13 974.525 1533.79 L974.525 1520.77 Z" fill="#000000" fill-rule="evenodd" fill-opacity="1" /><path clip-path="url(#clip370)" d="M1004.13 1519.67 L1004.13 1551.38 L996.764 1551.38 L996.764 1548.89 L1000.91 1548.89 L1000.91 1522.16 L996.764 1522.16 L996.764 1519.67 L1004.13 1519.67 Z" fill="#000000" fill-rule="evenodd" fill-opacity="1" /><path clip-path="url(#clip370)" d="M1119.25 1519.52 L1119.25 1555.07 L1116.3 1555.07 L1116.3 1519.52 L1119.25 1519.52 Z" fill="#000000" fill-rule="evenodd" fill-opacity="1" /><path clip-path="url(#clip370)" d="M1146.67 1522.76 L1146.67 1526.46 Q1144.89 1524.81 1142.88 1524 Q1140.88 1523.18 1138.63 1523.18 Q1134.18 1523.18 1131.82 1525.91 Q1129.46 1528.62 1129.46 1533.75 Q1129.46 1538.88 1131.82 1541.6 Q1134.18 1544.31 1138.63 1544.31 Q1140.88 1544.31 1142.88 1543.49 Q1144.89 1542.68 1146.67 1541.03 L1146.67 1544.69 Q1144.83 1545.94 1142.76 1546.57 Q1140.71 1547.19 1138.42 1547.19 Q1132.53 1547.19 1129.15 1543.6 Q1125.76 1539.99 1125.76 1533.75 Q1125.76 1527.5 1129.15 1523.91 Q1132.53 1520.3 1138.42 1520.3 Q1140.75 1520.3 1142.79 1520.92 Q1144.86 1521.53 1146.67 1522.76 Z" fill="#000000" fill-rule="evenodd" fill-opacity="1" /><path clip-path="url(#clip370)" d="M1156.06 1519.52 L1156.06 1555.07 L1153.11 1555.07 L1153.11 1519.52 L1156.06 1519.52 Z" fill="#000000" fill-rule="evenodd" fill-opacity="1" /><path clip-path="url(#clip370)" d="M1177.83 1535.8 Q1177.95 1537.09 1179.04 1539.17 Q1180.33 1541.58 1182.76 1542.94 Q1185.14 1544.26 1187.71 1544.27 L1199.81 1544.27 L1199.81 1547.04 L1187.71 1547.04 Q1184.37 1547.04 1181.28 1545.32 Q1178.21 1543.6 1176.56 1540.54 Q1174.91 1537.49 1174.91 1534.24 Q1174.91 1531.03 1176.56 1527.97 Q1178.21 1524.92 1181.28 1523.18 Q1184.37 1521.44 1187.71 1521.44 L1199.81 1521.44 L1199.81 1524.21 L1187.71 1524.21 Q1185.14 1524.22 1182.76 1525.56 Q1180.35 1526.93 1179.04 1529.33 Q1177.93 1531.41 1177.78 1533.02 L1199.81 1533.02 L1199.81 1535.8 L1177.83 1535.8 Z" fill="#000000" fill-rule="evenodd" fill-opacity="1" /><path clip-path="url(#clip370)" d="M1225.17 1519.71 Q1222.85 1523.7 1221.72 1527.61 Q1220.59 1531.51 1220.59 1535.52 Q1220.59 1539.54 1221.72 1543.48 Q1222.86 1547.4 1225.17 1551.38 L1222.39 1551.38 Q1219.79 1547.3 1218.49 1543.35 Q1217.2 1539.41 1217.2 1535.52 Q1217.2 1531.65 1218.49 1527.73 Q1219.77 1523.81 1222.39 1519.71 L1225.17 1519.71 Z" fill="#000000" fill-rule="evenodd" fill-opacity="1" /><path clip-path="url(#clip370)" d="M1234.84 1543.74 L1247.08 1543.74 L1247.08 1546.69 L1230.62 1546.69 L1230.62 1543.74 Q1232.62 1541.67 1236.06 1538.2 Q1239.51 1534.71 1240.4 1533.7 Q1242.08 1531.81 1242.74 1530.51 Q1243.42 1529.19 1243.42 1527.92 Q1243.42 1525.85 1241.96 1524.55 Q1240.52 1523.25 1238.19 1523.25 Q1236.54 1523.25 1234.7 1523.82 Q1232.88 1524.4 1230.8 1525.56 L1230.8 1522.02 Q1232.92 1521.17 1234.76 1520.73 Q1236.6 1520.3 1238.12 1520.3 Q1242.15 1520.3 1244.55 1522.31 Q1246.94 1524.33 1246.94 1527.69 Q1246.94 1529.29 1246.34 1530.73 Q1245.74 1532.16 1244.16 1534.1 Q1243.73 1534.6 1241.4 1537.02 Q1239.08 1539.41 1234.84 1543.74 Z" fill="#000000" fill-rule="evenodd" fill-opacity="1" /><path clip-path="url(#clip370)" d="M1254.44 1542.28 L1258.11 1542.28 L1258.11 1546.69 L1254.44 1546.69 L1254.44 1542.28 Z" fill="#000000" fill-rule="evenodd" fill-opacity="1" /><path clip-path="url(#clip370)" d="M1268.77 1543.74 L1281.01 1543.74 L1281.01 1546.69 L1264.55 1546.69 L1264.55 1543.74 Q1266.54 1541.67 1269.98 1538.2 Q1273.44 1534.71 1274.32 1533.7 Q1276.01 1531.81 1276.66 1530.51 Q1277.34 1529.19 1277.34 1527.92 Q1277.34 1525.85 1275.88 1524.55 Q1274.44 1523.25 1272.12 1523.25 Q1270.47 1523.25 1268.63 1523.82 Q1266.8 1524.4 1264.72 1525.56 L1264.72 1522.02 Q1266.84 1521.17 1268.68 1520.73 Q1270.52 1520.3 1272.05 1520.3 Q1276.07 1520.3 1278.47 1522.31 Q1280.87 1524.33 1280.87 1527.69 Q1280.87 1529.29 1280.26 1530.73 Q1279.67 1532.16 1278.09 1534.1 Q1277.65 1534.6 1275.33 1537.02 Q1273 1539.41 1268.77 1543.74 Z" fill="#000000" fill-rule="evenodd" fill-opacity="1" /><path clip-path="url(#clip370)" d="M1288.4 1520.77 L1302.17 1520.77 L1302.17 1523.72 L1291.61 1523.72 L1291.61 1530.07 Q1292.38 1529.81 1293.14 1529.69 Q1293.9 1529.55 1294.67 1529.55 Q1299.01 1529.55 1301.54 1531.93 Q1304.08 1534.31 1304.08 1538.37 Q1304.08 1542.56 1301.47 1544.88 Q1298.87 1547.19 1294.13 1547.19 Q1292.5 1547.19 1290.8 1546.91 Q1289.11 1546.64 1287.31 1546.08 L1287.31 1542.56 Q1288.87 1543.41 1290.54 1543.82 Q1292.2 1544.24 1294.06 1544.24 Q1297.06 1544.24 1298.82 1542.66 Q1300.57 1541.08 1300.57 1538.37 Q1300.57 1535.66 1298.82 1534.08 Q1297.06 1532.5 1294.06 1532.5 Q1292.65 1532.5 1291.25 1532.82 Q1289.86 1533.13 1288.4 1533.79 L1288.4 1520.77 Z" fill="#000000" fill-rule="evenodd" fill-opacity="1" /><path clip-path="url(#clip370)" d="M1311.35 1542.28 L1315.02 1542.28 L1315.02 1545.26 L1312.17 1550.82 L1309.93 1550.82 L1311.35 1545.26 L1311.35 1542.28 Z" fill="#000000" fill-rule="evenodd" fill-opacity="1" /><path clip-path="url(#clip370)" d="M1325.31 1543.74 L1337.55 1543.74 L1337.55 1546.69 L1321.09 1546.69 L1321.09 1543.74 Q1323.09 1541.67 1326.53 1538.2 Q1329.98 1534.71 1330.87 1533.7 Q1332.55 1531.81 1333.21 1530.51 Q1333.89 1529.19 1333.89 1527.92 Q1333.89 1525.85 1332.43 1524.55 Q1330.99 1523.25 1328.66 1523.25 Q1327.01 1523.25 1325.17 1523.82 Q1323.35 1524.4 1321.27 1525.56 L1321.27 1522.02 Q1323.38 1521.17 1325.22 1520.73 Q1327.06 1520.3 1328.59 1520.3 Q1332.62 1520.3 1335.02 1522.31 Q1337.41 1524.33 1337.41 1527.69 Q1337.41 1529.29 1336.8 1530.73 Q1336.21 1532.16 1334.63 1534.1 Q1334.2 1534.6 1331.87 1537.02 Q1329.55 1539.41 1325.31 1543.74 Z" fill="#000000" fill-rule="evenodd" fill-opacity="1" /><path clip-path="url(#clip370)" d="M1344.91 1542.28 L1348.57 1542.28 L1348.57 1546.69 L1344.91 1546.69 L1344.91 1542.28 Z" fill="#000000" fill-rule="evenodd" fill-opacity="1" /><path clip-path="url(#clip370)" d="M1359.23 1543.74 L1371.47 1543.74 L1371.47 1546.69 L1355.02 1546.69 L1355.02 1543.74 Q1357.01 1541.67 1360.45 1538.2 Q1363.9 1534.71 1364.79 1533.7 Q1366.47 1531.81 1367.13 1530.51 Q1367.81 1529.19 1367.81 1527.92 Q1367.81 1525.85 1366.35 1524.55 Q1364.91 1523.25 1362.58 1523.25 Q1360.94 1523.25 1359.09 1523.82 Q1357.27 1524.4 1355.19 1525.56 L1355.19 1522.02 Q1357.31 1521.17 1359.15 1520.73 Q1360.99 1520.3 1362.52 1520.3 Q1366.54 1520.3 1368.94 1522.31 Q1371.33 1524.33 1371.33 1527.69 Q1371.33 1529.29 1370.73 1530.73 Q1370.14 1532.16 1368.56 1534.1 Q1368.12 1534.6 1365.8 1537.02 Q1363.47 1539.41 1359.23 1543.74 Z" fill="#000000" fill-rule="evenodd" fill-opacity="1" /><path clip-path="url(#clip370)" d="M1386.33 1534.38 Q1383.83 1534.38 1382.39 1535.72 Q1380.97 1537.05 1380.97 1539.4 Q1380.97 1541.74 1382.39 1543.08 Q1383.83 1544.41 1386.33 1544.41 Q1388.83 1544.41 1390.28 1543.08 Q1391.72 1541.72 1391.72 1539.4 Q1391.72 1537.05 1390.28 1535.72 Q1388.85 1534.38 1386.33 1534.38 M1382.83 1532.89 Q1380.57 1532.33 1379.3 1530.79 Q1378.05 1529.24 1378.05 1527.02 Q1378.05 1523.91 1380.26 1522.1 Q1382.48 1520.3 1386.33 1520.3 Q1390.21 1520.3 1392.41 1522.1 Q1394.62 1523.91 1394.62 1527.02 Q1394.62 1529.24 1393.35 1530.79 Q1392.1 1532.33 1389.86 1532.89 Q1392.39 1533.48 1393.8 1535.19 Q1395.22 1536.91 1395.22 1539.4 Q1395.22 1543.16 1392.91 1545.18 Q1390.62 1547.19 1386.33 1547.19 Q1382.05 1547.19 1379.74 1545.18 Q1377.45 1543.16 1377.45 1539.4 Q1377.45 1536.91 1378.87 1535.19 Q1380.29 1533.48 1382.83 1532.89 M1381.54 1527.35 Q1381.54 1529.36 1382.79 1530.49 Q1384.06 1531.62 1386.33 1531.62 Q1388.59 1531.62 1389.86 1530.49 Q1391.14 1529.36 1391.14 1527.35 Q1391.14 1525.33 1389.86 1524.21 Q1388.59 1523.08 1386.33 1523.08 Q1384.06 1523.08 1382.79 1524.21 Q1381.54 1525.33 1381.54 1527.35 Z" fill="#000000" fill-rule="evenodd" fill-opacity="1" /><path clip-path="url(#clip370)" d="M1408.47 1519.67 L1408.47 1551.38 L1401.11 1551.38 L1401.11 1548.89 L1405.26 1548.89 L1405.26 1522.16 L1401.11 1522.16 L1401.11 1519.67 L1408.47 1519.67 Z" fill="#000000" fill-rule="evenodd" fill-opacity="1" /><path clip-path="url(#clip370)" d="M1523.6 1519.52 L1523.6 1555.07 L1520.65 1555.07 L1520.65 1519.52 L1523.6 1519.52 Z" fill="#000000" fill-rule="evenodd" fill-opacity="1" /><path clip-path="url(#clip370)" d="M1551.01 1522.76 L1551.01 1526.46 Q1549.24 1524.81 1547.22 1524 Q1545.23 1523.18 1542.97 1523.18 Q1538.53 1523.18 1536.17 1525.91 Q1533.8 1528.62 1533.8 1533.75 Q1533.8 1538.88 1536.17 1541.6 Q1538.53 1544.31 1542.97 1544.31 Q1545.23 1544.31 1547.22 1543.49 Q1549.24 1542.68 1551.01 1541.03 L1551.01 1544.69 Q1549.17 1545.94 1547.1 1546.57 Q1545.05 1547.19 1542.76 1547.19 Q1536.88 1547.19 1533.49 1543.6 Q1530.11 1539.99 1530.11 1533.75 Q1530.11 1527.5 1533.49 1523.91 Q1536.88 1520.3 1542.76 1520.3 Q1545.09 1520.3 1547.14 1520.92 Q1549.2 1521.53 1551.01 1522.76 Z" fill="#000000" fill-rule="evenodd" fill-opacity="1" /><path clip-path="url(#clip370)" d="M1560.4 1519.52 L1560.4 1555.07 L1557.45 1555.07 L1557.45 1519.52 L1560.4 1519.52 Z" fill="#000000" fill-rule="evenodd" fill-opacity="1" /><path clip-path="url(#clip370)" d="M1582.17 1535.8 Q1582.29 1537.09 1583.39 1539.17 Q1584.67 1541.58 1587.1 1542.94 Q1589.48 1544.26 1592.05 1544.27 L1604.15 1544.27 L1604.15 1547.04 L1592.05 1547.04 Q1588.72 1547.04 1585.63 1545.32 Q1582.55 1543.6 1580.91 1540.54 Q1579.26 1537.49 1579.26 1534.24 Q1579.26 1531.03 1580.91 1527.97 Q1582.55 1524.92 1585.63 1523.18 Q1588.72 1521.44 1592.05 1521.44 L1604.15 1521.44 L1604.15 1524.21 L1592.05 1524.21 Q1589.48 1524.22 1587.1 1525.56 Q1584.69 1526.93 1583.39 1529.33 Q1582.28 1531.41 1582.12 1533.02 L1604.15 1533.02 L1604.15 1535.8 L1582.17 1535.8 Z" fill="#000000" fill-rule="evenodd" fill-opacity="1" /><path clip-path="url(#clip370)" d="M1629.52 1519.71 Q1627.19 1523.7 1626.06 1527.61 Q1624.93 1531.51 1624.93 1535.52 Q1624.93 1539.54 1626.06 1543.48 Q1627.21 1547.4 1629.52 1551.38 L1626.74 1551.38 Q1624.13 1547.3 1622.83 1543.35 Q1621.55 1539.41 1621.55 1535.52 Q1621.55 1531.65 1622.83 1527.73 Q1624.12 1523.81 1626.74 1519.71 L1629.52 1519.71 Z" fill="#000000" fill-rule="evenodd" fill-opacity="1" /><path clip-path="url(#clip370)" d="M1639.19 1543.74 L1651.43 1543.74 L1651.43 1546.69 L1634.97 1546.69 L1634.97 1543.74 Q1636.96 1541.67 1640.4 1538.2 Q1643.86 1534.71 1644.74 1533.7 Q1646.43 1531.81 1647.09 1530.51 Q1647.76 1529.19 1647.76 1527.92 Q1647.76 1525.85 1646.3 1524.55 Q1644.86 1523.25 1642.54 1523.25 Q1640.89 1523.25 1639.05 1523.82 Q1637.22 1524.4 1635.14 1525.56 L1635.14 1522.02 Q1637.26 1521.17 1639.1 1520.73 Q1640.94 1520.3 1642.47 1520.3 Q1646.5 1520.3 1648.89 1522.31 Q1651.29 1524.33 1651.29 1527.69 Q1651.29 1529.29 1650.68 1530.73 Q1650.09 1532.16 1648.51 1534.1 Q1648.08 1534.6 1645.75 1537.02 Q1643.42 1539.41 1639.19 1543.74 Z" fill="#000000" fill-rule="evenodd" fill-opacity="1" /><path clip-path="url(#clip370)" d="M1658.79 1542.28 L1662.45 1542.28 L1662.45 1546.69 L1658.79 1546.69 L1658.79 1542.28 Z" fill="#000000" fill-rule="evenodd" fill-opacity="1" /><path clip-path="url(#clip370)" d="M1673.11 1543.74 L1685.35 1543.74 L1685.35 1546.69 L1668.89 1546.69 L1668.89 1543.74 Q1670.89 1541.67 1674.32 1538.2 Q1677.78 1534.71 1678.67 1533.7 Q1680.35 1531.81 1681.01 1530.51 Q1681.69 1529.19 1681.69 1527.92 Q1681.69 1525.85 1680.23 1524.55 Q1678.79 1523.25 1676.46 1523.25 Q1674.81 1523.25 1672.97 1523.82 Q1671.15 1524.4 1669.06 1525.56 L1669.06 1522.02 Q1671.18 1521.17 1673.02 1520.73 Q1674.86 1520.3 1676.39 1520.3 Q1680.42 1520.3 1682.81 1522.31 Q1685.21 1524.33 1685.21 1527.69 Q1685.21 1529.29 1684.6 1530.73 Q1684.01 1532.16 1682.43 1534.1 Q1682 1534.6 1679.67 1537.02 Q1677.35 1539.41 1673.11 1543.74 Z" fill="#000000" fill-rule="evenodd" fill-opacity="1" /><path clip-path="url(#clip370)" d="M1700.21 1534.38 Q1697.71 1534.38 1696.27 1535.72 Q1694.85 1537.05 1694.85 1539.4 Q1694.85 1541.74 1696.27 1543.08 Q1697.71 1544.41 1700.21 1544.41 Q1702.71 1544.41 1704.15 1543.08 Q1705.59 1541.72 1705.59 1539.4 Q1705.59 1537.05 1704.15 1535.72 Q1702.73 1534.38 1700.21 1534.38 M1696.7 1532.89 Q1694.45 1532.33 1693.18 1530.79 Q1691.93 1529.24 1691.93 1527.02 Q1691.93 1523.91 1694.13 1522.1 Q1696.36 1520.3 1700.21 1520.3 Q1704.08 1520.3 1706.29 1522.1 Q1708.49 1523.91 1708.49 1527.02 Q1708.49 1529.24 1707.22 1530.79 Q1705.97 1532.33 1703.73 1532.89 Q1706.27 1533.48 1707.68 1535.19 Q1709.1 1536.91 1709.1 1539.4 Q1709.1 1543.16 1706.79 1545.18 Q1704.5 1547.19 1700.21 1547.19 Q1695.92 1547.19 1693.61 1545.18 Q1691.32 1543.16 1691.32 1539.4 Q1691.32 1536.91 1692.74 1535.19 Q1694.17 1533.48 1696.7 1532.89 M1695.42 1527.35 Q1695.42 1529.36 1696.67 1530.49 Q1697.94 1531.62 1700.21 1531.62 Q1702.47 1531.62 1703.73 1530.49 Q1705.02 1529.36 1705.02 1527.35 Q1705.02 1525.33 1703.73 1524.21 Q1702.47 1523.08 1700.21 1523.08 Q1697.94 1523.08 1696.67 1524.21 Q1695.42 1525.33 1695.42 1527.35 Z" fill="#000000" fill-rule="evenodd" fill-opacity="1" /><path clip-path="url(#clip370)" d="M1715.7 1542.28 L1719.36 1542.28 L1719.36 1545.26 L1716.51 1550.82 L1714.27 1550.82 L1715.7 1545.26 L1715.7 1542.28 Z" fill="#000000" fill-rule="evenodd" fill-opacity="1" /><path clip-path="url(#clip370)" d="M1729.65 1543.74 L1741.89 1543.74 L1741.89 1546.69 L1725.44 1546.69 L1725.44 1543.74 Q1727.43 1541.67 1730.87 1538.2 Q1734.32 1534.71 1735.21 1533.7 Q1736.89 1531.81 1737.55 1530.51 Q1738.23 1529.19 1738.23 1527.92 Q1738.23 1525.85 1736.77 1524.55 Q1735.33 1523.25 1733.01 1523.25 Q1731.36 1523.25 1729.52 1523.82 Q1727.69 1524.4 1725.61 1525.56 L1725.61 1522.02 Q1727.73 1521.17 1729.57 1520.73 Q1731.41 1520.3 1732.94 1520.3 Q1736.96 1520.3 1739.36 1522.31 Q1741.76 1524.33 1741.76 1527.69 Q1741.76 1529.29 1741.15 1530.73 Q1740.56 1532.16 1738.98 1534.1 Q1738.54 1534.6 1736.22 1537.02 Q1733.89 1539.41 1729.65 1543.74 Z" fill="#000000" fill-rule="evenodd" fill-opacity="1" /><path clip-path="url(#clip370)" d="M1749.26 1542.28 L1752.92 1542.28 L1752.92 1546.69 L1749.26 1546.69 L1749.26 1542.28 Z" fill="#000000" fill-rule="evenodd" fill-opacity="1" /><path clip-path="url(#clip370)" d="M1771.18 1532.71 Q1773.7 1533.25 1775.11 1534.95 Q1776.53 1536.65 1776.53 1539.15 Q1776.53 1542.99 1773.89 1545.09 Q1771.25 1547.19 1766.39 1547.19 Q1764.76 1547.19 1763.02 1546.86 Q1761.3 1546.55 1759.46 1545.91 L1759.46 1542.52 Q1760.92 1543.37 1762.66 1543.81 Q1764.39 1544.24 1766.29 1544.24 Q1769.58 1544.24 1771.3 1542.94 Q1773.04 1541.64 1773.04 1539.15 Q1773.04 1536.86 1771.43 1535.58 Q1769.83 1534.27 1766.96 1534.27 L1763.94 1534.27 L1763.94 1531.39 L1767.1 1531.39 Q1769.69 1531.39 1771.06 1530.37 Q1772.43 1529.33 1772.43 1527.38 Q1772.43 1525.39 1771.01 1524.33 Q1769.6 1523.25 1766.96 1523.25 Q1765.52 1523.25 1763.87 1523.56 Q1762.22 1523.88 1760.24 1524.54 L1760.24 1521.41 Q1762.24 1520.85 1763.98 1520.58 Q1765.73 1520.3 1767.28 1520.3 Q1771.27 1520.3 1773.6 1522.12 Q1775.92 1523.93 1775.92 1527.02 Q1775.92 1529.17 1774.69 1530.66 Q1773.46 1532.14 1771.18 1532.71 Z" fill="#000000" fill-rule="evenodd" fill-opacity="1" /><path clip-path="url(#clip370)" d="M1786.2 1543.74 L1798.44 1543.74 L1798.44 1546.69 L1781.98 1546.69 L1781.98 1543.74 Q1783.98 1541.67 1787.41 1538.2 Q1790.87 1534.71 1791.75 1533.7 Q1793.44 1531.81 1794.1 1530.51 Q1794.78 1529.19 1794.78 1527.92 Q1794.78 1525.85 1793.32 1524.55 Q1791.88 1523.25 1789.55 1523.25 Q1787.9 1523.25 1786.06 1523.82 Q1784.24 1524.4 1782.15 1525.56 L1782.15 1522.02 Q1784.27 1521.17 1786.11 1520.73 Q1787.95 1520.3 1789.48 1520.3 Q1793.51 1520.3 1795.9 1522.31 Q1798.3 1524.33 1798.3 1527.69 Q1798.3 1529.29 1797.69 1530.73 Q1797.1 1532.16 1795.52 1534.1 Q1795.09 1534.6 1792.76 1537.02 Q1790.44 1539.41 1786.2 1543.74 Z" fill="#000000" fill-rule="evenodd" fill-opacity="1" /><path clip-path="url(#clip370)" d="M1812.81 1519.67 L1812.81 1551.38 L1805.45 1551.38 L1805.45 1548.89 L1809.6 1548.89 L1809.6 1522.16 L1805.45 1522.16 L1805.45 1519.67 L1812.81 1519.67 Z" fill="#000000" fill-rule="evenodd" fill-opacity="1" /><path clip-path="url(#clip370)" d="M1927.94 1519.52 L1927.94 1555.07 L1924.99 1555.07 L1924.99 1519.52 L1927.94 1519.52 Z" fill="#000000" fill-rule="evenodd" fill-opacity="1" /><path clip-path="url(#clip370)" d="M1955.35 1522.76 L1955.35 1526.46 Q1953.58 1524.81 1951.57 1524 Q1949.57 1523.18 1947.32 1523.18 Q1942.87 1523.18 1940.51 1525.91 Q1938.15 1528.62 1938.15 1533.75 Q1938.15 1538.88 1940.51 1541.6 Q1942.87 1544.31 1947.32 1544.31 Q1949.57 1544.31 1951.57 1543.49 Q1953.58 1542.68 1955.35 1541.03 L1955.35 1544.69 Q1953.51 1545.94 1951.45 1546.57 Q1949.4 1547.19 1947.11 1547.19 Q1941.22 1547.19 1937.84 1543.6 Q1934.45 1539.99 1934.45 1533.75 Q1934.45 1527.5 1937.84 1523.91 Q1941.22 1520.3 1947.11 1520.3 Q1949.43 1520.3 1951.48 1520.92 Q1953.55 1521.53 1955.35 1522.76 Z" fill="#000000" fill-rule="evenodd" fill-opacity="1" /><path clip-path="url(#clip370)" d="M1964.75 1519.52 L1964.75 1555.07 L1961.79 1555.07 L1961.79 1519.52 L1964.75 1519.52 Z" fill="#000000" fill-rule="evenodd" fill-opacity="1" /><path clip-path="url(#clip370)" d="M1986.52 1535.8 Q1986.64 1537.09 1987.73 1539.17 Q1989.02 1541.58 1991.45 1542.94 Q1993.83 1544.26 1996.4 1544.27 L2008.5 1544.27 L2008.5 1547.04 L1996.4 1547.04 Q1993.06 1547.04 1989.97 1545.32 Q1986.9 1543.6 1985.25 1540.54 Q1983.6 1537.49 1983.6 1534.24 Q1983.6 1531.03 1985.25 1527.97 Q1986.9 1524.92 1989.97 1523.18 Q1993.06 1521.44 1996.4 1521.44 L2008.5 1521.44 L2008.5 1524.21 L1996.4 1524.21 Q1993.83 1524.22 1991.45 1525.56 Q1989.03 1526.93 1987.73 1529.33 Q1986.62 1531.41 1986.46 1533.02 L2008.5 1533.02 L2008.5 1535.8 L1986.52 1535.8 Z" fill="#000000" fill-rule="evenodd" fill-opacity="1" /><path clip-path="url(#clip370)" d="M2033.86 1519.71 Q2031.53 1523.7 2030.41 1527.61 Q2029.28 1531.51 2029.28 1535.52 Q2029.28 1539.54 2030.41 1543.48 Q2031.55 1547.4 2033.86 1551.38 L2031.08 1551.38 Q2028.48 1547.3 2027.18 1543.35 Q2025.89 1539.41 2025.89 1535.52 Q2025.89 1531.65 2027.18 1527.73 Q2028.46 1523.81 2031.08 1519.71 L2033.86 1519.71 Z" fill="#000000" fill-rule="evenodd" fill-opacity="1" /><path clip-path="url(#clip370)" d="M2043.53 1543.74 L2055.77 1543.74 L2055.77 1546.69 L2039.31 1546.69 L2039.31 1543.74 Q2041.31 1541.67 2044.75 1538.2 Q2048.2 1534.71 2049.09 1533.7 Q2050.77 1531.81 2051.43 1530.51 Q2052.11 1529.19 2052.11 1527.92 Q2052.11 1525.85 2050.65 1524.55 Q2049.21 1523.25 2046.88 1523.25 Q2045.23 1523.25 2043.39 1523.82 Q2041.57 1524.4 2039.49 1525.56 L2039.49 1522.02 Q2041.6 1521.17 2043.44 1520.73 Q2045.28 1520.3 2046.81 1520.3 Q2050.84 1520.3 2053.24 1522.31 Q2055.63 1524.33 2055.63 1527.69 Q2055.63 1529.29 2055.02 1530.73 Q2054.43 1532.16 2052.85 1534.1 Q2052.42 1534.6 2050.09 1537.02 Q2047.77 1539.41 2043.53 1543.74 Z" fill="#000000" fill-rule="evenodd" fill-opacity="1" /><path clip-path="url(#clip370)" d="M2063.13 1542.28 L2066.79 1542.28 L2066.79 1546.69 L2063.13 1546.69 L2063.13 1542.28 Z" fill="#000000" fill-rule="evenodd" fill-opacity="1" /><path clip-path="url(#clip370)" d="M2085.06 1532.71 Q2087.58 1533.25 2088.98 1534.95 Q2090.41 1536.65 2090.41 1539.15 Q2090.41 1542.99 2087.77 1545.09 Q2085.13 1547.19 2080.27 1547.19 Q2078.63 1547.19 2076.9 1546.86 Q2075.18 1546.55 2073.34 1545.91 L2073.34 1542.52 Q2074.8 1543.37 2076.53 1543.81 Q2078.27 1544.24 2080.16 1544.24 Q2083.46 1544.24 2085.18 1542.94 Q2086.92 1541.64 2086.92 1539.15 Q2086.92 1536.86 2085.3 1535.58 Q2083.7 1534.27 2080.84 1534.27 L2077.82 1534.27 L2077.82 1531.39 L2080.98 1531.39 Q2083.56 1531.39 2084.94 1530.37 Q2086.31 1529.33 2086.31 1527.38 Q2086.31 1525.39 2084.88 1524.33 Q2083.48 1523.25 2080.84 1523.25 Q2079.4 1523.25 2077.75 1523.56 Q2076.1 1523.88 2074.12 1524.54 L2074.12 1521.41 Q2076.12 1520.85 2077.85 1520.58 Q2079.61 1520.3 2081.15 1520.3 Q2085.14 1520.3 2087.47 1522.12 Q2089.8 1523.93 2089.8 1527.02 Q2089.8 1529.17 2088.56 1530.66 Q2087.33 1532.14 2085.06 1532.71 Z" fill="#000000" fill-rule="evenodd" fill-opacity="1" /><path clip-path="url(#clip370)" d="M2100.08 1543.74 L2112.31 1543.74 L2112.31 1546.69 L2095.86 1546.69 L2095.86 1543.74 Q2097.85 1541.67 2101.29 1538.2 Q2104.75 1534.71 2105.63 1533.7 Q2107.31 1531.81 2107.97 1530.51 Q2108.65 1529.19 2108.65 1527.92 Q2108.65 1525.85 2107.19 1524.55 Q2105.75 1523.25 2103.43 1523.25 Q2101.78 1523.25 2099.94 1523.82 Q2098.11 1524.4 2096.03 1525.56 L2096.03 1522.02 Q2098.15 1521.17 2099.99 1520.73 Q2101.83 1520.3 2103.36 1520.3 Q2107.38 1520.3 2109.78 1522.31 Q2112.18 1524.33 2112.18 1527.69 Q2112.18 1529.29 2111.57 1530.73 Q2110.98 1532.16 2109.4 1534.1 Q2108.96 1534.6 2106.64 1537.02 Q2104.31 1539.41 2100.08 1543.74 Z" fill="#000000" fill-rule="evenodd" fill-opacity="1" /><path clip-path="url(#clip370)" d="M2120.04 1542.28 L2123.7 1542.28 L2123.7 1545.26 L2120.86 1550.82 L2118.62 1550.82 L2120.04 1545.26 L2120.04 1542.28 Z" fill="#000000" fill-rule="evenodd" fill-opacity="1" /><path clip-path="url(#clip370)" d="M2134 1543.74 L2146.24 1543.74 L2146.24 1546.69 L2129.78 1546.69 L2129.78 1543.74 Q2131.78 1541.67 2135.21 1538.2 Q2138.67 1534.71 2139.55 1533.7 Q2141.24 1531.81 2141.9 1530.51 Q2142.57 1529.19 2142.57 1527.92 Q2142.57 1525.85 2141.12 1524.55 Q2139.68 1523.25 2137.35 1523.25 Q2135.7 1523.25 2133.86 1523.82 Q2132.04 1524.4 2129.95 1525.56 L2129.95 1522.02 Q2132.07 1521.17 2133.91 1520.73 Q2135.75 1520.3 2137.28 1520.3 Q2141.31 1520.3 2143.7 1522.31 Q2146.1 1524.33 2146.1 1527.69 Q2146.1 1529.29 2145.49 1530.73 Q2144.9 1532.16 2143.32 1534.1 Q2142.89 1534.6 2140.56 1537.02 Q2138.23 1539.41 2134 1543.74 Z" fill="#000000" fill-rule="evenodd" fill-opacity="1" /><path clip-path="url(#clip370)" d="M2153.6 1542.28 L2157.26 1542.28 L2157.26 1546.69 L2153.6 1546.69 L2153.6 1542.28 Z" fill="#000000" fill-rule="evenodd" fill-opacity="1" /><path clip-path="url(#clip370)" d="M2175.53 1532.71 Q2178.04 1533.25 2179.45 1534.95 Q2180.87 1536.65 2180.87 1539.15 Q2180.87 1542.99 2178.23 1545.09 Q2175.6 1547.19 2170.73 1547.19 Q2169.1 1547.19 2167.37 1546.86 Q2165.65 1546.55 2163.81 1545.91 L2163.81 1542.52 Q2165.27 1543.37 2167 1543.81 Q2168.74 1544.24 2170.63 1544.24 Q2173.93 1544.24 2175.65 1542.94 Q2177.38 1541.64 2177.38 1539.15 Q2177.38 1536.86 2175.77 1535.58 Q2174.17 1534.27 2171.31 1534.27 L2168.29 1534.27 L2168.29 1531.39 L2171.45 1531.39 Q2174.03 1531.39 2175.4 1530.37 Q2176.78 1529.33 2176.78 1527.38 Q2176.78 1525.39 2175.35 1524.33 Q2173.95 1523.25 2171.31 1523.25 Q2169.87 1523.25 2168.22 1523.56 Q2166.57 1523.88 2164.59 1524.54 L2164.59 1521.41 Q2166.59 1520.85 2168.32 1520.58 Q2170.07 1520.3 2171.62 1520.3 Q2175.61 1520.3 2177.94 1522.12 Q2180.27 1523.93 2180.27 1527.02 Q2180.27 1529.17 2179.03 1530.66 Q2177.8 1532.14 2175.53 1532.71 Z" fill="#000000" fill-rule="evenodd" fill-opacity="1" /><path clip-path="url(#clip370)" d="M2195.46 1532.33 Q2193.1 1532.33 2191.71 1533.94 Q2190.34 1535.56 2190.34 1538.37 Q2190.34 1541.17 2191.71 1542.8 Q2193.1 1544.41 2195.46 1544.41 Q2197.82 1544.41 2199.19 1542.8 Q2200.58 1541.17 2200.58 1538.37 Q2200.58 1535.56 2199.19 1533.94 Q2197.82 1532.33 2195.46 1532.33 M2202.42 1521.34 L2202.42 1524.54 Q2201.1 1523.91 2199.74 1523.58 Q2198.41 1523.25 2197.09 1523.25 Q2193.62 1523.25 2191.78 1525.59 Q2189.95 1527.94 2189.69 1532.68 Q2190.72 1531.17 2192.26 1530.37 Q2193.81 1529.55 2195.66 1529.55 Q2199.57 1529.55 2201.83 1531.93 Q2204.1 1534.29 2204.1 1538.37 Q2204.1 1542.36 2201.74 1544.78 Q2199.38 1547.19 2195.46 1547.19 Q2190.96 1547.19 2188.58 1543.75 Q2186.2 1540.3 2186.2 1533.75 Q2186.2 1527.61 2189.12 1523.96 Q2192.04 1520.3 2196.95 1520.3 Q2198.27 1520.3 2199.61 1520.56 Q2200.96 1520.82 2202.42 1521.34 Z" fill="#000000" fill-rule="evenodd" fill-opacity="1" /><path clip-path="url(#clip370)" d="M2217.16 1519.67 L2217.16 1551.38 L2209.8 1551.38 L2209.8 1548.89 L2213.95 1548.89 L2213.95 1522.16 L2209.8 1522.16 L2209.8 1519.67 L2217.16 1519.67 Z" fill="#000000" fill-rule="evenodd" fill-opacity="1" /><polyline clip-path="url(#clip372)" style="stroke:#000000; stroke-linecap:round; stroke-linejoin:round; stroke-width:2; stroke-opacity:0.1; fill:none" points="
  172.015,1454.11 2352.76,1454.11 
  "/>
<polyline clip-path="url(#clip372)" style="stroke:#000000; stroke-linecap:round; stroke-linejoin:round; stroke-width:2; stroke-opacity:0.1; fill:none" points="
  172.015,1141.55 2352.76,1141.55 
  "/>
<polyline clip-path="url(#clip372)" style="stroke:#000000; stroke-linecap:round; stroke-linejoin:round; stroke-width:2; stroke-opacity:0.1; fill:none" points="
  172.015,828.99 2352.76,828.99 
  "/>
<polyline clip-path="url(#clip372)" style="stroke:#000000; stroke-linecap:round; stroke-linejoin:round; stroke-width:2; stroke-opacity:0.1; fill:none" points="
  172.015,516.429 2352.76,516.429 
  "/>
<polyline clip-path="url(#clip372)" style="stroke:#000000; stroke-linecap:round; stroke-linejoin:round; stroke-width:2; stroke-opacity:0.1; fill:none" points="
  172.015,203.868 2352.76,203.868 
  "/>
<polyline clip-path="url(#clip370)" style="stroke:#000000; stroke-linecap:round; stroke-linejoin:round; stroke-width:4; stroke-opacity:1; fill:none" points="
  172.015,1495.09 172.015,47.2441 
  "/>
<polyline clip-path="url(#clip370)" style="stroke:#000000; stroke-linecap:round; stroke-linejoin:round; stroke-width:4; stroke-opacity:1; fill:none" points="
  172.015,1454.11 190.912,1454.11 
  "/>
<polyline clip-path="url(#clip370)" style="stroke:#000000; stroke-linecap:round; stroke-linejoin:round; stroke-width:4; stroke-opacity:1; fill:none" points="
  172.015,1141.55 190.912,1141.55 
  "/>
<polyline clip-path="url(#clip370)" style="stroke:#000000; stroke-linecap:round; stroke-linejoin:round; stroke-width:4; stroke-opacity:1; fill:none" points="
  172.015,828.99 190.912,828.99 
  "/>
<polyline clip-path="url(#clip370)" style="stroke:#000000; stroke-linecap:round; stroke-linejoin:round; stroke-width:4; stroke-opacity:1; fill:none" points="
  172.015,516.429 190.912,516.429 
  "/>
<polyline clip-path="url(#clip370)" style="stroke:#000000; stroke-linecap:round; stroke-linejoin:round; stroke-width:4; stroke-opacity:1; fill:none" points="
  172.015,203.868 190.912,203.868 
  "/>
<path clip-path="url(#clip370)" d="M124.07 1439.91 Q120.459 1439.91 118.631 1443.47 Q116.825 1447.02 116.825 1454.15 Q116.825 1461.25 118.631 1464.82 Q120.459 1468.36 124.07 1468.36 Q127.705 1468.36 129.51 1464.82 Q131.339 1461.25 131.339 1454.15 Q131.339 1447.02 129.51 1443.47 Q127.705 1439.91 124.07 1439.91 M124.07 1436.21 Q129.881 1436.21 132.936 1440.81 Q136.015 1445.4 136.015 1454.15 Q136.015 1462.87 132.936 1467.48 Q129.881 1472.06 124.07 1472.06 Q118.26 1472.06 115.182 1467.48 Q112.126 1462.87 112.126 1454.15 Q112.126 1445.4 115.182 1440.81 Q118.26 1436.21 124.07 1436.21 Z" fill="#000000" fill-rule="evenodd" fill-opacity="1" /><path clip-path="url(#clip370)" d="M54.5569 1154.9 L62.1958 1154.9 L62.1958 1128.53 L53.8856 1130.2 L53.8856 1125.94 L62.1495 1124.27 L66.8254 1124.27 L66.8254 1154.9 L74.4642 1154.9 L74.4642 1158.83 L54.5569 1158.83 L54.5569 1154.9 Z" fill="#000000" fill-rule="evenodd" fill-opacity="1" /><path clip-path="url(#clip370)" d="M93.9086 1127.35 Q90.2975 1127.35 88.4688 1130.91 Q86.6632 1134.46 86.6632 1141.59 Q86.6632 1148.69 88.4688 1152.26 Q90.2975 1155.8 93.9086 1155.8 Q97.5428 1155.8 99.3483 1152.26 Q101.177 1148.69 101.177 1141.59 Q101.177 1134.46 99.3483 1130.91 Q97.5428 1127.35 93.9086 1127.35 M93.9086 1123.65 Q99.7187 1123.65 102.774 1128.25 Q105.853 1132.84 105.853 1141.59 Q105.853 1150.31 102.774 1154.92 Q99.7187 1159.5 93.9086 1159.5 Q88.0984 1159.5 85.0197 1154.92 Q81.9642 1150.31 81.9642 1141.59 Q81.9642 1132.84 85.0197 1128.25 Q88.0984 1123.65 93.9086 1123.65 Z" fill="#000000" fill-rule="evenodd" fill-opacity="1" /><path clip-path="url(#clip370)" d="M124.07 1127.35 Q120.459 1127.35 118.631 1130.91 Q116.825 1134.46 116.825 1141.59 Q116.825 1148.69 118.631 1152.26 Q120.459 1155.8 124.07 1155.8 Q127.705 1155.8 129.51 1152.26 Q131.339 1148.69 131.339 1141.59 Q131.339 1134.46 129.51 1130.91 Q127.705 1127.35 124.07 1127.35 M124.07 1123.65 Q129.881 1123.65 132.936 1128.25 Q136.015 1132.84 136.015 1141.59 Q136.015 1150.31 132.936 1154.92 Q129.881 1159.5 124.07 1159.5 Q118.26 1159.5 115.182 1154.92 Q112.126 1150.31 112.126 1141.59 Q112.126 1132.84 115.182 1128.25 Q118.26 1123.65 124.07 1123.65 Z" fill="#000000" fill-rule="evenodd" fill-opacity="1" /><path clip-path="url(#clip370)" d="M57.7745 842.335 L74.0939 842.335 L74.0939 846.27 L52.1495 846.27 L52.1495 842.335 Q54.8115 839.58 59.3949 834.95 Q64.0013 830.298 65.1819 828.955 Q67.4272 826.432 68.3068 824.696 Q69.2096 822.937 69.2096 821.247 Q69.2096 818.492 67.2652 816.756 Q65.3439 815.02 62.2421 815.02 Q60.043 815.02 57.5893 815.784 Q55.1588 816.548 52.381 818.099 L52.381 813.376 Q55.2051 812.242 57.6588 811.663 Q60.1124 811.085 62.1495 811.085 Q67.5198 811.085 70.7142 813.77 Q73.9087 816.455 73.9087 820.946 Q73.9087 823.075 73.0985 824.997 Q72.3115 826.895 70.205 829.487 Q69.6263 830.159 66.5245 833.376 Q63.4226 836.571 57.7745 842.335 Z" fill="#000000" fill-rule="evenodd" fill-opacity="1" /><path clip-path="url(#clip370)" d="M93.9086 814.788 Q90.2975 814.788 88.4688 818.353 Q86.6632 821.895 86.6632 829.024 Q86.6632 836.131 88.4688 839.696 Q90.2975 843.237 93.9086 843.237 Q97.5428 843.237 99.3483 839.696 Q101.177 836.131 101.177 829.024 Q101.177 821.895 99.3483 818.353 Q97.5428 814.788 93.9086 814.788 M93.9086 811.085 Q99.7187 811.085 102.774 815.691 Q105.853 820.274 105.853 829.024 Q105.853 837.751 102.774 842.358 Q99.7187 846.941 93.9086 846.941 Q88.0984 846.941 85.0197 842.358 Q81.9642 837.751 81.9642 829.024 Q81.9642 820.274 85.0197 815.691 Q88.0984 811.085 93.9086 811.085 Z" fill="#000000" fill-rule="evenodd" fill-opacity="1" /><path clip-path="url(#clip370)" d="M124.07 814.788 Q120.459 814.788 118.631 818.353 Q116.825 821.895 116.825 829.024 Q116.825 836.131 118.631 839.696 Q120.459 843.237 124.07 843.237 Q127.705 843.237 129.51 839.696 Q131.339 836.131 131.339 829.024 Q131.339 821.895 129.51 818.353 Q127.705 814.788 124.07 814.788 M124.07 811.085 Q129.881 811.085 132.936 815.691 Q136.015 820.274 136.015 829.024 Q136.015 837.751 132.936 842.358 Q129.881 846.941 124.07 846.941 Q118.26 846.941 115.182 842.358 Q112.126 837.751 112.126 829.024 Q112.126 820.274 115.182 815.691 Q118.26 811.085 124.07 811.085 Z" fill="#000000" fill-rule="evenodd" fill-opacity="1" /><path clip-path="url(#clip370)" d="M67.9133 515.075 Q71.2698 515.792 73.1448 518.061 Q75.0429 520.329 75.0429 523.663 Q75.0429 528.778 71.5244 531.579 Q68.0059 534.38 61.5245 534.38 Q59.3486 534.38 57.0338 533.94 Q54.7421 533.524 52.2884 532.667 L52.2884 528.153 Q54.2328 529.288 56.5477 529.866 Q58.8625 530.445 61.3856 530.445 Q65.7837 530.445 68.0754 528.709 Q70.3902 526.973 70.3902 523.663 Q70.3902 520.607 68.2374 518.894 Q66.1078 517.158 62.2884 517.158 L58.2606 517.158 L58.2606 513.316 L62.4735 513.316 Q65.9226 513.316 67.7513 511.95 Q69.58 510.561 69.58 507.968 Q69.58 505.306 67.6819 503.894 Q65.8069 502.459 62.2884 502.459 Q60.3671 502.459 58.168 502.876 Q55.969 503.292 53.3301 504.172 L53.3301 500.005 Q55.9921 499.265 58.3069 498.894 Q60.6449 498.524 62.705 498.524 Q68.0291 498.524 71.1309 500.955 Q74.2327 503.362 74.2327 507.482 Q74.2327 510.353 72.5892 512.343 Q70.9457 514.311 67.9133 515.075 Z" fill="#000000" fill-rule="evenodd" fill-opacity="1" /><path clip-path="url(#clip370)" d="M93.9086 502.228 Q90.2975 502.228 88.4688 505.792 Q86.6632 509.334 86.6632 516.464 Q86.6632 523.57 88.4688 527.135 Q90.2975 530.677 93.9086 530.677 Q97.5428 530.677 99.3483 527.135 Q101.177 523.57 101.177 516.464 Q101.177 509.334 99.3483 505.792 Q97.5428 502.228 93.9086 502.228 M93.9086 498.524 Q99.7187 498.524 102.774 503.13 Q105.853 507.714 105.853 516.464 Q105.853 525.191 102.774 529.797 Q99.7187 534.38 93.9086 534.38 Q88.0984 534.38 85.0197 529.797 Q81.9642 525.191 81.9642 516.464 Q81.9642 507.714 85.0197 503.13 Q88.0984 498.524 93.9086 498.524 Z" fill="#000000" fill-rule="evenodd" fill-opacity="1" /><path clip-path="url(#clip370)" d="M124.07 502.228 Q120.459 502.228 118.631 505.792 Q116.825 509.334 116.825 516.464 Q116.825 523.57 118.631 527.135 Q120.459 530.677 124.07 530.677 Q127.705 530.677 129.51 527.135 Q131.339 523.57 131.339 516.464 Q131.339 509.334 129.51 505.792 Q127.705 502.228 124.07 502.228 M124.07 498.524 Q129.881 498.524 132.936 503.13 Q136.015 507.714 136.015 516.464 Q136.015 525.191 132.936 529.797 Q129.881 534.38 124.07 534.38 Q118.26 534.38 115.182 529.797 Q112.126 525.191 112.126 516.464 Q112.126 507.714 115.182 503.13 Q118.26 498.524 124.07 498.524 Z" fill="#000000" fill-rule="evenodd" fill-opacity="1" /><path clip-path="url(#clip370)" d="M66.5939 190.662 L54.7884 209.111 L66.5939 209.111 L66.5939 190.662 M65.367 186.588 L71.2466 186.588 L71.2466 209.111 L76.1772 209.111 L76.1772 213 L71.2466 213 L71.2466 221.148 L66.5939 221.148 L66.5939 213 L50.9921 213 L50.9921 208.486 L65.367 186.588 Z" fill="#000000" fill-rule="evenodd" fill-opacity="1" /><path clip-path="url(#clip370)" d="M93.9086 189.667 Q90.2975 189.667 88.4688 193.232 Q86.6632 196.773 86.6632 203.903 Q86.6632 211.009 88.4688 214.574 Q90.2975 218.116 93.9086 218.116 Q97.5428 218.116 99.3483 214.574 Q101.177 211.009 101.177 203.903 Q101.177 196.773 99.3483 193.232 Q97.5428 189.667 93.9086 189.667 M93.9086 185.963 Q99.7187 185.963 102.774 190.57 Q105.853 195.153 105.853 203.903 Q105.853 212.63 102.774 217.236 Q99.7187 221.82 93.9086 221.82 Q88.0984 221.82 85.0197 217.236 Q81.9642 212.63 81.9642 203.903 Q81.9642 195.153 85.0197 190.57 Q88.0984 185.963 93.9086 185.963 Z" fill="#000000" fill-rule="evenodd" fill-opacity="1" /><path clip-path="url(#clip370)" d="M124.07 189.667 Q120.459 189.667 118.631 193.232 Q116.825 196.773 116.825 203.903 Q116.825 211.009 118.631 214.574 Q120.459 218.116 124.07 218.116 Q127.705 218.116 129.51 214.574 Q131.339 211.009 131.339 203.903 Q131.339 196.773 129.51 193.232 Q127.705 189.667 124.07 189.667 M124.07 185.963 Q129.881 185.963 132.936 190.57 Q136.015 195.153 136.015 203.903 Q136.015 212.63 132.936 217.236 Q129.881 221.82 124.07 221.82 Q118.26 221.82 115.182 217.236 Q112.126 212.63 112.126 203.903 Q112.126 195.153 115.182 190.57 Q118.26 185.963 124.07 185.963 Z" fill="#000000" fill-rule="evenodd" fill-opacity="1" /><path clip-path="url(#clip372)" d="
M291.959 1332.21 L291.959 1454.11 L615.435 1454.11 L615.435 1332.21 L291.959 1332.21 L291.959 1332.21  Z
  " fill="#e69f00" fill-rule="evenodd" fill-opacity="1"/>
<polyline clip-path="url(#clip372)" style="stroke:#000000; stroke-linecap:round; stroke-linejoin:round; stroke-width:4; stroke-opacity:1; fill:none" points="
  291.959,1332.21 291.959,1454.11 615.435,1454.11 615.435,1332.21 291.959,1332.21 
  "/>
<path clip-path="url(#clip372)" d="
M696.304 88.2208 L696.304 1454.11 L1019.78 1454.11 L1019.78 88.2208 L696.304 88.2208 L696.304 88.2208  Z
  " fill="#e69f00" fill-rule="evenodd" fill-opacity="1"/>
<polyline clip-path="url(#clip372)" style="stroke:#000000; stroke-linecap:round; stroke-linejoin:round; stroke-width:4; stroke-opacity:1; fill:none" points="
  696.304,88.2208 696.304,1454.11 1019.78,1454.11 1019.78,88.2208 696.304,88.2208 
  "/>
<path clip-path="url(#clip372)" d="
M1100.65 1129.05 L1100.65 1454.11 L1424.12 1454.11 L1424.12 1129.05 L1100.65 1129.05 L1100.65 1129.05  Z
  " fill="#e69f00" fill-rule="evenodd" fill-opacity="1"/>
<polyline clip-path="url(#clip372)" style="stroke:#000000; stroke-linecap:round; stroke-linejoin:round; stroke-width:4; stroke-opacity:1; fill:none" points="
  1100.65,1129.05 1100.65,1454.11 1424.12,1454.11 1424.12,1129.05 1100.65,1129.05 
  "/>
<path clip-path="url(#clip372)" d="
M1504.99 1397.85 L1504.99 1454.11 L1828.47 1454.11 L1828.47 1397.85 L1504.99 1397.85 L1504.99 1397.85  Z
  " fill="#e69f00" fill-rule="evenodd" fill-opacity="1"/>
<polyline clip-path="url(#clip372)" style="stroke:#000000; stroke-linecap:round; stroke-linejoin:round; stroke-width:4; stroke-opacity:1; fill:none" points="
  1504.99,1397.85 1504.99,1454.11 1828.47,1454.11 1828.47,1397.85 1504.99,1397.85 
  "/>
<path clip-path="url(#clip372)" d="
M1909.34 1447.86 L1909.34 1454.11 L2232.81 1454.11 L2232.81 1447.86 L1909.34 1447.86 L1909.34 1447.86  Z
  " fill="#e69f00" fill-rule="evenodd" fill-opacity="1"/>
<polyline clip-path="url(#clip372)" style="stroke:#000000; stroke-linecap:round; stroke-linejoin:round; stroke-width:4; stroke-opacity:1; fill:none" points="
  1909.34,1447.86 1909.34,1454.11 2232.81,1454.11 2232.81,1447.86 1909.34,1447.86 
  "/>
<circle clip-path="url(#clip372)" style="fill:#e69f00; stroke:none; fill-opacity:0" cx="453.697" cy="1332.21" r="2"/>
<circle clip-path="url(#clip372)" style="fill:#e69f00; stroke:none; fill-opacity:0" cx="858.041" cy="88.2208" r="2"/>
<circle clip-path="url(#clip372)" style="fill:#e69f00; stroke:none; fill-opacity:0" cx="1262.39" cy="1129.05" r="2"/>
<circle clip-path="url(#clip372)" style="fill:#e69f00; stroke:none; fill-opacity:0" cx="1666.73" cy="1397.85" r="2"/>
<circle clip-path="url(#clip372)" style="fill:#e69f00; stroke:none; fill-opacity:0" cx="2071.07" cy="1447.86" r="2"/>
</svg>
