<?xml version="1.0" encoding="utf-8"?>
<svg xmlns="http://www.w3.org/2000/svg" xmlns:xlink="http://www.w3.org/1999/xlink" width="600" height="400" viewBox="0 0 2400 1600">
<defs>
  <clipPath id="clip580">
    <rect x="0" y="0" width="2400" height="1600"/>
  </clipPath>
</defs>
<path clip-path="url(#clip580)" d="
M0 1600 L2400 1600 L2400 0 L0 0  Z
  " fill="#ffffff" fill-rule="evenodd" fill-opacity="1"/>
<defs>
  <clipPath id="clip581">
    <rect x="480" y="0" width="1681" height="1600"/>
  </clipPath>
</defs>
<path clip-path="url(#clip580)" d="
M147.478 1486.45 L2352.76 1486.45 L2352.76 47.2441 L147.478 47.2441  Z
  " fill="#ffffff" fill-rule="evenodd" fill-opacity="1"/>
<defs>
  <clipPath id="clip582">
    <rect x="147" y="47" width="2206" height="1440"/>
  </clipPath>
</defs>
<polyline clip-path="url(#clip582)" style="stroke:#000000; stroke-linecap:round; stroke-linejoin:round; stroke-width:2; stroke-opacity:0.1; fill:none" points="
  513.32,1486.45 513.32,47.2441 
  "/>
<polyline clip-path="url(#clip582)" style="stroke:#000000; stroke-linecap:round; stroke-linejoin:round; stroke-width:2; stroke-opacity:0.1; fill:none" points="
  881.33,1486.45 881.33,47.2441 
  "/>
<polyline clip-path="url(#clip582)" style="stroke:#000000; stroke-linecap:round; stroke-linejoin:round; stroke-width:2; stroke-opacity:0.1; fill:none" points="
  1249.34,1486.45 1249.34,47.2441 
  "/>
<polyline clip-path="url(#clip582)" style="stroke:#000000; stroke-linecap:round; stroke-linejoin:round; stroke-width:2; stroke-opacity:0.1; fill:none" points="
  1617.35,1486.45 1617.35,47.2441 
  "/>
<polyline clip-path="url(#clip582)" style="stroke:#000000; stroke-linecap:round; stroke-linejoin:round; stroke-width:2; stroke-opacity:0.1; fill:none" points="
  1985.36,1486.45 1985.36,47.2441 
  "/>
<polyline clip-path="url(#clip580)" style="stroke:#000000; stroke-linecap:round; stroke-linejoin:round; stroke-width:4; stroke-opacity:1; fill:none" points="
  147.478,1486.45 2352.76,1486.45 
  "/>
<polyline clip-path="url(#clip580)" style="stroke:#000000; stroke-linecap:round; stroke-linejoin:round; stroke-width:4; stroke-opacity:1; fill:none" points="
  513.32,1486.45 513.32,1467.55 
  "/>
<polyline clip-path="url(#clip580)" style="stroke:#000000; stroke-linecap:round; stroke-linejoin:round; stroke-width:4; stroke-opacity:1; fill:none" points="
  881.33,1486.45 881.33,1467.55 
  "/>
<polyline clip-path="url(#clip580)" style="stroke:#000000; stroke-linecap:round; stroke-linejoin:round; stroke-width:4; stroke-opacity:1; fill:none" points="
  1249.34,1486.45 1249.34,1467.55 
  "/>
<polyline clip-path="url(#clip580)" style="stroke:#000000; stroke-linecap:round; stroke-linejoin:round; stroke-width:4; stroke-opacity:1; fill:none" points="
  1617.35,1486.45 1617.35,1467.55 
  "/>
<polyline clip-path="url(#clip580)" style="stroke:#000000; stroke-linecap:round; stroke-linejoin:round; stroke-width:4; stroke-opacity:1; fill:none" points="
  1985.36,1486.45 1985.36,1467.55 
  "/>
<path clip-path="url(#clip580)" d="M483.262 1532.02 L512.938 1532.02 L512.938 1535.95 L483.262 1535.95 L483.262 1532.02 Z" fill="#000000" fill-rule="evenodd" fill-opacity="1" /><path clip-path="url(#clip580)" d="M527.058 1544.91 L543.378 1544.91 L543.378 1548.85 L521.433 1548.85 L521.433 1544.91 Q524.095 1542.16 528.679 1537.53 Q533.285 1532.88 534.466 1531.53 Q536.711 1529.01 537.591 1527.27 Q538.494 1525.51 538.494 1523.82 Q538.494 1521.07 536.549 1519.33 Q534.628 1517.6 531.526 1517.6 Q529.327 1517.6 526.873 1518.36 Q524.443 1519.13 521.665 1520.68 L521.665 1515.95 Q524.489 1514.82 526.943 1514.24 Q529.396 1513.66 531.433 1513.66 Q536.804 1513.66 539.998 1516.35 Q543.193 1519.03 543.193 1523.52 Q543.193 1525.65 542.382 1527.57 Q541.595 1529.47 539.489 1532.07 Q538.91 1532.74 535.808 1535.95 Q532.707 1539.15 527.058 1544.91 Z" fill="#000000" fill-rule="evenodd" fill-opacity="1" /><path clip-path="url(#clip580)" d="M851.087 1532.02 L880.763 1532.02 L880.763 1535.95 L851.087 1535.95 L851.087 1532.02 Z" fill="#000000" fill-rule="evenodd" fill-opacity="1" /><path clip-path="url(#clip580)" d="M891.666 1544.91 L899.305 1544.91 L899.305 1518.55 L890.995 1520.21 L890.995 1515.95 L899.258 1514.29 L903.934 1514.29 L903.934 1544.91 L911.573 1544.91 L911.573 1548.85 L891.666 1548.85 L891.666 1544.91 Z" fill="#000000" fill-rule="evenodd" fill-opacity="1" /><path clip-path="url(#clip580)" d="M1249.34 1517.37 Q1245.73 1517.37 1243.9 1520.93 Q1242.1 1524.47 1242.1 1531.6 Q1242.1 1538.71 1243.9 1542.27 Q1245.73 1545.82 1249.34 1545.82 Q1252.97 1545.82 1254.78 1542.27 Q1256.61 1538.71 1256.61 1531.6 Q1256.61 1524.47 1254.78 1520.93 Q1252.97 1517.37 1249.34 1517.37 M1249.34 1513.66 Q1255.15 1513.66 1258.21 1518.27 Q1261.29 1522.85 1261.29 1531.6 Q1261.29 1540.33 1258.21 1544.94 Q1255.15 1549.52 1249.34 1549.52 Q1243.53 1549.52 1240.45 1544.94 Q1237.4 1540.33 1237.4 1531.6 Q1237.4 1522.85 1240.45 1518.27 Q1243.53 1513.66 1249.34 1513.66 Z" fill="#000000" fill-rule="evenodd" fill-opacity="1" /><path clip-path="url(#clip580)" d="M1607.73 1544.91 L1615.37 1544.91 L1615.37 1518.55 L1607.06 1520.21 L1607.06 1515.95 L1615.33 1514.29 L1620 1514.29 L1620 1544.91 L1627.64 1544.91 L1627.64 1548.85 L1607.73 1548.85 L1607.73 1544.91 Z" fill="#000000" fill-rule="evenodd" fill-opacity="1" /><path clip-path="url(#clip580)" d="M1980.01 1544.91 L1996.33 1544.91 L1996.33 1548.85 L1974.39 1548.85 L1974.39 1544.91 Q1977.05 1542.16 1981.63 1537.53 Q1986.24 1532.88 1987.42 1531.53 Q1989.67 1529.01 1990.55 1527.27 Q1991.45 1525.51 1991.45 1523.82 Q1991.45 1521.07 1989.5 1519.33 Q1987.58 1517.6 1984.48 1517.6 Q1982.28 1517.6 1979.83 1518.36 Q1977.4 1519.13 1974.62 1520.68 L1974.62 1515.95 Q1977.44 1514.82 1979.9 1514.24 Q1982.35 1513.66 1984.39 1513.66 Q1989.76 1513.66 1992.95 1516.35 Q1996.15 1519.03 1996.15 1523.52 Q1996.15 1525.65 1995.34 1527.57 Q1994.55 1529.47 1992.44 1532.07 Q1991.87 1532.74 1988.76 1535.95 Q1985.66 1539.15 1980.01 1544.91 Z" fill="#000000" fill-rule="evenodd" fill-opacity="1" /><polyline clip-path="url(#clip582)" style="stroke:#000000; stroke-linecap:round; stroke-linejoin:round; stroke-width:2; stroke-opacity:0.1; fill:none" points="
  147.478,1466.17 2352.76,1466.17 
  "/>
<polyline clip-path="url(#clip582)" style="stroke:#000000; stroke-linecap:round; stroke-linejoin:round; stroke-width:2; stroke-opacity:0.1; fill:none" points="
  147.478,1122.86 2352.76,1122.86 
  "/>
<polyline clip-path="url(#clip582)" style="stroke:#000000; stroke-linecap:round; stroke-linejoin:round; stroke-width:2; stroke-opacity:0.1; fill:none" points="
  147.478,779.544 2352.76,779.544 
  "/>
<polyline clip-path="url(#clip582)" style="stroke:#000000; stroke-linecap:round; stroke-linejoin:round; stroke-width:2; stroke-opacity:0.1; fill:none" points="
  147.478,436.23 2352.76,436.23 
  "/>
<polyline clip-path="url(#clip582)" style="stroke:#000000; stroke-linecap:round; stroke-linejoin:round; stroke-width:2; stroke-opacity:0.1; fill:none" points="
  147.478,92.915 2352.76,92.915 
  "/>
<polyline clip-path="url(#clip580)" style="stroke:#000000; stroke-linecap:round; stroke-linejoin:round; stroke-width:4; stroke-opacity:1; fill:none" points="
  147.478,1486.45 147.478,47.2441 
  "/>
<polyline clip-path="url(#clip580)" style="stroke:#000000; stroke-linecap:round; stroke-linejoin:round; stroke-width:4; stroke-opacity:1; fill:none" points="
  147.478,1466.17 166.376,1466.17 
  "/>
<polyline clip-path="url(#clip580)" style="stroke:#000000; stroke-linecap:round; stroke-linejoin:round; stroke-width:4; stroke-opacity:1; fill:none" points="
  147.478,1122.86 166.376,1122.86 
  "/>
<polyline clip-path="url(#clip580)" style="stroke:#000000; stroke-linecap:round; stroke-linejoin:round; stroke-width:4; stroke-opacity:1; fill:none" points="
  147.478,779.544 166.376,779.544 
  "/>
<polyline clip-path="url(#clip580)" style="stroke:#000000; stroke-linecap:round; stroke-linejoin:round; stroke-width:4; stroke-opacity:1; fill:none" points="
  147.478,436.23 166.376,436.23 
  "/>
<polyline clip-path="url(#clip580)" style="stroke:#000000; stroke-linecap:round; stroke-linejoin:round; stroke-width:4; stroke-opacity:1; fill:none" points="
  147.478,92.915 166.376,92.915 
  "/>
<path clip-path="url(#clip580)" d="M50.9921 1466.62 L80.6679 1466.62 L80.6679 1470.56 L50.9921 1470.56 L50.9921 1466.62 Z" fill="#000000" fill-rule="evenodd" fill-opacity="1" /><path clip-path="url(#clip580)" d="M91.5706 1479.52 L99.2095 1479.52 L99.2095 1453.15 L90.8993 1454.82 L90.8993 1450.56 L99.1632 1448.89 L103.839 1448.89 L103.839 1479.52 L111.478 1479.52 L111.478 1483.45 L91.5706 1483.45 L91.5706 1479.52 Z" fill="#000000" fill-rule="evenodd" fill-opacity="1" /><path clip-path="url(#clip580)" d="M99.5335 1108.66 Q95.9224 1108.66 94.0937 1112.22 Q92.2882 1115.76 92.2882 1122.89 Q92.2882 1130 94.0937 1133.56 Q95.9224 1137.11 99.5335 1137.11 Q103.168 1137.11 104.973 1133.56 Q106.802 1130 106.802 1122.89 Q106.802 1115.76 104.973 1112.22 Q103.168 1108.66 99.5335 1108.66 M99.5335 1104.95 Q105.344 1104.95 108.399 1109.56 Q111.478 1114.14 111.478 1122.89 Q111.478 1131.62 108.399 1136.23 Q105.344 1140.81 99.5335 1140.81 Q93.7234 1140.81 90.6447 1136.23 Q87.5892 1131.62 87.5892 1122.89 Q87.5892 1114.14 90.6447 1109.56 Q93.7234 1104.95 99.5335 1104.95 Z" fill="#000000" fill-rule="evenodd" fill-opacity="1" /><path clip-path="url(#clip580)" d="M91.5706 792.889 L99.2095 792.889 L99.2095 766.523 L90.8993 768.19 L90.8993 763.931 L99.1632 762.264 L103.839 762.264 L103.839 792.889 L111.478 792.889 L111.478 796.824 L91.5706 796.824 L91.5706 792.889 Z" fill="#000000" fill-rule="evenodd" fill-opacity="1" /><path clip-path="url(#clip580)" d="M95.1586 449.574 L111.478 449.574 L111.478 453.51 L89.5336 453.51 L89.5336 449.574 Q92.1956 446.82 96.7789 442.19 Q101.385 437.537 102.566 436.195 Q104.811 433.672 105.691 431.936 Q106.594 430.176 106.594 428.487 Q106.594 425.732 104.649 423.996 Q102.728 422.26 99.6261 422.26 Q97.4271 422.26 94.9734 423.024 Q92.5428 423.787 89.7651 425.338 L89.7651 420.616 Q92.5891 419.482 95.0428 418.903 Q97.4965 418.325 99.5335 418.325 Q104.904 418.325 108.098 421.01 Q111.293 423.695 111.293 428.186 Q111.293 430.315 110.483 432.236 Q109.696 434.135 107.589 436.727 Q107.01 437.399 103.909 440.616 Q100.807 443.811 95.1586 449.574 Z" fill="#000000" fill-rule="evenodd" fill-opacity="1" /><path clip-path="url(#clip580)" d="M104.348 91.5608 Q107.705 92.2784 109.58 94.5469 Q111.478 96.8154 111.478 100.149 Q111.478 105.264 107.959 108.065 Q104.441 110.866 97.9595 110.866 Q95.7836 110.866 93.4688 110.426 Q91.1771 110.01 88.7234 109.153 L88.7234 104.639 Q90.6678 105.774 92.9826 106.352 Q95.2974 106.931 97.8206 106.931 Q102.219 106.931 104.51 105.195 Q106.825 103.459 106.825 100.149 Q106.825 97.0932 104.672 95.3803 Q102.543 93.6442 98.7234 93.6442 L94.6956 93.6442 L94.6956 89.8016 L98.9085 89.8016 Q102.358 89.8016 104.186 88.4359 Q106.015 87.047 106.015 84.4544 Q106.015 81.7924 104.117 80.3803 Q102.242 78.9452 98.7234 78.9452 Q96.8021 78.9452 94.603 79.3618 Q92.4039 79.7785 89.7651 80.6581 L89.7651 76.4915 Q92.4271 75.7507 94.7419 75.3804 Q97.0798 75.01 99.14 75.01 Q104.464 75.01 107.566 77.4405 Q110.668 79.8479 110.668 83.9683 Q110.668 86.8386 109.024 88.8294 Q107.381 90.797 104.348 91.5608 Z" fill="#000000" fill-rule="evenodd" fill-opacity="1" /><circle clip-path="url(#clip582)" cx="1983.54" cy="604.478" r="14.4" fill="#e69f00" fill-rule="evenodd" fill-opacity="1" stroke="#000000" stroke-opacity="1" stroke-width="3.2"/>
<circle clip-path="url(#clip582)" cx="1808.59" cy="722.045" r="14.4" fill="#e69f00" fill-rule="evenodd" fill-opacity="1" stroke="#000000" stroke-opacity="1" stroke-width="3.2"/>
<circle clip-path="url(#clip582)" cx="1539.74" cy="1096.79" r="14.4" fill="#e69f00" fill-rule="evenodd" fill-opacity="1" stroke="#000000" stroke-opacity="1" stroke-width="3.2"/>
<circle clip-path="url(#clip582)" cx="1640.52" cy="628.703" r="14.4" fill="#e69f00" fill-rule="evenodd" fill-opacity="1" stroke="#000000" stroke-opacity="1" stroke-width="3.2"/>
<circle clip-path="url(#clip582)" cx="1966.39" cy="409.869" r="14.4" fill="#e69f00" fill-rule="evenodd" fill-opacity="1" stroke="#000000" stroke-opacity="1" stroke-width="3.2"/>
<circle clip-path="url(#clip582)" cx="383.096" cy="560.17" r="14.4" fill="#e69f00" fill-rule="evenodd" fill-opacity="1" stroke="#000000" stroke-opacity="1" stroke-width="3.2"/>
<circle clip-path="url(#clip582)" cx="1715.33" cy="703.671" r="14.4" fill="#e69f00" fill-rule="evenodd" fill-opacity="1" stroke="#000000" stroke-opacity="1" stroke-width="3.2"/>
<circle clip-path="url(#clip582)" cx="2091" cy="316.36" r="14.4" fill="#e69f00" fill-rule="evenodd" fill-opacity="1" stroke="#000000" stroke-opacity="1" stroke-width="3.2"/>
<circle clip-path="url(#clip582)" cx="603.372" cy="439.911" r="14.4" fill="#e69f00" fill-rule="evenodd" fill-opacity="1" stroke="#000000" stroke-opacity="1" stroke-width="3.2"/>
<circle clip-path="url(#clip582)" cx="1671.13" cy="701.313" r="14.4" fill="#e69f00" fill-rule="evenodd" fill-opacity="1" stroke="#000000" stroke-opacity="1" stroke-width="3.2"/>
<circle clip-path="url(#clip582)" cx="1124.57" cy="996.088" r="14.4" fill="#e69f00" fill-rule="evenodd" fill-opacity="1" stroke="#000000" stroke-opacity="1" stroke-width="3.2"/>
<circle clip-path="url(#clip582)" cx="1973.53" cy="605.366" r="14.4" fill="#e69f00" fill-rule="evenodd" fill-opacity="1" stroke="#000000" stroke-opacity="1" stroke-width="3.2"/>
<circle clip-path="url(#clip582)" cx="2281.58" cy="653.565" r="14.4" fill="#e69f00" fill-rule="evenodd" fill-opacity="1" stroke="#000000" stroke-opacity="1" stroke-width="3.2"/>
<circle clip-path="url(#clip582)" cx="1019.12" cy="774.404" r="14.4" fill="#e69f00" fill-rule="evenodd" fill-opacity="1" stroke="#000000" stroke-opacity="1" stroke-width="3.2"/>
<circle clip-path="url(#clip582)" cx="1508.66" cy="551.866" r="14.4" fill="#e69f00" fill-rule="evenodd" fill-opacity="1" stroke="#000000" stroke-opacity="1" stroke-width="3.2"/>
<circle clip-path="url(#clip582)" cx="1226.27" cy="1149.56" r="14.4" fill="#e69f00" fill-rule="evenodd" fill-opacity="1" stroke="#000000" stroke-opacity="1" stroke-width="3.2"/>
<circle clip-path="url(#clip582)" cx="2177.2" cy="856.348" r="14.4" fill="#e69f00" fill-rule="evenodd" fill-opacity="1" stroke="#000000" stroke-opacity="1" stroke-width="3.2"/>
<circle clip-path="url(#clip582)" cx="951.882" cy="771.197" r="14.4" fill="#e69f00" fill-rule="evenodd" fill-opacity="1" stroke="#000000" stroke-opacity="1" stroke-width="3.2"/>
<circle clip-path="url(#clip582)" cx="181.292" cy="541.026" r="14.4" fill="#e69f00" fill-rule="evenodd" fill-opacity="1" stroke="#000000" stroke-opacity="1" stroke-width="3.2"/>
<circle clip-path="url(#clip582)" cx="1180.81" cy="1309.49" r="14.4" fill="#e69f00" fill-rule="evenodd" fill-opacity="1" stroke="#000000" stroke-opacity="1" stroke-width="3.2"/>
<circle clip-path="url(#clip582)" cx="485.029" cy="401.581" r="14.4" fill="#e69f00" fill-rule="evenodd" fill-opacity="1" stroke="#000000" stroke-opacity="1" stroke-width="3.2"/>
<circle clip-path="url(#clip582)" cx="250.949" cy="512.753" r="14.4" fill="#e69f00" fill-rule="evenodd" fill-opacity="1" stroke="#000000" stroke-opacity="1" stroke-width="3.2"/>
<circle clip-path="url(#clip582)" cx="1963.99" cy="444.089" r="14.4" fill="#e69f00" fill-rule="evenodd" fill-opacity="1" stroke="#000000" stroke-opacity="1" stroke-width="3.2"/>
<circle clip-path="url(#clip582)" cx="2086.74" cy="659.872" r="14.4" fill="#e69f00" fill-rule="evenodd" fill-opacity="1" stroke="#000000" stroke-opacity="1" stroke-width="3.2"/>
<circle clip-path="url(#clip582)" cx="1734.28" cy="787.136" r="14.4" fill="#e69f00" fill-rule="evenodd" fill-opacity="1" stroke="#000000" stroke-opacity="1" stroke-width="3.2"/>
<circle clip-path="url(#clip582)" cx="635.832" cy="481.721" r="14.4" fill="#e69f00" fill-rule="evenodd" fill-opacity="1" stroke="#000000" stroke-opacity="1" stroke-width="3.2"/>
<circle clip-path="url(#clip582)" cx="2288.27" cy="976.057" r="14.4" fill="#e69f00" fill-rule="evenodd" fill-opacity="1" stroke="#000000" stroke-opacity="1" stroke-width="3.2"/>
<circle clip-path="url(#clip582)" cx="1015.11" cy="580.485" r="14.4" fill="#e69f00" fill-rule="evenodd" fill-opacity="1" stroke="#000000" stroke-opacity="1" stroke-width="3.2"/>
<circle clip-path="url(#clip582)" cx="2350.29" cy="1020.69" r="14.4" fill="#e69f00" fill-rule="evenodd" fill-opacity="1" stroke="#000000" stroke-opacity="1" stroke-width="3.2"/>
<circle clip-path="url(#clip582)" cx="212.388" cy="719.643" r="14.4" fill="#e69f00" fill-rule="evenodd" fill-opacity="1" stroke="#000000" stroke-opacity="1" stroke-width="3.2"/>
<circle clip-path="url(#clip582)" cx="1673.75" cy="703.497" r="14.4" fill="#e69f00" fill-rule="evenodd" fill-opacity="1" stroke="#000000" stroke-opacity="1" stroke-width="3.2"/>
<circle clip-path="url(#clip582)" cx="1071.29" cy="1168.84" r="14.4" fill="#e69f00" fill-rule="evenodd" fill-opacity="1" stroke="#000000" stroke-opacity="1" stroke-width="3.2"/>
<circle clip-path="url(#clip582)" cx="910.668" cy="845.357" r="14.4" fill="#e69f00" fill-rule="evenodd" fill-opacity="1" stroke="#000000" stroke-opacity="1" stroke-width="3.2"/>
<circle clip-path="url(#clip582)" cx="2299.25" cy="1049.53" r="14.4" fill="#e69f00" fill-rule="evenodd" fill-opacity="1" stroke="#000000" stroke-opacity="1" stroke-width="3.2"/>
<circle clip-path="url(#clip582)" cx="1193.24" cy="1105.95" r="14.4" fill="#e69f00" fill-rule="evenodd" fill-opacity="1" stroke="#000000" stroke-opacity="1" stroke-width="3.2"/>
<circle clip-path="url(#clip582)" cx="1140.01" cy="1393.4" r="14.4" fill="#e69f00" fill-rule="evenodd" fill-opacity="1" stroke="#000000" stroke-opacity="1" stroke-width="3.2"/>
<circle clip-path="url(#clip582)" cx="814.614" cy="894.64" r="14.4" fill="#e69f00" fill-rule="evenodd" fill-opacity="1" stroke="#000000" stroke-opacity="1" stroke-width="3.2"/>
<circle clip-path="url(#clip582)" cx="2093.63" cy="367.861" r="14.4" fill="#e69f00" fill-rule="evenodd" fill-opacity="1" stroke="#000000" stroke-opacity="1" stroke-width="3.2"/>
<circle clip-path="url(#clip582)" cx="370.185" cy="482.614" r="14.4" fill="#e69f00" fill-rule="evenodd" fill-opacity="1" stroke="#000000" stroke-opacity="1" stroke-width="3.2"/>
<circle clip-path="url(#clip582)" cx="951.037" cy="998.73" r="14.4" fill="#e69f00" fill-rule="evenodd" fill-opacity="1" stroke="#000000" stroke-opacity="1" stroke-width="3.2"/>
<circle clip-path="url(#clip582)" cx="1735.72" cy="558.321" r="14.4" fill="#e69f00" fill-rule="evenodd" fill-opacity="1" stroke="#000000" stroke-opacity="1" stroke-width="3.2"/>
<circle clip-path="url(#clip582)" cx="295.872" cy="680.578" r="14.4" fill="#e69f00" fill-rule="evenodd" fill-opacity="1" stroke="#000000" stroke-opacity="1" stroke-width="3.2"/>
<circle clip-path="url(#clip582)" cx="1576.09" cy="719.241" r="14.4" fill="#e69f00" fill-rule="evenodd" fill-opacity="1" stroke="#000000" stroke-opacity="1" stroke-width="3.2"/>
<circle clip-path="url(#clip582)" cx="2311.08" cy="817.855" r="14.4" fill="#e69f00" fill-rule="evenodd" fill-opacity="1" stroke="#000000" stroke-opacity="1" stroke-width="3.2"/>
<circle clip-path="url(#clip582)" cx="2178.25" cy="850.282" r="14.4" fill="#e69f00" fill-rule="evenodd" fill-opacity="1" stroke="#000000" stroke-opacity="1" stroke-width="3.2"/>
<circle clip-path="url(#clip582)" cx="344.833" cy="700.197" r="14.4" fill="#e69f00" fill-rule="evenodd" fill-opacity="1" stroke="#000000" stroke-opacity="1" stroke-width="3.2"/>
<circle clip-path="url(#clip582)" cx="1481.9" cy="1475.97" r="14.4" fill="#e69f00" fill-rule="evenodd" fill-opacity="1" stroke="#000000" stroke-opacity="1" stroke-width="3.2"/>
<circle clip-path="url(#clip582)" cx="1081.76" cy="1001.11" r="14.4" fill="#e69f00" fill-rule="evenodd" fill-opacity="1" stroke="#000000" stroke-opacity="1" stroke-width="3.2"/>
<circle clip-path="url(#clip582)" cx="324.999" cy="509.371" r="14.4" fill="#e69f00" fill-rule="evenodd" fill-opacity="1" stroke="#000000" stroke-opacity="1" stroke-width="3.2"/>
<circle clip-path="url(#clip582)" cx="1923.39" cy="688.755" r="14.4" fill="#e69f00" fill-rule="evenodd" fill-opacity="1" stroke="#000000" stroke-opacity="1" stroke-width="3.2"/>
<circle clip-path="url(#clip582)" cx="1497.81" cy="901.011" r="14.4" fill="#e69f00" fill-rule="evenodd" fill-opacity="1" stroke="#000000" stroke-opacity="1" stroke-width="3.2"/>
<circle clip-path="url(#clip582)" cx="316.498" cy="683.555" r="14.4" fill="#e69f00" fill-rule="evenodd" fill-opacity="1" stroke="#000000" stroke-opacity="1" stroke-width="3.2"/>
<circle clip-path="url(#clip582)" cx="2198.52" cy="685.78" r="14.4" fill="#e69f00" fill-rule="evenodd" fill-opacity="1" stroke="#000000" stroke-opacity="1" stroke-width="3.2"/>
<circle clip-path="url(#clip582)" cx="1881.54" cy="293.63" r="14.4" fill="#e69f00" fill-rule="evenodd" fill-opacity="1" stroke="#000000" stroke-opacity="1" stroke-width="3.2"/>
<circle clip-path="url(#clip582)" cx="1733.45" cy="722.832" r="14.4" fill="#e69f00" fill-rule="evenodd" fill-opacity="1" stroke="#000000" stroke-opacity="1" stroke-width="3.2"/>
<circle clip-path="url(#clip582)" cx="635.087" cy="477.24" r="14.4" fill="#e69f00" fill-rule="evenodd" fill-opacity="1" stroke="#000000" stroke-opacity="1" stroke-width="3.2"/>
<circle clip-path="url(#clip582)" cx="1442.83" cy="818.909" r="14.4" fill="#e69f00" fill-rule="evenodd" fill-opacity="1" stroke="#000000" stroke-opacity="1" stroke-width="3.2"/>
<circle clip-path="url(#clip582)" cx="1723.46" cy="487.749" r="14.4" fill="#e69f00" fill-rule="evenodd" fill-opacity="1" stroke="#000000" stroke-opacity="1" stroke-width="3.2"/>
<circle clip-path="url(#clip582)" cx="2293.3" cy="1043.16" r="14.4" fill="#e69f00" fill-rule="evenodd" fill-opacity="1" stroke="#000000" stroke-opacity="1" stroke-width="3.2"/>
<circle clip-path="url(#clip582)" cx="915.274" cy="788.953" r="14.4" fill="#e69f00" fill-rule="evenodd" fill-opacity="1" stroke="#000000" stroke-opacity="1" stroke-width="3.2"/>
<circle clip-path="url(#clip582)" cx="1508.12" cy="928.515" r="14.4" fill="#e69f00" fill-rule="evenodd" fill-opacity="1" stroke="#000000" stroke-opacity="1" stroke-width="3.2"/>
<circle clip-path="url(#clip582)" cx="1088.88" cy="1187.87" r="14.4" fill="#e69f00" fill-rule="evenodd" fill-opacity="1" stroke="#000000" stroke-opacity="1" stroke-width="3.2"/>
<circle clip-path="url(#clip582)" cx="1885.41" cy="299.849" r="14.4" fill="#e69f00" fill-rule="evenodd" fill-opacity="1" stroke="#000000" stroke-opacity="1" stroke-width="3.2"/>
<circle clip-path="url(#clip582)" cx="1986.94" cy="779.533" r="14.4" fill="#e69f00" fill-rule="evenodd" fill-opacity="1" stroke="#000000" stroke-opacity="1" stroke-width="3.2"/>
<circle clip-path="url(#clip582)" cx="1543.68" cy="774.588" r="14.4" fill="#e69f00" fill-rule="evenodd" fill-opacity="1" stroke="#000000" stroke-opacity="1" stroke-width="3.2"/>
<circle clip-path="url(#clip582)" cx="946.253" cy="994.623" r="14.4" fill="#e69f00" fill-rule="evenodd" fill-opacity="1" stroke="#000000" stroke-opacity="1" stroke-width="3.2"/>
<circle clip-path="url(#clip582)" cx="246.45" cy="686.547" r="14.4" fill="#e69f00" fill-rule="evenodd" fill-opacity="1" stroke="#000000" stroke-opacity="1" stroke-width="3.2"/>
<circle clip-path="url(#clip582)" cx="1424.93" cy="1199.23" r="14.4" fill="#e69f00" fill-rule="evenodd" fill-opacity="1" stroke="#000000" stroke-opacity="1" stroke-width="3.2"/>
<circle clip-path="url(#clip582)" cx="619.356" cy="556.902" r="14.4" fill="#e69f00" fill-rule="evenodd" fill-opacity="1" stroke="#000000" stroke-opacity="1" stroke-width="3.2"/>
<circle clip-path="url(#clip582)" cx="2091.16" cy="494.987" r="14.4" fill="#e69f00" fill-rule="evenodd" fill-opacity="1" stroke="#000000" stroke-opacity="1" stroke-width="3.2"/>
<circle clip-path="url(#clip582)" cx="1244.79" cy="1242.31" r="14.4" fill="#e69f00" fill-rule="evenodd" fill-opacity="1" stroke="#000000" stroke-opacity="1" stroke-width="3.2"/>
<circle clip-path="url(#clip582)" cx="2156.85" cy="501.443" r="14.4" fill="#e69f00" fill-rule="evenodd" fill-opacity="1" stroke="#000000" stroke-opacity="1" stroke-width="3.2"/>
<circle clip-path="url(#clip582)" cx="627.945" cy="288.148" r="14.4" fill="#e69f00" fill-rule="evenodd" fill-opacity="1" stroke="#000000" stroke-opacity="1" stroke-width="3.2"/>
<circle clip-path="url(#clip582)" cx="1791.8" cy="418.038" r="14.4" fill="#e69f00" fill-rule="evenodd" fill-opacity="1" stroke="#000000" stroke-opacity="1" stroke-width="3.2"/>
<circle clip-path="url(#clip582)" cx="1855.88" cy="805.133" r="14.4" fill="#e69f00" fill-rule="evenodd" fill-opacity="1" stroke="#000000" stroke-opacity="1" stroke-width="3.2"/>
<circle clip-path="url(#clip582)" cx="1838.6" cy="214.177" r="14.4" fill="#e69f00" fill-rule="evenodd" fill-opacity="1" stroke="#000000" stroke-opacity="1" stroke-width="3.2"/>
<circle clip-path="url(#clip582)" cx="1936.31" cy="411.613" r="14.4" fill="#e69f00" fill-rule="evenodd" fill-opacity="1" stroke="#000000" stroke-opacity="1" stroke-width="3.2"/>
<circle clip-path="url(#clip582)" cx="2002.99" cy="652.349" r="14.4" fill="#e69f00" fill-rule="evenodd" fill-opacity="1" stroke="#000000" stroke-opacity="1" stroke-width="3.2"/>
<circle clip-path="url(#clip582)" cx="1343.26" cy="1041.45" r="14.4" fill="#e69f00" fill-rule="evenodd" fill-opacity="1" stroke="#000000" stroke-opacity="1" stroke-width="3.2"/>
<circle clip-path="url(#clip582)" cx="497.597" cy="593.976" r="14.4" fill="#e69f00" fill-rule="evenodd" fill-opacity="1" stroke="#000000" stroke-opacity="1" stroke-width="3.2"/>
<circle clip-path="url(#clip582)" cx="1154.75" cy="1243.22" r="14.4" fill="#e69f00" fill-rule="evenodd" fill-opacity="1" stroke="#000000" stroke-opacity="1" stroke-width="3.2"/>
<circle clip-path="url(#clip582)" cx="2113.53" cy="651.16" r="14.4" fill="#e69f00" fill-rule="evenodd" fill-opacity="1" stroke="#000000" stroke-opacity="1" stroke-width="3.2"/>
<circle clip-path="url(#clip582)" cx="864.219" cy="773.058" r="14.4" fill="#e69f00" fill-rule="evenodd" fill-opacity="1" stroke="#000000" stroke-opacity="1" stroke-width="3.2"/>
<circle clip-path="url(#clip582)" cx="446.824" cy="271.119" r="14.4" fill="#e69f00" fill-rule="evenodd" fill-opacity="1" stroke="#000000" stroke-opacity="1" stroke-width="3.2"/>
<circle clip-path="url(#clip582)" cx="1579.57" cy="800.512" r="14.4" fill="#e69f00" fill-rule="evenodd" fill-opacity="1" stroke="#000000" stroke-opacity="1" stroke-width="3.2"/>
<circle clip-path="url(#clip582)" cx="914.898" cy="844.41" r="14.4" fill="#e69f00" fill-rule="evenodd" fill-opacity="1" stroke="#000000" stroke-opacity="1" stroke-width="3.2"/>
<circle clip-path="url(#clip582)" cx="984.051" cy="575.844" r="14.4" fill="#e69f00" fill-rule="evenodd" fill-opacity="1" stroke="#000000" stroke-opacity="1" stroke-width="3.2"/>
<circle clip-path="url(#clip582)" cx="1370.35" cy="799.872" r="14.4" fill="#e69f00" fill-rule="evenodd" fill-opacity="1" stroke="#000000" stroke-opacity="1" stroke-width="3.2"/>
<circle clip-path="url(#clip582)" cx="1041.81" cy="1061.57" r="14.4" fill="#e69f00" fill-rule="evenodd" fill-opacity="1" stroke="#000000" stroke-opacity="1" stroke-width="3.2"/>
<circle clip-path="url(#clip582)" cx="891.246" cy="966.613" r="14.4" fill="#e69f00" fill-rule="evenodd" fill-opacity="1" stroke="#000000" stroke-opacity="1" stroke-width="3.2"/>
<circle clip-path="url(#clip582)" cx="1497.43" cy="865.486" r="14.4" fill="#e69f00" fill-rule="evenodd" fill-opacity="1" stroke="#000000" stroke-opacity="1" stroke-width="3.2"/>
<circle clip-path="url(#clip582)" cx="235.772" cy="844.108" r="14.4" fill="#e69f00" fill-rule="evenodd" fill-opacity="1" stroke="#000000" stroke-opacity="1" stroke-width="3.2"/>
<circle clip-path="url(#clip582)" cx="371.076" cy="598.356" r="14.4" fill="#e69f00" fill-rule="evenodd" fill-opacity="1" stroke="#000000" stroke-opacity="1" stroke-width="3.2"/>
<circle clip-path="url(#clip582)" cx="1445.73" cy="975.893" r="14.4" fill="#e69f00" fill-rule="evenodd" fill-opacity="1" stroke="#000000" stroke-opacity="1" stroke-width="3.2"/>
<circle clip-path="url(#clip582)" cx="1171.74" cy="921.693" r="14.4" fill="#e69f00" fill-rule="evenodd" fill-opacity="1" stroke="#000000" stroke-opacity="1" stroke-width="3.2"/>
<circle clip-path="url(#clip582)" cx="687.719" cy="821.12" r="14.4" fill="#e69f00" fill-rule="evenodd" fill-opacity="1" stroke="#000000" stroke-opacity="1" stroke-width="3.2"/>
<circle clip-path="url(#clip582)" cx="1407.31" cy="1177.39" r="14.4" fill="#e69f00" fill-rule="evenodd" fill-opacity="1" stroke="#000000" stroke-opacity="1" stroke-width="3.2"/>
<circle clip-path="url(#clip582)" cx="1522.54" cy="1050.04" r="14.4" fill="#e69f00" fill-rule="evenodd" fill-opacity="1" stroke="#000000" stroke-opacity="1" stroke-width="3.2"/>
<circle clip-path="url(#clip582)" cx="491.285" cy="543.103" r="14.4" fill="#e69f00" fill-rule="evenodd" fill-opacity="1" stroke="#000000" stroke-opacity="1" stroke-width="3.2"/>
<circle clip-path="url(#clip582)" cx="1074.37" cy="1064.06" r="14.4" fill="#e69f00" fill-rule="evenodd" fill-opacity="1" stroke="#000000" stroke-opacity="1" stroke-width="3.2"/>
<circle clip-path="url(#clip582)" cx="1488.57" cy="1087.85" r="14.4" fill="#e69f00" fill-rule="evenodd" fill-opacity="1" stroke="#000000" stroke-opacity="1" stroke-width="3.2"/>
<circle clip-path="url(#clip582)" cx="1270.75" cy="1272.7" r="14.4" fill="#e69f00" fill-rule="evenodd" fill-opacity="1" stroke="#000000" stroke-opacity="1" stroke-width="3.2"/>
<circle clip-path="url(#clip582)" cx="964.531" cy="974.602" r="14.4" fill="#e69f00" fill-rule="evenodd" fill-opacity="1" stroke="#000000" stroke-opacity="1" stroke-width="3.2"/>
<circle clip-path="url(#clip582)" cx="346.338" cy="410.091" r="14.4" fill="#e69f00" fill-rule="evenodd" fill-opacity="1" stroke="#000000" stroke-opacity="1" stroke-width="3.2"/>
<circle clip-path="url(#clip582)" cx="1493.43" cy="1176.04" r="14.4" fill="#e69f00" fill-rule="evenodd" fill-opacity="1" stroke="#000000" stroke-opacity="1" stroke-width="3.2"/>
<circle clip-path="url(#clip582)" cx="1112.36" cy="929.395" r="14.4" fill="#e69f00" fill-rule="evenodd" fill-opacity="1" stroke="#000000" stroke-opacity="1" stroke-width="3.2"/>
<circle clip-path="url(#clip582)" cx="831.311" cy="769.283" r="14.4" fill="#e69f00" fill-rule="evenodd" fill-opacity="1" stroke="#000000" stroke-opacity="1" stroke-width="3.2"/>
<circle clip-path="url(#clip582)" cx="734.069" cy="639.232" r="14.4" fill="#e69f00" fill-rule="evenodd" fill-opacity="1" stroke="#000000" stroke-opacity="1" stroke-width="3.2"/>
<circle clip-path="url(#clip582)" cx="2191.06" cy="478.974" r="14.4" fill="#e69f00" fill-rule="evenodd" fill-opacity="1" stroke="#000000" stroke-opacity="1" stroke-width="3.2"/>
<circle clip-path="url(#clip582)" cx="1984.77" cy="665.985" r="14.4" fill="#e69f00" fill-rule="evenodd" fill-opacity="1" stroke="#000000" stroke-opacity="1" stroke-width="3.2"/>
<circle clip-path="url(#clip582)" cx="1740.97" cy="616.678" r="14.4" fill="#e69f00" fill-rule="evenodd" fill-opacity="1" stroke="#000000" stroke-opacity="1" stroke-width="3.2"/>
<circle clip-path="url(#clip582)" cx="1515.35" cy="1107.94" r="14.4" fill="#e69f00" fill-rule="evenodd" fill-opacity="1" stroke="#000000" stroke-opacity="1" stroke-width="3.2"/>
<circle clip-path="url(#clip582)" cx="1456.31" cy="817.075" r="14.4" fill="#e69f00" fill-rule="evenodd" fill-opacity="1" stroke="#000000" stroke-opacity="1" stroke-width="3.2"/>
<circle clip-path="url(#clip582)" cx="1841.27" cy="530.643" r="14.4" fill="#e69f00" fill-rule="evenodd" fill-opacity="1" stroke="#000000" stroke-opacity="1" stroke-width="3.2"/>
<circle clip-path="url(#clip582)" cx="2172.26" cy="495.026" r="14.4" fill="#e69f00" fill-rule="evenodd" fill-opacity="1" stroke="#000000" stroke-opacity="1" stroke-width="3.2"/>
<circle clip-path="url(#clip582)" cx="358.782" cy="584.639" r="14.4" fill="#e69f00" fill-rule="evenodd" fill-opacity="1" stroke="#000000" stroke-opacity="1" stroke-width="3.2"/>
<circle clip-path="url(#clip582)" cx="1888.6" cy="491.755" r="14.4" fill="#e69f00" fill-rule="evenodd" fill-opacity="1" stroke="#000000" stroke-opacity="1" stroke-width="3.2"/>
<circle clip-path="url(#clip582)" cx="764.272" cy="617.946" r="14.4" fill="#e69f00" fill-rule="evenodd" fill-opacity="1" stroke="#000000" stroke-opacity="1" stroke-width="3.2"/>
<circle clip-path="url(#clip582)" cx="503.856" cy="83.5586" r="14.4" fill="#e69f00" fill-rule="evenodd" fill-opacity="1" stroke="#000000" stroke-opacity="1" stroke-width="3.2"/>
<circle clip-path="url(#clip582)" cx="1410.89" cy="744.913" r="14.4" fill="#e69f00" fill-rule="evenodd" fill-opacity="1" stroke="#000000" stroke-opacity="1" stroke-width="3.2"/>
<circle clip-path="url(#clip582)" cx="2223.39" cy="514.648" r="14.4" fill="#e69f00" fill-rule="evenodd" fill-opacity="1" stroke="#000000" stroke-opacity="1" stroke-width="3.2"/>
<circle clip-path="url(#clip582)" cx="1510.35" cy="1274.8" r="14.4" fill="#e69f00" fill-rule="evenodd" fill-opacity="1" stroke="#000000" stroke-opacity="1" stroke-width="3.2"/>
<circle clip-path="url(#clip582)" cx="2067.39" cy="611.204" r="14.4" fill="#e69f00" fill-rule="evenodd" fill-opacity="1" stroke="#000000" stroke-opacity="1" stroke-width="3.2"/>
<circle clip-path="url(#clip582)" cx="762.569" cy="387.089" r="14.4" fill="#e69f00" fill-rule="evenodd" fill-opacity="1" stroke="#000000" stroke-opacity="1" stroke-width="3.2"/>
<circle clip-path="url(#clip582)" cx="408.61" cy="538.51" r="14.4" fill="#e69f00" fill-rule="evenodd" fill-opacity="1" stroke="#000000" stroke-opacity="1" stroke-width="3.2"/>
<circle clip-path="url(#clip582)" cx="2282.42" cy="436.245" r="14.4" fill="#e69f00" fill-rule="evenodd" fill-opacity="1" stroke="#000000" stroke-opacity="1" stroke-width="3.2"/>
<circle clip-path="url(#clip582)" cx="2243.75" cy="610.804" r="14.4" fill="#e69f00" fill-rule="evenodd" fill-opacity="1" stroke="#000000" stroke-opacity="1" stroke-width="3.2"/>
<circle clip-path="url(#clip582)" cx="415.564" cy="619.873" r="14.4" fill="#e69f00" fill-rule="evenodd" fill-opacity="1" stroke="#000000" stroke-opacity="1" stroke-width="3.2"/>
<circle clip-path="url(#clip582)" cx="788.37" cy="553.51" r="14.4" fill="#e69f00" fill-rule="evenodd" fill-opacity="1" stroke="#000000" stroke-opacity="1" stroke-width="3.2"/>
<circle clip-path="url(#clip582)" cx="423.835" cy="449.812" r="14.4" fill="#e69f00" fill-rule="evenodd" fill-opacity="1" stroke="#000000" stroke-opacity="1" stroke-width="3.2"/>
<circle clip-path="url(#clip582)" cx="916.917" cy="917.712" r="14.4" fill="#e69f00" fill-rule="evenodd" fill-opacity="1" stroke="#000000" stroke-opacity="1" stroke-width="3.2"/>
<circle clip-path="url(#clip582)" cx="1411.2" cy="1025.32" r="14.4" fill="#e69f00" fill-rule="evenodd" fill-opacity="1" stroke="#000000" stroke-opacity="1" stroke-width="3.2"/>
<circle clip-path="url(#clip582)" cx="350.399" cy="641.632" r="14.4" fill="#e69f00" fill-rule="evenodd" fill-opacity="1" stroke="#000000" stroke-opacity="1" stroke-width="3.2"/>
<circle clip-path="url(#clip582)" cx="378.181" cy="477.9" r="14.4" fill="#e69f00" fill-rule="evenodd" fill-opacity="1" stroke="#000000" stroke-opacity="1" stroke-width="3.2"/>
<circle clip-path="url(#clip582)" cx="2207.67" cy="360.66" r="14.4" fill="#e69f00" fill-rule="evenodd" fill-opacity="1" stroke="#000000" stroke-opacity="1" stroke-width="3.2"/>
<circle clip-path="url(#clip582)" cx="2223.45" cy="886.317" r="14.4" fill="#e69f00" fill-rule="evenodd" fill-opacity="1" stroke="#000000" stroke-opacity="1" stroke-width="3.2"/>
<circle clip-path="url(#clip582)" cx="1415.89" cy="982.95" r="14.4" fill="#e69f00" fill-rule="evenodd" fill-opacity="1" stroke="#000000" stroke-opacity="1" stroke-width="3.2"/>
<circle clip-path="url(#clip582)" cx="601.593" cy="773.775" r="14.4" fill="#e69f00" fill-rule="evenodd" fill-opacity="1" stroke="#000000" stroke-opacity="1" stroke-width="3.2"/>
<circle clip-path="url(#clip582)" cx="614.883" cy="558.661" r="14.4" fill="#e69f00" fill-rule="evenodd" fill-opacity="1" stroke="#000000" stroke-opacity="1" stroke-width="3.2"/>
<circle clip-path="url(#clip582)" cx="1967.58" cy="661.738" r="14.4" fill="#e69f00" fill-rule="evenodd" fill-opacity="1" stroke="#000000" stroke-opacity="1" stroke-width="3.2"/>
<circle clip-path="url(#clip582)" cx="2236.66" cy="750.856" r="14.4" fill="#e69f00" fill-rule="evenodd" fill-opacity="1" stroke="#000000" stroke-opacity="1" stroke-width="3.2"/>
<circle clip-path="url(#clip582)" cx="1119.86" cy="916.46" r="14.4" fill="#e69f00" fill-rule="evenodd" fill-opacity="1" stroke="#000000" stroke-opacity="1" stroke-width="3.2"/>
<circle clip-path="url(#clip582)" cx="911.707" cy="1066.16" r="14.4" fill="#e69f00" fill-rule="evenodd" fill-opacity="1" stroke="#000000" stroke-opacity="1" stroke-width="3.2"/>
<circle clip-path="url(#clip582)" cx="473.228" cy="371.283" r="14.4" fill="#e69f00" fill-rule="evenodd" fill-opacity="1" stroke="#000000" stroke-opacity="1" stroke-width="3.2"/>
<circle clip-path="url(#clip582)" cx="2055.02" cy="128.985" r="14.4" fill="#e69f00" fill-rule="evenodd" fill-opacity="1" stroke="#000000" stroke-opacity="1" stroke-width="3.2"/>
<circle clip-path="url(#clip582)" cx="1219.09" cy="1143.44" r="14.4" fill="#e69f00" fill-rule="evenodd" fill-opacity="1" stroke="#000000" stroke-opacity="1" stroke-width="3.2"/>
<circle clip-path="url(#clip582)" cx="325.639" cy="588.244" r="14.4" fill="#e69f00" fill-rule="evenodd" fill-opacity="1" stroke="#000000" stroke-opacity="1" stroke-width="3.2"/>
<circle clip-path="url(#clip582)" cx="485.41" cy="624.595" r="14.4" fill="#e69f00" fill-rule="evenodd" fill-opacity="1" stroke="#000000" stroke-opacity="1" stroke-width="3.2"/>
<circle clip-path="url(#clip582)" cx="260.511" cy="867.524" r="14.4" fill="#e69f00" fill-rule="evenodd" fill-opacity="1" stroke="#000000" stroke-opacity="1" stroke-width="3.2"/>
<circle clip-path="url(#clip582)" cx="1836.19" cy="507.398" r="14.4" fill="#e69f00" fill-rule="evenodd" fill-opacity="1" stroke="#000000" stroke-opacity="1" stroke-width="3.2"/>
<circle clip-path="url(#clip582)" cx="1577.93" cy="866.663" r="14.4" fill="#e69f00" fill-rule="evenodd" fill-opacity="1" stroke="#000000" stroke-opacity="1" stroke-width="3.2"/>
<circle clip-path="url(#clip582)" cx="870.716" cy="572.575" r="14.4" fill="#e69f00" fill-rule="evenodd" fill-opacity="1" stroke="#000000" stroke-opacity="1" stroke-width="3.2"/>
<circle clip-path="url(#clip582)" cx="696.2" cy="569.159" r="14.4" fill="#e69f00" fill-rule="evenodd" fill-opacity="1" stroke="#000000" stroke-opacity="1" stroke-width="3.2"/>
<circle clip-path="url(#clip582)" cx="2352.76" cy="901.364" r="14.4" fill="#e69f00" fill-rule="evenodd" fill-opacity="1" stroke="#000000" stroke-opacity="1" stroke-width="3.2"/>
<circle clip-path="url(#clip582)" cx="2103.68" cy="796.658" r="14.4" fill="#e69f00" fill-rule="evenodd" fill-opacity="1" stroke="#000000" stroke-opacity="1" stroke-width="3.2"/>
<circle clip-path="url(#clip582)" cx="266.446" cy="665.322" r="14.4" fill="#e69f00" fill-rule="evenodd" fill-opacity="1" stroke="#000000" stroke-opacity="1" stroke-width="3.2"/>
<circle clip-path="url(#clip582)" cx="1443.07" cy="1012.87" r="14.4" fill="#e69f00" fill-rule="evenodd" fill-opacity="1" stroke="#000000" stroke-opacity="1" stroke-width="3.2"/>
<circle clip-path="url(#clip582)" cx="2073.06" cy="603.316" r="14.4" fill="#e69f00" fill-rule="evenodd" fill-opacity="1" stroke="#000000" stroke-opacity="1" stroke-width="3.2"/>
<circle clip-path="url(#clip582)" cx="2300.76" cy="631.778" r="14.4" fill="#e69f00" fill-rule="evenodd" fill-opacity="1" stroke="#000000" stroke-opacity="1" stroke-width="3.2"/>
<circle clip-path="url(#clip582)" cx="509.011" cy="549.527" r="14.4" fill="#e69f00" fill-rule="evenodd" fill-opacity="1" stroke="#000000" stroke-opacity="1" stroke-width="3.2"/>
<circle clip-path="url(#clip582)" cx="839.616" cy="651.007" r="14.4" fill="#e69f00" fill-rule="evenodd" fill-opacity="1" stroke="#000000" stroke-opacity="1" stroke-width="3.2"/>
<circle clip-path="url(#clip582)" cx="455.224" cy="457.944" r="14.4" fill="#e69f00" fill-rule="evenodd" fill-opacity="1" stroke="#000000" stroke-opacity="1" stroke-width="3.2"/>
<circle clip-path="url(#clip582)" cx="928.879" cy="846.868" r="14.4" fill="#e69f00" fill-rule="evenodd" fill-opacity="1" stroke="#000000" stroke-opacity="1" stroke-width="3.2"/>
<circle clip-path="url(#clip582)" cx="1490.77" cy="803.618" r="14.4" fill="#e69f00" fill-rule="evenodd" fill-opacity="1" stroke="#000000" stroke-opacity="1" stroke-width="3.2"/>
<circle clip-path="url(#clip582)" cx="962.935" cy="881.469" r="14.4" fill="#e69f00" fill-rule="evenodd" fill-opacity="1" stroke="#000000" stroke-opacity="1" stroke-width="3.2"/>
<circle clip-path="url(#clip582)" cx="2263.8" cy="850.215" r="14.4" fill="#e69f00" fill-rule="evenodd" fill-opacity="1" stroke="#000000" stroke-opacity="1" stroke-width="3.2"/>
<circle clip-path="url(#clip582)" cx="1537.63" cy="1287.77" r="14.4" fill="#e69f00" fill-rule="evenodd" fill-opacity="1" stroke="#000000" stroke-opacity="1" stroke-width="3.2"/>
<circle clip-path="url(#clip582)" cx="421.952" cy="313.769" r="14.4" fill="#e69f00" fill-rule="evenodd" fill-opacity="1" stroke="#000000" stroke-opacity="1" stroke-width="3.2"/>
<circle clip-path="url(#clip582)" cx="1217.74" cy="1193.69" r="14.4" fill="#e69f00" fill-rule="evenodd" fill-opacity="1" stroke="#000000" stroke-opacity="1" stroke-width="3.2"/>
<circle clip-path="url(#clip582)" cx="2351.87" cy="1052.58" r="14.4" fill="#e69f00" fill-rule="evenodd" fill-opacity="1" stroke="#000000" stroke-opacity="1" stroke-width="3.2"/>
<circle clip-path="url(#clip582)" cx="1671.44" cy="889.752" r="14.4" fill="#e69f00" fill-rule="evenodd" fill-opacity="1" stroke="#000000" stroke-opacity="1" stroke-width="3.2"/>
<circle clip-path="url(#clip582)" cx="775.394" cy="682.456" r="14.4" fill="#e69f00" fill-rule="evenodd" fill-opacity="1" stroke="#000000" stroke-opacity="1" stroke-width="3.2"/>
<circle clip-path="url(#clip582)" cx="392.057" cy="521.706" r="14.4" fill="#e69f00" fill-rule="evenodd" fill-opacity="1" stroke="#000000" stroke-opacity="1" stroke-width="3.2"/>
<circle clip-path="url(#clip582)" cx="1214.65" cy="1368.67" r="14.4" fill="#e69f00" fill-rule="evenodd" fill-opacity="1" stroke="#000000" stroke-opacity="1" stroke-width="3.2"/>
<circle clip-path="url(#clip582)" cx="978.573" cy="902.545" r="14.4" fill="#e69f00" fill-rule="evenodd" fill-opacity="1" stroke="#000000" stroke-opacity="1" stroke-width="3.2"/>
<circle clip-path="url(#clip582)" cx="1422.13" cy="801.787" r="14.4" fill="#e69f00" fill-rule="evenodd" fill-opacity="1" stroke="#000000" stroke-opacity="1" stroke-width="3.2"/>
<circle clip-path="url(#clip582)" cx="535.901" cy="466.72" r="14.4" fill="#e69f00" fill-rule="evenodd" fill-opacity="1" stroke="#000000" stroke-opacity="1" stroke-width="3.2"/>
<circle clip-path="url(#clip582)" cx="1335.27" cy="1486.45" r="14.4" fill="#e69f00" fill-rule="evenodd" fill-opacity="1" stroke="#000000" stroke-opacity="1" stroke-width="3.2"/>
<circle clip-path="url(#clip582)" cx="2116.83" cy="289.321" r="14.4" fill="#e69f00" fill-rule="evenodd" fill-opacity="1" stroke="#000000" stroke-opacity="1" stroke-width="3.2"/>
<circle clip-path="url(#clip582)" cx="1438.81" cy="1144.4" r="14.4" fill="#e69f00" fill-rule="evenodd" fill-opacity="1" stroke="#000000" stroke-opacity="1" stroke-width="3.2"/>
<circle clip-path="url(#clip582)" cx="996.931" cy="1037.05" r="14.4" fill="#e69f00" fill-rule="evenodd" fill-opacity="1" stroke="#000000" stroke-opacity="1" stroke-width="3.2"/>
<circle clip-path="url(#clip582)" cx="2269.81" cy="675.801" r="14.4" fill="#e69f00" fill-rule="evenodd" fill-opacity="1" stroke="#000000" stroke-opacity="1" stroke-width="3.2"/>
<circle clip-path="url(#clip582)" cx="1583.53" cy="957.401" r="14.4" fill="#e69f00" fill-rule="evenodd" fill-opacity="1" stroke="#000000" stroke-opacity="1" stroke-width="3.2"/>
<circle clip-path="url(#clip582)" cx="564.619" cy="115.915" r="14.4" fill="#e69f00" fill-rule="evenodd" fill-opacity="1" stroke="#000000" stroke-opacity="1" stroke-width="3.2"/>
<circle clip-path="url(#clip582)" cx="2199.54" cy="727.033" r="14.4" fill="#e69f00" fill-rule="evenodd" fill-opacity="1" stroke="#000000" stroke-opacity="1" stroke-width="3.2"/>
<circle clip-path="url(#clip582)" cx="1904.13" cy="601.798" r="14.4" fill="#e69f00" fill-rule="evenodd" fill-opacity="1" stroke="#000000" stroke-opacity="1" stroke-width="3.2"/>
<circle clip-path="url(#clip582)" cx="994.916" cy="884.68" r="14.4" fill="#e69f00" fill-rule="evenodd" fill-opacity="1" stroke="#000000" stroke-opacity="1" stroke-width="3.2"/>
<circle clip-path="url(#clip582)" cx="1974.55" cy="536.254" r="14.4" fill="#e69f00" fill-rule="evenodd" fill-opacity="1" stroke="#000000" stroke-opacity="1" stroke-width="3.2"/>
<circle clip-path="url(#clip582)" cx="1517.73" cy="1114.63" r="14.4" fill="#e69f00" fill-rule="evenodd" fill-opacity="1" stroke="#000000" stroke-opacity="1" stroke-width="3.2"/>
<circle clip-path="url(#clip582)" cx="195.895" cy="866.9" r="14.4" fill="#e69f00" fill-rule="evenodd" fill-opacity="1" stroke="#000000" stroke-opacity="1" stroke-width="3.2"/>
<circle clip-path="url(#clip582)" cx="688.788" cy="852.476" r="14.4" fill="#e69f00" fill-rule="evenodd" fill-opacity="1" stroke="#000000" stroke-opacity="1" stroke-width="3.2"/>
<circle clip-path="url(#clip582)" cx="261.001" cy="943.972" r="14.4" fill="#e69f00" fill-rule="evenodd" fill-opacity="1" stroke="#000000" stroke-opacity="1" stroke-width="3.2"/>
<circle clip-path="url(#clip582)" cx="1395.71" cy="1000.44" r="14.4" fill="#e69f00" fill-rule="evenodd" fill-opacity="1" stroke="#000000" stroke-opacity="1" stroke-width="3.2"/>
<circle clip-path="url(#clip582)" cx="1196.99" cy="1044.69" r="14.4" fill="#e69f00" fill-rule="evenodd" fill-opacity="1" stroke="#000000" stroke-opacity="1" stroke-width="3.2"/>
<circle clip-path="url(#clip582)" cx="1888.84" cy="405.563" r="14.4" fill="#e69f00" fill-rule="evenodd" fill-opacity="1" stroke="#000000" stroke-opacity="1" stroke-width="3.2"/>
<circle clip-path="url(#clip582)" cx="1044.89" cy="1048.47" r="14.4" fill="#e69f00" fill-rule="evenodd" fill-opacity="1" stroke="#000000" stroke-opacity="1" stroke-width="3.2"/>
<circle clip-path="url(#clip582)" cx="1589.94" cy="651.117" r="14.4" fill="#e69f00" fill-rule="evenodd" fill-opacity="1" stroke="#000000" stroke-opacity="1" stroke-width="3.2"/>
<circle clip-path="url(#clip582)" cx="1958.75" cy="460.282" r="14.4" fill="#e69f00" fill-rule="evenodd" fill-opacity="1" stroke="#000000" stroke-opacity="1" stroke-width="3.2"/>
<circle clip-path="url(#clip582)" cx="1868.71" cy="482.393" r="14.4" fill="#e69f00" fill-rule="evenodd" fill-opacity="1" stroke="#000000" stroke-opacity="1" stroke-width="3.2"/>
<circle clip-path="url(#clip582)" cx="1733.57" cy="519.152" r="14.4" fill="#e69f00" fill-rule="evenodd" fill-opacity="1" stroke="#000000" stroke-opacity="1" stroke-width="3.2"/>
<circle clip-path="url(#clip582)" cx="273.169" cy="777.187" r="14.4" fill="#e69f00" fill-rule="evenodd" fill-opacity="1" stroke="#000000" stroke-opacity="1" stroke-width="3.2"/>
<circle clip-path="url(#clip582)" cx="1085.02" cy="851.669" r="14.4" fill="#e69f00" fill-rule="evenodd" fill-opacity="1" stroke="#000000" stroke-opacity="1" stroke-width="3.2"/>
<circle clip-path="url(#clip582)" cx="591.856" cy="365.264" r="14.4" fill="#e69f00" fill-rule="evenodd" fill-opacity="1" stroke="#000000" stroke-opacity="1" stroke-width="3.2"/>
<circle clip-path="url(#clip582)" cx="407.629" cy="466.221" r="14.4" fill="#e69f00" fill-rule="evenodd" fill-opacity="1" stroke="#000000" stroke-opacity="1" stroke-width="3.2"/>
<circle clip-path="url(#clip582)" cx="285.802" cy="659.582" r="14.4" fill="#e69f00" fill-rule="evenodd" fill-opacity="1" stroke="#000000" stroke-opacity="1" stroke-width="3.2"/>
<circle clip-path="url(#clip582)" cx="1347.07" cy="1299.32" r="14.4" fill="#e69f00" fill-rule="evenodd" fill-opacity="1" stroke="#000000" stroke-opacity="1" stroke-width="3.2"/>
<circle clip-path="url(#clip582)" cx="295.932" cy="560.372" r="14.4" fill="#e69f00" fill-rule="evenodd" fill-opacity="1" stroke="#000000" stroke-opacity="1" stroke-width="3.2"/>
<circle clip-path="url(#clip582)" cx="2146.48" cy="900.893" r="14.4" fill="#e69f00" fill-rule="evenodd" fill-opacity="1" stroke="#000000" stroke-opacity="1" stroke-width="3.2"/>
<circle clip-path="url(#clip582)" cx="2196.74" cy="895.329" r="14.4" fill="#e69f00" fill-rule="evenodd" fill-opacity="1" stroke="#000000" stroke-opacity="1" stroke-width="3.2"/>
<circle clip-path="url(#clip582)" cx="705.394" cy="719.944" r="14.4" fill="#e69f00" fill-rule="evenodd" fill-opacity="1" stroke="#000000" stroke-opacity="1" stroke-width="3.2"/>
<circle clip-path="url(#clip582)" cx="965.505" cy="738.9" r="14.4" fill="#e69f00" fill-rule="evenodd" fill-opacity="1" stroke="#000000" stroke-opacity="1" stroke-width="3.2"/>
<circle clip-path="url(#clip582)" cx="1797.86" cy="749.281" r="14.4" fill="#e69f00" fill-rule="evenodd" fill-opacity="1" stroke="#000000" stroke-opacity="1" stroke-width="3.2"/>
<circle clip-path="url(#clip582)" cx="1071.55" cy="1256.45" r="14.4" fill="#e69f00" fill-rule="evenodd" fill-opacity="1" stroke="#000000" stroke-opacity="1" stroke-width="3.2"/>
<circle clip-path="url(#clip582)" cx="2122.97" cy="301.767" r="14.4" fill="#e69f00" fill-rule="evenodd" fill-opacity="1" stroke="#000000" stroke-opacity="1" stroke-width="3.2"/>
<circle clip-path="url(#clip582)" cx="656.406" cy="884.33" r="14.4" fill="#e69f00" fill-rule="evenodd" fill-opacity="1" stroke="#000000" stroke-opacity="1" stroke-width="3.2"/>
<circle clip-path="url(#clip582)" cx="953.121" cy="822.828" r="14.4" fill="#e69f00" fill-rule="evenodd" fill-opacity="1" stroke="#000000" stroke-opacity="1" stroke-width="3.2"/>
<circle clip-path="url(#clip582)" cx="772.136" cy="508.113" r="14.4" fill="#e69f00" fill-rule="evenodd" fill-opacity="1" stroke="#000000" stroke-opacity="1" stroke-width="3.2"/>
<circle clip-path="url(#clip582)" cx="1668.62" cy="595.785" r="14.4" fill="#e69f00" fill-rule="evenodd" fill-opacity="1" stroke="#000000" stroke-opacity="1" stroke-width="3.2"/>
<circle clip-path="url(#clip582)" cx="801.155" cy="894.289" r="14.4" fill="#e69f00" fill-rule="evenodd" fill-opacity="1" stroke="#000000" stroke-opacity="1" stroke-width="3.2"/>
<circle clip-path="url(#clip582)" cx="1330.74" cy="906.507" r="14.4" fill="#e69f00" fill-rule="evenodd" fill-opacity="1" stroke="#000000" stroke-opacity="1" stroke-width="3.2"/>
<circle clip-path="url(#clip582)" cx="319.015" cy="702.905" r="14.4" fill="#e69f00" fill-rule="evenodd" fill-opacity="1" stroke="#000000" stroke-opacity="1" stroke-width="3.2"/>
<circle clip-path="url(#clip582)" cx="610.863" cy="383.526" r="14.4" fill="#e69f00" fill-rule="evenodd" fill-opacity="1" stroke="#000000" stroke-opacity="1" stroke-width="3.2"/>
<circle clip-path="url(#clip582)" cx="1664.67" cy="1030.14" r="14.4" fill="#e69f00" fill-rule="evenodd" fill-opacity="1" stroke="#000000" stroke-opacity="1" stroke-width="3.2"/>
<circle clip-path="url(#clip582)" cx="1471.5" cy="1164.34" r="14.4" fill="#e69f00" fill-rule="evenodd" fill-opacity="1" stroke="#000000" stroke-opacity="1" stroke-width="3.2"/>
<circle clip-path="url(#clip582)" cx="222.672" cy="832.344" r="14.4" fill="#e69f00" fill-rule="evenodd" fill-opacity="1" stroke="#000000" stroke-opacity="1" stroke-width="3.2"/>
<circle clip-path="url(#clip582)" cx="929.96" cy="581.78" r="14.4" fill="#e69f00" fill-rule="evenodd" fill-opacity="1" stroke="#000000" stroke-opacity="1" stroke-width="3.2"/>
<circle clip-path="url(#clip582)" cx="206.466" cy="814.536" r="14.4" fill="#e69f00" fill-rule="evenodd" fill-opacity="1" stroke="#000000" stroke-opacity="1" stroke-width="3.2"/>
<circle clip-path="url(#clip582)" cx="216.181" cy="813.855" r="14.4" fill="#e69f00" fill-rule="evenodd" fill-opacity="1" stroke="#000000" stroke-opacity="1" stroke-width="3.2"/>
<circle clip-path="url(#clip582)" cx="2054.97" cy="641.823" r="14.4" fill="#e69f00" fill-rule="evenodd" fill-opacity="1" stroke="#000000" stroke-opacity="1" stroke-width="3.2"/>
<circle clip-path="url(#clip582)" cx="921.644" cy="1058.1" r="14.4" fill="#e69f00" fill-rule="evenodd" fill-opacity="1" stroke="#000000" stroke-opacity="1" stroke-width="3.2"/>
<circle clip-path="url(#clip582)" cx="1264.01" cy="1182.12" r="14.4" fill="#e69f00" fill-rule="evenodd" fill-opacity="1" stroke="#000000" stroke-opacity="1" stroke-width="3.2"/>
<circle clip-path="url(#clip582)" cx="1334.77" cy="1097.78" r="14.4" fill="#e69f00" fill-rule="evenodd" fill-opacity="1" stroke="#000000" stroke-opacity="1" stroke-width="3.2"/>
<circle clip-path="url(#clip582)" cx="1110.29" cy="1165.02" r="14.4" fill="#e69f00" fill-rule="evenodd" fill-opacity="1" stroke="#000000" stroke-opacity="1" stroke-width="3.2"/>
<circle clip-path="url(#clip582)" cx="2216.55" cy="706.943" r="14.4" fill="#e69f00" fill-rule="evenodd" fill-opacity="1" stroke="#000000" stroke-opacity="1" stroke-width="3.2"/>
<circle clip-path="url(#clip582)" cx="1574.24" cy="1020.4" r="14.4" fill="#e69f00" fill-rule="evenodd" fill-opacity="1" stroke="#000000" stroke-opacity="1" stroke-width="3.2"/>
<circle clip-path="url(#clip582)" cx="630.007" cy="508.856" r="14.4" fill="#e69f00" fill-rule="evenodd" fill-opacity="1" stroke="#000000" stroke-opacity="1" stroke-width="3.2"/>
<circle clip-path="url(#clip582)" cx="1299.88" cy="1009.25" r="14.4" fill="#e69f00" fill-rule="evenodd" fill-opacity="1" stroke="#000000" stroke-opacity="1" stroke-width="3.2"/>
<circle clip-path="url(#clip582)" cx="1469.49" cy="1008.08" r="14.4" fill="#e69f00" fill-rule="evenodd" fill-opacity="1" stroke="#000000" stroke-opacity="1" stroke-width="3.2"/>
<path clip-path="url(#clip582)" d="
M147.478 1245.46 L181.292 1257.34 L195.895 1243.8 L206.466 1219.96 L212.388 1213.22 L216.181 1190.76 L222.672 1178.05 L235.772 1154.59 L246.45 1153.05 L250.949 1151.74 
  L260.511 1152.83 L261.001 1154.15 L266.446 1173.66 L273.169 1151.11 L285.802 1102.84 L295.872 1094.37 L295.932 1096.93 L316.498 1079.4 L319.015 1073.69 L324.999 1052.79 
  L325.639 1050.95 L344.833 1033.54 L346.338 1015.87 L350.399 1007.51 L358.782 1009.86 L370.185 1010.04 L371.076 1035.35 L378.181 1008.85 L383.096 1015.76 L392.057 1018.91 
  L407.629 1002.76 L408.61 1012.02 L415.564 998.133 L421.952 1037.52 L423.835 1005.97 L446.824 1007.57 L455.224 1008.46 L473.228 1003.55 L485.029 1003.7 L485.41 1018.07 
  L491.285 1008.98 L497.597 1016.8 L503.856 1002 L509.011 1023.27 L535.901 1010.6 L564.619 997.729 L591.856 1015.89 L601.593 1011.43 L603.372 1016.19 L610.863 1017.7 
  L614.883 1009.78 L619.356 1018.04 L627.945 1016.93 L630.007 1024.04 L635.087 1015.32 L635.832 1015.5 L656.406 1026.48 L687.719 1030.66 L688.788 1058.94 L696.2 1023.54 
  L705.394 1040.16 L734.069 1078.11 L762.569 1099.18 L764.272 1100.07 L772.136 1137.36 L775.394 1155.34 L788.37 1149.03 L801.155 1147.16 L814.614 1152.99 L831.311 1169.78 
  L839.616 1171.08 L864.219 1204.33 L870.716 1216.2 L891.246 1208.22 L910.668 1244.14 L911.707 1243.66 L914.898 1243.47 L915.274 1250.25 L916.917 1241.75 L921.644 1239.96 
  L928.879 1265.33 L929.96 1269.45 L946.253 1293.77 L951.037 1277.73 L951.882 1282.71 L953.121 1276.92 L962.935 1276.8 L964.531 1272.01 L965.505 1291.57 L978.573 1279.46 
  L984.051 1279.99 L994.916 1285.75 L996.931 1291.93 L1015.11 1296.89 L1019.12 1287.42 L1041.81 1299.05 L1044.89 1305.73 L1071.29 1338.15 L1071.55 1343.74 L1074.37 1338.03 
  L1081.76 1338.37 L1085.02 1346.36 L1088.88 1347.58 L1110.29 1362.15 L1112.36 1374.26 L1119.86 1355.82 L1124.57 1365.97 L1140.01 1363.75 L1154.75 1379.35 L1171.74 1366.31 
  L1180.81 1393.12 L1193.24 1392.4 L1196.99 1387.76 L1214.65 1386.29 L1217.74 1405.14 L1219.09 1395.62 L1226.27 1388.99 L1244.79 1386.91 L1264.01 1400.91 L1270.75 1387.41 
  L1299.88 1386.64 L1330.74 1397.84 L1334.77 1386.13 L1335.27 1388.6 L1343.26 1389.02 L1347.07 1391.61 L1370.35 1387.2 L1395.71 1411.58 L1407.31 1377.63 L1410.89 1367.4 
  L1411.2 1371.39 L1415.89 1366.83 L1422.13 1355.93 L1424.93 1372.06 L1438.81 1311.58 L1442.83 1294.76 L1443.07 1301.19 L1445.73 1293.7 L1456.31 1295.07 L1469.49 1277.13 
  L1471.5 1266.1 L1481.9 1271.53 L1488.57 1271.95 L1490.77 1264.11 L1493.43 1255.07 L1497.43 1259.99 L1497.81 1260.22 L1508.12 1259.91 L1508.66 1268.37 L1510.35 1255.61 
  L1515.35 1263.95 L1517.73 1260.76 L1522.54 1253.14 L1537.63 1232.09 L1539.74 1232.57 L1543.68 1243.04 L1574.24 1227.77 L1576.09 1236.07 L1577.93 1227.11 L1579.57 1219.37 
  L1583.53 1251.06 L1589.94 1216.99 L1640.52 1180.85 L1664.67 1148.9 L1668.62 1156.27 L1671.13 1154.79 L1671.44 1163.08 L1673.75 1164.87 L1715.33 1148.97 L1723.46 1143.4 
  L1733.45 1142.9 L1733.57 1152.12 L1734.28 1139.11 L1735.72 1144.93 L1740.97 1132.11 L1791.8 1085.42 L1797.86 1079.56 L1808.59 1058.44 L1836.19 982.222 L1838.6 984.746 
  L1841.27 997.278 L1855.88 962.825 L1868.71 962.216 L1881.54 972.241 L1885.41 955.684 L1888.6 955.82 L1888.84 967.432 L1904.13 970.09 L1923.39 962.216 L1936.31 961.251 
  L1958.75 955.477 L1963.99 951.206 L1966.39 942.064 L1967.58 952.55 L1973.53 944.397 L1974.55 944.397 L1982.73 955.806 L1983.54 949.219 L1984.77 941.401 L1986.94 955.806 
  L2002.99 955.806 L2054.97 978.528 L2055.02 986.094 L2067.39 984.036 L2073.06 976.043 L2086.74 976.603 L2091 984.793 L2091.16 980.83 L2093.63 991.675 L2103.68 984.5 
  L2113.53 997.651 L2116.83 999.712 L2122.97 1060.12 L2146.48 1114.21 L2156.85 1111.73 L2172.26 1136.37 L2177.2 1120.67 L2178.25 1138.24 L2191.06 1131.4 L2196.74 1122.33 
  L2198.52 1128.14 L2199.54 1130.57 L2207.67 1147.28 L2216.55 1140.25 L2223.39 1138.44 L2223.45 1152.62 L2236.66 1158.31 L2243.75 1152.58 L2263.8 1167.1 L2269.81 1173.85 
  L2281.58 1193.07 L2282.42 1189.38 L2288.27 1201.47 L2293.3 1209.6 L2299.25 1247.78 L2300.76 1243.24 L2311.08 1260.47 L2350.29 1276.44 L2351.87 1273.23 L2352.76 1289.93 
  L2352.76 484.465 L2351.87 501.162 L2350.29 497.959 L2311.08 496.319 L2300.76 477.064 L2299.25 472.521 L2293.3 437.528 L2288.27 429.395 L2282.42 429.296 L2281.58 425.599 
  L2269.81 371.569 L2263.8 378.313 L2243.75 369.909 L2236.66 350.277 L2223.45 360.694 L2223.39 374.869 L2216.55 373.227 L2207.67 351.049 L2199.54 358.504 L2198.52 352.029 
  L2196.74 357.845 L2191.06 348.779 L2178.25 341.943 L2177.2 355.367 L2172.26 328.166 L2156.85 328.722 L2146.48 314.355 L2122.97 263.83 L2116.83 214.244 L2113.53 216.305 
  L2103.68 200.564 L2093.63 197.915 L2091.16 208.76 L2091 204.797 L2086.74 208.461 L2073.06 209.021 L2067.39 201.027 L2055.02 192.846 L2054.97 200.412 L2002.99 160.245 
  L1986.94 160.245 L1984.77 174.65 L1983.54 166.832 L1982.73 160.245 L1974.55 172.327 L1973.53 172.327 L1967.58 164.173 L1966.39 175.471 L1963.99 166.329 L1958.75 189.141 
  L1936.31 183.368 L1923.39 182.402 L1904.13 174.529 L1888.84 177.186 L1888.6 188.798 L1885.41 188.934 L1881.54 172.377 L1868.71 182.402 L1855.88 197.739 L1841.27 196.604 
  L1838.6 212.676 L1836.19 215.2 L1808.59 278.521 L1797.86 283.266 L1791.8 313.346 L1740.97 363.971 L1735.72 368.812 L1734.28 374.625 L1733.57 361.621 L1733.45 370.834 
  L1723.46 376.41 L1715.33 373.735 L1673.75 365.003 L1671.44 366.788 L1671.13 375.078 L1668.62 373.601 L1664.67 381.881 L1640.52 376.736 L1589.94 449.973 L1583.53 415.902 
  L1579.57 447.592 L1577.93 439.854 L1576.09 447.688 L1574.24 455.986 L1543.68 452.541 L1539.74 463.009 L1537.63 463.487 L1522.54 486.39 L1517.73 478.767 L1515.35 475.577 
  L1510.35 488.584 L1508.66 475.825 L1508.12 487.839 L1497.81 492.742 L1497.43 492.968 L1493.43 497.894 L1490.77 488.849 L1488.57 481.112 L1481.9 493.643 L1471.5 499.074 
  L1469.49 510.111 L1456.31 505.635 L1445.73 527.684 L1443.07 520.191 L1442.83 526.619 L1438.81 542.382 L1424.93 582.626 L1422.13 598.756 L1415.89 599.835 L1411.2 595.274 
  L1410.89 599.26 L1407.31 600.7 L1395.71 594.668 L1370.35 619.054 L1347.07 614.639 L1343.26 617.234 L1335.27 617.652 L1334.77 620.119 L1330.74 608.409 L1299.88 619.614 
  L1270.75 618.843 L1264.01 605.344 L1244.79 619.345 L1226.27 617.257 L1219.09 610.633 L1217.74 601.109 L1214.65 619.957 L1196.99 618.493 L1193.24 613.847 L1180.81 611.773 
  L1171.74 595.837 L1154.75 572.882 L1140.01 588.487 L1124.57 586.261 L1119.86 596.418 L1112.36 577.971 L1110.29 590.083 L1088.88 567.77 L1085.02 563.354 L1081.76 571.347 
  L1074.37 571.69 L1071.55 565.977 L1071.29 571.562 L1044.89 535.351 L1041.81 511.787 L1019.12 519.856 L1015.11 510.379 L996.931 512.214 L994.916 518.391 L984.051 506.867 
  L978.573 507.393 L965.505 495.282 L964.531 514.842 L962.935 510.053 L953.121 509.932 L951.882 504.15 L951.037 509.125 L946.253 493.091 L929.96 494.187 L928.879 498.307 
  L921.644 467.891 L916.917 463.193 L915.274 454.691 L914.898 461.473 L911.707 461.288 L910.668 458.783 L891.246 429.746 L870.716 420.381 L864.219 432.257 L839.616 403.825 
  L831.311 402.761 L814.614 368.118 L801.155 367.236 L788.37 365.366 L775.394 359.051 L772.136 362.118 L764.272 321.515 L762.569 303.616 L734.069 295.835 L705.394 265.656 
  L696.2 266.368 L688.788 227.836 L687.719 256.114 L656.406 239.219 L635.832 237.024 L635.087 237.204 L630.007 228.482 L627.945 235.593 L619.356 221.81 L614.883 230.067 
  L610.863 222.143 L603.372 223.653 L601.593 228.419 L591.856 223.962 L564.619 242.118 L535.901 229.25 L509.011 216.58 L503.856 237.847 L497.597 223.044 L491.285 230.866 
  L485.41 221.777 L485.029 236.143 L473.228 236.296 L455.224 231.389 L446.824 232.308 L423.835 233.903 L421.952 202.357 L415.564 242.894 L408.61 229.009 L407.629 238.269 
  L392.057 222.113 L383.096 225.265 L378.181 232.172 L371.076 206.254 L370.185 231.566 L358.782 231.746 L350.399 235.732 L346.338 237.175 L344.833 249.952 L325.639 283.927 
  L324.999 282.081 L319.015 288.814 L316.498 283.106 L295.932 319.73 L295.872 322.297 L285.802 331.894 L273.169 374.428 L266.446 356.747 L261.001 376.263 L260.511 377.574 
  L250.949 387.256 L246.45 386.027 L235.772 387.336 L222.672 406.397 L216.181 422.619 L212.388 434.528 L206.466 437.531 L195.895 468.56 L181.292 455.022 L147.478 466.902 
   Z
  " fill="#56b4e9" fill-rule="evenodd" fill-opacity="0.5"/>
<polyline clip-path="url(#clip582)" style="stroke:#56b4e9; stroke-linecap:round; stroke-linejoin:round; stroke-width:4; stroke-opacity:1; fill:none" points="
  147.478,856.18 181.292,856.18 195.895,856.18 206.466,828.744 212.388,823.875 216.181,806.69 222.672,792.222 235.772,770.964 246.45,769.538 250.949,769.5 
  260.511,765.204 261.001,765.204 266.446,765.204 273.169,762.769 285.802,717.367 295.872,708.332 295.932,708.332 316.498,681.252 319.015,681.252 324.999,667.438 
  325.639,667.438 344.833,641.746 346.338,626.522 350.399,621.623 358.782,620.804 370.185,620.804 371.076,620.804 378.181,620.513 383.096,620.513 392.057,620.513 
  407.629,620.513 408.61,620.513 415.564,620.513 421.952,619.938 423.835,619.938 446.824,619.938 455.224,619.924 473.228,619.924 485.029,619.924 485.41,619.924 
  491.285,619.924 497.597,619.924 503.856,619.924 509.011,619.924 535.901,619.924 564.619,619.924 591.856,619.924 601.593,619.924 603.372,619.924 610.863,619.924 
  614.883,619.924 619.356,619.924 627.945,626.262 630.007,626.262 635.087,626.262 635.832,626.262 656.406,632.849 687.719,643.387 688.788,643.387 696.2,644.954 
  705.394,652.908 734.069,686.973 762.569,701.397 764.272,710.793 772.136,749.738 775.394,757.198 788.37,757.198 801.155,757.198 814.614,760.556 831.311,786.272 
  839.616,787.452 864.219,818.292 870.716,818.292 891.246,818.984 910.668,851.46 911.707,852.472 914.898,852.472 915.274,852.472 916.917,852.472 921.644,853.926 
  928.879,881.818 929.96,881.818 946.253,893.428 951.037,893.428 951.882,893.428 953.121,893.428 962.935,893.428 964.531,893.428 965.505,893.428 978.573,893.428 
  984.051,893.428 994.916,902.071 996.931,902.071 1015.11,903.637 1019.12,903.637 1041.81,905.417 1044.89,920.538 1071.29,954.858 1071.55,954.858 1074.37,954.858 
  1081.76,954.858 1085.02,954.858 1088.88,957.676 1110.29,976.118 1112.36,976.118 1119.86,976.118 1124.57,976.118 1140.01,976.118 1154.75,976.118 1171.74,981.072 
  1180.81,1002.45 1193.24,1003.12 1196.99,1003.12 1214.65,1003.12 1217.74,1003.12 1219.09,1003.12 1226.27,1003.12 1244.79,1003.12 1264.01,1003.12 1270.75,1003.12 
  1299.88,1003.12 1330.74,1003.12 1334.77,1003.12 1335.27,1003.12 1343.26,1003.12 1347.07,1003.12 1370.35,1003.12 1395.71,1003.12 1407.31,989.166 1410.89,983.331 
  1411.2,983.331 1415.89,983.331 1422.13,977.342 1424.93,977.342 1438.81,926.981 1442.83,910.69 1443.07,910.69 1445.73,910.69 1456.31,900.352 1469.49,893.622 
  1471.5,882.585 1481.9,882.585 1488.57,876.529 1490.77,876.48 1493.43,876.48 1497.43,876.48 1497.81,876.48 1508.12,873.874 1508.66,872.095 1510.35,872.095 
  1515.35,869.765 1517.73,869.765 1522.54,869.765 1537.63,847.79 1539.74,847.79 1543.68,847.79 1574.24,841.877 1576.09,841.877 1577.93,833.484 1579.57,833.484 
  1583.53,833.484 1589.94,833.484 1640.52,778.792 1664.67,765.392 1668.62,764.935 1671.13,764.935 1671.44,764.935 1673.75,764.935 1715.33,761.355 1723.46,759.906 
  1733.45,756.869 1733.57,756.869 1734.28,756.869 1735.72,756.869 1740.97,748.042 1791.8,699.381 1797.86,681.413 1808.59,668.482 1836.19,598.711 1838.6,598.711 
  1841.27,596.941 1855.88,580.282 1868.71,572.309 1881.54,572.309 1885.41,572.309 1888.6,572.309 1888.84,572.309 1904.13,572.309 1923.39,572.309 1936.31,572.309 
  1958.75,572.309 1963.99,558.768 1966.39,558.768 1967.58,558.362 1973.53,558.362 1974.55,558.362 1982.73,558.025 1983.54,558.025 1984.77,558.025 1986.94,558.025 
  2002.99,558.025 2054.97,589.47 2055.02,589.47 2067.39,592.532 2073.06,592.532 2086.74,592.532 2091,594.795 2091.16,594.795 2093.63,594.795 2103.68,592.532 
  2113.53,606.978 2116.83,606.978 2122.97,661.977 2146.48,714.284 2156.85,720.226 2172.26,732.27 2177.2,738.019 2178.25,740.089 2191.06,740.089 2196.74,740.089 
  2198.52,740.086 2199.54,744.539 2207.67,749.163 2216.55,756.738 2223.39,756.656 2223.45,756.656 2236.66,754.292 2243.75,761.243 2263.8,772.708 2269.81,772.708 
  2281.58,809.337 2282.42,809.337 2288.27,815.43 2293.3,823.563 2299.25,860.152 2300.76,860.152 2311.08,878.395 2350.29,887.197 2351.87,887.197 2352.76,887.197 
  
  "/>
<polyline clip-path="url(#clip582)" style="stroke:#000000; stroke-linecap:round; stroke-linejoin:round; stroke-width:4; stroke-opacity:1; fill:none" stroke-dasharray="16, 10" points="
  145.31,977.513 148.996,967.826 152.682,958.223 156.368,948.705 160.055,939.272 163.741,929.925 167.427,920.665 171.113,911.493 174.8,902.41 178.486,893.416 
  182.172,884.511 185.858,875.698 189.545,866.976 193.231,858.347 196.917,849.81 200.603,841.367 204.29,833.018 207.976,824.764 211.662,816.605 215.348,808.543 
  219.035,800.577 222.721,792.708 226.407,784.938 230.093,777.265 233.78,769.692 237.466,762.217 241.152,754.843 244.838,747.569 248.525,740.396 252.211,733.323 
  255.897,726.353 259.583,719.485 263.27,712.719 266.956,706.056 270.642,699.496 274.328,693.039 278.015,686.687 281.701,680.438 285.387,674.294 289.073,668.255 
  292.76,662.321 296.446,656.491 300.132,650.768 303.818,645.15 307.505,639.638 311.191,634.231 314.877,628.931 318.563,623.738 322.25,618.651 325.936,613.67 
  329.622,608.796 333.308,604.029 336.995,599.368 340.681,594.815 344.367,590.368 348.053,586.028 351.74,581.795 355.426,577.669 359.112,573.65 362.798,569.737 
  366.485,565.932 370.171,562.233 373.857,558.64 377.543,555.154 381.23,551.774 384.916,548.5 388.602,545.332 392.288,542.27 395.975,539.314 399.661,536.463 
  403.347,533.717 407.033,531.077 410.72,528.54 414.406,526.109 418.092,523.781 421.778,521.558 425.464,519.438 429.151,517.421 432.837,515.507 436.523,513.695 
  440.209,511.986 443.896,510.378 447.582,508.872 451.268,507.467 454.954,506.162 458.641,504.957 462.327,503.852 466.013,502.846 469.699,501.939 473.386,501.13 
  477.072,500.418 480.758,499.804 484.444,499.286 488.131,498.865 491.817,498.538 495.503,498.307 499.189,498.17 502.876,498.127 506.562,498.177 510.248,498.32 
  513.934,498.554 517.621,498.879 521.307,499.296 524.993,499.801 528.679,500.397 532.366,501.08 536.052,501.851 539.738,502.71 543.424,503.655 547.111,504.685 
  550.797,505.8 554.483,506.999 558.169,508.282 561.856,509.647 565.542,511.093 569.228,512.621 572.914,514.229 576.601,515.916 580.287,517.681 583.973,519.524 
  587.659,521.444 591.346,523.439 595.032,525.51 598.718,527.654 602.404,529.872 606.091,532.162 609.777,534.524 613.463,536.956 617.149,539.458 620.836,542.028 
  624.522,544.666 628.208,547.371 631.894,550.141 635.581,552.976 639.267,555.875 642.953,558.837 646.639,561.861 650.326,564.946 654.012,568.091 657.698,571.294 
  661.384,574.556 665.071,577.874 668.757,581.248 672.443,584.677 676.129,588.16 679.816,591.695 683.502,595.282 687.188,598.92 690.874,602.608 694.561,606.344 
  698.247,610.127 701.933,613.957 705.619,617.832 709.305,621.751 712.992,625.714 716.678,629.719 720.364,633.764 724.05,637.85 727.737,641.974 731.423,646.136 
  735.109,650.335 738.795,654.569 742.482,658.838 746.168,663.14 749.854,667.474 753.54,671.839 757.227,676.234 760.913,680.658 764.599,685.11 768.285,689.589 
  771.972,694.093 775.658,698.621 779.344,703.173 783.03,707.747 786.717,712.341 790.403,716.956 794.089,721.59 797.775,726.241 801.462,730.909 805.148,735.593 
  808.834,740.29 812.52,745.001 816.207,749.724 819.893,754.458 823.579,759.202 827.265,763.955 830.952,768.715 834.638,773.482 838.324,778.255 842.01,783.032 
  845.697,787.812 849.383,792.594 853.069,797.377 856.755,802.161 860.442,806.943 864.128,811.723 867.814,816.5 871.5,821.272 875.187,826.039 878.873,830.8 
  882.559,835.553 886.245,840.297 889.932,845.032 893.618,849.756 897.304,854.469 900.99,859.168 904.677,863.854 908.363,868.525 912.049,873.18 915.735,877.819 
  919.422,882.439 923.108,887.04 926.794,891.622 930.48,896.183 934.167,900.721 937.853,905.237 941.539,909.73 945.225,914.197 948.912,918.639 952.598,923.054 
  956.284,927.441 959.97,931.8 963.657,936.129 967.343,940.428 971.029,944.695 974.715,948.931 978.402,953.133 982.088,957.301 985.774,961.434 989.46,965.532 
  993.146,969.592 996.833,973.616 1000.52,977.601 1004.21,981.547 1007.89,985.452 1011.58,989.317 1015.26,993.141 1018.95,996.922 1022.64,1000.66 1026.32,1004.35 
  1030.01,1008 1033.7,1011.61 1037.38,1015.16 1041.07,1018.67 1044.75,1022.14 1048.44,1025.55 1052.13,1028.92 1055.81,1032.23 1059.5,1035.5 1063.19,1038.71 
  1066.87,1041.87 1070.56,1044.98 1074.24,1048.04 1077.93,1051.04 1081.62,1053.99 1085.3,1056.88 1088.99,1059.72 1092.68,1062.5 1096.36,1065.23 1100.05,1067.9 
  1103.73,1070.51 1107.42,1073.06 1111.11,1075.55 1114.79,1077.98 1118.48,1080.36 1122.17,1082.67 1125.85,1084.92 1129.54,1087.11 1133.22,1089.24 1136.91,1091.31 
  1140.6,1093.32 1144.28,1095.26 1147.97,1097.14 1151.66,1098.95 1155.34,1100.7 1159.03,1102.39 1162.71,1104.01 1166.4,1105.57 1170.09,1107.06 1173.77,1108.48 
  1177.46,1109.84 1181.15,1111.14 1184.83,1112.36 1188.52,1113.52 1192.2,1114.62 1195.89,1115.64 1199.58,1116.6 1203.26,1117.49 1206.95,1118.31 1210.64,1119.07 
  1214.32,1119.75 1218.01,1120.37 1221.69,1120.92 1225.38,1121.4 1229.07,1121.82 1232.75,1122.16 1236.44,1122.44 1240.13,1122.64 1243.81,1122.78 1247.5,1122.85 
  1251.18,1122.85 1254.87,1122.78 1258.56,1122.64 1262.24,1122.44 1265.93,1122.16 1269.61,1121.82 1273.3,1121.4 1276.99,1120.92 1280.67,1120.37 1284.36,1119.75 
  1288.05,1119.07 1291.73,1118.31 1295.42,1117.49 1299.1,1116.6 1302.79,1115.64 1306.48,1114.62 1310.16,1113.52 1313.85,1112.36 1317.54,1111.14 1321.22,1109.84 
  1324.91,1108.48 1328.59,1107.06 1332.28,1105.57 1335.97,1104.01 1339.65,1102.39 1343.34,1100.7 1347.03,1098.95 1350.71,1097.14 1354.4,1095.26 1358.08,1093.32 
  1361.77,1091.31 1365.46,1089.24 1369.14,1087.11 1372.83,1084.92 1376.52,1082.67 1380.2,1080.36 1383.89,1077.98 1387.57,1075.55 1391.26,1073.06 1394.95,1070.51 
  1398.63,1067.9 1402.32,1065.23 1406.01,1062.5 1409.69,1059.72 1413.38,1056.88 1417.06,1053.99 1420.75,1051.04 1424.44,1048.04 1428.12,1044.98 1431.81,1041.87 
  1435.5,1038.71 1439.18,1035.5 1442.87,1032.23 1446.55,1028.92 1450.24,1025.55 1453.93,1022.14 1457.61,1018.67 1461.3,1015.16 1464.99,1011.61 1468.67,1008 
  1472.36,1004.35 1476.04,1000.66 1479.73,996.922 1483.42,993.141 1487.1,989.317 1490.79,985.452 1494.48,981.547 1498.16,977.601 1501.85,973.616 1505.53,969.592 
  1509.22,965.532 1512.91,961.434 1516.59,957.301 1520.28,953.133 1523.97,948.931 1527.65,944.695 1531.34,940.428 1535.02,936.129 1538.71,931.8 1542.4,927.441 
  1546.08,923.054 1549.77,918.639 1553.46,914.197 1557.14,909.73 1560.83,905.237 1564.51,900.721 1568.2,896.183 1571.89,891.622 1575.57,887.04 1579.26,882.439 
  1582.95,877.819 1586.63,873.18 1590.32,868.525 1594,863.854 1597.69,859.168 1601.38,854.469 1605.06,849.756 1608.75,845.032 1612.44,840.297 1616.12,835.553 
  1619.81,830.8 1623.49,826.039 1627.18,821.272 1630.87,816.5 1634.55,811.723 1638.24,806.943 1641.93,802.161 1645.61,797.377 1649.3,792.594 1652.98,787.812 
  1656.67,783.032 1660.36,778.255 1664.04,773.482 1667.73,768.715 1671.42,763.955 1675.1,759.202 1678.79,754.458 1682.47,749.724 1686.16,745.001 1689.85,740.29 
  1693.53,735.593 1697.22,730.909 1700.91,726.241 1704.59,721.59 1708.28,716.956 1711.96,712.341 1715.65,707.747 1719.34,703.173 1723.02,698.621 1726.71,694.093 
  1730.4,689.589 1734.08,685.11 1737.77,680.658 1741.45,676.234 1745.14,671.839 1748.83,667.474 1752.51,663.14 1756.2,658.838 1759.89,654.569 1763.57,650.335 
  1767.26,646.136 1770.94,641.974 1774.63,637.85 1778.32,633.764 1782,629.719 1785.69,625.714 1789.38,621.751 1793.06,617.832 1796.75,613.957 1800.43,610.127 
  1804.12,606.344 1807.81,602.608 1811.49,598.92 1815.18,595.282 1818.87,591.695 1822.55,588.16 1826.24,584.677 1829.92,581.248 1833.61,577.874 1837.3,574.556 
  1840.98,571.294 1844.67,568.091 1848.36,564.946 1852.04,561.861 1855.73,558.837 1859.41,555.875 1863.1,552.976 1866.79,550.141 1870.47,547.371 1874.16,544.666 
  1877.85,542.028 1881.53,539.458 1885.22,536.956 1888.9,534.524 1892.59,532.162 1896.28,529.872 1899.96,527.654 1903.65,525.51 1907.34,523.439 1911.02,521.444 
  1914.71,519.524 1918.39,517.681 1922.08,515.916 1925.77,514.229 1929.45,512.621 1933.14,511.093 1936.83,509.647 1940.51,508.282 1944.2,506.999 1947.88,505.8 
  1951.57,504.685 1955.26,503.655 1958.94,502.71 1962.63,501.851 1966.32,501.08 1970,500.397 1973.69,499.801 1977.37,499.296 1981.06,498.879 1984.75,498.554 
  1988.43,498.32 1992.12,498.177 1995.81,498.127 1999.49,498.17 2003.18,498.307 2006.86,498.538 2010.55,498.865 2014.24,499.286 2017.92,499.804 2021.61,500.418 
  2025.3,501.13 2028.98,501.939 2032.67,502.846 2036.35,503.852 2040.04,504.957 2043.73,506.162 2047.41,507.467 2051.1,508.872 2054.79,510.378 2058.47,511.986 
  2062.16,513.695 2065.84,515.507 2069.53,517.421 2073.22,519.438 2076.9,521.558 2080.59,523.781 2084.28,526.109 2087.96,528.54 2091.65,531.077 2095.33,533.717 
  2099.02,536.463 2102.71,539.314 2106.39,542.27 2110.08,545.332 2113.77,548.5 2117.45,551.774 2121.14,555.154 2124.82,558.64 2128.51,562.233 2132.2,565.932 
  2135.88,569.737 2139.57,573.65 2143.26,577.669 2146.94,581.795 2150.63,586.028 2154.31,590.368 2158,594.815 2161.69,599.368 2165.37,604.029 2169.06,608.796 
  2172.75,613.67 2176.43,618.651 2180.12,623.738 2183.8,628.931 2187.49,634.231 2191.18,639.638 2194.86,645.15 2198.55,650.768 2202.24,656.491 2205.92,662.321 
  2209.61,668.255 2213.29,674.294 2216.98,680.438 2220.67,686.687 2224.35,693.039 2228.04,699.496 2231.73,706.056 2235.41,712.719 2239.1,719.485 2242.78,726.353 
  2246.47,733.323 2250.16,740.396 2253.84,747.569 2257.53,754.843 2261.22,762.217 2264.9,769.692 2268.59,777.265 2272.27,784.938 2275.96,792.708 2279.65,800.577 
  2283.33,808.543 2287.02,816.605 2290.71,824.764 2294.39,833.018 2298.08,841.367 2301.76,849.81 2305.45,858.347 2309.14,866.976 2312.82,875.698 2316.51,884.511 
  2320.2,893.416 2323.88,902.41 2327.57,911.493 2331.25,920.665 2334.94,929.925 2338.63,939.272 2342.31,948.705 2346,958.223 2349.69,967.826 2353.37,977.513 
  
  "/>
<path clip-path="url(#clip580)" d="
M1759.21 1438.47 L2279.25 1438.47 L2279.25 1231.11 L1759.21 1231.11  Z
  " fill="#ffffff" fill-rule="evenodd" fill-opacity="1"/>
<polyline clip-path="url(#clip580)" style="stroke:#000000; stroke-linecap:round; stroke-linejoin:round; stroke-width:4; stroke-opacity:1; fill:none" points="
  1759.21,1438.47 2279.25,1438.47 2279.25,1231.11 1759.21,1231.11 1759.21,1438.47 
  "/>
<circle clip-path="url(#clip580)" cx="1857.22" cy="1282.95" r="23.04" fill="#e69f00" fill-rule="evenodd" fill-opacity="1" stroke="#000000" stroke-opacity="1" stroke-width="5.12"/>
<path clip-path="url(#clip580)" d="M1971.25 1268.85 Q1966.16 1268.85 1963.15 1272.64 Q1960.16 1276.44 1960.16 1282.99 Q1960.16 1289.52 1963.15 1293.31 Q1966.16 1297.11 1971.25 1297.11 Q1976.34 1297.11 1979.31 1293.31 Q1982.29 1289.52 1982.29 1282.99 Q1982.29 1276.44 1979.31 1272.64 Q1976.34 1268.85 1971.25 1268.85 M1971.25 1265.05 Q1978.52 1265.05 1982.87 1269.93 Q1987.22 1274.79 1987.22 1282.99 Q1987.22 1291.16 1982.87 1296.04 Q1978.52 1300.91 1971.25 1300.91 Q1963.96 1300.91 1959.58 1296.04 Q1955.23 1291.18 1955.23 1282.99 Q1955.23 1274.79 1959.58 1269.93 Q1963.96 1265.05 1971.25 1265.05 Z" fill="#000000" fill-rule="evenodd" fill-opacity="1" /><path clip-path="url(#clip580)" d="M2012.96 1287.29 Q2012.96 1282.6 2011.02 1279.93 Q2009.1 1277.25 2005.72 1277.25 Q2002.34 1277.25 2000.39 1279.93 Q1998.47 1282.6 1998.47 1287.29 Q1998.47 1291.99 2000.39 1294.68 Q2002.34 1297.34 2005.72 1297.34 Q2009.1 1297.34 2011.02 1294.68 Q2012.96 1291.99 2012.96 1287.29 M1998.47 1278.24 Q1999.81 1275.93 2001.85 1274.82 Q2003.91 1273.68 2006.76 1273.68 Q2011.48 1273.68 2014.42 1277.43 Q2017.38 1281.18 2017.38 1287.29 Q2017.38 1293.41 2014.42 1297.16 Q2011.48 1300.91 2006.76 1300.91 Q2003.91 1300.91 2001.85 1299.79 Q1999.81 1298.66 1998.47 1296.35 L1998.47 1300.23 L1994.19 1300.23 L1994.19 1264.22 L1998.47 1264.22 L1998.47 1278.24 Z" fill="#000000" fill-rule="evenodd" fill-opacity="1" /><path clip-path="url(#clip580)" d="M2040.97 1275.07 L2040.97 1279.1 Q2039.17 1278.17 2037.22 1277.71 Q2035.28 1277.25 2033.19 1277.25 Q2030.02 1277.25 2028.43 1278.22 Q2026.85 1279.19 2026.85 1281.14 Q2026.85 1282.62 2027.99 1283.48 Q2029.12 1284.31 2032.55 1285.07 L2034 1285.4 Q2038.54 1286.37 2040.44 1288.15 Q2042.36 1289.91 2042.36 1293.08 Q2042.36 1296.69 2039.49 1298.8 Q2036.64 1300.91 2031.64 1300.91 Q2029.56 1300.91 2027.29 1300.49 Q2025.05 1300.1 2022.55 1299.29 L2022.55 1294.89 Q2024.91 1296.11 2027.2 1296.74 Q2029.49 1297.34 2031.74 1297.34 Q2034.74 1297.34 2036.37 1296.32 Q2037.99 1295.28 2037.99 1293.41 Q2037.99 1291.67 2036.8 1290.74 Q2035.65 1289.82 2031.69 1288.96 L2030.21 1288.61 Q2026.25 1287.78 2024.49 1286.07 Q2022.73 1284.33 2022.73 1281.32 Q2022.73 1277.67 2025.32 1275.67 Q2027.92 1273.68 2032.68 1273.68 Q2035.05 1273.68 2037.13 1274.03 Q2039.21 1274.38 2040.97 1275.07 Z" fill="#000000" fill-rule="evenodd" fill-opacity="1" /><path clip-path="url(#clip580)" d="M2071.32 1286.21 L2071.32 1288.29 L2051.74 1288.29 Q2052.01 1292.69 2054.37 1295 Q2056.76 1297.29 2060.99 1297.29 Q2063.45 1297.29 2065.74 1296.69 Q2068.05 1296.09 2070.32 1294.89 L2070.32 1298.91 Q2068.03 1299.89 2065.62 1300.4 Q2063.22 1300.91 2060.74 1300.91 Q2054.54 1300.91 2050.9 1297.29 Q2047.29 1293.68 2047.29 1287.53 Q2047.29 1281.16 2050.72 1277.43 Q2054.17 1273.68 2060 1273.68 Q2065.23 1273.68 2068.26 1277.06 Q2071.32 1280.42 2071.32 1286.21 M2067.06 1284.96 Q2067.01 1281.46 2065.09 1279.38 Q2063.19 1277.29 2060.05 1277.29 Q2056.48 1277.29 2054.33 1279.31 Q2052.2 1281.32 2051.87 1284.98 L2067.06 1284.96 Z" fill="#000000" fill-rule="evenodd" fill-opacity="1" /><path clip-path="url(#clip580)" d="M2093.33 1278.29 Q2092.61 1277.87 2091.76 1277.69 Q2090.92 1277.48 2089.91 1277.48 Q2086.3 1277.48 2084.35 1279.84 Q2082.43 1282.18 2082.43 1286.58 L2082.43 1300.23 L2078.15 1300.23 L2078.15 1274.31 L2082.43 1274.31 L2082.43 1278.34 Q2083.77 1275.98 2085.93 1274.84 Q2088.08 1273.68 2091.16 1273.68 Q2091.6 1273.68 2092.13 1273.75 Q2092.66 1273.8 2093.31 1273.92 L2093.33 1278.29 Z" fill="#000000" fill-rule="evenodd" fill-opacity="1" /><path clip-path="url(#clip580)" d="M2094.74 1274.31 L2099.26 1274.31 L2107.36 1296.07 L2115.46 1274.31 L2119.98 1274.31 L2110.25 1300.23 L2104.47 1300.23 L2094.74 1274.31 Z" fill="#000000" fill-rule="evenodd" fill-opacity="1" /><path clip-path="url(#clip580)" d="M2148.03 1286.21 L2148.03 1288.29 L2128.45 1288.29 Q2128.73 1292.69 2131.09 1295 Q2133.47 1297.29 2137.71 1297.29 Q2140.16 1297.29 2142.45 1296.69 Q2144.77 1296.09 2147.04 1294.89 L2147.04 1298.91 Q2144.74 1299.89 2142.34 1300.4 Q2139.93 1300.91 2137.45 1300.91 Q2131.25 1300.91 2127.61 1297.29 Q2124 1293.68 2124 1287.53 Q2124 1281.16 2127.43 1277.43 Q2130.88 1273.68 2136.71 1273.68 Q2141.94 1273.68 2144.98 1277.06 Q2148.03 1280.42 2148.03 1286.21 M2143.77 1284.96 Q2143.73 1281.46 2141.8 1279.38 Q2139.91 1277.29 2136.76 1277.29 Q2133.19 1277.29 2131.04 1279.31 Q2128.91 1281.32 2128.59 1284.98 L2143.77 1284.96 Z" fill="#000000" fill-rule="evenodd" fill-opacity="1" /><path clip-path="url(#clip580)" d="M2172.08 1278.24 L2172.08 1264.22 L2176.34 1264.22 L2176.34 1300.23 L2172.08 1300.23 L2172.08 1296.35 Q2170.74 1298.66 2168.68 1299.79 Q2166.64 1300.91 2163.77 1300.91 Q2159.07 1300.91 2156.11 1297.16 Q2153.17 1293.41 2153.17 1287.29 Q2153.17 1281.18 2156.11 1277.43 Q2159.07 1273.68 2163.77 1273.68 Q2166.64 1273.68 2168.68 1274.82 Q2170.74 1275.93 2172.08 1278.24 M2157.57 1287.29 Q2157.57 1291.99 2159.49 1294.68 Q2161.43 1297.34 2164.81 1297.34 Q2168.19 1297.34 2170.14 1294.68 Q2172.08 1291.99 2172.08 1287.29 Q2172.08 1282.6 2170.14 1279.93 Q2168.19 1277.25 2164.81 1277.25 Q2161.43 1277.25 2159.49 1279.93 Q2157.57 1282.6 2157.57 1287.29 Z" fill="#000000" fill-rule="evenodd" fill-opacity="1" /><polyline clip-path="url(#clip580)" style="stroke:#56b4e9; stroke-linecap:round; stroke-linejoin:round; stroke-width:4; stroke-opacity:1; fill:none" points="
  1783.71,1334.79 1930.73,1334.79 
  "/>
<path clip-path="url(#clip580)" d="M1959.91 1321.36 L1959.91 1334.34 L1965.79 1334.34 Q1969.05 1334.34 1970.83 1332.65 Q1972.62 1330.96 1972.62 1327.84 Q1972.62 1324.74 1970.83 1323.05 Q1969.05 1321.36 1965.79 1321.36 L1959.91 1321.36 M1955.23 1317.51 L1965.79 1317.51 Q1971.6 1317.51 1974.56 1320.15 Q1977.55 1322.77 1977.55 1327.84 Q1977.55 1332.95 1974.56 1335.57 Q1971.6 1338.19 1965.79 1338.19 L1959.91 1338.19 L1959.91 1352.07 L1955.23 1352.07 L1955.23 1317.51 Z" fill="#000000" fill-rule="evenodd" fill-opacity="1" /><path clip-path="url(#clip580)" d="M1997.82 1330.13 Q1997.11 1329.71 1996.25 1329.53 Q1995.42 1329.32 1994.4 1329.32 Q1990.79 1329.32 1988.84 1331.68 Q1986.92 1334.02 1986.92 1338.42 L1986.92 1352.07 L1982.64 1352.07 L1982.64 1326.15 L1986.92 1326.15 L1986.92 1330.18 Q1988.26 1327.82 1990.42 1326.68 Q1992.57 1325.52 1995.65 1325.52 Q1996.09 1325.52 1996.62 1325.59 Q1997.15 1325.64 1997.8 1325.76 L1997.82 1330.13 Z" fill="#000000" fill-rule="evenodd" fill-opacity="1" /><path clip-path="url(#clip580)" d="M2023.43 1338.05 L2023.43 1340.13 L2003.84 1340.13 Q2004.12 1344.53 2006.48 1346.84 Q2008.87 1349.13 2013.1 1349.13 Q2015.56 1349.13 2017.85 1348.53 Q2020.16 1347.93 2022.43 1346.73 L2022.43 1350.75 Q2020.14 1351.73 2017.73 1352.24 Q2015.32 1352.75 2012.85 1352.75 Q2006.64 1352.75 2003.01 1349.13 Q1999.4 1345.52 1999.4 1339.37 Q1999.4 1333 2002.82 1329.27 Q2006.27 1325.52 2012.11 1325.52 Q2017.34 1325.52 2020.37 1328.9 Q2023.43 1332.26 2023.43 1338.05 M2019.17 1336.8 Q2019.12 1333.3 2017.2 1331.22 Q2015.3 1329.13 2012.15 1329.13 Q2008.59 1329.13 2006.43 1331.15 Q2004.31 1333.16 2003.98 1336.82 L2019.17 1336.8 Z" fill="#000000" fill-rule="evenodd" fill-opacity="1" /><path clip-path="url(#clip580)" d="M2047.48 1330.08 L2047.48 1316.06 L2051.74 1316.06 L2051.74 1352.07 L2047.48 1352.07 L2047.48 1348.19 Q2046.13 1350.5 2044.07 1351.63 Q2042.04 1352.75 2039.17 1352.75 Q2034.47 1352.75 2031.5 1349 Q2028.56 1345.25 2028.56 1339.13 Q2028.56 1333.02 2031.5 1329.27 Q2034.47 1325.52 2039.17 1325.52 Q2042.04 1325.52 2044.07 1326.66 Q2046.13 1327.77 2047.48 1330.08 M2032.96 1339.13 Q2032.96 1343.83 2034.88 1346.52 Q2036.83 1349.18 2040.21 1349.18 Q2043.59 1349.18 2045.53 1346.52 Q2047.48 1343.83 2047.48 1339.13 Q2047.48 1334.44 2045.53 1331.77 Q2043.59 1329.09 2040.21 1329.09 Q2036.83 1329.09 2034.88 1331.77 Q2032.96 1334.44 2032.96 1339.13 Z" fill="#000000" fill-rule="evenodd" fill-opacity="1" /><path clip-path="url(#clip580)" d="M2060.51 1326.15 L2064.77 1326.15 L2064.77 1352.07 L2060.51 1352.07 L2060.51 1326.15 M2060.51 1316.06 L2064.77 1316.06 L2064.77 1321.45 L2060.51 1321.45 L2060.51 1316.06 Z" fill="#000000" fill-rule="evenodd" fill-opacity="1" /><path clip-path="url(#clip580)" d="M2092.34 1327.14 L2092.34 1331.13 Q2090.53 1330.13 2088.7 1329.64 Q2086.9 1329.13 2085.05 1329.13 Q2080.9 1329.13 2078.61 1331.77 Q2076.32 1334.39 2076.32 1339.13 Q2076.32 1343.88 2078.61 1346.52 Q2080.9 1349.13 2085.05 1349.13 Q2086.9 1349.13 2088.7 1348.65 Q2090.53 1348.14 2092.34 1347.14 L2092.34 1351.08 Q2090.55 1351.91 2088.63 1352.33 Q2086.74 1352.75 2084.58 1352.75 Q2078.73 1352.75 2075.28 1349.07 Q2071.83 1345.38 2071.83 1339.13 Q2071.83 1332.79 2075.3 1329.16 Q2078.8 1325.52 2084.86 1325.52 Q2086.83 1325.52 2088.7 1325.94 Q2090.58 1326.33 2092.34 1327.14 Z" fill="#000000" fill-rule="evenodd" fill-opacity="1" /><path clip-path="url(#clip580)" d="M2103.96 1318.79 L2103.96 1326.15 L2112.73 1326.15 L2112.73 1329.46 L2103.96 1329.46 L2103.96 1343.53 Q2103.96 1346.7 2104.81 1347.61 Q2105.69 1348.51 2108.36 1348.51 L2112.73 1348.51 L2112.73 1352.07 L2108.36 1352.07 Q2103.42 1352.07 2101.55 1350.25 Q2099.67 1348.39 2099.67 1343.53 L2099.67 1329.46 L2096.55 1329.46 L2096.55 1326.15 L2099.67 1326.15 L2099.67 1318.79 L2103.96 1318.79 Z" fill="#000000" fill-rule="evenodd" fill-opacity="1" /><path clip-path="url(#clip580)" d="M2140.51 1338.05 L2140.51 1340.13 L2120.92 1340.13 Q2121.2 1344.53 2123.56 1346.84 Q2125.95 1349.13 2130.18 1349.13 Q2132.64 1349.13 2134.93 1348.53 Q2137.24 1347.93 2139.51 1346.73 L2139.51 1350.75 Q2137.22 1351.73 2134.81 1352.24 Q2132.41 1352.75 2129.93 1352.75 Q2123.73 1352.75 2120.09 1349.13 Q2116.48 1345.52 2116.48 1339.37 Q2116.48 1333 2119.91 1329.27 Q2123.36 1325.52 2129.19 1325.52 Q2134.42 1325.52 2137.45 1328.9 Q2140.51 1332.26 2140.51 1338.05 M2136.25 1336.8 Q2136.2 1333.3 2134.28 1331.22 Q2132.38 1329.13 2129.23 1329.13 Q2125.67 1329.13 2123.52 1331.15 Q2121.39 1333.16 2121.06 1336.82 L2136.25 1336.8 Z" fill="#000000" fill-rule="evenodd" fill-opacity="1" /><path clip-path="url(#clip580)" d="M2164.56 1330.08 L2164.56 1316.06 L2168.82 1316.06 L2168.82 1352.07 L2164.56 1352.07 L2164.56 1348.19 Q2163.22 1350.5 2161.16 1351.63 Q2159.12 1352.75 2156.25 1352.75 Q2151.55 1352.75 2148.59 1349 Q2145.65 1345.25 2145.65 1339.13 Q2145.65 1333.02 2148.59 1329.27 Q2151.55 1325.52 2156.25 1325.52 Q2159.12 1325.52 2161.16 1326.66 Q2163.22 1327.77 2164.56 1330.08 M2150.05 1339.13 Q2150.05 1343.83 2151.97 1346.52 Q2153.91 1349.18 2157.29 1349.18 Q2160.67 1349.18 2162.61 1346.52 Q2164.56 1343.83 2164.56 1339.13 Q2164.56 1334.44 2162.61 1331.77 Q2160.67 1329.09 2157.29 1329.09 Q2153.91 1329.09 2151.97 1331.77 Q2150.05 1334.44 2150.05 1339.13 Z" fill="#000000" fill-rule="evenodd" fill-opacity="1" /><polyline clip-path="url(#clip580)" style="stroke:#000000; stroke-linecap:round; stroke-linejoin:round; stroke-width:4; stroke-opacity:1; fill:none" stroke-dasharray="16, 10" points="
  1783.71,1386.63 1930.73,1386.63 
  "/>
<path clip-path="url(#clip580)" d="M1980.79 1398.98 L1980.79 1389.7 L1973.15 1389.7 L1973.15 1385.86 L1985.42 1385.86 L1985.42 1400.7 Q1982.71 1402.62 1979.44 1403.61 Q1976.18 1404.59 1972.48 1404.59 Q1964.37 1404.59 1959.79 1399.86 Q1955.23 1395.12 1955.23 1386.67 Q1955.23 1378.2 1959.79 1373.47 Q1964.37 1368.73 1972.48 1368.73 Q1975.86 1368.73 1978.89 1369.56 Q1981.94 1370.4 1984.51 1372.02 L1984.51 1376.99 Q1981.92 1374.79 1979 1373.68 Q1976.09 1372.57 1972.87 1372.57 Q1966.53 1372.57 1963.33 1376.11 Q1960.16 1379.66 1960.16 1386.67 Q1960.16 1393.66 1963.33 1397.2 Q1966.53 1400.74 1972.87 1400.74 Q1975.35 1400.74 1977.29 1400.33 Q1979.24 1399.89 1980.79 1398.98 Z" fill="#000000" fill-rule="evenodd" fill-opacity="1" /><path clip-path="url(#clip580)" d="M2008.8 1381.97 Q2008.08 1381.55 2007.22 1381.37 Q2006.39 1381.16 2005.37 1381.16 Q2001.76 1381.16 1999.81 1383.52 Q1997.89 1385.86 1997.89 1390.26 L1997.89 1403.91 L1993.61 1403.91 L1993.61 1377.99 L1997.89 1377.99 L1997.89 1382.02 Q1999.24 1379.66 2001.39 1378.52 Q2003.54 1377.36 2006.62 1377.36 Q2007.06 1377.36 2007.59 1377.43 Q2008.12 1377.48 2008.77 1377.6 L2008.8 1381.97 Z" fill="#000000" fill-rule="evenodd" fill-opacity="1" /><path clip-path="url(#clip580)" d="M2022.27 1380.97 Q2018.84 1380.97 2016.85 1383.66 Q2014.86 1386.32 2014.86 1390.97 Q2014.86 1395.63 2016.83 1398.31 Q2018.82 1400.97 2022.27 1400.97 Q2025.67 1400.97 2027.66 1398.29 Q2029.65 1395.6 2029.65 1390.97 Q2029.65 1386.37 2027.66 1383.68 Q2025.67 1380.97 2022.27 1380.97 M2022.27 1377.36 Q2027.82 1377.36 2030.99 1380.97 Q2034.17 1384.59 2034.17 1390.97 Q2034.17 1397.34 2030.99 1400.97 Q2027.82 1404.59 2022.27 1404.59 Q2016.69 1404.59 2013.52 1400.97 Q2010.37 1397.34 2010.37 1390.97 Q2010.37 1384.59 2013.52 1380.97 Q2016.69 1377.36 2022.27 1377.36 Z" fill="#000000" fill-rule="evenodd" fill-opacity="1" /><path clip-path="url(#clip580)" d="M2040.79 1393.68 L2040.79 1377.99 L2045.05 1377.99 L2045.05 1393.52 Q2045.05 1397.2 2046.48 1399.05 Q2047.92 1400.88 2050.79 1400.88 Q2054.24 1400.88 2056.23 1398.68 Q2058.24 1396.48 2058.24 1392.69 L2058.24 1377.99 L2062.5 1377.99 L2062.5 1403.91 L2058.24 1403.91 L2058.24 1399.93 Q2056.69 1402.29 2054.63 1403.45 Q2052.59 1404.59 2049.88 1404.59 Q2045.42 1404.59 2043.1 1401.81 Q2040.79 1399.03 2040.79 1393.68 M2051.5 1377.36 L2051.5 1377.36 Z" fill="#000000" fill-rule="evenodd" fill-opacity="1" /><path clip-path="url(#clip580)" d="M2092.82 1388.27 L2092.82 1403.91 L2088.56 1403.91 L2088.56 1388.41 Q2088.56 1384.72 2087.13 1382.9 Q2085.69 1381.07 2082.82 1381.07 Q2079.37 1381.07 2077.38 1383.27 Q2075.39 1385.47 2075.39 1389.26 L2075.39 1403.91 L2071.11 1403.91 L2071.11 1377.99 L2075.39 1377.99 L2075.39 1382.02 Q2076.92 1379.68 2078.98 1378.52 Q2081.06 1377.36 2083.77 1377.36 Q2088.24 1377.36 2090.53 1380.14 Q2092.82 1382.9 2092.82 1388.27 Z" fill="#000000" fill-rule="evenodd" fill-opacity="1" /><path clip-path="url(#clip580)" d="M2118.38 1381.92 L2118.38 1367.9 L2122.64 1367.9 L2122.64 1403.91 L2118.38 1403.91 L2118.38 1400.03 Q2117.04 1402.34 2114.98 1403.47 Q2112.94 1404.59 2110.07 1404.59 Q2105.37 1404.59 2102.41 1400.84 Q2099.47 1397.09 2099.47 1390.97 Q2099.47 1384.86 2102.41 1381.11 Q2105.37 1377.36 2110.07 1377.36 Q2112.94 1377.36 2114.98 1378.5 Q2117.04 1379.61 2118.38 1381.92 M2103.86 1390.97 Q2103.86 1395.67 2105.79 1398.36 Q2107.73 1401.02 2111.11 1401.02 Q2114.49 1401.02 2116.43 1398.36 Q2118.38 1395.67 2118.38 1390.97 Q2118.38 1386.28 2116.43 1383.61 Q2114.49 1380.93 2111.11 1380.93 Q2107.73 1380.93 2105.79 1383.61 Q2103.86 1386.28 2103.86 1390.97 Z" fill="#000000" fill-rule="evenodd" fill-opacity="1" /><path clip-path="url(#clip580)" d="M2150.69 1370.63 L2150.69 1377.99 L2159.47 1377.99 L2159.47 1381.3 L2150.69 1381.3 L2150.69 1395.37 Q2150.69 1398.54 2151.55 1399.45 Q2152.43 1400.35 2155.09 1400.35 L2159.47 1400.35 L2159.47 1403.91 L2155.09 1403.91 Q2150.16 1403.91 2148.29 1402.09 Q2146.41 1400.23 2146.41 1395.37 L2146.41 1381.3 L2143.29 1381.3 L2143.29 1377.99 L2146.41 1377.99 L2146.41 1370.63 L2150.69 1370.63 Z" fill="#000000" fill-rule="evenodd" fill-opacity="1" /><path clip-path="url(#clip580)" d="M2180.09 1381.97 Q2179.37 1381.55 2178.52 1381.37 Q2177.68 1381.16 2176.67 1381.16 Q2173.05 1381.16 2171.11 1383.52 Q2169.19 1385.86 2169.19 1390.26 L2169.19 1403.91 L2164.91 1403.91 L2164.91 1377.99 L2169.19 1377.99 L2169.19 1382.02 Q2170.53 1379.66 2172.68 1378.52 Q2174.84 1377.36 2177.92 1377.36 Q2178.36 1377.36 2178.89 1377.43 Q2179.42 1377.48 2180.07 1377.6 L2180.09 1381.97 Z" fill="#000000" fill-rule="evenodd" fill-opacity="1" /><path clip-path="url(#clip580)" d="M2184.12 1393.68 L2184.12 1377.99 L2188.38 1377.99 L2188.38 1393.52 Q2188.38 1397.2 2189.81 1399.05 Q2191.25 1400.88 2194.12 1400.88 Q2197.57 1400.88 2199.56 1398.68 Q2201.57 1396.48 2201.57 1392.69 L2201.57 1377.99 L2205.83 1377.99 L2205.83 1403.91 L2201.57 1403.91 L2201.57 1399.93 Q2200.02 1402.29 2197.96 1403.45 Q2195.92 1404.59 2193.22 1404.59 Q2188.75 1404.59 2186.43 1401.81 Q2184.12 1399.03 2184.12 1393.68 M2194.84 1377.36 L2194.84 1377.36 Z" fill="#000000" fill-rule="evenodd" fill-opacity="1" /><path clip-path="url(#clip580)" d="M2218.82 1370.63 L2218.82 1377.99 L2227.59 1377.99 L2227.59 1381.3 L2218.82 1381.3 L2218.82 1395.37 Q2218.82 1398.54 2219.67 1399.45 Q2220.55 1400.35 2223.22 1400.35 L2227.59 1400.35 L2227.59 1403.91 L2223.22 1403.91 Q2218.29 1403.91 2216.41 1402.09 Q2214.54 1400.23 2214.54 1395.37 L2214.54 1381.3 L2211.41 1381.3 L2211.41 1377.99 L2214.54 1377.99 L2214.54 1370.63 L2218.82 1370.63 Z" fill="#000000" fill-rule="evenodd" fill-opacity="1" /><path clip-path="url(#clip580)" d="M2254.74 1388.27 L2254.74 1403.91 L2250.48 1403.91 L2250.48 1388.41 Q2250.48 1384.72 2249.05 1382.9 Q2247.61 1381.07 2244.74 1381.07 Q2241.29 1381.07 2239.3 1383.27 Q2237.31 1385.47 2237.31 1389.26 L2237.31 1403.91 L2233.03 1403.91 L2233.03 1367.9 L2237.31 1367.9 L2237.31 1382.02 Q2238.84 1379.68 2240.9 1378.52 Q2242.98 1377.36 2245.69 1377.36 Q2250.16 1377.36 2252.45 1380.14 Q2254.74 1382.9 2254.74 1388.27 Z" fill="#000000" fill-rule="evenodd" fill-opacity="1" /></svg>
