<?xml version="1.0" encoding="utf-8"?>
<svg xmlns="http://www.w3.org/2000/svg" xmlns:xlink="http://www.w3.org/1999/xlink" width="600" height="400" viewBox="0 0 2400 1600">
<defs>
  <clipPath id="clip420">
    <rect x="0" y="0" width="2400" height="1600"/>
  </clipPath>
</defs>
<path clip-path="url(#clip420)" d="
M0 1600 L2400 1600 L2400 0 L0 0  Z
  " fill="#ffffff" fill-rule="evenodd" fill-opacity="1"/>
<defs>
  <clipPath id="clip421">
    <rect x="480" y="0" width="1681" height="1600"/>
  </clipPath>
</defs>
<path clip-path="url(#clip420)" d="
M110.881 1486.45 L2352.76 1486.45 L2352.76 47.2441 L110.881 47.2441  Z
  " fill="#ffffff" fill-rule="evenodd" fill-opacity="1"/>
<defs>
  <clipPath id="clip422">
    <rect x="110" y="47" width="2243" height="1440"/>
  </clipPath>
</defs>
<polyline clip-path="url(#clip422)" style="stroke:#000000; stroke-linecap:round; stroke-linejoin:round; stroke-width:2; stroke-opacity:0.1; fill:none" points="
  260.766,1486.45 260.766,47.2441 
  "/>
<polyline clip-path="url(#clip422)" style="stroke:#000000; stroke-linecap:round; stroke-linejoin:round; stroke-width:2; stroke-opacity:0.1; fill:none" points="
  583.985,1486.45 583.985,47.2441 
  "/>
<polyline clip-path="url(#clip422)" style="stroke:#000000; stroke-linecap:round; stroke-linejoin:round; stroke-width:2; stroke-opacity:0.1; fill:none" points="
  907.204,1486.45 907.204,47.2441 
  "/>
<polyline clip-path="url(#clip422)" style="stroke:#000000; stroke-linecap:round; stroke-linejoin:round; stroke-width:2; stroke-opacity:0.1; fill:none" points="
  1230.42,1486.45 1230.42,47.2441 
  "/>
<polyline clip-path="url(#clip422)" style="stroke:#000000; stroke-linecap:round; stroke-linejoin:round; stroke-width:2; stroke-opacity:0.1; fill:none" points="
  1553.64,1486.45 1553.64,47.2441 
  "/>
<polyline clip-path="url(#clip422)" style="stroke:#000000; stroke-linecap:round; stroke-linejoin:round; stroke-width:2; stroke-opacity:0.1; fill:none" points="
  1876.86,1486.45 1876.86,47.2441 
  "/>
<polyline clip-path="url(#clip422)" style="stroke:#000000; stroke-linecap:round; stroke-linejoin:round; stroke-width:2; stroke-opacity:0.1; fill:none" points="
  2200.08,1486.45 2200.08,47.2441 
  "/>
<polyline clip-path="url(#clip420)" style="stroke:#000000; stroke-linecap:round; stroke-linejoin:round; stroke-width:4; stroke-opacity:1; fill:none" points="
  110.881,1486.45 2352.76,1486.45 
  "/>
<polyline clip-path="url(#clip420)" style="stroke:#000000; stroke-linecap:round; stroke-linejoin:round; stroke-width:4; stroke-opacity:1; fill:none" points="
  260.766,1486.45 260.766,1467.55 
  "/>
<polyline clip-path="url(#clip420)" style="stroke:#000000; stroke-linecap:round; stroke-linejoin:round; stroke-width:4; stroke-opacity:1; fill:none" points="
  583.985,1486.45 583.985,1467.55 
  "/>
<polyline clip-path="url(#clip420)" style="stroke:#000000; stroke-linecap:round; stroke-linejoin:round; stroke-width:4; stroke-opacity:1; fill:none" points="
  907.204,1486.45 907.204,1467.55 
  "/>
<polyline clip-path="url(#clip420)" style="stroke:#000000; stroke-linecap:round; stroke-linejoin:round; stroke-width:4; stroke-opacity:1; fill:none" points="
  1230.42,1486.45 1230.42,1467.55 
  "/>
<polyline clip-path="url(#clip420)" style="stroke:#000000; stroke-linecap:round; stroke-linejoin:round; stroke-width:4; stroke-opacity:1; fill:none" points="
  1553.64,1486.45 1553.64,1467.55 
  "/>
<polyline clip-path="url(#clip420)" style="stroke:#000000; stroke-linecap:round; stroke-linejoin:round; stroke-width:4; stroke-opacity:1; fill:none" points="
  1876.86,1486.45 1876.86,1467.55 
  "/>
<polyline clip-path="url(#clip420)" style="stroke:#000000; stroke-linecap:round; stroke-linejoin:round; stroke-width:4; stroke-opacity:1; fill:none" points="
  2200.08,1486.45 2200.08,1467.55 
  "/>
<path clip-path="url(#clip420)" d="M230.234 1532.02 L259.91 1532.02 L259.91 1535.95 L230.234 1535.95 L230.234 1532.02 Z" fill="#000000" fill-rule="evenodd" fill-opacity="1" /><path clip-path="url(#clip420)" d="M284.169 1530.21 Q287.526 1530.93 289.401 1533.2 Q291.299 1535.47 291.299 1538.8 Q291.299 1543.92 287.78 1546.72 Q284.262 1549.52 277.78 1549.52 Q275.604 1549.52 273.29 1549.08 Q270.998 1548.66 268.544 1547.81 L268.544 1543.29 Q270.489 1544.43 272.803 1545.01 Q275.118 1545.58 277.641 1545.58 Q282.039 1545.58 284.331 1543.85 Q286.646 1542.11 286.646 1538.8 Q286.646 1535.75 284.493 1534.03 Q282.364 1532.3 278.544 1532.3 L274.516 1532.3 L274.516 1528.45 L278.729 1528.45 Q282.178 1528.45 284.007 1527.09 Q285.836 1525.7 285.836 1523.11 Q285.836 1520.45 283.938 1519.03 Q282.063 1517.6 278.544 1517.6 Q276.623 1517.6 274.424 1518.01 Q272.225 1518.43 269.586 1519.31 L269.586 1515.14 Q272.248 1514.4 274.563 1514.03 Q276.901 1513.66 278.961 1513.66 Q284.285 1513.66 287.387 1516.09 Q290.488 1518.5 290.488 1522.62 Q290.488 1525.49 288.845 1527.48 Q287.201 1529.45 284.169 1530.21 Z" fill="#000000" fill-rule="evenodd" fill-opacity="1" /><path clip-path="url(#clip420)" d="M553.927 1532.02 L583.603 1532.02 L583.603 1535.95 L553.927 1535.95 L553.927 1532.02 Z" fill="#000000" fill-rule="evenodd" fill-opacity="1" /><path clip-path="url(#clip420)" d="M597.723 1544.91 L614.043 1544.91 L614.043 1548.85 L592.098 1548.85 L592.098 1544.91 Q594.76 1542.16 599.344 1537.53 Q603.95 1532.88 605.131 1531.53 Q607.376 1529.01 608.256 1527.27 Q609.159 1525.51 609.159 1523.82 Q609.159 1521.07 607.214 1519.33 Q605.293 1517.6 602.191 1517.6 Q599.992 1517.6 597.538 1518.36 Q595.108 1519.13 592.33 1520.68 L592.33 1515.95 Q595.154 1514.82 597.608 1514.24 Q600.061 1513.66 602.098 1513.66 Q607.469 1513.66 610.663 1516.35 Q613.858 1519.03 613.858 1523.52 Q613.858 1525.65 613.047 1527.57 Q612.26 1529.47 610.154 1532.07 Q609.575 1532.74 606.473 1535.95 Q603.372 1539.15 597.723 1544.91 Z" fill="#000000" fill-rule="evenodd" fill-opacity="1" /><path clip-path="url(#clip420)" d="M876.961 1532.02 L906.637 1532.02 L906.637 1535.95 L876.961 1535.95 L876.961 1532.02 Z" fill="#000000" fill-rule="evenodd" fill-opacity="1" /><path clip-path="url(#clip420)" d="M917.539 1544.91 L925.178 1544.91 L925.178 1518.55 L916.868 1520.21 L916.868 1515.95 L925.132 1514.29 L929.808 1514.29 L929.808 1544.91 L937.447 1544.91 L937.447 1548.85 L917.539 1548.85 L917.539 1544.91 Z" fill="#000000" fill-rule="evenodd" fill-opacity="1" /><path clip-path="url(#clip420)" d="M1230.42 1517.37 Q1226.81 1517.37 1224.98 1520.93 Q1223.18 1524.47 1223.18 1531.6 Q1223.18 1538.71 1224.98 1542.27 Q1226.81 1545.82 1230.42 1545.82 Q1234.06 1545.82 1235.86 1542.27 Q1237.69 1538.71 1237.69 1531.6 Q1237.69 1524.47 1235.86 1520.93 Q1234.06 1517.37 1230.42 1517.37 M1230.42 1513.66 Q1236.23 1513.66 1239.29 1518.27 Q1242.37 1522.85 1242.37 1531.6 Q1242.37 1540.33 1239.29 1544.94 Q1236.23 1549.52 1230.42 1549.52 Q1224.61 1549.52 1221.53 1544.94 Q1218.48 1540.33 1218.48 1531.6 Q1218.48 1522.85 1221.53 1518.27 Q1224.61 1513.66 1230.42 1513.66 Z" fill="#000000" fill-rule="evenodd" fill-opacity="1" /><path clip-path="url(#clip420)" d="M1544.02 1544.91 L1551.66 1544.91 L1551.66 1518.55 L1543.35 1520.21 L1543.35 1515.95 L1551.62 1514.29 L1556.29 1514.29 L1556.29 1544.91 L1563.93 1544.91 L1563.93 1548.85 L1544.02 1548.85 L1544.02 1544.91 Z" fill="#000000" fill-rule="evenodd" fill-opacity="1" /><path clip-path="url(#clip420)" d="M1871.51 1544.91 L1887.83 1544.91 L1887.83 1548.85 L1865.89 1548.85 L1865.89 1544.91 Q1868.55 1542.16 1873.13 1537.53 Q1877.74 1532.88 1878.92 1531.53 Q1881.17 1529.01 1882.04 1527.27 Q1882.95 1525.51 1882.95 1523.82 Q1882.95 1521.07 1881 1519.33 Q1879.08 1517.6 1875.98 1517.6 Q1873.78 1517.6 1871.33 1518.36 Q1868.9 1519.13 1866.12 1520.68 L1866.12 1515.95 Q1868.94 1514.82 1871.4 1514.24 Q1873.85 1513.66 1875.89 1513.66 Q1881.26 1513.66 1884.45 1516.35 Q1887.65 1519.03 1887.65 1523.52 Q1887.65 1525.65 1886.84 1527.57 Q1886.05 1529.47 1883.94 1532.07 Q1883.36 1532.74 1880.26 1535.95 Q1877.16 1539.15 1871.51 1544.91 Z" fill="#000000" fill-rule="evenodd" fill-opacity="1" /><path clip-path="url(#clip420)" d="M2204.33 1530.21 Q2207.68 1530.93 2209.56 1533.2 Q2211.46 1535.47 2211.46 1538.8 Q2211.46 1543.92 2207.94 1546.72 Q2204.42 1549.52 2197.94 1549.52 Q2195.76 1549.52 2193.45 1549.08 Q2191.15 1548.66 2188.7 1547.81 L2188.7 1543.29 Q2190.65 1544.43 2192.96 1545.01 Q2195.27 1545.58 2197.8 1545.58 Q2202.2 1545.58 2204.49 1543.85 Q2206.8 1542.11 2206.8 1538.8 Q2206.8 1535.75 2204.65 1534.03 Q2202.52 1532.3 2198.7 1532.3 L2194.67 1532.3 L2194.67 1528.45 L2198.89 1528.45 Q2202.34 1528.45 2204.16 1527.09 Q2205.99 1525.7 2205.99 1523.11 Q2205.99 1520.45 2204.09 1519.03 Q2202.22 1517.6 2198.7 1517.6 Q2196.78 1517.6 2194.58 1518.01 Q2192.38 1518.43 2189.74 1519.31 L2189.74 1515.14 Q2192.4 1514.4 2194.72 1514.03 Q2197.06 1513.66 2199.12 1513.66 Q2204.44 1513.66 2207.54 1516.09 Q2210.65 1518.5 2210.65 1522.62 Q2210.65 1525.49 2209 1527.48 Q2207.36 1529.45 2204.33 1530.21 Z" fill="#000000" fill-rule="evenodd" fill-opacity="1" /><polyline clip-path="url(#clip422)" style="stroke:#000000; stroke-linecap:round; stroke-linejoin:round; stroke-width:2; stroke-opacity:0.1; fill:none" points="
  110.881,1212.15 2352.76,1212.15 
  "/>
<polyline clip-path="url(#clip422)" style="stroke:#000000; stroke-linecap:round; stroke-linejoin:round; stroke-width:2; stroke-opacity:0.1; fill:none" points="
  110.881,840.645 2352.76,840.645 
  "/>
<polyline clip-path="url(#clip422)" style="stroke:#000000; stroke-linecap:round; stroke-linejoin:round; stroke-width:2; stroke-opacity:0.1; fill:none" points="
  110.881,469.137 2352.76,469.137 
  "/>
<polyline clip-path="url(#clip422)" style="stroke:#000000; stroke-linecap:round; stroke-linejoin:round; stroke-width:2; stroke-opacity:0.1; fill:none" points="
  110.881,97.6291 2352.76,97.6291 
  "/>
<polyline clip-path="url(#clip420)" style="stroke:#000000; stroke-linecap:round; stroke-linejoin:round; stroke-width:4; stroke-opacity:1; fill:none" points="
  110.881,1486.45 110.881,47.2441 
  "/>
<polyline clip-path="url(#clip420)" style="stroke:#000000; stroke-linecap:round; stroke-linejoin:round; stroke-width:4; stroke-opacity:1; fill:none" points="
  110.881,1212.15 129.779,1212.15 
  "/>
<polyline clip-path="url(#clip420)" style="stroke:#000000; stroke-linecap:round; stroke-linejoin:round; stroke-width:4; stroke-opacity:1; fill:none" points="
  110.881,840.645 129.779,840.645 
  "/>
<polyline clip-path="url(#clip420)" style="stroke:#000000; stroke-linecap:round; stroke-linejoin:round; stroke-width:4; stroke-opacity:1; fill:none" points="
  110.881,469.137 129.779,469.137 
  "/>
<polyline clip-path="url(#clip420)" style="stroke:#000000; stroke-linecap:round; stroke-linejoin:round; stroke-width:4; stroke-opacity:1; fill:none" points="
  110.881,97.6291 129.779,97.6291 
  "/>
<path clip-path="url(#clip420)" d="M62.9365 1197.95 Q59.3254 1197.95 57.4967 1201.52 Q55.6912 1205.06 55.6912 1212.19 Q55.6912 1219.29 57.4967 1222.86 Q59.3254 1226.4 62.9365 1226.4 Q66.5707 1226.4 68.3763 1222.86 Q70.205 1219.29 70.205 1212.19 Q70.205 1205.06 68.3763 1201.52 Q66.5707 1197.95 62.9365 1197.95 M62.9365 1194.25 Q68.7467 1194.25 71.8022 1198.86 Q74.8809 1203.44 74.8809 1212.19 Q74.8809 1220.92 71.8022 1225.52 Q68.7467 1230.1 62.9365 1230.1 Q57.1264 1230.1 54.0477 1225.52 Q50.9921 1220.92 50.9921 1212.19 Q50.9921 1203.44 54.0477 1198.86 Q57.1264 1194.25 62.9365 1194.25 Z" fill="#000000" fill-rule="evenodd" fill-opacity="1" /><path clip-path="url(#clip420)" d="M54.9736 853.99 L62.6124 853.99 L62.6124 827.625 L54.3023 829.291 L54.3023 825.032 L62.5661 823.365 L67.242 823.365 L67.242 853.99 L74.8809 853.99 L74.8809 857.925 L54.9736 857.925 L54.9736 853.99 Z" fill="#000000" fill-rule="evenodd" fill-opacity="1" /><path clip-path="url(#clip420)" d="M58.5615 482.482 L74.8809 482.482 L74.8809 486.417 L52.9366 486.417 L52.9366 482.482 Q55.5986 479.728 60.1819 475.098 Q64.7883 470.445 65.9689 469.103 Q68.2143 466.579 69.0939 464.843 Q69.9967 463.084 69.9967 461.394 Q69.9967 458.64 68.0522 456.904 Q66.1309 455.167 63.0291 455.167 Q60.83 455.167 58.3763 455.931 Q55.9458 456.695 53.168 458.246 L53.168 453.524 Q55.9921 452.39 58.4458 451.811 Q60.8995 451.232 62.9365 451.232 Q68.3068 451.232 71.5013 453.917 Q74.6957 456.603 74.6957 461.093 Q74.6957 463.223 73.8855 465.144 Q73.0985 467.042 70.992 469.635 Q70.4133 470.306 67.3115 473.524 Q64.2096 476.718 58.5615 482.482 Z" fill="#000000" fill-rule="evenodd" fill-opacity="1" /><path clip-path="url(#clip420)" d="M67.7513 96.275 Q71.1078 96.9926 72.9827 99.2611 Q74.8809 101.53 74.8809 104.863 Q74.8809 109.979 71.3624 112.78 Q67.8439 115.58 61.3624 115.58 Q59.1865 115.58 56.8717 115.141 Q54.5801 114.724 52.1264 113.867 L52.1264 109.354 Q54.0708 110.488 56.3856 111.067 Q58.7004 111.645 61.2236 111.645 Q65.6217 111.645 67.9133 109.909 Q70.2281 108.173 70.2281 104.863 Q70.2281 101.807 68.0754 100.094 Q65.9457 98.3583 62.1263 98.3583 L58.0986 98.3583 L58.0986 94.5157 L62.3115 94.5157 Q65.7606 94.5157 67.5893 93.15 Q69.418 91.7611 69.418 89.1685 Q69.418 86.5065 67.5198 85.0945 Q65.6448 83.6593 62.1263 83.6593 Q60.205 83.6593 58.006 84.076 Q55.8069 84.4926 53.168 85.3723 L53.168 81.2056 Q55.8301 80.4649 58.1449 80.0945 Q60.4828 79.7241 62.543 79.7241 Q67.867 79.7241 70.9689 82.1547 Q74.0707 84.5621 74.0707 88.6824 Q74.0707 91.5528 72.4272 93.5435 Q70.7837 95.5111 67.7513 96.275 Z" fill="#000000" fill-rule="evenodd" fill-opacity="1" /><circle clip-path="url(#clip422)" cx="2090.95" cy="746.712" r="14.4" fill="#e69f00" fill-rule="evenodd" fill-opacity="1" stroke="#000000" stroke-opacity="1" stroke-width="3.2"/>
<circle clip-path="url(#clip422)" cx="1375.2" cy="1106.72" r="14.4" fill="#e69f00" fill-rule="evenodd" fill-opacity="1" stroke="#000000" stroke-opacity="1" stroke-width="3.2"/>
<circle clip-path="url(#clip422)" cx="2145.71" cy="928.265" r="14.4" fill="#e69f00" fill-rule="evenodd" fill-opacity="1" stroke="#000000" stroke-opacity="1" stroke-width="3.2"/>
<circle clip-path="url(#clip422)" cx="1461.74" cy="1031.58" r="14.4" fill="#e69f00" fill-rule="evenodd" fill-opacity="1" stroke="#000000" stroke-opacity="1" stroke-width="3.2"/>
<circle clip-path="url(#clip422)" cx="1731.02" cy="542.754" r="14.4" fill="#e69f00" fill-rule="evenodd" fill-opacity="1" stroke="#000000" stroke-opacity="1" stroke-width="3.2"/>
<circle clip-path="url(#clip422)" cx="1306.16" cy="1160.26" r="14.4" fill="#e69f00" fill-rule="evenodd" fill-opacity="1" stroke="#000000" stroke-opacity="1" stroke-width="3.2"/>
<circle clip-path="url(#clip422)" cx="625.344" cy="549.11" r="14.4" fill="#e69f00" fill-rule="evenodd" fill-opacity="1" stroke="#000000" stroke-opacity="1" stroke-width="3.2"/>
<circle clip-path="url(#clip422)" cx="1514.93" cy="978.191" r="14.4" fill="#e69f00" fill-rule="evenodd" fill-opacity="1" stroke="#000000" stroke-opacity="1" stroke-width="3.2"/>
<circle clip-path="url(#clip422)" cx="1124.51" cy="1101.3" r="14.4" fill="#e69f00" fill-rule="evenodd" fill-opacity="1" stroke="#000000" stroke-opacity="1" stroke-width="3.2"/>
<circle clip-path="url(#clip422)" cx="565.837" cy="622.825" r="14.4" fill="#e69f00" fill-rule="evenodd" fill-opacity="1" stroke="#000000" stroke-opacity="1" stroke-width="3.2"/>
<circle clip-path="url(#clip422)" cx="1760.1" cy="623.649" r="14.4" fill="#e69f00" fill-rule="evenodd" fill-opacity="1" stroke="#000000" stroke-opacity="1" stroke-width="3.2"/>
<circle clip-path="url(#clip422)" cx="1139.96" cy="1269.75" r="14.4" fill="#e69f00" fill-rule="evenodd" fill-opacity="1" stroke="#000000" stroke-opacity="1" stroke-width="3.2"/>
<circle clip-path="url(#clip422)" cx="569.591" cy="232.998" r="14.4" fill="#e69f00" fill-rule="evenodd" fill-opacity="1" stroke="#000000" stroke-opacity="1" stroke-width="3.2"/>
<circle clip-path="url(#clip422)" cx="864.76" cy="892.315" r="14.4" fill="#e69f00" fill-rule="evenodd" fill-opacity="1" stroke="#000000" stroke-opacity="1" stroke-width="3.2"/>
<circle clip-path="url(#clip422)" cx="1031.04" cy="1300.69" r="14.4" fill="#e69f00" fill-rule="evenodd" fill-opacity="1" stroke="#000000" stroke-opacity="1" stroke-width="3.2"/>
<circle clip-path="url(#clip422)" cx="1157.53" cy="1285.43" r="14.4" fill="#e69f00" fill-rule="evenodd" fill-opacity="1" stroke="#000000" stroke-opacity="1" stroke-width="3.2"/>
<circle clip-path="url(#clip422)" cx="678.895" cy="599.882" r="14.4" fill="#e69f00" fill-rule="evenodd" fill-opacity="1" stroke="#000000" stroke-opacity="1" stroke-width="3.2"/>
<circle clip-path="url(#clip422)" cx="477.784" cy="398.173" r="14.4" fill="#e69f00" fill-rule="evenodd" fill-opacity="1" stroke="#000000" stroke-opacity="1" stroke-width="3.2"/>
<circle clip-path="url(#clip422)" cx="1756.01" cy="338.723" r="14.4" fill="#e69f00" fill-rule="evenodd" fill-opacity="1" stroke="#000000" stroke-opacity="1" stroke-width="3.2"/>
<circle clip-path="url(#clip422)" cx="794.513" cy="997.819" r="14.4" fill="#e69f00" fill-rule="evenodd" fill-opacity="1" stroke="#000000" stroke-opacity="1" stroke-width="3.2"/>
<circle clip-path="url(#clip422)" cx="988.752" cy="865.085" r="14.4" fill="#e69f00" fill-rule="evenodd" fill-opacity="1" stroke="#000000" stroke-opacity="1" stroke-width="3.2"/>
<circle clip-path="url(#clip422)" cx="636.429" cy="866.275" r="14.4" fill="#e69f00" fill-rule="evenodd" fill-opacity="1" stroke="#000000" stroke-opacity="1" stroke-width="3.2"/>
<circle clip-path="url(#clip422)" cx="1998.1" cy="889.708" r="14.4" fill="#e69f00" fill-rule="evenodd" fill-opacity="1" stroke="#000000" stroke-opacity="1" stroke-width="3.2"/>
<circle clip-path="url(#clip422)" cx="422.625" cy="391.536" r="14.4" fill="#e69f00" fill-rule="evenodd" fill-opacity="1" stroke="#000000" stroke-opacity="1" stroke-width="3.2"/>
<circle clip-path="url(#clip422)" cx="272.49" cy="1048.64" r="14.4" fill="#e69f00" fill-rule="evenodd" fill-opacity="1" stroke="#000000" stroke-opacity="1" stroke-width="3.2"/>
<circle clip-path="url(#clip422)" cx="998.748" cy="767.689" r="14.4" fill="#e69f00" fill-rule="evenodd" fill-opacity="1" stroke="#000000" stroke-opacity="1" stroke-width="3.2"/>
<circle clip-path="url(#clip422)" cx="2121.51" cy="853.395" r="14.4" fill="#e69f00" fill-rule="evenodd" fill-opacity="1" stroke="#000000" stroke-opacity="1" stroke-width="3.2"/>
<circle clip-path="url(#clip422)" cx="1768.78" cy="466.227" r="14.4" fill="#e69f00" fill-rule="evenodd" fill-opacity="1" stroke="#000000" stroke-opacity="1" stroke-width="3.2"/>
<circle clip-path="url(#clip422)" cx="945.238" cy="1025.62" r="14.4" fill="#e69f00" fill-rule="evenodd" fill-opacity="1" stroke="#000000" stroke-opacity="1" stroke-width="3.2"/>
<circle clip-path="url(#clip422)" cx="533.573" cy="625.714" r="14.4" fill="#e69f00" fill-rule="evenodd" fill-opacity="1" stroke="#000000" stroke-opacity="1" stroke-width="3.2"/>
<circle clip-path="url(#clip422)" cx="681.789" cy="471.236" r="14.4" fill="#e69f00" fill-rule="evenodd" fill-opacity="1" stroke="#000000" stroke-opacity="1" stroke-width="3.2"/>
<circle clip-path="url(#clip422)" cx="358.234" cy="539.194" r="14.4" fill="#e69f00" fill-rule="evenodd" fill-opacity="1" stroke="#000000" stroke-opacity="1" stroke-width="3.2"/>
<circle clip-path="url(#clip422)" cx="1390.61" cy="1014.93" r="14.4" fill="#e69f00" fill-rule="evenodd" fill-opacity="1" stroke="#000000" stroke-opacity="1" stroke-width="3.2"/>
<circle clip-path="url(#clip422)" cx="450.255" cy="777.873" r="14.4" fill="#e69f00" fill-rule="evenodd" fill-opacity="1" stroke="#000000" stroke-opacity="1" stroke-width="3.2"/>
<circle clip-path="url(#clip422)" cx="1181.07" cy="745.3" r="14.4" fill="#e69f00" fill-rule="evenodd" fill-opacity="1" stroke="#000000" stroke-opacity="1" stroke-width="3.2"/>
<circle clip-path="url(#clip422)" cx="584.367" cy="685.658" r="14.4" fill="#e69f00" fill-rule="evenodd" fill-opacity="1" stroke="#000000" stroke-opacity="1" stroke-width="3.2"/>
<circle clip-path="url(#clip422)" cx="726.535" cy="626.845" r="14.4" fill="#e69f00" fill-rule="evenodd" fill-opacity="1" stroke="#000000" stroke-opacity="1" stroke-width="3.2"/>
<circle clip-path="url(#clip422)" cx="1509.51" cy="1099.42" r="14.4" fill="#e69f00" fill-rule="evenodd" fill-opacity="1" stroke="#000000" stroke-opacity="1" stroke-width="3.2"/>
<circle clip-path="url(#clip422)" cx="2073.34" cy="944.536" r="14.4" fill="#e69f00" fill-rule="evenodd" fill-opacity="1" stroke="#000000" stroke-opacity="1" stroke-width="3.2"/>
<circle clip-path="url(#clip422)" cx="978.391" cy="799.834" r="14.4" fill="#e69f00" fill-rule="evenodd" fill-opacity="1" stroke="#000000" stroke-opacity="1" stroke-width="3.2"/>
<circle clip-path="url(#clip422)" cx="1808.24" cy="247.308" r="14.4" fill="#e69f00" fill-rule="evenodd" fill-opacity="1" stroke="#000000" stroke-opacity="1" stroke-width="3.2"/>
<circle clip-path="url(#clip422)" cx="982.693" cy="981.854" r="14.4" fill="#e69f00" fill-rule="evenodd" fill-opacity="1" stroke="#000000" stroke-opacity="1" stroke-width="3.2"/>
<circle clip-path="url(#clip422)" cx="1813.75" cy="576.18" r="14.4" fill="#e69f00" fill-rule="evenodd" fill-opacity="1" stroke="#000000" stroke-opacity="1" stroke-width="3.2"/>
<circle clip-path="url(#clip422)" cx="1530.95" cy="1055.75" r="14.4" fill="#e69f00" fill-rule="evenodd" fill-opacity="1" stroke="#000000" stroke-opacity="1" stroke-width="3.2"/>
<circle clip-path="url(#clip422)" cx="1621.64" cy="758.798" r="14.4" fill="#e69f00" fill-rule="evenodd" fill-opacity="1" stroke="#000000" stroke-opacity="1" stroke-width="3.2"/>
<circle clip-path="url(#clip422)" cx="2191.15" cy="1091.25" r="14.4" fill="#e69f00" fill-rule="evenodd" fill-opacity="1" stroke="#000000" stroke-opacity="1" stroke-width="3.2"/>
<circle clip-path="url(#clip422)" cx="529.044" cy="832.59" r="14.4" fill="#e69f00" fill-rule="evenodd" fill-opacity="1" stroke="#000000" stroke-opacity="1" stroke-width="3.2"/>
<circle clip-path="url(#clip422)" cx="1325.95" cy="995.665" r="14.4" fill="#e69f00" fill-rule="evenodd" fill-opacity="1" stroke="#000000" stroke-opacity="1" stroke-width="3.2"/>
<circle clip-path="url(#clip422)" cx="860.955" cy="636.457" r="14.4" fill="#e69f00" fill-rule="evenodd" fill-opacity="1" stroke="#000000" stroke-opacity="1" stroke-width="3.2"/>
<circle clip-path="url(#clip422)" cx="1374.15" cy="1207.59" r="14.4" fill="#e69f00" fill-rule="evenodd" fill-opacity="1" stroke="#000000" stroke-opacity="1" stroke-width="3.2"/>
<path clip-path="url(#clip422)" d="
M110.881 1307.21 L156.633 1307.21 L202.386 1307.21 L248.139 1307.21 L293.891 1305.02 L339.644 1245.37 L385.396 1199.57 L431.149 1132.23 L476.901 1035.17 L522.654 1035.12 
  L568.406 1035.12 L614.159 1029.54 L659.912 1050.38 L705.664 1100.43 L751.417 1124.03 L797.169 1181.24 L842.922 1233.25 L888.674 1257.66 L934.427 1301.56 L980.179 1371.54 
  L1025.93 1453.73 L1071.68 1453.73 L1117.44 1453.73 L1163.19 1449.02 L1208.94 1449.02 L1254.69 1449.02 L1300.45 1449.02 L1346.2 1449.02 L1391.95 1394.86 L1437.7 1309.8 
  L1483.46 1288.76 L1529.21 1288.76 L1574.96 1299.16 L1620.72 1280.42 L1666.47 1210.1 L1712.22 1108.59 L1757.97 1084.73 L1803.73 1078.76 L1849.48 1078.76 L1895.23 1083.42 
  L1940.98 1110.66 L1986.74 1161.53 L2032.49 1161.53 L2078.24 1179.8 L2123.99 1200.62 L2169.75 1321.42 L2215.5 1344.23 L2261.25 1344.23 L2307 1344.23 L2352.76 1344.23 
  L2352.76 553.849 L2307 553.849 L2261.25 553.849 L2215.5 553.849 L2169.75 505.373 L2123.99 416.618 L2078.24 377.173 L2032.49 359.766 L1986.74 359.766 L1940.98 314.824 
  L1895.23 282.496 L1849.48 279.368 L1803.73 279.368 L1757.97 279.368 L1712.22 310.762 L1666.47 418.689 L1620.72 475.816 L1574.96 497.236 L1529.21 485.465 L1483.46 492.034 
  L1437.7 492.278 L1391.95 598.983 L1346.2 644.368 L1300.45 644.368 L1254.69 644.368 L1208.94 644.368 L1163.19 644.368 L1117.44 650.159 L1071.68 650.159 L1025.93 634.216 
  L980.179 547.16 L934.427 485.469 L888.674 461.459 L842.922 431.017 L797.169 375.356 L751.417 322.773 L705.664 293.278 L659.912 253.812 L614.159 225.978 L568.406 231.476 
  L522.654 232.449 L476.901 232.33 L431.149 295.672 L385.396 410.561 L339.644 450.286 L293.891 505.713 L248.139 505.713 L202.386 505.713 L156.633 505.713 L110.881 505.713 
   Z
  " fill="#56b4e9" fill-rule="evenodd" fill-opacity="0.5"/>
<polyline clip-path="url(#clip422)" style="stroke:#56b4e9; stroke-linecap:round; stroke-linejoin:round; stroke-width:16; stroke-opacity:1; fill:none" points="
  110.881,906.462 156.633,906.462 202.386,906.462 248.139,906.462 293.891,905.367 339.644,847.826 385.396,805.068 431.149,713.949 476.901,633.751 522.654,633.785 
  568.406,633.298 614.159,627.758 659.912,652.094 705.664,696.854 751.417,723.4 797.169,778.3 842.922,832.132 888.674,859.561 934.427,893.514 980.179,959.348 
  1025.93,1043.97 1071.68,1051.95 1117.44,1051.95 1163.19,1046.69 1208.94,1046.69 1254.69,1046.69 1300.45,1046.69 1346.2,1046.69 1391.95,996.922 1437.7,901.037 
  1483.46,890.397 1529.21,887.112 1574.96,898.196 1620.72,878.116 1666.47,814.395 1712.22,709.673 1757.97,682.049 1803.73,679.066 1849.48,679.066 1895.23,682.956 
  1940.98,712.743 1986.74,760.646 2032.49,760.646 2078.24,778.488 2123.99,808.619 2169.75,913.399 2215.5,949.04 2261.25,949.04 2307,949.04 2352.76,949.04 
  
  "/>
<polyline clip-path="url(#clip422)" style="stroke:#000000; stroke-linecap:round; stroke-linejoin:round; stroke-width:4; stroke-opacity:1; fill:none" stroke-dasharray="16, 10" points="
  99.1571,1668.27 102.934,1652.53 106.711,1636.83 110.489,1621.17 114.266,1605.55 118.043,1589.97 121.82,1574.43 125.597,1558.95 129.375,1543.51 133.152,1528.13 
  136.929,1512.8 140.706,1497.53 144.483,1482.32 148.26,1467.17 152.038,1452.09 155.815,1437.07 159.592,1422.12 163.369,1407.24 167.146,1392.44 170.924,1377.71 
  174.701,1363.06 178.478,1348.49 182.255,1334 186.032,1319.6 189.809,1305.28 193.587,1291.05 197.364,1276.91 201.141,1262.87 204.918,1248.92 208.695,1235.06 
  212.473,1221.31 216.25,1207.65 220.027,1194.1 223.804,1180.65 227.581,1167.3 231.358,1154.06 235.136,1140.94 238.913,1127.92 242.69,1115.02 246.467,1102.23 
  250.244,1089.55 254.021,1077 257.799,1064.56 261.576,1052.24 265.353,1040.05 269.13,1027.98 272.907,1016.03 276.685,1004.22 280.462,992.525 284.239,980.964 
  288.016,969.534 291.793,958.236 295.57,947.071 299.348,936.04 303.125,925.146 306.902,914.388 310.679,903.768 314.456,893.288 318.234,882.948 322.011,872.749 
  325.788,862.692 329.565,852.779 333.342,843.01 337.119,833.386 340.897,823.908 344.674,814.577 348.451,805.393 352.228,796.358 356.005,787.473 359.782,778.737 
  363.56,770.152 367.337,761.719 371.114,753.437 374.891,745.308 378.668,737.331 382.446,729.509 386.223,721.84 390,714.326 393.777,706.967 397.554,699.763 
  401.331,692.715 405.109,685.823 408.886,679.087 412.663,672.508 416.44,666.086 420.217,659.82 423.995,653.712 427.772,647.761 431.549,641.967 435.326,636.331 
  439.103,630.852 442.88,625.53 446.658,620.366 450.435,615.359 454.212,610.51 457.989,605.817 461.766,601.281 465.544,596.903 469.321,592.68 473.098,588.614 
  476.875,584.704 480.652,580.95 484.429,577.35 488.207,573.906 491.984,570.616 495.761,567.48 499.538,564.498 503.315,561.669 507.092,558.992 510.87,556.468 
  514.647,554.095 518.424,551.872 522.201,549.8 525.978,547.877 529.756,546.103 533.533,544.476 537.31,542.997 541.087,541.665 544.864,540.478 548.641,539.436 
  552.419,538.538 556.196,537.783 559.973,537.17 563.75,536.698 567.527,536.366 571.305,536.173 575.082,536.119 578.859,536.201 582.636,536.42 586.413,536.773 
  590.19,537.261 593.968,537.881 597.745,538.632 601.522,539.513 605.299,540.524 609.076,541.662 612.853,542.927 616.631,544.317 620.408,545.831 624.185,547.468 
  627.962,549.225 631.739,551.103 635.517,553.099 639.294,555.212 643.071,557.441 646.848,559.784 650.625,562.239 654.402,564.806 658.18,567.483 661.957,570.267 
  665.734,573.158 669.511,576.155 673.288,579.255 677.066,582.456 680.843,585.758 684.62,589.159 688.397,592.656 692.174,596.249 695.951,599.936 699.729,603.715 
  703.506,607.584 707.283,611.541 711.06,615.585 714.837,619.715 718.615,623.928 722.392,628.222 726.169,632.597 729.946,637.049 733.723,641.578 737.5,646.181 
  741.278,650.857 745.055,655.604 748.832,660.419 752.609,665.302 756.386,670.25 760.163,675.262 763.941,680.335 767.718,685.468 771.495,690.658 775.272,695.905 
  779.049,701.206 782.827,706.559 786.604,711.962 790.381,717.413 794.158,722.911 797.935,728.454 801.712,734.039 805.49,739.665 809.267,745.33 813.044,751.032 
  816.821,756.769 820.598,762.538 824.376,768.339 828.153,774.17 831.93,780.027 835.707,785.91 839.484,791.816 843.261,797.744 847.039,803.691 850.816,809.656 
  854.593,815.637 858.37,821.632 862.147,827.639 865.924,833.656 869.702,839.681 873.479,845.712 877.256,851.748 881.033,857.786 884.81,863.825 888.588,869.863 
  892.365,875.898 896.142,881.927 899.919,887.95 903.696,893.965 907.473,899.969 911.251,905.96 915.028,911.938 918.805,917.9 922.582,923.844 926.359,929.768 
  930.137,935.672 933.914,941.552 937.691,947.408 941.468,953.237 945.245,959.038 949.022,964.809 952.8,970.549 956.577,976.255 960.354,981.926 964.131,987.561 
  967.908,993.157 971.686,998.713 975.463,1004.23 979.24,1009.7 983.017,1015.13 986.794,1020.51 990.571,1025.84 994.349,1031.13 998.126,1036.36 1001.9,1041.54 
  1005.68,1046.67 1009.46,1051.74 1013.23,1056.75 1017.01,1061.71 1020.79,1066.6 1024.57,1071.44 1028.34,1076.21 1032.12,1080.92 1035.9,1085.57 1039.67,1090.15 
  1043.45,1094.66 1047.23,1099.1 1051.01,1103.47 1054.78,1107.77 1058.56,1112 1062.34,1116.15 1066.11,1120.23 1069.89,1124.23 1073.67,1128.16 1077.45,1132.01 
  1081.22,1135.78 1085,1139.46 1088.78,1143.07 1092.56,1146.59 1096.33,1150.03 1100.11,1153.39 1103.89,1156.66 1107.66,1159.84 1111.44,1162.94 1115.22,1165.95 
  1119,1168.87 1122.77,1171.7 1126.55,1174.44 1130.33,1177.09 1134.1,1179.65 1137.88,1182.11 1141.66,1184.49 1145.44,1186.76 1149.21,1188.95 1152.99,1191.04 
  1156.77,1193.03 1160.54,1194.92 1164.32,1196.72 1168.1,1198.43 1171.88,1200.03 1175.65,1201.54 1179.43,1202.95 1183.21,1204.25 1186.98,1205.46 1190.76,1206.57 
  1194.54,1207.58 1198.32,1208.49 1202.09,1209.3 1205.87,1210.01 1209.65,1210.62 1213.42,1211.13 1217.2,1211.53 1220.98,1211.84 1224.76,1212.04 1228.53,1212.14 
  1232.31,1212.14 1236.09,1212.04 1239.87,1211.84 1243.64,1211.53 1247.42,1211.13 1251.2,1210.62 1254.97,1210.01 1258.75,1209.3 1262.53,1208.49 1266.31,1207.58 
  1270.08,1206.57 1273.86,1205.46 1277.64,1204.25 1281.41,1202.95 1285.19,1201.54 1288.97,1200.03 1292.75,1198.43 1296.52,1196.72 1300.3,1194.92 1304.08,1193.03 
  1307.85,1191.04 1311.63,1188.95 1315.41,1186.76 1319.19,1184.49 1322.96,1182.11 1326.74,1179.65 1330.52,1177.09 1334.29,1174.44 1338.07,1171.7 1341.85,1168.87 
  1345.63,1165.95 1349.4,1162.94 1353.18,1159.84 1356.96,1156.66 1360.73,1153.39 1364.51,1150.03 1368.29,1146.59 1372.07,1143.07 1375.84,1139.46 1379.62,1135.78 
  1383.4,1132.01 1387.18,1128.16 1390.95,1124.23 1394.73,1120.23 1398.51,1116.15 1402.28,1112 1406.06,1107.77 1409.84,1103.47 1413.62,1099.1 1417.39,1094.66 
  1421.17,1090.15 1424.95,1085.57 1428.72,1080.92 1432.5,1076.21 1436.28,1071.44 1440.06,1066.6 1443.83,1061.71 1447.61,1056.75 1451.39,1051.74 1455.16,1046.67 
  1458.94,1041.54 1462.72,1036.36 1466.5,1031.13 1470.27,1025.84 1474.05,1020.51 1477.83,1015.13 1481.6,1009.7 1485.38,1004.23 1489.16,998.713 1492.94,993.157 
  1496.71,987.561 1500.49,981.926 1504.27,976.255 1508.04,970.549 1511.82,964.809 1515.6,959.038 1519.38,953.237 1523.15,947.408 1526.93,941.552 1530.71,935.672 
  1534.49,929.768 1538.26,923.844 1542.04,917.9 1545.82,911.938 1549.59,905.96 1553.37,899.969 1557.15,893.965 1560.93,887.95 1564.7,881.927 1568.48,875.898 
  1572.26,869.863 1576.03,863.825 1579.81,857.786 1583.59,851.748 1587.37,845.712 1591.14,839.681 1594.92,833.656 1598.7,827.639 1602.47,821.632 1606.25,815.637 
  1610.03,809.656 1613.81,803.691 1617.58,797.744 1621.36,791.816 1625.14,785.91 1628.91,780.027 1632.69,774.17 1636.47,768.339 1640.25,762.538 1644.02,756.769 
  1647.8,751.032 1651.58,745.33 1655.35,739.665 1659.13,734.039 1662.91,728.454 1666.69,722.911 1670.46,717.413 1674.24,711.962 1678.02,706.559 1681.8,701.206 
  1685.57,695.905 1689.35,690.658 1693.13,685.468 1696.9,680.335 1700.68,675.262 1704.46,670.25 1708.24,665.302 1712.01,660.419 1715.79,655.604 1719.57,650.857 
  1723.34,646.181 1727.12,641.578 1730.9,637.049 1734.68,632.597 1738.45,628.222 1742.23,623.928 1746.01,619.715 1749.78,615.585 1753.56,611.541 1757.34,607.584 
  1761.12,603.715 1764.89,599.936 1768.67,596.249 1772.45,592.656 1776.22,589.159 1780,585.758 1783.78,582.456 1787.56,579.255 1791.33,576.155 1795.11,573.158 
  1798.89,570.267 1802.66,567.483 1806.44,564.806 1810.22,562.239 1814,559.784 1817.77,557.441 1821.55,555.212 1825.33,553.099 1829.11,551.103 1832.88,549.225 
  1836.66,547.468 1840.44,545.831 1844.21,544.317 1847.99,542.927 1851.77,541.662 1855.55,540.524 1859.32,539.513 1863.1,538.632 1866.88,537.881 1870.65,537.261 
  1874.43,536.773 1878.21,536.42 1881.99,536.201 1885.76,536.119 1889.54,536.173 1893.32,536.366 1897.09,536.698 1900.87,537.17 1904.65,537.783 1908.43,538.538 
  1912.2,539.436 1915.98,540.478 1919.76,541.665 1923.53,542.997 1927.31,544.476 1931.09,546.103 1934.87,547.877 1938.64,549.8 1942.42,551.872 1946.2,554.095 
  1949.97,556.468 1953.75,558.992 1957.53,561.669 1961.31,564.498 1965.08,567.48 1968.86,570.616 1972.64,573.906 1976.42,577.35 1980.19,580.95 1983.97,584.704 
  1987.75,588.614 1991.52,592.68 1995.3,596.903 1999.08,601.281 2002.86,605.817 2006.63,610.51 2010.41,615.359 2014.19,620.366 2017.96,625.53 2021.74,630.852 
  2025.52,636.331 2029.3,641.967 2033.07,647.761 2036.85,653.712 2040.63,659.82 2044.4,666.086 2048.18,672.508 2051.96,679.087 2055.74,685.823 2059.51,692.715 
  2063.29,699.763 2067.07,706.967 2070.84,714.326 2074.62,721.84 2078.4,729.509 2082.18,737.331 2085.95,745.308 2089.73,753.437 2093.51,761.719 2097.28,770.152 
  2101.06,778.737 2104.84,787.473 2108.62,796.358 2112.39,805.393 2116.17,814.577 2119.95,823.908 2123.73,833.386 2127.5,843.01 2131.28,852.779 2135.06,862.692 
  2138.83,872.749 2142.61,882.948 2146.39,893.288 2150.17,903.768 2153.94,914.388 2157.72,925.146 2161.5,936.04 2165.27,947.071 2169.05,958.236 2172.83,969.534 
  2176.61,980.964 2180.38,992.525 2184.16,1004.22 2187.94,1016.03 2191.71,1027.98 2195.49,1040.05 2199.27,1052.24 2203.05,1064.56 2206.82,1077 2210.6,1089.55 
  2214.38,1102.23 2218.15,1115.02 2221.93,1127.92 2225.71,1140.94 2229.49,1154.06 2233.26,1167.3 2237.04,1180.65 2240.82,1194.1 2244.59,1207.65 2248.37,1221.31 
  2252.15,1235.06 2255.93,1248.92 2259.7,1262.87 2263.48,1276.91 2267.26,1291.05 2271.04,1305.28 2274.81,1319.6 2278.59,1334 2282.37,1348.49 2286.14,1363.06 
  2289.92,1377.71 2293.7,1392.44 2297.48,1407.24 2301.25,1422.12 2305.03,1437.07 2308.81,1452.09 2312.58,1467.17 2316.36,1482.32 2320.14,1497.53 2323.92,1512.8 
  2327.69,1528.13 2331.47,1543.51 2335.25,1558.95 2339.02,1574.43 2342.8,1589.97 2346.58,1605.55 2350.36,1621.17 2354.13,1636.83 2357.91,1652.53 2361.69,1668.27 
  
  "/>
<path clip-path="url(#clip420)" d="
M1754.33 302.578 L2278.03 302.578 L2278.03 95.2176 L1754.33 95.2176  Z
  " fill="#ffffff" fill-rule="evenodd" fill-opacity="1"/>
<polyline clip-path="url(#clip420)" style="stroke:#000000; stroke-linecap:round; stroke-linejoin:round; stroke-width:4; stroke-opacity:1; fill:none" points="
  1754.33,302.578 2278.03,302.578 2278.03,95.2176 1754.33,95.2176 1754.33,302.578 
  "/>
<circle clip-path="url(#clip420)" cx="1853.97" cy="147.058" r="23.04" fill="#e69f00" fill-rule="evenodd" fill-opacity="1" stroke="#000000" stroke-opacity="1" stroke-width="5.12"/>
<path clip-path="url(#clip420)" d="M1953.6 129.778 L1982.84 129.778 L1982.84 133.713 L1970.57 133.713 L1970.57 164.338 L1965.87 164.338 L1965.87 133.713 L1953.6 133.713 L1953.6 129.778 Z" fill="#000000" fill-rule="evenodd" fill-opacity="1" /><path clip-path="url(#clip420)" d="M2001.29 150.31 L2001.29 152.393 L1981.71 152.393 Q1981.98 156.791 1984.35 159.106 Q1986.73 161.398 1990.97 161.398 Q1993.42 161.398 1995.71 160.796 Q1998.03 160.194 2000.29 158.99 L2000.29 163.018 Q1998 163.99 1995.6 164.5 Q1993.19 165.009 1990.71 165.009 Q1984.51 165.009 1980.87 161.398 Q1977.26 157.787 1977.26 151.629 Q1977.26 145.264 1980.69 141.537 Q1984.14 137.787 1989.97 137.787 Q1995.2 137.787 1998.23 141.166 Q2001.29 144.523 2001.29 150.31 M1997.03 149.06 Q1996.98 145.565 1995.06 143.481 Q1993.16 141.398 1990.02 141.398 Q1986.45 141.398 1984.3 143.412 Q1982.17 145.426 1981.85 149.083 L1997.03 149.06 Z" fill="#000000" fill-rule="evenodd" fill-opacity="1" /><path clip-path="url(#clip420)" d="M2024.81 139.176 L2024.81 143.203 Q2023 142.277 2021.06 141.815 Q2019.11 141.352 2017.03 141.352 Q2013.86 141.352 2012.26 142.324 Q2010.69 143.296 2010.69 145.24 Q2010.69 146.722 2011.82 147.578 Q2012.96 148.412 2016.38 149.176 L2017.84 149.5 Q2022.38 150.472 2024.28 152.254 Q2026.2 154.014 2026.2 157.185 Q2026.2 160.796 2023.33 162.902 Q2020.48 165.009 2015.48 165.009 Q2013.4 165.009 2011.13 164.592 Q2008.88 164.199 2006.38 163.388 L2006.38 158.99 Q2008.74 160.217 2011.03 160.842 Q2013.33 161.444 2015.57 161.444 Q2018.58 161.444 2020.2 160.426 Q2021.82 159.384 2021.82 157.509 Q2021.82 155.773 2020.64 154.847 Q2019.48 153.921 2015.53 153.064 L2014.04 152.717 Q2010.09 151.884 2008.33 150.171 Q2006.57 148.435 2006.57 145.426 Q2006.57 141.768 2009.16 139.778 Q2011.75 137.787 2016.52 137.787 Q2018.88 137.787 2020.97 138.134 Q2023.05 138.481 2024.81 139.176 Z" fill="#000000" fill-rule="evenodd" fill-opacity="1" /><path clip-path="url(#clip420)" d="M2037.19 131.051 L2037.19 138.412 L2045.97 138.412 L2045.97 141.722 L2037.19 141.722 L2037.19 155.796 Q2037.19 158.967 2038.05 159.87 Q2038.93 160.773 2041.59 160.773 L2045.97 160.773 L2045.97 164.338 L2041.59 164.338 Q2036.66 164.338 2034.78 162.509 Q2032.91 160.657 2032.91 155.796 L2032.91 141.722 L2029.78 141.722 L2029.78 138.412 L2032.91 138.412 L2032.91 131.051 L2037.19 131.051 Z" fill="#000000" fill-rule="evenodd" fill-opacity="1" /><path clip-path="url(#clip420)" d="M2070.76 160.449 L2070.76 174.199 L2066.47 174.199 L2066.47 138.412 L2070.76 138.412 L2070.76 142.347 Q2072.1 140.032 2074.14 138.921 Q2076.2 137.787 2079.04 137.787 Q2083.77 137.787 2086.71 141.537 Q2089.67 145.287 2089.67 151.398 Q2089.67 157.509 2086.71 161.259 Q2083.77 165.009 2079.04 165.009 Q2076.2 165.009 2074.14 163.898 Q2072.1 162.763 2070.76 160.449 M2085.25 151.398 Q2085.25 146.699 2083.3 144.037 Q2081.38 141.352 2078 141.352 Q2074.62 141.352 2072.68 144.037 Q2070.76 146.699 2070.76 151.398 Q2070.76 156.097 2072.68 158.782 Q2074.62 161.444 2078 161.444 Q2081.38 161.444 2083.3 158.782 Q2085.25 156.097 2085.25 151.398 Z" fill="#000000" fill-rule="evenodd" fill-opacity="1" /><path clip-path="url(#clip420)" d="M2106.78 141.398 Q2103.35 141.398 2101.36 144.083 Q2099.37 146.745 2099.37 151.398 Q2099.37 156.051 2101.34 158.736 Q2103.33 161.398 2106.78 161.398 Q2110.18 161.398 2112.17 158.713 Q2114.16 156.027 2114.16 151.398 Q2114.16 146.791 2112.17 144.106 Q2110.18 141.398 2106.78 141.398 M2106.78 137.787 Q2112.33 137.787 2115.5 141.398 Q2118.67 145.009 2118.67 151.398 Q2118.67 157.764 2115.5 161.398 Q2112.33 165.009 2106.78 165.009 Q2101.2 165.009 2098.03 161.398 Q2094.88 157.764 2094.88 151.398 Q2094.88 145.009 2098.03 141.398 Q2101.2 137.787 2106.78 137.787 Z" fill="#000000" fill-rule="evenodd" fill-opacity="1" /><path clip-path="url(#clip420)" d="M2125.73 138.412 L2129.99 138.412 L2129.99 164.338 L2125.73 164.338 L2125.73 138.412 M2125.73 128.319 L2129.99 128.319 L2129.99 133.713 L2125.73 133.713 L2125.73 128.319 Z" fill="#000000" fill-rule="evenodd" fill-opacity="1" /><path clip-path="url(#clip420)" d="M2160.46 148.689 L2160.46 164.338 L2156.2 164.338 L2156.2 148.828 Q2156.2 145.148 2154.76 143.319 Q2153.33 141.49 2150.46 141.49 Q2147.01 141.49 2145.02 143.69 Q2143.03 145.889 2143.03 149.685 L2143.03 164.338 L2138.74 164.338 L2138.74 138.412 L2143.03 138.412 L2143.03 142.44 Q2144.55 140.102 2146.61 138.944 Q2148.7 137.787 2151.4 137.787 Q2155.87 137.787 2158.16 140.565 Q2160.46 143.319 2160.46 148.689 Z" fill="#000000" fill-rule="evenodd" fill-opacity="1" /><path clip-path="url(#clip420)" d="M2173.16 131.051 L2173.16 138.412 L2181.94 138.412 L2181.94 141.722 L2173.16 141.722 L2173.16 155.796 Q2173.16 158.967 2174.02 159.87 Q2174.9 160.773 2177.56 160.773 L2181.94 160.773 L2181.94 164.338 L2177.56 164.338 Q2172.63 164.338 2170.76 162.509 Q2168.88 160.657 2168.88 155.796 L2168.88 141.722 L2165.76 141.722 L2165.76 138.412 L2168.88 138.412 L2168.88 131.051 L2173.16 131.051 Z" fill="#000000" fill-rule="evenodd" fill-opacity="1" /><path clip-path="url(#clip420)" d="M2204.07 139.176 L2204.07 143.203 Q2202.26 142.277 2200.32 141.815 Q2198.37 141.352 2196.29 141.352 Q2193.12 141.352 2191.52 142.324 Q2189.95 143.296 2189.95 145.24 Q2189.95 146.722 2191.08 147.578 Q2192.21 148.412 2195.64 149.176 L2197.1 149.5 Q2201.64 150.472 2203.53 152.254 Q2205.46 154.014 2205.46 157.185 Q2205.46 160.796 2202.58 162.902 Q2199.74 165.009 2194.74 165.009 Q2192.65 165.009 2190.39 164.592 Q2188.14 164.199 2185.64 163.388 L2185.64 158.99 Q2188 160.217 2190.29 160.842 Q2192.58 161.444 2194.83 161.444 Q2197.84 161.444 2199.46 160.426 Q2201.08 159.384 2201.08 157.509 Q2201.08 155.773 2199.9 154.847 Q2198.74 153.921 2194.78 153.064 L2193.3 152.717 Q2189.34 151.884 2187.58 150.171 Q2185.83 148.435 2185.83 145.426 Q2185.83 141.768 2188.42 139.778 Q2191.01 137.787 2195.78 137.787 Q2198.14 137.787 2200.22 138.134 Q2202.31 138.481 2204.07 139.176 Z" fill="#000000" fill-rule="evenodd" fill-opacity="1" /><polyline clip-path="url(#clip420)" style="stroke:#56b4e9; stroke-linecap:round; stroke-linejoin:round; stroke-width:16; stroke-opacity:1; fill:none" points="
  1779.24,198.898 1928.7,198.898 
  "/>
<path clip-path="url(#clip420)" d="M1958.28 185.46 L1958.28 198.446 L1964.16 198.446 Q1967.42 198.446 1969.21 196.756 Q1970.99 195.067 1970.99 191.942 Q1970.99 188.84 1969.21 187.15 Q1967.42 185.46 1964.16 185.46 L1958.28 185.46 M1953.6 181.618 L1964.16 181.618 Q1969.97 181.618 1972.93 184.256 Q1975.92 186.872 1975.92 191.942 Q1975.92 197.057 1972.93 199.673 Q1969.97 202.289 1964.16 202.289 L1958.28 202.289 L1958.28 216.178 L1953.6 216.178 L1953.6 181.618 Z" fill="#000000" fill-rule="evenodd" fill-opacity="1" /><path clip-path="url(#clip420)" d="M1996.2 194.233 Q1995.48 193.817 1994.62 193.631 Q1993.79 193.423 1992.77 193.423 Q1989.16 193.423 1987.22 195.784 Q1985.29 198.122 1985.29 202.52 L1985.29 216.178 L1981.01 216.178 L1981.01 190.252 L1985.29 190.252 L1985.29 194.28 Q1986.64 191.918 1988.79 190.784 Q1990.94 189.627 1994.02 189.627 Q1994.46 189.627 1994.99 189.696 Q1995.53 189.743 1996.17 189.858 L1996.2 194.233 Z" fill="#000000" fill-rule="evenodd" fill-opacity="1" /><path clip-path="url(#clip420)" d="M2021.8 202.15 L2021.8 204.233 L2002.22 204.233 Q2002.49 208.631 2004.85 210.946 Q2007.24 213.238 2011.47 213.238 Q2013.93 213.238 2016.22 212.636 Q2018.53 212.034 2020.8 210.83 L2020.8 214.858 Q2018.51 215.83 2016.1 216.34 Q2013.7 216.849 2011.22 216.849 Q2005.02 216.849 2001.38 213.238 Q1997.77 209.627 1997.77 203.469 Q1997.77 197.104 2001.2 193.377 Q2004.65 189.627 2010.48 189.627 Q2015.71 189.627 2018.74 193.006 Q2021.8 196.363 2021.8 202.15 M2017.54 200.9 Q2017.49 197.405 2015.57 195.321 Q2013.67 193.238 2010.53 193.238 Q2006.96 193.238 2004.81 195.252 Q2002.68 197.266 2002.35 200.923 L2017.54 200.9 Z" fill="#000000" fill-rule="evenodd" fill-opacity="1" /><path clip-path="url(#clip420)" d="M2045.85 194.187 L2045.85 180.159 L2050.11 180.159 L2050.11 216.178 L2045.85 216.178 L2045.85 212.289 Q2044.51 214.603 2042.45 215.738 Q2040.41 216.849 2037.54 216.849 Q2032.84 216.849 2029.88 213.099 Q2026.94 209.349 2026.94 203.238 Q2026.94 197.127 2029.88 193.377 Q2032.84 189.627 2037.54 189.627 Q2040.41 189.627 2042.45 190.761 Q2044.51 191.872 2045.85 194.187 M2031.34 203.238 Q2031.34 207.937 2033.26 210.622 Q2035.2 213.284 2038.58 213.284 Q2041.96 213.284 2043.91 210.622 Q2045.85 207.937 2045.85 203.238 Q2045.85 198.539 2043.91 195.877 Q2041.96 193.192 2038.58 193.192 Q2035.2 193.192 2033.26 195.877 Q2031.34 198.539 2031.34 203.238 Z" fill="#000000" fill-rule="evenodd" fill-opacity="1" /><path clip-path="url(#clip420)" d="M2058.88 190.252 L2063.14 190.252 L2063.14 216.178 L2058.88 216.178 L2058.88 190.252 M2058.88 180.159 L2063.14 180.159 L2063.14 185.553 L2058.88 185.553 L2058.88 180.159 Z" fill="#000000" fill-rule="evenodd" fill-opacity="1" /><path clip-path="url(#clip420)" d="M2090.71 191.247 L2090.71 195.229 Q2088.9 194.233 2087.08 193.747 Q2085.27 193.238 2083.42 193.238 Q2079.28 193.238 2076.98 195.877 Q2074.69 198.492 2074.69 203.238 Q2074.69 207.983 2076.98 210.622 Q2079.28 213.238 2083.42 213.238 Q2085.27 213.238 2087.08 212.752 Q2088.9 212.242 2090.71 211.247 L2090.71 215.182 Q2088.93 216.016 2087.01 216.432 Q2085.11 216.849 2082.96 216.849 Q2077.1 216.849 2073.65 213.168 Q2070.2 209.488 2070.2 203.238 Q2070.2 196.895 2073.67 193.261 Q2077.17 189.627 2083.23 189.627 Q2085.2 189.627 2087.08 190.043 Q2088.95 190.437 2090.71 191.247 Z" fill="#000000" fill-rule="evenodd" fill-opacity="1" /><path clip-path="url(#clip420)" d="M2102.33 182.891 L2102.33 190.252 L2111.1 190.252 L2111.1 193.562 L2102.33 193.562 L2102.33 207.636 Q2102.33 210.807 2103.19 211.71 Q2104.07 212.613 2106.73 212.613 L2111.1 212.613 L2111.1 216.178 L2106.73 216.178 Q2101.8 216.178 2099.92 214.349 Q2098.05 212.497 2098.05 207.636 L2098.05 193.562 L2094.92 193.562 L2094.92 190.252 L2098.05 190.252 L2098.05 182.891 L2102.33 182.891 Z" fill="#000000" fill-rule="evenodd" fill-opacity="1" /><path clip-path="url(#clip420)" d="M2138.88 202.15 L2138.88 204.233 L2119.3 204.233 Q2119.58 208.631 2121.94 210.946 Q2124.32 213.238 2128.56 213.238 Q2131.01 213.238 2133.3 212.636 Q2135.62 212.034 2137.89 210.83 L2137.89 214.858 Q2135.59 215.83 2133.19 216.34 Q2130.78 216.849 2128.3 216.849 Q2122.1 216.849 2118.46 213.238 Q2114.85 209.627 2114.85 203.469 Q2114.85 197.104 2118.28 193.377 Q2121.73 189.627 2127.56 189.627 Q2132.79 189.627 2135.83 193.006 Q2138.88 196.363 2138.88 202.15 M2134.62 200.9 Q2134.58 197.405 2132.65 195.321 Q2130.76 193.238 2127.61 193.238 Q2124.04 193.238 2121.89 195.252 Q2119.76 197.266 2119.44 200.923 L2134.62 200.9 Z" fill="#000000" fill-rule="evenodd" fill-opacity="1" /><path clip-path="url(#clip420)" d="M2162.93 194.187 L2162.93 180.159 L2167.19 180.159 L2167.19 216.178 L2162.93 216.178 L2162.93 212.289 Q2161.59 214.603 2159.53 215.738 Q2157.49 216.849 2154.62 216.849 Q2149.92 216.849 2146.96 213.099 Q2144.02 209.349 2144.02 203.238 Q2144.02 197.127 2146.96 193.377 Q2149.92 189.627 2154.62 189.627 Q2157.49 189.627 2159.53 190.761 Q2161.59 191.872 2162.93 194.187 M2148.42 203.238 Q2148.42 207.937 2150.34 210.622 Q2152.28 213.284 2155.66 213.284 Q2159.04 213.284 2160.99 210.622 Q2162.93 207.937 2162.93 203.238 Q2162.93 198.539 2160.99 195.877 Q2159.04 193.192 2155.66 193.192 Q2152.28 193.192 2150.34 195.877 Q2148.42 198.539 2148.42 203.238 Z" fill="#000000" fill-rule="evenodd" fill-opacity="1" /><polyline clip-path="url(#clip420)" style="stroke:#000000; stroke-linecap:round; stroke-linejoin:round; stroke-width:4; stroke-opacity:1; fill:none" stroke-dasharray="16, 10" points="
  1779.24,250.738 1928.7,250.738 
  "/>
<path clip-path="url(#clip420)" d="M1979.16 263.087 L1979.16 253.805 L1971.52 253.805 L1971.52 249.962 L1983.79 249.962 L1983.79 264.8 Q1981.08 266.721 1977.82 267.717 Q1974.55 268.689 1970.85 268.689 Q1962.75 268.689 1958.16 263.967 Q1953.6 259.221 1953.6 250.772 Q1953.6 242.3 1958.16 237.578 Q1962.75 232.833 1970.85 232.833 Q1974.23 232.833 1977.26 233.666 Q1980.32 234.499 1982.89 236.12 L1982.89 241.096 Q1980.29 238.897 1977.38 237.786 Q1974.46 236.675 1971.24 236.675 Q1964.9 236.675 1961.71 240.217 Q1958.54 243.758 1958.54 250.772 Q1958.54 257.763 1961.71 261.305 Q1964.9 264.846 1971.24 264.846 Q1973.72 264.846 1975.66 264.43 Q1977.61 263.99 1979.16 263.087 Z" fill="#000000" fill-rule="evenodd" fill-opacity="1" /><path clip-path="url(#clip420)" d="M2007.17 246.073 Q2006.45 245.657 2005.6 245.471 Q2004.76 245.263 2003.74 245.263 Q2000.13 245.263 1998.19 247.624 Q1996.27 249.962 1996.27 254.36 L1996.27 268.018 L1991.98 268.018 L1991.98 242.092 L1996.27 242.092 L1996.27 246.12 Q1997.61 243.758 1999.76 242.624 Q2001.91 241.467 2004.99 241.467 Q2005.43 241.467 2005.97 241.536 Q2006.5 241.583 2007.15 241.698 L2007.17 246.073 Z" fill="#000000" fill-rule="evenodd" fill-opacity="1" /><path clip-path="url(#clip420)" d="M2020.64 245.078 Q2017.22 245.078 2015.22 247.763 Q2013.23 250.425 2013.23 255.078 Q2013.23 259.731 2015.2 262.416 Q2017.19 265.078 2020.64 265.078 Q2024.04 265.078 2026.03 262.393 Q2028.03 259.707 2028.03 255.078 Q2028.03 250.471 2026.03 247.786 Q2024.04 245.078 2020.64 245.078 M2020.64 241.467 Q2026.2 241.467 2029.37 245.078 Q2032.54 248.689 2032.54 255.078 Q2032.54 261.444 2029.37 265.078 Q2026.2 268.689 2020.64 268.689 Q2015.06 268.689 2011.89 265.078 Q2008.74 261.444 2008.74 255.078 Q2008.74 248.689 2011.89 245.078 Q2015.06 241.467 2020.64 241.467 Z" fill="#000000" fill-rule="evenodd" fill-opacity="1" /><path clip-path="url(#clip420)" d="M2039.16 257.786 L2039.16 242.092 L2043.42 242.092 L2043.42 257.624 Q2043.42 261.305 2044.85 263.156 Q2046.29 264.985 2049.16 264.985 Q2052.61 264.985 2054.6 262.786 Q2056.61 260.587 2056.61 256.791 L2056.61 242.092 L2060.87 242.092 L2060.87 268.018 L2056.61 268.018 L2056.61 264.036 Q2055.06 266.397 2053 267.555 Q2050.97 268.689 2048.26 268.689 Q2043.79 268.689 2041.47 265.911 Q2039.16 263.133 2039.16 257.786 M2049.88 241.467 L2049.88 241.467 Z" fill="#000000" fill-rule="evenodd" fill-opacity="1" /><path clip-path="url(#clip420)" d="M2091.2 252.369 L2091.2 268.018 L2086.94 268.018 L2086.94 252.508 Q2086.94 248.828 2085.5 246.999 Q2084.07 245.17 2081.2 245.17 Q2077.75 245.17 2075.76 247.37 Q2073.77 249.569 2073.77 253.365 L2073.77 268.018 L2069.48 268.018 L2069.48 242.092 L2073.77 242.092 L2073.77 246.12 Q2075.29 243.782 2077.35 242.624 Q2079.44 241.467 2082.15 241.467 Q2086.61 241.467 2088.9 244.245 Q2091.2 246.999 2091.2 252.369 Z" fill="#000000" fill-rule="evenodd" fill-opacity="1" /><path clip-path="url(#clip420)" d="M2116.75 246.027 L2116.75 231.999 L2121.01 231.999 L2121.01 268.018 L2116.75 268.018 L2116.75 264.129 Q2115.41 266.443 2113.35 267.578 Q2111.31 268.689 2108.44 268.689 Q2103.74 268.689 2100.78 264.939 Q2097.84 261.189 2097.84 255.078 Q2097.84 248.967 2100.78 245.217 Q2103.74 241.467 2108.44 241.467 Q2111.31 241.467 2113.35 242.601 Q2115.41 243.712 2116.75 246.027 M2102.24 255.078 Q2102.24 259.777 2104.16 262.462 Q2106.1 265.124 2109.48 265.124 Q2112.86 265.124 2114.81 262.462 Q2116.75 259.777 2116.75 255.078 Q2116.75 250.379 2114.81 247.717 Q2112.86 245.032 2109.48 245.032 Q2106.1 245.032 2104.16 247.717 Q2102.24 250.379 2102.24 255.078 Z" fill="#000000" fill-rule="evenodd" fill-opacity="1" /><path clip-path="url(#clip420)" d="M2149.07 234.731 L2149.07 242.092 L2157.84 242.092 L2157.84 245.402 L2149.07 245.402 L2149.07 259.476 Q2149.07 262.647 2149.92 263.55 Q2150.8 264.453 2153.46 264.453 L2157.84 264.453 L2157.84 268.018 L2153.46 268.018 Q2148.53 268.018 2146.66 266.189 Q2144.78 264.337 2144.78 259.476 L2144.78 245.402 L2141.66 245.402 L2141.66 242.092 L2144.78 242.092 L2144.78 234.731 L2149.07 234.731 Z" fill="#000000" fill-rule="evenodd" fill-opacity="1" /><path clip-path="url(#clip420)" d="M2178.46 246.073 Q2177.75 245.657 2176.89 245.471 Q2176.06 245.263 2175.04 245.263 Q2171.43 245.263 2169.48 247.624 Q2167.56 249.962 2167.56 254.36 L2167.56 268.018 L2163.28 268.018 L2163.28 242.092 L2167.56 242.092 L2167.56 246.12 Q2168.9 243.758 2171.06 242.624 Q2173.21 241.467 2176.29 241.467 Q2176.73 241.467 2177.26 241.536 Q2177.79 241.583 2178.44 241.698 L2178.46 246.073 Z" fill="#000000" fill-rule="evenodd" fill-opacity="1" /><path clip-path="url(#clip420)" d="M2182.49 257.786 L2182.49 242.092 L2186.75 242.092 L2186.75 257.624 Q2186.75 261.305 2188.19 263.156 Q2189.62 264.985 2192.49 264.985 Q2195.94 264.985 2197.93 262.786 Q2199.95 260.587 2199.95 256.791 L2199.95 242.092 L2204.21 242.092 L2204.21 268.018 L2199.95 268.018 L2199.95 264.036 Q2198.4 266.397 2196.33 267.555 Q2194.3 268.689 2191.59 268.689 Q2187.12 268.689 2184.81 265.911 Q2182.49 263.133 2182.49 257.786 M2193.21 241.467 L2193.21 241.467 Z" fill="#000000" fill-rule="evenodd" fill-opacity="1" /><path clip-path="url(#clip420)" d="M2217.19 234.731 L2217.19 242.092 L2225.96 242.092 L2225.96 245.402 L2217.19 245.402 L2217.19 259.476 Q2217.19 262.647 2218.05 263.55 Q2218.93 264.453 2221.59 264.453 L2225.96 264.453 L2225.96 268.018 L2221.59 268.018 Q2216.66 268.018 2214.78 266.189 Q2212.91 264.337 2212.91 259.476 L2212.91 245.402 L2209.78 245.402 L2209.78 242.092 L2212.91 242.092 L2212.91 234.731 L2217.19 234.731 Z" fill="#000000" fill-rule="evenodd" fill-opacity="1" /><path clip-path="url(#clip420)" d="M2253.12 252.369 L2253.12 268.018 L2248.86 268.018 L2248.86 252.508 Q2248.86 248.828 2247.42 246.999 Q2245.99 245.17 2243.12 245.17 Q2239.67 245.17 2237.68 247.37 Q2235.69 249.569 2235.69 253.365 L2235.69 268.018 L2231.4 268.018 L2231.4 231.999 L2235.69 231.999 L2235.69 246.12 Q2237.21 243.782 2239.27 242.624 Q2241.36 241.467 2244.07 241.467 Q2248.53 241.467 2250.83 244.245 Q2253.12 246.999 2253.12 252.369 Z" fill="#000000" fill-rule="evenodd" fill-opacity="1" /></svg>
