<?xml version="1.0" encoding="utf-8"?>
<svg xmlns="http://www.w3.org/2000/svg" xmlns:xlink="http://www.w3.org/1999/xlink" width="600" height="400" viewBox="0 0 2400 1600">
<defs>
  <clipPath id="clip140">
    <rect x="0" y="0" width="2400" height="1600"/>
  </clipPath>
</defs>
<path clip-path="url(#clip140)" d="
M0 1600 L2400 1600 L2400 0 L0 0  Z
  " fill="#ffffff" fill-rule="evenodd" fill-opacity="1"/>
<defs>
  <clipPath id="clip141">
    <rect x="480" y="0" width="1681" height="1600"/>
  </clipPath>
</defs>
<path clip-path="url(#clip140)" d="
M147.478 1486.45 L2352.76 1486.45 L2352.76 47.2441 L147.478 47.2441  Z
  " fill="#ffffff" fill-rule="evenodd" fill-opacity="1"/>
<defs>
  <clipPath id="clip142">
    <rect x="147" y="47" width="2206" height="1440"/>
  </clipPath>
</defs>
<polyline clip-path="url(#clip142)" style="stroke:#000000; stroke-linecap:round; stroke-linejoin:round; stroke-width:2; stroke-opacity:0.1; fill:none" points="
  302.653,1486.45 302.653,47.2441 
  "/>
<polyline clip-path="url(#clip142)" style="stroke:#000000; stroke-linecap:round; stroke-linejoin:round; stroke-width:2; stroke-opacity:0.1; fill:none" points="
  618.637,1486.45 618.637,47.2441 
  "/>
<polyline clip-path="url(#clip142)" style="stroke:#000000; stroke-linecap:round; stroke-linejoin:round; stroke-width:2; stroke-opacity:0.1; fill:none" points="
  934.622,1486.45 934.622,47.2441 
  "/>
<polyline clip-path="url(#clip142)" style="stroke:#000000; stroke-linecap:round; stroke-linejoin:round; stroke-width:2; stroke-opacity:0.1; fill:none" points="
  1250.61,1486.45 1250.61,47.2441 
  "/>
<polyline clip-path="url(#clip142)" style="stroke:#000000; stroke-linecap:round; stroke-linejoin:round; stroke-width:2; stroke-opacity:0.1; fill:none" points="
  1566.59,1486.45 1566.59,47.2441 
  "/>
<polyline clip-path="url(#clip142)" style="stroke:#000000; stroke-linecap:round; stroke-linejoin:round; stroke-width:2; stroke-opacity:0.1; fill:none" points="
  1882.58,1486.45 1882.58,47.2441 
  "/>
<polyline clip-path="url(#clip142)" style="stroke:#000000; stroke-linecap:round; stroke-linejoin:round; stroke-width:2; stroke-opacity:0.1; fill:none" points="
  2198.56,1486.45 2198.56,47.2441 
  "/>
<polyline clip-path="url(#clip140)" style="stroke:#000000; stroke-linecap:round; stroke-linejoin:round; stroke-width:4; stroke-opacity:1; fill:none" points="
  147.478,1486.45 2352.76,1486.45 
  "/>
<polyline clip-path="url(#clip140)" style="stroke:#000000; stroke-linecap:round; stroke-linejoin:round; stroke-width:4; stroke-opacity:1; fill:none" points="
  302.653,1486.45 302.653,1467.55 
  "/>
<polyline clip-path="url(#clip140)" style="stroke:#000000; stroke-linecap:round; stroke-linejoin:round; stroke-width:4; stroke-opacity:1; fill:none" points="
  618.637,1486.45 618.637,1467.55 
  "/>
<polyline clip-path="url(#clip140)" style="stroke:#000000; stroke-linecap:round; stroke-linejoin:round; stroke-width:4; stroke-opacity:1; fill:none" points="
  934.622,1486.45 934.622,1467.55 
  "/>
<polyline clip-path="url(#clip140)" style="stroke:#000000; stroke-linecap:round; stroke-linejoin:round; stroke-width:4; stroke-opacity:1; fill:none" points="
  1250.61,1486.45 1250.61,1467.55 
  "/>
<polyline clip-path="url(#clip140)" style="stroke:#000000; stroke-linecap:round; stroke-linejoin:round; stroke-width:4; stroke-opacity:1; fill:none" points="
  1566.59,1486.45 1566.59,1467.55 
  "/>
<polyline clip-path="url(#clip140)" style="stroke:#000000; stroke-linecap:round; stroke-linejoin:round; stroke-width:4; stroke-opacity:1; fill:none" points="
  1882.58,1486.45 1882.58,1467.55 
  "/>
<polyline clip-path="url(#clip140)" style="stroke:#000000; stroke-linecap:round; stroke-linejoin:round; stroke-width:4; stroke-opacity:1; fill:none" points="
  2198.56,1486.45 2198.56,1467.55 
  "/>
<path clip-path="url(#clip140)" d="M272.12 1532.02 L301.796 1532.02 L301.796 1535.95 L272.12 1535.95 L272.12 1532.02 Z" fill="#000000" fill-rule="evenodd" fill-opacity="1" /><path clip-path="url(#clip140)" d="M326.055 1530.21 Q329.412 1530.93 331.287 1533.2 Q333.185 1535.47 333.185 1538.8 Q333.185 1543.92 329.666 1546.72 Q326.148 1549.52 319.666 1549.52 Q317.49 1549.52 315.176 1549.08 Q312.884 1548.66 310.43 1547.81 L310.43 1543.29 Q312.375 1544.43 314.69 1545.01 Q317.004 1545.58 319.527 1545.58 Q323.926 1545.58 326.217 1543.85 Q328.532 1542.11 328.532 1538.8 Q328.532 1535.75 326.379 1534.03 Q324.25 1532.3 320.43 1532.3 L316.402 1532.3 L316.402 1528.45 L320.615 1528.45 Q324.064 1528.45 325.893 1527.09 Q327.722 1525.7 327.722 1523.11 Q327.722 1520.45 325.824 1519.03 Q323.949 1517.6 320.43 1517.6 Q318.509 1517.6 316.31 1518.01 Q314.111 1518.43 311.472 1519.31 L311.472 1515.14 Q314.134 1514.4 316.449 1514.03 Q318.787 1513.66 320.847 1513.66 Q326.171 1513.66 329.273 1516.09 Q332.375 1518.5 332.375 1522.62 Q332.375 1525.49 330.731 1527.48 Q329.088 1529.45 326.055 1530.21 Z" fill="#000000" fill-rule="evenodd" fill-opacity="1" /><path clip-path="url(#clip140)" d="M588.58 1532.02 L618.255 1532.02 L618.255 1535.95 L588.58 1535.95 L588.58 1532.02 Z" fill="#000000" fill-rule="evenodd" fill-opacity="1" /><path clip-path="url(#clip140)" d="M632.376 1544.91 L648.695 1544.91 L648.695 1548.85 L626.751 1548.85 L626.751 1544.91 Q629.413 1542.16 633.996 1537.53 Q638.603 1532.88 639.783 1531.53 Q642.028 1529.01 642.908 1527.27 Q643.811 1525.51 643.811 1523.82 Q643.811 1521.07 641.866 1519.33 Q639.945 1517.6 636.843 1517.6 Q634.644 1517.6 632.191 1518.36 Q629.76 1519.13 626.982 1520.68 L626.982 1515.95 Q629.806 1514.82 632.26 1514.24 Q634.714 1513.66 636.751 1513.66 Q642.121 1513.66 645.315 1516.35 Q648.51 1519.03 648.51 1523.52 Q648.51 1525.65 647.7 1527.57 Q646.913 1529.47 644.806 1532.07 Q644.227 1532.74 641.126 1535.95 Q638.024 1539.15 632.376 1544.91 Z" fill="#000000" fill-rule="evenodd" fill-opacity="1" /><path clip-path="url(#clip140)" d="M904.379 1532.02 L934.055 1532.02 L934.055 1535.95 L904.379 1535.95 L904.379 1532.02 Z" fill="#000000" fill-rule="evenodd" fill-opacity="1" /><path clip-path="url(#clip140)" d="M944.958 1544.91 L952.597 1544.91 L952.597 1518.55 L944.286 1520.21 L944.286 1515.95 L952.55 1514.29 L957.226 1514.29 L957.226 1544.91 L964.865 1544.91 L964.865 1548.85 L944.958 1548.85 L944.958 1544.91 Z" fill="#000000" fill-rule="evenodd" fill-opacity="1" /><path clip-path="url(#clip140)" d="M1250.61 1517.37 Q1247 1517.37 1245.17 1520.93 Q1243.36 1524.47 1243.36 1531.6 Q1243.36 1538.71 1245.17 1542.27 Q1247 1545.82 1250.61 1545.82 Q1254.24 1545.82 1256.05 1542.27 Q1257.88 1538.71 1257.88 1531.6 Q1257.88 1524.47 1256.05 1520.93 Q1254.24 1517.37 1250.61 1517.37 M1250.61 1513.66 Q1256.42 1513.66 1259.47 1518.27 Q1262.55 1522.85 1262.55 1531.6 Q1262.55 1540.33 1259.47 1544.94 Q1256.42 1549.52 1250.61 1549.52 Q1244.8 1549.52 1241.72 1544.94 Q1238.66 1540.33 1238.66 1531.6 Q1238.66 1522.85 1241.72 1518.27 Q1244.8 1513.66 1250.61 1513.66 Z" fill="#000000" fill-rule="evenodd" fill-opacity="1" /><path clip-path="url(#clip140)" d="M1556.97 1544.91 L1564.61 1544.91 L1564.61 1518.55 L1556.3 1520.21 L1556.3 1515.95 L1564.57 1514.29 L1569.24 1514.29 L1569.24 1544.91 L1576.88 1544.91 L1576.88 1548.85 L1556.97 1548.85 L1556.97 1544.91 Z" fill="#000000" fill-rule="evenodd" fill-opacity="1" /><path clip-path="url(#clip140)" d="M1877.23 1544.91 L1893.55 1544.91 L1893.55 1548.85 L1871.6 1548.85 L1871.6 1544.91 Q1874.27 1542.16 1878.85 1537.53 Q1883.46 1532.88 1884.64 1531.53 Q1886.88 1529.01 1887.76 1527.27 Q1888.66 1525.51 1888.66 1523.82 Q1888.66 1521.07 1886.72 1519.33 Q1884.8 1517.6 1881.7 1517.6 Q1879.5 1517.6 1877.04 1518.36 Q1874.61 1519.13 1871.84 1520.68 L1871.84 1515.95 Q1874.66 1514.82 1877.11 1514.24 Q1879.57 1513.66 1881.6 1513.66 Q1886.97 1513.66 1890.17 1516.35 Q1893.36 1519.03 1893.36 1523.52 Q1893.36 1525.65 1892.55 1527.57 Q1891.77 1529.47 1889.66 1532.07 Q1889.08 1532.74 1885.98 1535.95 Q1882.88 1539.15 1877.23 1544.91 Z" fill="#000000" fill-rule="evenodd" fill-opacity="1" /><path clip-path="url(#clip140)" d="M2202.81 1530.21 Q2206.17 1530.93 2208.04 1533.2 Q2209.94 1535.47 2209.94 1538.8 Q2209.94 1543.92 2206.42 1546.72 Q2202.9 1549.52 2196.42 1549.52 Q2194.24 1549.52 2191.93 1549.08 Q2189.64 1548.66 2187.18 1547.81 L2187.18 1543.29 Q2189.13 1544.43 2191.44 1545.01 Q2193.76 1545.58 2196.28 1545.58 Q2200.68 1545.58 2202.97 1543.85 Q2205.29 1542.11 2205.29 1538.8 Q2205.29 1535.75 2203.13 1534.03 Q2201 1532.3 2197.18 1532.3 L2193.16 1532.3 L2193.16 1528.45 L2197.37 1528.45 Q2200.82 1528.45 2202.65 1527.09 Q2204.48 1525.7 2204.48 1523.11 Q2204.48 1520.45 2202.58 1519.03 Q2200.7 1517.6 2197.18 1517.6 Q2195.26 1517.6 2193.06 1518.01 Q2190.86 1518.43 2188.23 1519.31 L2188.23 1515.14 Q2190.89 1514.4 2193.2 1514.03 Q2195.54 1513.66 2197.6 1513.66 Q2202.92 1513.66 2206.03 1516.09 Q2209.13 1518.5 2209.13 1522.62 Q2209.13 1525.49 2207.48 1527.48 Q2205.84 1529.45 2202.81 1530.21 Z" fill="#000000" fill-rule="evenodd" fill-opacity="1" /><polyline clip-path="url(#clip142)" style="stroke:#000000; stroke-linecap:round; stroke-linejoin:round; stroke-width:2; stroke-opacity:0.1; fill:none" points="
  147.478,1276.04 2352.76,1276.04 
  "/>
<polyline clip-path="url(#clip142)" style="stroke:#000000; stroke-linecap:round; stroke-linejoin:round; stroke-width:2; stroke-opacity:0.1; fill:none" points="
  147.478,1008.84 2352.76,1008.84 
  "/>
<polyline clip-path="url(#clip142)" style="stroke:#000000; stroke-linecap:round; stroke-linejoin:round; stroke-width:2; stroke-opacity:0.1; fill:none" points="
  147.478,741.628 2352.76,741.628 
  "/>
<polyline clip-path="url(#clip142)" style="stroke:#000000; stroke-linecap:round; stroke-linejoin:round; stroke-width:2; stroke-opacity:0.1; fill:none" points="
  147.478,474.419 2352.76,474.419 
  "/>
<polyline clip-path="url(#clip142)" style="stroke:#000000; stroke-linecap:round; stroke-linejoin:round; stroke-width:2; stroke-opacity:0.1; fill:none" points="
  147.478,207.211 2352.76,207.211 
  "/>
<polyline clip-path="url(#clip140)" style="stroke:#000000; stroke-linecap:round; stroke-linejoin:round; stroke-width:4; stroke-opacity:1; fill:none" points="
  147.478,1486.45 147.478,47.2441 
  "/>
<polyline clip-path="url(#clip140)" style="stroke:#000000; stroke-linecap:round; stroke-linejoin:round; stroke-width:4; stroke-opacity:1; fill:none" points="
  147.478,1276.04 166.376,1276.04 
  "/>
<polyline clip-path="url(#clip140)" style="stroke:#000000; stroke-linecap:round; stroke-linejoin:round; stroke-width:4; stroke-opacity:1; fill:none" points="
  147.478,1008.84 166.376,1008.84 
  "/>
<polyline clip-path="url(#clip140)" style="stroke:#000000; stroke-linecap:round; stroke-linejoin:round; stroke-width:4; stroke-opacity:1; fill:none" points="
  147.478,741.628 166.376,741.628 
  "/>
<polyline clip-path="url(#clip140)" style="stroke:#000000; stroke-linecap:round; stroke-linejoin:round; stroke-width:4; stroke-opacity:1; fill:none" points="
  147.478,474.419 166.376,474.419 
  "/>
<polyline clip-path="url(#clip140)" style="stroke:#000000; stroke-linecap:round; stroke-linejoin:round; stroke-width:4; stroke-opacity:1; fill:none" points="
  147.478,207.211 166.376,207.211 
  "/>
<path clip-path="url(#clip140)" d="M50.9921 1276.5 L80.6679 1276.5 L80.6679 1280.43 L50.9921 1280.43 L50.9921 1276.5 Z" fill="#000000" fill-rule="evenodd" fill-opacity="1" /><path clip-path="url(#clip140)" d="M91.5706 1289.39 L99.2095 1289.39 L99.2095 1263.02 L90.8993 1264.69 L90.8993 1260.43 L99.1632 1258.76 L103.839 1258.76 L103.839 1289.39 L111.478 1289.39 L111.478 1293.32 L91.5706 1293.32 L91.5706 1289.39 Z" fill="#000000" fill-rule="evenodd" fill-opacity="1" /><path clip-path="url(#clip140)" d="M99.5335 994.635 Q95.9224 994.635 94.0937 998.2 Q92.2882 1001.74 92.2882 1008.87 Q92.2882 1015.98 94.0937 1019.54 Q95.9224 1023.08 99.5335 1023.08 Q103.168 1023.08 104.973 1019.54 Q106.802 1015.98 106.802 1008.87 Q106.802 1001.74 104.973 998.2 Q103.168 994.635 99.5335 994.635 M99.5335 990.931 Q105.344 990.931 108.399 995.538 Q111.478 1000.12 111.478 1008.87 Q111.478 1017.6 108.399 1022.2 Q105.344 1026.79 99.5335 1026.79 Q93.7234 1026.79 90.6447 1022.2 Q87.5892 1017.6 87.5892 1008.87 Q87.5892 1000.12 90.6447 995.538 Q93.7234 990.931 99.5335 990.931 Z" fill="#000000" fill-rule="evenodd" fill-opacity="1" /><path clip-path="url(#clip140)" d="M91.5706 754.973 L99.2095 754.973 L99.2095 728.607 L90.8993 730.274 L90.8993 726.014 L99.1632 724.348 L103.839 724.348 L103.839 754.973 L111.478 754.973 L111.478 758.908 L91.5706 758.908 L91.5706 754.973 Z" fill="#000000" fill-rule="evenodd" fill-opacity="1" /><path clip-path="url(#clip140)" d="M95.1586 487.764 L111.478 487.764 L111.478 491.699 L89.5336 491.699 L89.5336 487.764 Q92.1956 485.009 96.7789 480.38 Q101.385 475.727 102.566 474.384 Q104.811 471.861 105.691 470.125 Q106.594 468.366 106.594 466.676 Q106.594 463.922 104.649 462.185 Q102.728 460.449 99.6261 460.449 Q97.4271 460.449 94.9734 461.213 Q92.5428 461.977 89.7651 463.528 L89.7651 458.806 Q92.5891 457.672 95.0428 457.093 Q97.4965 456.514 99.5335 456.514 Q104.904 456.514 108.098 459.199 Q111.293 461.885 111.293 466.375 Q111.293 468.505 110.483 470.426 Q109.696 472.324 107.589 474.917 Q107.01 475.588 103.909 478.806 Q100.807 482 95.1586 487.764 Z" fill="#000000" fill-rule="evenodd" fill-opacity="1" /><path clip-path="url(#clip140)" d="M104.348 205.856 Q107.705 206.574 109.58 208.843 Q111.478 211.111 111.478 214.444 Q111.478 219.56 107.959 222.361 Q104.441 225.162 97.9595 225.162 Q95.7836 225.162 93.4688 224.722 Q91.1771 224.305 88.7234 223.449 L88.7234 218.935 Q90.6678 220.069 92.9826 220.648 Q95.2974 221.227 97.8206 221.227 Q102.219 221.227 104.51 219.491 Q106.825 217.755 106.825 214.444 Q106.825 211.389 104.672 209.676 Q102.543 207.94 98.7234 207.94 L94.6956 207.94 L94.6956 204.097 L98.9085 204.097 Q102.358 204.097 104.186 202.731 Q106.015 201.343 106.015 198.75 Q106.015 196.088 104.117 194.676 Q102.242 193.241 98.7234 193.241 Q96.8021 193.241 94.603 193.657 Q92.4039 194.074 89.7651 194.954 L89.7651 190.787 Q92.4271 190.046 94.7419 189.676 Q97.0798 189.306 99.14 189.306 Q104.464 189.306 107.566 191.736 Q110.668 194.144 110.668 198.264 Q110.668 201.134 109.024 203.125 Q107.381 205.093 104.348 205.856 Z" fill="#000000" fill-rule="evenodd" fill-opacity="1" /><circle clip-path="url(#clip142)" cx="609.952" cy="382.477" r="14.4" fill="#e69f00" fill-rule="evenodd" fill-opacity="1" stroke="#000000" stroke-opacity="1" stroke-width="3.2"/>
<circle clip-path="url(#clip142)" cx="1451.85" cy="872.257" r="14.4" fill="#e69f00" fill-rule="evenodd" fill-opacity="1" stroke="#000000" stroke-opacity="1" stroke-width="3.2"/>
<circle clip-path="url(#clip142)" cx="1815.19" cy="624.766" r="14.4" fill="#e69f00" fill-rule="evenodd" fill-opacity="1" stroke="#000000" stroke-opacity="1" stroke-width="3.2"/>
<circle clip-path="url(#clip142)" cx="834.757" cy="652.613" r="14.4" fill="#e69f00" fill-rule="evenodd" fill-opacity="1" stroke="#000000" stroke-opacity="1" stroke-width="3.2"/>
<circle clip-path="url(#clip142)" cx="913.713" cy="793.86" r="14.4" fill="#e69f00" fill-rule="evenodd" fill-opacity="1" stroke="#000000" stroke-opacity="1" stroke-width="3.2"/>
<circle clip-path="url(#clip142)" cx="1205.41" cy="775.345" r="14.4" fill="#e69f00" fill-rule="evenodd" fill-opacity="1" stroke="#000000" stroke-opacity="1" stroke-width="3.2"/>
<circle clip-path="url(#clip142)" cx="661.615" cy="625.045" r="14.4" fill="#e69f00" fill-rule="evenodd" fill-opacity="1" stroke="#000000" stroke-opacity="1" stroke-width="3.2"/>
<circle clip-path="url(#clip142)" cx="360.533" cy="836.794" r="14.4" fill="#e69f00" fill-rule="evenodd" fill-opacity="1" stroke="#000000" stroke-opacity="1" stroke-width="3.2"/>
<circle clip-path="url(#clip142)" cx="1523.71" cy="918.566" r="14.4" fill="#e69f00" fill-rule="evenodd" fill-opacity="1" stroke="#000000" stroke-opacity="1" stroke-width="3.2"/>
<circle clip-path="url(#clip142)" cx="1454.45" cy="984.97" r="14.4" fill="#e69f00" fill-rule="evenodd" fill-opacity="1" stroke="#000000" stroke-opacity="1" stroke-width="3.2"/>
<circle clip-path="url(#clip142)" cx="540.352" cy="489.615" r="14.4" fill="#e69f00" fill-rule="evenodd" fill-opacity="1" stroke="#000000" stroke-opacity="1" stroke-width="3.2"/>
<circle clip-path="url(#clip142)" cx="575.9" cy="373.351" r="14.4" fill="#e69f00" fill-rule="evenodd" fill-opacity="1" stroke="#000000" stroke-opacity="1" stroke-width="3.2"/>
<circle clip-path="url(#clip142)" cx="1163.85" cy="1146.49" r="14.4" fill="#e69f00" fill-rule="evenodd" fill-opacity="1" stroke="#000000" stroke-opacity="1" stroke-width="3.2"/>
<circle clip-path="url(#clip142)" cx="1408.14" cy="1039.89" r="14.4" fill="#e69f00" fill-rule="evenodd" fill-opacity="1" stroke="#000000" stroke-opacity="1" stroke-width="3.2"/>
<circle clip-path="url(#clip142)" cx="2075.93" cy="408.31" r="14.4" fill="#e69f00" fill-rule="evenodd" fill-opacity="1" stroke="#000000" stroke-opacity="1" stroke-width="3.2"/>
<circle clip-path="url(#clip142)" cx="1959.94" cy="737.792" r="14.4" fill="#e69f00" fill-rule="evenodd" fill-opacity="1" stroke="#000000" stroke-opacity="1" stroke-width="3.2"/>
<circle clip-path="url(#clip142)" cx="984.305" cy="901.379" r="14.4" fill="#e69f00" fill-rule="evenodd" fill-opacity="1" stroke="#000000" stroke-opacity="1" stroke-width="3.2"/>
<circle clip-path="url(#clip142)" cx="1718.99" cy="722.088" r="14.4" fill="#e69f00" fill-rule="evenodd" fill-opacity="1" stroke="#000000" stroke-opacity="1" stroke-width="3.2"/>
<circle clip-path="url(#clip142)" cx="1023.19" cy="1072.47" r="14.4" fill="#e69f00" fill-rule="evenodd" fill-opacity="1" stroke="#000000" stroke-opacity="1" stroke-width="3.2"/>
<circle clip-path="url(#clip142)" cx="1730.43" cy="672.491" r="14.4" fill="#e69f00" fill-rule="evenodd" fill-opacity="1" stroke="#000000" stroke-opacity="1" stroke-width="3.2"/>
<circle clip-path="url(#clip142)" cx="1415.3" cy="889.821" r="14.4" fill="#e69f00" fill-rule="evenodd" fill-opacity="1" stroke="#000000" stroke-opacity="1" stroke-width="3.2"/>
<circle clip-path="url(#clip142)" cx="617.656" cy="609.364" r="14.4" fill="#e69f00" fill-rule="evenodd" fill-opacity="1" stroke="#000000" stroke-opacity="1" stroke-width="3.2"/>
<circle clip-path="url(#clip142)" cx="1173.61" cy="651.001" r="14.4" fill="#e69f00" fill-rule="evenodd" fill-opacity="1" stroke="#000000" stroke-opacity="1" stroke-width="3.2"/>
<circle clip-path="url(#clip142)" cx="933.866" cy="764.481" r="14.4" fill="#e69f00" fill-rule="evenodd" fill-opacity="1" stroke="#000000" stroke-opacity="1" stroke-width="3.2"/>
<circle clip-path="url(#clip142)" cx="1390.75" cy="1142.79" r="14.4" fill="#e69f00" fill-rule="evenodd" fill-opacity="1" stroke="#000000" stroke-opacity="1" stroke-width="3.2"/>
<circle clip-path="url(#clip142)" cx="1248.96" cy="1279.23" r="14.4" fill="#e69f00" fill-rule="evenodd" fill-opacity="1" stroke="#000000" stroke-opacity="1" stroke-width="3.2"/>
<circle clip-path="url(#clip142)" cx="1501.87" cy="761.954" r="14.4" fill="#e69f00" fill-rule="evenodd" fill-opacity="1" stroke="#000000" stroke-opacity="1" stroke-width="3.2"/>
<circle clip-path="url(#clip142)" cx="1304.61" cy="1071.8" r="14.4" fill="#e69f00" fill-rule="evenodd" fill-opacity="1" stroke="#000000" stroke-opacity="1" stroke-width="3.2"/>
<circle clip-path="url(#clip142)" cx="1848.7" cy="474.519" r="14.4" fill="#e69f00" fill-rule="evenodd" fill-opacity="1" stroke="#000000" stroke-opacity="1" stroke-width="3.2"/>
<circle clip-path="url(#clip142)" cx="1164.48" cy="783.468" r="14.4" fill="#e69f00" fill-rule="evenodd" fill-opacity="1" stroke="#000000" stroke-opacity="1" stroke-width="3.2"/>
<circle clip-path="url(#clip142)" cx="1639.21" cy="737.135" r="14.4" fill="#e69f00" fill-rule="evenodd" fill-opacity="1" stroke="#000000" stroke-opacity="1" stroke-width="3.2"/>
<circle clip-path="url(#clip142)" cx="1349.01" cy="735.491" r="14.4" fill="#e69f00" fill-rule="evenodd" fill-opacity="1" stroke="#000000" stroke-opacity="1" stroke-width="3.2"/>
<circle clip-path="url(#clip142)" cx="340.807" cy="892.241" r="14.4" fill="#e69f00" fill-rule="evenodd" fill-opacity="1" stroke="#000000" stroke-opacity="1" stroke-width="3.2"/>
<circle clip-path="url(#clip142)" cx="2070.52" cy="667.087" r="14.4" fill="#e69f00" fill-rule="evenodd" fill-opacity="1" stroke="#000000" stroke-opacity="1" stroke-width="3.2"/>
<circle clip-path="url(#clip142)" cx="541.437" cy="555.505" r="14.4" fill="#e69f00" fill-rule="evenodd" fill-opacity="1" stroke="#000000" stroke-opacity="1" stroke-width="3.2"/>
<circle clip-path="url(#clip142)" cx="2033.95" cy="571.054" r="14.4" fill="#e69f00" fill-rule="evenodd" fill-opacity="1" stroke="#000000" stroke-opacity="1" stroke-width="3.2"/>
<circle clip-path="url(#clip142)" cx="1094.25" cy="836.288" r="14.4" fill="#e69f00" fill-rule="evenodd" fill-opacity="1" stroke="#000000" stroke-opacity="1" stroke-width="3.2"/>
<circle clip-path="url(#clip142)" cx="1894.56" cy="488.604" r="14.4" fill="#e69f00" fill-rule="evenodd" fill-opacity="1" stroke="#000000" stroke-opacity="1" stroke-width="3.2"/>
<circle clip-path="url(#clip142)" cx="613.322" cy="463.623" r="14.4" fill="#e69f00" fill-rule="evenodd" fill-opacity="1" stroke="#000000" stroke-opacity="1" stroke-width="3.2"/>
<circle clip-path="url(#clip142)" cx="1554.46" cy="767.576" r="14.4" fill="#e69f00" fill-rule="evenodd" fill-opacity="1" stroke="#000000" stroke-opacity="1" stroke-width="3.2"/>
<circle clip-path="url(#clip142)" cx="2078.01" cy="572.151" r="14.4" fill="#e69f00" fill-rule="evenodd" fill-opacity="1" stroke="#000000" stroke-opacity="1" stroke-width="3.2"/>
<circle clip-path="url(#clip142)" cx="2194.76" cy="996.926" r="14.4" fill="#e69f00" fill-rule="evenodd" fill-opacity="1" stroke="#000000" stroke-opacity="1" stroke-width="3.2"/>
<circle clip-path="url(#clip142)" cx="1248.87" cy="835.971" r="14.4" fill="#e69f00" fill-rule="evenodd" fill-opacity="1" stroke="#000000" stroke-opacity="1" stroke-width="3.2"/>
<circle clip-path="url(#clip142)" cx="504.2" cy="485.502" r="14.4" fill="#e69f00" fill-rule="evenodd" fill-opacity="1" stroke="#000000" stroke-opacity="1" stroke-width="3.2"/>
<circle clip-path="url(#clip142)" cx="333.122" cy="869.276" r="14.4" fill="#e69f00" fill-rule="evenodd" fill-opacity="1" stroke="#000000" stroke-opacity="1" stroke-width="3.2"/>
<circle clip-path="url(#clip142)" cx="628.138" cy="489.22" r="14.4" fill="#e69f00" fill-rule="evenodd" fill-opacity="1" stroke="#000000" stroke-opacity="1" stroke-width="3.2"/>
<circle clip-path="url(#clip142)" cx="1006.31" cy="994.693" r="14.4" fill="#e69f00" fill-rule="evenodd" fill-opacity="1" stroke="#000000" stroke-opacity="1" stroke-width="3.2"/>
<circle clip-path="url(#clip142)" cx="1202.74" cy="1189.91" r="14.4" fill="#e69f00" fill-rule="evenodd" fill-opacity="1" stroke="#000000" stroke-opacity="1" stroke-width="3.2"/>
<circle clip-path="url(#clip142)" cx="1594.39" cy="797.587" r="14.4" fill="#e69f00" fill-rule="evenodd" fill-opacity="1" stroke="#000000" stroke-opacity="1" stroke-width="3.2"/>
<circle clip-path="url(#clip142)" cx="782.115" cy="593.549" r="14.4" fill="#e69f00" fill-rule="evenodd" fill-opacity="1" stroke="#000000" stroke-opacity="1" stroke-width="3.2"/>
<circle clip-path="url(#clip142)" cx="306.257" cy="811.64" r="14.4" fill="#e69f00" fill-rule="evenodd" fill-opacity="1" stroke="#000000" stroke-opacity="1" stroke-width="3.2"/>
<circle clip-path="url(#clip142)" cx="364.112" cy="887.915" r="14.4" fill="#e69f00" fill-rule="evenodd" fill-opacity="1" stroke="#000000" stroke-opacity="1" stroke-width="3.2"/>
<circle clip-path="url(#clip142)" cx="1719.98" cy="558.06" r="14.4" fill="#e69f00" fill-rule="evenodd" fill-opacity="1" stroke="#000000" stroke-opacity="1" stroke-width="3.2"/>
<circle clip-path="url(#clip142)" cx="1585.37" cy="693.834" r="14.4" fill="#e69f00" fill-rule="evenodd" fill-opacity="1" stroke="#000000" stroke-opacity="1" stroke-width="3.2"/>
<circle clip-path="url(#clip142)" cx="1123.02" cy="908.471" r="14.4" fill="#e69f00" fill-rule="evenodd" fill-opacity="1" stroke="#000000" stroke-opacity="1" stroke-width="3.2"/>
<circle clip-path="url(#clip142)" cx="1629.2" cy="794.7" r="14.4" fill="#e69f00" fill-rule="evenodd" fill-opacity="1" stroke="#000000" stroke-opacity="1" stroke-width="3.2"/>
<circle clip-path="url(#clip142)" cx="1341.95" cy="990.419" r="14.4" fill="#e69f00" fill-rule="evenodd" fill-opacity="1" stroke="#000000" stroke-opacity="1" stroke-width="3.2"/>
<circle clip-path="url(#clip142)" cx="425.58" cy="708.525" r="14.4" fill="#e69f00" fill-rule="evenodd" fill-opacity="1" stroke="#000000" stroke-opacity="1" stroke-width="3.2"/>
<circle clip-path="url(#clip142)" cx="2036.15" cy="470.558" r="14.4" fill="#e69f00" fill-rule="evenodd" fill-opacity="1" stroke="#000000" stroke-opacity="1" stroke-width="3.2"/>
<circle clip-path="url(#clip142)" cx="569.426" cy="776.042" r="14.4" fill="#e69f00" fill-rule="evenodd" fill-opacity="1" stroke="#000000" stroke-opacity="1" stroke-width="3.2"/>
<circle clip-path="url(#clip142)" cx="443.373" cy="521.427" r="14.4" fill="#e69f00" fill-rule="evenodd" fill-opacity="1" stroke="#000000" stroke-opacity="1" stroke-width="3.2"/>
<circle clip-path="url(#clip142)" cx="717.434" cy="386.258" r="14.4" fill="#e69f00" fill-rule="evenodd" fill-opacity="1" stroke="#000000" stroke-opacity="1" stroke-width="3.2"/>
<circle clip-path="url(#clip142)" cx="694.477" cy="505.831" r="14.4" fill="#e69f00" fill-rule="evenodd" fill-opacity="1" stroke="#000000" stroke-opacity="1" stroke-width="3.2"/>
<circle clip-path="url(#clip142)" cx="1279.52" cy="1040.54" r="14.4" fill="#e69f00" fill-rule="evenodd" fill-opacity="1" stroke="#000000" stroke-opacity="1" stroke-width="3.2"/>
<circle clip-path="url(#clip142)" cx="2133.34" cy="849.605" r="14.4" fill="#e69f00" fill-rule="evenodd" fill-opacity="1" stroke="#000000" stroke-opacity="1" stroke-width="3.2"/>
<circle clip-path="url(#clip142)" cx="748.393" cy="627.485" r="14.4" fill="#e69f00" fill-rule="evenodd" fill-opacity="1" stroke="#000000" stroke-opacity="1" stroke-width="3.2"/>
<circle clip-path="url(#clip142)" cx="404.361" cy="689.38" r="14.4" fill="#e69f00" fill-rule="evenodd" fill-opacity="1" stroke="#000000" stroke-opacity="1" stroke-width="3.2"/>
<circle clip-path="url(#clip142)" cx="726.144" cy="463.418" r="14.4" fill="#e69f00" fill-rule="evenodd" fill-opacity="1" stroke="#000000" stroke-opacity="1" stroke-width="3.2"/>
<circle clip-path="url(#clip142)" cx="1571.87" cy="822.834" r="14.4" fill="#e69f00" fill-rule="evenodd" fill-opacity="1" stroke="#000000" stroke-opacity="1" stroke-width="3.2"/>
<circle clip-path="url(#clip142)" cx="1771.72" cy="310.909" r="14.4" fill="#e69f00" fill-rule="evenodd" fill-opacity="1" stroke="#000000" stroke-opacity="1" stroke-width="3.2"/>
<circle clip-path="url(#clip142)" cx="1112.62" cy="1278.75" r="14.4" fill="#e69f00" fill-rule="evenodd" fill-opacity="1" stroke="#000000" stroke-opacity="1" stroke-width="3.2"/>
<circle clip-path="url(#clip142)" cx="874.714" cy="770.834" r="14.4" fill="#e69f00" fill-rule="evenodd" fill-opacity="1" stroke="#000000" stroke-opacity="1" stroke-width="3.2"/>
<circle clip-path="url(#clip142)" cx="1079.63" cy="774.464" r="14.4" fill="#e69f00" fill-rule="evenodd" fill-opacity="1" stroke="#000000" stroke-opacity="1" stroke-width="3.2"/>
<circle clip-path="url(#clip142)" cx="379.261" cy="503.449" r="14.4" fill="#e69f00" fill-rule="evenodd" fill-opacity="1" stroke="#000000" stroke-opacity="1" stroke-width="3.2"/>
<circle clip-path="url(#clip142)" cx="742.289" cy="818.694" r="14.4" fill="#e69f00" fill-rule="evenodd" fill-opacity="1" stroke="#000000" stroke-opacity="1" stroke-width="3.2"/>
<circle clip-path="url(#clip142)" cx="340.891" cy="721.128" r="14.4" fill="#e69f00" fill-rule="evenodd" fill-opacity="1" stroke="#000000" stroke-opacity="1" stroke-width="3.2"/>
<circle clip-path="url(#clip142)" cx="610.58" cy="702.924" r="14.4" fill="#e69f00" fill-rule="evenodd" fill-opacity="1" stroke="#000000" stroke-opacity="1" stroke-width="3.2"/>
<circle clip-path="url(#clip142)" cx="1955.45" cy="612.136" r="14.4" fill="#e69f00" fill-rule="evenodd" fill-opacity="1" stroke="#000000" stroke-opacity="1" stroke-width="3.2"/>
<circle clip-path="url(#clip142)" cx="1456.48" cy="943.243" r="14.4" fill="#e69f00" fill-rule="evenodd" fill-opacity="1" stroke="#000000" stroke-opacity="1" stroke-width="3.2"/>
<circle clip-path="url(#clip142)" cx="1402.98" cy="1079.37" r="14.4" fill="#e69f00" fill-rule="evenodd" fill-opacity="1" stroke="#000000" stroke-opacity="1" stroke-width="3.2"/>
<circle clip-path="url(#clip142)" cx="1240.34" cy="797.282" r="14.4" fill="#e69f00" fill-rule="evenodd" fill-opacity="1" stroke="#000000" stroke-opacity="1" stroke-width="3.2"/>
<circle clip-path="url(#clip142)" cx="1096.36" cy="976.017" r="14.4" fill="#e69f00" fill-rule="evenodd" fill-opacity="1" stroke="#000000" stroke-opacity="1" stroke-width="3.2"/>
<circle clip-path="url(#clip142)" cx="1257.41" cy="873.488" r="14.4" fill="#e69f00" fill-rule="evenodd" fill-opacity="1" stroke="#000000" stroke-opacity="1" stroke-width="3.2"/>
<circle clip-path="url(#clip142)" cx="1075.98" cy="932.373" r="14.4" fill="#e69f00" fill-rule="evenodd" fill-opacity="1" stroke="#000000" stroke-opacity="1" stroke-width="3.2"/>
<circle clip-path="url(#clip142)" cx="1682.05" cy="515.896" r="14.4" fill="#e69f00" fill-rule="evenodd" fill-opacity="1" stroke="#000000" stroke-opacity="1" stroke-width="3.2"/>
<circle clip-path="url(#clip142)" cx="2126.99" cy="579.968" r="14.4" fill="#e69f00" fill-rule="evenodd" fill-opacity="1" stroke="#000000" stroke-opacity="1" stroke-width="3.2"/>
<circle clip-path="url(#clip142)" cx="1836.08" cy="551.823" r="14.4" fill="#e69f00" fill-rule="evenodd" fill-opacity="1" stroke="#000000" stroke-opacity="1" stroke-width="3.2"/>
<circle clip-path="url(#clip142)" cx="608.705" cy="574.385" r="14.4" fill="#e69f00" fill-rule="evenodd" fill-opacity="1" stroke="#000000" stroke-opacity="1" stroke-width="3.2"/>
<circle clip-path="url(#clip142)" cx="1610.12" cy="543.357" r="14.4" fill="#e69f00" fill-rule="evenodd" fill-opacity="1" stroke="#000000" stroke-opacity="1" stroke-width="3.2"/>
<circle clip-path="url(#clip142)" cx="1162.8" cy="832.714" r="14.4" fill="#e69f00" fill-rule="evenodd" fill-opacity="1" stroke="#000000" stroke-opacity="1" stroke-width="3.2"/>
<circle clip-path="url(#clip142)" cx="600.712" cy="381.014" r="14.4" fill="#e69f00" fill-rule="evenodd" fill-opacity="1" stroke="#000000" stroke-opacity="1" stroke-width="3.2"/>
<circle clip-path="url(#clip142)" cx="396.204" cy="579.595" r="14.4" fill="#e69f00" fill-rule="evenodd" fill-opacity="1" stroke="#000000" stroke-opacity="1" stroke-width="3.2"/>
<circle clip-path="url(#clip142)" cx="1002.47" cy="841.444" r="14.4" fill="#e69f00" fill-rule="evenodd" fill-opacity="1" stroke="#000000" stroke-opacity="1" stroke-width="3.2"/>
<circle clip-path="url(#clip142)" cx="542.106" cy="535.309" r="14.4" fill="#e69f00" fill-rule="evenodd" fill-opacity="1" stroke="#000000" stroke-opacity="1" stroke-width="3.2"/>
<circle clip-path="url(#clip142)" cx="480.991" cy="571.102" r="14.4" fill="#e69f00" fill-rule="evenodd" fill-opacity="1" stroke="#000000" stroke-opacity="1" stroke-width="3.2"/>
<circle clip-path="url(#clip142)" cx="1807.5" cy="491.71" r="14.4" fill="#e69f00" fill-rule="evenodd" fill-opacity="1" stroke="#000000" stroke-opacity="1" stroke-width="3.2"/>
<circle clip-path="url(#clip142)" cx="748.623" cy="466.987" r="14.4" fill="#e69f00" fill-rule="evenodd" fill-opacity="1" stroke="#000000" stroke-opacity="1" stroke-width="3.2"/>
<circle clip-path="url(#clip142)" cx="419.216" cy="862.253" r="14.4" fill="#e69f00" fill-rule="evenodd" fill-opacity="1" stroke="#000000" stroke-opacity="1" stroke-width="3.2"/>
<circle clip-path="url(#clip142)" cx="313.211" cy="912.442" r="14.4" fill="#e69f00" fill-rule="evenodd" fill-opacity="1" stroke="#000000" stroke-opacity="1" stroke-width="3.2"/>
<circle clip-path="url(#clip142)" cx="1462.01" cy="939.71" r="14.4" fill="#e69f00" fill-rule="evenodd" fill-opacity="1" stroke="#000000" stroke-opacity="1" stroke-width="3.2"/>
<circle clip-path="url(#clip142)" cx="937.574" cy="618.768" r="14.4" fill="#e69f00" fill-rule="evenodd" fill-opacity="1" stroke="#000000" stroke-opacity="1" stroke-width="3.2"/>
<circle clip-path="url(#clip142)" cx="2079.87" cy="725.371" r="14.4" fill="#e69f00" fill-rule="evenodd" fill-opacity="1" stroke="#000000" stroke-opacity="1" stroke-width="3.2"/>
<circle clip-path="url(#clip142)" cx="658.395" cy="329.601" r="14.4" fill="#e69f00" fill-rule="evenodd" fill-opacity="1" stroke="#000000" stroke-opacity="1" stroke-width="3.2"/>
<circle clip-path="url(#clip142)" cx="1330.05" cy="911.632" r="14.4" fill="#e69f00" fill-rule="evenodd" fill-opacity="1" stroke="#000000" stroke-opacity="1" stroke-width="3.2"/>
<circle clip-path="url(#clip142)" cx="1796.62" cy="715.373" r="14.4" fill="#e69f00" fill-rule="evenodd" fill-opacity="1" stroke="#000000" stroke-opacity="1" stroke-width="3.2"/>
<circle clip-path="url(#clip142)" cx="974.72" cy="695.633" r="14.4" fill="#e69f00" fill-rule="evenodd" fill-opacity="1" stroke="#000000" stroke-opacity="1" stroke-width="3.2"/>
<circle clip-path="url(#clip142)" cx="1705.59" cy="843.786" r="14.4" fill="#e69f00" fill-rule="evenodd" fill-opacity="1" stroke="#000000" stroke-opacity="1" stroke-width="3.2"/>
<circle clip-path="url(#clip142)" cx="920.173" cy="650.724" r="14.4" fill="#e69f00" fill-rule="evenodd" fill-opacity="1" stroke="#000000" stroke-opacity="1" stroke-width="3.2"/>
<circle clip-path="url(#clip142)" cx="1055.51" cy="1117.35" r="14.4" fill="#e69f00" fill-rule="evenodd" fill-opacity="1" stroke="#000000" stroke-opacity="1" stroke-width="3.2"/>
<circle clip-path="url(#clip142)" cx="1959.72" cy="685.674" r="14.4" fill="#e69f00" fill-rule="evenodd" fill-opacity="1" stroke="#000000" stroke-opacity="1" stroke-width="3.2"/>
<circle clip-path="url(#clip142)" cx="926.864" cy="685.561" r="14.4" fill="#e69f00" fill-rule="evenodd" fill-opacity="1" stroke="#000000" stroke-opacity="1" stroke-width="3.2"/>
<circle clip-path="url(#clip142)" cx="305.47" cy="999.381" r="14.4" fill="#e69f00" fill-rule="evenodd" fill-opacity="1" stroke="#000000" stroke-opacity="1" stroke-width="3.2"/>
<circle clip-path="url(#clip142)" cx="344.26" cy="784.101" r="14.4" fill="#e69f00" fill-rule="evenodd" fill-opacity="1" stroke="#000000" stroke-opacity="1" stroke-width="3.2"/>
<circle clip-path="url(#clip142)" cx="1414.49" cy="932.441" r="14.4" fill="#e69f00" fill-rule="evenodd" fill-opacity="1" stroke="#000000" stroke-opacity="1" stroke-width="3.2"/>
<circle clip-path="url(#clip142)" cx="1150.89" cy="965.354" r="14.4" fill="#e69f00" fill-rule="evenodd" fill-opacity="1" stroke="#000000" stroke-opacity="1" stroke-width="3.2"/>
<circle clip-path="url(#clip142)" cx="1551.4" cy="905.922" r="14.4" fill="#e69f00" fill-rule="evenodd" fill-opacity="1" stroke="#000000" stroke-opacity="1" stroke-width="3.2"/>
<circle clip-path="url(#clip142)" cx="1771.28" cy="641.484" r="14.4" fill="#e69f00" fill-rule="evenodd" fill-opacity="1" stroke="#000000" stroke-opacity="1" stroke-width="3.2"/>
<circle clip-path="url(#clip142)" cx="1682.55" cy="741.742" r="14.4" fill="#e69f00" fill-rule="evenodd" fill-opacity="1" stroke="#000000" stroke-opacity="1" stroke-width="3.2"/>
<circle clip-path="url(#clip142)" cx="1819.12" cy="546.414" r="14.4" fill="#e69f00" fill-rule="evenodd" fill-opacity="1" stroke="#000000" stroke-opacity="1" stroke-width="3.2"/>
<circle clip-path="url(#clip142)" cx="1687.28" cy="805.699" r="14.4" fill="#e69f00" fill-rule="evenodd" fill-opacity="1" stroke="#000000" stroke-opacity="1" stroke-width="3.2"/>
<circle clip-path="url(#clip142)" cx="2132.04" cy="663.446" r="14.4" fill="#e69f00" fill-rule="evenodd" fill-opacity="1" stroke="#000000" stroke-opacity="1" stroke-width="3.2"/>
<circle clip-path="url(#clip142)" cx="941.243" cy="974.913" r="14.4" fill="#e69f00" fill-rule="evenodd" fill-opacity="1" stroke="#000000" stroke-opacity="1" stroke-width="3.2"/>
<circle clip-path="url(#clip142)" cx="1197.24" cy="1143.72" r="14.4" fill="#e69f00" fill-rule="evenodd" fill-opacity="1" stroke="#000000" stroke-opacity="1" stroke-width="3.2"/>
<circle clip-path="url(#clip142)" cx="857.683" cy="694.169" r="14.4" fill="#e69f00" fill-rule="evenodd" fill-opacity="1" stroke="#000000" stroke-opacity="1" stroke-width="3.2"/>
<circle clip-path="url(#clip142)" cx="640.327" cy="602.015" r="14.4" fill="#e69f00" fill-rule="evenodd" fill-opacity="1" stroke="#000000" stroke-opacity="1" stroke-width="3.2"/>
<circle clip-path="url(#clip142)" cx="2101.85" cy="670.269" r="14.4" fill="#e69f00" fill-rule="evenodd" fill-opacity="1" stroke="#000000" stroke-opacity="1" stroke-width="3.2"/>
<circle clip-path="url(#clip142)" cx="594.566" cy="522.998" r="14.4" fill="#e69f00" fill-rule="evenodd" fill-opacity="1" stroke="#000000" stroke-opacity="1" stroke-width="3.2"/>
<circle clip-path="url(#clip142)" cx="847.59" cy="475.356" r="14.4" fill="#e69f00" fill-rule="evenodd" fill-opacity="1" stroke="#000000" stroke-opacity="1" stroke-width="3.2"/>
<circle clip-path="url(#clip142)" cx="1548.8" cy="813.686" r="14.4" fill="#e69f00" fill-rule="evenodd" fill-opacity="1" stroke="#000000" stroke-opacity="1" stroke-width="3.2"/>
<circle clip-path="url(#clip142)" cx="325.444" cy="779.982" r="14.4" fill="#e69f00" fill-rule="evenodd" fill-opacity="1" stroke="#000000" stroke-opacity="1" stroke-width="3.2"/>
<circle clip-path="url(#clip142)" cx="976.393" cy="741.833" r="14.4" fill="#e69f00" fill-rule="evenodd" fill-opacity="1" stroke="#000000" stroke-opacity="1" stroke-width="3.2"/>
<circle clip-path="url(#clip142)" cx="1896.15" cy="228.82" r="14.4" fill="#e69f00" fill-rule="evenodd" fill-opacity="1" stroke="#000000" stroke-opacity="1" stroke-width="3.2"/>
<circle clip-path="url(#clip142)" cx="626.069" cy="432.158" r="14.4" fill="#e69f00" fill-rule="evenodd" fill-opacity="1" stroke="#000000" stroke-opacity="1" stroke-width="3.2"/>
<circle clip-path="url(#clip142)" cx="986.963" cy="1012.51" r="14.4" fill="#e69f00" fill-rule="evenodd" fill-opacity="1" stroke="#000000" stroke-opacity="1" stroke-width="3.2"/>
<circle clip-path="url(#clip142)" cx="2022.6" cy="567.067" r="14.4" fill="#e69f00" fill-rule="evenodd" fill-opacity="1" stroke="#000000" stroke-opacity="1" stroke-width="3.2"/>
<circle clip-path="url(#clip142)" cx="2169.53" cy="700.992" r="14.4" fill="#e69f00" fill-rule="evenodd" fill-opacity="1" stroke="#000000" stroke-opacity="1" stroke-width="3.2"/>
<circle clip-path="url(#clip142)" cx="2134.29" cy="809.615" r="14.4" fill="#e69f00" fill-rule="evenodd" fill-opacity="1" stroke="#000000" stroke-opacity="1" stroke-width="3.2"/>
<circle clip-path="url(#clip142)" cx="1656.61" cy="720.053" r="14.4" fill="#e69f00" fill-rule="evenodd" fill-opacity="1" stroke="#000000" stroke-opacity="1" stroke-width="3.2"/>
<circle clip-path="url(#clip142)" cx="1392.04" cy="834.53" r="14.4" fill="#e69f00" fill-rule="evenodd" fill-opacity="1" stroke="#000000" stroke-opacity="1" stroke-width="3.2"/>
<circle clip-path="url(#clip142)" cx="702.768" cy="776.598" r="14.4" fill="#e69f00" fill-rule="evenodd" fill-opacity="1" stroke="#000000" stroke-opacity="1" stroke-width="3.2"/>
<circle clip-path="url(#clip142)" cx="418.437" cy="742.255" r="14.4" fill="#e69f00" fill-rule="evenodd" fill-opacity="1" stroke="#000000" stroke-opacity="1" stroke-width="3.2"/>
<circle clip-path="url(#clip142)" cx="1224.73" cy="1032.76" r="14.4" fill="#e69f00" fill-rule="evenodd" fill-opacity="1" stroke="#000000" stroke-opacity="1" stroke-width="3.2"/>
<circle clip-path="url(#clip142)" cx="883.135" cy="598.078" r="14.4" fill="#e69f00" fill-rule="evenodd" fill-opacity="1" stroke="#000000" stroke-opacity="1" stroke-width="3.2"/>
<circle clip-path="url(#clip142)" cx="1483.46" cy="901.101" r="14.4" fill="#e69f00" fill-rule="evenodd" fill-opacity="1" stroke="#000000" stroke-opacity="1" stroke-width="3.2"/>
<circle clip-path="url(#clip142)" cx="1823.24" cy="656.397" r="14.4" fill="#e69f00" fill-rule="evenodd" fill-opacity="1" stroke="#000000" stroke-opacity="1" stroke-width="3.2"/>
<circle clip-path="url(#clip142)" cx="980.122" cy="1286.19" r="14.4" fill="#e69f00" fill-rule="evenodd" fill-opacity="1" stroke="#000000" stroke-opacity="1" stroke-width="3.2"/>
<circle clip-path="url(#clip142)" cx="470.674" cy="525.621" r="14.4" fill="#e69f00" fill-rule="evenodd" fill-opacity="1" stroke="#000000" stroke-opacity="1" stroke-width="3.2"/>
<circle clip-path="url(#clip142)" cx="1667.19" cy="645.442" r="14.4" fill="#e69f00" fill-rule="evenodd" fill-opacity="1" stroke="#000000" stroke-opacity="1" stroke-width="3.2"/>
<circle clip-path="url(#clip142)" cx="858.208" cy="583.566" r="14.4" fill="#e69f00" fill-rule="evenodd" fill-opacity="1" stroke="#000000" stroke-opacity="1" stroke-width="3.2"/>
<circle clip-path="url(#clip142)" cx="437.805" cy="712.755" r="14.4" fill="#e69f00" fill-rule="evenodd" fill-opacity="1" stroke="#000000" stroke-opacity="1" stroke-width="3.2"/>
<circle clip-path="url(#clip142)" cx="1276.9" cy="867.644" r="14.4" fill="#e69f00" fill-rule="evenodd" fill-opacity="1" stroke="#000000" stroke-opacity="1" stroke-width="3.2"/>
<circle clip-path="url(#clip142)" cx="825.415" cy="693.434" r="14.4" fill="#e69f00" fill-rule="evenodd" fill-opacity="1" stroke="#000000" stroke-opacity="1" stroke-width="3.2"/>
<circle clip-path="url(#clip142)" cx="1404.97" cy="997.66" r="14.4" fill="#e69f00" fill-rule="evenodd" fill-opacity="1" stroke="#000000" stroke-opacity="1" stroke-width="3.2"/>
<circle clip-path="url(#clip142)" cx="312.536" cy="733.753" r="14.4" fill="#e69f00" fill-rule="evenodd" fill-opacity="1" stroke="#000000" stroke-opacity="1" stroke-width="3.2"/>
<circle clip-path="url(#clip142)" cx="2026.85" cy="397.283" r="14.4" fill="#e69f00" fill-rule="evenodd" fill-opacity="1" stroke="#000000" stroke-opacity="1" stroke-width="3.2"/>
<circle clip-path="url(#clip142)" cx="1548.06" cy="536.458" r="14.4" fill="#e69f00" fill-rule="evenodd" fill-opacity="1" stroke="#000000" stroke-opacity="1" stroke-width="3.2"/>
<circle clip-path="url(#clip142)" cx="1406.99" cy="981.569" r="14.4" fill="#e69f00" fill-rule="evenodd" fill-opacity="1" stroke="#000000" stroke-opacity="1" stroke-width="3.2"/>
<circle clip-path="url(#clip142)" cx="1409.17" cy="965.142" r="14.4" fill="#e69f00" fill-rule="evenodd" fill-opacity="1" stroke="#000000" stroke-opacity="1" stroke-width="3.2"/>
<circle clip-path="url(#clip142)" cx="1697.21" cy="700.116" r="14.4" fill="#e69f00" fill-rule="evenodd" fill-opacity="1" stroke="#000000" stroke-opacity="1" stroke-width="3.2"/>
<circle clip-path="url(#clip142)" cx="2029.52" cy="815.238" r="14.4" fill="#e69f00" fill-rule="evenodd" fill-opacity="1" stroke="#000000" stroke-opacity="1" stroke-width="3.2"/>
<circle clip-path="url(#clip142)" cx="1772.95" cy="531.65" r="14.4" fill="#e69f00" fill-rule="evenodd" fill-opacity="1" stroke="#000000" stroke-opacity="1" stroke-width="3.2"/>
<circle clip-path="url(#clip142)" cx="876.727" cy="725.989" r="14.4" fill="#e69f00" fill-rule="evenodd" fill-opacity="1" stroke="#000000" stroke-opacity="1" stroke-width="3.2"/>
<circle clip-path="url(#clip142)" cx="1169.65" cy="1117.79" r="14.4" fill="#e69f00" fill-rule="evenodd" fill-opacity="1" stroke="#000000" stroke-opacity="1" stroke-width="3.2"/>
<circle clip-path="url(#clip142)" cx="1237.88" cy="1051.05" r="14.4" fill="#e69f00" fill-rule="evenodd" fill-opacity="1" stroke="#000000" stroke-opacity="1" stroke-width="3.2"/>
<circle clip-path="url(#clip142)" cx="1936.42" cy="355.612" r="14.4" fill="#e69f00" fill-rule="evenodd" fill-opacity="1" stroke="#000000" stroke-opacity="1" stroke-width="3.2"/>
<circle clip-path="url(#clip142)" cx="647.571" cy="539.9" r="14.4" fill="#e69f00" fill-rule="evenodd" fill-opacity="1" stroke="#000000" stroke-opacity="1" stroke-width="3.2"/>
<circle clip-path="url(#clip142)" cx="1807.98" cy="537.04" r="14.4" fill="#e69f00" fill-rule="evenodd" fill-opacity="1" stroke="#000000" stroke-opacity="1" stroke-width="3.2"/>
<circle clip-path="url(#clip142)" cx="1073.74" cy="985.662" r="14.4" fill="#e69f00" fill-rule="evenodd" fill-opacity="1" stroke="#000000" stroke-opacity="1" stroke-width="3.2"/>
<circle clip-path="url(#clip142)" cx="2145.07" cy="689.223" r="14.4" fill="#e69f00" fill-rule="evenodd" fill-opacity="1" stroke="#000000" stroke-opacity="1" stroke-width="3.2"/>
<circle clip-path="url(#clip142)" cx="326.913" cy="924.706" r="14.4" fill="#e69f00" fill-rule="evenodd" fill-opacity="1" stroke="#000000" stroke-opacity="1" stroke-width="3.2"/>
<circle clip-path="url(#clip142)" cx="1772.36" cy="657.568" r="14.4" fill="#e69f00" fill-rule="evenodd" fill-opacity="1" stroke="#000000" stroke-opacity="1" stroke-width="3.2"/>
<circle clip-path="url(#clip142)" cx="1403.85" cy="1027.66" r="14.4" fill="#e69f00" fill-rule="evenodd" fill-opacity="1" stroke="#000000" stroke-opacity="1" stroke-width="3.2"/>
<circle clip-path="url(#clip142)" cx="1110.98" cy="817.408" r="14.4" fill="#e69f00" fill-rule="evenodd" fill-opacity="1" stroke="#000000" stroke-opacity="1" stroke-width="3.2"/>
<circle clip-path="url(#clip142)" cx="2155.82" cy="760.931" r="14.4" fill="#e69f00" fill-rule="evenodd" fill-opacity="1" stroke="#000000" stroke-opacity="1" stroke-width="3.2"/>
<circle clip-path="url(#clip142)" cx="545.411" cy="718.843" r="14.4" fill="#e69f00" fill-rule="evenodd" fill-opacity="1" stroke="#000000" stroke-opacity="1" stroke-width="3.2"/>
<circle clip-path="url(#clip142)" cx="1407.61" cy="1061.38" r="14.4" fill="#e69f00" fill-rule="evenodd" fill-opacity="1" stroke="#000000" stroke-opacity="1" stroke-width="3.2"/>
<circle clip-path="url(#clip142)" cx="1733.9" cy="608.113" r="14.4" fill="#e69f00" fill-rule="evenodd" fill-opacity="1" stroke="#000000" stroke-opacity="1" stroke-width="3.2"/>
<circle clip-path="url(#clip142)" cx="1959.72" cy="532.648" r="14.4" fill="#e69f00" fill-rule="evenodd" fill-opacity="1" stroke="#000000" stroke-opacity="1" stroke-width="3.2"/>
<circle clip-path="url(#clip142)" cx="1398.68" cy="951.599" r="14.4" fill="#e69f00" fill-rule="evenodd" fill-opacity="1" stroke="#000000" stroke-opacity="1" stroke-width="3.2"/>
<circle clip-path="url(#clip142)" cx="1180.87" cy="1235.16" r="14.4" fill="#e69f00" fill-rule="evenodd" fill-opacity="1" stroke="#000000" stroke-opacity="1" stroke-width="3.2"/>
<circle clip-path="url(#clip142)" cx="1350.24" cy="1246.99" r="14.4" fill="#e69f00" fill-rule="evenodd" fill-opacity="1" stroke="#000000" stroke-opacity="1" stroke-width="3.2"/>
<circle clip-path="url(#clip142)" cx="369.874" cy="739.007" r="14.4" fill="#e69f00" fill-rule="evenodd" fill-opacity="1" stroke="#000000" stroke-opacity="1" stroke-width="3.2"/>
<circle clip-path="url(#clip142)" cx="321.963" cy="787.314" r="14.4" fill="#e69f00" fill-rule="evenodd" fill-opacity="1" stroke="#000000" stroke-opacity="1" stroke-width="3.2"/>
<circle clip-path="url(#clip142)" cx="991.267" cy="893.076" r="14.4" fill="#e69f00" fill-rule="evenodd" fill-opacity="1" stroke="#000000" stroke-opacity="1" stroke-width="3.2"/>
<circle clip-path="url(#clip142)" cx="608.353" cy="322.661" r="14.4" fill="#e69f00" fill-rule="evenodd" fill-opacity="1" stroke="#000000" stroke-opacity="1" stroke-width="3.2"/>
<circle clip-path="url(#clip142)" cx="1182.99" cy="978.096" r="14.4" fill="#e69f00" fill-rule="evenodd" fill-opacity="1" stroke="#000000" stroke-opacity="1" stroke-width="3.2"/>
<circle clip-path="url(#clip142)" cx="1824.96" cy="493.295" r="14.4" fill="#e69f00" fill-rule="evenodd" fill-opacity="1" stroke="#000000" stroke-opacity="1" stroke-width="3.2"/>
<circle clip-path="url(#clip142)" cx="614.633" cy="388.145" r="14.4" fill="#e69f00" fill-rule="evenodd" fill-opacity="1" stroke="#000000" stroke-opacity="1" stroke-width="3.2"/>
<circle clip-path="url(#clip142)" cx="2083.97" cy="837.629" r="14.4" fill="#e69f00" fill-rule="evenodd" fill-opacity="1" stroke="#000000" stroke-opacity="1" stroke-width="3.2"/>
<circle clip-path="url(#clip142)" cx="1171.35" cy="1068" r="14.4" fill="#e69f00" fill-rule="evenodd" fill-opacity="1" stroke="#000000" stroke-opacity="1" stroke-width="3.2"/>
<circle clip-path="url(#clip142)" cx="1226.54" cy="1038.85" r="14.4" fill="#e69f00" fill-rule="evenodd" fill-opacity="1" stroke="#000000" stroke-opacity="1" stroke-width="3.2"/>
<circle clip-path="url(#clip142)" cx="1318.73" cy="1352.84" r="14.4" fill="#e69f00" fill-rule="evenodd" fill-opacity="1" stroke="#000000" stroke-opacity="1" stroke-width="3.2"/>
<circle clip-path="url(#clip142)" cx="1782.06" cy="486.447" r="14.4" fill="#e69f00" fill-rule="evenodd" fill-opacity="1" stroke="#000000" stroke-opacity="1" stroke-width="3.2"/>
<circle clip-path="url(#clip142)" cx="1010.11" cy="920.718" r="14.4" fill="#e69f00" fill-rule="evenodd" fill-opacity="1" stroke="#000000" stroke-opacity="1" stroke-width="3.2"/>
<circle clip-path="url(#clip142)" cx="1213.66" cy="1051.23" r="14.4" fill="#e69f00" fill-rule="evenodd" fill-opacity="1" stroke="#000000" stroke-opacity="1" stroke-width="3.2"/>
<circle clip-path="url(#clip142)" cx="1490.72" cy="756.985" r="14.4" fill="#e69f00" fill-rule="evenodd" fill-opacity="1" stroke="#000000" stroke-opacity="1" stroke-width="3.2"/>
<circle clip-path="url(#clip142)" cx="1171.44" cy="1012.28" r="14.4" fill="#e69f00" fill-rule="evenodd" fill-opacity="1" stroke="#000000" stroke-opacity="1" stroke-width="3.2"/>
<circle clip-path="url(#clip142)" cx="476.312" cy="379.482" r="14.4" fill="#e69f00" fill-rule="evenodd" fill-opacity="1" stroke="#000000" stroke-opacity="1" stroke-width="3.2"/>
<circle clip-path="url(#clip142)" cx="1211.38" cy="929.024" r="14.4" fill="#e69f00" fill-rule="evenodd" fill-opacity="1" stroke="#000000" stroke-opacity="1" stroke-width="3.2"/>
<circle clip-path="url(#clip142)" cx="765.628" cy="753.632" r="14.4" fill="#e69f00" fill-rule="evenodd" fill-opacity="1" stroke="#000000" stroke-opacity="1" stroke-width="3.2"/>
<circle clip-path="url(#clip142)" cx="1594.84" cy="654.53" r="14.4" fill="#e69f00" fill-rule="evenodd" fill-opacity="1" stroke="#000000" stroke-opacity="1" stroke-width="3.2"/>
<circle clip-path="url(#clip142)" cx="1722.25" cy="713.661" r="14.4" fill="#e69f00" fill-rule="evenodd" fill-opacity="1" stroke="#000000" stroke-opacity="1" stroke-width="3.2"/>
<circle clip-path="url(#clip142)" cx="1263.86" cy="984.843" r="14.4" fill="#e69f00" fill-rule="evenodd" fill-opacity="1" stroke="#000000" stroke-opacity="1" stroke-width="3.2"/>
<circle clip-path="url(#clip142)" cx="526.637" cy="361.367" r="14.4" fill="#e69f00" fill-rule="evenodd" fill-opacity="1" stroke="#000000" stroke-opacity="1" stroke-width="3.2"/>
<circle clip-path="url(#clip142)" cx="806.116" cy="634.501" r="14.4" fill="#e69f00" fill-rule="evenodd" fill-opacity="1" stroke="#000000" stroke-opacity="1" stroke-width="3.2"/>
<circle clip-path="url(#clip142)" cx="1228.61" cy="897.872" r="14.4" fill="#e69f00" fill-rule="evenodd" fill-opacity="1" stroke="#000000" stroke-opacity="1" stroke-width="3.2"/>
<circle clip-path="url(#clip142)" cx="1431.63" cy="1202.27" r="14.4" fill="#e69f00" fill-rule="evenodd" fill-opacity="1" stroke="#000000" stroke-opacity="1" stroke-width="3.2"/>
<circle clip-path="url(#clip142)" cx="483.27" cy="643.902" r="14.4" fill="#e69f00" fill-rule="evenodd" fill-opacity="1" stroke="#000000" stroke-opacity="1" stroke-width="3.2"/>
<circle clip-path="url(#clip142)" cx="1086.7" cy="797.521" r="14.4" fill="#e69f00" fill-rule="evenodd" fill-opacity="1" stroke="#000000" stroke-opacity="1" stroke-width="3.2"/>
<circle clip-path="url(#clip142)" cx="677.925" cy="719.264" r="14.4" fill="#e69f00" fill-rule="evenodd" fill-opacity="1" stroke="#000000" stroke-opacity="1" stroke-width="3.2"/>
<circle clip-path="url(#clip142)" cx="1374.92" cy="844.552" r="14.4" fill="#e69f00" fill-rule="evenodd" fill-opacity="1" stroke="#000000" stroke-opacity="1" stroke-width="3.2"/>
<circle clip-path="url(#clip142)" cx="2024.01" cy="498.871" r="14.4" fill="#e69f00" fill-rule="evenodd" fill-opacity="1" stroke="#000000" stroke-opacity="1" stroke-width="3.2"/>
<circle clip-path="url(#clip142)" cx="888.21" cy="782.927" r="14.4" fill="#e69f00" fill-rule="evenodd" fill-opacity="1" stroke="#000000" stroke-opacity="1" stroke-width="3.2"/>
<circle clip-path="url(#clip142)" cx="1938.92" cy="494.333" r="14.4" fill="#e69f00" fill-rule="evenodd" fill-opacity="1" stroke="#000000" stroke-opacity="1" stroke-width="3.2"/>
<circle clip-path="url(#clip142)" cx="1983.81" cy="396.719" r="14.4" fill="#e69f00" fill-rule="evenodd" fill-opacity="1" stroke="#000000" stroke-opacity="1" stroke-width="3.2"/>
<circle clip-path="url(#clip142)" cx="1744.32" cy="479.88" r="14.4" fill="#e69f00" fill-rule="evenodd" fill-opacity="1" stroke="#000000" stroke-opacity="1" stroke-width="3.2"/>
<circle clip-path="url(#clip142)" cx="1724.08" cy="536.827" r="14.4" fill="#e69f00" fill-rule="evenodd" fill-opacity="1" stroke="#000000" stroke-opacity="1" stroke-width="3.2"/>
<circle clip-path="url(#clip142)" cx="1766.84" cy="324.162" r="14.4" fill="#e69f00" fill-rule="evenodd" fill-opacity="1" stroke="#000000" stroke-opacity="1" stroke-width="3.2"/>
<circle clip-path="url(#clip142)" cx="1400.45" cy="924.945" r="14.4" fill="#e69f00" fill-rule="evenodd" fill-opacity="1" stroke="#000000" stroke-opacity="1" stroke-width="3.2"/>
<circle clip-path="url(#clip142)" cx="1919.87" cy="180.848" r="14.4" fill="#e69f00" fill-rule="evenodd" fill-opacity="1" stroke="#000000" stroke-opacity="1" stroke-width="3.2"/>
<circle clip-path="url(#clip142)" cx="1115.14" cy="844.273" r="14.4" fill="#e69f00" fill-rule="evenodd" fill-opacity="1" stroke="#000000" stroke-opacity="1" stroke-width="3.2"/>
<circle clip-path="url(#clip142)" cx="2137.74" cy="974.433" r="14.4" fill="#e69f00" fill-rule="evenodd" fill-opacity="1" stroke="#000000" stroke-opacity="1" stroke-width="3.2"/>
<circle clip-path="url(#clip142)" cx="967.895" cy="941.856" r="14.4" fill="#e69f00" fill-rule="evenodd" fill-opacity="1" stroke="#000000" stroke-opacity="1" stroke-width="3.2"/>
<circle clip-path="url(#clip142)" cx="1868.24" cy="494.454" r="14.4" fill="#e69f00" fill-rule="evenodd" fill-opacity="1" stroke="#000000" stroke-opacity="1" stroke-width="3.2"/>
<circle clip-path="url(#clip142)" cx="1115.58" cy="1061.44" r="14.4" fill="#e69f00" fill-rule="evenodd" fill-opacity="1" stroke="#000000" stroke-opacity="1" stroke-width="3.2"/>
<circle clip-path="url(#clip142)" cx="1164.92" cy="966.74" r="14.4" fill="#e69f00" fill-rule="evenodd" fill-opacity="1" stroke="#000000" stroke-opacity="1" stroke-width="3.2"/>
<circle clip-path="url(#clip142)" cx="1938.86" cy="686.286" r="14.4" fill="#e69f00" fill-rule="evenodd" fill-opacity="1" stroke="#000000" stroke-opacity="1" stroke-width="3.2"/>
<circle clip-path="url(#clip142)" cx="1887.15" cy="672.855" r="14.4" fill="#e69f00" fill-rule="evenodd" fill-opacity="1" stroke="#000000" stroke-opacity="1" stroke-width="3.2"/>
<circle clip-path="url(#clip142)" cx="1752.29" cy="580.2" r="14.4" fill="#e69f00" fill-rule="evenodd" fill-opacity="1" stroke="#000000" stroke-opacity="1" stroke-width="3.2"/>
<circle clip-path="url(#clip142)" cx="1142.51" cy="1142.49" r="14.4" fill="#e69f00" fill-rule="evenodd" fill-opacity="1" stroke="#000000" stroke-opacity="1" stroke-width="3.2"/>
<circle clip-path="url(#clip142)" cx="1420.1" cy="934.144" r="14.4" fill="#e69f00" fill-rule="evenodd" fill-opacity="1" stroke="#000000" stroke-opacity="1" stroke-width="3.2"/>
<circle clip-path="url(#clip142)" cx="723.513" cy="496.999" r="14.4" fill="#e69f00" fill-rule="evenodd" fill-opacity="1" stroke="#000000" stroke-opacity="1" stroke-width="3.2"/>
<circle clip-path="url(#clip142)" cx="1008.47" cy="534.502" r="14.4" fill="#e69f00" fill-rule="evenodd" fill-opacity="1" stroke="#000000" stroke-opacity="1" stroke-width="3.2"/>
<circle clip-path="url(#clip142)" cx="579.241" cy="386.374" r="14.4" fill="#e69f00" fill-rule="evenodd" fill-opacity="1" stroke="#000000" stroke-opacity="1" stroke-width="3.2"/>
<circle clip-path="url(#clip142)" cx="371.955" cy="877.787" r="14.4" fill="#e69f00" fill-rule="evenodd" fill-opacity="1" stroke="#000000" stroke-opacity="1" stroke-width="3.2"/>
<circle clip-path="url(#clip142)" cx="2189.56" cy="1087.79" r="14.4" fill="#e69f00" fill-rule="evenodd" fill-opacity="1" stroke="#000000" stroke-opacity="1" stroke-width="3.2"/>
<circle clip-path="url(#clip142)" cx="1876.3" cy="505.918" r="14.4" fill="#e69f00" fill-rule="evenodd" fill-opacity="1" stroke="#000000" stroke-opacity="1" stroke-width="3.2"/>
<circle clip-path="url(#clip142)" cx="1942.67" cy="631.015" r="14.4" fill="#e69f00" fill-rule="evenodd" fill-opacity="1" stroke="#000000" stroke-opacity="1" stroke-width="3.2"/>
<circle clip-path="url(#clip142)" cx="316.492" cy="657.525" r="14.4" fill="#e69f00" fill-rule="evenodd" fill-opacity="1" stroke="#000000" stroke-opacity="1" stroke-width="3.2"/>
<circle clip-path="url(#clip142)" cx="1934.21" cy="465.215" r="14.4" fill="#e69f00" fill-rule="evenodd" fill-opacity="1" stroke="#000000" stroke-opacity="1" stroke-width="3.2"/>
<path clip-path="url(#clip142)" d="
M147.478 1102 L192.484 1102 L237.489 1102 L282.495 1102 L327.501 1097.26 L372.506 1060.21 L417.512 1014.5 L462.518 953.67 L507.523 924.835 L552.529 900.623 
  L597.535 913.762 L642.54 918.956 L687.546 924.39 L732.552 922.54 L777.557 924.892 L822.563 947.974 L867.569 997.329 L912.574 1084.81 L957.58 1085.39 L1002.59 1103.01 
  L1047.59 1130.47 L1092.6 1160.83 L1137.6 1164.73 L1182.61 1176.47 L1227.61 1199.58 L1272.62 1196.5 L1317.63 1193.31 L1362.63 1193.31 L1407.64 1193.31 L1452.64 1178.2 
  L1497.65 1096.83 L1542.65 1051.38 L1587.66 1030.45 L1632.67 1026.63 L1677.67 956.364 L1722.68 950.28 L1767.68 934.863 L1812.69 913.332 L1857.69 913.332 L1902.7 917.591 
  L1947.7 917.591 L1992.71 917.591 L2037.72 954.412 L2082.72 1006.8 L2127.73 1047.9 L2172.73 1044.37 L2217.74 1044.37 L2262.74 1044.37 L2307.75 1044.37 L2352.76 1044.37 
  L2352.76 464.446 L2307.75 464.446 L2262.74 464.446 L2217.74 464.446 L2172.73 464.446 L2127.73 466.63 L2082.72 415.612 L2037.72 358.831 L1992.71 324.042 L1947.7 324.042 
  L1902.7 324.042 L1857.69 324.042 L1812.69 337.505 L1767.68 348.665 L1722.68 364.474 L1677.67 364.474 L1632.67 435.658 L1587.66 435.658 L1542.65 459.017 L1497.65 483.426 
  L1452.64 582.295 L1407.64 608.506 L1362.63 608.506 L1317.63 608.506 L1272.62 608.506 L1227.61 608.756 L1182.61 598.832 L1137.6 578.863 L1092.6 570.453 L1047.59 535.217 
  L1002.59 518.282 L957.58 499.891 L912.574 488.821 L867.569 401.485 L822.563 362.74 L777.557 341.686 L732.552 341.075 L687.546 350.514 L642.54 334.185 L597.535 334.095 
  L552.529 325.192 L507.523 330.866 L462.518 371.893 L417.512 404.608 L372.506 481.892 L327.501 532.443 L282.495 532.443 L237.489 532.443 L192.484 532.443 L147.478 532.443 
   Z
  " fill="#56b4e9" fill-rule="evenodd" fill-opacity="0.5"/>
<polyline clip-path="url(#clip142)" style="stroke:#56b4e9; stroke-linecap:round; stroke-linejoin:round; stroke-width:16; stroke-opacity:1; fill:none" points="
  147.478,817.219 192.484,817.219 237.489,817.219 282.495,817.219 327.501,814.851 372.506,771.051 417.512,709.555 462.518,662.781 507.523,627.851 552.529,612.908 
  597.535,623.928 642.54,626.571 687.546,637.452 732.552,631.808 777.557,633.289 822.563,655.357 867.569,699.407 912.574,786.814 957.58,792.64 1002.59,810.644 
  1047.59,832.846 1092.6,865.64 1137.6,871.798 1182.61,887.652 1227.61,904.168 1272.62,902.504 1317.63,900.907 1362.63,900.907 1407.64,900.907 1452.64,880.245 
  1497.65,790.128 1542.65,755.201 1587.66,733.055 1632.67,731.146 1677.67,660.419 1722.68,657.377 1767.68,641.764 1812.69,625.419 1857.69,618.687 1902.7,620.816 
  1947.7,620.816 1992.71,620.816 2037.72,656.622 2082.72,711.207 2127.73,757.264 2172.73,754.409 2217.74,754.409 2262.74,754.409 2307.75,754.409 2352.76,754.409 
  
  "/>
<polyline clip-path="url(#clip142)" style="stroke:#000000; stroke-linecap:round; stroke-linejoin:round; stroke-width:4; stroke-opacity:1; fill:none" stroke-dasharray="16, 10" points="
  144.66,1336.9 148.353,1325.58 152.045,1314.29 155.738,1303.02 159.431,1291.79 163.123,1280.58 166.816,1269.41 170.509,1258.27 174.201,1247.17 177.894,1236.1 
  181.587,1225.08 185.279,1214.09 188.972,1203.15 192.665,1192.26 196.357,1181.41 200.05,1170.61 203.742,1159.85 207.435,1149.15 211.128,1138.51 214.82,1127.91 
  218.513,1117.38 222.206,1106.9 225.898,1096.48 229.591,1086.12 233.284,1075.82 236.976,1065.59 240.669,1055.42 244.362,1045.31 248.054,1035.28 251.747,1025.31 
  255.439,1015.42 259.132,1005.6 262.825,995.848 266.517,986.174 270.21,976.576 273.903,967.055 277.595,957.613 281.288,948.251 284.981,938.969 288.673,929.77 
  292.366,920.655 296.059,911.624 299.751,902.678 303.444,893.82 307.136,885.049 310.829,876.368 314.522,867.776 318.214,859.276 321.907,850.868 325.6,842.553 
  329.292,834.331 332.985,826.205 336.678,818.175 340.37,810.241 344.063,802.405 347.756,794.667 351.448,787.029 355.141,779.491 358.833,772.054 362.526,764.718 
  366.219,757.485 369.911,750.355 373.604,743.328 377.297,736.406 380.989,729.589 384.682,722.878 388.375,716.273 392.067,709.774 395.76,703.383 399.453,697.1 
  403.145,690.925 406.838,684.859 410.531,678.903 414.223,673.056 417.916,667.319 421.608,661.692 425.301,656.177 428.994,650.772 432.686,645.479 436.379,640.298 
  440.072,635.228 443.764,630.271 447.457,625.426 451.15,620.694 454.842,616.075 458.535,611.569 462.228,607.175 465.92,602.895 469.613,598.727 473.305,594.674 
  476.998,590.733 480.691,586.905 484.383,583.191 488.076,579.59 491.769,576.102 495.461,572.727 499.154,569.464 502.847,566.315 506.539,563.278 510.232,560.353 
  513.925,557.541 517.617,554.841 521.31,552.252 525.002,549.774 528.695,547.408 532.388,545.153 536.08,543.008 539.773,540.973 543.466,539.048 547.158,537.232 
  550.851,535.525 554.544,533.926 558.236,532.436 561.929,531.053 565.622,529.777 569.314,528.607 573.007,527.543 576.699,526.585 580.392,525.731 584.085,524.982 
  587.777,524.336 591.47,523.793 595.163,523.352 598.855,523.012 602.548,522.774 606.241,522.635 609.933,522.596 613.626,522.655 617.319,522.813 621.011,523.067 
  624.704,523.417 628.396,523.863 632.089,524.403 635.782,525.037 639.474,525.764 643.167,526.583 646.86,527.493 650.552,528.493 654.245,529.581 657.938,530.759 
  661.63,532.023 665.323,533.373 669.016,534.809 672.708,536.329 676.401,537.932 680.093,539.617 683.786,541.383 687.479,543.229 691.171,545.154 694.864,547.157 
  698.557,549.237 702.249,551.392 705.942,553.621 709.635,555.924 713.327,558.299 717.02,560.745 720.713,563.261 724.405,565.845 728.098,568.497 731.79,571.214 
  735.483,573.997 739.176,576.844 742.868,579.753 746.561,582.723 750.254,585.753 753.946,588.842 757.639,591.988 761.332,595.19 765.024,598.448 768.717,601.759 
  772.41,605.122 776.102,608.536 779.795,611.999 783.488,615.511 787.18,619.07 790.873,622.675 794.565,626.324 798.258,630.016 801.951,633.749 805.643,637.523 
  809.336,641.335 813.029,645.185 816.721,649.072 820.414,652.993 824.107,656.947 827.799,660.934 831.492,664.951 835.185,668.998 838.877,673.072 842.57,677.173 
  846.262,681.299 849.955,685.449 853.648,689.621 857.34,693.815 861.033,698.028 864.726,702.259 868.418,706.507 872.111,710.771 875.804,715.048 879.496,719.339 
  883.189,723.641 886.882,727.952 890.574,732.273 894.267,736.6 897.959,740.934 901.652,745.272 905.345,749.613 909.037,753.956 912.73,758.3 916.423,762.643 
  920.115,766.983 923.808,771.32 927.501,775.652 931.193,779.978 934.886,784.296 938.579,788.606 942.271,792.905 945.964,797.193 949.656,801.468 953.349,805.73 
  957.042,809.976 960.734,814.205 964.427,818.417 968.12,822.61 971.812,826.782 975.505,830.933 979.198,835.061 982.89,839.165 986.583,843.244 990.276,847.297 
  993.968,851.322 997.661,855.319 1001.35,859.285 1005.05,863.221 1008.74,867.125 1012.43,870.995 1016.12,874.831 1019.82,878.631 1023.51,882.395 1027.2,886.121 
  1030.89,889.808 1034.59,893.456 1038.28,897.063 1041.97,900.627 1045.67,904.15 1049.36,907.628 1053.05,911.061 1056.74,914.449 1060.44,917.789 1064.13,921.082 
  1067.82,924.327 1071.51,927.521 1075.21,930.666 1078.9,933.759 1082.59,936.799 1086.28,939.787 1089.98,942.721 1093.67,945.6 1097.36,948.424 1101.05,951.191 
  1104.75,953.901 1108.44,956.553 1112.13,959.147 1115.83,961.681 1119.52,964.156 1123.21,966.569 1126.9,968.922 1130.6,971.212 1134.29,973.44 1137.98,975.604 
  1141.67,977.705 1145.37,979.741 1149.06,981.712 1152.75,983.618 1156.44,985.457 1160.14,987.23 1163.83,988.936 1167.52,990.575 1171.22,992.145 1174.91,993.647 
  1178.6,995.08 1182.29,996.444 1185.99,997.739 1189.68,998.963 1193.37,1000.12 1197.06,1001.2 1200.76,1002.21 1204.45,1003.15 1208.14,1004.02 1211.83,1004.82 
  1215.53,1005.55 1219.22,1006.2 1222.91,1006.79 1226.6,1007.3 1230.3,1007.73 1233.99,1008.1 1237.68,1008.39 1241.38,1008.61 1245.07,1008.75 1248.76,1008.83 
  1252.45,1008.83 1256.15,1008.75 1259.84,1008.61 1263.53,1008.39 1267.22,1008.1 1270.92,1007.73 1274.61,1007.3 1278.3,1006.79 1281.99,1006.2 1285.69,1005.55 
  1289.38,1004.82 1293.07,1004.02 1296.76,1003.15 1300.46,1002.21 1304.15,1001.2 1307.84,1000.12 1311.54,998.963 1315.23,997.739 1318.92,996.444 1322.61,995.08 
  1326.31,993.647 1330,992.145 1333.69,990.575 1337.38,988.936 1341.08,987.23 1344.77,985.457 1348.46,983.618 1352.15,981.712 1355.85,979.741 1359.54,977.705 
  1363.23,975.604 1366.93,973.44 1370.62,971.212 1374.31,968.922 1378,966.569 1381.7,964.156 1385.39,961.681 1389.08,959.147 1392.77,956.553 1396.47,953.901 
  1400.16,951.191 1403.85,948.424 1407.54,945.6 1411.24,942.721 1414.93,939.787 1418.62,936.799 1422.31,933.759 1426.01,930.666 1429.7,927.521 1433.39,924.327 
  1437.09,921.082 1440.78,917.789 1444.47,914.449 1448.16,911.061 1451.86,907.628 1455.55,904.15 1459.24,900.627 1462.93,897.063 1466.63,893.456 1470.32,889.808 
  1474.01,886.121 1477.7,882.395 1481.4,878.631 1485.09,874.831 1488.78,870.995 1492.48,867.125 1496.17,863.221 1499.86,859.285 1503.55,855.319 1507.25,851.322 
  1510.94,847.297 1514.63,843.244 1518.32,839.165 1522.02,835.061 1525.71,830.933 1529.4,826.782 1533.09,822.61 1536.79,818.417 1540.48,814.205 1544.17,809.976 
  1547.86,805.73 1551.56,801.468 1555.25,797.193 1558.94,792.905 1562.64,788.606 1566.33,784.296 1570.02,779.978 1573.71,775.652 1577.41,771.32 1581.1,766.983 
  1584.79,762.643 1588.48,758.3 1592.18,753.956 1595.87,749.613 1599.56,745.272 1603.25,740.934 1606.95,736.6 1610.64,732.273 1614.33,727.952 1618.02,723.641 
  1621.72,719.339 1625.41,715.048 1629.1,710.771 1632.8,706.507 1636.49,702.259 1640.18,698.028 1643.87,693.815 1647.57,689.621 1651.26,685.449 1654.95,681.299 
  1658.64,677.173 1662.34,673.072 1666.03,668.998 1669.72,664.951 1673.41,660.934 1677.11,656.947 1680.8,652.993 1684.49,649.072 1688.19,645.185 1691.88,641.335 
  1695.57,637.523 1699.26,633.749 1702.96,630.016 1706.65,626.324 1710.34,622.675 1714.03,619.07 1717.73,615.511 1721.42,611.999 1725.11,608.536 1728.8,605.122 
  1732.5,601.759 1736.19,598.448 1739.88,595.19 1743.57,591.988 1747.27,588.842 1750.96,585.753 1754.65,582.723 1758.35,579.753 1762.04,576.844 1765.73,573.997 
  1769.42,571.214 1773.12,568.497 1776.81,565.845 1780.5,563.261 1784.19,560.745 1787.89,558.299 1791.58,555.924 1795.27,553.621 1798.96,551.392 1802.66,549.237 
  1806.35,547.157 1810.04,545.154 1813.74,543.229 1817.43,541.383 1821.12,539.617 1824.81,537.932 1828.51,536.329 1832.2,534.809 1835.89,533.373 1839.58,532.023 
  1843.28,530.759 1846.97,529.581 1850.66,528.493 1854.35,527.493 1858.05,526.583 1861.74,525.764 1865.43,525.037 1869.12,524.403 1872.82,523.863 1876.51,523.417 
  1880.2,523.067 1883.9,522.813 1887.59,522.655 1891.28,522.596 1894.97,522.635 1898.67,522.774 1902.36,523.012 1906.05,523.352 1909.74,523.793 1913.44,524.336 
  1917.13,524.982 1920.82,525.731 1924.51,526.585 1928.21,527.543 1931.9,528.607 1935.59,529.777 1939.28,531.053 1942.98,532.436 1946.67,533.926 1950.36,535.525 
  1954.06,537.232 1957.75,539.048 1961.44,540.973 1965.13,543.008 1968.83,545.153 1972.52,547.408 1976.21,549.774 1979.9,552.252 1983.6,554.841 1987.29,557.541 
  1990.98,560.353 1994.67,563.278 1998.37,566.315 2002.06,569.464 2005.75,572.727 2009.45,576.102 2013.14,579.59 2016.83,583.191 2020.52,586.905 2024.22,590.733 
  2027.91,594.674 2031.6,598.727 2035.29,602.895 2038.99,607.175 2042.68,611.569 2046.37,616.075 2050.06,620.694 2053.76,625.426 2057.45,630.271 2061.14,635.228 
  2064.83,640.298 2068.53,645.479 2072.22,650.772 2075.91,656.177 2079.61,661.692 2083.3,667.319 2086.99,673.056 2090.68,678.903 2094.38,684.859 2098.07,690.925 
  2101.76,697.1 2105.45,703.383 2109.15,709.774 2112.84,716.273 2116.53,722.878 2120.22,729.589 2123.92,736.406 2127.61,743.328 2131.3,750.355 2135,757.485 
  2138.69,764.718 2142.38,772.054 2146.07,779.491 2149.77,787.029 2153.46,794.667 2157.15,802.405 2160.84,810.241 2164.54,818.175 2168.23,826.205 2171.92,834.331 
  2175.61,842.553 2179.31,850.868 2183,859.276 2186.69,867.776 2190.38,876.368 2194.08,885.049 2197.77,893.82 2201.46,902.678 2205.16,911.624 2208.85,920.655 
  2212.54,929.77 2216.23,938.969 2219.93,948.251 2223.62,957.613 2227.31,967.055 2231,976.576 2234.7,986.174 2238.39,995.848 2242.08,1005.6 2245.77,1015.42 
  2249.47,1025.31 2253.16,1035.28 2256.85,1045.31 2260.54,1055.42 2264.24,1065.59 2267.93,1075.82 2271.62,1086.12 2275.32,1096.48 2279.01,1106.9 2282.7,1117.38 
  2286.39,1127.91 2290.09,1138.51 2293.78,1149.15 2297.47,1159.85 2301.16,1170.61 2304.86,1181.41 2308.55,1192.26 2312.24,1203.15 2315.93,1214.09 2319.63,1225.08 
  2323.32,1236.1 2327.01,1247.17 2330.71,1258.27 2334.4,1269.41 2338.09,1280.58 2341.78,1291.79 2345.48,1303.02 2349.17,1314.29 2352.86,1325.58 2356.55,1336.9 
  
  "/>
<path clip-path="url(#clip140)" d="
M220.987 302.578 L741.027 302.578 L741.027 95.2176 L220.987 95.2176  Z
  " fill="#ffffff" fill-rule="evenodd" fill-opacity="1"/>
<polyline clip-path="url(#clip140)" style="stroke:#000000; stroke-linecap:round; stroke-linejoin:round; stroke-width:4; stroke-opacity:1; fill:none" points="
  220.987,302.578 741.027,302.578 741.027,95.2176 220.987,95.2176 220.987,302.578 
  "/>
<circle clip-path="url(#clip140)" cx="319" cy="147.058" r="23.04" fill="#e69f00" fill-rule="evenodd" fill-opacity="1" stroke="#000000" stroke-opacity="1" stroke-width="5.12"/>
<path clip-path="url(#clip140)" d="M417.012 129.778 L446.248 129.778 L446.248 133.713 L433.979 133.713 L433.979 164.338 L429.28 164.338 L429.28 133.713 L417.012 133.713 L417.012 129.778 Z" fill="#000000" fill-rule="evenodd" fill-opacity="1" /><path clip-path="url(#clip140)" d="M464.697 150.31 L464.697 152.393 L445.114 152.393 Q445.391 156.791 447.752 159.106 Q450.137 161.398 454.373 161.398 Q456.826 161.398 459.118 160.796 Q461.433 160.194 463.701 158.99 L463.701 163.018 Q461.41 163.99 459.002 164.5 Q456.595 165.009 454.118 165.009 Q447.915 165.009 444.28 161.398 Q440.669 157.787 440.669 151.629 Q440.669 145.264 444.095 141.537 Q447.544 137.787 453.377 137.787 Q458.609 137.787 461.641 141.166 Q464.697 144.523 464.697 150.31 M460.438 149.06 Q460.391 145.565 458.47 143.481 Q456.572 141.398 453.424 141.398 Q449.859 141.398 447.706 143.412 Q445.577 145.426 445.252 149.083 L460.438 149.06 Z" fill="#000000" fill-rule="evenodd" fill-opacity="1" /><path clip-path="url(#clip140)" d="M488.215 139.176 L488.215 143.203 Q486.41 142.277 484.465 141.815 Q482.521 141.352 480.437 141.352 Q477.266 141.352 475.669 142.324 Q474.095 143.296 474.095 145.24 Q474.095 146.722 475.229 147.578 Q476.363 148.412 479.789 149.176 L481.248 149.5 Q485.785 150.472 487.683 152.254 Q489.604 154.014 489.604 157.185 Q489.604 160.796 486.734 162.902 Q483.887 165.009 478.887 165.009 Q476.803 165.009 474.535 164.592 Q472.289 164.199 469.789 163.388 L469.789 158.99 Q472.15 160.217 474.442 160.842 Q476.734 161.444 478.979 161.444 Q481.988 161.444 483.609 160.426 Q485.229 159.384 485.229 157.509 Q485.229 155.773 484.049 154.847 Q482.891 153.921 478.933 153.064 L477.451 152.717 Q473.493 151.884 471.734 150.171 Q469.975 148.435 469.975 145.426 Q469.975 141.768 472.567 139.778 Q475.16 137.787 479.928 137.787 Q482.289 137.787 484.373 138.134 Q486.456 138.481 488.215 139.176 Z" fill="#000000" fill-rule="evenodd" fill-opacity="1" /><path clip-path="url(#clip140)" d="M500.599 131.051 L500.599 138.412 L509.373 138.412 L509.373 141.722 L500.599 141.722 L500.599 155.796 Q500.599 158.967 501.456 159.87 Q502.336 160.773 504.998 160.773 L509.373 160.773 L509.373 164.338 L504.998 164.338 Q500.067 164.338 498.192 162.509 Q496.317 160.657 496.317 155.796 L496.317 141.722 L493.192 141.722 L493.192 138.412 L496.317 138.412 L496.317 131.051 L500.599 131.051 Z" fill="#000000" fill-rule="evenodd" fill-opacity="1" /><path clip-path="url(#clip140)" d="M534.164 160.449 L534.164 174.199 L529.882 174.199 L529.882 138.412 L534.164 138.412 L534.164 142.347 Q535.507 140.032 537.544 138.921 Q539.604 137.787 542.451 137.787 Q547.173 137.787 550.113 141.537 Q553.076 145.287 553.076 151.398 Q553.076 157.509 550.113 161.259 Q547.173 165.009 542.451 165.009 Q539.604 165.009 537.544 163.898 Q535.507 162.763 534.164 160.449 M548.655 151.398 Q548.655 146.699 546.71 144.037 Q544.789 141.352 541.409 141.352 Q538.03 141.352 536.085 144.037 Q534.164 146.699 534.164 151.398 Q534.164 156.097 536.085 158.782 Q538.03 161.444 541.409 161.444 Q544.789 161.444 546.71 158.782 Q548.655 156.097 548.655 151.398 Z" fill="#000000" fill-rule="evenodd" fill-opacity="1" /><path clip-path="url(#clip140)" d="M570.182 141.398 Q566.756 141.398 564.766 144.083 Q562.775 146.745 562.775 151.398 Q562.775 156.051 564.743 158.736 Q566.733 161.398 570.182 161.398 Q573.585 161.398 575.576 158.713 Q577.567 156.027 577.567 151.398 Q577.567 146.791 575.576 144.106 Q573.585 141.398 570.182 141.398 M570.182 137.787 Q575.738 137.787 578.909 141.398 Q582.08 145.009 582.08 151.398 Q582.08 157.764 578.909 161.398 Q575.738 165.009 570.182 165.009 Q564.604 165.009 561.432 161.398 Q558.284 157.764 558.284 151.398 Q558.284 145.009 561.432 141.398 Q564.604 137.787 570.182 137.787 Z" fill="#000000" fill-rule="evenodd" fill-opacity="1" /><path clip-path="url(#clip140)" d="M589.141 138.412 L593.4 138.412 L593.4 164.338 L589.141 164.338 L589.141 138.412 M589.141 128.319 L593.4 128.319 L593.4 133.713 L589.141 133.713 L589.141 128.319 Z" fill="#000000" fill-rule="evenodd" fill-opacity="1" /><path clip-path="url(#clip140)" d="M623.863 148.689 L623.863 164.338 L619.603 164.338 L619.603 148.828 Q619.603 145.148 618.168 143.319 Q616.733 141.49 613.863 141.49 Q610.414 141.49 608.423 143.69 Q606.432 145.889 606.432 149.685 L606.432 164.338 L602.15 164.338 L602.15 138.412 L606.432 138.412 L606.432 142.44 Q607.96 140.102 610.02 138.944 Q612.103 137.787 614.812 137.787 Q619.279 137.787 621.571 140.565 Q623.863 143.319 623.863 148.689 Z" fill="#000000" fill-rule="evenodd" fill-opacity="1" /><path clip-path="url(#clip140)" d="M636.571 131.051 L636.571 138.412 L645.344 138.412 L645.344 141.722 L636.571 141.722 L636.571 155.796 Q636.571 158.967 637.427 159.87 Q638.307 160.773 640.969 160.773 L645.344 160.773 L645.344 164.338 L640.969 164.338 Q636.038 164.338 634.164 162.509 Q632.289 160.657 632.289 155.796 L632.289 141.722 L629.164 141.722 L629.164 138.412 L632.289 138.412 L632.289 131.051 L636.571 131.051 Z" fill="#000000" fill-rule="evenodd" fill-opacity="1" /><path clip-path="url(#clip140)" d="M667.474 139.176 L667.474 143.203 Q665.668 142.277 663.724 141.815 Q661.779 141.352 659.696 141.352 Q656.524 141.352 654.927 142.324 Q653.353 143.296 653.353 145.24 Q653.353 146.722 654.487 147.578 Q655.622 148.412 659.048 149.176 L660.506 149.5 Q665.043 150.472 666.941 152.254 Q668.862 154.014 668.862 157.185 Q668.862 160.796 665.992 162.902 Q663.145 165.009 658.145 165.009 Q656.062 165.009 653.793 164.592 Q651.548 164.199 649.048 163.388 L649.048 158.99 Q651.409 160.217 653.7 160.842 Q655.992 161.444 658.237 161.444 Q661.247 161.444 662.867 160.426 Q664.487 159.384 664.487 157.509 Q664.487 155.773 663.307 154.847 Q662.149 153.921 658.191 153.064 L656.71 152.717 Q652.751 151.884 650.992 150.171 Q649.233 148.435 649.233 145.426 Q649.233 141.768 651.825 139.778 Q654.418 137.787 659.187 137.787 Q661.548 137.787 663.631 138.134 Q665.714 138.481 667.474 139.176 Z" fill="#000000" fill-rule="evenodd" fill-opacity="1" /><polyline clip-path="url(#clip140)" style="stroke:#56b4e9; stroke-linecap:round; stroke-linejoin:round; stroke-width:16; stroke-opacity:1; fill:none" points="
  245.49,198.898 392.509,198.898 
  "/>
<path clip-path="url(#clip140)" d="M421.688 185.46 L421.688 198.446 L427.567 198.446 Q430.831 198.446 432.614 196.756 Q434.396 195.067 434.396 191.942 Q434.396 188.84 432.614 187.15 Q430.831 185.46 427.567 185.46 L421.688 185.46 M417.012 181.618 L427.567 181.618 Q433.378 181.618 436.34 184.256 Q439.327 186.872 439.327 191.942 Q439.327 197.057 436.34 199.673 Q433.378 202.289 427.567 202.289 L421.688 202.289 L421.688 216.178 L417.012 216.178 L417.012 181.618 Z" fill="#000000" fill-rule="evenodd" fill-opacity="1" /><path clip-path="url(#clip140)" d="M459.604 194.233 Q458.887 193.817 458.03 193.631 Q457.197 193.423 456.178 193.423 Q452.567 193.423 450.623 195.784 Q448.702 198.122 448.702 202.52 L448.702 216.178 L444.419 216.178 L444.419 190.252 L448.702 190.252 L448.702 194.28 Q450.044 191.918 452.197 190.784 Q454.35 189.627 457.428 189.627 Q457.868 189.627 458.401 189.696 Q458.933 189.743 459.581 189.858 L459.604 194.233 Z" fill="#000000" fill-rule="evenodd" fill-opacity="1" /><path clip-path="url(#clip140)" d="M485.206 202.15 L485.206 204.233 L465.623 204.233 Q465.901 208.631 468.262 210.946 Q470.646 213.238 474.882 213.238 Q477.336 213.238 479.627 212.636 Q481.942 212.034 484.211 210.83 L484.211 214.858 Q481.919 215.83 479.512 216.34 Q477.104 216.849 474.627 216.849 Q468.424 216.849 464.789 213.238 Q461.178 209.627 461.178 203.469 Q461.178 197.104 464.604 193.377 Q468.053 189.627 473.887 189.627 Q479.118 189.627 482.15 193.006 Q485.206 196.363 485.206 202.15 M480.947 200.9 Q480.9 197.405 478.979 195.321 Q477.081 193.238 473.933 193.238 Q470.368 193.238 468.215 195.252 Q466.086 197.266 465.762 200.923 L480.947 200.9 Z" fill="#000000" fill-rule="evenodd" fill-opacity="1" /><path clip-path="url(#clip140)" d="M509.257 194.187 L509.257 180.159 L513.516 180.159 L513.516 216.178 L509.257 216.178 L509.257 212.289 Q507.914 214.603 505.854 215.738 Q503.817 216.849 500.947 216.849 Q496.248 216.849 493.285 213.099 Q490.345 209.349 490.345 203.238 Q490.345 197.127 493.285 193.377 Q496.248 189.627 500.947 189.627 Q503.817 189.627 505.854 190.761 Q507.914 191.872 509.257 194.187 M494.743 203.238 Q494.743 207.937 496.664 210.622 Q498.609 213.284 501.988 213.284 Q505.368 213.284 507.312 210.622 Q509.257 207.937 509.257 203.238 Q509.257 198.539 507.312 195.877 Q505.368 193.192 501.988 193.192 Q498.609 193.192 496.664 195.877 Q494.743 198.539 494.743 203.238 Z" fill="#000000" fill-rule="evenodd" fill-opacity="1" /><path clip-path="url(#clip140)" d="M522.289 190.252 L526.548 190.252 L526.548 216.178 L522.289 216.178 L522.289 190.252 M522.289 180.159 L526.548 180.159 L526.548 185.553 L522.289 185.553 L522.289 180.159 Z" fill="#000000" fill-rule="evenodd" fill-opacity="1" /><path clip-path="url(#clip140)" d="M554.118 191.247 L554.118 195.229 Q552.312 194.233 550.483 193.747 Q548.678 193.238 546.826 193.238 Q542.683 193.238 540.391 195.877 Q538.099 198.492 538.099 203.238 Q538.099 207.983 540.391 210.622 Q542.683 213.238 546.826 213.238 Q548.678 213.238 550.483 212.752 Q552.312 212.242 554.118 211.247 L554.118 215.182 Q552.335 216.016 550.414 216.432 Q548.516 216.849 546.363 216.849 Q540.507 216.849 537.058 213.168 Q533.608 209.488 533.608 203.238 Q533.608 196.895 537.081 193.261 Q540.576 189.627 546.641 189.627 Q548.608 189.627 550.483 190.043 Q552.358 190.437 554.118 191.247 Z" fill="#000000" fill-rule="evenodd" fill-opacity="1" /><path clip-path="url(#clip140)" d="M565.738 182.891 L565.738 190.252 L574.511 190.252 L574.511 193.562 L565.738 193.562 L565.738 207.636 Q565.738 210.807 566.594 211.71 Q567.474 212.613 570.136 212.613 L574.511 212.613 L574.511 216.178 L570.136 216.178 Q565.206 216.178 563.331 214.349 Q561.456 212.497 561.456 207.636 L561.456 193.562 L558.331 193.562 L558.331 190.252 L561.456 190.252 L561.456 182.891 L565.738 182.891 Z" fill="#000000" fill-rule="evenodd" fill-opacity="1" /><path clip-path="url(#clip140)" d="M602.289 202.15 L602.289 204.233 L582.705 204.233 Q582.983 208.631 585.344 210.946 Q587.729 213.238 591.965 213.238 Q594.418 213.238 596.71 212.636 Q599.025 212.034 601.293 210.83 L601.293 214.858 Q599.002 215.83 596.594 216.34 Q594.187 216.849 591.71 216.849 Q585.506 216.849 581.872 213.238 Q578.261 209.627 578.261 203.469 Q578.261 197.104 581.687 193.377 Q585.136 189.627 590.969 189.627 Q596.201 189.627 599.233 193.006 Q602.289 196.363 602.289 202.15 M598.029 200.9 Q597.983 197.405 596.062 195.321 Q594.164 193.238 591.016 193.238 Q587.451 193.238 585.298 195.252 Q583.168 197.266 582.844 200.923 L598.029 200.9 Z" fill="#000000" fill-rule="evenodd" fill-opacity="1" /><path clip-path="url(#clip140)" d="M626.339 194.187 L626.339 180.159 L630.599 180.159 L630.599 216.178 L626.339 216.178 L626.339 212.289 Q624.997 214.603 622.937 215.738 Q620.9 216.849 618.029 216.849 Q613.33 216.849 610.367 213.099 Q607.428 209.349 607.428 203.238 Q607.428 197.127 610.367 193.377 Q613.33 189.627 618.029 189.627 Q620.9 189.627 622.937 190.761 Q624.997 191.872 626.339 194.187 M611.826 203.238 Q611.826 207.937 613.747 210.622 Q615.691 213.284 619.071 213.284 Q622.451 213.284 624.395 210.622 Q626.339 207.937 626.339 203.238 Q626.339 198.539 624.395 195.877 Q622.451 193.192 619.071 193.192 Q615.691 193.192 613.747 195.877 Q611.826 198.539 611.826 203.238 Z" fill="#000000" fill-rule="evenodd" fill-opacity="1" /><polyline clip-path="url(#clip140)" style="stroke:#000000; stroke-linecap:round; stroke-linejoin:round; stroke-width:4; stroke-opacity:1; fill:none" stroke-dasharray="16, 10" points="
  245.49,250.738 392.509,250.738 
  "/>
<path clip-path="url(#clip140)" d="M442.567 263.087 L442.567 253.805 L434.928 253.805 L434.928 249.962 L447.197 249.962 L447.197 264.8 Q444.489 266.721 441.225 267.717 Q437.961 268.689 434.257 268.689 Q426.155 268.689 421.572 263.967 Q417.012 259.221 417.012 250.772 Q417.012 242.3 421.572 237.578 Q426.155 232.833 434.257 232.833 Q437.637 232.833 440.669 233.666 Q443.725 234.499 446.294 236.12 L446.294 241.096 Q443.702 238.897 440.785 237.786 Q437.868 236.675 434.651 236.675 Q428.308 236.675 425.114 240.217 Q421.942 243.758 421.942 250.772 Q421.942 257.763 425.114 261.305 Q428.308 264.846 434.651 264.846 Q437.128 264.846 439.072 264.43 Q441.016 263.99 442.567 263.087 Z" fill="#000000" fill-rule="evenodd" fill-opacity="1" /><path clip-path="url(#clip140)" d="M470.576 246.073 Q469.859 245.657 469.002 245.471 Q468.169 245.263 467.151 245.263 Q463.539 245.263 461.595 247.624 Q459.674 249.962 459.674 254.36 L459.674 268.018 L455.391 268.018 L455.391 242.092 L459.674 242.092 L459.674 246.12 Q461.016 243.758 463.169 242.624 Q465.322 241.467 468.401 241.467 Q468.84 241.467 469.373 241.536 Q469.905 241.583 470.553 241.698 L470.576 246.073 Z" fill="#000000" fill-rule="evenodd" fill-opacity="1" /><path clip-path="url(#clip140)" d="M484.049 245.078 Q480.623 245.078 478.632 247.763 Q476.641 250.425 476.641 255.078 Q476.641 259.731 478.609 262.416 Q480.6 265.078 484.049 265.078 Q487.451 265.078 489.442 262.393 Q491.433 259.707 491.433 255.078 Q491.433 250.471 489.442 247.786 Q487.451 245.078 484.049 245.078 M484.049 241.467 Q489.604 241.467 492.775 245.078 Q495.947 248.689 495.947 255.078 Q495.947 261.444 492.775 265.078 Q489.604 268.689 484.049 268.689 Q478.47 268.689 475.299 265.078 Q472.15 261.444 472.15 255.078 Q472.15 248.689 475.299 245.078 Q478.47 241.467 484.049 241.467 Z" fill="#000000" fill-rule="evenodd" fill-opacity="1" /><path clip-path="url(#clip140)" d="M502.567 257.786 L502.567 242.092 L506.826 242.092 L506.826 257.624 Q506.826 261.305 508.261 263.156 Q509.697 264.985 512.567 264.985 Q516.016 264.985 518.007 262.786 Q520.021 260.587 520.021 256.791 L520.021 242.092 L524.28 242.092 L524.28 268.018 L520.021 268.018 L520.021 264.036 Q518.47 266.397 516.41 267.555 Q514.372 268.689 511.664 268.689 Q507.197 268.689 504.882 265.911 Q502.567 263.133 502.567 257.786 M513.285 241.467 L513.285 241.467 Z" fill="#000000" fill-rule="evenodd" fill-opacity="1" /><path clip-path="url(#clip140)" d="M554.604 252.369 L554.604 268.018 L550.345 268.018 L550.345 252.508 Q550.345 248.828 548.909 246.999 Q547.474 245.17 544.604 245.17 Q541.155 245.17 539.164 247.37 Q537.173 249.569 537.173 253.365 L537.173 268.018 L532.891 268.018 L532.891 242.092 L537.173 242.092 L537.173 246.12 Q538.701 243.782 540.761 242.624 Q542.845 241.467 545.553 241.467 Q550.02 241.467 552.312 244.245 Q554.604 246.999 554.604 252.369 Z" fill="#000000" fill-rule="evenodd" fill-opacity="1" /><path clip-path="url(#clip140)" d="M580.159 246.027 L580.159 231.999 L584.418 231.999 L584.418 268.018 L580.159 268.018 L580.159 264.129 Q578.817 266.443 576.756 267.578 Q574.719 268.689 571.849 268.689 Q567.15 268.689 564.187 264.939 Q561.247 261.189 561.247 255.078 Q561.247 248.967 564.187 245.217 Q567.15 241.467 571.849 241.467 Q574.719 241.467 576.756 242.601 Q578.817 243.712 580.159 246.027 M565.645 255.078 Q565.645 259.777 567.567 262.462 Q569.511 265.124 572.891 265.124 Q576.27 265.124 578.215 262.462 Q580.159 259.777 580.159 255.078 Q580.159 250.379 578.215 247.717 Q576.27 245.032 572.891 245.032 Q569.511 245.032 567.567 247.717 Q565.645 250.379 565.645 255.078 Z" fill="#000000" fill-rule="evenodd" fill-opacity="1" /><path clip-path="url(#clip140)" d="M612.474 234.731 L612.474 242.092 L621.247 242.092 L621.247 245.402 L612.474 245.402 L612.474 259.476 Q612.474 262.647 613.33 263.55 Q614.21 264.453 616.872 264.453 L621.247 264.453 L621.247 268.018 L616.872 268.018 Q611.941 268.018 610.066 266.189 Q608.191 264.337 608.191 259.476 L608.191 245.402 L605.066 245.402 L605.066 242.092 L608.191 242.092 L608.191 234.731 L612.474 234.731 Z" fill="#000000" fill-rule="evenodd" fill-opacity="1" /><path clip-path="url(#clip140)" d="M641.872 246.073 Q641.154 245.657 640.298 245.471 Q639.464 245.263 638.446 245.263 Q634.835 245.263 632.89 247.624 Q630.969 249.962 630.969 254.36 L630.969 268.018 L626.687 268.018 L626.687 242.092 L630.969 242.092 L630.969 246.12 Q632.312 243.758 634.464 242.624 Q636.617 241.467 639.696 241.467 Q640.136 241.467 640.668 241.536 Q641.201 241.583 641.849 241.698 L641.872 246.073 Z" fill="#000000" fill-rule="evenodd" fill-opacity="1" /><path clip-path="url(#clip140)" d="M645.9 257.786 L645.9 242.092 L650.159 242.092 L650.159 257.624 Q650.159 261.305 651.594 263.156 Q653.029 264.985 655.899 264.985 Q659.349 264.985 661.339 262.786 Q663.353 260.587 663.353 256.791 L663.353 242.092 L667.612 242.092 L667.612 268.018 L663.353 268.018 L663.353 264.036 Q661.802 266.397 659.742 267.555 Q657.705 268.689 654.997 268.689 Q650.529 268.689 648.214 265.911 Q645.9 263.133 645.9 257.786 M656.617 241.467 L656.617 241.467 Z" fill="#000000" fill-rule="evenodd" fill-opacity="1" /><path clip-path="url(#clip140)" d="M680.598 234.731 L680.598 242.092 L689.372 242.092 L689.372 245.402 L680.598 245.402 L680.598 259.476 Q680.598 262.647 681.455 263.55 Q682.335 264.453 684.997 264.453 L689.372 264.453 L689.372 268.018 L684.997 268.018 Q680.066 268.018 678.191 266.189 Q676.316 264.337 676.316 259.476 L676.316 245.402 L673.191 245.402 L673.191 242.092 L676.316 242.092 L676.316 234.731 L680.598 234.731 Z" fill="#000000" fill-rule="evenodd" fill-opacity="1" /><path clip-path="url(#clip140)" d="M716.524 252.369 L716.524 268.018 L712.265 268.018 L712.265 252.508 Q712.265 248.828 710.83 246.999 Q709.395 245.17 706.524 245.17 Q703.075 245.17 701.084 247.37 Q699.094 249.569 699.094 253.365 L699.094 268.018 L694.811 268.018 L694.811 231.999 L699.094 231.999 L699.094 246.12 Q700.621 243.782 702.682 242.624 Q704.765 241.467 707.473 241.467 Q711.941 241.467 714.233 244.245 Q716.524 246.999 716.524 252.369 Z" fill="#000000" fill-rule="evenodd" fill-opacity="1" /></svg>
