<?xml version="1.0" encoding="utf-8"?>
<svg xmlns="http://www.w3.org/2000/svg" xmlns:xlink="http://www.w3.org/1999/xlink" width="600" height="400" viewBox="0 0 2400 1600">
<defs>
  <clipPath id="clip550">
    <rect x="0" y="0" width="2400" height="1600"/>
  </clipPath>
</defs>
<path clip-path="url(#clip550)" d="M0 1600 L2400 1600 L2400 8.88178e-14 L0 8.88178e-14  Z" fill="#ffffff" fill-rule="evenodd" fill-opacity="1"/>
<defs>
  <clipPath id="clip551">
    <rect x="480" y="0" width="1681" height="1600"/>
  </clipPath>
</defs>
<path clip-path="url(#clip550)" d="M172.015 1495.09 L2352.76 1495.09 L2352.76 47.2441 L172.015 47.2441  Z" fill="#ffffff" fill-rule="evenodd" fill-opacity="1"/>
<defs>
  <clipPath id="clip552">
    <rect x="172" y="47" width="2182" height="1449"/>
  </clipPath>
</defs>
<polyline clip-path="url(#clip552)" style="stroke:#000000; stroke-linecap:round; stroke-linejoin:round; stroke-width:2; stroke-opacity:0.1; fill:none" points="291.959,1495.09 291.959,47.2441 "/>
<polyline clip-path="url(#clip552)" style="stroke:#000000; stroke-linecap:round; stroke-linejoin:round; stroke-width:2; stroke-opacity:0.1; fill:none" points="777.172,1495.09 777.172,47.2441 "/>
<polyline clip-path="url(#clip552)" style="stroke:#000000; stroke-linecap:round; stroke-linejoin:round; stroke-width:2; stroke-opacity:0.1; fill:none" points="1262.39,1495.09 1262.39,47.2441 "/>
<polyline clip-path="url(#clip552)" style="stroke:#000000; stroke-linecap:round; stroke-linejoin:round; stroke-width:2; stroke-opacity:0.1; fill:none" points="1747.6,1495.09 1747.6,47.2441 "/>
<polyline clip-path="url(#clip552)" style="stroke:#000000; stroke-linecap:round; stroke-linejoin:round; stroke-width:2; stroke-opacity:0.1; fill:none" points="2232.81,1495.09 2232.81,47.2441 "/>
<polyline clip-path="url(#clip550)" style="stroke:#000000; stroke-linecap:round; stroke-linejoin:round; stroke-width:4; stroke-opacity:1; fill:none" points="172.015,1495.09 2352.76,1495.09 "/>
<polyline clip-path="url(#clip550)" style="stroke:#000000; stroke-linecap:round; stroke-linejoin:round; stroke-width:4; stroke-opacity:1; fill:none" points="291.959,1495.09 291.959,1476.19 "/>
<polyline clip-path="url(#clip550)" style="stroke:#000000; stroke-linecap:round; stroke-linejoin:round; stroke-width:4; stroke-opacity:1; fill:none" points="777.172,1495.09 777.172,1476.19 "/>
<polyline clip-path="url(#clip550)" style="stroke:#000000; stroke-linecap:round; stroke-linejoin:round; stroke-width:4; stroke-opacity:1; fill:none" points="1262.39,1495.09 1262.39,1476.19 "/>
<polyline clip-path="url(#clip550)" style="stroke:#000000; stroke-linecap:round; stroke-linejoin:round; stroke-width:4; stroke-opacity:1; fill:none" points="1747.6,1495.09 1747.6,1476.19 "/>
<polyline clip-path="url(#clip550)" style="stroke:#000000; stroke-linecap:round; stroke-linejoin:round; stroke-width:4; stroke-opacity:1; fill:none" points="2232.81,1495.09 2232.81,1476.19 "/>
<path clip-path="url(#clip550)" d="M274.937 1523.08 Q272.229 1523.08 270.857 1525.75 Q269.503 1528.41 269.503 1533.75 Q269.503 1539.08 270.857 1541.76 Q272.229 1544.41 274.937 1544.41 Q277.663 1544.41 279.017 1541.76 Q280.388 1539.08 280.388 1533.75 Q280.388 1528.41 279.017 1525.75 Q277.663 1523.08 274.937 1523.08 M274.937 1520.3 Q279.295 1520.3 281.586 1523.75 Q283.895 1527.19 283.895 1533.75 Q283.895 1540.3 281.586 1543.75 Q279.295 1547.19 274.937 1547.19 Q270.579 1547.19 268.27 1543.75 Q265.979 1540.3 265.979 1533.75 Q265.979 1527.19 268.27 1523.75 Q270.579 1520.3 274.937 1520.3 Z" fill="#000000" fill-rule="nonzero" fill-opacity="1" /><path clip-path="url(#clip550)" d="M290.058 1542.28 L293.722 1542.28 L293.722 1546.69 L290.058 1546.69 L290.058 1542.28 Z" fill="#000000" fill-rule="nonzero" fill-opacity="1" /><path clip-path="url(#clip550)" d="M309.294 1532.33 Q306.933 1532.33 305.544 1533.94 Q304.173 1535.56 304.173 1538.37 Q304.173 1541.17 305.544 1542.8 Q306.933 1544.41 309.294 1544.41 Q311.656 1544.41 313.027 1542.8 Q314.416 1541.17 314.416 1538.37 Q314.416 1535.56 313.027 1533.94 Q311.656 1532.33 309.294 1532.33 M316.256 1521.34 L316.256 1524.54 Q314.937 1523.91 313.583 1523.58 Q312.246 1523.25 310.926 1523.25 Q307.454 1523.25 305.614 1525.59 Q303.791 1527.94 303.531 1532.68 Q304.555 1531.17 306.1 1530.37 Q307.645 1529.55 309.503 1529.55 Q313.409 1529.55 315.666 1531.93 Q317.94 1534.29 317.94 1538.37 Q317.94 1542.36 315.579 1544.78 Q313.218 1547.19 309.294 1547.19 Q304.798 1547.19 302.419 1543.75 Q300.041 1540.3 300.041 1533.75 Q300.041 1527.61 302.958 1523.96 Q305.874 1520.3 310.787 1520.3 Q312.107 1520.3 313.444 1520.56 Q314.798 1520.82 316.256 1521.34 Z" fill="#000000" fill-rule="nonzero" fill-opacity="1" /><path clip-path="url(#clip550)" d="M760.245 1523.08 Q757.537 1523.08 756.166 1525.75 Q754.811 1528.41 754.811 1533.75 Q754.811 1539.08 756.166 1541.76 Q757.537 1544.41 760.245 1544.41 Q762.971 1544.41 764.325 1541.76 Q765.697 1539.08 765.697 1533.75 Q765.697 1528.41 764.325 1525.75 Q762.971 1523.08 760.245 1523.08 M760.245 1520.3 Q764.603 1520.3 766.895 1523.75 Q769.204 1527.19 769.204 1533.75 Q769.204 1540.3 766.895 1543.75 Q764.603 1547.19 760.245 1547.19 Q755.888 1547.19 753.579 1543.75 Q751.287 1540.3 751.287 1533.75 Q751.287 1527.19 753.579 1523.75 Q755.888 1520.3 760.245 1520.3 Z" fill="#000000" fill-rule="nonzero" fill-opacity="1" /><path clip-path="url(#clip550)" d="M775.367 1542.28 L779.03 1542.28 L779.03 1546.69 L775.367 1546.69 L775.367 1542.28 Z" fill="#000000" fill-rule="nonzero" fill-opacity="1" /><path clip-path="url(#clip550)" d="M794.169 1534.38 Q791.669 1534.38 790.228 1535.72 Q788.804 1537.05 788.804 1539.4 Q788.804 1541.74 790.228 1543.08 Q791.669 1544.41 794.169 1544.41 Q796.669 1544.41 798.11 1543.08 Q799.551 1541.72 799.551 1539.4 Q799.551 1537.05 798.11 1535.72 Q796.686 1534.38 794.169 1534.38 M790.662 1532.89 Q788.405 1532.33 787.138 1530.79 Q785.888 1529.24 785.888 1527.02 Q785.888 1523.91 788.092 1522.1 Q790.315 1520.3 794.169 1520.3 Q798.04 1520.3 800.245 1522.1 Q802.45 1523.91 802.45 1527.02 Q802.45 1529.24 801.183 1530.79 Q799.933 1532.33 797.693 1532.89 Q800.228 1533.48 801.634 1535.19 Q803.058 1536.91 803.058 1539.4 Q803.058 1543.16 800.749 1545.18 Q798.457 1547.19 794.169 1547.19 Q789.881 1547.19 787.572 1545.18 Q785.28 1543.16 785.28 1539.4 Q785.28 1536.91 786.704 1535.19 Q788.127 1533.48 790.662 1532.89 M789.377 1527.35 Q789.377 1529.36 790.627 1530.49 Q791.895 1531.62 794.169 1531.62 Q796.426 1531.62 797.693 1530.49 Q798.978 1529.36 798.978 1527.35 Q798.978 1525.33 797.693 1524.21 Q796.426 1523.08 794.169 1523.08 Q791.895 1523.08 790.627 1524.21 Q789.377 1525.33 789.377 1527.35 Z" fill="#000000" fill-rule="nonzero" fill-opacity="1" /><path clip-path="url(#clip550)" d="M1237.75 1543.74 L1243.48 1543.74 L1243.48 1523.96 L1237.25 1525.21 L1237.25 1522.02 L1243.44 1520.77 L1246.95 1520.77 L1246.95 1543.74 L1252.68 1543.74 L1252.68 1546.69 L1237.75 1546.69 L1237.75 1543.74 Z" fill="#000000" fill-rule="nonzero" fill-opacity="1" /><path clip-path="url(#clip550)" d="M1259.76 1542.28 L1263.43 1542.28 L1263.43 1546.69 L1259.76 1546.69 L1259.76 1542.28 Z" fill="#000000" fill-rule="nonzero" fill-opacity="1" /><path clip-path="url(#clip550)" d="M1278.57 1523.08 Q1275.86 1523.08 1274.49 1525.75 Q1273.13 1528.41 1273.13 1533.75 Q1273.13 1539.08 1274.49 1541.76 Q1275.86 1544.41 1278.57 1544.41 Q1281.29 1544.41 1282.65 1541.76 Q1284.02 1539.08 1284.02 1533.75 Q1284.02 1528.41 1282.65 1525.75 Q1281.29 1523.08 1278.57 1523.08 M1278.57 1520.3 Q1282.92 1520.3 1285.22 1523.75 Q1287.52 1527.19 1287.52 1533.75 Q1287.52 1540.3 1285.22 1543.75 Q1282.92 1547.19 1278.57 1547.19 Q1274.21 1547.19 1271.9 1543.75 Q1269.61 1540.3 1269.61 1533.75 Q1269.61 1527.19 1271.9 1523.75 Q1274.21 1520.3 1278.57 1520.3 Z" fill="#000000" fill-rule="nonzero" fill-opacity="1" /><path clip-path="url(#clip550)" d="M1723.56 1543.74 L1729.29 1543.74 L1729.29 1523.96 L1723.06 1525.21 L1723.06 1522.02 L1729.26 1520.77 L1732.76 1520.77 L1732.76 1543.74 L1738.49 1543.74 L1738.49 1546.69 L1723.56 1546.69 L1723.56 1543.74 Z" fill="#000000" fill-rule="nonzero" fill-opacity="1" /><path clip-path="url(#clip550)" d="M1745.58 1542.28 L1749.24 1542.28 L1749.24 1546.69 L1745.58 1546.69 L1745.58 1542.28 Z" fill="#000000" fill-rule="nonzero" fill-opacity="1" /><path clip-path="url(#clip550)" d="M1759.9 1543.74 L1772.14 1543.74 L1772.14 1546.69 L1755.68 1546.69 L1755.68 1543.74 Q1757.68 1541.67 1761.11 1538.2 Q1764.57 1534.71 1765.45 1533.7 Q1767.14 1531.81 1767.8 1530.51 Q1768.47 1529.19 1768.47 1527.92 Q1768.47 1525.85 1767.02 1524.55 Q1765.58 1523.25 1763.25 1523.25 Q1761.6 1523.25 1759.76 1523.82 Q1757.94 1524.4 1755.85 1525.56 L1755.85 1522.02 Q1757.97 1521.17 1759.81 1520.73 Q1761.65 1520.3 1763.18 1520.3 Q1767.21 1520.3 1769.6 1522.31 Q1772 1524.33 1772 1527.69 Q1772 1529.29 1771.39 1530.73 Q1770.8 1532.16 1769.22 1534.1 Q1768.79 1534.6 1766.46 1537.02 Q1764.13 1539.41 1759.9 1543.74 Z" fill="#000000" fill-rule="nonzero" fill-opacity="1" /><path clip-path="url(#clip550)" d="M2207.99 1543.74 L2213.72 1543.74 L2213.72 1523.96 L2207.49 1525.21 L2207.49 1522.02 L2213.69 1520.77 L2217.2 1520.77 L2217.2 1543.74 L2222.92 1543.74 L2222.92 1546.69 L2207.99 1546.69 L2207.99 1543.74 Z" fill="#000000" fill-rule="nonzero" fill-opacity="1" /><path clip-path="url(#clip550)" d="M2230.01 1542.28 L2233.67 1542.28 L2233.67 1546.69 L2230.01 1546.69 L2230.01 1542.28 Z" fill="#000000" fill-rule="nonzero" fill-opacity="1" /><path clip-path="url(#clip550)" d="M2250.94 1523.82 L2242.09 1537.66 L2250.94 1537.66 L2250.94 1523.82 M2250.02 1520.77 L2254.43 1520.77 L2254.43 1537.66 L2258.13 1537.66 L2258.13 1540.58 L2254.43 1540.58 L2254.43 1546.69 L2250.94 1546.69 L2250.94 1540.58 L2239.24 1540.58 L2239.24 1537.19 L2250.02 1520.77 Z" fill="#000000" fill-rule="nonzero" fill-opacity="1" /><polyline clip-path="url(#clip552)" style="stroke:#000000; stroke-linecap:round; stroke-linejoin:round; stroke-width:2; stroke-opacity:0.1; fill:none" points="172.015,1495.09 2352.76,1495.09 "/>
<polyline clip-path="url(#clip552)" style="stroke:#000000; stroke-linecap:round; stroke-linejoin:round; stroke-width:2; stroke-opacity:0.1; fill:none" points="172.015,1253.78 2352.76,1253.78 "/>
<polyline clip-path="url(#clip552)" style="stroke:#000000; stroke-linecap:round; stroke-linejoin:round; stroke-width:2; stroke-opacity:0.1; fill:none" points="172.015,1012.47 2352.76,1012.47 "/>
<polyline clip-path="url(#clip552)" style="stroke:#000000; stroke-linecap:round; stroke-linejoin:round; stroke-width:2; stroke-opacity:0.1; fill:none" points="172.015,771.166 2352.76,771.166 "/>
<polyline clip-path="url(#clip552)" style="stroke:#000000; stroke-linecap:round; stroke-linejoin:round; stroke-width:2; stroke-opacity:0.1; fill:none" points="172.015,529.859 2352.76,529.859 "/>
<polyline clip-path="url(#clip552)" style="stroke:#000000; stroke-linecap:round; stroke-linejoin:round; stroke-width:2; stroke-opacity:0.1; fill:none" points="172.015,288.551 2352.76,288.551 "/>
<polyline clip-path="url(#clip552)" style="stroke:#000000; stroke-linecap:round; stroke-linejoin:round; stroke-width:2; stroke-opacity:0.1; fill:none" points="172.015,47.2441 2352.76,47.2441 "/>
<polyline clip-path="url(#clip550)" style="stroke:#000000; stroke-linecap:round; stroke-linejoin:round; stroke-width:4; stroke-opacity:1; fill:none" points="172.015,1495.09 172.015,47.2441 "/>
<polyline clip-path="url(#clip550)" style="stroke:#000000; stroke-linecap:round; stroke-linejoin:round; stroke-width:4; stroke-opacity:1; fill:none" points="172.015,1495.09 190.912,1495.09 "/>
<polyline clip-path="url(#clip550)" style="stroke:#000000; stroke-linecap:round; stroke-linejoin:round; stroke-width:4; stroke-opacity:1; fill:none" points="172.015,1253.78 190.912,1253.78 "/>
<polyline clip-path="url(#clip550)" style="stroke:#000000; stroke-linecap:round; stroke-linejoin:round; stroke-width:4; stroke-opacity:1; fill:none" points="172.015,1012.47 190.912,1012.47 "/>
<polyline clip-path="url(#clip550)" style="stroke:#000000; stroke-linecap:round; stroke-linejoin:round; stroke-width:4; stroke-opacity:1; fill:none" points="172.015,771.166 190.912,771.166 "/>
<polyline clip-path="url(#clip550)" style="stroke:#000000; stroke-linecap:round; stroke-linejoin:round; stroke-width:4; stroke-opacity:1; fill:none" points="172.015,529.859 190.912,529.859 "/>
<polyline clip-path="url(#clip550)" style="stroke:#000000; stroke-linecap:round; stroke-linejoin:round; stroke-width:4; stroke-opacity:1; fill:none" points="172.015,288.551 190.912,288.551 "/>
<polyline clip-path="url(#clip550)" style="stroke:#000000; stroke-linecap:round; stroke-linejoin:round; stroke-width:4; stroke-opacity:1; fill:none" points="172.015,47.2441 190.912,47.2441 "/>
<path clip-path="url(#clip550)" d="M124.07 1480.89 Q120.459 1480.89 118.631 1484.45 Q116.825 1487.99 116.825 1495.12 Q116.825 1502.23 118.631 1505.79 Q120.459 1509.34 124.07 1509.34 Q127.705 1509.34 129.51 1505.79 Q131.339 1502.23 131.339 1495.12 Q131.339 1487.99 129.51 1484.45 Q127.705 1480.89 124.07 1480.89 M124.07 1477.18 Q129.881 1477.18 132.936 1481.79 Q136.015 1486.37 136.015 1495.12 Q136.015 1503.85 132.936 1508.46 Q129.881 1513.04 124.07 1513.04 Q118.26 1513.04 115.182 1508.46 Q112.126 1503.85 112.126 1495.12 Q112.126 1486.37 115.182 1481.79 Q118.26 1477.18 124.07 1477.18 Z" fill="#000000" fill-rule="nonzero" fill-opacity="1" /><path clip-path="url(#clip550)" d="M54.5569 1267.13 L62.1958 1267.13 L62.1958 1240.76 L53.8856 1242.43 L53.8856 1238.17 L62.1495 1236.5 L66.8254 1236.5 L66.8254 1267.13 L74.4642 1267.13 L74.4642 1271.06 L54.5569 1271.06 L54.5569 1267.13 Z" fill="#000000" fill-rule="nonzero" fill-opacity="1" /><path clip-path="url(#clip550)" d="M93.9086 1239.58 Q90.2975 1239.58 88.4688 1243.14 Q86.6632 1246.69 86.6632 1253.82 Q86.6632 1260.92 88.4688 1264.49 Q90.2975 1268.03 93.9086 1268.03 Q97.5428 1268.03 99.3483 1264.49 Q101.177 1260.92 101.177 1253.82 Q101.177 1246.69 99.3483 1243.14 Q97.5428 1239.58 93.9086 1239.58 M93.9086 1235.88 Q99.7187 1235.88 102.774 1240.48 Q105.853 1245.07 105.853 1253.82 Q105.853 1262.54 102.774 1267.15 Q99.7187 1271.73 93.9086 1271.73 Q88.0984 1271.73 85.0197 1267.15 Q81.9642 1262.54 81.9642 1253.82 Q81.9642 1245.07 85.0197 1240.48 Q88.0984 1235.88 93.9086 1235.88 Z" fill="#000000" fill-rule="nonzero" fill-opacity="1" /><path clip-path="url(#clip550)" d="M124.07 1239.58 Q120.459 1239.58 118.631 1243.14 Q116.825 1246.69 116.825 1253.82 Q116.825 1260.92 118.631 1264.49 Q120.459 1268.03 124.07 1268.03 Q127.705 1268.03 129.51 1264.49 Q131.339 1260.92 131.339 1253.82 Q131.339 1246.69 129.51 1243.14 Q127.705 1239.58 124.07 1239.58 M124.07 1235.88 Q129.881 1235.88 132.936 1240.48 Q136.015 1245.07 136.015 1253.82 Q136.015 1262.54 132.936 1267.15 Q129.881 1271.73 124.07 1271.73 Q118.26 1271.73 115.182 1267.15 Q112.126 1262.54 112.126 1253.82 Q112.126 1245.07 115.182 1240.48 Q118.26 1235.88 124.07 1235.88 Z" fill="#000000" fill-rule="nonzero" fill-opacity="1" /><path clip-path="url(#clip550)" d="M57.7745 1025.82 L74.0939 1025.82 L74.0939 1029.75 L52.1495 1029.75 L52.1495 1025.82 Q54.8115 1023.06 59.3949 1018.43 Q64.0013 1013.78 65.1819 1012.44 Q67.4272 1009.92 68.3068 1008.18 Q69.2096 1006.42 69.2096 1004.73 Q69.2096 1001.98 67.2652 1000.24 Q65.3439 998.503 62.2421 998.503 Q60.043 998.503 57.5893 999.267 Q55.1588 1000.03 52.381 1001.58 L52.381 996.86 Q55.2051 995.726 57.6588 995.147 Q60.1124 994.568 62.1495 994.568 Q67.5198 994.568 70.7142 997.253 Q73.9087 999.939 73.9087 1004.43 Q73.9087 1006.56 73.0985 1008.48 Q72.3115 1010.38 70.205 1012.97 Q69.6263 1013.64 66.5245 1016.86 Q63.4226 1020.05 57.7745 1025.82 Z" fill="#000000" fill-rule="nonzero" fill-opacity="1" /><path clip-path="url(#clip550)" d="M93.9086 998.272 Q90.2975 998.272 88.4688 1001.84 Q86.6632 1005.38 86.6632 1012.51 Q86.6632 1019.61 88.4688 1023.18 Q90.2975 1026.72 93.9086 1026.72 Q97.5428 1026.72 99.3483 1023.18 Q101.177 1019.61 101.177 1012.51 Q101.177 1005.38 99.3483 1001.84 Q97.5428 998.272 93.9086 998.272 M93.9086 994.568 Q99.7187 994.568 102.774 999.175 Q105.853 1003.76 105.853 1012.51 Q105.853 1021.23 102.774 1025.84 Q99.7187 1030.42 93.9086 1030.42 Q88.0984 1030.42 85.0197 1025.84 Q81.9642 1021.23 81.9642 1012.51 Q81.9642 1003.76 85.0197 999.175 Q88.0984 994.568 93.9086 994.568 Z" fill="#000000" fill-rule="nonzero" fill-opacity="1" /><path clip-path="url(#clip550)" d="M124.07 998.272 Q120.459 998.272 118.631 1001.84 Q116.825 1005.38 116.825 1012.51 Q116.825 1019.61 118.631 1023.18 Q120.459 1026.72 124.07 1026.72 Q127.705 1026.72 129.51 1023.18 Q131.339 1019.61 131.339 1012.51 Q131.339 1005.38 129.51 1001.84 Q127.705 998.272 124.07 998.272 M124.07 994.568 Q129.881 994.568 132.936 999.175 Q136.015 1003.76 136.015 1012.51 Q136.015 1021.23 132.936 1025.84 Q129.881 1030.42 124.07 1030.42 Q118.26 1030.42 115.182 1025.84 Q112.126 1021.23 112.126 1012.51 Q112.126 1003.76 115.182 999.175 Q118.26 994.568 124.07 994.568 Z" fill="#000000" fill-rule="nonzero" fill-opacity="1" /><path clip-path="url(#clip550)" d="M67.9133 769.812 Q71.2698 770.529 73.1448 772.798 Q75.0429 775.066 75.0429 778.4 Q75.0429 783.515 71.5244 786.316 Q68.0059 789.117 61.5245 789.117 Q59.3486 789.117 57.0338 788.677 Q54.7421 788.261 52.2884 787.404 L52.2884 782.89 Q54.2328 784.025 56.5477 784.603 Q58.8625 785.182 61.3856 785.182 Q65.7837 785.182 68.0754 783.446 Q70.3902 781.71 70.3902 778.4 Q70.3902 775.344 68.2374 773.631 Q66.1078 771.895 62.2884 771.895 L58.2606 771.895 L58.2606 768.053 L62.4735 768.053 Q65.9226 768.053 67.7513 766.687 Q69.58 765.298 69.58 762.705 Q69.58 760.043 67.6819 758.631 Q65.8069 757.196 62.2884 757.196 Q60.3671 757.196 58.168 757.613 Q55.969 758.029 53.3301 758.909 L53.3301 754.742 Q55.9921 754.002 58.3069 753.631 Q60.6449 753.261 62.705 753.261 Q68.0291 753.261 71.1309 755.692 Q74.2327 758.099 74.2327 762.219 Q74.2327 765.09 72.5892 767.08 Q70.9457 769.048 67.9133 769.812 Z" fill="#000000" fill-rule="nonzero" fill-opacity="1" /><path clip-path="url(#clip550)" d="M93.9086 756.965 Q90.2975 756.965 88.4688 760.529 Q86.6632 764.071 86.6632 771.201 Q86.6632 778.307 88.4688 781.872 Q90.2975 785.414 93.9086 785.414 Q97.5428 785.414 99.3483 781.872 Q101.177 778.307 101.177 771.201 Q101.177 764.071 99.3483 760.529 Q97.5428 756.965 93.9086 756.965 M93.9086 753.261 Q99.7187 753.261 102.774 757.867 Q105.853 762.451 105.853 771.201 Q105.853 779.928 102.774 784.534 Q99.7187 789.117 93.9086 789.117 Q88.0984 789.117 85.0197 784.534 Q81.9642 779.928 81.9642 771.201 Q81.9642 762.451 85.0197 757.867 Q88.0984 753.261 93.9086 753.261 Z" fill="#000000" fill-rule="nonzero" fill-opacity="1" /><path clip-path="url(#clip550)" d="M124.07 756.965 Q120.459 756.965 118.631 760.529 Q116.825 764.071 116.825 771.201 Q116.825 778.307 118.631 781.872 Q120.459 785.414 124.07 785.414 Q127.705 785.414 129.51 781.872 Q131.339 778.307 131.339 771.201 Q131.339 764.071 129.51 760.529 Q127.705 756.965 124.07 756.965 M124.07 753.261 Q129.881 753.261 132.936 757.867 Q136.015 762.451 136.015 771.201 Q136.015 779.928 132.936 784.534 Q129.881 789.117 124.07 789.117 Q118.26 789.117 115.182 784.534 Q112.126 779.928 112.126 771.201 Q112.126 762.451 115.182 757.867 Q118.26 753.261 124.07 753.261 Z" fill="#000000" fill-rule="nonzero" fill-opacity="1" /><path clip-path="url(#clip550)" d="M66.5939 516.653 L54.7884 535.102 L66.5939 535.102 L66.5939 516.653 M65.367 512.579 L71.2466 512.579 L71.2466 535.102 L76.1772 535.102 L76.1772 538.991 L71.2466 538.991 L71.2466 547.139 L66.5939 547.139 L66.5939 538.991 L50.9921 538.991 L50.9921 534.477 L65.367 512.579 Z" fill="#000000" fill-rule="nonzero" fill-opacity="1" /><path clip-path="url(#clip550)" d="M93.9086 515.657 Q90.2975 515.657 88.4688 519.222 Q86.6632 522.764 86.6632 529.893 Q86.6632 537 88.4688 540.565 Q90.2975 544.106 93.9086 544.106 Q97.5428 544.106 99.3483 540.565 Q101.177 537 101.177 529.893 Q101.177 522.764 99.3483 519.222 Q97.5428 515.657 93.9086 515.657 M93.9086 511.954 Q99.7187 511.954 102.774 516.56 Q105.853 521.143 105.853 529.893 Q105.853 538.62 102.774 543.227 Q99.7187 547.81 93.9086 547.81 Q88.0984 547.81 85.0197 543.227 Q81.9642 538.62 81.9642 529.893 Q81.9642 521.143 85.0197 516.56 Q88.0984 511.954 93.9086 511.954 Z" fill="#000000" fill-rule="nonzero" fill-opacity="1" /><path clip-path="url(#clip550)" d="M124.07 515.657 Q120.459 515.657 118.631 519.222 Q116.825 522.764 116.825 529.893 Q116.825 537 118.631 540.565 Q120.459 544.106 124.07 544.106 Q127.705 544.106 129.51 540.565 Q131.339 537 131.339 529.893 Q131.339 522.764 129.51 519.222 Q127.705 515.657 124.07 515.657 M124.07 511.954 Q129.881 511.954 132.936 516.56 Q136.015 521.143 136.015 529.893 Q136.015 538.62 132.936 543.227 Q129.881 547.81 124.07 547.81 Q118.26 547.81 115.182 543.227 Q112.126 538.62 112.126 529.893 Q112.126 521.143 115.182 516.56 Q118.26 511.954 124.07 511.954 Z" fill="#000000" fill-rule="nonzero" fill-opacity="1" /><path clip-path="url(#clip550)" d="M53.793 271.271 L72.1494 271.271 L72.1494 275.207 L58.0754 275.207 L58.0754 283.679 Q59.0939 283.332 60.1124 283.169 Q61.131 282.984 62.1495 282.984 Q67.9365 282.984 71.3161 286.156 Q74.6957 289.327 74.6957 294.743 Q74.6957 300.322 71.2235 303.424 Q67.7513 306.503 61.4319 306.503 Q59.256 306.503 56.9875 306.132 Q54.7421 305.762 52.3347 305.021 L52.3347 300.322 Q54.418 301.456 56.6402 302.012 Q58.8625 302.568 61.3393 302.568 Q65.3439 302.568 67.6819 300.461 Q70.0198 298.355 70.0198 294.743 Q70.0198 291.132 67.6819 289.026 Q65.3439 286.919 61.3393 286.919 Q59.4643 286.919 57.5893 287.336 Q55.7375 287.753 53.793 288.632 L53.793 271.271 Z" fill="#000000" fill-rule="nonzero" fill-opacity="1" /><path clip-path="url(#clip550)" d="M93.9086 274.35 Q90.2975 274.35 88.4688 277.915 Q86.6632 281.457 86.6632 288.586 Q86.6632 295.693 88.4688 299.257 Q90.2975 302.799 93.9086 302.799 Q97.5428 302.799 99.3483 299.257 Q101.177 295.693 101.177 288.586 Q101.177 281.457 99.3483 277.915 Q97.5428 274.35 93.9086 274.35 M93.9086 270.646 Q99.7187 270.646 102.774 275.253 Q105.853 279.836 105.853 288.586 Q105.853 297.313 102.774 301.919 Q99.7187 306.503 93.9086 306.503 Q88.0984 306.503 85.0197 301.919 Q81.9642 297.313 81.9642 288.586 Q81.9642 279.836 85.0197 275.253 Q88.0984 270.646 93.9086 270.646 Z" fill="#000000" fill-rule="nonzero" fill-opacity="1" /><path clip-path="url(#clip550)" d="M124.07 274.35 Q120.459 274.35 118.631 277.915 Q116.825 281.457 116.825 288.586 Q116.825 295.693 118.631 299.257 Q120.459 302.799 124.07 302.799 Q127.705 302.799 129.51 299.257 Q131.339 295.693 131.339 288.586 Q131.339 281.457 129.51 277.915 Q127.705 274.35 124.07 274.35 M124.07 270.646 Q129.881 270.646 132.936 275.253 Q136.015 279.836 136.015 288.586 Q136.015 297.313 132.936 301.919 Q129.881 306.503 124.07 306.503 Q118.26 306.503 115.182 301.919 Q112.126 297.313 112.126 288.586 Q112.126 279.836 115.182 275.253 Q118.26 270.646 124.07 270.646 Z" fill="#000000" fill-rule="nonzero" fill-opacity="1" /><path clip-path="url(#clip550)" d="M64.3254 45.3807 Q61.1773 45.3807 59.3254 47.5334 Q57.4967 49.6862 57.4967 53.4362 Q57.4967 57.163 59.3254 59.3389 Q61.1773 61.4917 64.3254 61.4917 Q67.4735 61.4917 69.3022 59.3389 Q71.1541 57.163 71.1541 53.4362 Q71.1541 49.6862 69.3022 47.5334 Q67.4735 45.3807 64.3254 45.3807 M73.6077 30.728 L73.6077 34.9872 Q71.8485 34.1539 70.0429 33.7141 Q68.2606 33.2743 66.5013 33.2743 Q61.8717 33.2743 59.418 36.3992 Q56.9875 39.5242 56.6402 45.8436 Q58.006 43.8298 60.0662 42.765 Q62.1263 41.677 64.6032 41.677 Q69.8115 41.677 72.8207 44.8483 Q75.8531 47.9964 75.8531 53.4362 Q75.8531 58.7602 72.705 61.9778 Q69.5568 65.1954 64.3254 65.1954 Q58.33 65.1954 55.1588 60.6121 Q51.9875 56.0056 51.9875 47.2788 Q51.9875 39.0844 55.8764 34.2233 Q59.7652 29.3391 66.3161 29.3391 Q68.0754 29.3391 69.8578 29.6863 Q71.6633 30.0335 73.6077 30.728 Z" fill="#000000" fill-rule="nonzero" fill-opacity="1" /><path clip-path="url(#clip550)" d="M93.9086 33.0428 Q90.2975 33.0428 88.4688 36.6076 Q86.6632 40.1492 86.6632 47.2788 Q86.6632 54.3853 88.4688 57.9501 Q90.2975 61.4917 93.9086 61.4917 Q97.5428 61.4917 99.3483 57.9501 Q101.177 54.3853 101.177 47.2788 Q101.177 40.1492 99.3483 36.6076 Q97.5428 33.0428 93.9086 33.0428 M93.9086 29.3391 Q99.7187 29.3391 102.774 33.9456 Q105.853 38.5289 105.853 47.2788 Q105.853 56.0056 102.774 60.6121 Q99.7187 65.1954 93.9086 65.1954 Q88.0984 65.1954 85.0197 60.6121 Q81.9642 56.0056 81.9642 47.2788 Q81.9642 38.5289 85.0197 33.9456 Q88.0984 29.3391 93.9086 29.3391 Z" fill="#000000" fill-rule="nonzero" fill-opacity="1" /><path clip-path="url(#clip550)" d="M124.07 33.0428 Q120.459 33.0428 118.631 36.6076 Q116.825 40.1492 116.825 47.2788 Q116.825 54.3853 118.631 57.9501 Q120.459 61.4917 124.07 61.4917 Q127.705 61.4917 129.51 57.9501 Q131.339 54.3853 131.339 47.2788 Q131.339 40.1492 129.51 36.6076 Q127.705 33.0428 124.07 33.0428 M124.07 29.3391 Q129.881 29.3391 132.936 33.9456 Q136.015 38.5289 136.015 47.2788 Q136.015 56.0056 132.936 60.6121 Q129.881 65.1954 124.07 65.1954 Q118.26 65.1954 115.182 60.6121 Q112.126 56.0056 112.126 47.2788 Q112.126 38.5289 115.182 33.9456 Q118.26 29.3391 124.07 29.3391 Z" fill="#000000" fill-rule="nonzero" fill-opacity="1" /><path clip-path="url(#clip552)" d="M291.959 47.2441 L291.959 1495.09 L2232.81 1495.09 L2232.81 47.2441 L291.959 47.2441 L291.959 47.2441  Z" fill="#e69f00" fill-rule="evenodd" fill-opacity="1"/>
<polyline clip-path="url(#clip552)" style="stroke:#000000; stroke-linecap:round; stroke-linejoin:round; stroke-width:4; stroke-opacity:1; fill:none" points="291.959,47.2441 291.959,1495.09 2232.81,1495.09 2232.81,47.2441 291.959,47.2441 "/>
<circle clip-path="url(#clip552)" style="fill:#e69f00; stroke:none; fill-opacity:0" cx="1262.39" cy="47.2441" r="2"/>
</svg>
