<?xml version="1.0" encoding="utf-8"?>
<svg xmlns="http://www.w3.org/2000/svg" xmlns:xlink="http://www.w3.org/1999/xlink" width="600" height="400" viewBox="0 0 2400 1600">
<defs>
  <clipPath id="clip100">
    <rect x="0" y="0" width="2400" height="1600"/>
  </clipPath>
</defs>
<path clip-path="url(#clip100)" d="
M0 1600 L2400 1600 L2400 0 L0 0  Z
  " fill="#ffffff" fill-rule="evenodd" fill-opacity="1"/>
<defs>
  <clipPath id="clip101">
    <rect x="480" y="0" width="1681" height="1600"/>
  </clipPath>
</defs>
<path clip-path="url(#clip100)" d="
M147.478 1486.45 L2352.76 1486.45 L2352.76 47.2441 L147.478 47.2441  Z
  " fill="#ffffff" fill-rule="evenodd" fill-opacity="1"/>
<defs>
  <clipPath id="clip102">
    <rect x="147" y="47" width="2206" height="1440"/>
  </clipPath>
</defs>
<polyline clip-path="url(#clip102)" style="stroke:#000000; stroke-linecap:round; stroke-linejoin:round; stroke-width:2; stroke-opacity:0.1; fill:none" points="
  303.31,1486.45 303.31,47.2441 
  "/>
<polyline clip-path="url(#clip102)" style="stroke:#000000; stroke-linecap:round; stroke-linejoin:round; stroke-width:2; stroke-opacity:0.1; fill:none" points="
  618.691,1486.45 618.691,47.2441 
  "/>
<polyline clip-path="url(#clip102)" style="stroke:#000000; stroke-linecap:round; stroke-linejoin:round; stroke-width:2; stroke-opacity:0.1; fill:none" points="
  934.071,1486.45 934.071,47.2441 
  "/>
<polyline clip-path="url(#clip102)" style="stroke:#000000; stroke-linecap:round; stroke-linejoin:round; stroke-width:2; stroke-opacity:0.1; fill:none" points="
  1249.45,1486.45 1249.45,47.2441 
  "/>
<polyline clip-path="url(#clip102)" style="stroke:#000000; stroke-linecap:round; stroke-linejoin:round; stroke-width:2; stroke-opacity:0.1; fill:none" points="
  1564.83,1486.45 1564.83,47.2441 
  "/>
<polyline clip-path="url(#clip102)" style="stroke:#000000; stroke-linecap:round; stroke-linejoin:round; stroke-width:2; stroke-opacity:0.1; fill:none" points="
  1880.21,1486.45 1880.21,47.2441 
  "/>
<polyline clip-path="url(#clip102)" style="stroke:#000000; stroke-linecap:round; stroke-linejoin:round; stroke-width:2; stroke-opacity:0.1; fill:none" points="
  2195.59,1486.45 2195.59,47.2441 
  "/>
<polyline clip-path="url(#clip100)" style="stroke:#000000; stroke-linecap:round; stroke-linejoin:round; stroke-width:4; stroke-opacity:1; fill:none" points="
  147.478,1486.45 2352.76,1486.45 
  "/>
<polyline clip-path="url(#clip100)" style="stroke:#000000; stroke-linecap:round; stroke-linejoin:round; stroke-width:4; stroke-opacity:1; fill:none" points="
  303.31,1486.45 303.31,1467.55 
  "/>
<polyline clip-path="url(#clip100)" style="stroke:#000000; stroke-linecap:round; stroke-linejoin:round; stroke-width:4; stroke-opacity:1; fill:none" points="
  618.691,1486.45 618.691,1467.55 
  "/>
<polyline clip-path="url(#clip100)" style="stroke:#000000; stroke-linecap:round; stroke-linejoin:round; stroke-width:4; stroke-opacity:1; fill:none" points="
  934.071,1486.45 934.071,1467.55 
  "/>
<polyline clip-path="url(#clip100)" style="stroke:#000000; stroke-linecap:round; stroke-linejoin:round; stroke-width:4; stroke-opacity:1; fill:none" points="
  1249.45,1486.45 1249.45,1467.55 
  "/>
<polyline clip-path="url(#clip100)" style="stroke:#000000; stroke-linecap:round; stroke-linejoin:round; stroke-width:4; stroke-opacity:1; fill:none" points="
  1564.83,1486.45 1564.83,1467.55 
  "/>
<polyline clip-path="url(#clip100)" style="stroke:#000000; stroke-linecap:round; stroke-linejoin:round; stroke-width:4; stroke-opacity:1; fill:none" points="
  1880.21,1486.45 1880.21,1467.55 
  "/>
<polyline clip-path="url(#clip100)" style="stroke:#000000; stroke-linecap:round; stroke-linejoin:round; stroke-width:4; stroke-opacity:1; fill:none" points="
  2195.59,1486.45 2195.59,1467.55 
  "/>
<path clip-path="url(#clip100)" d="M272.778 1532.02 L302.454 1532.02 L302.454 1535.95 L272.778 1535.95 L272.778 1532.02 Z" fill="#000000" fill-rule="evenodd" fill-opacity="1" /><path clip-path="url(#clip100)" d="M326.713 1530.21 Q330.069 1530.93 331.944 1533.2 Q333.842 1535.47 333.842 1538.8 Q333.842 1543.92 330.324 1546.72 Q326.805 1549.52 320.324 1549.52 Q318.148 1549.52 315.833 1549.08 Q313.541 1548.66 311.088 1547.81 L311.088 1543.29 Q313.032 1544.43 315.347 1545.01 Q317.662 1545.58 320.185 1545.58 Q324.583 1545.58 326.875 1543.85 Q329.19 1542.11 329.19 1538.8 Q329.19 1535.75 327.037 1534.03 Q324.907 1532.3 321.088 1532.3 L317.06 1532.3 L317.06 1528.45 L321.273 1528.45 Q324.722 1528.45 326.551 1527.09 Q328.379 1525.7 328.379 1523.11 Q328.379 1520.45 326.481 1519.03 Q324.606 1517.6 321.088 1517.6 Q319.166 1517.6 316.967 1518.01 Q314.768 1518.43 312.129 1519.31 L312.129 1515.14 Q314.791 1514.4 317.106 1514.03 Q319.444 1513.66 321.504 1513.66 Q326.828 1513.66 329.93 1516.09 Q333.032 1518.5 333.032 1522.62 Q333.032 1525.49 331.389 1527.48 Q329.745 1529.45 326.713 1530.21 Z" fill="#000000" fill-rule="evenodd" fill-opacity="1" /><path clip-path="url(#clip100)" d="M588.633 1532.02 L618.309 1532.02 L618.309 1535.95 L588.633 1535.95 L588.633 1532.02 Z" fill="#000000" fill-rule="evenodd" fill-opacity="1" /><path clip-path="url(#clip100)" d="M632.429 1544.91 L648.748 1544.91 L648.748 1548.85 L626.804 1548.85 L626.804 1544.91 Q629.466 1542.16 634.049 1537.53 Q638.656 1532.88 639.836 1531.53 Q642.082 1529.01 642.961 1527.27 Q643.864 1525.51 643.864 1523.82 Q643.864 1521.07 641.92 1519.33 Q639.998 1517.6 636.897 1517.6 Q634.697 1517.6 632.244 1518.36 Q629.813 1519.13 627.035 1520.68 L627.035 1515.95 Q629.86 1514.82 632.313 1514.24 Q634.767 1513.66 636.804 1513.66 Q642.174 1513.66 645.369 1516.35 Q648.563 1519.03 648.563 1523.52 Q648.563 1525.65 647.753 1527.57 Q646.966 1529.47 644.859 1532.07 Q644.281 1532.74 641.179 1535.95 Q638.077 1539.15 632.429 1544.91 Z" fill="#000000" fill-rule="evenodd" fill-opacity="1" /><path clip-path="url(#clip100)" d="M903.828 1532.02 L933.504 1532.02 L933.504 1535.95 L903.828 1535.95 L903.828 1532.02 Z" fill="#000000" fill-rule="evenodd" fill-opacity="1" /><path clip-path="url(#clip100)" d="M944.407 1544.91 L952.046 1544.91 L952.046 1518.55 L943.735 1520.21 L943.735 1515.95 L951.999 1514.29 L956.675 1514.29 L956.675 1544.91 L964.314 1544.91 L964.314 1548.85 L944.407 1548.85 L944.407 1544.91 Z" fill="#000000" fill-rule="evenodd" fill-opacity="1" /><path clip-path="url(#clip100)" d="M1249.45 1517.37 Q1245.84 1517.37 1244.01 1520.93 Q1242.21 1524.47 1242.21 1531.6 Q1242.21 1538.71 1244.01 1542.27 Q1245.84 1545.82 1249.45 1545.82 Q1253.09 1545.82 1254.89 1542.27 Q1256.72 1538.71 1256.72 1531.6 Q1256.72 1524.47 1254.89 1520.93 Q1253.09 1517.37 1249.45 1517.37 M1249.45 1513.66 Q1255.26 1513.66 1258.32 1518.27 Q1261.4 1522.85 1261.4 1531.6 Q1261.4 1540.33 1258.32 1544.94 Q1255.26 1549.52 1249.45 1549.52 Q1243.64 1549.52 1240.56 1544.94 Q1237.51 1540.33 1237.51 1531.6 Q1237.51 1522.85 1240.56 1518.27 Q1243.64 1513.66 1249.45 1513.66 Z" fill="#000000" fill-rule="evenodd" fill-opacity="1" /><path clip-path="url(#clip100)" d="M1555.21 1544.91 L1562.85 1544.91 L1562.85 1518.55 L1554.54 1520.21 L1554.54 1515.95 L1562.81 1514.29 L1567.48 1514.29 L1567.48 1544.91 L1575.12 1544.91 L1575.12 1548.85 L1555.21 1548.85 L1555.21 1544.91 Z" fill="#000000" fill-rule="evenodd" fill-opacity="1" /><path clip-path="url(#clip100)" d="M1874.87 1544.91 L1891.18 1544.91 L1891.18 1548.85 L1869.24 1548.85 L1869.24 1544.91 Q1871.9 1542.16 1876.49 1537.53 Q1881.09 1532.88 1882.27 1531.53 Q1884.52 1529.01 1885.4 1527.27 Q1886.3 1525.51 1886.3 1523.82 Q1886.3 1521.07 1884.36 1519.33 Q1882.43 1517.6 1879.33 1517.6 Q1877.13 1517.6 1874.68 1518.36 Q1872.25 1519.13 1869.47 1520.68 L1869.47 1515.95 Q1872.3 1514.82 1874.75 1514.24 Q1877.2 1513.66 1879.24 1513.66 Q1884.61 1513.66 1887.81 1516.35 Q1891 1519.03 1891 1523.52 Q1891 1525.65 1890.19 1527.57 Q1889.4 1529.47 1887.3 1532.07 Q1886.72 1532.74 1883.62 1535.95 Q1880.51 1539.15 1874.87 1544.91 Z" fill="#000000" fill-rule="evenodd" fill-opacity="1" /><path clip-path="url(#clip100)" d="M2199.84 1530.21 Q2203.2 1530.93 2205.07 1533.2 Q2206.97 1535.47 2206.97 1538.8 Q2206.97 1543.92 2203.45 1546.72 Q2199.93 1549.52 2193.45 1549.52 Q2191.28 1549.52 2188.96 1549.08 Q2186.67 1548.66 2184.22 1547.81 L2184.22 1543.29 Q2186.16 1544.43 2188.48 1545.01 Q2190.79 1545.58 2193.31 1545.58 Q2197.71 1545.58 2200 1543.85 Q2202.32 1542.11 2202.32 1538.8 Q2202.32 1535.75 2200.16 1534.03 Q2198.04 1532.3 2194.22 1532.3 L2190.19 1532.3 L2190.19 1528.45 L2194.4 1528.45 Q2197.85 1528.45 2199.68 1527.09 Q2201.51 1525.7 2201.51 1523.11 Q2201.51 1520.45 2199.61 1519.03 Q2197.73 1517.6 2194.22 1517.6 Q2192.29 1517.6 2190.1 1518.01 Q2187.9 1518.43 2185.26 1519.31 L2185.26 1515.14 Q2187.92 1514.4 2190.23 1514.03 Q2192.57 1513.66 2194.63 1513.66 Q2199.96 1513.66 2203.06 1516.09 Q2206.16 1518.5 2206.16 1522.62 Q2206.16 1525.49 2204.52 1527.48 Q2202.87 1529.45 2199.84 1530.21 Z" fill="#000000" fill-rule="evenodd" fill-opacity="1" /><polyline clip-path="url(#clip102)" style="stroke:#000000; stroke-linecap:round; stroke-linejoin:round; stroke-width:2; stroke-opacity:0.1; fill:none" points="
  147.478,1331.48 2352.76,1331.48 
  "/>
<polyline clip-path="url(#clip102)" style="stroke:#000000; stroke-linecap:round; stroke-linejoin:round; stroke-width:2; stroke-opacity:0.1; fill:none" points="
  147.478,1054.29 2352.76,1054.29 
  "/>
<polyline clip-path="url(#clip102)" style="stroke:#000000; stroke-linecap:round; stroke-linejoin:round; stroke-width:2; stroke-opacity:0.1; fill:none" points="
  147.478,777.098 2352.76,777.098 
  "/>
<polyline clip-path="url(#clip102)" style="stroke:#000000; stroke-linecap:round; stroke-linejoin:round; stroke-width:2; stroke-opacity:0.1; fill:none" points="
  147.478,499.907 2352.76,499.907 
  "/>
<polyline clip-path="url(#clip102)" style="stroke:#000000; stroke-linecap:round; stroke-linejoin:round; stroke-width:2; stroke-opacity:0.1; fill:none" points="
  147.478,222.715 2352.76,222.715 
  "/>
<polyline clip-path="url(#clip100)" style="stroke:#000000; stroke-linecap:round; stroke-linejoin:round; stroke-width:4; stroke-opacity:1; fill:none" points="
  147.478,1486.45 147.478,47.2441 
  "/>
<polyline clip-path="url(#clip100)" style="stroke:#000000; stroke-linecap:round; stroke-linejoin:round; stroke-width:4; stroke-opacity:1; fill:none" points="
  147.478,1331.48 166.376,1331.48 
  "/>
<polyline clip-path="url(#clip100)" style="stroke:#000000; stroke-linecap:round; stroke-linejoin:round; stroke-width:4; stroke-opacity:1; fill:none" points="
  147.478,1054.29 166.376,1054.29 
  "/>
<polyline clip-path="url(#clip100)" style="stroke:#000000; stroke-linecap:round; stroke-linejoin:round; stroke-width:4; stroke-opacity:1; fill:none" points="
  147.478,777.098 166.376,777.098 
  "/>
<polyline clip-path="url(#clip100)" style="stroke:#000000; stroke-linecap:round; stroke-linejoin:round; stroke-width:4; stroke-opacity:1; fill:none" points="
  147.478,499.907 166.376,499.907 
  "/>
<polyline clip-path="url(#clip100)" style="stroke:#000000; stroke-linecap:round; stroke-linejoin:round; stroke-width:4; stroke-opacity:1; fill:none" points="
  147.478,222.715 166.376,222.715 
  "/>
<path clip-path="url(#clip100)" d="M50.9921 1331.93 L80.6679 1331.93 L80.6679 1335.87 L50.9921 1335.87 L50.9921 1331.93 Z" fill="#000000" fill-rule="evenodd" fill-opacity="1" /><path clip-path="url(#clip100)" d="M91.5706 1344.83 L99.2095 1344.83 L99.2095 1318.46 L90.8993 1320.13 L90.8993 1315.87 L99.1632 1314.2 L103.839 1314.2 L103.839 1344.83 L111.478 1344.83 L111.478 1348.76 L91.5706 1348.76 L91.5706 1344.83 Z" fill="#000000" fill-rule="evenodd" fill-opacity="1" /><path clip-path="url(#clip100)" d="M99.5335 1040.09 Q95.9224 1040.09 94.0937 1043.65 Q92.2882 1047.2 92.2882 1054.32 Q92.2882 1061.43 94.0937 1065 Q95.9224 1068.54 99.5335 1068.54 Q103.168 1068.54 104.973 1065 Q106.802 1061.43 106.802 1054.32 Q106.802 1047.2 104.973 1043.65 Q103.168 1040.09 99.5335 1040.09 M99.5335 1036.39 Q105.344 1036.39 108.399 1040.99 Q111.478 1045.58 111.478 1054.32 Q111.478 1063.05 108.399 1067.66 Q105.344 1072.24 99.5335 1072.24 Q93.7234 1072.24 90.6447 1067.66 Q87.5892 1063.05 87.5892 1054.32 Q87.5892 1045.58 90.6447 1040.99 Q93.7234 1036.39 99.5335 1036.39 Z" fill="#000000" fill-rule="evenodd" fill-opacity="1" /><path clip-path="url(#clip100)" d="M91.5706 790.443 L99.2095 790.443 L99.2095 764.078 L90.8993 765.744 L90.8993 761.485 L99.1632 759.818 L103.839 759.818 L103.839 790.443 L111.478 790.443 L111.478 794.378 L91.5706 794.378 L91.5706 790.443 Z" fill="#000000" fill-rule="evenodd" fill-opacity="1" /><path clip-path="url(#clip100)" d="M95.1586 513.251 L111.478 513.251 L111.478 517.187 L89.5336 517.187 L89.5336 513.251 Q92.1956 510.497 96.7789 505.867 Q101.385 501.214 102.566 499.872 Q104.811 497.349 105.691 495.613 Q106.594 493.853 106.594 492.164 Q106.594 489.409 104.649 487.673 Q102.728 485.937 99.6261 485.937 Q97.4271 485.937 94.9734 486.701 Q92.5428 487.464 89.7651 489.015 L89.7651 484.293 Q92.5891 483.159 95.0428 482.58 Q97.4965 482.002 99.5335 482.002 Q104.904 482.002 108.098 484.687 Q111.293 487.372 111.293 491.863 Q111.293 493.992 110.483 495.914 Q109.696 497.812 107.589 500.404 Q107.01 501.076 103.909 504.293 Q100.807 507.488 95.1586 513.251 Z" fill="#000000" fill-rule="evenodd" fill-opacity="1" /><path clip-path="url(#clip100)" d="M104.348 221.361 Q107.705 222.078 109.58 224.347 Q111.478 226.615 111.478 229.948 Q111.478 235.064 107.959 237.865 Q104.441 240.666 97.9595 240.666 Q95.7836 240.666 93.4688 240.226 Q91.1771 239.809 88.7234 238.953 L88.7234 234.439 Q90.6678 235.573 92.9826 236.152 Q95.2974 236.731 97.8206 236.731 Q102.219 236.731 104.51 234.995 Q106.825 233.259 106.825 229.948 Q106.825 226.893 104.672 225.18 Q102.543 223.444 98.7234 223.444 L94.6956 223.444 L94.6956 219.601 L98.9085 219.601 Q102.358 219.601 104.186 218.236 Q106.015 216.847 106.015 214.254 Q106.015 211.592 104.117 210.18 Q102.242 208.745 98.7234 208.745 Q96.8021 208.745 94.603 209.162 Q92.4039 209.578 89.7651 210.458 L89.7651 206.291 Q92.4271 205.55 94.7419 205.18 Q97.0798 204.81 99.14 204.81 Q104.464 204.81 107.566 207.24 Q110.668 209.648 110.668 213.768 Q110.668 216.638 109.024 218.629 Q107.381 220.597 104.348 221.361 Z" fill="#000000" fill-rule="evenodd" fill-opacity="1" /><circle clip-path="url(#clip102)" cx="1878.65" cy="635.75" r="14.4" fill="#e69f00" fill-rule="evenodd" fill-opacity="1" stroke="#000000" stroke-opacity="1" stroke-width="3.2"/>
<circle clip-path="url(#clip102)" cx="1728.73" cy="730.674" r="14.4" fill="#e69f00" fill-rule="evenodd" fill-opacity="1" stroke="#000000" stroke-opacity="1" stroke-width="3.2"/>
<circle clip-path="url(#clip102)" cx="1498.32" cy="1033.24" r="14.4" fill="#e69f00" fill-rule="evenodd" fill-opacity="1" stroke="#000000" stroke-opacity="1" stroke-width="3.2"/>
<circle clip-path="url(#clip102)" cx="1584.69" cy="655.309" r="14.4" fill="#e69f00" fill-rule="evenodd" fill-opacity="1" stroke="#000000" stroke-opacity="1" stroke-width="3.2"/>
<circle clip-path="url(#clip102)" cx="1863.95" cy="478.623" r="14.4" fill="#e69f00" fill-rule="evenodd" fill-opacity="1" stroke="#000000" stroke-opacity="1" stroke-width="3.2"/>
<circle clip-path="url(#clip102)" cx="507.09" cy="599.976" r="14.4" fill="#e69f00" fill-rule="evenodd" fill-opacity="1" stroke="#000000" stroke-opacity="1" stroke-width="3.2"/>
<circle clip-path="url(#clip102)" cx="1648.8" cy="715.839" r="14.4" fill="#e69f00" fill-rule="evenodd" fill-opacity="1" stroke="#000000" stroke-opacity="1" stroke-width="3.2"/>
<circle clip-path="url(#clip102)" cx="1970.74" cy="403.124" r="14.4" fill="#e69f00" fill-rule="evenodd" fill-opacity="1" stroke="#000000" stroke-opacity="1" stroke-width="3.2"/>
<circle clip-path="url(#clip102)" cx="695.864" cy="502.879" r="14.4" fill="#e69f00" fill-rule="evenodd" fill-opacity="1" stroke="#000000" stroke-opacity="1" stroke-width="3.2"/>
<circle clip-path="url(#clip102)" cx="1610.92" cy="713.935" r="14.4" fill="#e69f00" fill-rule="evenodd" fill-opacity="1" stroke="#000000" stroke-opacity="1" stroke-width="3.2"/>
<circle clip-path="url(#clip102)" cx="1142.53" cy="951.935" r="14.4" fill="#e69f00" fill-rule="evenodd" fill-opacity="1" stroke="#000000" stroke-opacity="1" stroke-width="3.2"/>
<circle clip-path="url(#clip102)" cx="1870.07" cy="636.467" r="14.4" fill="#e69f00" fill-rule="evenodd" fill-opacity="1" stroke="#000000" stroke-opacity="1" stroke-width="3.2"/>
<circle clip-path="url(#clip102)" cx="2134.07" cy="675.383" r="14.4" fill="#e69f00" fill-rule="evenodd" fill-opacity="1" stroke="#000000" stroke-opacity="1" stroke-width="3.2"/>
<circle clip-path="url(#clip102)" cx="1052.15" cy="772.948" r="14.4" fill="#e69f00" fill-rule="evenodd" fill-opacity="1" stroke="#000000" stroke-opacity="1" stroke-width="3.2"/>
<circle clip-path="url(#clip102)" cx="1471.68" cy="593.272" r="14.4" fill="#e69f00" fill-rule="evenodd" fill-opacity="1" stroke="#000000" stroke-opacity="1" stroke-width="3.2"/>
<circle clip-path="url(#clip102)" cx="1229.68" cy="1075.85" r="14.4" fill="#e69f00" fill-rule="evenodd" fill-opacity="1" stroke="#000000" stroke-opacity="1" stroke-width="3.2"/>
<circle clip-path="url(#clip102)" cx="2044.61" cy="839.11" r="14.4" fill="#e69f00" fill-rule="evenodd" fill-opacity="1" stroke="#000000" stroke-opacity="1" stroke-width="3.2"/>
<circle clip-path="url(#clip102)" cx="994.533" cy="770.359" r="14.4" fill="#e69f00" fill-rule="evenodd" fill-opacity="1" stroke="#000000" stroke-opacity="1" stroke-width="3.2"/>
<circle clip-path="url(#clip102)" cx="334.146" cy="584.519" r="14.4" fill="#e69f00" fill-rule="evenodd" fill-opacity="1" stroke="#000000" stroke-opacity="1" stroke-width="3.2"/>
<circle clip-path="url(#clip102)" cx="1190.72" cy="1204.98" r="14.4" fill="#e69f00" fill-rule="evenodd" fill-opacity="1" stroke="#000000" stroke-opacity="1" stroke-width="3.2"/>
<circle clip-path="url(#clip102)" cx="594.445" cy="471.931" r="14.4" fill="#e69f00" fill-rule="evenodd" fill-opacity="1" stroke="#000000" stroke-opacity="1" stroke-width="3.2"/>
<circle clip-path="url(#clip102)" cx="393.841" cy="561.692" r="14.4" fill="#e69f00" fill-rule="evenodd" fill-opacity="1" stroke="#000000" stroke-opacity="1" stroke-width="3.2"/>
<circle clip-path="url(#clip102)" cx="1861.9" cy="506.252" r="14.4" fill="#e69f00" fill-rule="evenodd" fill-opacity="1" stroke="#000000" stroke-opacity="1" stroke-width="3.2"/>
<circle clip-path="url(#clip102)" cx="1967.1" cy="680.475" r="14.4" fill="#e69f00" fill-rule="evenodd" fill-opacity="1" stroke="#000000" stroke-opacity="1" stroke-width="3.2"/>
<circle clip-path="url(#clip102)" cx="1665.04" cy="783.228" r="14.4" fill="#e69f00" fill-rule="evenodd" fill-opacity="1" stroke="#000000" stroke-opacity="1" stroke-width="3.2"/>
<circle clip-path="url(#clip102)" cx="723.682" cy="536.636" r="14.4" fill="#e69f00" fill-rule="evenodd" fill-opacity="1" stroke="#000000" stroke-opacity="1" stroke-width="3.2"/>
<circle clip-path="url(#clip102)" cx="2139.8" cy="935.763" r="14.4" fill="#e69f00" fill-rule="evenodd" fill-opacity="1" stroke="#000000" stroke-opacity="1" stroke-width="3.2"/>
<circle clip-path="url(#clip102)" cx="1048.72" cy="616.379" r="14.4" fill="#e69f00" fill-rule="evenodd" fill-opacity="1" stroke="#000000" stroke-opacity="1" stroke-width="3.2"/>
<circle clip-path="url(#clip102)" cx="2192.95" cy="971.802" r="14.4" fill="#e69f00" fill-rule="evenodd" fill-opacity="1" stroke="#000000" stroke-opacity="1" stroke-width="3.2"/>
<circle clip-path="url(#clip102)" cx="360.796" cy="728.735" r="14.4" fill="#e69f00" fill-rule="evenodd" fill-opacity="1" stroke="#000000" stroke-opacity="1" stroke-width="3.2"/>
<circle clip-path="url(#clip102)" cx="1613.16" cy="715.698" r="14.4" fill="#e69f00" fill-rule="evenodd" fill-opacity="1" stroke="#000000" stroke-opacity="1" stroke-width="3.2"/>
<circle clip-path="url(#clip102)" cx="1096.86" cy="1091.41" r="14.4" fill="#e69f00" fill-rule="evenodd" fill-opacity="1" stroke="#000000" stroke-opacity="1" stroke-width="3.2"/>
<circle clip-path="url(#clip102)" cx="959.213" cy="830.236" r="14.4" fill="#e69f00" fill-rule="evenodd" fill-opacity="1" stroke="#000000" stroke-opacity="1" stroke-width="3.2"/>
<circle clip-path="url(#clip102)" cx="2149.21" cy="995.084" r="14.4" fill="#e69f00" fill-rule="evenodd" fill-opacity="1" stroke="#000000" stroke-opacity="1" stroke-width="3.2"/>
<circle clip-path="url(#clip102)" cx="1201.38" cy="1040.64" r="14.4" fill="#e69f00" fill-rule="evenodd" fill-opacity="1" stroke="#000000" stroke-opacity="1" stroke-width="3.2"/>
<circle clip-path="url(#clip102)" cx="1155.75" cy="1272.72" r="14.4" fill="#e69f00" fill-rule="evenodd" fill-opacity="1" stroke="#000000" stroke-opacity="1" stroke-width="3.2"/>
<circle clip-path="url(#clip102)" cx="876.896" cy="870.027" r="14.4" fill="#e69f00" fill-rule="evenodd" fill-opacity="1" stroke="#000000" stroke-opacity="1" stroke-width="3.2"/>
<circle clip-path="url(#clip102)" cx="1973" cy="444.706" r="14.4" fill="#e69f00" fill-rule="evenodd" fill-opacity="1" stroke="#000000" stroke-opacity="1" stroke-width="3.2"/>
<circle clip-path="url(#clip102)" cx="496.025" cy="537.357" r="14.4" fill="#e69f00" fill-rule="evenodd" fill-opacity="1" stroke="#000000" stroke-opacity="1" stroke-width="3.2"/>
<circle clip-path="url(#clip102)" cx="993.809" cy="954.069" r="14.4" fill="#e69f00" fill-rule="evenodd" fill-opacity="1" stroke="#000000" stroke-opacity="1" stroke-width="3.2"/>
<circle clip-path="url(#clip102)" cx="1666.27" cy="598.483" r="14.4" fill="#e69f00" fill-rule="evenodd" fill-opacity="1" stroke="#000000" stroke-opacity="1" stroke-width="3.2"/>
<circle clip-path="url(#clip102)" cx="432.341" cy="697.193" r="14.4" fill="#e69f00" fill-rule="evenodd" fill-opacity="1" stroke="#000000" stroke-opacity="1" stroke-width="3.2"/>
<circle clip-path="url(#clip102)" cx="1529.47" cy="728.41" r="14.4" fill="#e69f00" fill-rule="evenodd" fill-opacity="1" stroke="#000000" stroke-opacity="1" stroke-width="3.2"/>
<circle clip-path="url(#clip102)" cx="2159.35" cy="808.031" r="14.4" fill="#e69f00" fill-rule="evenodd" fill-opacity="1" stroke="#000000" stroke-opacity="1" stroke-width="3.2"/>
<circle clip-path="url(#clip102)" cx="2045.51" cy="834.212" r="14.4" fill="#e69f00" fill-rule="evenodd" fill-opacity="1" stroke="#000000" stroke-opacity="1" stroke-width="3.2"/>
<circle clip-path="url(#clip102)" cx="474.299" cy="713.034" r="14.4" fill="#e69f00" fill-rule="evenodd" fill-opacity="1" stroke="#000000" stroke-opacity="1" stroke-width="3.2"/>
<circle clip-path="url(#clip102)" cx="1448.76" cy="1339.4" r="14.4" fill="#e69f00" fill-rule="evenodd" fill-opacity="1" stroke="#000000" stroke-opacity="1" stroke-width="3.2"/>
<circle clip-path="url(#clip102)" cx="1105.84" cy="955.988" r="14.4" fill="#e69f00" fill-rule="evenodd" fill-opacity="1" stroke="#000000" stroke-opacity="1" stroke-width="3.2"/>
<circle clip-path="url(#clip102)" cx="457.301" cy="558.961" r="14.4" fill="#e69f00" fill-rule="evenodd" fill-opacity="1" stroke="#000000" stroke-opacity="1" stroke-width="3.2"/>
<circle clip-path="url(#clip102)" cx="1827.1" cy="703.796" r="14.4" fill="#e69f00" fill-rule="evenodd" fill-opacity="1" stroke="#000000" stroke-opacity="1" stroke-width="3.2"/>
<circle clip-path="url(#clip102)" cx="1462.39" cy="875.171" r="14.4" fill="#e69f00" fill-rule="evenodd" fill-opacity="1" stroke="#000000" stroke-opacity="1" stroke-width="3.2"/>
<circle clip-path="url(#clip102)" cx="450.016" cy="699.597" r="14.4" fill="#e69f00" fill-rule="evenodd" fill-opacity="1" stroke="#000000" stroke-opacity="1" stroke-width="3.2"/>
<circle clip-path="url(#clip102)" cx="2062.89" cy="701.394" r="14.4" fill="#e69f00" fill-rule="evenodd" fill-opacity="1" stroke="#000000" stroke-opacity="1" stroke-width="3.2"/>
<circle clip-path="url(#clip102)" cx="1791.24" cy="384.772" r="14.4" fill="#e69f00" fill-rule="evenodd" fill-opacity="1" stroke="#000000" stroke-opacity="1" stroke-width="3.2"/>
<circle clip-path="url(#clip102)" cx="1664.33" cy="731.309" r="14.4" fill="#e69f00" fill-rule="evenodd" fill-opacity="1" stroke="#000000" stroke-opacity="1" stroke-width="3.2"/>
<circle clip-path="url(#clip102)" cx="723.043" cy="533.018" r="14.4" fill="#e69f00" fill-rule="evenodd" fill-opacity="1" stroke="#000000" stroke-opacity="1" stroke-width="3.2"/>
<circle clip-path="url(#clip102)" cx="1415.27" cy="808.882" r="14.4" fill="#e69f00" fill-rule="evenodd" fill-opacity="1" stroke="#000000" stroke-opacity="1" stroke-width="3.2"/>
<circle clip-path="url(#clip102)" cx="1655.77" cy="541.503" r="14.4" fill="#e69f00" fill-rule="evenodd" fill-opacity="1" stroke="#000000" stroke-opacity="1" stroke-width="3.2"/>
<circle clip-path="url(#clip102)" cx="2144.11" cy="989.941" r="14.4" fill="#e69f00" fill-rule="evenodd" fill-opacity="1" stroke="#000000" stroke-opacity="1" stroke-width="3.2"/>
<circle clip-path="url(#clip102)" cx="963.161" cy="784.695" r="14.4" fill="#e69f00" fill-rule="evenodd" fill-opacity="1" stroke="#000000" stroke-opacity="1" stroke-width="3.2"/>
<circle clip-path="url(#clip102)" cx="1471.22" cy="897.377" r="14.4" fill="#e69f00" fill-rule="evenodd" fill-opacity="1" stroke="#000000" stroke-opacity="1" stroke-width="3.2"/>
<circle clip-path="url(#clip102)" cx="1111.94" cy="1106.78" r="14.4" fill="#e69f00" fill-rule="evenodd" fill-opacity="1" stroke="#000000" stroke-opacity="1" stroke-width="3.2"/>
<circle clip-path="url(#clip102)" cx="1794.55" cy="389.793" r="14.4" fill="#e69f00" fill-rule="evenodd" fill-opacity="1" stroke="#000000" stroke-opacity="1" stroke-width="3.2"/>
<circle clip-path="url(#clip102)" cx="1881.57" cy="777.09" r="14.4" fill="#e69f00" fill-rule="evenodd" fill-opacity="1" stroke="#000000" stroke-opacity="1" stroke-width="3.2"/>
<circle clip-path="url(#clip102)" cx="1501.7" cy="773.097" r="14.4" fill="#e69f00" fill-rule="evenodd" fill-opacity="1" stroke="#000000" stroke-opacity="1" stroke-width="3.2"/>
<circle clip-path="url(#clip102)" cx="989.709" cy="950.753" r="14.4" fill="#e69f00" fill-rule="evenodd" fill-opacity="1" stroke="#000000" stroke-opacity="1" stroke-width="3.2"/>
<circle clip-path="url(#clip102)" cx="389.986" cy="702.012" r="14.4" fill="#e69f00" fill-rule="evenodd" fill-opacity="1" stroke="#000000" stroke-opacity="1" stroke-width="3.2"/>
<circle clip-path="url(#clip102)" cx="1399.93" cy="1115.95" r="14.4" fill="#e69f00" fill-rule="evenodd" fill-opacity="1" stroke="#000000" stroke-opacity="1" stroke-width="3.2"/>
<circle clip-path="url(#clip102)" cx="305.168" cy="886.602" r="14.4" fill="#e69f00" fill-rule="evenodd" fill-opacity="1" stroke="#000000" stroke-opacity="1" stroke-width="3.2"/>
<circle clip-path="url(#clip102)" cx="709.562" cy="597.337" r="14.4" fill="#e69f00" fill-rule="evenodd" fill-opacity="1" stroke="#000000" stroke-opacity="1" stroke-width="3.2"/>
<circle clip-path="url(#clip102)" cx="1970.88" cy="547.348" r="14.4" fill="#e69f00" fill-rule="evenodd" fill-opacity="1" stroke="#000000" stroke-opacity="1" stroke-width="3.2"/>
<circle clip-path="url(#clip102)" cx="1245.55" cy="1150.74" r="14.4" fill="#e69f00" fill-rule="evenodd" fill-opacity="1" stroke="#000000" stroke-opacity="1" stroke-width="3.2"/>
<circle clip-path="url(#clip102)" cx="2027.18" cy="552.56" r="14.4" fill="#e69f00" fill-rule="evenodd" fill-opacity="1" stroke="#000000" stroke-opacity="1" stroke-width="3.2"/>
<circle clip-path="url(#clip102)" cx="716.923" cy="380.346" r="14.4" fill="#e69f00" fill-rule="evenodd" fill-opacity="1" stroke="#000000" stroke-opacity="1" stroke-width="3.2"/>
<circle clip-path="url(#clip102)" cx="1714.34" cy="485.219" r="14.4" fill="#e69f00" fill-rule="evenodd" fill-opacity="1" stroke="#000000" stroke-opacity="1" stroke-width="3.2"/>
<circle clip-path="url(#clip102)" cx="1769.25" cy="797.759" r="14.4" fill="#e69f00" fill-rule="evenodd" fill-opacity="1" stroke="#000000" stroke-opacity="1" stroke-width="3.2"/>
<circle clip-path="url(#clip102)" cx="1754.44" cy="320.621" r="14.4" fill="#e69f00" fill-rule="evenodd" fill-opacity="1" stroke="#000000" stroke-opacity="1" stroke-width="3.2"/>
<circle clip-path="url(#clip102)" cx="1838.18" cy="480.031" r="14.4" fill="#e69f00" fill-rule="evenodd" fill-opacity="1" stroke="#000000" stroke-opacity="1" stroke-width="3.2"/>
<circle clip-path="url(#clip102)" cx="1895.32" cy="674.401" r="14.4" fill="#e69f00" fill-rule="evenodd" fill-opacity="1" stroke="#000000" stroke-opacity="1" stroke-width="3.2"/>
<circle clip-path="url(#clip102)" cx="1329.94" cy="988.563" r="14.4" fill="#e69f00" fill-rule="evenodd" fill-opacity="1" stroke="#000000" stroke-opacity="1" stroke-width="3.2"/>
<circle clip-path="url(#clip102)" cx="605.216" cy="627.271" r="14.4" fill="#e69f00" fill-rule="evenodd" fill-opacity="1" stroke="#000000" stroke-opacity="1" stroke-width="3.2"/>
<circle clip-path="url(#clip102)" cx="1168.39" cy="1151.47" r="14.4" fill="#e69f00" fill-rule="evenodd" fill-opacity="1" stroke="#000000" stroke-opacity="1" stroke-width="3.2"/>
<circle clip-path="url(#clip102)" cx="1990.05" cy="673.442" r="14.4" fill="#e69f00" fill-rule="evenodd" fill-opacity="1" stroke="#000000" stroke-opacity="1" stroke-width="3.2"/>
<circle clip-path="url(#clip102)" cx="919.407" cy="771.862" r="14.4" fill="#e69f00" fill-rule="evenodd" fill-opacity="1" stroke="#000000" stroke-opacity="1" stroke-width="3.2"/>
<circle clip-path="url(#clip102)" cx="1877.96" cy="185.84" r="14.4" fill="#e69f00" fill-rule="evenodd" fill-opacity="1" stroke="#000000" stroke-opacity="1" stroke-width="3.2"/>
<circle clip-path="url(#clip102)" cx="561.704" cy="366.596" r="14.4" fill="#e69f00" fill-rule="evenodd" fill-opacity="1" stroke="#000000" stroke-opacity="1" stroke-width="3.2"/>
<circle clip-path="url(#clip102)" cx="1532.46" cy="794.028" r="14.4" fill="#e69f00" fill-rule="evenodd" fill-opacity="1" stroke="#000000" stroke-opacity="1" stroke-width="3.2"/>
<circle clip-path="url(#clip102)" cx="962.838" cy="829.471" r="14.4" fill="#e69f00" fill-rule="evenodd" fill-opacity="1" stroke="#000000" stroke-opacity="1" stroke-width="3.2"/>
<circle clip-path="url(#clip102)" cx="1022.1" cy="612.631" r="14.4" fill="#e69f00" fill-rule="evenodd" fill-opacity="1" stroke="#000000" stroke-opacity="1" stroke-width="3.2"/>
<circle clip-path="url(#clip102)" cx="1353.15" cy="793.511" r="14.4" fill="#e69f00" fill-rule="evenodd" fill-opacity="1" stroke="#000000" stroke-opacity="1" stroke-width="3.2"/>
<circle clip-path="url(#clip102)" cx="1071.6" cy="1004.81" r="14.4" fill="#e69f00" fill-rule="evenodd" fill-opacity="1" stroke="#000000" stroke-opacity="1" stroke-width="3.2"/>
<circle clip-path="url(#clip102)" cx="942.569" cy="928.138" r="14.4" fill="#e69f00" fill-rule="evenodd" fill-opacity="1" stroke="#000000" stroke-opacity="1" stroke-width="3.2"/>
<circle clip-path="url(#clip102)" cx="1462.06" cy="846.488" r="14.4" fill="#e69f00" fill-rule="evenodd" fill-opacity="1" stroke="#000000" stroke-opacity="1" stroke-width="3.2"/>
<circle clip-path="url(#clip102)" cx="380.835" cy="829.228" r="14.4" fill="#e69f00" fill-rule="evenodd" fill-opacity="1" stroke="#000000" stroke-opacity="1" stroke-width="3.2"/>
<circle clip-path="url(#clip102)" cx="496.79" cy="630.807" r="14.4" fill="#e69f00" fill-rule="evenodd" fill-opacity="1" stroke="#000000" stroke-opacity="1" stroke-width="3.2"/>
<circle clip-path="url(#clip102)" cx="1417.75" cy="935.63" r="14.4" fill="#e69f00" fill-rule="evenodd" fill-opacity="1" stroke="#000000" stroke-opacity="1" stroke-width="3.2"/>
<circle clip-path="url(#clip102)" cx="1182.95" cy="891.869" r="14.4" fill="#e69f00" fill-rule="evenodd" fill-opacity="1" stroke="#000000" stroke-opacity="1" stroke-width="3.2"/>
<circle clip-path="url(#clip102)" cx="768.149" cy="810.667" r="14.4" fill="#e69f00" fill-rule="evenodd" fill-opacity="1" stroke="#000000" stroke-opacity="1" stroke-width="3.2"/>
<circle clip-path="url(#clip102)" cx="1384.83" cy="1098.31" r="14.4" fill="#e69f00" fill-rule="evenodd" fill-opacity="1" stroke="#000000" stroke-opacity="1" stroke-width="3.2"/>
<circle clip-path="url(#clip102)" cx="1483.58" cy="995.5" r="14.4" fill="#e69f00" fill-rule="evenodd" fill-opacity="1" stroke="#000000" stroke-opacity="1" stroke-width="3.2"/>
<circle clip-path="url(#clip102)" cx="599.807" cy="586.196" r="14.4" fill="#e69f00" fill-rule="evenodd" fill-opacity="1" stroke="#000000" stroke-opacity="1" stroke-width="3.2"/>
<circle clip-path="url(#clip102)" cx="1099.5" cy="1006.81" r="14.4" fill="#e69f00" fill-rule="evenodd" fill-opacity="1" stroke="#000000" stroke-opacity="1" stroke-width="3.2"/>
<circle clip-path="url(#clip102)" cx="1454.47" cy="1026.02" r="14.4" fill="#e69f00" fill-rule="evenodd" fill-opacity="1" stroke="#000000" stroke-opacity="1" stroke-width="3.2"/>
<circle clip-path="url(#clip102)" cx="1267.8" cy="1175.27" r="14.4" fill="#e69f00" fill-rule="evenodd" fill-opacity="1" stroke="#000000" stroke-opacity="1" stroke-width="3.2"/>
<circle clip-path="url(#clip102)" cx="1005.37" cy="934.588" r="14.4" fill="#e69f00" fill-rule="evenodd" fill-opacity="1" stroke="#000000" stroke-opacity="1" stroke-width="3.2"/>
<circle clip-path="url(#clip102)" cx="475.589" cy="478.802" r="14.4" fill="#e69f00" fill-rule="evenodd" fill-opacity="1" stroke="#000000" stroke-opacity="1" stroke-width="3.2"/>
<circle clip-path="url(#clip102)" cx="1458.63" cy="1097.23" r="14.4" fill="#e69f00" fill-rule="evenodd" fill-opacity="1" stroke="#000000" stroke-opacity="1" stroke-width="3.2"/>
<circle clip-path="url(#clip102)" cx="1132.06" cy="898.088" r="14.4" fill="#e69f00" fill-rule="evenodd" fill-opacity="1" stroke="#000000" stroke-opacity="1" stroke-width="3.2"/>
<circle clip-path="url(#clip102)" cx="891.205" cy="768.813" r="14.4" fill="#e69f00" fill-rule="evenodd" fill-opacity="1" stroke="#000000" stroke-opacity="1" stroke-width="3.2"/>
<circle clip-path="url(#clip102)" cx="807.87" cy="663.81" r="14.4" fill="#e69f00" fill-rule="evenodd" fill-opacity="1" stroke="#000000" stroke-opacity="1" stroke-width="3.2"/>
<circle clip-path="url(#clip102)" cx="2056.49" cy="534.418" r="14.4" fill="#e69f00" fill-rule="evenodd" fill-opacity="1" stroke="#000000" stroke-opacity="1" stroke-width="3.2"/>
<circle clip-path="url(#clip102)" cx="1879.7" cy="685.411" r="14.4" fill="#e69f00" fill-rule="evenodd" fill-opacity="1" stroke="#000000" stroke-opacity="1" stroke-width="3.2"/>
<circle clip-path="url(#clip102)" cx="1670.77" cy="645.601" r="14.4" fill="#e69f00" fill-rule="evenodd" fill-opacity="1" stroke="#000000" stroke-opacity="1" stroke-width="3.2"/>
<circle clip-path="url(#clip102)" cx="1477.41" cy="1042.24" r="14.4" fill="#e69f00" fill-rule="evenodd" fill-opacity="1" stroke="#000000" stroke-opacity="1" stroke-width="3.2"/>
<circle clip-path="url(#clip102)" cx="1426.82" cy="807.401" r="14.4" fill="#e69f00" fill-rule="evenodd" fill-opacity="1" stroke="#000000" stroke-opacity="1" stroke-width="3.2"/>
<circle clip-path="url(#clip102)" cx="1756.73" cy="576.136" r="14.4" fill="#e69f00" fill-rule="evenodd" fill-opacity="1" stroke="#000000" stroke-opacity="1" stroke-width="3.2"/>
<circle clip-path="url(#clip102)" cx="2040.38" cy="547.379" r="14.4" fill="#e69f00" fill-rule="evenodd" fill-opacity="1" stroke="#000000" stroke-opacity="1" stroke-width="3.2"/>
<circle clip-path="url(#clip102)" cx="486.254" cy="619.732" r="14.4" fill="#e69f00" fill-rule="evenodd" fill-opacity="1" stroke="#000000" stroke-opacity="1" stroke-width="3.2"/>
<circle clip-path="url(#clip102)" cx="1797.29" cy="544.738" r="14.4" fill="#e69f00" fill-rule="evenodd" fill-opacity="1" stroke="#000000" stroke-opacity="1" stroke-width="3.2"/>
<circle clip-path="url(#clip102)" cx="833.754" cy="646.624" r="14.4" fill="#e69f00" fill-rule="evenodd" fill-opacity="1" stroke="#000000" stroke-opacity="1" stroke-width="3.2"/>
<circle clip-path="url(#clip102)" cx="610.58" cy="215.16" r="14.4" fill="#e69f00" fill-rule="evenodd" fill-opacity="1" stroke="#000000" stroke-opacity="1" stroke-width="3.2"/>
<circle clip-path="url(#clip102)" cx="1387.9" cy="749.138" r="14.4" fill="#e69f00" fill-rule="evenodd" fill-opacity="1" stroke="#000000" stroke-opacity="1" stroke-width="3.2"/>
<circle clip-path="url(#clip102)" cx="2084.2" cy="563.222" r="14.4" fill="#e69f00" fill-rule="evenodd" fill-opacity="1" stroke="#000000" stroke-opacity="1" stroke-width="3.2"/>
<circle clip-path="url(#clip102)" cx="1473.13" cy="1176.97" r="14.4" fill="#e69f00" fill-rule="evenodd" fill-opacity="1" stroke="#000000" stroke-opacity="1" stroke-width="3.2"/>
<circle clip-path="url(#clip102)" cx="1950.51" cy="641.181" r="14.4" fill="#e69f00" fill-rule="evenodd" fill-opacity="1" stroke="#000000" stroke-opacity="1" stroke-width="3.2"/>
<circle clip-path="url(#clip102)" cx="832.294" cy="460.231" r="14.4" fill="#e69f00" fill-rule="evenodd" fill-opacity="1" stroke="#000000" stroke-opacity="1" stroke-width="3.2"/>
<circle clip-path="url(#clip102)" cx="528.955" cy="582.487" r="14.4" fill="#e69f00" fill-rule="evenodd" fill-opacity="1" stroke="#000000" stroke-opacity="1" stroke-width="3.2"/>
<circle clip-path="url(#clip102)" cx="2134.79" cy="499.919" r="14.4" fill="#e69f00" fill-rule="evenodd" fill-opacity="1" stroke="#000000" stroke-opacity="1" stroke-width="3.2"/>
<circle clip-path="url(#clip102)" cx="2101.65" cy="640.858" r="14.4" fill="#e69f00" fill-rule="evenodd" fill-opacity="1" stroke="#000000" stroke-opacity="1" stroke-width="3.2"/>
<circle clip-path="url(#clip102)" cx="534.915" cy="648.18" r="14.4" fill="#e69f00" fill-rule="evenodd" fill-opacity="1" stroke="#000000" stroke-opacity="1" stroke-width="3.2"/>
<circle clip-path="url(#clip102)" cx="854.405" cy="594.599" r="14.4" fill="#e69f00" fill-rule="evenodd" fill-opacity="1" stroke="#000000" stroke-opacity="1" stroke-width="3.2"/>
<circle clip-path="url(#clip102)" cx="542.003" cy="510.873" r="14.4" fill="#e69f00" fill-rule="evenodd" fill-opacity="1" stroke="#000000" stroke-opacity="1" stroke-width="3.2"/>
<circle clip-path="url(#clip102)" cx="964.569" cy="888.655" r="14.4" fill="#e69f00" fill-rule="evenodd" fill-opacity="1" stroke="#000000" stroke-opacity="1" stroke-width="3.2"/>
<circle clip-path="url(#clip102)" cx="1388.16" cy="975.535" r="14.4" fill="#e69f00" fill-rule="evenodd" fill-opacity="1" stroke="#000000" stroke-opacity="1" stroke-width="3.2"/>
<circle clip-path="url(#clip102)" cx="479.069" cy="665.748" r="14.4" fill="#e69f00" fill-rule="evenodd" fill-opacity="1" stroke="#000000" stroke-opacity="1" stroke-width="3.2"/>
<circle clip-path="url(#clip102)" cx="502.878" cy="533.551" r="14.4" fill="#e69f00" fill-rule="evenodd" fill-opacity="1" stroke="#000000" stroke-opacity="1" stroke-width="3.2"/>
<circle clip-path="url(#clip102)" cx="2070.73" cy="438.892" r="14.4" fill="#e69f00" fill-rule="evenodd" fill-opacity="1" stroke="#000000" stroke-opacity="1" stroke-width="3.2"/>
<circle clip-path="url(#clip102)" cx="2084.25" cy="863.307" r="14.4" fill="#e69f00" fill-rule="evenodd" fill-opacity="1" stroke="#000000" stroke-opacity="1" stroke-width="3.2"/>
<circle clip-path="url(#clip102)" cx="1392.18" cy="941.328" r="14.4" fill="#e69f00" fill-rule="evenodd" fill-opacity="1" stroke="#000000" stroke-opacity="1" stroke-width="3.2"/>
<circle clip-path="url(#clip102)" cx="694.34" cy="772.441" r="14.4" fill="#e69f00" fill-rule="evenodd" fill-opacity="1" stroke="#000000" stroke-opacity="1" stroke-width="3.2"/>
<circle clip-path="url(#clip102)" cx="705.729" cy="598.757" r="14.4" fill="#e69f00" fill-rule="evenodd" fill-opacity="1" stroke="#000000" stroke-opacity="1" stroke-width="3.2"/>
<circle clip-path="url(#clip102)" cx="1864.97" cy="681.982" r="14.4" fill="#e69f00" fill-rule="evenodd" fill-opacity="1" stroke="#000000" stroke-opacity="1" stroke-width="3.2"/>
<circle clip-path="url(#clip102)" cx="2095.58" cy="753.936" r="14.4" fill="#e69f00" fill-rule="evenodd" fill-opacity="1" stroke="#000000" stroke-opacity="1" stroke-width="3.2"/>
<circle clip-path="url(#clip102)" cx="1138.49" cy="887.644" r="14.4" fill="#e69f00" fill-rule="evenodd" fill-opacity="1" stroke="#000000" stroke-opacity="1" stroke-width="3.2"/>
<circle clip-path="url(#clip102)" cx="960.103" cy="1008.52" r="14.4" fill="#e69f00" fill-rule="evenodd" fill-opacity="1" stroke="#000000" stroke-opacity="1" stroke-width="3.2"/>
<circle clip-path="url(#clip102)" cx="584.332" cy="447.469" r="14.4" fill="#e69f00" fill-rule="evenodd" fill-opacity="1" stroke="#000000" stroke-opacity="1" stroke-width="3.2"/>
<circle clip-path="url(#clip102)" cx="1939.91" cy="251.838" r="14.4" fill="#e69f00" fill-rule="evenodd" fill-opacity="1" stroke="#000000" stroke-opacity="1" stroke-width="3.2"/>
<circle clip-path="url(#clip102)" cx="1223.53" cy="1070.91" r="14.4" fill="#e69f00" fill-rule="evenodd" fill-opacity="1" stroke="#000000" stroke-opacity="1" stroke-width="3.2"/>
<circle clip-path="url(#clip102)" cx="457.85" cy="622.643" r="14.4" fill="#e69f00" fill-rule="evenodd" fill-opacity="1" stroke="#000000" stroke-opacity="1" stroke-width="3.2"/>
<circle clip-path="url(#clip102)" cx="594.772" cy="651.993" r="14.4" fill="#e69f00" fill-rule="evenodd" fill-opacity="1" stroke="#000000" stroke-opacity="1" stroke-width="3.2"/>
<circle clip-path="url(#clip102)" cx="402.036" cy="848.133" r="14.4" fill="#e69f00" fill-rule="evenodd" fill-opacity="1" stroke="#000000" stroke-opacity="1" stroke-width="3.2"/>
<circle clip-path="url(#clip102)" cx="1752.38" cy="557.368" r="14.4" fill="#e69f00" fill-rule="evenodd" fill-opacity="1" stroke="#000000" stroke-opacity="1" stroke-width="3.2"/>
<circle clip-path="url(#clip102)" cx="1531.05" cy="847.438" r="14.4" fill="#e69f00" fill-rule="evenodd" fill-opacity="1" stroke="#000000" stroke-opacity="1" stroke-width="3.2"/>
<circle clip-path="url(#clip102)" cx="924.974" cy="609.992" r="14.4" fill="#e69f00" fill-rule="evenodd" fill-opacity="1" stroke="#000000" stroke-opacity="1" stroke-width="3.2"/>
<circle clip-path="url(#clip102)" cx="775.416" cy="607.234" r="14.4" fill="#e69f00" fill-rule="evenodd" fill-opacity="1" stroke="#000000" stroke-opacity="1" stroke-width="3.2"/>
<circle clip-path="url(#clip102)" cx="2195.07" cy="875.455" r="14.4" fill="#e69f00" fill-rule="evenodd" fill-opacity="1" stroke="#000000" stroke-opacity="1" stroke-width="3.2"/>
<circle clip-path="url(#clip102)" cx="1981.61" cy="790.916" r="14.4" fill="#e69f00" fill-rule="evenodd" fill-opacity="1" stroke="#000000" stroke-opacity="1" stroke-width="3.2"/>
<circle clip-path="url(#clip102)" cx="407.123" cy="684.875" r="14.4" fill="#e69f00" fill-rule="evenodd" fill-opacity="1" stroke="#000000" stroke-opacity="1" stroke-width="3.2"/>
<circle clip-path="url(#clip102)" cx="1415.47" cy="965.489" r="14.4" fill="#e69f00" fill-rule="evenodd" fill-opacity="1" stroke="#000000" stroke-opacity="1" stroke-width="3.2"/>
<circle clip-path="url(#clip102)" cx="1955.37" cy="634.812" r="14.4" fill="#e69f00" fill-rule="evenodd" fill-opacity="1" stroke="#000000" stroke-opacity="1" stroke-width="3.2"/>
<circle clip-path="url(#clip102)" cx="2150.5" cy="657.792" r="14.4" fill="#e69f00" fill-rule="evenodd" fill-opacity="1" stroke="#000000" stroke-opacity="1" stroke-width="3.2"/>
<circle clip-path="url(#clip102)" cx="614.998" cy="591.383" r="14.4" fill="#e69f00" fill-rule="evenodd" fill-opacity="1" stroke="#000000" stroke-opacity="1" stroke-width="3.2"/>
<circle clip-path="url(#clip102)" cx="898.322" cy="673.318" r="14.4" fill="#e69f00" fill-rule="evenodd" fill-opacity="1" stroke="#000000" stroke-opacity="1" stroke-width="3.2"/>
<circle clip-path="url(#clip102)" cx="568.903" cy="517.438" r="14.4" fill="#e69f00" fill-rule="evenodd" fill-opacity="1" stroke="#000000" stroke-opacity="1" stroke-width="3.2"/>
<circle clip-path="url(#clip102)" cx="974.82" cy="831.455" r="14.4" fill="#e69f00" fill-rule="evenodd" fill-opacity="1" stroke="#000000" stroke-opacity="1" stroke-width="3.2"/>
<circle clip-path="url(#clip102)" cx="1456.35" cy="796.536" r="14.4" fill="#e69f00" fill-rule="evenodd" fill-opacity="1" stroke="#000000" stroke-opacity="1" stroke-width="3.2"/>
<circle clip-path="url(#clip102)" cx="1004.01" cy="859.392" r="14.4" fill="#e69f00" fill-rule="evenodd" fill-opacity="1" stroke="#000000" stroke-opacity="1" stroke-width="3.2"/>
<circle clip-path="url(#clip102)" cx="2118.83" cy="834.158" r="14.4" fill="#e69f00" fill-rule="evenodd" fill-opacity="1" stroke="#000000" stroke-opacity="1" stroke-width="3.2"/>
<circle clip-path="url(#clip102)" cx="1496.51" cy="1187.44" r="14.4" fill="#e69f00" fill-rule="evenodd" fill-opacity="1" stroke="#000000" stroke-opacity="1" stroke-width="3.2"/>
<circle clip-path="url(#clip102)" cx="540.389" cy="401.032" r="14.4" fill="#e69f00" fill-rule="evenodd" fill-opacity="1" stroke="#000000" stroke-opacity="1" stroke-width="3.2"/>
<circle clip-path="url(#clip102)" cx="1222.37" cy="1111.48" r="14.4" fill="#e69f00" fill-rule="evenodd" fill-opacity="1" stroke="#000000" stroke-opacity="1" stroke-width="3.2"/>
<circle clip-path="url(#clip102)" cx="2194.31" cy="997.544" r="14.4" fill="#e69f00" fill-rule="evenodd" fill-opacity="1" stroke="#000000" stroke-opacity="1" stroke-width="3.2"/>
<circle clip-path="url(#clip102)" cx="1611.18" cy="866.08" r="14.4" fill="#e69f00" fill-rule="evenodd" fill-opacity="1" stroke="#000000" stroke-opacity="1" stroke-width="3.2"/>
<circle clip-path="url(#clip102)" cx="843.285" cy="698.71" r="14.4" fill="#e69f00" fill-rule="evenodd" fill-opacity="1" stroke="#000000" stroke-opacity="1" stroke-width="3.2"/>
<circle clip-path="url(#clip102)" cx="514.769" cy="568.92" r="14.4" fill="#e69f00" fill-rule="evenodd" fill-opacity="1" stroke="#000000" stroke-opacity="1" stroke-width="3.2"/>
<circle clip-path="url(#clip102)" cx="1219.72" cy="1252.76" r="14.4" fill="#e69f00" fill-rule="evenodd" fill-opacity="1" stroke="#000000" stroke-opacity="1" stroke-width="3.2"/>
<circle clip-path="url(#clip102)" cx="1017.41" cy="876.409" r="14.4" fill="#e69f00" fill-rule="evenodd" fill-opacity="1" stroke="#000000" stroke-opacity="1" stroke-width="3.2"/>
<circle clip-path="url(#clip102)" cx="1397.53" cy="795.057" r="14.4" fill="#e69f00" fill-rule="evenodd" fill-opacity="1" stroke="#000000" stroke-opacity="1" stroke-width="3.2"/>
<circle clip-path="url(#clip102)" cx="638.042" cy="524.525" r="14.4" fill="#e69f00" fill-rule="evenodd" fill-opacity="1" stroke="#000000" stroke-opacity="1" stroke-width="3.2"/>
<circle clip-path="url(#clip102)" cx="1323.09" cy="1347.85" r="14.4" fill="#e69f00" fill-rule="evenodd" fill-opacity="1" stroke="#000000" stroke-opacity="1" stroke-width="3.2"/>
<circle clip-path="url(#clip102)" cx="1992.88" cy="381.293" r="14.4" fill="#e69f00" fill-rule="evenodd" fill-opacity="1" stroke="#000000" stroke-opacity="1" stroke-width="3.2"/>
<circle clip-path="url(#clip102)" cx="1411.82" cy="1071.68" r="14.4" fill="#e69f00" fill-rule="evenodd" fill-opacity="1" stroke="#000000" stroke-opacity="1" stroke-width="3.2"/>
<circle clip-path="url(#clip102)" cx="1033.14" cy="985.01" r="14.4" fill="#e69f00" fill-rule="evenodd" fill-opacity="1" stroke="#000000" stroke-opacity="1" stroke-width="3.2"/>
<circle clip-path="url(#clip102)" cx="2123.98" cy="693.337" r="14.4" fill="#e69f00" fill-rule="evenodd" fill-opacity="1" stroke="#000000" stroke-opacity="1" stroke-width="3.2"/>
<circle clip-path="url(#clip102)" cx="1535.84" cy="920.7" r="14.4" fill="#e69f00" fill-rule="evenodd" fill-opacity="1" stroke="#000000" stroke-opacity="1" stroke-width="3.2"/>
<circle clip-path="url(#clip102)" cx="662.653" cy="241.285" r="14.4" fill="#e69f00" fill-rule="evenodd" fill-opacity="1" stroke="#000000" stroke-opacity="1" stroke-width="3.2"/>
<circle clip-path="url(#clip102)" cx="2063.76" cy="734.701" r="14.4" fill="#e69f00" fill-rule="evenodd" fill-opacity="1" stroke="#000000" stroke-opacity="1" stroke-width="3.2"/>
<circle clip-path="url(#clip102)" cx="1810.6" cy="633.587" r="14.4" fill="#e69f00" fill-rule="evenodd" fill-opacity="1" stroke="#000000" stroke-opacity="1" stroke-width="3.2"/>
<circle clip-path="url(#clip102)" cx="1031.41" cy="861.985" r="14.4" fill="#e69f00" fill-rule="evenodd" fill-opacity="1" stroke="#000000" stroke-opacity="1" stroke-width="3.2"/>
<circle clip-path="url(#clip102)" cx="1870.95" cy="580.666" r="14.4" fill="#e69f00" fill-rule="evenodd" fill-opacity="1" stroke="#000000" stroke-opacity="1" stroke-width="3.2"/>
<circle clip-path="url(#clip102)" cx="1479.46" cy="1047.64" r="14.4" fill="#e69f00" fill-rule="evenodd" fill-opacity="1" stroke="#000000" stroke-opacity="1" stroke-width="3.2"/>
<circle clip-path="url(#clip102)" cx="346.661" cy="847.629" r="14.4" fill="#e69f00" fill-rule="evenodd" fill-opacity="1" stroke="#000000" stroke-opacity="1" stroke-width="3.2"/>
<circle clip-path="url(#clip102)" cx="769.065" cy="835.984" r="14.4" fill="#e69f00" fill-rule="evenodd" fill-opacity="1" stroke="#000000" stroke-opacity="1" stroke-width="3.2"/>
<circle clip-path="url(#clip102)" cx="402.456" cy="909.857" r="14.4" fill="#e69f00" fill-rule="evenodd" fill-opacity="1" stroke="#000000" stroke-opacity="1" stroke-width="3.2"/>
<circle clip-path="url(#clip102)" cx="1374.89" cy="955.447" r="14.4" fill="#e69f00" fill-rule="evenodd" fill-opacity="1" stroke="#000000" stroke-opacity="1" stroke-width="3.2"/>
<circle clip-path="url(#clip102)" cx="1204.59" cy="991.178" r="14.4" fill="#e69f00" fill-rule="evenodd" fill-opacity="1" stroke="#000000" stroke-opacity="1" stroke-width="3.2"/>
<circle clip-path="url(#clip102)" cx="1797.5" cy="475.146" r="14.4" fill="#e69f00" fill-rule="evenodd" fill-opacity="1" stroke="#000000" stroke-opacity="1" stroke-width="3.2"/>
<circle clip-path="url(#clip102)" cx="1074.24" cy="994.23" r="14.4" fill="#e69f00" fill-rule="evenodd" fill-opacity="1" stroke="#000000" stroke-opacity="1" stroke-width="3.2"/>
<circle clip-path="url(#clip102)" cx="1541.35" cy="673.406" r="14.4" fill="#e69f00" fill-rule="evenodd" fill-opacity="1" stroke="#000000" stroke-opacity="1" stroke-width="3.2"/>
<circle clip-path="url(#clip102)" cx="1857.41" cy="519.327" r="14.4" fill="#e69f00" fill-rule="evenodd" fill-opacity="1" stroke="#000000" stroke-opacity="1" stroke-width="3.2"/>
<circle clip-path="url(#clip102)" cx="1780.25" cy="537.179" r="14.4" fill="#e69f00" fill-rule="evenodd" fill-opacity="1" stroke="#000000" stroke-opacity="1" stroke-width="3.2"/>
<circle clip-path="url(#clip102)" cx="1664.43" cy="566.858" r="14.4" fill="#e69f00" fill-rule="evenodd" fill-opacity="1" stroke="#000000" stroke-opacity="1" stroke-width="3.2"/>
<circle clip-path="url(#clip102)" cx="412.884" cy="775.195" r="14.4" fill="#e69f00" fill-rule="evenodd" fill-opacity="1" stroke="#000000" stroke-opacity="1" stroke-width="3.2"/>
<circle clip-path="url(#clip102)" cx="1108.63" cy="835.332" r="14.4" fill="#e69f00" fill-rule="evenodd" fill-opacity="1" stroke="#000000" stroke-opacity="1" stroke-width="3.2"/>
<circle clip-path="url(#clip102)" cx="685.995" cy="442.609" r="14.4" fill="#e69f00" fill-rule="evenodd" fill-opacity="1" stroke="#000000" stroke-opacity="1" stroke-width="3.2"/>
<circle clip-path="url(#clip102)" cx="528.115" cy="524.122" r="14.4" fill="#e69f00" fill-rule="evenodd" fill-opacity="1" stroke="#000000" stroke-opacity="1" stroke-width="3.2"/>
<circle clip-path="url(#clip102)" cx="423.71" cy="680.241" r="14.4" fill="#e69f00" fill-rule="evenodd" fill-opacity="1" stroke="#000000" stroke-opacity="1" stroke-width="3.2"/>
<circle clip-path="url(#clip102)" cx="1333.2" cy="1196.76" r="14.4" fill="#e69f00" fill-rule="evenodd" fill-opacity="1" stroke="#000000" stroke-opacity="1" stroke-width="3.2"/>
<circle clip-path="url(#clip102)" cx="432.391" cy="600.139" r="14.4" fill="#e69f00" fill-rule="evenodd" fill-opacity="1" stroke="#000000" stroke-opacity="1" stroke-width="3.2"/>
<circle clip-path="url(#clip102)" cx="2018.29" cy="875.075" r="14.4" fill="#e69f00" fill-rule="evenodd" fill-opacity="1" stroke="#000000" stroke-opacity="1" stroke-width="3.2"/>
<circle clip-path="url(#clip102)" cx="2061.36" cy="870.583" r="14.4" fill="#e69f00" fill-rule="evenodd" fill-opacity="1" stroke="#000000" stroke-opacity="1" stroke-width="3.2"/>
<circle clip-path="url(#clip102)" cx="783.296" cy="728.977" r="14.4" fill="#e69f00" fill-rule="evenodd" fill-opacity="1" stroke="#000000" stroke-opacity="1" stroke-width="3.2"/>
<circle clip-path="url(#clip102)" cx="1006.21" cy="744.283" r="14.4" fill="#e69f00" fill-rule="evenodd" fill-opacity="1" stroke="#000000" stroke-opacity="1" stroke-width="3.2"/>
<circle clip-path="url(#clip102)" cx="1719.53" cy="752.664" r="14.4" fill="#e69f00" fill-rule="evenodd" fill-opacity="1" stroke="#000000" stroke-opacity="1" stroke-width="3.2"/>
<circle clip-path="url(#clip102)" cx="1097.09" cy="1162.15" r="14.4" fill="#e69f00" fill-rule="evenodd" fill-opacity="1" stroke="#000000" stroke-opacity="1" stroke-width="3.2"/>
<circle clip-path="url(#clip102)" cx="1998.14" cy="391.342" r="14.4" fill="#e69f00" fill-rule="evenodd" fill-opacity="1" stroke="#000000" stroke-opacity="1" stroke-width="3.2"/>
<circle clip-path="url(#clip102)" cx="741.314" cy="861.702" r="14.4" fill="#e69f00" fill-rule="evenodd" fill-opacity="1" stroke="#000000" stroke-opacity="1" stroke-width="3.2"/>
<circle clip-path="url(#clip102)" cx="995.595" cy="812.046" r="14.4" fill="#e69f00" fill-rule="evenodd" fill-opacity="1" stroke="#000000" stroke-opacity="1" stroke-width="3.2"/>
<circle clip-path="url(#clip102)" cx="840.492" cy="557.945" r="14.4" fill="#e69f00" fill-rule="evenodd" fill-opacity="1" stroke="#000000" stroke-opacity="1" stroke-width="3.2"/>
<circle clip-path="url(#clip102)" cx="1608.77" cy="628.731" r="14.4" fill="#e69f00" fill-rule="evenodd" fill-opacity="1" stroke="#000000" stroke-opacity="1" stroke-width="3.2"/>
<circle clip-path="url(#clip102)" cx="865.361" cy="869.743" r="14.4" fill="#e69f00" fill-rule="evenodd" fill-opacity="1" stroke="#000000" stroke-opacity="1" stroke-width="3.2"/>
<circle clip-path="url(#clip102)" cx="1319.21" cy="879.608" r="14.4" fill="#e69f00" fill-rule="evenodd" fill-opacity="1" stroke="#000000" stroke-opacity="1" stroke-width="3.2"/>
<circle clip-path="url(#clip102)" cx="452.174" cy="715.22" r="14.4" fill="#e69f00" fill-rule="evenodd" fill-opacity="1" stroke="#000000" stroke-opacity="1" stroke-width="3.2"/>
<circle clip-path="url(#clip102)" cx="702.284" cy="457.354" r="14.4" fill="#e69f00" fill-rule="evenodd" fill-opacity="1" stroke="#000000" stroke-opacity="1" stroke-width="3.2"/>
<circle clip-path="url(#clip102)" cx="1605.39" cy="979.428" r="14.4" fill="#e69f00" fill-rule="evenodd" fill-opacity="1" stroke="#000000" stroke-opacity="1" stroke-width="3.2"/>
<circle clip-path="url(#clip102)" cx="1439.84" cy="1087.78" r="14.4" fill="#e69f00" fill-rule="evenodd" fill-opacity="1" stroke="#000000" stroke-opacity="1" stroke-width="3.2"/>
<circle clip-path="url(#clip102)" cx="369.609" cy="819.729" r="14.4" fill="#e69f00" fill-rule="evenodd" fill-opacity="1" stroke="#000000" stroke-opacity="1" stroke-width="3.2"/>
<circle clip-path="url(#clip102)" cx="975.746" cy="617.424" r="14.4" fill="#e69f00" fill-rule="evenodd" fill-opacity="1" stroke="#000000" stroke-opacity="1" stroke-width="3.2"/>
<circle clip-path="url(#clip102)" cx="355.72" cy="805.351" r="14.4" fill="#e69f00" fill-rule="evenodd" fill-opacity="1" stroke="#000000" stroke-opacity="1" stroke-width="3.2"/>
<circle clip-path="url(#clip102)" cx="364.046" cy="804.801" r="14.4" fill="#e69f00" fill-rule="evenodd" fill-opacity="1" stroke="#000000" stroke-opacity="1" stroke-width="3.2"/>
<circle clip-path="url(#clip102)" cx="1939.86" cy="665.903" r="14.4" fill="#e69f00" fill-rule="evenodd" fill-opacity="1" stroke="#000000" stroke-opacity="1" stroke-width="3.2"/>
<circle clip-path="url(#clip102)" cx="968.62" cy="1002" r="14.4" fill="#e69f00" fill-rule="evenodd" fill-opacity="1" stroke="#000000" stroke-opacity="1" stroke-width="3.2"/>
<circle clip-path="url(#clip102)" cx="1262.03" cy="1102.13" r="14.4" fill="#e69f00" fill-rule="evenodd" fill-opacity="1" stroke="#000000" stroke-opacity="1" stroke-width="3.2"/>
<circle clip-path="url(#clip102)" cx="1322.66" cy="1034.05" r="14.4" fill="#e69f00" fill-rule="evenodd" fill-opacity="1" stroke="#000000" stroke-opacity="1" stroke-width="3.2"/>
<circle clip-path="url(#clip102)" cx="1130.28" cy="1088.33" r="14.4" fill="#e69f00" fill-rule="evenodd" fill-opacity="1" stroke="#000000" stroke-opacity="1" stroke-width="3.2"/>
<circle clip-path="url(#clip102)" cx="2078.34" cy="718.48" r="14.4" fill="#e69f00" fill-rule="evenodd" fill-opacity="1" stroke="#000000" stroke-opacity="1" stroke-width="3.2"/>
<circle clip-path="url(#clip102)" cx="1527.89" cy="971.567" r="14.4" fill="#e69f00" fill-rule="evenodd" fill-opacity="1" stroke="#000000" stroke-opacity="1" stroke-width="3.2"/>
<circle clip-path="url(#clip102)" cx="718.69" cy="558.545" r="14.4" fill="#e69f00" fill-rule="evenodd" fill-opacity="1" stroke="#000000" stroke-opacity="1" stroke-width="3.2"/>
<circle clip-path="url(#clip102)" cx="1292.76" cy="962.565" r="14.4" fill="#e69f00" fill-rule="evenodd" fill-opacity="1" stroke="#000000" stroke-opacity="1" stroke-width="3.2"/>
<circle clip-path="url(#clip102)" cx="1438.12" cy="961.62" r="14.4" fill="#e69f00" fill-rule="evenodd" fill-opacity="1" stroke="#000000" stroke-opacity="1" stroke-width="3.2"/>
<path clip-path="url(#clip102)" d="
M147.478 1155.83 L192.484 1155.83 L237.489 1155.83 L282.495 1155.83 L327.501 1155.83 L372.506 1098.93 L417.512 1061.16 L462.518 991.538 L507.523 958.796 L552.529 957.867 
  L597.535 957.867 L642.54 957.867 L687.546 957.867 L732.552 967.61 L777.557 991.946 L822.563 1026.42 L867.569 1072.37 L912.574 1118.67 L957.58 1120.47 L1002.59 1190.51 
  L1047.59 1190.84 L1092.6 1227.58 L1137.6 1248.78 L1182.61 1250.81 L1227.61 1269.3 L1272.62 1269.3 L1317.63 1269.3 L1362.63 1269.3 L1407.64 1205 L1452.64 1178.43 
  L1497.65 1145.16 L1542.65 1130.19 L1587.66 1092.36 L1632.67 1073.93 L1677.67 1062.22 L1722.68 1020.77 L1767.68 946.563 L1812.69 930.945 L1857.69 930.945 L1902.7 912.547 
  L1947.7 937.673 L1992.71 961.001 L2037.72 1050.48 L2082.72 1067.86 L2127.73 1108.09 L2172.73 1182.57 L2217.74 1183.14 L2262.74 1183.14 L2307.75 1183.14 L2352.76 1183.14 
  L2352.76 544.894 L2307.75 544.894 L2262.74 544.894 L2217.74 544.894 L2172.73 531.251 L2127.73 453.172 L2082.72 449.38 L2037.72 427.38 L1992.71 314.537 L1947.7 314.537 
  L1902.7 283.942 L1857.69 288.609 L1812.69 288.609 L1767.68 303.921 L1722.68 367.332 L1677.67 441.112 L1632.67 450.898 L1587.66 460.626 L1542.65 511.112 L1497.65 519.236 
  L1452.64 540.594 L1407.64 587.274 L1362.63 645.933 L1317.63 645.933 L1272.62 645.933 L1227.61 645.933 L1182.61 628.813 L1137.6 622.839 L1092.6 592.691 L1047.59 563.745 
  L1002.59 547.585 L957.58 507.172 L912.574 498.098 L867.569 445.739 L822.563 398.739 L777.557 357.759 L732.552 339.068 L687.546 338.575 L642.54 338.575 L597.535 338.575 
  L552.529 338.598 L507.523 338.598 L462.518 366.158 L417.512 438.446 L372.506 459.703 L327.501 522.12 L282.495 522.12 L237.489 522.12 L192.484 522.12 L147.478 522.12 
   Z
  " fill="#56b4e9" fill-rule="evenodd" fill-opacity="0.5"/>
<polyline clip-path="url(#clip102)" style="stroke:#56b4e9; stroke-linecap:round; stroke-linejoin:round; stroke-width:16; stroke-opacity:1; fill:none" points="
  147.478,838.974 192.484,838.974 237.489,838.974 282.495,838.974 327.501,838.974 372.506,779.318 417.512,749.804 462.518,678.848 507.523,648.697 552.529,648.233 
  597.535,648.221 642.54,648.221 687.546,648.221 732.552,653.339 777.557,674.852 822.563,712.58 867.569,759.056 912.574,808.384 957.58,813.821 1002.59,869.048 
  1047.59,877.291 1092.6,910.137 1137.6,935.812 1182.61,939.812 1227.61,957.617 1272.62,957.617 1317.63,957.617 1362.63,957.617 1407.64,896.139 1452.64,859.514 
  1497.65,832.2 1542.65,820.649 1587.66,776.491 1632.67,762.412 1677.67,751.664 1722.68,694.051 1767.68,625.242 1812.69,609.777 1857.69,609.777 1902.7,598.244 
  1947.7,626.105 1992.71,637.769 2037.72,738.929 2082.72,758.619 2127.73,780.631 2172.73,856.911 2217.74,864.018 2262.74,864.018 2307.75,864.018 2352.76,864.018 
  
  "/>
<polyline clip-path="url(#clip102)" style="stroke:#000000; stroke-linecap:round; stroke-linejoin:round; stroke-width:4; stroke-opacity:1; fill:none" stroke-dasharray="16, 10" points="
  145.62,1394.61 149.305,1382.87 152.991,1371.15 156.677,1359.47 160.362,1347.81 164.048,1336.19 167.733,1324.6 171.419,1313.04 175.104,1301.53 178.79,1290.05 
  182.476,1278.61 186.161,1267.22 189.847,1255.87 193.532,1244.56 197.218,1233.31 200.904,1222.1 204.589,1210.95 208.275,1199.85 211.96,1188.81 215.646,1177.82 
  219.331,1166.89 223.017,1156.01 226.703,1145.2 230.388,1134.46 234.074,1123.78 237.759,1113.16 241.445,1102.61 245.131,1092.13 248.816,1081.72 252.502,1071.38 
  256.187,1061.12 259.873,1050.93 263.558,1040.82 267.244,1030.78 270.93,1020.82 274.615,1010.95 278.301,1001.15 281.986,991.441 285.672,981.813 289.358,972.27 
  293.043,962.814 296.729,953.446 300.414,944.166 304.1,934.977 307.785,925.879 311.471,916.873 315.157,907.96 318.842,899.142 322.528,890.42 326.213,881.794 
  329.899,873.265 333.584,864.836 337.27,856.505 340.956,848.275 344.641,840.146 348.327,832.12 352.012,824.196 355.698,816.376 359.384,808.661 363.069,801.051 
  366.755,793.548 370.44,786.151 374.126,778.862 377.811,771.682 381.497,764.61 385.183,757.648 388.868,750.796 392.554,744.055 396.239,737.425 399.925,730.907 
  403.611,724.502 407.296,718.209 410.982,712.03 414.667,705.964 418.353,700.013 422.038,694.176 425.724,688.455 429.41,682.848 433.095,677.357 436.781,671.983 
  440.466,666.724 444.152,661.581 447.838,656.556 451.523,651.647 455.209,646.855 458.894,642.18 462.58,637.622 466.265,633.182 469.951,628.859 473.637,624.654 
  477.322,620.566 481.008,616.595 484.693,612.742 488.379,609.006 492.065,605.388 495.75,601.887 499.436,598.503 503.121,595.236 506.807,592.085 510.492,589.051 
  514.178,586.134 517.864,583.333 521.549,580.647 525.235,578.077 528.92,575.623 532.606,573.283 536.292,571.058 539.977,568.947 543.663,566.95 547.348,565.066 
  551.034,563.295 554.719,561.637 558.405,560.091 562.091,558.656 565.776,557.332 569.462,556.119 573.147,555.016 576.833,554.021 580.518,553.136 584.204,552.358 
  587.89,551.688 591.575,551.125 595.261,550.667 598.946,550.315 602.632,550.068 606.318,549.924 610.003,549.883 613.689,549.945 617.374,550.108 621.06,550.372 
  624.745,550.735 628.431,551.198 632.117,551.758 635.802,552.416 639.488,553.17 643.173,554.019 646.859,554.963 650.545,556 654.23,557.13 657.916,558.351 
  661.601,559.662 665.287,561.063 668.972,562.553 672.658,564.129 676.344,565.792 680.029,567.54 683.715,569.372 687.4,571.287 691.086,573.284 694.772,575.362 
  698.457,577.519 702.143,579.755 705.828,582.068 709.514,584.457 713.199,586.92 716.885,589.458 720.571,592.067 724.256,594.748 727.942,597.499 731.627,600.318 
  735.313,603.205 738.999,606.158 742.684,609.175 746.37,612.256 750.055,615.4 753.741,618.604 757.426,621.868 761.112,625.19 764.798,628.569 768.483,632.004 
  772.169,635.492 775.854,639.034 779.54,642.627 783.226,646.27 786.911,649.962 790.597,653.701 794.282,657.486 797.968,661.316 801.653,665.189 805.339,669.104 
  809.025,673.059 812.71,677.053 816.396,681.084 820.081,685.152 823.767,689.254 827.453,693.39 831.138,697.557 834.824,701.755 838.509,705.981 842.195,710.235 
  845.88,714.516 849.566,718.821 853.252,723.149 856.937,727.499 860.623,731.869 864.308,736.259 867.994,740.666 871.679,745.088 875.365,749.526 879.051,753.977 
  882.736,758.439 886.422,762.912 890.107,767.394 893.793,771.883 897.479,776.379 901.164,780.879 904.85,785.382 908.535,789.888 912.221,794.394 915.906,798.898 
  919.592,803.401 923.278,807.9 926.963,812.394 930.649,816.881 934.334,821.361 938.02,825.832 941.706,830.292 945.391,834.74 949.077,839.175 952.762,843.595 
  956.448,848 960.133,852.387 963.819,856.757 967.505,861.106 971.19,865.434 974.876,869.74 978.561,874.022 982.247,878.28 985.933,882.512 989.618,886.716 
  993.304,890.891 996.989,895.037 1000.67,899.152 1004.36,903.235 1008.05,907.284 1011.73,911.299 1015.42,915.278 1019.1,919.22 1022.79,923.125 1026.47,926.99 
  1030.16,930.815 1033.85,934.599 1037.53,938.34 1041.22,942.039 1044.9,945.692 1048.59,949.3 1052.27,952.862 1055.96,956.376 1059.64,959.842 1063.33,963.258 
  1067.02,966.623 1070.7,969.937 1074.39,973.199 1078.07,976.408 1081.76,979.562 1085.44,982.661 1089.13,985.705 1092.81,988.691 1096.5,991.62 1100.19,994.491 
  1103.87,997.302 1107.56,1000.05 1111.24,1002.74 1114.93,1005.37 1118.61,1007.94 1122.3,1010.44 1125.98,1012.88 1129.67,1015.26 1133.36,1017.57 1137.04,1019.82 
  1140.73,1022 1144.41,1024.11 1148.1,1026.15 1151.78,1028.13 1155.47,1030.04 1159.15,1031.88 1162.84,1033.65 1166.53,1035.35 1170.21,1036.98 1173.9,1038.53 
  1177.58,1040.02 1181.27,1041.44 1184.95,1042.78 1188.64,1044.05 1192.33,1045.25 1196.01,1046.37 1199.7,1047.42 1203.38,1048.4 1207.07,1049.3 1210.75,1050.13 
  1214.44,1050.88 1218.12,1051.56 1221.81,1052.16 1225.5,1052.69 1229.18,1053.15 1232.87,1053.52 1236.55,1053.83 1240.24,1054.05 1243.92,1054.21 1247.61,1054.28 
  1251.29,1054.28 1254.98,1054.21 1258.67,1054.05 1262.35,1053.83 1266.04,1053.52 1269.72,1053.15 1273.41,1052.69 1277.09,1052.16 1280.78,1051.56 1284.46,1050.88 
  1288.15,1050.13 1291.84,1049.3 1295.52,1048.4 1299.21,1047.42 1302.89,1046.37 1306.58,1045.25 1310.26,1044.05 1313.95,1042.78 1317.63,1041.44 1321.32,1040.02 
  1325.01,1038.53 1328.69,1036.98 1332.38,1035.35 1336.06,1033.65 1339.75,1031.88 1343.43,1030.04 1347.12,1028.13 1350.81,1026.15 1354.49,1024.11 1358.18,1022 
  1361.86,1019.82 1365.55,1017.57 1369.23,1015.26 1372.92,1012.88 1376.6,1010.44 1380.29,1007.94 1383.98,1005.37 1387.66,1002.74 1391.35,1000.05 1395.03,997.302 
  1398.72,994.491 1402.4,991.62 1406.09,988.691 1409.77,985.705 1413.46,982.661 1417.15,979.562 1420.83,976.408 1424.52,973.199 1428.2,969.937 1431.89,966.623 
  1435.57,963.258 1439.26,959.842 1442.94,956.376 1446.63,952.862 1450.32,949.3 1454,945.692 1457.69,942.039 1461.37,938.34 1465.06,934.599 1468.74,930.815 
  1472.43,926.99 1476.11,923.125 1479.8,919.22 1483.49,915.278 1487.17,911.299 1490.86,907.284 1494.54,903.235 1498.23,899.152 1501.91,895.037 1505.6,890.891 
  1509.29,886.716 1512.97,882.512 1516.66,878.28 1520.34,874.022 1524.03,869.74 1527.71,865.434 1531.4,861.106 1535.08,856.757 1538.77,852.387 1542.46,848 
  1546.14,843.595 1549.83,839.175 1553.51,834.74 1557.2,830.292 1560.88,825.832 1564.57,821.361 1568.25,816.881 1571.94,812.394 1575.63,807.9 1579.31,803.401 
  1583,798.898 1586.68,794.394 1590.37,789.888 1594.05,785.382 1597.74,780.879 1601.42,776.379 1605.11,771.883 1608.8,767.394 1612.48,762.912 1616.17,758.439 
  1619.85,753.977 1623.54,749.526 1627.22,745.088 1630.91,740.666 1634.59,736.259 1638.28,731.869 1641.97,727.499 1645.65,723.149 1649.34,718.821 1653.02,714.516 
  1656.71,710.235 1660.39,705.981 1664.08,701.755 1667.77,697.557 1671.45,693.39 1675.14,689.254 1678.82,685.152 1682.51,681.084 1686.19,677.053 1689.88,673.059 
  1693.56,669.104 1697.25,665.189 1700.94,661.316 1704.62,657.486 1708.31,653.701 1711.99,649.962 1715.68,646.27 1719.36,642.627 1723.05,639.034 1726.73,635.492 
  1730.42,632.004 1734.11,628.569 1737.79,625.19 1741.48,621.868 1745.16,618.604 1748.85,615.4 1752.53,612.256 1756.22,609.175 1759.9,606.158 1763.59,603.205 
  1767.28,600.318 1770.96,597.499 1774.65,594.748 1778.33,592.067 1782.02,589.458 1785.7,586.92 1789.39,584.457 1793.08,582.068 1796.76,579.755 1800.45,577.519 
  1804.13,575.362 1807.82,573.284 1811.5,571.287 1815.19,569.372 1818.87,567.54 1822.56,565.792 1826.25,564.129 1829.93,562.553 1833.62,561.063 1837.3,559.662 
  1840.99,558.351 1844.67,557.13 1848.36,556 1852.04,554.963 1855.73,554.019 1859.42,553.17 1863.1,552.416 1866.79,551.758 1870.47,551.198 1874.16,550.735 
  1877.84,550.372 1881.53,550.108 1885.21,549.945 1888.9,549.883 1892.59,549.924 1896.27,550.068 1899.96,550.315 1903.64,550.667 1907.33,551.125 1911.01,551.688 
  1914.7,552.358 1918.38,553.136 1922.07,554.021 1925.76,555.016 1929.44,556.119 1933.13,557.332 1936.81,558.656 1940.5,560.091 1944.18,561.637 1947.87,563.295 
  1951.56,565.066 1955.24,566.95 1958.93,568.947 1962.61,571.058 1966.3,573.283 1969.98,575.623 1973.67,578.077 1977.35,580.647 1981.04,583.333 1984.73,586.134 
  1988.41,589.051 1992.1,592.085 1995.78,595.236 1999.47,598.503 2003.15,601.887 2006.84,605.388 2010.52,609.006 2014.21,612.742 2017.9,616.595 2021.58,620.566 
  2025.27,624.654 2028.95,628.859 2032.64,633.182 2036.32,637.622 2040.01,642.18 2043.69,646.855 2047.38,651.647 2051.07,656.556 2054.75,661.581 2058.44,666.724 
  2062.12,671.983 2065.81,677.357 2069.49,682.848 2073.18,688.455 2076.86,694.176 2080.55,700.013 2084.24,705.964 2087.92,712.03 2091.61,718.209 2095.29,724.502 
  2098.98,730.907 2102.66,737.425 2106.35,744.055 2110.04,750.796 2113.72,757.648 2117.41,764.61 2121.09,771.682 2124.78,778.862 2128.46,786.151 2132.15,793.548 
  2135.83,801.051 2139.52,808.661 2143.21,816.376 2146.89,824.196 2150.58,832.12 2154.26,840.146 2157.95,848.275 2161.63,856.505 2165.32,864.836 2169,873.265 
  2172.69,881.794 2176.38,890.42 2180.06,899.142 2183.75,907.96 2187.43,916.873 2191.12,925.879 2194.8,934.977 2198.49,944.166 2202.17,953.446 2205.86,962.814 
  2209.55,972.27 2213.23,981.813 2216.92,991.441 2220.6,1001.15 2224.29,1010.95 2227.97,1020.82 2231.66,1030.78 2235.34,1040.82 2239.03,1050.93 2242.72,1061.12 
  2246.4,1071.38 2250.09,1081.72 2253.77,1092.13 2257.46,1102.61 2261.14,1113.16 2264.83,1123.78 2268.52,1134.46 2272.2,1145.2 2275.89,1156.01 2279.57,1166.89 
  2283.26,1177.82 2286.94,1188.81 2290.63,1199.85 2294.31,1210.95 2298,1222.1 2301.69,1233.31 2305.37,1244.56 2309.06,1255.87 2312.74,1267.22 2316.43,1278.61 
  2320.11,1290.05 2323.8,1301.53 2327.48,1313.04 2331.17,1324.6 2334.86,1336.19 2338.54,1347.81 2342.23,1359.47 2345.91,1371.15 2349.6,1382.87 2353.28,1394.61 
  
  "/>
<path clip-path="url(#clip100)" d="
M220.987 302.578 L741.027 302.578 L741.027 95.2176 L220.987 95.2176  Z
  " fill="#ffffff" fill-rule="evenodd" fill-opacity="1"/>
<polyline clip-path="url(#clip100)" style="stroke:#000000; stroke-linecap:round; stroke-linejoin:round; stroke-width:4; stroke-opacity:1; fill:none" points="
  220.987,302.578 741.027,302.578 741.027,95.2176 220.987,95.2176 220.987,302.578 
  "/>
<circle clip-path="url(#clip100)" cx="319" cy="147.058" r="23.04" fill="#e69f00" fill-rule="evenodd" fill-opacity="1" stroke="#000000" stroke-opacity="1" stroke-width="5.12"/>
<path clip-path="url(#clip100)" d="M417.012 129.778 L446.248 129.778 L446.248 133.713 L433.979 133.713 L433.979 164.338 L429.28 164.338 L429.28 133.713 L417.012 133.713 L417.012 129.778 Z" fill="#000000" fill-rule="evenodd" fill-opacity="1" /><path clip-path="url(#clip100)" d="M464.697 150.31 L464.697 152.393 L445.114 152.393 Q445.391 156.791 447.752 159.106 Q450.137 161.398 454.373 161.398 Q456.826 161.398 459.118 160.796 Q461.433 160.194 463.701 158.99 L463.701 163.018 Q461.41 163.99 459.002 164.5 Q456.595 165.009 454.118 165.009 Q447.915 165.009 444.28 161.398 Q440.669 157.787 440.669 151.629 Q440.669 145.264 444.095 141.537 Q447.544 137.787 453.377 137.787 Q458.609 137.787 461.641 141.166 Q464.697 144.523 464.697 150.31 M460.438 149.06 Q460.391 145.565 458.47 143.481 Q456.572 141.398 453.424 141.398 Q449.859 141.398 447.706 143.412 Q445.577 145.426 445.252 149.083 L460.438 149.06 Z" fill="#000000" fill-rule="evenodd" fill-opacity="1" /><path clip-path="url(#clip100)" d="M488.215 139.176 L488.215 143.203 Q486.41 142.277 484.465 141.815 Q482.521 141.352 480.437 141.352 Q477.266 141.352 475.669 142.324 Q474.095 143.296 474.095 145.24 Q474.095 146.722 475.229 147.578 Q476.363 148.412 479.789 149.176 L481.248 149.5 Q485.785 150.472 487.683 152.254 Q489.604 154.014 489.604 157.185 Q489.604 160.796 486.734 162.902 Q483.887 165.009 478.887 165.009 Q476.803 165.009 474.535 164.592 Q472.289 164.199 469.789 163.388 L469.789 158.99 Q472.15 160.217 474.442 160.842 Q476.734 161.444 478.979 161.444 Q481.988 161.444 483.609 160.426 Q485.229 159.384 485.229 157.509 Q485.229 155.773 484.049 154.847 Q482.891 153.921 478.933 153.064 L477.451 152.717 Q473.493 151.884 471.734 150.171 Q469.975 148.435 469.975 145.426 Q469.975 141.768 472.567 139.778 Q475.16 137.787 479.928 137.787 Q482.289 137.787 484.373 138.134 Q486.456 138.481 488.215 139.176 Z" fill="#000000" fill-rule="evenodd" fill-opacity="1" /><path clip-path="url(#clip100)" d="M500.599 131.051 L500.599 138.412 L509.373 138.412 L509.373 141.722 L500.599 141.722 L500.599 155.796 Q500.599 158.967 501.456 159.87 Q502.336 160.773 504.998 160.773 L509.373 160.773 L509.373 164.338 L504.998 164.338 Q500.067 164.338 498.192 162.509 Q496.317 160.657 496.317 155.796 L496.317 141.722 L493.192 141.722 L493.192 138.412 L496.317 138.412 L496.317 131.051 L500.599 131.051 Z" fill="#000000" fill-rule="evenodd" fill-opacity="1" /><path clip-path="url(#clip100)" d="M534.164 160.449 L534.164 174.199 L529.882 174.199 L529.882 138.412 L534.164 138.412 L534.164 142.347 Q535.507 140.032 537.544 138.921 Q539.604 137.787 542.451 137.787 Q547.173 137.787 550.113 141.537 Q553.076 145.287 553.076 151.398 Q553.076 157.509 550.113 161.259 Q547.173 165.009 542.451 165.009 Q539.604 165.009 537.544 163.898 Q535.507 162.763 534.164 160.449 M548.655 151.398 Q548.655 146.699 546.71 144.037 Q544.789 141.352 541.409 141.352 Q538.03 141.352 536.085 144.037 Q534.164 146.699 534.164 151.398 Q534.164 156.097 536.085 158.782 Q538.03 161.444 541.409 161.444 Q544.789 161.444 546.71 158.782 Q548.655 156.097 548.655 151.398 Z" fill="#000000" fill-rule="evenodd" fill-opacity="1" /><path clip-path="url(#clip100)" d="M570.182 141.398 Q566.756 141.398 564.766 144.083 Q562.775 146.745 562.775 151.398 Q562.775 156.051 564.743 158.736 Q566.733 161.398 570.182 161.398 Q573.585 161.398 575.576 158.713 Q577.567 156.027 577.567 151.398 Q577.567 146.791 575.576 144.106 Q573.585 141.398 570.182 141.398 M570.182 137.787 Q575.738 137.787 578.909 141.398 Q582.08 145.009 582.08 151.398 Q582.08 157.764 578.909 161.398 Q575.738 165.009 570.182 165.009 Q564.604 165.009 561.432 161.398 Q558.284 157.764 558.284 151.398 Q558.284 145.009 561.432 141.398 Q564.604 137.787 570.182 137.787 Z" fill="#000000" fill-rule="evenodd" fill-opacity="1" /><path clip-path="url(#clip100)" d="M589.141 138.412 L593.4 138.412 L593.4 164.338 L589.141 164.338 L589.141 138.412 M589.141 128.319 L593.4 128.319 L593.4 133.713 L589.141 133.713 L589.141 128.319 Z" fill="#000000" fill-rule="evenodd" fill-opacity="1" /><path clip-path="url(#clip100)" d="M623.863 148.689 L623.863 164.338 L619.603 164.338 L619.603 148.828 Q619.603 145.148 618.168 143.319 Q616.733 141.49 613.863 141.49 Q610.414 141.49 608.423 143.69 Q606.432 145.889 606.432 149.685 L606.432 164.338 L602.15 164.338 L602.15 138.412 L606.432 138.412 L606.432 142.44 Q607.96 140.102 610.02 138.944 Q612.103 137.787 614.812 137.787 Q619.279 137.787 621.571 140.565 Q623.863 143.319 623.863 148.689 Z" fill="#000000" fill-rule="evenodd" fill-opacity="1" /><path clip-path="url(#clip100)" d="M636.571 131.051 L636.571 138.412 L645.344 138.412 L645.344 141.722 L636.571 141.722 L636.571 155.796 Q636.571 158.967 637.427 159.87 Q638.307 160.773 640.969 160.773 L645.344 160.773 L645.344 164.338 L640.969 164.338 Q636.038 164.338 634.164 162.509 Q632.289 160.657 632.289 155.796 L632.289 141.722 L629.164 141.722 L629.164 138.412 L632.289 138.412 L632.289 131.051 L636.571 131.051 Z" fill="#000000" fill-rule="evenodd" fill-opacity="1" /><path clip-path="url(#clip100)" d="M667.474 139.176 L667.474 143.203 Q665.668 142.277 663.724 141.815 Q661.779 141.352 659.696 141.352 Q656.524 141.352 654.927 142.324 Q653.353 143.296 653.353 145.24 Q653.353 146.722 654.487 147.578 Q655.622 148.412 659.048 149.176 L660.506 149.5 Q665.043 150.472 666.941 152.254 Q668.862 154.014 668.862 157.185 Q668.862 160.796 665.992 162.902 Q663.145 165.009 658.145 165.009 Q656.062 165.009 653.793 164.592 Q651.548 164.199 649.048 163.388 L649.048 158.99 Q651.409 160.217 653.7 160.842 Q655.992 161.444 658.237 161.444 Q661.247 161.444 662.867 160.426 Q664.487 159.384 664.487 157.509 Q664.487 155.773 663.307 154.847 Q662.149 153.921 658.191 153.064 L656.71 152.717 Q652.751 151.884 650.992 150.171 Q649.233 148.435 649.233 145.426 Q649.233 141.768 651.825 139.778 Q654.418 137.787 659.187 137.787 Q661.548 137.787 663.631 138.134 Q665.714 138.481 667.474 139.176 Z" fill="#000000" fill-rule="evenodd" fill-opacity="1" /><polyline clip-path="url(#clip100)" style="stroke:#56b4e9; stroke-linecap:round; stroke-linejoin:round; stroke-width:16; stroke-opacity:1; fill:none" points="
  245.49,198.898 392.509,198.898 
  "/>
<path clip-path="url(#clip100)" d="M421.688 185.46 L421.688 198.446 L427.567 198.446 Q430.831 198.446 432.614 196.756 Q434.396 195.067 434.396 191.942 Q434.396 188.84 432.614 187.15 Q430.831 185.46 427.567 185.46 L421.688 185.46 M417.012 181.618 L427.567 181.618 Q433.378 181.618 436.34 184.256 Q439.327 186.872 439.327 191.942 Q439.327 197.057 436.34 199.673 Q433.378 202.289 427.567 202.289 L421.688 202.289 L421.688 216.178 L417.012 216.178 L417.012 181.618 Z" fill="#000000" fill-rule="evenodd" fill-opacity="1" /><path clip-path="url(#clip100)" d="M459.604 194.233 Q458.887 193.817 458.03 193.631 Q457.197 193.423 456.178 193.423 Q452.567 193.423 450.623 195.784 Q448.702 198.122 448.702 202.52 L448.702 216.178 L444.419 216.178 L444.419 190.252 L448.702 190.252 L448.702 194.28 Q450.044 191.918 452.197 190.784 Q454.35 189.627 457.428 189.627 Q457.868 189.627 458.401 189.696 Q458.933 189.743 459.581 189.858 L459.604 194.233 Z" fill="#000000" fill-rule="evenodd" fill-opacity="1" /><path clip-path="url(#clip100)" d="M485.206 202.15 L485.206 204.233 L465.623 204.233 Q465.901 208.631 468.262 210.946 Q470.646 213.238 474.882 213.238 Q477.336 213.238 479.627 212.636 Q481.942 212.034 484.211 210.83 L484.211 214.858 Q481.919 215.83 479.512 216.34 Q477.104 216.849 474.627 216.849 Q468.424 216.849 464.789 213.238 Q461.178 209.627 461.178 203.469 Q461.178 197.104 464.604 193.377 Q468.053 189.627 473.887 189.627 Q479.118 189.627 482.15 193.006 Q485.206 196.363 485.206 202.15 M480.947 200.9 Q480.9 197.405 478.979 195.321 Q477.081 193.238 473.933 193.238 Q470.368 193.238 468.215 195.252 Q466.086 197.266 465.762 200.923 L480.947 200.9 Z" fill="#000000" fill-rule="evenodd" fill-opacity="1" /><path clip-path="url(#clip100)" d="M509.257 194.187 L509.257 180.159 L513.516 180.159 L513.516 216.178 L509.257 216.178 L509.257 212.289 Q507.914 214.603 505.854 215.738 Q503.817 216.849 500.947 216.849 Q496.248 216.849 493.285 213.099 Q490.345 209.349 490.345 203.238 Q490.345 197.127 493.285 193.377 Q496.248 189.627 500.947 189.627 Q503.817 189.627 505.854 190.761 Q507.914 191.872 509.257 194.187 M494.743 203.238 Q494.743 207.937 496.664 210.622 Q498.609 213.284 501.988 213.284 Q505.368 213.284 507.312 210.622 Q509.257 207.937 509.257 203.238 Q509.257 198.539 507.312 195.877 Q505.368 193.192 501.988 193.192 Q498.609 193.192 496.664 195.877 Q494.743 198.539 494.743 203.238 Z" fill="#000000" fill-rule="evenodd" fill-opacity="1" /><path clip-path="url(#clip100)" d="M522.289 190.252 L526.548 190.252 L526.548 216.178 L522.289 216.178 L522.289 190.252 M522.289 180.159 L526.548 180.159 L526.548 185.553 L522.289 185.553 L522.289 180.159 Z" fill="#000000" fill-rule="evenodd" fill-opacity="1" /><path clip-path="url(#clip100)" d="M554.118 191.247 L554.118 195.229 Q552.312 194.233 550.483 193.747 Q548.678 193.238 546.826 193.238 Q542.683 193.238 540.391 195.877 Q538.099 198.492 538.099 203.238 Q538.099 207.983 540.391 210.622 Q542.683 213.238 546.826 213.238 Q548.678 213.238 550.483 212.752 Q552.312 212.242 554.118 211.247 L554.118 215.182 Q552.335 216.016 550.414 216.432 Q548.516 216.849 546.363 216.849 Q540.507 216.849 537.058 213.168 Q533.608 209.488 533.608 203.238 Q533.608 196.895 537.081 193.261 Q540.576 189.627 546.641 189.627 Q548.608 189.627 550.483 190.043 Q552.358 190.437 554.118 191.247 Z" fill="#000000" fill-rule="evenodd" fill-opacity="1" /><path clip-path="url(#clip100)" d="M565.738 182.891 L565.738 190.252 L574.511 190.252 L574.511 193.562 L565.738 193.562 L565.738 207.636 Q565.738 210.807 566.594 211.71 Q567.474 212.613 570.136 212.613 L574.511 212.613 L574.511 216.178 L570.136 216.178 Q565.206 216.178 563.331 214.349 Q561.456 212.497 561.456 207.636 L561.456 193.562 L558.331 193.562 L558.331 190.252 L561.456 190.252 L561.456 182.891 L565.738 182.891 Z" fill="#000000" fill-rule="evenodd" fill-opacity="1" /><path clip-path="url(#clip100)" d="M602.289 202.15 L602.289 204.233 L582.705 204.233 Q582.983 208.631 585.344 210.946 Q587.729 213.238 591.965 213.238 Q594.418 213.238 596.71 212.636 Q599.025 212.034 601.293 210.83 L601.293 214.858 Q599.002 215.83 596.594 216.34 Q594.187 216.849 591.71 216.849 Q585.506 216.849 581.872 213.238 Q578.261 209.627 578.261 203.469 Q578.261 197.104 581.687 193.377 Q585.136 189.627 590.969 189.627 Q596.201 189.627 599.233 193.006 Q602.289 196.363 602.289 202.15 M598.029 200.9 Q597.983 197.405 596.062 195.321 Q594.164 193.238 591.016 193.238 Q587.451 193.238 585.298 195.252 Q583.168 197.266 582.844 200.923 L598.029 200.9 Z" fill="#000000" fill-rule="evenodd" fill-opacity="1" /><path clip-path="url(#clip100)" d="M626.339 194.187 L626.339 180.159 L630.599 180.159 L630.599 216.178 L626.339 216.178 L626.339 212.289 Q624.997 214.603 622.937 215.738 Q620.9 216.849 618.029 216.849 Q613.33 216.849 610.367 213.099 Q607.428 209.349 607.428 203.238 Q607.428 197.127 610.367 193.377 Q613.33 189.627 618.029 189.627 Q620.9 189.627 622.937 190.761 Q624.997 191.872 626.339 194.187 M611.826 203.238 Q611.826 207.937 613.747 210.622 Q615.691 213.284 619.071 213.284 Q622.451 213.284 624.395 210.622 Q626.339 207.937 626.339 203.238 Q626.339 198.539 624.395 195.877 Q622.451 193.192 619.071 193.192 Q615.691 193.192 613.747 195.877 Q611.826 198.539 611.826 203.238 Z" fill="#000000" fill-rule="evenodd" fill-opacity="1" /><polyline clip-path="url(#clip100)" style="stroke:#000000; stroke-linecap:round; stroke-linejoin:round; stroke-width:4; stroke-opacity:1; fill:none" stroke-dasharray="16, 10" points="
  245.49,250.738 392.509,250.738 
  "/>
<path clip-path="url(#clip100)" d="M442.567 263.087 L442.567 253.805 L434.928 253.805 L434.928 249.962 L447.197 249.962 L447.197 264.8 Q444.489 266.721 441.225 267.717 Q437.961 268.689 434.257 268.689 Q426.155 268.689 421.572 263.967 Q417.012 259.221 417.012 250.772 Q417.012 242.3 421.572 237.578 Q426.155 232.833 434.257 232.833 Q437.637 232.833 440.669 233.666 Q443.725 234.499 446.294 236.12 L446.294 241.096 Q443.702 238.897 440.785 237.786 Q437.868 236.675 434.651 236.675 Q428.308 236.675 425.114 240.217 Q421.942 243.758 421.942 250.772 Q421.942 257.763 425.114 261.305 Q428.308 264.846 434.651 264.846 Q437.128 264.846 439.072 264.43 Q441.016 263.99 442.567 263.087 Z" fill="#000000" fill-rule="evenodd" fill-opacity="1" /><path clip-path="url(#clip100)" d="M470.576 246.073 Q469.859 245.657 469.002 245.471 Q468.169 245.263 467.151 245.263 Q463.539 245.263 461.595 247.624 Q459.674 249.962 459.674 254.36 L459.674 268.018 L455.391 268.018 L455.391 242.092 L459.674 242.092 L459.674 246.12 Q461.016 243.758 463.169 242.624 Q465.322 241.467 468.401 241.467 Q468.84 241.467 469.373 241.536 Q469.905 241.583 470.553 241.698 L470.576 246.073 Z" fill="#000000" fill-rule="evenodd" fill-opacity="1" /><path clip-path="url(#clip100)" d="M484.049 245.078 Q480.623 245.078 478.632 247.763 Q476.641 250.425 476.641 255.078 Q476.641 259.731 478.609 262.416 Q480.6 265.078 484.049 265.078 Q487.451 265.078 489.442 262.393 Q491.433 259.707 491.433 255.078 Q491.433 250.471 489.442 247.786 Q487.451 245.078 484.049 245.078 M484.049 241.467 Q489.604 241.467 492.775 245.078 Q495.947 248.689 495.947 255.078 Q495.947 261.444 492.775 265.078 Q489.604 268.689 484.049 268.689 Q478.47 268.689 475.299 265.078 Q472.15 261.444 472.15 255.078 Q472.15 248.689 475.299 245.078 Q478.47 241.467 484.049 241.467 Z" fill="#000000" fill-rule="evenodd" fill-opacity="1" /><path clip-path="url(#clip100)" d="M502.567 257.786 L502.567 242.092 L506.826 242.092 L506.826 257.624 Q506.826 261.305 508.261 263.156 Q509.697 264.985 512.567 264.985 Q516.016 264.985 518.007 262.786 Q520.021 260.587 520.021 256.791 L520.021 242.092 L524.28 242.092 L524.28 268.018 L520.021 268.018 L520.021 264.036 Q518.47 266.397 516.41 267.555 Q514.372 268.689 511.664 268.689 Q507.197 268.689 504.882 265.911 Q502.567 263.133 502.567 257.786 M513.285 241.467 L513.285 241.467 Z" fill="#000000" fill-rule="evenodd" fill-opacity="1" /><path clip-path="url(#clip100)" d="M554.604 252.369 L554.604 268.018 L550.345 268.018 L550.345 252.508 Q550.345 248.828 548.909 246.999 Q547.474 245.17 544.604 245.17 Q541.155 245.17 539.164 247.37 Q537.173 249.569 537.173 253.365 L537.173 268.018 L532.891 268.018 L532.891 242.092 L537.173 242.092 L537.173 246.12 Q538.701 243.782 540.761 242.624 Q542.845 241.467 545.553 241.467 Q550.02 241.467 552.312 244.245 Q554.604 246.999 554.604 252.369 Z" fill="#000000" fill-rule="evenodd" fill-opacity="1" /><path clip-path="url(#clip100)" d="M580.159 246.027 L580.159 231.999 L584.418 231.999 L584.418 268.018 L580.159 268.018 L580.159 264.129 Q578.817 266.443 576.756 267.578 Q574.719 268.689 571.849 268.689 Q567.15 268.689 564.187 264.939 Q561.247 261.189 561.247 255.078 Q561.247 248.967 564.187 245.217 Q567.15 241.467 571.849 241.467 Q574.719 241.467 576.756 242.601 Q578.817 243.712 580.159 246.027 M565.645 255.078 Q565.645 259.777 567.567 262.462 Q569.511 265.124 572.891 265.124 Q576.27 265.124 578.215 262.462 Q580.159 259.777 580.159 255.078 Q580.159 250.379 578.215 247.717 Q576.27 245.032 572.891 245.032 Q569.511 245.032 567.567 247.717 Q565.645 250.379 565.645 255.078 Z" fill="#000000" fill-rule="evenodd" fill-opacity="1" /><path clip-path="url(#clip100)" d="M612.474 234.731 L612.474 242.092 L621.247 242.092 L621.247 245.402 L612.474 245.402 L612.474 259.476 Q612.474 262.647 613.33 263.55 Q614.21 264.453 616.872 264.453 L621.247 264.453 L621.247 268.018 L616.872 268.018 Q611.941 268.018 610.066 266.189 Q608.191 264.337 608.191 259.476 L608.191 245.402 L605.066 245.402 L605.066 242.092 L608.191 242.092 L608.191 234.731 L612.474 234.731 Z" fill="#000000" fill-rule="evenodd" fill-opacity="1" /><path clip-path="url(#clip100)" d="M641.872 246.073 Q641.154 245.657 640.298 245.471 Q639.464 245.263 638.446 245.263 Q634.835 245.263 632.89 247.624 Q630.969 249.962 630.969 254.36 L630.969 268.018 L626.687 268.018 L626.687 242.092 L630.969 242.092 L630.969 246.12 Q632.312 243.758 634.464 242.624 Q636.617 241.467 639.696 241.467 Q640.136 241.467 640.668 241.536 Q641.201 241.583 641.849 241.698 L641.872 246.073 Z" fill="#000000" fill-rule="evenodd" fill-opacity="1" /><path clip-path="url(#clip100)" d="M645.9 257.786 L645.9 242.092 L650.159 242.092 L650.159 257.624 Q650.159 261.305 651.594 263.156 Q653.029 264.985 655.899 264.985 Q659.349 264.985 661.339 262.786 Q663.353 260.587 663.353 256.791 L663.353 242.092 L667.612 242.092 L667.612 268.018 L663.353 268.018 L663.353 264.036 Q661.802 266.397 659.742 267.555 Q657.705 268.689 654.997 268.689 Q650.529 268.689 648.214 265.911 Q645.9 263.133 645.9 257.786 M656.617 241.467 L656.617 241.467 Z" fill="#000000" fill-rule="evenodd" fill-opacity="1" /><path clip-path="url(#clip100)" d="M680.598 234.731 L680.598 242.092 L689.372 242.092 L689.372 245.402 L680.598 245.402 L680.598 259.476 Q680.598 262.647 681.455 263.55 Q682.335 264.453 684.997 264.453 L689.372 264.453 L689.372 268.018 L684.997 268.018 Q680.066 268.018 678.191 266.189 Q676.316 264.337 676.316 259.476 L676.316 245.402 L673.191 245.402 L673.191 242.092 L676.316 242.092 L676.316 234.731 L680.598 234.731 Z" fill="#000000" fill-rule="evenodd" fill-opacity="1" /><path clip-path="url(#clip100)" d="M716.524 252.369 L716.524 268.018 L712.265 268.018 L712.265 252.508 Q712.265 248.828 710.83 246.999 Q709.395 245.17 706.524 245.17 Q703.075 245.17 701.084 247.37 Q699.094 249.569 699.094 253.365 L699.094 268.018 L694.811 268.018 L694.811 231.999 L699.094 231.999 L699.094 246.12 Q700.621 243.782 702.682 242.624 Q704.765 241.467 707.473 241.467 Q711.941 241.467 714.233 244.245 Q716.524 246.999 716.524 252.369 Z" fill="#000000" fill-rule="evenodd" fill-opacity="1" /></svg>
