<?xml version="1.0" encoding="utf-8"?>
<svg xmlns="http://www.w3.org/2000/svg" xmlns:xlink="http://www.w3.org/1999/xlink" width="600" height="400" viewBox="0 0 2400 1600">
<defs>
  <clipPath id="clip780">
    <rect x="0" y="0" width="2400" height="1600"/>
  </clipPath>
</defs>
<path clip-path="url(#clip780)" d="M0 1600 L2400 1600 L2400 0 L0 0  Z" fill="#ffffff" fill-rule="evenodd" fill-opacity="1"/>
<defs>
  <clipPath id="clip781">
    <rect x="480" y="0" width="1681" height="1600"/>
  </clipPath>
</defs>
<path clip-path="url(#clip780)" d="M170.857 1495.09 L2352.76 1495.09 L2352.76 47.2441 L170.857 47.2441  Z" fill="#ffffff" fill-rule="evenodd" fill-opacity="1"/>
<defs>
  <clipPath id="clip782">
    <rect x="170" y="47" width="2183" height="1449"/>
  </clipPath>
</defs>
<polyline clip-path="url(#clip782)" style="stroke:#000000; stroke-linecap:round; stroke-linejoin:round; stroke-width:2; stroke-opacity:0.1; fill:none" points="452.689,1495.09 452.689,47.2441 "/>
<polyline clip-path="url(#clip782)" style="stroke:#000000; stroke-linecap:round; stroke-linejoin:round; stroke-width:2; stroke-opacity:0.1; fill:none" points="857.248,1495.09 857.248,47.2441 "/>
<polyline clip-path="url(#clip782)" style="stroke:#000000; stroke-linecap:round; stroke-linejoin:round; stroke-width:2; stroke-opacity:0.1; fill:none" points="1261.81,1495.09 1261.81,47.2441 "/>
<polyline clip-path="url(#clip782)" style="stroke:#000000; stroke-linecap:round; stroke-linejoin:round; stroke-width:2; stroke-opacity:0.1; fill:none" points="1666.37,1495.09 1666.37,47.2441 "/>
<polyline clip-path="url(#clip782)" style="stroke:#000000; stroke-linecap:round; stroke-linejoin:round; stroke-width:2; stroke-opacity:0.1; fill:none" points="2070.92,1495.09 2070.92,47.2441 "/>
<polyline clip-path="url(#clip780)" style="stroke:#000000; stroke-linecap:round; stroke-linejoin:round; stroke-width:4; stroke-opacity:1; fill:none" points="170.857,1495.09 2352.76,1495.09 "/>
<polyline clip-path="url(#clip780)" style="stroke:#000000; stroke-linecap:round; stroke-linejoin:round; stroke-width:4; stroke-opacity:1; fill:none" points="452.689,1495.09 452.689,1476.19 "/>
<polyline clip-path="url(#clip780)" style="stroke:#000000; stroke-linecap:round; stroke-linejoin:round; stroke-width:4; stroke-opacity:1; fill:none" points="857.248,1495.09 857.248,1476.19 "/>
<polyline clip-path="url(#clip780)" style="stroke:#000000; stroke-linecap:round; stroke-linejoin:round; stroke-width:4; stroke-opacity:1; fill:none" points="1261.81,1495.09 1261.81,1476.19 "/>
<polyline clip-path="url(#clip780)" style="stroke:#000000; stroke-linecap:round; stroke-linejoin:round; stroke-width:4; stroke-opacity:1; fill:none" points="1666.37,1495.09 1666.37,1476.19 "/>
<polyline clip-path="url(#clip780)" style="stroke:#000000; stroke-linecap:round; stroke-linejoin:round; stroke-width:4; stroke-opacity:1; fill:none" points="2070.92,1495.09 2070.92,1476.19 "/>
<path clip-path="url(#clip780)" d="M309.556 1519.52 L309.556 1555.07 L306.605 1555.07 L306.605 1519.52 L309.556 1519.52 Z" fill="#000000" fill-rule="nonzero" fill-opacity="1" /><path clip-path="url(#clip780)" d="M336.969 1522.76 L336.969 1526.46 Q335.199 1524.81 333.185 1524 Q331.188 1523.18 328.931 1523.18 Q324.487 1523.18 322.126 1525.91 Q319.765 1528.62 319.765 1533.75 Q319.765 1538.88 322.126 1541.6 Q324.487 1544.31 328.931 1544.31 Q331.188 1544.31 333.185 1543.49 Q335.199 1542.68 336.969 1541.03 L336.969 1544.69 Q335.129 1545.94 333.063 1546.57 Q331.015 1547.19 328.723 1547.19 Q322.837 1547.19 319.452 1543.6 Q316.067 1539.99 316.067 1533.75 Q316.067 1527.5 319.452 1523.91 Q322.837 1520.3 328.723 1520.3 Q331.049 1520.3 333.098 1520.92 Q335.164 1521.53 336.969 1522.76 Z" fill="#000000" fill-rule="nonzero" fill-opacity="1" /><path clip-path="url(#clip780)" d="M346.362 1519.52 L346.362 1555.07 L343.41 1555.07 L343.41 1519.52 L346.362 1519.52 Z" fill="#000000" fill-rule="nonzero" fill-opacity="1" /><path clip-path="url(#clip780)" d="M368.132 1535.8 Q368.254 1537.09 369.348 1539.17 Q370.632 1541.58 373.063 1542.94 Q375.441 1544.26 378.011 1544.27 L390.111 1544.27 L390.111 1547.04 L378.011 1547.04 Q374.677 1547.04 371.587 1545.32 Q368.514 1543.6 366.865 1540.54 Q365.216 1537.49 365.216 1534.24 Q365.216 1531.03 366.865 1527.97 Q368.514 1524.92 371.587 1523.18 Q374.677 1521.44 378.011 1521.44 L390.111 1521.44 L390.111 1524.21 L378.011 1524.21 Q375.441 1524.22 373.063 1525.56 Q370.65 1526.93 369.348 1529.33 Q368.237 1531.41 368.08 1533.02 L390.111 1533.02 L390.111 1535.8 L368.132 1535.8 Z" fill="#000000" fill-rule="nonzero" fill-opacity="1" /><path clip-path="url(#clip780)" d="M415.476 1519.71 Q413.149 1523.7 412.021 1527.61 Q410.893 1531.51 410.893 1535.52 Q410.893 1539.54 412.021 1543.48 Q413.167 1547.4 415.476 1551.38 L412.698 1551.38 Q410.094 1547.3 408.792 1543.35 Q407.507 1539.41 407.507 1535.52 Q407.507 1531.65 408.792 1527.73 Q410.077 1523.81 412.698 1519.71 L415.476 1519.71 Z" fill="#000000" fill-rule="nonzero" fill-opacity="1" /><path clip-path="url(#clip780)" d="M425.146 1543.74 L437.385 1543.74 L437.385 1546.69 L420.927 1546.69 L420.927 1543.74 Q422.924 1541.67 426.361 1538.2 Q429.816 1534.71 430.701 1533.7 Q432.385 1531.81 433.045 1530.51 Q433.722 1529.19 433.722 1527.92 Q433.722 1525.85 432.264 1524.55 Q430.823 1523.25 428.497 1523.25 Q426.847 1523.25 425.007 1523.82 Q423.184 1524.4 421.101 1525.56 L421.101 1522.02 Q423.219 1521.17 425.059 1520.73 Q426.899 1520.3 428.427 1520.3 Q432.455 1520.3 434.851 1522.31 Q437.247 1524.33 437.247 1527.69 Q437.247 1529.29 436.639 1530.73 Q436.049 1532.16 434.469 1534.1 Q434.035 1534.6 431.708 1537.02 Q429.382 1539.41 425.146 1543.74 Z" fill="#000000" fill-rule="nonzero" fill-opacity="1" /><path clip-path="url(#clip780)" d="M444.747 1542.28 L448.41 1542.28 L448.41 1546.69 L444.747 1546.69 L444.747 1542.28 Z" fill="#000000" fill-rule="nonzero" fill-opacity="1" /><path clip-path="url(#clip780)" d="M463.549 1523.08 Q460.84 1523.08 459.469 1525.75 Q458.115 1528.41 458.115 1533.75 Q458.115 1539.08 459.469 1541.76 Q460.84 1544.41 463.549 1544.41 Q466.274 1544.41 467.628 1541.76 Q469 1539.08 469 1533.75 Q469 1528.41 467.628 1525.75 Q466.274 1523.08 463.549 1523.08 M463.549 1520.3 Q467.906 1520.3 470.198 1523.75 Q472.507 1527.19 472.507 1533.75 Q472.507 1540.3 470.198 1543.75 Q467.906 1547.19 463.549 1547.19 Q459.191 1547.19 456.882 1543.75 Q454.59 1540.3 454.59 1533.75 Q454.59 1527.19 456.882 1523.75 Q459.191 1520.3 463.549 1520.3 Z" fill="#000000" fill-rule="nonzero" fill-opacity="1" /><path clip-path="url(#clip780)" d="M481.691 1543.74 L493.93 1543.74 L493.93 1546.69 L477.472 1546.69 L477.472 1543.74 Q479.469 1541.67 482.906 1538.2 Q486.361 1534.71 487.246 1533.7 Q488.93 1531.81 489.59 1530.51 Q490.267 1529.19 490.267 1527.92 Q490.267 1525.85 488.809 1524.55 Q487.368 1523.25 485.041 1523.25 Q483.392 1523.25 481.552 1523.82 Q479.729 1524.4 477.646 1525.56 L477.646 1522.02 Q479.764 1521.17 481.604 1520.73 Q483.444 1520.3 484.972 1520.3 Q489 1520.3 491.396 1522.31 Q493.791 1524.33 493.791 1527.69 Q493.791 1529.29 493.184 1530.73 Q492.594 1532.16 491.014 1534.1 Q490.58 1534.6 488.253 1537.02 Q485.927 1539.41 481.691 1543.74 Z" fill="#000000" fill-rule="nonzero" fill-opacity="1" /><path clip-path="url(#clip780)" d="M501.656 1542.28 L505.319 1542.28 L505.319 1545.26 L502.472 1550.82 L500.232 1550.82 L501.656 1545.26 L501.656 1542.28 Z" fill="#000000" fill-rule="nonzero" fill-opacity="1" /><path clip-path="url(#clip780)" d="M515.614 1543.74 L527.854 1543.74 L527.854 1546.69 L511.395 1546.69 L511.395 1543.74 Q513.392 1541.67 516.829 1538.2 Q520.284 1534.71 521.17 1533.7 Q522.854 1531.81 523.513 1530.51 Q524.191 1529.19 524.191 1527.92 Q524.191 1525.85 522.732 1524.55 Q521.291 1523.25 518.965 1523.25 Q517.316 1523.25 515.475 1523.82 Q513.652 1524.4 511.569 1525.56 L511.569 1522.02 Q513.687 1521.17 515.527 1520.73 Q517.368 1520.3 518.895 1520.3 Q522.923 1520.3 525.319 1522.31 Q527.715 1524.33 527.715 1527.69 Q527.715 1529.29 527.107 1530.73 Q526.517 1532.16 524.937 1534.1 Q524.503 1534.6 522.177 1537.02 Q519.85 1539.41 515.614 1543.74 Z" fill="#000000" fill-rule="nonzero" fill-opacity="1" /><path clip-path="url(#clip780)" d="M535.215 1542.28 L538.878 1542.28 L538.878 1546.69 L535.215 1546.69 L535.215 1542.28 Z" fill="#000000" fill-rule="nonzero" fill-opacity="1" /><path clip-path="url(#clip780)" d="M554.017 1523.08 Q551.308 1523.08 549.937 1525.75 Q548.583 1528.41 548.583 1533.75 Q548.583 1539.08 549.937 1541.76 Q551.308 1544.41 554.017 1544.41 Q556.742 1544.41 558.097 1541.76 Q559.468 1539.08 559.468 1533.75 Q559.468 1528.41 558.097 1525.75 Q556.742 1523.08 554.017 1523.08 M554.017 1520.3 Q558.374 1520.3 560.666 1523.75 Q562.975 1527.19 562.975 1533.75 Q562.975 1540.3 560.666 1543.75 Q558.374 1547.19 554.017 1547.19 Q549.659 1547.19 547.35 1543.75 Q545.059 1540.3 545.059 1533.75 Q545.059 1527.19 547.35 1523.75 Q549.659 1520.3 554.017 1520.3 Z" fill="#000000" fill-rule="nonzero" fill-opacity="1" /><path clip-path="url(#clip780)" d="M578.774 1523.82 L569.919 1537.66 L578.774 1537.66 L578.774 1523.82 M577.853 1520.77 L582.263 1520.77 L582.263 1537.66 L585.961 1537.66 L585.961 1540.58 L582.263 1540.58 L582.263 1546.69 L578.774 1546.69 L578.774 1540.58 L567.072 1540.58 L567.072 1537.19 L577.853 1520.77 Z" fill="#000000" fill-rule="nonzero" fill-opacity="1" /><path clip-path="url(#clip780)" d="M598.773 1519.67 L598.773 1551.38 L591.412 1551.38 L591.412 1548.89 L595.562 1548.89 L595.562 1522.16 L591.412 1522.16 L591.412 1519.67 L598.773 1519.67 Z" fill="#000000" fill-rule="nonzero" fill-opacity="1" /><path clip-path="url(#clip780)" d="M714.115 1519.52 L714.115 1555.07 L711.164 1555.07 L711.164 1519.52 L714.115 1519.52 Z" fill="#000000" fill-rule="nonzero" fill-opacity="1" /><path clip-path="url(#clip780)" d="M741.528 1522.76 L741.528 1526.46 Q739.757 1524.81 737.743 1524 Q735.747 1523.18 733.49 1523.18 Q729.045 1523.18 726.684 1525.91 Q724.323 1528.62 724.323 1533.75 Q724.323 1538.88 726.684 1541.6 Q729.045 1544.31 733.49 1544.31 Q735.747 1544.31 737.743 1543.49 Q739.757 1542.68 741.528 1541.03 L741.528 1544.69 Q739.688 1545.94 737.622 1546.57 Q735.573 1547.19 733.282 1547.19 Q727.396 1547.19 724.011 1543.6 Q720.625 1539.99 720.625 1533.75 Q720.625 1527.5 724.011 1523.91 Q727.396 1520.3 733.282 1520.3 Q735.608 1520.3 737.657 1520.92 Q739.723 1521.53 741.528 1522.76 Z" fill="#000000" fill-rule="nonzero" fill-opacity="1" /><path clip-path="url(#clip780)" d="M750.92 1519.52 L750.92 1555.07 L747.969 1555.07 L747.969 1519.52 L750.92 1519.52 Z" fill="#000000" fill-rule="nonzero" fill-opacity="1" /><path clip-path="url(#clip780)" d="M772.691 1535.8 Q772.813 1537.09 773.906 1539.17 Q775.191 1541.58 777.622 1542.94 Q780 1544.26 782.57 1544.27 L794.67 1544.27 L794.67 1547.04 L782.57 1547.04 Q779.236 1547.04 776.146 1545.32 Q773.073 1543.6 771.424 1540.54 Q769.774 1537.49 769.774 1534.24 Q769.774 1531.03 771.424 1527.97 Q773.073 1524.92 776.146 1523.18 Q779.236 1521.44 782.57 1521.44 L794.67 1521.44 L794.67 1524.21 L782.57 1524.21 Q780 1524.22 777.622 1525.56 Q775.208 1526.93 773.906 1529.33 Q772.795 1531.41 772.639 1533.02 L794.67 1533.02 L794.67 1535.8 L772.691 1535.8 Z" fill="#000000" fill-rule="nonzero" fill-opacity="1" /><path clip-path="url(#clip780)" d="M820.035 1519.71 Q817.708 1523.7 816.58 1527.61 Q815.451 1531.51 815.451 1535.52 Q815.451 1539.54 816.58 1543.48 Q817.726 1547.4 820.035 1551.38 L817.257 1551.38 Q814.653 1547.3 813.351 1543.35 Q812.066 1539.41 812.066 1535.52 Q812.066 1531.65 813.351 1527.73 Q814.635 1523.81 817.257 1519.71 L820.035 1519.71 Z" fill="#000000" fill-rule="nonzero" fill-opacity="1" /><path clip-path="url(#clip780)" d="M829.705 1543.74 L841.944 1543.74 L841.944 1546.69 L825.486 1546.69 L825.486 1543.74 Q827.482 1541.67 830.92 1538.2 Q834.375 1534.71 835.26 1533.7 Q836.944 1531.81 837.604 1530.51 Q838.281 1529.19 838.281 1527.92 Q838.281 1525.85 836.823 1524.55 Q835.382 1523.25 833.055 1523.25 Q831.406 1523.25 829.566 1523.82 Q827.743 1524.4 825.66 1525.56 L825.66 1522.02 Q827.778 1521.17 829.618 1520.73 Q831.458 1520.3 832.986 1520.3 Q837.014 1520.3 839.409 1522.31 Q841.805 1524.33 841.805 1527.69 Q841.805 1529.29 841.198 1530.73 Q840.607 1532.16 839.028 1534.1 Q838.594 1534.6 836.267 1537.02 Q833.941 1539.41 829.705 1543.74 Z" fill="#000000" fill-rule="nonzero" fill-opacity="1" /><path clip-path="url(#clip780)" d="M849.305 1542.28 L852.968 1542.28 L852.968 1546.69 L849.305 1546.69 L849.305 1542.28 Z" fill="#000000" fill-rule="nonzero" fill-opacity="1" /><path clip-path="url(#clip780)" d="M868.107 1523.08 Q865.399 1523.08 864.027 1525.75 Q862.673 1528.41 862.673 1533.75 Q862.673 1539.08 864.027 1541.76 Q865.399 1544.41 868.107 1544.41 Q870.833 1544.41 872.187 1541.76 Q873.559 1539.08 873.559 1533.75 Q873.559 1528.41 872.187 1525.75 Q870.833 1523.08 868.107 1523.08 M868.107 1520.3 Q872.465 1520.3 874.757 1523.75 Q877.066 1527.19 877.066 1533.75 Q877.066 1540.3 874.757 1543.75 Q872.465 1547.19 868.107 1547.19 Q863.75 1547.19 861.441 1543.75 Q859.149 1540.3 859.149 1533.75 Q859.149 1527.19 861.441 1523.75 Q863.75 1520.3 868.107 1520.3 Z" fill="#000000" fill-rule="nonzero" fill-opacity="1" /><path clip-path="url(#clip780)" d="M892.864 1523.82 L884.01 1537.66 L892.864 1537.66 L892.864 1523.82 M891.944 1520.77 L896.354 1520.77 L896.354 1537.66 L900.052 1537.66 L900.052 1540.58 L896.354 1540.58 L896.354 1546.69 L892.864 1546.69 L892.864 1540.58 L881.163 1540.58 L881.163 1537.19 L891.944 1520.77 Z" fill="#000000" fill-rule="nonzero" fill-opacity="1" /><path clip-path="url(#clip780)" d="M906.215 1542.28 L909.878 1542.28 L909.878 1545.26 L907.031 1550.82 L904.791 1550.82 L906.215 1545.26 L906.215 1542.28 Z" fill="#000000" fill-rule="nonzero" fill-opacity="1" /><path clip-path="url(#clip780)" d="M920.173 1543.74 L932.412 1543.74 L932.412 1546.69 L915.954 1546.69 L915.954 1543.74 Q917.951 1541.67 921.388 1538.2 Q924.843 1534.71 925.728 1533.7 Q927.412 1531.81 928.072 1530.51 Q928.749 1529.19 928.749 1527.92 Q928.749 1525.85 927.291 1524.55 Q925.85 1523.25 923.524 1523.25 Q921.874 1523.25 920.034 1523.82 Q918.211 1524.4 916.128 1525.56 L916.128 1522.02 Q918.246 1521.17 920.086 1520.73 Q921.926 1520.3 923.454 1520.3 Q927.482 1520.3 929.878 1522.31 Q932.274 1524.33 932.274 1527.69 Q932.274 1529.29 931.666 1530.73 Q931.076 1532.16 929.496 1534.1 Q929.062 1534.6 926.735 1537.02 Q924.409 1539.41 920.173 1543.74 Z" fill="#000000" fill-rule="nonzero" fill-opacity="1" /><path clip-path="url(#clip780)" d="M939.774 1542.28 L943.437 1542.28 L943.437 1546.69 L939.774 1546.69 L939.774 1542.28 Z" fill="#000000" fill-rule="nonzero" fill-opacity="1" /><path clip-path="url(#clip780)" d="M958.576 1523.08 Q955.867 1523.08 954.496 1525.75 Q953.142 1528.41 953.142 1533.75 Q953.142 1539.08 954.496 1541.76 Q955.867 1544.41 958.576 1544.41 Q961.301 1544.41 962.655 1541.76 Q964.027 1539.08 964.027 1533.75 Q964.027 1528.41 962.655 1525.75 Q961.301 1523.08 958.576 1523.08 M958.576 1520.3 Q962.933 1520.3 965.225 1523.75 Q967.534 1527.19 967.534 1533.75 Q967.534 1540.3 965.225 1543.75 Q962.933 1547.19 958.576 1547.19 Q954.218 1547.19 951.909 1543.75 Q949.617 1540.3 949.617 1533.75 Q949.617 1527.19 951.909 1523.75 Q954.218 1520.3 958.576 1520.3 Z" fill="#000000" fill-rule="nonzero" fill-opacity="1" /><path clip-path="url(#clip780)" d="M981.631 1532.33 Q979.27 1532.33 977.881 1533.94 Q976.509 1535.56 976.509 1538.37 Q976.509 1541.17 977.881 1542.8 Q979.27 1544.41 981.631 1544.41 Q983.992 1544.41 985.364 1542.8 Q986.752 1541.17 986.752 1538.37 Q986.752 1535.56 985.364 1533.94 Q983.992 1532.33 981.631 1532.33 M988.593 1521.34 L988.593 1524.54 Q987.273 1523.91 985.919 1523.58 Q984.582 1523.25 983.263 1523.25 Q979.791 1523.25 977.95 1525.59 Q976.128 1527.94 975.867 1532.68 Q976.891 1531.17 978.437 1530.37 Q979.982 1529.55 981.839 1529.55 Q985.746 1529.55 988.002 1531.93 Q990.277 1534.29 990.277 1538.37 Q990.277 1542.36 987.916 1544.78 Q985.555 1547.19 981.631 1547.19 Q977.134 1547.19 974.756 1543.75 Q972.378 1540.3 972.378 1533.75 Q972.378 1527.61 975.294 1523.96 Q978.211 1520.3 983.124 1520.3 Q984.443 1520.3 985.78 1520.56 Q987.134 1520.82 988.593 1521.34 Z" fill="#000000" fill-rule="nonzero" fill-opacity="1" /><path clip-path="url(#clip780)" d="M1003.33 1519.67 L1003.33 1551.38 L995.971 1551.38 L995.971 1548.89 L1000.12 1548.89 L1000.12 1522.16 L995.971 1522.16 L995.971 1519.67 L1003.33 1519.67 Z" fill="#000000" fill-rule="nonzero" fill-opacity="1" /><path clip-path="url(#clip780)" d="M1118.67 1519.52 L1118.67 1555.07 L1115.72 1555.07 L1115.72 1519.52 L1118.67 1519.52 Z" fill="#000000" fill-rule="nonzero" fill-opacity="1" /><path clip-path="url(#clip780)" d="M1146.09 1522.76 L1146.09 1526.46 Q1144.32 1524.81 1142.3 1524 Q1140.31 1523.18 1138.05 1523.18 Q1133.6 1523.18 1131.24 1525.91 Q1128.88 1528.62 1128.88 1533.75 Q1128.88 1538.88 1131.24 1541.6 Q1133.6 1544.31 1138.05 1544.31 Q1140.31 1544.31 1142.3 1543.49 Q1144.32 1542.68 1146.09 1541.03 L1146.09 1544.69 Q1144.25 1545.94 1142.18 1546.57 Q1140.13 1547.19 1137.84 1547.19 Q1131.95 1547.19 1128.57 1543.6 Q1125.18 1539.99 1125.18 1533.75 Q1125.18 1527.5 1128.57 1523.91 Q1131.95 1520.3 1137.84 1520.3 Q1140.17 1520.3 1142.22 1520.92 Q1144.28 1521.53 1146.09 1522.76 Z" fill="#000000" fill-rule="nonzero" fill-opacity="1" /><path clip-path="url(#clip780)" d="M1155.48 1519.52 L1155.48 1555.07 L1152.53 1555.07 L1152.53 1519.52 L1155.48 1519.52 Z" fill="#000000" fill-rule="nonzero" fill-opacity="1" /><path clip-path="url(#clip780)" d="M1177.25 1535.8 Q1177.37 1537.09 1178.47 1539.17 Q1179.75 1541.58 1182.18 1542.94 Q1184.56 1544.26 1187.13 1544.27 L1199.23 1544.27 L1199.23 1547.04 L1187.13 1547.04 Q1183.79 1547.04 1180.7 1545.32 Q1177.63 1543.6 1175.98 1540.54 Q1174.33 1537.49 1174.33 1534.24 Q1174.33 1531.03 1175.98 1527.97 Q1177.63 1524.92 1180.7 1523.18 Q1183.79 1521.44 1187.13 1521.44 L1199.23 1521.44 L1199.23 1524.21 L1187.13 1524.21 Q1184.56 1524.22 1182.18 1525.56 Q1179.77 1526.93 1178.47 1529.33 Q1177.35 1531.41 1177.2 1533.02 L1199.23 1533.02 L1199.23 1535.8 L1177.25 1535.8 Z" fill="#000000" fill-rule="nonzero" fill-opacity="1" /><path clip-path="url(#clip780)" d="M1224.59 1519.71 Q1222.27 1523.7 1221.14 1527.61 Q1220.01 1531.51 1220.01 1535.52 Q1220.01 1539.54 1221.14 1543.48 Q1222.28 1547.4 1224.59 1551.38 L1221.82 1551.38 Q1219.21 1547.3 1217.91 1543.35 Q1216.62 1539.41 1216.62 1535.52 Q1216.62 1531.65 1217.91 1527.73 Q1219.19 1523.81 1221.82 1519.71 L1224.59 1519.71 Z" fill="#000000" fill-rule="nonzero" fill-opacity="1" /><path clip-path="url(#clip780)" d="M1234.26 1543.74 L1246.5 1543.74 L1246.5 1546.69 L1230.04 1546.69 L1230.04 1543.74 Q1232.04 1541.67 1235.48 1538.2 Q1238.93 1534.71 1239.82 1533.7 Q1241.5 1531.81 1242.16 1530.51 Q1242.84 1529.19 1242.84 1527.92 Q1242.84 1525.85 1241.38 1524.55 Q1239.94 1523.25 1237.61 1523.25 Q1235.96 1523.25 1234.12 1523.82 Q1232.3 1524.4 1230.22 1525.56 L1230.22 1522.02 Q1232.34 1521.17 1234.18 1520.73 Q1236.02 1520.3 1237.54 1520.3 Q1241.57 1520.3 1243.97 1522.31 Q1246.36 1524.33 1246.36 1527.69 Q1246.36 1529.29 1245.76 1530.73 Q1245.17 1532.16 1243.59 1534.1 Q1243.15 1534.6 1240.83 1537.02 Q1238.5 1539.41 1234.26 1543.74 Z" fill="#000000" fill-rule="nonzero" fill-opacity="1" /><path clip-path="url(#clip780)" d="M1253.86 1542.28 L1257.53 1542.28 L1257.53 1546.69 L1253.86 1546.69 L1253.86 1542.28 Z" fill="#000000" fill-rule="nonzero" fill-opacity="1" /><path clip-path="url(#clip780)" d="M1272.67 1523.08 Q1269.96 1523.08 1268.59 1525.75 Q1267.23 1528.41 1267.23 1533.75 Q1267.23 1539.08 1268.59 1541.76 Q1269.96 1544.41 1272.67 1544.41 Q1275.39 1544.41 1276.75 1541.76 Q1278.12 1539.08 1278.12 1533.75 Q1278.12 1528.41 1276.75 1525.75 Q1275.39 1523.08 1272.67 1523.08 M1272.67 1520.3 Q1277.02 1520.3 1279.32 1523.75 Q1281.62 1527.19 1281.62 1533.75 Q1281.62 1540.3 1279.32 1543.75 Q1277.02 1547.19 1272.67 1547.19 Q1268.31 1547.19 1266 1543.75 Q1263.71 1540.3 1263.71 1533.75 Q1263.71 1527.19 1266 1523.75 Q1268.31 1520.3 1272.67 1520.3 Z" fill="#000000" fill-rule="nonzero" fill-opacity="1" /><path clip-path="url(#clip780)" d="M1295.72 1532.33 Q1293.36 1532.33 1291.97 1533.94 Q1290.6 1535.56 1290.6 1538.37 Q1290.6 1541.17 1291.97 1542.8 Q1293.36 1544.41 1295.72 1544.41 Q1298.08 1544.41 1299.45 1542.8 Q1300.84 1541.17 1300.84 1538.37 Q1300.84 1535.56 1299.45 1533.94 Q1298.08 1532.33 1295.72 1532.33 M1302.68 1521.34 L1302.68 1524.54 Q1301.36 1523.91 1300.01 1523.58 Q1298.67 1523.25 1297.35 1523.25 Q1293.88 1523.25 1292.04 1525.59 Q1290.22 1527.94 1289.96 1532.68 Q1290.98 1531.17 1292.53 1530.37 Q1294.07 1529.55 1295.93 1529.55 Q1299.84 1529.55 1302.09 1531.93 Q1304.37 1534.29 1304.37 1538.37 Q1304.37 1542.36 1302.01 1544.78 Q1299.65 1547.19 1295.72 1547.19 Q1291.22 1547.19 1288.85 1543.75 Q1286.47 1540.3 1286.47 1533.75 Q1286.47 1527.61 1289.38 1523.96 Q1292.3 1520.3 1297.21 1520.3 Q1298.53 1520.3 1299.87 1520.56 Q1301.22 1520.82 1302.68 1521.34 Z" fill="#000000" fill-rule="nonzero" fill-opacity="1" /><path clip-path="url(#clip780)" d="M1310.77 1542.28 L1314.44 1542.28 L1314.44 1545.26 L1311.59 1550.82 L1309.35 1550.82 L1310.77 1545.26 L1310.77 1542.28 Z" fill="#000000" fill-rule="nonzero" fill-opacity="1" /><path clip-path="url(#clip780)" d="M1324.73 1543.74 L1336.97 1543.74 L1336.97 1546.69 L1320.51 1546.69 L1320.51 1543.74 Q1322.51 1541.67 1325.95 1538.2 Q1329.4 1534.71 1330.29 1533.7 Q1331.97 1531.81 1332.63 1530.51 Q1333.31 1529.19 1333.31 1527.92 Q1333.31 1525.85 1331.85 1524.55 Q1330.41 1523.25 1328.08 1523.25 Q1326.43 1523.25 1324.59 1523.82 Q1322.77 1524.4 1320.69 1525.56 L1320.69 1522.02 Q1322.8 1521.17 1324.64 1520.73 Q1326.49 1520.3 1328.01 1520.3 Q1332.04 1520.3 1334.44 1522.31 Q1336.83 1524.33 1336.83 1527.69 Q1336.83 1529.29 1336.22 1530.73 Q1335.63 1532.16 1334.05 1534.1 Q1333.62 1534.6 1331.29 1537.02 Q1328.97 1539.41 1324.73 1543.74 Z" fill="#000000" fill-rule="nonzero" fill-opacity="1" /><path clip-path="url(#clip780)" d="M1344.33 1542.28 L1348 1542.28 L1348 1546.69 L1344.33 1546.69 L1344.33 1542.28 Z" fill="#000000" fill-rule="nonzero" fill-opacity="1" /><path clip-path="url(#clip780)" d="M1363.13 1523.08 Q1360.43 1523.08 1359.05 1525.75 Q1357.7 1528.41 1357.7 1533.75 Q1357.7 1539.08 1359.05 1541.76 Q1360.43 1544.41 1363.13 1544.41 Q1365.86 1544.41 1367.21 1541.76 Q1368.59 1539.08 1368.59 1533.75 Q1368.59 1528.41 1367.21 1525.75 Q1365.86 1523.08 1363.13 1523.08 M1363.13 1520.3 Q1367.49 1520.3 1369.78 1523.75 Q1372.09 1527.19 1372.09 1533.75 Q1372.09 1540.3 1369.78 1543.75 Q1367.49 1547.19 1363.13 1547.19 Q1358.78 1547.19 1356.47 1543.75 Q1354.18 1540.3 1354.18 1533.75 Q1354.18 1527.19 1356.47 1523.75 Q1358.78 1520.3 1363.13 1520.3 Z" fill="#000000" fill-rule="nonzero" fill-opacity="1" /><path clip-path="url(#clip780)" d="M1385.76 1534.38 Q1383.26 1534.38 1381.81 1535.72 Q1380.39 1537.05 1380.39 1539.4 Q1380.39 1541.74 1381.81 1543.08 Q1383.26 1544.41 1385.76 1544.41 Q1388.26 1544.41 1389.7 1543.08 Q1391.14 1541.72 1391.14 1539.4 Q1391.14 1537.05 1389.7 1535.72 Q1388.27 1534.38 1385.76 1534.38 M1382.25 1532.89 Q1379.99 1532.33 1378.72 1530.79 Q1377.47 1529.24 1377.47 1527.02 Q1377.47 1523.91 1379.68 1522.1 Q1381.9 1520.3 1385.76 1520.3 Q1389.63 1520.3 1391.83 1522.1 Q1394.04 1523.91 1394.04 1527.02 Q1394.04 1529.24 1392.77 1530.79 Q1391.52 1532.33 1389.28 1532.89 Q1391.81 1533.48 1393.22 1535.19 Q1394.64 1536.91 1394.64 1539.4 Q1394.64 1543.16 1392.34 1545.18 Q1390.04 1547.19 1385.76 1547.19 Q1381.47 1547.19 1379.16 1545.18 Q1376.87 1543.16 1376.87 1539.4 Q1376.87 1536.91 1378.29 1535.19 Q1379.71 1533.48 1382.25 1532.89 M1380.96 1527.35 Q1380.96 1529.36 1382.21 1530.49 Q1383.48 1531.62 1385.76 1531.62 Q1388.01 1531.62 1389.28 1530.49 Q1390.56 1529.36 1390.56 1527.35 Q1390.56 1525.33 1389.28 1524.21 Q1388.01 1523.08 1385.76 1523.08 Q1383.48 1523.08 1382.21 1524.21 Q1380.96 1525.33 1380.96 1527.35 Z" fill="#000000" fill-rule="nonzero" fill-opacity="1" /><path clip-path="url(#clip780)" d="M1407.89 1519.67 L1407.89 1551.38 L1400.53 1551.38 L1400.53 1548.89 L1404.68 1548.89 L1404.68 1522.16 L1400.53 1522.16 L1400.53 1519.67 L1407.89 1519.67 Z" fill="#000000" fill-rule="nonzero" fill-opacity="1" /><path clip-path="url(#clip780)" d="M1523.23 1519.52 L1523.23 1555.07 L1520.28 1555.07 L1520.28 1519.52 L1523.23 1519.52 Z" fill="#000000" fill-rule="nonzero" fill-opacity="1" /><path clip-path="url(#clip780)" d="M1550.65 1522.76 L1550.65 1526.46 Q1548.87 1524.81 1546.86 1524 Q1544.86 1523.18 1542.61 1523.18 Q1538.16 1523.18 1535.8 1525.91 Q1533.44 1528.62 1533.44 1533.75 Q1533.44 1538.88 1535.8 1541.6 Q1538.16 1544.31 1542.61 1544.31 Q1544.86 1544.31 1546.86 1543.49 Q1548.87 1542.68 1550.65 1541.03 L1550.65 1544.69 Q1548.81 1545.94 1546.74 1546.57 Q1544.69 1547.19 1542.4 1547.19 Q1536.51 1547.19 1533.13 1543.6 Q1529.74 1539.99 1529.74 1533.75 Q1529.74 1527.5 1533.13 1523.91 Q1536.51 1520.3 1542.4 1520.3 Q1544.73 1520.3 1546.77 1520.92 Q1548.84 1521.53 1550.65 1522.76 Z" fill="#000000" fill-rule="nonzero" fill-opacity="1" /><path clip-path="url(#clip780)" d="M1560.04 1519.52 L1560.04 1555.07 L1557.09 1555.07 L1557.09 1519.52 L1560.04 1519.52 Z" fill="#000000" fill-rule="nonzero" fill-opacity="1" /><path clip-path="url(#clip780)" d="M1581.81 1535.8 Q1581.93 1537.09 1583.02 1539.17 Q1584.31 1541.58 1586.74 1542.94 Q1589.12 1544.26 1591.69 1544.27 L1603.79 1544.27 L1603.79 1547.04 L1591.69 1547.04 Q1588.35 1547.04 1585.26 1545.32 Q1582.19 1543.6 1580.54 1540.54 Q1578.89 1537.49 1578.89 1534.24 Q1578.89 1531.03 1580.54 1527.97 Q1582.19 1524.92 1585.26 1523.18 Q1588.35 1521.44 1591.69 1521.44 L1603.79 1521.44 L1603.79 1524.21 L1591.69 1524.21 Q1589.12 1524.22 1586.74 1525.56 Q1584.33 1526.93 1583.02 1529.33 Q1581.91 1531.41 1581.76 1533.02 L1603.79 1533.02 L1603.79 1535.8 L1581.81 1535.8 Z" fill="#000000" fill-rule="nonzero" fill-opacity="1" /><path clip-path="url(#clip780)" d="M1629.15 1519.71 Q1626.83 1523.7 1625.7 1527.61 Q1624.57 1531.51 1624.57 1535.52 Q1624.57 1539.54 1625.7 1543.48 Q1626.84 1547.4 1629.15 1551.38 L1626.37 1551.38 Q1623.77 1547.3 1622.47 1543.35 Q1621.18 1539.41 1621.18 1535.52 Q1621.18 1531.65 1622.47 1527.73 Q1623.75 1523.81 1626.37 1519.71 L1629.15 1519.71 Z" fill="#000000" fill-rule="nonzero" fill-opacity="1" /><path clip-path="url(#clip780)" d="M1638.82 1543.74 L1651.06 1543.74 L1651.06 1546.69 L1634.6 1546.69 L1634.6 1543.74 Q1636.6 1541.67 1640.04 1538.2 Q1643.49 1534.71 1644.38 1533.7 Q1646.06 1531.81 1646.72 1530.51 Q1647.4 1529.19 1647.4 1527.92 Q1647.4 1525.85 1645.94 1524.55 Q1644.5 1523.25 1642.17 1523.25 Q1640.52 1523.25 1638.68 1523.82 Q1636.86 1524.4 1634.78 1525.56 L1634.78 1522.02 Q1636.9 1521.17 1638.74 1520.73 Q1640.58 1520.3 1642.1 1520.3 Q1646.13 1520.3 1648.53 1522.31 Q1650.92 1524.33 1650.92 1527.69 Q1650.92 1529.29 1650.32 1530.73 Q1649.72 1532.16 1648.14 1534.1 Q1647.71 1534.6 1645.38 1537.02 Q1643.06 1539.41 1638.82 1543.74 Z" fill="#000000" fill-rule="nonzero" fill-opacity="1" /><path clip-path="url(#clip780)" d="M1658.42 1542.28 L1662.09 1542.28 L1662.09 1546.69 L1658.42 1546.69 L1658.42 1542.28 Z" fill="#000000" fill-rule="nonzero" fill-opacity="1" /><path clip-path="url(#clip780)" d="M1677.22 1523.08 Q1674.52 1523.08 1673.14 1525.75 Q1671.79 1528.41 1671.79 1533.75 Q1671.79 1539.08 1673.14 1541.76 Q1674.52 1544.41 1677.22 1544.41 Q1679.95 1544.41 1681.3 1541.76 Q1682.68 1539.08 1682.68 1533.75 Q1682.68 1528.41 1681.3 1525.75 Q1679.95 1523.08 1677.22 1523.08 M1677.22 1520.3 Q1681.58 1520.3 1683.87 1523.75 Q1686.18 1527.19 1686.18 1533.75 Q1686.18 1540.3 1683.87 1543.75 Q1681.58 1547.19 1677.22 1547.19 Q1672.87 1547.19 1670.56 1543.75 Q1668.27 1540.3 1668.27 1533.75 Q1668.27 1527.19 1670.56 1523.75 Q1672.87 1520.3 1677.22 1520.3 Z" fill="#000000" fill-rule="nonzero" fill-opacity="1" /><path clip-path="url(#clip780)" d="M1699.85 1534.38 Q1697.35 1534.38 1695.91 1535.72 Q1694.48 1537.05 1694.48 1539.4 Q1694.48 1541.74 1695.91 1543.08 Q1697.35 1544.41 1699.85 1544.41 Q1702.35 1544.41 1703.79 1543.08 Q1705.23 1541.72 1705.23 1539.4 Q1705.23 1537.05 1703.79 1535.72 Q1702.36 1534.38 1699.85 1534.38 M1696.34 1532.89 Q1694.08 1532.33 1692.81 1530.79 Q1691.56 1529.24 1691.56 1527.02 Q1691.56 1523.91 1693.77 1522.1 Q1695.99 1520.3 1699.85 1520.3 Q1703.72 1520.3 1705.92 1522.1 Q1708.13 1523.91 1708.13 1527.02 Q1708.13 1529.24 1706.86 1530.79 Q1705.61 1532.33 1703.37 1532.89 Q1705.91 1533.48 1707.31 1535.19 Q1708.73 1536.91 1708.73 1539.4 Q1708.73 1543.16 1706.43 1545.18 Q1704.13 1547.19 1699.85 1547.19 Q1695.56 1547.19 1693.25 1545.18 Q1690.96 1543.16 1690.96 1539.4 Q1690.96 1536.91 1692.38 1535.19 Q1693.8 1533.48 1696.34 1532.89 M1695.05 1527.35 Q1695.05 1529.36 1696.3 1530.49 Q1697.57 1531.62 1699.85 1531.62 Q1702.1 1531.62 1703.37 1530.49 Q1704.66 1529.36 1704.66 1527.35 Q1704.66 1525.33 1703.37 1524.21 Q1702.1 1523.08 1699.85 1523.08 Q1697.57 1523.08 1696.3 1524.21 Q1695.05 1525.33 1695.05 1527.35 Z" fill="#000000" fill-rule="nonzero" fill-opacity="1" /><path clip-path="url(#clip780)" d="M1715.33 1542.28 L1719 1542.28 L1719 1545.26 L1716.15 1550.82 L1713.91 1550.82 L1715.33 1545.26 L1715.33 1542.28 Z" fill="#000000" fill-rule="nonzero" fill-opacity="1" /><path clip-path="url(#clip780)" d="M1729.29 1543.74 L1741.53 1543.74 L1741.53 1546.69 L1725.07 1546.69 L1725.07 1543.74 Q1727.07 1541.67 1730.51 1538.2 Q1733.96 1534.71 1734.85 1533.7 Q1736.53 1531.81 1737.19 1530.51 Q1737.87 1529.19 1737.87 1527.92 Q1737.87 1525.85 1736.41 1524.55 Q1734.97 1523.25 1732.64 1523.25 Q1730.99 1523.25 1729.15 1523.82 Q1727.33 1524.4 1725.25 1525.56 L1725.25 1522.02 Q1727.36 1521.17 1729.2 1520.73 Q1731.04 1520.3 1732.57 1520.3 Q1736.6 1520.3 1739 1522.31 Q1741.39 1524.33 1741.39 1527.69 Q1741.39 1529.29 1740.78 1530.73 Q1740.19 1532.16 1738.61 1534.1 Q1738.18 1534.6 1735.85 1537.02 Q1733.53 1539.41 1729.29 1543.74 Z" fill="#000000" fill-rule="nonzero" fill-opacity="1" /><path clip-path="url(#clip780)" d="M1748.89 1542.28 L1752.55 1542.28 L1752.55 1546.69 L1748.89 1546.69 L1748.89 1542.28 Z" fill="#000000" fill-rule="nonzero" fill-opacity="1" /><path clip-path="url(#clip780)" d="M1767.69 1523.08 Q1764.98 1523.08 1763.61 1525.75 Q1762.26 1528.41 1762.26 1533.75 Q1762.26 1539.08 1763.61 1541.76 Q1764.98 1544.41 1767.69 1544.41 Q1770.42 1544.41 1771.77 1541.76 Q1773.14 1539.08 1773.14 1533.75 Q1773.14 1528.41 1771.77 1525.75 Q1770.42 1523.08 1767.69 1523.08 M1767.69 1520.3 Q1772.05 1520.3 1774.34 1523.75 Q1776.65 1527.19 1776.65 1533.75 Q1776.65 1540.3 1774.34 1543.75 Q1772.05 1547.19 1767.69 1547.19 Q1763.34 1547.19 1761.03 1543.75 Q1758.73 1540.3 1758.73 1533.75 Q1758.73 1527.19 1761.03 1523.75 Q1763.34 1520.3 1767.69 1520.3 Z" fill="#000000" fill-rule="nonzero" fill-opacity="1" /><path clip-path="url(#clip780)" d="M1782.92 1546.15 L1782.92 1542.96 Q1784.24 1543.58 1785.59 1543.91 Q1786.95 1544.24 1788.25 1544.24 Q1791.72 1544.24 1793.54 1541.91 Q1795.38 1539.57 1795.64 1534.81 Q1794.64 1536.31 1793.09 1537.1 Q1791.55 1537.9 1789.67 1537.9 Q1785.78 1537.9 1783.51 1535.56 Q1781.25 1533.2 1781.25 1529.12 Q1781.25 1525.13 1783.61 1522.71 Q1785.97 1520.3 1789.9 1520.3 Q1794.39 1520.3 1796.76 1523.75 Q1799.13 1527.19 1799.13 1533.75 Q1799.13 1539.88 1796.22 1543.55 Q1793.32 1547.19 1788.4 1547.19 Q1787.09 1547.19 1785.73 1546.93 Q1784.38 1546.67 1782.92 1546.15 M1789.9 1535.16 Q1792.26 1535.16 1793.63 1533.55 Q1795.02 1531.93 1795.02 1529.12 Q1795.02 1526.32 1793.63 1524.71 Q1792.26 1523.08 1789.9 1523.08 Q1787.54 1523.08 1786.15 1524.71 Q1784.78 1526.32 1784.78 1529.12 Q1784.78 1531.93 1786.15 1533.55 Q1787.54 1535.16 1789.9 1535.16 Z" fill="#000000" fill-rule="nonzero" fill-opacity="1" /><path clip-path="url(#clip780)" d="M1812.45 1519.67 L1812.45 1551.38 L1805.09 1551.38 L1805.09 1548.89 L1809.24 1548.89 L1809.24 1522.16 L1805.09 1522.16 L1805.09 1519.67 L1812.45 1519.67 Z" fill="#000000" fill-rule="nonzero" fill-opacity="1" /><path clip-path="url(#clip780)" d="M1927.79 1519.52 L1927.79 1555.07 L1924.84 1555.07 L1924.84 1519.52 L1927.79 1519.52 Z" fill="#000000" fill-rule="nonzero" fill-opacity="1" /><path clip-path="url(#clip780)" d="M1955.2 1522.76 L1955.2 1526.46 Q1953.43 1524.81 1951.42 1524 Q1949.42 1523.18 1947.17 1523.18 Q1942.72 1523.18 1940.36 1525.91 Q1938 1528.62 1938 1533.75 Q1938 1538.88 1940.36 1541.6 Q1942.72 1544.31 1947.17 1544.31 Q1949.42 1544.31 1951.42 1543.49 Q1953.43 1542.68 1955.2 1541.03 L1955.2 1544.69 Q1953.36 1545.94 1951.3 1546.57 Q1949.25 1547.19 1946.96 1547.19 Q1941.07 1547.19 1937.69 1543.6 Q1934.3 1539.99 1934.3 1533.75 Q1934.3 1527.5 1937.69 1523.91 Q1941.07 1520.3 1946.96 1520.3 Q1949.28 1520.3 1951.33 1520.92 Q1953.4 1521.53 1955.2 1522.76 Z" fill="#000000" fill-rule="nonzero" fill-opacity="1" /><path clip-path="url(#clip780)" d="M1964.6 1519.52 L1964.6 1555.07 L1961.65 1555.07 L1961.65 1519.52 L1964.6 1519.52 Z" fill="#000000" fill-rule="nonzero" fill-opacity="1" /><path clip-path="url(#clip780)" d="M1986.37 1535.8 Q1986.49 1537.09 1987.58 1539.17 Q1988.87 1541.58 1991.3 1542.94 Q1993.68 1544.26 1996.25 1544.27 L2008.35 1544.27 L2008.35 1547.04 L1996.25 1547.04 Q1992.91 1547.04 1989.82 1545.32 Q1986.75 1543.6 1985.1 1540.54 Q1983.45 1537.49 1983.45 1534.24 Q1983.45 1531.03 1985.1 1527.97 Q1986.75 1524.92 1989.82 1523.18 Q1992.91 1521.44 1996.25 1521.44 L2008.35 1521.44 L2008.35 1524.21 L1996.25 1524.21 Q1993.68 1524.22 1991.3 1525.56 Q1988.88 1526.93 1987.58 1529.33 Q1986.47 1531.41 1986.32 1533.02 L2008.35 1533.02 L2008.35 1535.8 L1986.37 1535.8 Z" fill="#000000" fill-rule="nonzero" fill-opacity="1" /><path clip-path="url(#clip780)" d="M2033.71 1519.71 Q2031.38 1523.7 2030.26 1527.61 Q2029.13 1531.51 2029.13 1535.52 Q2029.13 1539.54 2030.26 1543.48 Q2031.4 1547.4 2033.71 1551.38 L2030.93 1551.38 Q2028.33 1547.3 2027.03 1543.35 Q2025.74 1539.41 2025.74 1535.52 Q2025.74 1531.65 2027.03 1527.73 Q2028.31 1523.81 2030.93 1519.71 L2033.71 1519.71 Z" fill="#000000" fill-rule="nonzero" fill-opacity="1" /><path clip-path="url(#clip780)" d="M2043.38 1543.74 L2055.62 1543.74 L2055.62 1546.69 L2039.16 1546.69 L2039.16 1543.74 Q2041.16 1541.67 2044.6 1538.2 Q2048.05 1534.71 2048.94 1533.7 Q2050.62 1531.81 2051.28 1530.51 Q2051.96 1529.19 2051.96 1527.92 Q2051.96 1525.85 2050.5 1524.55 Q2049.06 1523.25 2046.73 1523.25 Q2045.08 1523.25 2043.24 1523.82 Q2041.42 1524.4 2039.34 1525.56 L2039.34 1522.02 Q2041.45 1521.17 2043.29 1520.73 Q2045.13 1520.3 2046.66 1520.3 Q2050.69 1520.3 2053.09 1522.31 Q2055.48 1524.33 2055.48 1527.69 Q2055.48 1529.29 2054.87 1530.73 Q2054.28 1532.16 2052.7 1534.1 Q2052.27 1534.6 2049.94 1537.02 Q2047.62 1539.41 2043.38 1543.74 Z" fill="#000000" fill-rule="nonzero" fill-opacity="1" /><path clip-path="url(#clip780)" d="M2062.98 1542.28 L2066.64 1542.28 L2066.64 1546.69 L2062.98 1546.69 L2062.98 1542.28 Z" fill="#000000" fill-rule="nonzero" fill-opacity="1" /><path clip-path="url(#clip780)" d="M2081.78 1523.08 Q2079.08 1523.08 2077.7 1525.75 Q2076.35 1528.41 2076.35 1533.75 Q2076.35 1539.08 2077.7 1541.76 Q2079.08 1544.41 2081.78 1544.41 Q2084.51 1544.41 2085.86 1541.76 Q2087.23 1539.08 2087.23 1533.75 Q2087.23 1528.41 2085.86 1525.75 Q2084.51 1523.08 2081.78 1523.08 M2081.78 1520.3 Q2086.14 1520.3 2088.43 1523.75 Q2090.74 1527.19 2090.74 1533.75 Q2090.74 1540.3 2088.43 1543.75 Q2086.14 1547.19 2081.78 1547.19 Q2077.43 1547.19 2075.12 1543.75 Q2072.83 1540.3 2072.83 1533.75 Q2072.83 1527.19 2075.12 1523.75 Q2077.43 1520.3 2081.78 1520.3 Z" fill="#000000" fill-rule="nonzero" fill-opacity="1" /><path clip-path="url(#clip780)" d="M2097.01 1546.15 L2097.01 1542.96 Q2098.33 1543.58 2099.68 1543.91 Q2101.04 1544.24 2102.34 1544.24 Q2105.81 1544.24 2107.63 1541.91 Q2109.47 1539.57 2109.73 1534.81 Q2108.73 1536.31 2107.18 1537.1 Q2105.64 1537.9 2103.76 1537.9 Q2099.87 1537.9 2097.6 1535.56 Q2095.34 1533.2 2095.34 1529.12 Q2095.34 1525.13 2097.7 1522.71 Q2100.06 1520.3 2103.99 1520.3 Q2108.48 1520.3 2110.85 1523.75 Q2113.22 1527.19 2113.22 1533.75 Q2113.22 1539.88 2110.31 1543.55 Q2107.41 1547.19 2102.5 1547.19 Q2101.18 1547.19 2099.82 1546.93 Q2098.47 1546.67 2097.01 1546.15 M2103.99 1535.16 Q2106.35 1535.16 2107.72 1533.55 Q2109.11 1531.93 2109.11 1529.12 Q2109.11 1526.32 2107.72 1524.71 Q2106.35 1523.08 2103.99 1523.08 Q2101.63 1523.08 2100.24 1524.71 Q2098.87 1526.32 2098.87 1529.12 Q2098.87 1531.93 2100.24 1533.55 Q2101.63 1535.16 2103.99 1535.16 Z" fill="#000000" fill-rule="nonzero" fill-opacity="1" /><path clip-path="url(#clip780)" d="M2119.89 1542.28 L2123.55 1542.28 L2123.55 1545.26 L2120.71 1550.82 L2118.47 1550.82 L2119.89 1545.26 L2119.89 1542.28 Z" fill="#000000" fill-rule="nonzero" fill-opacity="1" /><path clip-path="url(#clip780)" d="M2133.85 1543.74 L2146.09 1543.74 L2146.09 1546.69 L2129.63 1546.69 L2129.63 1543.74 Q2131.63 1541.67 2135.06 1538.2 Q2138.52 1534.71 2139.4 1533.7 Q2141.09 1531.81 2141.75 1530.51 Q2142.43 1529.19 2142.43 1527.92 Q2142.43 1525.85 2140.97 1524.55 Q2139.53 1523.25 2137.2 1523.25 Q2135.55 1523.25 2133.71 1523.82 Q2131.89 1524.4 2129.8 1525.56 L2129.8 1522.02 Q2131.92 1521.17 2133.76 1520.73 Q2135.6 1520.3 2137.13 1520.3 Q2141.16 1520.3 2143.55 1522.31 Q2145.95 1524.33 2145.95 1527.69 Q2145.95 1529.29 2145.34 1530.73 Q2144.75 1532.16 2143.17 1534.1 Q2142.74 1534.6 2140.41 1537.02 Q2138.09 1539.41 2133.85 1543.74 Z" fill="#000000" fill-rule="nonzero" fill-opacity="1" /><path clip-path="url(#clip780)" d="M2153.45 1542.28 L2157.11 1542.28 L2157.11 1546.69 L2153.45 1546.69 L2153.45 1542.28 Z" fill="#000000" fill-rule="nonzero" fill-opacity="1" /><path clip-path="url(#clip780)" d="M2165.36 1543.74 L2171.09 1543.74 L2171.09 1523.96 L2164.86 1525.21 L2164.86 1522.02 L2171.05 1520.77 L2174.56 1520.77 L2174.56 1543.74 L2180.29 1543.74 L2180.29 1546.69 L2165.36 1546.69 L2165.36 1543.74 Z" fill="#000000" fill-rule="nonzero" fill-opacity="1" /><path clip-path="url(#clip780)" d="M2187.98 1543.74 L2193.71 1543.74 L2193.71 1523.96 L2187.48 1525.21 L2187.48 1522.02 L2193.68 1520.77 L2197.18 1520.77 L2197.18 1543.74 L2202.91 1543.74 L2202.91 1546.69 L2187.98 1546.69 L2187.98 1543.74 Z" fill="#000000" fill-rule="nonzero" fill-opacity="1" /><path clip-path="url(#clip780)" d="M2217.01 1519.67 L2217.01 1551.38 L2209.65 1551.38 L2209.65 1548.89 L2213.8 1548.89 L2213.8 1522.16 L2209.65 1522.16 L2209.65 1519.67 L2217.01 1519.67 Z" fill="#000000" fill-rule="nonzero" fill-opacity="1" /><polyline clip-path="url(#clip782)" style="stroke:#000000; stroke-linecap:round; stroke-linejoin:round; stroke-width:2; stroke-opacity:0.1; fill:none" points="170.857,1454.11 2352.76,1454.11 "/>
<polyline clip-path="url(#clip782)" style="stroke:#000000; stroke-linecap:round; stroke-linejoin:round; stroke-width:2; stroke-opacity:0.1; fill:none" points="170.857,1000.33 2352.76,1000.33 "/>
<polyline clip-path="url(#clip782)" style="stroke:#000000; stroke-linecap:round; stroke-linejoin:round; stroke-width:2; stroke-opacity:0.1; fill:none" points="170.857,546.543 2352.76,546.543 "/>
<polyline clip-path="url(#clip782)" style="stroke:#000000; stroke-linecap:round; stroke-linejoin:round; stroke-width:2; stroke-opacity:0.1; fill:none" points="170.857,92.7586 2352.76,92.7586 "/>
<polyline clip-path="url(#clip780)" style="stroke:#000000; stroke-linecap:round; stroke-linejoin:round; stroke-width:4; stroke-opacity:1; fill:none" points="170.857,1495.09 170.857,47.2441 "/>
<polyline clip-path="url(#clip780)" style="stroke:#000000; stroke-linecap:round; stroke-linejoin:round; stroke-width:4; stroke-opacity:1; fill:none" points="170.857,1454.11 189.755,1454.11 "/>
<polyline clip-path="url(#clip780)" style="stroke:#000000; stroke-linecap:round; stroke-linejoin:round; stroke-width:4; stroke-opacity:1; fill:none" points="170.857,1000.33 189.755,1000.33 "/>
<polyline clip-path="url(#clip780)" style="stroke:#000000; stroke-linecap:round; stroke-linejoin:round; stroke-width:4; stroke-opacity:1; fill:none" points="170.857,546.543 189.755,546.543 "/>
<polyline clip-path="url(#clip780)" style="stroke:#000000; stroke-linecap:round; stroke-linejoin:round; stroke-width:4; stroke-opacity:1; fill:none" points="170.857,92.7586 189.755,92.7586 "/>
<path clip-path="url(#clip780)" d="M122.913 1439.91 Q119.302 1439.91 117.473 1443.47 Q115.668 1447.02 115.668 1454.15 Q115.668 1461.25 117.473 1464.82 Q119.302 1468.36 122.913 1468.36 Q126.547 1468.36 128.353 1464.82 Q130.182 1461.25 130.182 1454.15 Q130.182 1447.02 128.353 1443.47 Q126.547 1439.91 122.913 1439.91 M122.913 1436.21 Q128.723 1436.21 131.779 1440.81 Q134.857 1445.4 134.857 1454.15 Q134.857 1462.87 131.779 1467.48 Q128.723 1472.06 122.913 1472.06 Q117.103 1472.06 114.024 1467.48 Q110.969 1462.87 110.969 1454.15 Q110.969 1445.4 114.024 1440.81 Q117.103 1436.21 122.913 1436.21 Z" fill="#000000" fill-rule="nonzero" fill-opacity="1" /><path clip-path="url(#clip780)" d="M53.3995 1013.67 L61.0384 1013.67 L61.0384 987.306 L52.7282 988.973 L52.7282 984.714 L60.9921 983.047 L65.668 983.047 L65.668 1013.67 L73.3068 1013.67 L73.3068 1017.61 L53.3995 1017.61 L53.3995 1013.67 Z" fill="#000000" fill-rule="nonzero" fill-opacity="1" /><path clip-path="url(#clip780)" d="M92.7512 986.126 Q89.1401 986.126 87.3114 989.69 Q85.5058 993.232 85.5058 1000.36 Q85.5058 1007.47 87.3114 1011.03 Q89.1401 1014.57 92.7512 1014.57 Q96.3854 1014.57 98.1909 1011.03 Q100.02 1007.47 100.02 1000.36 Q100.02 993.232 98.1909 989.69 Q96.3854 986.126 92.7512 986.126 M92.7512 982.422 Q98.5613 982.422 101.617 987.028 Q104.696 991.612 104.696 1000.36 Q104.696 1009.09 101.617 1013.69 Q98.5613 1018.28 92.7512 1018.28 Q86.941 1018.28 83.8623 1013.69 Q80.8068 1009.09 80.8068 1000.36 Q80.8068 991.612 83.8623 987.028 Q86.941 982.422 92.7512 982.422 Z" fill="#000000" fill-rule="nonzero" fill-opacity="1" /><path clip-path="url(#clip780)" d="M122.913 986.126 Q119.302 986.126 117.473 989.69 Q115.668 993.232 115.668 1000.36 Q115.668 1007.47 117.473 1011.03 Q119.302 1014.57 122.913 1014.57 Q126.547 1014.57 128.353 1011.03 Q130.182 1007.47 130.182 1000.36 Q130.182 993.232 128.353 989.69 Q126.547 986.126 122.913 986.126 M122.913 982.422 Q128.723 982.422 131.779 987.028 Q134.857 991.612 134.857 1000.36 Q134.857 1009.09 131.779 1013.69 Q128.723 1018.28 122.913 1018.28 Q117.103 1018.28 114.024 1013.69 Q110.969 1009.09 110.969 1000.36 Q110.969 991.612 114.024 987.028 Q117.103 982.422 122.913 982.422 Z" fill="#000000" fill-rule="nonzero" fill-opacity="1" /><path clip-path="url(#clip780)" d="M56.6171 559.888 L72.9365 559.888 L72.9365 563.823 L50.9921 563.823 L50.9921 559.888 Q53.6541 557.133 58.2375 552.503 Q62.8439 547.851 64.0245 546.508 Q66.2698 543.985 67.1494 542.249 Q68.0522 540.49 68.0522 538.8 Q68.0522 536.045 66.1078 534.309 Q64.1865 532.573 61.0847 532.573 Q58.8856 532.573 56.4319 533.337 Q54.0014 534.101 51.2236 535.652 L51.2236 530.929 Q54.0477 529.795 56.5014 529.217 Q58.955 528.638 60.9921 528.638 Q66.3624 528.638 69.5568 531.323 Q72.7513 534.008 72.7513 538.499 Q72.7513 540.628 71.9411 542.55 Q71.1541 544.448 69.0476 547.041 Q68.4689 547.712 65.367 550.929 Q62.2652 554.124 56.6171 559.888 Z" fill="#000000" fill-rule="nonzero" fill-opacity="1" /><path clip-path="url(#clip780)" d="M92.7512 532.342 Q89.1401 532.342 87.3114 535.906 Q85.5058 539.448 85.5058 546.578 Q85.5058 553.684 87.3114 557.249 Q89.1401 560.79 92.7512 560.79 Q96.3854 560.79 98.1909 557.249 Q100.02 553.684 100.02 546.578 Q100.02 539.448 98.1909 535.906 Q96.3854 532.342 92.7512 532.342 M92.7512 528.638 Q98.5613 528.638 101.617 533.244 Q104.696 537.828 104.696 546.578 Q104.696 555.304 101.617 559.911 Q98.5613 564.494 92.7512 564.494 Q86.941 564.494 83.8623 559.911 Q80.8068 555.304 80.8068 546.578 Q80.8068 537.828 83.8623 533.244 Q86.941 528.638 92.7512 528.638 Z" fill="#000000" fill-rule="nonzero" fill-opacity="1" /><path clip-path="url(#clip780)" d="M122.913 532.342 Q119.302 532.342 117.473 535.906 Q115.668 539.448 115.668 546.578 Q115.668 553.684 117.473 557.249 Q119.302 560.79 122.913 560.79 Q126.547 560.79 128.353 557.249 Q130.182 553.684 130.182 546.578 Q130.182 539.448 128.353 535.906 Q126.547 532.342 122.913 532.342 M122.913 528.638 Q128.723 528.638 131.779 533.244 Q134.857 537.828 134.857 546.578 Q134.857 555.304 131.779 559.911 Q128.723 564.494 122.913 564.494 Q117.103 564.494 114.024 559.911 Q110.969 555.304 110.969 546.578 Q110.969 537.828 114.024 533.244 Q117.103 528.638 122.913 528.638 Z" fill="#000000" fill-rule="nonzero" fill-opacity="1" /><path clip-path="url(#clip780)" d="M66.7559 91.4045 Q70.1124 92.1221 71.9874 94.3906 Q73.8855 96.6591 73.8855 99.9924 Q73.8855 105.108 70.367 107.909 Q66.8485 110.71 60.3671 110.71 Q58.1912 110.71 55.8764 110.27 Q53.5847 109.853 51.131 108.997 L51.131 104.483 Q53.0754 105.617 55.3903 106.196 Q57.7051 106.775 60.2282 106.775 Q64.6263 106.775 66.918 105.039 Q69.2328 103.303 69.2328 99.9924 Q69.2328 96.9369 67.08 95.2239 Q64.9504 93.4878 61.131 93.4878 L57.1032 93.4878 L57.1032 89.6452 L61.3161 89.6452 Q64.7652 89.6452 66.5939 88.2795 Q68.4226 86.8906 68.4226 84.298 Q68.4226 81.636 66.5245 80.224 Q64.6495 78.7888 61.131 78.7888 Q59.2097 78.7888 57.0106 79.2055 Q54.8115 79.6221 52.1727 80.5018 L52.1727 76.3351 Q54.8347 75.5944 57.1495 75.224 Q59.4875 74.8537 61.5476 74.8537 Q66.8717 74.8537 69.9735 77.2842 Q73.0753 79.6916 73.0753 83.8119 Q73.0753 86.6823 71.4318 88.673 Q69.7883 90.6406 66.7559 91.4045 Z" fill="#000000" fill-rule="nonzero" fill-opacity="1" /><path clip-path="url(#clip780)" d="M92.7512 78.5573 Q89.1401 78.5573 87.3114 82.1221 Q85.5058 85.6638 85.5058 92.7934 Q85.5058 99.8998 87.3114 103.465 Q89.1401 107.006 92.7512 107.006 Q96.3854 107.006 98.1909 103.465 Q100.02 99.8998 100.02 92.7934 Q100.02 85.6638 98.1909 82.1221 Q96.3854 78.5573 92.7512 78.5573 M92.7512 74.8537 Q98.5613 74.8537 101.617 79.4601 Q104.696 84.0434 104.696 92.7934 Q104.696 101.52 101.617 106.127 Q98.5613 110.71 92.7512 110.71 Q86.941 110.71 83.8623 106.127 Q80.8068 101.52 80.8068 92.7934 Q80.8068 84.0434 83.8623 79.4601 Q86.941 74.8537 92.7512 74.8537 Z" fill="#000000" fill-rule="nonzero" fill-opacity="1" /><path clip-path="url(#clip780)" d="M122.913 78.5573 Q119.302 78.5573 117.473 82.1221 Q115.668 85.6638 115.668 92.7934 Q115.668 99.8998 117.473 103.465 Q119.302 107.006 122.913 107.006 Q126.547 107.006 128.353 103.465 Q130.182 99.8998 130.182 92.7934 Q130.182 85.6638 128.353 82.1221 Q126.547 78.5573 122.913 78.5573 M122.913 74.8537 Q128.723 74.8537 131.779 79.4601 Q134.857 84.0434 134.857 92.7934 Q134.857 101.52 131.779 106.127 Q128.723 110.71 122.913 110.71 Q117.103 110.71 114.024 106.127 Q110.969 101.52 110.969 92.7934 Q110.969 84.0434 114.024 79.4601 Q117.103 74.8537 122.913 74.8537 Z" fill="#000000" fill-rule="nonzero" fill-opacity="1" /><path clip-path="url(#clip782)" d="M290.866 1390.58 L290.866 1454.11 L614.513 1454.11 L614.513 1390.58 L290.866 1390.58 L290.866 1390.58  Z" fill="#e69f00" fill-rule="evenodd" fill-opacity="1"/>
<polyline clip-path="url(#clip782)" style="stroke:#000000; stroke-linecap:round; stroke-linejoin:round; stroke-width:4; stroke-opacity:1; fill:none" points="290.866,1390.58 290.866,1454.11 614.513,1454.11 614.513,1390.58 290.866,1390.58 "/>
<path clip-path="url(#clip782)" d="M695.424 88.2208 L695.424 1454.11 L1019.07 1454.11 L1019.07 88.2208 L695.424 88.2208 L695.424 88.2208  Z" fill="#e69f00" fill-rule="evenodd" fill-opacity="1"/>
<polyline clip-path="url(#clip782)" style="stroke:#000000; stroke-linecap:round; stroke-linejoin:round; stroke-width:4; stroke-opacity:1; fill:none" points="695.424,88.2208 695.424,1454.11 1019.07,1454.11 1019.07,88.2208 695.424,88.2208 "/>
<path clip-path="url(#clip782)" d="M1099.98 569.232 L1099.98 1454.11 L1423.63 1454.11 L1423.63 569.232 L1099.98 569.232 L1099.98 569.232  Z" fill="#e69f00" fill-rule="evenodd" fill-opacity="1"/>
<polyline clip-path="url(#clip782)" style="stroke:#000000; stroke-linecap:round; stroke-linejoin:round; stroke-width:4; stroke-opacity:1; fill:none" points="1099.98,569.232 1099.98,1454.11 1423.63,1454.11 1423.63,569.232 1099.98,569.232 "/>
<path clip-path="url(#clip782)" d="M1504.54 1199.99 L1504.54 1454.11 L1828.19 1454.11 L1828.19 1199.99 L1504.54 1199.99 L1504.54 1199.99  Z" fill="#e69f00" fill-rule="evenodd" fill-opacity="1"/>
<polyline clip-path="url(#clip782)" style="stroke:#000000; stroke-linecap:round; stroke-linejoin:round; stroke-width:4; stroke-opacity:1; fill:none" points="1504.54,1199.99 1504.54,1454.11 1828.19,1454.11 1828.19,1199.99 1504.54,1199.99 "/>
<path clip-path="url(#clip782)" d="M1909.1 1299.82 L1909.1 1454.11 L2232.75 1454.11 L2232.75 1299.82 L1909.1 1299.82 L1909.1 1299.82  Z" fill="#e69f00" fill-rule="evenodd" fill-opacity="1"/>
<polyline clip-path="url(#clip782)" style="stroke:#000000; stroke-linecap:round; stroke-linejoin:round; stroke-width:4; stroke-opacity:1; fill:none" points="1909.1,1299.82 1909.1,1454.11 2232.75,1454.11 2232.75,1299.82 1909.1,1299.82 "/>
<circle clip-path="url(#clip782)" style="fill:#e69f00; stroke:none; fill-opacity:0" cx="452.689" cy="1390.58" r="2"/>
<circle clip-path="url(#clip782)" style="fill:#e69f00; stroke:none; fill-opacity:0" cx="857.248" cy="88.2208" r="2"/>
<circle clip-path="url(#clip782)" style="fill:#e69f00; stroke:none; fill-opacity:0" cx="1261.81" cy="569.232" r="2"/>
<circle clip-path="url(#clip782)" style="fill:#e69f00; stroke:none; fill-opacity:0" cx="1666.37" cy="1199.99" r="2"/>
<circle clip-path="url(#clip782)" style="fill:#e69f00; stroke:none; fill-opacity:0" cx="2070.92" cy="1299.82" r="2"/>
</svg>
