<?xml version="1.0" encoding="utf-8"?>
<svg xmlns="http://www.w3.org/2000/svg" xmlns:xlink="http://www.w3.org/1999/xlink" width="600" height="400" viewBox="0 0 2400 1600">
<defs>
  <clipPath id="clip870">
    <rect x="0" y="0" width="2400" height="1600"/>
  </clipPath>
</defs>
<path clip-path="url(#clip870)" d="M0 1600 L2400 1600 L2400 0 L0 0  Z" fill="#ffffff" fill-rule="evenodd" fill-opacity="1"/>
<defs>
  <clipPath id="clip871">
    <rect x="480" y="0" width="1681" height="1600"/>
  </clipPath>
</defs>
<path clip-path="url(#clip870)" d="M170.857 1495.09 L2352.76 1495.09 L2352.76 47.2441 L170.857 47.2441  Z" fill="#ffffff" fill-rule="evenodd" fill-opacity="1"/>
<defs>
  <clipPath id="clip872">
    <rect x="170" y="47" width="2183" height="1449"/>
  </clipPath>
</defs>
<polyline clip-path="url(#clip872)" style="stroke:#000000; stroke-linecap:round; stroke-linejoin:round; stroke-width:2; stroke-opacity:0.1; fill:none" points="452.689,1495.09 452.689,47.2441 "/>
<polyline clip-path="url(#clip872)" style="stroke:#000000; stroke-linecap:round; stroke-linejoin:round; stroke-width:2; stroke-opacity:0.1; fill:none" points="857.248,1495.09 857.248,47.2441 "/>
<polyline clip-path="url(#clip872)" style="stroke:#000000; stroke-linecap:round; stroke-linejoin:round; stroke-width:2; stroke-opacity:0.1; fill:none" points="1261.81,1495.09 1261.81,47.2441 "/>
<polyline clip-path="url(#clip872)" style="stroke:#000000; stroke-linecap:round; stroke-linejoin:round; stroke-width:2; stroke-opacity:0.1; fill:none" points="1666.37,1495.09 1666.37,47.2441 "/>
<polyline clip-path="url(#clip872)" style="stroke:#000000; stroke-linecap:round; stroke-linejoin:round; stroke-width:2; stroke-opacity:0.1; fill:none" points="2070.92,1495.09 2070.92,47.2441 "/>
<polyline clip-path="url(#clip870)" style="stroke:#000000; stroke-linecap:round; stroke-linejoin:round; stroke-width:4; stroke-opacity:1; fill:none" points="170.857,1495.09 2352.76,1495.09 "/>
<polyline clip-path="url(#clip870)" style="stroke:#000000; stroke-linecap:round; stroke-linejoin:round; stroke-width:4; stroke-opacity:1; fill:none" points="452.689,1495.09 452.689,1476.19 "/>
<polyline clip-path="url(#clip870)" style="stroke:#000000; stroke-linecap:round; stroke-linejoin:round; stroke-width:4; stroke-opacity:1; fill:none" points="857.248,1495.09 857.248,1476.19 "/>
<polyline clip-path="url(#clip870)" style="stroke:#000000; stroke-linecap:round; stroke-linejoin:round; stroke-width:4; stroke-opacity:1; fill:none" points="1261.81,1495.09 1261.81,1476.19 "/>
<polyline clip-path="url(#clip870)" style="stroke:#000000; stroke-linecap:round; stroke-linejoin:round; stroke-width:4; stroke-opacity:1; fill:none" points="1666.37,1495.09 1666.37,1476.19 "/>
<polyline clip-path="url(#clip870)" style="stroke:#000000; stroke-linecap:round; stroke-linejoin:round; stroke-width:4; stroke-opacity:1; fill:none" points="2070.92,1495.09 2070.92,1476.19 "/>
<path clip-path="url(#clip870)" d="M309.556 1519.52 L309.556 1555.07 L306.605 1555.07 L306.605 1519.52 L309.556 1519.52 Z" fill="#000000" fill-rule="evenodd" fill-opacity="1" /><path clip-path="url(#clip870)" d="M336.969 1522.76 L336.969 1526.46 Q335.199 1524.81 333.185 1524 Q331.188 1523.18 328.931 1523.18 Q324.487 1523.18 322.126 1525.91 Q319.765 1528.62 319.765 1533.75 Q319.765 1538.88 322.126 1541.6 Q324.487 1544.31 328.931 1544.31 Q331.188 1544.31 333.185 1543.49 Q335.199 1542.68 336.969 1541.03 L336.969 1544.69 Q335.129 1545.94 333.063 1546.57 Q331.015 1547.19 328.723 1547.19 Q322.837 1547.19 319.452 1543.6 Q316.067 1539.99 316.067 1533.75 Q316.067 1527.5 319.452 1523.91 Q322.837 1520.3 328.723 1520.3 Q331.049 1520.3 333.098 1520.92 Q335.164 1521.53 336.969 1522.76 Z" fill="#000000" fill-rule="evenodd" fill-opacity="1" /><path clip-path="url(#clip870)" d="M346.362 1519.52 L346.362 1555.07 L343.41 1555.07 L343.41 1519.52 L346.362 1519.52 Z" fill="#000000" fill-rule="evenodd" fill-opacity="1" /><path clip-path="url(#clip870)" d="M368.132 1535.8 Q368.254 1537.09 369.348 1539.17 Q370.632 1541.58 373.063 1542.94 Q375.441 1544.26 378.011 1544.27 L390.111 1544.27 L390.111 1547.04 L378.011 1547.04 Q374.677 1547.04 371.587 1545.32 Q368.514 1543.6 366.865 1540.54 Q365.216 1537.49 365.216 1534.24 Q365.216 1531.03 366.865 1527.97 Q368.514 1524.92 371.587 1523.18 Q374.677 1521.44 378.011 1521.44 L390.111 1521.44 L390.111 1524.21 L378.011 1524.21 Q375.441 1524.22 373.063 1525.56 Q370.65 1526.93 369.348 1529.33 Q368.237 1531.41 368.08 1533.02 L390.111 1533.02 L390.111 1535.8 L368.132 1535.8 Z" fill="#000000" fill-rule="evenodd" fill-opacity="1" /><path clip-path="url(#clip870)" d="M415.476 1519.71 Q413.149 1523.7 412.021 1527.61 Q410.893 1531.51 410.893 1535.52 Q410.893 1539.54 412.021 1543.48 Q413.167 1547.4 415.476 1551.38 L412.698 1551.38 Q410.094 1547.3 408.792 1543.35 Q407.507 1539.41 407.507 1535.52 Q407.507 1531.65 408.792 1527.73 Q410.077 1523.81 412.698 1519.71 L415.476 1519.71 Z" fill="#000000" fill-rule="evenodd" fill-opacity="1" /><path clip-path="url(#clip870)" d="M425.146 1543.74 L437.385 1543.74 L437.385 1546.69 L420.927 1546.69 L420.927 1543.74 Q422.924 1541.67 426.361 1538.2 Q429.816 1534.71 430.701 1533.7 Q432.385 1531.81 433.045 1530.51 Q433.722 1529.19 433.722 1527.92 Q433.722 1525.85 432.264 1524.55 Q430.823 1523.25 428.497 1523.25 Q426.847 1523.25 425.007 1523.82 Q423.184 1524.4 421.101 1525.56 L421.101 1522.02 Q423.219 1521.17 425.059 1520.73 Q426.899 1520.3 428.427 1520.3 Q432.455 1520.3 434.851 1522.31 Q437.247 1524.33 437.247 1527.69 Q437.247 1529.29 436.639 1530.73 Q436.049 1532.16 434.469 1534.1 Q434.035 1534.6 431.708 1537.02 Q429.382 1539.41 425.146 1543.74 Z" fill="#000000" fill-rule="evenodd" fill-opacity="1" /><path clip-path="url(#clip870)" d="M444.747 1542.28 L448.41 1542.28 L448.41 1546.69 L444.747 1546.69 L444.747 1542.28 Z" fill="#000000" fill-rule="evenodd" fill-opacity="1" /><path clip-path="url(#clip870)" d="M456.656 1543.74 L462.385 1543.74 L462.385 1523.96 L456.153 1525.21 L456.153 1522.02 L462.351 1520.77 L465.858 1520.77 L465.858 1543.74 L471.587 1543.74 L471.587 1546.69 L456.656 1546.69 L456.656 1543.74 Z" fill="#000000" fill-rule="evenodd" fill-opacity="1" /><path clip-path="url(#clip870)" d="M486.17 1534.38 Q483.67 1534.38 482.229 1535.72 Q480.805 1537.05 480.805 1539.4 Q480.805 1541.74 482.229 1543.08 Q483.67 1544.41 486.17 1544.41 Q488.67 1544.41 490.111 1543.08 Q491.552 1541.72 491.552 1539.4 Q491.552 1537.05 490.111 1535.72 Q488.687 1534.38 486.17 1534.38 M482.663 1532.89 Q480.406 1532.33 479.139 1530.79 Q477.889 1529.24 477.889 1527.02 Q477.889 1523.91 480.094 1522.1 Q482.316 1520.3 486.17 1520.3 Q490.041 1520.3 492.246 1522.1 Q494.451 1523.91 494.451 1527.02 Q494.451 1529.24 493.184 1530.79 Q491.934 1532.33 489.694 1532.89 Q492.229 1533.48 493.635 1535.19 Q495.059 1536.91 495.059 1539.4 Q495.059 1543.16 492.75 1545.18 Q490.458 1547.19 486.17 1547.19 Q481.882 1547.19 479.573 1545.18 Q477.281 1543.16 477.281 1539.4 Q477.281 1536.91 478.705 1535.19 Q480.128 1533.48 482.663 1532.89 M481.378 1527.35 Q481.378 1529.36 482.628 1530.49 Q483.896 1531.62 486.17 1531.62 Q488.427 1531.62 489.694 1530.49 Q490.979 1529.36 490.979 1527.35 Q490.979 1525.33 489.694 1524.21 Q488.427 1523.08 486.17 1523.08 Q483.896 1523.08 482.628 1524.21 Q481.378 1525.33 481.378 1527.35 Z" fill="#000000" fill-rule="evenodd" fill-opacity="1" /><path clip-path="url(#clip870)" d="M501.656 1542.28 L505.319 1542.28 L505.319 1545.26 L502.472 1550.82 L500.232 1550.82 L501.656 1545.26 L501.656 1542.28 Z" fill="#000000" fill-rule="evenodd" fill-opacity="1" /><path clip-path="url(#clip870)" d="M515.614 1543.74 L527.854 1543.74 L527.854 1546.69 L511.395 1546.69 L511.395 1543.74 Q513.392 1541.67 516.829 1538.2 Q520.284 1534.71 521.17 1533.7 Q522.854 1531.81 523.513 1530.51 Q524.191 1529.19 524.191 1527.92 Q524.191 1525.85 522.732 1524.55 Q521.291 1523.25 518.965 1523.25 Q517.316 1523.25 515.475 1523.82 Q513.652 1524.4 511.569 1525.56 L511.569 1522.02 Q513.687 1521.17 515.527 1520.73 Q517.368 1520.3 518.895 1520.3 Q522.923 1520.3 525.319 1522.31 Q527.715 1524.33 527.715 1527.69 Q527.715 1529.29 527.107 1530.73 Q526.517 1532.16 524.937 1534.1 Q524.503 1534.6 522.177 1537.02 Q519.85 1539.41 515.614 1543.74 Z" fill="#000000" fill-rule="evenodd" fill-opacity="1" /><path clip-path="url(#clip870)" d="M535.215 1542.28 L538.878 1542.28 L538.878 1546.69 L535.215 1546.69 L535.215 1542.28 Z" fill="#000000" fill-rule="evenodd" fill-opacity="1" /><path clip-path="url(#clip870)" d="M549.538 1543.74 L561.777 1543.74 L561.777 1546.69 L545.319 1546.69 L545.319 1543.74 Q547.315 1541.67 550.753 1538.2 Q554.208 1534.71 555.093 1533.7 Q556.777 1531.81 557.437 1530.51 Q558.114 1529.19 558.114 1527.92 Q558.114 1525.85 556.656 1524.55 Q555.215 1523.25 552.888 1523.25 Q551.239 1523.25 549.399 1523.82 Q547.576 1524.4 545.493 1525.56 L545.493 1522.02 Q547.611 1521.17 549.451 1520.73 Q551.291 1520.3 552.819 1520.3 Q556.847 1520.3 559.242 1522.31 Q561.638 1524.33 561.638 1527.69 Q561.638 1529.29 561.031 1530.73 Q560.44 1532.16 558.861 1534.1 Q558.426 1534.6 556.1 1537.02 Q553.774 1539.41 549.538 1543.74 Z" fill="#000000" fill-rule="evenodd" fill-opacity="1" /><path clip-path="url(#clip870)" d="M572.159 1543.74 L584.399 1543.74 L584.399 1546.69 L567.94 1546.69 L567.94 1543.74 Q569.937 1541.67 573.374 1538.2 Q576.829 1534.71 577.715 1533.7 Q579.399 1531.81 580.058 1530.51 Q580.735 1529.19 580.735 1527.92 Q580.735 1525.85 579.277 1524.55 Q577.836 1523.25 575.51 1523.25 Q573.86 1523.25 572.02 1523.82 Q570.197 1524.4 568.114 1525.56 L568.114 1522.02 Q570.232 1521.17 572.072 1520.73 Q573.913 1520.3 575.44 1520.3 Q579.468 1520.3 581.864 1522.31 Q584.26 1524.33 584.26 1527.69 Q584.26 1529.29 583.652 1530.73 Q583.062 1532.16 581.482 1534.1 Q581.048 1534.6 578.722 1537.02 Q576.395 1539.41 572.159 1543.74 Z" fill="#000000" fill-rule="evenodd" fill-opacity="1" /><path clip-path="url(#clip870)" d="M598.773 1519.67 L598.773 1551.38 L591.412 1551.38 L591.412 1548.89 L595.562 1548.89 L595.562 1522.16 L591.412 1522.16 L591.412 1519.67 L598.773 1519.67 Z" fill="#000000" fill-rule="evenodd" fill-opacity="1" /><path clip-path="url(#clip870)" d="M714.115 1519.52 L714.115 1555.07 L711.164 1555.07 L711.164 1519.52 L714.115 1519.52 Z" fill="#000000" fill-rule="evenodd" fill-opacity="1" /><path clip-path="url(#clip870)" d="M741.528 1522.76 L741.528 1526.46 Q739.757 1524.81 737.743 1524 Q735.747 1523.18 733.49 1523.18 Q729.045 1523.18 726.684 1525.91 Q724.323 1528.62 724.323 1533.75 Q724.323 1538.88 726.684 1541.6 Q729.045 1544.31 733.49 1544.31 Q735.747 1544.31 737.743 1543.49 Q739.757 1542.68 741.528 1541.03 L741.528 1544.69 Q739.688 1545.94 737.622 1546.57 Q735.573 1547.19 733.282 1547.19 Q727.396 1547.19 724.011 1543.6 Q720.625 1539.99 720.625 1533.75 Q720.625 1527.5 724.011 1523.91 Q727.396 1520.3 733.282 1520.3 Q735.608 1520.3 737.657 1520.92 Q739.723 1521.53 741.528 1522.76 Z" fill="#000000" fill-rule="evenodd" fill-opacity="1" /><path clip-path="url(#clip870)" d="M750.92 1519.52 L750.92 1555.07 L747.969 1555.07 L747.969 1519.52 L750.92 1519.52 Z" fill="#000000" fill-rule="evenodd" fill-opacity="1" /><path clip-path="url(#clip870)" d="M772.691 1535.8 Q772.813 1537.09 773.906 1539.17 Q775.191 1541.58 777.622 1542.94 Q780 1544.26 782.57 1544.27 L794.67 1544.27 L794.67 1547.04 L782.57 1547.04 Q779.236 1547.04 776.146 1545.32 Q773.073 1543.6 771.424 1540.54 Q769.774 1537.49 769.774 1534.24 Q769.774 1531.03 771.424 1527.97 Q773.073 1524.92 776.146 1523.18 Q779.236 1521.44 782.57 1521.44 L794.67 1521.44 L794.67 1524.21 L782.57 1524.21 Q780 1524.22 777.622 1525.56 Q775.208 1526.93 773.906 1529.33 Q772.795 1531.41 772.639 1533.02 L794.67 1533.02 L794.67 1535.8 L772.691 1535.8 Z" fill="#000000" fill-rule="evenodd" fill-opacity="1" /><path clip-path="url(#clip870)" d="M820.035 1519.71 Q817.708 1523.7 816.58 1527.61 Q815.451 1531.51 815.451 1535.52 Q815.451 1539.54 816.58 1543.48 Q817.726 1547.4 820.035 1551.38 L817.257 1551.38 Q814.653 1547.3 813.351 1543.35 Q812.066 1539.41 812.066 1535.52 Q812.066 1531.65 813.351 1527.73 Q814.635 1523.81 817.257 1519.71 L820.035 1519.71 Z" fill="#000000" fill-rule="evenodd" fill-opacity="1" /><path clip-path="url(#clip870)" d="M829.705 1543.74 L841.944 1543.74 L841.944 1546.69 L825.486 1546.69 L825.486 1543.74 Q827.482 1541.67 830.92 1538.2 Q834.375 1534.71 835.26 1533.7 Q836.944 1531.81 837.604 1530.51 Q838.281 1529.19 838.281 1527.92 Q838.281 1525.85 836.823 1524.55 Q835.382 1523.25 833.055 1523.25 Q831.406 1523.25 829.566 1523.82 Q827.743 1524.4 825.66 1525.56 L825.66 1522.02 Q827.778 1521.17 829.618 1520.73 Q831.458 1520.3 832.986 1520.3 Q837.014 1520.3 839.409 1522.31 Q841.805 1524.33 841.805 1527.69 Q841.805 1529.29 841.198 1530.73 Q840.607 1532.16 839.028 1534.1 Q838.594 1534.6 836.267 1537.02 Q833.941 1539.41 829.705 1543.74 Z" fill="#000000" fill-rule="evenodd" fill-opacity="1" /><path clip-path="url(#clip870)" d="M849.305 1542.28 L852.968 1542.28 L852.968 1546.69 L849.305 1546.69 L849.305 1542.28 Z" fill="#000000" fill-rule="evenodd" fill-opacity="1" /><path clip-path="url(#clip870)" d="M863.628 1543.74 L875.868 1543.74 L875.868 1546.69 L859.409 1546.69 L859.409 1543.74 Q861.406 1541.67 864.843 1538.2 Q868.298 1534.71 869.184 1533.7 Q870.868 1531.81 871.527 1530.51 Q872.204 1529.19 872.204 1527.92 Q872.204 1525.85 870.746 1524.55 Q869.305 1523.25 866.979 1523.25 Q865.329 1523.25 863.489 1523.82 Q861.666 1524.4 859.583 1525.56 L859.583 1522.02 Q861.701 1521.17 863.541 1520.73 Q865.382 1520.3 866.909 1520.3 Q870.937 1520.3 873.333 1522.31 Q875.729 1524.33 875.729 1527.69 Q875.729 1529.29 875.121 1530.73 Q874.531 1532.16 872.951 1534.1 Q872.517 1534.6 870.191 1537.02 Q867.864 1539.41 863.628 1543.74 Z" fill="#000000" fill-rule="evenodd" fill-opacity="1" /><path clip-path="url(#clip870)" d="M886.25 1543.74 L898.489 1543.74 L898.489 1546.69 L882.031 1546.69 L882.031 1543.74 Q884.027 1541.67 887.465 1538.2 Q890.92 1534.71 891.805 1533.7 Q893.489 1531.81 894.149 1530.51 Q894.826 1529.19 894.826 1527.92 Q894.826 1525.85 893.368 1524.55 Q891.927 1523.25 889.6 1523.25 Q887.951 1523.25 886.111 1523.82 Q884.288 1524.4 882.204 1525.56 L882.204 1522.02 Q884.322 1521.17 886.163 1520.73 Q888.003 1520.3 889.531 1520.3 Q893.559 1520.3 895.954 1522.31 Q898.35 1524.33 898.35 1527.69 Q898.35 1529.29 897.743 1530.73 Q897.152 1532.16 895.572 1534.1 Q895.138 1534.6 892.812 1537.02 Q890.486 1539.41 886.25 1543.74 Z" fill="#000000" fill-rule="evenodd" fill-opacity="1" /><path clip-path="url(#clip870)" d="M906.215 1542.28 L909.878 1542.28 L909.878 1545.26 L907.031 1550.82 L904.791 1550.82 L906.215 1545.26 L906.215 1542.28 Z" fill="#000000" fill-rule="evenodd" fill-opacity="1" /><path clip-path="url(#clip870)" d="M920.173 1543.74 L932.412 1543.74 L932.412 1546.69 L915.954 1546.69 L915.954 1543.74 Q917.951 1541.67 921.388 1538.2 Q924.843 1534.71 925.728 1533.7 Q927.412 1531.81 928.072 1530.51 Q928.749 1529.19 928.749 1527.92 Q928.749 1525.85 927.291 1524.55 Q925.85 1523.25 923.524 1523.25 Q921.874 1523.25 920.034 1523.82 Q918.211 1524.4 916.128 1525.56 L916.128 1522.02 Q918.246 1521.17 920.086 1520.73 Q921.926 1520.3 923.454 1520.3 Q927.482 1520.3 929.878 1522.31 Q932.274 1524.33 932.274 1527.69 Q932.274 1529.29 931.666 1530.73 Q931.076 1532.16 929.496 1534.1 Q929.062 1534.6 926.735 1537.02 Q924.409 1539.41 920.173 1543.74 Z" fill="#000000" fill-rule="evenodd" fill-opacity="1" /><path clip-path="url(#clip870)" d="M939.774 1542.28 L943.437 1542.28 L943.437 1546.69 L939.774 1546.69 L939.774 1542.28 Z" fill="#000000" fill-rule="evenodd" fill-opacity="1" /><path clip-path="url(#clip870)" d="M954.096 1543.74 L966.336 1543.74 L966.336 1546.69 L949.878 1546.69 L949.878 1543.74 Q951.874 1541.67 955.312 1538.2 Q958.766 1534.71 959.652 1533.7 Q961.336 1531.81 961.996 1530.51 Q962.673 1529.19 962.673 1527.92 Q962.673 1525.85 961.214 1524.55 Q959.773 1523.25 957.447 1523.25 Q955.798 1523.25 953.957 1523.82 Q952.135 1524.4 950.051 1525.56 L950.051 1522.02 Q952.169 1521.17 954.01 1520.73 Q955.85 1520.3 957.378 1520.3 Q961.405 1520.3 963.801 1522.31 Q966.197 1524.33 966.197 1527.69 Q966.197 1529.29 965.589 1530.73 Q964.999 1532.16 963.419 1534.1 Q962.985 1534.6 960.659 1537.02 Q958.332 1539.41 954.096 1543.74 Z" fill="#000000" fill-rule="evenodd" fill-opacity="1" /><path clip-path="url(#clip870)" d="M973.732 1520.77 L987.499 1520.77 L987.499 1523.72 L976.943 1523.72 L976.943 1530.07 Q977.707 1529.81 978.471 1529.69 Q979.235 1529.55 979.999 1529.55 Q984.339 1529.55 986.874 1531.93 Q989.409 1534.31 989.409 1538.37 Q989.409 1542.56 986.805 1544.88 Q984.2 1547.19 979.461 1547.19 Q977.829 1547.19 976.128 1546.91 Q974.443 1546.64 972.638 1546.08 L972.638 1542.56 Q974.2 1543.41 975.867 1543.82 Q977.534 1544.24 979.391 1544.24 Q982.395 1544.24 984.148 1542.66 Q985.902 1541.08 985.902 1538.37 Q985.902 1535.66 984.148 1534.08 Q982.395 1532.5 979.391 1532.5 Q977.985 1532.5 976.579 1532.82 Q975.19 1533.13 973.732 1533.79 L973.732 1520.77 Z" fill="#000000" fill-rule="evenodd" fill-opacity="1" /><path clip-path="url(#clip870)" d="M1003.33 1519.67 L1003.33 1551.38 L995.971 1551.38 L995.971 1548.89 L1000.12 1548.89 L1000.12 1522.16 L995.971 1522.16 L995.971 1519.67 L1003.33 1519.67 Z" fill="#000000" fill-rule="evenodd" fill-opacity="1" /><path clip-path="url(#clip870)" d="M1118.67 1519.52 L1118.67 1555.07 L1115.72 1555.07 L1115.72 1519.52 L1118.67 1519.52 Z" fill="#000000" fill-rule="evenodd" fill-opacity="1" /><path clip-path="url(#clip870)" d="M1146.09 1522.76 L1146.09 1526.46 Q1144.32 1524.81 1142.3 1524 Q1140.31 1523.18 1138.05 1523.18 Q1133.6 1523.18 1131.24 1525.91 Q1128.88 1528.62 1128.88 1533.75 Q1128.88 1538.88 1131.24 1541.6 Q1133.6 1544.31 1138.05 1544.31 Q1140.31 1544.31 1142.3 1543.49 Q1144.32 1542.68 1146.09 1541.03 L1146.09 1544.69 Q1144.25 1545.94 1142.18 1546.57 Q1140.13 1547.19 1137.84 1547.19 Q1131.95 1547.19 1128.57 1543.6 Q1125.18 1539.99 1125.18 1533.75 Q1125.18 1527.5 1128.57 1523.91 Q1131.95 1520.3 1137.84 1520.3 Q1140.17 1520.3 1142.22 1520.92 Q1144.28 1521.53 1146.09 1522.76 Z" fill="#000000" fill-rule="evenodd" fill-opacity="1" /><path clip-path="url(#clip870)" d="M1155.48 1519.52 L1155.48 1555.07 L1152.53 1555.07 L1152.53 1519.52 L1155.48 1519.52 Z" fill="#000000" fill-rule="evenodd" fill-opacity="1" /><path clip-path="url(#clip870)" d="M1177.25 1535.8 Q1177.37 1537.09 1178.47 1539.17 Q1179.75 1541.58 1182.18 1542.94 Q1184.56 1544.26 1187.13 1544.27 L1199.23 1544.27 L1199.23 1547.04 L1187.13 1547.04 Q1183.79 1547.04 1180.7 1545.32 Q1177.63 1543.6 1175.98 1540.54 Q1174.33 1537.49 1174.33 1534.24 Q1174.33 1531.03 1175.98 1527.97 Q1177.63 1524.92 1180.7 1523.18 Q1183.79 1521.44 1187.13 1521.44 L1199.23 1521.44 L1199.23 1524.21 L1187.13 1524.21 Q1184.56 1524.22 1182.18 1525.56 Q1179.77 1526.93 1178.47 1529.33 Q1177.35 1531.41 1177.2 1533.02 L1199.23 1533.02 L1199.23 1535.8 L1177.25 1535.8 Z" fill="#000000" fill-rule="evenodd" fill-opacity="1" /><path clip-path="url(#clip870)" d="M1224.59 1519.71 Q1222.27 1523.7 1221.14 1527.61 Q1220.01 1531.51 1220.01 1535.52 Q1220.01 1539.54 1221.14 1543.48 Q1222.28 1547.4 1224.59 1551.38 L1221.82 1551.38 Q1219.21 1547.3 1217.91 1543.35 Q1216.62 1539.41 1216.62 1535.52 Q1216.62 1531.65 1217.91 1527.73 Q1219.19 1523.81 1221.82 1519.71 L1224.59 1519.71 Z" fill="#000000" fill-rule="evenodd" fill-opacity="1" /><path clip-path="url(#clip870)" d="M1234.26 1543.74 L1246.5 1543.74 L1246.5 1546.69 L1230.04 1546.69 L1230.04 1543.74 Q1232.04 1541.67 1235.48 1538.2 Q1238.93 1534.71 1239.82 1533.7 Q1241.5 1531.81 1242.16 1530.51 Q1242.84 1529.19 1242.84 1527.92 Q1242.84 1525.85 1241.38 1524.55 Q1239.94 1523.25 1237.61 1523.25 Q1235.96 1523.25 1234.12 1523.82 Q1232.3 1524.4 1230.22 1525.56 L1230.22 1522.02 Q1232.34 1521.17 1234.18 1520.73 Q1236.02 1520.3 1237.54 1520.3 Q1241.57 1520.3 1243.97 1522.31 Q1246.36 1524.33 1246.36 1527.69 Q1246.36 1529.29 1245.76 1530.73 Q1245.17 1532.16 1243.59 1534.1 Q1243.15 1534.6 1240.83 1537.02 Q1238.5 1539.41 1234.26 1543.74 Z" fill="#000000" fill-rule="evenodd" fill-opacity="1" /><path clip-path="url(#clip870)" d="M1253.86 1542.28 L1257.53 1542.28 L1257.53 1546.69 L1253.86 1546.69 L1253.86 1542.28 Z" fill="#000000" fill-rule="evenodd" fill-opacity="1" /><path clip-path="url(#clip870)" d="M1268.19 1543.74 L1280.43 1543.74 L1280.43 1546.69 L1263.97 1546.69 L1263.97 1543.74 Q1265.96 1541.67 1269.4 1538.2 Q1272.86 1534.71 1273.74 1533.7 Q1275.43 1531.81 1276.09 1530.51 Q1276.76 1529.19 1276.76 1527.92 Q1276.76 1525.85 1275.3 1524.55 Q1273.86 1523.25 1271.54 1523.25 Q1269.89 1523.25 1268.05 1523.82 Q1266.23 1524.4 1264.14 1525.56 L1264.14 1522.02 Q1266.26 1521.17 1268.1 1520.73 Q1269.94 1520.3 1271.47 1520.3 Q1275.5 1520.3 1277.89 1522.31 Q1280.29 1524.33 1280.29 1527.69 Q1280.29 1529.29 1279.68 1530.73 Q1279.09 1532.16 1277.51 1534.1 Q1277.08 1534.6 1274.75 1537.02 Q1272.42 1539.41 1268.19 1543.74 Z" fill="#000000" fill-rule="evenodd" fill-opacity="1" /><path clip-path="url(#clip870)" d="M1287.82 1520.77 L1301.59 1520.77 L1301.59 1523.72 L1291.03 1523.72 L1291.03 1530.07 Q1291.8 1529.81 1292.56 1529.69 Q1293.33 1529.55 1294.09 1529.55 Q1298.43 1529.55 1300.96 1531.93 Q1303.5 1534.31 1303.5 1538.37 Q1303.5 1542.56 1300.89 1544.88 Q1298.29 1547.19 1293.55 1547.19 Q1291.92 1547.19 1290.22 1546.91 Q1288.53 1546.64 1286.73 1546.08 L1286.73 1542.56 Q1288.29 1543.41 1289.96 1543.82 Q1291.62 1544.24 1293.48 1544.24 Q1296.49 1544.24 1298.24 1542.66 Q1299.99 1541.08 1299.99 1538.37 Q1299.99 1535.66 1298.24 1534.08 Q1296.49 1532.5 1293.48 1532.5 Q1292.08 1532.5 1290.67 1532.82 Q1289.28 1533.13 1287.82 1533.79 L1287.82 1520.77 Z" fill="#000000" fill-rule="evenodd" fill-opacity="1" /><path clip-path="url(#clip870)" d="M1310.77 1542.28 L1314.44 1542.28 L1314.44 1545.26 L1311.59 1550.82 L1309.35 1550.82 L1310.77 1545.26 L1310.77 1542.28 Z" fill="#000000" fill-rule="evenodd" fill-opacity="1" /><path clip-path="url(#clip870)" d="M1324.73 1543.74 L1336.97 1543.74 L1336.97 1546.69 L1320.51 1546.69 L1320.51 1543.74 Q1322.51 1541.67 1325.95 1538.2 Q1329.4 1534.71 1330.29 1533.7 Q1331.97 1531.81 1332.63 1530.51 Q1333.31 1529.19 1333.31 1527.92 Q1333.31 1525.85 1331.85 1524.55 Q1330.41 1523.25 1328.08 1523.25 Q1326.43 1523.25 1324.59 1523.82 Q1322.77 1524.4 1320.69 1525.56 L1320.69 1522.02 Q1322.8 1521.17 1324.64 1520.73 Q1326.49 1520.3 1328.01 1520.3 Q1332.04 1520.3 1334.44 1522.31 Q1336.83 1524.33 1336.83 1527.69 Q1336.83 1529.29 1336.22 1530.73 Q1335.63 1532.16 1334.05 1534.1 Q1333.62 1534.6 1331.29 1537.02 Q1328.97 1539.41 1324.73 1543.74 Z" fill="#000000" fill-rule="evenodd" fill-opacity="1" /><path clip-path="url(#clip870)" d="M1344.33 1542.28 L1348 1542.28 L1348 1546.69 L1344.33 1546.69 L1344.33 1542.28 Z" fill="#000000" fill-rule="evenodd" fill-opacity="1" /><path clip-path="url(#clip870)" d="M1358.66 1543.74 L1370.89 1543.74 L1370.89 1546.69 L1354.44 1546.69 L1354.44 1543.74 Q1356.43 1541.67 1359.87 1538.2 Q1363.33 1534.71 1364.21 1533.7 Q1365.89 1531.81 1366.55 1530.51 Q1367.23 1529.19 1367.23 1527.92 Q1367.23 1525.85 1365.77 1524.55 Q1364.33 1523.25 1362.01 1523.25 Q1360.36 1523.25 1358.52 1523.82 Q1356.69 1524.4 1354.61 1525.56 L1354.61 1522.02 Q1356.73 1521.17 1358.57 1520.73 Q1360.41 1520.3 1361.94 1520.3 Q1365.96 1520.3 1368.36 1522.31 Q1370.76 1524.33 1370.76 1527.69 Q1370.76 1529.29 1370.15 1530.73 Q1369.56 1532.16 1367.98 1534.1 Q1367.54 1534.6 1365.22 1537.02 Q1362.89 1539.41 1358.66 1543.74 Z" fill="#000000" fill-rule="evenodd" fill-opacity="1" /><path clip-path="url(#clip870)" d="M1378.36 1546.15 L1378.36 1542.96 Q1379.68 1543.58 1381.03 1543.91 Q1382.39 1544.24 1383.69 1544.24 Q1387.16 1544.24 1388.98 1541.91 Q1390.83 1539.57 1391.09 1534.81 Q1390.08 1536.31 1388.53 1537.1 Q1386.99 1537.9 1385.11 1537.9 Q1381.22 1537.9 1378.95 1535.56 Q1376.69 1533.2 1376.69 1529.12 Q1376.69 1525.13 1379.05 1522.71 Q1381.42 1520.3 1385.34 1520.3 Q1389.84 1520.3 1392.2 1523.75 Q1394.58 1527.19 1394.58 1533.75 Q1394.58 1539.88 1391.66 1543.55 Q1388.76 1547.19 1383.85 1547.19 Q1382.53 1547.19 1381.17 1546.93 Q1379.82 1546.67 1378.36 1546.15 M1385.34 1535.16 Q1387.7 1535.16 1389.07 1533.55 Q1390.46 1531.93 1390.46 1529.12 Q1390.46 1526.32 1389.07 1524.71 Q1387.7 1523.08 1385.34 1523.08 Q1382.98 1523.08 1381.59 1524.71 Q1380.22 1526.32 1380.22 1529.12 Q1380.22 1531.93 1381.59 1533.55 Q1382.98 1535.16 1385.34 1535.16 Z" fill="#000000" fill-rule="evenodd" fill-opacity="1" /><path clip-path="url(#clip870)" d="M1407.89 1519.67 L1407.89 1551.38 L1400.53 1551.38 L1400.53 1548.89 L1404.68 1548.89 L1404.68 1522.16 L1400.53 1522.16 L1400.53 1519.67 L1407.89 1519.67 Z" fill="#000000" fill-rule="evenodd" fill-opacity="1" /><path clip-path="url(#clip870)" d="M1523.23 1519.52 L1523.23 1555.07 L1520.28 1555.07 L1520.28 1519.52 L1523.23 1519.52 Z" fill="#000000" fill-rule="evenodd" fill-opacity="1" /><path clip-path="url(#clip870)" d="M1550.65 1522.76 L1550.65 1526.46 Q1548.87 1524.81 1546.86 1524 Q1544.86 1523.18 1542.61 1523.18 Q1538.16 1523.18 1535.8 1525.91 Q1533.44 1528.62 1533.44 1533.75 Q1533.44 1538.88 1535.8 1541.6 Q1538.16 1544.31 1542.61 1544.31 Q1544.86 1544.31 1546.86 1543.49 Q1548.87 1542.68 1550.65 1541.03 L1550.65 1544.69 Q1548.81 1545.94 1546.74 1546.57 Q1544.69 1547.19 1542.4 1547.19 Q1536.51 1547.19 1533.13 1543.6 Q1529.74 1539.99 1529.74 1533.75 Q1529.74 1527.5 1533.13 1523.91 Q1536.51 1520.3 1542.4 1520.3 Q1544.73 1520.3 1546.77 1520.92 Q1548.84 1521.53 1550.65 1522.76 Z" fill="#000000" fill-rule="evenodd" fill-opacity="1" /><path clip-path="url(#clip870)" d="M1560.04 1519.52 L1560.04 1555.07 L1557.09 1555.07 L1557.09 1519.52 L1560.04 1519.52 Z" fill="#000000" fill-rule="evenodd" fill-opacity="1" /><path clip-path="url(#clip870)" d="M1581.81 1535.8 Q1581.93 1537.09 1583.02 1539.17 Q1584.31 1541.58 1586.74 1542.94 Q1589.12 1544.26 1591.69 1544.27 L1603.79 1544.27 L1603.79 1547.04 L1591.69 1547.04 Q1588.35 1547.04 1585.26 1545.32 Q1582.19 1543.6 1580.54 1540.54 Q1578.89 1537.49 1578.89 1534.24 Q1578.89 1531.03 1580.54 1527.97 Q1582.19 1524.92 1585.26 1523.18 Q1588.35 1521.44 1591.69 1521.44 L1603.79 1521.44 L1603.79 1524.21 L1591.69 1524.21 Q1589.12 1524.22 1586.74 1525.56 Q1584.33 1526.93 1583.02 1529.33 Q1581.91 1531.41 1581.76 1533.02 L1603.79 1533.02 L1603.79 1535.8 L1581.81 1535.8 Z" fill="#000000" fill-rule="evenodd" fill-opacity="1" /><path clip-path="url(#clip870)" d="M1629.15 1519.71 Q1626.83 1523.7 1625.7 1527.61 Q1624.57 1531.51 1624.57 1535.52 Q1624.57 1539.54 1625.7 1543.48 Q1626.84 1547.4 1629.15 1551.38 L1626.37 1551.38 Q1623.77 1547.3 1622.47 1543.35 Q1621.18 1539.41 1621.18 1535.52 Q1621.18 1531.65 1622.47 1527.73 Q1623.75 1523.81 1626.37 1519.71 L1629.15 1519.71 Z" fill="#000000" fill-rule="evenodd" fill-opacity="1" /><path clip-path="url(#clip870)" d="M1638.82 1543.74 L1651.06 1543.74 L1651.06 1546.69 L1634.6 1546.69 L1634.6 1543.74 Q1636.6 1541.67 1640.04 1538.2 Q1643.49 1534.71 1644.38 1533.7 Q1646.06 1531.81 1646.72 1530.51 Q1647.4 1529.19 1647.4 1527.92 Q1647.4 1525.85 1645.94 1524.55 Q1644.5 1523.25 1642.17 1523.25 Q1640.52 1523.25 1638.68 1523.82 Q1636.86 1524.4 1634.78 1525.56 L1634.78 1522.02 Q1636.9 1521.17 1638.74 1520.73 Q1640.58 1520.3 1642.1 1520.3 Q1646.13 1520.3 1648.53 1522.31 Q1650.92 1524.33 1650.92 1527.69 Q1650.92 1529.29 1650.32 1530.73 Q1649.72 1532.16 1648.14 1534.1 Q1647.71 1534.6 1645.38 1537.02 Q1643.06 1539.41 1638.82 1543.74 Z" fill="#000000" fill-rule="evenodd" fill-opacity="1" /><path clip-path="url(#clip870)" d="M1658.42 1542.28 L1662.09 1542.28 L1662.09 1546.69 L1658.42 1546.69 L1658.42 1542.28 Z" fill="#000000" fill-rule="evenodd" fill-opacity="1" /><path clip-path="url(#clip870)" d="M1672.75 1543.74 L1684.99 1543.74 L1684.99 1546.69 L1668.53 1546.69 L1668.53 1543.74 Q1670.52 1541.67 1673.96 1538.2 Q1677.42 1534.71 1678.3 1533.7 Q1679.99 1531.81 1680.64 1530.51 Q1681.32 1529.19 1681.32 1527.92 Q1681.32 1525.85 1679.86 1524.55 Q1678.42 1523.25 1676.1 1523.25 Q1674.45 1523.25 1672.61 1523.82 Q1670.78 1524.4 1668.7 1525.56 L1668.7 1522.02 Q1670.82 1521.17 1672.66 1520.73 Q1674.5 1520.3 1676.03 1520.3 Q1680.05 1520.3 1682.45 1522.31 Q1684.85 1524.33 1684.85 1527.69 Q1684.85 1529.29 1684.24 1530.73 Q1683.65 1532.16 1682.07 1534.1 Q1681.63 1534.6 1679.31 1537.02 Q1676.98 1539.41 1672.75 1543.74 Z" fill="#000000" fill-rule="evenodd" fill-opacity="1" /><path clip-path="url(#clip870)" d="M1692.45 1546.15 L1692.45 1542.96 Q1693.77 1543.58 1695.12 1543.91 Q1696.48 1544.24 1697.78 1544.24 Q1701.25 1544.24 1703.08 1541.91 Q1704.92 1539.57 1705.18 1534.81 Q1704.17 1536.31 1702.62 1537.1 Q1701.08 1537.9 1699.2 1537.9 Q1695.31 1537.9 1693.04 1535.56 Q1690.78 1533.2 1690.78 1529.12 Q1690.78 1525.13 1693.14 1522.71 Q1695.51 1520.3 1699.43 1520.3 Q1703.93 1520.3 1706.29 1523.75 Q1708.67 1527.19 1708.67 1533.75 Q1708.67 1539.88 1705.75 1543.55 Q1702.85 1547.19 1697.94 1547.19 Q1696.62 1547.19 1695.26 1546.93 Q1693.91 1546.67 1692.45 1546.15 M1699.43 1535.16 Q1701.79 1535.16 1703.16 1533.55 Q1704.55 1531.93 1704.55 1529.12 Q1704.55 1526.32 1703.16 1524.71 Q1701.79 1523.08 1699.43 1523.08 Q1697.07 1523.08 1695.68 1524.71 Q1694.31 1526.32 1694.31 1529.12 Q1694.31 1531.93 1695.68 1533.55 Q1697.07 1535.16 1699.43 1535.16 Z" fill="#000000" fill-rule="evenodd" fill-opacity="1" /><path clip-path="url(#clip870)" d="M1715.33 1542.28 L1719 1542.28 L1719 1545.26 L1716.15 1550.82 L1713.91 1550.82 L1715.33 1545.26 L1715.33 1542.28 Z" fill="#000000" fill-rule="evenodd" fill-opacity="1" /><path clip-path="url(#clip870)" d="M1729.29 1543.74 L1741.53 1543.74 L1741.53 1546.69 L1725.07 1546.69 L1725.07 1543.74 Q1727.07 1541.67 1730.51 1538.2 Q1733.96 1534.71 1734.85 1533.7 Q1736.53 1531.81 1737.19 1530.51 Q1737.87 1529.19 1737.87 1527.92 Q1737.87 1525.85 1736.41 1524.55 Q1734.97 1523.25 1732.64 1523.25 Q1730.99 1523.25 1729.15 1523.82 Q1727.33 1524.4 1725.25 1525.56 L1725.25 1522.02 Q1727.36 1521.17 1729.2 1520.73 Q1731.04 1520.3 1732.57 1520.3 Q1736.6 1520.3 1739 1522.31 Q1741.39 1524.33 1741.39 1527.69 Q1741.39 1529.29 1740.78 1530.73 Q1740.19 1532.16 1738.61 1534.1 Q1738.18 1534.6 1735.85 1537.02 Q1733.53 1539.41 1729.29 1543.74 Z" fill="#000000" fill-rule="evenodd" fill-opacity="1" /><path clip-path="url(#clip870)" d="M1748.89 1542.28 L1752.55 1542.28 L1752.55 1546.69 L1748.89 1546.69 L1748.89 1542.28 Z" fill="#000000" fill-rule="evenodd" fill-opacity="1" /><path clip-path="url(#clip870)" d="M1770.82 1532.71 Q1773.34 1533.25 1774.74 1534.95 Q1776.17 1536.65 1776.17 1539.15 Q1776.17 1542.99 1773.53 1545.09 Q1770.89 1547.19 1766.03 1547.19 Q1764.39 1547.19 1762.66 1546.86 Q1760.94 1546.55 1759.1 1545.91 L1759.1 1542.52 Q1760.56 1543.37 1762.29 1543.81 Q1764.03 1544.24 1765.92 1544.24 Q1769.22 1544.24 1770.94 1542.94 Q1772.68 1541.64 1772.68 1539.15 Q1772.68 1536.86 1771.06 1535.58 Q1769.46 1534.27 1766.6 1534.27 L1763.58 1534.27 L1763.58 1531.39 L1766.74 1531.39 Q1769.32 1531.39 1770.7 1530.37 Q1772.07 1529.33 1772.07 1527.38 Q1772.07 1525.39 1770.64 1524.33 Q1769.24 1523.25 1766.6 1523.25 Q1765.16 1523.25 1763.51 1523.56 Q1761.86 1523.88 1759.88 1524.54 L1759.88 1521.41 Q1761.88 1520.85 1763.61 1520.58 Q1765.37 1520.3 1766.91 1520.3 Q1770.9 1520.3 1773.23 1522.12 Q1775.56 1523.93 1775.56 1527.02 Q1775.56 1529.17 1774.32 1530.66 Q1773.09 1532.14 1770.82 1532.71 Z" fill="#000000" fill-rule="evenodd" fill-opacity="1" /><path clip-path="url(#clip870)" d="M1785.84 1543.74 L1798.07 1543.74 L1798.07 1546.69 L1781.62 1546.69 L1781.62 1543.74 Q1783.61 1541.67 1787.05 1538.2 Q1790.51 1534.71 1791.39 1533.7 Q1793.07 1531.81 1793.73 1530.51 Q1794.41 1529.19 1794.41 1527.92 Q1794.41 1525.85 1792.95 1524.55 Q1791.51 1523.25 1789.19 1523.25 Q1787.54 1523.25 1785.7 1523.82 Q1783.87 1524.4 1781.79 1525.56 L1781.79 1522.02 Q1783.91 1521.17 1785.75 1520.73 Q1787.59 1520.3 1789.12 1520.3 Q1793.14 1520.3 1795.54 1522.31 Q1797.94 1524.33 1797.94 1527.69 Q1797.94 1529.29 1797.33 1530.73 Q1796.74 1532.16 1795.16 1534.1 Q1794.72 1534.6 1792.4 1537.02 Q1790.07 1539.41 1785.84 1543.74 Z" fill="#000000" fill-rule="evenodd" fill-opacity="1" /><path clip-path="url(#clip870)" d="M1812.45 1519.67 L1812.45 1551.38 L1805.09 1551.38 L1805.09 1548.89 L1809.24 1548.89 L1809.24 1522.16 L1805.09 1522.16 L1805.09 1519.67 L1812.45 1519.67 Z" fill="#000000" fill-rule="evenodd" fill-opacity="1" /><path clip-path="url(#clip870)" d="M1927.79 1519.52 L1927.79 1555.07 L1924.84 1555.07 L1924.84 1519.52 L1927.79 1519.52 Z" fill="#000000" fill-rule="evenodd" fill-opacity="1" /><path clip-path="url(#clip870)" d="M1955.2 1522.76 L1955.2 1526.46 Q1953.43 1524.81 1951.42 1524 Q1949.42 1523.18 1947.17 1523.18 Q1942.72 1523.18 1940.36 1525.91 Q1938 1528.62 1938 1533.75 Q1938 1538.88 1940.36 1541.6 Q1942.72 1544.31 1947.17 1544.31 Q1949.42 1544.31 1951.42 1543.49 Q1953.43 1542.68 1955.2 1541.03 L1955.2 1544.69 Q1953.36 1545.94 1951.3 1546.57 Q1949.25 1547.19 1946.96 1547.19 Q1941.07 1547.19 1937.69 1543.6 Q1934.3 1539.99 1934.3 1533.75 Q1934.3 1527.5 1937.69 1523.91 Q1941.07 1520.3 1946.96 1520.3 Q1949.28 1520.3 1951.33 1520.92 Q1953.4 1521.53 1955.2 1522.76 Z" fill="#000000" fill-rule="evenodd" fill-opacity="1" /><path clip-path="url(#clip870)" d="M1964.6 1519.52 L1964.6 1555.07 L1961.65 1555.07 L1961.65 1519.52 L1964.6 1519.52 Z" fill="#000000" fill-rule="evenodd" fill-opacity="1" /><path clip-path="url(#clip870)" d="M1986.37 1535.8 Q1986.49 1537.09 1987.58 1539.17 Q1988.87 1541.58 1991.3 1542.94 Q1993.68 1544.26 1996.25 1544.27 L2008.35 1544.27 L2008.35 1547.04 L1996.25 1547.04 Q1992.91 1547.04 1989.82 1545.32 Q1986.75 1543.6 1985.1 1540.54 Q1983.45 1537.49 1983.45 1534.24 Q1983.45 1531.03 1985.1 1527.97 Q1986.75 1524.92 1989.82 1523.18 Q1992.91 1521.44 1996.25 1521.44 L2008.35 1521.44 L2008.35 1524.21 L1996.25 1524.21 Q1993.68 1524.22 1991.3 1525.56 Q1988.88 1526.93 1987.58 1529.33 Q1986.47 1531.41 1986.32 1533.02 L2008.35 1533.02 L2008.35 1535.8 L1986.37 1535.8 Z" fill="#000000" fill-rule="evenodd" fill-opacity="1" /><path clip-path="url(#clip870)" d="M2033.71 1519.71 Q2031.38 1523.7 2030.26 1527.61 Q2029.13 1531.51 2029.13 1535.52 Q2029.13 1539.54 2030.26 1543.48 Q2031.4 1547.4 2033.71 1551.38 L2030.93 1551.38 Q2028.33 1547.3 2027.03 1543.35 Q2025.74 1539.41 2025.74 1535.52 Q2025.74 1531.65 2027.03 1527.73 Q2028.31 1523.81 2030.93 1519.71 L2033.71 1519.71 Z" fill="#000000" fill-rule="evenodd" fill-opacity="1" /><path clip-path="url(#clip870)" d="M2043.38 1543.74 L2055.62 1543.74 L2055.62 1546.69 L2039.16 1546.69 L2039.16 1543.74 Q2041.16 1541.67 2044.6 1538.2 Q2048.05 1534.71 2048.94 1533.7 Q2050.62 1531.81 2051.28 1530.51 Q2051.96 1529.19 2051.96 1527.92 Q2051.96 1525.85 2050.5 1524.55 Q2049.06 1523.25 2046.73 1523.25 Q2045.08 1523.25 2043.24 1523.82 Q2041.42 1524.4 2039.34 1525.56 L2039.34 1522.02 Q2041.45 1521.17 2043.29 1520.73 Q2045.13 1520.3 2046.66 1520.3 Q2050.69 1520.3 2053.09 1522.31 Q2055.48 1524.33 2055.48 1527.69 Q2055.48 1529.29 2054.87 1530.73 Q2054.28 1532.16 2052.7 1534.1 Q2052.27 1534.6 2049.94 1537.02 Q2047.62 1539.41 2043.38 1543.74 Z" fill="#000000" fill-rule="evenodd" fill-opacity="1" /><path clip-path="url(#clip870)" d="M2062.98 1542.28 L2066.64 1542.28 L2066.64 1546.69 L2062.98 1546.69 L2062.98 1542.28 Z" fill="#000000" fill-rule="evenodd" fill-opacity="1" /><path clip-path="url(#clip870)" d="M2084.91 1532.71 Q2087.43 1533.25 2088.83 1534.95 Q2090.26 1536.65 2090.26 1539.15 Q2090.26 1542.99 2087.62 1545.09 Q2084.98 1547.19 2080.12 1547.19 Q2078.48 1547.19 2076.75 1546.86 Q2075.03 1546.55 2073.19 1545.91 L2073.19 1542.52 Q2074.65 1543.37 2076.38 1543.81 Q2078.12 1544.24 2080.01 1544.24 Q2083.31 1544.24 2085.03 1542.94 Q2086.77 1541.64 2086.77 1539.15 Q2086.77 1536.86 2085.15 1535.58 Q2083.55 1534.27 2080.69 1534.27 L2077.67 1534.27 L2077.67 1531.39 L2080.83 1531.39 Q2083.42 1531.39 2084.79 1530.37 Q2086.16 1529.33 2086.16 1527.38 Q2086.16 1525.39 2084.73 1524.33 Q2083.33 1523.25 2080.69 1523.25 Q2079.25 1523.25 2077.6 1523.56 Q2075.95 1523.88 2073.97 1524.54 L2073.97 1521.41 Q2075.97 1520.85 2077.7 1520.58 Q2079.46 1520.3 2081 1520.3 Q2085 1520.3 2087.32 1522.12 Q2089.65 1523.93 2089.65 1527.02 Q2089.65 1529.17 2088.42 1530.66 Q2087.18 1532.14 2084.91 1532.71 Z" fill="#000000" fill-rule="evenodd" fill-opacity="1" /><path clip-path="url(#clip870)" d="M2099.93 1543.74 L2112.17 1543.74 L2112.17 1546.69 L2095.71 1546.69 L2095.71 1543.74 Q2097.7 1541.67 2101.14 1538.2 Q2104.6 1534.71 2105.48 1533.7 Q2107.17 1531.81 2107.82 1530.51 Q2108.5 1529.19 2108.5 1527.92 Q2108.5 1525.85 2107.04 1524.55 Q2105.6 1523.25 2103.28 1523.25 Q2101.63 1523.25 2099.79 1523.82 Q2097.96 1524.4 2095.88 1525.56 L2095.88 1522.02 Q2098 1521.17 2099.84 1520.73 Q2101.68 1520.3 2103.21 1520.3 Q2107.23 1520.3 2109.63 1522.31 Q2112.03 1524.33 2112.03 1527.69 Q2112.03 1529.29 2111.42 1530.73 Q2110.83 1532.16 2109.25 1534.1 Q2108.81 1534.6 2106.49 1537.02 Q2104.16 1539.41 2099.93 1543.74 Z" fill="#000000" fill-rule="evenodd" fill-opacity="1" /><path clip-path="url(#clip870)" d="M2119.89 1542.28 L2123.55 1542.28 L2123.55 1545.26 L2120.71 1550.82 L2118.47 1550.82 L2119.89 1545.26 L2119.89 1542.28 Z" fill="#000000" fill-rule="evenodd" fill-opacity="1" /><path clip-path="url(#clip870)" d="M2133.85 1543.74 L2146.09 1543.74 L2146.09 1546.69 L2129.63 1546.69 L2129.63 1543.74 Q2131.63 1541.67 2135.06 1538.2 Q2138.52 1534.71 2139.4 1533.7 Q2141.09 1531.81 2141.75 1530.51 Q2142.43 1529.19 2142.43 1527.92 Q2142.43 1525.85 2140.97 1524.55 Q2139.53 1523.25 2137.2 1523.25 Q2135.55 1523.25 2133.71 1523.82 Q2131.89 1524.4 2129.8 1525.56 L2129.8 1522.02 Q2131.92 1521.17 2133.76 1520.73 Q2135.6 1520.3 2137.13 1520.3 Q2141.16 1520.3 2143.55 1522.31 Q2145.95 1524.33 2145.95 1527.69 Q2145.95 1529.29 2145.34 1530.73 Q2144.75 1532.16 2143.17 1534.1 Q2142.74 1534.6 2140.41 1537.02 Q2138.09 1539.41 2133.85 1543.74 Z" fill="#000000" fill-rule="evenodd" fill-opacity="1" /><path clip-path="url(#clip870)" d="M2153.45 1542.28 L2157.11 1542.28 L2157.11 1546.69 L2153.45 1546.69 L2153.45 1542.28 Z" fill="#000000" fill-rule="evenodd" fill-opacity="1" /><path clip-path="url(#clip870)" d="M2175.38 1532.71 Q2177.89 1533.25 2179.3 1534.95 Q2180.72 1536.65 2180.72 1539.15 Q2180.72 1542.99 2178.08 1545.09 Q2175.45 1547.19 2170.59 1547.19 Q2168.95 1547.19 2167.22 1546.86 Q2165.5 1546.55 2163.66 1545.91 L2163.66 1542.52 Q2165.12 1543.37 2166.85 1543.81 Q2168.59 1544.24 2170.48 1544.24 Q2173.78 1544.24 2175.5 1542.94 Q2177.23 1541.64 2177.23 1539.15 Q2177.23 1536.86 2175.62 1535.58 Q2174.02 1534.27 2171.16 1534.27 L2168.14 1534.27 L2168.14 1531.39 L2171.3 1531.39 Q2173.88 1531.39 2175.26 1530.37 Q2176.63 1529.33 2176.63 1527.38 Q2176.63 1525.39 2175.2 1524.33 Q2173.8 1523.25 2171.16 1523.25 Q2169.72 1523.25 2168.07 1523.56 Q2166.42 1523.88 2164.44 1524.54 L2164.44 1521.41 Q2166.44 1520.85 2168.17 1520.58 Q2169.93 1520.3 2171.47 1520.3 Q2175.46 1520.3 2177.79 1522.12 Q2180.12 1523.93 2180.12 1527.02 Q2180.12 1529.17 2178.88 1530.66 Q2177.65 1532.14 2175.38 1532.71 Z" fill="#000000" fill-rule="evenodd" fill-opacity="1" /><path clip-path="url(#clip870)" d="M2187.41 1520.77 L2201.18 1520.77 L2201.18 1523.72 L2190.62 1523.72 L2190.62 1530.07 Q2191.38 1529.81 2192.15 1529.69 Q2192.91 1529.55 2193.68 1529.55 Q2198.02 1529.55 2200.55 1531.93 Q2203.08 1534.31 2203.08 1538.37 Q2203.08 1542.56 2200.48 1544.88 Q2197.88 1547.19 2193.14 1547.19 Q2191.51 1547.19 2189.8 1546.91 Q2188.12 1546.64 2186.31 1546.08 L2186.31 1542.56 Q2187.88 1543.41 2189.54 1543.82 Q2191.21 1544.24 2193.07 1544.24 Q2196.07 1544.24 2197.82 1542.66 Q2199.58 1541.08 2199.58 1538.37 Q2199.58 1535.66 2197.82 1534.08 Q2196.07 1532.5 2193.07 1532.5 Q2191.66 1532.5 2190.26 1532.82 Q2188.87 1533.13 2187.41 1533.79 L2187.41 1520.77 Z" fill="#000000" fill-rule="evenodd" fill-opacity="1" /><path clip-path="url(#clip870)" d="M2217.01 1519.67 L2217.01 1551.38 L2209.65 1551.38 L2209.65 1548.89 L2213.8 1548.89 L2213.8 1522.16 L2209.65 1522.16 L2209.65 1519.67 L2217.01 1519.67 Z" fill="#000000" fill-rule="evenodd" fill-opacity="1" /><polyline clip-path="url(#clip872)" style="stroke:#000000; stroke-linecap:round; stroke-linejoin:round; stroke-width:2; stroke-opacity:0.1; fill:none" points="170.857,1454.11 2352.76,1454.11 "/>
<polyline clip-path="url(#clip872)" style="stroke:#000000; stroke-linecap:round; stroke-linejoin:round; stroke-width:2; stroke-opacity:0.1; fill:none" points="170.857,1033.84 2352.76,1033.84 "/>
<polyline clip-path="url(#clip872)" style="stroke:#000000; stroke-linecap:round; stroke-linejoin:round; stroke-width:2; stroke-opacity:0.1; fill:none" points="170.857,613.563 2352.76,613.563 "/>
<polyline clip-path="url(#clip872)" style="stroke:#000000; stroke-linecap:round; stroke-linejoin:round; stroke-width:2; stroke-opacity:0.1; fill:none" points="170.857,193.289 2352.76,193.289 "/>
<polyline clip-path="url(#clip870)" style="stroke:#000000; stroke-linecap:round; stroke-linejoin:round; stroke-width:4; stroke-opacity:1; fill:none" points="170.857,1495.09 170.857,47.2441 "/>
<polyline clip-path="url(#clip870)" style="stroke:#000000; stroke-linecap:round; stroke-linejoin:round; stroke-width:4; stroke-opacity:1; fill:none" points="170.857,1454.11 189.755,1454.11 "/>
<polyline clip-path="url(#clip870)" style="stroke:#000000; stroke-linecap:round; stroke-linejoin:round; stroke-width:4; stroke-opacity:1; fill:none" points="170.857,1033.84 189.755,1033.84 "/>
<polyline clip-path="url(#clip870)" style="stroke:#000000; stroke-linecap:round; stroke-linejoin:round; stroke-width:4; stroke-opacity:1; fill:none" points="170.857,613.563 189.755,613.563 "/>
<polyline clip-path="url(#clip870)" style="stroke:#000000; stroke-linecap:round; stroke-linejoin:round; stroke-width:4; stroke-opacity:1; fill:none" points="170.857,193.289 189.755,193.289 "/>
<path clip-path="url(#clip870)" d="M122.913 1439.91 Q119.302 1439.91 117.473 1443.47 Q115.668 1447.02 115.668 1454.15 Q115.668 1461.25 117.473 1464.82 Q119.302 1468.36 122.913 1468.36 Q126.547 1468.36 128.353 1464.82 Q130.182 1461.25 130.182 1454.15 Q130.182 1447.02 128.353 1443.47 Q126.547 1439.91 122.913 1439.91 M122.913 1436.21 Q128.723 1436.21 131.779 1440.81 Q134.857 1445.4 134.857 1454.15 Q134.857 1462.87 131.779 1467.48 Q128.723 1472.06 122.913 1472.06 Q117.103 1472.06 114.024 1467.48 Q110.969 1462.87 110.969 1454.15 Q110.969 1445.4 114.024 1440.81 Q117.103 1436.21 122.913 1436.21 Z" fill="#000000" fill-rule="evenodd" fill-opacity="1" /><path clip-path="url(#clip870)" d="M53.3995 1047.18 L61.0384 1047.18 L61.0384 1020.82 L52.7282 1022.48 L52.7282 1018.22 L60.9921 1016.56 L65.668 1016.56 L65.668 1047.18 L73.3068 1047.18 L73.3068 1051.12 L53.3995 1051.12 L53.3995 1047.18 Z" fill="#000000" fill-rule="evenodd" fill-opacity="1" /><path clip-path="url(#clip870)" d="M92.7512 1019.64 Q89.1401 1019.64 87.3114 1023.2 Q85.5058 1026.74 85.5058 1033.87 Q85.5058 1040.98 87.3114 1044.54 Q89.1401 1048.08 92.7512 1048.08 Q96.3854 1048.08 98.1909 1044.54 Q100.02 1040.98 100.02 1033.87 Q100.02 1026.74 98.1909 1023.2 Q96.3854 1019.64 92.7512 1019.64 M92.7512 1015.93 Q98.5613 1015.93 101.617 1020.54 Q104.696 1025.12 104.696 1033.87 Q104.696 1042.6 101.617 1047.21 Q98.5613 1051.79 92.7512 1051.79 Q86.941 1051.79 83.8623 1047.21 Q80.8068 1042.6 80.8068 1033.87 Q80.8068 1025.12 83.8623 1020.54 Q86.941 1015.93 92.7512 1015.93 Z" fill="#000000" fill-rule="evenodd" fill-opacity="1" /><path clip-path="url(#clip870)" d="M122.913 1019.64 Q119.302 1019.64 117.473 1023.2 Q115.668 1026.74 115.668 1033.87 Q115.668 1040.98 117.473 1044.54 Q119.302 1048.08 122.913 1048.08 Q126.547 1048.08 128.353 1044.54 Q130.182 1040.98 130.182 1033.87 Q130.182 1026.74 128.353 1023.2 Q126.547 1019.64 122.913 1019.64 M122.913 1015.93 Q128.723 1015.93 131.779 1020.54 Q134.857 1025.12 134.857 1033.87 Q134.857 1042.6 131.779 1047.21 Q128.723 1051.79 122.913 1051.79 Q117.103 1051.79 114.024 1047.21 Q110.969 1042.6 110.969 1033.87 Q110.969 1025.12 114.024 1020.54 Q117.103 1015.93 122.913 1015.93 Z" fill="#000000" fill-rule="evenodd" fill-opacity="1" /><path clip-path="url(#clip870)" d="M56.6171 626.908 L72.9365 626.908 L72.9365 630.843 L50.9921 630.843 L50.9921 626.908 Q53.6541 624.153 58.2375 619.524 Q62.8439 614.871 64.0245 613.529 Q66.2698 611.005 67.1494 609.269 Q68.0522 607.51 68.0522 605.82 Q68.0522 603.066 66.1078 601.33 Q64.1865 599.593 61.0847 599.593 Q58.8856 599.593 56.4319 600.357 Q54.0014 601.121 51.2236 602.672 L51.2236 597.95 Q54.0477 596.816 56.5014 596.237 Q58.955 595.658 60.9921 595.658 Q66.3624 595.658 69.5568 598.343 Q72.7513 601.029 72.7513 605.519 Q72.7513 607.649 71.9411 609.57 Q71.1541 611.468 69.0476 614.061 Q68.4689 614.732 65.367 617.95 Q62.2652 621.144 56.6171 626.908 Z" fill="#000000" fill-rule="evenodd" fill-opacity="1" /><path clip-path="url(#clip870)" d="M92.7512 599.362 Q89.1401 599.362 87.3114 602.927 Q85.5058 606.468 85.5058 613.598 Q85.5058 620.704 87.3114 624.269 Q89.1401 627.811 92.7512 627.811 Q96.3854 627.811 98.1909 624.269 Q100.02 620.704 100.02 613.598 Q100.02 606.468 98.1909 602.927 Q96.3854 599.362 92.7512 599.362 M92.7512 595.658 Q98.5613 595.658 101.617 600.265 Q104.696 604.848 104.696 613.598 Q104.696 622.325 101.617 626.931 Q98.5613 631.515 92.7512 631.515 Q86.941 631.515 83.8623 626.931 Q80.8068 622.325 80.8068 613.598 Q80.8068 604.848 83.8623 600.265 Q86.941 595.658 92.7512 595.658 Z" fill="#000000" fill-rule="evenodd" fill-opacity="1" /><path clip-path="url(#clip870)" d="M122.913 599.362 Q119.302 599.362 117.473 602.927 Q115.668 606.468 115.668 613.598 Q115.668 620.704 117.473 624.269 Q119.302 627.811 122.913 627.811 Q126.547 627.811 128.353 624.269 Q130.182 620.704 130.182 613.598 Q130.182 606.468 128.353 602.927 Q126.547 599.362 122.913 599.362 M122.913 595.658 Q128.723 595.658 131.779 600.265 Q134.857 604.848 134.857 613.598 Q134.857 622.325 131.779 626.931 Q128.723 631.515 122.913 631.515 Q117.103 631.515 114.024 626.931 Q110.969 622.325 110.969 613.598 Q110.969 604.848 114.024 600.265 Q117.103 595.658 122.913 595.658 Z" fill="#000000" fill-rule="evenodd" fill-opacity="1" /><path clip-path="url(#clip870)" d="M66.7559 191.935 Q70.1124 192.653 71.9874 194.921 Q73.8855 197.19 73.8855 200.523 Q73.8855 205.639 70.367 208.44 Q66.8485 211.241 60.3671 211.241 Q58.1912 211.241 55.8764 210.801 Q53.5847 210.384 51.131 209.528 L51.131 205.014 Q53.0754 206.148 55.3903 206.727 Q57.7051 207.305 60.2282 207.305 Q64.6263 207.305 66.918 205.569 Q69.2328 203.833 69.2328 200.523 Q69.2328 197.468 67.08 195.755 Q64.9504 194.018 61.131 194.018 L57.1032 194.018 L57.1032 190.176 L61.3161 190.176 Q64.7652 190.176 66.5939 188.81 Q68.4226 187.421 68.4226 184.829 Q68.4226 182.167 66.5245 180.755 Q64.6495 179.319 61.131 179.319 Q59.2097 179.319 57.0106 179.736 Q54.8115 180.153 52.1727 181.032 L52.1727 176.866 Q54.8347 176.125 57.1495 175.755 Q59.4875 175.384 61.5476 175.384 Q66.8717 175.384 69.9735 177.815 Q73.0753 180.222 73.0753 184.343 Q73.0753 187.213 71.4318 189.204 Q69.7883 191.171 66.7559 191.935 Z" fill="#000000" fill-rule="evenodd" fill-opacity="1" /><path clip-path="url(#clip870)" d="M92.7512 179.088 Q89.1401 179.088 87.3114 182.653 Q85.5058 186.194 85.5058 193.324 Q85.5058 200.43 87.3114 203.995 Q89.1401 207.537 92.7512 207.537 Q96.3854 207.537 98.1909 203.995 Q100.02 200.43 100.02 193.324 Q100.02 186.194 98.1909 182.653 Q96.3854 179.088 92.7512 179.088 M92.7512 175.384 Q98.5613 175.384 101.617 179.991 Q104.696 184.574 104.696 193.324 Q104.696 202.051 101.617 206.657 Q98.5613 211.241 92.7512 211.241 Q86.941 211.241 83.8623 206.657 Q80.8068 202.051 80.8068 193.324 Q80.8068 184.574 83.8623 179.991 Q86.941 175.384 92.7512 175.384 Z" fill="#000000" fill-rule="evenodd" fill-opacity="1" /><path clip-path="url(#clip870)" d="M122.913 179.088 Q119.302 179.088 117.473 182.653 Q115.668 186.194 115.668 193.324 Q115.668 200.43 117.473 203.995 Q119.302 207.537 122.913 207.537 Q126.547 207.537 128.353 203.995 Q130.182 200.43 130.182 193.324 Q130.182 186.194 128.353 182.653 Q126.547 179.088 122.913 179.088 M122.913 175.384 Q128.723 175.384 131.779 179.991 Q134.857 184.574 134.857 193.324 Q134.857 202.051 131.779 206.657 Q128.723 211.241 122.913 211.241 Q117.103 211.241 114.024 206.657 Q110.969 202.051 110.969 193.324 Q110.969 184.574 114.024 179.991 Q117.103 175.384 122.913 175.384 Z" fill="#000000" fill-rule="evenodd" fill-opacity="1" /><path clip-path="url(#clip872)" d="M290.866 88.2208 L290.866 1454.11 L614.513 1454.11 L614.513 88.2208 L290.866 88.2208 L290.866 88.2208  Z" fill="#e69f00" fill-rule="evenodd" fill-opacity="1"/>
<polyline clip-path="url(#clip872)" style="stroke:#000000; stroke-linecap:round; stroke-linejoin:round; stroke-width:4; stroke-opacity:1; fill:none" points="290.866,88.2208 290.866,1454.11 614.513,1454.11 614.513,88.2208 290.866,88.2208 "/>
<path clip-path="url(#clip872)" d="M695.424 630.374 L695.424 1454.11 L1019.07 1454.11 L1019.07 630.374 L695.424 630.374 L695.424 630.374  Z" fill="#e69f00" fill-rule="evenodd" fill-opacity="1"/>
<polyline clip-path="url(#clip872)" style="stroke:#000000; stroke-linecap:round; stroke-linejoin:round; stroke-width:4; stroke-opacity:1; fill:none" points="695.424,630.374 695.424,1454.11 1019.07,1454.11 1019.07,630.374 695.424,630.374 "/>
<path clip-path="url(#clip872)" d="M1099.98 1222.96 L1099.98 1454.11 L1423.63 1454.11 L1423.63 1222.96 L1099.98 1222.96 L1099.98 1222.96  Z" fill="#e69f00" fill-rule="evenodd" fill-opacity="1"/>
<polyline clip-path="url(#clip872)" style="stroke:#000000; stroke-linecap:round; stroke-linejoin:round; stroke-width:4; stroke-opacity:1; fill:none" points="1099.98,1222.96 1099.98,1454.11 1423.63,1454.11 1423.63,1222.96 1099.98,1222.96 "/>
<path clip-path="url(#clip872)" d="M1504.54 1378.46 L1504.54 1454.11 L1828.19 1454.11 L1828.19 1378.46 L1504.54 1378.46 L1504.54 1378.46  Z" fill="#e69f00" fill-rule="evenodd" fill-opacity="1"/>
<polyline clip-path="url(#clip872)" style="stroke:#000000; stroke-linecap:round; stroke-linejoin:round; stroke-width:4; stroke-opacity:1; fill:none" points="1504.54,1378.46 1504.54,1454.11 1828.19,1454.11 1828.19,1378.46 1504.54,1378.46 "/>
<path clip-path="url(#clip872)" d="M1909.1 1428.89 L1909.1 1454.11 L2232.75 1454.11 L2232.75 1428.89 L1909.1 1428.89 L1909.1 1428.89  Z" fill="#e69f00" fill-rule="evenodd" fill-opacity="1"/>
<polyline clip-path="url(#clip872)" style="stroke:#000000; stroke-linecap:round; stroke-linejoin:round; stroke-width:4; stroke-opacity:1; fill:none" points="1909.1,1428.89 1909.1,1454.11 2232.75,1454.11 2232.75,1428.89 1909.1,1428.89 "/>
<circle clip-path="url(#clip872)" style="fill:#e69f00; stroke:none; fill-opacity:0" cx="452.689" cy="88.2208" r="2"/>
<circle clip-path="url(#clip872)" style="fill:#e69f00; stroke:none; fill-opacity:0" cx="857.248" cy="630.374" r="2"/>
<circle clip-path="url(#clip872)" style="fill:#e69f00; stroke:none; fill-opacity:0" cx="1261.81" cy="1222.96" r="2"/>
<circle clip-path="url(#clip872)" style="fill:#e69f00; stroke:none; fill-opacity:0" cx="1666.37" cy="1378.46" r="2"/>
<circle clip-path="url(#clip872)" style="fill:#e69f00; stroke:none; fill-opacity:0" cx="2070.92" cy="1428.89" r="2"/>
</svg>
