<?xml version="1.0" encoding="utf-8"?>
<svg xmlns="http://www.w3.org/2000/svg" xmlns:xlink="http://www.w3.org/1999/xlink" width="600" height="400" viewBox="0 0 2400 1600">
<defs>
  <clipPath id="clip330">
    <rect x="0" y="0" width="2400" height="1600"/>
  </clipPath>
</defs>
<path clip-path="url(#clip330)" d="M0 1600 L2400 1600 L2400 0 L0 0  Z" fill="#ffffff" fill-rule="evenodd" fill-opacity="1"/>
<defs>
  <clipPath id="clip331">
    <rect x="480" y="0" width="1681" height="1600"/>
  </clipPath>
</defs>
<path clip-path="url(#clip330)" d="M147.478 1486.45 L2352.76 1486.45 L2352.76 47.2441 L147.478 47.2441  Z" fill="#ffffff" fill-rule="evenodd" fill-opacity="1"/>
<defs>
  <clipPath id="clip332">
    <rect x="147" y="47" width="2206" height="1440"/>
  </clipPath>
</defs>
<polyline clip-path="url(#clip332)" style="stroke:#000000; stroke-linecap:round; stroke-linejoin:round; stroke-width:2; stroke-opacity:0.1; fill:none" points="477.032,1486.45 477.032,47.2441 "/>
<polyline clip-path="url(#clip332)" style="stroke:#000000; stroke-linecap:round; stroke-linejoin:round; stroke-width:2; stroke-opacity:0.1; fill:none" points="852.302,1486.45 852.302,47.2441 "/>
<polyline clip-path="url(#clip332)" style="stroke:#000000; stroke-linecap:round; stroke-linejoin:round; stroke-width:2; stroke-opacity:0.1; fill:none" points="1227.57,1486.45 1227.57,47.2441 "/>
<polyline clip-path="url(#clip332)" style="stroke:#000000; stroke-linecap:round; stroke-linejoin:round; stroke-width:2; stroke-opacity:0.1; fill:none" points="1602.84,1486.45 1602.84,47.2441 "/>
<polyline clip-path="url(#clip332)" style="stroke:#000000; stroke-linecap:round; stroke-linejoin:round; stroke-width:2; stroke-opacity:0.1; fill:none" points="1978.11,1486.45 1978.11,47.2441 "/>
<polyline clip-path="url(#clip330)" style="stroke:#000000; stroke-linecap:round; stroke-linejoin:round; stroke-width:4; stroke-opacity:1; fill:none" points="147.478,1486.45 2352.76,1486.45 "/>
<polyline clip-path="url(#clip330)" style="stroke:#000000; stroke-linecap:round; stroke-linejoin:round; stroke-width:4; stroke-opacity:1; fill:none" points="477.032,1486.45 477.032,1467.55 "/>
<polyline clip-path="url(#clip330)" style="stroke:#000000; stroke-linecap:round; stroke-linejoin:round; stroke-width:4; stroke-opacity:1; fill:none" points="852.302,1486.45 852.302,1467.55 "/>
<polyline clip-path="url(#clip330)" style="stroke:#000000; stroke-linecap:round; stroke-linejoin:round; stroke-width:4; stroke-opacity:1; fill:none" points="1227.57,1486.45 1227.57,1467.55 "/>
<polyline clip-path="url(#clip330)" style="stroke:#000000; stroke-linecap:round; stroke-linejoin:round; stroke-width:4; stroke-opacity:1; fill:none" points="1602.84,1486.45 1602.84,1467.55 "/>
<polyline clip-path="url(#clip330)" style="stroke:#000000; stroke-linecap:round; stroke-linejoin:round; stroke-width:4; stroke-opacity:1; fill:none" points="1978.11,1486.45 1978.11,1467.55 "/>
<path clip-path="url(#clip330)" d="M446.974 1532.02 L476.65 1532.02 L476.65 1535.95 L446.974 1535.95 L446.974 1532.02 Z" fill="#000000" fill-rule="nonzero" fill-opacity="1" /><path clip-path="url(#clip330)" d="M490.771 1544.91 L507.09 1544.91 L507.09 1548.85 L485.146 1548.85 L485.146 1544.91 Q487.808 1542.16 492.391 1537.53 Q496.997 1532.88 498.178 1531.53 Q500.423 1529.01 501.303 1527.27 Q502.206 1525.51 502.206 1523.82 Q502.206 1521.07 500.261 1519.33 Q498.34 1517.6 495.238 1517.6 Q493.039 1517.6 490.585 1518.36 Q488.155 1519.13 485.377 1520.68 L485.377 1515.95 Q488.201 1514.82 490.655 1514.24 Q493.108 1513.66 495.146 1513.66 Q500.516 1513.66 503.71 1516.35 Q506.905 1519.03 506.905 1523.52 Q506.905 1525.65 506.095 1527.57 Q505.308 1529.47 503.201 1532.07 Q502.622 1532.74 499.52 1535.95 Q496.419 1539.15 490.771 1544.91 Z" fill="#000000" fill-rule="nonzero" fill-opacity="1" /><path clip-path="url(#clip330)" d="M822.06 1532.02 L851.735 1532.02 L851.735 1535.95 L822.06 1535.95 L822.06 1532.02 Z" fill="#000000" fill-rule="nonzero" fill-opacity="1" /><path clip-path="url(#clip330)" d="M862.638 1544.91 L870.277 1544.91 L870.277 1518.55 L861.967 1520.21 L861.967 1515.95 L870.231 1514.29 L874.907 1514.29 L874.907 1544.91 L882.545 1544.91 L882.545 1548.85 L862.638 1548.85 L862.638 1544.91 Z" fill="#000000" fill-rule="nonzero" fill-opacity="1" /><path clip-path="url(#clip330)" d="M1227.57 1517.37 Q1223.96 1517.37 1222.13 1520.93 Q1220.33 1524.47 1220.33 1531.6 Q1220.33 1538.71 1222.13 1542.27 Q1223.96 1545.82 1227.57 1545.82 Q1231.21 1545.82 1233.01 1542.27 Q1234.84 1538.71 1234.84 1531.6 Q1234.84 1524.47 1233.01 1520.93 Q1231.21 1517.37 1227.57 1517.37 M1227.57 1513.66 Q1233.38 1513.66 1236.44 1518.27 Q1239.52 1522.85 1239.52 1531.6 Q1239.52 1540.33 1236.44 1544.94 Q1233.38 1549.52 1227.57 1549.52 Q1221.76 1549.52 1218.68 1544.94 Q1215.63 1540.33 1215.63 1531.6 Q1215.63 1522.85 1218.68 1518.27 Q1221.76 1513.66 1227.57 1513.66 Z" fill="#000000" fill-rule="nonzero" fill-opacity="1" /><path clip-path="url(#clip330)" d="M1593.23 1544.91 L1600.86 1544.91 L1600.86 1518.55 L1592.55 1520.21 L1592.55 1515.95 L1600.82 1514.29 L1605.49 1514.29 L1605.49 1544.91 L1613.13 1544.91 L1613.13 1548.85 L1593.23 1548.85 L1593.23 1544.91 Z" fill="#000000" fill-rule="nonzero" fill-opacity="1" /><path clip-path="url(#clip330)" d="M1972.77 1544.91 L1989.09 1544.91 L1989.09 1548.85 L1967.14 1548.85 L1967.14 1544.91 Q1969.8 1542.16 1974.39 1537.53 Q1978.99 1532.88 1980.17 1531.53 Q1982.42 1529.01 1983.3 1527.27 Q1984.2 1525.51 1984.2 1523.82 Q1984.2 1521.07 1982.26 1519.33 Q1980.34 1517.6 1977.23 1517.6 Q1975.03 1517.6 1972.58 1518.36 Q1970.15 1519.13 1967.37 1520.68 L1967.37 1515.95 Q1970.2 1514.82 1972.65 1514.24 Q1975.1 1513.66 1977.14 1513.66 Q1982.51 1513.66 1985.71 1516.35 Q1988.9 1519.03 1988.9 1523.52 Q1988.9 1525.65 1988.09 1527.57 Q1987.3 1529.47 1985.2 1532.07 Q1984.62 1532.74 1981.52 1535.95 Q1978.41 1539.15 1972.77 1544.91 Z" fill="#000000" fill-rule="nonzero" fill-opacity="1" /><polyline clip-path="url(#clip332)" style="stroke:#000000; stroke-linecap:round; stroke-linejoin:round; stroke-width:2; stroke-opacity:0.1; fill:none" points="147.478,1438.73 2352.76,1438.73 "/>
<polyline clip-path="url(#clip332)" style="stroke:#000000; stroke-linecap:round; stroke-linejoin:round; stroke-width:2; stroke-opacity:0.1; fill:none" points="147.478,1102.49 2352.76,1102.49 "/>
<polyline clip-path="url(#clip332)" style="stroke:#000000; stroke-linecap:round; stroke-linejoin:round; stroke-width:2; stroke-opacity:0.1; fill:none" points="147.478,766.252 2352.76,766.252 "/>
<polyline clip-path="url(#clip332)" style="stroke:#000000; stroke-linecap:round; stroke-linejoin:round; stroke-width:2; stroke-opacity:0.1; fill:none" points="147.478,430.011 2352.76,430.011 "/>
<polyline clip-path="url(#clip332)" style="stroke:#000000; stroke-linecap:round; stroke-linejoin:round; stroke-width:2; stroke-opacity:0.1; fill:none" points="147.478,93.7708 2352.76,93.7708 "/>
<polyline clip-path="url(#clip330)" style="stroke:#000000; stroke-linecap:round; stroke-linejoin:round; stroke-width:4; stroke-opacity:1; fill:none" points="147.478,1486.45 147.478,47.2441 "/>
<polyline clip-path="url(#clip330)" style="stroke:#000000; stroke-linecap:round; stroke-linejoin:round; stroke-width:4; stroke-opacity:1; fill:none" points="147.478,1438.73 166.376,1438.73 "/>
<polyline clip-path="url(#clip330)" style="stroke:#000000; stroke-linecap:round; stroke-linejoin:round; stroke-width:4; stroke-opacity:1; fill:none" points="147.478,1102.49 166.376,1102.49 "/>
<polyline clip-path="url(#clip330)" style="stroke:#000000; stroke-linecap:round; stroke-linejoin:round; stroke-width:4; stroke-opacity:1; fill:none" points="147.478,766.252 166.376,766.252 "/>
<polyline clip-path="url(#clip330)" style="stroke:#000000; stroke-linecap:round; stroke-linejoin:round; stroke-width:4; stroke-opacity:1; fill:none" points="147.478,430.011 166.376,430.011 "/>
<polyline clip-path="url(#clip330)" style="stroke:#000000; stroke-linecap:round; stroke-linejoin:round; stroke-width:4; stroke-opacity:1; fill:none" points="147.478,93.7708 166.376,93.7708 "/>
<path clip-path="url(#clip330)" d="M51.3625 1439.18 L81.0383 1439.18 L81.0383 1443.12 L51.3625 1443.12 L51.3625 1439.18 Z" fill="#000000" fill-rule="nonzero" fill-opacity="1" /><path clip-path="url(#clip330)" d="M95.1586 1452.08 L111.478 1452.08 L111.478 1456.01 L89.5336 1456.01 L89.5336 1452.08 Q92.1956 1449.32 96.7789 1444.69 Q101.385 1440.04 102.566 1438.7 Q104.811 1436.17 105.691 1434.44 Q106.594 1432.68 106.594 1430.99 Q106.594 1428.24 104.649 1426.5 Q102.728 1424.76 99.6261 1424.76 Q97.4271 1424.76 94.9734 1425.53 Q92.5428 1426.29 89.7651 1427.84 L89.7651 1423.12 Q92.5891 1421.99 95.0428 1421.41 Q97.4965 1420.83 99.5335 1420.83 Q104.904 1420.83 108.098 1423.51 Q111.293 1426.2 111.293 1430.69 Q111.293 1432.82 110.483 1434.74 Q109.696 1436.64 107.589 1439.23 Q107.01 1439.9 103.909 1443.12 Q100.807 1446.31 95.1586 1452.08 Z" fill="#000000" fill-rule="nonzero" fill-opacity="1" /><path clip-path="url(#clip330)" d="M50.9921 1102.94 L80.6679 1102.94 L80.6679 1106.88 L50.9921 1106.88 L50.9921 1102.94 Z" fill="#000000" fill-rule="nonzero" fill-opacity="1" /><path clip-path="url(#clip330)" d="M91.5706 1115.84 L99.2095 1115.84 L99.2095 1089.47 L90.8993 1091.14 L90.8993 1086.88 L99.1632 1085.21 L103.839 1085.21 L103.839 1115.84 L111.478 1115.84 L111.478 1119.77 L91.5706 1119.77 L91.5706 1115.84 Z" fill="#000000" fill-rule="nonzero" fill-opacity="1" /><path clip-path="url(#clip330)" d="M99.5335 752.051 Q95.9224 752.051 94.0937 755.615 Q92.2882 759.157 92.2882 766.287 Q92.2882 773.393 94.0937 776.958 Q95.9224 780.499 99.5335 780.499 Q103.168 780.499 104.973 776.958 Q106.802 773.393 106.802 766.287 Q106.802 759.157 104.973 755.615 Q103.168 752.051 99.5335 752.051 M99.5335 748.347 Q105.344 748.347 108.399 752.953 Q111.478 757.537 111.478 766.287 Q111.478 775.013 108.399 779.62 Q105.344 784.203 99.5335 784.203 Q93.7234 784.203 90.6447 779.62 Q87.5892 775.013 87.5892 766.287 Q87.5892 757.537 90.6447 752.953 Q93.7234 748.347 99.5335 748.347 Z" fill="#000000" fill-rule="nonzero" fill-opacity="1" /><path clip-path="url(#clip330)" d="M91.5706 443.356 L99.2095 443.356 L99.2095 416.991 L90.8993 418.657 L90.8993 414.398 L99.1632 412.731 L103.839 412.731 L103.839 443.356 L111.478 443.356 L111.478 447.291 L91.5706 447.291 L91.5706 443.356 Z" fill="#000000" fill-rule="nonzero" fill-opacity="1" /><path clip-path="url(#clip330)" d="M95.1586 107.116 L111.478 107.116 L111.478 111.051 L89.5336 111.051 L89.5336 107.116 Q92.1956 104.361 96.7789 99.7314 Q101.385 95.0787 102.566 93.7361 Q104.811 91.213 105.691 89.4769 Q106.594 87.7176 106.594 86.0278 Q106.594 83.2732 104.649 81.5371 Q102.728 79.801 99.6261 79.801 Q97.4271 79.801 94.9734 80.5649 Q92.5428 81.3288 89.7651 82.8797 L89.7651 78.1575 Q92.5891 77.0232 95.0428 76.4445 Q97.4965 75.8658 99.5335 75.8658 Q104.904 75.8658 108.098 78.551 Q111.293 81.2362 111.293 85.7269 Q111.293 87.8565 110.483 89.7778 Q109.696 91.6759 107.589 94.2685 Q107.01 94.9398 103.909 98.1574 Q100.807 101.352 95.1586 107.116 Z" fill="#000000" fill-rule="nonzero" fill-opacity="1" /><circle clip-path="url(#clip332)" cx="1745.9" cy="591.566" r="14.4" fill="#e69f00" fill-rule="evenodd" fill-opacity="1" stroke="#000000" stroke-opacity="1" stroke-width="3.2"/>
<circle clip-path="url(#clip332)" cx="565.318" cy="973.915" r="14.4" fill="#e69f00" fill-rule="evenodd" fill-opacity="1" stroke="#000000" stroke-opacity="1" stroke-width="3.2"/>
<circle clip-path="url(#clip332)" cx="170.164" cy="779.854" r="14.4" fill="#e69f00" fill-rule="evenodd" fill-opacity="1" stroke="#000000" stroke-opacity="1" stroke-width="3.2"/>
<circle clip-path="url(#clip332)" cx="2138.85" cy="411.061" r="14.4" fill="#e69f00" fill-rule="evenodd" fill-opacity="1" stroke="#000000" stroke-opacity="1" stroke-width="3.2"/>
<circle clip-path="url(#clip332)" cx="1696.9" cy="508.731" r="14.4" fill="#e69f00" fill-rule="evenodd" fill-opacity="1" stroke="#000000" stroke-opacity="1" stroke-width="3.2"/>
<circle clip-path="url(#clip332)" cx="2194.04" cy="617.498" r="14.4" fill="#e69f00" fill-rule="evenodd" fill-opacity="1" stroke="#000000" stroke-opacity="1" stroke-width="3.2"/>
<circle clip-path="url(#clip332)" cx="1996.94" cy="582.483" r="14.4" fill="#e69f00" fill-rule="evenodd" fill-opacity="1" stroke="#000000" stroke-opacity="1" stroke-width="3.2"/>
<circle clip-path="url(#clip332)" cx="2118.04" cy="333.311" r="14.4" fill="#e69f00" fill-rule="evenodd" fill-opacity="1" stroke="#000000" stroke-opacity="1" stroke-width="3.2"/>
<circle clip-path="url(#clip332)" cx="1067.18" cy="936.791" r="14.4" fill="#e69f00" fill-rule="evenodd" fill-opacity="1" stroke="#000000" stroke-opacity="1" stroke-width="3.2"/>
<circle clip-path="url(#clip332)" cx="729.797" cy="1184.62" r="14.4" fill="#e69f00" fill-rule="evenodd" fill-opacity="1" stroke="#000000" stroke-opacity="1" stroke-width="3.2"/>
<circle clip-path="url(#clip332)" cx="854.145" cy="1195.49" r="14.4" fill="#e69f00" fill-rule="evenodd" fill-opacity="1" stroke="#000000" stroke-opacity="1" stroke-width="3.2"/>
<circle clip-path="url(#clip332)" cx="2283.83" cy="888.102" r="14.4" fill="#e69f00" fill-rule="evenodd" fill-opacity="1" stroke="#000000" stroke-opacity="1" stroke-width="3.2"/>
<circle clip-path="url(#clip332)" cx="191.125" cy="1038.69" r="14.4" fill="#e69f00" fill-rule="evenodd" fill-opacity="1" stroke="#000000" stroke-opacity="1" stroke-width="3.2"/>
<circle clip-path="url(#clip332)" cx="1942.38" cy="130.996" r="14.4" fill="#e69f00" fill-rule="evenodd" fill-opacity="1" stroke="#000000" stroke-opacity="1" stroke-width="3.2"/>
<circle clip-path="url(#clip332)" cx="2280.18" cy="507.113" r="14.4" fill="#e69f00" fill-rule="evenodd" fill-opacity="1" stroke="#000000" stroke-opacity="1" stroke-width="3.2"/>
<circle clip-path="url(#clip332)" cx="1726.4" cy="328.574" r="14.4" fill="#e69f00" fill-rule="evenodd" fill-opacity="1" stroke="#000000" stroke-opacity="1" stroke-width="3.2"/>
<circle clip-path="url(#clip332)" cx="2168.7" cy="451.58" r="14.4" fill="#e69f00" fill-rule="evenodd" fill-opacity="1" stroke="#000000" stroke-opacity="1" stroke-width="3.2"/>
<circle clip-path="url(#clip332)" cx="2279.56" cy="734.058" r="14.4" fill="#e69f00" fill-rule="evenodd" fill-opacity="1" stroke="#000000" stroke-opacity="1" stroke-width="3.2"/>
<circle clip-path="url(#clip332)" cx="2215.47" cy="839.732" r="14.4" fill="#e69f00" fill-rule="evenodd" fill-opacity="1" stroke="#000000" stroke-opacity="1" stroke-width="3.2"/>
<circle clip-path="url(#clip332)" cx="2249.79" cy="774.963" r="14.4" fill="#e69f00" fill-rule="evenodd" fill-opacity="1" stroke="#000000" stroke-opacity="1" stroke-width="3.2"/>
<circle clip-path="url(#clip332)" cx="1883.67" cy="553.028" r="14.4" fill="#e69f00" fill-rule="evenodd" fill-opacity="1" stroke="#000000" stroke-opacity="1" stroke-width="3.2"/>
<circle clip-path="url(#clip332)" cx="1265.83" cy="694.716" r="14.4" fill="#e69f00" fill-rule="evenodd" fill-opacity="1" stroke="#000000" stroke-opacity="1" stroke-width="3.2"/>
<circle clip-path="url(#clip332)" cx="588.687" cy="1137.84" r="14.4" fill="#e69f00" fill-rule="evenodd" fill-opacity="1" stroke="#000000" stroke-opacity="1" stroke-width="3.2"/>
<circle clip-path="url(#clip332)" cx="647.67" cy="1400.35" r="14.4" fill="#e69f00" fill-rule="evenodd" fill-opacity="1" stroke="#000000" stroke-opacity="1" stroke-width="3.2"/>
<circle clip-path="url(#clip332)" cx="2271.31" cy="744.319" r="14.4" fill="#e69f00" fill-rule="evenodd" fill-opacity="1" stroke="#000000" stroke-opacity="1" stroke-width="3.2"/>
<circle clip-path="url(#clip332)" cx="2291.73" cy="771.329" r="14.4" fill="#e69f00" fill-rule="evenodd" fill-opacity="1" stroke="#000000" stroke-opacity="1" stroke-width="3.2"/>
<circle clip-path="url(#clip332)" cx="460.999" cy="1159.52" r="14.4" fill="#e69f00" fill-rule="evenodd" fill-opacity="1" stroke="#000000" stroke-opacity="1" stroke-width="3.2"/>
<circle clip-path="url(#clip332)" cx="744.075" cy="1019.93" r="14.4" fill="#e69f00" fill-rule="evenodd" fill-opacity="1" stroke="#000000" stroke-opacity="1" stroke-width="3.2"/>
<circle clip-path="url(#clip332)" cx="886.533" cy="999.774" r="14.4" fill="#e69f00" fill-rule="evenodd" fill-opacity="1" stroke="#000000" stroke-opacity="1" stroke-width="3.2"/>
<circle clip-path="url(#clip332)" cx="606.109" cy="1023.58" r="14.4" fill="#e69f00" fill-rule="evenodd" fill-opacity="1" stroke="#000000" stroke-opacity="1" stroke-width="3.2"/>
<circle clip-path="url(#clip332)" cx="2196.52" cy="660.955" r="14.4" fill="#e69f00" fill-rule="evenodd" fill-opacity="1" stroke="#000000" stroke-opacity="1" stroke-width="3.2"/>
<circle clip-path="url(#clip332)" cx="971.898" cy="1458.15" r="14.4" fill="#e69f00" fill-rule="evenodd" fill-opacity="1" stroke="#000000" stroke-opacity="1" stroke-width="3.2"/>
<circle clip-path="url(#clip332)" cx="1464.72" cy="1038.99" r="14.4" fill="#e69f00" fill-rule="evenodd" fill-opacity="1" stroke="#000000" stroke-opacity="1" stroke-width="3.2"/>
<circle clip-path="url(#clip332)" cx="1713.48" cy="314.772" r="14.4" fill="#e69f00" fill-rule="evenodd" fill-opacity="1" stroke="#000000" stroke-opacity="1" stroke-width="3.2"/>
<circle clip-path="url(#clip332)" cx="973.009" cy="1013.6" r="14.4" fill="#e69f00" fill-rule="evenodd" fill-opacity="1" stroke="#000000" stroke-opacity="1" stroke-width="3.2"/>
<circle clip-path="url(#clip332)" cx="2322.81" cy="901.111" r="14.4" fill="#e69f00" fill-rule="evenodd" fill-opacity="1" stroke="#000000" stroke-opacity="1" stroke-width="3.2"/>
<circle clip-path="url(#clip332)" cx="1719.01" cy="472.74" r="14.4" fill="#e69f00" fill-rule="evenodd" fill-opacity="1" stroke="#000000" stroke-opacity="1" stroke-width="3.2"/>
<circle clip-path="url(#clip332)" cx="1786.91" cy="564.768" r="14.4" fill="#e69f00" fill-rule="evenodd" fill-opacity="1" stroke="#000000" stroke-opacity="1" stroke-width="3.2"/>
<circle clip-path="url(#clip332)" cx="213.251" cy="801.145" r="14.4" fill="#e69f00" fill-rule="evenodd" fill-opacity="1" stroke="#000000" stroke-opacity="1" stroke-width="3.2"/>
<circle clip-path="url(#clip332)" cx="644.097" cy="1103.14" r="14.4" fill="#e69f00" fill-rule="evenodd" fill-opacity="1" stroke="#000000" stroke-opacity="1" stroke-width="3.2"/>
<circle clip-path="url(#clip332)" cx="1801.42" cy="304.632" r="14.4" fill="#e69f00" fill-rule="evenodd" fill-opacity="1" stroke="#000000" stroke-opacity="1" stroke-width="3.2"/>
<circle clip-path="url(#clip332)" cx="1176.85" cy="684.869" r="14.4" fill="#e69f00" fill-rule="evenodd" fill-opacity="1" stroke="#000000" stroke-opacity="1" stroke-width="3.2"/>
<circle clip-path="url(#clip332)" cx="1019.09" cy="969.253" r="14.4" fill="#e69f00" fill-rule="evenodd" fill-opacity="1" stroke="#000000" stroke-opacity="1" stroke-width="3.2"/>
<circle clip-path="url(#clip332)" cx="1954.06" cy="492.38" r="14.4" fill="#e69f00" fill-rule="evenodd" fill-opacity="1" stroke="#000000" stroke-opacity="1" stroke-width="3.2"/>
<circle clip-path="url(#clip332)" cx="751.374" cy="1023.7" r="14.4" fill="#e69f00" fill-rule="evenodd" fill-opacity="1" stroke="#000000" stroke-opacity="1" stroke-width="3.2"/>
<circle clip-path="url(#clip332)" cx="1535.86" cy="487.231" r="14.4" fill="#e69f00" fill-rule="evenodd" fill-opacity="1" stroke="#000000" stroke-opacity="1" stroke-width="3.2"/>
<circle clip-path="url(#clip332)" cx="574.566" cy="1056.97" r="14.4" fill="#e69f00" fill-rule="evenodd" fill-opacity="1" stroke="#000000" stroke-opacity="1" stroke-width="3.2"/>
<circle clip-path="url(#clip332)" cx="1657.22" cy="273.201" r="14.4" fill="#e69f00" fill-rule="evenodd" fill-opacity="1" stroke="#000000" stroke-opacity="1" stroke-width="3.2"/>
<circle clip-path="url(#clip332)" cx="1319.36" cy="453.645" r="14.4" fill="#e69f00" fill-rule="evenodd" fill-opacity="1" stroke="#000000" stroke-opacity="1" stroke-width="3.2"/>
<circle clip-path="url(#clip332)" cx="1169.12" cy="1040.88" r="14.4" fill="#e69f00" fill-rule="evenodd" fill-opacity="1" stroke="#000000" stroke-opacity="1" stroke-width="3.2"/>
<circle clip-path="url(#clip332)" cx="843.06" cy="996.901" r="14.4" fill="#e69f00" fill-rule="evenodd" fill-opacity="1" stroke="#000000" stroke-opacity="1" stroke-width="3.2"/>
<circle clip-path="url(#clip332)" cx="569.605" cy="1125.01" r="14.4" fill="#e69f00" fill-rule="evenodd" fill-opacity="1" stroke="#000000" stroke-opacity="1" stroke-width="3.2"/>
<circle clip-path="url(#clip332)" cx="1495.96" cy="621.842" r="14.4" fill="#e69f00" fill-rule="evenodd" fill-opacity="1" stroke="#000000" stroke-opacity="1" stroke-width="3.2"/>
<circle clip-path="url(#clip332)" cx="1651.26" cy="395.868" r="14.4" fill="#e69f00" fill-rule="evenodd" fill-opacity="1" stroke="#000000" stroke-opacity="1" stroke-width="3.2"/>
<circle clip-path="url(#clip332)" cx="676.299" cy="947.132" r="14.4" fill="#e69f00" fill-rule="evenodd" fill-opacity="1" stroke="#000000" stroke-opacity="1" stroke-width="3.2"/>
<circle clip-path="url(#clip332)" cx="996.289" cy="800.676" r="14.4" fill="#e69f00" fill-rule="evenodd" fill-opacity="1" stroke="#000000" stroke-opacity="1" stroke-width="3.2"/>
<circle clip-path="url(#clip332)" cx="1249.41" cy="894.593" r="14.4" fill="#e69f00" fill-rule="evenodd" fill-opacity="1" stroke="#000000" stroke-opacity="1" stroke-width="3.2"/>
<circle clip-path="url(#clip332)" cx="373.328" cy="782.697" r="14.4" fill="#e69f00" fill-rule="evenodd" fill-opacity="1" stroke="#000000" stroke-opacity="1" stroke-width="3.2"/>
<circle clip-path="url(#clip332)" cx="2248.62" cy="423.786" r="14.4" fill="#e69f00" fill-rule="evenodd" fill-opacity="1" stroke="#000000" stroke-opacity="1" stroke-width="3.2"/>
<circle clip-path="url(#clip332)" cx="1894.73" cy="347.309" r="14.4" fill="#e69f00" fill-rule="evenodd" fill-opacity="1" stroke="#000000" stroke-opacity="1" stroke-width="3.2"/>
<circle clip-path="url(#clip332)" cx="1704.76" cy="595.073" r="14.4" fill="#e69f00" fill-rule="evenodd" fill-opacity="1" stroke="#000000" stroke-opacity="1" stroke-width="3.2"/>
<circle clip-path="url(#clip332)" cx="2163.95" cy="524.677" r="14.4" fill="#e69f00" fill-rule="evenodd" fill-opacity="1" stroke="#000000" stroke-opacity="1" stroke-width="3.2"/>
<circle clip-path="url(#clip332)" cx="2010.02" cy="355.972" r="14.4" fill="#e69f00" fill-rule="evenodd" fill-opacity="1" stroke="#000000" stroke-opacity="1" stroke-width="3.2"/>
<circle clip-path="url(#clip332)" cx="759.494" cy="911.643" r="14.4" fill="#e69f00" fill-rule="evenodd" fill-opacity="1" stroke="#000000" stroke-opacity="1" stroke-width="3.2"/>
<circle clip-path="url(#clip332)" cx="774.998" cy="783.582" r="14.4" fill="#e69f00" fill-rule="evenodd" fill-opacity="1" stroke="#000000" stroke-opacity="1" stroke-width="3.2"/>
<circle clip-path="url(#clip332)" cx="1213.94" cy="613.216" r="14.4" fill="#e69f00" fill-rule="evenodd" fill-opacity="1" stroke="#000000" stroke-opacity="1" stroke-width="3.2"/>
<circle clip-path="url(#clip332)" cx="2292.35" cy="721.391" r="14.4" fill="#e69f00" fill-rule="evenodd" fill-opacity="1" stroke="#000000" stroke-opacity="1" stroke-width="3.2"/>
<circle clip-path="url(#clip332)" cx="1648.28" cy="531.73" r="14.4" fill="#e69f00" fill-rule="evenodd" fill-opacity="1" stroke="#000000" stroke-opacity="1" stroke-width="3.2"/>
<circle clip-path="url(#clip332)" cx="545.443" cy="1053.25" r="14.4" fill="#e69f00" fill-rule="evenodd" fill-opacity="1" stroke="#000000" stroke-opacity="1" stroke-width="3.2"/>
<circle clip-path="url(#clip332)" cx="917.463" cy="929.965" r="14.4" fill="#e69f00" fill-rule="evenodd" fill-opacity="1" stroke="#000000" stroke-opacity="1" stroke-width="3.2"/>
<circle clip-path="url(#clip332)" cx="1417.98" cy="713.091" r="14.4" fill="#e69f00" fill-rule="evenodd" fill-opacity="1" stroke="#000000" stroke-opacity="1" stroke-width="3.2"/>
<circle clip-path="url(#clip332)" cx="757.035" cy="1127.69" r="14.4" fill="#e69f00" fill-rule="evenodd" fill-opacity="1" stroke="#000000" stroke-opacity="1" stroke-width="3.2"/>
<circle clip-path="url(#clip332)" cx="1453.2" cy="483.227" r="14.4" fill="#e69f00" fill-rule="evenodd" fill-opacity="1" stroke="#000000" stroke-opacity="1" stroke-width="3.2"/>
<circle clip-path="url(#clip332)" cx="1498.81" cy="386.762" r="14.4" fill="#e69f00" fill-rule="evenodd" fill-opacity="1" stroke="#000000" stroke-opacity="1" stroke-width="3.2"/>
<circle clip-path="url(#clip332)" cx="1063.94" cy="1033.85" r="14.4" fill="#e69f00" fill-rule="evenodd" fill-opacity="1" stroke="#000000" stroke-opacity="1" stroke-width="3.2"/>
<circle clip-path="url(#clip332)" cx="1942.85" cy="267.696" r="14.4" fill="#e69f00" fill-rule="evenodd" fill-opacity="1" stroke="#000000" stroke-opacity="1" stroke-width="3.2"/>
<circle clip-path="url(#clip332)" cx="1087.89" cy="744.572" r="14.4" fill="#e69f00" fill-rule="evenodd" fill-opacity="1" stroke="#000000" stroke-opacity="1" stroke-width="3.2"/>
<circle clip-path="url(#clip332)" cx="448.213" cy="946.02" r="14.4" fill="#e69f00" fill-rule="evenodd" fill-opacity="1" stroke="#000000" stroke-opacity="1" stroke-width="3.2"/>
<circle clip-path="url(#clip332)" cx="1208.34" cy="675.087" r="14.4" fill="#e69f00" fill-rule="evenodd" fill-opacity="1" stroke="#000000" stroke-opacity="1" stroke-width="3.2"/>
<circle clip-path="url(#clip332)" cx="1330.18" cy="497.432" r="14.4" fill="#e69f00" fill-rule="evenodd" fill-opacity="1" stroke="#000000" stroke-opacity="1" stroke-width="3.2"/>
<circle clip-path="url(#clip332)" cx="743.39" cy="1185.79" r="14.4" fill="#e69f00" fill-rule="evenodd" fill-opacity="1" stroke="#000000" stroke-opacity="1" stroke-width="3.2"/>
<circle clip-path="url(#clip332)" cx="659.042" cy="975.964" r="14.4" fill="#e69f00" fill-rule="evenodd" fill-opacity="1" stroke="#000000" stroke-opacity="1" stroke-width="3.2"/>
<circle clip-path="url(#clip332)" cx="975.62" cy="676.661" r="14.4" fill="#e69f00" fill-rule="evenodd" fill-opacity="1" stroke="#000000" stroke-opacity="1" stroke-width="3.2"/>
<circle clip-path="url(#clip332)" cx="1185.44" cy="896.423" r="14.4" fill="#e69f00" fill-rule="evenodd" fill-opacity="1" stroke="#000000" stroke-opacity="1" stroke-width="3.2"/>
<circle clip-path="url(#clip332)" cx="732.935" cy="1026.42" r="14.4" fill="#e69f00" fill-rule="evenodd" fill-opacity="1" stroke="#000000" stroke-opacity="1" stroke-width="3.2"/>
<circle clip-path="url(#clip332)" cx="2262.04" cy="333.061" r="14.4" fill="#e69f00" fill-rule="evenodd" fill-opacity="1" stroke="#000000" stroke-opacity="1" stroke-width="3.2"/>
<circle clip-path="url(#clip332)" cx="245.025" cy="920.562" r="14.4" fill="#e69f00" fill-rule="evenodd" fill-opacity="1" stroke="#000000" stroke-opacity="1" stroke-width="3.2"/>
<circle clip-path="url(#clip332)" cx="2273.61" cy="561.491" r="14.4" fill="#e69f00" fill-rule="evenodd" fill-opacity="1" stroke="#000000" stroke-opacity="1" stroke-width="3.2"/>
<circle clip-path="url(#clip332)" cx="1729.34" cy="98.4765" r="14.4" fill="#e69f00" fill-rule="evenodd" fill-opacity="1" stroke="#000000" stroke-opacity="1" stroke-width="3.2"/>
<circle clip-path="url(#clip332)" cx="270.43" cy="912.153" r="14.4" fill="#e69f00" fill-rule="evenodd" fill-opacity="1" stroke="#000000" stroke-opacity="1" stroke-width="3.2"/>
<circle clip-path="url(#clip332)" cx="331.982" cy="1032.94" r="14.4" fill="#e69f00" fill-rule="evenodd" fill-opacity="1" stroke="#000000" stroke-opacity="1" stroke-width="3.2"/>
<circle clip-path="url(#clip332)" cx="1702.75" cy="441.1" r="14.4" fill="#e69f00" fill-rule="evenodd" fill-opacity="1" stroke="#000000" stroke-opacity="1" stroke-width="3.2"/>
<circle clip-path="url(#clip332)" cx="1449.48" cy="669.968" r="14.4" fill="#e69f00" fill-rule="evenodd" fill-opacity="1" stroke="#000000" stroke-opacity="1" stroke-width="3.2"/>
<circle clip-path="url(#clip332)" cx="537.445" cy="1188.22" r="14.4" fill="#e69f00" fill-rule="evenodd" fill-opacity="1" stroke="#000000" stroke-opacity="1" stroke-width="3.2"/>
<circle clip-path="url(#clip332)" cx="1210.85" cy="704.643" r="14.4" fill="#e69f00" fill-rule="evenodd" fill-opacity="1" stroke="#000000" stroke-opacity="1" stroke-width="3.2"/>
<circle clip-path="url(#clip332)" cx="498.983" cy="1112.47" r="14.4" fill="#e69f00" fill-rule="evenodd" fill-opacity="1" stroke="#000000" stroke-opacity="1" stroke-width="3.2"/>
<circle clip-path="url(#clip332)" cx="2121.25" cy="822.58" r="14.4" fill="#e69f00" fill-rule="evenodd" fill-opacity="1" stroke="#000000" stroke-opacity="1" stroke-width="3.2"/>
<circle clip-path="url(#clip332)" cx="1116.08" cy="1158.89" r="14.4" fill="#e69f00" fill-rule="evenodd" fill-opacity="1" stroke="#000000" stroke-opacity="1" stroke-width="3.2"/>
<circle clip-path="url(#clip332)" cx="2170.5" cy="535.502" r="14.4" fill="#e69f00" fill-rule="evenodd" fill-opacity="1" stroke="#000000" stroke-opacity="1" stroke-width="3.2"/>
<circle clip-path="url(#clip332)" cx="248.068" cy="867.955" r="14.4" fill="#e69f00" fill-rule="evenodd" fill-opacity="1" stroke="#000000" stroke-opacity="1" stroke-width="3.2"/>
<circle clip-path="url(#clip332)" cx="2098.72" cy="367.252" r="14.4" fill="#e69f00" fill-rule="evenodd" fill-opacity="1" stroke="#000000" stroke-opacity="1" stroke-width="3.2"/>
<circle clip-path="url(#clip332)" cx="2049.09" cy="620.931" r="14.4" fill="#e69f00" fill-rule="evenodd" fill-opacity="1" stroke="#000000" stroke-opacity="1" stroke-width="3.2"/>
<circle clip-path="url(#clip332)" cx="1658" cy="582.993" r="14.4" fill="#e69f00" fill-rule="evenodd" fill-opacity="1" stroke="#000000" stroke-opacity="1" stroke-width="3.2"/>
<circle clip-path="url(#clip332)" cx="1438.86" cy="312.991" r="14.4" fill="#e69f00" fill-rule="evenodd" fill-opacity="1" stroke="#000000" stroke-opacity="1" stroke-width="3.2"/>
<circle clip-path="url(#clip332)" cx="204.898" cy="845.578" r="14.4" fill="#e69f00" fill-rule="evenodd" fill-opacity="1" stroke="#000000" stroke-opacity="1" stroke-width="3.2"/>
<circle clip-path="url(#clip332)" cx="309.061" cy="785.385" r="14.4" fill="#e69f00" fill-rule="evenodd" fill-opacity="1" stroke="#000000" stroke-opacity="1" stroke-width="3.2"/>
<circle clip-path="url(#clip332)" cx="2227.39" cy="665.358" r="14.4" fill="#e69f00" fill-rule="evenodd" fill-opacity="1" stroke="#000000" stroke-opacity="1" stroke-width="3.2"/>
<circle clip-path="url(#clip332)" cx="919.552" cy="1049.2" r="14.4" fill="#e69f00" fill-rule="evenodd" fill-opacity="1" stroke="#000000" stroke-opacity="1" stroke-width="3.2"/>
<circle clip-path="url(#clip332)" cx="305.503" cy="941.922" r="14.4" fill="#e69f00" fill-rule="evenodd" fill-opacity="1" stroke="#000000" stroke-opacity="1" stroke-width="3.2"/>
<circle clip-path="url(#clip332)" cx="1015.78" cy="880.766" r="14.4" fill="#e69f00" fill-rule="evenodd" fill-opacity="1" stroke="#000000" stroke-opacity="1" stroke-width="3.2"/>
<circle clip-path="url(#clip332)" cx="2292.13" cy="873.553" r="14.4" fill="#e69f00" fill-rule="evenodd" fill-opacity="1" stroke="#000000" stroke-opacity="1" stroke-width="3.2"/>
<circle clip-path="url(#clip332)" cx="886.479" cy="810.212" r="14.4" fill="#e69f00" fill-rule="evenodd" fill-opacity="1" stroke="#000000" stroke-opacity="1" stroke-width="3.2"/>
<circle clip-path="url(#clip332)" cx="428.882" cy="1124.27" r="14.4" fill="#e69f00" fill-rule="evenodd" fill-opacity="1" stroke="#000000" stroke-opacity="1" stroke-width="3.2"/>
<circle clip-path="url(#clip332)" cx="660.488" cy="964.409" r="14.4" fill="#e69f00" fill-rule="evenodd" fill-opacity="1" stroke="#000000" stroke-opacity="1" stroke-width="3.2"/>
<circle clip-path="url(#clip332)" cx="2292.86" cy="602.209" r="14.4" fill="#e69f00" fill-rule="evenodd" fill-opacity="1" stroke="#000000" stroke-opacity="1" stroke-width="3.2"/>
<circle clip-path="url(#clip332)" cx="1260.9" cy="810.64" r="14.4" fill="#e69f00" fill-rule="evenodd" fill-opacity="1" stroke="#000000" stroke-opacity="1" stroke-width="3.2"/>
<circle clip-path="url(#clip332)" cx="749.164" cy="1169.31" r="14.4" fill="#e69f00" fill-rule="evenodd" fill-opacity="1" stroke="#000000" stroke-opacity="1" stroke-width="3.2"/>
<circle clip-path="url(#clip332)" cx="325.709" cy="1142.94" r="14.4" fill="#e69f00" fill-rule="evenodd" fill-opacity="1" stroke="#000000" stroke-opacity="1" stroke-width="3.2"/>
<circle clip-path="url(#clip332)" cx="1204.77" cy="881.274" r="14.4" fill="#e69f00" fill-rule="evenodd" fill-opacity="1" stroke="#000000" stroke-opacity="1" stroke-width="3.2"/>
<circle clip-path="url(#clip332)" cx="459.175" cy="1193.97" r="14.4" fill="#e69f00" fill-rule="evenodd" fill-opacity="1" stroke="#000000" stroke-opacity="1" stroke-width="3.2"/>
<circle clip-path="url(#clip332)" cx="541.549" cy="1121.17" r="14.4" fill="#e69f00" fill-rule="evenodd" fill-opacity="1" stroke="#000000" stroke-opacity="1" stroke-width="3.2"/>
<circle clip-path="url(#clip332)" cx="2219.47" cy="529.387" r="14.4" fill="#e69f00" fill-rule="evenodd" fill-opacity="1" stroke="#000000" stroke-opacity="1" stroke-width="3.2"/>
<circle clip-path="url(#clip332)" cx="2153.33" cy="273.829" r="14.4" fill="#e69f00" fill-rule="evenodd" fill-opacity="1" stroke="#000000" stroke-opacity="1" stroke-width="3.2"/>
<circle clip-path="url(#clip332)" cx="578.929" cy="696.089" r="14.4" fill="#e69f00" fill-rule="evenodd" fill-opacity="1" stroke="#000000" stroke-opacity="1" stroke-width="3.2"/>
<circle clip-path="url(#clip332)" cx="155.24" cy="988.082" r="14.4" fill="#e69f00" fill-rule="evenodd" fill-opacity="1" stroke="#000000" stroke-opacity="1" stroke-width="3.2"/>
<circle clip-path="url(#clip332)" cx="2152.99" cy="465.9" r="14.4" fill="#e69f00" fill-rule="evenodd" fill-opacity="1" stroke="#000000" stroke-opacity="1" stroke-width="3.2"/>
<circle clip-path="url(#clip332)" cx="232.143" cy="1004.64" r="14.4" fill="#e69f00" fill-rule="evenodd" fill-opacity="1" stroke="#000000" stroke-opacity="1" stroke-width="3.2"/>
<circle clip-path="url(#clip332)" cx="582.301" cy="927.121" r="14.4" fill="#e69f00" fill-rule="evenodd" fill-opacity="1" stroke="#000000" stroke-opacity="1" stroke-width="3.2"/>
<circle clip-path="url(#clip332)" cx="643.157" cy="1169.85" r="14.4" fill="#e69f00" fill-rule="evenodd" fill-opacity="1" stroke="#000000" stroke-opacity="1" stroke-width="3.2"/>
<circle clip-path="url(#clip332)" cx="2220.9" cy="797.466" r="14.4" fill="#e69f00" fill-rule="evenodd" fill-opacity="1" stroke="#000000" stroke-opacity="1" stroke-width="3.2"/>
<circle clip-path="url(#clip332)" cx="1952.44" cy="382.559" r="14.4" fill="#e69f00" fill-rule="evenodd" fill-opacity="1" stroke="#000000" stroke-opacity="1" stroke-width="3.2"/>
<circle clip-path="url(#clip332)" cx="1056.68" cy="862.226" r="14.4" fill="#e69f00" fill-rule="evenodd" fill-opacity="1" stroke="#000000" stroke-opacity="1" stroke-width="3.2"/>
<circle clip-path="url(#clip332)" cx="1454.11" cy="731.23" r="14.4" fill="#e69f00" fill-rule="evenodd" fill-opacity="1" stroke="#000000" stroke-opacity="1" stroke-width="3.2"/>
<circle clip-path="url(#clip332)" cx="2001.32" cy="485.04" r="14.4" fill="#e69f00" fill-rule="evenodd" fill-opacity="1" stroke="#000000" stroke-opacity="1" stroke-width="3.2"/>
<circle clip-path="url(#clip332)" cx="1554.15" cy="415.397" r="14.4" fill="#e69f00" fill-rule="evenodd" fill-opacity="1" stroke="#000000" stroke-opacity="1" stroke-width="3.2"/>
<circle clip-path="url(#clip332)" cx="641.163" cy="1195.93" r="14.4" fill="#e69f00" fill-rule="evenodd" fill-opacity="1" stroke="#000000" stroke-opacity="1" stroke-width="3.2"/>
<circle clip-path="url(#clip332)" cx="614.306" cy="1263.25" r="14.4" fill="#e69f00" fill-rule="evenodd" fill-opacity="1" stroke="#000000" stroke-opacity="1" stroke-width="3.2"/>
<circle clip-path="url(#clip332)" cx="702.136" cy="1087.9" r="14.4" fill="#e69f00" fill-rule="evenodd" fill-opacity="1" stroke="#000000" stroke-opacity="1" stroke-width="3.2"/>
<circle clip-path="url(#clip332)" cx="872.262" cy="843.846" r="14.4" fill="#e69f00" fill-rule="evenodd" fill-opacity="1" stroke="#000000" stroke-opacity="1" stroke-width="3.2"/>
<circle clip-path="url(#clip332)" cx="1011.42" cy="784.137" r="14.4" fill="#e69f00" fill-rule="evenodd" fill-opacity="1" stroke="#000000" stroke-opacity="1" stroke-width="3.2"/>
<circle clip-path="url(#clip332)" cx="872.97" cy="886.095" r="14.4" fill="#e69f00" fill-rule="evenodd" fill-opacity="1" stroke="#000000" stroke-opacity="1" stroke-width="3.2"/>
<circle clip-path="url(#clip332)" cx="1635.13" cy="284.615" r="14.4" fill="#e69f00" fill-rule="evenodd" fill-opacity="1" stroke="#000000" stroke-opacity="1" stroke-width="3.2"/>
<circle clip-path="url(#clip332)" cx="2241.6" cy="508.252" r="14.4" fill="#e69f00" fill-rule="evenodd" fill-opacity="1" stroke="#000000" stroke-opacity="1" stroke-width="3.2"/>
<circle clip-path="url(#clip332)" cx="2145.83" cy="677.203" r="14.4" fill="#e69f00" fill-rule="evenodd" fill-opacity="1" stroke="#000000" stroke-opacity="1" stroke-width="3.2"/>
<circle clip-path="url(#clip332)" cx="784.27" cy="1221.24" r="14.4" fill="#e69f00" fill-rule="evenodd" fill-opacity="1" stroke="#000000" stroke-opacity="1" stroke-width="3.2"/>
<circle clip-path="url(#clip332)" cx="1209.77" cy="848.647" r="14.4" fill="#e69f00" fill-rule="evenodd" fill-opacity="1" stroke="#000000" stroke-opacity="1" stroke-width="3.2"/>
<circle clip-path="url(#clip332)" cx="1837.15" cy="214.326" r="14.4" fill="#e69f00" fill-rule="evenodd" fill-opacity="1" stroke="#000000" stroke-opacity="1" stroke-width="3.2"/>
<circle clip-path="url(#clip332)" cx="819.192" cy="1088.1" r="14.4" fill="#e69f00" fill-rule="evenodd" fill-opacity="1" stroke="#000000" stroke-opacity="1" stroke-width="3.2"/>
<circle clip-path="url(#clip332)" cx="1380.37" cy="825.236" r="14.4" fill="#e69f00" fill-rule="evenodd" fill-opacity="1" stroke="#000000" stroke-opacity="1" stroke-width="3.2"/>
<circle clip-path="url(#clip332)" cx="1085.78" cy="978.46" r="14.4" fill="#e69f00" fill-rule="evenodd" fill-opacity="1" stroke="#000000" stroke-opacity="1" stroke-width="3.2"/>
<circle clip-path="url(#clip332)" cx="230.917" cy="966.181" r="14.4" fill="#e69f00" fill-rule="evenodd" fill-opacity="1" stroke="#000000" stroke-opacity="1" stroke-width="3.2"/>
<circle clip-path="url(#clip332)" cx="601.958" cy="901.525" r="14.4" fill="#e69f00" fill-rule="evenodd" fill-opacity="1" stroke="#000000" stroke-opacity="1" stroke-width="3.2"/>
<circle clip-path="url(#clip332)" cx="1174.8" cy="1069.94" r="14.4" fill="#e69f00" fill-rule="evenodd" fill-opacity="1" stroke="#000000" stroke-opacity="1" stroke-width="3.2"/>
<circle clip-path="url(#clip332)" cx="1677.77" cy="527.481" r="14.4" fill="#e69f00" fill-rule="evenodd" fill-opacity="1" stroke="#000000" stroke-opacity="1" stroke-width="3.2"/>
<circle clip-path="url(#clip332)" cx="999.692" cy="1067.37" r="14.4" fill="#e69f00" fill-rule="evenodd" fill-opacity="1" stroke="#000000" stroke-opacity="1" stroke-width="3.2"/>
<circle clip-path="url(#clip332)" cx="1633.23" cy="676.434" r="14.4" fill="#e69f00" fill-rule="evenodd" fill-opacity="1" stroke="#000000" stroke-opacity="1" stroke-width="3.2"/>
<circle clip-path="url(#clip332)" cx="999.093" cy="672.424" r="14.4" fill="#e69f00" fill-rule="evenodd" fill-opacity="1" stroke="#000000" stroke-opacity="1" stroke-width="3.2"/>
<circle clip-path="url(#clip332)" cx="1490.43" cy="713.78" r="14.4" fill="#e69f00" fill-rule="evenodd" fill-opacity="1" stroke="#000000" stroke-opacity="1" stroke-width="3.2"/>
<circle clip-path="url(#clip332)" cx="1818.55" cy="536.788" r="14.4" fill="#e69f00" fill-rule="evenodd" fill-opacity="1" stroke="#000000" stroke-opacity="1" stroke-width="3.2"/>
<circle clip-path="url(#clip332)" cx="719.874" cy="939.876" r="14.4" fill="#e69f00" fill-rule="evenodd" fill-opacity="1" stroke="#000000" stroke-opacity="1" stroke-width="3.2"/>
<circle clip-path="url(#clip332)" cx="699.739" cy="797.944" r="14.4" fill="#e69f00" fill-rule="evenodd" fill-opacity="1" stroke="#000000" stroke-opacity="1" stroke-width="3.2"/>
<circle clip-path="url(#clip332)" cx="1846.08" cy="672.361" r="14.4" fill="#e69f00" fill-rule="evenodd" fill-opacity="1" stroke="#000000" stroke-opacity="1" stroke-width="3.2"/>
<circle clip-path="url(#clip332)" cx="2118.43" cy="282.899" r="14.4" fill="#e69f00" fill-rule="evenodd" fill-opacity="1" stroke="#000000" stroke-opacity="1" stroke-width="3.2"/>
<circle clip-path="url(#clip332)" cx="1564.01" cy="257.069" r="14.4" fill="#e69f00" fill-rule="evenodd" fill-opacity="1" stroke="#000000" stroke-opacity="1" stroke-width="3.2"/>
<circle clip-path="url(#clip332)" cx="1327.23" cy="874.264" r="14.4" fill="#e69f00" fill-rule="evenodd" fill-opacity="1" stroke="#000000" stroke-opacity="1" stroke-width="3.2"/>
<circle clip-path="url(#clip332)" cx="1355.77" cy="649.839" r="14.4" fill="#e69f00" fill-rule="evenodd" fill-opacity="1" stroke="#000000" stroke-opacity="1" stroke-width="3.2"/>
<circle clip-path="url(#clip332)" cx="682.505" cy="977.076" r="14.4" fill="#e69f00" fill-rule="evenodd" fill-opacity="1" stroke="#000000" stroke-opacity="1" stroke-width="3.2"/>
<circle clip-path="url(#clip332)" cx="1075.35" cy="1156.8" r="14.4" fill="#e69f00" fill-rule="evenodd" fill-opacity="1" stroke="#000000" stroke-opacity="1" stroke-width="3.2"/>
<circle clip-path="url(#clip332)" cx="891.059" cy="1190.73" r="14.4" fill="#e69f00" fill-rule="evenodd" fill-opacity="1" stroke="#000000" stroke-opacity="1" stroke-width="3.2"/>
<circle clip-path="url(#clip332)" cx="1618.93" cy="411.37" r="14.4" fill="#e69f00" fill-rule="evenodd" fill-opacity="1" stroke="#000000" stroke-opacity="1" stroke-width="3.2"/>
<circle clip-path="url(#clip332)" cx="284.996" cy="860.929" r="14.4" fill="#e69f00" fill-rule="evenodd" fill-opacity="1" stroke="#000000" stroke-opacity="1" stroke-width="3.2"/>
<circle clip-path="url(#clip332)" cx="687.184" cy="801.058" r="14.4" fill="#e69f00" fill-rule="evenodd" fill-opacity="1" stroke="#000000" stroke-opacity="1" stroke-width="3.2"/>
<circle clip-path="url(#clip332)" cx="841.478" cy="811.732" r="14.4" fill="#e69f00" fill-rule="evenodd" fill-opacity="1" stroke="#000000" stroke-opacity="1" stroke-width="3.2"/>
<circle clip-path="url(#clip332)" cx="2275.26" cy="428.492" r="14.4" fill="#e69f00" fill-rule="evenodd" fill-opacity="1" stroke="#000000" stroke-opacity="1" stroke-width="3.2"/>
<circle clip-path="url(#clip332)" cx="1573.98" cy="493.917" r="14.4" fill="#e69f00" fill-rule="evenodd" fill-opacity="1" stroke="#000000" stroke-opacity="1" stroke-width="3.2"/>
<circle clip-path="url(#clip332)" cx="1535.03" cy="319.473" r="14.4" fill="#e69f00" fill-rule="evenodd" fill-opacity="1" stroke="#000000" stroke-opacity="1" stroke-width="3.2"/>
<circle clip-path="url(#clip332)" cx="1762.09" cy="522.41" r="14.4" fill="#e69f00" fill-rule="evenodd" fill-opacity="1" stroke="#000000" stroke-opacity="1" stroke-width="3.2"/>
<circle clip-path="url(#clip332)" cx="2049.79" cy="345.959" r="14.4" fill="#e69f00" fill-rule="evenodd" fill-opacity="1" stroke="#000000" stroke-opacity="1" stroke-width="3.2"/>
<circle clip-path="url(#clip332)" cx="1136.06" cy="965.074" r="14.4" fill="#e69f00" fill-rule="evenodd" fill-opacity="1" stroke="#000000" stroke-opacity="1" stroke-width="3.2"/>
<circle clip-path="url(#clip332)" cx="255.295" cy="964.916" r="14.4" fill="#e69f00" fill-rule="evenodd" fill-opacity="1" stroke="#000000" stroke-opacity="1" stroke-width="3.2"/>
<circle clip-path="url(#clip332)" cx="964.449" cy="889.314" r="14.4" fill="#e69f00" fill-rule="evenodd" fill-opacity="1" stroke="#000000" stroke-opacity="1" stroke-width="3.2"/>
<circle clip-path="url(#clip332)" cx="2182.53" cy="288.701" r="14.4" fill="#e69f00" fill-rule="evenodd" fill-opacity="1" stroke="#000000" stroke-opacity="1" stroke-width="3.2"/>
<circle clip-path="url(#clip332)" cx="1017.62" cy="1076.44" r="14.4" fill="#e69f00" fill-rule="evenodd" fill-opacity="1" stroke="#000000" stroke-opacity="1" stroke-width="3.2"/>
<circle clip-path="url(#clip332)" cx="1046" cy="1043.37" r="14.4" fill="#e69f00" fill-rule="evenodd" fill-opacity="1" stroke="#000000" stroke-opacity="1" stroke-width="3.2"/>
<circle clip-path="url(#clip332)" cx="1357.92" cy="766.689" r="14.4" fill="#e69f00" fill-rule="evenodd" fill-opacity="1" stroke="#000000" stroke-opacity="1" stroke-width="3.2"/>
<circle clip-path="url(#clip332)" cx="1927.23" cy="573.67" r="14.4" fill="#e69f00" fill-rule="evenodd" fill-opacity="1" stroke="#000000" stroke-opacity="1" stroke-width="3.2"/>
<circle clip-path="url(#clip332)" cx="385.782" cy="960.215" r="14.4" fill="#e69f00" fill-rule="evenodd" fill-opacity="1" stroke="#000000" stroke-opacity="1" stroke-width="3.2"/>
<circle clip-path="url(#clip332)" cx="155.13" cy="828.156" r="14.4" fill="#e69f00" fill-rule="evenodd" fill-opacity="1" stroke="#000000" stroke-opacity="1" stroke-width="3.2"/>
<circle clip-path="url(#clip332)" cx="1240.9" cy="743.11" r="14.4" fill="#e69f00" fill-rule="evenodd" fill-opacity="1" stroke="#000000" stroke-opacity="1" stroke-width="3.2"/>
<circle clip-path="url(#clip332)" cx="1052.72" cy="533.709" r="14.4" fill="#e69f00" fill-rule="evenodd" fill-opacity="1" stroke="#000000" stroke-opacity="1" stroke-width="3.2"/>
<circle clip-path="url(#clip332)" cx="1522.57" cy="450.878" r="14.4" fill="#e69f00" fill-rule="evenodd" fill-opacity="1" stroke="#000000" stroke-opacity="1" stroke-width="3.2"/>
<circle clip-path="url(#clip332)" cx="585.16" cy="1114.74" r="14.4" fill="#e69f00" fill-rule="evenodd" fill-opacity="1" stroke="#000000" stroke-opacity="1" stroke-width="3.2"/>
<circle clip-path="url(#clip332)" cx="387.736" cy="931.522" r="14.4" fill="#e69f00" fill-rule="evenodd" fill-opacity="1" stroke="#000000" stroke-opacity="1" stroke-width="3.2"/>
<circle clip-path="url(#clip332)" cx="1046.28" cy="1128.74" r="14.4" fill="#e69f00" fill-rule="evenodd" fill-opacity="1" stroke="#000000" stroke-opacity="1" stroke-width="3.2"/>
<circle clip-path="url(#clip332)" cx="378.63" cy="888.483" r="14.4" fill="#e69f00" fill-rule="evenodd" fill-opacity="1" stroke="#000000" stroke-opacity="1" stroke-width="3.2"/>
<circle clip-path="url(#clip332)" cx="1760.31" cy="508.522" r="14.4" fill="#e69f00" fill-rule="evenodd" fill-opacity="1" stroke="#000000" stroke-opacity="1" stroke-width="3.2"/>
<circle clip-path="url(#clip332)" cx="492.417" cy="1199.49" r="14.4" fill="#e69f00" fill-rule="evenodd" fill-opacity="1" stroke="#000000" stroke-opacity="1" stroke-width="3.2"/>
<circle clip-path="url(#clip332)" cx="2080" cy="616.575" r="14.4" fill="#e69f00" fill-rule="evenodd" fill-opacity="1" stroke="#000000" stroke-opacity="1" stroke-width="3.2"/>
<circle clip-path="url(#clip332)" cx="2352.76" cy="645.255" r="14.4" fill="#e69f00" fill-rule="evenodd" fill-opacity="1" stroke="#000000" stroke-opacity="1" stroke-width="3.2"/>
<circle clip-path="url(#clip332)" cx="164.125" cy="780.901" r="14.4" fill="#e69f00" fill-rule="evenodd" fill-opacity="1" stroke="#000000" stroke-opacity="1" stroke-width="3.2"/>
<circle clip-path="url(#clip332)" cx="1438.41" cy="417.894" r="14.4" fill="#e69f00" fill-rule="evenodd" fill-opacity="1" stroke="#000000" stroke-opacity="1" stroke-width="3.2"/>
<circle clip-path="url(#clip332)" cx="544.527" cy="1198.55" r="14.4" fill="#e69f00" fill-rule="evenodd" fill-opacity="1" stroke="#000000" stroke-opacity="1" stroke-width="3.2"/>
<circle clip-path="url(#clip332)" cx="1005.21" cy="846.171" r="14.4" fill="#e69f00" fill-rule="evenodd" fill-opacity="1" stroke="#000000" stroke-opacity="1" stroke-width="3.2"/>
<circle clip-path="url(#clip332)" cx="1629.41" cy="496.313" r="14.4" fill="#e69f00" fill-rule="evenodd" fill-opacity="1" stroke="#000000" stroke-opacity="1" stroke-width="3.2"/>
<circle clip-path="url(#clip332)" cx="366.1" cy="1300.64" r="14.4" fill="#e69f00" fill-rule="evenodd" fill-opacity="1" stroke="#000000" stroke-opacity="1" stroke-width="3.2"/>
<circle clip-path="url(#clip332)" cx="1441.95" cy="170.351" r="14.4" fill="#e69f00" fill-rule="evenodd" fill-opacity="1" stroke="#000000" stroke-opacity="1" stroke-width="3.2"/>
<circle clip-path="url(#clip332)" cx="2191.63" cy="625.629" r="14.4" fill="#e69f00" fill-rule="evenodd" fill-opacity="1" stroke="#000000" stroke-opacity="1" stroke-width="3.2"/>
<circle clip-path="url(#clip332)" cx="673.334" cy="671.021" r="14.4" fill="#e69f00" fill-rule="evenodd" fill-opacity="1" stroke="#000000" stroke-opacity="1" stroke-width="3.2"/>
<circle clip-path="url(#clip332)" cx="2174.81" cy="795.997" r="14.4" fill="#e69f00" fill-rule="evenodd" fill-opacity="1" stroke="#000000" stroke-opacity="1" stroke-width="3.2"/>
<circle clip-path="url(#clip332)" cx="598.211" cy="1185.97" r="14.4" fill="#e69f00" fill-rule="evenodd" fill-opacity="1" stroke="#000000" stroke-opacity="1" stroke-width="3.2"/>
<circle clip-path="url(#clip332)" cx="299.688" cy="1066.05" r="14.4" fill="#e69f00" fill-rule="evenodd" fill-opacity="1" stroke="#000000" stroke-opacity="1" stroke-width="3.2"/>
<circle clip-path="url(#clip332)" cx="163.546" cy="680.037" r="14.4" fill="#e69f00" fill-rule="evenodd" fill-opacity="1" stroke="#000000" stroke-opacity="1" stroke-width="3.2"/>
<circle clip-path="url(#clip332)" cx="284.837" cy="738.568" r="14.4" fill="#e69f00" fill-rule="evenodd" fill-opacity="1" stroke="#000000" stroke-opacity="1" stroke-width="3.2"/>
<circle clip-path="url(#clip332)" cx="2020.08" cy="238.19" r="14.4" fill="#e69f00" fill-rule="evenodd" fill-opacity="1" stroke="#000000" stroke-opacity="1" stroke-width="3.2"/>
<circle clip-path="url(#clip332)" cx="547.138" cy="1458" r="14.4" fill="#e69f00" fill-rule="evenodd" fill-opacity="1" stroke="#000000" stroke-opacity="1" stroke-width="3.2"/>
<circle clip-path="url(#clip332)" cx="504.825" cy="1162.21" r="14.4" fill="#e69f00" fill-rule="evenodd" fill-opacity="1" stroke="#000000" stroke-opacity="1" stroke-width="3.2"/>
<circle clip-path="url(#clip332)" cx="1372.6" cy="1008.82" r="14.4" fill="#e69f00" fill-rule="evenodd" fill-opacity="1" stroke="#000000" stroke-opacity="1" stroke-width="3.2"/>
<circle clip-path="url(#clip332)" cx="1286.13" cy="595.392" r="14.4" fill="#e69f00" fill-rule="evenodd" fill-opacity="1" stroke="#000000" stroke-opacity="1" stroke-width="3.2"/>
<circle clip-path="url(#clip332)" cx="398.522" cy="965.914" r="14.4" fill="#e69f00" fill-rule="evenodd" fill-opacity="1" stroke="#000000" stroke-opacity="1" stroke-width="3.2"/>
<circle clip-path="url(#clip332)" cx="501.152" cy="939.953" r="14.4" fill="#e69f00" fill-rule="evenodd" fill-opacity="1" stroke="#000000" stroke-opacity="1" stroke-width="3.2"/>
<circle clip-path="url(#clip332)" cx="2090.85" cy="600.388" r="14.4" fill="#e69f00" fill-rule="evenodd" fill-opacity="1" stroke="#000000" stroke-opacity="1" stroke-width="3.2"/>
<circle clip-path="url(#clip332)" cx="1854.46" cy="198.751" r="14.4" fill="#e69f00" fill-rule="evenodd" fill-opacity="1" stroke="#000000" stroke-opacity="1" stroke-width="3.2"/>
<circle clip-path="url(#clip332)" cx="2324.18" cy="423.771" r="14.4" fill="#e69f00" fill-rule="evenodd" fill-opacity="1" stroke="#000000" stroke-opacity="1" stroke-width="3.2"/>
<circle clip-path="url(#clip332)" cx="1943.27" cy="348.058" r="14.4" fill="#e69f00" fill-rule="evenodd" fill-opacity="1" stroke="#000000" stroke-opacity="1" stroke-width="3.2"/>
<circle clip-path="url(#clip332)" cx="194.878" cy="1251.02" r="14.4" fill="#e69f00" fill-rule="evenodd" fill-opacity="1" stroke="#000000" stroke-opacity="1" stroke-width="3.2"/>
<circle clip-path="url(#clip332)" cx="847.91" cy="1258.7" r="14.4" fill="#e69f00" fill-rule="evenodd" fill-opacity="1" stroke="#000000" stroke-opacity="1" stroke-width="3.2"/>
<circle clip-path="url(#clip332)" cx="1887.35" cy="626.935" r="14.4" fill="#e69f00" fill-rule="evenodd" fill-opacity="1" stroke="#000000" stroke-opacity="1" stroke-width="3.2"/>
<circle clip-path="url(#clip332)" cx="1878.32" cy="745.06" r="14.4" fill="#e69f00" fill-rule="evenodd" fill-opacity="1" stroke="#000000" stroke-opacity="1" stroke-width="3.2"/>
<circle clip-path="url(#clip332)" cx="466.92" cy="958.338" r="14.4" fill="#e69f00" fill-rule="evenodd" fill-opacity="1" stroke="#000000" stroke-opacity="1" stroke-width="3.2"/>
<circle clip-path="url(#clip332)" cx="1884.37" cy="47.2441" r="14.4" fill="#e69f00" fill-rule="evenodd" fill-opacity="1" stroke="#000000" stroke-opacity="1" stroke-width="3.2"/>
<circle clip-path="url(#clip332)" cx="181.326" cy="1154.09" r="14.4" fill="#e69f00" fill-rule="evenodd" fill-opacity="1" stroke="#000000" stroke-opacity="1" stroke-width="3.2"/>
<circle clip-path="url(#clip332)" cx="1509.42" cy="451.348" r="14.4" fill="#e69f00" fill-rule="evenodd" fill-opacity="1" stroke="#000000" stroke-opacity="1" stroke-width="3.2"/>
<circle clip-path="url(#clip332)" cx="395.302" cy="1198.53" r="14.4" fill="#e69f00" fill-rule="evenodd" fill-opacity="1" stroke="#000000" stroke-opacity="1" stroke-width="3.2"/>
<circle clip-path="url(#clip332)" cx="2271.16" cy="205.728" r="14.4" fill="#e69f00" fill-rule="evenodd" fill-opacity="1" stroke="#000000" stroke-opacity="1" stroke-width="3.2"/>
<circle clip-path="url(#clip332)" cx="411.094" cy="1072.03" r="14.4" fill="#e69f00" fill-rule="evenodd" fill-opacity="1" stroke="#000000" stroke-opacity="1" stroke-width="3.2"/>
<circle clip-path="url(#clip332)" cx="1651.1" cy="714.519" r="14.4" fill="#e69f00" fill-rule="evenodd" fill-opacity="1" stroke="#000000" stroke-opacity="1" stroke-width="3.2"/>
<circle clip-path="url(#clip332)" cx="1196.73" cy="816.288" r="14.4" fill="#e69f00" fill-rule="evenodd" fill-opacity="1" stroke="#000000" stroke-opacity="1" stroke-width="3.2"/>
<circle clip-path="url(#clip332)" cx="1580.02" cy="455.643" r="14.4" fill="#e69f00" fill-rule="evenodd" fill-opacity="1" stroke="#000000" stroke-opacity="1" stroke-width="3.2"/>
<path clip-path="url(#clip332)" d="M147.478 1168.59 L155.13 1175.19 L155.24 1175.28 L163.546 1182.4 L164.125 1182.9 L170.164 1188.04 L181.326 1197.47 L191.125 1205.67 L194.878 1208.79 L204.898 1217.04 L213.251 1223.86 L230.917 1238.02 L232.143 1238.99 L245.025 1249.09 L248.068 1251.44 L255.295 1256.99 L270.43 1268.4 L284.837 1278.98 L284.996 1279.1 L299.688 1289.58 L305.503 1293.64 L309.061 1296.1 L325.709 1307.35 L331.982 1311.48 L366.1 1332.76 L373.328 1337 L378.63 1340.06 L385.782 1344.1 L387.736 1345.18 L395.302 1349.32 L398.522 1351.05 L411.094 1357.61 L428.882 1366.36 L448.213 1375.14 L459.175 1379.78 L460.999 1380.53 L466.92 1382.9 L492.417 1392.26 L498.983 1394.44 L501.152 1395.14 L504.825 1396.3 L537.445 1405.26 L541.549 1406.21 L544.527 1406.88 L545.443 1407.08 L547.138 1407.45 L565.318 1410.97 L569.605 1411.69 L574.566 1412.47 L578.929 1413.11 L582.301 1413.57 L585.16 1413.94 L588.687 1414.37 L598.211 1415.38 L601.958 1415.72 L606.109 1416.06 L614.306 1416.6 L641.163 1417.27 L643.157 1417.25 L644.097 1417.24 L647.67 1417.17 L659.042 1416.76 L660.488 1416.68 L673.334 1415.8 L676.299 1415.54 L682.505 1414.93 L687.184 1414.41 L699.739 1412.75 L702.136 1412.4 L719.874 1409.33 L729.797 1407.29 L732.935 1406.6 L743.39 1404.13 L744.075 1403.96 L749.164 1402.66 L751.374 1402.08 L757.035 1400.53 L759.494 1399.84 L774.998 1395.15 L784.27 1392.09 L819.192 1378.88 L833.322 1372.8 L841.478 1369.1 L843.06 1368.36 L847.91 1366.08 L854.145 1363.08 L872.262 1353.92 L872.97 1353.55 L886.479 1346.28 L886.533 1346.25 L891.059 1343.74 L917.463 1328.33 L919.552 1327.06 L964.449 1297.95 L971.898 1292.81 L973.009 1292.03 L975.62 1290.2 L996.289 1275.39 L999.093 1273.34 L999.692 1272.9 L1005.21 1268.82 L1011.42 1264.18 L1015.78 1260.89 L1017.62 1259.49 L1019.09 1258.37 L1046 1237.45 L1046.28 1237.23 L1052.72 1232.1 L1056.68 1228.92 L1063.94 1223.05 L1067.18 1220.41 L1075.35 1213.72 L1085.78 1205.09 L1087.89 1203.32 L1116.08 1179.47 L1136.06 1162.22 L1169.12 1133.2 L1174.8 1128.16 L1176.85 1126.34 L1185.44 1118.71 L1196.73 1108.64 L1204.77 1101.46 L1208.34 1098.26 L1209.77 1096.98 L1210.85 1096.01 L1213.94 1093.25 L1240.9 1069.1 L1249.41 1061.49 L1260.9 1051.21 L1265.83 1046.82 L1286.13 1028.79 L1319.36 999.616 L1327.23 992.792 L1330.18 990.24 L1355.77 968.391 L1357.92 966.58 L1372.6 954.306 L1380.37 947.888 L1417.98 917.658 L1438.41 901.913 L1438.86 901.568 L1441.95 899.238 L1449.48 893.6 L1453.2 890.84 L1454.11 890.165 L1464.72 882.415 L1490.43 864.312 L1495.96 860.545 L1498.81 858.626 L1509.42 851.588 L1522.57 843.115 L1535.03 835.358 L1535.86 834.85 L1554.15 823.985 L1564.01 818.38 L1573.98 812.899 L1580.02 809.666 L1618.93 790.574 L1629.41 785.958 L1633.23 784.334 L1635.13 783.536 L1648.28 778.23 L1651.1 777.141 L1651.26 777.078 L1657.22 774.834 L1658 774.547 L1677.77 767.69 L1696.9 761.882 L1702.75 760.272 L1704.76 759.737 L1713.48 757.521 L1719.01 756.207 L1726.4 754.559 L1729.34 753.939 L1745.9 750.822 L1760.31 748.632 L1762.09 748.397 L1786.91 745.881 L1801.42 745.089 L1818.55 744.8 L1837.15 745.28 L1846.08 745.803 L1854.46 746.467 L1878.32 749.27 L1883.67 750.083 L1884.37 750.194 L1887.35 750.681 L1894.73 751.977 L1927.23 759.187 L1942.38 763.378 L1942.85 763.515 L1943.27 763.64 L1952.44 766.447 L1954.06 766.96 L1996.94 782.695 L2001.32 784.526 L2010.02 788.283 L2020.08 792.823 L2049.09 807.056 L2049.79 807.42 L2080 824.017 L2090.85 830.393 L2098.72 835.152 L2118.04 847.274 L2118.43 847.53 L2121.25 849.35 L2138.85 861.032 L2145.83 865.801 L2152.99 870.764 L2153.33 871.003 L2163.95 878.516 L2168.7 881.933 L2170.5 883.231 L2174.81 886.366 L2182.53 892.048 L2191.63 898.85 L2194.04 900.671 L2196.52 902.546 L2215.47 917.16 L2219.47 920.299 L2220.9 921.422 L2227.39 926.564 L2241.6 937.979 L2248.62 943.699 L2249.79 944.656 L2262.04 954.763 L2271.16 962.373 L2271.31 962.499 L2273.61 964.425 L2275.26 965.813 L2279.56 969.441 L2280.18 969.961 L2283.83 973.055 L2291.73 979.782 L2292.13 980.122 L2292.35 980.31 L2292.86 980.746 L2322.81 1006.66 L2324.18 1007.85 L2352.76 1033.03 L2352.76 403.459 L2324.18 378.278 L2322.81 377.086 L2292.86 351.174 L2292.35 350.738 L2292.13 350.55 L2291.73 350.209 L2283.83 343.482 L2280.18 340.389 L2279.56 339.869 L2275.26 336.241 L2273.61 334.852 L2271.31 332.927 L2271.16 332.8 L2262.04 325.19 L2249.79 315.083 L2248.62 314.127 L2241.6 308.406 L2227.39 296.991 L2220.9 291.849 L2219.47 290.726 L2215.47 287.588 L2196.52 272.974 L2194.04 271.099 L2191.63 269.278 L2182.53 262.475 L2174.81 256.794 L2170.5 253.659 L2168.7 252.361 L2163.95 248.944 L2153.33 241.43 L2152.99 241.192 L2145.83 236.228 L2138.85 231.46 L2121.25 219.778 L2118.43 217.958 L2118.04 217.702 L2098.72 205.58 L2090.85 200.821 L2080 194.445 L2049.79 177.848 L2049.09 177.483 L2020.08 163.25 L2010.02 158.711 L2001.32 154.954 L1996.94 153.123 L1954.06 137.388 L1952.44 136.874 L1943.27 134.068 L1942.85 133.942 L1942.38 133.806 L1927.23 129.614 L1894.73 122.405 L1887.35 121.109 L1884.37 120.621 L1883.67 120.51 L1878.32 119.697 L1854.46 116.894 L1846.08 116.231 L1837.15 115.707 L1818.55 115.228 L1801.42 115.517 L1786.91 116.308 L1762.09 118.824 L1760.31 119.06 L1745.9 121.25 L1729.34 124.367 L1726.4 124.987 L1719.01 126.635 L1713.48 127.948 L1704.76 130.165 L1702.75 130.7 L1696.9 132.31 L1677.77 138.117 L1658 144.975 L1657.22 145.262 L1651.26 147.506 L1651.1 147.569 L1648.28 148.658 L1635.13 153.963 L1633.23 154.761 L1629.41 156.386 L1618.93 161.001 L1580.02 180.094 L1573.98 183.327 L1564.01 188.807 L1554.15 194.412 L1535.86 205.278 L1535.03 205.785 L1522.57 213.542 L1509.42 222.015 L1498.81 229.054 L1495.96 230.973 L1490.43 234.74 L1464.72 252.843 L1454.11 260.593 L1453.2 261.268 L1449.48 264.028 L1441.95 269.666 L1438.86 271.995 L1438.41 272.341 L1417.98 288.086 L1380.37 318.316 L1372.6 324.733 L1357.92 337.007 L1355.77 338.819 L1330.18 360.667 L1327.23 363.22 L1319.36 370.044 L1286.13 399.214 L1265.83 417.247 L1260.9 421.642 L1249.41 431.915 L1240.9 439.528 L1213.94 463.68 L1210.85 466.44 L1209.77 467.411 L1208.34 468.692 L1204.77 471.887 L1196.73 479.071 L1185.44 489.137 L1176.85 496.772 L1174.8 498.59 L1169.12 503.626 L1136.06 532.651 L1116.08 549.899 L1087.89 573.748 L1085.78 575.513 L1075.35 584.145 L1067.18 590.838 L1063.94 593.476 L1056.68 599.344 L1052.72 602.523 L1046.28 607.66 L1046 607.876 L1019.09 628.802 L1017.62 629.921 L1015.78 631.313 L1011.42 634.603 L1005.21 639.246 L999.692 643.327 L999.093 643.768 L996.289 645.823 L975.62 660.632 L973.009 662.459 L971.898 663.233 L964.449 668.375 L919.552 697.489 L917.463 698.761 L891.059 714.166 L886.533 716.678 L886.479 716.707 L872.97 723.973 L872.262 724.344 L854.145 733.507 L847.91 736.509 L843.06 738.79 L841.478 739.524 L833.322 743.225 L819.192 749.31 L784.27 762.521 L774.998 765.58 L759.494 770.266 L757.035 770.96 L751.374 772.504 L749.164 773.087 L744.075 774.388 L743.39 774.558 L732.935 777.026 L729.797 777.718 L719.874 779.755 L702.136 782.823 L699.739 783.18 L687.184 784.834 L682.505 785.355 L676.299 785.966 L673.334 786.225 L660.488 787.108 L659.042 787.183 L647.67 787.597 L644.097 787.663 L643.157 787.676 L641.163 787.695 L614.306 787.03 L606.109 786.485 L601.958 786.148 L598.211 785.808 L588.687 784.795 L585.16 784.366 L582.301 783.996 L578.929 783.535 L574.566 782.899 L569.605 782.121 L565.318 781.402 L547.138 777.877 L545.443 777.509 L544.527 777.307 L541.549 776.639 L537.445 775.684 L504.825 766.724 L501.152 765.564 L498.983 764.865 L492.417 762.686 L466.92 753.327 L460.999 750.953 L459.175 750.206 L448.213 745.572 L428.882 736.791 L411.094 728.041 L398.522 721.481 L395.302 719.751 L387.736 715.611 L385.782 714.524 L378.63 710.485 L373.328 707.431 L366.1 703.184 L331.982 681.905 L325.709 677.78 L309.061 666.529 L305.503 664.069 L299.688 660.007 L284.996 649.523 L284.837 649.408 L270.43 638.83 L255.295 627.42 L248.068 621.87 L245.025 619.514 L232.143 609.42 L230.917 608.449 L213.251 594.283 L204.898 587.472 L194.878 579.214 L191.125 576.098 L181.326 567.901 L170.164 558.469 L164.125 553.326 L163.546 552.831 L155.24 545.711 L155.13 545.617 L147.478 539.015  Z" fill="#56b4e9" fill-rule="evenodd" fill-opacity="0.5"/>
<polyline clip-path="url(#clip332)" style="stroke:#56b4e9; stroke-linecap:round; stroke-linejoin:round; stroke-width:20; stroke-opacity:1; fill:none" points="147.478,853.802 155.13,860.403 155.24,860.497 163.546,867.617 164.125,868.112 170.164,873.255 181.326,882.687 191.125,890.884 194.878,894 204.898,902.258 213.251,909.069 230.917,923.235 232.143,924.206 245.025,934.301 248.068,936.656 255.295,942.206 270.43,953.616 284.837,964.194 284.996,964.309 299.688,974.793 305.503,978.855 309.061,981.315 325.709,992.566 331.982,996.691 366.1,1017.97 373.328,1022.22 378.63,1025.27 385.782,1029.31 387.736,1030.4 395.302,1034.54 398.522,1036.27 411.094,1042.83 428.882,1051.58 448.213,1060.36 459.175,1064.99 460.999,1065.74 466.92,1068.11 492.417,1077.47 498.983,1079.65 501.152,1080.35 504.825,1081.51 537.445,1090.47 541.549,1091.43 544.527,1092.09 545.443,1092.3 547.138,1092.66 565.318,1096.19 569.605,1096.91 574.566,1097.68 578.929,1098.32 582.301,1098.78 585.16,1099.15 588.687,1099.58 598.211,1100.59 601.958,1100.93 606.109,1101.27 614.306,1101.82 641.163,1102.48 643.157,1102.46 644.097,1102.45 647.67,1102.38 659.042,1101.97 660.488,1101.89 673.334,1101.01 676.299,1100.75 682.505,1100.14 687.184,1099.62 699.739,1097.97 702.136,1097.61 719.874,1094.54 729.797,1092.5 732.935,1091.81 743.39,1089.34 744.075,1089.17 749.164,1087.87 751.374,1087.29 757.035,1085.75 759.494,1085.05 774.998,1080.37 784.27,1077.31 819.192,1064.1 833.322,1058.01 841.478,1054.31 843.06,1053.58 847.91,1051.3 854.145,1048.29 872.262,1039.13 872.97,1038.76 886.479,1031.49 886.533,1031.46 891.059,1028.95 917.463,1013.55 919.552,1012.28 964.449,983.161 971.898,978.02 973.009,977.246 975.62,975.418 996.289,960.609 999.093,958.554 999.692,958.113 1005.21,954.033 1011.42,949.389 1015.78,946.099 1017.62,944.708 1019.09,943.588 1046,922.663 1046.28,922.447 1052.72,917.309 1056.68,914.13 1063.94,908.262 1067.18,905.624 1075.35,898.931 1085.78,890.299 1087.89,888.535 1116.08,864.685 1136.06,847.437 1169.12,818.413 1174.8,813.376 1176.85,811.558 1185.44,803.923 1196.73,793.857 1204.77,786.673 1208.34,783.479 1209.77,782.197 1210.85,781.226 1213.94,778.466 1240.9,754.314 1249.41,746.701 1260.9,736.428 1265.83,732.033 1286.13,714 1319.36,684.83 1327.23,678.006 1330.18,675.454 1355.77,653.605 1357.92,651.794 1372.6,639.52 1380.37,633.102 1417.98,602.872 1438.41,587.127 1438.86,586.781 1441.95,584.452 1449.48,578.814 1453.2,576.054 1454.11,575.379 1464.72,567.629 1490.43,549.526 1495.96,545.759 1498.81,543.84 1509.42,536.802 1522.57,528.329 1535.03,520.571 1535.86,520.064 1554.15,509.198 1564.01,503.594 1573.98,498.113 1580.02,494.88 1618.93,475.788 1629.41,471.172 1633.23,469.548 1635.13,468.749 1648.28,463.444 1651.1,462.355 1651.26,462.292 1657.22,460.048 1658,459.761 1677.77,452.904 1696.9,447.096 1702.75,445.486 1704.76,444.951 1713.48,442.735 1719.01,441.421 1726.4,439.773 1729.34,439.153 1745.9,436.036 1760.31,433.846 1762.09,433.611 1786.91,431.095 1801.42,430.303 1818.55,430.014 1837.15,430.493 1846.08,431.017 1854.46,431.681 1878.32,434.484 1883.67,435.297 1884.37,435.408 1887.35,435.895 1894.73,437.191 1927.23,444.4 1942.38,448.592 1942.85,448.728 1943.27,448.854 1952.44,451.661 1954.06,452.174 1996.94,467.909 2001.32,469.74 2010.02,473.497 2020.08,478.036 2049.09,492.269 2049.79,492.634 2080,509.231 2090.85,515.607 2098.72,520.366 2118.04,532.488 2118.43,532.744 2121.25,534.564 2138.85,546.246 2145.83,551.014 2152.99,555.978 2153.33,556.217 2163.95,563.73 2168.7,567.147 2170.5,568.445 2174.81,571.58 2182.53,577.261 2191.63,584.064 2194.04,585.885 2196.52,587.76 2215.47,602.374 2219.47,605.513 2220.9,606.635 2227.39,611.777 2241.6,623.193 2248.62,628.913 2249.79,629.87 2262.04,639.976 2271.16,647.587 2271.31,647.713 2273.61,649.639 2275.26,651.027 2279.56,654.655 2280.18,655.175 2283.83,658.269 2291.73,664.995 2292.13,665.336 2292.35,665.524 2292.86,665.96 2322.81,691.872 2324.18,693.064 2352.76,718.245 "/>
<polyline clip-path="url(#clip332)" style="stroke:#ff8c00; stroke-linecap:round; stroke-linejoin:round; stroke-width:8; stroke-opacity:1; fill:none" stroke-dasharray="32, 20" points="101.762,813.702 105.521,817.034 109.28,820.361 113.039,823.682 116.798,826.998 120.557,830.307 124.316,833.61 128.075,836.907 131.834,840.196 135.593,843.478 139.352,846.752 143.111,850.018 146.87,853.275 150.628,856.524 154.387,859.764 158.146,862.994 161.905,866.215 165.664,869.426 169.423,872.626 173.182,875.816 176.941,878.994 180.7,882.162 184.459,885.317 188.218,888.461 191.977,891.592 195.736,894.711 199.495,897.817 203.254,900.91 207.013,903.99 210.772,907.055 214.531,910.106 218.29,913.143 222.049,916.166 225.808,919.173 229.567,922.165 233.326,925.141 237.085,928.101 240.844,931.045 244.603,933.972 248.362,936.883 252.121,939.777 255.88,942.653 259.639,945.511 263.398,948.352 267.156,951.174 270.915,953.977 274.674,956.762 278.433,959.528 282.192,962.274 285.951,965.001 289.71,967.707 293.469,970.394 297.228,973.06 300.987,975.705 304.746,978.329 308.505,980.932 312.264,983.513 316.023,986.073 319.782,988.61 323.541,991.125 327.3,993.618 331.059,996.088 334.818,998.535 338.577,1000.96 342.336,1003.36 346.095,1005.73 349.854,1008.09 353.613,1010.41 357.372,1012.72 361.131,1015 364.89,1017.25 368.649,1019.48 372.408,1021.68 376.167,1023.86 379.926,1026.01 383.684,1028.14 387.443,1030.24 391.202,1032.31 394.961,1034.35 398.72,1036.37 402.479,1038.37 406.238,1040.33 409.997,1042.27 413.756,1044.18 417.515,1046.06 421.274,1047.91 425.033,1049.74 428.792,1051.53 432.551,1053.3 436.31,1055.04 440.069,1056.75 443.828,1058.43 447.587,1060.09 451.346,1061.71 455.105,1063.3 458.864,1064.86 462.623,1066.4 466.382,1067.9 470.141,1069.37 473.9,1070.82 477.659,1072.23 481.418,1073.61 485.177,1074.96 488.936,1076.28 492.695,1077.57 496.454,1078.82 500.212,1080.05 503.971,1081.24 507.73,1082.41 511.489,1083.54 515.248,1084.64 519.007,1085.7 522.766,1086.74 526.525,1087.74 530.284,1088.71 534.043,1089.65 537.802,1090.55 541.561,1091.43 545.32,1092.27 549.079,1093.08 552.838,1093.85 556.597,1094.59 560.356,1095.3 564.115,1095.98 567.874,1096.62 571.633,1097.23 575.392,1097.81 579.151,1098.35 582.91,1098.86 586.669,1099.34 590.428,1099.78 594.187,1100.19 597.946,1100.57 601.705,1100.91 605.464,1101.22 609.223,1101.5 612.982,1101.74 616.74,1101.95 620.499,1102.12 624.258,1102.26 628.017,1102.37 631.776,1102.44 635.535,1102.48 639.294,1102.49 643.053,1102.46 646.812,1102.4 650.571,1102.31 654.33,1102.18 658.089,1102.02 661.848,1101.82 665.607,1101.59 669.366,1101.33 673.125,1101.03 676.884,1100.7 680.643,1100.33 684.402,1099.94 688.161,1099.5 691.92,1099.04 695.679,1098.54 699.438,1098.01 703.197,1097.45 706.956,1096.85 710.715,1096.22 714.474,1095.55 718.233,1094.86 721.992,1094.13 725.751,1093.36 729.51,1092.57 733.269,1091.74 737.027,1090.88 740.786,1089.98 744.545,1089.06 748.304,1088.1 752.063,1087.11 755.822,1086.08 759.581,1085.03 763.34,1083.94 767.099,1082.82 770.858,1081.67 774.617,1080.49 778.376,1079.27 782.135,1078.03 785.894,1076.75 789.653,1075.44 793.412,1074.1 797.171,1072.73 800.93,1071.33 804.689,1069.9 808.448,1068.44 812.207,1066.95 815.966,1065.43 819.725,1063.87 823.484,1062.29 827.243,1060.68 831.002,1059.04 834.761,1057.37 838.52,1055.67 842.279,1053.94 846.038,1052.18 849.797,1050.4 853.555,1048.58 857.314,1046.74 861.073,1044.87 864.832,1042.97 868.591,1041.04 872.35,1039.08 876.109,1037.1 879.868,1035.09 883.627,1033.06 887.386,1030.99 891.145,1028.9 894.904,1026.79 898.663,1024.65 902.422,1022.48 906.181,1020.28 909.94,1018.06 913.699,1015.82 917.458,1013.55 921.217,1011.26 924.976,1008.94 928.735,1006.59 932.494,1004.23 936.253,1001.84 940.012,999.42 943.771,996.982 947.53,994.521 951.289,992.036 955.048,989.529 958.807,987 962.566,984.448 966.325,981.875 970.083,979.28 973.842,976.663 977.601,974.026 981.36,971.367 985.119,968.688 988.878,965.989 992.637,963.27 996.396,960.53 1000.16,957.772 1003.91,954.994 1007.67,952.197 1011.43,949.382 1015.19,946.548 1018.95,943.696 1022.71,940.827 1026.47,937.939 1030.23,935.035 1033.99,932.114 1037.74,929.175 1041.5,926.221 1045.26,923.251 1049.02,920.265 1052.78,917.263 1056.54,914.246 1060.3,911.215 1064.06,908.168 1067.82,905.108 1071.58,902.034 1075.33,898.946 1079.09,895.845 1082.85,892.73 1086.61,889.603 1090.37,886.464 1094.13,883.313 1097.89,880.149 1101.65,876.975 1105.41,873.789 1109.17,870.593 1112.92,867.386 1116.68,864.169 1120.44,860.942 1124.2,857.705 1127.96,854.46 1131.72,851.205 1135.48,847.942 1139.24,844.671 1143,841.392 1146.75,838.106 1150.51,834.812 1154.27,831.511 1158.03,828.204 1161.79,824.891 1165.55,821.571 1169.31,818.247 1173.07,814.917 1176.83,811.582 1180.59,808.242 1184.34,804.898 1188.1,801.551 1191.86,798.2 1195.62,794.845 1199.38,791.488 1203.14,788.128 1206.9,784.767 1210.66,781.403 1214.42,778.037 1218.18,774.671 1221.93,771.304 1225.69,767.936 1229.45,764.568 1233.21,761.2 1236.97,757.833 1240.73,754.466 1244.49,751.101 1248.25,747.737 1252.01,744.375 1255.77,741.015 1259.52,737.658 1263.28,734.304 1267.04,730.953 1270.8,727.605 1274.56,724.262 1278.32,720.922 1282.08,717.587 1285.84,714.257 1289.6,710.932 1293.35,707.613 1297.11,704.299 1300.87,700.992 1304.63,697.692 1308.39,694.398 1312.15,691.111 1315.91,687.832 1319.67,684.561 1323.43,681.298 1327.19,678.044 1330.94,674.798 1334.7,671.562 1338.46,668.335 1342.22,665.118 1345.98,661.911 1349.74,658.714 1353.5,655.529 1357.26,652.354 1361.02,649.191 1364.78,646.04 1368.53,642.9 1372.29,639.773 1376.05,636.659 1379.81,633.558 1383.57,630.47 1387.33,627.396 1391.09,624.335 1394.85,621.289 1398.61,618.257 1402.36,615.241 1406.12,612.239 1409.88,609.253 1413.64,606.282 1417.4,603.328 1421.16,600.39 1424.92,597.469 1428.68,594.564 1432.44,591.677 1436.2,588.807 1439.95,585.956 1443.71,583.122 1447.47,580.306 1451.23,577.51 1454.99,574.732 1458.75,571.973 1462.51,569.234 1466.27,566.515 1470.03,563.815 1473.79,561.136 1477.54,558.478 1481.3,555.84 1485.06,553.224 1488.82,550.629 1492.58,548.055 1496.34,545.504 1500.1,542.974 1503.86,540.467 1507.62,537.983 1511.37,535.522 1515.13,533.083 1518.89,530.668 1522.65,528.277 1526.41,525.91 1530.17,523.566 1533.93,521.247 1537.69,518.953 1541.45,516.684 1545.21,514.439 1548.96,512.22 1552.72,510.026 1556.48,507.858 1560.24,505.716 1564,503.6 1567.76,501.51 1571.52,499.447 1575.28,497.411 1579.04,495.402 1582.8,493.42 1586.55,491.465 1590.31,489.538 1594.07,487.638 1597.83,485.767 1601.59,483.923 1605.35,482.108 1609.11,480.322 1612.87,478.564 1616.63,476.835 1620.38,475.135 1624.14,473.464 1627.9,471.823 1631.66,470.211 1635.42,468.629 1639.18,467.077 1642.94,465.555 1646.7,464.063 1650.46,462.601 1654.22,461.17 1657.97,459.769 1661.73,458.399 1665.49,457.06 1669.25,455.752 1673.01,454.476 1676.77,453.23 1680.53,452.016 1684.29,450.833 1688.05,449.682 1691.81,448.563 1695.56,447.476 1699.32,446.421 1703.08,445.397 1706.84,444.406 1710.6,443.447 1714.36,442.521 1718.12,441.627 1721.88,440.766 1725.64,439.937 1729.4,439.141 1733.15,438.378 1736.91,437.648 1740.67,436.951 1744.43,436.287 1748.19,435.655 1751.95,435.058 1755.71,434.493 1759.47,433.961 1763.23,433.463 1766.98,432.999 1770.74,432.567 1774.5,432.17 1778.26,431.805 1782.02,431.475 1785.78,431.178 1789.54,430.914 1793.3,430.684 1797.06,430.488 1800.82,430.326 1804.57,430.197 1808.33,430.102 1812.09,430.041 1815.85,430.013 1819.61,430.019 1823.37,430.059 1827.13,430.133 1830.89,430.24 1834.65,430.381 1838.41,430.556 1842.16,430.764 1845.92,431.006 1849.68,431.282 1853.44,431.591 1857.2,431.934 1860.96,432.311 1864.72,432.721 1868.48,433.164 1872.24,433.641 1875.99,434.151 1879.75,434.695 1883.51,435.272 1887.27,435.882 1891.03,436.525 1894.79,437.201 1898.55,437.91 1902.31,438.652 1906.07,439.427 1909.83,440.235 1913.58,441.076 1917.34,441.949 1921.1,442.855 1924.86,443.793 1928.62,444.764 1932.38,445.766 1936.14,446.801 1939.9,447.868 1943.66,448.967 1947.42,450.098 1951.17,451.261 1954.93,452.455 1958.69,453.68 1962.45,454.937 1966.21,456.225 1969.97,457.545 1973.73,458.895 1977.49,460.276 1981.25,461.688 1985,463.13 1988.76,464.603 1992.52,466.106 1996.28,467.639 2000.04,469.202 2003.8,470.795 2007.56,472.418 2011.32,474.07 2015.08,475.751 2018.84,477.462 2022.59,479.201 2026.35,480.969 2030.11,482.766 2033.87,484.592 2037.63,486.445 2041.39,488.327 2045.15,490.237 2048.91,492.174 2052.67,494.139 2056.43,496.131 2060.18,498.15 2063.94,500.196 2067.7,502.269 2071.46,504.368 2075.22,506.493 2078.98,508.645 2082.74,510.822 2086.5,513.025 2090.26,515.254 2094.01,517.508 2097.77,519.786 2101.53,522.089 2105.29,524.417 2109.05,526.769 2112.81,529.146 2116.57,531.545 2120.33,533.969 2124.09,536.416 2127.85,538.885 2131.6,541.378 2135.36,543.893 2139.12,546.431 2142.88,548.99 2146.64,551.572 2150.4,554.175 2154.16,556.799 2157.92,559.444 2161.68,562.11 2165.44,564.796 2169.19,567.503 2172.95,570.23 2176.71,572.976 2180.47,575.742 2184.23,578.526 2187.99,581.33 2191.75,584.152 2195.51,586.993 2199.27,589.851 2203.02,592.727 2206.78,595.621 2210.54,598.531 2214.3,601.459 2218.06,604.403 2221.82,607.363 2225.58,610.339 2229.34,613.331 2233.1,616.338 2236.86,619.36 2240.61,622.397 2244.37,625.449 2248.13,628.514 2251.89,631.593 2255.65,634.686 2259.41,637.792 2263.17,640.911 2266.93,644.043 2270.69,647.186 2274.45,650.342 2278.2,653.509 2281.96,656.688 2285.72,659.878 2289.48,663.078 2293.24,666.289 2297,669.509 2300.76,672.74 2304.52,675.98 2308.28,679.228 2312.04,682.486 2315.79,685.752 2319.55,689.026 2323.31,692.308 2327.07,695.597 2330.83,698.893 2334.59,702.196 2338.35,705.506 2342.11,708.822 2345.87,712.143 2349.62,715.47 2353.38,718.802 "/>
<path clip-path="url(#clip330)" d="M220.987 302.578 L741.027 302.578 L741.027 95.2176 L220.987 95.2176  Z" fill="#ffffff" fill-rule="evenodd" fill-opacity="1"/>
<polyline clip-path="url(#clip330)" style="stroke:#000000; stroke-linecap:round; stroke-linejoin:round; stroke-width:4; stroke-opacity:1; fill:none" points="220.987,302.578 741.027,302.578 741.027,95.2176 220.987,95.2176 220.987,302.578 "/>
<circle clip-path="url(#clip330)" cx="319" cy="147.058" r="20.48" fill="#e69f00" fill-rule="evenodd" fill-opacity="1" stroke="#000000" stroke-opacity="1" stroke-width="4.55111"/>
<path clip-path="url(#clip330)" d="M433.03 132.949 Q427.938 132.949 424.929 136.745 Q421.942 140.541 421.942 147.092 Q421.942 153.62 424.929 157.416 Q427.938 161.213 433.03 161.213 Q438.123 161.213 441.086 157.416 Q444.072 153.62 444.072 147.092 Q444.072 140.541 441.086 136.745 Q438.123 132.949 433.03 132.949 M433.03 129.153 Q440.299 129.153 444.651 134.037 Q449.002 138.898 449.002 147.092 Q449.002 155.264 444.651 160.148 Q440.299 165.009 433.03 165.009 Q425.739 165.009 421.364 160.148 Q417.012 155.287 417.012 147.092 Q417.012 138.898 421.364 134.037 Q425.739 129.153 433.03 129.153 Z" fill="#000000" fill-rule="nonzero" fill-opacity="1" /><path clip-path="url(#clip330)" d="M474.743 151.398 Q474.743 146.699 472.799 144.037 Q470.877 141.352 467.498 141.352 Q464.118 141.352 462.174 144.037 Q460.252 146.699 460.252 151.398 Q460.252 156.097 462.174 158.782 Q464.118 161.444 467.498 161.444 Q470.877 161.444 472.799 158.782 Q474.743 156.097 474.743 151.398 M460.252 142.347 Q461.595 140.032 463.632 138.921 Q465.692 137.787 468.539 137.787 Q473.262 137.787 476.201 141.537 Q479.164 145.287 479.164 151.398 Q479.164 157.509 476.201 161.259 Q473.262 165.009 468.539 165.009 Q465.692 165.009 463.632 163.898 Q461.595 162.763 460.252 160.449 L460.252 164.338 L455.97 164.338 L455.97 128.319 L460.252 128.319 L460.252 142.347 Z" fill="#000000" fill-rule="nonzero" fill-opacity="1" /><path clip-path="url(#clip330)" d="M502.752 139.176 L502.752 143.203 Q500.947 142.277 499.002 141.815 Q497.058 141.352 494.974 141.352 Q491.803 141.352 490.206 142.324 Q488.632 143.296 488.632 145.24 Q488.632 146.722 489.766 147.578 Q490.9 148.412 494.326 149.176 L495.785 149.5 Q500.322 150.472 502.22 152.254 Q504.141 154.014 504.141 157.185 Q504.141 160.796 501.271 162.902 Q498.423 165.009 493.424 165.009 Q491.34 165.009 489.072 164.592 Q486.826 164.199 484.326 163.388 L484.326 158.99 Q486.687 160.217 488.979 160.842 Q491.271 161.444 493.516 161.444 Q496.525 161.444 498.146 160.426 Q499.766 159.384 499.766 157.509 Q499.766 155.773 498.586 154.847 Q497.428 153.921 493.47 153.064 L491.988 152.717 Q488.03 151.884 486.271 150.171 Q484.512 148.435 484.512 145.426 Q484.512 141.768 487.104 139.778 Q489.697 137.787 494.465 137.787 Q496.826 137.787 498.91 138.134 Q500.993 138.481 502.752 139.176 Z" fill="#000000" fill-rule="nonzero" fill-opacity="1" /><path clip-path="url(#clip330)" d="M533.099 150.31 L533.099 152.393 L513.516 152.393 Q513.794 156.791 516.155 159.106 Q518.539 161.398 522.775 161.398 Q525.229 161.398 527.521 160.796 Q529.835 160.194 532.104 158.99 L532.104 163.018 Q529.812 163.99 527.405 164.5 Q524.997 165.009 522.521 165.009 Q516.317 165.009 512.683 161.398 Q509.072 157.787 509.072 151.629 Q509.072 145.264 512.497 141.537 Q515.947 137.787 521.78 137.787 Q527.011 137.787 530.044 141.166 Q533.099 144.523 533.099 150.31 M528.84 149.06 Q528.794 145.565 526.872 143.481 Q524.974 141.398 521.826 141.398 Q518.261 141.398 516.109 143.412 Q513.979 145.426 513.655 149.083 L528.84 149.06 Z" fill="#000000" fill-rule="nonzero" fill-opacity="1" /><path clip-path="url(#clip330)" d="M555.113 142.393 Q554.395 141.977 553.539 141.791 Q552.706 141.583 551.687 141.583 Q548.076 141.583 546.132 143.944 Q544.21 146.282 544.21 150.68 L544.21 164.338 L539.928 164.338 L539.928 138.412 L544.21 138.412 L544.21 142.44 Q545.553 140.078 547.706 138.944 Q549.858 137.787 552.937 137.787 Q553.377 137.787 553.909 137.856 Q554.442 137.903 555.09 138.018 L555.113 142.393 Z" fill="#000000" fill-rule="nonzero" fill-opacity="1" /><path clip-path="url(#clip330)" d="M556.525 138.412 L561.039 138.412 L569.141 160.171 L577.243 138.412 L581.756 138.412 L572.034 164.338 L566.247 164.338 L556.525 138.412 Z" fill="#000000" fill-rule="nonzero" fill-opacity="1" /><path clip-path="url(#clip330)" d="M609.812 150.31 L609.812 152.393 L590.229 152.393 Q590.506 156.791 592.867 159.106 Q595.252 161.398 599.488 161.398 Q601.941 161.398 604.233 160.796 Q606.548 160.194 608.816 158.99 L608.816 163.018 Q606.525 163.99 604.117 164.5 Q601.71 165.009 599.233 165.009 Q593.029 165.009 589.395 161.398 Q585.784 157.787 585.784 151.629 Q585.784 145.264 589.21 141.537 Q592.659 137.787 598.492 137.787 Q603.724 137.787 606.756 141.166 Q609.812 144.523 609.812 150.31 M605.553 149.06 Q605.506 145.565 603.585 143.481 Q601.687 141.398 598.539 141.398 Q594.974 141.398 592.821 143.412 Q590.692 145.426 590.367 149.083 L605.553 149.06 Z" fill="#000000" fill-rule="nonzero" fill-opacity="1" /><path clip-path="url(#clip330)" d="M633.863 142.347 L633.863 128.319 L638.122 128.319 L638.122 164.338 L633.863 164.338 L633.863 160.449 Q632.52 162.763 630.46 163.898 Q628.423 165.009 625.552 165.009 Q620.853 165.009 617.89 161.259 Q614.951 157.509 614.951 151.398 Q614.951 145.287 617.89 141.537 Q620.853 137.787 625.552 137.787 Q628.423 137.787 630.46 138.921 Q632.52 140.032 633.863 142.347 M619.349 151.398 Q619.349 156.097 621.27 158.782 Q623.214 161.444 626.594 161.444 Q629.974 161.444 631.918 158.782 Q633.863 156.097 633.863 151.398 Q633.863 146.699 631.918 144.037 Q629.974 141.352 626.594 141.352 Q623.214 141.352 621.27 144.037 Q619.349 146.699 619.349 151.398 Z" fill="#000000" fill-rule="nonzero" fill-opacity="1" /><polyline clip-path="url(#clip330)" style="stroke:#56b4e9; stroke-linecap:round; stroke-linejoin:round; stroke-width:20; stroke-opacity:1; fill:none" points="245.49,198.898 392.509,198.898 "/>
<path clip-path="url(#clip330)" d="M421.688 185.46 L421.688 198.446 L427.567 198.446 Q430.831 198.446 432.614 196.756 Q434.396 195.067 434.396 191.942 Q434.396 188.84 432.614 187.15 Q430.831 185.46 427.567 185.46 L421.688 185.46 M417.012 181.618 L427.567 181.618 Q433.378 181.618 436.34 184.256 Q439.327 186.872 439.327 191.942 Q439.327 197.057 436.34 199.673 Q433.378 202.289 427.567 202.289 L421.688 202.289 L421.688 216.178 L417.012 216.178 L417.012 181.618 Z" fill="#000000" fill-rule="nonzero" fill-opacity="1" /><path clip-path="url(#clip330)" d="M459.604 194.233 Q458.887 193.817 458.03 193.631 Q457.197 193.423 456.178 193.423 Q452.567 193.423 450.623 195.784 Q448.702 198.122 448.702 202.52 L448.702 216.178 L444.419 216.178 L444.419 190.252 L448.702 190.252 L448.702 194.28 Q450.044 191.918 452.197 190.784 Q454.35 189.627 457.428 189.627 Q457.868 189.627 458.401 189.696 Q458.933 189.743 459.581 189.858 L459.604 194.233 Z" fill="#000000" fill-rule="nonzero" fill-opacity="1" /><path clip-path="url(#clip330)" d="M485.206 202.15 L485.206 204.233 L465.623 204.233 Q465.901 208.631 468.262 210.946 Q470.646 213.238 474.882 213.238 Q477.336 213.238 479.627 212.636 Q481.942 212.034 484.211 210.83 L484.211 214.858 Q481.919 215.83 479.512 216.34 Q477.104 216.849 474.627 216.849 Q468.424 216.849 464.789 213.238 Q461.178 209.627 461.178 203.469 Q461.178 197.104 464.604 193.377 Q468.053 189.627 473.887 189.627 Q479.118 189.627 482.15 193.006 Q485.206 196.363 485.206 202.15 M480.947 200.9 Q480.9 197.405 478.979 195.321 Q477.081 193.238 473.933 193.238 Q470.368 193.238 468.215 195.252 Q466.086 197.266 465.762 200.923 L480.947 200.9 Z" fill="#000000" fill-rule="nonzero" fill-opacity="1" /><path clip-path="url(#clip330)" d="M509.257 194.187 L509.257 180.159 L513.516 180.159 L513.516 216.178 L509.257 216.178 L509.257 212.289 Q507.914 214.603 505.854 215.738 Q503.817 216.849 500.947 216.849 Q496.248 216.849 493.285 213.099 Q490.345 209.349 490.345 203.238 Q490.345 197.127 493.285 193.377 Q496.248 189.627 500.947 189.627 Q503.817 189.627 505.854 190.761 Q507.914 191.872 509.257 194.187 M494.743 203.238 Q494.743 207.937 496.664 210.622 Q498.609 213.284 501.988 213.284 Q505.368 213.284 507.312 210.622 Q509.257 207.937 509.257 203.238 Q509.257 198.539 507.312 195.877 Q505.368 193.192 501.988 193.192 Q498.609 193.192 496.664 195.877 Q494.743 198.539 494.743 203.238 Z" fill="#000000" fill-rule="nonzero" fill-opacity="1" /><path clip-path="url(#clip330)" d="M522.289 190.252 L526.548 190.252 L526.548 216.178 L522.289 216.178 L522.289 190.252 M522.289 180.159 L526.548 180.159 L526.548 185.553 L522.289 185.553 L522.289 180.159 Z" fill="#000000" fill-rule="nonzero" fill-opacity="1" /><path clip-path="url(#clip330)" d="M554.118 191.247 L554.118 195.229 Q552.312 194.233 550.483 193.747 Q548.678 193.238 546.826 193.238 Q542.683 193.238 540.391 195.877 Q538.099 198.492 538.099 203.238 Q538.099 207.983 540.391 210.622 Q542.683 213.238 546.826 213.238 Q548.678 213.238 550.483 212.752 Q552.312 212.242 554.118 211.247 L554.118 215.182 Q552.335 216.016 550.414 216.432 Q548.516 216.849 546.363 216.849 Q540.507 216.849 537.058 213.168 Q533.608 209.488 533.608 203.238 Q533.608 196.895 537.081 193.261 Q540.576 189.627 546.641 189.627 Q548.608 189.627 550.483 190.043 Q552.358 190.437 554.118 191.247 Z" fill="#000000" fill-rule="nonzero" fill-opacity="1" /><path clip-path="url(#clip330)" d="M565.738 182.891 L565.738 190.252 L574.511 190.252 L574.511 193.562 L565.738 193.562 L565.738 207.636 Q565.738 210.807 566.594 211.71 Q567.474 212.613 570.136 212.613 L574.511 212.613 L574.511 216.178 L570.136 216.178 Q565.206 216.178 563.331 214.349 Q561.456 212.497 561.456 207.636 L561.456 193.562 L558.331 193.562 L558.331 190.252 L561.456 190.252 L561.456 182.891 L565.738 182.891 Z" fill="#000000" fill-rule="nonzero" fill-opacity="1" /><path clip-path="url(#clip330)" d="M602.289 202.15 L602.289 204.233 L582.705 204.233 Q582.983 208.631 585.344 210.946 Q587.729 213.238 591.965 213.238 Q594.418 213.238 596.71 212.636 Q599.025 212.034 601.293 210.83 L601.293 214.858 Q599.002 215.83 596.594 216.34 Q594.187 216.849 591.71 216.849 Q585.506 216.849 581.872 213.238 Q578.261 209.627 578.261 203.469 Q578.261 197.104 581.687 193.377 Q585.136 189.627 590.969 189.627 Q596.201 189.627 599.233 193.006 Q602.289 196.363 602.289 202.15 M598.029 200.9 Q597.983 197.405 596.062 195.321 Q594.164 193.238 591.016 193.238 Q587.451 193.238 585.298 195.252 Q583.168 197.266 582.844 200.923 L598.029 200.9 Z" fill="#000000" fill-rule="nonzero" fill-opacity="1" /><path clip-path="url(#clip330)" d="M626.339 194.187 L626.339 180.159 L630.599 180.159 L630.599 216.178 L626.339 216.178 L626.339 212.289 Q624.997 214.603 622.937 215.738 Q620.9 216.849 618.029 216.849 Q613.33 216.849 610.367 213.099 Q607.428 209.349 607.428 203.238 Q607.428 197.127 610.367 193.377 Q613.33 189.627 618.029 189.627 Q620.9 189.627 622.937 190.761 Q624.997 191.872 626.339 194.187 M611.826 203.238 Q611.826 207.937 613.747 210.622 Q615.691 213.284 619.071 213.284 Q622.451 213.284 624.395 210.622 Q626.339 207.937 626.339 203.238 Q626.339 198.539 624.395 195.877 Q622.451 193.192 619.071 193.192 Q615.691 193.192 613.747 195.877 Q611.826 198.539 611.826 203.238 Z" fill="#000000" fill-rule="nonzero" fill-opacity="1" /><polyline clip-path="url(#clip330)" style="stroke:#ff8c00; stroke-linecap:round; stroke-linejoin:round; stroke-width:8; stroke-opacity:1; fill:none" stroke-dasharray="32, 20" points="245.49,250.738 392.509,250.738 "/>
<path clip-path="url(#clip330)" d="M442.567 263.087 L442.567 253.805 L434.928 253.805 L434.928 249.962 L447.197 249.962 L447.197 264.8 Q444.489 266.721 441.225 267.717 Q437.961 268.689 434.257 268.689 Q426.155 268.689 421.572 263.967 Q417.012 259.221 417.012 250.772 Q417.012 242.3 421.572 237.578 Q426.155 232.833 434.257 232.833 Q437.637 232.833 440.669 233.666 Q443.725 234.499 446.294 236.12 L446.294 241.096 Q443.702 238.897 440.785 237.786 Q437.868 236.675 434.651 236.675 Q428.308 236.675 425.114 240.217 Q421.942 243.758 421.942 250.772 Q421.942 257.763 425.114 261.305 Q428.308 264.846 434.651 264.846 Q437.128 264.846 439.072 264.43 Q441.016 263.99 442.567 263.087 Z" fill="#000000" fill-rule="nonzero" fill-opacity="1" /><path clip-path="url(#clip330)" d="M470.576 246.073 Q469.859 245.657 469.002 245.471 Q468.169 245.263 467.151 245.263 Q463.539 245.263 461.595 247.624 Q459.674 249.962 459.674 254.36 L459.674 268.018 L455.391 268.018 L455.391 242.092 L459.674 242.092 L459.674 246.12 Q461.016 243.758 463.169 242.624 Q465.322 241.467 468.401 241.467 Q468.84 241.467 469.373 241.536 Q469.905 241.583 470.553 241.698 L470.576 246.073 Z" fill="#000000" fill-rule="nonzero" fill-opacity="1" /><path clip-path="url(#clip330)" d="M484.049 245.078 Q480.623 245.078 478.632 247.763 Q476.641 250.425 476.641 255.078 Q476.641 259.731 478.609 262.416 Q480.6 265.078 484.049 265.078 Q487.451 265.078 489.442 262.393 Q491.433 259.707 491.433 255.078 Q491.433 250.471 489.442 247.786 Q487.451 245.078 484.049 245.078 M484.049 241.467 Q489.604 241.467 492.775 245.078 Q495.947 248.689 495.947 255.078 Q495.947 261.444 492.775 265.078 Q489.604 268.689 484.049 268.689 Q478.47 268.689 475.299 265.078 Q472.15 261.444 472.15 255.078 Q472.15 248.689 475.299 245.078 Q478.47 241.467 484.049 241.467 Z" fill="#000000" fill-rule="nonzero" fill-opacity="1" /><path clip-path="url(#clip330)" d="M502.567 257.786 L502.567 242.092 L506.826 242.092 L506.826 257.624 Q506.826 261.305 508.261 263.156 Q509.697 264.985 512.567 264.985 Q516.016 264.985 518.007 262.786 Q520.021 260.587 520.021 256.791 L520.021 242.092 L524.28 242.092 L524.28 268.018 L520.021 268.018 L520.021 264.036 Q518.47 266.397 516.41 267.555 Q514.372 268.689 511.664 268.689 Q507.197 268.689 504.882 265.911 Q502.567 263.133 502.567 257.786 M513.285 241.467 L513.285 241.467 Z" fill="#000000" fill-rule="nonzero" fill-opacity="1" /><path clip-path="url(#clip330)" d="M554.604 252.369 L554.604 268.018 L550.345 268.018 L550.345 252.508 Q550.345 248.828 548.909 246.999 Q547.474 245.17 544.604 245.17 Q541.155 245.17 539.164 247.37 Q537.173 249.569 537.173 253.365 L537.173 268.018 L532.891 268.018 L532.891 242.092 L537.173 242.092 L537.173 246.12 Q538.701 243.782 540.761 242.624 Q542.845 241.467 545.553 241.467 Q550.02 241.467 552.312 244.245 Q554.604 246.999 554.604 252.369 Z" fill="#000000" fill-rule="nonzero" fill-opacity="1" /><path clip-path="url(#clip330)" d="M580.159 246.027 L580.159 231.999 L584.418 231.999 L584.418 268.018 L580.159 268.018 L580.159 264.129 Q578.817 266.443 576.756 267.578 Q574.719 268.689 571.849 268.689 Q567.15 268.689 564.187 264.939 Q561.247 261.189 561.247 255.078 Q561.247 248.967 564.187 245.217 Q567.15 241.467 571.849 241.467 Q574.719 241.467 576.756 242.601 Q578.817 243.712 580.159 246.027 M565.645 255.078 Q565.645 259.777 567.567 262.462 Q569.511 265.124 572.891 265.124 Q576.27 265.124 578.215 262.462 Q580.159 259.777 580.159 255.078 Q580.159 250.379 578.215 247.717 Q576.27 245.032 572.891 245.032 Q569.511 245.032 567.567 247.717 Q565.645 250.379 565.645 255.078 Z" fill="#000000" fill-rule="nonzero" fill-opacity="1" /><path clip-path="url(#clip330)" d="M612.474 234.731 L612.474 242.092 L621.247 242.092 L621.247 245.402 L612.474 245.402 L612.474 259.476 Q612.474 262.647 613.33 263.55 Q614.21 264.453 616.872 264.453 L621.247 264.453 L621.247 268.018 L616.872 268.018 Q611.941 268.018 610.066 266.189 Q608.191 264.337 608.191 259.476 L608.191 245.402 L605.066 245.402 L605.066 242.092 L608.191 242.092 L608.191 234.731 L612.474 234.731 Z" fill="#000000" fill-rule="nonzero" fill-opacity="1" /><path clip-path="url(#clip330)" d="M641.872 246.073 Q641.154 245.657 640.298 245.471 Q639.464 245.263 638.446 245.263 Q634.835 245.263 632.89 247.624 Q630.969 249.962 630.969 254.36 L630.969 268.018 L626.687 268.018 L626.687 242.092 L630.969 242.092 L630.969 246.12 Q632.312 243.758 634.464 242.624 Q636.617 241.467 639.696 241.467 Q640.136 241.467 640.668 241.536 Q641.201 241.583 641.849 241.698 L641.872 246.073 Z" fill="#000000" fill-rule="nonzero" fill-opacity="1" /><path clip-path="url(#clip330)" d="M645.9 257.786 L645.9 242.092 L650.159 242.092 L650.159 257.624 Q650.159 261.305 651.594 263.156 Q653.029 264.985 655.899 264.985 Q659.349 264.985 661.339 262.786 Q663.353 260.587 663.353 256.791 L663.353 242.092 L667.612 242.092 L667.612 268.018 L663.353 268.018 L663.353 264.036 Q661.802 266.397 659.742 267.555 Q657.705 268.689 654.997 268.689 Q650.529 268.689 648.214 265.911 Q645.9 263.133 645.9 257.786 M656.617 241.467 L656.617 241.467 Z" fill="#000000" fill-rule="nonzero" fill-opacity="1" /><path clip-path="url(#clip330)" d="M680.598 234.731 L680.598 242.092 L689.372 242.092 L689.372 245.402 L680.598 245.402 L680.598 259.476 Q680.598 262.647 681.455 263.55 Q682.335 264.453 684.997 264.453 L689.372 264.453 L689.372 268.018 L684.997 268.018 Q680.066 268.018 678.191 266.189 Q676.316 264.337 676.316 259.476 L676.316 245.402 L673.191 245.402 L673.191 242.092 L676.316 242.092 L676.316 234.731 L680.598 234.731 Z" fill="#000000" fill-rule="nonzero" fill-opacity="1" /><path clip-path="url(#clip330)" d="M716.524 252.369 L716.524 268.018 L712.265 268.018 L712.265 252.508 Q712.265 248.828 710.83 246.999 Q709.395 245.17 706.524 245.17 Q703.075 245.17 701.084 247.37 Q699.094 249.569 699.094 253.365 L699.094 268.018 L694.811 268.018 L694.811 231.999 L699.094 231.999 L699.094 246.12 Q700.621 243.782 702.682 242.624 Q704.765 241.467 707.473 241.467 Q711.941 241.467 714.233 244.245 Q716.524 246.999 716.524 252.369 Z" fill="#000000" fill-rule="nonzero" fill-opacity="1" /></svg>
