<?xml version="1.0" encoding="utf-8"?>
<svg xmlns="http://www.w3.org/2000/svg" xmlns:xlink="http://www.w3.org/1999/xlink" width="900" height="300" viewBox="0 0 3600 1200">
<defs>
  <clipPath id="clip240">
    <rect x="0" y="0" width="3600" height="1200"/>
  </clipPath>
</defs>
<path clip-path="url(#clip240)" d="M0 1200 L3600 1200 L3600 0 L0 0  Z" fill="#ffffff" fill-rule="evenodd" fill-opacity="1"/>
<defs>
  <clipPath id="clip241">
    <rect x="720" y="0" width="2521" height="1200"/>
  </clipPath>
</defs>
<path clip-path="url(#clip240)" d="M153.853 1107.73 L1133.61 1107.73 L1133.61 93.2321 L153.853 93.2321  Z" fill="#ffffff" fill-rule="evenodd" fill-opacity="1"/>
<defs>
  <clipPath id="clip242">
    <rect x="153" y="93" width="981" height="1015"/>
  </clipPath>
</defs>
<polyline clip-path="url(#clip242)" style="stroke:#000000; stroke-linecap:round; stroke-linejoin:round; stroke-width:2; stroke-opacity:0.1; fill:none" points="258.319,1107.73 258.319,93.2321 "/>
<polyline clip-path="url(#clip242)" style="stroke:#000000; stroke-linecap:round; stroke-linejoin:round; stroke-width:2; stroke-opacity:0.1; fill:none" points="479.707,1107.73 479.707,93.2321 "/>
<polyline clip-path="url(#clip242)" style="stroke:#000000; stroke-linecap:round; stroke-linejoin:round; stroke-width:2; stroke-opacity:0.1; fill:none" points="701.094,1107.73 701.094,93.2321 "/>
<polyline clip-path="url(#clip242)" style="stroke:#000000; stroke-linecap:round; stroke-linejoin:round; stroke-width:2; stroke-opacity:0.1; fill:none" points="922.482,1107.73 922.482,93.2321 "/>
<polyline clip-path="url(#clip240)" style="stroke:#000000; stroke-linecap:round; stroke-linejoin:round; stroke-width:4; stroke-opacity:1; fill:none" points="153.853,1107.73 1133.61,1107.73 "/>
<polyline clip-path="url(#clip240)" style="stroke:#000000; stroke-linecap:round; stroke-linejoin:round; stroke-width:4; stroke-opacity:1; fill:none" points="258.319,1107.73 258.319,1088.83 "/>
<polyline clip-path="url(#clip240)" style="stroke:#000000; stroke-linecap:round; stroke-linejoin:round; stroke-width:4; stroke-opacity:1; fill:none" points="479.707,1107.73 479.707,1088.83 "/>
<polyline clip-path="url(#clip240)" style="stroke:#000000; stroke-linecap:round; stroke-linejoin:round; stroke-width:4; stroke-opacity:1; fill:none" points="701.094,1107.73 701.094,1088.83 "/>
<polyline clip-path="url(#clip240)" style="stroke:#000000; stroke-linecap:round; stroke-linejoin:round; stroke-width:4; stroke-opacity:1; fill:none" points="922.482,1107.73 922.482,1088.83 "/>
<path clip-path="url(#clip240)" d="M220.623 1148.25 Q217.011 1148.25 215.183 1151.81 Q213.377 1155.35 213.377 1162.48 Q213.377 1169.59 215.183 1173.15 Q217.011 1176.7 220.623 1176.7 Q224.257 1176.7 226.062 1173.15 Q227.891 1169.59 227.891 1162.48 Q227.891 1155.35 226.062 1151.81 Q224.257 1148.25 220.623 1148.25 M220.623 1144.54 Q226.433 1144.54 229.488 1149.15 Q232.567 1153.73 232.567 1162.48 Q232.567 1171.21 229.488 1175.82 Q226.433 1180.4 220.623 1180.4 Q214.812 1180.4 211.734 1175.82 Q208.678 1171.21 208.678 1162.48 Q208.678 1153.73 211.734 1149.15 Q214.812 1144.54 220.623 1144.54 Z" fill="#000000" fill-rule="nonzero" fill-opacity="1" /><path clip-path="url(#clip240)" d="M240.784 1173.85 L245.669 1173.85 L245.669 1179.73 L240.784 1179.73 L240.784 1173.85 Z" fill="#000000" fill-rule="nonzero" fill-opacity="1" /><path clip-path="url(#clip240)" d="M265.854 1148.25 Q262.243 1148.25 260.414 1151.81 Q258.608 1155.35 258.608 1162.48 Q258.608 1169.59 260.414 1173.15 Q262.243 1176.7 265.854 1176.7 Q269.488 1176.7 271.294 1173.15 Q273.122 1169.59 273.122 1162.48 Q273.122 1155.35 271.294 1151.81 Q269.488 1148.25 265.854 1148.25 M265.854 1144.54 Q271.664 1144.54 274.719 1149.15 Q277.798 1153.73 277.798 1162.48 Q277.798 1171.21 274.719 1175.82 Q271.664 1180.4 265.854 1180.4 Q260.044 1180.4 256.965 1175.82 Q253.909 1171.21 253.909 1162.48 Q253.909 1153.73 256.965 1149.15 Q260.044 1144.54 265.854 1144.54 Z" fill="#000000" fill-rule="nonzero" fill-opacity="1" /><path clip-path="url(#clip240)" d="M296.016 1148.25 Q292.405 1148.25 290.576 1151.81 Q288.77 1155.35 288.77 1162.48 Q288.77 1169.59 290.576 1173.15 Q292.405 1176.7 296.016 1176.7 Q299.65 1176.7 301.455 1173.15 Q303.284 1169.59 303.284 1162.48 Q303.284 1155.35 301.455 1151.81 Q299.65 1148.25 296.016 1148.25 M296.016 1144.54 Q301.826 1144.54 304.881 1149.15 Q307.96 1153.73 307.96 1162.48 Q307.96 1171.21 304.881 1175.82 Q301.826 1180.4 296.016 1180.4 Q290.206 1180.4 287.127 1175.82 Q284.071 1171.21 284.071 1162.48 Q284.071 1153.73 287.127 1149.15 Q290.206 1144.54 296.016 1144.54 Z" fill="#000000" fill-rule="nonzero" fill-opacity="1" /><path clip-path="url(#clip240)" d="M442.809 1148.25 Q439.198 1148.25 437.369 1151.81 Q435.563 1155.35 435.563 1162.48 Q435.563 1169.59 437.369 1173.15 Q439.198 1176.7 442.809 1176.7 Q446.443 1176.7 448.249 1173.15 Q450.077 1169.59 450.077 1162.48 Q450.077 1155.35 448.249 1151.81 Q446.443 1148.25 442.809 1148.25 M442.809 1144.54 Q448.619 1144.54 451.674 1149.15 Q454.753 1153.73 454.753 1162.48 Q454.753 1171.21 451.674 1175.82 Q448.619 1180.4 442.809 1180.4 Q436.999 1180.4 433.92 1175.82 Q430.864 1171.21 430.864 1162.48 Q430.864 1153.73 433.92 1149.15 Q436.999 1144.54 442.809 1144.54 Z" fill="#000000" fill-rule="nonzero" fill-opacity="1" /><path clip-path="url(#clip240)" d="M462.971 1173.85 L467.855 1173.85 L467.855 1179.73 L462.971 1179.73 L462.971 1173.85 Z" fill="#000000" fill-rule="nonzero" fill-opacity="1" /><path clip-path="url(#clip240)" d="M488.04 1148.25 Q484.429 1148.25 482.6 1151.81 Q480.795 1155.35 480.795 1162.48 Q480.795 1169.59 482.6 1173.15 Q484.429 1176.7 488.04 1176.7 Q491.674 1176.7 493.48 1173.15 Q495.308 1169.59 495.308 1162.48 Q495.308 1155.35 493.48 1151.81 Q491.674 1148.25 488.04 1148.25 M488.04 1144.54 Q493.85 1144.54 496.906 1149.15 Q499.984 1153.73 499.984 1162.48 Q499.984 1171.21 496.906 1175.82 Q493.85 1180.4 488.04 1180.4 Q482.23 1180.4 479.151 1175.82 Q476.096 1171.21 476.096 1162.48 Q476.096 1153.73 479.151 1149.15 Q482.23 1144.54 488.04 1144.54 Z" fill="#000000" fill-rule="nonzero" fill-opacity="1" /><path clip-path="url(#clip240)" d="M512.23 1175.79 L528.549 1175.79 L528.549 1179.73 L506.605 1179.73 L506.605 1175.79 Q509.267 1173.04 513.85 1168.41 Q518.456 1163.76 519.637 1162.41 Q521.882 1159.89 522.762 1158.15 Q523.665 1156.39 523.665 1154.7 Q523.665 1151.95 521.72 1150.21 Q519.799 1148.48 516.697 1148.48 Q514.498 1148.48 512.044 1149.24 Q509.614 1150.01 506.836 1151.56 L506.836 1146.83 Q509.66 1145.7 512.114 1145.12 Q514.568 1144.54 516.605 1144.54 Q521.975 1144.54 525.169 1147.23 Q528.364 1149.91 528.364 1154.4 Q528.364 1156.53 527.554 1158.45 Q526.767 1160.35 524.66 1162.95 Q524.081 1163.62 520.98 1166.83 Q517.878 1170.03 512.23 1175.79 Z" fill="#000000" fill-rule="nonzero" fill-opacity="1" /><path clip-path="url(#clip240)" d="M663.155 1148.25 Q659.544 1148.25 657.715 1151.81 Q655.909 1155.35 655.909 1162.48 Q655.909 1169.59 657.715 1173.15 Q659.544 1176.7 663.155 1176.7 Q666.789 1176.7 668.594 1173.15 Q670.423 1169.59 670.423 1162.48 Q670.423 1155.35 668.594 1151.81 Q666.789 1148.25 663.155 1148.25 M663.155 1144.54 Q668.965 1144.54 672.02 1149.15 Q675.099 1153.73 675.099 1162.48 Q675.099 1171.21 672.02 1175.82 Q668.965 1180.4 663.155 1180.4 Q657.344 1180.4 654.266 1175.82 Q651.21 1171.21 651.21 1162.48 Q651.21 1153.73 654.266 1149.15 Q657.344 1144.54 663.155 1144.54 Z" fill="#000000" fill-rule="nonzero" fill-opacity="1" /><path clip-path="url(#clip240)" d="M683.317 1173.85 L688.201 1173.85 L688.201 1179.73 L683.317 1179.73 L683.317 1173.85 Z" fill="#000000" fill-rule="nonzero" fill-opacity="1" /><path clip-path="url(#clip240)" d="M708.386 1148.25 Q704.775 1148.25 702.946 1151.81 Q701.141 1155.35 701.141 1162.48 Q701.141 1169.59 702.946 1173.15 Q704.775 1176.7 708.386 1176.7 Q712.02 1176.7 713.826 1173.15 Q715.654 1169.59 715.654 1162.48 Q715.654 1155.35 713.826 1151.81 Q712.02 1148.25 708.386 1148.25 M708.386 1144.54 Q714.196 1144.54 717.252 1149.15 Q720.33 1153.73 720.33 1162.48 Q720.33 1171.21 717.252 1175.82 Q714.196 1180.4 708.386 1180.4 Q702.576 1180.4 699.497 1175.82 Q696.442 1171.21 696.442 1162.48 Q696.442 1153.73 699.497 1149.15 Q702.576 1144.54 708.386 1144.54 Z" fill="#000000" fill-rule="nonzero" fill-opacity="1" /><path clip-path="url(#clip240)" d="M741.395 1149.24 L729.589 1167.69 L741.395 1167.69 L741.395 1149.24 M740.168 1145.17 L746.048 1145.17 L746.048 1167.69 L750.978 1167.69 L750.978 1171.58 L746.048 1171.58 L746.048 1179.73 L741.395 1179.73 L741.395 1171.58 L725.793 1171.58 L725.793 1167.07 L740.168 1145.17 Z" fill="#000000" fill-rule="nonzero" fill-opacity="1" /><path clip-path="url(#clip240)" d="M884.704 1148.25 Q881.093 1148.25 879.264 1151.81 Q877.459 1155.35 877.459 1162.48 Q877.459 1169.59 879.264 1173.15 Q881.093 1176.7 884.704 1176.7 Q888.338 1176.7 890.144 1173.15 Q891.973 1169.59 891.973 1162.48 Q891.973 1155.35 890.144 1151.81 Q888.338 1148.25 884.704 1148.25 M884.704 1144.54 Q890.514 1144.54 893.57 1149.15 Q896.649 1153.73 896.649 1162.48 Q896.649 1171.21 893.57 1175.82 Q890.514 1180.4 884.704 1180.4 Q878.894 1180.4 875.815 1175.82 Q872.76 1171.21 872.76 1162.48 Q872.76 1153.73 875.815 1149.15 Q878.894 1144.54 884.704 1144.54 Z" fill="#000000" fill-rule="nonzero" fill-opacity="1" /><path clip-path="url(#clip240)" d="M904.866 1173.85 L909.75 1173.85 L909.75 1179.73 L904.866 1179.73 L904.866 1173.85 Z" fill="#000000" fill-rule="nonzero" fill-opacity="1" /><path clip-path="url(#clip240)" d="M929.935 1148.25 Q926.324 1148.25 924.496 1151.81 Q922.69 1155.35 922.69 1162.48 Q922.69 1169.59 924.496 1173.15 Q926.324 1176.7 929.935 1176.7 Q933.57 1176.7 935.375 1173.15 Q937.204 1169.59 937.204 1162.48 Q937.204 1155.35 935.375 1151.81 Q933.57 1148.25 929.935 1148.25 M929.935 1144.54 Q935.746 1144.54 938.801 1149.15 Q941.88 1153.73 941.88 1162.48 Q941.88 1171.21 938.801 1175.82 Q935.746 1180.4 929.935 1180.4 Q924.125 1180.4 921.047 1175.82 Q917.991 1171.21 917.991 1162.48 Q917.991 1153.73 921.047 1149.15 Q924.125 1144.54 929.935 1144.54 Z" fill="#000000" fill-rule="nonzero" fill-opacity="1" /><path clip-path="url(#clip240)" d="M960.676 1160.58 Q957.528 1160.58 955.676 1162.74 Q953.847 1164.89 953.847 1168.64 Q953.847 1172.37 955.676 1174.54 Q957.528 1176.7 960.676 1176.7 Q963.824 1176.7 965.653 1174.54 Q967.505 1172.37 967.505 1168.64 Q967.505 1164.89 965.653 1162.74 Q963.824 1160.58 960.676 1160.58 M969.958 1145.93 L969.958 1150.19 Q968.199 1149.36 966.394 1148.92 Q964.611 1148.48 962.852 1148.48 Q958.222 1148.48 955.769 1151.6 Q953.338 1154.73 952.991 1161.05 Q954.357 1159.03 956.417 1157.97 Q958.477 1156.88 960.954 1156.88 Q966.162 1156.88 969.171 1160.05 Q972.204 1163.2 972.204 1168.64 Q972.204 1173.96 969.056 1177.18 Q965.908 1180.4 960.676 1180.4 Q954.681 1180.4 951.509 1175.82 Q948.338 1171.21 948.338 1162.48 Q948.338 1154.29 952.227 1149.43 Q956.116 1144.54 962.667 1144.54 Q964.426 1144.54 966.208 1144.89 Q968.014 1145.24 969.958 1145.93 Z" fill="#000000" fill-rule="nonzero" fill-opacity="1" /><polyline clip-path="url(#clip242)" style="stroke:#000000; stroke-linecap:round; stroke-linejoin:round; stroke-width:2; stroke-opacity:0.1; fill:none" points="153.853,1079.02 1133.61,1079.02 "/>
<polyline clip-path="url(#clip242)" style="stroke:#000000; stroke-linecap:round; stroke-linejoin:round; stroke-width:2; stroke-opacity:0.1; fill:none" points="153.853,827.449 1133.61,827.449 "/>
<polyline clip-path="url(#clip242)" style="stroke:#000000; stroke-linecap:round; stroke-linejoin:round; stroke-width:2; stroke-opacity:0.1; fill:none" points="153.853,575.877 1133.61,575.877 "/>
<polyline clip-path="url(#clip242)" style="stroke:#000000; stroke-linecap:round; stroke-linejoin:round; stroke-width:2; stroke-opacity:0.1; fill:none" points="153.853,324.306 1133.61,324.306 "/>
<polyline clip-path="url(#clip240)" style="stroke:#000000; stroke-linecap:round; stroke-linejoin:round; stroke-width:4; stroke-opacity:1; fill:none" points="153.853,1107.73 153.853,93.2321 "/>
<polyline clip-path="url(#clip240)" style="stroke:#000000; stroke-linecap:round; stroke-linejoin:round; stroke-width:4; stroke-opacity:1; fill:none" points="153.853,1079.02 172.751,1079.02 "/>
<polyline clip-path="url(#clip240)" style="stroke:#000000; stroke-linecap:round; stroke-linejoin:round; stroke-width:4; stroke-opacity:1; fill:none" points="153.853,827.449 172.751,827.449 "/>
<polyline clip-path="url(#clip240)" style="stroke:#000000; stroke-linecap:round; stroke-linejoin:round; stroke-width:4; stroke-opacity:1; fill:none" points="153.853,575.877 172.751,575.877 "/>
<polyline clip-path="url(#clip240)" style="stroke:#000000; stroke-linecap:round; stroke-linejoin:round; stroke-width:4; stroke-opacity:1; fill:none" points="153.853,324.306 172.751,324.306 "/>
<path clip-path="url(#clip240)" d="M87.9086 1064.82 Q84.2975 1064.82 82.4688 1068.38 Q80.6632 1071.93 80.6632 1079.05 Q80.6632 1086.16 82.4688 1089.73 Q84.2975 1093.27 87.9086 1093.27 Q91.5428 1093.27 93.3483 1089.73 Q95.177 1086.16 95.177 1079.05 Q95.177 1071.93 93.3483 1068.38 Q91.5428 1064.82 87.9086 1064.82 M87.9086 1061.11 Q93.7187 1061.11 96.7743 1065.72 Q99.8529 1070.3 99.8529 1079.05 Q99.8529 1087.78 96.7743 1092.39 Q93.7187 1096.97 87.9086 1096.97 Q82.0984 1096.97 79.0197 1092.39 Q75.9642 1087.78 75.9642 1079.05 Q75.9642 1070.3 79.0197 1065.72 Q82.0984 1061.11 87.9086 1061.11 Z" fill="#000000" fill-rule="nonzero" fill-opacity="1" /><path clip-path="url(#clip240)" d="M51.7745 840.793 L68.0939 840.793 L68.0939 844.729 L46.1495 844.729 L46.1495 840.793 Q48.8115 838.039 53.3949 833.409 Q58.0013 828.756 59.1819 827.414 Q61.4272 824.891 62.3068 823.155 Q63.2096 821.395 63.2096 819.706 Q63.2096 816.951 61.2652 815.215 Q59.3439 813.479 56.2421 813.479 Q54.043 813.479 51.5893 814.243 Q49.1588 815.006 46.381 816.557 L46.381 811.835 Q49.2051 810.701 51.6588 810.122 Q54.1124 809.544 56.1495 809.544 Q61.5198 809.544 64.7142 812.229 Q67.9087 814.914 67.9087 819.405 Q67.9087 821.534 67.0985 823.456 Q66.3115 825.354 64.205 827.946 Q63.6263 828.618 60.5245 831.835 Q57.4226 835.03 51.7745 840.793 Z" fill="#000000" fill-rule="nonzero" fill-opacity="1" /><path clip-path="url(#clip240)" d="M87.9086 813.247 Q84.2975 813.247 82.4688 816.812 Q80.6632 820.354 80.6632 827.483 Q80.6632 834.59 82.4688 838.155 Q84.2975 841.696 87.9086 841.696 Q91.5428 841.696 93.3483 838.155 Q95.177 834.59 95.177 827.483 Q95.177 820.354 93.3483 816.812 Q91.5428 813.247 87.9086 813.247 M87.9086 809.544 Q93.7187 809.544 96.7743 814.15 Q99.8529 818.733 99.8529 827.483 Q99.8529 836.21 96.7743 840.817 Q93.7187 845.4 87.9086 845.4 Q82.0984 845.4 79.0197 840.817 Q75.9642 836.21 75.9642 827.483 Q75.9642 818.733 79.0197 814.15 Q82.0984 809.544 87.9086 809.544 Z" fill="#000000" fill-rule="nonzero" fill-opacity="1" /><path clip-path="url(#clip240)" d="M60.5939 562.671 L48.7884 581.12 L60.5939 581.12 L60.5939 562.671 M59.367 558.597 L65.2466 558.597 L65.2466 581.12 L70.1772 581.12 L70.1772 585.009 L65.2466 585.009 L65.2466 593.157 L60.5939 593.157 L60.5939 585.009 L44.9921 585.009 L44.9921 580.495 L59.367 558.597 Z" fill="#000000" fill-rule="nonzero" fill-opacity="1" /><path clip-path="url(#clip240)" d="M87.9086 561.676 Q84.2975 561.676 82.4688 565.241 Q80.6632 568.782 80.6632 575.912 Q80.6632 583.018 82.4688 586.583 Q84.2975 590.125 87.9086 590.125 Q91.5428 590.125 93.3483 586.583 Q95.177 583.018 95.177 575.912 Q95.177 568.782 93.3483 565.241 Q91.5428 561.676 87.9086 561.676 M87.9086 557.972 Q93.7187 557.972 96.7743 562.579 Q99.8529 567.162 99.8529 575.912 Q99.8529 584.639 96.7743 589.245 Q93.7187 593.828 87.9086 593.828 Q82.0984 593.828 79.0197 589.245 Q75.9642 584.639 75.9642 575.912 Q75.9642 567.162 79.0197 562.579 Q82.0984 557.972 87.9086 557.972 Z" fill="#000000" fill-rule="nonzero" fill-opacity="1" /><path clip-path="url(#clip240)" d="M58.3254 322.442 Q55.1773 322.442 53.3254 324.595 Q51.4967 326.748 51.4967 330.498 Q51.4967 334.225 53.3254 336.401 Q55.1773 338.553 58.3254 338.553 Q61.4735 338.553 63.3022 336.401 Q65.1541 334.225 65.1541 330.498 Q65.1541 326.748 63.3022 324.595 Q61.4735 322.442 58.3254 322.442 M67.6077 307.79 L67.6077 312.049 Q65.8485 311.215 64.0429 310.776 Q62.2606 310.336 60.5013 310.336 Q55.8717 310.336 53.418 313.461 Q50.9875 316.586 50.6402 322.905 Q52.006 320.891 54.0662 319.827 Q56.1263 318.739 58.6032 318.739 Q63.8115 318.739 66.8207 321.91 Q69.8531 325.058 69.8531 330.498 Q69.8531 335.822 66.705 339.039 Q63.5568 342.257 58.3254 342.257 Q52.33 342.257 49.1588 337.674 Q45.9875 333.067 45.9875 324.34 Q45.9875 316.146 49.8764 311.285 Q53.7652 306.401 60.3161 306.401 Q62.0754 306.401 63.8578 306.748 Q65.6633 307.095 67.6077 307.79 Z" fill="#000000" fill-rule="nonzero" fill-opacity="1" /><path clip-path="url(#clip240)" d="M87.9086 310.104 Q84.2975 310.104 82.4688 313.669 Q80.6632 317.211 80.6632 324.34 Q80.6632 331.447 82.4688 335.012 Q84.2975 338.553 87.9086 338.553 Q91.5428 338.553 93.3483 335.012 Q95.177 331.447 95.177 324.34 Q95.177 317.211 93.3483 313.669 Q91.5428 310.104 87.9086 310.104 M87.9086 306.401 Q93.7187 306.401 96.7743 311.007 Q99.8529 315.59 99.8529 324.34 Q99.8529 333.067 96.7743 337.674 Q93.7187 342.257 87.9086 342.257 Q82.0984 342.257 79.0197 337.674 Q75.9642 333.067 75.9642 324.34 Q75.9642 315.59 79.0197 311.007 Q82.0984 306.401 87.9086 306.401 Z" fill="#000000" fill-rule="nonzero" fill-opacity="1" /><path clip-path="url(#clip240)" d="M448.337 45.1919 L448.337 72.576 L440.884 72.576 L440.884 45.4349 Q440.884 38.994 438.372 35.7938 Q435.861 32.5936 430.837 32.5936 Q424.802 32.5936 421.318 36.4419 Q417.834 40.2903 417.834 46.9338 L417.834 72.576 L410.34 72.576 L410.34 27.2059 L417.834 27.2059 L417.834 34.2544 Q420.508 30.163 424.113 28.1376 Q427.759 26.1121 432.498 26.1121 Q440.317 26.1121 444.327 30.9732 Q448.337 35.7938 448.337 45.1919 Z" fill="#000000" fill-rule="nonzero" fill-opacity="1" /><path clip-path="url(#clip240)" d="M480.785 32.4315 Q474.79 32.4315 471.306 37.1306 Q467.822 41.7891 467.822 49.9314 Q467.822 58.0738 471.265 62.7728 Q474.749 67.4314 480.785 67.4314 Q486.74 67.4314 490.224 62.7323 Q493.707 58.0333 493.707 49.9314 Q493.707 41.8701 490.224 37.1711 Q486.74 32.4315 480.785 32.4315 M480.785 26.1121 Q490.507 26.1121 496.057 32.4315 Q501.607 38.7509 501.607 49.9314 Q501.607 61.0714 496.057 67.4314 Q490.507 73.7508 480.785 73.7508 Q471.022 73.7508 465.473 67.4314 Q459.963 61.0714 459.963 49.9314 Q459.963 38.7509 465.473 32.4315 Q471.022 26.1121 480.785 26.1121 Z" fill="#000000" fill-rule="nonzero" fill-opacity="1" /><path clip-path="url(#clip240)" d="M546.531 49.9314 Q546.531 41.7081 543.129 37.0496 Q539.766 32.3505 533.852 32.3505 Q527.938 32.3505 524.535 37.0496 Q521.173 41.7081 521.173 49.9314 Q521.173 58.1548 524.535 62.8538 Q527.938 67.5124 533.852 67.5124 Q539.766 67.5124 543.129 62.8538 Q546.531 58.1548 546.531 49.9314 M521.173 34.0924 Q523.522 30.0415 527.087 28.0971 Q530.692 26.1121 535.675 26.1121 Q543.939 26.1121 549.083 32.6746 Q554.268 39.2371 554.268 49.9314 Q554.268 60.6258 549.083 67.1883 Q543.939 73.7508 535.675 73.7508 Q530.692 73.7508 527.087 71.8063 Q523.522 69.8214 521.173 65.7705 L521.173 72.576 L513.678 72.576 L513.678 9.54393 L521.173 9.54393 L521.173 34.0924 Z" fill="#000000" fill-rule="nonzero" fill-opacity="1" /><path clip-path="url(#clip240)" d="M595.547 28.5427 L595.547 35.5912 Q592.388 33.9709 588.985 33.1607 Q585.582 32.3505 581.936 32.3505 Q576.386 32.3505 573.591 34.0519 Q570.837 35.7533 570.837 39.156 Q570.837 41.7486 572.822 43.2475 Q574.807 44.7058 580.802 46.0426 L583.354 46.6097 Q591.294 48.3111 594.616 51.4303 Q597.978 54.509 597.978 60.0587 Q597.978 66.3781 592.955 70.0644 Q587.972 73.7508 579.222 73.7508 Q575.576 73.7508 571.606 73.0216 Q567.677 72.3329 563.302 70.9151 L563.302 63.2184 Q567.434 65.3654 571.444 66.4591 Q575.455 67.5124 579.384 67.5124 Q584.65 67.5124 587.486 65.73 Q590.322 63.9071 590.322 60.6258 Q590.322 57.5877 588.256 55.9673 Q586.23 54.3469 579.303 52.8481 L576.711 52.2405 Q569.783 50.7821 566.705 47.7845 Q563.626 44.7463 563.626 39.4801 Q563.626 33.0797 568.163 29.5959 Q572.7 26.1121 581.045 26.1121 Q585.177 26.1121 588.823 26.7198 Q592.469 27.3274 595.547 28.5427 Z" fill="#000000" fill-rule="nonzero" fill-opacity="1" /><path clip-path="url(#clip240)" d="M637.191 34.9026 L689.123 34.9026 L689.123 41.7081 L637.191 41.7081 L637.191 34.9026 M637.191 51.4303 L689.123 51.4303 L689.123 58.3168 L637.191 58.3168 L637.191 51.4303 Z" fill="#000000" fill-rule="nonzero" fill-opacity="1" /><path clip-path="url(#clip240)" d="M734.574 65.6895 L747.942 65.6895 L747.942 19.5497 L733.399 22.4663 L733.399 15.0127 L747.861 12.096 L756.044 12.096 L756.044 65.6895 L769.412 65.6895 L769.412 72.576 L734.574 72.576 L734.574 65.6895 Z" fill="#000000" fill-rule="nonzero" fill-opacity="1" /><path clip-path="url(#clip240)" d="M803.44 17.4837 Q797.12 17.4837 793.92 23.7221 Q790.76 29.92 790.76 42.3968 Q790.76 54.833 793.92 61.0714 Q797.12 67.2693 803.44 67.2693 Q809.8 67.2693 812.959 61.0714 Q816.159 54.833 816.159 42.3968 Q816.159 29.92 812.959 23.7221 Q809.8 17.4837 803.44 17.4837 M803.44 11.0023 Q813.607 11.0023 818.955 19.0636 Q824.342 27.0843 824.342 42.3968 Q824.342 57.6687 818.955 65.73 Q813.607 73.7508 803.44 73.7508 Q793.272 73.7508 787.884 65.73 Q782.537 57.6687 782.537 42.3968 Q782.537 27.0843 787.884 19.0636 Q793.272 11.0023 803.44 11.0023 Z" fill="#000000" fill-rule="nonzero" fill-opacity="1" /><path clip-path="url(#clip240)" d="M856.223 17.4837 Q849.903 17.4837 846.703 23.7221 Q843.544 29.92 843.544 42.3968 Q843.544 54.833 846.703 61.0714 Q849.903 67.2693 856.223 67.2693 Q862.583 67.2693 865.743 61.0714 Q868.943 54.833 868.943 42.3968 Q868.943 29.92 865.743 23.7221 Q862.583 17.4837 856.223 17.4837 M856.223 11.0023 Q866.391 11.0023 871.738 19.0636 Q877.126 27.0843 877.126 42.3968 Q877.126 57.6687 871.738 65.73 Q866.391 73.7508 856.223 73.7508 Q846.055 73.7508 840.667 65.73 Q835.32 57.6687 835.32 42.3968 Q835.32 27.0843 840.667 19.0636 Q846.055 11.0023 856.223 11.0023 Z" fill="#000000" fill-rule="nonzero" fill-opacity="1" /><polyline clip-path="url(#clip242)" style="stroke:#e69f00; stroke-linecap:round; stroke-linejoin:round; stroke-width:4; stroke-opacity:1; fill:none" points="181.582,1079.01 186.227,1078.98 190.871,1078.92 195.516,1078.77 200.161,1078.43 204.806,1077.71 209.45,1076.26 214.095,1073.47 218.74,1068.4 223.385,1059.68 228.029,1045.45 232.674,1023.45 237.319,991.234 241.963,946.513 246.608,887.706 251.253,814.466 255.898,728.13 260.542,631.898 265.187,530.658 269.832,430.419 274.477,337.478 279.121,257.487 283.766,194.653 288.411,151.249 293.056,127.515 297.7,121.944 302.345,131.829 306.99,153.893 311.634,184.852 316.279,221.795 320.924,262.336 325.569,304.592 330.213,347.073 334.858,388.565 339.503,428.08 344.148,464.863 348.792,498.421 353.437,528.532 358.082,555.214 362.726,578.654 367.371,599.139 372.016,617.03 376.661,632.762 381.305,646.868 385.95,659.976 390.595,672.756 395.24,685.821 399.884,699.611 404.529,714.304 409.174,729.786 413.819,745.69 418.463,761.491 423.108,776.617 427.753,790.557 432.397,802.938 437.042,813.577 441.687,822.496 446.332,829.934 450.976,836.324 455.621,842.255 460.266,848.398 464.911,855.395 469.555,863.732 474.2,873.628 478.845,884.962 483.489,897.287 488.134,909.919 492.779,922.094 497.424,933.143 502.068,942.629 506.713,950.421 511.358,956.675 516.003,961.755 520.647,966.109 525.292,970.155 529.937,974.206 534.582,978.433 539.226,982.878 543.871,987.478 548.516,992.087 553.16,996.508 557.805,1000.52 562.45,1003.9 567.095,1006.49 571.739,1008.26 576.384,1009.32 581.029,1009.92 585.674,1010.44 590.318,1011.29 594.963,1012.83 599.608,1015.26 604.253,1018.6 608.897,1022.66 613.542,1027.05 618.187,1031.3 622.831,1034.91 627.476,1037.5 632.121,1038.88 636.766,1039.09 641.41,1038.42 646.055,1037.3 650.7,1036.27 655.345,1035.82 659.989,1036.32 664.634,1037.93 669.279,1040.62 673.923,1044.15 678.568,1048.18 683.213,1052.31 687.858,1056.19 692.502,1059.51 697.147,1062.12 701.792,1063.96 706.437,1065.11 711.081,1065.71 715.726,1065.96 720.371,1066.06 725.016,1066.19 729.66,1066.48 734.305,1067.02 738.95,1067.78 743.594,1068.72 748.239,1069.69 752.884,1070.58 757.529,1071.24 762.173,1071.6 766.818,1071.63 771.463,1071.38 776.108,1070.96 780.752,1070.47 785.397,1070.06 790.042,1069.82 794.686,1069.8 799.331,1070 803.976,1070.39 808.621,1070.9 813.265,1071.46 817.91,1071.97 822.555,1072.38 827.2,1072.62 831.844,1072.68 836.489,1072.56 841.134,1072.31 845.779,1072.02 850.423,1071.77 855.068,1071.63 859.713,1071.67 864.357,1071.9 869.002,1072.31 873.647,1072.87 878.292,1073.54 882.936,1074.27 887.581,1075.03 892.226,1075.77 896.871,1076.46 901.515,1077.09 906.16,1077.62 910.805,1078.05 915.449,1078.38 920.094,1078.62 924.739,1078.78 929.384,1078.88 934.028,1078.95 938.673,1078.98 943.318,1079 947.963,1079.01 952.607,1079.01 957.252,1079.01 961.897,1079.01 966.542,1079 971.186,1078.98 975.831,1078.94 980.476,1078.87 985.12,1078.77 989.765,1078.6 994.41,1078.38 999.055,1078.08 1003.7,1077.72 1008.34,1077.31 1012.99,1076.91 1017.63,1076.56 1022.28,1076.3 1026.92,1076.18 1031.57,1076.22 1036.21,1076.41 1040.86,1076.72 1045.5,1077.11 1050.15,1077.52 1054.79,1077.9 1059.44,1078.23 1064.08,1078.5 1068.73,1078.69 1073.37,1078.83 1078.02,1078.91 1082.66,1078.96 1087.3,1078.99 1091.95,1079.01 1096.59,1079.01 1101.24,1079.02 1105.88,1079.01 "/>
<polyline clip-path="url(#clip242)" style="stroke:#ff0000; stroke-linecap:round; stroke-linejoin:round; stroke-width:4; stroke-opacity:1; fill:none" points="370.127,2122.22 370.127,-921.264 "/>
<path clip-path="url(#clip240)" d="M186.512 282.569 L410.598 282.569 L410.598 127.049 L186.512 127.049  Z" fill="#ffffff" fill-rule="evenodd" fill-opacity="1"/>
<polyline clip-path="url(#clip240)" style="stroke:#000000; stroke-linecap:round; stroke-linejoin:round; stroke-width:4; stroke-opacity:1; fill:none" points="186.512,282.569 410.598,282.569 410.598,127.049 186.512,127.049 186.512,282.569 "/>
<polyline clip-path="url(#clip240)" style="stroke:#e69f00; stroke-linecap:round; stroke-linejoin:round; stroke-width:4; stroke-opacity:1; fill:none" points="197.398,178.889 262.715,178.889 "/>
<path clip-path="url(#clip240)" d="M287.444 198.576 Q285.638 203.206 283.925 204.618 Q282.212 206.03 279.342 206.03 L275.939 206.03 L275.939 202.465 L278.439 202.465 Q280.199 202.465 281.171 201.632 Q282.143 200.798 283.324 197.696 L284.087 195.752 L273.601 170.243 L278.115 170.243 L286.217 190.521 L294.319 170.243 L298.833 170.243 L287.444 198.576 Z" fill="#000000" fill-rule="nonzero" fill-opacity="1" /><path clip-path="url(#clip240)" d="M306.124 192.233 L313.763 192.233 L313.763 165.868 L305.453 167.535 L305.453 163.275 L313.717 161.609 L318.393 161.609 L318.393 192.233 L326.032 192.233 L326.032 196.169 L306.124 196.169 L306.124 192.233 Z" fill="#000000" fill-rule="nonzero" fill-opacity="1" /><polyline clip-path="url(#clip240)" style="stroke:#ff0000; stroke-linecap:round; stroke-linejoin:round; stroke-width:4; stroke-opacity:1; fill:none" points="197.398,230.729 262.715,230.729 "/>
<path clip-path="url(#clip240)" d="M293.948 227.06 Q295.546 224.189 297.768 222.824 Q299.99 221.458 302.999 221.458 Q307.05 221.458 309.249 224.305 Q311.448 227.129 311.448 232.361 L311.448 248.009 L307.166 248.009 L307.166 232.499 Q307.166 228.773 305.847 226.967 Q304.527 225.162 301.819 225.162 Q298.509 225.162 296.587 227.361 Q294.666 229.56 294.666 233.356 L294.666 248.009 L290.384 248.009 L290.384 232.499 Q290.384 228.749 289.064 226.967 Q287.745 225.162 284.99 225.162 Q281.726 225.162 279.805 227.384 Q277.884 229.583 277.884 233.356 L277.884 248.009 L273.601 248.009 L273.601 222.083 L277.884 222.083 L277.884 226.111 Q279.342 223.726 281.379 222.592 Q283.416 221.458 286.217 221.458 Q289.041 221.458 291.009 222.893 Q292.999 224.328 293.948 227.06 Z" fill="#000000" fill-rule="nonzero" fill-opacity="1" /><path clip-path="url(#clip240)" d="M342.119 233.981 L342.119 236.064 L322.536 236.064 Q322.814 240.462 325.175 242.777 Q327.559 245.069 331.795 245.069 Q334.249 245.069 336.541 244.467 Q338.856 243.865 341.124 242.661 L341.124 246.689 Q338.832 247.661 336.425 248.171 Q334.018 248.68 331.541 248.68 Q325.337 248.68 321.703 245.069 Q318.092 241.458 318.092 235.3 Q318.092 228.935 321.518 225.208 Q324.967 221.458 330.8 221.458 Q336.032 221.458 339.064 224.837 Q342.119 228.194 342.119 233.981 M337.86 232.731 Q337.814 229.236 335.893 227.152 Q333.995 225.069 330.846 225.069 Q327.282 225.069 325.129 227.083 Q322.999 229.097 322.675 232.754 L337.86 232.731 Z" fill="#000000" fill-rule="nonzero" fill-opacity="1" /><path clip-path="url(#clip240)" d="M360.893 234.976 Q355.731 234.976 353.74 236.157 Q351.749 237.337 351.749 240.185 Q351.749 242.453 353.231 243.796 Q354.735 245.115 357.305 245.115 Q360.846 245.115 362.976 242.615 Q365.129 240.092 365.129 235.925 L365.129 234.976 L360.893 234.976 M369.388 233.217 L369.388 248.009 L365.129 248.009 L365.129 244.073 Q363.67 246.435 361.494 247.569 Q359.318 248.68 356.17 248.68 Q352.189 248.68 349.828 246.458 Q347.49 244.212 347.49 240.462 Q347.49 236.087 350.406 233.865 Q353.346 231.643 359.156 231.643 L365.129 231.643 L365.129 231.226 Q365.129 228.287 363.184 226.689 Q361.263 225.069 357.768 225.069 Q355.545 225.069 353.439 225.601 Q351.332 226.134 349.388 227.199 L349.388 223.263 Q351.726 222.361 353.925 221.921 Q356.124 221.458 358.207 221.458 Q363.832 221.458 366.61 224.375 Q369.388 227.291 369.388 233.217 Z" fill="#000000" fill-rule="nonzero" fill-opacity="1" /><path clip-path="url(#clip240)" d="M399.712 232.361 L399.712 248.009 L395.453 248.009 L395.453 232.499 Q395.453 228.819 394.017 226.99 Q392.582 225.162 389.712 225.162 Q386.263 225.162 384.272 227.361 Q382.281 229.56 382.281 233.356 L382.281 248.009 L377.999 248.009 L377.999 222.083 L382.281 222.083 L382.281 226.111 Q383.809 223.773 385.869 222.615 Q387.953 221.458 390.661 221.458 Q395.128 221.458 397.42 224.236 Q399.712 226.99 399.712 232.361 Z" fill="#000000" fill-rule="nonzero" fill-opacity="1" /><path clip-path="url(#clip240)" d="M1361.98 1107.73 L2341.74 1107.73 L2341.74 93.2321 L1361.98 93.2321  Z" fill="#ffffff" fill-rule="evenodd" fill-opacity="1"/>
<defs>
  <clipPath id="clip243">
    <rect x="1361" y="93" width="981" height="1015"/>
  </clipPath>
</defs>
<polyline clip-path="url(#clip243)" style="stroke:#000000; stroke-linecap:round; stroke-linejoin:round; stroke-width:2; stroke-opacity:0.1; fill:none" points="1433.55,1107.73 1433.55,93.2321 "/>
<polyline clip-path="url(#clip243)" style="stroke:#000000; stroke-linecap:round; stroke-linejoin:round; stroke-width:2; stroke-opacity:0.1; fill:none" points="1674.13,1107.73 1674.13,93.2321 "/>
<polyline clip-path="url(#clip243)" style="stroke:#000000; stroke-linecap:round; stroke-linejoin:round; stroke-width:2; stroke-opacity:0.1; fill:none" points="1914.71,1107.73 1914.71,93.2321 "/>
<polyline clip-path="url(#clip243)" style="stroke:#000000; stroke-linecap:round; stroke-linejoin:round; stroke-width:2; stroke-opacity:0.1; fill:none" points="2155.29,1107.73 2155.29,93.2321 "/>
<polyline clip-path="url(#clip240)" style="stroke:#000000; stroke-linecap:round; stroke-linejoin:round; stroke-width:4; stroke-opacity:1; fill:none" points="1361.98,1107.73 2341.74,1107.73 "/>
<polyline clip-path="url(#clip240)" style="stroke:#000000; stroke-linecap:round; stroke-linejoin:round; stroke-width:4; stroke-opacity:1; fill:none" points="1433.55,1107.73 1433.55,1088.83 "/>
<polyline clip-path="url(#clip240)" style="stroke:#000000; stroke-linecap:round; stroke-linejoin:round; stroke-width:4; stroke-opacity:1; fill:none" points="1674.13,1107.73 1674.13,1088.83 "/>
<polyline clip-path="url(#clip240)" style="stroke:#000000; stroke-linecap:round; stroke-linejoin:round; stroke-width:4; stroke-opacity:1; fill:none" points="1914.71,1107.73 1914.71,1088.83 "/>
<polyline clip-path="url(#clip240)" style="stroke:#000000; stroke-linecap:round; stroke-linejoin:round; stroke-width:4; stroke-opacity:1; fill:none" points="2155.29,1107.73 2155.29,1088.83 "/>
<path clip-path="url(#clip240)" d="M1395.85 1148.25 Q1392.24 1148.25 1390.41 1151.81 Q1388.61 1155.35 1388.61 1162.48 Q1388.61 1169.59 1390.41 1173.15 Q1392.24 1176.7 1395.85 1176.7 Q1399.48 1176.7 1401.29 1173.15 Q1403.12 1169.59 1403.12 1162.48 Q1403.12 1155.35 1401.29 1151.81 Q1399.48 1148.25 1395.85 1148.25 M1395.85 1144.54 Q1401.66 1144.54 1404.72 1149.15 Q1407.79 1153.73 1407.79 1162.48 Q1407.79 1171.21 1404.72 1175.82 Q1401.66 1180.4 1395.85 1180.4 Q1390.04 1180.4 1386.96 1175.82 Q1383.91 1171.21 1383.91 1162.48 Q1383.91 1153.73 1386.96 1149.15 Q1390.04 1144.54 1395.85 1144.54 Z" fill="#000000" fill-rule="nonzero" fill-opacity="1" /><path clip-path="url(#clip240)" d="M1416.01 1173.85 L1420.9 1173.85 L1420.9 1179.73 L1416.01 1179.73 L1416.01 1173.85 Z" fill="#000000" fill-rule="nonzero" fill-opacity="1" /><path clip-path="url(#clip240)" d="M1441.08 1148.25 Q1437.47 1148.25 1435.64 1151.81 Q1433.84 1155.35 1433.84 1162.48 Q1433.84 1169.59 1435.64 1173.15 Q1437.47 1176.7 1441.08 1176.7 Q1444.72 1176.7 1446.52 1173.15 Q1448.35 1169.59 1448.35 1162.48 Q1448.35 1155.35 1446.52 1151.81 Q1444.72 1148.25 1441.08 1148.25 M1441.08 1144.54 Q1446.89 1144.54 1449.95 1149.15 Q1453.03 1153.73 1453.03 1162.48 Q1453.03 1171.21 1449.95 1175.82 Q1446.89 1180.4 1441.08 1180.4 Q1435.27 1180.4 1432.19 1175.82 Q1429.14 1171.21 1429.14 1162.48 Q1429.14 1153.73 1432.19 1149.15 Q1435.27 1144.54 1441.08 1144.54 Z" fill="#000000" fill-rule="nonzero" fill-opacity="1" /><path clip-path="url(#clip240)" d="M1471.24 1148.25 Q1467.63 1148.25 1465.8 1151.81 Q1464 1155.35 1464 1162.48 Q1464 1169.59 1465.8 1173.15 Q1467.63 1176.7 1471.24 1176.7 Q1474.88 1176.7 1476.68 1173.15 Q1478.51 1169.59 1478.51 1162.48 Q1478.51 1155.35 1476.68 1151.81 Q1474.88 1148.25 1471.24 1148.25 M1471.24 1144.54 Q1477.05 1144.54 1480.11 1149.15 Q1483.19 1153.73 1483.19 1162.48 Q1483.19 1171.21 1480.11 1175.82 Q1477.05 1180.4 1471.24 1180.4 Q1465.43 1180.4 1462.35 1175.82 Q1459.3 1171.21 1459.3 1162.48 Q1459.3 1153.73 1462.35 1149.15 Q1465.43 1144.54 1471.24 1144.54 Z" fill="#000000" fill-rule="nonzero" fill-opacity="1" /><path clip-path="url(#clip240)" d="M1637.23 1148.25 Q1633.62 1148.25 1631.79 1151.81 Q1629.98 1155.35 1629.98 1162.48 Q1629.98 1169.59 1631.79 1173.15 Q1633.62 1176.7 1637.23 1176.7 Q1640.86 1176.7 1642.67 1173.15 Q1644.5 1169.59 1644.5 1162.48 Q1644.5 1155.35 1642.67 1151.81 Q1640.86 1148.25 1637.23 1148.25 M1637.23 1144.54 Q1643.04 1144.54 1646.09 1149.15 Q1649.17 1153.73 1649.17 1162.48 Q1649.17 1171.21 1646.09 1175.82 Q1643.04 1180.4 1637.23 1180.4 Q1631.42 1180.4 1628.34 1175.82 Q1625.28 1171.21 1625.28 1162.48 Q1625.28 1153.73 1628.34 1149.15 Q1631.42 1144.54 1637.23 1144.54 Z" fill="#000000" fill-rule="nonzero" fill-opacity="1" /><path clip-path="url(#clip240)" d="M1657.39 1173.85 L1662.28 1173.85 L1662.28 1179.73 L1657.39 1179.73 L1657.39 1173.85 Z" fill="#000000" fill-rule="nonzero" fill-opacity="1" /><path clip-path="url(#clip240)" d="M1682.46 1148.25 Q1678.85 1148.25 1677.02 1151.81 Q1675.22 1155.35 1675.22 1162.48 Q1675.22 1169.59 1677.02 1173.15 Q1678.85 1176.7 1682.46 1176.7 Q1686.09 1176.7 1687.9 1173.15 Q1689.73 1169.59 1689.73 1162.48 Q1689.73 1155.35 1687.9 1151.81 Q1686.09 1148.25 1682.46 1148.25 M1682.46 1144.54 Q1688.27 1144.54 1691.33 1149.15 Q1694.4 1153.73 1694.4 1162.48 Q1694.4 1171.21 1691.33 1175.82 Q1688.27 1180.4 1682.46 1180.4 Q1676.65 1180.4 1673.57 1175.82 Q1670.52 1171.21 1670.52 1162.48 Q1670.52 1153.73 1673.57 1149.15 Q1676.65 1144.54 1682.46 1144.54 Z" fill="#000000" fill-rule="nonzero" fill-opacity="1" /><path clip-path="url(#clip240)" d="M1706.65 1175.79 L1722.97 1175.79 L1722.97 1179.73 L1701.03 1179.73 L1701.03 1175.79 Q1703.69 1173.04 1708.27 1168.41 Q1712.88 1163.76 1714.06 1162.41 Q1716.3 1159.89 1717.18 1158.15 Q1718.09 1156.39 1718.09 1154.7 Q1718.09 1151.95 1716.14 1150.21 Q1714.22 1148.48 1711.12 1148.48 Q1708.92 1148.48 1706.47 1149.24 Q1704.03 1150.01 1701.26 1151.56 L1701.26 1146.83 Q1704.08 1145.7 1706.53 1145.12 Q1708.99 1144.54 1711.03 1144.54 Q1716.4 1144.54 1719.59 1147.23 Q1722.78 1149.91 1722.78 1154.4 Q1722.78 1156.53 1721.97 1158.45 Q1721.19 1160.35 1719.08 1162.95 Q1718.5 1163.62 1715.4 1166.83 Q1712.3 1170.03 1706.65 1175.79 Z" fill="#000000" fill-rule="nonzero" fill-opacity="1" /><path clip-path="url(#clip240)" d="M1876.77 1148.25 Q1873.16 1148.25 1871.33 1151.81 Q1869.52 1155.35 1869.52 1162.48 Q1869.52 1169.59 1871.33 1173.15 Q1873.16 1176.7 1876.77 1176.7 Q1880.4 1176.7 1882.21 1173.15 Q1884.04 1169.59 1884.04 1162.48 Q1884.04 1155.35 1882.21 1151.81 Q1880.4 1148.25 1876.77 1148.25 M1876.77 1144.54 Q1882.58 1144.54 1885.63 1149.15 Q1888.71 1153.73 1888.71 1162.48 Q1888.71 1171.21 1885.63 1175.82 Q1882.58 1180.4 1876.77 1180.4 Q1870.96 1180.4 1867.88 1175.82 Q1864.82 1171.21 1864.82 1162.48 Q1864.82 1153.73 1867.88 1149.15 Q1870.96 1144.54 1876.77 1144.54 Z" fill="#000000" fill-rule="nonzero" fill-opacity="1" /><path clip-path="url(#clip240)" d="M1896.93 1173.85 L1901.81 1173.85 L1901.81 1179.73 L1896.93 1179.73 L1896.93 1173.85 Z" fill="#000000" fill-rule="nonzero" fill-opacity="1" /><path clip-path="url(#clip240)" d="M1922 1148.25 Q1918.39 1148.25 1916.56 1151.81 Q1914.75 1155.35 1914.75 1162.48 Q1914.75 1169.59 1916.56 1173.15 Q1918.39 1176.7 1922 1176.7 Q1925.63 1176.7 1927.44 1173.15 Q1929.27 1169.59 1929.27 1162.48 Q1929.27 1155.35 1927.44 1151.81 Q1925.63 1148.25 1922 1148.25 M1922 1144.54 Q1927.81 1144.54 1930.86 1149.15 Q1933.94 1153.73 1933.94 1162.48 Q1933.94 1171.21 1930.86 1175.82 Q1927.81 1180.4 1922 1180.4 Q1916.19 1180.4 1913.11 1175.82 Q1910.05 1171.21 1910.05 1162.48 Q1910.05 1153.73 1913.11 1149.15 Q1916.19 1144.54 1922 1144.54 Z" fill="#000000" fill-rule="nonzero" fill-opacity="1" /><path clip-path="url(#clip240)" d="M1955.01 1149.24 L1943.2 1167.69 L1955.01 1167.69 L1955.01 1149.24 M1953.78 1145.17 L1959.66 1145.17 L1959.66 1167.69 L1964.59 1167.69 L1964.59 1171.58 L1959.66 1171.58 L1959.66 1179.73 L1955.01 1179.73 L1955.01 1171.58 L1939.41 1171.58 L1939.41 1167.07 L1953.78 1145.17 Z" fill="#000000" fill-rule="nonzero" fill-opacity="1" /><path clip-path="url(#clip240)" d="M2117.51 1148.25 Q2113.9 1148.25 2112.07 1151.81 Q2110.26 1155.35 2110.26 1162.48 Q2110.26 1169.59 2112.07 1173.15 Q2113.9 1176.7 2117.51 1176.7 Q2121.14 1176.7 2122.95 1173.15 Q2124.78 1169.59 2124.78 1162.48 Q2124.78 1155.35 2122.95 1151.81 Q2121.14 1148.25 2117.51 1148.25 M2117.51 1144.54 Q2123.32 1144.54 2126.38 1149.15 Q2129.45 1153.73 2129.45 1162.48 Q2129.45 1171.21 2126.38 1175.82 Q2123.32 1180.4 2117.51 1180.4 Q2111.7 1180.4 2108.62 1175.82 Q2105.57 1171.21 2105.57 1162.48 Q2105.57 1153.73 2108.62 1149.15 Q2111.7 1144.54 2117.51 1144.54 Z" fill="#000000" fill-rule="nonzero" fill-opacity="1" /><path clip-path="url(#clip240)" d="M2137.67 1173.85 L2142.56 1173.85 L2142.56 1179.73 L2137.67 1179.73 L2137.67 1173.85 Z" fill="#000000" fill-rule="nonzero" fill-opacity="1" /><path clip-path="url(#clip240)" d="M2162.74 1148.25 Q2159.13 1148.25 2157.3 1151.81 Q2155.5 1155.35 2155.5 1162.48 Q2155.5 1169.59 2157.3 1173.15 Q2159.13 1176.7 2162.74 1176.7 Q2166.38 1176.7 2168.18 1173.15 Q2170.01 1169.59 2170.01 1162.48 Q2170.01 1155.35 2168.18 1151.81 Q2166.38 1148.25 2162.74 1148.25 M2162.74 1144.54 Q2168.55 1144.54 2171.61 1149.15 Q2174.69 1153.73 2174.69 1162.48 Q2174.69 1171.21 2171.61 1175.82 Q2168.55 1180.4 2162.74 1180.4 Q2156.93 1180.4 2153.85 1175.82 Q2150.8 1171.21 2150.8 1162.48 Q2150.8 1153.73 2153.85 1149.15 Q2156.93 1144.54 2162.74 1144.54 Z" fill="#000000" fill-rule="nonzero" fill-opacity="1" /><path clip-path="url(#clip240)" d="M2193.48 1160.58 Q2190.33 1160.58 2188.48 1162.74 Q2186.65 1164.89 2186.65 1168.64 Q2186.65 1172.37 2188.48 1174.54 Q2190.33 1176.7 2193.48 1176.7 Q2196.63 1176.7 2198.46 1174.54 Q2200.31 1172.37 2200.31 1168.64 Q2200.31 1164.89 2198.46 1162.74 Q2196.63 1160.58 2193.48 1160.58 M2202.76 1145.93 L2202.76 1150.19 Q2201.01 1149.36 2199.2 1148.92 Q2197.42 1148.48 2195.66 1148.48 Q2191.03 1148.48 2188.57 1151.6 Q2186.14 1154.73 2185.8 1161.05 Q2187.16 1159.03 2189.22 1157.97 Q2191.28 1156.88 2193.76 1156.88 Q2198.97 1156.88 2201.98 1160.05 Q2205.01 1163.2 2205.01 1168.64 Q2205.01 1173.96 2201.86 1177.18 Q2198.71 1180.4 2193.48 1180.4 Q2187.49 1180.4 2184.32 1175.82 Q2181.14 1171.21 2181.14 1162.48 Q2181.14 1154.29 2185.03 1149.43 Q2188.92 1144.54 2195.47 1144.54 Q2197.23 1144.54 2199.01 1144.89 Q2200.82 1145.24 2202.76 1145.93 Z" fill="#000000" fill-rule="nonzero" fill-opacity="1" /><polyline clip-path="url(#clip243)" style="stroke:#000000; stroke-linecap:round; stroke-linejoin:round; stroke-width:2; stroke-opacity:0.1; fill:none" points="1361.98,1079.02 2341.74,1079.02 "/>
<polyline clip-path="url(#clip243)" style="stroke:#000000; stroke-linecap:round; stroke-linejoin:round; stroke-width:2; stroke-opacity:0.1; fill:none" points="1361.98,831.162 2341.74,831.162 "/>
<polyline clip-path="url(#clip243)" style="stroke:#000000; stroke-linecap:round; stroke-linejoin:round; stroke-width:2; stroke-opacity:0.1; fill:none" points="1361.98,583.307 2341.74,583.307 "/>
<polyline clip-path="url(#clip243)" style="stroke:#000000; stroke-linecap:round; stroke-linejoin:round; stroke-width:2; stroke-opacity:0.1; fill:none" points="1361.98,335.453 2341.74,335.453 "/>
<polyline clip-path="url(#clip240)" style="stroke:#000000; stroke-linecap:round; stroke-linejoin:round; stroke-width:4; stroke-opacity:1; fill:none" points="1361.98,1107.73 1361.98,93.2321 "/>
<polyline clip-path="url(#clip240)" style="stroke:#000000; stroke-linecap:round; stroke-linejoin:round; stroke-width:4; stroke-opacity:1; fill:none" points="1361.98,1079.02 1380.88,1079.02 "/>
<polyline clip-path="url(#clip240)" style="stroke:#000000; stroke-linecap:round; stroke-linejoin:round; stroke-width:4; stroke-opacity:1; fill:none" points="1361.98,831.162 1380.88,831.162 "/>
<polyline clip-path="url(#clip240)" style="stroke:#000000; stroke-linecap:round; stroke-linejoin:round; stroke-width:4; stroke-opacity:1; fill:none" points="1361.98,583.307 1380.88,583.307 "/>
<polyline clip-path="url(#clip240)" style="stroke:#000000; stroke-linecap:round; stroke-linejoin:round; stroke-width:4; stroke-opacity:1; fill:none" points="1361.98,335.453 1380.88,335.453 "/>
<path clip-path="url(#clip240)" d="M1296.03 1064.81 Q1292.42 1064.81 1290.59 1068.38 Q1288.79 1071.92 1288.79 1079.05 Q1288.79 1086.16 1290.59 1089.72 Q1292.42 1093.26 1296.03 1093.26 Q1299.67 1093.26 1301.47 1089.72 Q1303.3 1086.16 1303.3 1079.05 Q1303.3 1071.92 1301.47 1068.38 Q1299.67 1064.81 1296.03 1064.81 M1296.03 1061.11 Q1301.84 1061.11 1304.9 1065.72 Q1307.98 1070.3 1307.98 1079.05 Q1307.98 1087.78 1304.9 1092.38 Q1301.84 1096.97 1296.03 1096.97 Q1290.22 1096.97 1287.14 1092.38 Q1284.09 1087.78 1284.09 1079.05 Q1284.09 1070.3 1287.14 1065.72 Q1290.22 1061.11 1296.03 1061.11 Z" fill="#000000" fill-rule="nonzero" fill-opacity="1" /><path clip-path="url(#clip240)" d="M1255.92 813.882 L1274.27 813.882 L1274.27 817.817 L1260.2 817.817 L1260.2 826.289 Q1261.22 825.942 1262.24 825.78 Q1263.26 825.594 1264.27 825.594 Q1270.06 825.594 1273.44 828.766 Q1276.82 831.937 1276.82 837.354 Q1276.82 842.932 1273.35 846.034 Q1269.88 849.113 1263.56 849.113 Q1261.38 849.113 1259.11 848.742 Q1256.87 848.372 1254.46 847.631 L1254.46 842.932 Q1256.54 844.067 1258.77 844.622 Q1260.99 845.178 1263.46 845.178 Q1267.47 845.178 1269.81 843.071 Q1272.14 840.965 1272.14 837.354 Q1272.14 833.743 1269.81 831.636 Q1267.47 829.53 1263.46 829.53 Q1261.59 829.53 1259.71 829.946 Q1257.86 830.363 1255.92 831.243 L1255.92 813.882 Z" fill="#000000" fill-rule="nonzero" fill-opacity="1" /><path clip-path="url(#clip240)" d="M1296.03 816.96 Q1292.42 816.96 1290.59 820.525 Q1288.79 824.067 1288.79 831.196 Q1288.79 838.303 1290.59 841.868 Q1292.42 845.409 1296.03 845.409 Q1299.67 845.409 1301.47 841.868 Q1303.3 838.303 1303.3 831.196 Q1303.3 824.067 1301.47 820.525 Q1299.67 816.96 1296.03 816.96 M1296.03 813.257 Q1301.84 813.257 1304.9 817.863 Q1307.98 822.446 1307.98 831.196 Q1307.98 839.923 1304.9 844.53 Q1301.84 849.113 1296.03 849.113 Q1290.22 849.113 1287.14 844.53 Q1284.09 839.923 1284.09 831.196 Q1284.09 822.446 1287.14 817.863 Q1290.22 813.257 1296.03 813.257 Z" fill="#000000" fill-rule="nonzero" fill-opacity="1" /><path clip-path="url(#clip240)" d="M1226.52 596.652 L1234.16 596.652 L1234.16 570.287 L1225.85 571.953 L1225.85 567.694 L1234.11 566.027 L1238.79 566.027 L1238.79 596.652 L1246.43 596.652 L1246.43 600.587 L1226.52 600.587 L1226.52 596.652 Z" fill="#000000" fill-rule="nonzero" fill-opacity="1" /><path clip-path="url(#clip240)" d="M1265.87 569.106 Q1262.26 569.106 1260.43 572.671 Q1258.63 576.213 1258.63 583.342 Q1258.63 590.449 1260.43 594.013 Q1262.26 597.555 1265.87 597.555 Q1269.51 597.555 1271.31 594.013 Q1273.14 590.449 1273.14 583.342 Q1273.14 576.213 1271.31 572.671 Q1269.51 569.106 1265.87 569.106 M1265.87 565.402 Q1271.68 565.402 1274.74 570.009 Q1277.82 574.592 1277.82 583.342 Q1277.82 592.069 1274.74 596.675 Q1271.68 601.259 1265.87 601.259 Q1260.06 601.259 1256.98 596.675 Q1253.93 592.069 1253.93 583.342 Q1253.93 574.592 1256.98 570.009 Q1260.06 565.402 1265.87 565.402 Z" fill="#000000" fill-rule="nonzero" fill-opacity="1" /><path clip-path="url(#clip240)" d="M1296.03 569.106 Q1292.42 569.106 1290.59 572.671 Q1288.79 576.213 1288.79 583.342 Q1288.79 590.449 1290.59 594.013 Q1292.42 597.555 1296.03 597.555 Q1299.67 597.555 1301.47 594.013 Q1303.3 590.449 1303.3 583.342 Q1303.3 576.213 1301.47 572.671 Q1299.67 569.106 1296.03 569.106 M1296.03 565.402 Q1301.84 565.402 1304.9 570.009 Q1307.98 574.592 1307.98 583.342 Q1307.98 592.069 1304.9 596.675 Q1301.84 601.259 1296.03 601.259 Q1290.22 601.259 1287.14 596.675 Q1284.09 592.069 1284.09 583.342 Q1284.09 574.592 1287.14 570.009 Q1290.22 565.402 1296.03 565.402 Z" fill="#000000" fill-rule="nonzero" fill-opacity="1" /><path clip-path="url(#clip240)" d="M1226.52 348.798 L1234.16 348.798 L1234.16 322.432 L1225.85 324.099 L1225.85 319.84 L1234.11 318.173 L1238.79 318.173 L1238.79 348.798 L1246.43 348.798 L1246.43 352.733 L1226.52 352.733 L1226.52 348.798 Z" fill="#000000" fill-rule="nonzero" fill-opacity="1" /><path clip-path="url(#clip240)" d="M1255.92 318.173 L1274.27 318.173 L1274.27 322.108 L1260.2 322.108 L1260.2 330.581 Q1261.22 330.233 1262.24 330.071 Q1263.26 329.886 1264.27 329.886 Q1270.06 329.886 1273.44 333.057 Q1276.82 336.229 1276.82 341.645 Q1276.82 347.224 1273.35 350.326 Q1269.88 353.405 1263.56 353.405 Q1261.38 353.405 1259.11 353.034 Q1256.87 352.664 1254.46 351.923 L1254.46 347.224 Q1256.54 348.358 1258.77 348.914 Q1260.99 349.469 1263.46 349.469 Q1267.47 349.469 1269.81 347.363 Q1272.14 345.256 1272.14 341.645 Q1272.14 338.034 1269.81 335.928 Q1267.47 333.821 1263.46 333.821 Q1261.59 333.821 1259.71 334.238 Q1257.86 334.655 1255.92 335.534 L1255.92 318.173 Z" fill="#000000" fill-rule="nonzero" fill-opacity="1" /><path clip-path="url(#clip240)" d="M1296.03 321.252 Q1292.42 321.252 1290.59 324.817 Q1288.79 328.358 1288.79 335.488 Q1288.79 342.594 1290.59 346.159 Q1292.42 349.701 1296.03 349.701 Q1299.67 349.701 1301.47 346.159 Q1303.3 342.594 1303.3 335.488 Q1303.3 328.358 1301.47 324.817 Q1299.67 321.252 1296.03 321.252 M1296.03 317.548 Q1301.84 317.548 1304.9 322.155 Q1307.98 326.738 1307.98 335.488 Q1307.98 344.215 1304.9 348.821 Q1301.84 353.405 1296.03 353.405 Q1290.22 353.405 1287.14 348.821 Q1284.09 344.215 1284.09 335.488 Q1284.09 326.738 1287.14 322.155 Q1290.22 317.548 1296.03 317.548 Z" fill="#000000" fill-rule="nonzero" fill-opacity="1" /><path clip-path="url(#clip240)" d="M1630.07 45.1919 L1630.07 72.576 L1622.62 72.576 L1622.62 45.4349 Q1622.62 38.994 1620.11 35.7938 Q1617.59 32.5936 1612.57 32.5936 Q1606.53 32.5936 1603.05 36.4419 Q1599.57 40.2903 1599.57 46.9338 L1599.57 72.576 L1592.07 72.576 L1592.07 27.2059 L1599.57 27.2059 L1599.57 34.2544 Q1602.24 30.163 1605.85 28.1376 Q1609.49 26.1121 1614.23 26.1121 Q1622.05 26.1121 1626.06 30.9732 Q1630.07 35.7938 1630.07 45.1919 Z" fill="#000000" fill-rule="nonzero" fill-opacity="1" /><path clip-path="url(#clip240)" d="M1662.52 32.4315 Q1656.52 32.4315 1653.04 37.1306 Q1649.56 41.7891 1649.56 49.9314 Q1649.56 58.0738 1653 62.7728 Q1656.48 67.4314 1662.52 67.4314 Q1668.47 67.4314 1671.96 62.7323 Q1675.44 58.0333 1675.44 49.9314 Q1675.44 41.8701 1671.96 37.1711 Q1668.47 32.4315 1662.52 32.4315 M1662.52 26.1121 Q1672.24 26.1121 1677.79 32.4315 Q1683.34 38.7509 1683.34 49.9314 Q1683.34 61.0714 1677.79 67.4314 Q1672.24 73.7508 1662.52 73.7508 Q1652.76 73.7508 1647.21 67.4314 Q1641.7 61.0714 1641.7 49.9314 Q1641.7 38.7509 1647.21 32.4315 Q1652.76 26.1121 1662.52 26.1121 Z" fill="#000000" fill-rule="nonzero" fill-opacity="1" /><path clip-path="url(#clip240)" d="M1728.26 49.9314 Q1728.26 41.7081 1724.86 37.0496 Q1721.5 32.3505 1715.59 32.3505 Q1709.67 32.3505 1706.27 37.0496 Q1702.91 41.7081 1702.91 49.9314 Q1702.91 58.1548 1706.27 62.8538 Q1709.67 67.5124 1715.59 67.5124 Q1721.5 67.5124 1724.86 62.8538 Q1728.26 58.1548 1728.26 49.9314 M1702.91 34.0924 Q1705.26 30.0415 1708.82 28.0971 Q1712.43 26.1121 1717.41 26.1121 Q1725.67 26.1121 1730.82 32.6746 Q1736 39.2371 1736 49.9314 Q1736 60.6258 1730.82 67.1883 Q1725.67 73.7508 1717.41 73.7508 Q1712.43 73.7508 1708.82 71.8063 Q1705.26 69.8214 1702.91 65.7705 L1702.91 72.576 L1695.41 72.576 L1695.41 9.54393 L1702.91 9.54393 L1702.91 34.0924 Z" fill="#000000" fill-rule="nonzero" fill-opacity="1" /><path clip-path="url(#clip240)" d="M1777.28 28.5427 L1777.28 35.5912 Q1774.12 33.9709 1770.72 33.1607 Q1767.32 32.3505 1763.67 32.3505 Q1758.12 32.3505 1755.32 34.0519 Q1752.57 35.7533 1752.57 39.156 Q1752.57 41.7486 1754.55 43.2475 Q1756.54 44.7058 1762.54 46.0426 L1765.09 46.6097 Q1773.03 48.3111 1776.35 51.4303 Q1779.71 54.509 1779.71 60.0587 Q1779.71 66.3781 1774.69 70.0644 Q1769.71 73.7508 1760.96 73.7508 Q1757.31 73.7508 1753.34 73.0216 Q1749.41 72.3329 1745.04 70.9151 L1745.04 63.2184 Q1749.17 65.3654 1753.18 66.4591 Q1757.19 67.5124 1761.12 67.5124 Q1766.38 67.5124 1769.22 65.73 Q1772.05 63.9071 1772.05 60.6258 Q1772.05 57.5877 1769.99 55.9673 Q1767.96 54.3469 1761.04 52.8481 L1758.44 52.2405 Q1751.52 50.7821 1748.44 47.7845 Q1745.36 44.7463 1745.36 39.4801 Q1745.36 33.0797 1749.9 29.5959 Q1754.43 26.1121 1762.78 26.1121 Q1766.91 26.1121 1770.56 26.7198 Q1774.2 27.3274 1777.28 28.5427 Z" fill="#000000" fill-rule="nonzero" fill-opacity="1" /><path clip-path="url(#clip240)" d="M1818.92 34.9026 L1870.86 34.9026 L1870.86 41.7081 L1818.92 41.7081 L1818.92 34.9026 M1818.92 51.4303 L1870.86 51.4303 L1870.86 58.3168 L1818.92 58.3168 L1818.92 51.4303 Z" fill="#000000" fill-rule="nonzero" fill-opacity="1" /><path clip-path="url(#clip240)" d="M1916.31 65.6895 L1929.68 65.6895 L1929.68 19.5497 L1915.13 22.4663 L1915.13 15.0127 L1929.59 12.096 L1937.78 12.096 L1937.78 65.6895 L1951.15 65.6895 L1951.15 72.576 L1916.31 72.576 L1916.31 65.6895 Z" fill="#000000" fill-rule="nonzero" fill-opacity="1" /><path clip-path="url(#clip240)" d="M1985.17 17.4837 Q1978.85 17.4837 1975.65 23.7221 Q1972.49 29.92 1972.49 42.3968 Q1972.49 54.833 1975.65 61.0714 Q1978.85 67.2693 1985.17 67.2693 Q1991.53 67.2693 1994.69 61.0714 Q1997.89 54.833 1997.89 42.3968 Q1997.89 29.92 1994.69 23.7221 Q1991.53 17.4837 1985.17 17.4837 M1985.17 11.0023 Q1995.34 11.0023 2000.69 19.0636 Q2006.08 27.0843 2006.08 42.3968 Q2006.08 57.6687 2000.69 65.73 Q1995.34 73.7508 1985.17 73.7508 Q1975.01 73.7508 1969.62 65.73 Q1964.27 57.6687 1964.27 42.3968 Q1964.27 27.0843 1969.62 19.0636 Q1975.01 11.0023 1985.17 11.0023 Z" fill="#000000" fill-rule="nonzero" fill-opacity="1" /><path clip-path="url(#clip240)" d="M2037.96 17.4837 Q2031.64 17.4837 2028.44 23.7221 Q2025.28 29.92 2025.28 42.3968 Q2025.28 54.833 2028.44 61.0714 Q2031.64 67.2693 2037.96 67.2693 Q2044.32 67.2693 2047.48 61.0714 Q2050.68 54.833 2050.68 42.3968 Q2050.68 29.92 2047.48 23.7221 Q2044.32 17.4837 2037.96 17.4837 M2037.96 11.0023 Q2048.12 11.0023 2053.47 19.0636 Q2058.86 27.0843 2058.86 42.3968 Q2058.86 57.6687 2053.47 65.73 Q2048.12 73.7508 2037.96 73.7508 Q2027.79 73.7508 2022.4 65.73 Q2017.05 57.6687 2017.05 42.3968 Q2017.05 27.0843 2022.4 19.0636 Q2027.79 11.0023 2037.96 11.0023 Z" fill="#000000" fill-rule="nonzero" fill-opacity="1" /><path clip-path="url(#clip240)" d="M2090.74 17.4837 Q2084.42 17.4837 2081.22 23.7221 Q2078.06 29.92 2078.06 42.3968 Q2078.06 54.833 2081.22 61.0714 Q2084.42 67.2693 2090.74 67.2693 Q2097.1 67.2693 2100.26 61.0714 Q2103.46 54.833 2103.46 42.3968 Q2103.46 29.92 2100.26 23.7221 Q2097.1 17.4837 2090.74 17.4837 M2090.74 11.0023 Q2100.91 11.0023 2106.25 19.0636 Q2111.64 27.0843 2111.64 42.3968 Q2111.64 57.6687 2106.25 65.73 Q2100.91 73.7508 2090.74 73.7508 Q2080.57 73.7508 2075.18 65.73 Q2069.84 57.6687 2069.84 42.3968 Q2069.84 27.0843 2075.18 19.0636 Q2080.57 11.0023 2090.74 11.0023 Z" fill="#000000" fill-rule="nonzero" fill-opacity="1" /><polyline clip-path="url(#clip243)" style="stroke:#e69f00; stroke-linecap:round; stroke-linejoin:round; stroke-width:4; stroke-opacity:1; fill:none" points="1389.71,1078.95 1394.35,1078.67 1399,1077.46 1403.64,1073.14 1408.29,1060.06 1412.93,1026.94 1417.58,956.859 1422.22,833.618 1426.86,655.179 1431.51,446.311 1436.15,256.747 1440.8,139.401 1445.44,121.944 1450.09,193.803 1454.73,317.437 1459.38,451.9 1464.02,570.247 1468.67,662.945 1473.31,731.848 1477.96,782.776 1482.6,821.017 1487.25,850.043 1491.89,872.029 1496.54,888.808 1501.18,902.366 1505.83,914.668 1510.47,927.082 1515.11,939.831 1519.76,951.932 1524.4,961.877 1529.05,968.745 1533.69,972.893 1538.34,975.718 1542.98,978.761 1547.63,982.827 1552.27,987.645 1556.92,992.188 1561.56,995.407 1566.21,996.895 1570.85,997.064 1575.5,996.838 1580.14,997.191 1584.79,998.799 1589.43,1001.84 1594.08,1005.98 1598.72,1010.52 1603.36,1014.82 1608.01,1018.57 1612.65,1021.83 1617.3,1024.73 1621.94,1027.24 1626.59,1029.25 1631.23,1030.72 1635.88,1031.8 1640.52,1032.6 1645.17,1033.03 1649.81,1032.91 1654.46,1032.23 1659.1,1031.51 1663.75,1031.67 1668.39,1033.46 1673.04,1037 1677.68,1041.67 1682.32,1046.57 1686.97,1050.9 1691.61,1054.19 1696.26,1056.22 1700.9,1057.01 1705.55,1056.8 1710.19,1056.07 1714.84,1055.43 1719.48,1055.44 1724.13,1056.29 1728.77,1057.74 1733.42,1059.22 1738.06,1060.25 1742.71,1060.76 1747.35,1061.11 1752,1061.83 1756.64,1063.18 1761.29,1064.97 1765.93,1066.63 1770.57,1067.58 1775.22,1067.57 1779.86,1066.79 1784.51,1065.65 1789.15,1064.56 1793.8,1063.8 1798.44,1063.49 1803.09,1063.7 1807.73,1064.48 1812.38,1065.83 1817.02,1067.65 1821.67,1069.73 1826.31,1071.74 1830.96,1073.36 1835.6,1074.32 1840.25,1074.43 1844.89,1073.65 1849.54,1072.17 1854.18,1070.41 1858.82,1068.86 1863.47,1067.92 1868.11,1067.69 1872.76,1068.1 1877.4,1069.02 1882.05,1070.35 1886.69,1071.95 1891.34,1073.59 1895.98,1075.02 1900.63,1076.1 1905.27,1076.81 1909.92,1077.17 1914.56,1077.26 1919.21,1077.15 1923.85,1076.92 1928.5,1076.63 1933.14,1076.35 1937.79,1076.09 1942.43,1075.9 1947.07,1075.82 1951.72,1075.91 1956.36,1076.22 1961.01,1076.71 1965.65,1077.31 1970.3,1077.89 1974.94,1078.33 1979.59,1078.54 1984.23,1078.49 1988.88,1078.19 1993.52,1077.69 1998.17,1077.14 2002.81,1076.7 2007.46,1076.5 2012.1,1076.55 2016.75,1076.76 2021.39,1077.02 2026.04,1077.24 2030.68,1077.4 2035.32,1077.52 2039.97,1077.65 2044.61,1077.84 2049.26,1078.08 2053.9,1078.31 2058.55,1078.39 2063.19,1078.26 2067.84,1077.89 2072.48,1077.4 2077.13,1076.99 2081.77,1076.84 2086.42,1077 2091.06,1077.35 2095.71,1077.66 2100.35,1077.82 2105,1077.84 2109.64,1077.87 2114.28,1077.99 2118.93,1078.23 2123.57,1078.5 2128.22,1078.73 2132.86,1078.88 2137.51,1078.96 2142.15,1079 2146.8,1079.01 2151.44,1079.01 2156.09,1079.02 2160.73,1079.02 2165.38,1079.02 2170.02,1079.02 2174.67,1079.02 2179.31,1079.02 2183.96,1079.02 2188.6,1079.02 2193.25,1079.02 2197.89,1079.02 2202.53,1079.02 2207.18,1079.02 2211.82,1079.02 2216.47,1079.02 2221.11,1079.02 2225.76,1079.02 2230.4,1079.01 2235.05,1079.01 2239.69,1078.99 2244.34,1078.94 2248.98,1078.83 2253.63,1078.65 2258.27,1078.41 2262.92,1078.15 2267.56,1077.98 2272.21,1077.98 2276.85,1078.13 2281.5,1078.38 2286.14,1078.64 2290.78,1078.82 2295.43,1078.93 2300.07,1078.99 2304.72,1079.01 2309.36,1079.01 2314.01,1079 "/>
<polyline clip-path="url(#clip243)" style="stroke:#ff0000; stroke-linecap:round; stroke-linejoin:round; stroke-width:4; stroke-opacity:1; fill:none" points="1500.38,2122.22 1500.38,-921.264 "/>
<path clip-path="url(#clip240)" d="M1394.64 282.569 L1618.72 282.569 L1618.72 127.049 L1394.64 127.049  Z" fill="#ffffff" fill-rule="evenodd" fill-opacity="1"/>
<polyline clip-path="url(#clip240)" style="stroke:#000000; stroke-linecap:round; stroke-linejoin:round; stroke-width:4; stroke-opacity:1; fill:none" points="1394.64,282.569 1618.72,282.569 1618.72,127.049 1394.64,127.049 1394.64,282.569 "/>
<polyline clip-path="url(#clip240)" style="stroke:#e69f00; stroke-linecap:round; stroke-linejoin:round; stroke-width:4; stroke-opacity:1; fill:none" points="1405.52,178.889 1470.84,178.889 "/>
<path clip-path="url(#clip240)" d="M1495.57 198.576 Q1493.76 203.206 1492.05 204.618 Q1490.34 206.03 1487.47 206.03 L1484.06 206.03 L1484.06 202.465 L1486.56 202.465 Q1488.32 202.465 1489.3 201.632 Q1490.27 200.798 1491.45 197.696 L1492.21 195.752 L1481.73 170.243 L1486.24 170.243 L1494.34 190.521 L1502.44 170.243 L1506.96 170.243 L1495.57 198.576 Z" fill="#000000" fill-rule="nonzero" fill-opacity="1" /><path clip-path="url(#clip240)" d="M1514.25 192.233 L1521.89 192.233 L1521.89 165.868 L1513.58 167.535 L1513.58 163.275 L1521.84 161.609 L1526.52 161.609 L1526.52 192.233 L1534.16 192.233 L1534.16 196.169 L1514.25 196.169 L1514.25 192.233 Z" fill="#000000" fill-rule="nonzero" fill-opacity="1" /><polyline clip-path="url(#clip240)" style="stroke:#ff0000; stroke-linecap:round; stroke-linejoin:round; stroke-width:4; stroke-opacity:1; fill:none" points="1405.52,230.729 1470.84,230.729 "/>
<path clip-path="url(#clip240)" d="M1502.07 227.06 Q1503.67 224.189 1505.89 222.824 Q1508.12 221.458 1511.12 221.458 Q1515.18 221.458 1517.37 224.305 Q1519.57 227.129 1519.57 232.361 L1519.57 248.009 L1515.29 248.009 L1515.29 232.499 Q1515.29 228.773 1513.97 226.967 Q1512.65 225.162 1509.94 225.162 Q1506.63 225.162 1504.71 227.361 Q1502.79 229.56 1502.79 233.356 L1502.79 248.009 L1498.51 248.009 L1498.51 232.499 Q1498.51 228.749 1497.19 226.967 Q1495.87 225.162 1493.12 225.162 Q1489.85 225.162 1487.93 227.384 Q1486.01 229.583 1486.01 233.356 L1486.01 248.009 L1481.73 248.009 L1481.73 222.083 L1486.01 222.083 L1486.01 226.111 Q1487.47 223.726 1489.5 222.592 Q1491.54 221.458 1494.34 221.458 Q1497.17 221.458 1499.13 222.893 Q1501.12 224.328 1502.07 227.06 Z" fill="#000000" fill-rule="nonzero" fill-opacity="1" /><path clip-path="url(#clip240)" d="M1550.24 233.981 L1550.24 236.064 L1530.66 236.064 Q1530.94 240.462 1533.3 242.777 Q1535.68 245.069 1539.92 245.069 Q1542.37 245.069 1544.67 244.467 Q1546.98 243.865 1549.25 242.661 L1549.25 246.689 Q1546.96 247.661 1544.55 248.171 Q1542.14 248.68 1539.67 248.68 Q1533.46 248.68 1529.83 245.069 Q1526.22 241.458 1526.22 235.3 Q1526.22 228.935 1529.64 225.208 Q1533.09 221.458 1538.93 221.458 Q1544.16 221.458 1547.19 224.837 Q1550.24 228.194 1550.24 233.981 M1545.99 232.731 Q1545.94 229.236 1544.02 227.152 Q1542.12 225.069 1538.97 225.069 Q1535.41 225.069 1533.25 227.083 Q1531.12 229.097 1530.8 232.754 L1545.99 232.731 Z" fill="#000000" fill-rule="nonzero" fill-opacity="1" /><path clip-path="url(#clip240)" d="M1569.02 234.976 Q1563.86 234.976 1561.86 236.157 Q1559.87 237.337 1559.87 240.185 Q1559.87 242.453 1561.36 243.796 Q1562.86 245.115 1565.43 245.115 Q1568.97 245.115 1571.1 242.615 Q1573.25 240.092 1573.25 235.925 L1573.25 234.976 L1569.02 234.976 M1577.51 233.217 L1577.51 248.009 L1573.25 248.009 L1573.25 244.073 Q1571.8 246.435 1569.62 247.569 Q1567.44 248.68 1564.3 248.68 Q1560.31 248.68 1557.95 246.458 Q1555.61 244.212 1555.61 240.462 Q1555.61 236.087 1558.53 233.865 Q1561.47 231.643 1567.28 231.643 L1573.25 231.643 L1573.25 231.226 Q1573.25 228.287 1571.31 226.689 Q1569.39 225.069 1565.89 225.069 Q1563.67 225.069 1561.56 225.601 Q1559.46 226.134 1557.51 227.199 L1557.51 223.263 Q1559.85 222.361 1562.05 221.921 Q1564.25 221.458 1566.33 221.458 Q1571.96 221.458 1574.74 224.375 Q1577.51 227.291 1577.51 233.217 Z" fill="#000000" fill-rule="nonzero" fill-opacity="1" /><path clip-path="url(#clip240)" d="M1607.84 232.361 L1607.84 248.009 L1603.58 248.009 L1603.58 232.499 Q1603.58 228.819 1602.14 226.99 Q1600.71 225.162 1597.84 225.162 Q1594.39 225.162 1592.4 227.361 Q1590.41 229.56 1590.41 233.356 L1590.41 248.009 L1586.12 248.009 L1586.12 222.083 L1590.41 222.083 L1590.41 226.111 Q1591.93 223.773 1593.99 222.615 Q1596.08 221.458 1598.79 221.458 Q1603.25 221.458 1605.55 224.236 Q1607.84 226.99 1607.84 232.361 Z" fill="#000000" fill-rule="nonzero" fill-opacity="1" /><path clip-path="url(#clip240)" d="M2573 1107.73 L3552.76 1107.73 L3552.76 93.2321 L2573 93.2321  Z" fill="#ffffff" fill-rule="evenodd" fill-opacity="1"/>
<defs>
  <clipPath id="clip244">
    <rect x="2572" y="93" width="981" height="1015"/>
  </clipPath>
</defs>
<polyline clip-path="url(#clip244)" style="stroke:#000000; stroke-linecap:round; stroke-linejoin:round; stroke-width:2; stroke-opacity:0.1; fill:none" points="2625.34,1107.73 2625.34,93.2321 "/>
<polyline clip-path="url(#clip244)" style="stroke:#000000; stroke-linecap:round; stroke-linejoin:round; stroke-width:2; stroke-opacity:0.1; fill:none" points="2877.01,1107.73 2877.01,93.2321 "/>
<polyline clip-path="url(#clip244)" style="stroke:#000000; stroke-linecap:round; stroke-linejoin:round; stroke-width:2; stroke-opacity:0.1; fill:none" points="3128.67,1107.73 3128.67,93.2321 "/>
<polyline clip-path="url(#clip244)" style="stroke:#000000; stroke-linecap:round; stroke-linejoin:round; stroke-width:2; stroke-opacity:0.1; fill:none" points="3380.33,1107.73 3380.33,93.2321 "/>
<polyline clip-path="url(#clip240)" style="stroke:#000000; stroke-linecap:round; stroke-linejoin:round; stroke-width:4; stroke-opacity:1; fill:none" points="2573,1107.73 3552.76,1107.73 "/>
<polyline clip-path="url(#clip240)" style="stroke:#000000; stroke-linecap:round; stroke-linejoin:round; stroke-width:4; stroke-opacity:1; fill:none" points="2625.34,1107.73 2625.34,1088.83 "/>
<polyline clip-path="url(#clip240)" style="stroke:#000000; stroke-linecap:round; stroke-linejoin:round; stroke-width:4; stroke-opacity:1; fill:none" points="2877.01,1107.73 2877.01,1088.83 "/>
<polyline clip-path="url(#clip240)" style="stroke:#000000; stroke-linecap:round; stroke-linejoin:round; stroke-width:4; stroke-opacity:1; fill:none" points="3128.67,1107.73 3128.67,1088.83 "/>
<polyline clip-path="url(#clip240)" style="stroke:#000000; stroke-linecap:round; stroke-linejoin:round; stroke-width:4; stroke-opacity:1; fill:none" points="3380.33,1107.73 3380.33,1088.83 "/>
<path clip-path="url(#clip240)" d="M2587.65 1148.25 Q2584.04 1148.25 2582.21 1151.81 Q2580.4 1155.35 2580.4 1162.48 Q2580.4 1169.59 2582.21 1173.15 Q2584.04 1176.7 2587.65 1176.7 Q2591.28 1176.7 2593.09 1173.15 Q2594.92 1169.59 2594.92 1162.48 Q2594.92 1155.35 2593.09 1151.81 Q2591.28 1148.25 2587.65 1148.25 M2587.65 1144.54 Q2593.46 1144.54 2596.51 1149.15 Q2599.59 1153.73 2599.59 1162.48 Q2599.59 1171.21 2596.51 1175.82 Q2593.46 1180.4 2587.65 1180.4 Q2581.84 1180.4 2578.76 1175.82 Q2575.7 1171.21 2575.7 1162.48 Q2575.7 1153.73 2578.76 1149.15 Q2581.84 1144.54 2587.65 1144.54 Z" fill="#000000" fill-rule="nonzero" fill-opacity="1" /><path clip-path="url(#clip240)" d="M2607.81 1173.85 L2612.69 1173.85 L2612.69 1179.73 L2607.81 1179.73 L2607.81 1173.85 Z" fill="#000000" fill-rule="nonzero" fill-opacity="1" /><path clip-path="url(#clip240)" d="M2632.88 1148.25 Q2629.27 1148.25 2627.44 1151.81 Q2625.63 1155.35 2625.63 1162.48 Q2625.63 1169.59 2627.44 1173.15 Q2629.27 1176.7 2632.88 1176.7 Q2636.51 1176.7 2638.32 1173.15 Q2640.15 1169.59 2640.15 1162.48 Q2640.15 1155.35 2638.32 1151.81 Q2636.51 1148.25 2632.88 1148.25 M2632.88 1144.54 Q2638.69 1144.54 2641.74 1149.15 Q2644.82 1153.73 2644.82 1162.48 Q2644.82 1171.21 2641.74 1175.82 Q2638.69 1180.4 2632.88 1180.4 Q2627.07 1180.4 2623.99 1175.82 Q2620.93 1171.21 2620.93 1162.48 Q2620.93 1153.73 2623.99 1149.15 Q2627.07 1144.54 2632.88 1144.54 Z" fill="#000000" fill-rule="nonzero" fill-opacity="1" /><path clip-path="url(#clip240)" d="M2663.04 1148.25 Q2659.43 1148.25 2657.6 1151.81 Q2655.8 1155.35 2655.8 1162.48 Q2655.8 1169.59 2657.6 1173.15 Q2659.43 1176.7 2663.04 1176.7 Q2666.68 1176.7 2668.48 1173.15 Q2670.31 1169.59 2670.31 1162.48 Q2670.31 1155.35 2668.48 1151.81 Q2666.68 1148.25 2663.04 1148.25 M2663.04 1144.54 Q2668.85 1144.54 2671.91 1149.15 Q2674.99 1153.73 2674.99 1162.48 Q2674.99 1171.21 2671.91 1175.82 Q2668.85 1180.4 2663.04 1180.4 Q2657.23 1180.4 2654.15 1175.82 Q2651.1 1171.21 2651.1 1162.48 Q2651.1 1153.73 2654.15 1149.15 Q2657.23 1144.54 2663.04 1144.54 Z" fill="#000000" fill-rule="nonzero" fill-opacity="1" /><path clip-path="url(#clip240)" d="M2840.11 1148.25 Q2836.5 1148.25 2834.67 1151.81 Q2832.86 1155.35 2832.86 1162.48 Q2832.86 1169.59 2834.67 1173.15 Q2836.5 1176.7 2840.11 1176.7 Q2843.74 1176.7 2845.55 1173.15 Q2847.38 1169.59 2847.38 1162.48 Q2847.38 1155.35 2845.55 1151.81 Q2843.74 1148.25 2840.11 1148.25 M2840.11 1144.54 Q2845.92 1144.54 2848.97 1149.15 Q2852.05 1153.73 2852.05 1162.48 Q2852.05 1171.21 2848.97 1175.82 Q2845.92 1180.4 2840.11 1180.4 Q2834.3 1180.4 2831.22 1175.82 Q2828.16 1171.21 2828.16 1162.48 Q2828.16 1153.73 2831.22 1149.15 Q2834.3 1144.54 2840.11 1144.54 Z" fill="#000000" fill-rule="nonzero" fill-opacity="1" /><path clip-path="url(#clip240)" d="M2860.27 1173.85 L2865.15 1173.85 L2865.15 1179.73 L2860.27 1179.73 L2860.27 1173.85 Z" fill="#000000" fill-rule="nonzero" fill-opacity="1" /><path clip-path="url(#clip240)" d="M2885.34 1148.25 Q2881.73 1148.25 2879.9 1151.81 Q2878.09 1155.35 2878.09 1162.48 Q2878.09 1169.59 2879.9 1173.15 Q2881.73 1176.7 2885.34 1176.7 Q2888.97 1176.7 2890.78 1173.15 Q2892.61 1169.59 2892.61 1162.48 Q2892.61 1155.35 2890.78 1151.81 Q2888.97 1148.25 2885.34 1148.25 M2885.34 1144.54 Q2891.15 1144.54 2894.21 1149.15 Q2897.28 1153.73 2897.28 1162.48 Q2897.28 1171.21 2894.21 1175.82 Q2891.15 1180.4 2885.34 1180.4 Q2879.53 1180.4 2876.45 1175.82 Q2873.4 1171.21 2873.4 1162.48 Q2873.4 1153.73 2876.45 1149.15 Q2879.53 1144.54 2885.34 1144.54 Z" fill="#000000" fill-rule="nonzero" fill-opacity="1" /><path clip-path="url(#clip240)" d="M2909.53 1175.79 L2925.85 1175.79 L2925.85 1179.73 L2903.9 1179.73 L2903.9 1175.79 Q2906.57 1173.04 2911.15 1168.41 Q2915.76 1163.76 2916.94 1162.41 Q2919.18 1159.89 2920.06 1158.15 Q2920.96 1156.39 2920.96 1154.7 Q2920.96 1151.95 2919.02 1150.21 Q2917.1 1148.48 2914 1148.48 Q2911.8 1148.48 2909.34 1149.24 Q2906.91 1150.01 2904.14 1151.56 L2904.14 1146.83 Q2906.96 1145.7 2909.41 1145.12 Q2911.87 1144.54 2913.9 1144.54 Q2919.27 1144.54 2922.47 1147.23 Q2925.66 1149.91 2925.66 1154.4 Q2925.66 1156.53 2924.85 1158.45 Q2924.07 1160.35 2921.96 1162.95 Q2921.38 1163.62 2918.28 1166.83 Q2915.18 1170.03 2909.53 1175.79 Z" fill="#000000" fill-rule="nonzero" fill-opacity="1" /><path clip-path="url(#clip240)" d="M3090.73 1148.25 Q3087.12 1148.25 3085.29 1151.81 Q3083.48 1155.35 3083.48 1162.48 Q3083.48 1169.59 3085.29 1173.15 Q3087.12 1176.7 3090.73 1176.7 Q3094.36 1176.7 3096.17 1173.15 Q3098 1169.59 3098 1162.48 Q3098 1155.35 3096.17 1151.81 Q3094.36 1148.25 3090.73 1148.25 M3090.73 1144.54 Q3096.54 1144.54 3099.59 1149.15 Q3102.67 1153.73 3102.67 1162.48 Q3102.67 1171.21 3099.59 1175.82 Q3096.54 1180.4 3090.73 1180.4 Q3084.92 1180.4 3081.84 1175.82 Q3078.78 1171.21 3078.78 1162.48 Q3078.78 1153.73 3081.84 1149.15 Q3084.92 1144.54 3090.73 1144.54 Z" fill="#000000" fill-rule="nonzero" fill-opacity="1" /><path clip-path="url(#clip240)" d="M3110.89 1173.85 L3115.78 1173.85 L3115.78 1179.73 L3110.89 1179.73 L3110.89 1173.85 Z" fill="#000000" fill-rule="nonzero" fill-opacity="1" /><path clip-path="url(#clip240)" d="M3135.96 1148.25 Q3132.35 1148.25 3130.52 1151.81 Q3128.72 1155.35 3128.72 1162.48 Q3128.72 1169.59 3130.52 1173.15 Q3132.35 1176.7 3135.96 1176.7 Q3139.59 1176.7 3141.4 1173.15 Q3143.23 1169.59 3143.23 1162.48 Q3143.23 1155.35 3141.4 1151.81 Q3139.59 1148.25 3135.96 1148.25 M3135.96 1144.54 Q3141.77 1144.54 3144.83 1149.15 Q3147.9 1153.73 3147.9 1162.48 Q3147.9 1171.21 3144.83 1175.82 Q3141.77 1180.4 3135.96 1180.4 Q3130.15 1180.4 3127.07 1175.82 Q3124.02 1171.21 3124.02 1162.48 Q3124.02 1153.73 3127.07 1149.15 Q3130.15 1144.54 3135.96 1144.54 Z" fill="#000000" fill-rule="nonzero" fill-opacity="1" /><path clip-path="url(#clip240)" d="M3168.97 1149.24 L3157.16 1167.69 L3168.97 1167.69 L3168.97 1149.24 M3167.74 1145.17 L3173.62 1145.17 L3173.62 1167.69 L3178.55 1167.69 L3178.55 1171.58 L3173.62 1171.58 L3173.62 1179.73 L3168.97 1179.73 L3168.97 1171.58 L3153.37 1171.58 L3153.37 1167.07 L3167.74 1145.17 Z" fill="#000000" fill-rule="nonzero" fill-opacity="1" /><path clip-path="url(#clip240)" d="M3342.55 1148.25 Q3338.94 1148.25 3337.11 1151.81 Q3335.31 1155.35 3335.31 1162.48 Q3335.31 1169.59 3337.11 1173.15 Q3338.94 1176.7 3342.55 1176.7 Q3346.19 1176.7 3347.99 1173.15 Q3349.82 1169.59 3349.82 1162.48 Q3349.82 1155.35 3347.99 1151.81 Q3346.19 1148.25 3342.55 1148.25 M3342.55 1144.54 Q3348.36 1144.54 3351.42 1149.15 Q3354.5 1153.73 3354.5 1162.48 Q3354.5 1171.21 3351.42 1175.82 Q3348.36 1180.4 3342.55 1180.4 Q3336.74 1180.4 3333.66 1175.82 Q3330.61 1171.21 3330.61 1162.48 Q3330.61 1153.73 3333.66 1149.15 Q3336.74 1144.54 3342.55 1144.54 Z" fill="#000000" fill-rule="nonzero" fill-opacity="1" /><path clip-path="url(#clip240)" d="M3362.72 1173.85 L3367.6 1173.85 L3367.6 1179.73 L3362.72 1179.73 L3362.72 1173.85 Z" fill="#000000" fill-rule="nonzero" fill-opacity="1" /><path clip-path="url(#clip240)" d="M3387.78 1148.25 Q3384.17 1148.25 3382.34 1151.81 Q3380.54 1155.35 3380.54 1162.48 Q3380.54 1169.59 3382.34 1173.15 Q3384.17 1176.7 3387.78 1176.7 Q3391.42 1176.7 3393.22 1173.15 Q3395.05 1169.59 3395.05 1162.48 Q3395.05 1155.35 3393.22 1151.81 Q3391.42 1148.25 3387.78 1148.25 M3387.78 1144.54 Q3393.59 1144.54 3396.65 1149.15 Q3399.73 1153.73 3399.73 1162.48 Q3399.73 1171.21 3396.65 1175.82 Q3393.59 1180.4 3387.78 1180.4 Q3381.97 1180.4 3378.9 1175.82 Q3375.84 1171.21 3375.84 1162.48 Q3375.84 1153.73 3378.9 1149.15 Q3381.97 1144.54 3387.78 1144.54 Z" fill="#000000" fill-rule="nonzero" fill-opacity="1" /><path clip-path="url(#clip240)" d="M3418.53 1160.58 Q3415.38 1160.58 3413.53 1162.74 Q3411.7 1164.89 3411.7 1168.64 Q3411.7 1172.37 3413.53 1174.54 Q3415.38 1176.7 3418.53 1176.7 Q3421.67 1176.7 3423.5 1174.54 Q3425.35 1172.37 3425.35 1168.64 Q3425.35 1164.89 3423.5 1162.74 Q3421.67 1160.58 3418.53 1160.58 M3427.81 1145.93 L3427.81 1150.19 Q3426.05 1149.36 3424.24 1148.92 Q3422.46 1148.48 3420.7 1148.48 Q3416.07 1148.48 3413.62 1151.6 Q3411.19 1154.73 3410.84 1161.05 Q3412.21 1159.03 3414.27 1157.97 Q3416.33 1156.88 3418.8 1156.88 Q3424.01 1156.88 3427.02 1160.05 Q3430.05 1163.2 3430.05 1168.64 Q3430.05 1173.96 3426.9 1177.18 Q3423.76 1180.4 3418.53 1180.4 Q3412.53 1180.4 3409.36 1175.82 Q3406.19 1171.21 3406.19 1162.48 Q3406.19 1154.29 3410.08 1149.43 Q3413.97 1144.54 3420.52 1144.54 Q3422.28 1144.54 3424.06 1144.89 Q3425.86 1145.24 3427.81 1145.93 Z" fill="#000000" fill-rule="nonzero" fill-opacity="1" /><polyline clip-path="url(#clip244)" style="stroke:#000000; stroke-linecap:round; stroke-linejoin:round; stroke-width:2; stroke-opacity:0.1; fill:none" points="2573,1079.02 3552.76,1079.02 "/>
<polyline clip-path="url(#clip244)" style="stroke:#000000; stroke-linecap:round; stroke-linejoin:round; stroke-width:2; stroke-opacity:0.1; fill:none" points="2573,835.289 3552.76,835.289 "/>
<polyline clip-path="url(#clip244)" style="stroke:#000000; stroke-linecap:round; stroke-linejoin:round; stroke-width:2; stroke-opacity:0.1; fill:none" points="2573,591.563 3552.76,591.563 "/>
<polyline clip-path="url(#clip244)" style="stroke:#000000; stroke-linecap:round; stroke-linejoin:round; stroke-width:2; stroke-opacity:0.1; fill:none" points="2573,347.837 3552.76,347.837 "/>
<polyline clip-path="url(#clip244)" style="stroke:#000000; stroke-linecap:round; stroke-linejoin:round; stroke-width:2; stroke-opacity:0.1; fill:none" points="2573,104.11 3552.76,104.11 "/>
<polyline clip-path="url(#clip240)" style="stroke:#000000; stroke-linecap:round; stroke-linejoin:round; stroke-width:4; stroke-opacity:1; fill:none" points="2573,1107.73 2573,93.2321 "/>
<polyline clip-path="url(#clip240)" style="stroke:#000000; stroke-linecap:round; stroke-linejoin:round; stroke-width:4; stroke-opacity:1; fill:none" points="2573,1079.02 2591.89,1079.02 "/>
<polyline clip-path="url(#clip240)" style="stroke:#000000; stroke-linecap:round; stroke-linejoin:round; stroke-width:4; stroke-opacity:1; fill:none" points="2573,835.289 2591.89,835.289 "/>
<polyline clip-path="url(#clip240)" style="stroke:#000000; stroke-linecap:round; stroke-linejoin:round; stroke-width:4; stroke-opacity:1; fill:none" points="2573,591.563 2591.89,591.563 "/>
<polyline clip-path="url(#clip240)" style="stroke:#000000; stroke-linecap:round; stroke-linejoin:round; stroke-width:4; stroke-opacity:1; fill:none" points="2573,347.837 2591.89,347.837 "/>
<polyline clip-path="url(#clip240)" style="stroke:#000000; stroke-linecap:round; stroke-linejoin:round; stroke-width:4; stroke-opacity:1; fill:none" points="2573,104.11 2591.89,104.11 "/>
<path clip-path="url(#clip240)" d="M2507.05 1064.81 Q2503.44 1064.81 2501.61 1068.38 Q2499.81 1071.92 2499.81 1079.05 Q2499.81 1086.16 2501.61 1089.72 Q2503.44 1093.26 2507.05 1093.26 Q2510.69 1093.26 2512.49 1089.72 Q2514.32 1086.16 2514.32 1079.05 Q2514.32 1071.92 2512.49 1068.38 Q2510.69 1064.81 2507.05 1064.81 M2507.05 1061.11 Q2512.86 1061.11 2515.92 1065.72 Q2519 1070.3 2519 1079.05 Q2519 1087.78 2515.92 1092.38 Q2512.86 1096.97 2507.05 1096.97 Q2501.24 1096.97 2498.16 1092.38 Q2495.11 1087.78 2495.11 1079.05 Q2495.11 1070.3 2498.16 1065.72 Q2501.24 1061.11 2507.05 1061.11 Z" fill="#000000" fill-rule="nonzero" fill-opacity="1" /><path clip-path="url(#clip240)" d="M2437.54 848.634 L2445.18 848.634 L2445.18 822.269 L2436.87 823.935 L2436.87 819.676 L2445.13 818.009 L2449.81 818.009 L2449.81 848.634 L2457.45 848.634 L2457.45 852.569 L2437.54 852.569 L2437.54 848.634 Z" fill="#000000" fill-rule="nonzero" fill-opacity="1" /><path clip-path="url(#clip240)" d="M2476.89 821.088 Q2473.28 821.088 2471.45 824.653 Q2469.64 828.194 2469.64 835.324 Q2469.64 842.43 2471.45 845.995 Q2473.28 849.537 2476.89 849.537 Q2480.52 849.537 2482.33 845.995 Q2484.16 842.43 2484.16 835.324 Q2484.16 828.194 2482.33 824.653 Q2480.52 821.088 2476.89 821.088 M2476.89 817.384 Q2482.7 817.384 2485.76 821.991 Q2488.83 826.574 2488.83 835.324 Q2488.83 844.051 2485.76 848.657 Q2482.7 853.241 2476.89 853.241 Q2471.08 853.241 2468 848.657 Q2464.95 844.051 2464.95 835.324 Q2464.95 826.574 2468 821.991 Q2471.08 817.384 2476.89 817.384 Z" fill="#000000" fill-rule="nonzero" fill-opacity="1" /><path clip-path="url(#clip240)" d="M2507.05 821.088 Q2503.44 821.088 2501.61 824.653 Q2499.81 828.194 2499.81 835.324 Q2499.81 842.43 2501.61 845.995 Q2503.44 849.537 2507.05 849.537 Q2510.69 849.537 2512.49 845.995 Q2514.32 842.43 2514.32 835.324 Q2514.32 828.194 2512.49 824.653 Q2510.69 821.088 2507.05 821.088 M2507.05 817.384 Q2512.86 817.384 2515.92 821.991 Q2519 826.574 2519 835.324 Q2519 844.051 2515.92 848.657 Q2512.86 853.241 2507.05 853.241 Q2501.24 853.241 2498.16 848.657 Q2495.11 844.051 2495.11 835.324 Q2495.11 826.574 2498.16 821.991 Q2501.24 817.384 2507.05 817.384 Z" fill="#000000" fill-rule="nonzero" fill-opacity="1" /><path clip-path="url(#clip240)" d="M2440.76 604.908 L2457.08 604.908 L2457.08 608.843 L2435.13 608.843 L2435.13 604.908 Q2437.79 602.153 2442.38 597.524 Q2446.98 592.871 2448.16 591.528 Q2450.41 589.005 2451.29 587.269 Q2452.19 585.51 2452.19 583.82 Q2452.19 581.065 2450.25 579.329 Q2448.33 577.593 2445.22 577.593 Q2443.02 577.593 2440.57 578.357 Q2438.14 579.121 2435.36 580.672 L2435.36 575.95 Q2438.19 574.815 2440.64 574.237 Q2443.09 573.658 2445.13 573.658 Q2450.5 573.658 2453.7 576.343 Q2456.89 579.028 2456.89 583.519 Q2456.89 585.649 2456.08 587.57 Q2455.29 589.468 2453.19 592.061 Q2452.61 592.732 2449.51 595.949 Q2446.4 599.144 2440.76 604.908 Z" fill="#000000" fill-rule="nonzero" fill-opacity="1" /><path clip-path="url(#clip240)" d="M2476.89 577.362 Q2473.28 577.362 2471.45 580.926 Q2469.64 584.468 2469.64 591.598 Q2469.64 598.704 2471.45 602.269 Q2473.28 605.811 2476.89 605.811 Q2480.52 605.811 2482.33 602.269 Q2484.16 598.704 2484.16 591.598 Q2484.16 584.468 2482.33 580.926 Q2480.52 577.362 2476.89 577.362 M2476.89 573.658 Q2482.7 573.658 2485.76 578.264 Q2488.83 582.848 2488.83 591.598 Q2488.83 600.324 2485.76 604.931 Q2482.7 609.514 2476.89 609.514 Q2471.08 609.514 2468 604.931 Q2464.95 600.324 2464.95 591.598 Q2464.95 582.848 2468 578.264 Q2471.08 573.658 2476.89 573.658 Z" fill="#000000" fill-rule="nonzero" fill-opacity="1" /><path clip-path="url(#clip240)" d="M2507.05 577.362 Q2503.44 577.362 2501.61 580.926 Q2499.81 584.468 2499.81 591.598 Q2499.81 598.704 2501.61 602.269 Q2503.44 605.811 2507.05 605.811 Q2510.69 605.811 2512.49 602.269 Q2514.32 598.704 2514.32 591.598 Q2514.32 584.468 2512.49 580.926 Q2510.69 577.362 2507.05 577.362 M2507.05 573.658 Q2512.86 573.658 2515.92 578.264 Q2519 582.848 2519 591.598 Q2519 600.324 2515.92 604.931 Q2512.86 609.514 2507.05 609.514 Q2501.24 609.514 2498.16 604.931 Q2495.11 600.324 2495.11 591.598 Q2495.11 582.848 2498.16 578.264 Q2501.24 573.658 2507.05 573.658 Z" fill="#000000" fill-rule="nonzero" fill-opacity="1" /><path clip-path="url(#clip240)" d="M2450.89 346.482 Q2454.25 347.2 2456.13 349.468 Q2458.02 351.737 2458.02 355.07 Q2458.02 360.186 2454.51 362.987 Q2450.99 365.788 2444.51 365.788 Q2442.33 365.788 2440.02 365.348 Q2437.72 364.931 2435.27 364.075 L2435.27 359.561 Q2437.21 360.695 2439.53 361.274 Q2441.84 361.853 2444.37 361.853 Q2448.77 361.853 2451.06 360.117 Q2453.37 358.38 2453.37 355.07 Q2453.37 352.015 2451.22 350.302 Q2449.09 348.566 2445.27 348.566 L2441.24 348.566 L2441.24 344.723 L2445.46 344.723 Q2448.9 344.723 2450.73 343.357 Q2452.56 341.969 2452.56 339.376 Q2452.56 336.714 2450.66 335.302 Q2448.79 333.867 2445.27 333.867 Q2443.35 333.867 2441.15 334.283 Q2438.95 334.7 2436.31 335.58 L2436.31 331.413 Q2438.97 330.672 2441.29 330.302 Q2443.63 329.932 2445.69 329.932 Q2451.01 329.932 2454.11 332.362 Q2457.21 334.769 2457.21 338.89 Q2457.21 341.76 2455.57 343.751 Q2453.93 345.718 2450.89 346.482 Z" fill="#000000" fill-rule="nonzero" fill-opacity="1" /><path clip-path="url(#clip240)" d="M2476.89 333.635 Q2473.28 333.635 2471.45 337.2 Q2469.64 340.742 2469.64 347.871 Q2469.64 354.978 2471.45 358.542 Q2473.28 362.084 2476.89 362.084 Q2480.52 362.084 2482.33 358.542 Q2484.16 354.978 2484.16 347.871 Q2484.16 340.742 2482.33 337.2 Q2480.52 333.635 2476.89 333.635 M2476.89 329.932 Q2482.7 329.932 2485.76 334.538 Q2488.83 339.121 2488.83 347.871 Q2488.83 356.598 2485.76 361.205 Q2482.7 365.788 2476.89 365.788 Q2471.08 365.788 2468 361.205 Q2464.95 356.598 2464.95 347.871 Q2464.95 339.121 2468 334.538 Q2471.08 329.932 2476.89 329.932 Z" fill="#000000" fill-rule="nonzero" fill-opacity="1" /><path clip-path="url(#clip240)" d="M2507.05 333.635 Q2503.44 333.635 2501.61 337.2 Q2499.81 340.742 2499.81 347.871 Q2499.81 354.978 2501.61 358.542 Q2503.44 362.084 2507.05 362.084 Q2510.69 362.084 2512.49 358.542 Q2514.32 354.978 2514.32 347.871 Q2514.32 340.742 2512.49 337.2 Q2510.69 333.635 2507.05 333.635 M2507.05 329.932 Q2512.86 329.932 2515.92 334.538 Q2519 339.121 2519 347.871 Q2519 356.598 2515.92 361.205 Q2512.86 365.788 2507.05 365.788 Q2501.24 365.788 2498.16 361.205 Q2495.11 356.598 2495.11 347.871 Q2495.11 339.121 2498.16 334.538 Q2501.24 329.932 2507.05 329.932 Z" fill="#000000" fill-rule="nonzero" fill-opacity="1" /><path clip-path="url(#clip240)" d="M2449.58 90.9042 L2437.77 109.353 L2449.58 109.353 L2449.58 90.9042 M2448.35 86.8301 L2454.23 86.8301 L2454.23 109.353 L2459.16 109.353 L2459.16 113.242 L2454.23 113.242 L2454.23 121.39 L2449.58 121.39 L2449.58 113.242 L2433.97 113.242 L2433.97 108.728 L2448.35 86.8301 Z" fill="#000000" fill-rule="nonzero" fill-opacity="1" /><path clip-path="url(#clip240)" d="M2476.89 89.9088 Q2473.28 89.9088 2471.45 93.4736 Q2469.64 97.0153 2469.64 104.145 Q2469.64 111.251 2471.45 114.816 Q2473.28 118.358 2476.89 118.358 Q2480.52 118.358 2482.33 114.816 Q2484.16 111.251 2484.16 104.145 Q2484.16 97.0153 2482.33 93.4736 Q2480.52 89.9088 2476.89 89.9088 M2476.89 86.2051 Q2482.7 86.2051 2485.76 90.8116 Q2488.83 95.3949 2488.83 104.145 Q2488.83 112.872 2485.76 117.478 Q2482.7 122.061 2476.89 122.061 Q2471.08 122.061 2468 117.478 Q2464.95 112.872 2464.95 104.145 Q2464.95 95.3949 2468 90.8116 Q2471.08 86.2051 2476.89 86.2051 Z" fill="#000000" fill-rule="nonzero" fill-opacity="1" /><path clip-path="url(#clip240)" d="M2507.05 89.9088 Q2503.44 89.9088 2501.61 93.4736 Q2499.81 97.0153 2499.81 104.145 Q2499.81 111.251 2501.61 114.816 Q2503.44 118.358 2507.05 118.358 Q2510.69 118.358 2512.49 114.816 Q2514.32 111.251 2514.32 104.145 Q2514.32 97.0153 2512.49 93.4736 Q2510.69 89.9088 2507.05 89.9088 M2507.05 86.2051 Q2512.86 86.2051 2515.92 90.8116 Q2519 95.3949 2519 104.145 Q2519 112.872 2515.92 117.478 Q2512.86 122.061 2507.05 122.061 Q2501.24 122.061 2498.16 117.478 Q2495.11 112.872 2495.11 104.145 Q2495.11 95.3949 2498.16 90.8116 Q2501.24 86.2051 2507.05 86.2051 Z" fill="#000000" fill-rule="nonzero" fill-opacity="1" /><path clip-path="url(#clip240)" d="M2814.7 45.1919 L2814.7 72.576 L2807.24 72.576 L2807.24 45.4349 Q2807.24 38.994 2804.73 35.7938 Q2802.22 32.5936 2797.2 32.5936 Q2791.16 32.5936 2787.68 36.4419 Q2784.19 40.2903 2784.19 46.9338 L2784.19 72.576 L2776.7 72.576 L2776.7 27.2059 L2784.19 27.2059 L2784.19 34.2544 Q2786.87 30.163 2790.47 28.1376 Q2794.12 26.1121 2798.86 26.1121 Q2806.68 26.1121 2810.69 30.9732 Q2814.7 35.7938 2814.7 45.1919 Z" fill="#000000" fill-rule="nonzero" fill-opacity="1" /><path clip-path="url(#clip240)" d="M2847.15 32.4315 Q2841.15 32.4315 2837.67 37.1306 Q2834.18 41.7891 2834.18 49.9314 Q2834.18 58.0738 2837.63 62.7728 Q2841.11 67.4314 2847.15 67.4314 Q2853.1 67.4314 2856.58 62.7323 Q2860.07 58.0333 2860.07 49.9314 Q2860.07 41.8701 2856.58 37.1711 Q2853.1 32.4315 2847.15 32.4315 M2847.15 26.1121 Q2856.87 26.1121 2862.42 32.4315 Q2867.97 38.7509 2867.97 49.9314 Q2867.97 61.0714 2862.42 67.4314 Q2856.87 73.7508 2847.15 73.7508 Q2837.38 73.7508 2831.83 67.4314 Q2826.32 61.0714 2826.32 49.9314 Q2826.32 38.7509 2831.83 32.4315 Q2837.38 26.1121 2847.15 26.1121 Z" fill="#000000" fill-rule="nonzero" fill-opacity="1" /><path clip-path="url(#clip240)" d="M2912.89 49.9314 Q2912.89 41.7081 2909.49 37.0496 Q2906.13 32.3505 2900.21 32.3505 Q2894.3 32.3505 2890.89 37.0496 Q2887.53 41.7081 2887.53 49.9314 Q2887.53 58.1548 2890.89 62.8538 Q2894.3 67.5124 2900.21 67.5124 Q2906.13 67.5124 2909.49 62.8538 Q2912.89 58.1548 2912.89 49.9314 M2887.53 34.0924 Q2889.88 30.0415 2893.45 28.0971 Q2897.05 26.1121 2902.03 26.1121 Q2910.3 26.1121 2915.44 32.6746 Q2920.63 39.2371 2920.63 49.9314 Q2920.63 60.6258 2915.44 67.1883 Q2910.3 73.7508 2902.03 73.7508 Q2897.05 73.7508 2893.45 71.8063 Q2889.88 69.8214 2887.53 65.7705 L2887.53 72.576 L2880.04 72.576 L2880.04 9.54393 L2887.53 9.54393 L2887.53 34.0924 Z" fill="#000000" fill-rule="nonzero" fill-opacity="1" /><path clip-path="url(#clip240)" d="M2961.91 28.5427 L2961.91 35.5912 Q2958.75 33.9709 2955.34 33.1607 Q2951.94 32.3505 2948.3 32.3505 Q2942.75 32.3505 2939.95 34.0519 Q2937.2 35.7533 2937.2 39.156 Q2937.2 41.7486 2939.18 43.2475 Q2941.17 44.7058 2947.16 46.0426 L2949.71 46.6097 Q2957.65 48.3111 2960.98 51.4303 Q2964.34 54.509 2964.34 60.0587 Q2964.34 66.3781 2959.31 70.0644 Q2954.33 73.7508 2945.58 73.7508 Q2941.94 73.7508 2937.97 73.0216 Q2934.04 72.3329 2929.66 70.9151 L2929.66 63.2184 Q2933.79 65.3654 2937.8 66.4591 Q2941.81 67.5124 2945.74 67.5124 Q2951.01 67.5124 2953.85 65.73 Q2956.68 63.9071 2956.68 60.6258 Q2956.68 57.5877 2954.62 55.9673 Q2952.59 54.3469 2945.66 52.8481 L2943.07 52.2405 Q2936.14 50.7821 2933.06 47.7845 Q2929.99 44.7463 2929.99 39.4801 Q2929.99 33.0797 2934.52 29.5959 Q2939.06 26.1121 2947.41 26.1121 Q2951.54 26.1121 2955.18 26.7198 Q2958.83 27.3274 2961.91 28.5427 Z" fill="#000000" fill-rule="nonzero" fill-opacity="1" /><path clip-path="url(#clip240)" d="M3003.55 34.9026 L3055.48 34.9026 L3055.48 41.7081 L3003.55 41.7081 L3003.55 34.9026 M3003.55 51.4303 L3055.48 51.4303 L3055.48 58.3168 L3003.55 58.3168 L3003.55 51.4303 Z" fill="#000000" fill-rule="nonzero" fill-opacity="1" /><path clip-path="url(#clip240)" d="M3100.93 65.6895 L3114.3 65.6895 L3114.3 19.5497 L3099.76 22.4663 L3099.76 15.0127 L3114.22 12.096 L3122.4 12.096 L3122.4 65.6895 L3135.77 65.6895 L3135.77 72.576 L3100.93 72.576 L3100.93 65.6895 Z" fill="#000000" fill-rule="nonzero" fill-opacity="1" /><path clip-path="url(#clip240)" d="M3169.8 17.4837 Q3163.48 17.4837 3160.28 23.7221 Q3157.12 29.92 3157.12 42.3968 Q3157.12 54.833 3160.28 61.0714 Q3163.48 67.2693 3169.8 67.2693 Q3176.16 67.2693 3179.32 61.0714 Q3182.52 54.833 3182.52 42.3968 Q3182.52 29.92 3179.32 23.7221 Q3176.16 17.4837 3169.8 17.4837 M3169.8 11.0023 Q3179.97 11.0023 3185.31 19.0636 Q3190.7 27.0843 3190.7 42.3968 Q3190.7 57.6687 3185.31 65.73 Q3179.97 73.7508 3169.8 73.7508 Q3159.63 73.7508 3154.24 65.73 Q3148.9 57.6687 3148.9 42.3968 Q3148.9 27.0843 3154.24 19.0636 Q3159.63 11.0023 3169.8 11.0023 Z" fill="#000000" fill-rule="nonzero" fill-opacity="1" /><path clip-path="url(#clip240)" d="M3222.58 17.4837 Q3216.26 17.4837 3213.06 23.7221 Q3209.9 29.92 3209.9 42.3968 Q3209.9 54.833 3213.06 61.0714 Q3216.26 67.2693 3222.58 67.2693 Q3228.94 67.2693 3232.1 61.0714 Q3235.3 54.833 3235.3 42.3968 Q3235.3 29.92 3232.1 23.7221 Q3228.94 17.4837 3222.58 17.4837 M3222.58 11.0023 Q3232.75 11.0023 3238.1 19.0636 Q3243.49 27.0843 3243.49 42.3968 Q3243.49 57.6687 3238.1 65.73 Q3232.75 73.7508 3222.58 73.7508 Q3212.42 73.7508 3207.03 65.73 Q3201.68 57.6687 3201.68 42.3968 Q3201.68 27.0843 3207.03 19.0636 Q3212.42 11.0023 3222.58 11.0023 Z" fill="#000000" fill-rule="nonzero" fill-opacity="1" /><path clip-path="url(#clip240)" d="M3275.37 17.4837 Q3269.05 17.4837 3265.85 23.7221 Q3262.69 29.92 3262.69 42.3968 Q3262.69 54.833 3265.85 61.0714 Q3269.05 67.2693 3275.37 67.2693 Q3281.73 67.2693 3284.89 61.0714 Q3288.09 54.833 3288.09 42.3968 Q3288.09 29.92 3284.89 23.7221 Q3281.73 17.4837 3275.37 17.4837 M3275.37 11.0023 Q3285.53 11.0023 3290.88 19.0636 Q3296.27 27.0843 3296.27 42.3968 Q3296.27 57.6687 3290.88 65.73 Q3285.53 73.7508 3275.37 73.7508 Q3265.2 73.7508 3259.81 65.73 Q3254.46 57.6687 3254.46 42.3968 Q3254.46 27.0843 3259.81 19.0636 Q3265.2 11.0023 3275.37 11.0023 Z" fill="#000000" fill-rule="nonzero" fill-opacity="1" /><path clip-path="url(#clip240)" d="M3328.15 17.4837 Q3321.83 17.4837 3318.63 23.7221 Q3315.47 29.92 3315.47 42.3968 Q3315.47 54.833 3318.63 61.0714 Q3321.83 67.2693 3328.15 67.2693 Q3334.51 67.2693 3337.67 61.0714 Q3340.87 54.833 3340.87 42.3968 Q3340.87 29.92 3337.67 23.7221 Q3334.51 17.4837 3328.15 17.4837 M3328.15 11.0023 Q3338.32 11.0023 3343.66 19.0636 Q3349.05 27.0843 3349.05 42.3968 Q3349.05 57.6687 3343.66 65.73 Q3338.32 73.7508 3328.15 73.7508 Q3317.98 73.7508 3312.59 65.73 Q3307.25 57.6687 3307.25 42.3968 Q3307.25 27.0843 3312.59 19.0636 Q3317.98 11.0023 3328.15 11.0023 Z" fill="#000000" fill-rule="nonzero" fill-opacity="1" /><polyline clip-path="url(#clip244)" style="stroke:#e69f00; stroke-linecap:round; stroke-linejoin:round; stroke-width:4; stroke-opacity:1; fill:none" points="2600.73,1078.73 2605.37,1075.15 2610.01,1048.22 2614.66,932.139 2619.3,649.735 2623.95,287.106 2628.59,121.944 2633.24,270.693 2637.88,536.56 2642.53,730.438 2647.17,836.525 2651.82,894.907 2656.46,930.081 2661.11,954.152 2665.75,971.8 2670.4,984.445 2675.04,995.073 2679.69,1005.77 2684.33,1013.62 2688.98,1017.05 2693.62,1019.68 2698.26,1023.06 2702.91,1025.57 2707.55,1028.53 2712.2,1034.58 2716.84,1041.73 2721.49,1045.62 2726.13,1045.73 2730.78,1044.7 2735.42,1044.09 2740.07,1044.32 2744.71,1045.97 2749.36,1049.01 2754,1052.21 2758.65,1053.99 2763.29,1053.56 2767.94,1052.2 2772.58,1051.6 2777.23,1051.33 2781.87,1050.92 2786.51,1051.62 2791.16,1053.81 2795.8,1056.2 2800.45,1058.11 2805.09,1059.36 2809.74,1059.78 2814.38,1060.32 2819.03,1061.76 2823.67,1063.11 2828.32,1063.44 2832.96,1063.31 2837.61,1063.33 2842.25,1063.66 2846.9,1064.41 2851.54,1065.03 2856.19,1064.6 2860.83,1063.08 2865.48,1061.44 2870.12,1061.49 2874.76,1063.9 2879.41,1066.64 2884.05,1068.41 2888.7,1069.85 2893.34,1071.33 2897.99,1072.38 2902.63,1072.67 2907.28,1072.53 2911.92,1072.09 2916.57,1071.19 2921.21,1070.22 2925.86,1070.06 2930.5,1071.05 2935.15,1072.54 2939.79,1073.55 2944.44,1073.72 2949.08,1073.33 2953.72,1072.62 2958.37,1072.2 2963.01,1072.92 2967.66,1074.45 2972.3,1075.77 2976.95,1076.41 2981.59,1076.19 2986.24,1075.29 2990.88,1074.43 2995.53,1074.09 3000.17,1073.97 3004.82,1073.7 3009.46,1073.53 3014.11,1073.7 3018.75,1073.93 3023.4,1074.39 3028.04,1075.3 3032.69,1076.32 3037.33,1077.17 3041.97,1077.77 3046.62,1078.14 3051.26,1078.25 3055.91,1077.99 3060.55,1077.21 3065.2,1075.96 3069.84,1074.84 3074.49,1074.59 3079.13,1074.98 3083.78,1075.3 3088.42,1075.35 3093.07,1075.57 3097.71,1076.31 3102.36,1077.27 3107,1077.96 3111.65,1078.22 3116.29,1078.33 3120.94,1078.53 3125.58,1078.69 3130.22,1078.58 3134.87,1078.38 3139.51,1078.28 3144.16,1078.24 3148.8,1078.12 3153.45,1077.99 3158.09,1077.92 3162.74,1077.87 3167.38,1077.84 3172.03,1077.86 3176.67,1078.06 3181.32,1078.45 3185.96,1078.8 3190.61,1078.97 3195.25,1079.01 3199.9,1079.01 3204.54,1078.98 3209.19,1078.85 3213.83,1078.52 3218.47,1078.07 3223.12,1077.84 3227.76,1078.02 3232.41,1078.29 3237.05,1078.34 3241.7,1078.34 3246.34,1078.51 3250.99,1078.65 3255.63,1078.54 3260.28,1078.39 3264.92,1078.48 3269.57,1078.73 3274.21,1078.93 3278.86,1079 3283.5,1079 3288.15,1078.92 3292.79,1078.63 3297.44,1078.09 3302.08,1077.73 3306.72,1077.98 3311.37,1078.52 3316.01,1078.85 3320.66,1078.89 3325.3,1078.71 3329.95,1078.46 3334.59,1078.41 3339.24,1078.61 3343.88,1078.86 3348.53,1078.98 3353.17,1079.01 3357.82,1079.02 3362.46,1079.02 3367.11,1079.02 3371.75,1079.02 3376.4,1079.02 3381.04,1079.02 3385.68,1079.02 3390.33,1079.02 3394.97,1079.02 3399.62,1079.02 3404.26,1079.02 3408.91,1079.02 3413.55,1079.02 3418.2,1079.02 3422.84,1079.02 3427.49,1079.02 3432.13,1079.02 3436.78,1079.02 3441.42,1079.02 3446.07,1079.02 3450.71,1079.02 3455.36,1079.02 3460,1079.02 3464.65,1079.02 3469.29,1079.02 3473.93,1079.02 3478.58,1079.01 3483.22,1079 3487.87,1078.92 3492.51,1078.72 3497.16,1078.47 3501.8,1078.4 3506.45,1078.6 3511.09,1078.85 3515.74,1078.98 3520.38,1079.01 3525.03,1079 "/>
<polyline clip-path="url(#clip244)" style="stroke:#ff0000; stroke-linecap:round; stroke-linejoin:round; stroke-width:4; stroke-opacity:1; fill:none" points="2672.38,2122.22 2672.38,-921.264 "/>
<path clip-path="url(#clip240)" d="M2605.66 282.569 L2829.74 282.569 L2829.74 127.049 L2605.66 127.049  Z" fill="#ffffff" fill-rule="evenodd" fill-opacity="1"/>
<polyline clip-path="url(#clip240)" style="stroke:#000000; stroke-linecap:round; stroke-linejoin:round; stroke-width:4; stroke-opacity:1; fill:none" points="2605.66,282.569 2829.74,282.569 2829.74,127.049 2605.66,127.049 2605.66,282.569 "/>
<polyline clip-path="url(#clip240)" style="stroke:#e69f00; stroke-linecap:round; stroke-linejoin:round; stroke-width:4; stroke-opacity:1; fill:none" points="2616.54,178.889 2681.86,178.889 "/>
<path clip-path="url(#clip240)" d="M2706.59 198.576 Q2704.78 203.206 2703.07 204.618 Q2701.36 206.03 2698.49 206.03 L2695.08 206.03 L2695.08 202.465 L2697.58 202.465 Q2699.34 202.465 2700.31 201.632 Q2701.29 200.798 2702.47 197.696 L2703.23 195.752 L2692.74 170.243 L2697.26 170.243 L2705.36 190.521 L2713.46 170.243 L2717.98 170.243 L2706.59 198.576 Z" fill="#000000" fill-rule="nonzero" fill-opacity="1" /><path clip-path="url(#clip240)" d="M2725.27 192.233 L2732.91 192.233 L2732.91 165.868 L2724.6 167.535 L2724.6 163.275 L2732.86 161.609 L2737.54 161.609 L2737.54 192.233 L2745.18 192.233 L2745.18 196.169 L2725.27 196.169 L2725.27 192.233 Z" fill="#000000" fill-rule="nonzero" fill-opacity="1" /><polyline clip-path="url(#clip240)" style="stroke:#ff0000; stroke-linecap:round; stroke-linejoin:round; stroke-width:4; stroke-opacity:1; fill:none" points="2616.54,230.729 2681.86,230.729 "/>
<path clip-path="url(#clip240)" d="M2713.09 227.06 Q2714.69 224.189 2716.91 222.824 Q2719.13 221.458 2722.14 221.458 Q2726.19 221.458 2728.39 224.305 Q2730.59 227.129 2730.59 232.361 L2730.59 248.009 L2726.31 248.009 L2726.31 232.499 Q2726.31 228.773 2724.99 226.967 Q2723.67 225.162 2720.96 225.162 Q2717.65 225.162 2715.73 227.361 Q2713.81 229.56 2713.81 233.356 L2713.81 248.009 L2709.53 248.009 L2709.53 232.499 Q2709.53 228.749 2708.21 226.967 Q2706.89 225.162 2704.13 225.162 Q2700.87 225.162 2698.95 227.384 Q2697.03 229.583 2697.03 233.356 L2697.03 248.009 L2692.74 248.009 L2692.74 222.083 L2697.03 222.083 L2697.03 226.111 Q2698.49 223.726 2700.52 222.592 Q2702.56 221.458 2705.36 221.458 Q2708.18 221.458 2710.15 222.893 Q2712.14 224.328 2713.09 227.06 Z" fill="#000000" fill-rule="nonzero" fill-opacity="1" /><path clip-path="url(#clip240)" d="M2761.26 233.981 L2761.26 236.064 L2741.68 236.064 Q2741.96 240.462 2744.32 242.777 Q2746.7 245.069 2750.94 245.069 Q2753.39 245.069 2755.68 244.467 Q2758 243.865 2760.27 242.661 L2760.27 246.689 Q2757.98 247.661 2755.57 248.171 Q2753.16 248.68 2750.68 248.68 Q2744.48 248.68 2740.85 245.069 Q2737.24 241.458 2737.24 235.3 Q2737.24 228.935 2740.66 225.208 Q2744.11 221.458 2749.94 221.458 Q2755.17 221.458 2758.21 224.837 Q2761.26 228.194 2761.26 233.981 M2757 232.731 Q2756.96 229.236 2755.04 227.152 Q2753.14 225.069 2749.99 225.069 Q2746.43 225.069 2744.27 227.083 Q2742.14 229.097 2741.82 232.754 L2757 232.731 Z" fill="#000000" fill-rule="nonzero" fill-opacity="1" /><path clip-path="url(#clip240)" d="M2780.04 234.976 Q2774.87 234.976 2772.88 236.157 Q2770.89 237.337 2770.89 240.185 Q2770.89 242.453 2772.37 243.796 Q2773.88 245.115 2776.45 245.115 Q2779.99 245.115 2782.12 242.615 Q2784.27 240.092 2784.27 235.925 L2784.27 234.976 L2780.04 234.976 M2788.53 233.217 L2788.53 248.009 L2784.27 248.009 L2784.27 244.073 Q2782.81 246.435 2780.64 247.569 Q2778.46 248.68 2775.31 248.68 Q2771.33 248.68 2768.97 246.458 Q2766.63 244.212 2766.63 240.462 Q2766.63 236.087 2769.55 233.865 Q2772.49 231.643 2778.3 231.643 L2784.27 231.643 L2784.27 231.226 Q2784.27 228.287 2782.33 226.689 Q2780.41 225.069 2776.91 225.069 Q2774.69 225.069 2772.58 225.601 Q2770.48 226.134 2768.53 227.199 L2768.53 223.263 Q2770.87 222.361 2773.07 221.921 Q2775.27 221.458 2777.35 221.458 Q2782.98 221.458 2785.75 224.375 Q2788.53 227.291 2788.53 233.217 Z" fill="#000000" fill-rule="nonzero" fill-opacity="1" /><path clip-path="url(#clip240)" d="M2818.86 232.361 L2818.86 248.009 L2814.6 248.009 L2814.6 232.499 Q2814.6 228.819 2813.16 226.99 Q2811.73 225.162 2808.86 225.162 Q2805.41 225.162 2803.42 227.361 Q2801.42 229.56 2801.42 233.356 L2801.42 248.009 L2797.14 248.009 L2797.14 222.083 L2801.42 222.083 L2801.42 226.111 Q2802.95 223.773 2805.01 222.615 Q2807.1 221.458 2809.8 221.458 Q2814.27 221.458 2816.56 224.236 Q2818.86 226.99 2818.86 232.361 Z" fill="#000000" fill-rule="nonzero" fill-opacity="1" /></svg>
