<?xml version="1.0" encoding="utf-8"?>
<svg xmlns="http://www.w3.org/2000/svg" xmlns:xlink="http://www.w3.org/1999/xlink" width="600" height="400" viewBox="0 0 2400 1600">
<defs>
  <clipPath id="clip540">
    <rect x="0" y="0" width="2400" height="1600"/>
  </clipPath>
</defs>
<path clip-path="url(#clip540)" d="
M0 1600 L2400 1600 L2400 0 L0 0  Z
  " fill="#ffffff" fill-rule="evenodd" fill-opacity="1"/>
<defs>
  <clipPath id="clip541">
    <rect x="480" y="0" width="1681" height="1600"/>
  </clipPath>
</defs>
<path clip-path="url(#clip540)" d="
M147.478 1486.45 L2352.76 1486.45 L2352.76 47.2441 L147.478 47.2441  Z
  " fill="#ffffff" fill-rule="evenodd" fill-opacity="1"/>
<defs>
  <clipPath id="clip542">
    <rect x="147" y="47" width="2206" height="1440"/>
  </clipPath>
</defs>
<polyline clip-path="url(#clip542)" style="stroke:#000000; stroke-linecap:round; stroke-linejoin:round; stroke-width:2; stroke-opacity:0.1; fill:none" points="
  302.317,1486.45 302.317,47.2441 
  "/>
<polyline clip-path="url(#clip542)" style="stroke:#000000; stroke-linecap:round; stroke-linejoin:round; stroke-width:2; stroke-opacity:0.1; fill:none" points="
  618.169,1486.45 618.169,47.2441 
  "/>
<polyline clip-path="url(#clip542)" style="stroke:#000000; stroke-linecap:round; stroke-linejoin:round; stroke-width:2; stroke-opacity:0.1; fill:none" points="
  934.021,1486.45 934.021,47.2441 
  "/>
<polyline clip-path="url(#clip542)" style="stroke:#000000; stroke-linecap:round; stroke-linejoin:round; stroke-width:2; stroke-opacity:0.1; fill:none" points="
  1249.87,1486.45 1249.87,47.2441 
  "/>
<polyline clip-path="url(#clip542)" style="stroke:#000000; stroke-linecap:round; stroke-linejoin:round; stroke-width:2; stroke-opacity:0.1; fill:none" points="
  1565.72,1486.45 1565.72,47.2441 
  "/>
<polyline clip-path="url(#clip542)" style="stroke:#000000; stroke-linecap:round; stroke-linejoin:round; stroke-width:2; stroke-opacity:0.1; fill:none" points="
  1881.58,1486.45 1881.58,47.2441 
  "/>
<polyline clip-path="url(#clip542)" style="stroke:#000000; stroke-linecap:round; stroke-linejoin:round; stroke-width:2; stroke-opacity:0.1; fill:none" points="
  2197.43,1486.45 2197.43,47.2441 
  "/>
<polyline clip-path="url(#clip540)" style="stroke:#000000; stroke-linecap:round; stroke-linejoin:round; stroke-width:4; stroke-opacity:1; fill:none" points="
  147.478,1486.45 2352.76,1486.45 
  "/>
<polyline clip-path="url(#clip540)" style="stroke:#000000; stroke-linecap:round; stroke-linejoin:round; stroke-width:4; stroke-opacity:1; fill:none" points="
  302.317,1486.45 302.317,1467.55 
  "/>
<polyline clip-path="url(#clip540)" style="stroke:#000000; stroke-linecap:round; stroke-linejoin:round; stroke-width:4; stroke-opacity:1; fill:none" points="
  618.169,1486.45 618.169,1467.55 
  "/>
<polyline clip-path="url(#clip540)" style="stroke:#000000; stroke-linecap:round; stroke-linejoin:round; stroke-width:4; stroke-opacity:1; fill:none" points="
  934.021,1486.45 934.021,1467.55 
  "/>
<polyline clip-path="url(#clip540)" style="stroke:#000000; stroke-linecap:round; stroke-linejoin:round; stroke-width:4; stroke-opacity:1; fill:none" points="
  1249.87,1486.45 1249.87,1467.55 
  "/>
<polyline clip-path="url(#clip540)" style="stroke:#000000; stroke-linecap:round; stroke-linejoin:round; stroke-width:4; stroke-opacity:1; fill:none" points="
  1565.72,1486.45 1565.72,1467.55 
  "/>
<polyline clip-path="url(#clip540)" style="stroke:#000000; stroke-linecap:round; stroke-linejoin:round; stroke-width:4; stroke-opacity:1; fill:none" points="
  1881.58,1486.45 1881.58,1467.55 
  "/>
<polyline clip-path="url(#clip540)" style="stroke:#000000; stroke-linecap:round; stroke-linejoin:round; stroke-width:4; stroke-opacity:1; fill:none" points="
  2197.43,1486.45 2197.43,1467.55 
  "/>
<path clip-path="url(#clip540)" d="M271.785 1532.02 L301.461 1532.02 L301.461 1535.95 L271.785 1535.95 L271.785 1532.02 Z" fill="#000000" fill-rule="evenodd" fill-opacity="1" /><path clip-path="url(#clip540)" d="M325.72 1530.21 Q329.077 1530.93 330.952 1533.2 Q332.85 1535.47 332.85 1538.8 Q332.85 1543.92 329.331 1546.72 Q325.813 1549.52 319.331 1549.52 Q317.155 1549.52 314.841 1549.08 Q312.549 1548.66 310.095 1547.81 L310.095 1543.29 Q312.04 1544.43 314.354 1545.01 Q316.669 1545.58 319.192 1545.58 Q323.591 1545.58 325.882 1543.85 Q328.197 1542.11 328.197 1538.8 Q328.197 1535.75 326.044 1534.03 Q323.915 1532.3 320.095 1532.3 L316.067 1532.3 L316.067 1528.45 L320.28 1528.45 Q323.729 1528.45 325.558 1527.09 Q327.387 1525.7 327.387 1523.11 Q327.387 1520.45 325.489 1519.03 Q323.614 1517.6 320.095 1517.6 Q318.174 1517.6 315.975 1518.01 Q313.776 1518.43 311.137 1519.31 L311.137 1515.14 Q313.799 1514.4 316.114 1514.03 Q318.452 1513.66 320.512 1513.66 Q325.836 1513.66 328.938 1516.09 Q332.04 1518.5 332.04 1522.62 Q332.04 1525.49 330.396 1527.48 Q328.753 1529.45 325.72 1530.21 Z" fill="#000000" fill-rule="evenodd" fill-opacity="1" /><path clip-path="url(#clip540)" d="M588.111 1532.02 L617.787 1532.02 L617.787 1535.95 L588.111 1535.95 L588.111 1532.02 Z" fill="#000000" fill-rule="evenodd" fill-opacity="1" /><path clip-path="url(#clip540)" d="M631.907 1544.91 L648.227 1544.91 L648.227 1548.85 L626.282 1548.85 L626.282 1544.91 Q628.944 1542.16 633.528 1537.53 Q638.134 1532.88 639.315 1531.53 Q641.56 1529.01 642.44 1527.27 Q643.343 1525.51 643.343 1523.82 Q643.343 1521.07 641.398 1519.33 Q639.477 1517.6 636.375 1517.6 Q634.176 1517.6 631.722 1518.36 Q629.292 1519.13 626.514 1520.68 L626.514 1515.95 Q629.338 1514.82 631.792 1514.24 Q634.245 1513.66 636.282 1513.66 Q641.653 1513.66 644.847 1516.35 Q648.042 1519.03 648.042 1523.52 Q648.042 1525.65 647.231 1527.57 Q646.444 1529.47 644.338 1532.07 Q643.759 1532.74 640.657 1535.95 Q637.555 1539.15 631.907 1544.91 Z" fill="#000000" fill-rule="evenodd" fill-opacity="1" /><path clip-path="url(#clip540)" d="M903.778 1532.02 L933.453 1532.02 L933.453 1535.95 L903.778 1535.95 L903.778 1532.02 Z" fill="#000000" fill-rule="evenodd" fill-opacity="1" /><path clip-path="url(#clip540)" d="M944.356 1544.91 L951.995 1544.91 L951.995 1518.55 L943.685 1520.21 L943.685 1515.95 L951.949 1514.29 L956.625 1514.29 L956.625 1544.91 L964.263 1544.91 L964.263 1548.85 L944.356 1548.85 L944.356 1544.91 Z" fill="#000000" fill-rule="evenodd" fill-opacity="1" /><path clip-path="url(#clip540)" d="M1249.87 1517.37 Q1246.26 1517.37 1244.43 1520.93 Q1242.63 1524.47 1242.63 1531.6 Q1242.63 1538.71 1244.43 1542.27 Q1246.26 1545.82 1249.87 1545.82 Q1253.51 1545.82 1255.31 1542.27 Q1257.14 1538.71 1257.14 1531.6 Q1257.14 1524.47 1255.31 1520.93 Q1253.51 1517.37 1249.87 1517.37 M1249.87 1513.66 Q1255.68 1513.66 1258.74 1518.27 Q1261.82 1522.85 1261.82 1531.6 Q1261.82 1540.33 1258.74 1544.94 Q1255.68 1549.52 1249.87 1549.52 Q1244.06 1549.52 1240.98 1544.94 Q1237.93 1540.33 1237.93 1531.6 Q1237.93 1522.85 1240.98 1518.27 Q1244.06 1513.66 1249.87 1513.66 Z" fill="#000000" fill-rule="evenodd" fill-opacity="1" /><path clip-path="url(#clip540)" d="M1556.11 1544.91 L1563.74 1544.91 L1563.74 1518.55 L1555.43 1520.21 L1555.43 1515.95 L1563.7 1514.29 L1568.37 1514.29 L1568.37 1544.91 L1576.01 1544.91 L1576.01 1548.85 L1556.11 1548.85 L1556.11 1544.91 Z" fill="#000000" fill-rule="evenodd" fill-opacity="1" /><path clip-path="url(#clip540)" d="M1876.23 1544.91 L1892.55 1544.91 L1892.55 1548.85 L1870.6 1548.85 L1870.6 1544.91 Q1873.27 1542.16 1877.85 1537.53 Q1882.45 1532.88 1883.64 1531.53 Q1885.88 1529.01 1886.76 1527.27 Q1887.66 1525.51 1887.66 1523.82 Q1887.66 1521.07 1885.72 1519.33 Q1883.8 1517.6 1880.7 1517.6 Q1878.5 1517.6 1876.04 1518.36 Q1873.61 1519.13 1870.83 1520.68 L1870.83 1515.95 Q1873.66 1514.82 1876.11 1514.24 Q1878.57 1513.66 1880.6 1513.66 Q1885.97 1513.66 1889.17 1516.35 Q1892.36 1519.03 1892.36 1523.52 Q1892.36 1525.65 1891.55 1527.57 Q1890.77 1529.47 1888.66 1532.07 Q1888.08 1532.74 1884.98 1535.95 Q1881.88 1539.15 1876.23 1544.91 Z" fill="#000000" fill-rule="evenodd" fill-opacity="1" /><path clip-path="url(#clip540)" d="M2201.67 1530.21 Q2205.03 1530.93 2206.91 1533.2 Q2208.8 1535.47 2208.8 1538.8 Q2208.8 1543.92 2205.29 1546.72 Q2201.77 1549.52 2195.29 1549.52 Q2193.11 1549.52 2190.79 1549.08 Q2188.5 1548.66 2186.05 1547.81 L2186.05 1543.29 Q2187.99 1544.43 2190.31 1545.01 Q2192.62 1545.58 2195.15 1545.58 Q2199.54 1545.58 2201.84 1543.85 Q2204.15 1542.11 2204.15 1538.8 Q2204.15 1535.75 2202 1534.03 Q2199.87 1532.3 2196.05 1532.3 L2192.02 1532.3 L2192.02 1528.45 L2196.23 1528.45 Q2199.68 1528.45 2201.51 1527.09 Q2203.34 1525.7 2203.34 1523.11 Q2203.34 1520.45 2201.44 1519.03 Q2199.57 1517.6 2196.05 1517.6 Q2194.13 1517.6 2191.93 1518.01 Q2189.73 1518.43 2187.09 1519.31 L2187.09 1515.14 Q2189.75 1514.4 2192.07 1514.03 Q2194.41 1513.66 2196.47 1513.66 Q2201.79 1513.66 2204.89 1516.09 Q2207.99 1518.5 2207.99 1522.62 Q2207.99 1525.49 2206.35 1527.48 Q2204.71 1529.45 2201.67 1530.21 Z" fill="#000000" fill-rule="evenodd" fill-opacity="1" /><polyline clip-path="url(#clip542)" style="stroke:#000000; stroke-linecap:round; stroke-linejoin:round; stroke-width:2; stroke-opacity:0.1; fill:none" points="
  147.478,1394.46 2352.76,1394.46 
  "/>
<polyline clip-path="url(#clip542)" style="stroke:#000000; stroke-linecap:round; stroke-linejoin:round; stroke-width:2; stroke-opacity:0.1; fill:none" points="
  147.478,1074.44 2352.76,1074.44 
  "/>
<polyline clip-path="url(#clip542)" style="stroke:#000000; stroke-linecap:round; stroke-linejoin:round; stroke-width:2; stroke-opacity:0.1; fill:none" points="
  147.478,754.414 2352.76,754.414 
  "/>
<polyline clip-path="url(#clip542)" style="stroke:#000000; stroke-linecap:round; stroke-linejoin:round; stroke-width:2; stroke-opacity:0.1; fill:none" points="
  147.478,434.391 2352.76,434.391 
  "/>
<polyline clip-path="url(#clip542)" style="stroke:#000000; stroke-linecap:round; stroke-linejoin:round; stroke-width:2; stroke-opacity:0.1; fill:none" points="
  147.478,114.368 2352.76,114.368 
  "/>
<polyline clip-path="url(#clip540)" style="stroke:#000000; stroke-linecap:round; stroke-linejoin:round; stroke-width:4; stroke-opacity:1; fill:none" points="
  147.478,1486.45 147.478,47.2441 
  "/>
<polyline clip-path="url(#clip540)" style="stroke:#000000; stroke-linecap:round; stroke-linejoin:round; stroke-width:4; stroke-opacity:1; fill:none" points="
  147.478,1394.46 166.376,1394.46 
  "/>
<polyline clip-path="url(#clip540)" style="stroke:#000000; stroke-linecap:round; stroke-linejoin:round; stroke-width:4; stroke-opacity:1; fill:none" points="
  147.478,1074.44 166.376,1074.44 
  "/>
<polyline clip-path="url(#clip540)" style="stroke:#000000; stroke-linecap:round; stroke-linejoin:round; stroke-width:4; stroke-opacity:1; fill:none" points="
  147.478,754.414 166.376,754.414 
  "/>
<polyline clip-path="url(#clip540)" style="stroke:#000000; stroke-linecap:round; stroke-linejoin:round; stroke-width:4; stroke-opacity:1; fill:none" points="
  147.478,434.391 166.376,434.391 
  "/>
<polyline clip-path="url(#clip540)" style="stroke:#000000; stroke-linecap:round; stroke-linejoin:round; stroke-width:4; stroke-opacity:1; fill:none" points="
  147.478,114.368 166.376,114.368 
  "/>
<path clip-path="url(#clip540)" d="M50.9921 1394.91 L80.6679 1394.91 L80.6679 1398.85 L50.9921 1398.85 L50.9921 1394.91 Z" fill="#000000" fill-rule="evenodd" fill-opacity="1" /><path clip-path="url(#clip540)" d="M91.5706 1407.81 L99.2095 1407.81 L99.2095 1381.44 L90.8993 1383.11 L90.8993 1378.85 L99.1632 1377.18 L103.839 1377.18 L103.839 1407.81 L111.478 1407.81 L111.478 1411.74 L91.5706 1411.74 L91.5706 1407.81 Z" fill="#000000" fill-rule="evenodd" fill-opacity="1" /><path clip-path="url(#clip540)" d="M99.5335 1060.24 Q95.9224 1060.24 94.0937 1063.8 Q92.2882 1067.34 92.2882 1074.47 Q92.2882 1081.58 94.0937 1085.14 Q95.9224 1088.68 99.5335 1088.68 Q103.168 1088.68 104.973 1085.14 Q106.802 1081.58 106.802 1074.47 Q106.802 1067.34 104.973 1063.8 Q103.168 1060.24 99.5335 1060.24 M99.5335 1056.53 Q105.344 1056.53 108.399 1061.14 Q111.478 1065.72 111.478 1074.47 Q111.478 1083.2 108.399 1087.81 Q105.344 1092.39 99.5335 1092.39 Q93.7234 1092.39 90.6447 1087.81 Q87.5892 1083.2 87.5892 1074.47 Q87.5892 1065.72 90.6447 1061.14 Q93.7234 1056.53 99.5335 1056.53 Z" fill="#000000" fill-rule="evenodd" fill-opacity="1" /><path clip-path="url(#clip540)" d="M91.5706 767.759 L99.2095 767.759 L99.2095 741.394 L90.8993 743.06 L90.8993 738.801 L99.1632 737.134 L103.839 737.134 L103.839 767.759 L111.478 767.759 L111.478 771.694 L91.5706 771.694 L91.5706 767.759 Z" fill="#000000" fill-rule="evenodd" fill-opacity="1" /><path clip-path="url(#clip540)" d="M95.1586 447.736 L111.478 447.736 L111.478 451.671 L89.5336 451.671 L89.5336 447.736 Q92.1956 444.982 96.7789 440.352 Q101.385 435.699 102.566 434.357 Q104.811 431.833 105.691 430.097 Q106.594 428.338 106.594 426.648 Q106.594 423.894 104.649 422.158 Q102.728 420.421 99.6261 420.421 Q97.4271 420.421 94.9734 421.185 Q92.5428 421.949 89.7651 423.5 L89.7651 418.778 Q92.5891 417.644 95.0428 417.065 Q97.4965 416.486 99.5335 416.486 Q104.904 416.486 108.098 419.171 Q111.293 421.857 111.293 426.347 Q111.293 428.477 110.483 430.398 Q109.696 432.296 107.589 434.889 Q107.01 435.56 103.909 438.778 Q100.807 441.972 95.1586 447.736 Z" fill="#000000" fill-rule="evenodd" fill-opacity="1" /><path clip-path="url(#clip540)" d="M104.348 113.014 Q107.705 113.732 109.58 116 Q111.478 118.269 111.478 121.602 Q111.478 126.718 107.959 129.519 Q104.441 132.32 97.9595 132.32 Q95.7836 132.32 93.4688 131.88 Q91.1771 131.463 88.7234 130.607 L88.7234 126.093 Q90.6678 127.227 92.9826 127.806 Q95.2974 128.384 97.8206 128.384 Q102.219 128.384 104.51 126.648 Q106.825 124.912 106.825 121.602 Q106.825 118.547 104.672 116.834 Q102.543 115.097 98.7234 115.097 L94.6956 115.097 L94.6956 111.255 L98.9085 111.255 Q102.358 111.255 104.186 109.889 Q106.015 108.5 106.015 105.908 Q106.015 103.246 104.117 101.834 Q102.242 100.398 98.7234 100.398 Q96.8021 100.398 94.603 100.815 Q92.4039 101.232 89.7651 102.111 L89.7651 97.9448 Q92.4271 97.2041 94.7419 96.8337 Q97.0798 96.4633 99.14 96.4633 Q104.464 96.4633 107.566 98.8939 Q110.668 101.301 110.668 105.422 Q110.668 108.292 109.024 110.283 Q107.381 112.25 104.348 113.014 Z" fill="#000000" fill-rule="evenodd" fill-opacity="1" /><circle clip-path="url(#clip542)" cx="479.872" cy="245.292" r="14.4" fill="#e69f00" fill-rule="evenodd" fill-opacity="1" stroke="#000000" stroke-opacity="1" stroke-width="3.2"/>
<circle clip-path="url(#clip542)" cx="1247.15" cy="1155.65" r="14.4" fill="#e69f00" fill-rule="evenodd" fill-opacity="1" stroke="#000000" stroke-opacity="1" stroke-width="3.2"/>
<circle clip-path="url(#clip542)" cx="1844.38" cy="472.04" r="14.4" fill="#e69f00" fill-rule="evenodd" fill-opacity="1" stroke="#000000" stroke-opacity="1" stroke-width="3.2"/>
<circle clip-path="url(#clip542)" cx="1008.66" cy="1033.99" r="14.4" fill="#e69f00" fill-rule="evenodd" fill-opacity="1" stroke="#000000" stroke-opacity="1" stroke-width="3.2"/>
<circle clip-path="url(#clip542)" cx="1381.56" cy="1033.69" r="14.4" fill="#e69f00" fill-rule="evenodd" fill-opacity="1" stroke="#000000" stroke-opacity="1" stroke-width="3.2"/>
<circle clip-path="url(#clip542)" cx="1707.15" cy="207.256" r="14.4" fill="#e69f00" fill-rule="evenodd" fill-opacity="1" stroke="#000000" stroke-opacity="1" stroke-width="3.2"/>
<circle clip-path="url(#clip542)" cx="1994.35" cy="848.804" r="14.4" fill="#e69f00" fill-rule="evenodd" fill-opacity="1" stroke="#000000" stroke-opacity="1" stroke-width="3.2"/>
<circle clip-path="url(#clip542)" cx="1745.38" cy="539.222" r="14.4" fill="#e69f00" fill-rule="evenodd" fill-opacity="1" stroke="#000000" stroke-opacity="1" stroke-width="3.2"/>
<circle clip-path="url(#clip542)" cx="1999.21" cy="729.88" r="14.4" fill="#e69f00" fill-rule="evenodd" fill-opacity="1" stroke="#000000" stroke-opacity="1" stroke-width="3.2"/>
<circle clip-path="url(#clip542)" cx="1755.55" cy="695.796" r="14.4" fill="#e69f00" fill-rule="evenodd" fill-opacity="1" stroke="#000000" stroke-opacity="1" stroke-width="3.2"/>
<circle clip-path="url(#clip542)" cx="1616.89" cy="1178.92" r="14.4" fill="#e69f00" fill-rule="evenodd" fill-opacity="1" stroke="#000000" stroke-opacity="1" stroke-width="3.2"/>
<circle clip-path="url(#clip542)" cx="919.443" cy="1000.4" r="14.4" fill="#e69f00" fill-rule="evenodd" fill-opacity="1" stroke="#000000" stroke-opacity="1" stroke-width="3.2"/>
<circle clip-path="url(#clip542)" cx="1528.27" cy="498.852" r="14.4" fill="#e69f00" fill-rule="evenodd" fill-opacity="1" stroke="#000000" stroke-opacity="1" stroke-width="3.2"/>
<circle clip-path="url(#clip542)" cx="1877.11" cy="670.778" r="14.4" fill="#e69f00" fill-rule="evenodd" fill-opacity="1" stroke="#000000" stroke-opacity="1" stroke-width="3.2"/>
<circle clip-path="url(#clip542)" cx="991.236" cy="532.854" r="14.4" fill="#e69f00" fill-rule="evenodd" fill-opacity="1" stroke="#000000" stroke-opacity="1" stroke-width="3.2"/>
<circle clip-path="url(#clip542)" cx="1416.71" cy="1026.67" r="14.4" fill="#e69f00" fill-rule="evenodd" fill-opacity="1" stroke="#000000" stroke-opacity="1" stroke-width="3.2"/>
<circle clip-path="url(#clip542)" cx="305.404" cy="1089.17" r="14.4" fill="#e69f00" fill-rule="evenodd" fill-opacity="1" stroke="#000000" stroke-opacity="1" stroke-width="3.2"/>
<circle clip-path="url(#clip542)" cx="1067.88" cy="940.608" r="14.4" fill="#e69f00" fill-rule="evenodd" fill-opacity="1" stroke="#000000" stroke-opacity="1" stroke-width="3.2"/>
<circle clip-path="url(#clip542)" cx="723.285" cy="462.257" r="14.4" fill="#e69f00" fill-rule="evenodd" fill-opacity="1" stroke="#000000" stroke-opacity="1" stroke-width="3.2"/>
<circle clip-path="url(#clip542)" cx="1760.51" cy="450.616" r="14.4" fill="#e69f00" fill-rule="evenodd" fill-opacity="1" stroke="#000000" stroke-opacity="1" stroke-width="3.2"/>
<circle clip-path="url(#clip542)" cx="1491.99" cy="1029.49" r="14.4" fill="#e69f00" fill-rule="evenodd" fill-opacity="1" stroke="#000000" stroke-opacity="1" stroke-width="3.2"/>
<circle clip-path="url(#clip542)" cx="1161.19" cy="928.588" r="14.4" fill="#e69f00" fill-rule="evenodd" fill-opacity="1" stroke="#000000" stroke-opacity="1" stroke-width="3.2"/>
<circle clip-path="url(#clip542)" cx="2150.51" cy="851.342" r="14.4" fill="#e69f00" fill-rule="evenodd" fill-opacity="1" stroke="#000000" stroke-opacity="1" stroke-width="3.2"/>
<circle clip-path="url(#clip542)" cx="1173.04" cy="967.228" r="14.4" fill="#e69f00" fill-rule="evenodd" fill-opacity="1" stroke="#000000" stroke-opacity="1" stroke-width="3.2"/>
<circle clip-path="url(#clip542)" cx="759.743" cy="832.549" r="14.4" fill="#e69f00" fill-rule="evenodd" fill-opacity="1" stroke="#000000" stroke-opacity="1" stroke-width="3.2"/>
<circle clip-path="url(#clip542)" cx="1110.19" cy="1001.26" r="14.4" fill="#e69f00" fill-rule="evenodd" fill-opacity="1" stroke="#000000" stroke-opacity="1" stroke-width="3.2"/>
<circle clip-path="url(#clip542)" cx="1439.49" cy="939.876" r="14.4" fill="#e69f00" fill-rule="evenodd" fill-opacity="1" stroke="#000000" stroke-opacity="1" stroke-width="3.2"/>
<circle clip-path="url(#clip542)" cx="909.979" cy="946.712" r="14.4" fill="#e69f00" fill-rule="evenodd" fill-opacity="1" stroke="#000000" stroke-opacity="1" stroke-width="3.2"/>
<circle clip-path="url(#clip542)" cx="1435" cy="954.363" r="14.4" fill="#e69f00" fill-rule="evenodd" fill-opacity="1" stroke="#000000" stroke-opacity="1" stroke-width="3.2"/>
<circle clip-path="url(#clip542)" cx="442.745" cy="574.516" r="14.4" fill="#e69f00" fill-rule="evenodd" fill-opacity="1" stroke="#000000" stroke-opacity="1" stroke-width="3.2"/>
<circle clip-path="url(#clip542)" cx="1664.35" cy="613.745" r="14.4" fill="#e69f00" fill-rule="evenodd" fill-opacity="1" stroke="#000000" stroke-opacity="1" stroke-width="3.2"/>
<circle clip-path="url(#clip542)" cx="2194.83" cy="964.445" r="14.4" fill="#e69f00" fill-rule="evenodd" fill-opacity="1" stroke="#000000" stroke-opacity="1" stroke-width="3.2"/>
<circle clip-path="url(#clip542)" cx="1027.24" cy="1113.19" r="14.4" fill="#e69f00" fill-rule="evenodd" fill-opacity="1" stroke="#000000" stroke-opacity="1" stroke-width="3.2"/>
<circle clip-path="url(#clip542)" cx="1002.3" cy="840.092" r="14.4" fill="#e69f00" fill-rule="evenodd" fill-opacity="1" stroke="#000000" stroke-opacity="1" stroke-width="3.2"/>
<circle clip-path="url(#clip542)" cx="884.978" cy="932.135" r="14.4" fill="#e69f00" fill-rule="evenodd" fill-opacity="1" stroke="#000000" stroke-opacity="1" stroke-width="3.2"/>
<circle clip-path="url(#clip542)" cx="1156.48" cy="959.471" r="14.4" fill="#e69f00" fill-rule="evenodd" fill-opacity="1" stroke="#000000" stroke-opacity="1" stroke-width="3.2"/>
<circle clip-path="url(#clip542)" cx="737.396" cy="819.898" r="14.4" fill="#e69f00" fill-rule="evenodd" fill-opacity="1" stroke="#000000" stroke-opacity="1" stroke-width="3.2"/>
<circle clip-path="url(#clip542)" cx="1168.98" cy="1326.44" r="14.4" fill="#e69f00" fill-rule="evenodd" fill-opacity="1" stroke="#000000" stroke-opacity="1" stroke-width="3.2"/>
<circle clip-path="url(#clip542)" cx="1725.37" cy="271.645" r="14.4" fill="#e69f00" fill-rule="evenodd" fill-opacity="1" stroke="#000000" stroke-opacity="1" stroke-width="3.2"/>
<circle clip-path="url(#clip542)" cx="1715.82" cy="569.528" r="14.4" fill="#e69f00" fill-rule="evenodd" fill-opacity="1" stroke="#000000" stroke-opacity="1" stroke-width="3.2"/>
<circle clip-path="url(#clip542)" cx="378.72" cy="684.56" r="14.4" fill="#e69f00" fill-rule="evenodd" fill-opacity="1" stroke="#000000" stroke-opacity="1" stroke-width="3.2"/>
<circle clip-path="url(#clip542)" cx="757.535" cy="283.765" r="14.4" fill="#e69f00" fill-rule="evenodd" fill-opacity="1" stroke="#000000" stroke-opacity="1" stroke-width="3.2"/>
<circle clip-path="url(#clip542)" cx="1507.27" cy="1211.21" r="14.4" fill="#e69f00" fill-rule="evenodd" fill-opacity="1" stroke="#000000" stroke-opacity="1" stroke-width="3.2"/>
<circle clip-path="url(#clip542)" cx="2133.3" cy="633.571" r="14.4" fill="#e69f00" fill-rule="evenodd" fill-opacity="1" stroke="#000000" stroke-opacity="1" stroke-width="3.2"/>
<circle clip-path="url(#clip542)" cx="1553.56" cy="907.529" r="14.4" fill="#e69f00" fill-rule="evenodd" fill-opacity="1" stroke="#000000" stroke-opacity="1" stroke-width="3.2"/>
<circle clip-path="url(#clip542)" cx="1765.59" cy="364.726" r="14.4" fill="#e69f00" fill-rule="evenodd" fill-opacity="1" stroke="#000000" stroke-opacity="1" stroke-width="3.2"/>
<circle clip-path="url(#clip542)" cx="2191.6" cy="759.562" r="14.4" fill="#e69f00" fill-rule="evenodd" fill-opacity="1" stroke="#000000" stroke-opacity="1" stroke-width="3.2"/>
<circle clip-path="url(#clip542)" cx="607.213" cy="469.272" r="14.4" fill="#e69f00" fill-rule="evenodd" fill-opacity="1" stroke="#000000" stroke-opacity="1" stroke-width="3.2"/>
<circle clip-path="url(#clip542)" cx="1071.68" cy="689.879" r="14.4" fill="#e69f00" fill-rule="evenodd" fill-opacity="1" stroke="#000000" stroke-opacity="1" stroke-width="3.2"/>
<circle clip-path="url(#clip542)" cx="975.496" cy="948.514" r="14.4" fill="#e69f00" fill-rule="evenodd" fill-opacity="1" stroke="#000000" stroke-opacity="1" stroke-width="3.2"/>
<circle clip-path="url(#clip542)" cx="1196.18" cy="919.973" r="14.4" fill="#e69f00" fill-rule="evenodd" fill-opacity="1" stroke="#000000" stroke-opacity="1" stroke-width="3.2"/>
<circle clip-path="url(#clip542)" cx="1937.06" cy="394.221" r="14.4" fill="#e69f00" fill-rule="evenodd" fill-opacity="1" stroke="#000000" stroke-opacity="1" stroke-width="3.2"/>
<circle clip-path="url(#clip542)" cx="2022.39" cy="906.039" r="14.4" fill="#e69f00" fill-rule="evenodd" fill-opacity="1" stroke="#000000" stroke-opacity="1" stroke-width="3.2"/>
<circle clip-path="url(#clip542)" cx="1290.55" cy="1088.79" r="14.4" fill="#e69f00" fill-rule="evenodd" fill-opacity="1" stroke="#000000" stroke-opacity="1" stroke-width="3.2"/>
<circle clip-path="url(#clip542)" cx="566.076" cy="486.63" r="14.4" fill="#e69f00" fill-rule="evenodd" fill-opacity="1" stroke="#000000" stroke-opacity="1" stroke-width="3.2"/>
<circle clip-path="url(#clip542)" cx="1639.79" cy="953.964" r="14.4" fill="#e69f00" fill-rule="evenodd" fill-opacity="1" stroke="#000000" stroke-opacity="1" stroke-width="3.2"/>
<circle clip-path="url(#clip542)" cx="1001.98" cy="1116.75" r="14.4" fill="#e69f00" fill-rule="evenodd" fill-opacity="1" stroke="#000000" stroke-opacity="1" stroke-width="3.2"/>
<circle clip-path="url(#clip542)" cx="729.697" cy="610.501" r="14.4" fill="#e69f00" fill-rule="evenodd" fill-opacity="1" stroke="#000000" stroke-opacity="1" stroke-width="3.2"/>
<circle clip-path="url(#clip542)" cx="985.777" cy="886.195" r="14.4" fill="#e69f00" fill-rule="evenodd" fill-opacity="1" stroke="#000000" stroke-opacity="1" stroke-width="3.2"/>
<circle clip-path="url(#clip542)" cx="1536.35" cy="978.516" r="14.4" fill="#e69f00" fill-rule="evenodd" fill-opacity="1" stroke="#000000" stroke-opacity="1" stroke-width="3.2"/>
<circle clip-path="url(#clip542)" cx="1038.3" cy="850.491" r="14.4" fill="#e69f00" fill-rule="evenodd" fill-opacity="1" stroke="#000000" stroke-opacity="1" stroke-width="3.2"/>
<circle clip-path="url(#clip542)" cx="2184.45" cy="1001.92" r="14.4" fill="#e69f00" fill-rule="evenodd" fill-opacity="1" stroke="#000000" stroke-opacity="1" stroke-width="3.2"/>
<circle clip-path="url(#clip542)" cx="1450.56" cy="924.153" r="14.4" fill="#e69f00" fill-rule="evenodd" fill-opacity="1" stroke="#000000" stroke-opacity="1" stroke-width="3.2"/>
<circle clip-path="url(#clip542)" cx="1742.23" cy="647.421" r="14.4" fill="#e69f00" fill-rule="evenodd" fill-opacity="1" stroke="#000000" stroke-opacity="1" stroke-width="3.2"/>
<circle clip-path="url(#clip542)" cx="1078.26" cy="1168.68" r="14.4" fill="#e69f00" fill-rule="evenodd" fill-opacity="1" stroke="#000000" stroke-opacity="1" stroke-width="3.2"/>
<circle clip-path="url(#clip542)" cx="1051.14" cy="879.822" r="14.4" fill="#e69f00" fill-rule="evenodd" fill-opacity="1" stroke="#000000" stroke-opacity="1" stroke-width="3.2"/>
<circle clip-path="url(#clip542)" cx="308.378" cy="1037.71" r="14.4" fill="#e69f00" fill-rule="evenodd" fill-opacity="1" stroke="#000000" stroke-opacity="1" stroke-width="3.2"/>
<circle clip-path="url(#clip542)" cx="862.221" cy="810.077" r="14.4" fill="#e69f00" fill-rule="evenodd" fill-opacity="1" stroke="#000000" stroke-opacity="1" stroke-width="3.2"/>
<circle clip-path="url(#clip542)" cx="1188.93" cy="1184.13" r="14.4" fill="#e69f00" fill-rule="evenodd" fill-opacity="1" stroke="#000000" stroke-opacity="1" stroke-width="3.2"/>
<circle clip-path="url(#clip542)" cx="2085" cy="234.032" r="14.4" fill="#e69f00" fill-rule="evenodd" fill-opacity="1" stroke="#000000" stroke-opacity="1" stroke-width="3.2"/>
<circle clip-path="url(#clip542)" cx="1191.97" cy="881.847" r="14.4" fill="#e69f00" fill-rule="evenodd" fill-opacity="1" stroke="#000000" stroke-opacity="1" stroke-width="3.2"/>
<circle clip-path="url(#clip542)" cx="896.16" cy="605.923" r="14.4" fill="#e69f00" fill-rule="evenodd" fill-opacity="1" stroke="#000000" stroke-opacity="1" stroke-width="3.2"/>
<circle clip-path="url(#clip542)" cx="571.612" cy="221.954" r="14.4" fill="#e69f00" fill-rule="evenodd" fill-opacity="1" stroke="#000000" stroke-opacity="1" stroke-width="3.2"/>
<circle clip-path="url(#clip542)" cx="919.872" cy="752.11" r="14.4" fill="#e69f00" fill-rule="evenodd" fill-opacity="1" stroke="#000000" stroke-opacity="1" stroke-width="3.2"/>
<circle clip-path="url(#clip542)" cx="1458.74" cy="951.515" r="14.4" fill="#e69f00" fill-rule="evenodd" fill-opacity="1" stroke="#000000" stroke-opacity="1" stroke-width="3.2"/>
<circle clip-path="url(#clip542)" cx="1781.79" cy="802.837" r="14.4" fill="#e69f00" fill-rule="evenodd" fill-opacity="1" stroke="#000000" stroke-opacity="1" stroke-width="3.2"/>
<circle clip-path="url(#clip542)" cx="1986.24" cy="289.506" r="14.4" fill="#e69f00" fill-rule="evenodd" fill-opacity="1" stroke="#000000" stroke-opacity="1" stroke-width="3.2"/>
<circle clip-path="url(#clip542)" cx="594.186" cy="454.886" r="14.4" fill="#e69f00" fill-rule="evenodd" fill-opacity="1" stroke="#000000" stroke-opacity="1" stroke-width="3.2"/>
<circle clip-path="url(#clip542)" cx="546.948" cy="744.31" r="14.4" fill="#e69f00" fill-rule="evenodd" fill-opacity="1" stroke="#000000" stroke-opacity="1" stroke-width="3.2"/>
<circle clip-path="url(#clip542)" cx="548.533" cy="529.257" r="14.4" fill="#e69f00" fill-rule="evenodd" fill-opacity="1" stroke="#000000" stroke-opacity="1" stroke-width="3.2"/>
<circle clip-path="url(#clip542)" cx="552.003" cy="512.116" r="14.4" fill="#e69f00" fill-rule="evenodd" fill-opacity="1" stroke="#000000" stroke-opacity="1" stroke-width="3.2"/>
<circle clip-path="url(#clip542)" cx="1936.08" cy="618.471" r="14.4" fill="#e69f00" fill-rule="evenodd" fill-opacity="1" stroke="#000000" stroke-opacity="1" stroke-width="3.2"/>
<circle clip-path="url(#clip542)" cx="1020.31" cy="700.225" r="14.4" fill="#e69f00" fill-rule="evenodd" fill-opacity="1" stroke="#000000" stroke-opacity="1" stroke-width="3.2"/>
<circle clip-path="url(#clip542)" cx="570.104" cy="652.275" r="14.4" fill="#e69f00" fill-rule="evenodd" fill-opacity="1" stroke="#000000" stroke-opacity="1" stroke-width="3.2"/>
<circle clip-path="url(#clip542)" cx="1658.86" cy="595.993" r="14.4" fill="#e69f00" fill-rule="evenodd" fill-opacity="1" stroke="#000000" stroke-opacity="1" stroke-width="3.2"/>
<circle clip-path="url(#clip542)" cx="1224.9" cy="966.161" r="14.4" fill="#e69f00" fill-rule="evenodd" fill-opacity="1" stroke="#000000" stroke-opacity="1" stroke-width="3.2"/>
<circle clip-path="url(#clip542)" cx="1272.67" cy="965.913" r="14.4" fill="#e69f00" fill-rule="evenodd" fill-opacity="1" stroke="#000000" stroke-opacity="1" stroke-width="3.2"/>
<circle clip-path="url(#clip542)" cx="1242.56" cy="963.025" r="14.4" fill="#e69f00" fill-rule="evenodd" fill-opacity="1" stroke="#000000" stroke-opacity="1" stroke-width="3.2"/>
<circle clip-path="url(#clip542)" cx="1444.35" cy="796.672" r="14.4" fill="#e69f00" fill-rule="evenodd" fill-opacity="1" stroke="#000000" stroke-opacity="1" stroke-width="3.2"/>
<circle clip-path="url(#clip542)" cx="1086.02" cy="912.271" r="14.4" fill="#e69f00" fill-rule="evenodd" fill-opacity="1" stroke="#000000" stroke-opacity="1" stroke-width="3.2"/>
<circle clip-path="url(#clip542)" cx="1034.66" cy="1006.93" r="14.4" fill="#e69f00" fill-rule="evenodd" fill-opacity="1" stroke="#000000" stroke-opacity="1" stroke-width="3.2"/>
<circle clip-path="url(#clip542)" cx="1622.79" cy="983.075" r="14.4" fill="#e69f00" fill-rule="evenodd" fill-opacity="1" stroke="#000000" stroke-opacity="1" stroke-width="3.2"/>
<circle clip-path="url(#clip542)" cx="1338.57" cy="911.419" r="14.4" fill="#e69f00" fill-rule="evenodd" fill-opacity="1" stroke="#000000" stroke-opacity="1" stroke-width="3.2"/>
<circle clip-path="url(#clip542)" cx="1059.8" cy="977.42" r="14.4" fill="#e69f00" fill-rule="evenodd" fill-opacity="1" stroke="#000000" stroke-opacity="1" stroke-width="3.2"/>
<circle clip-path="url(#clip542)" cx="575.23" cy="648.587" r="14.4" fill="#e69f00" fill-rule="evenodd" fill-opacity="1" stroke="#000000" stroke-opacity="1" stroke-width="3.2"/>
<circle clip-path="url(#clip542)" cx="1104.35" cy="1130.95" r="14.4" fill="#e69f00" fill-rule="evenodd" fill-opacity="1" stroke="#000000" stroke-opacity="1" stroke-width="3.2"/>
<circle clip-path="url(#clip542)" cx="1966.98" cy="610.488" r="14.4" fill="#e69f00" fill-rule="evenodd" fill-opacity="1" stroke="#000000" stroke-opacity="1" stroke-width="3.2"/>
<circle clip-path="url(#clip542)" cx="1454.05" cy="997.34" r="14.4" fill="#e69f00" fill-rule="evenodd" fill-opacity="1" stroke="#000000" stroke-opacity="1" stroke-width="3.2"/>
<circle clip-path="url(#clip542)" cx="557.571" cy="564.064" r="14.4" fill="#e69f00" fill-rule="evenodd" fill-opacity="1" stroke="#000000" stroke-opacity="1" stroke-width="3.2"/>
<circle clip-path="url(#clip542)" cx="958.054" cy="903.116" r="14.4" fill="#e69f00" fill-rule="evenodd" fill-opacity="1" stroke="#000000" stroke-opacity="1" stroke-width="3.2"/>
<circle clip-path="url(#clip542)" cx="1223.86" cy="1227.03" r="14.4" fill="#e69f00" fill-rule="evenodd" fill-opacity="1" stroke="#000000" stroke-opacity="1" stroke-width="3.2"/>
<circle clip-path="url(#clip542)" cx="795.485" cy="706.915" r="14.4" fill="#e69f00" fill-rule="evenodd" fill-opacity="1" stroke="#000000" stroke-opacity="1" stroke-width="3.2"/>
<circle clip-path="url(#clip542)" cx="668.548" cy="362.304" r="14.4" fill="#e69f00" fill-rule="evenodd" fill-opacity="1" stroke="#000000" stroke-opacity="1" stroke-width="3.2"/>
<circle clip-path="url(#clip542)" cx="2053.18" cy="758.848" r="14.4" fill="#e69f00" fill-rule="evenodd" fill-opacity="1" stroke="#000000" stroke-opacity="1" stroke-width="3.2"/>
<circle clip-path="url(#clip542)" cx="1414.27" cy="825.56" r="14.4" fill="#e69f00" fill-rule="evenodd" fill-opacity="1" stroke="#000000" stroke-opacity="1" stroke-width="3.2"/>
<circle clip-path="url(#clip542)" cx="2063.75" cy="638.696" r="14.4" fill="#e69f00" fill-rule="evenodd" fill-opacity="1" stroke="#000000" stroke-opacity="1" stroke-width="3.2"/>
<circle clip-path="url(#clip542)" cx="1707.84" cy="627.867" r="14.4" fill="#e69f00" fill-rule="evenodd" fill-opacity="1" stroke="#000000" stroke-opacity="1" stroke-width="3.2"/>
<circle clip-path="url(#clip542)" cx="1340.67" cy="1225.42" r="14.4" fill="#e69f00" fill-rule="evenodd" fill-opacity="1" stroke="#000000" stroke-opacity="1" stroke-width="3.2"/>
<circle clip-path="url(#clip542)" cx="1520.18" cy="659.531" r="14.4" fill="#e69f00" fill-rule="evenodd" fill-opacity="1" stroke="#000000" stroke-opacity="1" stroke-width="3.2"/>
<circle clip-path="url(#clip542)" cx="1475.92" cy="1035.76" r="14.4" fill="#e69f00" fill-rule="evenodd" fill-opacity="1" stroke="#000000" stroke-opacity="1" stroke-width="3.2"/>
<circle clip-path="url(#clip542)" cx="1007.27" cy="937.987" r="14.4" fill="#e69f00" fill-rule="evenodd" fill-opacity="1" stroke="#000000" stroke-opacity="1" stroke-width="3.2"/>
<circle clip-path="url(#clip542)" cx="1863.19" cy="309.011" r="14.4" fill="#e69f00" fill-rule="evenodd" fill-opacity="1" stroke="#000000" stroke-opacity="1" stroke-width="3.2"/>
<circle clip-path="url(#clip542)" cx="424.272" cy="691.489" r="14.4" fill="#e69f00" fill-rule="evenodd" fill-opacity="1" stroke="#000000" stroke-opacity="1" stroke-width="3.2"/>
<circle clip-path="url(#clip542)" cx="1690.1" cy="743.293" r="14.4" fill="#e69f00" fill-rule="evenodd" fill-opacity="1" stroke="#000000" stroke-opacity="1" stroke-width="3.2"/>
<circle clip-path="url(#clip542)" cx="969.615" cy="1125.61" r="14.4" fill="#e69f00" fill-rule="evenodd" fill-opacity="1" stroke="#000000" stroke-opacity="1" stroke-width="3.2"/>
<circle clip-path="url(#clip542)" cx="904.018" cy="856.792" r="14.4" fill="#e69f00" fill-rule="evenodd" fill-opacity="1" stroke="#000000" stroke-opacity="1" stroke-width="3.2"/>
<circle clip-path="url(#clip542)" cx="2182.19" cy="832.824" r="14.4" fill="#e69f00" fill-rule="evenodd" fill-opacity="1" stroke="#000000" stroke-opacity="1" stroke-width="3.2"/>
<circle clip-path="url(#clip542)" cx="384.772" cy="644.02" r="14.4" fill="#e69f00" fill-rule="evenodd" fill-opacity="1" stroke="#000000" stroke-opacity="1" stroke-width="3.2"/>
<circle clip-path="url(#clip542)" cx="1717.46" cy="632.475" r="14.4" fill="#e69f00" fill-rule="evenodd" fill-opacity="1" stroke="#000000" stroke-opacity="1" stroke-width="3.2"/>
<circle clip-path="url(#clip542)" cx="1874.42" cy="418.73" r="14.4" fill="#e69f00" fill-rule="evenodd" fill-opacity="1" stroke="#000000" stroke-opacity="1" stroke-width="3.2"/>
<circle clip-path="url(#clip542)" cx="737.836" cy="343.715" r="14.4" fill="#e69f00" fill-rule="evenodd" fill-opacity="1" stroke="#000000" stroke-opacity="1" stroke-width="3.2"/>
<circle clip-path="url(#clip542)" cx="1572.31" cy="977.113" r="14.4" fill="#e69f00" fill-rule="evenodd" fill-opacity="1" stroke="#000000" stroke-opacity="1" stroke-width="3.2"/>
<circle clip-path="url(#clip542)" cx="337.273" cy="720.531" r="14.4" fill="#e69f00" fill-rule="evenodd" fill-opacity="1" stroke="#000000" stroke-opacity="1" stroke-width="3.2"/>
<circle clip-path="url(#clip542)" cx="1145.85" cy="1047.1" r="14.4" fill="#e69f00" fill-rule="evenodd" fill-opacity="1" stroke="#000000" stroke-opacity="1" stroke-width="3.2"/>
<circle clip-path="url(#clip542)" cx="1577.94" cy="633.578" r="14.4" fill="#e69f00" fill-rule="evenodd" fill-opacity="1" stroke="#000000" stroke-opacity="1" stroke-width="3.2"/>
<circle clip-path="url(#clip542)" cx="1307.79" cy="952.443" r="14.4" fill="#e69f00" fill-rule="evenodd" fill-opacity="1" stroke="#000000" stroke-opacity="1" stroke-width="3.2"/>
<circle clip-path="url(#clip542)" cx="1566.11" cy="789.283" r="14.4" fill="#e69f00" fill-rule="evenodd" fill-opacity="1" stroke="#000000" stroke-opacity="1" stroke-width="3.2"/>
<circle clip-path="url(#clip542)" cx="1236.59" cy="914.552" r="14.4" fill="#e69f00" fill-rule="evenodd" fill-opacity="1" stroke="#000000" stroke-opacity="1" stroke-width="3.2"/>
<circle clip-path="url(#clip542)" cx="1640.25" cy="828.503" r="14.4" fill="#e69f00" fill-rule="evenodd" fill-opacity="1" stroke="#000000" stroke-opacity="1" stroke-width="3.2"/>
<circle clip-path="url(#clip542)" cx="1753.83" cy="423.608" r="14.4" fill="#e69f00" fill-rule="evenodd" fill-opacity="1" stroke="#000000" stroke-opacity="1" stroke-width="3.2"/>
<circle clip-path="url(#clip542)" cx="718.693" cy="376.084" r="14.4" fill="#e69f00" fill-rule="evenodd" fill-opacity="1" stroke="#000000" stroke-opacity="1" stroke-width="3.2"/>
<circle clip-path="url(#clip542)" cx="781.048" cy="679.131" r="14.4" fill="#e69f00" fill-rule="evenodd" fill-opacity="1" stroke="#000000" stroke-opacity="1" stroke-width="3.2"/>
<circle clip-path="url(#clip542)" cx="1866.33" cy="460.302" r="14.4" fill="#e69f00" fill-rule="evenodd" fill-opacity="1" stroke="#000000" stroke-opacity="1" stroke-width="3.2"/>
<circle clip-path="url(#clip542)" cx="1634.56" cy="856.336" r="14.4" fill="#e69f00" fill-rule="evenodd" fill-opacity="1" stroke="#000000" stroke-opacity="1" stroke-width="3.2"/>
<circle clip-path="url(#clip542)" cx="870.992" cy="496.323" r="14.4" fill="#e69f00" fill-rule="evenodd" fill-opacity="1" stroke="#000000" stroke-opacity="1" stroke-width="3.2"/>
<circle clip-path="url(#clip542)" cx="740.351" cy="610.348" r="14.4" fill="#e69f00" fill-rule="evenodd" fill-opacity="1" stroke="#000000" stroke-opacity="1" stroke-width="3.2"/>
<circle clip-path="url(#clip542)" cx="2047.02" cy="817.1" r="14.4" fill="#e69f00" fill-rule="evenodd" fill-opacity="1" stroke="#000000" stroke-opacity="1" stroke-width="3.2"/>
<circle clip-path="url(#clip542)" cx="585.755" cy="309.842" r="14.4" fill="#e69f00" fill-rule="evenodd" fill-opacity="1" stroke="#000000" stroke-opacity="1" stroke-width="3.2"/>
<circle clip-path="url(#clip542)" cx="524.681" cy="352.079" r="14.4" fill="#e69f00" fill-rule="evenodd" fill-opacity="1" stroke="#000000" stroke-opacity="1" stroke-width="3.2"/>
<circle clip-path="url(#clip542)" cx="2037.01" cy="450.632" r="14.4" fill="#e69f00" fill-rule="evenodd" fill-opacity="1" stroke="#000000" stroke-opacity="1" stroke-width="3.2"/>
<circle clip-path="url(#clip542)" cx="1126.05" cy="1022.47" r="14.4" fill="#e69f00" fill-rule="evenodd" fill-opacity="1" stroke="#000000" stroke-opacity="1" stroke-width="3.2"/>
<circle clip-path="url(#clip542)" cx="565.179" cy="719.826" r="14.4" fill="#e69f00" fill-rule="evenodd" fill-opacity="1" stroke="#000000" stroke-opacity="1" stroke-width="3.2"/>
<circle clip-path="url(#clip542)" cx="543.68" cy="382.868" r="14.4" fill="#e69f00" fill-rule="evenodd" fill-opacity="1" stroke="#000000" stroke-opacity="1" stroke-width="3.2"/>
<circle clip-path="url(#clip542)" cx="482.472" cy="609.517" r="14.4" fill="#e69f00" fill-rule="evenodd" fill-opacity="1" stroke="#000000" stroke-opacity="1" stroke-width="3.2"/>
<circle clip-path="url(#clip542)" cx="983.516" cy="881.388" r="14.4" fill="#e69f00" fill-rule="evenodd" fill-opacity="1" stroke="#000000" stroke-opacity="1" stroke-width="3.2"/>
<circle clip-path="url(#clip542)" cx="1476.96" cy="786.493" r="14.4" fill="#e69f00" fill-rule="evenodd" fill-opacity="1" stroke="#000000" stroke-opacity="1" stroke-width="3.2"/>
<circle clip-path="url(#clip542)" cx="1820.97" cy="722.145" r="14.4" fill="#e69f00" fill-rule="evenodd" fill-opacity="1" stroke="#000000" stroke-opacity="1" stroke-width="3.2"/>
<circle clip-path="url(#clip542)" cx="1841.51" cy="698.055" r="14.4" fill="#e69f00" fill-rule="evenodd" fill-opacity="1" stroke="#000000" stroke-opacity="1" stroke-width="3.2"/>
<circle clip-path="url(#clip542)" cx="928.202" cy="870.809" r="14.4" fill="#e69f00" fill-rule="evenodd" fill-opacity="1" stroke="#000000" stroke-opacity="1" stroke-width="3.2"/>
<circle clip-path="url(#clip542)" cx="2167.75" cy="719.432" r="14.4" fill="#e69f00" fill-rule="evenodd" fill-opacity="1" stroke="#000000" stroke-opacity="1" stroke-width="3.2"/>
<circle clip-path="url(#clip542)" cx="1270.77" cy="1046.68" r="14.4" fill="#e69f00" fill-rule="evenodd" fill-opacity="1" stroke="#000000" stroke-opacity="1" stroke-width="3.2"/>
<circle clip-path="url(#clip542)" cx="1986.79" cy="453.182" r="14.4" fill="#e69f00" fill-rule="evenodd" fill-opacity="1" stroke="#000000" stroke-opacity="1" stroke-width="3.2"/>
<circle clip-path="url(#clip542)" cx="1080.71" cy="694.573" r="14.4" fill="#e69f00" fill-rule="evenodd" fill-opacity="1" stroke="#000000" stroke-opacity="1" stroke-width="3.2"/>
<circle clip-path="url(#clip542)" cx="1898.26" cy="384.964" r="14.4" fill="#e69f00" fill-rule="evenodd" fill-opacity="1" stroke="#000000" stroke-opacity="1" stroke-width="3.2"/>
<circle clip-path="url(#clip542)" cx="764.167" cy="553.43" r="14.4" fill="#e69f00" fill-rule="evenodd" fill-opacity="1" stroke="#000000" stroke-opacity="1" stroke-width="3.2"/>
<circle clip-path="url(#clip542)" cx="626.305" cy="579.081" r="14.4" fill="#e69f00" fill-rule="evenodd" fill-opacity="1" stroke="#000000" stroke-opacity="1" stroke-width="3.2"/>
<circle clip-path="url(#clip542)" cx="1792.79" cy="394.539" r="14.4" fill="#e69f00" fill-rule="evenodd" fill-opacity="1" stroke="#000000" stroke-opacity="1" stroke-width="3.2"/>
<circle clip-path="url(#clip542)" cx="1967.88" cy="470.565" r="14.4" fill="#e69f00" fill-rule="evenodd" fill-opacity="1" stroke="#000000" stroke-opacity="1" stroke-width="3.2"/>
<circle clip-path="url(#clip542)" cx="2182.2" cy="949.78" r="14.4" fill="#e69f00" fill-rule="evenodd" fill-opacity="1" stroke="#000000" stroke-opacity="1" stroke-width="3.2"/>
<circle clip-path="url(#clip542)" cx="2053.22" cy="633.105" r="14.4" fill="#e69f00" fill-rule="evenodd" fill-opacity="1" stroke="#000000" stroke-opacity="1" stroke-width="3.2"/>
<circle clip-path="url(#clip542)" cx="1438" cy="701.192" r="14.4" fill="#e69f00" fill-rule="evenodd" fill-opacity="1" stroke="#000000" stroke-opacity="1" stroke-width="3.2"/>
<circle clip-path="url(#clip542)" cx="1948.29" cy="473.206" r="14.4" fill="#e69f00" fill-rule="evenodd" fill-opacity="1" stroke="#000000" stroke-opacity="1" stroke-width="3.2"/>
<circle clip-path="url(#clip542)" cx="1620.63" cy="541.216" r="14.4" fill="#e69f00" fill-rule="evenodd" fill-opacity="1" stroke="#000000" stroke-opacity="1" stroke-width="3.2"/>
<circle clip-path="url(#clip542)" cx="1257.55" cy="1301.57" r="14.4" fill="#e69f00" fill-rule="evenodd" fill-opacity="1" stroke="#000000" stroke-opacity="1" stroke-width="3.2"/>
<circle clip-path="url(#clip542)" cx="2071.68" cy="767.719" r="14.4" fill="#e69f00" fill-rule="evenodd" fill-opacity="1" stroke="#000000" stroke-opacity="1" stroke-width="3.2"/>
<circle clip-path="url(#clip542)" cx="925.921" cy="555.923" r="14.4" fill="#e69f00" fill-rule="evenodd" fill-opacity="1" stroke="#000000" stroke-opacity="1" stroke-width="3.2"/>
<circle clip-path="url(#clip542)" cx="1715.85" cy="556.735" r="14.4" fill="#e69f00" fill-rule="evenodd" fill-opacity="1" stroke="#000000" stroke-opacity="1" stroke-width="3.2"/>
<circle clip-path="url(#clip542)" cx="1619.7" cy="629.97" r="14.4" fill="#e69f00" fill-rule="evenodd" fill-opacity="1" stroke="#000000" stroke-opacity="1" stroke-width="3.2"/>
<circle clip-path="url(#clip542)" cx="580.023" cy="459.191" r="14.4" fill="#e69f00" fill-rule="evenodd" fill-opacity="1" stroke="#000000" stroke-opacity="1" stroke-width="3.2"/>
<circle clip-path="url(#clip542)" cx="1507.58" cy="975.636" r="14.4" fill="#e69f00" fill-rule="evenodd" fill-opacity="1" stroke="#000000" stroke-opacity="1" stroke-width="3.2"/>
<circle clip-path="url(#clip542)" cx="499.812" cy="784.783" r="14.4" fill="#e69f00" fill-rule="evenodd" fill-opacity="1" stroke="#000000" stroke-opacity="1" stroke-width="3.2"/>
<circle clip-path="url(#clip542)" cx="478.721" cy="686.962" r="14.4" fill="#e69f00" fill-rule="evenodd" fill-opacity="1" stroke="#000000" stroke-opacity="1" stroke-width="3.2"/>
<circle clip-path="url(#clip542)" cx="979.419" cy="670.757" r="14.4" fill="#e69f00" fill-rule="evenodd" fill-opacity="1" stroke="#000000" stroke-opacity="1" stroke-width="3.2"/>
<circle clip-path="url(#clip542)" cx="1288.04" cy="1083.4" r="14.4" fill="#e69f00" fill-rule="evenodd" fill-opacity="1" stroke="#000000" stroke-opacity="1" stroke-width="3.2"/>
<circle clip-path="url(#clip542)" cx="335.283" cy="818.955" r="14.4" fill="#e69f00" fill-rule="evenodd" fill-opacity="1" stroke="#000000" stroke-opacity="1" stroke-width="3.2"/>
<circle clip-path="url(#clip542)" cx="2162.99" cy="955.374" r="14.4" fill="#e69f00" fill-rule="evenodd" fill-opacity="1" stroke="#000000" stroke-opacity="1" stroke-width="3.2"/>
<circle clip-path="url(#clip542)" cx="1021.42" cy="896.85" r="14.4" fill="#e69f00" fill-rule="evenodd" fill-opacity="1" stroke="#000000" stroke-opacity="1" stroke-width="3.2"/>
<circle clip-path="url(#clip542)" cx="1281.81" cy="1035.16" r="14.4" fill="#e69f00" fill-rule="evenodd" fill-opacity="1" stroke="#000000" stroke-opacity="1" stroke-width="3.2"/>
<circle clip-path="url(#clip542)" cx="1935.45" cy="533.113" r="14.4" fill="#e69f00" fill-rule="evenodd" fill-opacity="1" stroke="#000000" stroke-opacity="1" stroke-width="3.2"/>
<circle clip-path="url(#clip542)" cx="1453.37" cy="1084.34" r="14.4" fill="#e69f00" fill-rule="evenodd" fill-opacity="1" stroke="#000000" stroke-opacity="1" stroke-width="3.2"/>
<circle clip-path="url(#clip542)" cx="467.49" cy="786.354" r="14.4" fill="#e69f00" fill-rule="evenodd" fill-opacity="1" stroke="#000000" stroke-opacity="1" stroke-width="3.2"/>
<circle clip-path="url(#clip542)" cx="1398.7" cy="965.738" r="14.4" fill="#e69f00" fill-rule="evenodd" fill-opacity="1" stroke="#000000" stroke-opacity="1" stroke-width="3.2"/>
<circle clip-path="url(#clip542)" cx="1164.84" cy="1015.93" r="14.4" fill="#e69f00" fill-rule="evenodd" fill-opacity="1" stroke="#000000" stroke-opacity="1" stroke-width="3.2"/>
<circle clip-path="url(#clip542)" cx="2008.9" cy="625.786" r="14.4" fill="#e69f00" fill-rule="evenodd" fill-opacity="1" stroke="#000000" stroke-opacity="1" stroke-width="3.2"/>
<circle clip-path="url(#clip542)" cx="1868.47" cy="364.182" r="14.4" fill="#e69f00" fill-rule="evenodd" fill-opacity="1" stroke="#000000" stroke-opacity="1" stroke-width="3.2"/>
<circle clip-path="url(#clip542)" cx="578.059" cy="475.942" r="14.4" fill="#e69f00" fill-rule="evenodd" fill-opacity="1" stroke="#000000" stroke-opacity="1" stroke-width="3.2"/>
<circle clip-path="url(#clip542)" cx="1207.59" cy="1085.2" r="14.4" fill="#e69f00" fill-rule="evenodd" fill-opacity="1" stroke="#000000" stroke-opacity="1" stroke-width="3.2"/>
<circle clip-path="url(#clip542)" cx="1597.78" cy="559.905" r="14.4" fill="#e69f00" fill-rule="evenodd" fill-opacity="1" stroke="#000000" stroke-opacity="1" stroke-width="3.2"/>
<circle clip-path="url(#clip542)" cx="2169.01" cy="1064.17" r="14.4" fill="#e69f00" fill-rule="evenodd" fill-opacity="1" stroke="#000000" stroke-opacity="1" stroke-width="3.2"/>
<circle clip-path="url(#clip542)" cx="407.993" cy="604.085" r="14.4" fill="#e69f00" fill-rule="evenodd" fill-opacity="1" stroke="#000000" stroke-opacity="1" stroke-width="3.2"/>
<circle clip-path="url(#clip542)" cx="973.422" cy="756.451" r="14.4" fill="#e69f00" fill-rule="evenodd" fill-opacity="1" stroke="#000000" stroke-opacity="1" stroke-width="3.2"/>
<circle clip-path="url(#clip542)" cx="1244.49" cy="1069.58" r="14.4" fill="#e69f00" fill-rule="evenodd" fill-opacity="1" stroke="#000000" stroke-opacity="1" stroke-width="3.2"/>
<circle clip-path="url(#clip542)" cx="1421.69" cy="871.207" r="14.4" fill="#e69f00" fill-rule="evenodd" fill-opacity="1" stroke="#000000" stroke-opacity="1" stroke-width="3.2"/>
<circle clip-path="url(#clip542)" cx="1737.48" cy="689.414" r="14.4" fill="#e69f00" fill-rule="evenodd" fill-opacity="1" stroke="#000000" stroke-opacity="1" stroke-width="3.2"/>
<circle clip-path="url(#clip542)" cx="351.512" cy="972.019" r="14.4" fill="#e69f00" fill-rule="evenodd" fill-opacity="1" stroke="#000000" stroke-opacity="1" stroke-width="3.2"/>
<circle clip-path="url(#clip542)" cx="1991.98" cy="492.947" r="14.4" fill="#e69f00" fill-rule="evenodd" fill-opacity="1" stroke="#000000" stroke-opacity="1" stroke-width="3.2"/>
<circle clip-path="url(#clip542)" cx="926.998" cy="795.644" r="14.4" fill="#e69f00" fill-rule="evenodd" fill-opacity="1" stroke="#000000" stroke-opacity="1" stroke-width="3.2"/>
<circle clip-path="url(#clip542)" cx="1619.82" cy="1079.87" r="14.4" fill="#e69f00" fill-rule="evenodd" fill-opacity="1" stroke="#000000" stroke-opacity="1" stroke-width="3.2"/>
<circle clip-path="url(#clip542)" cx="1537.97" cy="843.668" r="14.4" fill="#e69f00" fill-rule="evenodd" fill-opacity="1" stroke="#000000" stroke-opacity="1" stroke-width="3.2"/>
<circle clip-path="url(#clip542)" cx="1470.43" cy="1143.03" r="14.4" fill="#e69f00" fill-rule="evenodd" fill-opacity="1" stroke="#000000" stroke-opacity="1" stroke-width="3.2"/>
<circle clip-path="url(#clip542)" cx="1235.27" cy="936.007" r="14.4" fill="#e69f00" fill-rule="evenodd" fill-opacity="1" stroke="#000000" stroke-opacity="1" stroke-width="3.2"/>
<circle clip-path="url(#clip542)" cx="740.542" cy="258.187" r="14.4" fill="#e69f00" fill-rule="evenodd" fill-opacity="1" stroke="#000000" stroke-opacity="1" stroke-width="3.2"/>
<circle clip-path="url(#clip542)" cx="1458.95" cy="1198.47" r="14.4" fill="#e69f00" fill-rule="evenodd" fill-opacity="1" stroke="#000000" stroke-opacity="1" stroke-width="3.2"/>
<circle clip-path="url(#clip542)" cx="1866.37" cy="226.897" r="14.4" fill="#e69f00" fill-rule="evenodd" fill-opacity="1" stroke="#000000" stroke-opacity="1" stroke-width="3.2"/>
<circle clip-path="url(#clip542)" cx="329.136" cy="1074.03" r="14.4" fill="#e69f00" fill-rule="evenodd" fill-opacity="1" stroke="#000000" stroke-opacity="1" stroke-width="3.2"/>
<circle clip-path="url(#clip542)" cx="1326.68" cy="1281.92" r="14.4" fill="#e69f00" fill-rule="evenodd" fill-opacity="1" stroke="#000000" stroke-opacity="1" stroke-width="3.2"/>
<circle clip-path="url(#clip542)" cx="1704.17" cy="729.076" r="14.4" fill="#e69f00" fill-rule="evenodd" fill-opacity="1" stroke="#000000" stroke-opacity="1" stroke-width="3.2"/>
<circle clip-path="url(#clip542)" cx="1704.74" cy="626.979" r="14.4" fill="#e69f00" fill-rule="evenodd" fill-opacity="1" stroke="#000000" stroke-opacity="1" stroke-width="3.2"/>
<circle clip-path="url(#clip542)" cx="655.821" cy="321.857" r="14.4" fill="#e69f00" fill-rule="evenodd" fill-opacity="1" stroke="#000000" stroke-opacity="1" stroke-width="3.2"/>
<circle clip-path="url(#clip542)" cx="944.481" cy="942.226" r="14.4" fill="#e69f00" fill-rule="evenodd" fill-opacity="1" stroke="#000000" stroke-opacity="1" stroke-width="3.2"/>
<circle clip-path="url(#clip542)" cx="1689.2" cy="895.425" r="14.4" fill="#e69f00" fill-rule="evenodd" fill-opacity="1" stroke="#000000" stroke-opacity="1" stroke-width="3.2"/>
<circle clip-path="url(#clip542)" cx="1091.6" cy="868.703" r="14.4" fill="#e69f00" fill-rule="evenodd" fill-opacity="1" stroke="#000000" stroke-opacity="1" stroke-width="3.2"/>
<circle clip-path="url(#clip542)" cx="1085.05" cy="1014.41" r="14.4" fill="#e69f00" fill-rule="evenodd" fill-opacity="1" stroke="#000000" stroke-opacity="1" stroke-width="3.2"/>
<circle clip-path="url(#clip542)" cx="395.176" cy="784.812" r="14.4" fill="#e69f00" fill-rule="evenodd" fill-opacity="1" stroke="#000000" stroke-opacity="1" stroke-width="3.2"/>
<circle clip-path="url(#clip542)" cx="2036.54" cy="664.031" r="14.4" fill="#e69f00" fill-rule="evenodd" fill-opacity="1" stroke="#000000" stroke-opacity="1" stroke-width="3.2"/>
<circle clip-path="url(#clip542)" cx="750.117" cy="418.958" r="14.4" fill="#e69f00" fill-rule="evenodd" fill-opacity="1" stroke="#000000" stroke-opacity="1" stroke-width="3.2"/>
<circle clip-path="url(#clip542)" cx="1671.14" cy="582.429" r="14.4" fill="#e69f00" fill-rule="evenodd" fill-opacity="1" stroke="#000000" stroke-opacity="1" stroke-width="3.2"/>
<circle clip-path="url(#clip542)" cx="2020.88" cy="552.701" r="14.4" fill="#e69f00" fill-rule="evenodd" fill-opacity="1" stroke="#000000" stroke-opacity="1" stroke-width="3.2"/>
<circle clip-path="url(#clip542)" cx="1074.55" cy="733.408" r="14.4" fill="#e69f00" fill-rule="evenodd" fill-opacity="1" stroke="#000000" stroke-opacity="1" stroke-width="3.2"/>
<circle clip-path="url(#clip542)" cx="452.027" cy="305.697" r="14.4" fill="#e69f00" fill-rule="evenodd" fill-opacity="1" stroke="#000000" stroke-opacity="1" stroke-width="3.2"/>
<circle clip-path="url(#clip542)" cx="642.338" cy="658.575" r="14.4" fill="#e69f00" fill-rule="evenodd" fill-opacity="1" stroke="#000000" stroke-opacity="1" stroke-width="3.2"/>
<circle clip-path="url(#clip542)" cx="1701.77" cy="488.306" r="14.4" fill="#e69f00" fill-rule="evenodd" fill-opacity="1" stroke="#000000" stroke-opacity="1" stroke-width="3.2"/>
<circle clip-path="url(#clip542)" cx="395.217" cy="673.299" r="14.4" fill="#e69f00" fill-rule="evenodd" fill-opacity="1" stroke="#000000" stroke-opacity="1" stroke-width="3.2"/>
<circle clip-path="url(#clip542)" cx="611.722" cy="452.711" r="14.4" fill="#e69f00" fill-rule="evenodd" fill-opacity="1" stroke="#000000" stroke-opacity="1" stroke-width="3.2"/>
<circle clip-path="url(#clip542)" cx="1119.08" cy="1068.35" r="14.4" fill="#e69f00" fill-rule="evenodd" fill-opacity="1" stroke="#000000" stroke-opacity="1" stroke-width="3.2"/>
<circle clip-path="url(#clip542)" cx="1892.81" cy="309.934" r="14.4" fill="#e69f00" fill-rule="evenodd" fill-opacity="1" stroke="#000000" stroke-opacity="1" stroke-width="3.2"/>
<circle clip-path="url(#clip542)" cx="2139" cy="739.761" r="14.4" fill="#e69f00" fill-rule="evenodd" fill-opacity="1" stroke="#000000" stroke-opacity="1" stroke-width="3.2"/>
<circle clip-path="url(#clip542)" cx="1999.71" cy="624.332" r="14.4" fill="#e69f00" fill-rule="evenodd" fill-opacity="1" stroke="#000000" stroke-opacity="1" stroke-width="3.2"/>
<circle clip-path="url(#clip542)" cx="1799.28" cy="413.471" r="14.4" fill="#e69f00" fill-rule="evenodd" fill-opacity="1" stroke="#000000" stroke-opacity="1" stroke-width="3.2"/>
<circle clip-path="url(#clip542)" cx="439.163" cy="574.9" r="14.4" fill="#e69f00" fill-rule="evenodd" fill-opacity="1" stroke="#000000" stroke-opacity="1" stroke-width="3.2"/>
<circle clip-path="url(#clip542)" cx="375.867" cy="808.725" r="14.4" fill="#e69f00" fill-rule="evenodd" fill-opacity="1" stroke="#000000" stroke-opacity="1" stroke-width="3.2"/>
<circle clip-path="url(#clip542)" cx="2160.74" cy="931.457" r="14.4" fill="#e69f00" fill-rule="evenodd" fill-opacity="1" stroke="#000000" stroke-opacity="1" stroke-width="3.2"/>
<circle clip-path="url(#clip542)" cx="1014.97" cy="820.165" r="14.4" fill="#e69f00" fill-rule="evenodd" fill-opacity="1" stroke="#000000" stroke-opacity="1" stroke-width="3.2"/>
<circle clip-path="url(#clip542)" cx="1305.81" cy="736.635" r="14.4" fill="#e69f00" fill-rule="evenodd" fill-opacity="1" stroke="#000000" stroke-opacity="1" stroke-width="3.2"/>
<circle clip-path="url(#clip542)" cx="1988.94" cy="530.214" r="14.4" fill="#e69f00" fill-rule="evenodd" fill-opacity="1" stroke="#000000" stroke-opacity="1" stroke-width="3.2"/>
<circle clip-path="url(#clip542)" cx="2081.37" cy="455.532" r="14.4" fill="#e69f00" fill-rule="evenodd" fill-opacity="1" stroke="#000000" stroke-opacity="1" stroke-width="3.2"/>
<circle clip-path="url(#clip542)" cx="1418.82" cy="759.901" r="14.4" fill="#e69f00" fill-rule="evenodd" fill-opacity="1" stroke="#000000" stroke-opacity="1" stroke-width="3.2"/>
<circle clip-path="url(#clip542)" cx="1620.7" cy="871.107" r="14.4" fill="#e69f00" fill-rule="evenodd" fill-opacity="1" stroke="#000000" stroke-opacity="1" stroke-width="3.2"/>
<circle clip-path="url(#clip542)" cx="1079.05" cy="914.618" r="14.4" fill="#e69f00" fill-rule="evenodd" fill-opacity="1" stroke="#000000" stroke-opacity="1" stroke-width="3.2"/>
<circle clip-path="url(#clip542)" cx="2029.22" cy="921.37" r="14.4" fill="#e69f00" fill-rule="evenodd" fill-opacity="1" stroke="#000000" stroke-opacity="1" stroke-width="3.2"/>
<path clip-path="url(#clip542)" d="
M147.478 1103.16 L192.484 1103.16 L237.489 1103.16 L282.495 1103.16 L327.501 1103.16 L372.506 1103.16 L417.512 1075.51 L462.518 987.229 L507.523 952.978 L552.529 966.535 
  L597.535 959.024 L642.54 957.332 L687.546 957.332 L732.552 971.215 L777.557 997.902 L822.563 1016.14 L867.569 1083.64 L912.574 1150.85 L957.58 1159.53 L1002.59 1194.86 
  L1047.59 1194.86 L1092.6 1235.51 L1137.6 1308.2 L1182.61 1333.44 L1227.61 1333.44 L1272.62 1333.44 L1317.63 1281.82 L1362.63 1253.66 L1407.64 1247.62 L1452.64 1208.41 
  L1497.65 1193.61 L1542.65 1161.53 L1587.66 1137.52 L1632.67 1057 L1677.67 1040.62 L1722.68 988.228 L1767.68 988.228 L1812.69 986.926 L1857.69 998.605 L1902.7 998.605 
  L1947.7 1003.64 L1992.71 1003.64 L2037.72 1003.64 L2082.72 1012.34 L2127.73 1054.16 L2172.73 1057.94 L2217.74 1057.94 L2262.74 1057.94 L2307.75 1057.94 L2352.76 1057.94 
  L2352.76 337.977 L2307.75 337.977 L2262.74 337.977 L2217.74 337.977 L2172.73 337.977 L2127.73 315.645 L2082.72 276.956 L2037.72 265.489 L1992.71 264.188 L1947.7 264.188 
  L1902.7 264.188 L1857.69 264.188 L1812.69 241.745 L1767.68 246.204 L1722.68 246.204 L1677.67 314.752 L1632.67 337.224 L1587.66 410.208 L1542.65 466.849 L1497.65 471.13 
  L1452.64 480.811 L1407.64 521.129 L1362.63 526.301 L1317.63 580.446 L1272.62 590.169 L1227.61 590.169 L1182.61 590.169 L1137.6 580.629 L1092.6 515.179 L1047.59 461.853 
  L1002.59 461.771 L957.58 426.672 L912.574 412.17 L867.569 360.181 L822.563 291.1 L777.557 281.447 L732.552 241.588 L687.546 219.603 L642.54 219.603 L597.535 219.603 
  L552.529 229.501 L507.523 226.503 L462.518 268.386 L417.512 333.301 L372.506 378.567 L327.501 401.515 L282.495 401.515 L237.489 401.515 L192.484 401.515 L147.478 401.515 
   Z
  " fill="#56b4e9" fill-rule="evenodd" fill-opacity="0.5"/>
<polyline clip-path="url(#clip542)" style="stroke:#56b4e9; stroke-linecap:round; stroke-linejoin:round; stroke-width:16; stroke-opacity:1; fill:none" points="
  147.478,752.34 192.484,752.34 237.489,752.34 282.495,752.34 327.501,752.34 372.506,740.866 417.512,704.408 462.518,627.808 507.523,589.741 552.529,598.018 
  597.535,589.313 642.54,588.468 687.546,588.468 732.552,606.402 777.557,639.674 822.563,653.619 867.569,721.913 912.574,781.512 957.58,793.101 1002.59,828.315 
  1047.59,828.357 1092.6,875.344 1137.6,944.415 1182.61,961.804 1227.61,961.804 1272.62,961.804 1317.63,931.134 1362.63,889.983 1407.64,884.372 1452.64,844.612 
  1497.65,832.372 1542.65,814.192 1587.66,773.864 1632.67,697.113 1677.67,677.685 1722.68,617.216 1767.68,617.216 1812.69,614.335 1857.69,631.397 1902.7,631.397 
  1947.7,633.911 1992.71,633.911 2037.72,634.562 2082.72,644.647 2127.73,684.904 2172.73,697.956 2217.74,697.956 2262.74,697.956 2307.75,697.956 2352.76,697.956 
  
  "/>
<polyline clip-path="url(#clip542)" style="stroke:#000000; stroke-linecap:round; stroke-linejoin:round; stroke-width:4; stroke-opacity:1; fill:none" stroke-dasharray="16, 10" points="
  144.392,1467.34 148.083,1453.79 151.774,1440.26 155.465,1426.77 159.156,1413.31 162.847,1399.89 166.538,1386.51 170.229,1373.17 173.92,1359.87 177.611,1346.62 
  181.303,1333.42 184.994,1320.26 188.685,1307.16 192.376,1294.11 196.067,1281.12 199.758,1268.18 203.449,1255.3 207.14,1242.49 210.831,1229.74 214.522,1217.05 
  218.213,1204.43 221.905,1191.88 225.596,1179.4 229.287,1166.99 232.978,1154.66 236.669,1142.4 240.36,1130.22 244.051,1118.12 247.742,1106.11 251.433,1094.17 
  255.124,1082.32 258.815,1070.56 262.506,1058.88 266.198,1047.3 269.889,1035.8 273.58,1024.4 277.271,1013.09 280.962,1001.88 284.653,990.761 288.344,979.744 
  292.035,968.826 295.726,958.01 299.417,947.297 303.108,936.688 306.8,926.184 310.491,915.786 314.182,905.497 317.873,895.316 321.564,885.246 325.255,875.287 
  328.946,865.441 332.637,855.708 336.328,846.091 340.019,836.589 343.71,827.204 347.401,817.937 351.093,808.789 354.784,799.761 358.475,790.854 362.166,782.069 
  365.857,773.406 369.548,764.866 373.239,756.451 376.93,748.161 380.621,739.996 384.312,731.958 388.003,724.048 391.694,716.265 395.386,708.611 399.077,701.086 
  402.768,693.69 406.459,686.425 410.15,679.291 413.841,672.289 417.532,665.418 421.223,658.679 424.914,652.074 428.605,645.601 432.296,639.262 435.988,633.056 
  439.679,626.985 443.37,621.048 447.061,615.246 450.752,609.578 454.443,604.046 458.134,598.649 461.825,593.387 465.516,588.26 469.207,583.269 472.898,578.414 
  476.589,573.695 480.281,569.11 483.972,564.662 487.663,560.349 491.354,556.172 495.045,552.129 498.736,548.222 502.427,544.45 506.118,540.813 509.809,537.311 
  513.5,533.942 517.191,530.708 520.883,527.608 524.574,524.641 528.265,521.807 531.956,519.106 535.647,516.537 539.338,514.1 543.029,511.794 546.72,509.619 
  550.411,507.575 554.102,505.66 557.793,503.875 561.484,502.219 565.176,500.69 568.867,499.29 572.558,498.016 576.249,496.868 579.94,495.845 583.631,494.948 
  587.322,494.174 591.013,493.524 594.704,492.995 598.395,492.589 602.086,492.303 605.778,492.137 609.469,492.09 613.16,492.161 616.851,492.35 620.542,492.654 
  624.233,493.074 627.924,493.608 631.615,494.255 635.306,495.014 638.997,495.885 642.688,496.865 646.379,497.955 650.071,499.152 653.762,500.456 657.453,501.866 
  661.144,503.38 664.835,504.998 668.526,506.717 672.217,508.537 675.908,510.457 679.599,512.476 683.29,514.591 686.981,516.802 690.673,519.107 694.364,521.506 
  698.055,523.997 701.746,526.578 705.437,529.248 709.128,532.006 712.819,534.85 716.51,537.78 720.201,540.793 723.892,543.888 727.583,547.063 731.274,550.318 
  734.966,553.651 738.657,557.06 742.348,560.544 746.039,564.101 749.73,567.73 753.421,571.43 757.112,575.198 760.803,579.033 764.494,582.934 768.185,586.9 
  771.876,590.927 775.568,595.016 779.259,599.165 782.95,603.371 786.641,607.633 790.332,611.95 794.023,616.32 797.714,620.742 801.405,625.213 805.096,629.733 
  808.787,634.299 812.478,638.91 816.169,643.564 819.861,648.26 823.552,652.996 827.243,657.771 830.934,662.582 834.625,667.428 838.316,672.308 842.007,677.22 
  845.698,682.162 849.389,687.132 853.08,692.129 856.771,697.151 860.463,702.197 864.154,707.264 867.845,712.352 871.536,717.458 875.227,722.581 878.918,727.72 
  882.609,732.872 886.3,738.036 889.991,743.21 893.682,748.393 897.373,753.583 901.064,758.779 904.756,763.978 908.447,769.18 912.138,774.382 915.829,779.583 
  919.52,784.781 923.211,789.975 926.902,795.164 930.593,800.344 934.284,805.516 937.975,810.678 941.666,815.827 945.357,820.962 949.049,826.083 952.74,831.186 
  956.431,836.271 960.122,841.337 963.813,846.381 967.504,851.402 971.195,856.399 974.886,861.371 978.577,866.315 982.268,871.23 985.959,876.116 989.651,880.969 
  993.342,885.79 997.033,890.577 1000.72,895.327 1004.41,900.041 1008.11,904.716 1011.8,909.351 1015.49,913.945 1019.18,918.497 1022.87,923.004 1026.56,927.467 
  1030.25,931.883 1033.94,936.252 1037.63,940.571 1041.33,944.841 1045.02,949.059 1048.71,953.225 1052.4,957.336 1056.09,961.394 1059.78,965.395 1063.47,969.338 
  1067.16,973.224 1070.85,977.05 1074.55,980.816 1078.24,984.52 1081.93,988.162 1085.62,991.74 1089.31,995.254 1093,998.702 1096.69,1002.08 1100.38,1005.4 
  1104.07,1008.64 1107.77,1011.82 1111.46,1014.93 1115.15,1017.96 1118.84,1020.93 1122.53,1023.82 1126.22,1026.63 1129.91,1029.38 1133.6,1032.04 1137.29,1034.64 
  1140.99,1037.15 1144.68,1039.59 1148.37,1041.95 1152.06,1044.23 1155.75,1046.44 1159.44,1048.56 1163.13,1050.6 1166.82,1052.57 1170.51,1054.45 1174.2,1056.25 
  1177.9,1057.96 1181.59,1059.6 1185.28,1061.15 1188.97,1062.61 1192.66,1063.99 1196.35,1065.29 1200.04,1066.51 1203.73,1067.63 1207.42,1068.67 1211.12,1069.63 
  1214.81,1070.5 1218.5,1071.28 1222.19,1071.98 1225.88,1072.59 1229.57,1073.12 1233.26,1073.55 1236.95,1073.9 1240.64,1074.16 1244.34,1074.34 1248.03,1074.43 
  1251.72,1074.43 1255.41,1074.34 1259.1,1074.16 1262.79,1073.9 1266.48,1073.55 1270.17,1073.12 1273.86,1072.59 1277.56,1071.98 1281.25,1071.28 1284.94,1070.5 
  1288.63,1069.63 1292.32,1068.67 1296.01,1067.63 1299.7,1066.51 1303.39,1065.29 1307.08,1063.99 1310.78,1062.61 1314.47,1061.15 1318.16,1059.6 1321.85,1057.96 
  1325.54,1056.25 1329.23,1054.45 1332.92,1052.57 1336.61,1050.6 1340.3,1048.56 1343.99,1046.44 1347.69,1044.23 1351.38,1041.95 1355.07,1039.59 1358.76,1037.15 
  1362.45,1034.64 1366.14,1032.04 1369.83,1029.38 1373.52,1026.63 1377.21,1023.82 1380.91,1020.93 1384.6,1017.96 1388.29,1014.93 1391.98,1011.82 1395.67,1008.64 
  1399.36,1005.4 1403.05,1002.08 1406.74,998.702 1410.43,995.254 1414.13,991.74 1417.82,988.162 1421.51,984.52 1425.2,980.816 1428.89,977.05 1432.58,973.224 
  1436.27,969.338 1439.96,965.395 1443.65,961.394 1447.35,957.336 1451.04,953.225 1454.73,949.059 1458.42,944.841 1462.11,940.571 1465.8,936.252 1469.49,931.883 
  1473.18,927.467 1476.87,923.004 1480.57,918.497 1484.26,913.945 1487.95,909.351 1491.64,904.716 1495.33,900.041 1499.02,895.327 1502.71,890.577 1506.4,885.79 
  1510.09,880.969 1513.78,876.116 1517.48,871.23 1521.17,866.315 1524.86,861.371 1528.55,856.399 1532.24,851.402 1535.93,846.381 1539.62,841.337 1543.31,836.271 
  1547,831.186 1550.7,826.083 1554.39,820.962 1558.08,815.827 1561.77,810.678 1565.46,805.516 1569.15,800.344 1572.84,795.164 1576.53,789.975 1580.22,784.781 
  1583.92,779.583 1587.61,774.382 1591.3,769.18 1594.99,763.978 1598.68,758.779 1602.37,753.583 1606.06,748.393 1609.75,743.21 1613.44,738.036 1617.14,732.872 
  1620.83,727.72 1624.52,722.581 1628.21,717.458 1631.9,712.352 1635.59,707.264 1639.28,702.197 1642.97,697.151 1646.66,692.129 1650.36,687.132 1654.05,682.162 
  1657.74,677.22 1661.43,672.308 1665.12,667.428 1668.81,662.582 1672.5,657.771 1676.19,652.996 1679.88,648.26 1683.57,643.564 1687.27,638.91 1690.96,634.299 
  1694.65,629.733 1698.34,625.213 1702.03,620.742 1705.72,616.32 1709.41,611.95 1713.1,607.633 1716.79,603.371 1720.49,599.165 1724.18,595.016 1727.87,590.927 
  1731.56,586.9 1735.25,582.934 1738.94,579.033 1742.63,575.198 1746.32,571.43 1750.01,567.73 1753.71,564.101 1757.4,560.544 1761.09,557.06 1764.78,553.651 
  1768.47,550.318 1772.16,547.063 1775.85,543.888 1779.54,540.793 1783.23,537.78 1786.93,534.85 1790.62,532.006 1794.31,529.248 1798,526.578 1801.69,523.997 
  1805.38,521.506 1809.07,519.107 1812.76,516.802 1816.45,514.591 1820.15,512.476 1823.84,510.457 1827.53,508.537 1831.22,506.717 1834.91,504.998 1838.6,503.38 
  1842.29,501.866 1845.98,500.456 1849.67,499.152 1853.36,497.955 1857.06,496.865 1860.75,495.885 1864.44,495.014 1868.13,494.255 1871.82,493.608 1875.51,493.074 
  1879.2,492.654 1882.89,492.35 1886.58,492.161 1890.28,492.09 1893.97,492.137 1897.66,492.303 1901.35,492.589 1905.04,492.995 1908.73,493.524 1912.42,494.174 
  1916.11,494.948 1919.8,495.845 1923.5,496.868 1927.19,498.016 1930.88,499.29 1934.57,500.69 1938.26,502.219 1941.95,503.875 1945.64,505.66 1949.33,507.575 
  1953.02,509.619 1956.72,511.794 1960.41,514.1 1964.1,516.537 1967.79,519.106 1971.48,521.807 1975.17,524.641 1978.86,527.608 1982.55,530.708 1986.24,533.942 
  1989.94,537.311 1993.63,540.813 1997.32,544.45 2001.01,548.222 2004.7,552.129 2008.39,556.172 2012.08,560.349 2015.77,564.662 2019.46,569.11 2023.15,573.695 
  2026.85,578.414 2030.54,583.269 2034.23,588.26 2037.92,593.387 2041.61,598.649 2045.3,604.046 2048.99,609.578 2052.68,615.246 2056.37,621.048 2060.07,626.985 
  2063.76,633.056 2067.45,639.262 2071.14,645.601 2074.83,652.074 2078.52,658.679 2082.21,665.418 2085.9,672.289 2089.59,679.291 2093.29,686.425 2096.98,693.69 
  2100.67,701.086 2104.36,708.611 2108.05,716.265 2111.74,724.048 2115.43,731.958 2119.12,739.996 2122.81,748.161 2126.51,756.451 2130.2,764.866 2133.89,773.406 
  2137.58,782.069 2141.27,790.854 2144.96,799.761 2148.65,808.789 2152.34,817.937 2156.03,827.204 2159.73,836.589 2163.42,846.091 2167.11,855.708 2170.8,865.441 
  2174.49,875.287 2178.18,885.246 2181.87,895.316 2185.56,905.497 2189.25,915.786 2192.94,926.184 2196.64,936.688 2200.33,947.297 2204.02,958.01 2207.71,968.826 
  2211.4,979.744 2215.09,990.761 2218.78,1001.88 2222.47,1013.09 2226.16,1024.4 2229.86,1035.8 2233.55,1047.3 2237.24,1058.88 2240.93,1070.56 2244.62,1082.32 
  2248.31,1094.17 2252,1106.11 2255.69,1118.12 2259.38,1130.22 2263.08,1142.4 2266.77,1154.66 2270.46,1166.99 2274.15,1179.4 2277.84,1191.88 2281.53,1204.43 
  2285.22,1217.05 2288.91,1229.74 2292.6,1242.49 2296.3,1255.3 2299.99,1268.18 2303.68,1281.12 2307.37,1294.11 2311.06,1307.16 2314.75,1320.26 2318.44,1333.42 
  2322.13,1346.62 2325.82,1359.87 2329.51,1373.17 2333.21,1386.51 2336.9,1399.89 2340.59,1413.31 2344.28,1426.77 2347.97,1440.26 2351.66,1453.79 2355.35,1467.34 
  
  "/>
<path clip-path="url(#clip540)" d="
M1759.21 302.578 L2279.25 302.578 L2279.25 95.2176 L1759.21 95.2176  Z
  " fill="#ffffff" fill-rule="evenodd" fill-opacity="1"/>
<polyline clip-path="url(#clip540)" style="stroke:#000000; stroke-linecap:round; stroke-linejoin:round; stroke-width:4; stroke-opacity:1; fill:none" points="
  1759.21,302.578 2279.25,302.578 2279.25,95.2176 1759.21,95.2176 1759.21,302.578 
  "/>
<circle clip-path="url(#clip540)" cx="1857.22" cy="147.058" r="23.04" fill="#e69f00" fill-rule="evenodd" fill-opacity="1" stroke="#000000" stroke-opacity="1" stroke-width="5.12"/>
<path clip-path="url(#clip540)" d="M1955.23 129.778 L1984.47 129.778 L1984.47 133.713 L1972.2 133.713 L1972.2 164.338 L1967.5 164.338 L1967.5 133.713 L1955.23 133.713 L1955.23 129.778 Z" fill="#000000" fill-rule="evenodd" fill-opacity="1" /><path clip-path="url(#clip540)" d="M2002.92 150.31 L2002.92 152.393 L1983.33 152.393 Q1983.61 156.791 1985.97 159.106 Q1988.36 161.398 1992.59 161.398 Q1995.05 161.398 1997.34 160.796 Q1999.65 160.194 2001.92 158.99 L2001.92 163.018 Q1999.63 163.99 1997.22 164.5 Q1994.81 165.009 1992.34 165.009 Q1986.13 165.009 1982.5 161.398 Q1978.89 157.787 1978.89 151.629 Q1978.89 145.264 1982.31 141.537 Q1985.76 137.787 1991.6 137.787 Q1996.83 137.787 1999.86 141.166 Q2002.92 144.523 2002.92 150.31 M1998.66 149.06 Q1998.61 145.565 1996.69 143.481 Q1994.79 141.398 1991.64 141.398 Q1988.08 141.398 1985.93 143.412 Q1983.8 145.426 1983.47 149.083 L1998.66 149.06 Z" fill="#000000" fill-rule="evenodd" fill-opacity="1" /><path clip-path="url(#clip540)" d="M2026.43 139.176 L2026.43 143.203 Q2024.63 142.277 2022.68 141.815 Q2020.74 141.352 2018.66 141.352 Q2015.49 141.352 2013.89 142.324 Q2012.31 143.296 2012.31 145.24 Q2012.31 146.722 2013.45 147.578 Q2014.58 148.412 2018.01 149.176 L2019.47 149.5 Q2024 150.472 2025.9 152.254 Q2027.82 154.014 2027.82 157.185 Q2027.82 160.796 2024.95 162.902 Q2022.11 165.009 2017.11 165.009 Q2015.02 165.009 2012.75 164.592 Q2010.51 164.199 2008.01 163.388 L2008.01 158.99 Q2010.37 160.217 2012.66 160.842 Q2014.95 161.444 2017.2 161.444 Q2020.21 161.444 2021.83 160.426 Q2023.45 159.384 2023.45 157.509 Q2023.45 155.773 2022.27 154.847 Q2021.11 153.921 2017.15 153.064 L2015.67 152.717 Q2011.71 151.884 2009.95 150.171 Q2008.19 148.435 2008.19 145.426 Q2008.19 141.768 2010.79 139.778 Q2013.38 137.787 2018.15 137.787 Q2020.51 137.787 2022.59 138.134 Q2024.68 138.481 2026.43 139.176 Z" fill="#000000" fill-rule="evenodd" fill-opacity="1" /><path clip-path="url(#clip540)" d="M2038.82 131.051 L2038.82 138.412 L2047.59 138.412 L2047.59 141.722 L2038.82 141.722 L2038.82 155.796 Q2038.82 158.967 2039.68 159.87 Q2040.55 160.773 2043.22 160.773 L2047.59 160.773 L2047.59 164.338 L2043.22 164.338 Q2038.29 164.338 2036.41 162.509 Q2034.54 160.657 2034.54 155.796 L2034.54 141.722 L2031.41 141.722 L2031.41 138.412 L2034.54 138.412 L2034.54 131.051 L2038.82 131.051 Z" fill="#000000" fill-rule="evenodd" fill-opacity="1" /><path clip-path="url(#clip540)" d="M2072.38 160.449 L2072.38 174.199 L2068.1 174.199 L2068.1 138.412 L2072.38 138.412 L2072.38 142.347 Q2073.73 140.032 2075.76 138.921 Q2077.82 137.787 2080.67 137.787 Q2085.39 137.787 2088.33 141.537 Q2091.3 145.287 2091.3 151.398 Q2091.3 157.509 2088.33 161.259 Q2085.39 165.009 2080.67 165.009 Q2077.82 165.009 2075.76 163.898 Q2073.73 162.763 2072.38 160.449 M2086.87 151.398 Q2086.87 146.699 2084.93 144.037 Q2083.01 141.352 2079.63 141.352 Q2076.25 141.352 2074.3 144.037 Q2072.38 146.699 2072.38 151.398 Q2072.38 156.097 2074.3 158.782 Q2076.25 161.444 2079.63 161.444 Q2083.01 161.444 2084.93 158.782 Q2086.87 156.097 2086.87 151.398 Z" fill="#000000" fill-rule="evenodd" fill-opacity="1" /><path clip-path="url(#clip540)" d="M2108.4 141.398 Q2104.98 141.398 2102.99 144.083 Q2100.99 146.745 2100.99 151.398 Q2100.99 156.051 2102.96 158.736 Q2104.95 161.398 2108.4 161.398 Q2111.8 161.398 2113.8 158.713 Q2115.79 156.027 2115.79 151.398 Q2115.79 146.791 2113.8 144.106 Q2111.8 141.398 2108.4 141.398 M2108.4 137.787 Q2113.96 137.787 2117.13 141.398 Q2120.3 145.009 2120.3 151.398 Q2120.3 157.764 2117.13 161.398 Q2113.96 165.009 2108.4 165.009 Q2102.82 165.009 2099.65 161.398 Q2096.5 157.764 2096.5 151.398 Q2096.5 145.009 2099.65 141.398 Q2102.82 137.787 2108.4 137.787 Z" fill="#000000" fill-rule="evenodd" fill-opacity="1" /><path clip-path="url(#clip540)" d="M2127.36 138.412 L2131.62 138.412 L2131.62 164.338 L2127.36 164.338 L2127.36 138.412 M2127.36 128.319 L2131.62 128.319 L2131.62 133.713 L2127.36 133.713 L2127.36 128.319 Z" fill="#000000" fill-rule="evenodd" fill-opacity="1" /><path clip-path="url(#clip540)" d="M2162.08 148.689 L2162.08 164.338 L2157.82 164.338 L2157.82 148.828 Q2157.82 145.148 2156.39 143.319 Q2154.95 141.49 2152.08 141.49 Q2148.63 141.49 2146.64 143.69 Q2144.65 145.889 2144.65 149.685 L2144.65 164.338 L2140.37 164.338 L2140.37 138.412 L2144.65 138.412 L2144.65 142.44 Q2146.18 140.102 2148.24 138.944 Q2150.32 137.787 2153.03 137.787 Q2157.5 137.787 2159.79 140.565 Q2162.08 143.319 2162.08 148.689 Z" fill="#000000" fill-rule="evenodd" fill-opacity="1" /><path clip-path="url(#clip540)" d="M2174.79 131.051 L2174.79 138.412 L2183.56 138.412 L2183.56 141.722 L2174.79 141.722 L2174.79 155.796 Q2174.79 158.967 2175.65 159.87 Q2176.53 160.773 2179.19 160.773 L2183.56 160.773 L2183.56 164.338 L2179.19 164.338 Q2174.26 164.338 2172.38 162.509 Q2170.51 160.657 2170.51 155.796 L2170.51 141.722 L2167.38 141.722 L2167.38 138.412 L2170.51 138.412 L2170.51 131.051 L2174.79 131.051 Z" fill="#000000" fill-rule="evenodd" fill-opacity="1" /><path clip-path="url(#clip540)" d="M2205.69 139.176 L2205.69 143.203 Q2203.89 142.277 2201.94 141.815 Q2200 141.352 2197.92 141.352 Q2194.74 141.352 2193.15 142.324 Q2191.57 143.296 2191.57 145.24 Q2191.57 146.722 2192.71 147.578 Q2193.84 148.412 2197.27 149.176 L2198.73 149.5 Q2203.26 150.472 2205.16 152.254 Q2207.08 154.014 2207.08 157.185 Q2207.08 160.796 2204.21 162.902 Q2201.36 165.009 2196.36 165.009 Q2194.28 165.009 2192.01 164.592 Q2189.77 164.199 2187.27 163.388 L2187.27 158.99 Q2189.63 160.217 2191.92 160.842 Q2194.21 161.444 2196.46 161.444 Q2199.47 161.444 2201.09 160.426 Q2202.71 159.384 2202.71 157.509 Q2202.71 155.773 2201.53 154.847 Q2200.37 153.921 2196.41 153.064 L2194.93 152.717 Q2190.97 151.884 2189.21 150.171 Q2187.45 148.435 2187.45 145.426 Q2187.45 141.768 2190.04 139.778 Q2192.64 137.787 2197.41 137.787 Q2199.77 137.787 2201.85 138.134 Q2203.93 138.481 2205.69 139.176 Z" fill="#000000" fill-rule="evenodd" fill-opacity="1" /><polyline clip-path="url(#clip540)" style="stroke:#56b4e9; stroke-linecap:round; stroke-linejoin:round; stroke-width:16; stroke-opacity:1; fill:none" points="
  1783.71,198.898 1930.73,198.898 
  "/>
<path clip-path="url(#clip540)" d="M1959.91 185.46 L1959.91 198.446 L1965.79 198.446 Q1969.05 198.446 1970.83 196.756 Q1972.62 195.067 1972.62 191.942 Q1972.62 188.84 1970.83 187.15 Q1969.05 185.46 1965.79 185.46 L1959.91 185.46 M1955.23 181.618 L1965.79 181.618 Q1971.6 181.618 1974.56 184.256 Q1977.55 186.872 1977.55 191.942 Q1977.55 197.057 1974.56 199.673 Q1971.6 202.289 1965.79 202.289 L1959.91 202.289 L1959.91 216.178 L1955.23 216.178 L1955.23 181.618 Z" fill="#000000" fill-rule="evenodd" fill-opacity="1" /><path clip-path="url(#clip540)" d="M1997.82 194.233 Q1997.11 193.817 1996.25 193.631 Q1995.42 193.423 1994.4 193.423 Q1990.79 193.423 1988.84 195.784 Q1986.92 198.122 1986.92 202.52 L1986.92 216.178 L1982.64 216.178 L1982.64 190.252 L1986.92 190.252 L1986.92 194.28 Q1988.26 191.918 1990.42 190.784 Q1992.57 189.627 1995.65 189.627 Q1996.09 189.627 1996.62 189.696 Q1997.15 189.743 1997.8 189.858 L1997.82 194.233 Z" fill="#000000" fill-rule="evenodd" fill-opacity="1" /><path clip-path="url(#clip540)" d="M2023.43 202.15 L2023.43 204.233 L2003.84 204.233 Q2004.12 208.631 2006.48 210.946 Q2008.87 213.238 2013.1 213.238 Q2015.56 213.238 2017.85 212.636 Q2020.16 212.034 2022.43 210.83 L2022.43 214.858 Q2020.14 215.83 2017.73 216.34 Q2015.32 216.849 2012.85 216.849 Q2006.64 216.849 2003.01 213.238 Q1999.4 209.627 1999.4 203.469 Q1999.4 197.104 2002.82 193.377 Q2006.27 189.627 2012.11 189.627 Q2017.34 189.627 2020.37 193.006 Q2023.43 196.363 2023.43 202.15 M2019.17 200.9 Q2019.12 197.405 2017.2 195.321 Q2015.3 193.238 2012.15 193.238 Q2008.59 193.238 2006.43 195.252 Q2004.31 197.266 2003.98 200.923 L2019.17 200.9 Z" fill="#000000" fill-rule="evenodd" fill-opacity="1" /><path clip-path="url(#clip540)" d="M2047.48 194.187 L2047.48 180.159 L2051.74 180.159 L2051.74 216.178 L2047.48 216.178 L2047.48 212.289 Q2046.13 214.603 2044.07 215.738 Q2042.04 216.849 2039.17 216.849 Q2034.47 216.849 2031.5 213.099 Q2028.56 209.349 2028.56 203.238 Q2028.56 197.127 2031.5 193.377 Q2034.47 189.627 2039.17 189.627 Q2042.04 189.627 2044.07 190.761 Q2046.13 191.872 2047.48 194.187 M2032.96 203.238 Q2032.96 207.937 2034.88 210.622 Q2036.83 213.284 2040.21 213.284 Q2043.59 213.284 2045.53 210.622 Q2047.48 207.937 2047.48 203.238 Q2047.48 198.539 2045.53 195.877 Q2043.59 193.192 2040.21 193.192 Q2036.83 193.192 2034.88 195.877 Q2032.96 198.539 2032.96 203.238 Z" fill="#000000" fill-rule="evenodd" fill-opacity="1" /><path clip-path="url(#clip540)" d="M2060.51 190.252 L2064.77 190.252 L2064.77 216.178 L2060.51 216.178 L2060.51 190.252 M2060.51 180.159 L2064.77 180.159 L2064.77 185.553 L2060.51 185.553 L2060.51 180.159 Z" fill="#000000" fill-rule="evenodd" fill-opacity="1" /><path clip-path="url(#clip540)" d="M2092.34 191.247 L2092.34 195.229 Q2090.53 194.233 2088.7 193.747 Q2086.9 193.238 2085.05 193.238 Q2080.9 193.238 2078.61 195.877 Q2076.32 198.492 2076.32 203.238 Q2076.32 207.983 2078.61 210.622 Q2080.9 213.238 2085.05 213.238 Q2086.9 213.238 2088.7 212.752 Q2090.53 212.242 2092.34 211.247 L2092.34 215.182 Q2090.55 216.016 2088.63 216.432 Q2086.74 216.849 2084.58 216.849 Q2078.73 216.849 2075.28 213.168 Q2071.83 209.488 2071.83 203.238 Q2071.83 196.895 2075.3 193.261 Q2078.8 189.627 2084.86 189.627 Q2086.83 189.627 2088.7 190.043 Q2090.58 190.437 2092.34 191.247 Z" fill="#000000" fill-rule="evenodd" fill-opacity="1" /><path clip-path="url(#clip540)" d="M2103.96 182.891 L2103.96 190.252 L2112.73 190.252 L2112.73 193.562 L2103.96 193.562 L2103.96 207.636 Q2103.96 210.807 2104.81 211.71 Q2105.69 212.613 2108.36 212.613 L2112.73 212.613 L2112.73 216.178 L2108.36 216.178 Q2103.42 216.178 2101.55 214.349 Q2099.67 212.497 2099.67 207.636 L2099.67 193.562 L2096.55 193.562 L2096.55 190.252 L2099.67 190.252 L2099.67 182.891 L2103.96 182.891 Z" fill="#000000" fill-rule="evenodd" fill-opacity="1" /><path clip-path="url(#clip540)" d="M2140.51 202.15 L2140.51 204.233 L2120.92 204.233 Q2121.2 208.631 2123.56 210.946 Q2125.95 213.238 2130.18 213.238 Q2132.64 213.238 2134.93 212.636 Q2137.24 212.034 2139.51 210.83 L2139.51 214.858 Q2137.22 215.83 2134.81 216.34 Q2132.41 216.849 2129.93 216.849 Q2123.73 216.849 2120.09 213.238 Q2116.48 209.627 2116.48 203.469 Q2116.48 197.104 2119.91 193.377 Q2123.36 189.627 2129.19 189.627 Q2134.42 189.627 2137.45 193.006 Q2140.51 196.363 2140.51 202.15 M2136.25 200.9 Q2136.2 197.405 2134.28 195.321 Q2132.38 193.238 2129.23 193.238 Q2125.67 193.238 2123.52 195.252 Q2121.39 197.266 2121.06 200.923 L2136.25 200.9 Z" fill="#000000" fill-rule="evenodd" fill-opacity="1" /><path clip-path="url(#clip540)" d="M2164.56 194.187 L2164.56 180.159 L2168.82 180.159 L2168.82 216.178 L2164.56 216.178 L2164.56 212.289 Q2163.22 214.603 2161.16 215.738 Q2159.12 216.849 2156.25 216.849 Q2151.55 216.849 2148.59 213.099 Q2145.65 209.349 2145.65 203.238 Q2145.65 197.127 2148.59 193.377 Q2151.55 189.627 2156.25 189.627 Q2159.12 189.627 2161.16 190.761 Q2163.22 191.872 2164.56 194.187 M2150.05 203.238 Q2150.05 207.937 2151.97 210.622 Q2153.91 213.284 2157.29 213.284 Q2160.67 213.284 2162.61 210.622 Q2164.56 207.937 2164.56 203.238 Q2164.56 198.539 2162.61 195.877 Q2160.67 193.192 2157.29 193.192 Q2153.91 193.192 2151.97 195.877 Q2150.05 198.539 2150.05 203.238 Z" fill="#000000" fill-rule="evenodd" fill-opacity="1" /><polyline clip-path="url(#clip540)" style="stroke:#000000; stroke-linecap:round; stroke-linejoin:round; stroke-width:4; stroke-opacity:1; fill:none" stroke-dasharray="16, 10" points="
  1783.71,250.738 1930.73,250.738 
  "/>
<path clip-path="url(#clip540)" d="M1980.79 263.087 L1980.79 253.805 L1973.15 253.805 L1973.15 249.962 L1985.42 249.962 L1985.42 264.8 Q1982.71 266.721 1979.44 267.717 Q1976.18 268.689 1972.48 268.689 Q1964.37 268.689 1959.79 263.967 Q1955.23 259.221 1955.23 250.772 Q1955.23 242.3 1959.79 237.578 Q1964.37 232.833 1972.48 232.833 Q1975.86 232.833 1978.89 233.666 Q1981.94 234.499 1984.51 236.12 L1984.51 241.096 Q1981.92 238.897 1979 237.786 Q1976.09 236.675 1972.87 236.675 Q1966.53 236.675 1963.33 240.217 Q1960.16 243.758 1960.16 250.772 Q1960.16 257.763 1963.33 261.305 Q1966.53 264.846 1972.87 264.846 Q1975.35 264.846 1977.29 264.43 Q1979.24 263.99 1980.79 263.087 Z" fill="#000000" fill-rule="evenodd" fill-opacity="1" /><path clip-path="url(#clip540)" d="M2008.8 246.073 Q2008.08 245.657 2007.22 245.471 Q2006.39 245.263 2005.37 245.263 Q2001.76 245.263 1999.81 247.624 Q1997.89 249.962 1997.89 254.36 L1997.89 268.018 L1993.61 268.018 L1993.61 242.092 L1997.89 242.092 L1997.89 246.12 Q1999.24 243.758 2001.39 242.624 Q2003.54 241.467 2006.62 241.467 Q2007.06 241.467 2007.59 241.536 Q2008.12 241.583 2008.77 241.698 L2008.8 246.073 Z" fill="#000000" fill-rule="evenodd" fill-opacity="1" /><path clip-path="url(#clip540)" d="M2022.27 245.078 Q2018.84 245.078 2016.85 247.763 Q2014.86 250.425 2014.86 255.078 Q2014.86 259.731 2016.83 262.416 Q2018.82 265.078 2022.27 265.078 Q2025.67 265.078 2027.66 262.393 Q2029.65 259.707 2029.65 255.078 Q2029.65 250.471 2027.66 247.786 Q2025.67 245.078 2022.27 245.078 M2022.27 241.467 Q2027.82 241.467 2030.99 245.078 Q2034.17 248.689 2034.17 255.078 Q2034.17 261.444 2030.99 265.078 Q2027.82 268.689 2022.27 268.689 Q2016.69 268.689 2013.52 265.078 Q2010.37 261.444 2010.37 255.078 Q2010.37 248.689 2013.52 245.078 Q2016.69 241.467 2022.27 241.467 Z" fill="#000000" fill-rule="evenodd" fill-opacity="1" /><path clip-path="url(#clip540)" d="M2040.79 257.786 L2040.79 242.092 L2045.05 242.092 L2045.05 257.624 Q2045.05 261.305 2046.48 263.156 Q2047.92 264.985 2050.79 264.985 Q2054.24 264.985 2056.23 262.786 Q2058.24 260.587 2058.24 256.791 L2058.24 242.092 L2062.5 242.092 L2062.5 268.018 L2058.24 268.018 L2058.24 264.036 Q2056.69 266.397 2054.63 267.555 Q2052.59 268.689 2049.88 268.689 Q2045.42 268.689 2043.1 265.911 Q2040.79 263.133 2040.79 257.786 M2051.5 241.467 L2051.5 241.467 Z" fill="#000000" fill-rule="evenodd" fill-opacity="1" /><path clip-path="url(#clip540)" d="M2092.82 252.369 L2092.82 268.018 L2088.56 268.018 L2088.56 252.508 Q2088.56 248.828 2087.13 246.999 Q2085.69 245.17 2082.82 245.17 Q2079.37 245.17 2077.38 247.37 Q2075.39 249.569 2075.39 253.365 L2075.39 268.018 L2071.11 268.018 L2071.11 242.092 L2075.39 242.092 L2075.39 246.12 Q2076.92 243.782 2078.98 242.624 Q2081.06 241.467 2083.77 241.467 Q2088.24 241.467 2090.53 244.245 Q2092.82 246.999 2092.82 252.369 Z" fill="#000000" fill-rule="evenodd" fill-opacity="1" /><path clip-path="url(#clip540)" d="M2118.38 246.027 L2118.38 231.999 L2122.64 231.999 L2122.64 268.018 L2118.38 268.018 L2118.38 264.129 Q2117.04 266.443 2114.98 267.578 Q2112.94 268.689 2110.07 268.689 Q2105.37 268.689 2102.41 264.939 Q2099.47 261.189 2099.47 255.078 Q2099.47 248.967 2102.41 245.217 Q2105.37 241.467 2110.07 241.467 Q2112.94 241.467 2114.98 242.601 Q2117.04 243.712 2118.38 246.027 M2103.86 255.078 Q2103.86 259.777 2105.79 262.462 Q2107.73 265.124 2111.11 265.124 Q2114.49 265.124 2116.43 262.462 Q2118.38 259.777 2118.38 255.078 Q2118.38 250.379 2116.43 247.717 Q2114.49 245.032 2111.11 245.032 Q2107.73 245.032 2105.79 247.717 Q2103.86 250.379 2103.86 255.078 Z" fill="#000000" fill-rule="evenodd" fill-opacity="1" /><path clip-path="url(#clip540)" d="M2150.69 234.731 L2150.69 242.092 L2159.47 242.092 L2159.47 245.402 L2150.69 245.402 L2150.69 259.476 Q2150.69 262.647 2151.55 263.55 Q2152.43 264.453 2155.09 264.453 L2159.47 264.453 L2159.47 268.018 L2155.09 268.018 Q2150.16 268.018 2148.29 266.189 Q2146.41 264.337 2146.41 259.476 L2146.41 245.402 L2143.29 245.402 L2143.29 242.092 L2146.41 242.092 L2146.41 234.731 L2150.69 234.731 Z" fill="#000000" fill-rule="evenodd" fill-opacity="1" /><path clip-path="url(#clip540)" d="M2180.09 246.073 Q2179.37 245.657 2178.52 245.471 Q2177.68 245.263 2176.67 245.263 Q2173.05 245.263 2171.11 247.624 Q2169.19 249.962 2169.19 254.36 L2169.19 268.018 L2164.91 268.018 L2164.91 242.092 L2169.19 242.092 L2169.19 246.12 Q2170.53 243.758 2172.68 242.624 Q2174.84 241.467 2177.92 241.467 Q2178.36 241.467 2178.89 241.536 Q2179.42 241.583 2180.07 241.698 L2180.09 246.073 Z" fill="#000000" fill-rule="evenodd" fill-opacity="1" /><path clip-path="url(#clip540)" d="M2184.12 257.786 L2184.12 242.092 L2188.38 242.092 L2188.38 257.624 Q2188.38 261.305 2189.81 263.156 Q2191.25 264.985 2194.12 264.985 Q2197.57 264.985 2199.56 262.786 Q2201.57 260.587 2201.57 256.791 L2201.57 242.092 L2205.83 242.092 L2205.83 268.018 L2201.57 268.018 L2201.57 264.036 Q2200.02 266.397 2197.96 267.555 Q2195.92 268.689 2193.22 268.689 Q2188.75 268.689 2186.43 265.911 Q2184.12 263.133 2184.12 257.786 M2194.84 241.467 L2194.84 241.467 Z" fill="#000000" fill-rule="evenodd" fill-opacity="1" /><path clip-path="url(#clip540)" d="M2218.82 234.731 L2218.82 242.092 L2227.59 242.092 L2227.59 245.402 L2218.82 245.402 L2218.82 259.476 Q2218.82 262.647 2219.67 263.55 Q2220.55 264.453 2223.22 264.453 L2227.59 264.453 L2227.59 268.018 L2223.22 268.018 Q2218.29 268.018 2216.41 266.189 Q2214.54 264.337 2214.54 259.476 L2214.54 245.402 L2211.41 245.402 L2211.41 242.092 L2214.54 242.092 L2214.54 234.731 L2218.82 234.731 Z" fill="#000000" fill-rule="evenodd" fill-opacity="1" /><path clip-path="url(#clip540)" d="M2254.74 252.369 L2254.74 268.018 L2250.48 268.018 L2250.48 252.508 Q2250.48 248.828 2249.05 246.999 Q2247.61 245.17 2244.74 245.17 Q2241.29 245.17 2239.3 247.37 Q2237.31 249.569 2237.31 253.365 L2237.31 268.018 L2233.03 268.018 L2233.03 231.999 L2237.31 231.999 L2237.31 246.12 Q2238.84 243.782 2240.9 242.624 Q2242.98 241.467 2245.69 241.467 Q2250.16 241.467 2252.45 244.245 Q2254.74 246.999 2254.74 252.369 Z" fill="#000000" fill-rule="evenodd" fill-opacity="1" /></svg>
