<?xml version="1.0" encoding="utf-8"?>
<svg xmlns="http://www.w3.org/2000/svg" xmlns:xlink="http://www.w3.org/1999/xlink" width="600" height="400" viewBox="0 0 2400 1600">
<defs>
  <clipPath id="clip780">
    <rect x="0" y="0" width="2400" height="1600"/>
  </clipPath>
</defs>
<path clip-path="url(#clip780)" d="M0 1600 L2400 1600 L2400 0 L0 0  Z" fill="#ffffff" fill-rule="evenodd" fill-opacity="1"/>
<defs>
  <clipPath id="clip781">
    <rect x="480" y="0" width="1681" height="1600"/>
  </clipPath>
</defs>
<path clip-path="url(#clip780)" d="M169.121 1495.09 L2352.76 1495.09 L2352.76 47.2441 L169.121 47.2441  Z" fill="#ffffff" fill-rule="evenodd" fill-opacity="1"/>
<defs>
  <clipPath id="clip782">
    <rect x="169" y="47" width="2185" height="1449"/>
  </clipPath>
</defs>
<polyline clip-path="url(#clip782)" style="stroke:#000000; stroke-linecap:round; stroke-linejoin:round; stroke-width:2; stroke-opacity:0.1; fill:none" points="451.177,1495.09 451.177,47.2441 "/>
<polyline clip-path="url(#clip782)" style="stroke:#000000; stroke-linecap:round; stroke-linejoin:round; stroke-width:2; stroke-opacity:0.1; fill:none" points="856.058,1495.09 856.058,47.2441 "/>
<polyline clip-path="url(#clip782)" style="stroke:#000000; stroke-linecap:round; stroke-linejoin:round; stroke-width:2; stroke-opacity:0.1; fill:none" points="1260.94,1495.09 1260.94,47.2441 "/>
<polyline clip-path="url(#clip782)" style="stroke:#000000; stroke-linecap:round; stroke-linejoin:round; stroke-width:2; stroke-opacity:0.1; fill:none" points="1665.82,1495.09 1665.82,47.2441 "/>
<polyline clip-path="url(#clip782)" style="stroke:#000000; stroke-linecap:round; stroke-linejoin:round; stroke-width:2; stroke-opacity:0.1; fill:none" points="2070.7,1495.09 2070.7,47.2441 "/>
<polyline clip-path="url(#clip780)" style="stroke:#000000; stroke-linecap:round; stroke-linejoin:round; stroke-width:4; stroke-opacity:1; fill:none" points="169.121,1495.09 2352.76,1495.09 "/>
<polyline clip-path="url(#clip780)" style="stroke:#000000; stroke-linecap:round; stroke-linejoin:round; stroke-width:4; stroke-opacity:1; fill:none" points="451.177,1495.09 451.177,1476.19 "/>
<polyline clip-path="url(#clip780)" style="stroke:#000000; stroke-linecap:round; stroke-linejoin:round; stroke-width:4; stroke-opacity:1; fill:none" points="856.058,1495.09 856.058,1476.19 "/>
<polyline clip-path="url(#clip780)" style="stroke:#000000; stroke-linecap:round; stroke-linejoin:round; stroke-width:4; stroke-opacity:1; fill:none" points="1260.94,1495.09 1260.94,1476.19 "/>
<polyline clip-path="url(#clip780)" style="stroke:#000000; stroke-linecap:round; stroke-linejoin:round; stroke-width:4; stroke-opacity:1; fill:none" points="1665.82,1495.09 1665.82,1476.19 "/>
<polyline clip-path="url(#clip780)" style="stroke:#000000; stroke-linecap:round; stroke-linejoin:round; stroke-width:4; stroke-opacity:1; fill:none" points="2070.7,1495.09 2070.7,1476.19 "/>
<path clip-path="url(#clip780)" d="M308.044 1519.52 L308.044 1555.07 L305.093 1555.07 L305.093 1519.52 L308.044 1519.52 Z" fill="#000000" fill-rule="nonzero" fill-opacity="1" /><path clip-path="url(#clip780)" d="M335.457 1522.76 L335.457 1526.46 Q333.687 1524.81 331.673 1524 Q329.676 1523.18 327.419 1523.18 Q322.975 1523.18 320.614 1525.91 Q318.253 1528.62 318.253 1533.75 Q318.253 1538.88 320.614 1541.6 Q322.975 1544.31 327.419 1544.31 Q329.676 1544.31 331.673 1543.49 Q333.687 1542.68 335.457 1541.03 L335.457 1544.69 Q333.617 1545.94 331.551 1546.57 Q329.503 1547.19 327.211 1547.19 Q321.326 1547.19 317.94 1543.6 Q314.555 1539.99 314.555 1533.75 Q314.555 1527.5 317.94 1523.91 Q321.326 1520.3 327.211 1520.3 Q329.537 1520.3 331.586 1520.92 Q333.652 1521.53 335.457 1522.76 Z" fill="#000000" fill-rule="nonzero" fill-opacity="1" /><path clip-path="url(#clip780)" d="M344.85 1519.52 L344.85 1555.07 L341.898 1555.07 L341.898 1519.52 L344.85 1519.52 Z" fill="#000000" fill-rule="nonzero" fill-opacity="1" /><path clip-path="url(#clip780)" d="M366.621 1535.8 Q366.742 1537.09 367.836 1539.17 Q369.121 1541.58 371.551 1542.94 Q373.93 1544.26 376.499 1544.27 L388.6 1544.27 L388.6 1547.04 L376.499 1547.04 Q373.166 1547.04 370.075 1545.32 Q367.002 1543.6 365.353 1540.54 Q363.704 1537.49 363.704 1534.24 Q363.704 1531.03 365.353 1527.97 Q367.002 1524.92 370.075 1523.18 Q373.166 1521.44 376.499 1521.44 L388.6 1521.44 L388.6 1524.21 L376.499 1524.21 Q373.93 1524.22 371.551 1525.56 Q369.138 1526.93 367.836 1529.33 Q366.725 1531.41 366.568 1533.02 L388.6 1533.02 L388.6 1535.8 L366.621 1535.8 Z" fill="#000000" fill-rule="nonzero" fill-opacity="1" /><path clip-path="url(#clip780)" d="M413.964 1519.71 Q411.638 1523.7 410.509 1527.61 Q409.381 1531.51 409.381 1535.52 Q409.381 1539.54 410.509 1543.48 Q411.655 1547.4 413.964 1551.38 L411.186 1551.38 Q408.582 1547.3 407.28 1543.35 Q405.995 1539.41 405.995 1535.52 Q405.995 1531.65 407.28 1527.73 Q408.565 1523.81 411.186 1519.71 L413.964 1519.71 Z" fill="#000000" fill-rule="nonzero" fill-opacity="1" /><path clip-path="url(#clip780)" d="M428.113 1523.08 Q425.405 1523.08 424.033 1525.75 Q422.679 1528.41 422.679 1533.75 Q422.679 1539.08 424.033 1541.76 Q425.405 1544.41 428.113 1544.41 Q430.839 1544.41 432.193 1541.76 Q433.565 1539.08 433.565 1533.75 Q433.565 1528.41 432.193 1525.75 Q430.839 1523.08 428.113 1523.08 M428.113 1520.3 Q432.471 1520.3 434.763 1523.75 Q437.072 1527.19 437.072 1533.75 Q437.072 1540.3 434.763 1543.75 Q432.471 1547.19 428.113 1547.19 Q423.756 1547.19 421.447 1543.75 Q419.155 1540.3 419.155 1533.75 Q419.155 1527.19 421.447 1523.75 Q423.756 1520.3 428.113 1520.3 Z" fill="#000000" fill-rule="nonzero" fill-opacity="1" /><path clip-path="url(#clip780)" d="M443.235 1542.28 L446.898 1542.28 L446.898 1546.69 L443.235 1546.69 L443.235 1542.28 Z" fill="#000000" fill-rule="nonzero" fill-opacity="1" /><path clip-path="url(#clip780)" d="M462.037 1523.08 Q459.328 1523.08 457.957 1525.75 Q456.603 1528.41 456.603 1533.75 Q456.603 1539.08 457.957 1541.76 Q459.328 1544.41 462.037 1544.41 Q464.762 1544.41 466.117 1541.76 Q467.488 1539.08 467.488 1533.75 Q467.488 1528.41 466.117 1525.75 Q464.762 1523.08 462.037 1523.08 M462.037 1520.3 Q466.394 1520.3 468.686 1523.75 Q470.995 1527.19 470.995 1533.75 Q470.995 1540.3 468.686 1543.75 Q466.394 1547.19 462.037 1547.19 Q457.679 1547.19 455.37 1543.75 Q453.078 1540.3 453.078 1533.75 Q453.078 1527.19 455.37 1523.75 Q457.679 1520.3 462.037 1520.3 Z" fill="#000000" fill-rule="nonzero" fill-opacity="1" /><path clip-path="url(#clip780)" d="M477.766 1543.74 L483.495 1543.74 L483.495 1523.96 L477.262 1525.21 L477.262 1522.02 L483.46 1520.77 L486.967 1520.77 L486.967 1543.74 L492.696 1543.74 L492.696 1546.69 L477.766 1546.69 L477.766 1543.74 Z" fill="#000000" fill-rule="nonzero" fill-opacity="1" /><path clip-path="url(#clip780)" d="M500.144 1542.28 L503.807 1542.28 L503.807 1545.26 L500.96 1550.82 L498.721 1550.82 L500.144 1545.26 L500.144 1542.28 Z" fill="#000000" fill-rule="nonzero" fill-opacity="1" /><path clip-path="url(#clip780)" d="M518.582 1523.08 Q515.873 1523.08 514.502 1525.75 Q513.148 1528.41 513.148 1533.75 Q513.148 1539.08 514.502 1541.76 Q515.873 1544.41 518.582 1544.41 Q521.307 1544.41 522.661 1541.76 Q524.033 1539.08 524.033 1533.75 Q524.033 1528.41 522.661 1525.75 Q521.307 1523.08 518.582 1523.08 M518.582 1520.3 Q522.939 1520.3 525.231 1523.75 Q527.54 1527.19 527.54 1533.75 Q527.54 1540.3 525.231 1543.75 Q522.939 1547.19 518.582 1547.19 Q514.224 1547.19 511.915 1543.75 Q509.623 1540.3 509.623 1533.75 Q509.623 1527.19 511.915 1523.75 Q514.224 1520.3 518.582 1520.3 Z" fill="#000000" fill-rule="nonzero" fill-opacity="1" /><path clip-path="url(#clip780)" d="M533.703 1542.28 L537.366 1542.28 L537.366 1546.69 L533.703 1546.69 L533.703 1542.28 Z" fill="#000000" fill-rule="nonzero" fill-opacity="1" /><path clip-path="url(#clip780)" d="M545.613 1543.74 L551.342 1543.74 L551.342 1523.96 L545.109 1525.21 L545.109 1522.02 L551.307 1520.77 L554.814 1520.77 L554.814 1543.74 L560.543 1543.74 L560.543 1546.69 L545.613 1546.69 L545.613 1543.74 Z" fill="#000000" fill-rule="nonzero" fill-opacity="1" /><path clip-path="url(#clip780)" d="M577.262 1523.82 L568.408 1537.66 L577.262 1537.66 L577.262 1523.82 M576.342 1520.77 L580.751 1520.77 L580.751 1537.66 L584.449 1537.66 L584.449 1540.58 L580.751 1540.58 L580.751 1546.69 L577.262 1546.69 L577.262 1540.58 L565.56 1540.58 L565.56 1537.19 L576.342 1520.77 Z" fill="#000000" fill-rule="nonzero" fill-opacity="1" /><path clip-path="url(#clip780)" d="M597.262 1519.67 L597.262 1551.38 L589.901 1551.38 L589.901 1548.89 L594.05 1548.89 L594.05 1522.16 L589.901 1522.16 L589.901 1519.67 L597.262 1519.67 Z" fill="#000000" fill-rule="nonzero" fill-opacity="1" /><path clip-path="url(#clip780)" d="M712.925 1519.52 L712.925 1555.07 L709.974 1555.07 L709.974 1519.52 L712.925 1519.52 Z" fill="#000000" fill-rule="nonzero" fill-opacity="1" /><path clip-path="url(#clip780)" d="M740.338 1522.76 L740.338 1526.46 Q738.567 1524.81 736.553 1524 Q734.557 1523.18 732.3 1523.18 Q727.856 1523.18 725.494 1525.91 Q723.133 1528.62 723.133 1533.75 Q723.133 1538.88 725.494 1541.6 Q727.856 1544.31 732.3 1544.31 Q734.557 1544.31 736.553 1543.49 Q738.567 1542.68 740.338 1541.03 L740.338 1544.69 Q738.498 1545.94 736.432 1546.57 Q734.383 1547.19 732.092 1547.19 Q726.206 1547.19 722.821 1543.6 Q719.435 1539.99 719.435 1533.75 Q719.435 1527.5 722.821 1523.91 Q726.206 1520.3 732.092 1520.3 Q734.418 1520.3 736.467 1520.92 Q738.533 1521.53 740.338 1522.76 Z" fill="#000000" fill-rule="nonzero" fill-opacity="1" /><path clip-path="url(#clip780)" d="M749.73 1519.52 L749.73 1555.07 L746.779 1555.07 L746.779 1519.52 L749.73 1519.52 Z" fill="#000000" fill-rule="nonzero" fill-opacity="1" /><path clip-path="url(#clip780)" d="M771.501 1535.8 Q771.623 1537.09 772.716 1539.17 Q774.001 1541.58 776.432 1542.94 Q778.81 1544.26 781.38 1544.27 L793.48 1544.27 L793.48 1547.04 L781.38 1547.04 Q778.046 1547.04 774.956 1545.32 Q771.883 1543.6 770.234 1540.54 Q768.584 1537.49 768.584 1534.24 Q768.584 1531.03 770.234 1527.97 Q771.883 1524.92 774.956 1523.18 Q778.046 1521.44 781.38 1521.44 L793.48 1521.44 L793.48 1524.21 L781.38 1524.21 Q778.81 1524.22 776.432 1525.56 Q774.018 1526.93 772.716 1529.33 Q771.605 1531.41 771.449 1533.02 L793.48 1533.02 L793.48 1535.8 L771.501 1535.8 Z" fill="#000000" fill-rule="nonzero" fill-opacity="1" /><path clip-path="url(#clip780)" d="M818.845 1519.71 Q816.518 1523.7 815.39 1527.61 Q814.261 1531.51 814.261 1535.52 Q814.261 1539.54 815.39 1543.48 Q816.536 1547.4 818.845 1551.38 L816.067 1551.38 Q813.463 1547.3 812.161 1543.35 Q810.876 1539.41 810.876 1535.52 Q810.876 1531.65 812.161 1527.73 Q813.445 1523.81 816.067 1519.71 L818.845 1519.71 Z" fill="#000000" fill-rule="nonzero" fill-opacity="1" /><path clip-path="url(#clip780)" d="M832.994 1523.08 Q830.286 1523.08 828.914 1525.75 Q827.56 1528.41 827.56 1533.75 Q827.56 1539.08 828.914 1541.76 Q830.286 1544.41 832.994 1544.41 Q835.72 1544.41 837.074 1541.76 Q838.445 1539.08 838.445 1533.75 Q838.445 1528.41 837.074 1525.75 Q835.72 1523.08 832.994 1523.08 M832.994 1520.3 Q837.351 1520.3 839.643 1523.75 Q841.952 1527.19 841.952 1533.75 Q841.952 1540.3 839.643 1543.75 Q837.351 1547.19 832.994 1547.19 Q828.636 1547.19 826.327 1543.75 Q824.036 1540.3 824.036 1533.75 Q824.036 1527.19 826.327 1523.75 Q828.636 1520.3 832.994 1520.3 Z" fill="#000000" fill-rule="nonzero" fill-opacity="1" /><path clip-path="url(#clip780)" d="M848.115 1542.28 L851.778 1542.28 L851.778 1546.69 L848.115 1546.69 L848.115 1542.28 Z" fill="#000000" fill-rule="nonzero" fill-opacity="1" /><path clip-path="url(#clip780)" d="M860.025 1543.74 L865.754 1543.74 L865.754 1523.96 L859.522 1525.21 L859.522 1522.02 L865.719 1520.77 L869.226 1520.77 L869.226 1543.74 L874.955 1543.74 L874.955 1546.69 L860.025 1546.69 L860.025 1543.74 Z" fill="#000000" fill-rule="nonzero" fill-opacity="1" /><path clip-path="url(#clip780)" d="M891.674 1523.82 L882.82 1537.66 L891.674 1537.66 L891.674 1523.82 M890.754 1520.77 L895.164 1520.77 L895.164 1537.66 L898.862 1537.66 L898.862 1540.58 L895.164 1540.58 L895.164 1546.69 L891.674 1546.69 L891.674 1540.58 L879.973 1540.58 L879.973 1537.19 L890.754 1520.77 Z" fill="#000000" fill-rule="nonzero" fill-opacity="1" /><path clip-path="url(#clip780)" d="M905.025 1542.28 L908.688 1542.28 L908.688 1545.26 L905.841 1550.82 L903.601 1550.82 L905.025 1545.26 L905.025 1542.28 Z" fill="#000000" fill-rule="nonzero" fill-opacity="1" /><path clip-path="url(#clip780)" d="M923.462 1523.08 Q920.754 1523.08 919.382 1525.75 Q918.028 1528.41 918.028 1533.75 Q918.028 1539.08 919.382 1541.76 Q920.754 1544.41 923.462 1544.41 Q926.188 1544.41 927.542 1541.76 Q928.913 1539.08 928.913 1533.75 Q928.913 1528.41 927.542 1525.75 Q926.188 1523.08 923.462 1523.08 M923.462 1520.3 Q927.82 1520.3 930.111 1523.75 Q932.42 1527.19 932.42 1533.75 Q932.42 1540.3 930.111 1543.75 Q927.82 1547.19 923.462 1547.19 Q919.105 1547.19 916.796 1543.75 Q914.504 1540.3 914.504 1533.75 Q914.504 1527.19 916.796 1523.75 Q919.105 1520.3 923.462 1520.3 Z" fill="#000000" fill-rule="nonzero" fill-opacity="1" /><path clip-path="url(#clip780)" d="M938.584 1542.28 L942.247 1542.28 L942.247 1546.69 L938.584 1546.69 L938.584 1542.28 Z" fill="#000000" fill-rule="nonzero" fill-opacity="1" /><path clip-path="url(#clip780)" d="M952.906 1543.74 L965.146 1543.74 L965.146 1546.69 L948.688 1546.69 L948.688 1543.74 Q950.684 1541.67 954.122 1538.2 Q957.577 1534.71 958.462 1533.7 Q960.146 1531.81 960.806 1530.51 Q961.483 1529.19 961.483 1527.92 Q961.483 1525.85 960.024 1524.55 Q958.583 1523.25 956.257 1523.25 Q954.608 1523.25 952.768 1523.82 Q950.945 1524.4 948.861 1525.56 L948.861 1522.02 Q950.979 1521.17 952.82 1520.73 Q954.66 1520.3 956.188 1520.3 Q960.215 1520.3 962.611 1522.31 Q965.007 1524.33 965.007 1527.69 Q965.007 1529.29 964.399 1530.73 Q963.809 1532.16 962.229 1534.1 Q961.795 1534.6 959.469 1537.02 Q957.143 1539.41 952.906 1543.74 Z" fill="#000000" fill-rule="nonzero" fill-opacity="1" /><path clip-path="url(#clip780)" d="M980.007 1534.38 Q977.507 1534.38 976.066 1535.72 Q974.642 1537.05 974.642 1539.4 Q974.642 1541.74 976.066 1543.08 Q977.507 1544.41 980.007 1544.41 Q982.507 1544.41 983.948 1543.08 Q985.389 1541.72 985.389 1539.4 Q985.389 1537.05 983.948 1535.72 Q982.524 1534.38 980.007 1534.38 M976.5 1532.89 Q974.243 1532.33 972.976 1530.79 Q971.726 1529.24 971.726 1527.02 Q971.726 1523.91 973.931 1522.1 Q976.153 1520.3 980.007 1520.3 Q983.878 1520.3 986.083 1522.1 Q988.288 1523.91 988.288 1527.02 Q988.288 1529.24 987.021 1530.79 Q985.771 1532.33 983.531 1532.89 Q986.066 1533.48 987.472 1535.19 Q988.896 1536.91 988.896 1539.4 Q988.896 1543.16 986.587 1545.18 Q984.295 1547.19 980.007 1547.19 Q975.719 1547.19 973.41 1545.18 Q971.118 1543.16 971.118 1539.4 Q971.118 1536.91 972.542 1535.19 Q973.965 1533.48 976.5 1532.89 M975.215 1527.35 Q975.215 1529.36 976.465 1530.49 Q977.733 1531.62 980.007 1531.62 Q982.264 1531.62 983.531 1530.49 Q984.816 1529.36 984.816 1527.35 Q984.816 1525.33 983.531 1524.21 Q982.264 1523.08 980.007 1523.08 Q977.733 1523.08 976.465 1524.21 Q975.215 1525.33 975.215 1527.35 Z" fill="#000000" fill-rule="nonzero" fill-opacity="1" /><path clip-path="url(#clip780)" d="M1002.14 1519.67 L1002.14 1551.38 L994.781 1551.38 L994.781 1548.89 L998.93 1548.89 L998.93 1522.16 L994.781 1522.16 L994.781 1519.67 L1002.14 1519.67 Z" fill="#000000" fill-rule="nonzero" fill-opacity="1" /><path clip-path="url(#clip780)" d="M1117.81 1519.52 L1117.81 1555.07 L1114.85 1555.07 L1114.85 1519.52 L1117.81 1519.52 Z" fill="#000000" fill-rule="nonzero" fill-opacity="1" /><path clip-path="url(#clip780)" d="M1145.22 1522.76 L1145.22 1526.46 Q1143.45 1524.81 1141.43 1524 Q1139.44 1523.18 1137.18 1523.18 Q1132.74 1523.18 1130.38 1525.91 Q1128.01 1528.62 1128.01 1533.75 Q1128.01 1538.88 1130.38 1541.6 Q1132.74 1544.31 1137.18 1544.31 Q1139.44 1544.31 1141.43 1543.49 Q1143.45 1542.68 1145.22 1541.03 L1145.22 1544.69 Q1143.38 1545.94 1141.31 1546.57 Q1139.26 1547.19 1136.97 1547.19 Q1131.09 1547.19 1127.7 1543.6 Q1124.32 1539.99 1124.32 1533.75 Q1124.32 1527.5 1127.7 1523.91 Q1131.09 1520.3 1136.97 1520.3 Q1139.3 1520.3 1141.35 1520.92 Q1143.41 1521.53 1145.22 1522.76 Z" fill="#000000" fill-rule="nonzero" fill-opacity="1" /><path clip-path="url(#clip780)" d="M1154.61 1519.52 L1154.61 1555.07 L1151.66 1555.07 L1151.66 1519.52 L1154.61 1519.52 Z" fill="#000000" fill-rule="nonzero" fill-opacity="1" /><path clip-path="url(#clip780)" d="M1176.38 1535.8 Q1176.5 1537.09 1177.6 1539.17 Q1178.88 1541.58 1181.31 1542.94 Q1183.69 1544.26 1186.26 1544.27 L1198.36 1544.27 L1198.36 1547.04 L1186.26 1547.04 Q1182.93 1547.04 1179.84 1545.32 Q1176.76 1543.6 1175.11 1540.54 Q1173.47 1537.49 1173.47 1534.24 Q1173.47 1531.03 1175.11 1527.97 Q1176.76 1524.92 1179.84 1523.18 Q1182.93 1521.44 1186.26 1521.44 L1198.36 1521.44 L1198.36 1524.21 L1186.26 1524.21 Q1183.69 1524.22 1181.31 1525.56 Q1178.9 1526.93 1177.6 1529.33 Q1176.49 1531.41 1176.33 1533.02 L1198.36 1533.02 L1198.36 1535.8 L1176.38 1535.8 Z" fill="#000000" fill-rule="nonzero" fill-opacity="1" /><path clip-path="url(#clip780)" d="M1223.73 1519.71 Q1221.4 1523.7 1220.27 1527.61 Q1219.14 1531.51 1219.14 1535.52 Q1219.14 1539.54 1220.27 1543.48 Q1221.42 1547.4 1223.73 1551.38 L1220.95 1551.38 Q1218.34 1547.3 1217.04 1543.35 Q1215.76 1539.41 1215.76 1535.52 Q1215.76 1531.65 1217.04 1527.73 Q1218.33 1523.81 1220.95 1519.71 L1223.73 1519.71 Z" fill="#000000" fill-rule="nonzero" fill-opacity="1" /><path clip-path="url(#clip780)" d="M1237.87 1523.08 Q1235.17 1523.08 1233.79 1525.75 Q1232.44 1528.41 1232.44 1533.75 Q1232.44 1539.08 1233.79 1541.76 Q1235.17 1544.41 1237.87 1544.41 Q1240.6 1544.41 1241.95 1541.76 Q1243.33 1539.08 1243.33 1533.75 Q1243.33 1528.41 1241.95 1525.75 Q1240.6 1523.08 1237.87 1523.08 M1237.87 1520.3 Q1242.23 1520.3 1244.52 1523.75 Q1246.83 1527.19 1246.83 1533.75 Q1246.83 1540.3 1244.52 1543.75 Q1242.23 1547.19 1237.87 1547.19 Q1233.52 1547.19 1231.21 1543.75 Q1228.92 1540.3 1228.92 1533.75 Q1228.92 1527.19 1231.21 1523.75 Q1233.52 1520.3 1237.87 1520.3 Z" fill="#000000" fill-rule="nonzero" fill-opacity="1" /><path clip-path="url(#clip780)" d="M1253 1542.28 L1256.66 1542.28 L1256.66 1546.69 L1253 1546.69 L1253 1542.28 Z" fill="#000000" fill-rule="nonzero" fill-opacity="1" /><path clip-path="url(#clip780)" d="M1267.32 1543.74 L1279.56 1543.74 L1279.56 1546.69 L1263.1 1546.69 L1263.1 1543.74 Q1265.1 1541.67 1268.53 1538.2 Q1271.99 1534.71 1272.87 1533.7 Q1274.56 1531.81 1275.22 1530.51 Q1275.9 1529.19 1275.9 1527.92 Q1275.9 1525.85 1274.44 1524.55 Q1273 1523.25 1270.67 1523.25 Q1269.02 1523.25 1267.18 1523.82 Q1265.36 1524.4 1263.27 1525.56 L1263.27 1522.02 Q1265.39 1521.17 1267.23 1520.73 Q1269.07 1520.3 1270.6 1520.3 Q1274.63 1520.3 1277.02 1522.31 Q1279.42 1524.33 1279.42 1527.69 Q1279.42 1529.29 1278.81 1530.73 Q1278.22 1532.16 1276.64 1534.1 Q1276.21 1534.6 1273.88 1537.02 Q1271.55 1539.41 1267.32 1543.74 Z" fill="#000000" fill-rule="nonzero" fill-opacity="1" /><path clip-path="url(#clip780)" d="M1294.42 1534.38 Q1291.92 1534.38 1290.48 1535.72 Q1289.05 1537.05 1289.05 1539.4 Q1289.05 1541.74 1290.48 1543.08 Q1291.92 1544.41 1294.42 1544.41 Q1296.92 1544.41 1298.36 1543.08 Q1299.8 1541.72 1299.8 1539.4 Q1299.8 1537.05 1298.36 1535.72 Q1296.94 1534.38 1294.42 1534.38 M1290.91 1532.89 Q1288.66 1532.33 1287.39 1530.79 Q1286.14 1529.24 1286.14 1527.02 Q1286.14 1523.91 1288.34 1522.1 Q1290.57 1520.3 1294.42 1520.3 Q1298.29 1520.3 1300.5 1522.1 Q1302.7 1523.91 1302.7 1527.02 Q1302.7 1529.24 1301.43 1530.79 Q1300.18 1532.33 1297.94 1532.89 Q1300.48 1533.48 1301.88 1535.19 Q1303.31 1536.91 1303.31 1539.4 Q1303.31 1543.16 1301 1545.18 Q1298.71 1547.19 1294.42 1547.19 Q1290.13 1547.19 1287.82 1545.18 Q1285.53 1543.16 1285.53 1539.4 Q1285.53 1536.91 1286.95 1535.19 Q1288.38 1533.48 1290.91 1532.89 M1289.63 1527.35 Q1289.63 1529.36 1290.88 1530.49 Q1292.15 1531.62 1294.42 1531.62 Q1296.68 1531.62 1297.94 1530.49 Q1299.23 1529.36 1299.23 1527.35 Q1299.23 1525.33 1297.94 1524.21 Q1296.68 1523.08 1294.42 1523.08 Q1292.15 1523.08 1290.88 1524.21 Q1289.63 1525.33 1289.63 1527.35 Z" fill="#000000" fill-rule="nonzero" fill-opacity="1" /><path clip-path="url(#clip780)" d="M1309.91 1542.28 L1313.57 1542.28 L1313.57 1545.26 L1310.72 1550.82 L1308.48 1550.82 L1309.91 1545.26 L1309.91 1542.28 Z" fill="#000000" fill-rule="nonzero" fill-opacity="1" /><path clip-path="url(#clip780)" d="M1328.34 1523.08 Q1325.63 1523.08 1324.26 1525.75 Q1322.91 1528.41 1322.91 1533.75 Q1322.91 1539.08 1324.26 1541.76 Q1325.63 1544.41 1328.34 1544.41 Q1331.07 1544.41 1332.42 1541.76 Q1333.79 1539.08 1333.79 1533.75 Q1333.79 1528.41 1332.42 1525.75 Q1331.07 1523.08 1328.34 1523.08 M1328.34 1520.3 Q1332.7 1520.3 1334.99 1523.75 Q1337.3 1527.19 1337.3 1533.75 Q1337.3 1540.3 1334.99 1543.75 Q1332.7 1547.19 1328.34 1547.19 Q1323.99 1547.19 1321.68 1543.75 Q1319.38 1540.3 1319.38 1533.75 Q1319.38 1527.19 1321.68 1523.75 Q1323.99 1520.3 1328.34 1520.3 Z" fill="#000000" fill-rule="nonzero" fill-opacity="1" /><path clip-path="url(#clip780)" d="M1343.46 1542.28 L1347.13 1542.28 L1347.13 1546.69 L1343.46 1546.69 L1343.46 1542.28 Z" fill="#000000" fill-rule="nonzero" fill-opacity="1" /><path clip-path="url(#clip780)" d="M1364.4 1523.82 L1355.55 1537.66 L1364.4 1537.66 L1364.4 1523.82 M1363.48 1520.77 L1367.89 1520.77 L1367.89 1537.66 L1371.59 1537.66 L1371.59 1540.58 L1367.89 1540.58 L1367.89 1546.69 L1364.4 1546.69 L1364.4 1540.58 L1352.7 1540.58 L1352.7 1537.19 L1363.48 1520.77 Z" fill="#000000" fill-rule="nonzero" fill-opacity="1" /><path clip-path="url(#clip780)" d="M1380.41 1543.74 L1392.65 1543.74 L1392.65 1546.69 L1376.19 1546.69 L1376.19 1543.74 Q1378.19 1541.67 1381.62 1538.2 Q1385.08 1534.71 1385.96 1533.7 Q1387.65 1531.81 1388.31 1530.51 Q1388.98 1529.19 1388.98 1527.92 Q1388.98 1525.85 1387.53 1524.55 Q1386.09 1523.25 1383.76 1523.25 Q1382.11 1523.25 1380.27 1523.82 Q1378.45 1524.4 1376.36 1525.56 L1376.36 1522.02 Q1378.48 1521.17 1380.32 1520.73 Q1382.16 1520.3 1383.69 1520.3 Q1387.72 1520.3 1390.11 1522.31 Q1392.51 1524.33 1392.51 1527.69 Q1392.51 1529.29 1391.9 1530.73 Q1391.31 1532.16 1389.73 1534.1 Q1389.3 1534.6 1386.97 1537.02 Q1384.64 1539.41 1380.41 1543.74 Z" fill="#000000" fill-rule="nonzero" fill-opacity="1" /><path clip-path="url(#clip780)" d="M1407.02 1519.67 L1407.02 1551.38 L1399.66 1551.38 L1399.66 1548.89 L1403.81 1548.89 L1403.81 1522.16 L1399.66 1522.16 L1399.66 1519.67 L1407.02 1519.67 Z" fill="#000000" fill-rule="nonzero" fill-opacity="1" /><path clip-path="url(#clip780)" d="M1522.69 1519.52 L1522.69 1555.07 L1519.73 1555.07 L1519.73 1519.52 L1522.69 1519.52 Z" fill="#000000" fill-rule="nonzero" fill-opacity="1" /><path clip-path="url(#clip780)" d="M1550.1 1522.76 L1550.1 1526.46 Q1548.33 1524.81 1546.31 1524 Q1544.32 1523.18 1542.06 1523.18 Q1537.62 1523.18 1535.26 1525.91 Q1532.89 1528.62 1532.89 1533.75 Q1532.89 1538.88 1535.26 1541.6 Q1537.62 1544.31 1542.06 1544.31 Q1544.32 1544.31 1546.31 1543.49 Q1548.33 1542.68 1550.1 1541.03 L1550.1 1544.69 Q1548.26 1545.94 1546.19 1546.57 Q1544.14 1547.19 1541.85 1547.19 Q1535.97 1547.19 1532.58 1543.6 Q1529.2 1539.99 1529.2 1533.75 Q1529.2 1527.5 1532.58 1523.91 Q1535.97 1520.3 1541.85 1520.3 Q1544.18 1520.3 1546.23 1520.92 Q1548.29 1521.53 1550.1 1522.76 Z" fill="#000000" fill-rule="nonzero" fill-opacity="1" /><path clip-path="url(#clip780)" d="M1559.49 1519.52 L1559.49 1555.07 L1556.54 1555.07 L1556.54 1519.52 L1559.49 1519.52 Z" fill="#000000" fill-rule="nonzero" fill-opacity="1" /><path clip-path="url(#clip780)" d="M1581.26 1535.8 Q1581.38 1537.09 1582.48 1539.17 Q1583.76 1541.58 1586.19 1542.94 Q1588.57 1544.26 1591.14 1544.27 L1603.24 1544.27 L1603.24 1547.04 L1591.14 1547.04 Q1587.81 1547.04 1584.72 1545.32 Q1581.64 1543.6 1580 1540.54 Q1578.35 1537.49 1578.35 1534.24 Q1578.35 1531.03 1580 1527.97 Q1581.64 1524.92 1584.72 1523.18 Q1587.81 1521.44 1591.14 1521.44 L1603.24 1521.44 L1603.24 1524.21 L1591.14 1524.21 Q1588.57 1524.22 1586.19 1525.56 Q1583.78 1526.93 1582.48 1529.33 Q1581.37 1531.41 1581.21 1533.02 L1603.24 1533.02 L1603.24 1535.8 L1581.26 1535.8 Z" fill="#000000" fill-rule="nonzero" fill-opacity="1" /><path clip-path="url(#clip780)" d="M1628.61 1519.71 Q1626.28 1523.7 1625.15 1527.61 Q1624.02 1531.51 1624.02 1535.52 Q1624.02 1539.54 1625.15 1543.48 Q1626.3 1547.4 1628.61 1551.38 L1625.83 1551.38 Q1623.22 1547.3 1621.92 1543.35 Q1620.64 1539.41 1620.64 1535.52 Q1620.64 1531.65 1621.92 1527.73 Q1623.21 1523.81 1625.83 1519.71 L1628.61 1519.71 Z" fill="#000000" fill-rule="nonzero" fill-opacity="1" /><path clip-path="url(#clip780)" d="M1642.76 1523.08 Q1640.05 1523.08 1638.68 1525.75 Q1637.32 1528.41 1637.32 1533.75 Q1637.32 1539.08 1638.68 1541.76 Q1640.05 1544.41 1642.76 1544.41 Q1645.48 1544.41 1646.83 1541.76 Q1648.21 1539.08 1648.21 1533.75 Q1648.21 1528.41 1646.83 1525.75 Q1645.48 1523.08 1642.76 1523.08 M1642.76 1520.3 Q1647.11 1520.3 1649.4 1523.75 Q1651.71 1527.19 1651.71 1533.75 Q1651.71 1540.3 1649.4 1543.75 Q1647.11 1547.19 1642.76 1547.19 Q1638.4 1547.19 1636.09 1543.75 Q1633.8 1540.3 1633.8 1533.75 Q1633.8 1527.19 1636.09 1523.75 Q1638.4 1520.3 1642.76 1520.3 Z" fill="#000000" fill-rule="nonzero" fill-opacity="1" /><path clip-path="url(#clip780)" d="M1657.88 1542.28 L1661.54 1542.28 L1661.54 1546.69 L1657.88 1546.69 L1657.88 1542.28 Z" fill="#000000" fill-rule="nonzero" fill-opacity="1" /><path clip-path="url(#clip780)" d="M1678.81 1523.82 L1669.96 1537.66 L1678.81 1537.66 L1678.81 1523.82 M1677.89 1520.77 L1682.3 1520.77 L1682.3 1537.66 L1686 1537.66 L1686 1540.58 L1682.3 1540.58 L1682.3 1546.69 L1678.81 1546.69 L1678.81 1540.58 L1667.11 1540.58 L1667.11 1537.19 L1677.89 1520.77 Z" fill="#000000" fill-rule="nonzero" fill-opacity="1" /><path clip-path="url(#clip780)" d="M1694.82 1543.74 L1707.06 1543.74 L1707.06 1546.69 L1690.6 1546.69 L1690.6 1543.74 Q1692.6 1541.67 1696.04 1538.2 Q1699.49 1534.71 1700.38 1533.7 Q1702.06 1531.81 1702.72 1530.51 Q1703.4 1529.19 1703.4 1527.92 Q1703.4 1525.85 1701.94 1524.55 Q1700.5 1523.25 1698.17 1523.25 Q1696.52 1523.25 1694.68 1523.82 Q1692.86 1524.4 1690.78 1525.56 L1690.78 1522.02 Q1692.89 1521.17 1694.73 1520.73 Q1696.57 1520.3 1698.1 1520.3 Q1702.13 1520.3 1704.53 1522.31 Q1706.92 1524.33 1706.92 1527.69 Q1706.92 1529.29 1706.31 1530.73 Q1705.72 1532.16 1704.14 1534.1 Q1703.71 1534.6 1701.38 1537.02 Q1699.06 1539.41 1694.82 1543.74 Z" fill="#000000" fill-rule="nonzero" fill-opacity="1" /><path clip-path="url(#clip780)" d="M1714.79 1542.28 L1718.45 1542.28 L1718.45 1545.26 L1715.6 1550.82 L1713.36 1550.82 L1714.79 1545.26 L1714.79 1542.28 Z" fill="#000000" fill-rule="nonzero" fill-opacity="1" /><path clip-path="url(#clip780)" d="M1733.22 1523.08 Q1730.52 1523.08 1729.14 1525.75 Q1727.79 1528.41 1727.79 1533.75 Q1727.79 1539.08 1729.14 1541.76 Q1730.52 1544.41 1733.22 1544.41 Q1735.95 1544.41 1737.3 1541.76 Q1738.67 1539.08 1738.67 1533.75 Q1738.67 1528.41 1737.3 1525.75 Q1735.95 1523.08 1733.22 1523.08 M1733.22 1520.3 Q1737.58 1520.3 1739.87 1523.75 Q1742.18 1527.19 1742.18 1533.75 Q1742.18 1540.3 1739.87 1543.75 Q1737.58 1547.19 1733.22 1547.19 Q1728.87 1547.19 1726.56 1543.75 Q1724.27 1540.3 1724.27 1533.75 Q1724.27 1527.19 1726.56 1523.75 Q1728.87 1520.3 1733.22 1520.3 Z" fill="#000000" fill-rule="nonzero" fill-opacity="1" /><path clip-path="url(#clip780)" d="M1748.34 1542.28 L1752.01 1542.28 L1752.01 1546.69 L1748.34 1546.69 L1748.34 1542.28 Z" fill="#000000" fill-rule="nonzero" fill-opacity="1" /><path clip-path="url(#clip780)" d="M1759.68 1520.77 L1773.45 1520.77 L1773.45 1523.72 L1762.89 1523.72 L1762.89 1530.07 Q1763.66 1529.81 1764.42 1529.69 Q1765.19 1529.55 1765.95 1529.55 Q1770.29 1529.55 1772.82 1531.93 Q1775.36 1534.31 1775.36 1538.37 Q1775.36 1542.56 1772.75 1544.88 Q1770.15 1547.19 1765.41 1547.19 Q1763.78 1547.19 1762.08 1546.91 Q1760.39 1546.64 1758.59 1546.08 L1758.59 1542.56 Q1760.15 1543.41 1761.82 1543.82 Q1763.48 1544.24 1765.34 1544.24 Q1768.34 1544.24 1770.1 1542.66 Q1771.85 1541.08 1771.85 1538.37 Q1771.85 1535.66 1770.1 1534.08 Q1768.34 1532.5 1765.34 1532.5 Q1763.94 1532.5 1762.53 1532.82 Q1761.14 1533.13 1759.68 1533.79 L1759.68 1520.77 Z" fill="#000000" fill-rule="nonzero" fill-opacity="1" /><path clip-path="url(#clip780)" d="M1782.3 1520.77 L1796.07 1520.77 L1796.07 1523.72 L1785.51 1523.72 L1785.51 1530.07 Q1786.28 1529.81 1787.04 1529.69 Q1787.81 1529.55 1788.57 1529.55 Q1792.91 1529.55 1795.45 1531.93 Q1797.98 1534.31 1797.98 1538.37 Q1797.98 1542.56 1795.38 1544.88 Q1792.77 1547.19 1788.03 1547.19 Q1786.4 1547.19 1784.7 1546.91 Q1783.01 1546.64 1781.21 1546.08 L1781.21 1542.56 Q1782.77 1543.41 1784.44 1543.82 Q1786.11 1544.24 1787.96 1544.24 Q1790.97 1544.24 1792.72 1542.66 Q1794.47 1541.08 1794.47 1538.37 Q1794.47 1535.66 1792.72 1534.08 Q1790.97 1532.5 1787.96 1532.5 Q1786.56 1532.5 1785.15 1532.82 Q1783.76 1533.13 1782.3 1533.79 L1782.3 1520.77 Z" fill="#000000" fill-rule="nonzero" fill-opacity="1" /><path clip-path="url(#clip780)" d="M1811.9 1519.67 L1811.9 1551.38 L1804.54 1551.38 L1804.54 1548.89 L1808.69 1548.89 L1808.69 1522.16 L1804.54 1522.16 L1804.54 1519.67 L1811.9 1519.67 Z" fill="#000000" fill-rule="nonzero" fill-opacity="1" /><path clip-path="url(#clip780)" d="M1927.57 1519.52 L1927.57 1555.07 L1924.62 1555.07 L1924.62 1519.52 L1927.57 1519.52 Z" fill="#000000" fill-rule="nonzero" fill-opacity="1" /><path clip-path="url(#clip780)" d="M1954.98 1522.76 L1954.98 1526.46 Q1953.21 1524.81 1951.2 1524 Q1949.2 1523.18 1946.94 1523.18 Q1942.5 1523.18 1940.14 1525.91 Q1937.78 1528.62 1937.78 1533.75 Q1937.78 1538.88 1940.14 1541.6 Q1942.5 1544.31 1946.94 1544.31 Q1949.2 1544.31 1951.2 1543.49 Q1953.21 1542.68 1954.98 1541.03 L1954.98 1544.69 Q1953.14 1545.94 1951.07 1546.57 Q1949.03 1547.19 1946.73 1547.19 Q1940.85 1547.19 1937.46 1543.6 Q1934.08 1539.99 1934.08 1533.75 Q1934.08 1527.5 1937.46 1523.91 Q1940.85 1520.3 1946.73 1520.3 Q1949.06 1520.3 1951.11 1520.92 Q1953.17 1521.53 1954.98 1522.76 Z" fill="#000000" fill-rule="nonzero" fill-opacity="1" /><path clip-path="url(#clip780)" d="M1964.37 1519.52 L1964.37 1555.07 L1961.42 1555.07 L1961.42 1519.52 L1964.37 1519.52 Z" fill="#000000" fill-rule="nonzero" fill-opacity="1" /><path clip-path="url(#clip780)" d="M1986.14 1535.8 Q1986.26 1537.09 1987.36 1539.17 Q1988.64 1541.58 1991.07 1542.94 Q1993.45 1544.26 1996.02 1544.27 L2008.12 1544.27 L2008.12 1547.04 L1996.02 1547.04 Q1992.69 1547.04 1989.6 1545.32 Q1986.52 1543.6 1984.88 1540.54 Q1983.23 1537.49 1983.23 1534.24 Q1983.23 1531.03 1984.88 1527.97 Q1986.52 1524.92 1989.6 1523.18 Q1992.69 1521.44 1996.02 1521.44 L2008.12 1521.44 L2008.12 1524.21 L1996.02 1524.21 Q1993.45 1524.22 1991.07 1525.56 Q1988.66 1526.93 1987.36 1529.33 Q1986.25 1531.41 1986.09 1533.02 L2008.12 1533.02 L2008.12 1535.8 L1986.14 1535.8 Z" fill="#000000" fill-rule="nonzero" fill-opacity="1" /><path clip-path="url(#clip780)" d="M2033.49 1519.71 Q2031.16 1523.7 2030.03 1527.61 Q2028.9 1531.51 2028.9 1535.52 Q2028.9 1539.54 2030.03 1543.48 Q2031.18 1547.4 2033.49 1551.38 L2030.71 1551.38 Q2028.1 1547.3 2026.8 1543.35 Q2025.52 1539.41 2025.52 1535.52 Q2025.52 1531.65 2026.8 1527.73 Q2028.09 1523.81 2030.71 1519.71 L2033.49 1519.71 Z" fill="#000000" fill-rule="nonzero" fill-opacity="1" /><path clip-path="url(#clip780)" d="M2047.64 1523.08 Q2044.93 1523.08 2043.56 1525.75 Q2042.2 1528.41 2042.2 1533.75 Q2042.2 1539.08 2043.56 1541.76 Q2044.93 1544.41 2047.64 1544.41 Q2050.36 1544.41 2051.72 1541.76 Q2053.09 1539.08 2053.09 1533.75 Q2053.09 1528.41 2051.72 1525.75 Q2050.36 1523.08 2047.64 1523.08 M2047.64 1520.3 Q2051.99 1520.3 2054.29 1523.75 Q2056.59 1527.19 2056.59 1533.75 Q2056.59 1540.3 2054.29 1543.75 Q2051.99 1547.19 2047.64 1547.19 Q2043.28 1547.19 2040.97 1543.75 Q2038.68 1540.3 2038.68 1533.75 Q2038.68 1527.19 2040.97 1523.75 Q2043.28 1520.3 2047.64 1520.3 Z" fill="#000000" fill-rule="nonzero" fill-opacity="1" /><path clip-path="url(#clip780)" d="M2062.76 1542.28 L2066.42 1542.28 L2066.42 1546.69 L2062.76 1546.69 L2062.76 1542.28 Z" fill="#000000" fill-rule="nonzero" fill-opacity="1" /><path clip-path="url(#clip780)" d="M2074.09 1520.77 L2087.86 1520.77 L2087.86 1523.72 L2077.31 1523.72 L2077.31 1530.07 Q2078.07 1529.81 2078.83 1529.69 Q2079.6 1529.55 2080.36 1529.55 Q2084.7 1529.55 2087.24 1531.93 Q2089.77 1534.31 2089.77 1538.37 Q2089.77 1542.56 2087.17 1544.88 Q2084.56 1547.19 2079.82 1547.19 Q2078.19 1547.19 2076.49 1546.91 Q2074.81 1546.64 2073 1546.08 L2073 1542.56 Q2074.56 1543.41 2076.23 1543.82 Q2077.9 1544.24 2079.75 1544.24 Q2082.76 1544.24 2084.51 1542.66 Q2086.26 1541.08 2086.26 1538.37 Q2086.26 1535.66 2084.51 1534.08 Q2082.76 1532.5 2079.75 1532.5 Q2078.35 1532.5 2076.94 1532.82 Q2075.55 1533.13 2074.09 1533.79 L2074.09 1520.77 Z" fill="#000000" fill-rule="nonzero" fill-opacity="1" /><path clip-path="url(#clip780)" d="M2096.72 1520.77 L2110.48 1520.77 L2110.48 1523.72 L2099.93 1523.72 L2099.93 1530.07 Q2100.69 1529.81 2101.45 1529.69 Q2102.22 1529.55 2102.98 1529.55 Q2107.32 1529.55 2109.86 1531.93 Q2112.39 1534.31 2112.39 1538.37 Q2112.39 1542.56 2109.79 1544.88 Q2107.18 1547.19 2102.44 1547.19 Q2100.81 1547.19 2099.11 1546.91 Q2097.43 1546.64 2095.62 1546.08 L2095.62 1542.56 Q2097.18 1543.41 2098.85 1543.82 Q2100.52 1544.24 2102.38 1544.24 Q2105.38 1544.24 2107.13 1542.66 Q2108.89 1541.08 2108.89 1538.37 Q2108.89 1535.66 2107.13 1534.08 Q2105.38 1532.5 2102.38 1532.5 Q2100.97 1532.5 2099.56 1532.82 Q2098.17 1533.13 2096.72 1533.79 L2096.72 1520.77 Z" fill="#000000" fill-rule="nonzero" fill-opacity="1" /><path clip-path="url(#clip780)" d="M2119.67 1542.28 L2123.33 1542.28 L2123.33 1545.26 L2120.48 1550.82 L2118.24 1550.82 L2119.67 1545.26 L2119.67 1542.28 Z" fill="#000000" fill-rule="nonzero" fill-opacity="1" /><path clip-path="url(#clip780)" d="M2138.1 1523.08 Q2135.4 1523.08 2134.02 1525.75 Q2132.67 1528.41 2132.67 1533.75 Q2132.67 1539.08 2134.02 1541.76 Q2135.4 1544.41 2138.1 1544.41 Q2140.83 1544.41 2142.18 1541.76 Q2143.56 1539.08 2143.56 1533.75 Q2143.56 1528.41 2142.18 1525.75 Q2140.83 1523.08 2138.1 1523.08 M2138.1 1520.3 Q2142.46 1520.3 2144.75 1523.75 Q2147.06 1527.19 2147.06 1533.75 Q2147.06 1540.3 2144.75 1543.75 Q2142.46 1547.19 2138.1 1547.19 Q2133.75 1547.19 2131.44 1543.75 Q2129.15 1540.3 2129.15 1533.75 Q2129.15 1527.19 2131.44 1523.75 Q2133.75 1520.3 2138.1 1520.3 Z" fill="#000000" fill-rule="nonzero" fill-opacity="1" /><path clip-path="url(#clip780)" d="M2153.23 1542.28 L2156.89 1542.28 L2156.89 1546.69 L2153.23 1546.69 L2153.23 1542.28 Z" fill="#000000" fill-rule="nonzero" fill-opacity="1" /><path clip-path="url(#clip780)" d="M2172.46 1532.33 Q2170.1 1532.33 2168.71 1533.94 Q2167.34 1535.56 2167.34 1538.37 Q2167.34 1541.17 2168.71 1542.8 Q2170.1 1544.41 2172.46 1544.41 Q2174.82 1544.41 2176.19 1542.8 Q2177.58 1541.17 2177.58 1538.37 Q2177.58 1535.56 2176.19 1533.94 Q2174.82 1532.33 2172.46 1532.33 M2179.42 1521.34 L2179.42 1524.54 Q2178.1 1523.91 2176.75 1523.58 Q2175.41 1523.25 2174.09 1523.25 Q2170.62 1523.25 2168.78 1525.59 Q2166.96 1527.94 2166.7 1532.68 Q2167.72 1531.17 2169.27 1530.37 Q2170.81 1529.55 2172.67 1529.55 Q2176.58 1529.55 2178.83 1531.93 Q2181.11 1534.29 2181.11 1538.37 Q2181.11 1542.36 2178.75 1544.78 Q2176.39 1547.19 2172.46 1547.19 Q2167.96 1547.19 2165.59 1543.75 Q2163.21 1540.3 2163.21 1533.75 Q2163.21 1527.61 2166.12 1523.96 Q2169.04 1520.3 2173.95 1520.3 Q2175.27 1520.3 2176.61 1520.56 Q2177.96 1520.82 2179.42 1521.34 Z" fill="#000000" fill-rule="nonzero" fill-opacity="1" /><path clip-path="url(#clip780)" d="M2187.25 1546.15 L2187.25 1542.96 Q2188.57 1543.58 2189.93 1543.91 Q2191.28 1544.24 2192.58 1544.24 Q2196.06 1544.24 2197.88 1541.91 Q2199.72 1539.57 2199.98 1534.81 Q2198.97 1536.31 2197.43 1537.1 Q2195.88 1537.9 2194.01 1537.9 Q2190.12 1537.9 2187.84 1535.56 Q2185.59 1533.2 2185.59 1529.12 Q2185.59 1525.13 2187.95 1522.71 Q2190.31 1520.3 2194.23 1520.3 Q2198.73 1520.3 2201.09 1523.75 Q2203.47 1527.19 2203.47 1533.75 Q2203.47 1539.88 2200.55 1543.55 Q2197.65 1547.19 2192.74 1547.19 Q2191.42 1547.19 2190.07 1546.93 Q2188.71 1546.67 2187.25 1546.15 M2194.23 1535.16 Q2196.59 1535.16 2197.96 1533.55 Q2199.35 1531.93 2199.35 1529.12 Q2199.35 1526.32 2197.96 1524.71 Q2196.59 1523.08 2194.23 1523.08 Q2191.87 1523.08 2190.48 1524.71 Q2189.11 1526.32 2189.11 1529.12 Q2189.11 1531.93 2190.48 1533.55 Q2191.87 1535.16 2194.23 1535.16 Z" fill="#000000" fill-rule="nonzero" fill-opacity="1" /><path clip-path="url(#clip780)" d="M2216.78 1519.67 L2216.78 1551.38 L2209.42 1551.38 L2209.42 1548.89 L2213.57 1548.89 L2213.57 1522.16 L2209.42 1522.16 L2209.42 1519.67 L2216.78 1519.67 Z" fill="#000000" fill-rule="nonzero" fill-opacity="1" /><polyline clip-path="url(#clip782)" style="stroke:#000000; stroke-linecap:round; stroke-linejoin:round; stroke-width:2; stroke-opacity:0.1; fill:none" points="169.121,1495.09 2352.76,1495.09 "/>
<polyline clip-path="url(#clip782)" style="stroke:#000000; stroke-linecap:round; stroke-linejoin:round; stroke-width:2; stroke-opacity:0.1; fill:none" points="169.121,1110.02 2352.76,1110.02 "/>
<polyline clip-path="url(#clip782)" style="stroke:#000000; stroke-linecap:round; stroke-linejoin:round; stroke-width:2; stroke-opacity:0.1; fill:none" points="169.121,724.958 2352.76,724.958 "/>
<polyline clip-path="url(#clip782)" style="stroke:#000000; stroke-linecap:round; stroke-linejoin:round; stroke-width:2; stroke-opacity:0.1; fill:none" points="169.121,339.893 2352.76,339.893 "/>
<polyline clip-path="url(#clip780)" style="stroke:#000000; stroke-linecap:round; stroke-linejoin:round; stroke-width:4; stroke-opacity:1; fill:none" points="169.121,1495.09 169.121,47.2441 "/>
<polyline clip-path="url(#clip780)" style="stroke:#000000; stroke-linecap:round; stroke-linejoin:round; stroke-width:4; stroke-opacity:1; fill:none" points="169.121,1495.09 188.019,1495.09 "/>
<polyline clip-path="url(#clip780)" style="stroke:#000000; stroke-linecap:round; stroke-linejoin:round; stroke-width:4; stroke-opacity:1; fill:none" points="169.121,1110.02 188.019,1110.02 "/>
<polyline clip-path="url(#clip780)" style="stroke:#000000; stroke-linecap:round; stroke-linejoin:round; stroke-width:4; stroke-opacity:1; fill:none" points="169.121,724.958 188.019,724.958 "/>
<polyline clip-path="url(#clip780)" style="stroke:#000000; stroke-linecap:round; stroke-linejoin:round; stroke-width:4; stroke-opacity:1; fill:none" points="169.121,339.893 188.019,339.893 "/>
<path clip-path="url(#clip780)" d="M121.177 1480.89 Q117.566 1480.89 115.737 1484.45 Q113.932 1487.99 113.932 1495.12 Q113.932 1502.23 115.737 1505.79 Q117.566 1509.34 121.177 1509.34 Q124.811 1509.34 126.617 1505.79 Q128.445 1502.23 128.445 1495.12 Q128.445 1487.99 126.617 1484.45 Q124.811 1480.89 121.177 1480.89 M121.177 1477.18 Q126.987 1477.18 130.043 1481.79 Q133.121 1486.37 133.121 1495.12 Q133.121 1503.85 130.043 1508.46 Q126.987 1513.04 121.177 1513.04 Q115.367 1513.04 112.288 1508.46 Q109.233 1503.85 109.233 1495.12 Q109.233 1486.37 112.288 1481.79 Q115.367 1477.18 121.177 1477.18 Z" fill="#000000" fill-rule="nonzero" fill-opacity="1" /><path clip-path="url(#clip780)" d="M81.0614 1092.74 L99.4178 1092.74 L99.4178 1096.68 L85.3438 1096.68 L85.3438 1105.15 Q86.3623 1104.8 87.3808 1104.64 Q88.3993 1104.46 89.4178 1104.46 Q95.2049 1104.46 98.5845 1107.63 Q101.964 1110.8 101.964 1116.22 Q101.964 1121.79 98.4919 1124.9 Q95.0197 1127.97 88.7003 1127.97 Q86.5243 1127.97 84.2558 1127.6 Q82.0105 1127.23 79.6031 1126.49 L79.6031 1121.79 Q81.6864 1122.93 83.9086 1123.48 Q86.1308 1124.04 88.6077 1124.04 Q92.6123 1124.04 94.9502 1121.93 Q97.2882 1119.83 97.2882 1116.22 Q97.2882 1112.6 94.9502 1110.5 Q92.6123 1108.39 88.6077 1108.39 Q86.7327 1108.39 84.8577 1108.81 Q83.0058 1109.22 81.0614 1110.1 L81.0614 1092.74 Z" fill="#000000" fill-rule="nonzero" fill-opacity="1" /><path clip-path="url(#clip780)" d="M121.177 1095.82 Q117.566 1095.82 115.737 1099.39 Q113.932 1102.93 113.932 1110.06 Q113.932 1117.16 115.737 1120.73 Q117.566 1124.27 121.177 1124.27 Q124.811 1124.27 126.617 1120.73 Q128.445 1117.16 128.445 1110.06 Q128.445 1102.93 126.617 1099.39 Q124.811 1095.82 121.177 1095.82 M121.177 1092.12 Q126.987 1092.12 130.043 1096.72 Q133.121 1101.31 133.121 1110.06 Q133.121 1118.78 130.043 1123.39 Q126.987 1127.97 121.177 1127.97 Q115.367 1127.97 112.288 1123.39 Q109.233 1118.78 109.233 1110.06 Q109.233 1101.31 112.288 1096.72 Q115.367 1092.12 121.177 1092.12 Z" fill="#000000" fill-rule="nonzero" fill-opacity="1" /><path clip-path="url(#clip780)" d="M51.6634 738.303 L59.3023 738.303 L59.3023 711.937 L50.9921 713.604 L50.9921 709.345 L59.256 707.678 L63.9319 707.678 L63.9319 738.303 L71.5707 738.303 L71.5707 742.238 L51.6634 742.238 L51.6634 738.303 Z" fill="#000000" fill-rule="nonzero" fill-opacity="1" /><path clip-path="url(#clip780)" d="M91.0151 710.757 Q87.404 710.757 85.5753 714.322 Q83.7697 717.863 83.7697 724.993 Q83.7697 732.099 85.5753 735.664 Q87.404 739.206 91.0151 739.206 Q94.6493 739.206 96.4548 735.664 Q98.2835 732.099 98.2835 724.993 Q98.2835 717.863 96.4548 714.322 Q94.6493 710.757 91.0151 710.757 M91.0151 707.053 Q96.8252 707.053 99.8808 711.66 Q102.959 716.243 102.959 724.993 Q102.959 733.72 99.8808 738.326 Q96.8252 742.909 91.0151 742.909 Q85.2049 742.909 82.1262 738.326 Q79.0707 733.72 79.0707 724.993 Q79.0707 716.243 82.1262 711.66 Q85.2049 707.053 91.0151 707.053 Z" fill="#000000" fill-rule="nonzero" fill-opacity="1" /><path clip-path="url(#clip780)" d="M121.177 710.757 Q117.566 710.757 115.737 714.322 Q113.932 717.863 113.932 724.993 Q113.932 732.099 115.737 735.664 Q117.566 739.206 121.177 739.206 Q124.811 739.206 126.617 735.664 Q128.445 732.099 128.445 724.993 Q128.445 717.863 126.617 714.322 Q124.811 710.757 121.177 710.757 M121.177 707.053 Q126.987 707.053 130.043 711.66 Q133.121 716.243 133.121 724.993 Q133.121 733.72 130.043 738.326 Q126.987 742.909 121.177 742.909 Q115.367 742.909 112.288 738.326 Q109.233 733.72 109.233 724.993 Q109.233 716.243 112.288 711.66 Q115.367 707.053 121.177 707.053 Z" fill="#000000" fill-rule="nonzero" fill-opacity="1" /><path clip-path="url(#clip780)" d="M51.6634 353.238 L59.3023 353.238 L59.3023 326.873 L50.9921 328.539 L50.9921 324.28 L59.256 322.613 L63.9319 322.613 L63.9319 353.238 L71.5707 353.238 L71.5707 357.173 L51.6634 357.173 L51.6634 353.238 Z" fill="#000000" fill-rule="nonzero" fill-opacity="1" /><path clip-path="url(#clip780)" d="M81.0614 322.613 L99.4178 322.613 L99.4178 326.549 L85.3438 326.549 L85.3438 335.021 Q86.3623 334.673 87.3808 334.511 Q88.3993 334.326 89.4178 334.326 Q95.2049 334.326 98.5845 337.498 Q101.964 340.669 101.964 346.085 Q101.964 351.664 98.4919 354.766 Q95.0197 357.845 88.7003 357.845 Q86.5243 357.845 84.2558 357.474 Q82.0105 357.104 79.6031 356.363 L79.6031 351.664 Q81.6864 352.798 83.9086 353.354 Q86.1308 353.909 88.6077 353.909 Q92.6123 353.909 94.9502 351.803 Q97.2882 349.697 97.2882 346.085 Q97.2882 342.474 94.9502 340.368 Q92.6123 338.261 88.6077 338.261 Q86.7327 338.261 84.8577 338.678 Q83.0058 339.095 81.0614 339.974 L81.0614 322.613 Z" fill="#000000" fill-rule="nonzero" fill-opacity="1" /><path clip-path="url(#clip780)" d="M121.177 325.692 Q117.566 325.692 115.737 329.257 Q113.932 332.798 113.932 339.928 Q113.932 347.035 115.737 350.599 Q117.566 354.141 121.177 354.141 Q124.811 354.141 126.617 350.599 Q128.445 347.035 128.445 339.928 Q128.445 332.798 126.617 329.257 Q124.811 325.692 121.177 325.692 M121.177 321.988 Q126.987 321.988 130.043 326.595 Q133.121 331.178 133.121 339.928 Q133.121 348.655 130.043 353.261 Q126.987 357.845 121.177 357.845 Q115.367 357.845 112.288 353.261 Q109.233 348.655 109.233 339.928 Q109.233 331.178 112.288 326.595 Q115.367 321.988 121.177 321.988 Z" fill="#000000" fill-rule="nonzero" fill-opacity="1" /><path clip-path="url(#clip782)" d="M289.225 278.283 L289.225 1495.09 L613.13 1495.09 L613.13 278.283 L289.225 278.283 L289.225 278.283  Z" fill="#e69f00" fill-rule="evenodd" fill-opacity="1"/>
<polyline clip-path="url(#clip782)" style="stroke:#000000; stroke-linecap:round; stroke-linejoin:round; stroke-width:4; stroke-opacity:1; fill:none" points="289.225,278.283 289.225,1495.09 613.13,1495.09 613.13,278.283 289.225,278.283 "/>
<path clip-path="url(#clip782)" d="M694.106 47.2441 L694.106 1495.09 L1018.01 1495.09 L1018.01 47.2441 L694.106 47.2441 L694.106 47.2441  Z" fill="#e69f00" fill-rule="evenodd" fill-opacity="1"/>
<polyline clip-path="url(#clip782)" style="stroke:#000000; stroke-linecap:round; stroke-linejoin:round; stroke-width:4; stroke-opacity:1; fill:none" points="694.106,47.2441 694.106,1495.09 1018.01,1495.09 1018.01,47.2441 694.106,47.2441 "/>
<path clip-path="url(#clip782)" d="M1098.99 632.543 L1098.99 1495.09 L1422.89 1495.09 L1422.89 632.543 L1098.99 632.543 L1098.99 632.543  Z" fill="#e69f00" fill-rule="evenodd" fill-opacity="1"/>
<polyline clip-path="url(#clip782)" style="stroke:#000000; stroke-linecap:round; stroke-linejoin:round; stroke-width:4; stroke-opacity:1; fill:none" points="1098.99,632.543 1098.99,1495.09 1422.89,1495.09 1422.89,632.543 1098.99,632.543 "/>
<path clip-path="url(#clip782)" d="M1503.87 1187.04 L1503.87 1495.09 L1827.77 1495.09 L1827.77 1187.04 L1503.87 1187.04 L1503.87 1187.04  Z" fill="#e69f00" fill-rule="evenodd" fill-opacity="1"/>
<polyline clip-path="url(#clip782)" style="stroke:#000000; stroke-linecap:round; stroke-linejoin:round; stroke-width:4; stroke-opacity:1; fill:none" points="1503.87,1187.04 1503.87,1495.09 1827.77,1495.09 1827.77,1187.04 1503.87,1187.04 "/>
<path clip-path="url(#clip782)" d="M1908.75 1433.48 L1908.75 1495.09 L2232.65 1495.09 L2232.65 1433.48 L1908.75 1433.48 L1908.75 1433.48  Z" fill="#e69f00" fill-rule="evenodd" fill-opacity="1"/>
<polyline clip-path="url(#clip782)" style="stroke:#000000; stroke-linecap:round; stroke-linejoin:round; stroke-width:4; stroke-opacity:1; fill:none" points="1908.75,1433.48 1908.75,1495.09 2232.65,1495.09 2232.65,1433.48 1908.75,1433.48 "/>
<circle clip-path="url(#clip782)" style="fill:#e69f00; stroke:none; fill-opacity:0" cx="451.177" cy="278.283" r="2"/>
<circle clip-path="url(#clip782)" style="fill:#e69f00; stroke:none; fill-opacity:0" cx="856.058" cy="47.2441" r="2"/>
<circle clip-path="url(#clip782)" style="fill:#e69f00; stroke:none; fill-opacity:0" cx="1260.94" cy="632.543" r="2"/>
<circle clip-path="url(#clip782)" style="fill:#e69f00; stroke:none; fill-opacity:0" cx="1665.82" cy="1187.04" r="2"/>
<circle clip-path="url(#clip782)" style="fill:#e69f00; stroke:none; fill-opacity:0" cx="2070.7" cy="1433.48" r="2"/>
</svg>
