<?xml version="1.0" encoding="utf-8"?>
<svg xmlns="http://www.w3.org/2000/svg" xmlns:xlink="http://www.w3.org/1999/xlink" width="600" height="400" viewBox="0 0 2400 1600">
<defs>
  <clipPath id="clip510">
    <rect x="0" y="0" width="2400" height="1600"/>
  </clipPath>
</defs>
<path clip-path="url(#clip510)" d="M0 1600 L2400 1600 L2400 0 L0 0  Z" fill="#ffffff" fill-rule="evenodd" fill-opacity="1"/>
<defs>
  <clipPath id="clip511">
    <rect x="480" y="0" width="1681" height="1600"/>
  </clipPath>
</defs>
<path clip-path="url(#clip510)" d="M193.936 1486.45 L2352.76 1486.45 L2352.76 47.2441 L193.936 47.2441  Z" fill="#ffffff" fill-rule="evenodd" fill-opacity="1"/>
<defs>
  <clipPath id="clip512">
    <rect x="193" y="47" width="2160" height="1440"/>
  </clipPath>
</defs>
<polyline clip-path="url(#clip512)" style="stroke:#000000; stroke-linecap:round; stroke-linejoin:round; stroke-width:2; stroke-opacity:0.1; fill:none" points="425.614,1486.45 425.614,47.2441 "/>
<polyline clip-path="url(#clip512)" style="stroke:#000000; stroke-linecap:round; stroke-linejoin:round; stroke-width:2; stroke-opacity:0.1; fill:none" points="856.959,1486.45 856.959,47.2441 "/>
<polyline clip-path="url(#clip512)" style="stroke:#000000; stroke-linecap:round; stroke-linejoin:round; stroke-width:2; stroke-opacity:0.1; fill:none" points="1288.3,1486.45 1288.3,47.2441 "/>
<polyline clip-path="url(#clip512)" style="stroke:#000000; stroke-linecap:round; stroke-linejoin:round; stroke-width:2; stroke-opacity:0.1; fill:none" points="1719.65,1486.45 1719.65,47.2441 "/>
<polyline clip-path="url(#clip512)" style="stroke:#000000; stroke-linecap:round; stroke-linejoin:round; stroke-width:2; stroke-opacity:0.1; fill:none" points="2150.99,1486.45 2150.99,47.2441 "/>
<polyline clip-path="url(#clip510)" style="stroke:#000000; stroke-linecap:round; stroke-linejoin:round; stroke-width:4; stroke-opacity:1; fill:none" points="193.936,1486.45 2352.76,1486.45 "/>
<polyline clip-path="url(#clip510)" style="stroke:#000000; stroke-linecap:round; stroke-linejoin:round; stroke-width:4; stroke-opacity:1; fill:none" points="425.614,1486.45 425.614,1467.55 "/>
<polyline clip-path="url(#clip510)" style="stroke:#000000; stroke-linecap:round; stroke-linejoin:round; stroke-width:4; stroke-opacity:1; fill:none" points="856.959,1486.45 856.959,1467.55 "/>
<polyline clip-path="url(#clip510)" style="stroke:#000000; stroke-linecap:round; stroke-linejoin:round; stroke-width:4; stroke-opacity:1; fill:none" points="1288.3,1486.45 1288.3,1467.55 "/>
<polyline clip-path="url(#clip510)" style="stroke:#000000; stroke-linecap:round; stroke-linejoin:round; stroke-width:4; stroke-opacity:1; fill:none" points="1719.65,1486.45 1719.65,1467.55 "/>
<polyline clip-path="url(#clip510)" style="stroke:#000000; stroke-linecap:round; stroke-linejoin:round; stroke-width:4; stroke-opacity:1; fill:none" points="2150.99,1486.45 2150.99,1467.55 "/>
<path clip-path="url(#clip510)" d="M395.556 1532.02 L425.232 1532.02 L425.232 1535.95 L395.556 1535.95 L395.556 1532.02 Z" fill="#000000" fill-rule="nonzero" fill-opacity="1" /><path clip-path="url(#clip510)" d="M439.352 1544.91 L455.672 1544.91 L455.672 1548.85 L433.727 1548.85 L433.727 1544.91 Q436.389 1542.16 440.973 1537.53 Q445.579 1532.88 446.76 1531.53 Q449.005 1529.01 449.885 1527.27 Q450.787 1525.51 450.787 1523.82 Q450.787 1521.07 448.843 1519.33 Q446.922 1517.6 443.82 1517.6 Q441.621 1517.6 439.167 1518.36 Q436.736 1519.13 433.959 1520.68 L433.959 1515.95 Q436.783 1514.82 439.236 1514.24 Q441.69 1513.66 443.727 1513.66 Q449.098 1513.66 452.292 1516.35 Q455.486 1519.03 455.486 1523.52 Q455.486 1525.65 454.676 1527.57 Q453.889 1529.47 451.783 1532.07 Q451.204 1532.74 448.102 1535.95 Q445 1539.15 439.352 1544.91 Z" fill="#000000" fill-rule="nonzero" fill-opacity="1" /><path clip-path="url(#clip510)" d="M826.716 1532.02 L856.392 1532.02 L856.392 1535.95 L826.716 1535.95 L826.716 1532.02 Z" fill="#000000" fill-rule="nonzero" fill-opacity="1" /><path clip-path="url(#clip510)" d="M867.295 1544.91 L874.934 1544.91 L874.934 1518.55 L866.623 1520.21 L866.623 1515.95 L874.887 1514.29 L879.563 1514.29 L879.563 1544.91 L887.202 1544.91 L887.202 1548.85 L867.295 1548.85 L867.295 1544.91 Z" fill="#000000" fill-rule="nonzero" fill-opacity="1" /><path clip-path="url(#clip510)" d="M1288.3 1517.37 Q1284.69 1517.37 1282.86 1520.93 Q1281.06 1524.47 1281.06 1531.6 Q1281.06 1538.71 1282.86 1542.27 Q1284.69 1545.82 1288.3 1545.82 Q1291.94 1545.82 1293.74 1542.27 Q1295.57 1538.71 1295.57 1531.6 Q1295.57 1524.47 1293.74 1520.93 Q1291.94 1517.37 1288.3 1517.37 M1288.3 1513.66 Q1294.11 1513.66 1297.17 1518.27 Q1300.25 1522.85 1300.25 1531.6 Q1300.25 1540.33 1297.17 1544.94 Q1294.11 1549.52 1288.3 1549.52 Q1282.49 1549.52 1279.42 1544.94 Q1276.36 1540.33 1276.36 1531.6 Q1276.36 1522.85 1279.42 1518.27 Q1282.49 1513.66 1288.3 1513.66 Z" fill="#000000" fill-rule="nonzero" fill-opacity="1" /><path clip-path="url(#clip510)" d="M1710.03 1544.91 L1717.67 1544.91 L1717.67 1518.55 L1709.36 1520.21 L1709.36 1515.95 L1717.62 1514.29 L1722.3 1514.29 L1722.3 1544.91 L1729.94 1544.91 L1729.94 1548.85 L1710.03 1548.85 L1710.03 1544.91 Z" fill="#000000" fill-rule="nonzero" fill-opacity="1" /><path clip-path="url(#clip510)" d="M2145.65 1544.91 L2161.97 1544.91 L2161.97 1548.85 L2140.02 1548.85 L2140.02 1544.91 Q2142.68 1542.16 2147.27 1537.53 Q2151.87 1532.88 2153.05 1531.53 Q2155.3 1529.01 2156.18 1527.27 Q2157.08 1525.51 2157.08 1523.82 Q2157.08 1521.07 2155.14 1519.33 Q2153.22 1517.6 2150.12 1517.6 Q2147.92 1517.6 2145.46 1518.36 Q2143.03 1519.13 2140.25 1520.68 L2140.25 1515.95 Q2143.08 1514.82 2145.53 1514.24 Q2147.99 1513.66 2150.02 1513.66 Q2155.39 1513.66 2158.59 1516.35 Q2161.78 1519.03 2161.78 1523.52 Q2161.78 1525.65 2160.97 1527.57 Q2160.18 1529.47 2158.08 1532.07 Q2157.5 1532.74 2154.4 1535.95 Q2151.3 1539.15 2145.65 1544.91 Z" fill="#000000" fill-rule="nonzero" fill-opacity="1" /><polyline clip-path="url(#clip512)" style="stroke:#000000; stroke-linecap:round; stroke-linejoin:round; stroke-width:2; stroke-opacity:0.1; fill:none" points="193.936,1285.94 2352.76,1285.94 "/>
<polyline clip-path="url(#clip512)" style="stroke:#000000; stroke-linecap:round; stroke-linejoin:round; stroke-width:2; stroke-opacity:0.1; fill:none" points="193.936,1029.64 2352.76,1029.64 "/>
<polyline clip-path="url(#clip512)" style="stroke:#000000; stroke-linecap:round; stroke-linejoin:round; stroke-width:2; stroke-opacity:0.1; fill:none" points="193.936,773.339 2352.76,773.339 "/>
<polyline clip-path="url(#clip512)" style="stroke:#000000; stroke-linecap:round; stroke-linejoin:round; stroke-width:2; stroke-opacity:0.1; fill:none" points="193.936,517.038 2352.76,517.038 "/>
<polyline clip-path="url(#clip512)" style="stroke:#000000; stroke-linecap:round; stroke-linejoin:round; stroke-width:2; stroke-opacity:0.1; fill:none" points="193.936,260.737 2352.76,260.737 "/>
<polyline clip-path="url(#clip510)" style="stroke:#000000; stroke-linecap:round; stroke-linejoin:round; stroke-width:4; stroke-opacity:1; fill:none" points="193.936,1486.45 193.936,47.2441 "/>
<polyline clip-path="url(#clip510)" style="stroke:#000000; stroke-linecap:round; stroke-linejoin:round; stroke-width:4; stroke-opacity:1; fill:none" points="193.936,1285.94 212.834,1285.94 "/>
<polyline clip-path="url(#clip510)" style="stroke:#000000; stroke-linecap:round; stroke-linejoin:round; stroke-width:4; stroke-opacity:1; fill:none" points="193.936,1029.64 212.834,1029.64 "/>
<polyline clip-path="url(#clip510)" style="stroke:#000000; stroke-linecap:round; stroke-linejoin:round; stroke-width:4; stroke-opacity:1; fill:none" points="193.936,773.339 212.834,773.339 "/>
<polyline clip-path="url(#clip510)" style="stroke:#000000; stroke-linecap:round; stroke-linejoin:round; stroke-width:4; stroke-opacity:1; fill:none" points="193.936,517.038 212.834,517.038 "/>
<polyline clip-path="url(#clip510)" style="stroke:#000000; stroke-linecap:round; stroke-linejoin:round; stroke-width:4; stroke-opacity:1; fill:none" points="193.936,260.737 212.834,260.737 "/>
<path clip-path="url(#clip510)" d="M51.9875 1286.39 L81.6633 1286.39 L81.6633 1290.33 L51.9875 1290.33 L51.9875 1286.39 Z" fill="#000000" fill-rule="nonzero" fill-opacity="1" /><path clip-path="url(#clip510)" d="M95.7836 1299.29 L112.103 1299.29 L112.103 1303.22 L90.1586 1303.22 L90.1586 1299.29 Q92.8206 1296.53 97.4039 1291.9 Q102.01 1287.25 103.191 1285.91 Q105.436 1283.38 106.316 1281.65 Q107.219 1279.89 107.219 1278.2 Q107.219 1275.44 105.274 1273.71 Q103.353 1271.97 100.251 1271.97 Q98.0521 1271.97 95.5984 1272.73 Q93.1678 1273.5 90.3901 1275.05 L90.3901 1270.33 Q93.2141 1269.19 95.6678 1268.61 Q98.1215 1268.04 100.159 1268.04 Q105.529 1268.04 108.723 1270.72 Q111.918 1273.41 111.918 1277.9 Q111.918 1280.03 111.108 1281.95 Q110.321 1283.85 108.214 1286.44 Q107.635 1287.11 104.534 1290.33 Q101.432 1293.52 95.7836 1299.29 Z" fill="#000000" fill-rule="nonzero" fill-opacity="1" /><path clip-path="url(#clip510)" d="M121.918 1297.34 L126.802 1297.34 L126.802 1303.22 L121.918 1303.22 L121.918 1297.34 Z" fill="#000000" fill-rule="nonzero" fill-opacity="1" /><path clip-path="url(#clip510)" d="M137.033 1268.66 L155.39 1268.66 L155.39 1272.6 L141.316 1272.6 L141.316 1281.07 Q142.334 1280.72 143.353 1280.56 Q144.371 1280.37 145.39 1280.37 Q151.177 1280.37 154.556 1283.55 Q157.936 1286.72 157.936 1292.13 Q157.936 1297.71 154.464 1300.81 Q150.992 1303.89 144.672 1303.89 Q142.496 1303.89 140.228 1303.52 Q137.982 1303.15 135.575 1302.41 L135.575 1297.71 Q137.658 1298.85 139.881 1299.4 Q142.103 1299.96 144.58 1299.96 Q148.584 1299.96 150.922 1297.85 Q153.26 1295.74 153.26 1292.13 Q153.26 1288.52 150.922 1286.42 Q148.584 1284.31 144.58 1284.31 Q142.705 1284.31 140.83 1284.73 Q138.978 1285.14 137.033 1286.02 L137.033 1268.66 Z" fill="#000000" fill-rule="nonzero" fill-opacity="1" /><path clip-path="url(#clip510)" d="M50.9921 1030.09 L80.6679 1030.09 L80.6679 1034.03 L50.9921 1034.03 L50.9921 1030.09 Z" fill="#000000" fill-rule="nonzero" fill-opacity="1" /><path clip-path="url(#clip510)" d="M94.7882 1042.98 L111.108 1042.98 L111.108 1046.92 L89.1632 1046.92 L89.1632 1042.98 Q91.8252 1040.23 96.4085 1035.6 Q101.015 1030.95 102.196 1029.61 Q104.441 1027.08 105.321 1025.35 Q106.223 1023.59 106.223 1021.9 Q106.223 1019.14 104.279 1017.41 Q102.358 1015.67 99.2558 1015.67 Q97.0567 1015.67 94.603 1016.43 Q92.1725 1017.2 89.3947 1018.75 L89.3947 1014.03 Q92.2188 1012.89 94.6724 1012.31 Q97.1261 1011.73 99.1632 1011.73 Q104.534 1011.73 107.728 1014.42 Q110.922 1017.11 110.922 1021.6 Q110.922 1023.73 110.112 1025.65 Q109.325 1027.55 107.219 1030.14 Q106.64 1030.81 103.538 1034.03 Q100.436 1037.22 94.7882 1042.98 Z" fill="#000000" fill-rule="nonzero" fill-opacity="1" /><path clip-path="url(#clip510)" d="M120.922 1041.04 L125.807 1041.04 L125.807 1046.92 L120.922 1046.92 L120.922 1041.04 Z" fill="#000000" fill-rule="nonzero" fill-opacity="1" /><path clip-path="url(#clip510)" d="M145.992 1015.44 Q142.381 1015.44 140.552 1019 Q138.746 1022.55 138.746 1029.67 Q138.746 1036.78 140.552 1040.35 Q142.381 1043.89 145.992 1043.89 Q149.626 1043.89 151.431 1040.35 Q153.26 1036.78 153.26 1029.67 Q153.26 1022.55 151.431 1019 Q149.626 1015.44 145.992 1015.44 M145.992 1011.73 Q151.802 1011.73 154.857 1016.34 Q157.936 1020.92 157.936 1029.67 Q157.936 1038.4 154.857 1043.01 Q151.802 1047.59 145.992 1047.59 Q140.181 1047.59 137.103 1043.01 Q134.047 1038.4 134.047 1029.67 Q134.047 1020.92 137.103 1016.34 Q140.181 1011.73 145.992 1011.73 Z" fill="#000000" fill-rule="nonzero" fill-opacity="1" /><path clip-path="url(#clip510)" d="M51.9875 773.79 L81.6633 773.79 L81.6633 777.726 L51.9875 777.726 L51.9875 773.79 Z" fill="#000000" fill-rule="nonzero" fill-opacity="1" /><path clip-path="url(#clip510)" d="M92.566 786.684 L100.205 786.684 L100.205 760.318 L91.8947 761.985 L91.8947 757.726 L100.159 756.059 L104.834 756.059 L104.834 786.684 L112.473 786.684 L112.473 790.619 L92.566 790.619 L92.566 786.684 Z" fill="#000000" fill-rule="nonzero" fill-opacity="1" /><path clip-path="url(#clip510)" d="M121.918 784.739 L126.802 784.739 L126.802 790.619 L121.918 790.619 L121.918 784.739 Z" fill="#000000" fill-rule="nonzero" fill-opacity="1" /><path clip-path="url(#clip510)" d="M137.033 756.059 L155.39 756.059 L155.39 759.994 L141.316 759.994 L141.316 768.466 Q142.334 768.119 143.353 767.957 Q144.371 767.772 145.39 767.772 Q151.177 767.772 154.556 770.943 Q157.936 774.115 157.936 779.531 Q157.936 785.11 154.464 788.212 Q150.992 791.29 144.672 791.29 Q142.496 791.29 140.228 790.92 Q137.982 790.55 135.575 789.809 L135.575 785.11 Q137.658 786.244 139.881 786.8 Q142.103 787.355 144.58 787.355 Q148.584 787.355 150.922 785.249 Q153.26 783.142 153.26 779.531 Q153.26 775.92 150.922 773.814 Q148.584 771.707 144.58 771.707 Q142.705 771.707 140.83 772.124 Q138.978 772.54 137.033 773.42 L137.033 756.059 Z" fill="#000000" fill-rule="nonzero" fill-opacity="1" /><path clip-path="url(#clip510)" d="M50.9921 517.49 L80.6679 517.49 L80.6679 521.425 L50.9921 521.425 L50.9921 517.49 Z" fill="#000000" fill-rule="nonzero" fill-opacity="1" /><path clip-path="url(#clip510)" d="M91.5706 530.383 L99.2095 530.383 L99.2095 504.017 L90.8993 505.684 L90.8993 501.425 L99.1632 499.758 L103.839 499.758 L103.839 530.383 L111.478 530.383 L111.478 534.318 L91.5706 534.318 L91.5706 530.383 Z" fill="#000000" fill-rule="nonzero" fill-opacity="1" /><path clip-path="url(#clip510)" d="M120.922 528.439 L125.807 528.439 L125.807 534.318 L120.922 534.318 L120.922 528.439 Z" fill="#000000" fill-rule="nonzero" fill-opacity="1" /><path clip-path="url(#clip510)" d="M145.992 502.837 Q142.381 502.837 140.552 506.402 Q138.746 509.943 138.746 517.073 Q138.746 524.179 140.552 527.744 Q142.381 531.286 145.992 531.286 Q149.626 531.286 151.431 527.744 Q153.26 524.179 153.26 517.073 Q153.26 509.943 151.431 506.402 Q149.626 502.837 145.992 502.837 M145.992 499.133 Q151.802 499.133 154.857 503.74 Q157.936 508.323 157.936 517.073 Q157.936 525.8 154.857 530.406 Q151.802 534.989 145.992 534.989 Q140.181 534.989 137.103 530.406 Q134.047 525.8 134.047 517.073 Q134.047 508.323 137.103 503.74 Q140.181 499.133 145.992 499.133 Z" fill="#000000" fill-rule="nonzero" fill-opacity="1" /><path clip-path="url(#clip510)" d="M51.9875 261.189 L81.6633 261.189 L81.6633 265.124 L51.9875 265.124 L51.9875 261.189 Z" fill="#000000" fill-rule="nonzero" fill-opacity="1" /><path clip-path="url(#clip510)" d="M101.756 246.536 Q98.1447 246.536 96.316 250.101 Q94.5104 253.642 94.5104 260.772 Q94.5104 267.878 96.316 271.443 Q98.1447 274.985 101.756 274.985 Q105.39 274.985 107.196 271.443 Q109.024 267.878 109.024 260.772 Q109.024 253.642 107.196 250.101 Q105.39 246.536 101.756 246.536 M101.756 242.832 Q107.566 242.832 110.621 247.439 Q113.7 252.022 113.7 260.772 Q113.7 269.499 110.621 274.105 Q107.566 278.689 101.756 278.689 Q95.9456 278.689 92.8669 274.105 Q89.8114 269.499 89.8114 260.772 Q89.8114 252.022 92.8669 247.439 Q95.9456 242.832 101.756 242.832 Z" fill="#000000" fill-rule="nonzero" fill-opacity="1" /><path clip-path="url(#clip510)" d="M121.918 272.138 L126.802 272.138 L126.802 278.017 L121.918 278.017 L121.918 272.138 Z" fill="#000000" fill-rule="nonzero" fill-opacity="1" /><path clip-path="url(#clip510)" d="M137.033 243.457 L155.39 243.457 L155.39 247.392 L141.316 247.392 L141.316 255.865 Q142.334 255.517 143.353 255.355 Q144.371 255.17 145.39 255.17 Q151.177 255.17 154.556 258.341 Q157.936 261.513 157.936 266.929 Q157.936 272.508 154.464 275.61 Q150.992 278.689 144.672 278.689 Q142.496 278.689 140.228 278.318 Q137.982 277.948 135.575 277.207 L135.575 272.508 Q137.658 273.642 139.881 274.198 Q142.103 274.753 144.58 274.753 Q148.584 274.753 150.922 272.647 Q153.26 270.54 153.26 266.929 Q153.26 263.318 150.922 261.212 Q148.584 259.105 144.58 259.105 Q142.705 259.105 140.83 259.522 Q138.978 259.939 137.033 260.818 L137.033 243.457 Z" fill="#000000" fill-rule="nonzero" fill-opacity="1" /><circle clip-path="url(#clip512)" cx="1765.91" cy="610.05" r="14.4" fill="#e69f00" fill-rule="evenodd" fill-opacity="1" stroke="#000000" stroke-opacity="1" stroke-width="3.2"/>
<circle clip-path="url(#clip512)" cx="812.628" cy="663.918" r="14.4" fill="#e69f00" fill-rule="evenodd" fill-opacity="1" stroke="#000000" stroke-opacity="1" stroke-width="3.2"/>
<circle clip-path="url(#clip512)" cx="1793.73" cy="563.719" r="14.4" fill="#e69f00" fill-rule="evenodd" fill-opacity="1" stroke="#000000" stroke-opacity="1" stroke-width="3.2"/>
<circle clip-path="url(#clip512)" cx="1736.84" cy="589.542" r="14.4" fill="#e69f00" fill-rule="evenodd" fill-opacity="1" stroke="#000000" stroke-opacity="1" stroke-width="3.2"/>
<circle clip-path="url(#clip512)" cx="1439.58" cy="521.506" r="14.4" fill="#e69f00" fill-rule="evenodd" fill-opacity="1" stroke="#000000" stroke-opacity="1" stroke-width="3.2"/>
<circle clip-path="url(#clip512)" cx="1644.99" cy="522.181" r="14.4" fill="#e69f00" fill-rule="evenodd" fill-opacity="1" stroke="#000000" stroke-opacity="1" stroke-width="3.2"/>
<circle clip-path="url(#clip512)" cx="907.79" cy="795.694" r="14.4" fill="#e69f00" fill-rule="evenodd" fill-opacity="1" stroke="#000000" stroke-opacity="1" stroke-width="3.2"/>
<circle clip-path="url(#clip512)" cx="852.689" cy="562.898" r="14.4" fill="#e69f00" fill-rule="evenodd" fill-opacity="1" stroke="#000000" stroke-opacity="1" stroke-width="3.2"/>
<circle clip-path="url(#clip512)" cx="1094.47" cy="873.942" r="14.4" fill="#e69f00" fill-rule="evenodd" fill-opacity="1" stroke="#000000" stroke-opacity="1" stroke-width="3.2"/>
<circle clip-path="url(#clip512)" cx="1418.86" cy="706.582" r="14.4" fill="#e69f00" fill-rule="evenodd" fill-opacity="1" stroke="#000000" stroke-opacity="1" stroke-width="3.2"/>
<circle clip-path="url(#clip512)" cx="1668.83" cy="936.087" r="14.4" fill="#e69f00" fill-rule="evenodd" fill-opacity="1" stroke="#000000" stroke-opacity="1" stroke-width="3.2"/>
<circle clip-path="url(#clip512)" cx="982.583" cy="601.516" r="14.4" fill="#e69f00" fill-rule="evenodd" fill-opacity="1" stroke="#000000" stroke-opacity="1" stroke-width="3.2"/>
<circle clip-path="url(#clip512)" cx="803.418" cy="994.034" r="14.4" fill="#e69f00" fill-rule="evenodd" fill-opacity="1" stroke="#000000" stroke-opacity="1" stroke-width="3.2"/>
<circle clip-path="url(#clip512)" cx="1227.13" cy="754.349" r="14.4" fill="#e69f00" fill-rule="evenodd" fill-opacity="1" stroke="#000000" stroke-opacity="1" stroke-width="3.2"/>
<circle clip-path="url(#clip512)" cx="914.603" cy="509.536" r="14.4" fill="#e69f00" fill-rule="evenodd" fill-opacity="1" stroke="#000000" stroke-opacity="1" stroke-width="3.2"/>
<circle clip-path="url(#clip512)" cx="1542.11" cy="538.949" r="14.4" fill="#e69f00" fill-rule="evenodd" fill-opacity="1" stroke="#000000" stroke-opacity="1" stroke-width="3.2"/>
<circle clip-path="url(#clip512)" cx="1378.61" cy="454.43" r="14.4" fill="#e69f00" fill-rule="evenodd" fill-opacity="1" stroke="#000000" stroke-opacity="1" stroke-width="3.2"/>
<circle clip-path="url(#clip512)" cx="530.971" cy="766.019" r="14.4" fill="#e69f00" fill-rule="evenodd" fill-opacity="1" stroke="#000000" stroke-opacity="1" stroke-width="3.2"/>
<circle clip-path="url(#clip512)" cx="976.015" cy="590.428" r="14.4" fill="#e69f00" fill-rule="evenodd" fill-opacity="1" stroke="#000000" stroke-opacity="1" stroke-width="3.2"/>
<circle clip-path="url(#clip512)" cx="1375" cy="854.852" r="14.4" fill="#e69f00" fill-rule="evenodd" fill-opacity="1" stroke="#000000" stroke-opacity="1" stroke-width="3.2"/>
<circle clip-path="url(#clip512)" cx="979.479" cy="676.713" r="14.4" fill="#e69f00" fill-rule="evenodd" fill-opacity="1" stroke="#000000" stroke-opacity="1" stroke-width="3.2"/>
<circle clip-path="url(#clip512)" cx="1451.37" cy="570.233" r="14.4" fill="#e69f00" fill-rule="evenodd" fill-opacity="1" stroke="#000000" stroke-opacity="1" stroke-width="3.2"/>
<circle clip-path="url(#clip512)" cx="501.444" cy="1006.29" r="14.4" fill="#e69f00" fill-rule="evenodd" fill-opacity="1" stroke="#000000" stroke-opacity="1" stroke-width="3.2"/>
<circle clip-path="url(#clip512)" cx="837.239" cy="768.953" r="14.4" fill="#e69f00" fill-rule="evenodd" fill-opacity="1" stroke="#000000" stroke-opacity="1" stroke-width="3.2"/>
<circle clip-path="url(#clip512)" cx="744.913" cy="905.671" r="14.4" fill="#e69f00" fill-rule="evenodd" fill-opacity="1" stroke="#000000" stroke-opacity="1" stroke-width="3.2"/>
<circle clip-path="url(#clip512)" cx="1593.65" cy="658.294" r="14.4" fill="#e69f00" fill-rule="evenodd" fill-opacity="1" stroke="#000000" stroke-opacity="1" stroke-width="3.2"/>
<circle clip-path="url(#clip512)" cx="1473.83" cy="659.38" r="14.4" fill="#e69f00" fill-rule="evenodd" fill-opacity="1" stroke="#000000" stroke-opacity="1" stroke-width="3.2"/>
<circle clip-path="url(#clip512)" cx="1214.96" cy="1083.47" r="14.4" fill="#e69f00" fill-rule="evenodd" fill-opacity="1" stroke="#000000" stroke-opacity="1" stroke-width="3.2"/>
<circle clip-path="url(#clip512)" cx="843.511" cy="1230.15" r="14.4" fill="#e69f00" fill-rule="evenodd" fill-opacity="1" stroke="#000000" stroke-opacity="1" stroke-width="3.2"/>
<circle clip-path="url(#clip512)" cx="787.944" cy="585.62" r="14.4" fill="#e69f00" fill-rule="evenodd" fill-opacity="1" stroke="#000000" stroke-opacity="1" stroke-width="3.2"/>
<circle clip-path="url(#clip512)" cx="1713.54" cy="439.906" r="14.4" fill="#e69f00" fill-rule="evenodd" fill-opacity="1" stroke="#000000" stroke-opacity="1" stroke-width="3.2"/>
<circle clip-path="url(#clip512)" cx="1404.18" cy="568.435" r="14.4" fill="#e69f00" fill-rule="evenodd" fill-opacity="1" stroke="#000000" stroke-opacity="1" stroke-width="3.2"/>
<circle clip-path="url(#clip512)" cx="1395.56" cy="580.762" r="14.4" fill="#e69f00" fill-rule="evenodd" fill-opacity="1" stroke="#000000" stroke-opacity="1" stroke-width="3.2"/>
<circle clip-path="url(#clip512)" cx="529.709" cy="885.459" r="14.4" fill="#e69f00" fill-rule="evenodd" fill-opacity="1" stroke="#000000" stroke-opacity="1" stroke-width="3.2"/>
<circle clip-path="url(#clip512)" cx="1490.82" cy="441.728" r="14.4" fill="#e69f00" fill-rule="evenodd" fill-opacity="1" stroke="#000000" stroke-opacity="1" stroke-width="3.2"/>
<circle clip-path="url(#clip512)" cx="1460.74" cy="303.545" r="14.4" fill="#e69f00" fill-rule="evenodd" fill-opacity="1" stroke="#000000" stroke-opacity="1" stroke-width="3.2"/>
<circle clip-path="url(#clip512)" cx="1213.69" cy="685.485" r="14.4" fill="#e69f00" fill-rule="evenodd" fill-opacity="1" stroke="#000000" stroke-opacity="1" stroke-width="3.2"/>
<circle clip-path="url(#clip512)" cx="955.466" cy="891.465" r="14.4" fill="#e69f00" fill-rule="evenodd" fill-opacity="1" stroke="#000000" stroke-opacity="1" stroke-width="3.2"/>
<circle clip-path="url(#clip512)" cx="2130.99" cy="481.715" r="14.4" fill="#e69f00" fill-rule="evenodd" fill-opacity="1" stroke="#000000" stroke-opacity="1" stroke-width="3.2"/>
<circle clip-path="url(#clip512)" cx="1398.44" cy="528.462" r="14.4" fill="#e69f00" fill-rule="evenodd" fill-opacity="1" stroke="#000000" stroke-opacity="1" stroke-width="3.2"/>
<circle clip-path="url(#clip512)" cx="1234.28" cy="924.16" r="14.4" fill="#e69f00" fill-rule="evenodd" fill-opacity="1" stroke="#000000" stroke-opacity="1" stroke-width="3.2"/>
<circle clip-path="url(#clip512)" cx="990.659" cy="807.456" r="14.4" fill="#e69f00" fill-rule="evenodd" fill-opacity="1" stroke="#000000" stroke-opacity="1" stroke-width="3.2"/>
<circle clip-path="url(#clip512)" cx="759.522" cy="585.452" r="14.4" fill="#e69f00" fill-rule="evenodd" fill-opacity="1" stroke="#000000" stroke-opacity="1" stroke-width="3.2"/>
<circle clip-path="url(#clip512)" cx="1466.67" cy="647.921" r="14.4" fill="#e69f00" fill-rule="evenodd" fill-opacity="1" stroke="#000000" stroke-opacity="1" stroke-width="3.2"/>
<circle clip-path="url(#clip512)" cx="1216.49" cy="613.043" r="14.4" fill="#e69f00" fill-rule="evenodd" fill-opacity="1" stroke="#000000" stroke-opacity="1" stroke-width="3.2"/>
<circle clip-path="url(#clip512)" cx="1495.26" cy="783.35" r="14.4" fill="#e69f00" fill-rule="evenodd" fill-opacity="1" stroke="#000000" stroke-opacity="1" stroke-width="3.2"/>
<circle clip-path="url(#clip512)" cx="2137.08" cy="328.08" r="14.4" fill="#e69f00" fill-rule="evenodd" fill-opacity="1" stroke="#000000" stroke-opacity="1" stroke-width="3.2"/>
<circle clip-path="url(#clip512)" cx="1157.8" cy="785.378" r="14.4" fill="#e69f00" fill-rule="evenodd" fill-opacity="1" stroke="#000000" stroke-opacity="1" stroke-width="3.2"/>
<circle clip-path="url(#clip512)" cx="1064.69" cy="716.041" r="14.4" fill="#e69f00" fill-rule="evenodd" fill-opacity="1" stroke="#000000" stroke-opacity="1" stroke-width="3.2"/>
<circle clip-path="url(#clip512)" cx="1283.69" cy="616.899" r="14.4" fill="#e69f00" fill-rule="evenodd" fill-opacity="1" stroke="#000000" stroke-opacity="1" stroke-width="3.2"/>
<circle clip-path="url(#clip512)" cx="1984.32" cy="510.107" r="14.4" fill="#e69f00" fill-rule="evenodd" fill-opacity="1" stroke="#000000" stroke-opacity="1" stroke-width="3.2"/>
<circle clip-path="url(#clip512)" cx="1388.59" cy="398.499" r="14.4" fill="#e69f00" fill-rule="evenodd" fill-opacity="1" stroke="#000000" stroke-opacity="1" stroke-width="3.2"/>
<circle clip-path="url(#clip512)" cx="1034.58" cy="560.738" r="14.4" fill="#e69f00" fill-rule="evenodd" fill-opacity="1" stroke="#000000" stroke-opacity="1" stroke-width="3.2"/>
<circle clip-path="url(#clip512)" cx="1262.41" cy="591.669" r="14.4" fill="#e69f00" fill-rule="evenodd" fill-opacity="1" stroke="#000000" stroke-opacity="1" stroke-width="3.2"/>
<circle clip-path="url(#clip512)" cx="1042.72" cy="680.678" r="14.4" fill="#e69f00" fill-rule="evenodd" fill-opacity="1" stroke="#000000" stroke-opacity="1" stroke-width="3.2"/>
<circle clip-path="url(#clip512)" cx="562.818" cy="673.937" r="14.4" fill="#e69f00" fill-rule="evenodd" fill-opacity="1" stroke="#000000" stroke-opacity="1" stroke-width="3.2"/>
<circle clip-path="url(#clip512)" cx="805.17" cy="770.136" r="14.4" fill="#e69f00" fill-rule="evenodd" fill-opacity="1" stroke="#000000" stroke-opacity="1" stroke-width="3.2"/>
<circle clip-path="url(#clip512)" cx="2041.74" cy="476.192" r="14.4" fill="#e69f00" fill-rule="evenodd" fill-opacity="1" stroke="#000000" stroke-opacity="1" stroke-width="3.2"/>
<circle clip-path="url(#clip512)" cx="2047.53" cy="518.273" r="14.4" fill="#e69f00" fill-rule="evenodd" fill-opacity="1" stroke="#000000" stroke-opacity="1" stroke-width="3.2"/>
<circle clip-path="url(#clip512)" cx="1917.84" cy="398.486" r="14.4" fill="#e69f00" fill-rule="evenodd" fill-opacity="1" stroke="#000000" stroke-opacity="1" stroke-width="3.2"/>
<circle clip-path="url(#clip512)" cx="985.971" cy="762.399" r="14.4" fill="#e69f00" fill-rule="evenodd" fill-opacity="1" stroke="#000000" stroke-opacity="1" stroke-width="3.2"/>
<circle clip-path="url(#clip512)" cx="1138.44" cy="982.813" r="14.4" fill="#e69f00" fill-rule="evenodd" fill-opacity="1" stroke="#000000" stroke-opacity="1" stroke-width="3.2"/>
<circle clip-path="url(#clip512)" cx="1660.83" cy="747.775" r="14.4" fill="#e69f00" fill-rule="evenodd" fill-opacity="1" stroke="#000000" stroke-opacity="1" stroke-width="3.2"/>
<circle clip-path="url(#clip512)" cx="409.609" cy="830.097" r="14.4" fill="#e69f00" fill-rule="evenodd" fill-opacity="1" stroke="#000000" stroke-opacity="1" stroke-width="3.2"/>
<circle clip-path="url(#clip512)" cx="1150.24" cy="556.385" r="14.4" fill="#e69f00" fill-rule="evenodd" fill-opacity="1" stroke="#000000" stroke-opacity="1" stroke-width="3.2"/>
<circle clip-path="url(#clip512)" cx="1613.4" cy="628.257" r="14.4" fill="#e69f00" fill-rule="evenodd" fill-opacity="1" stroke="#000000" stroke-opacity="1" stroke-width="3.2"/>
<circle clip-path="url(#clip512)" cx="826.16" cy="692.823" r="14.4" fill="#e69f00" fill-rule="evenodd" fill-opacity="1" stroke="#000000" stroke-opacity="1" stroke-width="3.2"/>
<circle clip-path="url(#clip512)" cx="786.072" cy="601.339" r="14.4" fill="#e69f00" fill-rule="evenodd" fill-opacity="1" stroke="#000000" stroke-opacity="1" stroke-width="3.2"/>
<circle clip-path="url(#clip512)" cx="1665.74" cy="470.446" r="14.4" fill="#e69f00" fill-rule="evenodd" fill-opacity="1" stroke="#000000" stroke-opacity="1" stroke-width="3.2"/>
<circle clip-path="url(#clip512)" cx="776.291" cy="807.285" r="14.4" fill="#e69f00" fill-rule="evenodd" fill-opacity="1" stroke="#000000" stroke-opacity="1" stroke-width="3.2"/>
<circle clip-path="url(#clip512)" cx="1293.57" cy="781.559" r="14.4" fill="#e69f00" fill-rule="evenodd" fill-opacity="1" stroke="#000000" stroke-opacity="1" stroke-width="3.2"/>
<circle clip-path="url(#clip512)" cx="1031.19" cy="775.576" r="14.4" fill="#e69f00" fill-rule="evenodd" fill-opacity="1" stroke="#000000" stroke-opacity="1" stroke-width="3.2"/>
<circle clip-path="url(#clip512)" cx="1275.03" cy="616.325" r="14.4" fill="#e69f00" fill-rule="evenodd" fill-opacity="1" stroke="#000000" stroke-opacity="1" stroke-width="3.2"/>
<circle clip-path="url(#clip512)" cx="997.87" cy="770.796" r="14.4" fill="#e69f00" fill-rule="evenodd" fill-opacity="1" stroke="#000000" stroke-opacity="1" stroke-width="3.2"/>
<circle clip-path="url(#clip512)" cx="548.472" cy="923.311" r="14.4" fill="#e69f00" fill-rule="evenodd" fill-opacity="1" stroke="#000000" stroke-opacity="1" stroke-width="3.2"/>
<circle clip-path="url(#clip512)" cx="1304.63" cy="855.438" r="14.4" fill="#e69f00" fill-rule="evenodd" fill-opacity="1" stroke="#000000" stroke-opacity="1" stroke-width="3.2"/>
<circle clip-path="url(#clip512)" cx="1141.61" cy="757.365" r="14.4" fill="#e69f00" fill-rule="evenodd" fill-opacity="1" stroke="#000000" stroke-opacity="1" stroke-width="3.2"/>
<circle clip-path="url(#clip512)" cx="1158.36" cy="474.763" r="14.4" fill="#e69f00" fill-rule="evenodd" fill-opacity="1" stroke="#000000" stroke-opacity="1" stroke-width="3.2"/>
<circle clip-path="url(#clip512)" cx="1635.37" cy="539.628" r="14.4" fill="#e69f00" fill-rule="evenodd" fill-opacity="1" stroke="#000000" stroke-opacity="1" stroke-width="3.2"/>
<circle clip-path="url(#clip512)" cx="1452.29" cy="661.336" r="14.4" fill="#e69f00" fill-rule="evenodd" fill-opacity="1" stroke="#000000" stroke-opacity="1" stroke-width="3.2"/>
<circle clip-path="url(#clip512)" cx="1352.27" cy="858.157" r="14.4" fill="#e69f00" fill-rule="evenodd" fill-opacity="1" stroke="#000000" stroke-opacity="1" stroke-width="3.2"/>
<circle clip-path="url(#clip512)" cx="1412.17" cy="976.78" r="14.4" fill="#e69f00" fill-rule="evenodd" fill-opacity="1" stroke="#000000" stroke-opacity="1" stroke-width="3.2"/>
<circle clip-path="url(#clip512)" cx="927.014" cy="912.207" r="14.4" fill="#e69f00" fill-rule="evenodd" fill-opacity="1" stroke="#000000" stroke-opacity="1" stroke-width="3.2"/>
<circle clip-path="url(#clip512)" cx="1005.09" cy="537.629" r="14.4" fill="#e69f00" fill-rule="evenodd" fill-opacity="1" stroke="#000000" stroke-opacity="1" stroke-width="3.2"/>
<circle clip-path="url(#clip512)" cx="892.801" cy="911.843" r="14.4" fill="#e69f00" fill-rule="evenodd" fill-opacity="1" stroke="#000000" stroke-opacity="1" stroke-width="3.2"/>
<circle clip-path="url(#clip512)" cx="890.341" cy="464.189" r="14.4" fill="#e69f00" fill-rule="evenodd" fill-opacity="1" stroke="#000000" stroke-opacity="1" stroke-width="3.2"/>
<circle clip-path="url(#clip512)" cx="953.58" cy="942.545" r="14.4" fill="#e69f00" fill-rule="evenodd" fill-opacity="1" stroke="#000000" stroke-opacity="1" stroke-width="3.2"/>
<circle clip-path="url(#clip512)" cx="1360.02" cy="945.193" r="14.4" fill="#e69f00" fill-rule="evenodd" fill-opacity="1" stroke="#000000" stroke-opacity="1" stroke-width="3.2"/>
<circle clip-path="url(#clip512)" cx="1515.99" cy="758.134" r="14.4" fill="#e69f00" fill-rule="evenodd" fill-opacity="1" stroke="#000000" stroke-opacity="1" stroke-width="3.2"/>
<circle clip-path="url(#clip512)" cx="1000.2" cy="532.817" r="14.4" fill="#e69f00" fill-rule="evenodd" fill-opacity="1" stroke="#000000" stroke-opacity="1" stroke-width="3.2"/>
<circle clip-path="url(#clip512)" cx="1246.24" cy="525.871" r="14.4" fill="#e69f00" fill-rule="evenodd" fill-opacity="1" stroke="#000000" stroke-opacity="1" stroke-width="3.2"/>
<circle clip-path="url(#clip512)" cx="1268.36" cy="707.761" r="14.4" fill="#e69f00" fill-rule="evenodd" fill-opacity="1" stroke="#000000" stroke-opacity="1" stroke-width="3.2"/>
<circle clip-path="url(#clip512)" cx="1747.71" cy="786.388" r="14.4" fill="#e69f00" fill-rule="evenodd" fill-opacity="1" stroke="#000000" stroke-opacity="1" stroke-width="3.2"/>
<circle clip-path="url(#clip512)" cx="1975.54" cy="630.992" r="14.4" fill="#e69f00" fill-rule="evenodd" fill-opacity="1" stroke="#000000" stroke-opacity="1" stroke-width="3.2"/>
<circle clip-path="url(#clip512)" cx="1203.87" cy="813.594" r="14.4" fill="#e69f00" fill-rule="evenodd" fill-opacity="1" stroke="#000000" stroke-opacity="1" stroke-width="3.2"/>
<circle clip-path="url(#clip512)" cx="1397.75" cy="752.35" r="14.4" fill="#e69f00" fill-rule="evenodd" fill-opacity="1" stroke="#000000" stroke-opacity="1" stroke-width="3.2"/>
<circle clip-path="url(#clip512)" cx="1935.22" cy="404.054" r="14.4" fill="#e69f00" fill-rule="evenodd" fill-opacity="1" stroke="#000000" stroke-opacity="1" stroke-width="3.2"/>
<circle clip-path="url(#clip512)" cx="851.724" cy="778.423" r="14.4" fill="#e69f00" fill-rule="evenodd" fill-opacity="1" stroke="#000000" stroke-opacity="1" stroke-width="3.2"/>
<circle clip-path="url(#clip512)" cx="829.643" cy="573.795" r="14.4" fill="#e69f00" fill-rule="evenodd" fill-opacity="1" stroke="#000000" stroke-opacity="1" stroke-width="3.2"/>
<circle clip-path="url(#clip512)" cx="1495.74" cy="747.613" r="14.4" fill="#e69f00" fill-rule="evenodd" fill-opacity="1" stroke="#000000" stroke-opacity="1" stroke-width="3.2"/>
<path clip-path="url(#clip512)" d="M409.609 1272.69 L501.444 1272.69 L529.709 1272.69 L530.971 1160.49 L548.472 1160.49 L562.818 1160.49 L744.913 1191 L759.522 936.757 L776.291 936.757 L786.072 949.158 L787.944 949.158 L803.418 1268.86 L805.17 1032.06 L812.628 1032.06 L826.16 1032.06 L829.643 1174.05 L837.239 1174.05 L843.511 1467.68 L851.724 1002.18 L852.689 1002.18 L890.341 1002.18 L892.801 1033.81 L907.79 1033.81 L914.603 934.668 L927.014 1141.85 L953.58 1141.85 L955.466 1141.85 L976.015 1004.49 L979.479 1001.17 L982.583 955.679 L985.971 1107.8 L990.659 1107.8 L997.87 1107.8 L1000.2 1107.8 L1005.09 1107.8 L1031.19 1107.8 L1034.58 1107.8 L1042.72 1092.26 L1064.69 1092.26 L1094.47 1199.97 L1138.44 1095.11 L1141.61 1095.11 L1150.24 1095.11 L1157.8 1095.11 L1158.36 1095.11 L1203.87 1113.58 L1213.69 1113.58 L1214.96 1321.95 L1216.49 1042.6 L1227.13 1065.91 L1234.28 1204.27 L1246.24 1204.27 L1262.41 1041.47 L1268.36 1041.47 L1275.03 1041.47 L1283.69 1041.47 L1293.57 1112.44 L1304.63 1112.44 L1352.27 1112.44 L1360.02 1112.44 L1375 1112.44 L1378.61 858.668 L1388.59 889.788 L1395.56 889.788 L1397.75 879.691 L1398.44 879.691 L1404.18 920.876 L1412.17 1016.55 L1418.86 1016.55 L1439.58 894.976 L1451.37 862.685 L1452.29 862.685 L1460.74 700.999 L1466.67 963.711 L1473.83 976.194 L1490.82 842.781 L1495.26 1057.29 L1495.74 1057.29 L1515.99 923.615 L1542.11 923.615 L1593.65 951.417 L1613.4 936.888 L1635.37 936.888 L1644.99 936.888 L1660.83 1173.56 L1665.74 1173.56 L1668.83 1173.56 L1713.54 871.572 L1736.84 886.483 L1747.71 950.483 L1765.91 950.483 L1793.73 903.362 L1917.84 903.362 L1935.22 903.362 L1975.54 741.945 L1984.32 741.945 L2041.74 741.945 L2047.53 741.945 L2130.99 741.945 L2137.08 741.945 L2137.08 63.0483 L2130.99 63.0483 L2047.53 63.0483 L2041.74 63.0483 L1984.32 63.0483 L1975.54 63.0483 L1935.22 224.466 L1917.84 224.466 L1793.73 224.466 L1765.91 271.586 L1747.71 271.586 L1736.84 207.587 L1713.54 192.676 L1668.83 494.667 L1665.74 494.667 L1660.83 494.667 L1644.99 257.992 L1635.37 257.992 L1613.4 257.992 L1593.65 272.521 L1542.11 244.719 L1515.99 244.719 L1495.74 378.396 L1495.26 378.396 L1490.82 163.885 L1473.83 297.298 L1466.67 284.815 L1460.74 22.1028 L1452.29 183.789 L1451.37 183.789 L1439.58 216.08 L1418.86 337.658 L1412.17 337.658 L1404.18 241.979 L1398.44 200.795 L1397.75 200.795 L1395.56 210.892 L1388.59 210.892 L1378.61 179.772 L1375 433.546 L1360.02 433.546 L1352.27 433.546 L1304.63 433.546 L1293.57 433.546 L1283.69 362.578 L1275.03 362.578 L1268.36 362.578 L1262.41 362.578 L1246.24 525.376 L1234.28 525.376 L1227.13 387.011 L1216.49 363.701 L1214.96 643.055 L1213.69 434.681 L1203.87 434.681 L1158.36 416.211 L1157.8 416.211 L1150.24 416.211 L1141.61 416.211 L1138.44 416.211 L1094.47 521.076 L1064.69 413.366 L1042.72 413.366 L1034.58 428.907 L1031.19 428.907 L1005.09 428.907 L1000.2 428.907 L997.87 428.907 L990.659 428.907 L985.971 428.907 L982.583 276.783 L979.479 322.272 L976.015 325.592 L955.466 462.953 L953.58 462.953 L927.014 462.953 L914.603 255.772 L907.79 354.912 L892.801 354.912 L890.341 323.287 L852.689 323.287 L851.724 323.287 L843.511 788.785 L837.239 495.156 L829.643 495.156 L826.16 353.167 L812.628 353.167 L805.17 353.167 L803.418 589.968 L787.944 270.261 L786.072 270.261 L776.291 257.861 L759.522 257.861 L744.913 512.102 L562.818 481.591 L548.472 481.591 L530.971 481.591 L529.709 593.797 L501.444 593.797 L409.609 593.797  Z" fill="#56b4e9" fill-rule="evenodd" fill-opacity="0.5"/>
<polyline clip-path="url(#clip512)" style="stroke:#56b4e9; stroke-linecap:round; stroke-linejoin:round; stroke-width:4; stroke-opacity:1; fill:none" points="409.609,933.245 501.444,933.245 529.709,933.245 530.971,821.039 548.472,821.039 562.818,821.039 744.913,851.55 759.522,597.309 776.291,597.309 786.072,609.709 787.944,609.709 803.418,929.416 805.17,692.615 812.628,692.615 826.16,692.615 829.643,834.605 837.239,834.605 843.511,1128.23 851.724,662.735 852.689,662.735 890.341,662.735 892.801,694.36 907.79,694.36 914.603,595.22 927.014,802.401 953.58,802.401 955.466,802.401 976.015,665.04 979.479,661.72 982.583,616.231 985.971,768.355 990.659,768.355 997.87,768.355 1000.2,768.355 1005.09,768.355 1031.19,768.355 1034.58,768.355 1042.72,752.815 1064.69,752.815 1094.47,860.524 1138.44,755.659 1141.61,755.659 1150.24,755.659 1157.8,755.659 1158.36,755.659 1203.87,774.129 1213.69,774.129 1214.96,982.503 1216.49,703.149 1227.13,726.459 1234.28,864.824 1246.24,864.824 1262.41,702.027 1268.36,702.027 1275.03,702.027 1283.69,702.027 1293.57,772.994 1304.63,772.994 1352.27,772.994 1360.02,772.994 1375,772.994 1378.61,519.22 1388.59,550.34 1395.56,550.34 1397.75,540.243 1398.44,540.243 1404.18,581.427 1412.17,677.107 1418.86,677.107 1439.58,555.528 1451.37,523.237 1452.29,523.237 1460.74,361.551 1466.67,624.263 1473.83,636.746 1490.82,503.333 1495.26,717.844 1495.74,717.844 1515.99,584.167 1542.11,584.167 1593.65,611.969 1613.4,597.44 1635.37,597.44 1644.99,597.44 1660.83,834.115 1665.74,834.115 1668.83,834.115 1713.54,532.124 1736.84,547.035 1747.71,611.035 1765.91,611.035 1793.73,563.914 1917.84,563.914 1935.22,563.914 1975.54,402.496 1984.32,402.496 2041.74,402.496 2047.53,402.496 2130.99,402.496 2137.08,402.496 "/>
<path clip-path="url(#clip510)" d="M265.897 250.738 L702.889 250.738 L702.889 95.2176 L265.897 95.2176  Z" fill="#ffffff" fill-rule="evenodd" fill-opacity="1"/>
<polyline clip-path="url(#clip510)" style="stroke:#000000; stroke-linecap:round; stroke-linejoin:round; stroke-width:4; stroke-opacity:1; fill:none" points="265.897,250.738 702.889,250.738 702.889,95.2176 265.897,95.2176 265.897,250.738 "/>
<circle clip-path="url(#clip510)" cx="361.844" cy="147.058" r="20.48" fill="#e69f00" fill-rule="evenodd" fill-opacity="1" stroke="#000000" stroke-opacity="1" stroke-width="4.55111"/>
<path clip-path="url(#clip510)" d="M473.81 132.949 Q468.718 132.949 465.708 136.745 Q462.722 140.541 462.722 147.092 Q462.722 153.62 465.708 157.416 Q468.718 161.213 473.81 161.213 Q478.903 161.213 481.866 157.416 Q484.852 153.62 484.852 147.092 Q484.852 140.541 481.866 136.745 Q478.903 132.949 473.81 132.949 M473.81 129.153 Q481.079 129.153 485.431 134.037 Q489.782 138.898 489.782 147.092 Q489.782 155.264 485.431 160.148 Q481.079 165.009 473.81 165.009 Q466.519 165.009 462.144 160.148 Q457.792 155.287 457.792 147.092 Q457.792 138.898 462.144 134.037 Q466.519 129.153 473.81 129.153 Z" fill="#000000" fill-rule="nonzero" fill-opacity="1" /><path clip-path="url(#clip510)" d="M515.523 151.398 Q515.523 146.699 513.579 144.037 Q511.657 141.352 508.278 141.352 Q504.898 141.352 502.954 144.037 Q501.032 146.699 501.032 151.398 Q501.032 156.097 502.954 158.782 Q504.898 161.444 508.278 161.444 Q511.657 161.444 513.579 158.782 Q515.523 156.097 515.523 151.398 M501.032 142.347 Q502.375 140.032 504.412 138.921 Q506.472 137.787 509.319 137.787 Q514.041 137.787 516.981 141.537 Q519.944 145.287 519.944 151.398 Q519.944 157.509 516.981 161.259 Q514.041 165.009 509.319 165.009 Q506.472 165.009 504.412 163.898 Q502.375 162.763 501.032 160.449 L501.032 164.338 L496.75 164.338 L496.75 128.319 L501.032 128.319 L501.032 142.347 Z" fill="#000000" fill-rule="nonzero" fill-opacity="1" /><path clip-path="url(#clip510)" d="M543.532 139.176 L543.532 143.203 Q541.726 142.277 539.782 141.815 Q537.838 141.352 535.754 141.352 Q532.583 141.352 530.986 142.324 Q529.412 143.296 529.412 145.24 Q529.412 146.722 530.546 147.578 Q531.68 148.412 535.106 149.176 L536.564 149.5 Q541.102 150.472 543 152.254 Q544.921 154.014 544.921 157.185 Q544.921 160.796 542.051 162.902 Q539.203 165.009 534.203 165.009 Q532.12 165.009 529.852 164.592 Q527.606 164.199 525.106 163.388 L525.106 158.99 Q527.467 160.217 529.759 160.842 Q532.051 161.444 534.296 161.444 Q537.305 161.444 538.926 160.426 Q540.546 159.384 540.546 157.509 Q540.546 155.773 539.365 154.847 Q538.208 153.921 534.25 153.064 L532.768 152.717 Q528.81 151.884 527.051 150.171 Q525.291 148.435 525.291 145.426 Q525.291 141.768 527.884 139.778 Q530.477 137.787 535.245 137.787 Q537.606 137.787 539.689 138.134 Q541.773 138.481 543.532 139.176 Z" fill="#000000" fill-rule="nonzero" fill-opacity="1" /><path clip-path="url(#clip510)" d="M573.879 150.31 L573.879 152.393 L554.296 152.393 Q554.574 156.791 556.935 159.106 Q559.319 161.398 563.555 161.398 Q566.009 161.398 568.3 160.796 Q570.615 160.194 572.884 158.99 L572.884 163.018 Q570.592 163.99 568.185 164.5 Q565.777 165.009 563.3 165.009 Q557.097 165.009 553.463 161.398 Q549.851 157.787 549.851 151.629 Q549.851 145.264 553.277 141.537 Q556.726 137.787 562.56 137.787 Q567.791 137.787 570.824 141.166 Q573.879 144.523 573.879 150.31 M569.62 149.06 Q569.574 145.565 567.652 143.481 Q565.754 141.398 562.606 141.398 Q559.041 141.398 556.888 143.412 Q554.759 145.426 554.435 149.083 L569.62 149.06 Z" fill="#000000" fill-rule="nonzero" fill-opacity="1" /><path clip-path="url(#clip510)" d="M595.893 142.393 Q595.175 141.977 594.319 141.791 Q593.485 141.583 592.467 141.583 Q588.856 141.583 586.911 143.944 Q584.99 146.282 584.99 150.68 L584.99 164.338 L580.708 164.338 L580.708 138.412 L584.99 138.412 L584.99 142.44 Q586.333 140.078 588.486 138.944 Q590.638 137.787 593.717 137.787 Q594.157 137.787 594.689 137.856 Q595.222 137.903 595.87 138.018 L595.893 142.393 Z" fill="#000000" fill-rule="nonzero" fill-opacity="1" /><path clip-path="url(#clip510)" d="M597.305 138.412 L601.819 138.412 L609.921 160.171 L618.022 138.412 L622.536 138.412 L612.814 164.338 L607.027 164.338 L597.305 138.412 Z" fill="#000000" fill-rule="nonzero" fill-opacity="1" /><path clip-path="url(#clip510)" d="M650.592 150.31 L650.592 152.393 L631.008 152.393 Q631.286 156.791 633.647 159.106 Q636.032 161.398 640.268 161.398 Q642.721 161.398 645.013 160.796 Q647.328 160.194 649.596 158.99 L649.596 163.018 Q647.305 163.99 644.897 164.5 Q642.49 165.009 640.013 165.009 Q633.809 165.009 630.175 161.398 Q626.564 157.787 626.564 151.629 Q626.564 145.264 629.99 141.537 Q633.439 137.787 639.272 137.787 Q644.504 137.787 647.536 141.166 Q650.592 144.523 650.592 150.31 M646.332 149.06 Q646.286 145.565 644.365 143.481 Q642.467 141.398 639.319 141.398 Q635.754 141.398 633.601 143.412 Q631.471 145.426 631.147 149.083 L646.332 149.06 Z" fill="#000000" fill-rule="nonzero" fill-opacity="1" /><path clip-path="url(#clip510)" d="M674.642 142.347 L674.642 128.319 L678.902 128.319 L678.902 164.338 L674.642 164.338 L674.642 160.449 Q673.3 162.763 671.24 163.898 Q669.203 165.009 666.332 165.009 Q661.633 165.009 658.67 161.259 Q655.731 157.509 655.731 151.398 Q655.731 145.287 658.67 141.537 Q661.633 137.787 666.332 137.787 Q669.203 137.787 671.24 138.921 Q673.3 140.032 674.642 142.347 M660.129 151.398 Q660.129 156.097 662.05 158.782 Q663.994 161.444 667.374 161.444 Q670.754 161.444 672.698 158.782 Q674.642 156.097 674.642 151.398 Q674.642 146.699 672.698 144.037 Q670.754 141.352 667.374 141.352 Q663.994 141.352 662.05 144.037 Q660.129 146.699 660.129 151.398 Z" fill="#000000" fill-rule="nonzero" fill-opacity="1" /><polyline clip-path="url(#clip510)" style="stroke:#56b4e9; stroke-linecap:round; stroke-linejoin:round; stroke-width:4; stroke-opacity:1; fill:none" points="289.884,198.898 433.805,198.898 "/>
<path clip-path="url(#clip510)" d="M462.468 185.46 L462.468 198.446 L468.347 198.446 Q471.611 198.446 473.394 196.756 Q475.176 195.067 475.176 191.942 Q475.176 188.84 473.394 187.15 Q471.611 185.46 468.347 185.46 L462.468 185.46 M457.792 181.618 L468.347 181.618 Q474.157 181.618 477.12 184.256 Q480.106 186.872 480.106 191.942 Q480.106 197.057 477.12 199.673 Q474.157 202.289 468.347 202.289 L462.468 202.289 L462.468 216.178 L457.792 216.178 L457.792 181.618 Z" fill="#000000" fill-rule="nonzero" fill-opacity="1" /><path clip-path="url(#clip510)" d="M500.384 194.233 Q499.667 193.817 498.81 193.631 Q497.977 193.423 496.958 193.423 Q493.347 193.423 491.403 195.784 Q489.481 198.122 489.481 202.52 L489.481 216.178 L485.199 216.178 L485.199 190.252 L489.481 190.252 L489.481 194.28 Q490.824 191.918 492.977 190.784 Q495.13 189.627 498.208 189.627 Q498.648 189.627 499.18 189.696 Q499.713 189.743 500.361 189.858 L500.384 194.233 Z" fill="#000000" fill-rule="nonzero" fill-opacity="1" /><path clip-path="url(#clip510)" d="M525.986 202.15 L525.986 204.233 L506.403 204.233 Q506.68 208.631 509.041 210.946 Q511.426 213.238 515.662 213.238 Q518.116 213.238 520.407 212.636 Q522.722 212.034 524.99 210.83 L524.99 214.858 Q522.699 215.83 520.291 216.34 Q517.884 216.849 515.407 216.849 Q509.204 216.849 505.569 213.238 Q501.958 209.627 501.958 203.469 Q501.958 197.104 505.384 193.377 Q508.833 189.627 514.666 189.627 Q519.898 189.627 522.93 193.006 Q525.986 196.363 525.986 202.15 M521.727 200.9 Q521.68 197.405 519.759 195.321 Q517.861 193.238 514.713 193.238 Q511.148 193.238 508.995 195.252 Q506.866 197.266 506.542 200.923 L521.727 200.9 Z" fill="#000000" fill-rule="nonzero" fill-opacity="1" /><path clip-path="url(#clip510)" d="M550.037 194.187 L550.037 180.159 L554.296 180.159 L554.296 216.178 L550.037 216.178 L550.037 212.289 Q548.694 214.603 546.634 215.738 Q544.597 216.849 541.726 216.849 Q537.027 216.849 534.065 213.099 Q531.125 209.349 531.125 203.238 Q531.125 197.127 534.065 193.377 Q537.027 189.627 541.726 189.627 Q544.597 189.627 546.634 190.761 Q548.694 191.872 550.037 194.187 M535.523 203.238 Q535.523 207.937 537.444 210.622 Q539.389 213.284 542.768 213.284 Q546.148 213.284 548.092 210.622 Q550.037 207.937 550.037 203.238 Q550.037 198.539 548.092 195.877 Q546.148 193.192 542.768 193.192 Q539.389 193.192 537.444 195.877 Q535.523 198.539 535.523 203.238 Z" fill="#000000" fill-rule="nonzero" fill-opacity="1" /><path clip-path="url(#clip510)" d="M563.069 190.252 L567.328 190.252 L567.328 216.178 L563.069 216.178 L563.069 190.252 M563.069 180.159 L567.328 180.159 L567.328 185.553 L563.069 185.553 L563.069 180.159 Z" fill="#000000" fill-rule="nonzero" fill-opacity="1" /><path clip-path="url(#clip510)" d="M594.898 191.247 L594.898 195.229 Q593.092 194.233 591.263 193.747 Q589.458 193.238 587.606 193.238 Q583.462 193.238 581.171 195.877 Q578.879 198.492 578.879 203.238 Q578.879 207.983 581.171 210.622 Q583.462 213.238 587.606 213.238 Q589.458 213.238 591.263 212.752 Q593.092 212.242 594.898 211.247 L594.898 215.182 Q593.115 216.016 591.194 216.432 Q589.296 216.849 587.143 216.849 Q581.286 216.849 577.837 213.168 Q574.388 209.488 574.388 203.238 Q574.388 196.895 577.861 193.261 Q581.356 189.627 587.421 189.627 Q589.388 189.627 591.263 190.043 Q593.138 190.437 594.898 191.247 Z" fill="#000000" fill-rule="nonzero" fill-opacity="1" /><path clip-path="url(#clip510)" d="M606.518 182.891 L606.518 190.252 L615.291 190.252 L615.291 193.562 L606.518 193.562 L606.518 207.636 Q606.518 210.807 607.374 211.71 Q608.254 212.613 610.916 212.613 L615.291 212.613 L615.291 216.178 L610.916 216.178 Q605.985 216.178 604.11 214.349 Q602.235 212.497 602.235 207.636 L602.235 193.562 L599.11 193.562 L599.11 190.252 L602.235 190.252 L602.235 182.891 L606.518 182.891 Z" fill="#000000" fill-rule="nonzero" fill-opacity="1" /><path clip-path="url(#clip510)" d="M643.069 202.15 L643.069 204.233 L623.485 204.233 Q623.763 208.631 626.124 210.946 Q628.508 213.238 632.745 213.238 Q635.198 213.238 637.49 212.636 Q639.805 212.034 642.073 210.83 L642.073 214.858 Q639.782 215.83 637.374 216.34 Q634.967 216.849 632.49 216.849 Q626.286 216.849 622.652 213.238 Q619.041 209.627 619.041 203.469 Q619.041 197.104 622.467 193.377 Q625.916 189.627 631.749 189.627 Q636.981 189.627 640.013 193.006 Q643.069 196.363 643.069 202.15 M638.809 200.9 Q638.763 197.405 636.842 195.321 Q634.944 193.238 631.795 193.238 Q628.231 193.238 626.078 195.252 Q623.948 197.266 623.624 200.923 L638.809 200.9 Z" fill="#000000" fill-rule="nonzero" fill-opacity="1" /><path clip-path="url(#clip510)" d="M667.119 194.187 L667.119 180.159 L671.379 180.159 L671.379 216.178 L667.119 216.178 L667.119 212.289 Q665.777 214.603 663.717 215.738 Q661.68 216.849 658.809 216.849 Q654.11 216.849 651.147 213.099 Q648.207 209.349 648.207 203.238 Q648.207 197.127 651.147 193.377 Q654.11 189.627 658.809 189.627 Q661.68 189.627 663.717 190.761 Q665.777 191.872 667.119 194.187 M652.606 203.238 Q652.606 207.937 654.527 210.622 Q656.471 213.284 659.851 213.284 Q663.23 213.284 665.175 210.622 Q667.119 207.937 667.119 203.238 Q667.119 198.539 665.175 195.877 Q663.23 193.192 659.851 193.192 Q656.471 193.192 654.527 195.877 Q652.606 198.539 652.606 203.238 Z" fill="#000000" fill-rule="nonzero" fill-opacity="1" /></svg>
