<?xml version="1.0" encoding="utf-8"?>
<svg xmlns="http://www.w3.org/2000/svg" xmlns:xlink="http://www.w3.org/1999/xlink" width="600" height="400" viewBox="0 0 2400 1600">
<defs>
  <clipPath id="clip940">
    <rect x="0" y="0" width="2400" height="1600"/>
  </clipPath>
</defs>
<path clip-path="url(#clip940)" d="
M0 1600 L2400 1600 L2400 0 L0 0  Z
  " fill="#ffffff" fill-rule="evenodd" fill-opacity="1"/>
<defs>
  <clipPath id="clip941">
    <rect x="480" y="0" width="1681" height="1600"/>
  </clipPath>
</defs>
<path clip-path="url(#clip940)" d="
M172.015 1495.09 L2352.76 1495.09 L2352.76 47.2441 L172.015 47.2441  Z
  " fill="#ffffff" fill-rule="evenodd" fill-opacity="1"/>
<defs>
  <clipPath id="clip942">
    <rect x="172" y="47" width="2182" height="1449"/>
  </clipPath>
</defs>
<polyline clip-path="url(#clip942)" style="stroke:#000000; stroke-linecap:round; stroke-linejoin:round; stroke-width:2; stroke-opacity:0.1; fill:none" points="
  291.959,1495.09 291.959,47.2441 
  "/>
<polyline clip-path="url(#clip942)" style="stroke:#000000; stroke-linecap:round; stroke-linejoin:round; stroke-width:2; stroke-opacity:0.1; fill:none" points="
  777.172,1495.09 777.172,47.2441 
  "/>
<polyline clip-path="url(#clip942)" style="stroke:#000000; stroke-linecap:round; stroke-linejoin:round; stroke-width:2; stroke-opacity:0.1; fill:none" points="
  1262.39,1495.09 1262.39,47.2441 
  "/>
<polyline clip-path="url(#clip942)" style="stroke:#000000; stroke-linecap:round; stroke-linejoin:round; stroke-width:2; stroke-opacity:0.1; fill:none" points="
  1747.6,1495.09 1747.6,47.2441 
  "/>
<polyline clip-path="url(#clip942)" style="stroke:#000000; stroke-linecap:round; stroke-linejoin:round; stroke-width:2; stroke-opacity:0.1; fill:none" points="
  2232.81,1495.09 2232.81,47.2441 
  "/>
<polyline clip-path="url(#clip940)" style="stroke:#000000; stroke-linecap:round; stroke-linejoin:round; stroke-width:4; stroke-opacity:1; fill:none" points="
  172.015,1495.09 2352.76,1495.09 
  "/>
<polyline clip-path="url(#clip940)" style="stroke:#000000; stroke-linecap:round; stroke-linejoin:round; stroke-width:4; stroke-opacity:1; fill:none" points="
  291.959,1495.09 291.959,1476.19 
  "/>
<polyline clip-path="url(#clip940)" style="stroke:#000000; stroke-linecap:round; stroke-linejoin:round; stroke-width:4; stroke-opacity:1; fill:none" points="
  777.172,1495.09 777.172,1476.19 
  "/>
<polyline clip-path="url(#clip940)" style="stroke:#000000; stroke-linecap:round; stroke-linejoin:round; stroke-width:4; stroke-opacity:1; fill:none" points="
  1262.39,1495.09 1262.39,1476.19 
  "/>
<polyline clip-path="url(#clip940)" style="stroke:#000000; stroke-linecap:round; stroke-linejoin:round; stroke-width:4; stroke-opacity:1; fill:none" points="
  1747.6,1495.09 1747.6,1476.19 
  "/>
<polyline clip-path="url(#clip940)" style="stroke:#000000; stroke-linecap:round; stroke-linejoin:round; stroke-width:4; stroke-opacity:1; fill:none" points="
  2232.81,1495.09 2232.81,1476.19 
  "/>
<path clip-path="url(#clip940)" d="M274.937 1523.08 Q272.229 1523.08 270.857 1525.75 Q269.503 1528.41 269.503 1533.75 Q269.503 1539.08 270.857 1541.76 Q272.229 1544.41 274.937 1544.41 Q277.663 1544.41 279.017 1541.76 Q280.388 1539.08 280.388 1533.75 Q280.388 1528.41 279.017 1525.75 Q277.663 1523.08 274.937 1523.08 M274.937 1520.3 Q279.295 1520.3 281.586 1523.75 Q283.895 1527.19 283.895 1533.75 Q283.895 1540.3 281.586 1543.75 Q279.295 1547.19 274.937 1547.19 Q270.579 1547.19 268.27 1543.75 Q265.979 1540.3 265.979 1533.75 Q265.979 1527.19 268.27 1523.75 Q270.579 1520.3 274.937 1520.3 Z" fill="#000000" fill-rule="evenodd" fill-opacity="1" /><path clip-path="url(#clip940)" d="M290.058 1542.28 L293.722 1542.28 L293.722 1546.69 L290.058 1546.69 L290.058 1542.28 Z" fill="#000000" fill-rule="evenodd" fill-opacity="1" /><path clip-path="url(#clip940)" d="M309.294 1532.33 Q306.933 1532.33 305.544 1533.94 Q304.173 1535.56 304.173 1538.37 Q304.173 1541.17 305.544 1542.8 Q306.933 1544.41 309.294 1544.41 Q311.656 1544.41 313.027 1542.8 Q314.416 1541.17 314.416 1538.37 Q314.416 1535.56 313.027 1533.94 Q311.656 1532.33 309.294 1532.33 M316.256 1521.34 L316.256 1524.54 Q314.937 1523.91 313.583 1523.58 Q312.246 1523.25 310.926 1523.25 Q307.454 1523.25 305.614 1525.59 Q303.791 1527.94 303.531 1532.68 Q304.555 1531.17 306.1 1530.37 Q307.645 1529.55 309.503 1529.55 Q313.409 1529.55 315.666 1531.93 Q317.94 1534.29 317.94 1538.37 Q317.94 1542.36 315.579 1544.78 Q313.218 1547.19 309.294 1547.19 Q304.798 1547.19 302.419 1543.75 Q300.041 1540.3 300.041 1533.75 Q300.041 1527.61 302.958 1523.96 Q305.874 1520.3 310.787 1520.3 Q312.107 1520.3 313.444 1520.56 Q314.798 1520.82 316.256 1521.34 Z" fill="#000000" fill-rule="evenodd" fill-opacity="1" /><path clip-path="url(#clip940)" d="M760.245 1523.08 Q757.537 1523.08 756.166 1525.75 Q754.811 1528.41 754.811 1533.75 Q754.811 1539.08 756.166 1541.76 Q757.537 1544.41 760.245 1544.41 Q762.971 1544.41 764.325 1541.76 Q765.697 1539.08 765.697 1533.75 Q765.697 1528.41 764.325 1525.75 Q762.971 1523.08 760.245 1523.08 M760.245 1520.3 Q764.603 1520.3 766.895 1523.75 Q769.204 1527.19 769.204 1533.75 Q769.204 1540.3 766.895 1543.75 Q764.603 1547.19 760.245 1547.19 Q755.888 1547.19 753.579 1543.75 Q751.287 1540.3 751.287 1533.75 Q751.287 1527.19 753.579 1523.75 Q755.888 1520.3 760.245 1520.3 Z" fill="#000000" fill-rule="evenodd" fill-opacity="1" /><path clip-path="url(#clip940)" d="M775.367 1542.28 L779.03 1542.28 L779.03 1546.69 L775.367 1546.69 L775.367 1542.28 Z" fill="#000000" fill-rule="evenodd" fill-opacity="1" /><path clip-path="url(#clip940)" d="M794.169 1534.38 Q791.669 1534.38 790.228 1535.72 Q788.804 1537.05 788.804 1539.4 Q788.804 1541.74 790.228 1543.08 Q791.669 1544.41 794.169 1544.41 Q796.669 1544.41 798.11 1543.08 Q799.551 1541.72 799.551 1539.4 Q799.551 1537.05 798.11 1535.72 Q796.686 1534.38 794.169 1534.38 M790.662 1532.89 Q788.405 1532.33 787.138 1530.79 Q785.888 1529.24 785.888 1527.02 Q785.888 1523.91 788.092 1522.1 Q790.315 1520.3 794.169 1520.3 Q798.04 1520.3 800.245 1522.1 Q802.45 1523.91 802.45 1527.02 Q802.45 1529.24 801.183 1530.79 Q799.933 1532.33 797.693 1532.89 Q800.228 1533.48 801.634 1535.19 Q803.058 1536.91 803.058 1539.4 Q803.058 1543.16 800.749 1545.18 Q798.457 1547.19 794.169 1547.19 Q789.881 1547.19 787.572 1545.18 Q785.28 1543.16 785.28 1539.4 Q785.28 1536.91 786.704 1535.19 Q788.127 1533.48 790.662 1532.89 M789.377 1527.35 Q789.377 1529.36 790.627 1530.49 Q791.895 1531.62 794.169 1531.62 Q796.426 1531.62 797.693 1530.49 Q798.978 1529.36 798.978 1527.35 Q798.978 1525.33 797.693 1524.21 Q796.426 1523.08 794.169 1523.08 Q791.895 1523.08 790.627 1524.21 Q789.377 1525.33 789.377 1527.35 Z" fill="#000000" fill-rule="evenodd" fill-opacity="1" /><path clip-path="url(#clip940)" d="M1237.75 1543.74 L1243.48 1543.74 L1243.48 1523.96 L1237.25 1525.21 L1237.25 1522.02 L1243.44 1520.77 L1246.95 1520.77 L1246.95 1543.74 L1252.68 1543.74 L1252.68 1546.69 L1237.75 1546.69 L1237.75 1543.74 Z" fill="#000000" fill-rule="evenodd" fill-opacity="1" /><path clip-path="url(#clip940)" d="M1259.76 1542.28 L1263.43 1542.28 L1263.43 1546.69 L1259.76 1546.69 L1259.76 1542.28 Z" fill="#000000" fill-rule="evenodd" fill-opacity="1" /><path clip-path="url(#clip940)" d="M1278.57 1523.08 Q1275.86 1523.08 1274.49 1525.75 Q1273.13 1528.41 1273.13 1533.75 Q1273.13 1539.08 1274.49 1541.76 Q1275.86 1544.41 1278.57 1544.41 Q1281.29 1544.41 1282.65 1541.76 Q1284.02 1539.08 1284.02 1533.75 Q1284.02 1528.41 1282.65 1525.75 Q1281.29 1523.08 1278.57 1523.08 M1278.57 1520.3 Q1282.92 1520.3 1285.22 1523.75 Q1287.52 1527.19 1287.52 1533.75 Q1287.52 1540.3 1285.22 1543.75 Q1282.92 1547.19 1278.57 1547.19 Q1274.21 1547.19 1271.9 1543.75 Q1269.61 1540.3 1269.61 1533.75 Q1269.61 1527.19 1271.9 1523.75 Q1274.21 1520.3 1278.57 1520.3 Z" fill="#000000" fill-rule="evenodd" fill-opacity="1" /><path clip-path="url(#clip940)" d="M1723.56 1543.74 L1729.29 1543.74 L1729.29 1523.96 L1723.06 1525.21 L1723.06 1522.02 L1729.26 1520.77 L1732.76 1520.77 L1732.76 1543.74 L1738.49 1543.74 L1738.49 1546.69 L1723.56 1546.69 L1723.56 1543.74 Z" fill="#000000" fill-rule="evenodd" fill-opacity="1" /><path clip-path="url(#clip940)" d="M1745.58 1542.28 L1749.24 1542.28 L1749.24 1546.69 L1745.58 1546.69 L1745.58 1542.28 Z" fill="#000000" fill-rule="evenodd" fill-opacity="1" /><path clip-path="url(#clip940)" d="M1759.9 1543.74 L1772.14 1543.74 L1772.14 1546.69 L1755.68 1546.69 L1755.68 1543.74 Q1757.68 1541.67 1761.11 1538.2 Q1764.57 1534.71 1765.45 1533.7 Q1767.14 1531.81 1767.8 1530.51 Q1768.47 1529.19 1768.47 1527.92 Q1768.47 1525.85 1767.02 1524.55 Q1765.58 1523.25 1763.25 1523.25 Q1761.6 1523.25 1759.76 1523.82 Q1757.94 1524.4 1755.85 1525.56 L1755.85 1522.02 Q1757.97 1521.17 1759.81 1520.73 Q1761.65 1520.3 1763.18 1520.3 Q1767.21 1520.3 1769.6 1522.31 Q1772 1524.33 1772 1527.69 Q1772 1529.29 1771.39 1530.73 Q1770.8 1532.16 1769.22 1534.1 Q1768.79 1534.6 1766.46 1537.02 Q1764.13 1539.41 1759.9 1543.74 Z" fill="#000000" fill-rule="evenodd" fill-opacity="1" /><path clip-path="url(#clip940)" d="M2207.99 1543.74 L2213.72 1543.74 L2213.72 1523.96 L2207.49 1525.21 L2207.49 1522.02 L2213.69 1520.77 L2217.2 1520.77 L2217.2 1543.74 L2222.92 1543.74 L2222.92 1546.69 L2207.99 1546.69 L2207.99 1543.74 Z" fill="#000000" fill-rule="evenodd" fill-opacity="1" /><path clip-path="url(#clip940)" d="M2230.01 1542.28 L2233.67 1542.28 L2233.67 1546.69 L2230.01 1546.69 L2230.01 1542.28 Z" fill="#000000" fill-rule="evenodd" fill-opacity="1" /><path clip-path="url(#clip940)" d="M2250.94 1523.82 L2242.09 1537.66 L2250.94 1537.66 L2250.94 1523.82 M2250.02 1520.77 L2254.43 1520.77 L2254.43 1537.66 L2258.13 1537.66 L2258.13 1540.58 L2254.43 1540.58 L2254.43 1546.69 L2250.94 1546.69 L2250.94 1540.58 L2239.24 1540.58 L2239.24 1537.19 L2250.02 1520.77 Z" fill="#000000" fill-rule="evenodd" fill-opacity="1" /><polyline clip-path="url(#clip942)" style="stroke:#000000; stroke-linecap:round; stroke-linejoin:round; stroke-width:2; stroke-opacity:0.1; fill:none" points="
  172.015,1454.11 2352.76,1454.11 
  "/>
<polyline clip-path="url(#clip942)" style="stroke:#000000; stroke-linecap:round; stroke-linejoin:round; stroke-width:2; stroke-opacity:0.1; fill:none" points="
  172.015,1184.17 2352.76,1184.17 
  "/>
<polyline clip-path="url(#clip942)" style="stroke:#000000; stroke-linecap:round; stroke-linejoin:round; stroke-width:2; stroke-opacity:0.1; fill:none" points="
  172.015,914.234 2352.76,914.234 
  "/>
<polyline clip-path="url(#clip942)" style="stroke:#000000; stroke-linecap:round; stroke-linejoin:round; stroke-width:2; stroke-opacity:0.1; fill:none" points="
  172.015,644.295 2352.76,644.295 
  "/>
<polyline clip-path="url(#clip942)" style="stroke:#000000; stroke-linecap:round; stroke-linejoin:round; stroke-width:2; stroke-opacity:0.1; fill:none" points="
  172.015,374.356 2352.76,374.356 
  "/>
<polyline clip-path="url(#clip942)" style="stroke:#000000; stroke-linecap:round; stroke-linejoin:round; stroke-width:2; stroke-opacity:0.1; fill:none" points="
  172.015,104.417 2352.76,104.417 
  "/>
<polyline clip-path="url(#clip940)" style="stroke:#000000; stroke-linecap:round; stroke-linejoin:round; stroke-width:4; stroke-opacity:1; fill:none" points="
  172.015,1495.09 172.015,47.2441 
  "/>
<polyline clip-path="url(#clip940)" style="stroke:#000000; stroke-linecap:round; stroke-linejoin:round; stroke-width:4; stroke-opacity:1; fill:none" points="
  172.015,1454.11 190.912,1454.11 
  "/>
<polyline clip-path="url(#clip940)" style="stroke:#000000; stroke-linecap:round; stroke-linejoin:round; stroke-width:4; stroke-opacity:1; fill:none" points="
  172.015,1184.17 190.912,1184.17 
  "/>
<polyline clip-path="url(#clip940)" style="stroke:#000000; stroke-linecap:round; stroke-linejoin:round; stroke-width:4; stroke-opacity:1; fill:none" points="
  172.015,914.234 190.912,914.234 
  "/>
<polyline clip-path="url(#clip940)" style="stroke:#000000; stroke-linecap:round; stroke-linejoin:round; stroke-width:4; stroke-opacity:1; fill:none" points="
  172.015,644.295 190.912,644.295 
  "/>
<polyline clip-path="url(#clip940)" style="stroke:#000000; stroke-linecap:round; stroke-linejoin:round; stroke-width:4; stroke-opacity:1; fill:none" points="
  172.015,374.356 190.912,374.356 
  "/>
<polyline clip-path="url(#clip940)" style="stroke:#000000; stroke-linecap:round; stroke-linejoin:round; stroke-width:4; stroke-opacity:1; fill:none" points="
  172.015,104.417 190.912,104.417 
  "/>
<path clip-path="url(#clip940)" d="M124.07 1439.91 Q120.459 1439.91 118.631 1443.47 Q116.825 1447.02 116.825 1454.15 Q116.825 1461.25 118.631 1464.82 Q120.459 1468.36 124.07 1468.36 Q127.705 1468.36 129.51 1464.82 Q131.339 1461.25 131.339 1454.15 Q131.339 1447.02 129.51 1443.47 Q127.705 1439.91 124.07 1439.91 M124.07 1436.21 Q129.881 1436.21 132.936 1440.81 Q136.015 1445.4 136.015 1454.15 Q136.015 1462.87 132.936 1467.48 Q129.881 1472.06 124.07 1472.06 Q118.26 1472.06 115.182 1467.48 Q112.126 1462.87 112.126 1454.15 Q112.126 1445.4 115.182 1440.81 Q118.26 1436.21 124.07 1436.21 Z" fill="#000000" fill-rule="evenodd" fill-opacity="1" /><path clip-path="url(#clip940)" d="M54.5569 1197.52 L62.1958 1197.52 L62.1958 1171.15 L53.8856 1172.82 L53.8856 1168.56 L62.1495 1166.89 L66.8254 1166.89 L66.8254 1197.52 L74.4642 1197.52 L74.4642 1201.45 L54.5569 1201.45 L54.5569 1197.52 Z" fill="#000000" fill-rule="evenodd" fill-opacity="1" /><path clip-path="url(#clip940)" d="M93.9086 1169.97 Q90.2975 1169.97 88.4688 1173.54 Q86.6632 1177.08 86.6632 1184.21 Q86.6632 1191.31 88.4688 1194.88 Q90.2975 1198.42 93.9086 1198.42 Q97.5428 1198.42 99.3483 1194.88 Q101.177 1191.31 101.177 1184.21 Q101.177 1177.08 99.3483 1173.54 Q97.5428 1169.97 93.9086 1169.97 M93.9086 1166.27 Q99.7187 1166.27 102.774 1170.87 Q105.853 1175.46 105.853 1184.21 Q105.853 1192.93 102.774 1197.54 Q99.7187 1202.12 93.9086 1202.12 Q88.0984 1202.12 85.0197 1197.54 Q81.9642 1192.93 81.9642 1184.21 Q81.9642 1175.46 85.0197 1170.87 Q88.0984 1166.27 93.9086 1166.27 Z" fill="#000000" fill-rule="evenodd" fill-opacity="1" /><path clip-path="url(#clip940)" d="M124.07 1169.97 Q120.459 1169.97 118.631 1173.54 Q116.825 1177.08 116.825 1184.21 Q116.825 1191.31 118.631 1194.88 Q120.459 1198.42 124.07 1198.42 Q127.705 1198.42 129.51 1194.88 Q131.339 1191.31 131.339 1184.21 Q131.339 1177.08 129.51 1173.54 Q127.705 1169.97 124.07 1169.97 M124.07 1166.27 Q129.881 1166.27 132.936 1170.87 Q136.015 1175.46 136.015 1184.21 Q136.015 1192.93 132.936 1197.54 Q129.881 1202.12 124.07 1202.12 Q118.26 1202.12 115.182 1197.54 Q112.126 1192.93 112.126 1184.21 Q112.126 1175.46 115.182 1170.87 Q118.26 1166.27 124.07 1166.27 Z" fill="#000000" fill-rule="evenodd" fill-opacity="1" /><path clip-path="url(#clip940)" d="M57.7745 927.578 L74.0939 927.578 L74.0939 931.514 L52.1495 931.514 L52.1495 927.578 Q54.8115 924.824 59.3949 920.194 Q64.0013 915.541 65.1819 914.199 Q67.4272 911.676 68.3068 909.94 Q69.2096 908.18 69.2096 906.491 Q69.2096 903.736 67.2652 902 Q65.3439 900.264 62.2421 900.264 Q60.043 900.264 57.5893 901.028 Q55.1588 901.791 52.381 903.342 L52.381 898.62 Q55.2051 897.486 57.6588 896.907 Q60.1124 896.329 62.1495 896.329 Q67.5198 896.329 70.7142 899.014 Q73.9087 901.699 73.9087 906.19 Q73.9087 908.319 73.0985 910.241 Q72.3115 912.139 70.205 914.731 Q69.6263 915.403 66.5245 918.62 Q63.4226 921.815 57.7745 927.578 Z" fill="#000000" fill-rule="evenodd" fill-opacity="1" /><path clip-path="url(#clip940)" d="M93.9086 900.032 Q90.2975 900.032 88.4688 903.597 Q86.6632 907.139 86.6632 914.268 Q86.6632 921.375 88.4688 924.94 Q90.2975 928.481 93.9086 928.481 Q97.5428 928.481 99.3483 924.94 Q101.177 921.375 101.177 914.268 Q101.177 907.139 99.3483 903.597 Q97.5428 900.032 93.9086 900.032 M93.9086 896.329 Q99.7187 896.329 102.774 900.935 Q105.853 905.518 105.853 914.268 Q105.853 922.995 102.774 927.602 Q99.7187 932.185 93.9086 932.185 Q88.0984 932.185 85.0197 927.602 Q81.9642 922.995 81.9642 914.268 Q81.9642 905.518 85.0197 900.935 Q88.0984 896.329 93.9086 896.329 Z" fill="#000000" fill-rule="evenodd" fill-opacity="1" /><path clip-path="url(#clip940)" d="M124.07 900.032 Q120.459 900.032 118.631 903.597 Q116.825 907.139 116.825 914.268 Q116.825 921.375 118.631 924.94 Q120.459 928.481 124.07 928.481 Q127.705 928.481 129.51 924.94 Q131.339 921.375 131.339 914.268 Q131.339 907.139 129.51 903.597 Q127.705 900.032 124.07 900.032 M124.07 896.329 Q129.881 896.329 132.936 900.935 Q136.015 905.518 136.015 914.268 Q136.015 922.995 132.936 927.602 Q129.881 932.185 124.07 932.185 Q118.26 932.185 115.182 927.602 Q112.126 922.995 112.126 914.268 Q112.126 905.518 115.182 900.935 Q118.26 896.329 124.07 896.329 Z" fill="#000000" fill-rule="evenodd" fill-opacity="1" /><path clip-path="url(#clip940)" d="M67.9133 642.941 Q71.2698 643.658 73.1448 645.927 Q75.0429 648.195 75.0429 651.529 Q75.0429 656.644 71.5244 659.445 Q68.0059 662.246 61.5245 662.246 Q59.3486 662.246 57.0338 661.806 Q54.7421 661.39 52.2884 660.533 L52.2884 656.019 Q54.2328 657.153 56.5477 657.732 Q58.8625 658.311 61.3856 658.311 Q65.7837 658.311 68.0754 656.575 Q70.3902 654.839 70.3902 651.529 Q70.3902 648.473 68.2374 646.76 Q66.1078 645.024 62.2884 645.024 L58.2606 645.024 L58.2606 641.181 L62.4735 641.181 Q65.9226 641.181 67.7513 639.816 Q69.58 638.427 69.58 635.834 Q69.58 633.172 67.6819 631.76 Q65.8069 630.325 62.2884 630.325 Q60.3671 630.325 58.168 630.742 Q55.969 631.158 53.3301 632.038 L53.3301 627.871 Q55.9921 627.13 58.3069 626.76 Q60.6449 626.39 62.705 626.39 Q68.0291 626.39 71.1309 628.82 Q74.2327 631.228 74.2327 635.348 Q74.2327 638.218 72.5892 640.209 Q70.9457 642.177 67.9133 642.941 Z" fill="#000000" fill-rule="evenodd" fill-opacity="1" /><path clip-path="url(#clip940)" d="M93.9086 630.093 Q90.2975 630.093 88.4688 633.658 Q86.6632 637.2 86.6632 644.329 Q86.6632 651.436 88.4688 655.001 Q90.2975 658.542 93.9086 658.542 Q97.5428 658.542 99.3483 655.001 Q101.177 651.436 101.177 644.329 Q101.177 637.2 99.3483 633.658 Q97.5428 630.093 93.9086 630.093 M93.9086 626.39 Q99.7187 626.39 102.774 630.996 Q105.853 635.58 105.853 644.329 Q105.853 653.056 102.774 657.663 Q99.7187 662.246 93.9086 662.246 Q88.0984 662.246 85.0197 657.663 Q81.9642 653.056 81.9642 644.329 Q81.9642 635.58 85.0197 630.996 Q88.0984 626.39 93.9086 626.39 Z" fill="#000000" fill-rule="evenodd" fill-opacity="1" /><path clip-path="url(#clip940)" d="M124.07 630.093 Q120.459 630.093 118.631 633.658 Q116.825 637.2 116.825 644.329 Q116.825 651.436 118.631 655.001 Q120.459 658.542 124.07 658.542 Q127.705 658.542 129.51 655.001 Q131.339 651.436 131.339 644.329 Q131.339 637.2 129.51 633.658 Q127.705 630.093 124.07 630.093 M124.07 626.39 Q129.881 626.39 132.936 630.996 Q136.015 635.58 136.015 644.329 Q136.015 653.056 132.936 657.663 Q129.881 662.246 124.07 662.246 Q118.26 662.246 115.182 657.663 Q112.126 653.056 112.126 644.329 Q112.126 635.58 115.182 630.996 Q118.26 626.39 124.07 626.39 Z" fill="#000000" fill-rule="evenodd" fill-opacity="1" /><path clip-path="url(#clip940)" d="M66.5939 361.15 L54.7884 379.599 L66.5939 379.599 L66.5939 361.15 M65.367 357.076 L71.2466 357.076 L71.2466 379.599 L76.1772 379.599 L76.1772 383.488 L71.2466 383.488 L71.2466 391.636 L66.5939 391.636 L66.5939 383.488 L50.9921 383.488 L50.9921 378.974 L65.367 357.076 Z" fill="#000000" fill-rule="evenodd" fill-opacity="1" /><path clip-path="url(#clip940)" d="M93.9086 360.155 Q90.2975 360.155 88.4688 363.719 Q86.6632 367.261 86.6632 374.391 Q86.6632 381.497 88.4688 385.062 Q90.2975 388.604 93.9086 388.604 Q97.5428 388.604 99.3483 385.062 Q101.177 381.497 101.177 374.391 Q101.177 367.261 99.3483 363.719 Q97.5428 360.155 93.9086 360.155 M93.9086 356.451 Q99.7187 356.451 102.774 361.057 Q105.853 365.641 105.853 374.391 Q105.853 383.117 102.774 387.724 Q99.7187 392.307 93.9086 392.307 Q88.0984 392.307 85.0197 387.724 Q81.9642 383.117 81.9642 374.391 Q81.9642 365.641 85.0197 361.057 Q88.0984 356.451 93.9086 356.451 Z" fill="#000000" fill-rule="evenodd" fill-opacity="1" /><path clip-path="url(#clip940)" d="M124.07 360.155 Q120.459 360.155 118.631 363.719 Q116.825 367.261 116.825 374.391 Q116.825 381.497 118.631 385.062 Q120.459 388.604 124.07 388.604 Q127.705 388.604 129.51 385.062 Q131.339 381.497 131.339 374.391 Q131.339 367.261 129.51 363.719 Q127.705 360.155 124.07 360.155 M124.07 356.451 Q129.881 356.451 132.936 361.057 Q136.015 365.641 136.015 374.391 Q136.015 383.117 132.936 387.724 Q129.881 392.307 124.07 392.307 Q118.26 392.307 115.182 387.724 Q112.126 383.117 112.126 374.391 Q112.126 365.641 115.182 361.057 Q118.26 356.451 124.07 356.451 Z" fill="#000000" fill-rule="evenodd" fill-opacity="1" /><path clip-path="url(#clip940)" d="M53.793 87.1371 L72.1494 87.1371 L72.1494 91.0723 L58.0754 91.0723 L58.0754 99.5445 Q59.0939 99.1973 60.1124 99.0352 Q61.131 98.85 62.1495 98.85 Q67.9365 98.85 71.3161 102.021 Q74.6957 105.193 74.6957 110.609 Q74.6957 116.188 71.2235 119.29 Q67.7513 122.368 61.4319 122.368 Q59.256 122.368 56.9875 121.998 Q54.7421 121.628 52.3347 120.887 L52.3347 116.188 Q54.418 117.322 56.6402 117.878 Q58.8625 118.433 61.3393 118.433 Q65.3439 118.433 67.6819 116.327 Q70.0198 114.22 70.0198 110.609 Q70.0198 106.998 67.6819 104.892 Q65.3439 102.785 61.3393 102.785 Q59.4643 102.785 57.5893 103.202 Q55.7375 103.619 53.793 104.498 L53.793 87.1371 Z" fill="#000000" fill-rule="evenodd" fill-opacity="1" /><path clip-path="url(#clip940)" d="M93.9086 90.2158 Q90.2975 90.2158 88.4688 93.7806 Q86.6632 97.3223 86.6632 104.452 Q86.6632 111.558 88.4688 115.123 Q90.2975 118.665 93.9086 118.665 Q97.5428 118.665 99.3483 115.123 Q101.177 111.558 101.177 104.452 Q101.177 97.3223 99.3483 93.7806 Q97.5428 90.2158 93.9086 90.2158 M93.9086 86.5121 Q99.7187 86.5121 102.774 91.1186 Q105.853 95.7019 105.853 104.452 Q105.853 113.179 102.774 117.785 Q99.7187 122.368 93.9086 122.368 Q88.0984 122.368 85.0197 117.785 Q81.9642 113.179 81.9642 104.452 Q81.9642 95.7019 85.0197 91.1186 Q88.0984 86.5121 93.9086 86.5121 Z" fill="#000000" fill-rule="evenodd" fill-opacity="1" /><path clip-path="url(#clip940)" d="M124.07 90.2158 Q120.459 90.2158 118.631 93.7806 Q116.825 97.3223 116.825 104.452 Q116.825 111.558 118.631 115.123 Q120.459 118.665 124.07 118.665 Q127.705 118.665 129.51 115.123 Q131.339 111.558 131.339 104.452 Q131.339 97.3223 129.51 93.7806 Q127.705 90.2158 124.07 90.2158 M124.07 86.5121 Q129.881 86.5121 132.936 91.1186 Q136.015 95.7019 136.015 104.452 Q136.015 113.179 132.936 117.785 Q129.881 122.368 124.07 122.368 Q118.26 122.368 115.182 117.785 Q112.126 113.179 112.126 104.452 Q112.126 95.7019 115.182 91.1186 Q118.26 86.5121 124.07 86.5121 Z" fill="#000000" fill-rule="evenodd" fill-opacity="1" /><path clip-path="url(#clip942)" d="
M291.959 88.2208 L291.959 1454.11 L2232.81 1454.11 L2232.81 88.2208 L291.959 88.2208 L291.959 88.2208  Z
  " fill="#e69f00" fill-rule="evenodd" fill-opacity="1"/>
<polyline clip-path="url(#clip942)" style="stroke:#000000; stroke-linecap:round; stroke-linejoin:round; stroke-width:4; stroke-opacity:1; fill:none" points="
  291.959,88.2208 291.959,1454.11 2232.81,1454.11 2232.81,88.2208 291.959,88.2208 
  "/>
<circle clip-path="url(#clip942)" style="fill:#e69f00; stroke:none; fill-opacity:0" cx="1262.39" cy="88.2208" r="2"/>
</svg>
