<?xml version="1.0" encoding="utf-8"?>
<svg xmlns="http://www.w3.org/2000/svg" xmlns:xlink="http://www.w3.org/1999/xlink" width="600" height="400" viewBox="0 0 2400 1600">
<defs>
  <clipPath id="clip210">
    <rect x="0" y="0" width="2400" height="1600"/>
  </clipPath>
</defs>
<path clip-path="url(#clip210)" d="M0 1600 L2400 1600 L2400 0 L0 0  Z" fill="#ffffff" fill-rule="evenodd" fill-opacity="1"/>
<defs>
  <clipPath id="clip211">
    <rect x="480" y="0" width="1681" height="1600"/>
  </clipPath>
</defs>
<path clip-path="url(#clip210)" d="M170.857 1495.09 L2352.76 1495.09 L2352.76 47.2441 L170.857 47.2441  Z" fill="#ffffff" fill-rule="evenodd" fill-opacity="1"/>
<defs>
  <clipPath id="clip212">
    <rect x="170" y="47" width="2183" height="1449"/>
  </clipPath>
</defs>
<polyline clip-path="url(#clip212)" style="stroke:#000000; stroke-linecap:round; stroke-linejoin:round; stroke-width:2; stroke-opacity:0.1; fill:none" points="452.689,1495.09 452.689,47.2441 "/>
<polyline clip-path="url(#clip212)" style="stroke:#000000; stroke-linecap:round; stroke-linejoin:round; stroke-width:2; stroke-opacity:0.1; fill:none" points="857.248,1495.09 857.248,47.2441 "/>
<polyline clip-path="url(#clip212)" style="stroke:#000000; stroke-linecap:round; stroke-linejoin:round; stroke-width:2; stroke-opacity:0.1; fill:none" points="1261.81,1495.09 1261.81,47.2441 "/>
<polyline clip-path="url(#clip212)" style="stroke:#000000; stroke-linecap:round; stroke-linejoin:round; stroke-width:2; stroke-opacity:0.1; fill:none" points="1666.37,1495.09 1666.37,47.2441 "/>
<polyline clip-path="url(#clip212)" style="stroke:#000000; stroke-linecap:round; stroke-linejoin:round; stroke-width:2; stroke-opacity:0.1; fill:none" points="2070.92,1495.09 2070.92,47.2441 "/>
<polyline clip-path="url(#clip210)" style="stroke:#000000; stroke-linecap:round; stroke-linejoin:round; stroke-width:4; stroke-opacity:1; fill:none" points="170.857,1495.09 2352.76,1495.09 "/>
<polyline clip-path="url(#clip210)" style="stroke:#000000; stroke-linecap:round; stroke-linejoin:round; stroke-width:4; stroke-opacity:1; fill:none" points="452.689,1495.09 452.689,1476.19 "/>
<polyline clip-path="url(#clip210)" style="stroke:#000000; stroke-linecap:round; stroke-linejoin:round; stroke-width:4; stroke-opacity:1; fill:none" points="857.248,1495.09 857.248,1476.19 "/>
<polyline clip-path="url(#clip210)" style="stroke:#000000; stroke-linecap:round; stroke-linejoin:round; stroke-width:4; stroke-opacity:1; fill:none" points="1261.81,1495.09 1261.81,1476.19 "/>
<polyline clip-path="url(#clip210)" style="stroke:#000000; stroke-linecap:round; stroke-linejoin:round; stroke-width:4; stroke-opacity:1; fill:none" points="1666.37,1495.09 1666.37,1476.19 "/>
<polyline clip-path="url(#clip210)" style="stroke:#000000; stroke-linecap:round; stroke-linejoin:round; stroke-width:4; stroke-opacity:1; fill:none" points="2070.92,1495.09 2070.92,1476.19 "/>
<path clip-path="url(#clip210)" d="M320.867 1519.52 L320.867 1555.07 L317.916 1555.07 L317.916 1519.52 L320.867 1519.52 Z" fill="#000000" fill-rule="nonzero" fill-opacity="1" /><path clip-path="url(#clip210)" d="M348.28 1522.76 L348.28 1526.46 Q346.509 1524.81 344.495 1524 Q342.499 1523.18 340.242 1523.18 Q335.797 1523.18 333.436 1525.91 Q331.075 1528.62 331.075 1533.75 Q331.075 1538.88 333.436 1541.6 Q335.797 1544.31 340.242 1544.31 Q342.499 1544.31 344.495 1543.49 Q346.509 1542.68 348.28 1541.03 L348.28 1544.69 Q346.44 1545.94 344.374 1546.57 Q342.325 1547.19 340.034 1547.19 Q334.148 1547.19 330.763 1543.6 Q327.377 1539.99 327.377 1533.75 Q327.377 1527.5 330.763 1523.91 Q334.148 1520.3 340.034 1520.3 Q342.36 1520.3 344.409 1520.92 Q346.474 1521.53 348.28 1522.76 Z" fill="#000000" fill-rule="nonzero" fill-opacity="1" /><path clip-path="url(#clip210)" d="M357.672 1519.52 L357.672 1555.07 L354.721 1555.07 L354.721 1519.52 L357.672 1519.52 Z" fill="#000000" fill-rule="nonzero" fill-opacity="1" /><path clip-path="url(#clip210)" d="M379.443 1535.8 Q379.565 1537.09 380.658 1539.17 Q381.943 1541.58 384.374 1542.94 Q386.752 1544.26 389.321 1544.27 L401.422 1544.27 L401.422 1547.04 L389.321 1547.04 Q385.988 1547.04 382.898 1545.32 Q379.825 1543.6 378.176 1540.54 Q376.526 1537.49 376.526 1534.24 Q376.526 1531.03 378.176 1527.97 Q379.825 1524.92 382.898 1523.18 Q385.988 1521.44 389.321 1521.44 L401.422 1521.44 L401.422 1524.21 L389.321 1524.21 Q386.752 1524.22 384.374 1525.56 Q381.96 1526.93 380.658 1529.33 Q379.547 1531.41 379.391 1533.02 L401.422 1533.02 L401.422 1535.8 L379.443 1535.8 Z" fill="#000000" fill-rule="nonzero" fill-opacity="1" /><path clip-path="url(#clip210)" d="M426.787 1519.71 Q424.46 1523.7 423.332 1527.61 Q422.203 1531.51 422.203 1535.52 Q422.203 1539.54 423.332 1543.48 Q424.478 1547.4 426.787 1551.38 L424.009 1551.38 Q421.405 1547.3 420.103 1543.35 Q418.818 1539.41 418.818 1535.52 Q418.818 1531.65 420.103 1527.73 Q421.387 1523.81 424.009 1519.71 L426.787 1519.71 Z" fill="#000000" fill-rule="nonzero" fill-opacity="1" /><path clip-path="url(#clip210)" d="M440.936 1523.08 Q438.227 1523.08 436.856 1525.75 Q435.502 1528.41 435.502 1533.75 Q435.502 1539.08 436.856 1541.76 Q438.227 1544.41 440.936 1544.41 Q443.661 1544.41 445.016 1541.76 Q446.387 1539.08 446.387 1533.75 Q446.387 1528.41 445.016 1525.75 Q443.661 1523.08 440.936 1523.08 M440.936 1520.3 Q445.293 1520.3 447.585 1523.75 Q449.894 1527.19 449.894 1533.75 Q449.894 1540.3 447.585 1543.75 Q445.293 1547.19 440.936 1547.19 Q436.578 1547.19 434.269 1543.75 Q431.978 1540.3 431.978 1533.75 Q431.978 1527.19 434.269 1523.75 Q436.578 1520.3 440.936 1520.3 Z" fill="#000000" fill-rule="nonzero" fill-opacity="1" /><path clip-path="url(#clip210)" d="M456.057 1542.28 L459.72 1542.28 L459.72 1546.69 L456.057 1546.69 L456.057 1542.28 Z" fill="#000000" fill-rule="nonzero" fill-opacity="1" /><path clip-path="url(#clip210)" d="M474.859 1523.08 Q472.151 1523.08 470.779 1525.75 Q469.425 1528.41 469.425 1533.75 Q469.425 1539.08 470.779 1541.76 Q472.151 1544.41 474.859 1544.41 Q477.585 1544.41 478.939 1541.76 Q480.311 1539.08 480.311 1533.75 Q480.311 1528.41 478.939 1525.75 Q477.585 1523.08 474.859 1523.08 M474.859 1520.3 Q479.217 1520.3 481.508 1523.75 Q483.818 1527.19 483.818 1533.75 Q483.818 1540.3 481.508 1543.75 Q479.217 1547.19 474.859 1547.19 Q470.502 1547.19 468.193 1543.75 Q465.901 1540.3 465.901 1533.75 Q465.901 1527.19 468.193 1523.75 Q470.502 1520.3 474.859 1520.3 Z" fill="#000000" fill-rule="nonzero" fill-opacity="1" /><path clip-path="url(#clip210)" d="M490.345 1542.28 L494.008 1542.28 L494.008 1545.26 L491.161 1550.82 L488.922 1550.82 L490.345 1545.26 L490.345 1542.28 Z" fill="#000000" fill-rule="nonzero" fill-opacity="1" /><path clip-path="url(#clip210)" d="M508.783 1523.08 Q506.074 1523.08 504.703 1525.75 Q503.349 1528.41 503.349 1533.75 Q503.349 1539.08 504.703 1541.76 Q506.074 1544.41 508.783 1544.41 Q511.508 1544.41 512.862 1541.76 Q514.234 1539.08 514.234 1533.75 Q514.234 1528.41 512.862 1525.75 Q511.508 1523.08 508.783 1523.08 M508.783 1520.3 Q513.14 1520.3 515.432 1523.75 Q517.741 1527.19 517.741 1533.75 Q517.741 1540.3 515.432 1543.75 Q513.14 1547.19 508.783 1547.19 Q504.425 1547.19 502.116 1543.75 Q499.824 1540.3 499.824 1533.75 Q499.824 1527.19 502.116 1523.75 Q504.425 1520.3 508.783 1520.3 Z" fill="#000000" fill-rule="nonzero" fill-opacity="1" /><path clip-path="url(#clip210)" d="M523.904 1542.28 L527.567 1542.28 L527.567 1546.69 L523.904 1546.69 L523.904 1542.28 Z" fill="#000000" fill-rule="nonzero" fill-opacity="1" /><path clip-path="url(#clip210)" d="M535.814 1543.74 L541.543 1543.74 L541.543 1523.96 L535.31 1525.21 L535.31 1522.02 L541.508 1520.77 L545.015 1520.77 L545.015 1543.74 L550.744 1543.74 L550.744 1546.69 L535.814 1546.69 L535.814 1543.74 Z" fill="#000000" fill-rule="nonzero" fill-opacity="1" /><path clip-path="url(#clip210)" d="M567.463 1523.82 L558.609 1537.66 L567.463 1537.66 L567.463 1523.82 M566.543 1520.77 L570.952 1520.77 L570.952 1537.66 L574.65 1537.66 L574.65 1540.58 L570.952 1540.58 L570.952 1546.69 L567.463 1546.69 L567.463 1540.58 L555.762 1540.58 L555.762 1537.19 L566.543 1520.77 Z" fill="#000000" fill-rule="nonzero" fill-opacity="1" /><path clip-path="url(#clip210)" d="M587.463 1519.67 L587.463 1551.38 L580.102 1551.38 L580.102 1548.89 L584.251 1548.89 L584.251 1522.16 L580.102 1522.16 L580.102 1519.67 L587.463 1519.67 Z" fill="#000000" fill-rule="nonzero" fill-opacity="1" /><path clip-path="url(#clip210)" d="M714.115 1519.52 L714.115 1555.07 L711.164 1555.07 L711.164 1519.52 L714.115 1519.52 Z" fill="#000000" fill-rule="nonzero" fill-opacity="1" /><path clip-path="url(#clip210)" d="M741.528 1522.76 L741.528 1526.46 Q739.757 1524.81 737.743 1524 Q735.747 1523.18 733.49 1523.18 Q729.045 1523.18 726.684 1525.91 Q724.323 1528.62 724.323 1533.75 Q724.323 1538.88 726.684 1541.6 Q729.045 1544.31 733.49 1544.31 Q735.747 1544.31 737.743 1543.49 Q739.757 1542.68 741.528 1541.03 L741.528 1544.69 Q739.688 1545.94 737.622 1546.57 Q735.573 1547.19 733.282 1547.19 Q727.396 1547.19 724.011 1543.6 Q720.625 1539.99 720.625 1533.75 Q720.625 1527.5 724.011 1523.91 Q727.396 1520.3 733.282 1520.3 Q735.608 1520.3 737.657 1520.92 Q739.723 1521.53 741.528 1522.76 Z" fill="#000000" fill-rule="nonzero" fill-opacity="1" /><path clip-path="url(#clip210)" d="M750.92 1519.52 L750.92 1555.07 L747.969 1555.07 L747.969 1519.52 L750.92 1519.52 Z" fill="#000000" fill-rule="nonzero" fill-opacity="1" /><path clip-path="url(#clip210)" d="M772.691 1535.8 Q772.813 1537.09 773.906 1539.17 Q775.191 1541.58 777.622 1542.94 Q780 1544.26 782.57 1544.27 L794.67 1544.27 L794.67 1547.04 L782.57 1547.04 Q779.236 1547.04 776.146 1545.32 Q773.073 1543.6 771.424 1540.54 Q769.774 1537.49 769.774 1534.24 Q769.774 1531.03 771.424 1527.97 Q773.073 1524.92 776.146 1523.18 Q779.236 1521.44 782.57 1521.44 L794.67 1521.44 L794.67 1524.21 L782.57 1524.21 Q780 1524.22 777.622 1525.56 Q775.208 1526.93 773.906 1529.33 Q772.795 1531.41 772.639 1533.02 L794.67 1533.02 L794.67 1535.8 L772.691 1535.8 Z" fill="#000000" fill-rule="nonzero" fill-opacity="1" /><path clip-path="url(#clip210)" d="M820.035 1519.71 Q817.708 1523.7 816.58 1527.61 Q815.451 1531.51 815.451 1535.52 Q815.451 1539.54 816.58 1543.48 Q817.726 1547.4 820.035 1551.38 L817.257 1551.38 Q814.653 1547.3 813.351 1543.35 Q812.066 1539.41 812.066 1535.52 Q812.066 1531.65 813.351 1527.73 Q814.635 1523.81 817.257 1519.71 L820.035 1519.71 Z" fill="#000000" fill-rule="nonzero" fill-opacity="1" /><path clip-path="url(#clip210)" d="M834.184 1523.08 Q831.476 1523.08 830.104 1525.75 Q828.75 1528.41 828.75 1533.75 Q828.75 1539.08 830.104 1541.76 Q831.476 1544.41 834.184 1544.41 Q836.91 1544.41 838.264 1541.76 Q839.635 1539.08 839.635 1533.75 Q839.635 1528.41 838.264 1525.75 Q836.91 1523.08 834.184 1523.08 M834.184 1520.3 Q838.541 1520.3 840.833 1523.75 Q843.142 1527.19 843.142 1533.75 Q843.142 1540.3 840.833 1543.75 Q838.541 1547.19 834.184 1547.19 Q829.826 1547.19 827.517 1543.75 Q825.226 1540.3 825.226 1533.75 Q825.226 1527.19 827.517 1523.75 Q829.826 1520.3 834.184 1520.3 Z" fill="#000000" fill-rule="nonzero" fill-opacity="1" /><path clip-path="url(#clip210)" d="M849.305 1542.28 L852.968 1542.28 L852.968 1546.69 L849.305 1546.69 L849.305 1542.28 Z" fill="#000000" fill-rule="nonzero" fill-opacity="1" /><path clip-path="url(#clip210)" d="M861.215 1543.74 L866.944 1543.74 L866.944 1523.96 L860.711 1525.21 L860.711 1522.02 L866.909 1520.77 L870.416 1520.77 L870.416 1543.74 L876.145 1543.74 L876.145 1546.69 L861.215 1546.69 L861.215 1543.74 Z" fill="#000000" fill-rule="nonzero" fill-opacity="1" /><path clip-path="url(#clip210)" d="M892.864 1523.82 L884.01 1537.66 L892.864 1537.66 L892.864 1523.82 M891.944 1520.77 L896.354 1520.77 L896.354 1537.66 L900.052 1537.66 L900.052 1540.58 L896.354 1540.58 L896.354 1546.69 L892.864 1546.69 L892.864 1540.58 L881.163 1540.58 L881.163 1537.19 L891.944 1520.77 Z" fill="#000000" fill-rule="nonzero" fill-opacity="1" /><path clip-path="url(#clip210)" d="M906.215 1542.28 L909.878 1542.28 L909.878 1545.26 L907.031 1550.82 L904.791 1550.82 L906.215 1545.26 L906.215 1542.28 Z" fill="#000000" fill-rule="nonzero" fill-opacity="1" /><path clip-path="url(#clip210)" d="M924.652 1523.08 Q921.944 1523.08 920.572 1525.75 Q919.218 1528.41 919.218 1533.75 Q919.218 1539.08 920.572 1541.76 Q921.944 1544.41 924.652 1544.41 Q927.378 1544.41 928.732 1541.76 Q930.103 1539.08 930.103 1533.75 Q930.103 1528.41 928.732 1525.75 Q927.378 1523.08 924.652 1523.08 M924.652 1520.3 Q929.01 1520.3 931.301 1523.75 Q933.61 1527.19 933.61 1533.75 Q933.61 1540.3 931.301 1543.75 Q929.01 1547.19 924.652 1547.19 Q920.294 1547.19 917.985 1543.75 Q915.694 1540.3 915.694 1533.75 Q915.694 1527.19 917.985 1523.75 Q920.294 1520.3 924.652 1520.3 Z" fill="#000000" fill-rule="nonzero" fill-opacity="1" /><path clip-path="url(#clip210)" d="M939.774 1542.28 L943.437 1542.28 L943.437 1546.69 L939.774 1546.69 L939.774 1542.28 Z" fill="#000000" fill-rule="nonzero" fill-opacity="1" /><path clip-path="url(#clip210)" d="M954.096 1543.74 L966.336 1543.74 L966.336 1546.69 L949.878 1546.69 L949.878 1543.74 Q951.874 1541.67 955.312 1538.2 Q958.766 1534.71 959.652 1533.7 Q961.336 1531.81 961.996 1530.51 Q962.673 1529.19 962.673 1527.92 Q962.673 1525.85 961.214 1524.55 Q959.773 1523.25 957.447 1523.25 Q955.798 1523.25 953.957 1523.82 Q952.135 1524.4 950.051 1525.56 L950.051 1522.02 Q952.169 1521.17 954.01 1520.73 Q955.85 1520.3 957.378 1520.3 Q961.405 1520.3 963.801 1522.31 Q966.197 1524.33 966.197 1527.69 Q966.197 1529.29 965.589 1530.73 Q964.999 1532.16 963.419 1534.1 Q962.985 1534.6 960.659 1537.02 Q958.332 1539.41 954.096 1543.74 Z" fill="#000000" fill-rule="nonzero" fill-opacity="1" /><path clip-path="url(#clip210)" d="M981.197 1534.38 Q978.697 1534.38 977.256 1535.72 Q975.832 1537.05 975.832 1539.4 Q975.832 1541.74 977.256 1543.08 Q978.697 1544.41 981.197 1544.41 Q983.697 1544.41 985.138 1543.08 Q986.579 1541.72 986.579 1539.4 Q986.579 1537.05 985.138 1535.72 Q983.714 1534.38 981.197 1534.38 M977.69 1532.89 Q975.433 1532.33 974.166 1530.79 Q972.916 1529.24 972.916 1527.02 Q972.916 1523.91 975.121 1522.1 Q977.343 1520.3 981.197 1520.3 Q985.068 1520.3 987.273 1522.1 Q989.478 1523.91 989.478 1527.02 Q989.478 1529.24 988.211 1530.79 Q986.961 1532.33 984.721 1532.89 Q987.256 1533.48 988.662 1535.19 Q990.086 1536.91 990.086 1539.4 Q990.086 1543.16 987.777 1545.18 Q985.485 1547.19 981.197 1547.19 Q976.909 1547.19 974.6 1545.18 Q972.308 1543.16 972.308 1539.4 Q972.308 1536.91 973.732 1535.19 Q975.155 1533.48 977.69 1532.89 M976.405 1527.35 Q976.405 1529.36 977.655 1530.49 Q978.923 1531.62 981.197 1531.62 Q983.454 1531.62 984.721 1530.49 Q986.006 1529.36 986.006 1527.35 Q986.006 1525.33 984.721 1524.21 Q983.454 1523.08 981.197 1523.08 Q978.923 1523.08 977.655 1524.21 Q976.405 1525.33 976.405 1527.35 Z" fill="#000000" fill-rule="nonzero" fill-opacity="1" /><path clip-path="url(#clip210)" d="M1003.33 1519.67 L1003.33 1551.38 L995.971 1551.38 L995.971 1548.89 L1000.12 1548.89 L1000.12 1522.16 L995.971 1522.16 L995.971 1519.67 L1003.33 1519.67 Z" fill="#000000" fill-rule="nonzero" fill-opacity="1" /><path clip-path="url(#clip210)" d="M1118.67 1519.52 L1118.67 1555.07 L1115.72 1555.07 L1115.72 1519.52 L1118.67 1519.52 Z" fill="#000000" fill-rule="nonzero" fill-opacity="1" /><path clip-path="url(#clip210)" d="M1146.09 1522.76 L1146.09 1526.46 Q1144.32 1524.81 1142.3 1524 Q1140.31 1523.18 1138.05 1523.18 Q1133.6 1523.18 1131.24 1525.91 Q1128.88 1528.62 1128.88 1533.75 Q1128.88 1538.88 1131.24 1541.6 Q1133.6 1544.31 1138.05 1544.31 Q1140.31 1544.31 1142.3 1543.49 Q1144.32 1542.68 1146.09 1541.03 L1146.09 1544.69 Q1144.25 1545.94 1142.18 1546.57 Q1140.13 1547.19 1137.84 1547.19 Q1131.95 1547.19 1128.57 1543.6 Q1125.18 1539.99 1125.18 1533.75 Q1125.18 1527.5 1128.57 1523.91 Q1131.95 1520.3 1137.84 1520.3 Q1140.17 1520.3 1142.22 1520.92 Q1144.28 1521.53 1146.09 1522.76 Z" fill="#000000" fill-rule="nonzero" fill-opacity="1" /><path clip-path="url(#clip210)" d="M1155.48 1519.52 L1155.48 1555.07 L1152.53 1555.07 L1152.53 1519.52 L1155.48 1519.52 Z" fill="#000000" fill-rule="nonzero" fill-opacity="1" /><path clip-path="url(#clip210)" d="M1177.25 1535.8 Q1177.37 1537.09 1178.47 1539.17 Q1179.75 1541.58 1182.18 1542.94 Q1184.56 1544.26 1187.13 1544.27 L1199.23 1544.27 L1199.23 1547.04 L1187.13 1547.04 Q1183.79 1547.04 1180.7 1545.32 Q1177.63 1543.6 1175.98 1540.54 Q1174.33 1537.49 1174.33 1534.24 Q1174.33 1531.03 1175.98 1527.97 Q1177.63 1524.92 1180.7 1523.18 Q1183.79 1521.44 1187.13 1521.44 L1199.23 1521.44 L1199.23 1524.21 L1187.13 1524.21 Q1184.56 1524.22 1182.18 1525.56 Q1179.77 1526.93 1178.47 1529.33 Q1177.35 1531.41 1177.2 1533.02 L1199.23 1533.02 L1199.23 1535.8 L1177.25 1535.8 Z" fill="#000000" fill-rule="nonzero" fill-opacity="1" /><path clip-path="url(#clip210)" d="M1224.59 1519.71 Q1222.27 1523.7 1221.14 1527.61 Q1220.01 1531.51 1220.01 1535.52 Q1220.01 1539.54 1221.14 1543.48 Q1222.28 1547.4 1224.59 1551.38 L1221.82 1551.38 Q1219.21 1547.3 1217.91 1543.35 Q1216.62 1539.41 1216.62 1535.52 Q1216.62 1531.65 1217.91 1527.73 Q1219.19 1523.81 1221.82 1519.71 L1224.59 1519.71 Z" fill="#000000" fill-rule="nonzero" fill-opacity="1" /><path clip-path="url(#clip210)" d="M1238.74 1523.08 Q1236.03 1523.08 1234.66 1525.75 Q1233.31 1528.41 1233.31 1533.75 Q1233.31 1539.08 1234.66 1541.76 Q1236.03 1544.41 1238.74 1544.41 Q1241.47 1544.41 1242.82 1541.76 Q1244.19 1539.08 1244.19 1533.75 Q1244.19 1528.41 1242.82 1525.75 Q1241.47 1523.08 1238.74 1523.08 M1238.74 1520.3 Q1243.1 1520.3 1245.39 1523.75 Q1247.7 1527.19 1247.7 1533.75 Q1247.7 1540.3 1245.39 1543.75 Q1243.1 1547.19 1238.74 1547.19 Q1234.38 1547.19 1232.08 1543.75 Q1229.78 1540.3 1229.78 1533.75 Q1229.78 1527.19 1232.08 1523.75 Q1234.38 1520.3 1238.74 1520.3 Z" fill="#000000" fill-rule="nonzero" fill-opacity="1" /><path clip-path="url(#clip210)" d="M1253.86 1542.28 L1257.53 1542.28 L1257.53 1546.69 L1253.86 1546.69 L1253.86 1542.28 Z" fill="#000000" fill-rule="nonzero" fill-opacity="1" /><path clip-path="url(#clip210)" d="M1268.19 1543.74 L1280.43 1543.74 L1280.43 1546.69 L1263.97 1546.69 L1263.97 1543.74 Q1265.96 1541.67 1269.4 1538.2 Q1272.86 1534.71 1273.74 1533.7 Q1275.43 1531.81 1276.09 1530.51 Q1276.76 1529.19 1276.76 1527.92 Q1276.76 1525.85 1275.3 1524.55 Q1273.86 1523.25 1271.54 1523.25 Q1269.89 1523.25 1268.05 1523.82 Q1266.23 1524.4 1264.14 1525.56 L1264.14 1522.02 Q1266.26 1521.17 1268.1 1520.73 Q1269.94 1520.3 1271.47 1520.3 Q1275.5 1520.3 1277.89 1522.31 Q1280.29 1524.33 1280.29 1527.69 Q1280.29 1529.29 1279.68 1530.73 Q1279.09 1532.16 1277.51 1534.1 Q1277.08 1534.6 1274.75 1537.02 Q1272.42 1539.41 1268.19 1543.74 Z" fill="#000000" fill-rule="nonzero" fill-opacity="1" /><path clip-path="url(#clip210)" d="M1295.29 1534.38 Q1292.79 1534.38 1291.35 1535.72 Q1289.92 1537.05 1289.92 1539.4 Q1289.92 1541.74 1291.35 1543.08 Q1292.79 1544.41 1295.29 1544.41 Q1297.79 1544.41 1299.23 1543.08 Q1300.67 1541.72 1300.67 1539.4 Q1300.67 1537.05 1299.23 1535.72 Q1297.8 1534.38 1295.29 1534.38 M1291.78 1532.89 Q1289.52 1532.33 1288.26 1530.79 Q1287.01 1529.24 1287.01 1527.02 Q1287.01 1523.91 1289.21 1522.1 Q1291.43 1520.3 1295.29 1520.3 Q1299.16 1520.3 1301.36 1522.1 Q1303.57 1523.91 1303.57 1527.02 Q1303.57 1529.24 1302.3 1530.79 Q1301.05 1532.33 1298.81 1532.89 Q1301.35 1533.48 1302.75 1535.19 Q1304.18 1536.91 1304.18 1539.4 Q1304.18 1543.16 1301.87 1545.18 Q1299.58 1547.19 1295.29 1547.19 Q1291 1547.19 1288.69 1545.18 Q1286.4 1543.16 1286.4 1539.4 Q1286.4 1536.91 1287.82 1535.19 Q1289.25 1533.48 1291.78 1532.89 M1290.5 1527.35 Q1290.5 1529.36 1291.75 1530.49 Q1293.01 1531.62 1295.29 1531.62 Q1297.54 1531.62 1298.81 1530.49 Q1300.1 1529.36 1300.1 1527.35 Q1300.1 1525.33 1298.81 1524.21 Q1297.54 1523.08 1295.29 1523.08 Q1293.01 1523.08 1291.75 1524.21 Q1290.5 1525.33 1290.5 1527.35 Z" fill="#000000" fill-rule="nonzero" fill-opacity="1" /><path clip-path="url(#clip210)" d="M1310.77 1542.28 L1314.44 1542.28 L1314.44 1545.26 L1311.59 1550.82 L1309.35 1550.82 L1310.77 1545.26 L1310.77 1542.28 Z" fill="#000000" fill-rule="nonzero" fill-opacity="1" /><path clip-path="url(#clip210)" d="M1329.21 1523.08 Q1326.5 1523.08 1325.13 1525.75 Q1323.78 1528.41 1323.78 1533.75 Q1323.78 1539.08 1325.13 1541.76 Q1326.5 1544.41 1329.21 1544.41 Q1331.94 1544.41 1333.29 1541.76 Q1334.66 1539.08 1334.66 1533.75 Q1334.66 1528.41 1333.29 1525.75 Q1331.94 1523.08 1329.21 1523.08 M1329.21 1520.3 Q1333.57 1520.3 1335.86 1523.75 Q1338.17 1527.19 1338.17 1533.75 Q1338.17 1540.3 1335.86 1543.75 Q1333.57 1547.19 1329.21 1547.19 Q1324.85 1547.19 1322.54 1543.75 Q1320.25 1540.3 1320.25 1533.75 Q1320.25 1527.19 1322.54 1523.75 Q1324.85 1520.3 1329.21 1520.3 Z" fill="#000000" fill-rule="nonzero" fill-opacity="1" /><path clip-path="url(#clip210)" d="M1344.33 1542.28 L1348 1542.28 L1348 1546.69 L1344.33 1546.69 L1344.33 1542.28 Z" fill="#000000" fill-rule="nonzero" fill-opacity="1" /><path clip-path="url(#clip210)" d="M1365.27 1523.82 L1356.42 1537.66 L1365.27 1537.66 L1365.27 1523.82 M1364.35 1520.77 L1368.76 1520.77 L1368.76 1537.66 L1372.46 1537.66 L1372.46 1540.58 L1368.76 1540.58 L1368.76 1546.69 L1365.27 1546.69 L1365.27 1540.58 L1353.57 1540.58 L1353.57 1537.19 L1364.35 1520.77 Z" fill="#000000" fill-rule="nonzero" fill-opacity="1" /><path clip-path="url(#clip210)" d="M1378.86 1543.74 L1384.59 1543.74 L1384.59 1523.96 L1378.36 1525.21 L1378.36 1522.02 L1384.56 1520.77 L1388.06 1520.77 L1388.06 1543.74 L1393.79 1543.74 L1393.79 1546.69 L1378.86 1546.69 L1378.86 1543.74 Z" fill="#000000" fill-rule="nonzero" fill-opacity="1" /><path clip-path="url(#clip210)" d="M1407.89 1519.67 L1407.89 1551.38 L1400.53 1551.38 L1400.53 1548.89 L1404.68 1548.89 L1404.68 1522.16 L1400.53 1522.16 L1400.53 1519.67 L1407.89 1519.67 Z" fill="#000000" fill-rule="nonzero" fill-opacity="1" /><path clip-path="url(#clip210)" d="M1523.23 1519.52 L1523.23 1555.07 L1520.28 1555.07 L1520.28 1519.52 L1523.23 1519.52 Z" fill="#000000" fill-rule="nonzero" fill-opacity="1" /><path clip-path="url(#clip210)" d="M1550.65 1522.76 L1550.65 1526.46 Q1548.87 1524.81 1546.86 1524 Q1544.86 1523.18 1542.61 1523.18 Q1538.16 1523.18 1535.8 1525.91 Q1533.44 1528.62 1533.44 1533.75 Q1533.44 1538.88 1535.8 1541.6 Q1538.16 1544.31 1542.61 1544.31 Q1544.86 1544.31 1546.86 1543.49 Q1548.87 1542.68 1550.65 1541.03 L1550.65 1544.69 Q1548.81 1545.94 1546.74 1546.57 Q1544.69 1547.19 1542.4 1547.19 Q1536.51 1547.19 1533.13 1543.6 Q1529.74 1539.99 1529.74 1533.75 Q1529.74 1527.5 1533.13 1523.91 Q1536.51 1520.3 1542.4 1520.3 Q1544.73 1520.3 1546.77 1520.92 Q1548.84 1521.53 1550.65 1522.76 Z" fill="#000000" fill-rule="nonzero" fill-opacity="1" /><path clip-path="url(#clip210)" d="M1560.04 1519.52 L1560.04 1555.07 L1557.09 1555.07 L1557.09 1519.52 L1560.04 1519.52 Z" fill="#000000" fill-rule="nonzero" fill-opacity="1" /><path clip-path="url(#clip210)" d="M1581.81 1535.8 Q1581.93 1537.09 1583.02 1539.17 Q1584.31 1541.58 1586.74 1542.94 Q1589.12 1544.26 1591.69 1544.27 L1603.79 1544.27 L1603.79 1547.04 L1591.69 1547.04 Q1588.35 1547.04 1585.26 1545.32 Q1582.19 1543.6 1580.54 1540.54 Q1578.89 1537.49 1578.89 1534.24 Q1578.89 1531.03 1580.54 1527.97 Q1582.19 1524.92 1585.26 1523.18 Q1588.35 1521.44 1591.69 1521.44 L1603.79 1521.44 L1603.79 1524.21 L1591.69 1524.21 Q1589.12 1524.22 1586.74 1525.56 Q1584.33 1526.93 1583.02 1529.33 Q1581.91 1531.41 1581.76 1533.02 L1603.79 1533.02 L1603.79 1535.8 L1581.81 1535.8 Z" fill="#000000" fill-rule="nonzero" fill-opacity="1" /><path clip-path="url(#clip210)" d="M1629.15 1519.71 Q1626.83 1523.7 1625.7 1527.61 Q1624.57 1531.51 1624.57 1535.52 Q1624.57 1539.54 1625.7 1543.48 Q1626.84 1547.4 1629.15 1551.38 L1626.37 1551.38 Q1623.77 1547.3 1622.47 1543.35 Q1621.18 1539.41 1621.18 1535.52 Q1621.18 1531.65 1622.47 1527.73 Q1623.75 1523.81 1626.37 1519.71 L1629.15 1519.71 Z" fill="#000000" fill-rule="nonzero" fill-opacity="1" /><path clip-path="url(#clip210)" d="M1643.3 1523.08 Q1640.59 1523.08 1639.22 1525.75 Q1637.87 1528.41 1637.87 1533.75 Q1637.87 1539.08 1639.22 1541.76 Q1640.59 1544.41 1643.3 1544.41 Q1646.03 1544.41 1647.38 1541.76 Q1648.75 1539.08 1648.75 1533.75 Q1648.75 1528.41 1647.38 1525.75 Q1646.03 1523.08 1643.3 1523.08 M1643.3 1520.3 Q1647.66 1520.3 1649.95 1523.75 Q1652.26 1527.19 1652.26 1533.75 Q1652.26 1540.3 1649.95 1543.75 Q1647.66 1547.19 1643.3 1547.19 Q1638.94 1547.19 1636.63 1543.75 Q1634.34 1540.3 1634.34 1533.75 Q1634.34 1527.19 1636.63 1523.75 Q1638.94 1520.3 1643.3 1520.3 Z" fill="#000000" fill-rule="nonzero" fill-opacity="1" /><path clip-path="url(#clip210)" d="M1658.42 1542.28 L1662.09 1542.28 L1662.09 1546.69 L1658.42 1546.69 L1658.42 1542.28 Z" fill="#000000" fill-rule="nonzero" fill-opacity="1" /><path clip-path="url(#clip210)" d="M1679.36 1523.82 L1670.51 1537.66 L1679.36 1537.66 L1679.36 1523.82 M1678.44 1520.77 L1682.85 1520.77 L1682.85 1537.66 L1686.55 1537.66 L1686.55 1540.58 L1682.85 1540.58 L1682.85 1546.69 L1679.36 1546.69 L1679.36 1540.58 L1667.66 1540.58 L1667.66 1537.19 L1678.44 1520.77 Z" fill="#000000" fill-rule="nonzero" fill-opacity="1" /><path clip-path="url(#clip210)" d="M1692.95 1543.74 L1698.68 1543.74 L1698.68 1523.96 L1692.45 1525.21 L1692.45 1522.02 L1698.65 1520.77 L1702.16 1520.77 L1702.16 1543.74 L1707.88 1543.74 L1707.88 1546.69 L1692.95 1546.69 L1692.95 1543.74 Z" fill="#000000" fill-rule="nonzero" fill-opacity="1" /><path clip-path="url(#clip210)" d="M1715.33 1542.28 L1719 1542.28 L1719 1545.26 L1716.15 1550.82 L1713.91 1550.82 L1715.33 1545.26 L1715.33 1542.28 Z" fill="#000000" fill-rule="nonzero" fill-opacity="1" /><path clip-path="url(#clip210)" d="M1733.77 1523.08 Q1731.06 1523.08 1729.69 1525.75 Q1728.34 1528.41 1728.34 1533.75 Q1728.34 1539.08 1729.69 1541.76 Q1731.06 1544.41 1733.77 1544.41 Q1736.5 1544.41 1737.85 1541.76 Q1739.22 1539.08 1739.22 1533.75 Q1739.22 1528.41 1737.85 1525.75 Q1736.5 1523.08 1733.77 1523.08 M1733.77 1520.3 Q1738.13 1520.3 1740.42 1523.75 Q1742.73 1527.19 1742.73 1533.75 Q1742.73 1540.3 1740.42 1543.75 Q1738.13 1547.19 1733.77 1547.19 Q1729.41 1547.19 1727.1 1543.75 Q1724.81 1540.3 1724.81 1533.75 Q1724.81 1527.19 1727.1 1523.75 Q1729.41 1520.3 1733.77 1520.3 Z" fill="#000000" fill-rule="nonzero" fill-opacity="1" /><path clip-path="url(#clip210)" d="M1748.89 1542.28 L1752.55 1542.28 L1752.55 1546.69 L1748.89 1546.69 L1748.89 1542.28 Z" fill="#000000" fill-rule="nonzero" fill-opacity="1" /><path clip-path="url(#clip210)" d="M1760.23 1520.77 L1774 1520.77 L1774 1523.72 L1763.44 1523.72 L1763.44 1530.07 Q1764.2 1529.81 1764.97 1529.69 Q1765.73 1529.55 1766.5 1529.55 Q1770.84 1529.55 1773.37 1531.93 Q1775.9 1534.31 1775.9 1538.37 Q1775.9 1542.56 1773.3 1544.88 Q1770.7 1547.19 1765.96 1547.19 Q1764.32 1547.19 1762.62 1546.91 Q1760.94 1546.64 1759.13 1546.08 L1759.13 1542.56 Q1760.7 1543.41 1762.36 1543.82 Q1764.03 1544.24 1765.89 1544.24 Q1768.89 1544.24 1770.64 1542.66 Q1772.4 1541.08 1772.4 1538.37 Q1772.4 1535.66 1770.64 1534.08 Q1768.89 1532.5 1765.89 1532.5 Q1764.48 1532.5 1763.07 1532.82 Q1761.69 1533.13 1760.23 1533.79 L1760.23 1520.77 Z" fill="#000000" fill-rule="nonzero" fill-opacity="1" /><path clip-path="url(#clip210)" d="M1782.85 1520.77 L1796.62 1520.77 L1796.62 1523.72 L1786.06 1523.72 L1786.06 1530.07 Q1786.82 1529.81 1787.59 1529.69 Q1788.35 1529.55 1789.12 1529.55 Q1793.46 1529.55 1795.99 1531.93 Q1798.53 1534.31 1798.53 1538.37 Q1798.53 1542.56 1795.92 1544.88 Q1793.32 1547.19 1788.58 1547.19 Q1786.95 1547.19 1785.24 1546.91 Q1783.56 1546.64 1781.76 1546.08 L1781.76 1542.56 Q1783.32 1543.41 1784.98 1543.82 Q1786.65 1544.24 1788.51 1544.24 Q1791.51 1544.24 1793.27 1542.66 Q1795.02 1541.08 1795.02 1538.37 Q1795.02 1535.66 1793.27 1534.08 Q1791.51 1532.5 1788.51 1532.5 Q1787.1 1532.5 1785.7 1532.82 Q1784.31 1533.13 1782.85 1533.79 L1782.85 1520.77 Z" fill="#000000" fill-rule="nonzero" fill-opacity="1" /><path clip-path="url(#clip210)" d="M1812.45 1519.67 L1812.45 1551.38 L1805.09 1551.38 L1805.09 1548.89 L1809.24 1548.89 L1809.24 1522.16 L1805.09 1522.16 L1805.09 1519.67 L1812.45 1519.67 Z" fill="#000000" fill-rule="nonzero" fill-opacity="1" /><path clip-path="url(#clip210)" d="M1927.79 1519.52 L1927.79 1555.07 L1924.84 1555.07 L1924.84 1519.52 L1927.79 1519.52 Z" fill="#000000" fill-rule="nonzero" fill-opacity="1" /><path clip-path="url(#clip210)" d="M1955.2 1522.76 L1955.2 1526.46 Q1953.43 1524.81 1951.42 1524 Q1949.42 1523.18 1947.17 1523.18 Q1942.72 1523.18 1940.36 1525.91 Q1938 1528.62 1938 1533.75 Q1938 1538.88 1940.36 1541.6 Q1942.72 1544.31 1947.17 1544.31 Q1949.42 1544.31 1951.42 1543.49 Q1953.43 1542.68 1955.2 1541.03 L1955.2 1544.69 Q1953.36 1545.94 1951.3 1546.57 Q1949.25 1547.19 1946.96 1547.19 Q1941.07 1547.19 1937.69 1543.6 Q1934.3 1539.99 1934.3 1533.75 Q1934.3 1527.5 1937.69 1523.91 Q1941.07 1520.3 1946.96 1520.3 Q1949.28 1520.3 1951.33 1520.92 Q1953.4 1521.53 1955.2 1522.76 Z" fill="#000000" fill-rule="nonzero" fill-opacity="1" /><path clip-path="url(#clip210)" d="M1964.6 1519.52 L1964.6 1555.07 L1961.65 1555.07 L1961.65 1519.52 L1964.6 1519.52 Z" fill="#000000" fill-rule="nonzero" fill-opacity="1" /><path clip-path="url(#clip210)" d="M1986.37 1535.8 Q1986.49 1537.09 1987.58 1539.17 Q1988.87 1541.58 1991.3 1542.94 Q1993.68 1544.26 1996.25 1544.27 L2008.35 1544.27 L2008.35 1547.04 L1996.25 1547.04 Q1992.91 1547.04 1989.82 1545.32 Q1986.75 1543.6 1985.1 1540.54 Q1983.45 1537.49 1983.45 1534.24 Q1983.45 1531.03 1985.1 1527.97 Q1986.75 1524.92 1989.82 1523.18 Q1992.91 1521.44 1996.25 1521.44 L2008.35 1521.44 L2008.35 1524.21 L1996.25 1524.21 Q1993.68 1524.22 1991.3 1525.56 Q1988.88 1526.93 1987.58 1529.33 Q1986.47 1531.41 1986.32 1533.02 L2008.35 1533.02 L2008.35 1535.8 L1986.37 1535.8 Z" fill="#000000" fill-rule="nonzero" fill-opacity="1" /><path clip-path="url(#clip210)" d="M2033.71 1519.71 Q2031.38 1523.7 2030.26 1527.61 Q2029.13 1531.51 2029.13 1535.52 Q2029.13 1539.54 2030.26 1543.48 Q2031.4 1547.4 2033.71 1551.38 L2030.93 1551.38 Q2028.33 1547.3 2027.03 1543.35 Q2025.74 1539.41 2025.74 1535.52 Q2025.74 1531.65 2027.03 1527.73 Q2028.31 1523.81 2030.93 1519.71 L2033.71 1519.71 Z" fill="#000000" fill-rule="nonzero" fill-opacity="1" /><path clip-path="url(#clip210)" d="M2047.86 1523.08 Q2045.15 1523.08 2043.78 1525.75 Q2042.43 1528.41 2042.43 1533.75 Q2042.43 1539.08 2043.78 1541.76 Q2045.15 1544.41 2047.86 1544.41 Q2050.59 1544.41 2051.94 1541.76 Q2053.31 1539.08 2053.31 1533.75 Q2053.31 1528.41 2051.94 1525.75 Q2050.59 1523.08 2047.86 1523.08 M2047.86 1520.3 Q2052.22 1520.3 2054.51 1523.75 Q2056.82 1527.19 2056.82 1533.75 Q2056.82 1540.3 2054.51 1543.75 Q2052.22 1547.19 2047.86 1547.19 Q2043.5 1547.19 2041.19 1543.75 Q2038.9 1540.3 2038.9 1533.75 Q2038.9 1527.19 2041.19 1523.75 Q2043.5 1520.3 2047.86 1520.3 Z" fill="#000000" fill-rule="nonzero" fill-opacity="1" /><path clip-path="url(#clip210)" d="M2062.98 1542.28 L2066.64 1542.28 L2066.64 1546.69 L2062.98 1546.69 L2062.98 1542.28 Z" fill="#000000" fill-rule="nonzero" fill-opacity="1" /><path clip-path="url(#clip210)" d="M2074.32 1520.77 L2088.09 1520.77 L2088.09 1523.72 L2077.53 1523.72 L2077.53 1530.07 Q2078.29 1529.81 2079.06 1529.69 Q2079.82 1529.55 2080.59 1529.55 Q2084.93 1529.55 2087.46 1531.93 Q2090 1534.31 2090 1538.37 Q2090 1542.56 2087.39 1544.88 Q2084.79 1547.19 2080.05 1547.19 Q2078.42 1547.19 2076.71 1546.91 Q2075.03 1546.64 2073.22 1546.08 L2073.22 1542.56 Q2074.79 1543.41 2076.45 1543.82 Q2078.12 1544.24 2079.98 1544.24 Q2082.98 1544.24 2084.73 1542.66 Q2086.49 1541.08 2086.49 1538.37 Q2086.49 1535.66 2084.73 1534.08 Q2082.98 1532.5 2079.98 1532.5 Q2078.57 1532.5 2077.17 1532.82 Q2075.78 1533.13 2074.32 1533.79 L2074.32 1520.77 Z" fill="#000000" fill-rule="nonzero" fill-opacity="1" /><path clip-path="url(#clip210)" d="M2096.94 1520.77 L2110.71 1520.77 L2110.71 1523.72 L2100.15 1523.72 L2100.15 1530.07 Q2100.92 1529.81 2101.68 1529.69 Q2102.44 1529.55 2103.21 1529.55 Q2107.55 1529.55 2110.08 1531.93 Q2112.62 1534.31 2112.62 1538.37 Q2112.62 1542.56 2110.01 1544.88 Q2107.41 1547.19 2102.67 1547.19 Q2101.04 1547.19 2099.34 1546.91 Q2097.65 1546.64 2095.85 1546.08 L2095.85 1542.56 Q2097.41 1543.41 2099.08 1543.82 Q2100.74 1544.24 2102.6 1544.24 Q2105.6 1544.24 2107.36 1542.66 Q2109.11 1541.08 2109.11 1538.37 Q2109.11 1535.66 2107.36 1534.08 Q2105.6 1532.5 2102.6 1532.5 Q2101.19 1532.5 2099.79 1532.82 Q2098.4 1533.13 2096.94 1533.79 L2096.94 1520.77 Z" fill="#000000" fill-rule="nonzero" fill-opacity="1" /><path clip-path="url(#clip210)" d="M2119.89 1542.28 L2123.55 1542.28 L2123.55 1545.26 L2120.71 1550.82 L2118.47 1550.82 L2119.89 1545.26 L2119.89 1542.28 Z" fill="#000000" fill-rule="nonzero" fill-opacity="1" /><path clip-path="url(#clip210)" d="M2138.33 1523.08 Q2135.62 1523.08 2134.25 1525.75 Q2132.89 1528.41 2132.89 1533.75 Q2132.89 1539.08 2134.25 1541.76 Q2135.62 1544.41 2138.33 1544.41 Q2141.05 1544.41 2142.41 1541.76 Q2143.78 1539.08 2143.78 1533.75 Q2143.78 1528.41 2142.41 1525.75 Q2141.05 1523.08 2138.33 1523.08 M2138.33 1520.3 Q2142.69 1520.3 2144.98 1523.75 Q2147.29 1527.19 2147.29 1533.75 Q2147.29 1540.3 2144.98 1543.75 Q2142.69 1547.19 2138.33 1547.19 Q2133.97 1547.19 2131.66 1543.75 Q2129.37 1540.3 2129.37 1533.75 Q2129.37 1527.19 2131.66 1523.75 Q2133.97 1520.3 2138.33 1520.3 Z" fill="#000000" fill-rule="nonzero" fill-opacity="1" /><path clip-path="url(#clip210)" d="M2153.45 1542.28 L2157.11 1542.28 L2157.11 1546.69 L2153.45 1546.69 L2153.45 1542.28 Z" fill="#000000" fill-rule="nonzero" fill-opacity="1" /><path clip-path="url(#clip210)" d="M2172.69 1532.33 Q2170.32 1532.33 2168.94 1533.94 Q2167.56 1535.56 2167.56 1538.37 Q2167.56 1541.17 2168.94 1542.8 Q2170.32 1544.41 2172.69 1544.41 Q2175.05 1544.41 2176.42 1542.8 Q2177.81 1541.17 2177.81 1538.37 Q2177.81 1535.56 2176.42 1533.94 Q2175.05 1532.33 2172.69 1532.33 M2179.65 1521.34 L2179.65 1524.54 Q2178.33 1523.91 2176.97 1523.58 Q2175.64 1523.25 2174.32 1523.25 Q2170.85 1523.25 2169.01 1525.59 Q2167.18 1527.94 2166.92 1532.68 Q2167.95 1531.17 2169.49 1530.37 Q2171.04 1529.55 2172.89 1529.55 Q2176.8 1529.55 2179.06 1531.93 Q2181.33 1534.29 2181.33 1538.37 Q2181.33 1542.36 2178.97 1544.78 Q2176.61 1547.19 2172.69 1547.19 Q2168.19 1547.19 2165.81 1543.75 Q2163.43 1540.3 2163.43 1533.75 Q2163.43 1527.61 2166.35 1523.96 Q2169.27 1520.3 2174.18 1520.3 Q2175.5 1520.3 2176.84 1520.56 Q2178.19 1520.82 2179.65 1521.34 Z" fill="#000000" fill-rule="nonzero" fill-opacity="1" /><path clip-path="url(#clip210)" d="M2194.87 1534.38 Q2192.37 1534.38 2190.93 1535.72 Q2189.51 1537.05 2189.51 1539.4 Q2189.51 1541.74 2190.93 1543.08 Q2192.37 1544.41 2194.87 1544.41 Q2197.37 1544.41 2198.81 1543.08 Q2200.26 1541.72 2200.26 1539.4 Q2200.26 1537.05 2198.81 1535.72 Q2197.39 1534.38 2194.87 1534.38 M2191.37 1532.89 Q2189.11 1532.33 2187.84 1530.79 Q2186.59 1529.24 2186.59 1527.02 Q2186.59 1523.91 2188.8 1522.1 Q2191.02 1520.3 2194.87 1520.3 Q2198.74 1520.3 2200.95 1522.1 Q2203.15 1523.91 2203.15 1527.02 Q2203.15 1529.24 2201.89 1530.79 Q2200.64 1532.33 2198.4 1532.89 Q2200.93 1533.48 2202.34 1535.19 Q2203.76 1536.91 2203.76 1539.4 Q2203.76 1543.16 2201.45 1545.18 Q2199.16 1547.19 2194.87 1547.19 Q2190.58 1547.19 2188.28 1545.18 Q2185.98 1543.16 2185.98 1539.4 Q2185.98 1536.91 2187.41 1535.19 Q2188.83 1533.48 2191.37 1532.89 M2190.08 1527.35 Q2190.08 1529.36 2191.33 1530.49 Q2192.6 1531.62 2194.87 1531.62 Q2197.13 1531.62 2198.4 1530.49 Q2199.68 1529.36 2199.68 1527.35 Q2199.68 1525.33 2198.4 1524.21 Q2197.13 1523.08 2194.87 1523.08 Q2192.6 1523.08 2191.33 1524.21 Q2190.08 1525.33 2190.08 1527.35 Z" fill="#000000" fill-rule="nonzero" fill-opacity="1" /><path clip-path="url(#clip210)" d="M2217.01 1519.67 L2217.01 1551.38 L2209.65 1551.38 L2209.65 1548.89 L2213.8 1548.89 L2213.8 1522.16 L2209.65 1522.16 L2209.65 1519.67 L2217.01 1519.67 Z" fill="#000000" fill-rule="nonzero" fill-opacity="1" /><polyline clip-path="url(#clip212)" style="stroke:#000000; stroke-linecap:round; stroke-linejoin:round; stroke-width:2; stroke-opacity:0.1; fill:none" points="170.857,1495.09 2352.76,1495.09 "/>
<polyline clip-path="url(#clip212)" style="stroke:#000000; stroke-linecap:round; stroke-linejoin:round; stroke-width:2; stroke-opacity:0.1; fill:none" points="170.857,1136.71 2352.76,1136.71 "/>
<polyline clip-path="url(#clip212)" style="stroke:#000000; stroke-linecap:round; stroke-linejoin:round; stroke-width:2; stroke-opacity:0.1; fill:none" points="170.857,778.334 2352.76,778.334 "/>
<polyline clip-path="url(#clip212)" style="stroke:#000000; stroke-linecap:round; stroke-linejoin:round; stroke-width:2; stroke-opacity:0.1; fill:none" points="170.857,419.956 2352.76,419.956 "/>
<polyline clip-path="url(#clip212)" style="stroke:#000000; stroke-linecap:round; stroke-linejoin:round; stroke-width:2; stroke-opacity:0.1; fill:none" points="170.857,61.5792 2352.76,61.5792 "/>
<polyline clip-path="url(#clip210)" style="stroke:#000000; stroke-linecap:round; stroke-linejoin:round; stroke-width:4; stroke-opacity:1; fill:none" points="170.857,1495.09 170.857,47.2441 "/>
<polyline clip-path="url(#clip210)" style="stroke:#000000; stroke-linecap:round; stroke-linejoin:round; stroke-width:4; stroke-opacity:1; fill:none" points="170.857,1495.09 189.755,1495.09 "/>
<polyline clip-path="url(#clip210)" style="stroke:#000000; stroke-linecap:round; stroke-linejoin:round; stroke-width:4; stroke-opacity:1; fill:none" points="170.857,1136.71 189.755,1136.71 "/>
<polyline clip-path="url(#clip210)" style="stroke:#000000; stroke-linecap:round; stroke-linejoin:round; stroke-width:4; stroke-opacity:1; fill:none" points="170.857,778.334 189.755,778.334 "/>
<polyline clip-path="url(#clip210)" style="stroke:#000000; stroke-linecap:round; stroke-linejoin:round; stroke-width:4; stroke-opacity:1; fill:none" points="170.857,419.956 189.755,419.956 "/>
<polyline clip-path="url(#clip210)" style="stroke:#000000; stroke-linecap:round; stroke-linejoin:round; stroke-width:4; stroke-opacity:1; fill:none" points="170.857,61.5792 189.755,61.5792 "/>
<path clip-path="url(#clip210)" d="M122.913 1480.89 Q119.302 1480.89 117.473 1484.45 Q115.668 1487.99 115.668 1495.12 Q115.668 1502.23 117.473 1505.79 Q119.302 1509.34 122.913 1509.34 Q126.547 1509.34 128.353 1505.79 Q130.182 1502.23 130.182 1495.12 Q130.182 1487.99 128.353 1484.45 Q126.547 1480.89 122.913 1480.89 M122.913 1477.18 Q128.723 1477.18 131.779 1481.79 Q134.857 1486.37 134.857 1495.12 Q134.857 1503.85 131.779 1508.46 Q128.723 1513.04 122.913 1513.04 Q117.103 1513.04 114.024 1508.46 Q110.969 1503.85 110.969 1495.12 Q110.969 1486.37 114.024 1481.79 Q117.103 1477.18 122.913 1477.18 Z" fill="#000000" fill-rule="nonzero" fill-opacity="1" /><path clip-path="url(#clip210)" d="M82.7975 1119.43 L101.154 1119.43 L101.154 1123.37 L87.0799 1123.37 L87.0799 1131.84 Q88.0984 1131.49 89.1169 1131.33 Q90.1354 1131.14 91.1539 1131.14 Q96.941 1131.14 100.321 1134.31 Q103.7 1137.49 103.7 1142.9 Q103.7 1148.48 100.228 1151.58 Q96.7558 1154.66 90.4364 1154.66 Q88.2604 1154.66 85.9919 1154.29 Q83.7466 1153.92 81.3392 1153.18 L81.3392 1148.48 Q83.4225 1149.62 85.6447 1150.17 Q87.8669 1150.73 90.3438 1150.73 Q94.3484 1150.73 96.6863 1148.62 Q99.0243 1146.51 99.0243 1142.9 Q99.0243 1139.29 96.6863 1137.19 Q94.3484 1135.08 90.3438 1135.08 Q88.4688 1135.08 86.5938 1135.5 Q84.7419 1135.91 82.7975 1136.79 L82.7975 1119.43 Z" fill="#000000" fill-rule="nonzero" fill-opacity="1" /><path clip-path="url(#clip210)" d="M122.913 1122.51 Q119.302 1122.51 117.473 1126.07 Q115.668 1129.62 115.668 1136.75 Q115.668 1143.85 117.473 1147.42 Q119.302 1150.96 122.913 1150.96 Q126.547 1150.96 128.353 1147.42 Q130.182 1143.85 130.182 1136.75 Q130.182 1129.62 128.353 1126.07 Q126.547 1122.51 122.913 1122.51 M122.913 1118.81 Q128.723 1118.81 131.779 1123.41 Q134.857 1128 134.857 1136.75 Q134.857 1145.47 131.779 1150.08 Q128.723 1154.66 122.913 1154.66 Q117.103 1154.66 114.024 1150.08 Q110.969 1145.47 110.969 1136.75 Q110.969 1128 114.024 1123.41 Q117.103 1118.81 122.913 1118.81 Z" fill="#000000" fill-rule="nonzero" fill-opacity="1" /><path clip-path="url(#clip210)" d="M53.3995 791.678 L61.0384 791.678 L61.0384 765.313 L52.7282 766.979 L52.7282 762.72 L60.9921 761.054 L65.668 761.054 L65.668 791.678 L73.3068 791.678 L73.3068 795.614 L53.3995 795.614 L53.3995 791.678 Z" fill="#000000" fill-rule="nonzero" fill-opacity="1" /><path clip-path="url(#clip210)" d="M92.7512 764.132 Q89.1401 764.132 87.3114 767.697 Q85.5058 771.239 85.5058 778.368 Q85.5058 785.475 87.3114 789.039 Q89.1401 792.581 92.7512 792.581 Q96.3854 792.581 98.1909 789.039 Q100.02 785.475 100.02 778.368 Q100.02 771.239 98.1909 767.697 Q96.3854 764.132 92.7512 764.132 M92.7512 760.429 Q98.5613 760.429 101.617 765.035 Q104.696 769.618 104.696 778.368 Q104.696 787.095 101.617 791.702 Q98.5613 796.285 92.7512 796.285 Q86.941 796.285 83.8623 791.702 Q80.8068 787.095 80.8068 778.368 Q80.8068 769.618 83.8623 765.035 Q86.941 760.429 92.7512 760.429 Z" fill="#000000" fill-rule="nonzero" fill-opacity="1" /><path clip-path="url(#clip210)" d="M122.913 764.132 Q119.302 764.132 117.473 767.697 Q115.668 771.239 115.668 778.368 Q115.668 785.475 117.473 789.039 Q119.302 792.581 122.913 792.581 Q126.547 792.581 128.353 789.039 Q130.182 785.475 130.182 778.368 Q130.182 771.239 128.353 767.697 Q126.547 764.132 122.913 764.132 M122.913 760.429 Q128.723 760.429 131.779 765.035 Q134.857 769.618 134.857 778.368 Q134.857 787.095 131.779 791.702 Q128.723 796.285 122.913 796.285 Q117.103 796.285 114.024 791.702 Q110.969 787.095 110.969 778.368 Q110.969 769.618 114.024 765.035 Q117.103 760.429 122.913 760.429 Z" fill="#000000" fill-rule="nonzero" fill-opacity="1" /><path clip-path="url(#clip210)" d="M53.3995 433.301 L61.0384 433.301 L61.0384 406.936 L52.7282 408.602 L52.7282 404.343 L60.9921 402.676 L65.668 402.676 L65.668 433.301 L73.3068 433.301 L73.3068 437.236 L53.3995 437.236 L53.3995 433.301 Z" fill="#000000" fill-rule="nonzero" fill-opacity="1" /><path clip-path="url(#clip210)" d="M82.7975 402.676 L101.154 402.676 L101.154 406.612 L87.0799 406.612 L87.0799 415.084 Q88.0984 414.736 89.1169 414.574 Q90.1354 414.389 91.1539 414.389 Q96.941 414.389 100.321 417.561 Q103.7 420.732 103.7 426.148 Q103.7 431.727 100.228 434.829 Q96.7558 437.908 90.4364 437.908 Q88.2604 437.908 85.9919 437.537 Q83.7466 437.167 81.3392 436.426 L81.3392 431.727 Q83.4225 432.861 85.6447 433.417 Q87.8669 433.972 90.3438 433.972 Q94.3484 433.972 96.6863 431.866 Q99.0243 429.76 99.0243 426.148 Q99.0243 422.537 96.6863 420.431 Q94.3484 418.324 90.3438 418.324 Q88.4688 418.324 86.5938 418.741 Q84.7419 419.158 82.7975 420.037 L82.7975 402.676 Z" fill="#000000" fill-rule="nonzero" fill-opacity="1" /><path clip-path="url(#clip210)" d="M122.913 405.755 Q119.302 405.755 117.473 409.32 Q115.668 412.861 115.668 419.991 Q115.668 427.098 117.473 430.662 Q119.302 434.204 122.913 434.204 Q126.547 434.204 128.353 430.662 Q130.182 427.098 130.182 419.991 Q130.182 412.861 128.353 409.32 Q126.547 405.755 122.913 405.755 M122.913 402.051 Q128.723 402.051 131.779 406.658 Q134.857 411.241 134.857 419.991 Q134.857 428.718 131.779 433.324 Q128.723 437.908 122.913 437.908 Q117.103 437.908 114.024 433.324 Q110.969 428.718 110.969 419.991 Q110.969 411.241 114.024 406.658 Q117.103 402.051 122.913 402.051 Z" fill="#000000" fill-rule="nonzero" fill-opacity="1" /><path clip-path="url(#clip210)" d="M56.6171 74.924 L72.9365 74.924 L72.9365 78.8592 L50.9921 78.8592 L50.9921 74.924 Q53.6541 72.1694 58.2375 67.5398 Q62.8439 62.887 64.0245 61.5445 Q66.2698 59.0213 67.1494 57.2852 Q68.0522 55.526 68.0522 53.8362 Q68.0522 51.0816 66.1078 49.3455 Q64.1865 47.6093 61.0847 47.6093 Q58.8856 47.6093 56.4319 48.3732 Q54.0014 49.1371 51.2236 50.688 L51.2236 45.9658 Q54.0477 44.8316 56.5014 44.2529 Q58.955 43.6742 60.9921 43.6742 Q66.3624 43.6742 69.5568 46.3594 Q72.7513 49.0445 72.7513 53.5352 Q72.7513 55.6649 71.9411 57.5861 Q71.1541 59.4843 69.0476 62.0769 Q68.4689 62.7482 65.367 65.9657 Q62.2652 69.1602 56.6171 74.924 Z" fill="#000000" fill-rule="nonzero" fill-opacity="1" /><path clip-path="url(#clip210)" d="M92.7512 47.3779 Q89.1401 47.3779 87.3114 50.9427 Q85.5058 54.4843 85.5058 61.6139 Q85.5058 68.7203 87.3114 72.2851 Q89.1401 75.8268 92.7512 75.8268 Q96.3854 75.8268 98.1909 72.2851 Q100.02 68.7203 100.02 61.6139 Q100.02 54.4843 98.1909 50.9427 Q96.3854 47.3779 92.7512 47.3779 M92.7512 43.6742 Q98.5613 43.6742 101.617 48.2806 Q104.696 52.864 104.696 61.6139 Q104.696 70.3407 101.617 74.9472 Q98.5613 79.5305 92.7512 79.5305 Q86.941 79.5305 83.8623 74.9472 Q80.8068 70.3407 80.8068 61.6139 Q80.8068 52.864 83.8623 48.2806 Q86.941 43.6742 92.7512 43.6742 Z" fill="#000000" fill-rule="nonzero" fill-opacity="1" /><path clip-path="url(#clip210)" d="M122.913 47.3779 Q119.302 47.3779 117.473 50.9427 Q115.668 54.4843 115.668 61.6139 Q115.668 68.7203 117.473 72.2851 Q119.302 75.8268 122.913 75.8268 Q126.547 75.8268 128.353 72.2851 Q130.182 68.7203 130.182 61.6139 Q130.182 54.4843 128.353 50.9427 Q126.547 47.3779 122.913 47.3779 M122.913 43.6742 Q128.723 43.6742 131.779 48.2806 Q134.857 52.864 134.857 61.6139 Q134.857 70.3407 131.779 74.9472 Q128.723 79.5305 122.913 79.5305 Q117.103 79.5305 114.024 74.9472 Q110.969 70.3407 110.969 61.6139 Q110.969 52.864 114.024 48.2806 Q117.103 43.6742 122.913 43.6742 Z" fill="#000000" fill-rule="nonzero" fill-opacity="1" /><path clip-path="url(#clip212)" d="M290.866 47.2441 L290.866 1495.09 L614.513 1495.09 L614.513 47.2441 L290.866 47.2441 L290.866 47.2441  Z" fill="#e69f00" fill-rule="evenodd" fill-opacity="1"/>
<polyline clip-path="url(#clip212)" style="stroke:#000000; stroke-linecap:round; stroke-linejoin:round; stroke-width:4; stroke-opacity:1; fill:none" points="290.866,47.2441 290.866,1495.09 614.513,1495.09 614.513,47.2441 290.866,47.2441 "/>
<path clip-path="url(#clip212)" d="M695.424 169.092 L695.424 1495.09 L1019.07 1495.09 L1019.07 169.092 L695.424 169.092 L695.424 169.092  Z" fill="#e69f00" fill-rule="evenodd" fill-opacity="1"/>
<polyline clip-path="url(#clip212)" style="stroke:#000000; stroke-linecap:round; stroke-linejoin:round; stroke-width:4; stroke-opacity:1; fill:none" points="695.424,169.092 695.424,1495.09 1019.07,1495.09 1019.07,169.092 695.424,169.092 "/>
<path clip-path="url(#clip212)" d="M1099.98 871.512 L1099.98 1495.09 L1423.63 1495.09 L1423.63 871.512 L1099.98 871.512 L1099.98 871.512  Z" fill="#e69f00" fill-rule="evenodd" fill-opacity="1"/>
<polyline clip-path="url(#clip212)" style="stroke:#000000; stroke-linecap:round; stroke-linejoin:round; stroke-width:4; stroke-opacity:1; fill:none" points="1099.98,871.512 1099.98,1495.09 1423.63,1495.09 1423.63,871.512 1099.98,871.512 "/>
<path clip-path="url(#clip212)" d="M1504.54 1308.73 L1504.54 1495.09 L1828.19 1495.09 L1828.19 1308.73 L1504.54 1308.73 L1504.54 1308.73  Z" fill="#e69f00" fill-rule="evenodd" fill-opacity="1"/>
<polyline clip-path="url(#clip212)" style="stroke:#000000; stroke-linecap:round; stroke-linejoin:round; stroke-width:4; stroke-opacity:1; fill:none" points="1504.54,1308.73 1504.54,1495.09 1828.19,1495.09 1828.19,1308.73 1504.54,1308.73 "/>
<path clip-path="url(#clip212)" d="M1909.1 1452.08 L1909.1 1495.09 L2232.75 1495.09 L2232.75 1452.08 L1909.1 1452.08 L1909.1 1452.08  Z" fill="#e69f00" fill-rule="evenodd" fill-opacity="1"/>
<polyline clip-path="url(#clip212)" style="stroke:#000000; stroke-linecap:round; stroke-linejoin:round; stroke-width:4; stroke-opacity:1; fill:none" points="1909.1,1452.08 1909.1,1495.09 2232.75,1495.09 2232.75,1452.08 1909.1,1452.08 "/>
<circle clip-path="url(#clip212)" style="fill:#e69f00; stroke:none; fill-opacity:0" cx="452.689" cy="47.2441" r="2"/>
<circle clip-path="url(#clip212)" style="fill:#e69f00; stroke:none; fill-opacity:0" cx="857.248" cy="169.092" r="2"/>
<circle clip-path="url(#clip212)" style="fill:#e69f00; stroke:none; fill-opacity:0" cx="1261.81" cy="871.512" r="2"/>
<circle clip-path="url(#clip212)" style="fill:#e69f00; stroke:none; fill-opacity:0" cx="1666.37" cy="1308.73" r="2"/>
<circle clip-path="url(#clip212)" style="fill:#e69f00; stroke:none; fill-opacity:0" cx="2070.92" cy="1452.08" r="2"/>
</svg>
