<?xml version="1.0" encoding="utf-8"?>
<svg xmlns="http://www.w3.org/2000/svg" xmlns:xlink="http://www.w3.org/1999/xlink" width="600" height="400" viewBox="0 0 2400 1600">
<defs>
  <clipPath id="clip990">
    <rect x="0" y="0" width="2400" height="1600"/>
  </clipPath>
</defs>
<path clip-path="url(#clip990)" d="M0 1600 L2400 1600 L2400 0 L0 0  Z" fill="#ffffff" fill-rule="evenodd" fill-opacity="1"/>
<defs>
  <clipPath id="clip991">
    <rect x="480" y="0" width="1681" height="1600"/>
  </clipPath>
</defs>
<path clip-path="url(#clip990)" d="M147.478 1486.45 L2352.76 1486.45 L2352.76 47.2441 L147.478 47.2441  Z" fill="#ffffff" fill-rule="evenodd" fill-opacity="1"/>
<defs>
  <clipPath id="clip992">
    <rect x="147" y="47" width="2206" height="1440"/>
  </clipPath>
</defs>
<polyline clip-path="url(#clip992)" style="stroke:#000000; stroke-linecap:round; stroke-linejoin:round; stroke-width:2; stroke-opacity:0.1; fill:none" points="547.035,1486.45 547.035,47.2441 "/>
<polyline clip-path="url(#clip992)" style="stroke:#000000; stroke-linecap:round; stroke-linejoin:round; stroke-width:2; stroke-opacity:0.1; fill:none" points="951.203,1486.45 951.203,47.2441 "/>
<polyline clip-path="url(#clip992)" style="stroke:#000000; stroke-linecap:round; stroke-linejoin:round; stroke-width:2; stroke-opacity:0.1; fill:none" points="1355.37,1486.45 1355.37,47.2441 "/>
<polyline clip-path="url(#clip992)" style="stroke:#000000; stroke-linecap:round; stroke-linejoin:round; stroke-width:2; stroke-opacity:0.1; fill:none" points="1759.54,1486.45 1759.54,47.2441 "/>
<polyline clip-path="url(#clip992)" style="stroke:#000000; stroke-linecap:round; stroke-linejoin:round; stroke-width:2; stroke-opacity:0.1; fill:none" points="2163.71,1486.45 2163.71,47.2441 "/>
<polyline clip-path="url(#clip990)" style="stroke:#000000; stroke-linecap:round; stroke-linejoin:round; stroke-width:4; stroke-opacity:1; fill:none" points="147.478,1486.45 2352.76,1486.45 "/>
<polyline clip-path="url(#clip990)" style="stroke:#000000; stroke-linecap:round; stroke-linejoin:round; stroke-width:4; stroke-opacity:1; fill:none" points="547.035,1486.45 547.035,1467.55 "/>
<polyline clip-path="url(#clip990)" style="stroke:#000000; stroke-linecap:round; stroke-linejoin:round; stroke-width:4; stroke-opacity:1; fill:none" points="951.203,1486.45 951.203,1467.55 "/>
<polyline clip-path="url(#clip990)" style="stroke:#000000; stroke-linecap:round; stroke-linejoin:round; stroke-width:4; stroke-opacity:1; fill:none" points="1355.37,1486.45 1355.37,1467.55 "/>
<polyline clip-path="url(#clip990)" style="stroke:#000000; stroke-linecap:round; stroke-linejoin:round; stroke-width:4; stroke-opacity:1; fill:none" points="1759.54,1486.45 1759.54,1467.55 "/>
<polyline clip-path="url(#clip990)" style="stroke:#000000; stroke-linecap:round; stroke-linejoin:round; stroke-width:4; stroke-opacity:1; fill:none" points="2163.71,1486.45 2163.71,1467.55 "/>
<path clip-path="url(#clip990)" d="M516.977 1532.02 L546.653 1532.02 L546.653 1535.95 L516.977 1535.95 L516.977 1532.02 Z" fill="#000000" fill-rule="nonzero" fill-opacity="1" /><path clip-path="url(#clip990)" d="M560.773 1544.91 L577.092 1544.91 L577.092 1548.85 L555.148 1548.85 L555.148 1544.91 Q557.81 1542.16 562.393 1537.53 Q567 1532.88 568.18 1531.53 Q570.426 1529.01 571.305 1527.27 Q572.208 1525.51 572.208 1523.82 Q572.208 1521.07 570.264 1519.33 Q568.342 1517.6 565.241 1517.6 Q563.041 1517.6 560.588 1518.36 Q558.157 1519.13 555.379 1520.68 L555.379 1515.95 Q558.204 1514.82 560.657 1514.24 Q563.111 1513.66 565.148 1513.66 Q570.518 1513.66 573.713 1516.35 Q576.907 1519.03 576.907 1523.52 Q576.907 1525.65 576.097 1527.57 Q575.31 1529.47 573.203 1532.07 Q572.625 1532.74 569.523 1535.95 Q566.421 1539.15 560.773 1544.91 Z" fill="#000000" fill-rule="nonzero" fill-opacity="1" /><path clip-path="url(#clip990)" d="M920.96 1532.02 L950.636 1532.02 L950.636 1535.95 L920.96 1535.95 L920.96 1532.02 Z" fill="#000000" fill-rule="nonzero" fill-opacity="1" /><path clip-path="url(#clip990)" d="M961.538 1544.91 L969.177 1544.91 L969.177 1518.55 L960.867 1520.21 L960.867 1515.95 L969.131 1514.29 L973.807 1514.29 L973.807 1544.91 L981.446 1544.91 L981.446 1548.85 L961.538 1548.85 L961.538 1544.91 Z" fill="#000000" fill-rule="nonzero" fill-opacity="1" /><path clip-path="url(#clip990)" d="M1355.37 1517.37 Q1351.76 1517.37 1349.93 1520.93 Q1348.13 1524.47 1348.13 1531.6 Q1348.13 1538.71 1349.93 1542.27 Q1351.76 1545.82 1355.37 1545.82 Q1359 1545.82 1360.81 1542.27 Q1362.64 1538.71 1362.64 1531.6 Q1362.64 1524.47 1360.81 1520.93 Q1359 1517.37 1355.37 1517.37 M1355.37 1513.66 Q1361.18 1513.66 1364.24 1518.27 Q1367.32 1522.85 1367.32 1531.6 Q1367.32 1540.33 1364.24 1544.94 Q1361.18 1549.52 1355.37 1549.52 Q1349.56 1549.52 1346.48 1544.94 Q1343.43 1540.33 1343.43 1531.6 Q1343.43 1522.85 1346.48 1518.27 Q1349.56 1513.66 1355.37 1513.66 Z" fill="#000000" fill-rule="nonzero" fill-opacity="1" /><path clip-path="url(#clip990)" d="M1749.92 1544.91 L1757.56 1544.91 L1757.56 1518.55 L1749.25 1520.21 L1749.25 1515.95 L1757.51 1514.29 L1762.19 1514.29 L1762.19 1544.91 L1769.83 1544.91 L1769.83 1548.85 L1749.92 1548.85 L1749.92 1544.91 Z" fill="#000000" fill-rule="nonzero" fill-opacity="1" /><path clip-path="url(#clip990)" d="M2158.36 1544.91 L2174.68 1544.91 L2174.68 1548.85 L2152.73 1548.85 L2152.73 1544.91 Q2155.4 1542.16 2159.98 1537.53 Q2164.59 1532.88 2165.77 1531.53 Q2168.01 1529.01 2168.89 1527.27 Q2169.79 1525.51 2169.79 1523.82 Q2169.79 1521.07 2167.85 1519.33 Q2165.93 1517.6 2162.83 1517.6 Q2160.63 1517.6 2158.17 1518.36 Q2155.74 1519.13 2152.97 1520.68 L2152.97 1515.95 Q2155.79 1514.82 2158.24 1514.24 Q2160.7 1513.66 2162.73 1513.66 Q2168.1 1513.66 2171.3 1516.35 Q2174.49 1519.03 2174.49 1523.52 Q2174.49 1525.65 2173.68 1527.57 Q2172.9 1529.47 2170.79 1532.07 Q2170.21 1532.74 2167.11 1535.95 Q2164.01 1539.15 2158.36 1544.91 Z" fill="#000000" fill-rule="nonzero" fill-opacity="1" /><polyline clip-path="url(#clip992)" style="stroke:#000000; stroke-linecap:round; stroke-linejoin:round; stroke-width:2; stroke-opacity:0.1; fill:none" points="147.478,1296.2 2352.76,1296.2 "/>
<polyline clip-path="url(#clip992)" style="stroke:#000000; stroke-linecap:round; stroke-linejoin:round; stroke-width:2; stroke-opacity:0.1; fill:none" points="147.478,1075.21 2352.76,1075.21 "/>
<polyline clip-path="url(#clip992)" style="stroke:#000000; stroke-linecap:round; stroke-linejoin:round; stroke-width:2; stroke-opacity:0.1; fill:none" points="147.478,854.22 2352.76,854.22 "/>
<polyline clip-path="url(#clip992)" style="stroke:#000000; stroke-linecap:round; stroke-linejoin:round; stroke-width:2; stroke-opacity:0.1; fill:none" points="147.478,633.229 2352.76,633.229 "/>
<polyline clip-path="url(#clip992)" style="stroke:#000000; stroke-linecap:round; stroke-linejoin:round; stroke-width:2; stroke-opacity:0.1; fill:none" points="147.478,412.238 2352.76,412.238 "/>
<polyline clip-path="url(#clip992)" style="stroke:#000000; stroke-linecap:round; stroke-linejoin:round; stroke-width:2; stroke-opacity:0.1; fill:none" points="147.478,191.246 2352.76,191.246 "/>
<polyline clip-path="url(#clip990)" style="stroke:#000000; stroke-linecap:round; stroke-linejoin:round; stroke-width:4; stroke-opacity:1; fill:none" points="147.478,1486.45 147.478,47.2441 "/>
<polyline clip-path="url(#clip990)" style="stroke:#000000; stroke-linecap:round; stroke-linejoin:round; stroke-width:4; stroke-opacity:1; fill:none" points="147.478,1296.2 166.376,1296.2 "/>
<polyline clip-path="url(#clip990)" style="stroke:#000000; stroke-linecap:round; stroke-linejoin:round; stroke-width:4; stroke-opacity:1; fill:none" points="147.478,1075.21 166.376,1075.21 "/>
<polyline clip-path="url(#clip990)" style="stroke:#000000; stroke-linecap:round; stroke-linejoin:round; stroke-width:4; stroke-opacity:1; fill:none" points="147.478,854.22 166.376,854.22 "/>
<polyline clip-path="url(#clip990)" style="stroke:#000000; stroke-linecap:round; stroke-linejoin:round; stroke-width:4; stroke-opacity:1; fill:none" points="147.478,633.229 166.376,633.229 "/>
<polyline clip-path="url(#clip990)" style="stroke:#000000; stroke-linecap:round; stroke-linejoin:round; stroke-width:4; stroke-opacity:1; fill:none" points="147.478,412.238 166.376,412.238 "/>
<polyline clip-path="url(#clip990)" style="stroke:#000000; stroke-linecap:round; stroke-linejoin:round; stroke-width:4; stroke-opacity:1; fill:none" points="147.478,191.246 166.376,191.246 "/>
<path clip-path="url(#clip990)" d="M50.9921 1296.65 L80.6679 1296.65 L80.6679 1300.59 L50.9921 1300.59 L50.9921 1296.65 Z" fill="#000000" fill-rule="nonzero" fill-opacity="1" /><path clip-path="url(#clip990)" d="M91.5706 1309.55 L99.2095 1309.55 L99.2095 1283.18 L90.8993 1284.85 L90.8993 1280.59 L99.1632 1278.92 L103.839 1278.92 L103.839 1309.55 L111.478 1309.55 L111.478 1313.48 L91.5706 1313.48 L91.5706 1309.55 Z" fill="#000000" fill-rule="nonzero" fill-opacity="1" /><path clip-path="url(#clip990)" d="M99.5335 1061.01 Q95.9224 1061.01 94.0937 1064.57 Q92.2882 1068.12 92.2882 1075.25 Q92.2882 1082.35 94.0937 1085.92 Q95.9224 1089.46 99.5335 1089.46 Q103.168 1089.46 104.973 1085.92 Q106.802 1082.35 106.802 1075.25 Q106.802 1068.12 104.973 1064.57 Q103.168 1061.01 99.5335 1061.01 M99.5335 1057.31 Q105.344 1057.31 108.399 1061.91 Q111.478 1066.5 111.478 1075.25 Q111.478 1083.97 108.399 1088.58 Q105.344 1093.16 99.5335 1093.16 Q93.7234 1093.16 90.6447 1088.58 Q87.5892 1083.97 87.5892 1075.25 Q87.5892 1066.5 90.6447 1061.91 Q93.7234 1057.31 99.5335 1057.31 Z" fill="#000000" fill-rule="nonzero" fill-opacity="1" /><path clip-path="url(#clip990)" d="M91.5706 867.565 L99.2095 867.565 L99.2095 841.199 L90.8993 842.866 L90.8993 838.607 L99.1632 836.94 L103.839 836.94 L103.839 867.565 L111.478 867.565 L111.478 871.5 L91.5706 871.5 L91.5706 867.565 Z" fill="#000000" fill-rule="nonzero" fill-opacity="1" /><path clip-path="url(#clip990)" d="M95.1586 646.574 L111.478 646.574 L111.478 650.509 L89.5336 650.509 L89.5336 646.574 Q92.1956 643.819 96.7789 639.189 Q101.385 634.537 102.566 633.194 Q104.811 630.671 105.691 628.935 Q106.594 627.176 106.594 625.486 Q106.594 622.731 104.649 620.995 Q102.728 619.259 99.6261 619.259 Q97.4271 619.259 94.9734 620.023 Q92.5428 620.787 89.7651 622.338 L89.7651 617.615 Q92.5891 616.481 95.0428 615.902 Q97.4965 615.324 99.5335 615.324 Q104.904 615.324 108.098 618.009 Q111.293 620.694 111.293 625.185 Q111.293 627.314 110.483 629.236 Q109.696 631.134 107.589 633.726 Q107.01 634.398 103.909 637.615 Q100.807 640.81 95.1586 646.574 Z" fill="#000000" fill-rule="nonzero" fill-opacity="1" /><path clip-path="url(#clip990)" d="M104.348 410.883 Q107.705 411.601 109.58 413.869 Q111.478 416.138 111.478 419.471 Q111.478 424.587 107.959 427.388 Q104.441 430.189 97.9595 430.189 Q95.7836 430.189 93.4688 429.749 Q91.1771 429.332 88.7234 428.476 L88.7234 423.962 Q90.6678 425.096 92.9826 425.675 Q95.2974 426.254 97.8206 426.254 Q102.219 426.254 104.51 424.518 Q106.825 422.781 106.825 419.471 Q106.825 416.416 104.672 414.703 Q102.543 412.967 98.7234 412.967 L94.6956 412.967 L94.6956 409.124 L98.9085 409.124 Q102.358 409.124 104.186 407.758 Q106.015 406.369 106.015 403.777 Q106.015 401.115 104.117 399.703 Q102.242 398.268 98.7234 398.268 Q96.8021 398.268 94.603 398.684 Q92.4039 399.101 89.7651 399.981 L89.7651 395.814 Q92.4271 395.073 94.7419 394.703 Q97.0798 394.333 99.14 394.333 Q104.464 394.333 107.566 396.763 Q110.668 399.17 110.668 403.291 Q110.668 406.161 109.024 408.152 Q107.381 410.119 104.348 410.883 Z" fill="#000000" fill-rule="nonzero" fill-opacity="1" /><path clip-path="url(#clip990)" d="M101.895 178.04 L90.0891 196.489 L101.895 196.489 L101.895 178.04 M100.668 173.966 L106.547 173.966 L106.547 196.489 L111.478 196.489 L111.478 200.378 L106.547 200.378 L106.547 208.526 L101.895 208.526 L101.895 200.378 L86.2929 200.378 L86.2929 195.864 L100.668 173.966 Z" fill="#000000" fill-rule="nonzero" fill-opacity="1" /><circle clip-path="url(#clip992)" cx="687.294" cy="1125.15" r="14.4" fill="#e69f00" fill-rule="evenodd" fill-opacity="1" stroke="#000000" stroke-opacity="1" stroke-width="3.2"/>
<circle clip-path="url(#clip992)" cx="1534.73" cy="601.853" r="14.4" fill="#e69f00" fill-rule="evenodd" fill-opacity="1" stroke="#000000" stroke-opacity="1" stroke-width="3.2"/>
<circle clip-path="url(#clip992)" cx="1096.51" cy="774.438" r="14.4" fill="#e69f00" fill-rule="evenodd" fill-opacity="1" stroke="#000000" stroke-opacity="1" stroke-width="3.2"/>
<circle clip-path="url(#clip992)" cx="349.562" cy="1375.95" r="14.4" fill="#e69f00" fill-rule="evenodd" fill-opacity="1" stroke="#000000" stroke-opacity="1" stroke-width="3.2"/>
<circle clip-path="url(#clip992)" cx="1600.16" cy="651.065" r="14.4" fill="#e69f00" fill-rule="evenodd" fill-opacity="1" stroke="#000000" stroke-opacity="1" stroke-width="3.2"/>
<circle clip-path="url(#clip992)" cx="1823.23" cy="418.779" r="14.4" fill="#e69f00" fill-rule="evenodd" fill-opacity="1" stroke="#000000" stroke-opacity="1" stroke-width="3.2"/>
<circle clip-path="url(#clip992)" cx="1121.72" cy="851.425" r="14.4" fill="#e69f00" fill-rule="evenodd" fill-opacity="1" stroke="#000000" stroke-opacity="1" stroke-width="3.2"/>
<circle clip-path="url(#clip992)" cx="1675.48" cy="624.511" r="14.4" fill="#e69f00" fill-rule="evenodd" fill-opacity="1" stroke="#000000" stroke-opacity="1" stroke-width="3.2"/>
<circle clip-path="url(#clip992)" cx="1802.88" cy="459.571" r="14.4" fill="#e69f00" fill-rule="evenodd" fill-opacity="1" stroke="#000000" stroke-opacity="1" stroke-width="3.2"/>
<circle clip-path="url(#clip992)" cx="909.665" cy="945.777" r="14.4" fill="#e69f00" fill-rule="evenodd" fill-opacity="1" stroke="#000000" stroke-opacity="1" stroke-width="3.2"/>
<circle clip-path="url(#clip992)" cx="1828.95" cy="426.086" r="14.4" fill="#e69f00" fill-rule="evenodd" fill-opacity="1" stroke="#000000" stroke-opacity="1" stroke-width="3.2"/>
<circle clip-path="url(#clip992)" cx="1775.65" cy="464.845" r="14.4" fill="#e69f00" fill-rule="evenodd" fill-opacity="1" stroke="#000000" stroke-opacity="1" stroke-width="3.2"/>
<circle clip-path="url(#clip992)" cx="1497.12" cy="579.887" r="14.4" fill="#e69f00" fill-rule="evenodd" fill-opacity="1" stroke="#000000" stroke-opacity="1" stroke-width="3.2"/>
<circle clip-path="url(#clip992)" cx="1689.58" cy="480.418" r="14.4" fill="#e69f00" fill-rule="evenodd" fill-opacity="1" stroke="#000000" stroke-opacity="1" stroke-width="3.2"/>
<circle clip-path="url(#clip992)" cx="998.831" cy="956.37" r="14.4" fill="#e69f00" fill-rule="evenodd" fill-opacity="1" stroke="#000000" stroke-opacity="1" stroke-width="3.2"/>
<circle clip-path="url(#clip992)" cx="947.201" cy="882.769" r="14.4" fill="#e69f00" fill-rule="evenodd" fill-opacity="1" stroke="#000000" stroke-opacity="1" stroke-width="3.2"/>
<circle clip-path="url(#clip992)" cx="1173.75" cy="899.44" r="14.4" fill="#e69f00" fill-rule="evenodd" fill-opacity="1" stroke="#000000" stroke-opacity="1" stroke-width="3.2"/>
<circle clip-path="url(#clip992)" cx="1477.7" cy="669.739" r="14.4" fill="#e69f00" fill-rule="evenodd" fill-opacity="1" stroke="#000000" stroke-opacity="1" stroke-width="3.2"/>
<circle clip-path="url(#clip992)" cx="1711.92" cy="647.279" r="14.4" fill="#e69f00" fill-rule="evenodd" fill-opacity="1" stroke="#000000" stroke-opacity="1" stroke-width="3.2"/>
<circle clip-path="url(#clip992)" cx="1068.91" cy="836.331" r="14.4" fill="#e69f00" fill-rule="evenodd" fill-opacity="1" stroke="#000000" stroke-opacity="1" stroke-width="3.2"/>
<circle clip-path="url(#clip992)" cx="901.035" cy="1092.57" r="14.4" fill="#e69f00" fill-rule="evenodd" fill-opacity="1" stroke="#000000" stroke-opacity="1" stroke-width="3.2"/>
<circle clip-path="url(#clip992)" cx="1298.05" cy="783.449" r="14.4" fill="#e69f00" fill-rule="evenodd" fill-opacity="1" stroke="#000000" stroke-opacity="1" stroke-width="3.2"/>
<circle clip-path="url(#clip992)" cx="1005.21" cy="829.694" r="14.4" fill="#e69f00" fill-rule="evenodd" fill-opacity="1" stroke="#000000" stroke-opacity="1" stroke-width="3.2"/>
<circle clip-path="url(#clip992)" cx="1593.18" cy="537.613" r="14.4" fill="#e69f00" fill-rule="evenodd" fill-opacity="1" stroke="#000000" stroke-opacity="1" stroke-width="3.2"/>
<circle clip-path="url(#clip992)" cx="1439.98" cy="580.583" r="14.4" fill="#e69f00" fill-rule="evenodd" fill-opacity="1" stroke="#000000" stroke-opacity="1" stroke-width="3.2"/>
<circle clip-path="url(#clip992)" cx="645.754" cy="1126.59" r="14.4" fill="#e69f00" fill-rule="evenodd" fill-opacity="1" stroke="#000000" stroke-opacity="1" stroke-width="3.2"/>
<circle clip-path="url(#clip992)" cx="1062.76" cy="834.741" r="14.4" fill="#e69f00" fill-rule="evenodd" fill-opacity="1" stroke="#000000" stroke-opacity="1" stroke-width="3.2"/>
<circle clip-path="url(#clip992)" cx="1436.6" cy="754.963" r="14.4" fill="#e69f00" fill-rule="evenodd" fill-opacity="1" stroke="#000000" stroke-opacity="1" stroke-width="3.2"/>
<circle clip-path="url(#clip992)" cx="1066" cy="870.258" r="14.4" fill="#e69f00" fill-rule="evenodd" fill-opacity="1" stroke="#000000" stroke-opacity="1" stroke-width="3.2"/>
<circle clip-path="url(#clip992)" cx="1508.17" cy="595.166" r="14.4" fill="#e69f00" fill-rule="evenodd" fill-opacity="1" stroke="#000000" stroke-opacity="1" stroke-width="3.2"/>
<circle clip-path="url(#clip992)" cx="618.087" cy="1244.51" r="14.4" fill="#e69f00" fill-rule="evenodd" fill-opacity="1" stroke="#000000" stroke-opacity="1" stroke-width="3.2"/>
<circle clip-path="url(#clip992)" cx="932.725" cy="979.106" r="14.4" fill="#e69f00" fill-rule="evenodd" fill-opacity="1" stroke="#000000" stroke-opacity="1" stroke-width="3.2"/>
<circle clip-path="url(#clip992)" cx="846.216" cy="1082.89" r="14.4" fill="#e69f00" fill-rule="evenodd" fill-opacity="1" stroke="#000000" stroke-opacity="1" stroke-width="3.2"/>
<circle clip-path="url(#clip992)" cx="1641.47" cy="564.033" r="14.4" fill="#e69f00" fill-rule="evenodd" fill-opacity="1" stroke="#000000" stroke-opacity="1" stroke-width="3.2"/>
<circle clip-path="url(#clip992)" cx="1529.2" cy="622.694" r="14.4" fill="#e69f00" fill-rule="evenodd" fill-opacity="1" stroke="#000000" stroke-opacity="1" stroke-width="3.2"/>
<circle clip-path="url(#clip992)" cx="1286.64" cy="931.253" r="14.4" fill="#e69f00" fill-rule="evenodd" fill-opacity="1" stroke="#000000" stroke-opacity="1" stroke-width="3.2"/>
<circle clip-path="url(#clip992)" cx="938.602" cy="1174.89" r="14.4" fill="#e69f00" fill-rule="evenodd" fill-opacity="1" stroke="#000000" stroke-opacity="1" stroke-width="3.2"/>
<circle clip-path="url(#clip992)" cx="886.536" cy="924.01" r="14.4" fill="#e69f00" fill-rule="evenodd" fill-opacity="1" stroke="#000000" stroke-opacity="1" stroke-width="3.2"/>
<circle clip-path="url(#clip992)" cx="1753.82" cy="411.652" r="14.4" fill="#e69f00" fill-rule="evenodd" fill-opacity="1" stroke="#000000" stroke-opacity="1" stroke-width="3.2"/>
<circle clip-path="url(#clip992)" cx="1463.95" cy="617.312" r="14.4" fill="#e69f00" fill-rule="evenodd" fill-opacity="1" stroke="#000000" stroke-opacity="1" stroke-width="3.2"/>
<circle clip-path="url(#clip992)" cx="1455.86" cy="626.815" r="14.4" fill="#e69f00" fill-rule="evenodd" fill-opacity="1" stroke="#000000" stroke-opacity="1" stroke-width="3.2"/>
<circle clip-path="url(#clip992)" cx="644.571" cy="1178.69" r="14.4" fill="#e69f00" fill-rule="evenodd" fill-opacity="1" stroke="#000000" stroke-opacity="1" stroke-width="3.2"/>
<circle clip-path="url(#clip992)" cx="1545.13" cy="520.608" r="14.4" fill="#e69f00" fill-rule="evenodd" fill-opacity="1" stroke="#000000" stroke-opacity="1" stroke-width="3.2"/>
<circle clip-path="url(#clip992)" cx="1516.95" cy="475.642" r="14.4" fill="#e69f00" fill-rule="evenodd" fill-opacity="1" stroke="#000000" stroke-opacity="1" stroke-width="3.2"/>
<circle clip-path="url(#clip992)" cx="1285.46" cy="760.29" r="14.4" fill="#e69f00" fill-rule="evenodd" fill-opacity="1" stroke="#000000" stroke-opacity="1" stroke-width="3.2"/>
<circle clip-path="url(#clip992)" cx="1043.5" cy="974.503" r="14.4" fill="#e69f00" fill-rule="evenodd" fill-opacity="1" stroke="#000000" stroke-opacity="1" stroke-width="3.2"/>
<circle clip-path="url(#clip992)" cx="2144.96" cy="226.936" r="14.4" fill="#e69f00" fill-rule="evenodd" fill-opacity="1" stroke="#000000" stroke-opacity="1" stroke-width="3.2"/>
<circle clip-path="url(#clip992)" cx="1458.57" cy="602.864" r="14.4" fill="#e69f00" fill-rule="evenodd" fill-opacity="1" stroke="#000000" stroke-opacity="1" stroke-width="3.2"/>
<circle clip-path="url(#clip992)" cx="1304.75" cy="853.188" r="14.4" fill="#e69f00" fill-rule="evenodd" fill-opacity="1" stroke="#000000" stroke-opacity="1" stroke-width="3.2"/>
<circle clip-path="url(#clip992)" cx="1076.48" cy="921.193" r="14.4" fill="#e69f00" fill-rule="evenodd" fill-opacity="1" stroke="#000000" stroke-opacity="1" stroke-width="3.2"/>
<circle clip-path="url(#clip992)" cx="859.904" cy="937.741" r="14.4" fill="#e69f00" fill-rule="evenodd" fill-opacity="1" stroke="#000000" stroke-opacity="1" stroke-width="3.2"/>
<circle clip-path="url(#clip992)" cx="1522.5" cy="621.231" r="14.4" fill="#e69f00" fill-rule="evenodd" fill-opacity="1" stroke="#000000" stroke-opacity="1" stroke-width="3.2"/>
<circle clip-path="url(#clip992)" cx="1288.08" cy="727.698" r="14.4" fill="#e69f00" fill-rule="evenodd" fill-opacity="1" stroke="#000000" stroke-opacity="1" stroke-width="3.2"/>
<circle clip-path="url(#clip992)" cx="1549.29" cy="665.73" r="14.4" fill="#e69f00" fill-rule="evenodd" fill-opacity="1" stroke="#000000" stroke-opacity="1" stroke-width="3.2"/>
<circle clip-path="url(#clip992)" cx="2150.67" cy="157.74" r="14.4" fill="#e69f00" fill-rule="evenodd" fill-opacity="1" stroke="#000000" stroke-opacity="1" stroke-width="3.2"/>
<circle clip-path="url(#clip992)" cx="1233.09" cy="830.5" r="14.4" fill="#e69f00" fill-rule="evenodd" fill-opacity="1" stroke="#000000" stroke-opacity="1" stroke-width="3.2"/>
<circle clip-path="url(#clip992)" cx="1145.84" cy="845.83" r="14.4" fill="#e69f00" fill-rule="evenodd" fill-opacity="1" stroke="#000000" stroke-opacity="1" stroke-width="3.2"/>
<circle clip-path="url(#clip992)" cx="1351.04" cy="696.726" r="14.4" fill="#e69f00" fill-rule="evenodd" fill-opacity="1" stroke="#000000" stroke-opacity="1" stroke-width="3.2"/>
<circle clip-path="url(#clip992)" cx="2007.53" cy="310.409" r="14.4" fill="#e69f00" fill-rule="evenodd" fill-opacity="1" stroke="#000000" stroke-opacity="1" stroke-width="3.2"/>
<circle clip-path="url(#clip992)" cx="1449.34" cy="551.62" r="14.4" fill="#e69f00" fill-rule="evenodd" fill-opacity="1" stroke="#000000" stroke-opacity="1" stroke-width="3.2"/>
<circle clip-path="url(#clip992)" cx="1117.63" cy="793.499" r="14.4" fill="#e69f00" fill-rule="evenodd" fill-opacity="1" stroke="#000000" stroke-opacity="1" stroke-width="3.2"/>
<circle clip-path="url(#clip992)" cx="1331.11" cy="696.184" r="14.4" fill="#e69f00" fill-rule="evenodd" fill-opacity="1" stroke="#000000" stroke-opacity="1" stroke-width="3.2"/>
<circle clip-path="url(#clip992)" cx="1125.26" cy="841.254" r="14.4" fill="#e69f00" fill-rule="evenodd" fill-opacity="1" stroke="#000000" stroke-opacity="1" stroke-width="3.2"/>
<circle clip-path="url(#clip992)" cx="675.594" cy="1071.42" r="14.4" fill="#e69f00" fill-rule="evenodd" fill-opacity="1" stroke="#000000" stroke-opacity="1" stroke-width="3.2"/>
<circle clip-path="url(#clip992)" cx="902.676" cy="995.191" r="14.4" fill="#e69f00" fill-rule="evenodd" fill-opacity="1" stroke="#000000" stroke-opacity="1" stroke-width="3.2"/>
<circle clip-path="url(#clip992)" cx="2061.34" cy="267.897" r="14.4" fill="#e69f00" fill-rule="evenodd" fill-opacity="1" stroke="#000000" stroke-opacity="1" stroke-width="3.2"/>
<circle clip-path="url(#clip992)" cx="2066.76" cy="283.23" r="14.4" fill="#e69f00" fill-rule="evenodd" fill-opacity="1" stroke="#000000" stroke-opacity="1" stroke-width="3.2"/>
<circle clip-path="url(#clip992)" cx="1945.24" cy="294.573" r="14.4" fill="#e69f00" fill-rule="evenodd" fill-opacity="1" stroke="#000000" stroke-opacity="1" stroke-width="3.2"/>
<circle clip-path="url(#clip992)" cx="1072.09" cy="904.046" r="14.4" fill="#e69f00" fill-rule="evenodd" fill-opacity="1" stroke="#000000" stroke-opacity="1" stroke-width="3.2"/>
<circle clip-path="url(#clip992)" cx="1214.95" cy="925.02" r="14.4" fill="#e69f00" fill-rule="evenodd" fill-opacity="1" stroke="#000000" stroke-opacity="1" stroke-width="3.2"/>
<circle clip-path="url(#clip992)" cx="1704.42" cy="569.983" r="14.4" fill="#e69f00" fill-rule="evenodd" fill-opacity="1" stroke="#000000" stroke-opacity="1" stroke-width="3.2"/>
<circle clip-path="url(#clip992)" cx="532.038" cy="1213.15" r="14.4" fill="#e69f00" fill-rule="evenodd" fill-opacity="1" stroke="#000000" stroke-opacity="1" stroke-width="3.2"/>
<circle clip-path="url(#clip992)" cx="1226.01" cy="735.447" r="14.4" fill="#e69f00" fill-rule="evenodd" fill-opacity="1" stroke="#000000" stroke-opacity="1" stroke-width="3.2"/>
<circle clip-path="url(#clip992)" cx="1659.99" cy="541.488" r="14.4" fill="#e69f00" fill-rule="evenodd" fill-opacity="1" stroke="#000000" stroke-opacity="1" stroke-width="3.2"/>
<circle clip-path="url(#clip992)" cx="922.344" cy="951.666" r="14.4" fill="#e69f00" fill-rule="evenodd" fill-opacity="1" stroke="#000000" stroke-opacity="1" stroke-width="3.2"/>
<circle clip-path="url(#clip992)" cx="884.782" cy="931.696" r="14.4" fill="#e69f00" fill-rule="evenodd" fill-opacity="1" stroke="#000000" stroke-opacity="1" stroke-width="3.2"/>
<circle clip-path="url(#clip992)" cx="1709.02" cy="448.036" r="14.4" fill="#e69f00" fill-rule="evenodd" fill-opacity="1" stroke="#000000" stroke-opacity="1" stroke-width="3.2"/>
<circle clip-path="url(#clip992)" cx="875.617" cy="1025.23" r="14.4" fill="#e69f00" fill-rule="evenodd" fill-opacity="1" stroke="#000000" stroke-opacity="1" stroke-width="3.2"/>
<circle clip-path="url(#clip992)" cx="1360.3" cy="762.916" r="14.4" fill="#e69f00" fill-rule="evenodd" fill-opacity="1" stroke="#000000" stroke-opacity="1" stroke-width="3.2"/>
<circle clip-path="url(#clip992)" cx="1114.45" cy="887.766" r="14.4" fill="#e69f00" fill-rule="evenodd" fill-opacity="1" stroke="#000000" stroke-opacity="1" stroke-width="3.2"/>
<circle clip-path="url(#clip992)" cx="1342.94" cy="700.681" r="14.4" fill="#e69f00" fill-rule="evenodd" fill-opacity="1" stroke="#000000" stroke-opacity="1" stroke-width="3.2"/>
<circle clip-path="url(#clip992)" cx="1083.24" cy="901.887" r="14.4" fill="#e69f00" fill-rule="evenodd" fill-opacity="1" stroke="#000000" stroke-opacity="1" stroke-width="3.2"/>
<circle clip-path="url(#clip992)" cx="662.152" cy="1185.9" r="14.4" fill="#e69f00" fill-rule="evenodd" fill-opacity="1" stroke="#000000" stroke-opacity="1" stroke-width="3.2"/>
<circle clip-path="url(#clip992)" cx="1370.66" cy="789.395" r="14.4" fill="#e69f00" fill-rule="evenodd" fill-opacity="1" stroke="#000000" stroke-opacity="1" stroke-width="3.2"/>
<circle clip-path="url(#clip992)" cx="1217.91" cy="826.288" r="14.4" fill="#e69f00" fill-rule="evenodd" fill-opacity="1" stroke="#000000" stroke-opacity="1" stroke-width="3.2"/>
<circle clip-path="url(#clip992)" cx="1233.61" cy="696.318" r="14.4" fill="#e69f00" fill-rule="evenodd" fill-opacity="1" stroke="#000000" stroke-opacity="1" stroke-width="3.2"/>
<circle clip-path="url(#clip992)" cx="1680.57" cy="492.61" r="14.4" fill="#e69f00" fill-rule="evenodd" fill-opacity="1" stroke="#000000" stroke-opacity="1" stroke-width="3.2"/>
<circle clip-path="url(#clip992)" cx="1509.03" cy="633.995" r="14.4" fill="#e69f00" fill-rule="evenodd" fill-opacity="1" stroke="#000000" stroke-opacity="1" stroke-width="3.2"/>
<circle clip-path="url(#clip992)" cx="1415.3" cy="767.428" r="14.4" fill="#e69f00" fill-rule="evenodd" fill-opacity="1" stroke="#000000" stroke-opacity="1" stroke-width="3.2"/>
<circle clip-path="url(#clip992)" cx="1471.43" cy="789.475" r="14.4" fill="#e69f00" fill-rule="evenodd" fill-opacity="1" stroke="#000000" stroke-opacity="1" stroke-width="3.2"/>
<circle clip-path="url(#clip992)" cx="1016.84" cy="997.264" r="14.4" fill="#e69f00" fill-rule="evenodd" fill-opacity="1" stroke="#000000" stroke-opacity="1" stroke-width="3.2"/>
<circle clip-path="url(#clip992)" cx="1090" cy="797.857" r="14.4" fill="#e69f00" fill-rule="evenodd" fill-opacity="1" stroke="#000000" stroke-opacity="1" stroke-width="3.2"/>
<circle clip-path="url(#clip992)" cx="984.786" cy="1013.72" r="14.4" fill="#e69f00" fill-rule="evenodd" fill-opacity="1" stroke="#000000" stroke-opacity="1" stroke-width="3.2"/>
<circle clip-path="url(#clip992)" cx="982.481" cy="821.927" r="14.4" fill="#e69f00" fill-rule="evenodd" fill-opacity="1" stroke="#000000" stroke-opacity="1" stroke-width="3.2"/>
<circle clip-path="url(#clip992)" cx="1041.74" cy="997.441" r="14.4" fill="#e69f00" fill-rule="evenodd" fill-opacity="1" stroke="#000000" stroke-opacity="1" stroke-width="3.2"/>
<circle clip-path="url(#clip992)" cx="1422.57" cy="801.187" r="14.4" fill="#e69f00" fill-rule="evenodd" fill-opacity="1" stroke="#000000" stroke-opacity="1" stroke-width="3.2"/>
<circle clip-path="url(#clip992)" cx="1568.71" cy="644.793" r="14.4" fill="#e69f00" fill-rule="evenodd" fill-opacity="1" stroke="#000000" stroke-opacity="1" stroke-width="3.2"/>
<circle clip-path="url(#clip992)" cx="1085.42" cy="798.156" r="14.4" fill="#e69f00" fill-rule="evenodd" fill-opacity="1" stroke="#000000" stroke-opacity="1" stroke-width="3.2"/>
<circle clip-path="url(#clip992)" cx="1315.96" cy="675.667" r="14.4" fill="#e69f00" fill-rule="evenodd" fill-opacity="1" stroke="#000000" stroke-opacity="1" stroke-width="3.2"/>
<circle clip-path="url(#clip992)" cx="1336.68" cy="743.342" r="14.4" fill="#e69f00" fill-rule="evenodd" fill-opacity="1" stroke="#000000" stroke-opacity="1" stroke-width="3.2"/>
<path clip-path="url(#clip992)" d="M349.562 1271.64 L532.038 1271.64 L618.087 1271.64 L644.571 1271.64 L645.754 1271.64 L662.152 1271.64 L675.594 1143.09 L687.294 1143.09 L846.216 1143.09 L859.904 1143.09 L875.617 1143.09 L884.782 1143.09 L886.536 1143.09 L901.035 1143.09 L902.676 1143.09 L909.665 1143.09 L922.344 1171.05 L932.725 1171.05 L938.602 1171.05 L947.201 1062.82 L982.481 1062.82 L984.786 1062.82 L998.831 1062.82 L1005.21 1062.82 L1016.84 1062.82 L1041.74 1062.82 L1043.5 1062.82 L1062.76 1030.57 L1066 1030.57 L1068.91 1030.57 L1072.09 1030.57 L1076.48 1030.57 L1083.24 1030.57 L1085.42 1030.57 L1090 1030.57 L1096.51 1013.78 L1114.45 1013.78 L1117.63 1013.78 L1121.72 1013.78 L1125.26 1013.78 L1145.84 1013.78 L1173.75 1013.78 L1214.95 1013.78 L1217.91 1013.78 L1226.01 1013.78 L1233.09 1012.09 L1233.61 1012.09 L1285.46 1012.09 L1286.64 1019.11 L1288.08 1019.11 L1298.05 1019.11 L1304.75 1019.11 L1315.96 1019.11 L1331.11 1019.11 L1336.68 1019.11 L1342.94 1019.11 L1351.04 1019.11 L1360.3 1019.11 L1370.66 1019.11 L1415.3 878.877 L1422.57 878.877 L1436.6 878.877 L1439.98 878.877 L1449.34 878.877 L1455.86 878.877 L1458.57 878.877 L1463.95 878.877 L1471.43 878.877 L1477.7 878.877 L1497.12 878.877 L1508.17 878.877 L1509.03 828.899 L1516.95 828.899 L1522.5 828.899 L1529.2 828.899 L1534.73 828.899 L1545.13 828.899 L1549.29 828.899 L1568.71 828.899 L1593.18 828.899 L1600.16 856.111 L1641.47 856.111 L1659.99 856.111 L1675.48 856.111 L1680.57 856.111 L1689.58 856.111 L1704.42 856.111 L1709.02 856.111 L1711.92 856.111 L1753.82 755.017 L1775.65 755.017 L1802.88 755.621 L1823.23 755.621 L1828.95 682.24 L1945.24 682.24 L2007.53 682.24 L2061.34 682.24 L2066.76 682.24 L2144.96 682.24 L2150.67 682.24 L2150.67 278.244 L2144.96 278.244 L2066.76 278.244 L2061.34 278.244 L2007.53 278.244 L1945.24 278.244 L1828.95 278.244 L1823.23 351.625 L1802.88 351.625 L1775.65 351.021 L1753.82 351.021 L1711.92 452.115 L1709.02 452.115 L1704.42 452.115 L1689.58 452.115 L1680.57 452.115 L1675.48 452.115 L1659.99 452.115 L1641.47 452.115 L1600.16 452.115 L1593.18 424.903 L1568.71 424.903 L1549.29 424.903 L1545.13 424.903 L1534.73 424.903 L1529.2 424.903 L1522.5 424.903 L1516.95 424.903 L1509.03 424.903 L1508.17 474.882 L1497.12 474.882 L1477.7 474.882 L1471.43 474.882 L1463.95 474.882 L1458.57 474.882 L1455.86 474.882 L1449.34 474.882 L1439.98 474.882 L1436.6 474.882 L1422.57 474.882 L1415.3 474.882 L1370.66 615.118 L1360.3 615.118 L1351.04 615.118 L1342.94 615.118 L1336.68 615.118 L1331.11 615.118 L1315.96 615.118 L1304.75 615.118 L1298.05 615.118 L1288.08 615.118 L1286.64 615.118 L1285.46 608.094 L1233.61 608.094 L1233.09 608.094 L1226.01 609.787 L1217.91 609.787 L1214.95 609.787 L1173.75 609.787 L1145.84 609.787 L1125.26 609.787 L1121.72 609.787 L1117.63 609.787 L1114.45 609.787 L1096.51 609.787 L1090 626.574 L1085.42 626.574 L1083.24 626.574 L1076.48 626.574 L1072.09 626.574 L1068.91 626.574 L1066 626.574 L1062.76 626.574 L1043.5 658.827 L1041.74 658.827 L1016.84 658.827 L1005.21 658.827 L998.831 658.827 L984.786 658.827 L982.481 658.827 L947.201 658.827 L938.602 767.052 L932.725 767.052 L922.344 767.052 L909.665 739.098 L902.676 739.098 L901.035 739.098 L886.536 739.098 L884.782 739.098 L875.617 739.098 L859.904 739.098 L846.216 739.098 L687.294 739.098 L675.594 739.098 L662.152 867.641 L645.754 867.641 L644.571 867.641 L618.087 867.641 L532.038 867.641 L349.562 867.641  Z" fill="#56b4e9" fill-rule="evenodd" fill-opacity="0.5"/>
<polyline clip-path="url(#clip992)" style="stroke:#56b4e9; stroke-linecap:round; stroke-linejoin:round; stroke-width:4; stroke-opacity:1; fill:none" points="349.562,1069.64 532.038,1069.64 618.087,1069.64 644.571,1069.64 645.754,1069.64 662.152,1069.64 675.594,941.096 687.294,941.096 846.216,941.096 859.904,941.096 875.617,941.096 884.782,941.096 886.536,941.096 901.035,941.096 902.676,941.096 909.665,941.096 922.344,969.05 932.725,969.05 938.602,969.05 947.201,860.824 982.481,860.824 984.786,860.824 998.831,860.824 1005.21,860.824 1016.84,860.824 1041.74,860.824 1043.5,860.824 1062.76,828.572 1066,828.572 1068.91,828.572 1072.09,828.572 1076.48,828.572 1083.24,828.572 1085.42,828.572 1090,828.572 1096.51,811.785 1114.45,811.785 1117.63,811.785 1121.72,811.785 1125.26,811.785 1145.84,811.785 1173.75,811.785 1214.95,811.785 1217.91,811.785 1226.01,811.785 1233.09,810.091 1233.61,810.091 1285.46,810.091 1286.64,817.116 1288.08,817.116 1298.05,817.116 1304.75,817.116 1315.96,817.116 1331.11,817.116 1336.68,817.116 1342.94,817.116 1351.04,817.116 1360.3,817.116 1370.66,817.116 1415.3,676.88 1422.57,676.88 1436.6,676.88 1439.98,676.88 1449.34,676.88 1455.86,676.88 1458.57,676.88 1463.95,676.88 1471.43,676.88 1477.7,676.88 1497.12,676.88 1508.17,676.88 1509.03,626.901 1516.95,626.901 1522.5,626.901 1529.2,626.901 1534.73,626.901 1545.13,626.901 1549.29,626.901 1568.71,626.901 1593.18,626.901 1600.16,654.113 1641.47,654.113 1659.99,654.113 1675.48,654.113 1680.57,654.113 1689.58,654.113 1704.42,654.113 1709.02,654.113 1711.92,654.113 1753.82,553.019 1775.65,553.019 1802.88,553.623 1823.23,553.623 1828.95,480.242 1945.24,480.242 2007.53,480.242 2061.34,480.242 2066.76,480.242 2144.96,480.242 2150.67,480.242 "/>
<path clip-path="url(#clip990)" d="M220.987 250.738 L662.625 250.738 L662.625 95.2176 L220.987 95.2176  Z" fill="#ffffff" fill-rule="evenodd" fill-opacity="1"/>
<polyline clip-path="url(#clip990)" style="stroke:#000000; stroke-linecap:round; stroke-linejoin:round; stroke-width:4; stroke-opacity:1; fill:none" points="220.987,250.738 662.625,250.738 662.625,95.2176 220.987,95.2176 220.987,250.738 "/>
<circle clip-path="url(#clip990)" cx="319" cy="147.058" r="20.48" fill="#e69f00" fill-rule="evenodd" fill-opacity="1" stroke="#000000" stroke-opacity="1" stroke-width="4.55111"/>
<path clip-path="url(#clip990)" d="M433.03 132.949 Q427.938 132.949 424.929 136.745 Q421.942 140.541 421.942 147.092 Q421.942 153.62 424.929 157.416 Q427.938 161.213 433.03 161.213 Q438.123 161.213 441.086 157.416 Q444.072 153.62 444.072 147.092 Q444.072 140.541 441.086 136.745 Q438.123 132.949 433.03 132.949 M433.03 129.153 Q440.299 129.153 444.651 134.037 Q449.002 138.898 449.002 147.092 Q449.002 155.264 444.651 160.148 Q440.299 165.009 433.03 165.009 Q425.739 165.009 421.364 160.148 Q417.012 155.287 417.012 147.092 Q417.012 138.898 421.364 134.037 Q425.739 129.153 433.03 129.153 Z" fill="#000000" fill-rule="nonzero" fill-opacity="1" /><path clip-path="url(#clip990)" d="M474.743 151.398 Q474.743 146.699 472.799 144.037 Q470.877 141.352 467.498 141.352 Q464.118 141.352 462.174 144.037 Q460.252 146.699 460.252 151.398 Q460.252 156.097 462.174 158.782 Q464.118 161.444 467.498 161.444 Q470.877 161.444 472.799 158.782 Q474.743 156.097 474.743 151.398 M460.252 142.347 Q461.595 140.032 463.632 138.921 Q465.692 137.787 468.539 137.787 Q473.262 137.787 476.201 141.537 Q479.164 145.287 479.164 151.398 Q479.164 157.509 476.201 161.259 Q473.262 165.009 468.539 165.009 Q465.692 165.009 463.632 163.898 Q461.595 162.763 460.252 160.449 L460.252 164.338 L455.97 164.338 L455.97 128.319 L460.252 128.319 L460.252 142.347 Z" fill="#000000" fill-rule="nonzero" fill-opacity="1" /><path clip-path="url(#clip990)" d="M502.752 139.176 L502.752 143.203 Q500.947 142.277 499.002 141.815 Q497.058 141.352 494.974 141.352 Q491.803 141.352 490.206 142.324 Q488.632 143.296 488.632 145.24 Q488.632 146.722 489.766 147.578 Q490.9 148.412 494.326 149.176 L495.785 149.5 Q500.322 150.472 502.22 152.254 Q504.141 154.014 504.141 157.185 Q504.141 160.796 501.271 162.902 Q498.423 165.009 493.424 165.009 Q491.34 165.009 489.072 164.592 Q486.826 164.199 484.326 163.388 L484.326 158.99 Q486.687 160.217 488.979 160.842 Q491.271 161.444 493.516 161.444 Q496.525 161.444 498.146 160.426 Q499.766 159.384 499.766 157.509 Q499.766 155.773 498.586 154.847 Q497.428 153.921 493.47 153.064 L491.988 152.717 Q488.03 151.884 486.271 150.171 Q484.512 148.435 484.512 145.426 Q484.512 141.768 487.104 139.778 Q489.697 137.787 494.465 137.787 Q496.826 137.787 498.91 138.134 Q500.993 138.481 502.752 139.176 Z" fill="#000000" fill-rule="nonzero" fill-opacity="1" /><path clip-path="url(#clip990)" d="M533.099 150.31 L533.099 152.393 L513.516 152.393 Q513.794 156.791 516.155 159.106 Q518.539 161.398 522.775 161.398 Q525.229 161.398 527.521 160.796 Q529.835 160.194 532.104 158.99 L532.104 163.018 Q529.812 163.99 527.405 164.5 Q524.997 165.009 522.521 165.009 Q516.317 165.009 512.683 161.398 Q509.072 157.787 509.072 151.629 Q509.072 145.264 512.497 141.537 Q515.947 137.787 521.78 137.787 Q527.011 137.787 530.044 141.166 Q533.099 144.523 533.099 150.31 M528.84 149.06 Q528.794 145.565 526.872 143.481 Q524.974 141.398 521.826 141.398 Q518.261 141.398 516.109 143.412 Q513.979 145.426 513.655 149.083 L528.84 149.06 Z" fill="#000000" fill-rule="nonzero" fill-opacity="1" /><path clip-path="url(#clip990)" d="M555.113 142.393 Q554.395 141.977 553.539 141.791 Q552.706 141.583 551.687 141.583 Q548.076 141.583 546.132 143.944 Q544.21 146.282 544.21 150.68 L544.21 164.338 L539.928 164.338 L539.928 138.412 L544.21 138.412 L544.21 142.44 Q545.553 140.078 547.706 138.944 Q549.858 137.787 552.937 137.787 Q553.377 137.787 553.909 137.856 Q554.442 137.903 555.09 138.018 L555.113 142.393 Z" fill="#000000" fill-rule="nonzero" fill-opacity="1" /><path clip-path="url(#clip990)" d="M556.525 138.412 L561.039 138.412 L569.141 160.171 L577.243 138.412 L581.756 138.412 L572.034 164.338 L566.247 164.338 L556.525 138.412 Z" fill="#000000" fill-rule="nonzero" fill-opacity="1" /><path clip-path="url(#clip990)" d="M609.812 150.31 L609.812 152.393 L590.229 152.393 Q590.506 156.791 592.867 159.106 Q595.252 161.398 599.488 161.398 Q601.941 161.398 604.233 160.796 Q606.548 160.194 608.816 158.99 L608.816 163.018 Q606.525 163.99 604.117 164.5 Q601.71 165.009 599.233 165.009 Q593.029 165.009 589.395 161.398 Q585.784 157.787 585.784 151.629 Q585.784 145.264 589.21 141.537 Q592.659 137.787 598.492 137.787 Q603.724 137.787 606.756 141.166 Q609.812 144.523 609.812 150.31 M605.553 149.06 Q605.506 145.565 603.585 143.481 Q601.687 141.398 598.539 141.398 Q594.974 141.398 592.821 143.412 Q590.692 145.426 590.367 149.083 L605.553 149.06 Z" fill="#000000" fill-rule="nonzero" fill-opacity="1" /><path clip-path="url(#clip990)" d="M633.863 142.347 L633.863 128.319 L638.122 128.319 L638.122 164.338 L633.863 164.338 L633.863 160.449 Q632.52 162.763 630.46 163.898 Q628.423 165.009 625.552 165.009 Q620.853 165.009 617.89 161.259 Q614.951 157.509 614.951 151.398 Q614.951 145.287 617.89 141.537 Q620.853 137.787 625.552 137.787 Q628.423 137.787 630.46 138.921 Q632.52 140.032 633.863 142.347 M619.349 151.398 Q619.349 156.097 621.27 158.782 Q623.214 161.444 626.594 161.444 Q629.974 161.444 631.918 158.782 Q633.863 156.097 633.863 151.398 Q633.863 146.699 631.918 144.037 Q629.974 141.352 626.594 141.352 Q623.214 141.352 621.27 144.037 Q619.349 146.699 619.349 151.398 Z" fill="#000000" fill-rule="nonzero" fill-opacity="1" /><polyline clip-path="url(#clip990)" style="stroke:#56b4e9; stroke-linecap:round; stroke-linejoin:round; stroke-width:4; stroke-opacity:1; fill:none" points="245.49,198.898 392.509,198.898 "/>
<path clip-path="url(#clip990)" d="M421.688 185.46 L421.688 198.446 L427.567 198.446 Q430.831 198.446 432.614 196.756 Q434.396 195.067 434.396 191.942 Q434.396 188.84 432.614 187.15 Q430.831 185.46 427.567 185.46 L421.688 185.46 M417.012 181.618 L427.567 181.618 Q433.378 181.618 436.34 184.256 Q439.327 186.872 439.327 191.942 Q439.327 197.057 436.34 199.673 Q433.378 202.289 427.567 202.289 L421.688 202.289 L421.688 216.178 L417.012 216.178 L417.012 181.618 Z" fill="#000000" fill-rule="nonzero" fill-opacity="1" /><path clip-path="url(#clip990)" d="M459.604 194.233 Q458.887 193.817 458.03 193.631 Q457.197 193.423 456.178 193.423 Q452.567 193.423 450.623 195.784 Q448.702 198.122 448.702 202.52 L448.702 216.178 L444.419 216.178 L444.419 190.252 L448.702 190.252 L448.702 194.28 Q450.044 191.918 452.197 190.784 Q454.35 189.627 457.428 189.627 Q457.868 189.627 458.401 189.696 Q458.933 189.743 459.581 189.858 L459.604 194.233 Z" fill="#000000" fill-rule="nonzero" fill-opacity="1" /><path clip-path="url(#clip990)" d="M485.206 202.15 L485.206 204.233 L465.623 204.233 Q465.901 208.631 468.262 210.946 Q470.646 213.238 474.882 213.238 Q477.336 213.238 479.627 212.636 Q481.942 212.034 484.211 210.83 L484.211 214.858 Q481.919 215.83 479.512 216.34 Q477.104 216.849 474.627 216.849 Q468.424 216.849 464.789 213.238 Q461.178 209.627 461.178 203.469 Q461.178 197.104 464.604 193.377 Q468.053 189.627 473.887 189.627 Q479.118 189.627 482.15 193.006 Q485.206 196.363 485.206 202.15 M480.947 200.9 Q480.9 197.405 478.979 195.321 Q477.081 193.238 473.933 193.238 Q470.368 193.238 468.215 195.252 Q466.086 197.266 465.762 200.923 L480.947 200.9 Z" fill="#000000" fill-rule="nonzero" fill-opacity="1" /><path clip-path="url(#clip990)" d="M509.257 194.187 L509.257 180.159 L513.516 180.159 L513.516 216.178 L509.257 216.178 L509.257 212.289 Q507.914 214.603 505.854 215.738 Q503.817 216.849 500.947 216.849 Q496.248 216.849 493.285 213.099 Q490.345 209.349 490.345 203.238 Q490.345 197.127 493.285 193.377 Q496.248 189.627 500.947 189.627 Q503.817 189.627 505.854 190.761 Q507.914 191.872 509.257 194.187 M494.743 203.238 Q494.743 207.937 496.664 210.622 Q498.609 213.284 501.988 213.284 Q505.368 213.284 507.312 210.622 Q509.257 207.937 509.257 203.238 Q509.257 198.539 507.312 195.877 Q505.368 193.192 501.988 193.192 Q498.609 193.192 496.664 195.877 Q494.743 198.539 494.743 203.238 Z" fill="#000000" fill-rule="nonzero" fill-opacity="1" /><path clip-path="url(#clip990)" d="M522.289 190.252 L526.548 190.252 L526.548 216.178 L522.289 216.178 L522.289 190.252 M522.289 180.159 L526.548 180.159 L526.548 185.553 L522.289 185.553 L522.289 180.159 Z" fill="#000000" fill-rule="nonzero" fill-opacity="1" /><path clip-path="url(#clip990)" d="M554.118 191.247 L554.118 195.229 Q552.312 194.233 550.483 193.747 Q548.678 193.238 546.826 193.238 Q542.683 193.238 540.391 195.877 Q538.099 198.492 538.099 203.238 Q538.099 207.983 540.391 210.622 Q542.683 213.238 546.826 213.238 Q548.678 213.238 550.483 212.752 Q552.312 212.242 554.118 211.247 L554.118 215.182 Q552.335 216.016 550.414 216.432 Q548.516 216.849 546.363 216.849 Q540.507 216.849 537.058 213.168 Q533.608 209.488 533.608 203.238 Q533.608 196.895 537.081 193.261 Q540.576 189.627 546.641 189.627 Q548.608 189.627 550.483 190.043 Q552.358 190.437 554.118 191.247 Z" fill="#000000" fill-rule="nonzero" fill-opacity="1" /><path clip-path="url(#clip990)" d="M565.738 182.891 L565.738 190.252 L574.511 190.252 L574.511 193.562 L565.738 193.562 L565.738 207.636 Q565.738 210.807 566.594 211.71 Q567.474 212.613 570.136 212.613 L574.511 212.613 L574.511 216.178 L570.136 216.178 Q565.206 216.178 563.331 214.349 Q561.456 212.497 561.456 207.636 L561.456 193.562 L558.331 193.562 L558.331 190.252 L561.456 190.252 L561.456 182.891 L565.738 182.891 Z" fill="#000000" fill-rule="nonzero" fill-opacity="1" /><path clip-path="url(#clip990)" d="M602.289 202.15 L602.289 204.233 L582.705 204.233 Q582.983 208.631 585.344 210.946 Q587.729 213.238 591.965 213.238 Q594.418 213.238 596.71 212.636 Q599.025 212.034 601.293 210.83 L601.293 214.858 Q599.002 215.83 596.594 216.34 Q594.187 216.849 591.71 216.849 Q585.506 216.849 581.872 213.238 Q578.261 209.627 578.261 203.469 Q578.261 197.104 581.687 193.377 Q585.136 189.627 590.969 189.627 Q596.201 189.627 599.233 193.006 Q602.289 196.363 602.289 202.15 M598.029 200.9 Q597.983 197.405 596.062 195.321 Q594.164 193.238 591.016 193.238 Q587.451 193.238 585.298 195.252 Q583.168 197.266 582.844 200.923 L598.029 200.9 Z" fill="#000000" fill-rule="nonzero" fill-opacity="1" /><path clip-path="url(#clip990)" d="M626.339 194.187 L626.339 180.159 L630.599 180.159 L630.599 216.178 L626.339 216.178 L626.339 212.289 Q624.997 214.603 622.937 215.738 Q620.9 216.849 618.029 216.849 Q613.33 216.849 610.367 213.099 Q607.428 209.349 607.428 203.238 Q607.428 197.127 610.367 193.377 Q613.33 189.627 618.029 189.627 Q620.9 189.627 622.937 190.761 Q624.997 191.872 626.339 194.187 M611.826 203.238 Q611.826 207.937 613.747 210.622 Q615.691 213.284 619.071 213.284 Q622.451 213.284 624.395 210.622 Q626.339 207.937 626.339 203.238 Q626.339 198.539 624.395 195.877 Q622.451 193.192 619.071 193.192 Q615.691 193.192 613.747 195.877 Q611.826 198.539 611.826 203.238 Z" fill="#000000" fill-rule="nonzero" fill-opacity="1" /></svg>
