<?xml version="1.0" encoding="UTF-8"?>
<!DOCTYPE svg PUBLIC "-//W3C//DTD SVG 1.1//EN"
 "http://www.w3.org/Graphics/SVG/1.1/DTD/svg11.dtd">
<svg xmlns="http://www.w3.org/2000/svg" version="1.1"
     width="150mm" height="150mm"
     viewBox="0 0 28 28" preserveAspectRatio="none"
     shape-rendering="crispEdges" stroke="none">
<rect width=".81" height=".81" x="0" y="0" fill="#000000" />
<rect width=".81" height=".81" x="1" y="0" fill="#000000" />
<rect width=".81" height=".81" x="2" y="0" fill="#000000" />
<rect width=".81" height=".81" x="3" y="0" fill="#000000" />
<rect width=".81" height=".81" x="4" y="0" fill="#000000" />
<rect width=".81" height=".81" x="5" y="0" fill="#000000" />
<rect width=".81" height=".81" x="6" y="0" fill="#000000" />
<rect width=".81" height=".81" x="7" y="0" fill="#000000" />
<rect width=".81" height=".81" x="8" y="0" fill="#000000" />
<rect width=".81" height=".81" x="9" y="0" fill="#000000" />
<rect width=".81" height=".81" x="10" y="0" fill="#000000" />
<rect width=".81" height=".81" x="11" y="0" fill="#000000" />
<rect width=".81" height=".81" x="12" y="0" fill="#000000" />
<rect width=".81" height=".81" x="13" y="0" fill="#000000" />
<rect width=".81" height=".81" x="14" y="0" fill="#000000" />
<rect width=".81" height=".81" x="15" y="0" fill="#000000" />
<rect width=".81" height=".81" x="16" y="0" fill="#000000" />
<rect width=".81" height=".81" x="17" y="0" fill="#000000" />
<rect width=".81" height=".81" x="18" y="0" fill="#000000" />
<rect width=".81" height=".81" x="19" y="0" fill="#000000" />
<rect width=".81" height=".81" x="20" y="0" fill="#000000" />
<rect width=".81" height=".81" x="21" y="0" fill="#000000" />
<rect width=".81" height=".81" x="22" y="0" fill="#000000" />
<rect width=".81" height=".81" x="23" y="0" fill="#000000" />
<rect width=".81" height=".81" x="24" y="0" fill="#000000" />
<rect width=".81" height=".81" x="25" y="0" fill="#000000" />
<rect width=".81" height=".81" x="26" y="0" fill="#000000" />
<rect width=".81" height=".81" x="27" y="0" fill="#000000" />
<rect width=".81" height=".81" x="0" y="1" fill="#000000" />
<rect width=".81" height=".81" x="1" y="1" fill="#000000" />
<rect width=".81" height=".81" x="2" y="1" fill="#000000" />
<rect width=".81" height=".81" x="3" y="1" fill="#000000" />
<rect width=".81" height=".81" x="4" y="1" fill="#000000" />
<rect width=".81" height=".81" x="5" y="1" fill="#000000" />
<rect width=".81" height=".81" x="6" y="1" fill="#000000" />
<rect width=".81" height=".81" x="7" y="1" fill="#000000" />
<rect width=".81" height=".81" x="8" y="1" fill="#000000" />
<rect width=".81" height=".81" x="9" y="1" fill="#000000" />
<rect width=".81" height=".81" x="10" y="1" fill="#000000" />
<rect width=".81" height=".81" x="11" y="1" fill="#000000" />
<rect width=".81" height=".81" x="12" y="1" fill="#000000" />
<rect width=".81" height=".81" x="13" y="1" fill="#000000" />
<rect width=".81" height=".81" x="14" y="1" fill="#000000" />
<rect width=".81" height=".81" x="15" y="1" fill="#000000" />
<rect width=".81" height=".81" x="16" y="1" fill="#000000" />
<rect width=".81" height=".81" x="17" y="1" fill="#000000" />
<rect width=".81" height=".81" x="18" y="1" fill="#000000" />
<rect width=".81" height=".81" x="19" y="1" fill="#000000" />
<rect width=".81" height=".81" x="20" y="1" fill="#000000" />
<rect width=".81" height=".81" x="21" y="1" fill="#000000" />
<rect width=".81" height=".81" x="22" y="1" fill="#000000" />
<rect width=".81" height=".81" x="23" y="1" fill="#000000" />
<rect width=".81" height=".81" x="24" y="1" fill="#000000" />
<rect width=".81" height=".81" x="25" y="1" fill="#000000" />
<rect width=".81" height=".81" x="26" y="1" fill="#000000" />
<rect width=".81" height=".81" x="27" y="1" fill="#000000" />
<rect width=".81" height=".81" x="0" y="2" fill="#000000" />
<rect width=".81" height=".81" x="1" y="2" fill="#000000" />
<rect width=".81" height=".81" x="2" y="2" fill="#000000" />
<rect width=".81" height=".81" x="3" y="2" fill="#000000" />
<rect width=".81" height=".81" x="4" y="2" fill="#000000" />
<rect width=".81" height=".81" x="5" y="2" fill="#000000" />
<rect width=".81" height=".81" x="6" y="2" fill="#000000" />
<rect width=".81" height=".81" x="7" y="2" fill="#000000" />
<rect width=".81" height=".81" x="8" y="2" fill="#000000" />
<rect width=".81" height=".81" x="9" y="2" fill="#000000" />
<rect width=".81" height=".81" x="10" y="2" fill="#000000" />
<rect width=".81" height=".81" x="11" y="2" fill="#000000" />
<rect width=".81" height=".81" x="12" y="2" fill="#000000" />
<rect width=".81" height=".81" x="13" y="2" fill="#000000" />
<rect width=".81" height=".81" x="14" y="2" fill="#000000" />
<rect width=".81" height=".81" x="15" y="2" fill="#000000" />
<rect width=".81" height=".81" x="16" y="2" fill="#000000" />
<rect width=".81" height=".81" x="17" y="2" fill="#000000" />
<rect width=".81" height=".81" x="18" y="2" fill="#000000" />
<rect width=".81" height=".81" x="19" y="2" fill="#000000" />
<rect width=".81" height=".81" x="20" y="2" fill="#000000" />
<rect width=".81" height=".81" x="21" y="2" fill="#000000" />
<rect width=".81" height=".81" x="22" y="2" fill="#000000" />
<rect width=".81" height=".81" x="23" y="2" fill="#000000" />
<rect width=".81" height=".81" x="24" y="2" fill="#000000" />
<rect width=".81" height=".81" x="25" y="2" fill="#000000" />
<rect width=".81" height=".81" x="26" y="2" fill="#000000" />
<rect width=".81" height=".81" x="27" y="2" fill="#000000" />
<rect width=".81" height=".81" x="0" y="3" fill="#000000" />
<rect width=".81" height=".81" x="1" y="3" fill="#000000" />
<rect width=".81" height=".81" x="2" y="3" fill="#000000" />
<rect width=".81" height=".81" x="3" y="3" fill="#000000" />
<rect width=".81" height=".81" x="4" y="3" fill="#000000" />
<rect width=".81" height=".81" x="5" y="3" fill="#000000" />
<rect width=".81" height=".81" x="6" y="3" fill="#000000" />
<rect width=".81" height=".81" x="7" y="3" fill="#000000" />
<rect width=".81" height=".81" x="8" y="3" fill="#000000" />
<rect width=".81" height=".81" x="9" y="3" fill="#000000" />
<rect width=".81" height=".81" x="10" y="3" fill="#000000" />
<rect width=".81" height=".81" x="11" y="3" fill="#000000" />
<rect width=".81" height=".81" x="12" y="3" fill="#000000" />
<rect width=".81" height=".81" x="13" y="3" fill="#000000" />
<rect width=".81" height=".81" x="14" y="3" fill="#000000" />
<rect width=".81" height=".81" x="15" y="3" fill="#000000" />
<rect width=".81" height=".81" x="16" y="3" fill="#000000" />
<rect width=".81" height=".81" x="17" y="3" fill="#000000" />
<rect width=".81" height=".81" x="18" y="3" fill="#000000" />
<rect width=".81" height=".81" x="19" y="3" fill="#000000" />
<rect width=".81" height=".81" x="20" y="3" fill="#000000" />
<rect width=".81" height=".81" x="21" y="3" fill="#000000" />
<rect width=".81" height=".81" x="22" y="3" fill="#000000" />
<rect width=".81" height=".81" x="23" y="3" fill="#000000" />
<rect width=".81" height=".81" x="24" y="3" fill="#000000" />
<rect width=".81" height=".81" x="25" y="3" fill="#000000" />
<rect width=".81" height=".81" x="26" y="3" fill="#000000" />
<rect width=".81" height=".81" x="27" y="3" fill="#000000" />
<rect width=".81" height=".81" x="0" y="4" fill="#000000" />
<rect width=".81" height=".81" x="1" y="4" fill="#000000" />
<rect width=".81" height=".81" x="2" y="4" fill="#000000" />
<rect width=".81" height=".81" x="3" y="4" fill="#000000" />
<rect width=".81" height=".81" x="4" y="4" fill="#000000" />
<rect width=".81" height=".81" x="5" y="4" fill="#000000" />
<rect width=".81" height=".81" x="6" y="4" fill="#000000" />
<rect width=".81" height=".81" x="7" y="4" fill="#000000" />
<rect width=".81" height=".81" x="8" y="4" fill="#000000" />
<rect width=".81" height=".81" x="9" y="4" fill="#000000" />
<rect width=".81" height=".81" x="10" y="4" fill="#000000" />
<rect width=".81" height=".81" x="11" y="4" fill="#000000" />
<rect width=".81" height=".81" x="12" y="4" fill="#000000" />
<rect width=".81" height=".81" x="13" y="4" fill="#000000" />
<rect width=".81" height=".81" x="14" y="4" fill="#000000" />
<rect width=".81" height=".81" x="15" y="4" fill="#000000" />
<rect width=".81" height=".81" x="16" y="4" fill="#000000" />
<rect width=".81" height=".81" x="17" y="4" fill="#000000" />
<rect width=".81" height=".81" x="18" y="4" fill="#000000" />
<rect width=".81" height=".81" x="19" y="4" fill="#000000" />
<rect width=".81" height=".81" x="20" y="4" fill="#000000" />
<rect width=".81" height=".81" x="21" y="4" fill="#000000" />
<rect width=".81" height=".81" x="22" y="4" fill="#000000" />
<rect width=".81" height=".81" x="23" y="4" fill="#000000" />
<rect width=".81" height=".81" x="24" y="4" fill="#000000" />
<rect width=".81" height=".81" x="25" y="4" fill="#000000" />
<rect width=".81" height=".81" x="26" y="4" fill="#000000" />
<rect width=".81" height=".81" x="27" y="4" fill="#000000" />
<rect width=".81" height=".81" x="0" y="5" fill="#000000" />
<rect width=".81" height=".81" x="1" y="5" fill="#000000" />
<rect width=".81" height=".81" x="2" y="5" fill="#000000" />
<rect width=".81" height=".81" x="3" y="5" fill="#000000" />
<rect width=".81" height=".81" x="4" y="5" fill="#000000" />
<rect width=".81" height=".81" x="5" y="5" fill="#000000" />
<rect width=".81" height=".81" x="6" y="5" fill="#000000" />
<rect width=".81" height=".81" x="7" y="5" fill="#000000" />
<rect width=".81" height=".81" x="8" y="5" fill="#000000" />
<rect width=".81" height=".81" x="9" y="5" fill="#000000" />
<rect width=".81" height=".81" x="10" y="5" fill="#000000" />
<rect width=".81" height=".81" x="11" y="5" fill="#000000" />
<rect width=".81" height=".81" x="12" y="5" fill="#000000" />
<rect width=".81" height=".81" x="13" y="5" fill="#000000" />
<rect width=".81" height=".81" x="14" y="5" fill="#000000" />
<rect width=".81" height=".81" x="15" y="5" fill="#000000" />
<rect width=".81" height=".81" x="16" y="5" fill="#000000" />
<rect width=".81" height=".81" x="17" y="5" fill="#000000" />
<rect width=".81" height=".81" x="18" y="5" fill="#000000" />
<rect width=".81" height=".81" x="19" y="5" fill="#000000" />
<rect width=".81" height=".81" x="20" y="5" fill="#000000" />
<rect width=".81" height=".81" x="21" y="5" fill="#000000" />
<rect width=".81" height=".81" x="22" y="5" fill="#000000" />
<rect width=".81" height=".81" x="23" y="5" fill="#000000" />
<rect width=".81" height=".81" x="24" y="5" fill="#000000" />
<rect width=".81" height=".81" x="25" y="5" fill="#000000" />
<rect width=".81" height=".81" x="26" y="5" fill="#000000" />
<rect width=".81" height=".81" x="27" y="5" fill="#000000" />
<rect width=".81" height=".81" x="0" y="6" fill="#000000" />
<rect width=".81" height=".81" x="1" y="6" fill="#000000" />
<rect width=".81" height=".81" x="2" y="6" fill="#000000" />
<rect width=".81" height=".81" x="3" y="6" fill="#000000" />
<rect width=".81" height=".81" x="4" y="6" fill="#000000" />
<rect width=".81" height=".81" x="5" y="6" fill="#000000" />
<rect width=".81" height=".81" x="6" y="6" fill="#000000" />
<rect width=".81" height=".81" x="7" y="6" fill="#000000" />
<rect width=".81" height=".81" x="8" y="6" fill="#5A5A5A" />
<rect width=".81" height=".81" x="9" y="6" fill="#0A0A0A" />
<rect width=".81" height=".81" x="10" y="6" fill="#000000" />
<rect width=".81" height=".81" x="11" y="6" fill="#000000" />
<rect width=".81" height=".81" x="12" y="6" fill="#000000" />
<rect width=".81" height=".81" x="13" y="6" fill="#000000" />
<rect width=".81" height=".81" x="14" y="6" fill="#000000" />
<rect width=".81" height=".81" x="15" y="6" fill="#000000" />
<rect width=".81" height=".81" x="16" y="6" fill="#000000" />
<rect width=".81" height=".81" x="17" y="6" fill="#000000" />
<rect width=".81" height=".81" x="18" y="6" fill="#000000" />
<rect width=".81" height=".81" x="19" y="6" fill="#000000" />
<rect width=".81" height=".81" x="20" y="6" fill="#000000" />
<rect width=".81" height=".81" x="21" y="6" fill="#000000" />
<rect width=".81" height=".81" x="22" y="6" fill="#000000" />
<rect width=".81" height=".81" x="23" y="6" fill="#000000" />
<rect width=".81" height=".81" x="24" y="6" fill="#000000" />
<rect width=".81" height=".81" x="25" y="6" fill="#000000" />
<rect width=".81" height=".81" x="26" y="6" fill="#000000" />
<rect width=".81" height=".81" x="27" y="6" fill="#000000" />
<rect width=".81" height=".81" x="0" y="7" fill="#000000" />
<rect width=".81" height=".81" x="1" y="7" fill="#000000" />
<rect width=".81" height=".81" x="2" y="7" fill="#000000" />
<rect width=".81" height=".81" x="3" y="7" fill="#000000" />
<rect width=".81" height=".81" x="4" y="7" fill="#000000" />
<rect width=".81" height=".81" x="5" y="7" fill="#000000" />
<rect width=".81" height=".81" x="6" y="7" fill="#000000" />
<rect width=".81" height=".81" x="7" y="7" fill="#272727" />
<rect width=".81" height=".81" x="8" y="7" fill="#F5F5F5" />
<rect width=".81" height=".81" x="9" y="7" fill="#626262" />
<rect width=".81" height=".81" x="10" y="7" fill="#0D0D0D" />
<rect width=".81" height=".81" x="11" y="7" fill="#2B2B2B" />
<rect width=".81" height=".81" x="12" y="7" fill="#121212" />
<rect width=".81" height=".81" x="13" y="7" fill="#262626" />
<rect width=".81" height=".81" x="14" y="7" fill="#A5A5A5" />
<rect width=".81" height=".81" x="15" y="7" fill="#D6D6D6" />
<rect width=".81" height=".81" x="16" y="7" fill="#D6D6D6" />
<rect width=".81" height=".81" x="17" y="7" fill="#D7D7D7" />
<rect width=".81" height=".81" x="18" y="7" fill="#D6D6D6" />
<rect width=".81" height=".81" x="19" y="7" fill="#8E8E8E" />
<rect width=".81" height=".81" x="20" y="7" fill="#151515" />
<rect width=".81" height=".81" x="21" y="7" fill="#000000" />
<rect width=".81" height=".81" x="22" y="7" fill="#000000" />
<rect width=".81" height=".81" x="23" y="7" fill="#000000" />
<rect width=".81" height=".81" x="24" y="7" fill="#000000" />
<rect width=".81" height=".81" x="25" y="7" fill="#000000" />
<rect width=".81" height=".81" x="26" y="7" fill="#000000" />
<rect width=".81" height=".81" x="27" y="7" fill="#000000" />
<rect width=".81" height=".81" x="0" y="8" fill="#000000" />
<rect width=".81" height=".81" x="1" y="8" fill="#000000" />
<rect width=".81" height=".81" x="2" y="8" fill="#000000" />
<rect width=".81" height=".81" x="3" y="8" fill="#000000" />
<rect width=".81" height=".81" x="4" y="8" fill="#000000" />
<rect width=".81" height=".81" x="5" y="8" fill="#000000" />
<rect width=".81" height=".81" x="6" y="8" fill="#000000" />
<rect width=".81" height=".81" x="7" y="8" fill="#797979" />
<rect width=".81" height=".81" x="8" y="8" fill="#FDFDFD" />
<rect width=".81" height=".81" x="9" y="8" fill="#FDFDFD" />
<rect width=".81" height=".81" x="10" y="8" fill="#D1D1D1" />
<rect width=".81" height=".81" x="11" y="8" fill="#E5E5E5" />
<rect width=".81" height=".81" x="12" y="8" fill="#D4D4D4" />
<rect width=".81" height=".81" x="13" y="8" fill="#E1E1E1" />
<rect width=".81" height=".81" x="14" y="8" fill="#FDFDFD" />
<rect width=".81" height=".81" x="15" y="8" fill="#FDFDFD" />
<rect width=".81" height=".81" x="16" y="8" fill="#FDFDFD" />
<rect width=".81" height=".81" x="17" y="8" fill="#FEFEFE" />
<rect width=".81" height=".81" x="18" y="8" fill="#E1E1E1" />
<rect width=".81" height=".81" x="19" y="8" fill="#131313" />
<rect width=".81" height=".81" x="20" y="8" fill="#000000" />
<rect width=".81" height=".81" x="21" y="8" fill="#000000" />
<rect width=".81" height=".81" x="22" y="8" fill="#000000" />
<rect width=".81" height=".81" x="23" y="8" fill="#000000" />
<rect width=".81" height=".81" x="24" y="8" fill="#000000" />
<rect width=".81" height=".81" x="25" y="8" fill="#000000" />
<rect width=".81" height=".81" x="26" y="8" fill="#000000" />
<rect width=".81" height=".81" x="27" y="8" fill="#000000" />
<rect width=".81" height=".81" x="0" y="9" fill="#000000" />
<rect width=".81" height=".81" x="1" y="9" fill="#000000" />
<rect width=".81" height=".81" x="2" y="9" fill="#000000" />
<rect width=".81" height=".81" x="3" y="9" fill="#000000" />
<rect width=".81" height=".81" x="4" y="9" fill="#000000" />
<rect width=".81" height=".81" x="5" y="9" fill="#000000" />
<rect width=".81" height=".81" x="6" y="9" fill="#000000" />
<rect width=".81" height=".81" x="7" y="9" fill="#606060" />
<rect width=".81" height=".81" x="8" y="9" fill="#C7C7C7" />
<rect width=".81" height=".81" x="9" y="9" fill="#F8F8F8" />
<rect width=".81" height=".81" x="10" y="9" fill="#FDFDFD" />
<rect width=".81" height=".81" x="11" y="9" fill="#FDFDFD" />
<rect width=".81" height=".81" x="12" y="9" fill="#FDFDFD" />
<rect width=".81" height=".81" x="13" y="9" fill="#FDFDFD" />
<rect width=".81" height=".81" x="14" y="9" fill="#FDFDFD" />
<rect width=".81" height=".81" x="15" y="9" fill="#FAFAFA" />
<rect width=".81" height=".81" x="16" y="9" fill="#C7C7C7" />
<rect width=".81" height=".81" x="17" y="9" fill="#434343" />
<rect width=".81" height=".81" x="18" y="9" fill="#262626" />
<rect width=".81" height=".81" x="19" y="9" fill="#000000" />
<rect width=".81" height=".81" x="20" y="9" fill="#000000" />
<rect width=".81" height=".81" x="21" y="9" fill="#000000" />
<rect width=".81" height=".81" x="22" y="9" fill="#000000" />
<rect width=".81" height=".81" x="23" y="9" fill="#000000" />
<rect width=".81" height=".81" x="24" y="9" fill="#000000" />
<rect width=".81" height=".81" x="25" y="9" fill="#000000" />
<rect width=".81" height=".81" x="26" y="9" fill="#000000" />
<rect width=".81" height=".81" x="27" y="9" fill="#000000" />
<rect width=".81" height=".81" x="0" y="10" fill="#000000" />
<rect width=".81" height=".81" x="1" y="10" fill="#000000" />
<rect width=".81" height=".81" x="2" y="10" fill="#000000" />
<rect width=".81" height=".81" x="3" y="10" fill="#000000" />
<rect width=".81" height=".81" x="4" y="10" fill="#000000" />
<rect width=".81" height=".81" x="5" y="10" fill="#000000" />
<rect width=".81" height=".81" x="6" y="10" fill="#000000" />
<rect width=".81" height=".81" x="7" y="10" fill="#000000" />
<rect width=".81" height=".81" x="8" y="10" fill="#121212" />
<rect width=".81" height=".81" x="9" y="10" fill="#E8E8E8" />
<rect width=".81" height=".81" x="10" y="10" fill="#F0F0F0" />
<rect width=".81" height=".81" x="11" y="10" fill="#6B6B6B" />
<rect width=".81" height=".81" x="12" y="10" fill="#505050" />
<rect width=".81" height=".81" x="13" y="10" fill="#505050" />
<rect width=".81" height=".81" x="14" y="10" fill="#505050" />
<rect width=".81" height=".81" x="15" y="10" fill="#4B4B4B" />
<rect width=".81" height=".81" x="16" y="10" fill="#000000" />
<rect width=".81" height=".81" x="17" y="10" fill="#000000" />
<rect width=".81" height=".81" x="18" y="10" fill="#000000" />
<rect width=".81" height=".81" x="19" y="10" fill="#000000" />
<rect width=".81" height=".81" x="20" y="10" fill="#000000" />
<rect width=".81" height=".81" x="21" y="10" fill="#000000" />
<rect width=".81" height=".81" x="22" y="10" fill="#000000" />
<rect width=".81" height=".81" x="23" y="10" fill="#000000" />
<rect width=".81" height=".81" x="24" y="10" fill="#000000" />
<rect width=".81" height=".81" x="25" y="10" fill="#000000" />
<rect width=".81" height=".81" x="26" y="10" fill="#000000" />
<rect width=".81" height=".81" x="27" y="10" fill="#000000" />
<rect width=".81" height=".81" x="0" y="11" fill="#000000" />
<rect width=".81" height=".81" x="1" y="11" fill="#000000" />
<rect width=".81" height=".81" x="2" y="11" fill="#000000" />
<rect width=".81" height=".81" x="3" y="11" fill="#000000" />
<rect width=".81" height=".81" x="4" y="11" fill="#000000" />
<rect width=".81" height=".81" x="5" y="11" fill="#000000" />
<rect width=".81" height=".81" x="6" y="11" fill="#000000" />
<rect width=".81" height=".81" x="7" y="11" fill="#000000" />
<rect width=".81" height=".81" x="8" y="11" fill="#7A7A7A" />
<rect width=".81" height=".81" x="9" y="11" fill="#FDFDFD" />
<rect width=".81" height=".81" x="10" y="11" fill="#9E9E9E" />
<rect width=".81" height=".81" x="11" y="11" fill="#000000" />
<rect width=".81" height=".81" x="12" y="11" fill="#000000" />
<rect width=".81" height=".81" x="13" y="11" fill="#000000" />
<rect width=".81" height=".81" x="14" y="11" fill="#000000" />
<rect width=".81" height=".81" x="15" y="11" fill="#000000" />
<rect width=".81" height=".81" x="16" y="11" fill="#000000" />
<rect width=".81" height=".81" x="17" y="11" fill="#000000" />
<rect width=".81" height=".81" x="18" y="11" fill="#000000" />
<rect width=".81" height=".81" x="19" y="11" fill="#000000" />
<rect width=".81" height=".81" x="20" y="11" fill="#000000" />
<rect width=".81" height=".81" x="21" y="11" fill="#000000" />
<rect width=".81" height=".81" x="22" y="11" fill="#000000" />
<rect width=".81" height=".81" x="23" y="11" fill="#000000" />
<rect width=".81" height=".81" x="24" y="11" fill="#000000" />
<rect width=".81" height=".81" x="25" y="11" fill="#000000" />
<rect width=".81" height=".81" x="26" y="11" fill="#000000" />
<rect width=".81" height=".81" x="27" y="11" fill="#000000" />
<rect width=".81" height=".81" x="0" y="12" fill="#000000" />
<rect width=".81" height=".81" x="1" y="12" fill="#000000" />
<rect width=".81" height=".81" x="2" y="12" fill="#000000" />
<rect width=".81" height=".81" x="3" y="12" fill="#000000" />
<rect width=".81" height=".81" x="4" y="12" fill="#000000" />
<rect width=".81" height=".81" x="5" y="12" fill="#000000" />
<rect width=".81" height=".81" x="6" y="12" fill="#000000" />
<rect width=".81" height=".81" x="7" y="12" fill="#000000" />
<rect width=".81" height=".81" x="8" y="12" fill="#F1F1F1" />
<rect width=".81" height=".81" x="9" y="12" fill="#F8F8F8" />
<rect width=".81" height=".81" x="10" y="12" fill="#252525" />
<rect width=".81" height=".81" x="11" y="12" fill="#000000" />
<rect width=".81" height=".81" x="12" y="12" fill="#000000" />
<rect width=".81" height=".81" x="13" y="12" fill="#000000" />
<rect width=".81" height=".81" x="14" y="12" fill="#000000" />
<rect width=".81" height=".81" x="15" y="12" fill="#000000" />
<rect width=".81" height=".81" x="16" y="12" fill="#000000" />
<rect width=".81" height=".81" x="17" y="12" fill="#000000" />
<rect width=".81" height=".81" x="18" y="12" fill="#000000" />
<rect width=".81" height=".81" x="19" y="12" fill="#000000" />
<rect width=".81" height=".81" x="20" y="12" fill="#000000" />
<rect width=".81" height=".81" x="21" y="12" fill="#000000" />
<rect width=".81" height=".81" x="22" y="12" fill="#000000" />
<rect width=".81" height=".81" x="23" y="12" fill="#000000" />
<rect width=".81" height=".81" x="24" y="12" fill="#000000" />
<rect width=".81" height=".81" x="25" y="12" fill="#000000" />
<rect width=".81" height=".81" x="26" y="12" fill="#000000" />
<rect width=".81" height=".81" x="27" y="12" fill="#000000" />
<rect width=".81" height=".81" x="0" y="13" fill="#000000" />
<rect width=".81" height=".81" x="1" y="13" fill="#000000" />
<rect width=".81" height=".81" x="2" y="13" fill="#000000" />
<rect width=".81" height=".81" x="3" y="13" fill="#000000" />
<rect width=".81" height=".81" x="4" y="13" fill="#000000" />
<rect width=".81" height=".81" x="5" y="13" fill="#000000" />
<rect width=".81" height=".81" x="6" y="13" fill="#000000" />
<rect width=".81" height=".81" x="7" y="13" fill="#404040" />
<rect width=".81" height=".81" x="8" y="13" fill="#F7F7F7" />
<rect width=".81" height=".81" x="9" y="13" fill="#9F9F9F" />
<rect width=".81" height=".81" x="10" y="13" fill="#000000" />
<rect width=".81" height=".81" x="11" y="13" fill="#000000" />
<rect width=".81" height=".81" x="12" y="13" fill="#000000" />
<rect width=".81" height=".81" x="13" y="13" fill="#000000" />
<rect width=".81" height=".81" x="14" y="13" fill="#000000" />
<rect width=".81" height=".81" x="15" y="13" fill="#000000" />
<rect width=".81" height=".81" x="16" y="13" fill="#000000" />
<rect width=".81" height=".81" x="17" y="13" fill="#000000" />
<rect width=".81" height=".81" x="18" y="13" fill="#000000" />
<rect width=".81" height=".81" x="19" y="13" fill="#000000" />
<rect width=".81" height=".81" x="20" y="13" fill="#000000" />
<rect width=".81" height=".81" x="21" y="13" fill="#000000" />
<rect width=".81" height=".81" x="22" y="13" fill="#000000" />
<rect width=".81" height=".81" x="23" y="13" fill="#000000" />
<rect width=".81" height=".81" x="24" y="13" fill="#000000" />
<rect width=".81" height=".81" x="25" y="13" fill="#4F4F4F" />
<rect width=".81" height=".81" x="26" y="13" fill="#868686" />
<rect width=".81" height=".81" x="27" y="13" fill="#000000" />
<rect width=".81" height=".81" x="0" y="14" fill="#000000" />
<rect width=".81" height=".81" x="1" y="14" fill="#000000" />
<rect width=".81" height=".81" x="2" y="14" fill="#000000" />
<rect width=".81" height=".81" x="3" y="14" fill="#000000" />
<rect width=".81" height=".81" x="4" y="14" fill="#000000" />
<rect width=".81" height=".81" x="5" y="14" fill="#000000" />
<rect width=".81" height=".81" x="6" y="14" fill="#000000" />
<rect width=".81" height=".81" x="7" y="14" fill="#7A7A7A" />
<rect width=".81" height=".81" x="8" y="14" fill="#FEFEFE" />
<rect width=".81" height=".81" x="9" y="14" fill="#A0A0A0" />
<rect width=".81" height=".81" x="10" y="14" fill="#000000" />
<rect width=".81" height=".81" x="11" y="14" fill="#000000" />
<rect width=".81" height=".81" x="12" y="14" fill="#000000" />
<rect width=".81" height=".81" x="13" y="14" fill="#000000" />
<rect width=".81" height=".81" x="14" y="14" fill="#000000" />
<rect width=".81" height=".81" x="15" y="14" fill="#000000" />
<rect width=".81" height=".81" x="16" y="14" fill="#000000" />
<rect width=".81" height=".81" x="17" y="14" fill="#000000" />
<rect width=".81" height=".81" x="18" y="14" fill="#000000" />
<rect width=".81" height=".81" x="19" y="14" fill="#000000" />
<rect width=".81" height=".81" x="20" y="14" fill="#000000" />
<rect width=".81" height=".81" x="21" y="14" fill="#000000" />
<rect width=".81" height=".81" x="22" y="14" fill="#000000" />
<rect width=".81" height=".81" x="23" y="14" fill="#141414" />
<rect width=".81" height=".81" x="24" y="14" fill="#868686" />
<rect width=".81" height=".81" x="25" y="14" fill="#FFFFFF" />
<rect width=".81" height=".81" x="26" y="14" fill="#797979" />
<rect width=".81" height=".81" x="27" y="14" fill="#000000" />
<rect width=".81" height=".81" x="0" y="15" fill="#000000" />
<rect width=".81" height=".81" x="1" y="15" fill="#000000" />
<rect width=".81" height=".81" x="2" y="15" fill="#000000" />
<rect width=".81" height=".81" x="3" y="15" fill="#000000" />
<rect width=".81" height=".81" x="4" y="15" fill="#000000" />
<rect width=".81" height=".81" x="5" y="15" fill="#000000" />
<rect width=".81" height=".81" x="6" y="15" fill="#000000" />
<rect width=".81" height=".81" x="7" y="15" fill="#797979" />
<rect width=".81" height=".81" x="8" y="15" fill="#FDFDFD" />
<rect width=".81" height=".81" x="9" y="15" fill="#676767" />
<rect width=".81" height=".81" x="10" y="15" fill="#000000" />
<rect width=".81" height=".81" x="11" y="15" fill="#000000" />
<rect width=".81" height=".81" x="12" y="15" fill="#000000" />
<rect width=".81" height=".81" x="13" y="15" fill="#000000" />
<rect width=".81" height=".81" x="14" y="15" fill="#000000" />
<rect width=".81" height=".81" x="15" y="15" fill="#000000" />
<rect width=".81" height=".81" x="16" y="15" fill="#000000" />
<rect width=".81" height=".81" x="17" y="15" fill="#000000" />
<rect width=".81" height=".81" x="18" y="15" fill="#000000" />
<rect width=".81" height=".81" x="19" y="15" fill="#000000" />
<rect width=".81" height=".81" x="20" y="15" fill="#000000" />
<rect width=".81" height=".81" x="21" y="15" fill="#000000" />
<rect width=".81" height=".81" x="22" y="15" fill="#6C6C6C" />
<rect width=".81" height=".81" x="23" y="15" fill="#F3F3F3" />
<rect width=".81" height=".81" x="24" y="15" fill="#FDFDFD" />
<rect width=".81" height=".81" x="25" y="15" fill="#B8B8B8" />
<rect width=".81" height=".81" x="26" y="15" fill="#060606" />
<rect width=".81" height=".81" x="27" y="15" fill="#000000" />
<rect width=".81" height=".81" x="0" y="16" fill="#000000" />
<rect width=".81" height=".81" x="1" y="16" fill="#000000" />
<rect width=".81" height=".81" x="2" y="16" fill="#000000" />
<rect width=".81" height=".81" x="3" y="16" fill="#000000" />
<rect width=".81" height=".81" x="4" y="16" fill="#000000" />
<rect width=".81" height=".81" x="5" y="16" fill="#000000" />
<rect width=".81" height=".81" x="6" y="16" fill="#000000" />
<rect width=".81" height=".81" x="7" y="16" fill="#F1F1F1" />
<rect width=".81" height=".81" x="8" y="16" fill="#FDFDFD" />
<rect width=".81" height=".81" x="9" y="16" fill="#1A1A1A" />
<rect width=".81" height=".81" x="10" y="16" fill="#000000" />
<rect width=".81" height=".81" x="11" y="16" fill="#000000" />
<rect width=".81" height=".81" x="12" y="16" fill="#000000" />
<rect width=".81" height=".81" x="13" y="16" fill="#000000" />
<rect width=".81" height=".81" x="14" y="16" fill="#000000" />
<rect width=".81" height=".81" x="15" y="16" fill="#000000" />
<rect width=".81" height=".81" x="16" y="16" fill="#000000" />
<rect width=".81" height=".81" x="17" y="16" fill="#000000" />
<rect width=".81" height=".81" x="18" y="16" fill="#000000" />
<rect width=".81" height=".81" x="19" y="16" fill="#555555" />
<rect width=".81" height=".81" x="20" y="16" fill="#5E5E5E" />
<rect width=".81" height=".81" x="21" y="16" fill="#C8C8C8" />
<rect width=".81" height=".81" x="22" y="16" fill="#F7F7F7" />
<rect width=".81" height=".81" x="23" y="16" fill="#BDBDBD" />
<rect width=".81" height=".81" x="24" y="16" fill="#919191" />
<rect width=".81" height=".81" x="25" y="16" fill="#0B0B0B" />
<rect width=".81" height=".81" x="26" y="16" fill="#000000" />
<rect width=".81" height=".81" x="27" y="16" fill="#000000" />
<rect width=".81" height=".81" x="0" y="17" fill="#000000" />
<rect width=".81" height=".81" x="1" y="17" fill="#000000" />
<rect width=".81" height=".81" x="2" y="17" fill="#000000" />
<rect width=".81" height=".81" x="3" y="17" fill="#000000" />
<rect width=".81" height=".81" x="4" y="17" fill="#000000" />
<rect width=".81" height=".81" x="5" y="17" fill="#000000" />
<rect width=".81" height=".81" x="6" y="17" fill="#000000" />
<rect width=".81" height=".81" x="7" y="17" fill="#FEFEFE" />
<rect width=".81" height=".81" x="8" y="17" fill="#FDFDFD" />
<rect width=".81" height=".81" x="9" y="17" fill="#626262" />
<rect width=".81" height=".81" x="10" y="17" fill="#373737" />
<rect width=".81" height=".81" x="11" y="17" fill="#000000" />
<rect width=".81" height=".81" x="12" y="17" fill="#000000" />
<rect width=".81" height=".81" x="13" y="17" fill="#000000" />
<rect width=".81" height=".81" x="14" y="17" fill="#000000" />
<rect width=".81" height=".81" x="15" y="17" fill="#000000" />
<rect width=".81" height=".81" x="16" y="17" fill="#000000" />
<rect width=".81" height=".81" x="17" y="17" fill="#515151" />
<rect width=".81" height=".81" x="18" y="17" fill="#898989" />
<rect width=".81" height=".81" x="19" y="17" fill="#F9F9F9" />
<rect width=".81" height=".81" x="20" y="17" fill="#FDFDFD" />
<rect width=".81" height=".81" x="21" y="17" fill="#E8E8E8" />
<rect width=".81" height=".81" x="22" y="17" fill="#909090" />
<rect width=".81" height=".81" x="23" y="17" fill="#0D0D0D" />
<rect width=".81" height=".81" x="24" y="17" fill="#000000" />
<rect width=".81" height=".81" x="25" y="17" fill="#000000" />
<rect width=".81" height=".81" x="26" y="17" fill="#000000" />
<rect width=".81" height=".81" x="27" y="17" fill="#000000" />
<rect width=".81" height=".81" x="0" y="18" fill="#000000" />
<rect width=".81" height=".81" x="1" y="18" fill="#000000" />
<rect width=".81" height=".81" x="2" y="18" fill="#000000" />
<rect width=".81" height=".81" x="3" y="18" fill="#000000" />
<rect width=".81" height=".81" x="4" y="18" fill="#000000" />
<rect width=".81" height=".81" x="5" y="18" fill="#000000" />
<rect width=".81" height=".81" x="6" y="18" fill="#000000" />
<rect width=".81" height=".81" x="7" y="18" fill="#DBDBDB" />
<rect width=".81" height=".81" x="8" y="18" fill="#FDFDFD" />
<rect width=".81" height=".81" x="9" y="18" fill="#FDFDFD" />
<rect width=".81" height=".81" x="10" y="18" fill="#EDEDED" />
<rect width=".81" height=".81" x="11" y="18" fill="#A5A5A5" />
<rect width=".81" height=".81" x="12" y="18" fill="#444444" />
<rect width=".81" height=".81" x="13" y="18" fill="#444444" />
<rect width=".81" height=".81" x="14" y="18" fill="#525252" />
<rect width=".81" height=".81" x="15" y="18" fill="#C9C9C9" />
<rect width=".81" height=".81" x="16" y="18" fill="#C9C9C9" />
<rect width=".81" height=".81" x="17" y="18" fill="#FEFEFE" />
<rect width=".81" height=".81" x="18" y="18" fill="#FDFDFD" />
<rect width=".81" height=".81" x="19" y="18" fill="#E4E4E4" />
<rect width=".81" height=".81" x="20" y="18" fill="#494949" />
<rect width=".81" height=".81" x="21" y="18" fill="#272727" />
<rect width=".81" height=".81" x="22" y="18" fill="#000000" />
<rect width=".81" height=".81" x="23" y="18" fill="#000000" />
<rect width=".81" height=".81" x="24" y="18" fill="#000000" />
<rect width=".81" height=".81" x="25" y="18" fill="#000000" />
<rect width=".81" height=".81" x="26" y="18" fill="#000000" />
<rect width=".81" height=".81" x="27" y="18" fill="#000000" />
<rect width=".81" height=".81" x="0" y="19" fill="#000000" />
<rect width=".81" height=".81" x="1" y="19" fill="#000000" />
<rect width=".81" height=".81" x="2" y="19" fill="#000000" />
<rect width=".81" height=".81" x="3" y="19" fill="#000000" />
<rect width=".81" height=".81" x="4" y="19" fill="#000000" />
<rect width=".81" height=".81" x="5" y="19" fill="#000000" />
<rect width=".81" height=".81" x="6" y="19" fill="#000000" />
<rect width=".81" height=".81" x="7" y="19" fill="#202020" />
<rect width=".81" height=".81" x="8" y="19" fill="#D8D8D8" />
<rect width=".81" height=".81" x="9" y="19" fill="#FDFDFD" />
<rect width=".81" height=".81" x="10" y="19" fill="#FDFDFD" />
<rect width=".81" height=".81" x="11" y="19" fill="#FDFDFD" />
<rect width=".81" height=".81" x="12" y="19" fill="#FDFDFD" />
<rect width=".81" height=".81" x="13" y="19" fill="#FDFDFD" />
<rect width=".81" height=".81" x="14" y="19" fill="#FDFDFD" />
<rect width=".81" height=".81" x="15" y="19" fill="#FDFDFD" />
<rect width=".81" height=".81" x="16" y="19" fill="#FDFDFD" />
<rect width=".81" height=".81" x="17" y="19" fill="#C9C9C9" />
<rect width=".81" height=".81" x="18" y="19" fill="#8F8F8F" />
<rect width=".81" height=".81" x="19" y="19" fill="#2A2A2A" />
<rect width=".81" height=".81" x="20" y="19" fill="#000000" />
<rect width=".81" height=".81" x="21" y="19" fill="#000000" />
<rect width=".81" height=".81" x="22" y="19" fill="#000000" />
<rect width=".81" height=".81" x="23" y="19" fill="#000000" />
<rect width=".81" height=".81" x="24" y="19" fill="#000000" />
<rect width=".81" height=".81" x="25" y="19" fill="#000000" />
<rect width=".81" height=".81" x="26" y="19" fill="#000000" />
<rect width=".81" height=".81" x="27" y="19" fill="#000000" />
<rect width=".81" height=".81" x="0" y="20" fill="#000000" />
<rect width=".81" height=".81" x="1" y="20" fill="#000000" />
<rect width=".81" height=".81" x="2" y="20" fill="#000000" />
<rect width=".81" height=".81" x="3" y="20" fill="#000000" />
<rect width=".81" height=".81" x="4" y="20" fill="#000000" />
<rect width=".81" height=".81" x="5" y="20" fill="#000000" />
<rect width=".81" height=".81" x="6" y="20" fill="#000000" />
<rect width=".81" height=".81" x="7" y="20" fill="#000000" />
<rect width=".81" height=".81" x="8" y="20" fill="#222222" />
<rect width=".81" height=".81" x="9" y="20" fill="#C7C7C7" />
<rect width=".81" height=".81" x="10" y="20" fill="#D5D5D5" />
<rect width=".81" height=".81" x="11" y="20" fill="#E0E0E0" />
<rect width=".81" height=".81" x="12" y="20" fill="#FDFDFD" />
<rect width=".81" height=".81" x="13" y="20" fill="#FDFDFD" />
<rect width=".81" height=".81" x="14" y="20" fill="#E4E4E4" />
<rect width=".81" height=".81" x="15" y="20" fill="#D5D5D5" />
<rect width=".81" height=".81" x="16" y="20" fill="#8E8E8E" />
<rect width=".81" height=".81" x="17" y="20" fill="#000000" />
<rect width=".81" height=".81" x="18" y="20" fill="#000000" />
<rect width=".81" height=".81" x="19" y="20" fill="#000000" />
<rect width=".81" height=".81" x="20" y="20" fill="#000000" />
<rect width=".81" height=".81" x="21" y="20" fill="#000000" />
<rect width=".81" height=".81" x="22" y="20" fill="#000000" />
<rect width=".81" height=".81" x="23" y="20" fill="#000000" />
<rect width=".81" height=".81" x="24" y="20" fill="#000000" />
<rect width=".81" height=".81" x="25" y="20" fill="#000000" />
<rect width=".81" height=".81" x="26" y="20" fill="#000000" />
<rect width=".81" height=".81" x="27" y="20" fill="#000000" />
<rect width=".81" height=".81" x="0" y="21" fill="#000000" />
<rect width=".81" height=".81" x="1" y="21" fill="#000000" />
<rect width=".81" height=".81" x="2" y="21" fill="#000000" />
<rect width=".81" height=".81" x="3" y="21" fill="#000000" />
<rect width=".81" height=".81" x="4" y="21" fill="#000000" />
<rect width=".81" height=".81" x="5" y="21" fill="#000000" />
<rect width=".81" height=".81" x="6" y="21" fill="#000000" />
<rect width=".81" height=".81" x="7" y="21" fill="#000000" />
<rect width=".81" height=".81" x="8" y="21" fill="#000000" />
<rect width=".81" height=".81" x="9" y="21" fill="#000000" />
<rect width=".81" height=".81" x="10" y="21" fill="#000000" />
<rect width=".81" height=".81" x="11" y="21" fill="#191919" />
<rect width=".81" height=".81" x="12" y="21" fill="#5D5D5D" />
<rect width=".81" height=".81" x="13" y="21" fill="#5D5D5D" />
<rect width=".81" height=".81" x="14" y="21" fill="#222222" />
<rect width=".81" height=".81" x="15" y="21" fill="#000000" />
<rect width=".81" height=".81" x="16" y="21" fill="#000000" />
<rect width=".81" height=".81" x="17" y="21" fill="#000000" />
<rect width=".81" height=".81" x="18" y="21" fill="#000000" />
<rect width=".81" height=".81" x="19" y="21" fill="#000000" />
<rect width=".81" height=".81" x="20" y="21" fill="#000000" />
<rect width=".81" height=".81" x="21" y="21" fill="#000000" />
<rect width=".81" height=".81" x="22" y="21" fill="#000000" />
<rect width=".81" height=".81" x="23" y="21" fill="#000000" />
<rect width=".81" height=".81" x="24" y="21" fill="#000000" />
<rect width=".81" height=".81" x="25" y="21" fill="#000000" />
<rect width=".81" height=".81" x="26" y="21" fill="#000000" />
<rect width=".81" height=".81" x="27" y="21" fill="#000000" />
<rect width=".81" height=".81" x="0" y="22" fill="#000000" />
<rect width=".81" height=".81" x="1" y="22" fill="#000000" />
<rect width=".81" height=".81" x="2" y="22" fill="#000000" />
<rect width=".81" height=".81" x="3" y="22" fill="#000000" />
<rect width=".81" height=".81" x="4" y="22" fill="#000000" />
<rect width=".81" height=".81" x="5" y="22" fill="#000000" />
<rect width=".81" height=".81" x="6" y="22" fill="#000000" />
<rect width=".81" height=".81" x="7" y="22" fill="#000000" />
<rect width=".81" height=".81" x="8" y="22" fill="#000000" />
<rect width=".81" height=".81" x="9" y="22" fill="#000000" />
<rect width=".81" height=".81" x="10" y="22" fill="#000000" />
<rect width=".81" height=".81" x="11" y="22" fill="#000000" />
<rect width=".81" height=".81" x="12" y="22" fill="#000000" />
<rect width=".81" height=".81" x="13" y="22" fill="#000000" />
<rect width=".81" height=".81" x="14" y="22" fill="#000000" />
<rect width=".81" height=".81" x="15" y="22" fill="#000000" />
<rect width=".81" height=".81" x="16" y="22" fill="#000000" />
<rect width=".81" height=".81" x="17" y="22" fill="#000000" />
<rect width=".81" height=".81" x="18" y="22" fill="#000000" />
<rect width=".81" height=".81" x="19" y="22" fill="#000000" />
<rect width=".81" height=".81" x="20" y="22" fill="#000000" />
<rect width=".81" height=".81" x="21" y="22" fill="#000000" />
<rect width=".81" height=".81" x="22" y="22" fill="#000000" />
<rect width=".81" height=".81" x="23" y="22" fill="#000000" />
<rect width=".81" height=".81" x="24" y="22" fill="#000000" />
<rect width=".81" height=".81" x="25" y="22" fill="#000000" />
<rect width=".81" height=".81" x="26" y="22" fill="#000000" />
<rect width=".81" height=".81" x="27" y="22" fill="#000000" />
<rect width=".81" height=".81" x="0" y="23" fill="#000000" />
<rect width=".81" height=".81" x="1" y="23" fill="#000000" />
<rect width=".81" height=".81" x="2" y="23" fill="#000000" />
<rect width=".81" height=".81" x="3" y="23" fill="#000000" />
<rect width=".81" height=".81" x="4" y="23" fill="#000000" />
<rect width=".81" height=".81" x="5" y="23" fill="#000000" />
<rect width=".81" height=".81" x="6" y="23" fill="#000000" />
<rect width=".81" height=".81" x="7" y="23" fill="#000000" />
<rect width=".81" height=".81" x="8" y="23" fill="#000000" />
<rect width=".81" height=".81" x="9" y="23" fill="#000000" />
<rect width=".81" height=".81" x="10" y="23" fill="#000000" />
<rect width=".81" height=".81" x="11" y="23" fill="#000000" />
<rect width=".81" height=".81" x="12" y="23" fill="#000000" />
<rect width=".81" height=".81" x="13" y="23" fill="#000000" />
<rect width=".81" height=".81" x="14" y="23" fill="#000000" />
<rect width=".81" height=".81" x="15" y="23" fill="#000000" />
<rect width=".81" height=".81" x="16" y="23" fill="#000000" />
<rect width=".81" height=".81" x="17" y="23" fill="#000000" />
<rect width=".81" height=".81" x="18" y="23" fill="#000000" />
<rect width=".81" height=".81" x="19" y="23" fill="#000000" />
<rect width=".81" height=".81" x="20" y="23" fill="#000000" />
<rect width=".81" height=".81" x="21" y="23" fill="#000000" />
<rect width=".81" height=".81" x="22" y="23" fill="#000000" />
<rect width=".81" height=".81" x="23" y="23" fill="#000000" />
<rect width=".81" height=".81" x="24" y="23" fill="#000000" />
<rect width=".81" height=".81" x="25" y="23" fill="#000000" />
<rect width=".81" height=".81" x="26" y="23" fill="#000000" />
<rect width=".81" height=".81" x="27" y="23" fill="#000000" />
<rect width=".81" height=".81" x="0" y="24" fill="#000000" />
<rect width=".81" height=".81" x="1" y="24" fill="#000000" />
<rect width=".81" height=".81" x="2" y="24" fill="#000000" />
<rect width=".81" height=".81" x="3" y="24" fill="#000000" />
<rect width=".81" height=".81" x="4" y="24" fill="#000000" />
<rect width=".81" height=".81" x="5" y="24" fill="#000000" />
<rect width=".81" height=".81" x="6" y="24" fill="#000000" />
<rect width=".81" height=".81" x="7" y="24" fill="#000000" />
<rect width=".81" height=".81" x="8" y="24" fill="#000000" />
<rect width=".81" height=".81" x="9" y="24" fill="#000000" />
<rect width=".81" height=".81" x="10" y="24" fill="#000000" />
<rect width=".81" height=".81" x="11" y="24" fill="#000000" />
<rect width=".81" height=".81" x="12" y="24" fill="#000000" />
<rect width=".81" height=".81" x="13" y="24" fill="#000000" />
<rect width=".81" height=".81" x="14" y="24" fill="#000000" />
<rect width=".81" height=".81" x="15" y="24" fill="#000000" />
<rect width=".81" height=".81" x="16" y="24" fill="#000000" />
<rect width=".81" height=".81" x="17" y="24" fill="#000000" />
<rect width=".81" height=".81" x="18" y="24" fill="#000000" />
<rect width=".81" height=".81" x="19" y="24" fill="#000000" />
<rect width=".81" height=".81" x="20" y="24" fill="#000000" />
<rect width=".81" height=".81" x="21" y="24" fill="#000000" />
<rect width=".81" height=".81" x="22" y="24" fill="#000000" />
<rect width=".81" height=".81" x="23" y="24" fill="#000000" />
<rect width=".81" height=".81" x="24" y="24" fill="#000000" />
<rect width=".81" height=".81" x="25" y="24" fill="#000000" />
<rect width=".81" height=".81" x="26" y="24" fill="#000000" />
<rect width=".81" height=".81" x="27" y="24" fill="#000000" />
<rect width=".81" height=".81" x="0" y="25" fill="#000000" />
<rect width=".81" height=".81" x="1" y="25" fill="#000000" />
<rect width=".81" height=".81" x="2" y="25" fill="#000000" />
<rect width=".81" height=".81" x="3" y="25" fill="#000000" />
<rect width=".81" height=".81" x="4" y="25" fill="#000000" />
<rect width=".81" height=".81" x="5" y="25" fill="#000000" />
<rect width=".81" height=".81" x="6" y="25" fill="#000000" />
<rect width=".81" height=".81" x="7" y="25" fill="#000000" />
<rect width=".81" height=".81" x="8" y="25" fill="#000000" />
<rect width=".81" height=".81" x="9" y="25" fill="#000000" />
<rect width=".81" height=".81" x="10" y="25" fill="#000000" />
<rect width=".81" height=".81" x="11" y="25" fill="#000000" />
<rect width=".81" height=".81" x="12" y="25" fill="#000000" />
<rect width=".81" height=".81" x="13" y="25" fill="#000000" />
<rect width=".81" height=".81" x="14" y="25" fill="#000000" />
<rect width=".81" height=".81" x="15" y="25" fill="#000000" />
<rect width=".81" height=".81" x="16" y="25" fill="#000000" />
<rect width=".81" height=".81" x="17" y="25" fill="#000000" />
<rect width=".81" height=".81" x="18" y="25" fill="#000000" />
<rect width=".81" height=".81" x="19" y="25" fill="#000000" />
<rect width=".81" height=".81" x="20" y="25" fill="#000000" />
<rect width=".81" height=".81" x="21" y="25" fill="#000000" />
<rect width=".81" height=".81" x="22" y="25" fill="#000000" />
<rect width=".81" height=".81" x="23" y="25" fill="#000000" />
<rect width=".81" height=".81" x="24" y="25" fill="#000000" />
<rect width=".81" height=".81" x="25" y="25" fill="#000000" />
<rect width=".81" height=".81" x="26" y="25" fill="#000000" />
<rect width=".81" height=".81" x="27" y="25" fill="#000000" />
<rect width=".81" height=".81" x="0" y="26" fill="#000000" />
<rect width=".81" height=".81" x="1" y="26" fill="#000000" />
<rect width=".81" height=".81" x="2" y="26" fill="#000000" />
<rect width=".81" height=".81" x="3" y="26" fill="#000000" />
<rect width=".81" height=".81" x="4" y="26" fill="#000000" />
<rect width=".81" height=".81" x="5" y="26" fill="#000000" />
<rect width=".81" height=".81" x="6" y="26" fill="#000000" />
<rect width=".81" height=".81" x="7" y="26" fill="#000000" />
<rect width=".81" height=".81" x="8" y="26" fill="#000000" />
<rect width=".81" height=".81" x="9" y="26" fill="#000000" />
<rect width=".81" height=".81" x="10" y="26" fill="#000000" />
<rect width=".81" height=".81" x="11" y="26" fill="#000000" />
<rect width=".81" height=".81" x="12" y="26" fill="#000000" />
<rect width=".81" height=".81" x="13" y="26" fill="#000000" />
<rect width=".81" height=".81" x="14" y="26" fill="#000000" />
<rect width=".81" height=".81" x="15" y="26" fill="#000000" />
<rect width=".81" height=".81" x="16" y="26" fill="#000000" />
<rect width=".81" height=".81" x="17" y="26" fill="#000000" />
<rect width=".81" height=".81" x="18" y="26" fill="#000000" />
<rect width=".81" height=".81" x="19" y="26" fill="#000000" />
<rect width=".81" height=".81" x="20" y="26" fill="#000000" />
<rect width=".81" height=".81" x="21" y="26" fill="#000000" />
<rect width=".81" height=".81" x="22" y="26" fill="#000000" />
<rect width=".81" height=".81" x="23" y="26" fill="#000000" />
<rect width=".81" height=".81" x="24" y="26" fill="#000000" />
<rect width=".81" height=".81" x="25" y="26" fill="#000000" />
<rect width=".81" height=".81" x="26" y="26" fill="#000000" />
<rect width=".81" height=".81" x="27" y="26" fill="#000000" />
<rect width=".81" height=".81" x="0" y="27" fill="#000000" />
<rect width=".81" height=".81" x="1" y="27" fill="#000000" />
<rect width=".81" height=".81" x="2" y="27" fill="#000000" />
<rect width=".81" height=".81" x="3" y="27" fill="#000000" />
<rect width=".81" height=".81" x="4" y="27" fill="#000000" />
<rect width=".81" height=".81" x="5" y="27" fill="#000000" />
<rect width=".81" height=".81" x="6" y="27" fill="#000000" />
<rect width=".81" height=".81" x="7" y="27" fill="#000000" />
<rect width=".81" height=".81" x="8" y="27" fill="#000000" />
<rect width=".81" height=".81" x="9" y="27" fill="#000000" />
<rect width=".81" height=".81" x="10" y="27" fill="#000000" />
<rect width=".81" height=".81" x="11" y="27" fill="#000000" />
<rect width=".81" height=".81" x="12" y="27" fill="#000000" />
<rect width=".81" height=".81" x="13" y="27" fill="#000000" />
<rect width=".81" height=".81" x="14" y="27" fill="#000000" />
<rect width=".81" height=".81" x="15" y="27" fill="#000000" />
<rect width=".81" height=".81" x="16" y="27" fill="#000000" />
<rect width=".81" height=".81" x="17" y="27" fill="#000000" />
<rect width=".81" height=".81" x="18" y="27" fill="#000000" />
<rect width=".81" height=".81" x="19" y="27" fill="#000000" />
<rect width=".81" height=".81" x="20" y="27" fill="#000000" />
<rect width=".81" height=".81" x="21" y="27" fill="#000000" />
<rect width=".81" height=".81" x="22" y="27" fill="#000000" />
<rect width=".81" height=".81" x="23" y="27" fill="#000000" />
<rect width=".81" height=".81" x="24" y="27" fill="#000000" />
<rect width=".81" height=".81" x="25" y="27" fill="#000000" />
<rect width=".81" height=".81" x="26" y="27" fill="#000000" />
<rect width=".81" height=".81" x="27" y="27" fill="#000000" />
</svg>