<?xml version="1.0" encoding="utf-8"?>
<svg xmlns="http://www.w3.org/2000/svg" xmlns:xlink="http://www.w3.org/1999/xlink" width="600" height="400" viewBox="0 0 2400 1600">
<defs>
  <clipPath id="clip150">
    <rect x="0" y="0" width="2400" height="1600"/>
  </clipPath>
</defs>
<path clip-path="url(#clip150)" d="
M0 1600 L2400 1600 L2400 0 L0 0  Z
  " fill="#ffffff" fill-rule="evenodd" fill-opacity="1"/>
<defs>
  <clipPath id="clip151">
    <rect x="480" y="0" width="1681" height="1600"/>
  </clipPath>
</defs>
<path clip-path="url(#clip150)" d="
M172.015 1495.09 L2352.76 1495.09 L2352.76 123.472 L172.015 123.472  Z
  " fill="#ffffff" fill-rule="evenodd" fill-opacity="1"/>
<defs>
  <clipPath id="clip152">
    <rect x="172" y="123" width="2182" height="1373"/>
  </clipPath>
</defs>
<polyline clip-path="url(#clip152)" style="stroke:#000000; stroke-linecap:round; stroke-linejoin:round; stroke-width:2; stroke-opacity:0.1; fill:none" points="
  1262.39,1495.09 1262.39,123.472 
  "/>
<polyline clip-path="url(#clip150)" style="stroke:#000000; stroke-linecap:round; stroke-linejoin:round; stroke-width:4; stroke-opacity:1; fill:none" points="
  172.015,1495.09 2352.76,1495.09 
  "/>
<polyline clip-path="url(#clip150)" style="stroke:#000000; stroke-linecap:round; stroke-linejoin:round; stroke-width:4; stroke-opacity:1; fill:none" points="
  1262.39,1495.09 1262.39,1476.19 
  "/>
<path clip-path="url(#clip150)" d="M1207.33 1519.52 L1207.33 1555.07 L1204.38 1555.07 L1204.38 1519.52 L1207.33 1519.52 Z" fill="#000000" fill-rule="evenodd" fill-opacity="1" /><path clip-path="url(#clip150)" d="M1234.75 1522.76 L1234.75 1526.46 Q1232.98 1524.81 1230.96 1524 Q1228.97 1523.18 1226.71 1523.18 Q1222.26 1523.18 1219.9 1525.91 Q1217.54 1528.62 1217.54 1533.75 Q1217.54 1538.88 1219.9 1541.6 Q1222.26 1544.31 1226.71 1544.31 Q1228.97 1544.31 1230.96 1543.49 Q1232.98 1542.68 1234.75 1541.03 L1234.75 1544.69 Q1232.91 1545.94 1230.84 1546.57 Q1228.79 1547.19 1226.5 1547.19 Q1220.61 1547.19 1217.23 1543.6 Q1213.84 1539.99 1213.84 1533.75 Q1213.84 1527.5 1217.23 1523.91 Q1220.61 1520.3 1226.5 1520.3 Q1228.83 1520.3 1230.88 1520.92 Q1232.94 1521.53 1234.75 1522.76 Z" fill="#000000" fill-rule="evenodd" fill-opacity="1" /><path clip-path="url(#clip150)" d="M1244.14 1519.52 L1244.14 1555.07 L1241.19 1555.07 L1241.19 1519.52 L1244.14 1519.52 Z" fill="#000000" fill-rule="evenodd" fill-opacity="1" /><path clip-path="url(#clip150)" d="M1285.98 1529.05 L1269.31 1533.86 L1285.98 1538.62 L1285.98 1541.71 L1263.72 1535.32 L1263.72 1532.37 L1285.98 1525.99 L1285.98 1529.05 M1263.72 1543.74 L1285.98 1543.74 L1285.98 1546.69 L1263.72 1546.69 L1263.72 1543.74 Z" fill="#000000" fill-rule="evenodd" fill-opacity="1" /><path clip-path="url(#clip150)" d="M1305.46 1543.74 L1311.19 1543.74 L1311.19 1523.96 L1304.95 1525.21 L1304.95 1522.02 L1311.15 1520.77 L1314.66 1520.77 L1314.66 1543.74 L1320.39 1543.74 L1320.39 1546.69 L1305.46 1546.69 L1305.46 1543.74 Z" fill="#000000" fill-rule="evenodd" fill-opacity="1" /><polyline clip-path="url(#clip152)" style="stroke:#000000; stroke-linecap:round; stroke-linejoin:round; stroke-width:2; stroke-opacity:0.1; fill:none" points="
  172.015,1456.27 2352.76,1456.27 
  "/>
<polyline clip-path="url(#clip152)" style="stroke:#000000; stroke-linecap:round; stroke-linejoin:round; stroke-width:2; stroke-opacity:0.1; fill:none" points="
  172.015,1197.47 2352.76,1197.47 
  "/>
<polyline clip-path="url(#clip152)" style="stroke:#000000; stroke-linecap:round; stroke-linejoin:round; stroke-width:2; stroke-opacity:0.1; fill:none" points="
  172.015,938.678 2352.76,938.678 
  "/>
<polyline clip-path="url(#clip152)" style="stroke:#000000; stroke-linecap:round; stroke-linejoin:round; stroke-width:2; stroke-opacity:0.1; fill:none" points="
  172.015,679.882 2352.76,679.882 
  "/>
<polyline clip-path="url(#clip152)" style="stroke:#000000; stroke-linecap:round; stroke-linejoin:round; stroke-width:2; stroke-opacity:0.1; fill:none" points="
  172.015,421.087 2352.76,421.087 
  "/>
<polyline clip-path="url(#clip152)" style="stroke:#000000; stroke-linecap:round; stroke-linejoin:round; stroke-width:2; stroke-opacity:0.1; fill:none" points="
  172.015,162.291 2352.76,162.291 
  "/>
<polyline clip-path="url(#clip150)" style="stroke:#000000; stroke-linecap:round; stroke-linejoin:round; stroke-width:4; stroke-opacity:1; fill:none" points="
  172.015,1495.09 172.015,123.472 
  "/>
<polyline clip-path="url(#clip150)" style="stroke:#000000; stroke-linecap:round; stroke-linejoin:round; stroke-width:4; stroke-opacity:1; fill:none" points="
  172.015,1456.27 190.912,1456.27 
  "/>
<polyline clip-path="url(#clip150)" style="stroke:#000000; stroke-linecap:round; stroke-linejoin:round; stroke-width:4; stroke-opacity:1; fill:none" points="
  172.015,1197.47 190.912,1197.47 
  "/>
<polyline clip-path="url(#clip150)" style="stroke:#000000; stroke-linecap:round; stroke-linejoin:round; stroke-width:4; stroke-opacity:1; fill:none" points="
  172.015,938.678 190.912,938.678 
  "/>
<polyline clip-path="url(#clip150)" style="stroke:#000000; stroke-linecap:round; stroke-linejoin:round; stroke-width:4; stroke-opacity:1; fill:none" points="
  172.015,679.882 190.912,679.882 
  "/>
<polyline clip-path="url(#clip150)" style="stroke:#000000; stroke-linecap:round; stroke-linejoin:round; stroke-width:4; stroke-opacity:1; fill:none" points="
  172.015,421.087 190.912,421.087 
  "/>
<polyline clip-path="url(#clip150)" style="stroke:#000000; stroke-linecap:round; stroke-linejoin:round; stroke-width:4; stroke-opacity:1; fill:none" points="
  172.015,162.291 190.912,162.291 
  "/>
<path clip-path="url(#clip150)" d="M124.07 1442.07 Q120.459 1442.07 118.631 1445.63 Q116.825 1449.17 116.825 1456.3 Q116.825 1463.41 118.631 1466.97 Q120.459 1470.52 124.07 1470.52 Q127.705 1470.52 129.51 1466.97 Q131.339 1463.41 131.339 1456.3 Q131.339 1449.17 129.51 1445.63 Q127.705 1442.07 124.07 1442.07 M124.07 1438.36 Q129.881 1438.36 132.936 1442.97 Q136.015 1447.55 136.015 1456.3 Q136.015 1465.03 132.936 1469.64 Q129.881 1474.22 124.07 1474.22 Q118.26 1474.22 115.182 1469.64 Q112.126 1465.03 112.126 1456.3 Q112.126 1447.55 115.182 1442.97 Q118.26 1438.36 124.07 1438.36 Z" fill="#000000" fill-rule="evenodd" fill-opacity="1" /><path clip-path="url(#clip150)" d="M54.5569 1210.82 L62.1958 1210.82 L62.1958 1184.45 L53.8856 1186.12 L53.8856 1181.86 L62.1495 1180.19 L66.8254 1180.19 L66.8254 1210.82 L74.4642 1210.82 L74.4642 1214.75 L54.5569 1214.75 L54.5569 1210.82 Z" fill="#000000" fill-rule="evenodd" fill-opacity="1" /><path clip-path="url(#clip150)" d="M93.9086 1183.27 Q90.2975 1183.27 88.4688 1186.84 Q86.6632 1190.38 86.6632 1197.51 Q86.6632 1204.61 88.4688 1208.18 Q90.2975 1211.72 93.9086 1211.72 Q97.5428 1211.72 99.3483 1208.18 Q101.177 1204.61 101.177 1197.51 Q101.177 1190.38 99.3483 1186.84 Q97.5428 1183.27 93.9086 1183.27 M93.9086 1179.57 Q99.7187 1179.57 102.774 1184.17 Q105.853 1188.76 105.853 1197.51 Q105.853 1206.23 102.774 1210.84 Q99.7187 1215.42 93.9086 1215.42 Q88.0984 1215.42 85.0197 1210.84 Q81.9642 1206.23 81.9642 1197.51 Q81.9642 1188.76 85.0197 1184.17 Q88.0984 1179.57 93.9086 1179.57 Z" fill="#000000" fill-rule="evenodd" fill-opacity="1" /><path clip-path="url(#clip150)" d="M124.07 1183.27 Q120.459 1183.27 118.631 1186.84 Q116.825 1190.38 116.825 1197.51 Q116.825 1204.61 118.631 1208.18 Q120.459 1211.72 124.07 1211.72 Q127.705 1211.72 129.51 1208.18 Q131.339 1204.61 131.339 1197.51 Q131.339 1190.38 129.51 1186.84 Q127.705 1183.27 124.07 1183.27 M124.07 1179.57 Q129.881 1179.57 132.936 1184.17 Q136.015 1188.76 136.015 1197.51 Q136.015 1206.23 132.936 1210.84 Q129.881 1215.42 124.07 1215.42 Q118.26 1215.42 115.182 1210.84 Q112.126 1206.23 112.126 1197.51 Q112.126 1188.76 115.182 1184.17 Q118.26 1179.57 124.07 1179.57 Z" fill="#000000" fill-rule="evenodd" fill-opacity="1" /><path clip-path="url(#clip150)" d="M57.7745 952.023 L74.0939 952.023 L74.0939 955.958 L52.1495 955.958 L52.1495 952.023 Q54.8115 949.268 59.3949 944.638 Q64.0013 939.986 65.1819 938.643 Q67.4272 936.12 68.3068 934.384 Q69.2096 932.625 69.2096 930.935 Q69.2096 928.18 67.2652 926.444 Q65.3439 924.708 62.2421 924.708 Q60.043 924.708 57.5893 925.472 Q55.1588 926.236 52.381 927.787 L52.381 923.064 Q55.2051 921.93 57.6588 921.351 Q60.1124 920.773 62.1495 920.773 Q67.5198 920.773 70.7142 923.458 Q73.9087 926.143 73.9087 930.634 Q73.9087 932.763 73.0985 934.685 Q72.3115 936.583 70.205 939.175 Q69.6263 939.847 66.5245 943.064 Q63.4226 946.259 57.7745 952.023 Z" fill="#000000" fill-rule="evenodd" fill-opacity="1" /><path clip-path="url(#clip150)" d="M93.9086 924.476 Q90.2975 924.476 88.4688 928.041 Q86.6632 931.583 86.6632 938.712 Q86.6632 945.819 88.4688 949.384 Q90.2975 952.925 93.9086 952.925 Q97.5428 952.925 99.3483 949.384 Q101.177 945.819 101.177 938.712 Q101.177 931.583 99.3483 928.041 Q97.5428 924.476 93.9086 924.476 M93.9086 920.773 Q99.7187 920.773 102.774 925.379 Q105.853 929.962 105.853 938.712 Q105.853 947.439 102.774 952.046 Q99.7187 956.629 93.9086 956.629 Q88.0984 956.629 85.0197 952.046 Q81.9642 947.439 81.9642 938.712 Q81.9642 929.962 85.0197 925.379 Q88.0984 920.773 93.9086 920.773 Z" fill="#000000" fill-rule="evenodd" fill-opacity="1" /><path clip-path="url(#clip150)" d="M124.07 924.476 Q120.459 924.476 118.631 928.041 Q116.825 931.583 116.825 938.712 Q116.825 945.819 118.631 949.384 Q120.459 952.925 124.07 952.925 Q127.705 952.925 129.51 949.384 Q131.339 945.819 131.339 938.712 Q131.339 931.583 129.51 928.041 Q127.705 924.476 124.07 924.476 M124.07 920.773 Q129.881 920.773 132.936 925.379 Q136.015 929.962 136.015 938.712 Q136.015 947.439 132.936 952.046 Q129.881 956.629 124.07 956.629 Q118.26 956.629 115.182 952.046 Q112.126 947.439 112.126 938.712 Q112.126 929.962 115.182 925.379 Q118.26 920.773 124.07 920.773 Z" fill="#000000" fill-rule="evenodd" fill-opacity="1" /><path clip-path="url(#clip150)" d="M67.9133 678.528 Q71.2698 679.246 73.1448 681.514 Q75.0429 683.783 75.0429 687.116 Q75.0429 692.232 71.5244 695.033 Q68.0059 697.834 61.5245 697.834 Q59.3486 697.834 57.0338 697.394 Q54.7421 696.977 52.2884 696.121 L52.2884 691.607 Q54.2328 692.741 56.5477 693.32 Q58.8625 693.898 61.3856 693.898 Q65.7837 693.898 68.0754 692.162 Q70.3902 690.426 70.3902 687.116 Q70.3902 684.061 68.2374 682.348 Q66.1078 680.611 62.2884 680.611 L58.2606 680.611 L58.2606 676.769 L62.4735 676.769 Q65.9226 676.769 67.7513 675.403 Q69.58 674.014 69.58 671.422 Q69.58 668.76 67.6819 667.348 Q65.8069 665.912 62.2884 665.912 Q60.3671 665.912 58.168 666.329 Q55.969 666.746 53.3301 667.625 L53.3301 663.459 Q55.9921 662.718 58.3069 662.348 Q60.6449 661.977 62.705 661.977 Q68.0291 661.977 71.1309 664.408 Q74.2327 666.815 74.2327 670.936 Q74.2327 673.806 72.5892 675.797 Q70.9457 677.764 67.9133 678.528 Z" fill="#000000" fill-rule="evenodd" fill-opacity="1" /><path clip-path="url(#clip150)" d="M93.9086 665.681 Q90.2975 665.681 88.4688 669.246 Q86.6632 672.787 86.6632 679.917 Q86.6632 687.023 88.4688 690.588 Q90.2975 694.13 93.9086 694.13 Q97.5428 694.13 99.3483 690.588 Q101.177 687.023 101.177 679.917 Q101.177 672.787 99.3483 669.246 Q97.5428 665.681 93.9086 665.681 M93.9086 661.977 Q99.7187 661.977 102.774 666.584 Q105.853 671.167 105.853 679.917 Q105.853 688.644 102.774 693.25 Q99.7187 697.834 93.9086 697.834 Q88.0984 697.834 85.0197 693.25 Q81.9642 688.644 81.9642 679.917 Q81.9642 671.167 85.0197 666.584 Q88.0984 661.977 93.9086 661.977 Z" fill="#000000" fill-rule="evenodd" fill-opacity="1" /><path clip-path="url(#clip150)" d="M124.07 665.681 Q120.459 665.681 118.631 669.246 Q116.825 672.787 116.825 679.917 Q116.825 687.023 118.631 690.588 Q120.459 694.13 124.07 694.13 Q127.705 694.13 129.51 690.588 Q131.339 687.023 131.339 679.917 Q131.339 672.787 129.51 669.246 Q127.705 665.681 124.07 665.681 M124.07 661.977 Q129.881 661.977 132.936 666.584 Q136.015 671.167 136.015 679.917 Q136.015 688.644 132.936 693.25 Q129.881 697.834 124.07 697.834 Q118.26 697.834 115.182 693.25 Q112.126 688.644 112.126 679.917 Q112.126 671.167 115.182 666.584 Q118.26 661.977 124.07 661.977 Z" fill="#000000" fill-rule="evenodd" fill-opacity="1" /><path clip-path="url(#clip150)" d="M66.5939 407.881 L54.7884 426.33 L66.5939 426.33 L66.5939 407.881 M65.367 403.807 L71.2466 403.807 L71.2466 426.33 L76.1772 426.33 L76.1772 430.219 L71.2466 430.219 L71.2466 438.367 L66.5939 438.367 L66.5939 430.219 L50.9921 430.219 L50.9921 425.705 L65.367 403.807 Z" fill="#000000" fill-rule="evenodd" fill-opacity="1" /><path clip-path="url(#clip150)" d="M93.9086 406.886 Q90.2975 406.886 88.4688 410.45 Q86.6632 413.992 86.6632 421.122 Q86.6632 428.228 88.4688 431.793 Q90.2975 435.334 93.9086 435.334 Q97.5428 435.334 99.3483 431.793 Q101.177 428.228 101.177 421.122 Q101.177 413.992 99.3483 410.45 Q97.5428 406.886 93.9086 406.886 M93.9086 403.182 Q99.7187 403.182 102.774 407.788 Q105.853 412.372 105.853 421.122 Q105.853 429.848 102.774 434.455 Q99.7187 439.038 93.9086 439.038 Q88.0984 439.038 85.0197 434.455 Q81.9642 429.848 81.9642 421.122 Q81.9642 412.372 85.0197 407.788 Q88.0984 403.182 93.9086 403.182 Z" fill="#000000" fill-rule="evenodd" fill-opacity="1" /><path clip-path="url(#clip150)" d="M124.07 406.886 Q120.459 406.886 118.631 410.45 Q116.825 413.992 116.825 421.122 Q116.825 428.228 118.631 431.793 Q120.459 435.334 124.07 435.334 Q127.705 435.334 129.51 431.793 Q131.339 428.228 131.339 421.122 Q131.339 413.992 129.51 410.45 Q127.705 406.886 124.07 406.886 M124.07 403.182 Q129.881 403.182 132.936 407.788 Q136.015 412.372 136.015 421.122 Q136.015 429.848 132.936 434.455 Q129.881 439.038 124.07 439.038 Q118.26 439.038 115.182 434.455 Q112.126 429.848 112.126 421.122 Q112.126 412.372 115.182 407.788 Q118.26 403.182 124.07 403.182 Z" fill="#000000" fill-rule="evenodd" fill-opacity="1" /><path clip-path="url(#clip150)" d="M53.793 145.011 L72.1494 145.011 L72.1494 148.947 L58.0754 148.947 L58.0754 157.419 Q59.0939 157.072 60.1124 156.91 Q61.131 156.724 62.1495 156.724 Q67.9365 156.724 71.3161 159.896 Q74.6957 163.067 74.6957 168.484 Q74.6957 174.062 71.2235 177.164 Q67.7513 180.243 61.4319 180.243 Q59.256 180.243 56.9875 179.872 Q54.7421 179.502 52.3347 178.761 L52.3347 174.062 Q54.418 175.196 56.6402 175.752 Q58.8625 176.308 61.3393 176.308 Q65.3439 176.308 67.6819 174.201 Q70.0198 172.095 70.0198 168.484 Q70.0198 164.872 67.6819 162.766 Q65.3439 160.66 61.3393 160.66 Q59.4643 160.66 57.5893 161.076 Q55.7375 161.493 53.793 162.372 L53.793 145.011 Z" fill="#000000" fill-rule="evenodd" fill-opacity="1" /><path clip-path="url(#clip150)" d="M93.9086 148.09 Q90.2975 148.09 88.4688 151.655 Q86.6632 155.197 86.6632 162.326 Q86.6632 169.433 88.4688 172.997 Q90.2975 176.539 93.9086 176.539 Q97.5428 176.539 99.3483 172.997 Q101.177 169.433 101.177 162.326 Q101.177 155.197 99.3483 151.655 Q97.5428 148.09 93.9086 148.09 M93.9086 144.386 Q99.7187 144.386 102.774 148.993 Q105.853 153.576 105.853 162.326 Q105.853 171.053 102.774 175.659 Q99.7187 180.243 93.9086 180.243 Q88.0984 180.243 85.0197 175.659 Q81.9642 171.053 81.9642 162.326 Q81.9642 153.576 85.0197 148.993 Q88.0984 144.386 93.9086 144.386 Z" fill="#000000" fill-rule="evenodd" fill-opacity="1" /><path clip-path="url(#clip150)" d="M124.07 148.09 Q120.459 148.09 118.631 151.655 Q116.825 155.197 116.825 162.326 Q116.825 169.433 118.631 172.997 Q120.459 176.539 124.07 176.539 Q127.705 176.539 129.51 172.997 Q131.339 169.433 131.339 162.326 Q131.339 155.197 129.51 151.655 Q127.705 148.09 124.07 148.09 M124.07 144.386 Q129.881 144.386 132.936 148.993 Q136.015 153.576 136.015 162.326 Q136.015 171.053 132.936 175.659 Q129.881 180.243 124.07 180.243 Q118.26 180.243 115.182 175.659 Q112.126 171.053 112.126 162.326 Q112.126 153.576 115.182 148.993 Q118.26 144.386 124.07 144.386 Z" fill="#000000" fill-rule="evenodd" fill-opacity="1" /><path clip-path="url(#clip150)" d="M950.324 28.5427 L950.324 35.5912 Q947.164 33.9709 943.761 33.1607 Q940.359 32.3505 936.713 32.3505 Q931.163 32.3505 928.368 34.0519 Q925.613 35.7533 925.613 39.156 Q925.613 41.7486 927.598 43.2475 Q929.583 44.7058 935.579 46.0426 L938.131 46.6097 Q946.071 48.3111 949.392 51.4303 Q952.754 54.509 952.754 60.0587 Q952.754 66.3781 947.731 70.0644 Q942.749 73.7508 933.999 73.7508 Q930.353 73.7508 926.383 73.0216 Q922.454 72.3329 918.079 70.9151 L918.079 63.2184 Q922.211 65.3654 926.221 66.4591 Q930.231 67.5124 934.161 67.5124 Q939.427 67.5124 942.263 65.73 Q945.098 63.9071 945.098 60.6258 Q945.098 57.5877 943.032 55.9673 Q941.007 54.3469 934.08 52.8481 L931.487 52.2405 Q924.56 50.7821 921.482 47.7845 Q918.403 44.7463 918.403 39.4801 Q918.403 33.0797 922.94 29.5959 Q927.477 26.1121 935.822 26.1121 Q939.954 26.1121 943.599 26.7198 Q947.245 27.3274 950.324 28.5427 Z" fill="#000000" fill-rule="evenodd" fill-opacity="1" /><path clip-path="url(#clip150)" d="M964.624 27.2059 L972.077 27.2059 L972.077 72.576 L964.624 72.576 L964.624 27.2059 M964.624 9.54393 L972.077 9.54393 L972.077 18.9825 L964.624 18.9825 L964.624 9.54393 Z" fill="#000000" fill-rule="evenodd" fill-opacity="1" /><path clip-path="url(#clip150)" d="M1023 35.9153 Q1025.79 30.8922 1029.68 28.5022 Q1033.57 26.1121 1038.84 26.1121 Q1045.93 26.1121 1049.77 31.0947 Q1053.62 36.0368 1053.62 45.1919 L1053.62 72.576 L1046.13 72.576 L1046.13 45.4349 Q1046.13 38.913 1043.82 35.7533 Q1041.51 32.5936 1036.77 32.5936 Q1030.98 32.5936 1027.62 36.4419 Q1024.25 40.2903 1024.25 46.9338 L1024.25 72.576 L1016.76 72.576 L1016.76 45.4349 Q1016.76 38.8725 1014.45 35.7533 Q1012.14 32.5936 1007.32 32.5936 Q1001.61 32.5936 998.246 36.4824 Q994.884 40.3308 994.884 46.9338 L994.884 72.576 L987.39 72.576 L987.39 27.2059 L994.884 27.2059 L994.884 34.2544 Q997.436 30.082 1001 28.0971 Q1004.57 26.1121 1009.47 26.1121 Q1014.41 26.1121 1017.85 28.6237 Q1021.34 31.1352 1023 35.9153 Z" fill="#000000" fill-rule="evenodd" fill-opacity="1" /><path clip-path="url(#clip150)" d="M1075.7 65.7705 L1075.7 89.8329 L1068.21 89.8329 L1068.21 27.2059 L1075.7 27.2059 L1075.7 34.0924 Q1078.05 30.0415 1081.61 28.0971 Q1085.22 26.1121 1090.2 26.1121 Q1098.47 26.1121 1103.61 32.6746 Q1108.8 39.2371 1108.8 49.9314 Q1108.8 60.6258 1103.61 67.1883 Q1098.47 73.7508 1090.2 73.7508 Q1085.22 73.7508 1081.61 71.8063 Q1078.05 69.8214 1075.7 65.7705 M1101.06 49.9314 Q1101.06 41.7081 1097.66 37.0496 Q1094.29 32.3505 1088.38 32.3505 Q1082.46 32.3505 1079.06 37.0496 Q1075.7 41.7081 1075.7 49.9314 Q1075.7 58.1548 1079.06 62.8538 Q1082.46 67.5124 1088.38 67.5124 Q1094.29 67.5124 1097.66 62.8538 Q1101.06 58.1548 1101.06 49.9314 Z" fill="#000000" fill-rule="evenodd" fill-opacity="1" /><path clip-path="url(#clip150)" d="M1121.15 9.54393 L1128.6 9.54393 L1128.6 72.576 L1121.15 72.576 L1121.15 9.54393 Z" fill="#000000" fill-rule="evenodd" fill-opacity="1" /><path clip-path="url(#clip150)" d="M1183.01 48.0275 L1183.01 51.6733 L1148.74 51.6733 Q1149.22 59.3701 1153.36 63.421 Q1157.53 67.4314 1164.94 67.4314 Q1169.23 67.4314 1173.25 66.3781 Q1177.3 65.3249 1181.27 63.2184 L1181.27 70.267 Q1177.26 71.9684 1173.04 72.8596 Q1168.83 73.7508 1164.5 73.7508 Q1153.64 73.7508 1147.28 67.4314 Q1140.96 61.1119 1140.96 50.3365 Q1140.96 39.1965 1146.95 32.6746 Q1152.99 26.1121 1163.2 26.1121 Q1172.35 26.1121 1177.66 32.0264 Q1183.01 37.9003 1183.01 48.0275 M1175.55 45.84 Q1175.47 39.7232 1172.11 36.0774 Q1168.79 32.4315 1163.28 32.4315 Q1157.04 32.4315 1153.27 35.9558 Q1149.55 39.4801 1148.98 45.8805 L1175.55 45.84 Z" fill="#000000" fill-rule="evenodd" fill-opacity="1" /><path clip-path="url(#clip150)" d="M1229.71 86.3491 L1229.71 92.1419 L1186.61 92.1419 L1186.61 86.3491 L1229.71 86.3491 Z" fill="#000000" fill-rule="evenodd" fill-opacity="1" /><path clip-path="url(#clip150)" d="M1236.72 27.2059 L1244.18 27.2059 L1244.18 72.576 L1236.72 72.576 L1236.72 27.2059 M1236.72 9.54393 L1244.18 9.54393 L1244.18 18.9825 L1236.72 18.9825 L1236.72 9.54393 Z" fill="#000000" fill-rule="evenodd" fill-opacity="1" /><path clip-path="url(#clip150)" d="M1297.49 45.1919 L1297.49 72.576 L1290.03 72.576 L1290.03 45.4349 Q1290.03 38.994 1287.52 35.7938 Q1285.01 32.5936 1279.99 32.5936 Q1273.95 32.5936 1270.47 36.4419 Q1266.98 40.2903 1266.98 46.9338 L1266.98 72.576 L1259.49 72.576 L1259.49 27.2059 L1266.98 27.2059 L1266.98 34.2544 Q1269.66 30.163 1273.26 28.1376 Q1276.91 26.1121 1281.65 26.1121 Q1289.47 26.1121 1293.48 30.9732 Q1297.49 35.7938 1297.49 45.1919 Z" fill="#000000" fill-rule="evenodd" fill-opacity="1" /><path clip-path="url(#clip150)" d="M1342.21 34.0924 L1342.21 9.54393 L1349.66 9.54393 L1349.66 72.576 L1342.21 72.576 L1342.21 65.7705 Q1339.86 69.8214 1336.25 71.8063 Q1332.69 73.7508 1327.67 73.7508 Q1319.44 73.7508 1314.26 67.1883 Q1309.11 60.6258 1309.11 49.9314 Q1309.11 39.2371 1314.26 32.6746 Q1319.44 26.1121 1327.67 26.1121 Q1332.69 26.1121 1336.25 28.0971 Q1339.86 30.0415 1342.21 34.0924 M1316.81 49.9314 Q1316.81 58.1548 1320.17 62.8538 Q1323.57 67.5124 1329.49 67.5124 Q1335.4 67.5124 1338.81 62.8538 Q1342.21 58.1548 1342.21 49.9314 Q1342.21 41.7081 1338.81 37.0496 Q1335.4 32.3505 1329.49 32.3505 Q1323.57 32.3505 1320.17 37.0496 Q1316.81 41.7081 1316.81 49.9314 Z" fill="#000000" fill-rule="evenodd" fill-opacity="1" /><path clip-path="url(#clip150)" d="M1364.25 54.671 L1364.25 27.2059 L1371.7 27.2059 L1371.7 54.3874 Q1371.7 60.8284 1374.21 64.0691 Q1376.72 67.2693 1381.75 67.2693 Q1387.78 67.2693 1391.26 63.421 Q1394.79 59.5726 1394.79 52.9291 L1394.79 27.2059 L1402.24 27.2059 L1402.24 72.576 L1394.79 72.576 L1394.79 65.6084 Q1392.08 69.7404 1388.47 71.7658 Q1384.9 73.7508 1380.17 73.7508 Q1372.35 73.7508 1368.3 68.8897 Q1364.25 64.0286 1364.25 54.671 M1383 26.1121 L1383 26.1121 Z" fill="#000000" fill-rule="evenodd" fill-opacity="1" /><path clip-path="url(#clip150)" d="M1450.25 28.9478 L1450.25 35.9153 Q1447.09 34.1734 1443.89 33.3227 Q1440.73 32.4315 1437.49 32.4315 Q1430.23 32.4315 1426.22 37.0496 Q1422.21 41.6271 1422.21 49.9314 Q1422.21 58.2358 1426.22 62.8538 Q1430.23 67.4314 1437.49 67.4314 Q1440.73 67.4314 1443.89 66.5807 Q1447.09 65.6895 1450.25 63.9476 L1450.25 70.8341 Q1447.13 72.2924 1443.76 73.0216 Q1440.44 73.7508 1436.68 73.7508 Q1426.43 73.7508 1420.39 67.3098 Q1414.36 60.8689 1414.36 49.9314 Q1414.36 38.832 1420.43 32.472 Q1426.55 26.1121 1437.16 26.1121 Q1440.6 26.1121 1443.89 26.8413 Q1447.17 27.5299 1450.25 28.9478 Z" fill="#000000" fill-rule="evenodd" fill-opacity="1" /><path clip-path="url(#clip150)" d="M1470.58 14.324 L1470.58 27.2059 L1485.93 27.2059 L1485.93 32.9987 L1470.58 32.9987 L1470.58 57.6282 Q1470.58 63.1779 1472.08 64.7578 Q1473.62 66.3376 1478.28 66.3376 L1485.93 66.3376 L1485.93 72.576 L1478.28 72.576 Q1469.65 72.576 1466.37 69.3758 Q1463.09 66.1351 1463.09 57.6282 L1463.09 32.9987 L1457.62 32.9987 L1457.62 27.2059 L1463.09 27.2059 L1463.09 14.324 L1470.58 14.324 Z" fill="#000000" fill-rule="evenodd" fill-opacity="1" /><path clip-path="url(#clip150)" d="M1495.74 27.2059 L1503.19 27.2059 L1503.19 72.576 L1495.74 72.576 L1495.74 27.2059 M1495.74 9.54393 L1503.19 9.54393 L1503.19 18.9825 L1495.74 18.9825 L1495.74 9.54393 Z" fill="#000000" fill-rule="evenodd" fill-opacity="1" /><path clip-path="url(#clip150)" d="M1513.44 27.2059 L1521.34 27.2059 L1535.52 65.2844 L1549.7 27.2059 L1557.6 27.2059 L1540.58 72.576 L1530.45 72.576 L1513.44 27.2059 Z" fill="#000000" fill-rule="evenodd" fill-opacity="1" /><path clip-path="url(#clip150)" d="M1606.69 48.0275 L1606.69 51.6733 L1572.42 51.6733 Q1572.91 59.3701 1577.04 63.421 Q1581.21 67.4314 1588.62 67.4314 Q1592.92 67.4314 1596.93 66.3781 Q1600.98 65.3249 1604.95 63.2184 L1604.95 70.267 Q1600.94 71.9684 1596.73 72.8596 Q1592.51 73.7508 1588.18 73.7508 Q1577.32 73.7508 1570.96 67.4314 Q1564.64 61.1119 1564.64 50.3365 Q1564.64 39.1965 1570.64 32.6746 Q1576.67 26.1121 1586.88 26.1121 Q1596.04 26.1121 1601.34 32.0264 Q1606.69 37.9003 1606.69 48.0275 M1599.24 45.84 Q1599.16 39.7232 1595.8 36.0774 Q1592.47 32.4315 1586.96 32.4315 Q1580.73 32.4315 1576.96 35.9558 Q1573.23 39.4801 1572.66 45.8805 L1599.24 45.84 Z" fill="#000000" fill-rule="evenodd" fill-opacity="1" /><path clip-path="url(#clip152)" d="
M291.959 162.291 L291.959 1456.27 L2232.81 1456.27 L2232.81 162.291 L291.959 162.291 L291.959 162.291  Z
  " fill="#e69f00" fill-rule="evenodd" fill-opacity="1"/>
<polyline clip-path="url(#clip152)" style="stroke:#000000; stroke-linecap:round; stroke-linejoin:round; stroke-width:4; stroke-opacity:1; fill:none" points="
  291.959,162.291 291.959,1456.27 2232.81,1456.27 2232.81,162.291 291.959,162.291 
  "/>
<circle clip-path="url(#clip152)" style="fill:#e69f00; stroke:none; fill-opacity:0" cx="1262.39" cy="162.291" r="2"/>
</svg>
