<?xml version="1.0" encoding="UTF-8"?>
<svg xmlns="http://www.w3.org/2000/svg" xmlns:xlink="http://www.w3.org/1999/xlink" width="500pt" height="500pt" viewBox="0 0 500 500" version="1.1">
<g id="surface897">
<path style="fill:none;stroke-width:5;stroke-linecap:butt;stroke-linejoin:miter;stroke:rgb(25.1%,38.8%,84.7%);stroke-opacity:1;stroke-miterlimit:10;" d="M 22.554688 432.214844 L 31.839844 410.570312 L 41.121094 388.535156 L 50.40625 366.472656 L 59.6875 344.734375 L 68.972656 323.652344 L 78.253906 303.527344 L 87.539062 284.648438 L 96.824219 267.253906 L 106.105469 251.558594 L 115.390625 237.738281 L 124.671875 225.929688 L 133.957031 216.230469 L 143.238281 208.6875 L 152.523438 203.320312 L 161.808594 200.101562 L 171.089844 198.957031 L 180.375 199.789062 L 189.65625 202.449219 L 198.941406 206.773438 L 208.222656 212.550781 L 217.507812 219.558594 L 226.792969 227.542969 L 236.074219 236.238281 L 245.359375 245.363281 L 254.640625 254.636719 L 263.925781 263.761719 L 273.207031 272.457031 L 282.492188 280.441406 L 291.777344 287.449219 L 301.058594 293.226562 L 310.34375 297.550781 L 319.625 300.210938 L 328.910156 301.042969 L 338.191406 299.898438 L 347.476562 296.679688 L 356.761719 291.3125 L 366.042969 283.769531 L 375.328125 274.070312 L 384.609375 262.261719 L 393.894531 248.441406 L 403.175781 232.746094 L 412.460938 215.351562 L 421.746094 196.472656 L 431.027344 176.347656 L 440.3125 155.265625 L 449.59375 133.527344 L 458.878906 111.464844 L 468.160156 89.429688 "/>
<path style=" stroke:none;fill-rule:nonzero;fill:rgb(79.6%,23.5%,20%);fill-opacity:1;" d="M 351.472656 278.304688 C 351.472656 305.921875 329.089844 328.304688 301.472656 328.304688 C 273.859375 328.304688 251.472656 305.921875 251.472656 278.304688 C 251.472656 250.691406 273.859375 228.304688 301.472656 228.304688 C 329.089844 228.304688 351.472656 250.691406 351.472656 278.304688 "/>
<path style=" stroke:none;fill-rule:nonzero;fill:rgb(22%,59.6%,14.9%);fill-opacity:1;" d="M 218.429688 113.890625 C 218.429688 141.503906 196.046875 163.890625 168.429688 163.890625 C 140.816406 163.890625 118.429688 141.503906 118.429688 113.890625 C 118.429688 86.273438 140.816406 63.890625 168.429688 63.890625 C 196.046875 63.890625 218.429688 86.273438 218.429688 113.890625 "/>
<path style=" stroke:none;fill-rule:nonzero;fill:rgb(58.4%,34.5%,69.8%);fill-opacity:1;" d="M 140.320312 272.542969 C 140.320312 300.15625 117.9375 322.542969 90.320312 322.542969 C 62.707031 322.542969 40.320312 300.15625 40.320312 272.542969 C 40.320312 244.929688 62.707031 222.542969 90.320312 222.542969 C 117.9375 222.542969 140.320312 244.929688 140.320312 272.542969 "/>
<path style=" stroke:none;fill-rule:nonzero;fill:rgb(25.1%,38.8%,84.7%);fill-opacity:0.2;" d="M 24.625 283.125 L 25.878906 283.203125 L 27.804688 283.113281 L 33.851562 281.261719 L 35.183594 280.558594 L 38.082031 278.691406 L 38.867188 278.113281 L 41.726562 275.746094 L 43.835938 273.761719 L 45.960938 271.570312 L 48.058594 269.234375 L 48.488281 268.734375 L 48.566406 268.644531 L 48.585938 268.621094 L 49.300781 267.773438 L 51.175781 265.46875 L 54.039062 261.730469 L 56.578125 258.210938 L 57.285156 257.203125 L 60.5 252.464844 L 60.597656 252.316406 L 61.261719 251.308594 L 64.886719 245.652344 L 69.738281 237.753906 L 71.347656 235.066406 L 73.222656 231.902344 L 74.574219 229.609375 L 76.824219 225.757812 L 77.046875 225.375 L 78.714844 222.507812 L 78.734375 222.46875 L 79.355469 221.402344 L 79.984375 220.316406 L 80.257812 219.839844 L 80.847656 218.820312 L 82.726562 215.570312 L 85.585938 210.628906 L 87.839844 206.738281 L 90.320312 202.488281 L 90.417969 202.324219 L 91.15625 201.0625 L 93.367188 197.316406 L 93.636719 196.863281 L 94.453125 195.492188 L 94.9375 194.679688 L 99.71875 186.789062 L 100.378906 185.71875 L 101.546875 183.835938 L 103.070312 181.410156 L 104.445312 179.25 L 106.84375 175.542969 L 108.644531 172.8125 L 110.355469 170.269531 L 111.441406 168.683594 L 112.5625 167.066406 L 113.464844 165.777344 L 122.492188 153.777344 L 122.539062 153.71875 L 123.898438 152.058594 L 124.191406 151.703125 L 128.621094 146.601562 L 130.902344 144.144531 L 131.488281 143.535156 L 134.257812 140.761719 L 136.867188 138.3125 L 138.292969 137.046875 L 140.398438 135.269531 L 140.78125 134.957031 L 142.792969 133.378906 L 153.050781 126.929688 L 154.445312 126.261719 L 155.039062 125.992188 L 156.902344 125.199219 L 161.027344 123.773438 L 161.199219 123.722656 L 163.34375 123.15625 L 168.429688 122.285156 L 174.882812 122.089844 L 176.675781 122.214844 L 179.457031 122.554688 L 184.460938 123.613281 L 184.84375 123.71875 L 190.007812 125.429688 L 191.796875 126.152344 L 197.496094 128.878906 L 197.917969 129.105469 L 197.976562 129.136719 L 202.917969 132.035156 L 209.417969 136.480469 L 210.394531 137.203125 L 213.574219 139.65625 L 214.90625 140.726562 L 215.582031 141.277344 L 217.503906 142.878906 L 217.757812 143.09375 L 220.507812 145.46875 L 221.972656 146.769531 L 223.265625 147.9375 L 225.246094 149.753906 L 233.320312 157.519531 L 234.347656 158.542969 L 235.703125 159.898438 L 235.816406 160.015625 L 240.042969 164.308594 L 240.90625 165.195312 L 244.109375 168.5 L 244.851562 169.269531 L 245.074219 169.5 L 247.441406 171.960938 L 247.585938 172.113281 L 248.136719 172.683594 L 250.941406 175.601562 L 251.5625 176.25 L 254.5 179.296875 L 261.257812 186.222656 L 262.304688 187.273438 L 271.71875 196.453125 L 274.179688 198.730469 L 274.375 198.910156 L 275.128906 199.59375 L 278.109375 202.246094 L 281.300781 204.972656 L 283.152344 206.492188 L 293.457031 214.082031 L 299.832031 217.90625 L 301.472656 218.773438 L 308.085938 221.71875 L 310.246094 222.484375 L 315.210938 223.863281 L 315.859375 224.003906 L 315.867188 224.003906 L 317.898438 224.375 L 319.011719 224.539062 L 324.269531 224.910156 L 327.589844 224.796875 L 330.019531 224.539062 L 333.601562 223.886719 L 334.355469 223.707031 L 334.65625 223.628906 L 334.875 223.574219 L 335.035156 223.53125 L 335.125 223.507812 L 335.222656 223.480469 L 335.640625 223.363281 L 335.917969 223.285156 L 337.144531 222.910156 L 339.003906 222.269531 L 340.253906 221.785156 L 341.167969 221.40625 L 342.585938 220.773438 L 349.644531 216.832031 L 350.699219 216.132812 L 350.917969 215.980469 L 356.179688 212.003906 L 359.277344 209.320312 L 360.070312 208.59375 L 360.351562 208.332031 L 364.105469 204.644531 L 365.710938 202.957031 L 370.261719 197.824219 L 371.410156 196.445312 L 372.371094 195.269531 L 373.003906 194.484375 L 374.359375 192.769531 L 374.59375 192.46875 L 374.976562 191.972656 L 375.535156 191.246094 L 379.492188 185.886719 L 386.105469 176.179688 L 388.070312 173.125 L 389.839844 170.308594 L 391.402344 167.773438 L 394.480469 162.664062 L 396.34375 159.496094 L 402.808594 148.121094 L 404.65625 144.777344 L 408.09375 138.457031 L 410.351562 134.25 L 412.761719 129.726562 L 422.847656 110.585938 L 423.664062 109.042969 L 428.074219 100.742188 L 433.214844 91.253906 L 433.308594 91.09375 L 437.714844 83.230469 L 438.394531 82.046875 L 445.648438 70.007812 L 445.984375 69.484375 L 446.15625 69.214844 L 449.996094 63.4375 L 452.089844 60.488281 L 456.238281 55.097656 L 457.523438 53.566406 L 460.320312 50.480469 L 461.109375 49.675781 L 466.230469 45.199219 L 467 44.644531 L 467.101562 44.574219 L 468.988281 43.375 L 468.988281 200.734375 L 467.101562 201.929688 L 467 202 L 466.230469 202.554688 L 461.109375 207.035156 L 460.320312 207.839844 L 457.523438 210.925781 L 456.238281 212.457031 L 452.089844 217.84375 L 449.996094 220.796875 L 446.15625 226.574219 L 445.984375 226.84375 L 445.648438 227.363281 L 438.394531 239.402344 L 437.714844 240.589844 L 433.308594 248.449219 L 433.214844 248.613281 L 428.074219 258.101562 L 423.664062 266.402344 L 422.847656 267.945312 L 412.761719 287.085938 L 410.351562 291.609375 L 408.09375 295.816406 L 404.65625 302.136719 L 402.808594 305.480469 L 396.34375 316.851562 L 394.480469 320.023438 L 391.402344 325.132812 L 389.839844 327.664062 L 388.070312 330.484375 L 386.105469 333.539062 L 379.492188 343.246094 L 375.535156 348.601562 L 374.976562 349.328125 L 374.59375 349.828125 L 374.359375 350.125 L 373.003906 351.84375 L 372.371094 352.628906 L 371.410156 353.804688 L 370.261719 355.183594 L 365.710938 360.316406 L 364.105469 362 L 360.351562 365.691406 L 360.070312 365.953125 L 359.277344 366.679688 L 356.179688 369.363281 L 350.917969 373.339844 L 350.699219 373.488281 L 349.644531 374.191406 L 342.585938 378.132812 L 341.167969 378.765625 L 340.253906 379.144531 L 339.003906 379.628906 L 337.144531 380.269531 L 335.917969 380.644531 L 335.640625 380.722656 L 335.222656 380.839844 L 335.125 380.867188 L 335.035156 380.890625 L 334.875 380.929688 L 334.65625 380.988281 L 334.355469 381.0625 L 333.601562 381.242188 L 330.019531 381.898438 L 327.589844 382.15625 L 324.269531 382.269531 L 319.011719 381.898438 L 317.898438 381.734375 L 315.867188 381.363281 L 315.859375 381.359375 L 315.210938 381.222656 L 310.246094 379.84375 L 308.085938 379.078125 L 301.472656 376.128906 L 299.832031 375.265625 L 293.457031 371.441406 L 283.152344 363.851562 L 281.300781 362.328125 L 278.109375 359.605469 L 275.128906 356.953125 L 274.375 356.265625 L 274.179688 356.089844 L 271.71875 353.8125 L 262.304688 344.632812 L 261.257812 343.582031 L 254.5 336.65625 L 251.5625 333.609375 L 250.941406 332.960938 L 248.136719 330.042969 L 247.585938 329.472656 L 247.441406 329.320312 L 245.074219 326.859375 L 244.851562 326.628906 L 244.109375 325.859375 L 240.90625 322.554688 L 240.042969 321.664062 L 235.816406 317.375 L 235.703125 317.257812 L 234.347656 315.902344 L 233.320312 314.878906 L 225.246094 307.113281 L 223.265625 305.292969 L 221.972656 304.128906 L 220.507812 302.828125 L 217.757812 300.449219 L 217.503906 300.238281 L 215.582031 298.636719 L 214.90625 298.085938 L 213.574219 297.015625 L 210.394531 294.5625 L 209.417969 293.835938 L 202.917969 289.394531 L 197.976562 286.496094 L 197.917969 286.460938 L 197.496094 286.234375 L 191.796875 283.511719 L 190.007812 282.785156 L 184.84375 281.074219 L 184.460938 280.972656 L 179.457031 279.914062 L 176.675781 279.570312 L 174.882812 279.449219 L 168.429688 279.640625 L 163.34375 280.515625 L 161.199219 281.078125 L 161.027344 281.128906 L 156.902344 282.558594 L 155.039062 283.347656 L 154.445312 283.617188 L 153.050781 284.285156 L 142.792969 290.734375 L 140.78125 292.3125 L 140.398438 292.628906 L 138.292969 294.40625 L 136.867188 295.671875 L 134.257812 298.117188 L 131.488281 300.894531 L 130.902344 301.503906 L 128.621094 303.960938 L 124.191406 309.0625 L 123.898438 309.417969 L 122.539062 311.074219 L 122.492188 311.136719 L 113.464844 323.136719 L 112.5625 324.425781 L 111.441406 326.039062 L 110.355469 327.625 L 108.644531 330.171875 L 106.84375 332.898438 L 104.445312 336.609375 L 103.070312 338.769531 L 101.546875 341.195312 L 100.378906 343.078125 L 99.71875 344.148438 L 94.9375 352.039062 L 94.453125 352.851562 L 93.636719 354.222656 L 93.367188 354.675781 L 91.15625 358.421875 L 90.417969 359.683594 L 90.320312 359.847656 L 87.839844 364.097656 L 85.585938 367.988281 L 82.726562 372.925781 L 80.847656 376.175781 L 80.257812 377.199219 L 79.984375 377.675781 L 79.355469 378.761719 L 78.734375 379.828125 L 78.714844 379.863281 L 77.046875 382.734375 L 76.824219 383.113281 L 74.574219 386.964844 L 73.222656 389.261719 L 71.347656 392.425781 L 69.738281 395.113281 L 64.886719 403.007812 L 61.261719 408.667969 L 60.597656 409.671875 L 60.5 409.824219 L 57.285156 414.5625 L 56.578125 415.570312 L 54.039062 419.089844 L 51.175781 422.828125 L 49.300781 425.132812 L 48.585938 425.980469 L 48.566406 426.003906 L 48.488281 426.09375 L 48.058594 426.59375 L 45.960938 428.925781 L 43.835938 431.121094 L 41.726562 433.105469 L 38.867188 435.472656 L 38.082031 436.050781 L 35.183594 437.914062 L 33.851562 438.617188 L 27.804688 440.472656 L 25.878906 440.5625 L 24.625 440.480469 "/>
</g>
</svg>
