<?xml version="1.0" encoding="utf-8"?>
<svg xmlns="http://www.w3.org/2000/svg" xmlns:xlink="http://www.w3.org/1999/xlink" width="600" height="400" viewBox="0 0 2400 1600">
<defs>
  <clipPath id="clip120">
    <rect x="0" y="0" width="2400" height="1600"/>
  </clipPath>
</defs>
<path clip-path="url(#clip120)" d="M0 1600 L2400 1600 L2400 0 L0 0  Z" fill="#ffffff" fill-rule="evenodd" fill-opacity="1"/>
<defs>
  <clipPath id="clip121">
    <rect x="480" y="0" width="1681" height="1600"/>
  </clipPath>
</defs>
<path clip-path="url(#clip120)" d="M172.015 1495.09 L2352.76 1495.09 L2352.76 47.2441 L172.015 47.2441  Z" fill="#ffffff" fill-rule="evenodd" fill-opacity="1"/>
<defs>
  <clipPath id="clip122">
    <rect x="172" y="47" width="2182" height="1449"/>
  </clipPath>
</defs>
<polyline clip-path="url(#clip122)" style="stroke:#000000; stroke-linecap:round; stroke-linejoin:round; stroke-width:2; stroke-opacity:0.1; fill:none" points="291.959,1495.09 291.959,47.2441 "/>
<polyline clip-path="url(#clip122)" style="stroke:#000000; stroke-linecap:round; stroke-linejoin:round; stroke-width:2; stroke-opacity:0.1; fill:none" points="777.172,1495.09 777.172,47.2441 "/>
<polyline clip-path="url(#clip122)" style="stroke:#000000; stroke-linecap:round; stroke-linejoin:round; stroke-width:2; stroke-opacity:0.1; fill:none" points="1262.39,1495.09 1262.39,47.2441 "/>
<polyline clip-path="url(#clip122)" style="stroke:#000000; stroke-linecap:round; stroke-linejoin:round; stroke-width:2; stroke-opacity:0.1; fill:none" points="1747.6,1495.09 1747.6,47.2441 "/>
<polyline clip-path="url(#clip122)" style="stroke:#000000; stroke-linecap:round; stroke-linejoin:round; stroke-width:2; stroke-opacity:0.1; fill:none" points="2232.81,1495.09 2232.81,47.2441 "/>
<polyline clip-path="url(#clip120)" style="stroke:#000000; stroke-linecap:round; stroke-linejoin:round; stroke-width:4; stroke-opacity:1; fill:none" points="172.015,1495.09 2352.76,1495.09 "/>
<polyline clip-path="url(#clip120)" style="stroke:#000000; stroke-linecap:round; stroke-linejoin:round; stroke-width:4; stroke-opacity:1; fill:none" points="291.959,1495.09 291.959,1476.19 "/>
<polyline clip-path="url(#clip120)" style="stroke:#000000; stroke-linecap:round; stroke-linejoin:round; stroke-width:4; stroke-opacity:1; fill:none" points="777.172,1495.09 777.172,1476.19 "/>
<polyline clip-path="url(#clip120)" style="stroke:#000000; stroke-linecap:round; stroke-linejoin:round; stroke-width:4; stroke-opacity:1; fill:none" points="1262.39,1495.09 1262.39,1476.19 "/>
<polyline clip-path="url(#clip120)" style="stroke:#000000; stroke-linecap:round; stroke-linejoin:round; stroke-width:4; stroke-opacity:1; fill:none" points="1747.6,1495.09 1747.6,1476.19 "/>
<polyline clip-path="url(#clip120)" style="stroke:#000000; stroke-linecap:round; stroke-linejoin:round; stroke-width:4; stroke-opacity:1; fill:none" points="2232.81,1495.09 2232.81,1476.19 "/>
<path clip-path="url(#clip120)" d="M274.937 1523.08 Q272.229 1523.08 270.857 1525.75 Q269.503 1528.41 269.503 1533.75 Q269.503 1539.08 270.857 1541.76 Q272.229 1544.41 274.937 1544.41 Q277.663 1544.41 279.017 1541.76 Q280.388 1539.08 280.388 1533.75 Q280.388 1528.41 279.017 1525.75 Q277.663 1523.08 274.937 1523.08 M274.937 1520.3 Q279.295 1520.3 281.586 1523.75 Q283.895 1527.19 283.895 1533.75 Q283.895 1540.3 281.586 1543.75 Q279.295 1547.19 274.937 1547.19 Q270.579 1547.19 268.27 1543.75 Q265.979 1540.3 265.979 1533.75 Q265.979 1527.19 268.27 1523.75 Q270.579 1520.3 274.937 1520.3 Z" fill="#000000" fill-rule="nonzero" fill-opacity="1" /><path clip-path="url(#clip120)" d="M290.058 1542.28 L293.722 1542.28 L293.722 1546.69 L290.058 1546.69 L290.058 1542.28 Z" fill="#000000" fill-rule="nonzero" fill-opacity="1" /><path clip-path="url(#clip120)" d="M309.294 1532.33 Q306.933 1532.33 305.544 1533.94 Q304.173 1535.56 304.173 1538.37 Q304.173 1541.17 305.544 1542.8 Q306.933 1544.41 309.294 1544.41 Q311.656 1544.41 313.027 1542.8 Q314.416 1541.17 314.416 1538.37 Q314.416 1535.56 313.027 1533.94 Q311.656 1532.33 309.294 1532.33 M316.256 1521.34 L316.256 1524.54 Q314.937 1523.91 313.583 1523.58 Q312.246 1523.25 310.926 1523.25 Q307.454 1523.25 305.614 1525.59 Q303.791 1527.94 303.531 1532.68 Q304.555 1531.17 306.1 1530.37 Q307.645 1529.55 309.503 1529.55 Q313.409 1529.55 315.666 1531.93 Q317.94 1534.29 317.94 1538.37 Q317.94 1542.36 315.579 1544.78 Q313.218 1547.19 309.294 1547.19 Q304.798 1547.19 302.419 1543.75 Q300.041 1540.3 300.041 1533.75 Q300.041 1527.61 302.958 1523.96 Q305.874 1520.3 310.787 1520.3 Q312.107 1520.3 313.444 1520.56 Q314.798 1520.82 316.256 1521.34 Z" fill="#000000" fill-rule="nonzero" fill-opacity="1" /><path clip-path="url(#clip120)" d="M760.245 1523.08 Q757.537 1523.08 756.166 1525.75 Q754.811 1528.41 754.811 1533.75 Q754.811 1539.08 756.166 1541.76 Q757.537 1544.41 760.245 1544.41 Q762.971 1544.41 764.325 1541.76 Q765.697 1539.08 765.697 1533.75 Q765.697 1528.41 764.325 1525.75 Q762.971 1523.08 760.245 1523.08 M760.245 1520.3 Q764.603 1520.3 766.895 1523.75 Q769.204 1527.19 769.204 1533.75 Q769.204 1540.3 766.895 1543.75 Q764.603 1547.19 760.245 1547.19 Q755.888 1547.19 753.579 1543.75 Q751.287 1540.3 751.287 1533.75 Q751.287 1527.19 753.579 1523.75 Q755.888 1520.3 760.245 1520.3 Z" fill="#000000" fill-rule="nonzero" fill-opacity="1" /><path clip-path="url(#clip120)" d="M775.367 1542.28 L779.03 1542.28 L779.03 1546.69 L775.367 1546.69 L775.367 1542.28 Z" fill="#000000" fill-rule="nonzero" fill-opacity="1" /><path clip-path="url(#clip120)" d="M794.169 1534.38 Q791.669 1534.38 790.228 1535.72 Q788.804 1537.05 788.804 1539.4 Q788.804 1541.74 790.228 1543.08 Q791.669 1544.41 794.169 1544.41 Q796.669 1544.41 798.11 1543.08 Q799.551 1541.72 799.551 1539.4 Q799.551 1537.05 798.11 1535.72 Q796.686 1534.38 794.169 1534.38 M790.662 1532.89 Q788.405 1532.33 787.138 1530.79 Q785.888 1529.24 785.888 1527.02 Q785.888 1523.91 788.092 1522.1 Q790.315 1520.3 794.169 1520.3 Q798.04 1520.3 800.245 1522.1 Q802.45 1523.91 802.45 1527.02 Q802.45 1529.24 801.183 1530.79 Q799.933 1532.33 797.693 1532.89 Q800.228 1533.48 801.634 1535.19 Q803.058 1536.91 803.058 1539.4 Q803.058 1543.16 800.749 1545.18 Q798.457 1547.19 794.169 1547.19 Q789.881 1547.19 787.572 1545.18 Q785.28 1543.16 785.28 1539.4 Q785.28 1536.91 786.704 1535.19 Q788.127 1533.48 790.662 1532.89 M789.377 1527.35 Q789.377 1529.36 790.627 1530.49 Q791.895 1531.62 794.169 1531.62 Q796.426 1531.62 797.693 1530.49 Q798.978 1529.36 798.978 1527.35 Q798.978 1525.33 797.693 1524.21 Q796.426 1523.08 794.169 1523.08 Q791.895 1523.08 790.627 1524.21 Q789.377 1525.33 789.377 1527.35 Z" fill="#000000" fill-rule="nonzero" fill-opacity="1" /><path clip-path="url(#clip120)" d="M1237.75 1543.74 L1243.48 1543.74 L1243.48 1523.96 L1237.25 1525.21 L1237.25 1522.02 L1243.44 1520.77 L1246.95 1520.77 L1246.95 1543.74 L1252.68 1543.74 L1252.68 1546.69 L1237.75 1546.69 L1237.75 1543.74 Z" fill="#000000" fill-rule="nonzero" fill-opacity="1" /><path clip-path="url(#clip120)" d="M1259.76 1542.28 L1263.43 1542.28 L1263.43 1546.69 L1259.76 1546.69 L1259.76 1542.28 Z" fill="#000000" fill-rule="nonzero" fill-opacity="1" /><path clip-path="url(#clip120)" d="M1278.57 1523.08 Q1275.86 1523.08 1274.49 1525.75 Q1273.13 1528.41 1273.13 1533.75 Q1273.13 1539.08 1274.49 1541.76 Q1275.86 1544.41 1278.57 1544.41 Q1281.29 1544.41 1282.65 1541.76 Q1284.02 1539.08 1284.02 1533.75 Q1284.02 1528.41 1282.65 1525.75 Q1281.29 1523.08 1278.57 1523.08 M1278.57 1520.3 Q1282.92 1520.3 1285.22 1523.75 Q1287.52 1527.19 1287.52 1533.75 Q1287.52 1540.3 1285.22 1543.75 Q1282.92 1547.19 1278.57 1547.19 Q1274.21 1547.19 1271.9 1543.75 Q1269.61 1540.3 1269.61 1533.75 Q1269.61 1527.19 1271.9 1523.75 Q1274.21 1520.3 1278.57 1520.3 Z" fill="#000000" fill-rule="nonzero" fill-opacity="1" /><path clip-path="url(#clip120)" d="M1723.56 1543.74 L1729.29 1543.74 L1729.29 1523.96 L1723.06 1525.21 L1723.06 1522.02 L1729.26 1520.77 L1732.76 1520.77 L1732.76 1543.74 L1738.49 1543.74 L1738.49 1546.69 L1723.56 1546.69 L1723.56 1543.74 Z" fill="#000000" fill-rule="nonzero" fill-opacity="1" /><path clip-path="url(#clip120)" d="M1745.58 1542.28 L1749.24 1542.28 L1749.24 1546.69 L1745.58 1546.69 L1745.58 1542.28 Z" fill="#000000" fill-rule="nonzero" fill-opacity="1" /><path clip-path="url(#clip120)" d="M1759.9 1543.74 L1772.14 1543.74 L1772.14 1546.69 L1755.68 1546.69 L1755.68 1543.74 Q1757.68 1541.67 1761.11 1538.2 Q1764.57 1534.71 1765.45 1533.7 Q1767.14 1531.81 1767.8 1530.51 Q1768.47 1529.19 1768.47 1527.92 Q1768.47 1525.85 1767.02 1524.55 Q1765.58 1523.25 1763.25 1523.25 Q1761.6 1523.25 1759.76 1523.82 Q1757.94 1524.4 1755.85 1525.56 L1755.85 1522.02 Q1757.97 1521.17 1759.81 1520.73 Q1761.65 1520.3 1763.18 1520.3 Q1767.21 1520.3 1769.6 1522.31 Q1772 1524.33 1772 1527.69 Q1772 1529.29 1771.39 1530.73 Q1770.8 1532.16 1769.22 1534.1 Q1768.79 1534.6 1766.46 1537.02 Q1764.13 1539.41 1759.9 1543.74 Z" fill="#000000" fill-rule="nonzero" fill-opacity="1" /><path clip-path="url(#clip120)" d="M2207.99 1543.74 L2213.72 1543.74 L2213.72 1523.96 L2207.49 1525.21 L2207.49 1522.02 L2213.69 1520.77 L2217.2 1520.77 L2217.2 1543.74 L2222.92 1543.74 L2222.92 1546.69 L2207.99 1546.69 L2207.99 1543.74 Z" fill="#000000" fill-rule="nonzero" fill-opacity="1" /><path clip-path="url(#clip120)" d="M2230.01 1542.28 L2233.67 1542.28 L2233.67 1546.69 L2230.01 1546.69 L2230.01 1542.28 Z" fill="#000000" fill-rule="nonzero" fill-opacity="1" /><path clip-path="url(#clip120)" d="M2250.94 1523.82 L2242.09 1537.66 L2250.94 1537.66 L2250.94 1523.82 M2250.02 1520.77 L2254.43 1520.77 L2254.43 1537.66 L2258.13 1537.66 L2258.13 1540.58 L2254.43 1540.58 L2254.43 1546.69 L2250.94 1546.69 L2250.94 1540.58 L2239.24 1540.58 L2239.24 1537.19 L2250.02 1520.77 Z" fill="#000000" fill-rule="nonzero" fill-opacity="1" /><polyline clip-path="url(#clip122)" style="stroke:#000000; stroke-linecap:round; stroke-linejoin:round; stroke-width:2; stroke-opacity:0.1; fill:none" points="172.015,1495.09 2352.76,1495.09 "/>
<polyline clip-path="url(#clip122)" style="stroke:#000000; stroke-linecap:round; stroke-linejoin:round; stroke-width:2; stroke-opacity:0.1; fill:none" points="172.015,1208.95 2352.76,1208.95 "/>
<polyline clip-path="url(#clip122)" style="stroke:#000000; stroke-linecap:round; stroke-linejoin:round; stroke-width:2; stroke-opacity:0.1; fill:none" points="172.015,922.818 2352.76,922.818 "/>
<polyline clip-path="url(#clip122)" style="stroke:#000000; stroke-linecap:round; stroke-linejoin:round; stroke-width:2; stroke-opacity:0.1; fill:none" points="172.015,636.682 2352.76,636.682 "/>
<polyline clip-path="url(#clip122)" style="stroke:#000000; stroke-linecap:round; stroke-linejoin:round; stroke-width:2; stroke-opacity:0.1; fill:none" points="172.015,350.547 2352.76,350.547 "/>
<polyline clip-path="url(#clip122)" style="stroke:#000000; stroke-linecap:round; stroke-linejoin:round; stroke-width:2; stroke-opacity:0.1; fill:none" points="172.015,64.4122 2352.76,64.4122 "/>
<polyline clip-path="url(#clip120)" style="stroke:#000000; stroke-linecap:round; stroke-linejoin:round; stroke-width:4; stroke-opacity:1; fill:none" points="172.015,1495.09 172.015,47.2441 "/>
<polyline clip-path="url(#clip120)" style="stroke:#000000; stroke-linecap:round; stroke-linejoin:round; stroke-width:4; stroke-opacity:1; fill:none" points="172.015,1495.09 190.912,1495.09 "/>
<polyline clip-path="url(#clip120)" style="stroke:#000000; stroke-linecap:round; stroke-linejoin:round; stroke-width:4; stroke-opacity:1; fill:none" points="172.015,1208.95 190.912,1208.95 "/>
<polyline clip-path="url(#clip120)" style="stroke:#000000; stroke-linecap:round; stroke-linejoin:round; stroke-width:4; stroke-opacity:1; fill:none" points="172.015,922.818 190.912,922.818 "/>
<polyline clip-path="url(#clip120)" style="stroke:#000000; stroke-linecap:round; stroke-linejoin:round; stroke-width:4; stroke-opacity:1; fill:none" points="172.015,636.682 190.912,636.682 "/>
<polyline clip-path="url(#clip120)" style="stroke:#000000; stroke-linecap:round; stroke-linejoin:round; stroke-width:4; stroke-opacity:1; fill:none" points="172.015,350.547 190.912,350.547 "/>
<polyline clip-path="url(#clip120)" style="stroke:#000000; stroke-linecap:round; stroke-linejoin:round; stroke-width:4; stroke-opacity:1; fill:none" points="172.015,64.4122 190.912,64.4122 "/>
<path clip-path="url(#clip120)" d="M124.07 1480.89 Q120.459 1480.89 118.631 1484.45 Q116.825 1487.99 116.825 1495.12 Q116.825 1502.23 118.631 1505.79 Q120.459 1509.34 124.07 1509.34 Q127.705 1509.34 129.51 1505.79 Q131.339 1502.23 131.339 1495.12 Q131.339 1487.99 129.51 1484.45 Q127.705 1480.89 124.07 1480.89 M124.07 1477.18 Q129.881 1477.18 132.936 1481.79 Q136.015 1486.37 136.015 1495.12 Q136.015 1503.85 132.936 1508.46 Q129.881 1513.04 124.07 1513.04 Q118.26 1513.04 115.182 1508.46 Q112.126 1503.85 112.126 1495.12 Q112.126 1486.37 115.182 1481.79 Q118.26 1477.18 124.07 1477.18 Z" fill="#000000" fill-rule="nonzero" fill-opacity="1" /><path clip-path="url(#clip120)" d="M54.5569 1222.3 L62.1958 1222.3 L62.1958 1195.93 L53.8856 1197.6 L53.8856 1193.34 L62.1495 1191.67 L66.8254 1191.67 L66.8254 1222.3 L74.4642 1222.3 L74.4642 1226.23 L54.5569 1226.23 L54.5569 1222.3 Z" fill="#000000" fill-rule="nonzero" fill-opacity="1" /><path clip-path="url(#clip120)" d="M93.9086 1194.75 Q90.2975 1194.75 88.4688 1198.32 Q86.6632 1201.86 86.6632 1208.99 Q86.6632 1216.09 88.4688 1219.66 Q90.2975 1223.2 93.9086 1223.2 Q97.5428 1223.2 99.3483 1219.66 Q101.177 1216.09 101.177 1208.99 Q101.177 1201.86 99.3483 1198.32 Q97.5428 1194.75 93.9086 1194.75 M93.9086 1191.05 Q99.7187 1191.05 102.774 1195.65 Q105.853 1200.24 105.853 1208.99 Q105.853 1217.71 102.774 1222.32 Q99.7187 1226.9 93.9086 1226.9 Q88.0984 1226.9 85.0197 1222.32 Q81.9642 1217.71 81.9642 1208.99 Q81.9642 1200.24 85.0197 1195.65 Q88.0984 1191.05 93.9086 1191.05 Z" fill="#000000" fill-rule="nonzero" fill-opacity="1" /><path clip-path="url(#clip120)" d="M124.07 1194.75 Q120.459 1194.75 118.631 1198.32 Q116.825 1201.86 116.825 1208.99 Q116.825 1216.09 118.631 1219.66 Q120.459 1223.2 124.07 1223.2 Q127.705 1223.2 129.51 1219.66 Q131.339 1216.09 131.339 1208.99 Q131.339 1201.86 129.51 1198.32 Q127.705 1194.75 124.07 1194.75 M124.07 1191.05 Q129.881 1191.05 132.936 1195.65 Q136.015 1200.24 136.015 1208.99 Q136.015 1217.71 132.936 1222.32 Q129.881 1226.9 124.07 1226.9 Q118.26 1226.9 115.182 1222.32 Q112.126 1217.71 112.126 1208.99 Q112.126 1200.24 115.182 1195.65 Q118.26 1191.05 124.07 1191.05 Z" fill="#000000" fill-rule="nonzero" fill-opacity="1" /><path clip-path="url(#clip120)" d="M57.7745 936.162 L74.0939 936.162 L74.0939 940.098 L52.1495 940.098 L52.1495 936.162 Q54.8115 933.408 59.3949 928.778 Q64.0013 924.125 65.1819 922.783 Q67.4272 920.26 68.3068 918.524 Q69.2096 916.764 69.2096 915.075 Q69.2096 912.32 67.2652 910.584 Q65.3439 908.848 62.2421 908.848 Q60.043 908.848 57.5893 909.612 Q55.1588 910.376 52.381 911.926 L52.381 907.204 Q55.2051 906.07 57.6588 905.491 Q60.1124 904.913 62.1495 904.913 Q67.5198 904.913 70.7142 907.598 Q73.9087 910.283 73.9087 914.774 Q73.9087 916.903 73.0985 918.825 Q72.3115 920.723 70.205 923.315 Q69.6263 923.987 66.5245 927.204 Q63.4226 930.399 57.7745 936.162 Z" fill="#000000" fill-rule="nonzero" fill-opacity="1" /><path clip-path="url(#clip120)" d="M93.9086 908.616 Q90.2975 908.616 88.4688 912.181 Q86.6632 915.723 86.6632 922.852 Q86.6632 929.959 88.4688 933.524 Q90.2975 937.065 93.9086 937.065 Q97.5428 937.065 99.3483 933.524 Q101.177 929.959 101.177 922.852 Q101.177 915.723 99.3483 912.181 Q97.5428 908.616 93.9086 908.616 M93.9086 904.913 Q99.7187 904.913 102.774 909.519 Q105.853 914.102 105.853 922.852 Q105.853 931.579 102.774 936.186 Q99.7187 940.769 93.9086 940.769 Q88.0984 940.769 85.0197 936.186 Q81.9642 931.579 81.9642 922.852 Q81.9642 914.102 85.0197 909.519 Q88.0984 904.913 93.9086 904.913 Z" fill="#000000" fill-rule="nonzero" fill-opacity="1" /><path clip-path="url(#clip120)" d="M124.07 908.616 Q120.459 908.616 118.631 912.181 Q116.825 915.723 116.825 922.852 Q116.825 929.959 118.631 933.524 Q120.459 937.065 124.07 937.065 Q127.705 937.065 129.51 933.524 Q131.339 929.959 131.339 922.852 Q131.339 915.723 129.51 912.181 Q127.705 908.616 124.07 908.616 M124.07 904.913 Q129.881 904.913 132.936 909.519 Q136.015 914.102 136.015 922.852 Q136.015 931.579 132.936 936.186 Q129.881 940.769 124.07 940.769 Q118.26 940.769 115.182 936.186 Q112.126 931.579 112.126 922.852 Q112.126 914.102 115.182 909.519 Q118.26 904.913 124.07 904.913 Z" fill="#000000" fill-rule="nonzero" fill-opacity="1" /><path clip-path="url(#clip120)" d="M67.9133 635.328 Q71.2698 636.046 73.1448 638.314 Q75.0429 640.583 75.0429 643.916 Q75.0429 649.032 71.5244 651.833 Q68.0059 654.634 61.5245 654.634 Q59.3486 654.634 57.0338 654.194 Q54.7421 653.777 52.2884 652.921 L52.2884 648.407 Q54.2328 649.541 56.5477 650.12 Q58.8625 650.699 61.3856 650.699 Q65.7837 650.699 68.0754 648.962 Q70.3902 647.226 70.3902 643.916 Q70.3902 640.861 68.2374 639.148 Q66.1078 637.412 62.2884 637.412 L58.2606 637.412 L58.2606 633.569 L62.4735 633.569 Q65.9226 633.569 67.7513 632.203 Q69.58 630.814 69.58 628.222 Q69.58 625.56 67.6819 624.148 Q65.8069 622.713 62.2884 622.713 Q60.3671 622.713 58.168 623.129 Q55.969 623.546 53.3301 624.426 L53.3301 620.259 Q55.9921 619.518 58.3069 619.148 Q60.6449 618.777 62.705 618.777 Q68.0291 618.777 71.1309 621.208 Q74.2327 623.615 74.2327 627.736 Q74.2327 630.606 72.5892 632.597 Q70.9457 634.564 67.9133 635.328 Z" fill="#000000" fill-rule="nonzero" fill-opacity="1" /><path clip-path="url(#clip120)" d="M93.9086 622.481 Q90.2975 622.481 88.4688 626.046 Q86.6632 629.588 86.6632 636.717 Q86.6632 643.824 88.4688 647.388 Q90.2975 650.93 93.9086 650.93 Q97.5428 650.93 99.3483 647.388 Q101.177 643.824 101.177 636.717 Q101.177 629.588 99.3483 626.046 Q97.5428 622.481 93.9086 622.481 M93.9086 618.777 Q99.7187 618.777 102.774 623.384 Q105.853 627.967 105.853 636.717 Q105.853 645.444 102.774 650.05 Q99.7187 654.634 93.9086 654.634 Q88.0984 654.634 85.0197 650.05 Q81.9642 645.444 81.9642 636.717 Q81.9642 627.967 85.0197 623.384 Q88.0984 618.777 93.9086 618.777 Z" fill="#000000" fill-rule="nonzero" fill-opacity="1" /><path clip-path="url(#clip120)" d="M124.07 622.481 Q120.459 622.481 118.631 626.046 Q116.825 629.588 116.825 636.717 Q116.825 643.824 118.631 647.388 Q120.459 650.93 124.07 650.93 Q127.705 650.93 129.51 647.388 Q131.339 643.824 131.339 636.717 Q131.339 629.588 129.51 626.046 Q127.705 622.481 124.07 622.481 M124.07 618.777 Q129.881 618.777 132.936 623.384 Q136.015 627.967 136.015 636.717 Q136.015 645.444 132.936 650.05 Q129.881 654.634 124.07 654.634 Q118.26 654.634 115.182 650.05 Q112.126 645.444 112.126 636.717 Q112.126 627.967 115.182 623.384 Q118.26 618.777 124.07 618.777 Z" fill="#000000" fill-rule="nonzero" fill-opacity="1" /><path clip-path="url(#clip120)" d="M66.5939 337.341 L54.7884 355.79 L66.5939 355.79 L66.5939 337.341 M65.367 333.267 L71.2466 333.267 L71.2466 355.79 L76.1772 355.79 L76.1772 359.679 L71.2466 359.679 L71.2466 367.827 L66.5939 367.827 L66.5939 359.679 L50.9921 359.679 L50.9921 355.165 L65.367 333.267 Z" fill="#000000" fill-rule="nonzero" fill-opacity="1" /><path clip-path="url(#clip120)" d="M93.9086 336.346 Q90.2975 336.346 88.4688 339.911 Q86.6632 343.452 86.6632 350.582 Q86.6632 357.689 88.4688 361.253 Q90.2975 364.795 93.9086 364.795 Q97.5428 364.795 99.3483 361.253 Q101.177 357.689 101.177 350.582 Q101.177 343.452 99.3483 339.911 Q97.5428 336.346 93.9086 336.346 M93.9086 332.642 Q99.7187 332.642 102.774 337.249 Q105.853 341.832 105.853 350.582 Q105.853 359.309 102.774 363.915 Q99.7187 368.499 93.9086 368.499 Q88.0984 368.499 85.0197 363.915 Q81.9642 359.309 81.9642 350.582 Q81.9642 341.832 85.0197 337.249 Q88.0984 332.642 93.9086 332.642 Z" fill="#000000" fill-rule="nonzero" fill-opacity="1" /><path clip-path="url(#clip120)" d="M124.07 336.346 Q120.459 336.346 118.631 339.911 Q116.825 343.452 116.825 350.582 Q116.825 357.689 118.631 361.253 Q120.459 364.795 124.07 364.795 Q127.705 364.795 129.51 361.253 Q131.339 357.689 131.339 350.582 Q131.339 343.452 129.51 339.911 Q127.705 336.346 124.07 336.346 M124.07 332.642 Q129.881 332.642 132.936 337.249 Q136.015 341.832 136.015 350.582 Q136.015 359.309 132.936 363.915 Q129.881 368.499 124.07 368.499 Q118.26 368.499 115.182 363.915 Q112.126 359.309 112.126 350.582 Q112.126 341.832 115.182 337.249 Q118.26 332.642 124.07 332.642 Z" fill="#000000" fill-rule="nonzero" fill-opacity="1" /><path clip-path="url(#clip120)" d="M53.793 47.1322 L72.1494 47.1322 L72.1494 51.0674 L58.0754 51.0674 L58.0754 59.5395 Q59.0939 59.1923 60.1124 59.0303 Q61.131 58.8451 62.1495 58.8451 Q67.9365 58.8451 71.3161 62.0164 Q74.6957 65.1877 74.6957 70.6043 Q74.6957 76.183 71.2235 79.2848 Q67.7513 82.3635 61.4319 82.3635 Q59.256 82.3635 56.9875 81.9931 Q54.7421 81.6228 52.3347 80.882 L52.3347 76.183 Q54.418 77.3172 56.6402 77.8728 Q58.8625 78.4283 61.3393 78.4283 Q65.3439 78.4283 67.6819 76.3219 Q70.0198 74.2154 70.0198 70.6043 Q70.0198 66.9932 67.6819 64.8867 Q65.3439 62.7803 61.3393 62.7803 Q59.4643 62.7803 57.5893 63.1969 Q55.7375 63.6136 53.793 64.4932 L53.793 47.1322 Z" fill="#000000" fill-rule="nonzero" fill-opacity="1" /><path clip-path="url(#clip120)" d="M93.9086 50.2109 Q90.2975 50.2109 88.4688 53.7757 Q86.6632 57.3173 86.6632 64.4469 Q86.6632 71.5534 88.4688 75.1182 Q90.2975 78.6598 93.9086 78.6598 Q97.5428 78.6598 99.3483 75.1182 Q101.177 71.5534 101.177 64.4469 Q101.177 57.3173 99.3483 53.7757 Q97.5428 50.2109 93.9086 50.2109 M93.9086 46.5072 Q99.7187 46.5072 102.774 51.1137 Q105.853 55.697 105.853 64.4469 Q105.853 73.1737 102.774 77.7802 Q99.7187 82.3635 93.9086 82.3635 Q88.0984 82.3635 85.0197 77.7802 Q81.9642 73.1737 81.9642 64.4469 Q81.9642 55.697 85.0197 51.1137 Q88.0984 46.5072 93.9086 46.5072 Z" fill="#000000" fill-rule="nonzero" fill-opacity="1" /><path clip-path="url(#clip120)" d="M124.07 50.2109 Q120.459 50.2109 118.631 53.7757 Q116.825 57.3173 116.825 64.4469 Q116.825 71.5534 118.631 75.1182 Q120.459 78.6598 124.07 78.6598 Q127.705 78.6598 129.51 75.1182 Q131.339 71.5534 131.339 64.4469 Q131.339 57.3173 129.51 53.7757 Q127.705 50.2109 124.07 50.2109 M124.07 46.5072 Q129.881 46.5072 132.936 51.1137 Q136.015 55.697 136.015 64.4469 Q136.015 73.1737 132.936 77.7802 Q129.881 82.3635 124.07 82.3635 Q118.26 82.3635 115.182 77.7802 Q112.126 73.1737 112.126 64.4469 Q112.126 55.697 115.182 51.1137 Q118.26 46.5072 124.07 46.5072 Z" fill="#000000" fill-rule="nonzero" fill-opacity="1" /><path clip-path="url(#clip122)" d="M291.959 47.2441 L291.959 1495.09 L2232.81 1495.09 L2232.81 47.2441 L291.959 47.2441 L291.959 47.2441  Z" fill="#e69f00" fill-rule="evenodd" fill-opacity="1"/>
<polyline clip-path="url(#clip122)" style="stroke:#000000; stroke-linecap:round; stroke-linejoin:round; stroke-width:4; stroke-opacity:1; fill:none" points="291.959,47.2441 291.959,1495.09 2232.81,1495.09 2232.81,47.2441 291.959,47.2441 "/>
<circle clip-path="url(#clip122)" style="fill:#e69f00; stroke:none; fill-opacity:0" cx="1262.39" cy="47.2441" r="2"/>
</svg>
