<?xml version="1.0" encoding="utf-8"?>
<svg xmlns="http://www.w3.org/2000/svg" xmlns:xlink="http://www.w3.org/1999/xlink" width="600" height="400" viewBox="0 0 2400 1600">
<defs>
  <clipPath id="clip260">
    <rect x="0" y="0" width="2400" height="1600"/>
  </clipPath>
</defs>
<path clip-path="url(#clip260)" d="M0 1600 L2400 1600 L2400 0 L0 0  Z" fill="#ffffff" fill-rule="evenodd" fill-opacity="1"/>
<defs>
  <clipPath id="clip261">
    <rect x="480" y="0" width="1681" height="1600"/>
  </clipPath>
</defs>
<path clip-path="url(#clip260)" d="M170.857 1495.09 L2352.76 1495.09 L2352.76 47.2441 L170.857 47.2441  Z" fill="#ffffff" fill-rule="evenodd" fill-opacity="1"/>
<defs>
  <clipPath id="clip262">
    <rect x="170" y="47" width="2183" height="1449"/>
  </clipPath>
</defs>
<polyline clip-path="url(#clip262)" style="stroke:#000000; stroke-linecap:round; stroke-linejoin:round; stroke-width:2; stroke-opacity:0.1; fill:none" points="452.689,1495.09 452.689,47.2441 "/>
<polyline clip-path="url(#clip262)" style="stroke:#000000; stroke-linecap:round; stroke-linejoin:round; stroke-width:2; stroke-opacity:0.1; fill:none" points="857.248,1495.09 857.248,47.2441 "/>
<polyline clip-path="url(#clip262)" style="stroke:#000000; stroke-linecap:round; stroke-linejoin:round; stroke-width:2; stroke-opacity:0.1; fill:none" points="1261.81,1495.09 1261.81,47.2441 "/>
<polyline clip-path="url(#clip262)" style="stroke:#000000; stroke-linecap:round; stroke-linejoin:round; stroke-width:2; stroke-opacity:0.1; fill:none" points="1666.37,1495.09 1666.37,47.2441 "/>
<polyline clip-path="url(#clip262)" style="stroke:#000000; stroke-linecap:round; stroke-linejoin:round; stroke-width:2; stroke-opacity:0.1; fill:none" points="2070.92,1495.09 2070.92,47.2441 "/>
<polyline clip-path="url(#clip260)" style="stroke:#000000; stroke-linecap:round; stroke-linejoin:round; stroke-width:4; stroke-opacity:1; fill:none" points="170.857,1495.09 2352.76,1495.09 "/>
<polyline clip-path="url(#clip260)" style="stroke:#000000; stroke-linecap:round; stroke-linejoin:round; stroke-width:4; stroke-opacity:1; fill:none" points="452.689,1495.09 452.689,1476.19 "/>
<polyline clip-path="url(#clip260)" style="stroke:#000000; stroke-linecap:round; stroke-linejoin:round; stroke-width:4; stroke-opacity:1; fill:none" points="857.248,1495.09 857.248,1476.19 "/>
<polyline clip-path="url(#clip260)" style="stroke:#000000; stroke-linecap:round; stroke-linejoin:round; stroke-width:4; stroke-opacity:1; fill:none" points="1261.81,1495.09 1261.81,1476.19 "/>
<polyline clip-path="url(#clip260)" style="stroke:#000000; stroke-linecap:round; stroke-linejoin:round; stroke-width:4; stroke-opacity:1; fill:none" points="1666.37,1495.09 1666.37,1476.19 "/>
<polyline clip-path="url(#clip260)" style="stroke:#000000; stroke-linecap:round; stroke-linejoin:round; stroke-width:4; stroke-opacity:1; fill:none" points="2070.92,1495.09 2070.92,1476.19 "/>
<path clip-path="url(#clip260)" d="M286.935 1519.52 L286.935 1555.07 L283.984 1555.07 L283.984 1519.52 L286.935 1519.52 Z" fill="#000000" fill-rule="nonzero" fill-opacity="1" /><path clip-path="url(#clip260)" d="M314.348 1522.76 L314.348 1526.46 Q312.577 1524.81 310.563 1524 Q308.567 1523.18 306.31 1523.18 Q301.865 1523.18 299.504 1525.91 Q297.143 1528.62 297.143 1533.75 Q297.143 1538.88 299.504 1541.6 Q301.865 1544.31 306.31 1544.31 Q308.567 1544.31 310.563 1543.49 Q312.577 1542.68 314.348 1541.03 L314.348 1544.69 Q312.508 1545.94 310.442 1546.57 Q308.393 1547.19 306.101 1547.19 Q300.216 1547.19 296.831 1543.6 Q293.445 1539.99 293.445 1533.75 Q293.445 1527.5 296.831 1523.91 Q300.216 1520.3 306.101 1520.3 Q308.428 1520.3 310.476 1520.92 Q312.542 1521.53 314.348 1522.76 Z" fill="#000000" fill-rule="nonzero" fill-opacity="1" /><path clip-path="url(#clip260)" d="M323.74 1519.52 L323.74 1555.07 L320.789 1555.07 L320.789 1519.52 L323.74 1519.52 Z" fill="#000000" fill-rule="nonzero" fill-opacity="1" /><path clip-path="url(#clip260)" d="M345.511 1535.8 Q345.632 1537.09 346.726 1539.17 Q348.011 1541.58 350.441 1542.94 Q352.82 1544.26 355.389 1544.27 L367.49 1544.27 L367.49 1547.04 L355.389 1547.04 Q352.056 1547.04 348.966 1545.32 Q345.893 1543.6 344.244 1540.54 Q342.594 1537.49 342.594 1534.24 Q342.594 1531.03 344.244 1527.97 Q345.893 1524.92 348.966 1523.18 Q352.056 1521.44 355.389 1521.44 L367.49 1521.44 L367.49 1524.21 L355.389 1524.21 Q352.82 1524.22 350.441 1525.56 Q348.028 1526.93 346.726 1529.33 Q345.615 1531.41 345.459 1533.02 L367.49 1533.02 L367.49 1535.8 L345.511 1535.8 Z" fill="#000000" fill-rule="nonzero" fill-opacity="1" /><path clip-path="url(#clip260)" d="M392.854 1519.71 Q390.528 1523.7 389.4 1527.61 Q388.271 1531.51 388.271 1535.52 Q388.271 1539.54 389.4 1543.48 Q390.545 1547.4 392.854 1551.38 L390.077 1551.38 Q387.473 1547.3 386.17 1543.35 Q384.886 1539.41 384.886 1535.52 Q384.886 1531.65 386.17 1527.73 Q387.455 1523.81 390.077 1519.71 L392.854 1519.71 Z" fill="#000000" fill-rule="nonzero" fill-opacity="1" /><path clip-path="url(#clip260)" d="M400.111 1543.74 L405.841 1543.74 L405.841 1523.96 L399.608 1525.21 L399.608 1522.02 L405.806 1520.77 L409.313 1520.77 L409.313 1543.74 L415.042 1543.74 L415.042 1546.69 L400.111 1546.69 L400.111 1543.74 Z" fill="#000000" fill-rule="nonzero" fill-opacity="1" /><path clip-path="url(#clip260)" d="M429.625 1534.38 Q427.125 1534.38 425.684 1535.72 Q424.261 1537.05 424.261 1539.4 Q424.261 1541.74 425.684 1543.08 Q427.125 1544.41 429.625 1544.41 Q432.125 1544.41 433.566 1543.08 Q435.007 1541.72 435.007 1539.4 Q435.007 1537.05 433.566 1535.72 Q432.142 1534.38 429.625 1534.38 M426.118 1532.89 Q423.861 1532.33 422.594 1530.79 Q421.344 1529.24 421.344 1527.02 Q421.344 1523.91 423.549 1522.1 Q425.771 1520.3 429.625 1520.3 Q433.497 1520.3 435.701 1522.1 Q437.906 1523.91 437.906 1527.02 Q437.906 1529.24 436.639 1530.79 Q435.389 1532.33 433.149 1532.89 Q435.684 1533.48 437.09 1535.19 Q438.514 1536.91 438.514 1539.4 Q438.514 1543.16 436.205 1545.18 Q433.913 1547.19 429.625 1547.19 Q425.337 1547.19 423.028 1545.18 Q420.736 1543.16 420.736 1539.4 Q420.736 1536.91 422.16 1535.19 Q423.583 1533.48 426.118 1532.89 M424.833 1527.35 Q424.833 1529.36 426.083 1530.49 Q427.351 1531.62 429.625 1531.62 Q431.882 1531.62 433.149 1530.49 Q434.434 1529.36 434.434 1527.35 Q434.434 1525.33 433.149 1524.21 Q431.882 1523.08 429.625 1523.08 Q427.351 1523.08 426.083 1524.21 Q424.833 1525.33 424.833 1527.35 Z" fill="#000000" fill-rule="nonzero" fill-opacity="1" /><path clip-path="url(#clip260)" d="M444.747 1542.28 L448.41 1542.28 L448.41 1546.69 L444.747 1546.69 L444.747 1542.28 Z" fill="#000000" fill-rule="nonzero" fill-opacity="1" /><path clip-path="url(#clip260)" d="M456.153 1546.15 L456.153 1542.96 Q457.472 1543.58 458.826 1543.91 Q460.18 1544.24 461.483 1544.24 Q464.955 1544.24 466.778 1541.91 Q468.618 1539.57 468.878 1534.81 Q467.871 1536.31 466.326 1537.1 Q464.781 1537.9 462.906 1537.9 Q459.017 1537.9 456.743 1535.56 Q454.486 1533.2 454.486 1529.12 Q454.486 1525.13 456.847 1522.71 Q459.208 1520.3 463.132 1520.3 Q467.628 1520.3 469.989 1523.75 Q472.368 1527.19 472.368 1533.75 Q472.368 1539.88 469.451 1543.55 Q466.552 1547.19 461.639 1547.19 Q460.319 1547.19 458.965 1546.93 Q457.611 1546.67 456.153 1546.15 M463.132 1535.16 Q465.493 1535.16 466.864 1533.55 Q468.253 1531.93 468.253 1529.12 Q468.253 1526.32 466.864 1524.71 Q465.493 1523.08 463.132 1523.08 Q460.771 1523.08 459.382 1524.71 Q458.01 1526.32 458.01 1529.12 Q458.01 1531.93 459.382 1533.55 Q460.771 1535.16 463.132 1535.16 Z" fill="#000000" fill-rule="nonzero" fill-opacity="1" /><path clip-path="url(#clip260)" d="M486.17 1534.38 Q483.67 1534.38 482.229 1535.72 Q480.805 1537.05 480.805 1539.4 Q480.805 1541.74 482.229 1543.08 Q483.67 1544.41 486.17 1544.41 Q488.67 1544.41 490.111 1543.08 Q491.552 1541.72 491.552 1539.4 Q491.552 1537.05 490.111 1535.72 Q488.687 1534.38 486.17 1534.38 M482.663 1532.89 Q480.406 1532.33 479.139 1530.79 Q477.889 1529.24 477.889 1527.02 Q477.889 1523.91 480.094 1522.1 Q482.316 1520.3 486.17 1520.3 Q490.041 1520.3 492.246 1522.1 Q494.451 1523.91 494.451 1527.02 Q494.451 1529.24 493.184 1530.79 Q491.934 1532.33 489.694 1532.89 Q492.229 1533.48 493.635 1535.19 Q495.059 1536.91 495.059 1539.4 Q495.059 1543.16 492.75 1545.18 Q490.458 1547.19 486.17 1547.19 Q481.882 1547.19 479.573 1545.18 Q477.281 1543.16 477.281 1539.4 Q477.281 1536.91 478.705 1535.19 Q480.128 1533.48 482.663 1532.89 M481.378 1527.35 Q481.378 1529.36 482.628 1530.49 Q483.896 1531.62 486.17 1531.62 Q488.427 1531.62 489.694 1530.49 Q490.979 1529.36 490.979 1527.35 Q490.979 1525.33 489.694 1524.21 Q488.427 1523.08 486.17 1523.08 Q483.896 1523.08 482.628 1524.21 Q481.378 1525.33 481.378 1527.35 Z" fill="#000000" fill-rule="nonzero" fill-opacity="1" /><path clip-path="url(#clip260)" d="M501.656 1542.28 L505.319 1542.28 L505.319 1545.26 L502.472 1550.82 L500.232 1550.82 L501.656 1545.26 L501.656 1542.28 Z" fill="#000000" fill-rule="nonzero" fill-opacity="1" /><path clip-path="url(#clip260)" d="M513.201 1543.74 L518.93 1543.74 L518.93 1523.96 L512.698 1525.21 L512.698 1522.02 L518.895 1520.77 L522.402 1520.77 L522.402 1543.74 L528.132 1543.74 L528.132 1546.69 L513.201 1546.69 L513.201 1543.74 Z" fill="#000000" fill-rule="nonzero" fill-opacity="1" /><path clip-path="url(#clip260)" d="M535.319 1546.15 L535.319 1542.96 Q536.638 1543.58 537.993 1543.91 Q539.347 1544.24 540.649 1544.24 Q544.121 1544.24 545.944 1541.91 Q547.784 1539.57 548.045 1534.81 Q547.038 1536.31 545.493 1537.1 Q543.947 1537.9 542.072 1537.9 Q538.184 1537.9 535.909 1535.56 Q533.652 1533.2 533.652 1529.12 Q533.652 1525.13 536.013 1522.71 Q538.375 1520.3 542.298 1520.3 Q546.795 1520.3 549.156 1523.75 Q551.534 1527.19 551.534 1533.75 Q551.534 1539.88 548.618 1543.55 Q545.718 1547.19 540.805 1547.19 Q539.486 1547.19 538.131 1546.93 Q536.777 1546.67 535.319 1546.15 M542.298 1535.16 Q544.659 1535.16 546.031 1533.55 Q547.42 1531.93 547.42 1529.12 Q547.42 1526.32 546.031 1524.71 Q544.659 1523.08 542.298 1523.08 Q539.937 1523.08 538.548 1524.71 Q537.177 1526.32 537.177 1529.12 Q537.177 1531.93 538.548 1533.55 Q539.937 1535.16 542.298 1535.16 Z" fill="#000000" fill-rule="nonzero" fill-opacity="1" /><path clip-path="url(#clip260)" d="M557.836 1542.28 L561.499 1542.28 L561.499 1546.69 L557.836 1546.69 L557.836 1542.28 Z" fill="#000000" fill-rule="nonzero" fill-opacity="1" /><path clip-path="url(#clip260)" d="M578.774 1523.82 L569.919 1537.66 L578.774 1537.66 L578.774 1523.82 M577.853 1520.77 L582.263 1520.77 L582.263 1537.66 L585.961 1537.66 L585.961 1540.58 L582.263 1540.58 L582.263 1546.69 L578.774 1546.69 L578.774 1540.58 L567.072 1540.58 L567.072 1537.19 L577.853 1520.77 Z" fill="#000000" fill-rule="nonzero" fill-opacity="1" /><path clip-path="url(#clip260)" d="M599.26 1534.38 Q596.76 1534.38 595.319 1535.72 Q593.895 1537.05 593.895 1539.4 Q593.895 1541.74 595.319 1543.08 Q596.76 1544.41 599.26 1544.41 Q601.76 1544.41 603.201 1543.08 Q604.642 1541.72 604.642 1539.4 Q604.642 1537.05 603.201 1535.72 Q601.777 1534.38 599.26 1534.38 M595.753 1532.89 Q593.496 1532.33 592.228 1530.79 Q590.978 1529.24 590.978 1527.02 Q590.978 1523.91 593.183 1522.1 Q595.405 1520.3 599.26 1520.3 Q603.131 1520.3 605.336 1522.1 Q607.541 1523.91 607.541 1527.02 Q607.541 1529.24 606.273 1530.79 Q605.023 1532.33 602.784 1532.89 Q605.319 1533.48 606.725 1535.19 Q608.148 1536.91 608.148 1539.4 Q608.148 1543.16 605.839 1545.18 Q603.548 1547.19 599.26 1547.19 Q594.971 1547.19 592.662 1545.18 Q590.371 1543.16 590.371 1539.4 Q590.371 1536.91 591.794 1535.19 Q593.218 1533.48 595.753 1532.89 M594.468 1527.35 Q594.468 1529.36 595.718 1530.49 Q596.985 1531.62 599.26 1531.62 Q601.517 1531.62 602.784 1530.49 Q604.069 1529.36 604.069 1527.35 Q604.069 1525.33 602.784 1524.21 Q601.517 1523.08 599.26 1523.08 Q596.985 1523.08 595.718 1524.21 Q594.468 1525.33 594.468 1527.35 Z" fill="#000000" fill-rule="nonzero" fill-opacity="1" /><path clip-path="url(#clip260)" d="M621.395 1519.67 L621.395 1551.38 L614.034 1551.38 L614.034 1548.89 L618.183 1548.89 L618.183 1522.16 L614.034 1522.16 L614.034 1519.67 L621.395 1519.67 Z" fill="#000000" fill-rule="nonzero" fill-opacity="1" /><path clip-path="url(#clip260)" d="M691.494 1519.52 L691.494 1555.07 L688.542 1555.07 L688.542 1519.52 L691.494 1519.52 Z" fill="#000000" fill-rule="nonzero" fill-opacity="1" /><path clip-path="url(#clip260)" d="M718.907 1522.76 L718.907 1526.46 Q717.136 1524.81 715.122 1524 Q713.125 1523.18 710.869 1523.18 Q706.424 1523.18 704.063 1525.91 Q701.702 1528.62 701.702 1533.75 Q701.702 1538.88 704.063 1541.6 Q706.424 1544.31 710.869 1544.31 Q713.125 1544.31 715.122 1543.49 Q717.136 1542.68 718.907 1541.03 L718.907 1544.69 Q717.066 1545.94 715 1546.57 Q712.952 1547.19 710.66 1547.19 Q704.775 1547.19 701.389 1543.6 Q698.004 1539.99 698.004 1533.75 Q698.004 1527.5 701.389 1523.91 Q704.775 1520.3 710.66 1520.3 Q712.987 1520.3 715.035 1520.92 Q717.101 1521.53 718.907 1522.76 Z" fill="#000000" fill-rule="nonzero" fill-opacity="1" /><path clip-path="url(#clip260)" d="M728.299 1519.52 L728.299 1555.07 L725.348 1555.07 L725.348 1519.52 L728.299 1519.52 Z" fill="#000000" fill-rule="nonzero" fill-opacity="1" /><path clip-path="url(#clip260)" d="M750.07 1535.8 Q750.191 1537.09 751.285 1539.17 Q752.57 1541.58 755 1542.94 Q757.379 1544.26 759.948 1544.27 L772.049 1544.27 L772.049 1547.04 L759.948 1547.04 Q756.615 1547.04 753.525 1545.32 Q750.452 1543.6 748.802 1540.54 Q747.153 1537.49 747.153 1534.24 Q747.153 1531.03 748.802 1527.97 Q750.452 1524.92 753.525 1523.18 Q756.615 1521.44 759.948 1521.44 L772.049 1521.44 L772.049 1524.21 L759.948 1524.21 Q757.379 1524.22 755 1525.56 Q752.587 1526.93 751.285 1529.33 Q750.174 1531.41 750.018 1533.02 L772.049 1533.02 L772.049 1535.8 L750.07 1535.8 Z" fill="#000000" fill-rule="nonzero" fill-opacity="1" /><path clip-path="url(#clip260)" d="M797.413 1519.71 Q795.087 1523.7 793.958 1527.61 Q792.83 1531.51 792.83 1535.52 Q792.83 1539.54 793.958 1543.48 Q795.104 1547.4 797.413 1551.38 L794.635 1551.38 Q792.031 1547.3 790.729 1543.35 Q789.444 1539.41 789.444 1535.52 Q789.444 1531.65 790.729 1527.73 Q792.014 1523.81 794.635 1519.71 L797.413 1519.71 Z" fill="#000000" fill-rule="nonzero" fill-opacity="1" /><path clip-path="url(#clip260)" d="M804.67 1543.74 L810.399 1543.74 L810.399 1523.96 L804.167 1525.21 L804.167 1522.02 L810.365 1520.77 L813.871 1520.77 L813.871 1543.74 L819.601 1543.74 L819.601 1546.69 L804.67 1546.69 L804.67 1543.74 Z" fill="#000000" fill-rule="nonzero" fill-opacity="1" /><path clip-path="url(#clip260)" d="M826.788 1546.15 L826.788 1542.96 Q828.107 1543.58 829.462 1543.91 Q830.816 1544.24 832.118 1544.24 Q835.59 1544.24 837.413 1541.91 Q839.253 1539.57 839.514 1534.81 Q838.507 1536.31 836.962 1537.1 Q835.416 1537.9 833.541 1537.9 Q829.653 1537.9 827.378 1535.56 Q825.121 1533.2 825.121 1529.12 Q825.121 1525.13 827.482 1522.71 Q829.844 1520.3 833.767 1520.3 Q838.264 1520.3 840.625 1523.75 Q843.003 1527.19 843.003 1533.75 Q843.003 1539.88 840.087 1543.55 Q837.187 1547.19 832.274 1547.19 Q830.955 1547.19 829.601 1546.93 Q828.246 1546.67 826.788 1546.15 M833.767 1535.16 Q836.128 1535.16 837.5 1533.55 Q838.889 1531.93 838.889 1529.12 Q838.889 1526.32 837.5 1524.71 Q836.128 1523.08 833.767 1523.08 Q831.406 1523.08 830.017 1524.71 Q828.646 1526.32 828.646 1529.12 Q828.646 1531.93 830.017 1533.55 Q831.406 1535.16 833.767 1535.16 Z" fill="#000000" fill-rule="nonzero" fill-opacity="1" /><path clip-path="url(#clip260)" d="M849.305 1542.28 L852.968 1542.28 L852.968 1546.69 L849.305 1546.69 L849.305 1542.28 Z" fill="#000000" fill-rule="nonzero" fill-opacity="1" /><path clip-path="url(#clip260)" d="M870.243 1523.82 L861.389 1537.66 L870.243 1537.66 L870.243 1523.82 M869.323 1520.77 L873.732 1520.77 L873.732 1537.66 L877.43 1537.66 L877.43 1540.58 L873.732 1540.58 L873.732 1546.69 L870.243 1546.69 L870.243 1540.58 L858.541 1540.58 L858.541 1537.19 L869.323 1520.77 Z" fill="#000000" fill-rule="nonzero" fill-opacity="1" /><path clip-path="url(#clip260)" d="M890.729 1534.38 Q888.229 1534.38 886.788 1535.72 Q885.364 1537.05 885.364 1539.4 Q885.364 1541.74 886.788 1543.08 Q888.229 1544.41 890.729 1544.41 Q893.229 1544.41 894.67 1543.08 Q896.111 1541.72 896.111 1539.4 Q896.111 1537.05 894.67 1535.72 Q893.246 1534.38 890.729 1534.38 M887.222 1532.89 Q884.965 1532.33 883.697 1530.79 Q882.447 1529.24 882.447 1527.02 Q882.447 1523.91 884.652 1522.1 Q886.875 1520.3 890.729 1520.3 Q894.6 1520.3 896.805 1522.1 Q899.01 1523.91 899.01 1527.02 Q899.01 1529.24 897.743 1530.79 Q896.493 1532.33 894.253 1532.89 Q896.788 1533.48 898.194 1535.19 Q899.617 1536.91 899.617 1539.4 Q899.617 1543.16 897.308 1545.18 Q895.017 1547.19 890.729 1547.19 Q886.44 1547.19 884.131 1545.18 Q881.84 1543.16 881.84 1539.4 Q881.84 1536.91 883.263 1535.19 Q884.687 1533.48 887.222 1532.89 M885.937 1527.35 Q885.937 1529.36 887.187 1530.49 Q888.454 1531.62 890.729 1531.62 Q892.986 1531.62 894.253 1530.49 Q895.538 1529.36 895.538 1527.35 Q895.538 1525.33 894.253 1524.21 Q892.986 1523.08 890.729 1523.08 Q888.454 1523.08 887.187 1524.21 Q885.937 1525.33 885.937 1527.35 Z" fill="#000000" fill-rule="nonzero" fill-opacity="1" /><path clip-path="url(#clip260)" d="M906.215 1542.28 L909.878 1542.28 L909.878 1545.26 L907.031 1550.82 L904.791 1550.82 L906.215 1545.26 L906.215 1542.28 Z" fill="#000000" fill-rule="nonzero" fill-opacity="1" /><path clip-path="url(#clip260)" d="M917.76 1543.74 L923.489 1543.74 L923.489 1523.96 L917.256 1525.21 L917.256 1522.02 L923.454 1520.77 L926.961 1520.77 L926.961 1543.74 L932.69 1543.74 L932.69 1546.69 L917.76 1546.69 L917.76 1543.74 Z" fill="#000000" fill-rule="nonzero" fill-opacity="1" /><path clip-path="url(#clip260)" d="M939.878 1546.15 L939.878 1542.96 Q941.197 1543.58 942.551 1543.91 Q943.905 1544.24 945.208 1544.24 Q948.68 1544.24 950.503 1541.91 Q952.343 1539.57 952.603 1534.81 Q951.596 1536.31 950.051 1537.1 Q948.506 1537.9 946.631 1537.9 Q942.742 1537.9 940.468 1535.56 Q938.211 1533.2 938.211 1529.12 Q938.211 1525.13 940.572 1522.71 Q942.933 1520.3 946.857 1520.3 Q951.353 1520.3 953.714 1523.75 Q956.093 1527.19 956.093 1533.75 Q956.093 1539.88 953.176 1543.55 Q950.277 1547.19 945.364 1547.19 Q944.044 1547.19 942.69 1546.93 Q941.336 1546.67 939.878 1546.15 M946.857 1535.16 Q949.218 1535.16 950.589 1533.55 Q951.978 1531.93 951.978 1529.12 Q951.978 1526.32 950.589 1524.71 Q949.218 1523.08 946.857 1523.08 Q944.496 1523.08 943.107 1524.71 Q941.735 1526.32 941.735 1529.12 Q941.735 1531.93 943.107 1533.55 Q944.496 1535.16 946.857 1535.16 Z" fill="#000000" fill-rule="nonzero" fill-opacity="1" /><path clip-path="url(#clip260)" d="M962.395 1542.28 L966.058 1542.28 L966.058 1546.69 L962.395 1546.69 L962.395 1542.28 Z" fill="#000000" fill-rule="nonzero" fill-opacity="1" /><path clip-path="url(#clip260)" d="M973.801 1546.15 L973.801 1542.96 Q975.121 1543.58 976.475 1543.91 Q977.829 1544.24 979.131 1544.24 Q982.603 1544.24 984.426 1541.91 Q986.266 1539.57 986.527 1534.81 Q985.52 1536.31 983.975 1537.1 Q982.43 1537.9 980.555 1537.9 Q976.666 1537.9 974.391 1535.56 Q972.134 1533.2 972.134 1529.12 Q972.134 1525.13 974.496 1522.71 Q976.857 1520.3 980.78 1520.3 Q985.277 1520.3 987.638 1523.75 Q990.016 1527.19 990.016 1533.75 Q990.016 1539.88 987.1 1543.55 Q984.2 1547.19 979.287 1547.19 Q977.968 1547.19 976.614 1546.93 Q975.259 1546.67 973.801 1546.15 M980.78 1535.16 Q983.141 1535.16 984.513 1533.55 Q985.902 1531.93 985.902 1529.12 Q985.902 1526.32 984.513 1524.71 Q983.141 1523.08 980.78 1523.08 Q978.419 1523.08 977.03 1524.71 Q975.659 1526.32 975.659 1529.12 Q975.659 1531.93 977.03 1533.55 Q978.419 1535.16 980.78 1535.16 Z" fill="#000000" fill-rule="nonzero" fill-opacity="1" /><path clip-path="url(#clip260)" d="M1003.82 1534.38 Q1001.32 1534.38 999.877 1535.72 Q998.454 1537.05 998.454 1539.4 Q998.454 1541.74 999.877 1543.08 Q1001.32 1544.41 1003.82 1544.41 Q1006.32 1544.41 1007.76 1543.08 Q1009.2 1541.72 1009.2 1539.4 Q1009.2 1537.05 1007.76 1535.72 Q1006.34 1534.38 1003.82 1534.38 M1000.31 1532.89 Q998.054 1532.33 996.787 1530.79 Q995.537 1529.24 995.537 1527.02 Q995.537 1523.91 997.742 1522.1 Q999.964 1520.3 1003.82 1520.3 Q1007.69 1520.3 1009.89 1522.1 Q1012.1 1523.91 1012.1 1527.02 Q1012.1 1529.24 1010.83 1530.79 Q1009.58 1532.33 1007.34 1532.89 Q1009.88 1533.48 1011.28 1535.19 Q1012.71 1536.91 1012.71 1539.4 Q1012.71 1543.16 1010.4 1545.18 Q1008.11 1547.19 1003.82 1547.19 Q999.53 1547.19 997.221 1545.18 Q994.929 1543.16 994.929 1539.4 Q994.929 1536.91 996.353 1535.19 Q997.777 1533.48 1000.31 1532.89 M999.027 1527.35 Q999.027 1529.36 1000.28 1530.49 Q1001.54 1531.62 1003.82 1531.62 Q1006.08 1531.62 1007.34 1530.49 Q1008.63 1529.36 1008.63 1527.35 Q1008.63 1525.33 1007.34 1524.21 Q1006.08 1523.08 1003.82 1523.08 Q1001.54 1523.08 1000.28 1524.21 Q999.027 1525.33 999.027 1527.35 Z" fill="#000000" fill-rule="nonzero" fill-opacity="1" /><path clip-path="url(#clip260)" d="M1025.95 1519.67 L1025.95 1551.38 L1018.59 1551.38 L1018.59 1548.89 L1022.74 1548.89 L1022.74 1522.16 L1018.59 1522.16 L1018.59 1519.67 L1025.95 1519.67 Z" fill="#000000" fill-rule="nonzero" fill-opacity="1" /><path clip-path="url(#clip260)" d="M1096.05 1519.52 L1096.05 1555.07 L1093.1 1555.07 L1093.1 1519.52 L1096.05 1519.52 Z" fill="#000000" fill-rule="nonzero" fill-opacity="1" /><path clip-path="url(#clip260)" d="M1123.47 1522.76 L1123.47 1526.46 Q1121.69 1524.81 1119.68 1524 Q1117.68 1523.18 1115.43 1523.18 Q1110.98 1523.18 1108.62 1525.91 Q1106.26 1528.62 1106.26 1533.75 Q1106.26 1538.88 1108.62 1541.6 Q1110.98 1544.31 1115.43 1544.31 Q1117.68 1544.31 1119.68 1543.49 Q1121.69 1542.68 1123.47 1541.03 L1123.47 1544.69 Q1121.63 1545.94 1119.56 1546.57 Q1117.51 1547.19 1115.22 1547.19 Q1109.33 1547.19 1105.95 1543.6 Q1102.56 1539.99 1102.56 1533.75 Q1102.56 1527.5 1105.95 1523.91 Q1109.33 1520.3 1115.22 1520.3 Q1117.55 1520.3 1119.59 1520.92 Q1121.66 1521.53 1123.47 1522.76 Z" fill="#000000" fill-rule="nonzero" fill-opacity="1" /><path clip-path="url(#clip260)" d="M1132.86 1519.52 L1132.86 1555.07 L1129.91 1555.07 L1129.91 1519.52 L1132.86 1519.52 Z" fill="#000000" fill-rule="nonzero" fill-opacity="1" /><path clip-path="url(#clip260)" d="M1154.63 1535.8 Q1154.75 1537.09 1155.84 1539.17 Q1157.13 1541.58 1159.56 1542.94 Q1161.94 1544.26 1164.51 1544.27 L1176.61 1544.27 L1176.61 1547.04 L1164.51 1547.04 Q1161.17 1547.04 1158.08 1545.32 Q1155.01 1543.6 1153.36 1540.54 Q1151.71 1537.49 1151.71 1534.24 Q1151.71 1531.03 1153.36 1527.97 Q1155.01 1524.92 1158.08 1523.18 Q1161.17 1521.44 1164.51 1521.44 L1176.61 1521.44 L1176.61 1524.21 L1164.51 1524.21 Q1161.94 1524.22 1159.56 1525.56 Q1157.15 1526.93 1155.84 1529.33 Q1154.73 1531.41 1154.58 1533.02 L1176.61 1533.02 L1176.61 1535.8 L1154.63 1535.8 Z" fill="#000000" fill-rule="nonzero" fill-opacity="1" /><path clip-path="url(#clip260)" d="M1201.97 1519.71 Q1199.65 1523.7 1198.52 1527.61 Q1197.39 1531.51 1197.39 1535.52 Q1197.39 1539.54 1198.52 1543.48 Q1199.66 1547.4 1201.97 1551.38 L1199.19 1551.38 Q1196.59 1547.3 1195.29 1543.35 Q1194 1539.41 1194 1535.52 Q1194 1531.65 1195.29 1527.73 Q1196.57 1523.81 1199.19 1519.71 L1201.97 1519.71 Z" fill="#000000" fill-rule="nonzero" fill-opacity="1" /><path clip-path="url(#clip260)" d="M1209.23 1543.74 L1214.96 1543.74 L1214.96 1523.96 L1208.73 1525.21 L1208.73 1522.02 L1214.92 1520.77 L1218.43 1520.77 L1218.43 1543.74 L1224.16 1543.74 L1224.16 1546.69 L1209.23 1546.69 L1209.23 1543.74 Z" fill="#000000" fill-rule="nonzero" fill-opacity="1" /><path clip-path="url(#clip260)" d="M1231.35 1546.15 L1231.35 1542.96 Q1232.67 1543.58 1234.02 1543.91 Q1235.37 1544.24 1236.68 1544.24 Q1240.15 1544.24 1241.97 1541.91 Q1243.81 1539.57 1244.07 1534.81 Q1243.07 1536.31 1241.52 1537.1 Q1239.98 1537.9 1238.1 1537.9 Q1234.21 1537.9 1231.94 1535.56 Q1229.68 1533.2 1229.68 1529.12 Q1229.68 1525.13 1232.04 1522.71 Q1234.4 1520.3 1238.33 1520.3 Q1242.82 1520.3 1245.18 1523.75 Q1247.56 1527.19 1247.56 1533.75 Q1247.56 1539.88 1244.65 1543.55 Q1241.75 1547.19 1236.83 1547.19 Q1235.51 1547.19 1234.16 1546.93 Q1232.81 1546.67 1231.35 1546.15 M1238.33 1535.16 Q1240.69 1535.16 1242.06 1533.55 Q1243.45 1531.93 1243.45 1529.12 Q1243.45 1526.32 1242.06 1524.71 Q1240.69 1523.08 1238.33 1523.08 Q1235.96 1523.08 1234.58 1524.71 Q1233.2 1526.32 1233.2 1529.12 Q1233.2 1531.93 1234.58 1533.55 Q1235.96 1535.16 1238.33 1535.16 Z" fill="#000000" fill-rule="nonzero" fill-opacity="1" /><path clip-path="url(#clip260)" d="M1253.86 1542.28 L1257.53 1542.28 L1257.53 1546.69 L1253.86 1546.69 L1253.86 1542.28 Z" fill="#000000" fill-rule="nonzero" fill-opacity="1" /><path clip-path="url(#clip260)" d="M1265.27 1546.15 L1265.27 1542.96 Q1266.59 1543.58 1267.94 1543.91 Q1269.3 1544.24 1270.6 1544.24 Q1274.07 1544.24 1275.9 1541.91 Q1277.74 1539.57 1278 1534.81 Q1276.99 1536.31 1275.44 1537.1 Q1273.9 1537.9 1272.02 1537.9 Q1268.13 1537.9 1265.86 1535.56 Q1263.6 1533.2 1263.6 1529.12 Q1263.6 1525.13 1265.96 1522.71 Q1268.33 1520.3 1272.25 1520.3 Q1276.75 1520.3 1279.11 1523.75 Q1281.49 1527.19 1281.49 1533.75 Q1281.49 1539.88 1278.57 1543.55 Q1275.67 1547.19 1270.76 1547.19 Q1269.44 1547.19 1268.08 1546.93 Q1266.73 1546.67 1265.27 1546.15 M1272.25 1535.16 Q1274.61 1535.16 1275.98 1533.55 Q1277.37 1531.93 1277.37 1529.12 Q1277.37 1526.32 1275.98 1524.71 Q1274.61 1523.08 1272.25 1523.08 Q1269.89 1523.08 1268.5 1524.71 Q1267.13 1526.32 1267.13 1529.12 Q1267.13 1531.93 1268.5 1533.55 Q1269.89 1535.16 1272.25 1535.16 Z" fill="#000000" fill-rule="nonzero" fill-opacity="1" /><path clip-path="url(#clip260)" d="M1295.29 1534.38 Q1292.79 1534.38 1291.35 1535.72 Q1289.92 1537.05 1289.92 1539.4 Q1289.92 1541.74 1291.35 1543.08 Q1292.79 1544.41 1295.29 1544.41 Q1297.79 1544.41 1299.23 1543.08 Q1300.67 1541.72 1300.67 1539.4 Q1300.67 1537.05 1299.23 1535.72 Q1297.8 1534.38 1295.29 1534.38 M1291.78 1532.89 Q1289.52 1532.33 1288.26 1530.79 Q1287.01 1529.24 1287.01 1527.02 Q1287.01 1523.91 1289.21 1522.1 Q1291.43 1520.3 1295.29 1520.3 Q1299.16 1520.3 1301.36 1522.1 Q1303.57 1523.91 1303.57 1527.02 Q1303.57 1529.24 1302.3 1530.79 Q1301.05 1532.33 1298.81 1532.89 Q1301.35 1533.48 1302.75 1535.19 Q1304.18 1536.91 1304.18 1539.4 Q1304.18 1543.16 1301.87 1545.18 Q1299.58 1547.19 1295.29 1547.19 Q1291 1547.19 1288.69 1545.18 Q1286.4 1543.16 1286.4 1539.4 Q1286.4 1536.91 1287.82 1535.19 Q1289.25 1533.48 1291.78 1532.89 M1290.5 1527.35 Q1290.5 1529.36 1291.75 1530.49 Q1293.01 1531.62 1295.29 1531.62 Q1297.54 1531.62 1298.81 1530.49 Q1300.1 1529.36 1300.1 1527.35 Q1300.1 1525.33 1298.81 1524.21 Q1297.54 1523.08 1295.29 1523.08 Q1293.01 1523.08 1291.75 1524.21 Q1290.5 1525.33 1290.5 1527.35 Z" fill="#000000" fill-rule="nonzero" fill-opacity="1" /><path clip-path="url(#clip260)" d="M1310.77 1542.28 L1314.44 1542.28 L1314.44 1545.26 L1311.59 1550.82 L1309.35 1550.82 L1310.77 1545.26 L1310.77 1542.28 Z" fill="#000000" fill-rule="nonzero" fill-opacity="1" /><path clip-path="url(#clip260)" d="M1324.73 1543.74 L1336.97 1543.74 L1336.97 1546.69 L1320.51 1546.69 L1320.51 1543.74 Q1322.51 1541.67 1325.95 1538.2 Q1329.4 1534.71 1330.29 1533.7 Q1331.97 1531.81 1332.63 1530.51 Q1333.31 1529.19 1333.31 1527.92 Q1333.31 1525.85 1331.85 1524.55 Q1330.41 1523.25 1328.08 1523.25 Q1326.43 1523.25 1324.59 1523.82 Q1322.77 1524.4 1320.69 1525.56 L1320.69 1522.02 Q1322.8 1521.17 1324.64 1520.73 Q1326.49 1520.3 1328.01 1520.3 Q1332.04 1520.3 1334.44 1522.31 Q1336.83 1524.33 1336.83 1527.69 Q1336.83 1529.29 1336.22 1530.73 Q1335.63 1532.16 1334.05 1534.1 Q1333.62 1534.6 1331.29 1537.02 Q1328.97 1539.41 1324.73 1543.74 Z" fill="#000000" fill-rule="nonzero" fill-opacity="1" /><path clip-path="url(#clip260)" d="M1351.83 1523.08 Q1349.12 1523.08 1347.75 1525.75 Q1346.4 1528.41 1346.4 1533.75 Q1346.4 1539.08 1347.75 1541.76 Q1349.12 1544.41 1351.83 1544.41 Q1354.56 1544.41 1355.91 1541.76 Q1357.28 1539.08 1357.28 1533.75 Q1357.28 1528.41 1355.91 1525.75 Q1354.56 1523.08 1351.83 1523.08 M1351.83 1520.3 Q1356.19 1520.3 1358.48 1523.75 Q1360.79 1527.19 1360.79 1533.75 Q1360.79 1540.3 1358.48 1543.75 Q1356.19 1547.19 1351.83 1547.19 Q1347.47 1547.19 1345.17 1543.75 Q1342.87 1540.3 1342.87 1533.75 Q1342.87 1527.19 1345.17 1523.75 Q1347.47 1520.3 1351.83 1520.3 Z" fill="#000000" fill-rule="nonzero" fill-opacity="1" /><path clip-path="url(#clip260)" d="M1366.95 1542.28 L1370.62 1542.28 L1370.62 1546.69 L1366.95 1546.69 L1366.95 1542.28 Z" fill="#000000" fill-rule="nonzero" fill-opacity="1" /><path clip-path="url(#clip260)" d="M1387.89 1523.82 L1379.04 1537.66 L1387.89 1537.66 L1387.89 1523.82 M1386.97 1520.77 L1391.38 1520.77 L1391.38 1537.66 L1395.08 1537.66 L1395.08 1540.58 L1391.38 1540.58 L1391.38 1546.69 L1387.89 1546.69 L1387.89 1540.58 L1376.19 1540.58 L1376.19 1537.19 L1386.97 1520.77 Z" fill="#000000" fill-rule="nonzero" fill-opacity="1" /><path clip-path="url(#clip260)" d="M1400.98 1546.15 L1400.98 1542.96 Q1402.3 1543.58 1403.65 1543.91 Q1405.01 1544.24 1406.31 1544.24 Q1409.78 1544.24 1411.61 1541.91 Q1413.45 1539.57 1413.71 1534.81 Q1412.7 1536.31 1411.15 1537.1 Q1409.61 1537.9 1407.73 1537.9 Q1403.85 1537.9 1401.57 1535.56 Q1399.31 1533.2 1399.31 1529.12 Q1399.31 1525.13 1401.68 1522.71 Q1404.04 1520.3 1407.96 1520.3 Q1412.46 1520.3 1414.82 1523.75 Q1417.2 1527.19 1417.2 1533.75 Q1417.2 1539.88 1414.28 1543.55 Q1411.38 1547.19 1406.47 1547.19 Q1405.15 1547.19 1403.79 1546.93 Q1402.44 1546.67 1400.98 1546.15 M1407.96 1535.16 Q1410.32 1535.16 1411.69 1533.55 Q1413.08 1531.93 1413.08 1529.12 Q1413.08 1526.32 1411.69 1524.71 Q1410.32 1523.08 1407.96 1523.08 Q1405.6 1523.08 1404.21 1524.71 Q1402.84 1526.32 1402.84 1529.12 Q1402.84 1531.93 1404.21 1533.55 Q1405.6 1535.16 1407.96 1535.16 Z" fill="#000000" fill-rule="nonzero" fill-opacity="1" /><path clip-path="url(#clip260)" d="M1430.51 1519.67 L1430.51 1551.38 L1423.15 1551.38 L1423.15 1548.89 L1427.3 1548.89 L1427.3 1522.16 L1423.15 1522.16 L1423.15 1519.67 L1430.51 1519.67 Z" fill="#000000" fill-rule="nonzero" fill-opacity="1" /><path clip-path="url(#clip260)" d="M1500.61 1519.52 L1500.61 1555.07 L1497.66 1555.07 L1497.66 1519.52 L1500.61 1519.52 Z" fill="#000000" fill-rule="nonzero" fill-opacity="1" /><path clip-path="url(#clip260)" d="M1528.02 1522.76 L1528.02 1526.46 Q1526.25 1524.81 1524.24 1524 Q1522.24 1523.18 1519.99 1523.18 Q1515.54 1523.18 1513.18 1525.91 Q1510.82 1528.62 1510.82 1533.75 Q1510.82 1538.88 1513.18 1541.6 Q1515.54 1544.31 1519.99 1544.31 Q1522.24 1544.31 1524.24 1543.49 Q1526.25 1542.68 1528.02 1541.03 L1528.02 1544.69 Q1526.18 1545.94 1524.12 1546.57 Q1522.07 1547.19 1519.78 1547.19 Q1513.89 1547.19 1510.51 1543.6 Q1507.12 1539.99 1507.12 1533.75 Q1507.12 1527.5 1510.51 1523.91 Q1513.89 1520.3 1519.78 1520.3 Q1522.1 1520.3 1524.15 1520.92 Q1526.22 1521.53 1528.02 1522.76 Z" fill="#000000" fill-rule="nonzero" fill-opacity="1" /><path clip-path="url(#clip260)" d="M1537.42 1519.52 L1537.42 1555.07 L1534.47 1555.07 L1534.47 1519.52 L1537.42 1519.52 Z" fill="#000000" fill-rule="nonzero" fill-opacity="1" /><path clip-path="url(#clip260)" d="M1559.19 1535.8 Q1559.31 1537.09 1560.4 1539.17 Q1561.69 1541.58 1564.12 1542.94 Q1566.5 1544.26 1569.07 1544.27 L1581.17 1544.27 L1581.17 1547.04 L1569.07 1547.04 Q1565.73 1547.04 1562.64 1545.32 Q1559.57 1543.6 1557.92 1540.54 Q1556.27 1537.49 1556.27 1534.24 Q1556.27 1531.03 1557.92 1527.97 Q1559.57 1524.92 1562.64 1523.18 Q1565.73 1521.44 1569.07 1521.44 L1581.17 1521.44 L1581.17 1524.21 L1569.07 1524.21 Q1566.5 1524.22 1564.12 1525.56 Q1561.7 1526.93 1560.4 1529.33 Q1559.29 1531.41 1559.14 1533.02 L1581.17 1533.02 L1581.17 1535.8 L1559.19 1535.8 Z" fill="#000000" fill-rule="nonzero" fill-opacity="1" /><path clip-path="url(#clip260)" d="M1606.53 1519.71 Q1604.2 1523.7 1603.08 1527.61 Q1601.95 1531.51 1601.95 1535.52 Q1601.95 1539.54 1603.08 1543.48 Q1604.22 1547.4 1606.53 1551.38 L1603.75 1551.38 Q1601.15 1547.3 1599.85 1543.35 Q1598.56 1539.41 1598.56 1535.52 Q1598.56 1531.65 1599.85 1527.73 Q1601.13 1523.81 1603.75 1519.71 L1606.53 1519.71 Z" fill="#000000" fill-rule="nonzero" fill-opacity="1" /><path clip-path="url(#clip260)" d="M1616.2 1543.74 L1628.44 1543.74 L1628.44 1546.69 L1611.98 1546.69 L1611.98 1543.74 Q1613.98 1541.67 1617.42 1538.2 Q1620.87 1534.71 1621.76 1533.7 Q1623.44 1531.81 1624.1 1530.51 Q1624.78 1529.19 1624.78 1527.92 Q1624.78 1525.85 1623.32 1524.55 Q1621.88 1523.25 1619.55 1523.25 Q1617.9 1523.25 1616.06 1523.82 Q1614.24 1524.4 1612.16 1525.56 L1612.16 1522.02 Q1614.27 1521.17 1616.11 1520.73 Q1617.95 1520.3 1619.48 1520.3 Q1623.51 1520.3 1625.91 1522.31 Q1628.3 1524.33 1628.3 1527.69 Q1628.3 1529.29 1627.69 1530.73 Q1627.1 1532.16 1625.52 1534.1 Q1625.09 1534.6 1622.76 1537.02 Q1620.44 1539.41 1616.2 1543.74 Z" fill="#000000" fill-rule="nonzero" fill-opacity="1" /><path clip-path="url(#clip260)" d="M1643.3 1523.08 Q1640.59 1523.08 1639.22 1525.75 Q1637.87 1528.41 1637.87 1533.75 Q1637.87 1539.08 1639.22 1541.76 Q1640.59 1544.41 1643.3 1544.41 Q1646.03 1544.41 1647.38 1541.76 Q1648.75 1539.08 1648.75 1533.75 Q1648.75 1528.41 1647.38 1525.75 Q1646.03 1523.08 1643.3 1523.08 M1643.3 1520.3 Q1647.66 1520.3 1649.95 1523.75 Q1652.26 1527.19 1652.26 1533.75 Q1652.26 1540.3 1649.95 1543.75 Q1647.66 1547.19 1643.3 1547.19 Q1638.94 1547.19 1636.63 1543.75 Q1634.34 1540.3 1634.34 1533.75 Q1634.34 1527.19 1636.63 1523.75 Q1638.94 1520.3 1643.3 1520.3 Z" fill="#000000" fill-rule="nonzero" fill-opacity="1" /><path clip-path="url(#clip260)" d="M1658.42 1542.28 L1662.09 1542.28 L1662.09 1546.69 L1658.42 1546.69 L1658.42 1542.28 Z" fill="#000000" fill-rule="nonzero" fill-opacity="1" /><path clip-path="url(#clip260)" d="M1679.36 1523.82 L1670.51 1537.66 L1679.36 1537.66 L1679.36 1523.82 M1678.44 1520.77 L1682.85 1520.77 L1682.85 1537.66 L1686.55 1537.66 L1686.55 1540.58 L1682.85 1540.58 L1682.85 1546.69 L1679.36 1546.69 L1679.36 1540.58 L1667.66 1540.58 L1667.66 1537.19 L1678.44 1520.77 Z" fill="#000000" fill-rule="nonzero" fill-opacity="1" /><path clip-path="url(#clip260)" d="M1692.45 1546.15 L1692.45 1542.96 Q1693.77 1543.58 1695.12 1543.91 Q1696.48 1544.24 1697.78 1544.24 Q1701.25 1544.24 1703.08 1541.91 Q1704.92 1539.57 1705.18 1534.81 Q1704.17 1536.31 1702.62 1537.1 Q1701.08 1537.9 1699.2 1537.9 Q1695.31 1537.9 1693.04 1535.56 Q1690.78 1533.2 1690.78 1529.12 Q1690.78 1525.13 1693.14 1522.71 Q1695.51 1520.3 1699.43 1520.3 Q1703.93 1520.3 1706.29 1523.75 Q1708.67 1527.19 1708.67 1533.75 Q1708.67 1539.88 1705.75 1543.55 Q1702.85 1547.19 1697.94 1547.19 Q1696.62 1547.19 1695.26 1546.93 Q1693.91 1546.67 1692.45 1546.15 M1699.43 1535.16 Q1701.79 1535.16 1703.16 1533.55 Q1704.55 1531.93 1704.55 1529.12 Q1704.55 1526.32 1703.16 1524.71 Q1701.79 1523.08 1699.43 1523.08 Q1697.07 1523.08 1695.68 1524.71 Q1694.31 1526.32 1694.31 1529.12 Q1694.31 1531.93 1695.68 1533.55 Q1697.07 1535.16 1699.43 1535.16 Z" fill="#000000" fill-rule="nonzero" fill-opacity="1" /><path clip-path="url(#clip260)" d="M1715.33 1542.28 L1719 1542.28 L1719 1545.26 L1716.15 1550.82 L1713.91 1550.82 L1715.33 1545.26 L1715.33 1542.28 Z" fill="#000000" fill-rule="nonzero" fill-opacity="1" /><path clip-path="url(#clip260)" d="M1729.29 1543.74 L1741.53 1543.74 L1741.53 1546.69 L1725.07 1546.69 L1725.07 1543.74 Q1727.07 1541.67 1730.51 1538.2 Q1733.96 1534.71 1734.85 1533.7 Q1736.53 1531.81 1737.19 1530.51 Q1737.87 1529.19 1737.87 1527.92 Q1737.87 1525.85 1736.41 1524.55 Q1734.97 1523.25 1732.64 1523.25 Q1730.99 1523.25 1729.15 1523.82 Q1727.33 1524.4 1725.25 1525.56 L1725.25 1522.02 Q1727.36 1521.17 1729.2 1520.73 Q1731.04 1520.3 1732.57 1520.3 Q1736.6 1520.3 1739 1522.31 Q1741.39 1524.33 1741.39 1527.69 Q1741.39 1529.29 1740.78 1530.73 Q1740.19 1532.16 1738.61 1534.1 Q1738.18 1534.6 1735.85 1537.02 Q1733.53 1539.41 1729.29 1543.74 Z" fill="#000000" fill-rule="nonzero" fill-opacity="1" /><path clip-path="url(#clip260)" d="M1756.39 1523.08 Q1753.68 1523.08 1752.31 1525.75 Q1750.96 1528.41 1750.96 1533.75 Q1750.96 1539.08 1752.31 1541.76 Q1753.68 1544.41 1756.39 1544.41 Q1759.12 1544.41 1760.47 1541.76 Q1761.84 1539.08 1761.84 1533.75 Q1761.84 1528.41 1760.47 1525.75 Q1759.12 1523.08 1756.39 1523.08 M1756.39 1520.3 Q1760.75 1520.3 1763.04 1523.75 Q1765.35 1527.19 1765.35 1533.75 Q1765.35 1540.3 1763.04 1543.75 Q1760.75 1547.19 1756.39 1547.19 Q1752.03 1547.19 1749.72 1543.75 Q1747.43 1540.3 1747.43 1533.75 Q1747.43 1527.19 1749.72 1523.75 Q1752.03 1520.3 1756.39 1520.3 Z" fill="#000000" fill-rule="nonzero" fill-opacity="1" /><path clip-path="url(#clip260)" d="M1771.51 1542.28 L1775.18 1542.28 L1775.18 1546.69 L1771.51 1546.69 L1771.51 1542.28 Z" fill="#000000" fill-rule="nonzero" fill-opacity="1" /><path clip-path="url(#clip260)" d="M1782.92 1546.15 L1782.92 1542.96 Q1784.24 1543.58 1785.59 1543.91 Q1786.95 1544.24 1788.25 1544.24 Q1791.72 1544.24 1793.54 1541.91 Q1795.38 1539.57 1795.64 1534.81 Q1794.64 1536.31 1793.09 1537.1 Q1791.55 1537.9 1789.67 1537.9 Q1785.78 1537.9 1783.51 1535.56 Q1781.25 1533.2 1781.25 1529.12 Q1781.25 1525.13 1783.61 1522.71 Q1785.97 1520.3 1789.9 1520.3 Q1794.39 1520.3 1796.76 1523.75 Q1799.13 1527.19 1799.13 1533.75 Q1799.13 1539.88 1796.22 1543.55 Q1793.32 1547.19 1788.4 1547.19 Q1787.09 1547.19 1785.73 1546.93 Q1784.38 1546.67 1782.92 1546.15 M1789.9 1535.16 Q1792.26 1535.16 1793.63 1533.55 Q1795.02 1531.93 1795.02 1529.12 Q1795.02 1526.32 1793.63 1524.71 Q1792.26 1523.08 1789.9 1523.08 Q1787.54 1523.08 1786.15 1524.71 Q1784.78 1526.32 1784.78 1529.12 Q1784.78 1531.93 1786.15 1533.55 Q1787.54 1535.16 1789.9 1535.16 Z" fill="#000000" fill-rule="nonzero" fill-opacity="1" /><path clip-path="url(#clip260)" d="M1805.54 1546.15 L1805.54 1542.96 Q1806.86 1543.58 1808.21 1543.91 Q1809.57 1544.24 1810.87 1544.24 Q1814.34 1544.24 1816.16 1541.91 Q1818.01 1539.57 1818.27 1534.81 Q1817.26 1536.31 1815.71 1537.1 Q1814.17 1537.9 1812.29 1537.9 Q1808.4 1537.9 1806.13 1535.56 Q1803.87 1533.2 1803.87 1529.12 Q1803.87 1525.13 1806.23 1522.71 Q1808.6 1520.3 1812.52 1520.3 Q1817.02 1520.3 1819.38 1523.75 Q1821.76 1527.19 1821.76 1533.75 Q1821.76 1539.88 1818.84 1543.55 Q1815.94 1547.19 1811.03 1547.19 Q1809.71 1547.19 1808.35 1546.93 Q1807 1546.67 1805.54 1546.15 M1812.52 1535.16 Q1814.88 1535.16 1816.25 1533.55 Q1817.64 1531.93 1817.64 1529.12 Q1817.64 1526.32 1816.25 1524.71 Q1814.88 1523.08 1812.52 1523.08 Q1810.16 1523.08 1808.77 1524.71 Q1807.4 1526.32 1807.4 1529.12 Q1807.4 1531.93 1808.77 1533.55 Q1810.16 1535.16 1812.52 1535.16 Z" fill="#000000" fill-rule="nonzero" fill-opacity="1" /><path clip-path="url(#clip260)" d="M1835.07 1519.67 L1835.07 1551.38 L1827.71 1551.38 L1827.71 1548.89 L1831.86 1548.89 L1831.86 1522.16 L1827.71 1522.16 L1827.71 1519.67 L1835.07 1519.67 Z" fill="#000000" fill-rule="nonzero" fill-opacity="1" /><path clip-path="url(#clip260)" d="M1905.17 1519.52 L1905.17 1555.07 L1902.22 1555.07 L1902.22 1519.52 L1905.17 1519.52 Z" fill="#000000" fill-rule="nonzero" fill-opacity="1" /><path clip-path="url(#clip260)" d="M1932.58 1522.76 L1932.58 1526.46 Q1930.81 1524.81 1928.8 1524 Q1926.8 1523.18 1924.54 1523.18 Q1920.1 1523.18 1917.74 1525.91 Q1915.38 1528.62 1915.38 1533.75 Q1915.38 1538.88 1917.74 1541.6 Q1920.1 1544.31 1924.54 1544.31 Q1926.8 1544.31 1928.8 1543.49 Q1930.81 1542.68 1932.58 1541.03 L1932.58 1544.69 Q1930.74 1545.94 1928.68 1546.57 Q1926.63 1547.19 1924.34 1547.19 Q1918.45 1547.19 1915.07 1543.6 Q1911.68 1539.99 1911.68 1533.75 Q1911.68 1527.5 1915.07 1523.91 Q1918.45 1520.3 1924.34 1520.3 Q1926.66 1520.3 1928.71 1520.92 Q1930.78 1521.53 1932.58 1522.76 Z" fill="#000000" fill-rule="nonzero" fill-opacity="1" /><path clip-path="url(#clip260)" d="M1941.98 1519.52 L1941.98 1555.07 L1939.02 1555.07 L1939.02 1519.52 L1941.98 1519.52 Z" fill="#000000" fill-rule="nonzero" fill-opacity="1" /><path clip-path="url(#clip260)" d="M1963.75 1535.8 Q1963.87 1537.09 1964.96 1539.17 Q1966.25 1541.58 1968.68 1542.94 Q1971.05 1544.26 1973.62 1544.27 L1985.72 1544.27 L1985.72 1547.04 L1973.62 1547.04 Q1970.29 1547.04 1967.2 1545.32 Q1964.13 1543.6 1962.48 1540.54 Q1960.83 1537.49 1960.83 1534.24 Q1960.83 1531.03 1962.48 1527.97 Q1964.13 1524.92 1967.2 1523.18 Q1970.29 1521.44 1973.62 1521.44 L1985.72 1521.44 L1985.72 1524.21 L1973.62 1524.21 Q1971.05 1524.22 1968.68 1525.56 Q1966.26 1526.93 1964.96 1529.33 Q1963.85 1531.41 1963.69 1533.02 L1985.72 1533.02 L1985.72 1535.8 L1963.75 1535.8 Z" fill="#000000" fill-rule="nonzero" fill-opacity="1" /><path clip-path="url(#clip260)" d="M2011.09 1519.71 Q2008.76 1523.7 2007.63 1527.61 Q2006.51 1531.51 2006.51 1535.52 Q2006.51 1539.54 2007.63 1543.48 Q2008.78 1547.4 2011.09 1551.38 L2008.31 1551.38 Q2005.71 1547.3 2004.41 1543.35 Q2003.12 1539.41 2003.12 1535.52 Q2003.12 1531.65 2004.41 1527.73 Q2005.69 1523.81 2008.31 1519.71 L2011.09 1519.71 Z" fill="#000000" fill-rule="nonzero" fill-opacity="1" /><path clip-path="url(#clip260)" d="M2020.76 1543.74 L2033 1543.74 L2033 1546.69 L2016.54 1546.69 L2016.54 1543.74 Q2018.54 1541.67 2021.97 1538.2 Q2025.43 1534.71 2026.31 1533.7 Q2028 1531.81 2028.66 1530.51 Q2029.34 1529.19 2029.34 1527.92 Q2029.34 1525.85 2027.88 1524.55 Q2026.44 1523.25 2024.11 1523.25 Q2022.46 1523.25 2020.62 1523.82 Q2018.8 1524.4 2016.71 1525.56 L2016.71 1522.02 Q2018.83 1521.17 2020.67 1520.73 Q2022.51 1520.3 2024.04 1520.3 Q2028.07 1520.3 2030.46 1522.31 Q2032.86 1524.33 2032.86 1527.69 Q2032.86 1529.29 2032.25 1530.73 Q2031.66 1532.16 2030.08 1534.1 Q2029.65 1534.6 2027.32 1537.02 Q2025 1539.41 2020.76 1543.74 Z" fill="#000000" fill-rule="nonzero" fill-opacity="1" /><path clip-path="url(#clip260)" d="M2047.86 1523.08 Q2045.15 1523.08 2043.78 1525.75 Q2042.43 1528.41 2042.43 1533.75 Q2042.43 1539.08 2043.78 1541.76 Q2045.15 1544.41 2047.86 1544.41 Q2050.59 1544.41 2051.94 1541.76 Q2053.31 1539.08 2053.31 1533.75 Q2053.31 1528.41 2051.94 1525.75 Q2050.59 1523.08 2047.86 1523.08 M2047.86 1520.3 Q2052.22 1520.3 2054.51 1523.75 Q2056.82 1527.19 2056.82 1533.75 Q2056.82 1540.3 2054.51 1543.75 Q2052.22 1547.19 2047.86 1547.19 Q2043.5 1547.19 2041.19 1543.75 Q2038.9 1540.3 2038.9 1533.75 Q2038.9 1527.19 2041.19 1523.75 Q2043.5 1520.3 2047.86 1520.3 Z" fill="#000000" fill-rule="nonzero" fill-opacity="1" /><path clip-path="url(#clip260)" d="M2062.98 1542.28 L2066.64 1542.28 L2066.64 1546.69 L2062.98 1546.69 L2062.98 1542.28 Z" fill="#000000" fill-rule="nonzero" fill-opacity="1" /><path clip-path="url(#clip260)" d="M2074.39 1546.15 L2074.39 1542.96 Q2075.71 1543.58 2077.06 1543.91 Q2078.42 1544.24 2079.72 1544.24 Q2083.19 1544.24 2085.01 1541.91 Q2086.85 1539.57 2087.11 1534.81 Q2086.11 1536.31 2084.56 1537.1 Q2083.02 1537.9 2081.14 1537.9 Q2077.25 1537.9 2074.98 1535.56 Q2072.72 1533.2 2072.72 1529.12 Q2072.72 1525.13 2075.08 1522.71 Q2077.44 1520.3 2081.37 1520.3 Q2085.86 1520.3 2088.22 1523.75 Q2090.6 1527.19 2090.6 1533.75 Q2090.6 1539.88 2087.69 1543.55 Q2084.79 1547.19 2079.87 1547.19 Q2078.55 1547.19 2077.2 1546.93 Q2075.85 1546.67 2074.39 1546.15 M2081.37 1535.16 Q2083.73 1535.16 2085.1 1533.55 Q2086.49 1531.93 2086.49 1529.12 Q2086.49 1526.32 2085.1 1524.71 Q2083.73 1523.08 2081.37 1523.08 Q2079.01 1523.08 2077.62 1524.71 Q2076.25 1526.32 2076.25 1529.12 Q2076.25 1531.93 2077.62 1533.55 Q2079.01 1535.16 2081.37 1535.16 Z" fill="#000000" fill-rule="nonzero" fill-opacity="1" /><path clip-path="url(#clip260)" d="M2097.01 1546.15 L2097.01 1542.96 Q2098.33 1543.58 2099.68 1543.91 Q2101.04 1544.24 2102.34 1544.24 Q2105.81 1544.24 2107.63 1541.91 Q2109.47 1539.57 2109.73 1534.81 Q2108.73 1536.31 2107.18 1537.1 Q2105.64 1537.9 2103.76 1537.9 Q2099.87 1537.9 2097.6 1535.56 Q2095.34 1533.2 2095.34 1529.12 Q2095.34 1525.13 2097.7 1522.71 Q2100.06 1520.3 2103.99 1520.3 Q2108.48 1520.3 2110.85 1523.75 Q2113.22 1527.19 2113.22 1533.75 Q2113.22 1539.88 2110.31 1543.55 Q2107.41 1547.19 2102.5 1547.19 Q2101.18 1547.19 2099.82 1546.93 Q2098.47 1546.67 2097.01 1546.15 M2103.99 1535.16 Q2106.35 1535.16 2107.72 1533.55 Q2109.11 1531.93 2109.11 1529.12 Q2109.11 1526.32 2107.72 1524.71 Q2106.35 1523.08 2103.99 1523.08 Q2101.63 1523.08 2100.24 1524.71 Q2098.87 1526.32 2098.87 1529.12 Q2098.87 1531.93 2100.24 1533.55 Q2101.63 1535.16 2103.99 1535.16 Z" fill="#000000" fill-rule="nonzero" fill-opacity="1" /><path clip-path="url(#clip260)" d="M2119.89 1542.28 L2123.55 1542.28 L2123.55 1545.26 L2120.71 1550.82 L2118.47 1550.82 L2119.89 1545.26 L2119.89 1542.28 Z" fill="#000000" fill-rule="nonzero" fill-opacity="1" /><path clip-path="url(#clip260)" d="M2133.85 1543.74 L2146.09 1543.74 L2146.09 1546.69 L2129.63 1546.69 L2129.63 1543.74 Q2131.63 1541.67 2135.06 1538.2 Q2138.52 1534.71 2139.4 1533.7 Q2141.09 1531.81 2141.75 1530.51 Q2142.43 1529.19 2142.43 1527.92 Q2142.43 1525.85 2140.97 1524.55 Q2139.53 1523.25 2137.2 1523.25 Q2135.55 1523.25 2133.71 1523.82 Q2131.89 1524.4 2129.8 1525.56 L2129.8 1522.02 Q2131.92 1521.17 2133.76 1520.73 Q2135.6 1520.3 2137.13 1520.3 Q2141.16 1520.3 2143.55 1522.31 Q2145.95 1524.33 2145.95 1527.69 Q2145.95 1529.29 2145.34 1530.73 Q2144.75 1532.16 2143.17 1534.1 Q2142.74 1534.6 2140.41 1537.02 Q2138.09 1539.41 2133.85 1543.74 Z" fill="#000000" fill-rule="nonzero" fill-opacity="1" /><path clip-path="url(#clip260)" d="M2154.06 1543.74 L2159.79 1543.74 L2159.79 1523.96 L2153.55 1525.21 L2153.55 1522.02 L2159.75 1520.77 L2163.26 1520.77 L2163.26 1543.74 L2168.99 1543.74 L2168.99 1546.69 L2154.06 1546.69 L2154.06 1543.74 Z" fill="#000000" fill-rule="nonzero" fill-opacity="1" /><path clip-path="url(#clip260)" d="M2176.07 1542.28 L2179.73 1542.28 L2179.73 1546.69 L2176.07 1546.69 L2176.07 1542.28 Z" fill="#000000" fill-rule="nonzero" fill-opacity="1" /><path clip-path="url(#clip260)" d="M2197.01 1523.82 L2188.15 1537.66 L2197.01 1537.66 L2197.01 1523.82 M2196.09 1520.77 L2200.5 1520.77 L2200.5 1537.66 L2204.2 1537.66 L2204.2 1540.58 L2200.5 1540.58 L2200.5 1546.69 L2197.01 1546.69 L2197.01 1540.58 L2185.31 1540.58 L2185.31 1537.19 L2196.09 1520.77 Z" fill="#000000" fill-rule="nonzero" fill-opacity="1" /><path clip-path="url(#clip260)" d="M2210.1 1546.15 L2210.1 1542.96 Q2211.42 1543.58 2212.77 1543.91 Q2214.13 1544.24 2215.43 1544.24 Q2218.9 1544.24 2220.72 1541.91 Q2222.56 1539.57 2222.82 1534.81 Q2221.82 1536.31 2220.27 1537.1 Q2218.73 1537.9 2216.85 1537.9 Q2212.96 1537.9 2210.69 1535.56 Q2208.43 1533.2 2208.43 1529.12 Q2208.43 1525.13 2210.79 1522.71 Q2213.15 1520.3 2217.08 1520.3 Q2221.57 1520.3 2223.94 1523.75 Q2226.31 1527.19 2226.31 1533.75 Q2226.31 1539.88 2223.4 1543.55 Q2220.5 1547.19 2215.58 1547.19 Q2214.27 1547.19 2212.91 1546.93 Q2211.56 1546.67 2210.1 1546.15 M2217.08 1535.16 Q2219.44 1535.16 2220.81 1533.55 Q2222.2 1531.93 2222.2 1529.12 Q2222.2 1526.32 2220.81 1524.71 Q2219.44 1523.08 2217.08 1523.08 Q2214.72 1523.08 2213.33 1524.71 Q2211.96 1526.32 2211.96 1529.12 Q2211.96 1531.93 2213.33 1533.55 Q2214.72 1535.16 2217.08 1535.16 Z" fill="#000000" fill-rule="nonzero" fill-opacity="1" /><path clip-path="url(#clip260)" d="M2239.63 1519.67 L2239.63 1551.38 L2232.27 1551.38 L2232.27 1548.89 L2236.42 1548.89 L2236.42 1522.16 L2232.27 1522.16 L2232.27 1519.67 L2239.63 1519.67 Z" fill="#000000" fill-rule="nonzero" fill-opacity="1" /><polyline clip-path="url(#clip262)" style="stroke:#000000; stroke-linecap:round; stroke-linejoin:round; stroke-width:2; stroke-opacity:0.1; fill:none" points="170.857,1454.11 2352.76,1454.11 "/>
<polyline clip-path="url(#clip262)" style="stroke:#000000; stroke-linecap:round; stroke-linejoin:round; stroke-width:2; stroke-opacity:0.1; fill:none" points="170.857,1213.64 2352.76,1213.64 "/>
<polyline clip-path="url(#clip262)" style="stroke:#000000; stroke-linecap:round; stroke-linejoin:round; stroke-width:2; stroke-opacity:0.1; fill:none" points="170.857,973.164 2352.76,973.164 "/>
<polyline clip-path="url(#clip262)" style="stroke:#000000; stroke-linecap:round; stroke-linejoin:round; stroke-width:2; stroke-opacity:0.1; fill:none" points="170.857,732.69 2352.76,732.69 "/>
<polyline clip-path="url(#clip262)" style="stroke:#000000; stroke-linecap:round; stroke-linejoin:round; stroke-width:2; stroke-opacity:0.1; fill:none" points="170.857,492.217 2352.76,492.217 "/>
<polyline clip-path="url(#clip262)" style="stroke:#000000; stroke-linecap:round; stroke-linejoin:round; stroke-width:2; stroke-opacity:0.1; fill:none" points="170.857,251.743 2352.76,251.743 "/>
<polyline clip-path="url(#clip260)" style="stroke:#000000; stroke-linecap:round; stroke-linejoin:round; stroke-width:4; stroke-opacity:1; fill:none" points="170.857,1495.09 170.857,47.2441 "/>
<polyline clip-path="url(#clip260)" style="stroke:#000000; stroke-linecap:round; stroke-linejoin:round; stroke-width:4; stroke-opacity:1; fill:none" points="170.857,1454.11 189.755,1454.11 "/>
<polyline clip-path="url(#clip260)" style="stroke:#000000; stroke-linecap:round; stroke-linejoin:round; stroke-width:4; stroke-opacity:1; fill:none" points="170.857,1213.64 189.755,1213.64 "/>
<polyline clip-path="url(#clip260)" style="stroke:#000000; stroke-linecap:round; stroke-linejoin:round; stroke-width:4; stroke-opacity:1; fill:none" points="170.857,973.164 189.755,973.164 "/>
<polyline clip-path="url(#clip260)" style="stroke:#000000; stroke-linecap:round; stroke-linejoin:round; stroke-width:4; stroke-opacity:1; fill:none" points="170.857,732.69 189.755,732.69 "/>
<polyline clip-path="url(#clip260)" style="stroke:#000000; stroke-linecap:round; stroke-linejoin:round; stroke-width:4; stroke-opacity:1; fill:none" points="170.857,492.217 189.755,492.217 "/>
<polyline clip-path="url(#clip260)" style="stroke:#000000; stroke-linecap:round; stroke-linejoin:round; stroke-width:4; stroke-opacity:1; fill:none" points="170.857,251.743 189.755,251.743 "/>
<path clip-path="url(#clip260)" d="M122.913 1439.91 Q119.302 1439.91 117.473 1443.47 Q115.668 1447.02 115.668 1454.15 Q115.668 1461.25 117.473 1464.82 Q119.302 1468.36 122.913 1468.36 Q126.547 1468.36 128.353 1464.82 Q130.182 1461.25 130.182 1454.15 Q130.182 1447.02 128.353 1443.47 Q126.547 1439.91 122.913 1439.91 M122.913 1436.21 Q128.723 1436.21 131.779 1440.81 Q134.857 1445.4 134.857 1454.15 Q134.857 1462.87 131.779 1467.48 Q128.723 1472.06 122.913 1472.06 Q117.103 1472.06 114.024 1467.48 Q110.969 1462.87 110.969 1454.15 Q110.969 1445.4 114.024 1440.81 Q117.103 1436.21 122.913 1436.21 Z" fill="#000000" fill-rule="nonzero" fill-opacity="1" /><path clip-path="url(#clip260)" d="M82.7975 1196.36 L101.154 1196.36 L101.154 1200.29 L87.0799 1200.29 L87.0799 1208.76 Q88.0984 1208.42 89.1169 1208.26 Q90.1354 1208.07 91.1539 1208.07 Q96.941 1208.07 100.321 1211.24 Q103.7 1214.41 103.7 1219.83 Q103.7 1225.41 100.228 1228.51 Q96.7558 1231.59 90.4364 1231.59 Q88.2604 1231.59 85.9919 1231.22 Q83.7466 1230.85 81.3392 1230.11 L81.3392 1225.41 Q83.4225 1226.54 85.6447 1227.1 Q87.8669 1227.65 90.3438 1227.65 Q94.3484 1227.65 96.6863 1225.55 Q99.0243 1223.44 99.0243 1219.83 Q99.0243 1216.22 96.6863 1214.11 Q94.3484 1212.01 90.3438 1212.01 Q88.4688 1212.01 86.5938 1212.42 Q84.7419 1212.84 82.7975 1213.72 L82.7975 1196.36 Z" fill="#000000" fill-rule="nonzero" fill-opacity="1" /><path clip-path="url(#clip260)" d="M122.913 1199.44 Q119.302 1199.44 117.473 1203 Q115.668 1206.54 115.668 1213.67 Q115.668 1220.78 117.473 1224.34 Q119.302 1227.89 122.913 1227.89 Q126.547 1227.89 128.353 1224.34 Q130.182 1220.78 130.182 1213.67 Q130.182 1206.54 128.353 1203 Q126.547 1199.44 122.913 1199.44 M122.913 1195.73 Q128.723 1195.73 131.779 1200.34 Q134.857 1204.92 134.857 1213.67 Q134.857 1222.4 131.779 1227.01 Q128.723 1231.59 122.913 1231.59 Q117.103 1231.59 114.024 1227.01 Q110.969 1222.4 110.969 1213.67 Q110.969 1204.92 114.024 1200.34 Q117.103 1195.73 122.913 1195.73 Z" fill="#000000" fill-rule="nonzero" fill-opacity="1" /><path clip-path="url(#clip260)" d="M53.3995 986.509 L61.0384 986.509 L61.0384 960.143 L52.7282 961.81 L52.7282 957.551 L60.9921 955.884 L65.668 955.884 L65.668 986.509 L73.3068 986.509 L73.3068 990.444 L53.3995 990.444 L53.3995 986.509 Z" fill="#000000" fill-rule="nonzero" fill-opacity="1" /><path clip-path="url(#clip260)" d="M92.7512 958.963 Q89.1401 958.963 87.3114 962.527 Q85.5058 966.069 85.5058 973.199 Q85.5058 980.305 87.3114 983.87 Q89.1401 987.411 92.7512 987.411 Q96.3854 987.411 98.1909 983.87 Q100.02 980.305 100.02 973.199 Q100.02 966.069 98.1909 962.527 Q96.3854 958.963 92.7512 958.963 M92.7512 955.259 Q98.5613 955.259 101.617 959.865 Q104.696 964.449 104.696 973.199 Q104.696 981.925 101.617 986.532 Q98.5613 991.115 92.7512 991.115 Q86.941 991.115 83.8623 986.532 Q80.8068 981.925 80.8068 973.199 Q80.8068 964.449 83.8623 959.865 Q86.941 955.259 92.7512 955.259 Z" fill="#000000" fill-rule="nonzero" fill-opacity="1" /><path clip-path="url(#clip260)" d="M122.913 958.963 Q119.302 958.963 117.473 962.527 Q115.668 966.069 115.668 973.199 Q115.668 980.305 117.473 983.87 Q119.302 987.411 122.913 987.411 Q126.547 987.411 128.353 983.87 Q130.182 980.305 130.182 973.199 Q130.182 966.069 128.353 962.527 Q126.547 958.963 122.913 958.963 M122.913 955.259 Q128.723 955.259 131.779 959.865 Q134.857 964.449 134.857 973.199 Q134.857 981.925 131.779 986.532 Q128.723 991.115 122.913 991.115 Q117.103 991.115 114.024 986.532 Q110.969 981.925 110.969 973.199 Q110.969 964.449 114.024 959.865 Q117.103 955.259 122.913 955.259 Z" fill="#000000" fill-rule="nonzero" fill-opacity="1" /><path clip-path="url(#clip260)" d="M53.3995 746.035 L61.0384 746.035 L61.0384 719.669 L52.7282 721.336 L52.7282 717.077 L60.9921 715.41 L65.668 715.41 L65.668 746.035 L73.3068 746.035 L73.3068 749.97 L53.3995 749.97 L53.3995 746.035 Z" fill="#000000" fill-rule="nonzero" fill-opacity="1" /><path clip-path="url(#clip260)" d="M82.7975 715.41 L101.154 715.41 L101.154 719.345 L87.0799 719.345 L87.0799 727.818 Q88.0984 727.47 89.1169 727.308 Q90.1354 727.123 91.1539 727.123 Q96.941 727.123 100.321 730.294 Q103.7 733.466 103.7 738.882 Q103.7 744.461 100.228 747.563 Q96.7558 750.641 90.4364 750.641 Q88.2604 750.641 85.9919 750.271 Q83.7466 749.901 81.3392 749.16 L81.3392 744.461 Q83.4225 745.595 85.6447 746.151 Q87.8669 746.706 90.3438 746.706 Q94.3484 746.706 96.6863 744.6 Q99.0243 742.493 99.0243 738.882 Q99.0243 735.271 96.6863 733.165 Q94.3484 731.058 90.3438 731.058 Q88.4688 731.058 86.5938 731.475 Q84.7419 731.892 82.7975 732.771 L82.7975 715.41 Z" fill="#000000" fill-rule="nonzero" fill-opacity="1" /><path clip-path="url(#clip260)" d="M122.913 718.489 Q119.302 718.489 117.473 722.054 Q115.668 725.595 115.668 732.725 Q115.668 739.831 117.473 743.396 Q119.302 746.938 122.913 746.938 Q126.547 746.938 128.353 743.396 Q130.182 739.831 130.182 732.725 Q130.182 725.595 128.353 722.054 Q126.547 718.489 122.913 718.489 M122.913 714.785 Q128.723 714.785 131.779 719.392 Q134.857 723.975 134.857 732.725 Q134.857 741.452 131.779 746.058 Q128.723 750.641 122.913 750.641 Q117.103 750.641 114.024 746.058 Q110.969 741.452 110.969 732.725 Q110.969 723.975 114.024 719.392 Q117.103 714.785 122.913 714.785 Z" fill="#000000" fill-rule="nonzero" fill-opacity="1" /><path clip-path="url(#clip260)" d="M56.6171 505.561 L72.9365 505.561 L72.9365 509.497 L50.9921 509.497 L50.9921 505.561 Q53.6541 502.807 58.2375 498.177 Q62.8439 493.524 64.0245 492.182 Q66.2698 489.659 67.1494 487.923 Q68.0522 486.163 68.0522 484.474 Q68.0522 481.719 66.1078 479.983 Q64.1865 478.247 61.0847 478.247 Q58.8856 478.247 56.4319 479.011 Q54.0014 479.774 51.2236 481.325 L51.2236 476.603 Q54.0477 475.469 56.5014 474.89 Q58.955 474.312 60.9921 474.312 Q66.3624 474.312 69.5568 476.997 Q72.7513 479.682 72.7513 484.173 Q72.7513 486.302 71.9411 488.224 Q71.1541 490.122 69.0476 492.714 Q68.4689 493.386 65.367 496.603 Q62.2652 499.798 56.6171 505.561 Z" fill="#000000" fill-rule="nonzero" fill-opacity="1" /><path clip-path="url(#clip260)" d="M92.7512 478.015 Q89.1401 478.015 87.3114 481.58 Q85.5058 485.122 85.5058 492.251 Q85.5058 499.358 87.3114 502.923 Q89.1401 506.464 92.7512 506.464 Q96.3854 506.464 98.1909 502.923 Q100.02 499.358 100.02 492.251 Q100.02 485.122 98.1909 481.58 Q96.3854 478.015 92.7512 478.015 M92.7512 474.312 Q98.5613 474.312 101.617 478.918 Q104.696 483.501 104.696 492.251 Q104.696 500.978 101.617 505.585 Q98.5613 510.168 92.7512 510.168 Q86.941 510.168 83.8623 505.585 Q80.8068 500.978 80.8068 492.251 Q80.8068 483.501 83.8623 478.918 Q86.941 474.312 92.7512 474.312 Z" fill="#000000" fill-rule="nonzero" fill-opacity="1" /><path clip-path="url(#clip260)" d="M122.913 478.015 Q119.302 478.015 117.473 481.58 Q115.668 485.122 115.668 492.251 Q115.668 499.358 117.473 502.923 Q119.302 506.464 122.913 506.464 Q126.547 506.464 128.353 502.923 Q130.182 499.358 130.182 492.251 Q130.182 485.122 128.353 481.58 Q126.547 478.015 122.913 478.015 M122.913 474.312 Q128.723 474.312 131.779 478.918 Q134.857 483.501 134.857 492.251 Q134.857 500.978 131.779 505.585 Q128.723 510.168 122.913 510.168 Q117.103 510.168 114.024 505.585 Q110.969 500.978 110.969 492.251 Q110.969 483.501 114.024 478.918 Q117.103 474.312 122.913 474.312 Z" fill="#000000" fill-rule="nonzero" fill-opacity="1" /><path clip-path="url(#clip260)" d="M56.6171 265.088 L72.9365 265.088 L72.9365 269.023 L50.9921 269.023 L50.9921 265.088 Q53.6541 262.333 58.2375 257.704 Q62.8439 253.051 64.0245 251.708 Q66.2698 249.185 67.1494 247.449 Q68.0522 245.69 68.0522 244 Q68.0522 241.245 66.1078 239.509 Q64.1865 237.773 61.0847 237.773 Q58.8856 237.773 56.4319 238.537 Q54.0014 239.301 51.2236 240.852 L51.2236 236.13 Q54.0477 234.995 56.5014 234.417 Q58.955 233.838 60.9921 233.838 Q66.3624 233.838 69.5568 236.523 Q72.7513 239.208 72.7513 243.699 Q72.7513 245.829 71.9411 247.75 Q71.1541 249.648 69.0476 252.241 Q68.4689 252.912 65.367 256.129 Q62.2652 259.324 56.6171 265.088 Z" fill="#000000" fill-rule="nonzero" fill-opacity="1" /><path clip-path="url(#clip260)" d="M82.7975 234.463 L101.154 234.463 L101.154 238.398 L87.0799 238.398 L87.0799 246.87 Q88.0984 246.523 89.1169 246.361 Q90.1354 246.176 91.1539 246.176 Q96.941 246.176 100.321 249.347 Q103.7 252.518 103.7 257.935 Q103.7 263.514 100.228 266.615 Q96.7558 269.694 90.4364 269.694 Q88.2604 269.694 85.9919 269.324 Q83.7466 268.953 81.3392 268.213 L81.3392 263.514 Q83.4225 264.648 85.6447 265.203 Q87.8669 265.759 90.3438 265.759 Q94.3484 265.759 96.6863 263.653 Q99.0243 261.546 99.0243 257.935 Q99.0243 254.324 96.6863 252.217 Q94.3484 250.111 90.3438 250.111 Q88.4688 250.111 86.5938 250.528 Q84.7419 250.944 82.7975 251.824 L82.7975 234.463 Z" fill="#000000" fill-rule="nonzero" fill-opacity="1" /><path clip-path="url(#clip260)" d="M122.913 237.542 Q119.302 237.542 117.473 241.106 Q115.668 244.648 115.668 251.778 Q115.668 258.884 117.473 262.449 Q119.302 265.99 122.913 265.99 Q126.547 265.99 128.353 262.449 Q130.182 258.884 130.182 251.778 Q130.182 244.648 128.353 241.106 Q126.547 237.542 122.913 237.542 M122.913 233.838 Q128.723 233.838 131.779 238.444 Q134.857 243.028 134.857 251.778 Q134.857 260.504 131.779 265.111 Q128.723 269.694 122.913 269.694 Q117.103 269.694 114.024 265.111 Q110.969 260.504 110.969 251.778 Q110.969 243.028 114.024 238.444 Q117.103 233.838 122.913 233.838 Z" fill="#000000" fill-rule="nonzero" fill-opacity="1" /><path clip-path="url(#clip262)" d="M290.866 1434.87 L290.866 1454.11 L614.513 1454.11 L614.513 1434.87 L290.866 1434.87 L290.866 1434.87  Z" fill="#e69f00" fill-rule="evenodd" fill-opacity="1"/>
<polyline clip-path="url(#clip262)" style="stroke:#000000; stroke-linecap:round; stroke-linejoin:round; stroke-width:4; stroke-opacity:1; fill:none" points="290.866,1434.87 290.866,1454.11 614.513,1454.11 614.513,1434.87 290.866,1434.87 "/>
<path clip-path="url(#clip262)" d="M695.424 88.2208 L695.424 1454.11 L1019.07 1454.11 L1019.07 88.2208 L695.424 88.2208 L695.424 88.2208  Z" fill="#e69f00" fill-rule="evenodd" fill-opacity="1"/>
<polyline clip-path="url(#clip262)" style="stroke:#000000; stroke-linecap:round; stroke-linejoin:round; stroke-width:4; stroke-opacity:1; fill:none" points="695.424,88.2208 695.424,1454.11 1019.07,1454.11 1019.07,88.2208 695.424,88.2208 "/>
<path clip-path="url(#clip262)" d="M1099.98 444.122 L1099.98 1454.11 L1423.63 1454.11 L1423.63 444.122 L1099.98 444.122 L1099.98 444.122  Z" fill="#e69f00" fill-rule="evenodd" fill-opacity="1"/>
<polyline clip-path="url(#clip262)" style="stroke:#000000; stroke-linecap:round; stroke-linejoin:round; stroke-width:4; stroke-opacity:1; fill:none" points="1099.98,444.122 1099.98,1454.11 1423.63,1454.11 1423.63,444.122 1099.98,444.122 "/>
<path clip-path="url(#clip262)" d="M1504.54 1420.44 L1504.54 1454.11 L1828.19 1454.11 L1828.19 1420.44 L1504.54 1420.44 L1504.54 1420.44  Z" fill="#e69f00" fill-rule="evenodd" fill-opacity="1"/>
<polyline clip-path="url(#clip262)" style="stroke:#000000; stroke-linecap:round; stroke-linejoin:round; stroke-width:4; stroke-opacity:1; fill:none" points="1504.54,1420.44 1504.54,1454.11 1828.19,1454.11 1828.19,1420.44 1504.54,1420.44 "/>
<path clip-path="url(#clip262)" d="M1909.1 1449.3 L1909.1 1454.11 L2232.75 1454.11 L2232.75 1449.3 L1909.1 1449.3 L1909.1 1449.3  Z" fill="#e69f00" fill-rule="evenodd" fill-opacity="1"/>
<polyline clip-path="url(#clip262)" style="stroke:#000000; stroke-linecap:round; stroke-linejoin:round; stroke-width:4; stroke-opacity:1; fill:none" points="1909.1,1449.3 1909.1,1454.11 2232.75,1454.11 2232.75,1449.3 1909.1,1449.3 "/>
<circle clip-path="url(#clip262)" style="fill:#e69f00; stroke:none; fill-opacity:0" cx="452.689" cy="1434.87" r="2"/>
<circle clip-path="url(#clip262)" style="fill:#e69f00; stroke:none; fill-opacity:0" cx="857.248" cy="88.2208" r="2"/>
<circle clip-path="url(#clip262)" style="fill:#e69f00; stroke:none; fill-opacity:0" cx="1261.81" cy="444.122" r="2"/>
<circle clip-path="url(#clip262)" style="fill:#e69f00; stroke:none; fill-opacity:0" cx="1666.37" cy="1420.44" r="2"/>
<circle clip-path="url(#clip262)" style="fill:#e69f00; stroke:none; fill-opacity:0" cx="2070.92" cy="1449.3" r="2"/>
</svg>
