<?xml version="1.0" encoding="utf-8"?>
<svg xmlns="http://www.w3.org/2000/svg" xmlns:xlink="http://www.w3.org/1999/xlink" width="800" height="250" viewBox="0 0 3200 1000">
<defs>
  <clipPath id="clip620">
    <rect x="0" y="0" width="3200" height="1000"/>
  </clipPath>
</defs>
<path clip-path="url(#clip620)" d="
M0 1000 L3200 1000 L3200 0 L0 0  Z
  " fill="#ffffff" fill-rule="evenodd" fill-opacity="1"/>
<defs>
  <clipPath id="clip621">
    <rect x="640" y="0" width="2241" height="1000"/>
  </clipPath>
</defs>
<path clip-path="url(#clip620)" d="
M155.478 910.808 L1552.76 910.808 L1552.76 91.3421 L155.478 91.3421  Z
  " fill="#ffffff" fill-rule="evenodd" fill-opacity="1"/>
<defs>
  <clipPath id="clip622">
    <rect x="155" y="91" width="1398" height="820"/>
  </clipPath>
</defs>
<polyline clip-path="url(#clip622)" style="stroke:#000000; stroke-linecap:round; stroke-linejoin:round; stroke-width:2; stroke-opacity:0.1; fill:none" points="
  212.756,910.808 212.756,91.3421 
  "/>
<polyline clip-path="url(#clip622)" style="stroke:#000000; stroke-linecap:round; stroke-linejoin:round; stroke-width:2; stroke-opacity:0.1; fill:none" points="
  452.875,910.808 452.875,91.3421 
  "/>
<polyline clip-path="url(#clip622)" style="stroke:#000000; stroke-linecap:round; stroke-linejoin:round; stroke-width:2; stroke-opacity:0.1; fill:none" points="
  692.993,910.808 692.993,91.3421 
  "/>
<polyline clip-path="url(#clip622)" style="stroke:#000000; stroke-linecap:round; stroke-linejoin:round; stroke-width:2; stroke-opacity:0.1; fill:none" points="
  933.112,910.808 933.112,91.3421 
  "/>
<polyline clip-path="url(#clip622)" style="stroke:#000000; stroke-linecap:round; stroke-linejoin:round; stroke-width:2; stroke-opacity:0.1; fill:none" points="
  1173.23,910.808 1173.23,91.3421 
  "/>
<polyline clip-path="url(#clip622)" style="stroke:#000000; stroke-linecap:round; stroke-linejoin:round; stroke-width:2; stroke-opacity:0.1; fill:none" points="
  1413.35,910.808 1413.35,91.3421 
  "/>
<polyline clip-path="url(#clip620)" style="stroke:#000000; stroke-linecap:round; stroke-linejoin:round; stroke-width:4; stroke-opacity:1; fill:none" points="
  155.478,910.808 1552.76,910.808 
  "/>
<polyline clip-path="url(#clip620)" style="stroke:#000000; stroke-linecap:round; stroke-linejoin:round; stroke-width:4; stroke-opacity:1; fill:none" points="
  212.756,910.808 212.756,891.91 
  "/>
<polyline clip-path="url(#clip620)" style="stroke:#000000; stroke-linecap:round; stroke-linejoin:round; stroke-width:4; stroke-opacity:1; fill:none" points="
  452.875,910.808 452.875,891.91 
  "/>
<polyline clip-path="url(#clip620)" style="stroke:#000000; stroke-linecap:round; stroke-linejoin:round; stroke-width:4; stroke-opacity:1; fill:none" points="
  692.993,910.808 692.993,891.91 
  "/>
<polyline clip-path="url(#clip620)" style="stroke:#000000; stroke-linecap:round; stroke-linejoin:round; stroke-width:4; stroke-opacity:1; fill:none" points="
  933.112,910.808 933.112,891.91 
  "/>
<polyline clip-path="url(#clip620)" style="stroke:#000000; stroke-linecap:round; stroke-linejoin:round; stroke-width:4; stroke-opacity:1; fill:none" points="
  1173.23,910.808 1173.23,891.91 
  "/>
<polyline clip-path="url(#clip620)" style="stroke:#000000; stroke-linecap:round; stroke-linejoin:round; stroke-width:4; stroke-opacity:1; fill:none" points="
  1413.35,910.808 1413.35,891.91 
  "/>
<path clip-path="url(#clip620)" d="M182.698 962.779 L212.374 962.779 L212.374 966.714 L182.698 966.714 L182.698 962.779 Z" fill="#000000" fill-rule="evenodd" fill-opacity="1" /><path clip-path="url(#clip620)" d="M226.494 975.673 L242.814 975.673 L242.814 979.608 L220.869 979.608 L220.869 975.673 Q223.531 972.918 228.115 968.288 Q232.721 963.636 233.902 962.293 Q236.147 959.77 237.027 958.034 Q237.929 956.275 237.929 954.585 Q237.929 951.83 235.985 950.094 Q234.064 948.358 230.962 948.358 Q228.763 948.358 226.309 949.122 Q223.879 949.886 221.101 951.437 L221.101 946.715 Q223.925 945.58 226.379 945.002 Q228.832 944.423 230.869 944.423 Q236.24 944.423 239.434 947.108 Q242.628 949.793 242.628 954.284 Q242.628 956.414 241.818 958.335 Q241.031 960.233 238.925 962.826 Q238.346 963.497 235.244 966.714 Q232.142 969.909 226.494 975.673 Z" fill="#000000" fill-rule="evenodd" fill-opacity="1" /><path clip-path="url(#clip620)" d="M422.632 962.779 L452.308 962.779 L452.308 966.714 L422.632 966.714 L422.632 962.779 Z" fill="#000000" fill-rule="evenodd" fill-opacity="1" /><path clip-path="url(#clip620)" d="M463.21 975.673 L470.849 975.673 L470.849 949.307 L462.539 950.974 L462.539 946.715 L470.803 945.048 L475.479 945.048 L475.479 975.673 L483.118 975.673 L483.118 979.608 L463.21 979.608 L463.21 975.673 Z" fill="#000000" fill-rule="evenodd" fill-opacity="1" /><path clip-path="url(#clip620)" d="M692.993 948.127 Q689.382 948.127 687.554 951.691 Q685.748 955.233 685.748 962.363 Q685.748 969.469 687.554 973.034 Q689.382 976.575 692.993 976.575 Q696.628 976.575 698.433 973.034 Q700.262 969.469 700.262 962.363 Q700.262 955.233 698.433 951.691 Q696.628 948.127 692.993 948.127 M692.993 944.423 Q698.804 944.423 701.859 949.029 Q704.938 953.613 704.938 962.363 Q704.938 971.089 701.859 975.696 Q698.804 980.279 692.993 980.279 Q687.183 980.279 684.105 975.696 Q681.049 971.089 681.049 962.363 Q681.049 953.613 684.105 949.029 Q687.183 944.423 692.993 944.423 Z" fill="#000000" fill-rule="evenodd" fill-opacity="1" /><path clip-path="url(#clip620)" d="M923.494 975.673 L931.133 975.673 L931.133 949.307 L922.823 950.974 L922.823 946.715 L931.087 945.048 L935.763 945.048 L935.763 975.673 L943.401 975.673 L943.401 979.608 L923.494 979.608 L923.494 975.673 Z" fill="#000000" fill-rule="evenodd" fill-opacity="1" /><path clip-path="url(#clip620)" d="M1167.88 975.673 L1184.2 975.673 L1184.2 979.608 L1162.26 979.608 L1162.26 975.673 Q1164.92 972.918 1169.5 968.288 Q1174.11 963.636 1175.29 962.293 Q1177.54 959.77 1178.42 958.034 Q1179.32 956.275 1179.32 954.585 Q1179.32 951.83 1177.37 950.094 Q1175.45 948.358 1172.35 948.358 Q1170.15 948.358 1167.7 949.122 Q1165.27 949.886 1162.49 951.437 L1162.49 946.715 Q1165.31 945.58 1167.77 945.002 Q1170.22 944.423 1172.26 944.423 Q1177.63 944.423 1180.82 947.108 Q1184.02 949.793 1184.02 954.284 Q1184.02 956.414 1183.21 958.335 Q1182.42 960.233 1180.31 962.826 Q1179.74 963.497 1176.63 966.714 Q1173.53 969.909 1167.88 975.673 Z" fill="#000000" fill-rule="evenodd" fill-opacity="1" /><path clip-path="url(#clip620)" d="M1417.6 960.974 Q1420.95 961.691 1422.83 963.96 Q1424.73 966.228 1424.73 969.562 Q1424.73 974.677 1421.21 977.478 Q1417.69 980.279 1411.21 980.279 Q1409.03 980.279 1406.72 979.839 Q1404.43 979.423 1401.97 978.566 L1401.97 974.052 Q1403.92 975.187 1406.23 975.765 Q1408.55 976.344 1411.07 976.344 Q1415.47 976.344 1417.76 974.608 Q1420.07 972.872 1420.07 969.562 Q1420.07 966.506 1417.92 964.793 Q1415.79 963.057 1411.97 963.057 L1407.94 963.057 L1407.94 959.214 L1412.16 959.214 Q1415.61 959.214 1417.44 957.849 Q1419.26 956.46 1419.26 953.867 Q1419.26 951.205 1417.37 949.793 Q1415.49 948.358 1411.97 948.358 Q1410.05 948.358 1407.85 948.775 Q1405.65 949.191 1403.01 950.071 L1403.01 945.904 Q1405.68 945.164 1407.99 944.793 Q1410.33 944.423 1412.39 944.423 Q1417.71 944.423 1420.81 946.853 Q1423.92 949.261 1423.92 953.381 Q1423.92 956.252 1422.27 958.242 Q1420.63 960.21 1417.6 960.974 Z" fill="#000000" fill-rule="evenodd" fill-opacity="1" /><polyline clip-path="url(#clip622)" style="stroke:#000000; stroke-linecap:round; stroke-linejoin:round; stroke-width:2; stroke-opacity:0.1; fill:none" points="
  155.478,901.967 1552.76,901.967 
  "/>
<polyline clip-path="url(#clip622)" style="stroke:#000000; stroke-linecap:round; stroke-linejoin:round; stroke-width:2; stroke-opacity:0.1; fill:none" points="
  155.478,714.463 1552.76,714.463 
  "/>
<polyline clip-path="url(#clip622)" style="stroke:#000000; stroke-linecap:round; stroke-linejoin:round; stroke-width:2; stroke-opacity:0.1; fill:none" points="
  155.478,526.959 1552.76,526.959 
  "/>
<polyline clip-path="url(#clip622)" style="stroke:#000000; stroke-linecap:round; stroke-linejoin:round; stroke-width:2; stroke-opacity:0.1; fill:none" points="
  155.478,339.455 1552.76,339.455 
  "/>
<polyline clip-path="url(#clip622)" style="stroke:#000000; stroke-linecap:round; stroke-linejoin:round; stroke-width:2; stroke-opacity:0.1; fill:none" points="
  155.478,151.951 1552.76,151.951 
  "/>
<polyline clip-path="url(#clip620)" style="stroke:#000000; stroke-linecap:round; stroke-linejoin:round; stroke-width:4; stroke-opacity:1; fill:none" points="
  155.478,910.808 155.478,91.3421 
  "/>
<polyline clip-path="url(#clip620)" style="stroke:#000000; stroke-linecap:round; stroke-linejoin:round; stroke-width:4; stroke-opacity:1; fill:none" points="
  155.478,901.967 174.376,901.967 
  "/>
<polyline clip-path="url(#clip620)" style="stroke:#000000; stroke-linecap:round; stroke-linejoin:round; stroke-width:4; stroke-opacity:1; fill:none" points="
  155.478,714.463 174.376,714.463 
  "/>
<polyline clip-path="url(#clip620)" style="stroke:#000000; stroke-linecap:round; stroke-linejoin:round; stroke-width:4; stroke-opacity:1; fill:none" points="
  155.478,526.959 174.376,526.959 
  "/>
<polyline clip-path="url(#clip620)" style="stroke:#000000; stroke-linecap:round; stroke-linejoin:round; stroke-width:4; stroke-opacity:1; fill:none" points="
  155.478,339.455 174.376,339.455 
  "/>
<polyline clip-path="url(#clip620)" style="stroke:#000000; stroke-linecap:round; stroke-linejoin:round; stroke-width:4; stroke-opacity:1; fill:none" points="
  155.478,151.951 174.376,151.951 
  "/>
<path clip-path="url(#clip620)" d="M47.3625 902.419 L77.0383 902.419 L77.0383 906.354 L47.3625 906.354 L47.3625 902.419 Z" fill="#000000" fill-rule="evenodd" fill-opacity="1" /><path clip-path="url(#clip620)" d="M91.1586 915.312 L107.478 915.312 L107.478 919.247 L85.5336 919.247 L85.5336 915.312 Q88.1956 912.557 92.7789 907.928 Q97.3854 903.275 98.5659 901.933 Q100.811 899.409 101.691 897.673 Q102.594 895.914 102.594 894.224 Q102.594 891.47 100.649 889.734 Q98.728 887.997 95.6261 887.997 Q93.4271 887.997 90.9734 888.761 Q88.5428 889.525 85.7651 891.076 L85.7651 886.354 Q88.5891 885.22 91.0428 884.641 Q93.4965 884.062 95.5335 884.062 Q100.904 884.062 104.098 886.747 Q107.293 889.433 107.293 893.923 Q107.293 896.053 106.483 897.974 Q105.696 899.872 103.589 902.465 Q103.01 903.136 99.9085 906.354 Q96.8067 909.548 91.1586 915.312 Z" fill="#000000" fill-rule="evenodd" fill-opacity="1" /><path clip-path="url(#clip620)" d="M46.9921 714.915 L76.6679 714.915 L76.6679 718.85 L46.9921 718.85 L46.9921 714.915 Z" fill="#000000" fill-rule="evenodd" fill-opacity="1" /><path clip-path="url(#clip620)" d="M87.5706 727.808 L95.2095 727.808 L95.2095 701.442 L86.8993 703.109 L86.8993 698.85 L95.1632 697.183 L99.8391 697.183 L99.8391 727.808 L107.478 727.808 L107.478 731.743 L87.5706 731.743 L87.5706 727.808 Z" fill="#000000" fill-rule="evenodd" fill-opacity="1" /><path clip-path="url(#clip620)" d="M95.5335 512.758 Q91.9224 512.758 90.0937 516.323 Q88.2882 519.864 88.2882 526.994 Q88.2882 534.1 90.0937 537.665 Q91.9224 541.207 95.5335 541.207 Q99.1678 541.207 100.973 537.665 Q102.802 534.1 102.802 526.994 Q102.802 519.864 100.973 516.323 Q99.1678 512.758 95.5335 512.758 M95.5335 509.054 Q101.344 509.054 104.399 513.661 Q107.478 518.244 107.478 526.994 Q107.478 535.721 104.399 540.327 Q101.344 544.91 95.5335 544.91 Q89.7234 544.91 86.6447 540.327 Q83.5892 535.721 83.5892 526.994 Q83.5892 518.244 86.6447 513.661 Q89.7234 509.054 95.5335 509.054 Z" fill="#000000" fill-rule="evenodd" fill-opacity="1" /><path clip-path="url(#clip620)" d="M87.5706 352.8 L95.2095 352.8 L95.2095 326.434 L86.8993 328.101 L86.8993 323.842 L95.1632 322.175 L99.8391 322.175 L99.8391 352.8 L107.478 352.8 L107.478 356.735 L87.5706 356.735 L87.5706 352.8 Z" fill="#000000" fill-rule="evenodd" fill-opacity="1" /><path clip-path="url(#clip620)" d="M91.1586 165.296 L107.478 165.296 L107.478 169.231 L85.5336 169.231 L85.5336 165.296 Q88.1956 162.541 92.7789 157.912 Q97.3854 153.259 98.5659 151.916 Q100.811 149.393 101.691 147.657 Q102.594 145.898 102.594 144.208 Q102.594 141.453 100.649 139.717 Q98.728 137.981 95.6261 137.981 Q93.4271 137.981 90.9734 138.745 Q88.5428 139.509 85.7651 141.06 L85.7651 136.338 Q88.5891 135.204 91.0428 134.625 Q93.4965 134.046 95.5335 134.046 Q100.904 134.046 104.098 136.731 Q107.293 139.416 107.293 143.907 Q107.293 146.037 106.483 147.958 Q105.696 149.856 103.589 152.449 Q103.01 153.12 99.9085 156.338 Q96.8067 159.532 91.1586 165.296 Z" fill="#000000" fill-rule="evenodd" fill-opacity="1" /><path clip-path="url(#clip620)" d="M724.549 65.7705 L724.549 89.8329 L717.055 89.8329 L717.055 27.2059 L724.549 27.2059 L724.549 34.0924 Q726.898 30.0415 730.463 28.0971 Q734.068 26.1121 739.051 26.1121 Q747.315 26.1121 752.459 32.6746 Q757.645 39.2371 757.645 49.9314 Q757.645 60.6258 752.459 67.1883 Q747.315 73.7508 739.051 73.7508 Q734.068 73.7508 730.463 71.8063 Q726.898 69.8214 724.549 65.7705 M749.907 49.9314 Q749.907 41.7081 746.505 37.0496 Q743.142 32.3505 737.228 32.3505 Q731.314 32.3505 727.911 37.0496 Q724.549 41.7081 724.549 49.9314 Q724.549 58.1548 727.911 62.8538 Q731.314 67.5124 737.228 67.5124 Q743.142 67.5124 746.505 62.8538 Q749.907 58.1548 749.907 49.9314 Z" fill="#000000" fill-rule="evenodd" fill-opacity="1" /><path clip-path="url(#clip620)" d="M738.443 6.22219 L744.439 6.22219 L754.363 21.4536 L748.733 21.4536 L741.441 11.5289 L734.149 21.4536 L728.519 21.4536 L738.443 6.22219 M741.441 26.1121 L741.441 26.1121 Z" fill="#000000" fill-rule="evenodd" fill-opacity="1" /><path clip-path="url(#clip620)" d="M787.905 9.62495 Q782.477 18.942 779.844 28.0566 Q777.21 37.1711 777.21 46.5287 Q777.21 55.8863 779.844 65.0818 Q782.517 74.2369 787.905 83.5134 L781.423 83.5134 Q775.347 73.9938 772.309 64.7983 Q769.311 55.6027 769.311 46.5287 Q769.311 37.4952 772.309 28.3401 Q775.307 19.1851 781.423 9.62495 L787.905 9.62495 Z" fill="#000000" fill-rule="evenodd" fill-opacity="1" /><path clip-path="url(#clip620)" d="M821.244 76.7889 Q818.084 84.8907 815.086 87.3618 Q812.089 89.8329 807.066 89.8329 L801.111 89.8329 L801.111 83.5945 L805.486 83.5945 Q808.564 83.5945 810.266 82.1361 Q811.967 80.6778 814.033 75.2496 L815.37 71.8468 L797.019 27.2059 L804.919 27.2059 L819.097 62.6918 L833.275 27.2059 L841.174 27.2059 L821.244 76.7889 Z" fill="#000000" fill-rule="evenodd" fill-opacity="1" /><path clip-path="url(#clip620)" d="M852.436 34.9026 L904.368 34.9026 L904.368 41.7081 L852.436 41.7081 L852.436 34.9026 M852.436 51.4303 L904.368 51.4303 L904.368 58.3168 L852.436 58.3168 L852.436 51.4303 Z" fill="#000000" fill-rule="evenodd" fill-opacity="1" /><path clip-path="url(#clip620)" d="M923.448 65.6895 L936.816 65.6895 L936.816 19.5497 L922.273 22.4663 L922.273 15.0127 L936.735 12.096 L944.918 12.096 L944.918 65.6895 L958.286 65.6895 L958.286 72.576 L923.448 72.576 L923.448 65.6895 Z" fill="#000000" fill-rule="evenodd" fill-opacity="1" /><path clip-path="url(#clip620)" d="M972.586 9.62495 L979.067 9.62495 Q985.143 19.1851 988.141 28.3401 Q991.179 37.4952 991.179 46.5287 Q991.179 55.6027 988.141 64.7983 Q985.143 73.9938 979.067 83.5134 L972.586 83.5134 Q977.973 74.2369 980.606 65.0818 Q983.28 55.8863 983.28 46.5287 Q983.28 37.1711 980.606 28.0566 Q977.973 18.942 972.586 9.62495 Z" fill="#000000" fill-rule="evenodd" fill-opacity="1" /><path clip-path="url(#clip620)" d="
M1755.48 910.808 L3152.76 910.808 L3152.76 91.3421 L1755.48 91.3421  Z
  " fill="#ffffff" fill-rule="evenodd" fill-opacity="1"/>
<defs>
  <clipPath id="clip623">
    <rect x="1755" y="91" width="1398" height="820"/>
  </clipPath>
</defs>
<polyline clip-path="url(#clip623)" style="stroke:#000000; stroke-linecap:round; stroke-linejoin:round; stroke-width:2; stroke-opacity:0.1; fill:none" points="
  1812.76,910.808 1812.76,91.3421 
  "/>
<polyline clip-path="url(#clip623)" style="stroke:#000000; stroke-linecap:round; stroke-linejoin:round; stroke-width:2; stroke-opacity:0.1; fill:none" points="
  2052.87,910.808 2052.87,91.3421 
  "/>
<polyline clip-path="url(#clip623)" style="stroke:#000000; stroke-linecap:round; stroke-linejoin:round; stroke-width:2; stroke-opacity:0.1; fill:none" points="
  2292.99,910.808 2292.99,91.3421 
  "/>
<polyline clip-path="url(#clip623)" style="stroke:#000000; stroke-linecap:round; stroke-linejoin:round; stroke-width:2; stroke-opacity:0.1; fill:none" points="
  2533.11,910.808 2533.11,91.3421 
  "/>
<polyline clip-path="url(#clip623)" style="stroke:#000000; stroke-linecap:round; stroke-linejoin:round; stroke-width:2; stroke-opacity:0.1; fill:none" points="
  2773.23,910.808 2773.23,91.3421 
  "/>
<polyline clip-path="url(#clip623)" style="stroke:#000000; stroke-linecap:round; stroke-linejoin:round; stroke-width:2; stroke-opacity:0.1; fill:none" points="
  3013.35,910.808 3013.35,91.3421 
  "/>
<polyline clip-path="url(#clip620)" style="stroke:#000000; stroke-linecap:round; stroke-linejoin:round; stroke-width:4; stroke-opacity:1; fill:none" points="
  1755.48,910.808 3152.76,910.808 
  "/>
<polyline clip-path="url(#clip620)" style="stroke:#000000; stroke-linecap:round; stroke-linejoin:round; stroke-width:4; stroke-opacity:1; fill:none" points="
  1812.76,910.808 1812.76,891.91 
  "/>
<polyline clip-path="url(#clip620)" style="stroke:#000000; stroke-linecap:round; stroke-linejoin:round; stroke-width:4; stroke-opacity:1; fill:none" points="
  2052.87,910.808 2052.87,891.91 
  "/>
<polyline clip-path="url(#clip620)" style="stroke:#000000; stroke-linecap:round; stroke-linejoin:round; stroke-width:4; stroke-opacity:1; fill:none" points="
  2292.99,910.808 2292.99,891.91 
  "/>
<polyline clip-path="url(#clip620)" style="stroke:#000000; stroke-linecap:round; stroke-linejoin:round; stroke-width:4; stroke-opacity:1; fill:none" points="
  2533.11,910.808 2533.11,891.91 
  "/>
<polyline clip-path="url(#clip620)" style="stroke:#000000; stroke-linecap:round; stroke-linejoin:round; stroke-width:4; stroke-opacity:1; fill:none" points="
  2773.23,910.808 2773.23,891.91 
  "/>
<polyline clip-path="url(#clip620)" style="stroke:#000000; stroke-linecap:round; stroke-linejoin:round; stroke-width:4; stroke-opacity:1; fill:none" points="
  3013.35,910.808 3013.35,891.91 
  "/>
<path clip-path="url(#clip620)" d="M1782.7 962.779 L1812.37 962.779 L1812.37 966.714 L1782.7 966.714 L1782.7 962.779 Z" fill="#000000" fill-rule="evenodd" fill-opacity="1" /><path clip-path="url(#clip620)" d="M1826.49 975.673 L1842.81 975.673 L1842.81 979.608 L1820.87 979.608 L1820.87 975.673 Q1823.53 972.918 1828.11 968.288 Q1832.72 963.636 1833.9 962.293 Q1836.15 959.77 1837.03 958.034 Q1837.93 956.275 1837.93 954.585 Q1837.93 951.83 1835.98 950.094 Q1834.06 948.358 1830.96 948.358 Q1828.76 948.358 1826.31 949.122 Q1823.88 949.886 1821.1 951.437 L1821.1 946.715 Q1823.92 945.58 1826.38 945.002 Q1828.83 944.423 1830.87 944.423 Q1836.24 944.423 1839.43 947.108 Q1842.63 949.793 1842.63 954.284 Q1842.63 956.414 1841.82 958.335 Q1841.03 960.233 1838.92 962.826 Q1838.35 963.497 1835.24 966.714 Q1832.14 969.909 1826.49 975.673 Z" fill="#000000" fill-rule="evenodd" fill-opacity="1" /><path clip-path="url(#clip620)" d="M2022.63 962.779 L2052.31 962.779 L2052.31 966.714 L2022.63 966.714 L2022.63 962.779 Z" fill="#000000" fill-rule="evenodd" fill-opacity="1" /><path clip-path="url(#clip620)" d="M2063.21 975.673 L2070.85 975.673 L2070.85 949.307 L2062.54 950.974 L2062.54 946.715 L2070.8 945.048 L2075.48 945.048 L2075.48 975.673 L2083.12 975.673 L2083.12 979.608 L2063.21 979.608 L2063.21 975.673 Z" fill="#000000" fill-rule="evenodd" fill-opacity="1" /><path clip-path="url(#clip620)" d="M2292.99 948.127 Q2289.38 948.127 2287.55 951.691 Q2285.75 955.233 2285.75 962.363 Q2285.75 969.469 2287.55 973.034 Q2289.38 976.575 2292.99 976.575 Q2296.63 976.575 2298.43 973.034 Q2300.26 969.469 2300.26 962.363 Q2300.26 955.233 2298.43 951.691 Q2296.63 948.127 2292.99 948.127 M2292.99 944.423 Q2298.8 944.423 2301.86 949.029 Q2304.94 953.613 2304.94 962.363 Q2304.94 971.089 2301.86 975.696 Q2298.8 980.279 2292.99 980.279 Q2287.18 980.279 2284.1 975.696 Q2281.05 971.089 2281.05 962.363 Q2281.05 953.613 2284.1 949.029 Q2287.18 944.423 2292.99 944.423 Z" fill="#000000" fill-rule="evenodd" fill-opacity="1" /><path clip-path="url(#clip620)" d="M2523.49 975.673 L2531.13 975.673 L2531.13 949.307 L2522.82 950.974 L2522.82 946.715 L2531.09 945.048 L2535.76 945.048 L2535.76 975.673 L2543.4 975.673 L2543.4 979.608 L2523.49 979.608 L2523.49 975.673 Z" fill="#000000" fill-rule="evenodd" fill-opacity="1" /><path clip-path="url(#clip620)" d="M2767.88 975.673 L2784.2 975.673 L2784.2 979.608 L2762.26 979.608 L2762.26 975.673 Q2764.92 972.918 2769.5 968.288 Q2774.11 963.636 2775.29 962.293 Q2777.54 959.77 2778.42 958.034 Q2779.32 956.275 2779.32 954.585 Q2779.32 951.83 2777.37 950.094 Q2775.45 948.358 2772.35 948.358 Q2770.15 948.358 2767.7 949.122 Q2765.27 949.886 2762.49 951.437 L2762.49 946.715 Q2765.31 945.58 2767.77 945.002 Q2770.22 944.423 2772.26 944.423 Q2777.63 944.423 2780.82 947.108 Q2784.02 949.793 2784.02 954.284 Q2784.02 956.414 2783.21 958.335 Q2782.42 960.233 2780.31 962.826 Q2779.74 963.497 2776.63 966.714 Q2773.53 969.909 2767.88 975.673 Z" fill="#000000" fill-rule="evenodd" fill-opacity="1" /><path clip-path="url(#clip620)" d="M3017.6 960.974 Q3020.95 961.691 3022.83 963.96 Q3024.73 966.228 3024.73 969.562 Q3024.73 974.677 3021.21 977.478 Q3017.69 980.279 3011.21 980.279 Q3009.03 980.279 3006.72 979.839 Q3004.43 979.423 3001.97 978.566 L3001.97 974.052 Q3003.92 975.187 3006.23 975.765 Q3008.55 976.344 3011.07 976.344 Q3015.47 976.344 3017.76 974.608 Q3020.07 972.872 3020.07 969.562 Q3020.07 966.506 3017.92 964.793 Q3015.79 963.057 3011.97 963.057 L3007.94 963.057 L3007.94 959.214 L3012.16 959.214 Q3015.61 959.214 3017.44 957.849 Q3019.26 956.46 3019.26 953.867 Q3019.26 951.205 3017.37 949.793 Q3015.49 948.358 3011.97 948.358 Q3010.05 948.358 3007.85 948.775 Q3005.65 949.191 3003.01 950.071 L3003.01 945.904 Q3005.68 945.164 3007.99 944.793 Q3010.33 944.423 3012.39 944.423 Q3017.71 944.423 3020.81 946.853 Q3023.92 949.261 3023.92 953.381 Q3023.92 956.252 3022.27 958.242 Q3020.63 960.21 3017.6 960.974 Z" fill="#000000" fill-rule="evenodd" fill-opacity="1" /><polyline clip-path="url(#clip623)" style="stroke:#000000; stroke-linecap:round; stroke-linejoin:round; stroke-width:2; stroke-opacity:0.1; fill:none" points="
  1755.48,901.967 3152.76,901.967 
  "/>
<polyline clip-path="url(#clip623)" style="stroke:#000000; stroke-linecap:round; stroke-linejoin:round; stroke-width:2; stroke-opacity:0.1; fill:none" points="
  1755.48,714.463 3152.76,714.463 
  "/>
<polyline clip-path="url(#clip623)" style="stroke:#000000; stroke-linecap:round; stroke-linejoin:round; stroke-width:2; stroke-opacity:0.1; fill:none" points="
  1755.48,526.959 3152.76,526.959 
  "/>
<polyline clip-path="url(#clip623)" style="stroke:#000000; stroke-linecap:round; stroke-linejoin:round; stroke-width:2; stroke-opacity:0.1; fill:none" points="
  1755.48,339.455 3152.76,339.455 
  "/>
<polyline clip-path="url(#clip623)" style="stroke:#000000; stroke-linecap:round; stroke-linejoin:round; stroke-width:2; stroke-opacity:0.1; fill:none" points="
  1755.48,151.951 3152.76,151.951 
  "/>
<polyline clip-path="url(#clip620)" style="stroke:#000000; stroke-linecap:round; stroke-linejoin:round; stroke-width:4; stroke-opacity:1; fill:none" points="
  1755.48,910.808 1755.48,91.3421 
  "/>
<polyline clip-path="url(#clip620)" style="stroke:#000000; stroke-linecap:round; stroke-linejoin:round; stroke-width:4; stroke-opacity:1; fill:none" points="
  1755.48,901.967 1774.38,901.967 
  "/>
<polyline clip-path="url(#clip620)" style="stroke:#000000; stroke-linecap:round; stroke-linejoin:round; stroke-width:4; stroke-opacity:1; fill:none" points="
  1755.48,714.463 1774.38,714.463 
  "/>
<polyline clip-path="url(#clip620)" style="stroke:#000000; stroke-linecap:round; stroke-linejoin:round; stroke-width:4; stroke-opacity:1; fill:none" points="
  1755.48,526.959 1774.38,526.959 
  "/>
<polyline clip-path="url(#clip620)" style="stroke:#000000; stroke-linecap:round; stroke-linejoin:round; stroke-width:4; stroke-opacity:1; fill:none" points="
  1755.48,339.455 1774.38,339.455 
  "/>
<polyline clip-path="url(#clip620)" style="stroke:#000000; stroke-linecap:round; stroke-linejoin:round; stroke-width:4; stroke-opacity:1; fill:none" points="
  1755.48,151.951 1774.38,151.951 
  "/>
<path clip-path="url(#clip620)" d="M1647.36 902.419 L1677.04 902.419 L1677.04 906.354 L1647.36 906.354 L1647.36 902.419 Z" fill="#000000" fill-rule="evenodd" fill-opacity="1" /><path clip-path="url(#clip620)" d="M1691.16 915.312 L1707.48 915.312 L1707.48 919.247 L1685.53 919.247 L1685.53 915.312 Q1688.2 912.557 1692.78 907.928 Q1697.39 903.275 1698.57 901.933 Q1700.81 899.409 1701.69 897.673 Q1702.59 895.914 1702.59 894.224 Q1702.59 891.47 1700.65 889.734 Q1698.73 887.997 1695.63 887.997 Q1693.43 887.997 1690.97 888.761 Q1688.54 889.525 1685.77 891.076 L1685.77 886.354 Q1688.59 885.22 1691.04 884.641 Q1693.5 884.062 1695.53 884.062 Q1700.9 884.062 1704.1 886.747 Q1707.29 889.433 1707.29 893.923 Q1707.29 896.053 1706.48 897.974 Q1705.7 899.872 1703.59 902.465 Q1703.01 903.136 1699.91 906.354 Q1696.81 909.548 1691.16 915.312 Z" fill="#000000" fill-rule="evenodd" fill-opacity="1" /><path clip-path="url(#clip620)" d="M1646.99 714.915 L1676.67 714.915 L1676.67 718.85 L1646.99 718.85 L1646.99 714.915 Z" fill="#000000" fill-rule="evenodd" fill-opacity="1" /><path clip-path="url(#clip620)" d="M1687.57 727.808 L1695.21 727.808 L1695.21 701.442 L1686.9 703.109 L1686.9 698.85 L1695.16 697.183 L1699.84 697.183 L1699.84 727.808 L1707.48 727.808 L1707.48 731.743 L1687.57 731.743 L1687.57 727.808 Z" fill="#000000" fill-rule="evenodd" fill-opacity="1" /><path clip-path="url(#clip620)" d="M1695.53 512.758 Q1691.92 512.758 1690.09 516.323 Q1688.29 519.864 1688.29 526.994 Q1688.29 534.1 1690.09 537.665 Q1691.92 541.207 1695.53 541.207 Q1699.17 541.207 1700.97 537.665 Q1702.8 534.1 1702.8 526.994 Q1702.8 519.864 1700.97 516.323 Q1699.17 512.758 1695.53 512.758 M1695.53 509.054 Q1701.34 509.054 1704.4 513.661 Q1707.48 518.244 1707.48 526.994 Q1707.48 535.721 1704.4 540.327 Q1701.34 544.91 1695.53 544.91 Q1689.72 544.91 1686.64 540.327 Q1683.59 535.721 1683.59 526.994 Q1683.59 518.244 1686.64 513.661 Q1689.72 509.054 1695.53 509.054 Z" fill="#000000" fill-rule="evenodd" fill-opacity="1" /><path clip-path="url(#clip620)" d="M1687.57 352.8 L1695.21 352.8 L1695.21 326.434 L1686.9 328.101 L1686.9 323.842 L1695.16 322.175 L1699.84 322.175 L1699.84 352.8 L1707.48 352.8 L1707.48 356.735 L1687.57 356.735 L1687.57 352.8 Z" fill="#000000" fill-rule="evenodd" fill-opacity="1" /><path clip-path="url(#clip620)" d="M1691.16 165.296 L1707.48 165.296 L1707.48 169.231 L1685.53 169.231 L1685.53 165.296 Q1688.2 162.541 1692.78 157.912 Q1697.39 153.259 1698.57 151.916 Q1700.81 149.393 1701.69 147.657 Q1702.59 145.898 1702.59 144.208 Q1702.59 141.453 1700.65 139.717 Q1698.73 137.981 1695.63 137.981 Q1693.43 137.981 1690.97 138.745 Q1688.54 139.509 1685.77 141.06 L1685.77 136.338 Q1688.59 135.204 1691.04 134.625 Q1693.5 134.046 1695.53 134.046 Q1700.9 134.046 1704.1 136.731 Q1707.29 139.416 1707.29 143.907 Q1707.29 146.037 1706.48 147.958 Q1705.7 149.856 1703.59 152.449 Q1703.01 153.12 1699.91 156.338 Q1696.81 159.532 1691.16 165.296 Z" fill="#000000" fill-rule="evenodd" fill-opacity="1" /><path clip-path="url(#clip620)" d="M2336.26 14.0809 L2336.26 22.0612 Q2331.6 19.8332 2327.47 18.7395 Q2323.33 17.6457 2319.49 17.6457 Q2312.8 17.6457 2309.16 20.2383 Q2305.55 22.8309 2305.55 27.611 Q2305.55 31.6214 2307.94 33.6873 Q2310.37 35.7128 2317.1 36.9686 L2322.04 37.9813 Q2331.19 39.7232 2335.53 44.1387 Q2339.9 48.5136 2339.9 55.8863 Q2339.9 64.6767 2333.99 69.2137 Q2328.11 73.7508 2316.73 73.7508 Q2312.44 73.7508 2307.58 72.7785 Q2302.75 71.8063 2297.57 69.9024 L2297.57 61.4765 Q2302.55 64.2716 2307.33 65.6895 Q2312.11 67.1073 2316.73 67.1073 Q2323.74 67.1073 2327.55 64.3527 Q2331.35 61.598 2331.35 56.4939 Q2331.35 52.0379 2328.6 49.5264 Q2325.89 47.0148 2319.65 45.759 L2314.66 44.7868 Q2305.51 42.9639 2301.42 39.075 Q2297.33 35.1862 2297.33 28.2591 Q2297.33 20.2383 2302.96 15.6203 Q2308.63 11.0023 2318.55 11.0023 Q2322.81 11.0023 2327.22 11.7719 Q2331.64 12.5416 2336.26 14.0809 Z" fill="#000000" fill-rule="evenodd" fill-opacity="1" /><path clip-path="url(#clip620)" d="M2391.15 48.0275 L2391.15 51.6733 L2356.87 51.6733 Q2357.36 59.3701 2361.49 63.421 Q2365.67 67.4314 2373.08 67.4314 Q2377.37 67.4314 2381.38 66.3781 Q2385.43 65.3249 2389.4 63.2184 L2389.4 70.267 Q2385.39 71.9684 2381.18 72.8596 Q2376.97 73.7508 2372.63 73.7508 Q2361.78 73.7508 2355.42 67.4314 Q2349.1 61.1119 2349.1 50.3365 Q2349.1 39.1965 2355.09 32.6746 Q2361.13 26.1121 2371.34 26.1121 Q2380.49 26.1121 2385.8 32.0264 Q2391.15 37.9003 2391.15 48.0275 M2383.69 45.84 Q2383.61 39.7232 2380.25 36.0774 Q2376.93 32.4315 2371.42 32.4315 Q2365.18 32.4315 2361.41 35.9558 Q2357.69 39.4801 2357.12 45.8805 L2383.69 45.84 Z" fill="#000000" fill-rule="evenodd" fill-opacity="1" /><path clip-path="url(#clip620)" d="M2410.75 14.324 L2410.75 27.2059 L2426.1 27.2059 L2426.1 32.9987 L2410.75 32.9987 L2410.75 57.6282 Q2410.75 63.1779 2412.25 64.7578 Q2413.79 66.3376 2418.45 66.3376 L2426.1 66.3376 L2426.1 72.576 L2418.45 72.576 Q2409.82 72.576 2406.54 69.3758 Q2403.26 66.1351 2403.26 57.6282 L2403.26 32.9987 L2397.79 32.9987 L2397.79 27.2059 L2403.26 27.2059 L2403.26 14.324 L2410.75 14.324 Z" fill="#000000" fill-rule="evenodd" fill-opacity="1" /><path clip-path="url(#clip620)" d="M2491.2 28.5427 L2491.2 35.5912 Q2488.04 33.9709 2484.64 33.1607 Q2481.24 32.3505 2477.59 32.3505 Q2472.04 32.3505 2469.25 34.0519 Q2466.49 35.7533 2466.49 39.156 Q2466.49 41.7486 2468.48 43.2475 Q2470.46 44.7058 2476.46 46.0426 L2479.01 46.6097 Q2486.95 48.3111 2490.27 51.4303 Q2493.63 54.509 2493.63 60.0587 Q2493.63 66.3781 2488.61 70.0644 Q2483.63 73.7508 2474.88 73.7508 Q2471.23 73.7508 2467.26 73.0216 Q2463.33 72.3329 2458.96 70.9151 L2458.96 63.2184 Q2463.09 65.3654 2467.1 66.4591 Q2471.11 67.5124 2475.04 67.5124 Q2480.31 67.5124 2483.14 65.73 Q2485.98 63.9071 2485.98 60.6258 Q2485.98 57.5877 2483.91 55.9673 Q2481.89 54.3469 2474.96 52.8481 L2472.37 52.2405 Q2465.44 50.7821 2462.36 47.7845 Q2459.28 44.7463 2459.28 39.4801 Q2459.28 33.0797 2463.82 29.5959 Q2468.36 26.1121 2476.7 26.1121 Q2480.83 26.1121 2484.48 26.7198 Q2488.12 27.3274 2491.2 28.5427 Z" fill="#000000" fill-rule="evenodd" fill-opacity="1" /><path clip-path="url(#clip620)" d="M2505.5 27.2059 L2512.96 27.2059 L2512.96 72.576 L2505.5 72.576 L2505.5 27.2059 M2505.5 9.54393 L2512.96 9.54393 L2512.96 18.9825 L2505.5 18.9825 L2505.5 9.54393 Z" fill="#000000" fill-rule="evenodd" fill-opacity="1" /><path clip-path="url(#clip620)" d="M2525.31 27.2059 L2560.72 27.2059 L2560.72 34.0114 L2532.68 66.6212 L2560.72 66.6212 L2560.72 72.576 L2524.3 72.576 L2524.3 65.7705 L2552.33 33.1607 L2525.31 33.1607 L2525.31 27.2059 Z" fill="#000000" fill-rule="evenodd" fill-opacity="1" /><path clip-path="url(#clip620)" d="M2610.91 48.0275 L2610.91 51.6733 L2576.64 51.6733 Q2577.12 59.3701 2581.25 63.421 Q2585.43 67.4314 2592.84 67.4314 Q2597.13 67.4314 2601.14 66.3781 Q2605.2 65.3249 2609.17 63.2184 L2609.17 70.267 Q2605.15 71.9684 2600.94 72.8596 Q2596.73 73.7508 2592.39 73.7508 Q2581.54 73.7508 2575.18 67.4314 Q2568.86 61.1119 2568.86 50.3365 Q2568.86 39.1965 2574.85 32.6746 Q2580.89 26.1121 2591.1 26.1121 Q2600.25 26.1121 2605.56 32.0264 Q2610.91 37.9003 2610.91 48.0275 M2603.45 45.84 Q2603.37 39.7232 2600.01 36.0774 Q2596.69 32.4315 2591.18 32.4315 Q2584.94 32.4315 2581.17 35.9558 Q2577.45 39.4801 2576.88 45.8805 L2603.45 45.84 Z" fill="#000000" fill-rule="evenodd" fill-opacity="1" /></svg>
